<?xml version="1.0" encoding="UTF-8" standalone="no"?>
<!DOCTYPE svg PUBLIC "-//W3C//DTD SVG 1.1//EN"
 "http://www.w3.org/Graphics/SVG/1.1/DTD/svg11.dtd">
<!-- Generated by graphviz version 4.0.0 (20220602.1335)
 -->
<!-- Title: NoveltyFromBlock.cpp Pages: 1 -->
<svg width="495pt" height="252pt"
 viewBox="0.00 0.00 495.38 252.00" xmlns="http://www.w3.org/2000/svg" xmlns:xlink="http://www.w3.org/1999/xlink">
<g id="graph0" class="graph" transform="scale(1 1) rotate(0) translate(4 248)">
<title>NoveltyFromBlock.cpp</title>
<polygon fill="white" stroke="transparent" points="-4,4 -4,-248 491.38,-248 491.38,4 -4,4"/>
<!-- Node1 -->
<g id="node1" class="node">
<title>Node1</title>
<g id="a_node1"><a xlink:title=" ">
<polygon fill="#bfbfbf" stroke="black" points="175.38,-224.5 175.38,-243.5 290.38,-243.5 290.38,-224.5 175.38,-224.5"/>
<text text-anchor="middle" x="232.88" y="-231.5" font-family="Helvetica,sans-Serif" font-size="10.00">NoveltyFromBlock.cpp</text>
</a>
</g>
</g>
<!-- Node2 -->
<g id="node2" class="node">
<title>Node2</title>
<g id="a_node2"><a xlink:href="a00131.xhtml" target="_top" xlink:title=" ">
<polygon fill="white" stroke="black" points="60.38,-168.5 60.38,-187.5 113.38,-187.5 113.38,-168.5 60.38,-168.5"/>
<text text-anchor="middle" x="86.88" y="-175.5" font-family="Helvetica,sans-Serif" font-size="10.00">Vector.h</text>
</a>
</g>
</g>
<!-- Node1&#45;&gt;Node2 -->
<g id="edge1" class="edge">
<title>Node1&#45;&gt;Node2</title>
<path fill="none" stroke="midnightblue" d="M209.74,-224.44C185.4,-215.44 146.87,-201.19 119.46,-191.05"/>
<polygon fill="midnightblue" stroke="midnightblue" points="120.5,-187.7 109.9,-187.52 118.07,-194.27 120.5,-187.7"/>
</g>
<!-- Node10 -->
<g id="node10" class="node">
<title>Node10</title>
<g id="a_node10"><a xlink:href="a00137.xhtml" target="_top" xlink:title=" ">
<polygon fill="white" stroke="black" points="216.38,-56.5 216.38,-75.5 255.38,-75.5 255.38,-56.5 216.38,-56.5"/>
<text text-anchor="middle" x="235.88" y="-63.5" font-family="Helvetica,sans-Serif" font-size="10.00">Util.h</text>
</a>
</g>
</g>
<!-- Node1&#45;&gt;Node10 -->
<g id="edge14" class="edge">
<title>Node1&#45;&gt;Node10</title>
<path fill="none" stroke="midnightblue" d="M233.04,-224.08C233.51,-197.95 234.9,-121.21 235.54,-85.58"/>
<polygon fill="midnightblue" stroke="midnightblue" points="239.04,-85.63 235.72,-75.57 232.04,-85.5 239.04,-85.63"/>
</g>
<!-- Node11 -->
<g id="node11" class="node">
<title>Node11</title>
<g id="a_node11"><a xlink:href="a00188.xhtml" target="_top" xlink:title=" ">
<polygon fill="white" stroke="black" points="296.88,-168.5 296.88,-187.5 400.88,-187.5 400.88,-168.5 296.88,-168.5"/>
<text text-anchor="middle" x="348.88" y="-175.5" font-family="Helvetica,sans-Serif" font-size="10.00">NoveltyFromBlock.h</text>
</a>
</g>
</g>
<!-- Node1&#45;&gt;Node11 -->
<g id="edge15" class="edge">
<title>Node1&#45;&gt;Node11</title>
<path fill="none" stroke="midnightblue" d="M251.26,-224.44C270.1,-215.68 299.61,-201.94 321.26,-191.86"/>
<polygon fill="midnightblue" stroke="midnightblue" points="323,-194.91 330.58,-187.52 320.04,-188.56 323,-194.91"/>
</g>
<!-- Node3 -->
<g id="node3" class="node">
<title>Node3</title>
<g id="a_node3"><a xlink:title=" ">
<polygon fill="white" stroke="#bfbfbf" points="23.38,-0.5 23.38,-19.5 72.38,-19.5 72.38,-0.5 23.38,-0.5"/>
<text text-anchor="middle" x="47.88" y="-7.5" font-family="Helvetica,sans-Serif" font-size="10.00">cassert</text>
</a>
</g>
</g>
<!-- Node2&#45;&gt;Node3 -->
<g id="edge2" class="edge">
<title>Node2&#45;&gt;Node3</title>
<path fill="none" stroke="midnightblue" d="M60,-168.85C42.62,-162.02 21.36,-150.38 10.88,-132 -5.85,-102.66 -0.51,-87.8 10.88,-56 14.82,-45 22.74,-34.77 30.24,-26.85"/>
<polygon fill="midnightblue" stroke="midnightblue" points="32.77,-29.27 37.44,-19.76 27.86,-24.28 32.77,-29.27"/>
</g>
<!-- Node4 -->
<g id="node4" class="node">
<title>Node4</title>
<g id="a_node4"><a xlink:title=" ">
<polygon fill="white" stroke="#bfbfbf" points="120.88,-0.5 120.88,-19.5 166.88,-19.5 166.88,-0.5 120.88,-0.5"/>
<text text-anchor="middle" x="143.88" y="-7.5" font-family="Helvetica,sans-Serif" font-size="10.00">cstring</text>
</a>
</g>
</g>
<!-- Node2&#45;&gt;Node4 -->
<g id="edge3" class="edge">
<title>Node2&#45;&gt;Node4</title>
<path fill="none" stroke="midnightblue" d="M76.16,-168.3C66.94,-160.07 54.29,-146.79 48.88,-132 37.28,-100.28 30.82,-84.54 48.88,-56 62.44,-34.57 89.28,-23.14 110.98,-17.18"/>
<polygon fill="midnightblue" stroke="midnightblue" points="111.97,-20.54 120.83,-14.73 110.28,-13.74 111.97,-20.54"/>
</g>
<!-- Node5 -->
<g id="node5" class="node">
<title>Node5</title>
<g id="a_node5"><a xlink:title=" ">
<polygon fill="white" stroke="#bfbfbf" points="199.88,-0.5 199.88,-19.5 239.88,-19.5 239.88,-0.5 199.88,-0.5"/>
<text text-anchor="middle" x="219.88" y="-7.5" font-family="Helvetica,sans-Serif" font-size="10.00">limits</text>
</a>
</g>
</g>
<!-- Node2&#45;&gt;Node5 -->
<g id="edge4" class="edge">
<title>Node2&#45;&gt;Node5</title>
<path fill="none" stroke="midnightblue" d="M83.23,-168.35C74.82,-146.94 56.69,-90.71 81.88,-56 88.4,-47.01 151.35,-29.07 189.94,-18.76"/>
<polygon fill="midnightblue" stroke="midnightblue" points="190.88,-22.14 199.65,-16.2 189.09,-15.37 190.88,-22.14"/>
</g>
<!-- Node6 -->
<g id="node6" class="node">
<title>Node6</title>
<g id="a_node6"><a xlink:title=" ">
<polygon fill="white" stroke="#bfbfbf" points="90.88,-56.5 90.88,-75.5 134.88,-75.5 134.88,-56.5 90.88,-56.5"/>
<text text-anchor="middle" x="112.88" y="-63.5" font-family="Helvetica,sans-Serif" font-size="10.00">cmath</text>
</a>
</g>
</g>
<!-- Node2&#45;&gt;Node6 -->
<g id="edge5" class="edge">
<title>Node2&#45;&gt;Node6</title>
<path fill="none" stroke="midnightblue" d="M88.92,-168.37C93.12,-150.62 102.79,-109.67 108.48,-85.6"/>
<polygon fill="midnightblue" stroke="midnightblue" points="111.95,-86.13 110.85,-75.59 105.14,-84.52 111.95,-86.13"/>
</g>
<!-- Node7 -->
<g id="node7" class="node">
<title>Node7</title>
<g id="a_node7"><a xlink:href="a00134.xhtml" target="_top" xlink:title=" ">
<polygon fill="white" stroke="black" points="137.38,-112.5 137.38,-131.5 204.38,-131.5 204.38,-112.5 137.38,-112.5"/>
<text text-anchor="middle" x="170.88" y="-119.5" font-family="Helvetica,sans-Serif" font-size="10.00">Synthesis.h</text>
</a>
</g>
</g>
<!-- Node2&#45;&gt;Node7 -->
<g id="edge6" class="edge">
<title>Node2&#45;&gt;Node7</title>
<path fill="none" stroke="midnightblue" d="M100.38,-168.32C113.48,-159.9 133.59,-146.97 148.99,-137.07"/>
<polygon fill="midnightblue" stroke="midnightblue" points="150.9,-140.01 157.42,-131.65 147.11,-134.12 150.9,-140.01"/>
</g>
<!-- Node7&#45;&gt;Node6 -->
<g id="edge7" class="edge">
<title>Node7&#45;&gt;Node6</title>
<path fill="none" stroke="midnightblue" d="M161.56,-112.32C152.99,-104.34 140.07,-92.31 129.69,-82.65"/>
<polygon fill="midnightblue" stroke="midnightblue" points="132.07,-80.09 122.37,-75.83 127.3,-85.21 132.07,-80.09"/>
</g>
<!-- Node8 -->
<g id="node8" class="node">
<title>Node8</title>
<g id="a_node8"><a xlink:title=" ">
<polygon fill="white" stroke="#bfbfbf" points="153.38,-56.5 153.38,-75.5 198.38,-75.5 198.38,-56.5 153.38,-56.5"/>
<text text-anchor="middle" x="175.88" y="-63.5" font-family="Helvetica,sans-Serif" font-size="10.00">cstdlib</text>
</a>
</g>
</g>
<!-- Node7&#45;&gt;Node8 -->
<g id="edge8" class="edge">
<title>Node7&#45;&gt;Node8</title>
<path fill="none" stroke="midnightblue" d="M171.7,-112.08C172.36,-105.01 173.3,-94.86 174.12,-85.99"/>
<polygon fill="midnightblue" stroke="midnightblue" points="177.63,-86.03 175.07,-75.75 170.66,-85.39 177.63,-86.03"/>
</g>
<!-- Node9 -->
<g id="node9" class="node">
<title>Node9</title>
<g id="a_node9"><a xlink:href="a00104.xhtml" target="_top" xlink:title=" ">
<polygon fill="white" stroke="black" points="313.38,-56.5 313.38,-75.5 372.38,-75.5 372.38,-56.5 313.38,-56.5"/>
<text text-anchor="middle" x="342.88" y="-63.5" font-family="Helvetica,sans-Serif" font-size="10.00">ErrorDef.h</text>
</a>
</g>
</g>
<!-- Node7&#45;&gt;Node9 -->
<g id="edge9" class="edge">
<title>Node7&#45;&gt;Node9</title>
<path fill="none" stroke="midnightblue" d="M198.13,-112.44C227.32,-103.28 273.8,-88.69 306.19,-78.52"/>
<polygon fill="midnightblue" stroke="midnightblue" points="307.26,-81.85 315.75,-75.52 305.16,-75.17 307.26,-81.85"/>
</g>
<!-- Node7&#45;&gt;Node10 -->
<g id="edge10" class="edge">
<title>Node7&#45;&gt;Node10</title>
<path fill="none" stroke="midnightblue" d="M181.32,-112.32C191.03,-104.26 205.69,-92.08 217.38,-82.37"/>
<polygon fill="midnightblue" stroke="midnightblue" points="219.79,-84.92 225.25,-75.83 215.32,-79.53 219.79,-84.92"/>
</g>
<!-- Node10&#45;&gt;Node3 -->
<g id="edge11" class="edge">
<title>Node10&#45;&gt;Node3</title>
<path fill="none" stroke="midnightblue" d="M216.24,-58.83C213.12,-57.87 209.91,-56.9 206.88,-56 164.07,-43.3 114.54,-29.41 82.28,-20.47"/>
<polygon fill="midnightblue" stroke="midnightblue" points="83.02,-17.04 72.45,-17.75 81.15,-23.79 83.02,-17.04"/>
</g>
<!-- Node10&#45;&gt;Node4 -->
<g id="edge12" class="edge">
<title>Node10&#45;&gt;Node4</title>
<path fill="none" stroke="midnightblue" d="M221.1,-56.32C206.61,-47.82 184.31,-34.73 167.39,-24.8"/>
<polygon fill="midnightblue" stroke="midnightblue" points="169.02,-21.7 158.62,-19.65 165.48,-27.74 169.02,-21.7"/>
</g>
<!-- Node10&#45;&gt;Node5 -->
<g id="edge13" class="edge">
<title>Node10&#45;&gt;Node5</title>
<path fill="none" stroke="midnightblue" d="M233.24,-56.08C231.09,-48.85 228,-38.41 225.33,-29.4"/>
<polygon fill="midnightblue" stroke="midnightblue" points="228.67,-28.34 222.47,-19.75 221.96,-30.33 228.67,-28.34"/>
</g>
<!-- Node11&#45;&gt;Node9 -->
<g id="edge18" class="edge">
<title>Node11&#45;&gt;Node9</title>
<path fill="none" stroke="midnightblue" d="M348.41,-168.37C347.44,-150.62 345.21,-109.67 343.89,-85.6"/>
<polygon fill="midnightblue" stroke="midnightblue" points="347.39,-85.39 343.35,-75.59 340.4,-85.77 347.39,-85.39"/>
</g>
<!-- Node12 -->
<g id="node12" class="node">
<title>Node12</title>
<g id="a_node12"><a xlink:title=" ">
<polygon fill="white" stroke="#bfbfbf" points="452.38,-112.5 452.38,-131.5 487.38,-131.5 487.38,-112.5 452.38,-112.5"/>
<text text-anchor="middle" x="469.88" y="-119.5" font-family="Helvetica,sans-Serif" font-size="10.00">map</text>
</a>
</g>
</g>
<!-- Node11&#45;&gt;Node12 -->
<g id="edge16" class="edge">
<title>Node11&#45;&gt;Node12</title>
<path fill="none" stroke="midnightblue" d="M368.05,-168.44C388.25,-159.43 420.23,-145.16 442.95,-135.02"/>
<polygon fill="midnightblue" stroke="midnightblue" points="444.66,-138.09 452.37,-130.82 441.81,-131.69 444.66,-138.09"/>
</g>
<!-- Node13 -->
<g id="node13" class="node">
<title>Node13</title>
<g id="a_node13"><a xlink:title=" ">
<polygon fill="white" stroke="#bfbfbf" points="261.38,-112.5 261.38,-131.5 320.38,-131.5 320.38,-112.5 261.38,-112.5"/>
<text text-anchor="middle" x="290.88" y="-119.5" font-family="Helvetica,sans-Serif" font-size="10.00">functional</text>
</a>
</g>
</g>
<!-- Node11&#45;&gt;Node13 -->
<g id="edge17" class="edge">
<title>Node11&#45;&gt;Node13</title>
<path fill="none" stroke="midnightblue" d="M339.56,-168.32C330.99,-160.34 318.07,-148.31 307.69,-138.65"/>
<polygon fill="midnightblue" stroke="midnightblue" points="310.07,-136.09 300.37,-131.83 305.3,-141.21 310.07,-136.09"/>
</g>
<!-- Node14 -->
<g id="node14" class="node">
<title>Node14</title>
<g id="a_node14"><a xlink:href="a00167.xhtml" target="_top" xlink:title=" ">
<polygon fill="white" stroke="black" points="377.38,-112.5 377.38,-131.5 434.38,-131.5 434.38,-112.5 377.38,-112.5"/>
<text text-anchor="middle" x="405.88" y="-119.5" font-family="Helvetica,sans-Serif" font-size="10.00">Novelty.h</text>
</a>
</g>
</g>
<!-- Node11&#45;&gt;Node14 -->
<g id="edge19" class="edge">
<title>Node11&#45;&gt;Node14</title>
<path fill="none" stroke="midnightblue" d="M358.04,-168.32C366.38,-160.42 378.91,-148.55 389.06,-138.94"/>
<polygon fill="midnightblue" stroke="midnightblue" points="391.7,-141.25 396.55,-131.83 386.89,-136.17 391.7,-141.25"/>
</g>
<!-- Node14&#45;&gt;Node9 -->
<g id="edge21" class="edge">
<title>Node14&#45;&gt;Node9</title>
<path fill="none" stroke="midnightblue" d="M395.76,-112.32C386.35,-104.26 372.13,-92.08 360.81,-82.37"/>
<polygon fill="midnightblue" stroke="midnightblue" points="363.06,-79.68 353.19,-75.83 358.5,-85 363.06,-79.68"/>
</g>
<!-- Node15 -->
<g id="node15" class="node">
<title>Node15</title>
<g id="a_node15"><a xlink:title=" ">
<polygon fill="white" stroke="#bfbfbf" points="390.38,-56.5 390.38,-75.5 431.38,-75.5 431.38,-56.5 390.38,-56.5"/>
<text text-anchor="middle" x="410.88" y="-63.5" font-family="Helvetica,sans-Serif" font-size="10.00">string</text>
</a>
</g>
</g>
<!-- Node14&#45;&gt;Node15 -->
<g id="edge20" class="edge">
<title>Node14&#45;&gt;Node15</title>
<path fill="none" stroke="midnightblue" d="M406.7,-112.08C407.36,-105.01 408.3,-94.86 409.12,-85.99"/>
<polygon fill="midnightblue" stroke="midnightblue" points="412.63,-86.03 410.07,-75.75 405.66,-85.39 412.63,-86.03"/>
</g>
</g>
</svg>
