<?xml version="1.0" encoding="UTF-8" standalone="no"?>
<!DOCTYPE svg PUBLIC "-//W3C//DTD SVG 1.1//EN"
 "http://www.w3.org/Graphics/SVG/1.1/DTD/svg11.dtd">
<!-- Generated by graphviz version 4.0.0 (20220602.1335)
 -->
<!-- Title: Vector.h Pages: 1 -->
<svg width="1864pt" height="308pt"
 viewBox="0.00 0.00 1864.00 308.00" xmlns="http://www.w3.org/2000/svg" xmlns:xlink="http://www.w3.org/1999/xlink">
<g id="graph0" class="graph" transform="scale(1 1) rotate(0) translate(4 304)">
<title>Vector.h</title>
<polygon fill="white" stroke="transparent" points="-4,4 -4,-304 1860,-304 1860,4 -4,4"/>
<!-- Node1 -->
<g id="node1" class="node">
<title>Node1</title>
<g id="a_node1"><a xlink:title=" ">
<polygon fill="#bfbfbf" stroke="black" points="1081,-280.5 1081,-299.5 1134,-299.5 1134,-280.5 1081,-280.5"/>
<text text-anchor="middle" x="1107.5" y="-287.5" font-family="Helvetica,sans-Serif" font-size="10.00">Vector.h</text>
</a>
</g>
</g>
<!-- Node2 -->
<g id="node2" class="node">
<title>Node2</title>
<g id="a_node2"><a xlink:href="a00008.xhtml" target="_top" xlink:title=" ">
<polygon fill="white" stroke="black" points="0,-224.5 0,-243.5 75,-243.5 75,-224.5 0,-224.5"/>
<text text-anchor="middle" x="37.5" y="-231.5" font-family="Helvetica,sans-Serif" font-size="10.00">AudioFile.cpp</text>
</a>
</g>
</g>
<!-- Node1&#45;&gt;Node2 -->
<g id="edge1" class="edge">
<title>Node1&#45;&gt;Node2</title>
<path fill="none" stroke="midnightblue" d="M1070.61,-289.06C937.76,-288.92 471.38,-285.32 89.5,-244 84.85,-243.5 80,-242.84 75.19,-242.1"/>
<polygon fill="midnightblue" stroke="midnightblue" points="1070.66,-292.56 1080.67,-289.06 1070.67,-285.56 1070.66,-292.56"/>
</g>
<!-- Node3 -->
<g id="node3" class="node">
<title>Node3</title>
<g id="a_node3"><a xlink:href="a00077.xhtml" target="_top" xlink:title=" ">
<polygon fill="white" stroke="black" points="169.5,-168.5 169.5,-187.5 247.5,-187.5 247.5,-168.5 169.5,-168.5"/>
<text text-anchor="middle" x="208.5" y="-175.5" font-family="Helvetica,sans-Serif" font-size="10.00">BeatHisto.cpp</text>
</a>
</g>
</g>
<!-- Node1&#45;&gt;Node3 -->
<g id="edge2" class="edge">
<title>Node1&#45;&gt;Node3</title>
<path fill="none" stroke="midnightblue" d="M1070.73,-288.22C975.19,-285.79 711.43,-276.43 494.5,-244 400.33,-229.92 291.13,-201.73 239.11,-187.55"/>
<polygon fill="midnightblue" stroke="midnightblue" points="1070.67,-291.72 1080.75,-288.47 1070.84,-284.73 1070.67,-291.72"/>
</g>
<!-- Node4 -->
<g id="node4" class="node">
<title>Node4</title>
<g id="a_node4"><a xlink:href="a00053.xhtml" target="_top" xlink:title=" ">
<polygon fill="white" stroke="black" points="962,-168.5 962,-187.5 1069,-187.5 1069,-168.5 962,-168.5"/>
<text text-anchor="middle" x="1015.5" y="-175.5" font-family="Helvetica,sans-Serif" font-size="10.00">ChordFromBlock.cpp</text>
</a>
</g>
</g>
<!-- Node1&#45;&gt;Node4 -->
<g id="edge3" class="edge">
<title>Node1&#45;&gt;Node4</title>
<path fill="none" stroke="midnightblue" d="M1093.77,-272.59C1073.94,-248.87 1037.97,-205.87 1022.69,-187.59"/>
<polygon fill="midnightblue" stroke="midnightblue" points="1091.18,-274.94 1100.28,-280.37 1096.55,-270.45 1091.18,-274.94"/>
</g>
<!-- Node5 -->
<g id="node5" class="node">
<title>Node5</title>
<g id="a_node5"><a xlink:href="a00035.xhtml" target="_top" xlink:title=" ">
<polygon fill="white" stroke="black" points="1087,-168.5 1087,-187.5 1202,-187.5 1202,-168.5 1087,-168.5"/>
<text text-anchor="middle" x="1144.5" y="-175.5" font-family="Helvetica,sans-Serif" font-size="10.00">FeatureFromBlock.cpp</text>
</a>
</g>
</g>
<!-- Node1&#45;&gt;Node5 -->
<g id="edge4" class="edge">
<title>Node1&#45;&gt;Node5</title>
<path fill="none" stroke="midnightblue" d="M1100.84,-270.3C1097.18,-256.94 1094.47,-238.78 1100.5,-224 1106.77,-208.62 1121.11,-195.64 1131.72,-187.63"/>
<polygon fill="midnightblue" stroke="midnightblue" points="1097.63,-271.74 1103.98,-280.22 1104.3,-269.63 1097.63,-271.74"/>
</g>
<!-- Node6 -->
<g id="node6" class="node">
<title>Node6</title>
<g id="a_node6"><a xlink:href="a00065.xhtml" target="_top" xlink:title=" ">
<polygon fill="white" stroke="black" points="1368,-224.5 1368,-243.5 1415,-243.5 1415,-224.5 1368,-224.5"/>
<text text-anchor="middle" x="1391.5" y="-231.5" font-family="Helvetica,sans-Serif" font-size="10.00">Fft.cpp</text>
</a>
</g>
</g>
<!-- Node1&#45;&gt;Node6 -->
<g id="edge5" class="edge">
<title>Node1&#45;&gt;Node6</title>
<path fill="none" stroke="midnightblue" d="M1144.11,-282.91C1192.27,-274.76 1279.47,-259.53 1353.5,-244 1358.14,-243.03 1363.09,-241.91 1367.83,-240.81"/>
<polygon fill="midnightblue" stroke="midnightblue" points="1143.44,-279.47 1134.16,-284.59 1144.6,-286.38 1143.44,-279.47"/>
</g>
<!-- Node7 -->
<g id="node7" class="node">
<title>Node7</title>
<g id="a_node7"><a xlink:href="a00128.xhtml" target="_top" xlink:title=" ">
<polygon fill="white" stroke="black" points="897.5,-168.5 897.5,-187.5 943.5,-187.5 943.5,-168.5 897.5,-168.5"/>
<text text-anchor="middle" x="920.5" y="-175.5" font-family="Helvetica,sans-Serif" font-size="10.00">Filter.h</text>
</a>
</g>
</g>
<!-- Node1&#45;&gt;Node7 -->
<g id="edge6" class="edge">
<title>Node1&#45;&gt;Node7</title>
<path fill="none" stroke="midnightblue" d="M1083.71,-275.01C1044.46,-251.92 967.27,-206.51 935.11,-187.59"/>
<polygon fill="midnightblue" stroke="midnightblue" points="1082.43,-278.32 1092.83,-280.37 1085.98,-272.28 1082.43,-278.32"/>
</g>
<!-- Node8 -->
<g id="node8" class="node">
<title>Node8</title>
<g id="a_node8"><a xlink:href="a00086.xhtml" target="_top" xlink:title=" ">
<polygon fill="white" stroke="black" points="590.5,-112.5 590.5,-131.5 694.5,-131.5 694.5,-112.5 590.5,-112.5"/>
<text text-anchor="middle" x="642.5" y="-119.5" font-family="Helvetica,sans-Serif" font-size="10.00">PitchFromBlock.cpp</text>
</a>
</g>
</g>
<!-- Node1&#45;&gt;Node8 -->
<g id="edge33" class="edge">
<title>Node1&#45;&gt;Node8</title>
<path fill="none" stroke="midnightblue" d="M1070.47,-288.1C902.48,-283.64 217.71,-261.03 160.5,-188 155.02,-181 154.51,-174.57 160.5,-168 189.01,-136.7 471.26,-126.79 590.14,-123.99"/>
<polygon fill="midnightblue" stroke="midnightblue" points="1070.47,-291.6 1080.56,-288.37 1070.65,-284.61 1070.47,-291.6"/>
</g>
<!-- Node20 -->
<g id="node20" class="node">
<title>Node20</title>
<g id="a_node20"><a xlink:href="a00125.xhtml" target="_top" xlink:title=" ">
<polygon fill="white" stroke="black" points="1109.5,-224.5 1109.5,-243.5 1159.5,-243.5 1159.5,-224.5 1109.5,-224.5"/>
<text text-anchor="middle" x="1134.5" y="-231.5" font-family="Helvetica,sans-Serif" font-size="10.00">Matrix.h</text>
</a>
</g>
</g>
<!-- Node1&#45;&gt;Node20 -->
<g id="edge19" class="edge">
<title>Node1&#45;&gt;Node20</title>
<path fill="none" stroke="midnightblue" d="M1116.51,-270.98C1121.09,-261.82 1126.45,-251.09 1130.12,-243.75"/>
<polygon fill="midnightblue" stroke="midnightblue" points="1113.3,-269.57 1111.96,-280.08 1119.56,-272.7 1113.3,-269.57"/>
</g>
<!-- Node23 -->
<g id="node23" class="node">
<title>Node23</title>
<g id="a_node23"><a xlink:href="a00071.xhtml" target="_top" xlink:title=" ">
<polygon fill="white" stroke="black" points="698,-168.5 698,-187.5 801,-187.5 801,-168.5 698,-168.5"/>
<text text-anchor="middle" x="749.5" y="-175.5" font-family="Helvetica,sans-Serif" font-size="10.00">ToolBlockAudio.cpp</text>
</a>
</g>
</g>
<!-- Node1&#45;&gt;Node23 -->
<g id="edge34" class="edge">
<title>Node1&#45;&gt;Node23</title>
<path fill="none" stroke="midnightblue" d="M1070.94,-277.77C999.17,-255.72 841.28,-207.2 777.27,-187.53"/>
<polygon fill="midnightblue" stroke="midnightblue" points="1070.3,-281.23 1080.88,-280.82 1072.35,-274.54 1070.3,-281.23"/>
</g>
<!-- Node25 -->
<g id="node25" class="node">
<title>Node25</title>
<g id="a_node25"><a xlink:href="a00056.xhtml" target="_top" xlink:title=" ">
<polygon fill="white" stroke="black" points="1311,-168.5 1311,-187.5 1382,-187.5 1382,-168.5 1311,-168.5"/>
<text text-anchor="middle" x="1346.5" y="-175.5" font-family="Helvetica,sans-Serif" font-size="10.00">ToolPca.cpp</text>
</a>
</g>
</g>
<!-- Node1&#45;&gt;Node25 -->
<g id="edge38" class="edge">
<title>Node1&#45;&gt;Node25</title>
<path fill="none" stroke="midnightblue" d="M1127.3,-274.63C1147.64,-260.35 1180.63,-238.54 1211.5,-224 1245.14,-208.16 1285.88,-195.39 1313.75,-187.56"/>
<polygon fill="midnightblue" stroke="midnightblue" points="1125.27,-271.78 1119.14,-280.43 1129.32,-277.49 1125.27,-271.78"/>
</g>
<!-- Node26 -->
<g id="node26" class="node">
<title>Node26</title>
<g id="a_node26"><a xlink:href="a00059.xhtml" target="_top" xlink:title=" ">
<polygon fill="white" stroke="black" points="1400,-168.5 1400,-187.5 1501,-187.5 1501,-168.5 1400,-168.5"/>
<text text-anchor="middle" x="1450.5" y="-175.5" font-family="Helvetica,sans-Serif" font-size="10.00">ToolSimpleDtw.cpp</text>
</a>
</g>
</g>
<!-- Node1&#45;&gt;Node26 -->
<g id="edge49" class="edge">
<title>Node1&#45;&gt;Node26</title>
<path fill="none" stroke="midnightblue" d="M1136.63,-276.34C1156.88,-267.46 1184.43,-255.23 1208.5,-244 1226.87,-235.43 1230.37,-230.7 1249.5,-224 1299.28,-206.56 1358.42,-194.28 1399.61,-187"/>
<polygon fill="midnightblue" stroke="midnightblue" points="1135.09,-273.19 1127.33,-280.41 1137.9,-279.61 1135.09,-273.19"/>
</g>
<!-- Node27 -->
<g id="node27" class="node">
<title>Node27</title>
<g id="a_node27"><a xlink:href="a00038.xhtml" target="_top" xlink:title=" ">
<polygon fill="white" stroke="black" points="1519,-168.5 1519,-187.5 1638,-187.5 1638,-168.5 1519,-168.5"/>
<text text-anchor="middle" x="1578.5" y="-175.5" font-family="Helvetica,sans-Serif" font-size="10.00">ToolSimpleKmeans.cpp</text>
</a>
</g>
</g>
<!-- Node1&#45;&gt;Node27 -->
<g id="edge50" class="edge">
<title>Node1&#45;&gt;Node27</title>
<path fill="none" stroke="midnightblue" d="M1143.76,-278.16C1171.38,-269.63 1210.19,-257.04 1243.5,-244 1263.5,-236.17 1266.92,-230.14 1287.5,-224 1309.21,-217.52 1440.36,-198.44 1518.99,-187.32"/>
<polygon fill="midnightblue" stroke="midnightblue" points="1142.66,-274.84 1134.12,-281.12 1144.71,-281.53 1142.66,-274.84"/>
</g>
<!-- Node28 -->
<g id="node28" class="node">
<title>Node28</title>
<g id="a_node28"><a xlink:href="a00041.xhtml" target="_top" xlink:title=" ">
<polygon fill="white" stroke="black" points="1656,-168.5 1656,-187.5 1757,-187.5 1757,-168.5 1656,-168.5"/>
<text text-anchor="middle" x="1706.5" y="-175.5" font-family="Helvetica,sans-Serif" font-size="10.00">ToolSimpleKnn.cpp</text>
</a>
</g>
</g>
<!-- Node1&#45;&gt;Node28 -->
<g id="edge51" class="edge">
<title>Node1&#45;&gt;Node28</title>
<path fill="none" stroke="midnightblue" d="M1143.92,-281.19C1179.07,-273.25 1233.57,-259.89 1279.5,-244 1300.57,-236.71 1303.96,-229.75 1325.5,-224 1464.64,-186.88 1504.74,-206.86 1647.5,-188 1650.27,-187.63 1653.12,-187.24 1655.99,-186.84"/>
<polygon fill="midnightblue" stroke="midnightblue" points="1143.1,-277.79 1134.1,-283.38 1144.62,-284.62 1143.1,-277.79"/>
</g>
<!-- Node29 -->
<g id="node29" class="node">
<title>Node29</title>
<g id="a_node29"><a xlink:href="a00074.xhtml" target="_top" xlink:title=" ">
<polygon fill="white" stroke="black" points="1775,-168.5 1775,-187.5 1856,-187.5 1856,-168.5 1775,-168.5"/>
<text text-anchor="middle" x="1815.5" y="-175.5" font-family="Helvetica,sans-Serif" font-size="10.00">ToolViterbi.cpp</text>
</a>
</g>
</g>
<!-- Node1&#45;&gt;Node29 -->
<g id="edge52" class="edge">
<title>Node1&#45;&gt;Node29</title>
<path fill="none" stroke="midnightblue" d="M1144.17,-283.65C1186.43,-276.91 1257.62,-263.75 1316.5,-244 1336.48,-237.3 1339.14,-229.45 1359.5,-224 1534.91,-177 1586.56,-212.43 1766.5,-188 1769.24,-187.63 1772.07,-187.21 1774.9,-186.76"/>
<polygon fill="midnightblue" stroke="midnightblue" points="1143.41,-280.23 1134.07,-285.23 1144.49,-287.14 1143.41,-280.23"/>
</g>
<!-- Node30 -->
<g id="node30" class="node">
<title>Node30</title>
<g id="a_node30"><a xlink:href="a00062.xhtml" target="_top" xlink:title=" ">
<polygon fill="white" stroke="black" points="1433,-224.5 1433,-243.5 1548,-243.5 1548,-224.5 1433,-224.5"/>
<text text-anchor="middle" x="1490.5" y="-231.5" font-family="Helvetica,sans-Serif" font-size="10.00">NoveltyFromBlock.cpp</text>
</a>
</g>
</g>
<!-- Node1&#45;&gt;Node30 -->
<g id="edge32" class="edge">
<title>Node1&#45;&gt;Node30</title>
<path fill="none" stroke="midnightblue" d="M1144.18,-283.83C1210.99,-274.41 1352.95,-254.39 1432.82,-243.13"/>
<polygon fill="midnightblue" stroke="midnightblue" points="1143.54,-280.38 1134.13,-285.25 1144.52,-287.32 1143.54,-280.38"/>
</g>
<!-- Node31 -->
<g id="node31" class="node">
<title>Node31</title>
<g id="a_node31"><a xlink:href="a00089.xhtml" target="_top" xlink:title=" ">
<polygon fill="white" stroke="black" points="1566.5,-224.5 1566.5,-243.5 1634.5,-243.5 1634.5,-224.5 1566.5,-224.5"/>
<text text-anchor="middle" x="1600.5" y="-231.5" font-family="Helvetica,sans-Serif" font-size="10.00">ToolCcf.cpp</text>
</a>
</g>
</g>
<!-- Node1&#45;&gt;Node31 -->
<g id="edge35" class="edge">
<title>Node1&#45;&gt;Node31</title>
<path fill="none" stroke="midnightblue" d="M1144.41,-286.65C1221.48,-281.44 1405.02,-267.51 1557.5,-244 1560.36,-243.56 1563.33,-243.05 1566.29,-242.5"/>
<polygon fill="midnightblue" stroke="midnightblue" points="1144,-283.17 1134.25,-287.32 1144.46,-290.15 1144,-283.17"/>
</g>
<!-- Node32 -->
<g id="node32" class="node">
<title>Node32</title>
<g id="a_node32"><a xlink:href="a00170.xhtml" target="_top" xlink:title=" ">
<polygon fill="white" stroke="black" points="240,-112.5 240,-131.5 319,-131.5 319,-112.5 240,-112.5"/>
<text text-anchor="middle" x="279.5" y="-119.5" font-family="Helvetica,sans-Serif" font-size="10.00">ToolInstFreq.h</text>
</a>
</g>
</g>
<!-- Node1&#45;&gt;Node32 -->
<g id="edge36" class="edge">
<title>Node1&#45;&gt;Node32</title>
<path fill="none" stroke="midnightblue" d="M1070.46,-289.26C927.29,-289.9 410.32,-289 253.5,-244 204.16,-229.84 178.55,-232.23 152.5,-188 131.01,-151.51 194.89,-134.76 239.69,-127.67"/>
<polygon fill="midnightblue" stroke="midnightblue" points="1070.89,-292.75 1080.87,-289.2 1070.86,-285.75 1070.89,-292.75"/>
</g>
<!-- Node33 -->
<g id="node33" class="node">
<title>Node33</title>
<g id="a_node33"><a xlink:href="a00113.xhtml" target="_top" xlink:title=" ">
<polygon fill="white" stroke="black" points="503.5,-224.5 503.5,-243.5 581.5,-243.5 581.5,-224.5 503.5,-224.5"/>
<text text-anchor="middle" x="542.5" y="-231.5" font-family="Helvetica,sans-Serif" font-size="10.00">ToolPreProc.h</text>
</a>
</g>
</g>
<!-- Node1&#45;&gt;Node33 -->
<g id="edge39" class="edge">
<title>Node1&#45;&gt;Node33</title>
<path fill="none" stroke="midnightblue" d="M1070.54,-285.47C968.93,-275.76 686.04,-248.72 581.76,-238.75"/>
<polygon fill="midnightblue" stroke="midnightblue" points="1070.34,-288.96 1080.63,-286.43 1071.01,-282 1070.34,-288.96"/>
</g>
<!-- Node7&#45;&gt;Node8 -->
<g id="edge7" class="edge">
<title>Node7&#45;&gt;Node8</title>
<path fill="none" stroke="midnightblue" d="M887.32,-167.9C815.19,-151.43 742.37,-138.82 694.62,-131.09"/>
<polygon fill="midnightblue" stroke="midnightblue" points="886.96,-171.41 897.49,-170.25 888.54,-164.59 886.96,-171.41"/>
</g>
<!-- Node9 -->
<g id="node9" class="node">
<title>Node9</title>
<g id="a_node9"><a xlink:href="a00092.xhtml" target="_top" xlink:title=" ">
<polygon fill="white" stroke="black" points="732,-112.5 732,-131.5 839,-131.5 839,-112.5 732,-112.5"/>
<text text-anchor="middle" x="785.5" y="-119.5" font-family="Helvetica,sans-Serif" font-size="10.00">ToolGammatone.cpp</text>
</a>
</g>
</g>
<!-- Node7&#45;&gt;Node9 -->
<g id="edge8" class="edge">
<title>Node7&#45;&gt;Node9</title>
<path fill="none" stroke="midnightblue" d="M889.59,-164.64C864.26,-154.5 829.07,-140.43 806.79,-131.52"/>
<polygon fill="midnightblue" stroke="midnightblue" points="888.52,-167.98 899.11,-168.44 891.12,-161.48 888.52,-167.98"/>
</g>
<!-- Node10 -->
<g id="node10" class="node">
<title>Node10</title>
<g id="a_node10"><a xlink:href="a00182.xhtml" target="_top" xlink:title=" ">
<polygon fill="white" stroke="black" points="867.5,-112.5 867.5,-131.5 953.5,-131.5 953.5,-112.5 867.5,-112.5"/>
<text text-anchor="middle" x="910.5" y="-119.5" font-family="Helvetica,sans-Serif" font-size="10.00">ToolResample.h</text>
</a>
</g>
</g>
<!-- Node7&#45;&gt;Node10 -->
<g id="edge9" class="edge">
<title>Node7&#45;&gt;Node10</title>
<path fill="none" stroke="midnightblue" d="M917,-158.1C915.34,-149.14 913.44,-138.86 912.12,-131.75"/>
<polygon fill="midnightblue" stroke="midnightblue" points="913.59,-158.89 918.85,-168.08 920.47,-157.61 913.59,-158.89"/>
</g>
<!-- Node11 -->
<g id="node11" class="node">
<title>Node11</title>
<g id="a_node11"><a xlink:href="a00185.xhtml" target="_top" xlink:title=" ">
<polygon fill="white" stroke="black" points="497,-56.5 497,-75.5 550,-75.5 550,-56.5 497,-56.5"/>
<text text-anchor="middle" x="523.5" y="-63.5" font-family="Helvetica,sans-Serif" font-size="10.00">AcaAll.h</text>
</a>
</g>
</g>
<!-- Node10&#45;&gt;Node11 -->
<g id="edge10" class="edge">
<title>Node10&#45;&gt;Node11</title>
<path fill="none" stroke="midnightblue" d="M857.4,-113.4C854.05,-112.92 850.73,-112.45 847.5,-112 737.28,-96.47 605.91,-78.34 550.39,-70.7"/>
<polygon fill="midnightblue" stroke="midnightblue" points="857.07,-116.89 867.46,-114.83 858.06,-109.96 857.07,-116.89"/>
</g>
<!-- Node12 -->
<g id="node12" class="node">
<title>Node12</title>
<g id="a_node12"><a xlink:href="a00032.xhtml" target="_top" xlink:title=" ">
<polygon fill="white" stroke="black" points="59,-0.5 59,-19.5 122,-19.5 122,-0.5 59,-0.5"/>
<text text-anchor="middle" x="90.5" y="-7.5" font-family="Helvetica,sans-Serif" font-size="10.00">AcaAll.cpp</text>
</a>
</g>
</g>
<!-- Node11&#45;&gt;Node12 -->
<g id="edge11" class="edge">
<title>Node11&#45;&gt;Node12</title>
<path fill="none" stroke="midnightblue" d="M486.62,-62.11C416.79,-56.33 260.6,-42.02 130.5,-20 127.83,-19.55 125.08,-19.03 122.32,-18.48"/>
<polygon fill="midnightblue" stroke="midnightblue" points="486.42,-65.6 496.68,-62.93 486.99,-58.63 486.42,-65.6"/>
</g>
<!-- Node13 -->
<g id="node13" class="node">
<title>Node13</title>
<g id="a_node13"><a xlink:href="a00017.xhtml" target="_top" xlink:title=" ">
<polygon fill="white" stroke="black" points="140,-0.5 140,-19.5 257,-19.5 257,-0.5 140,-0.5"/>
<text text-anchor="middle" x="198.5" y="-7.5" font-family="Helvetica,sans-Serif" font-size="10.00">ComputeBeatHisto.cpp</text>
</a>
</g>
</g>
<!-- Node11&#45;&gt;Node13 -->
<g id="edge12" class="edge">
<title>Node11&#45;&gt;Node13</title>
<path fill="none" stroke="midnightblue" d="M486.73,-58.89C428.68,-49.25 315.65,-30.46 249.69,-19.51"/>
<polygon fill="midnightblue" stroke="midnightblue" points="486.47,-62.39 496.9,-60.58 487.61,-55.49 486.47,-62.39"/>
</g>
<!-- Node14 -->
<g id="node14" class="node">
<title>Node14</title>
<g id="a_node14"><a xlink:href="a00023.xhtml" target="_top" xlink:title=" ">
<polygon fill="white" stroke="black" points="275.5,-0.5 275.5,-19.5 379.5,-19.5 379.5,-0.5 275.5,-0.5"/>
<text text-anchor="middle" x="327.5" y="-7.5" font-family="Helvetica,sans-Serif" font-size="10.00">ComputeChords.cpp</text>
</a>
</g>
</g>
<!-- Node11&#45;&gt;Node14 -->
<g id="edge13" class="edge">
<title>Node11&#45;&gt;Node14</title>
<path fill="none" stroke="midnightblue" d="M486.78,-54.88C449.79,-44.69 393.36,-29.14 358.54,-19.55"/>
<polygon fill="midnightblue" stroke="midnightblue" points="486.09,-58.32 496.66,-57.6 487.95,-51.57 486.09,-58.32"/>
</g>
<!-- Node15 -->
<g id="node15" class="node">
<title>Node15</title>
<g id="a_node15"><a xlink:href="a00002.xhtml" target="_top" xlink:title=" ">
<polygon fill="white" stroke="black" points="398,-0.5 398,-19.5 505,-19.5 505,-0.5 398,-0.5"/>
<text text-anchor="middle" x="451.5" y="-7.5" font-family="Helvetica,sans-Serif" font-size="10.00">ComputeFeature.cpp</text>
</a>
</g>
</g>
<!-- Node11&#45;&gt;Node15 -->
<g id="edge14" class="edge">
<title>Node11&#45;&gt;Node15</title>
<path fill="none" stroke="midnightblue" d="M503.63,-50.1C490.68,-40.38 474.2,-28.03 463.28,-19.83"/>
<polygon fill="midnightblue" stroke="midnightblue" points="501.83,-53.12 511.93,-56.32 506.03,-47.52 501.83,-53.12"/>
</g>
<!-- Node16 -->
<g id="node16" class="node">
<title>Node16</title>
<g id="a_node16"><a xlink:href="a00098.xhtml" target="_top" xlink:title=" ">
<polygon fill="white" stroke="black" points="523,-0.5 523,-19.5 668,-19.5 668,-0.5 523,-0.5"/>
<text text-anchor="middle" x="595.5" y="-7.5" font-family="Helvetica,sans-Serif" font-size="10.00">ComputeMelSpectrogram.cpp</text>
</a>
</g>
</g>
<!-- Node11&#45;&gt;Node16 -->
<g id="edge15" class="edge">
<title>Node11&#45;&gt;Node16</title>
<path fill="none" stroke="midnightblue" d="M543.37,-50.1C556.32,-40.38 572.8,-28.03 583.72,-19.83"/>
<polygon fill="midnightblue" stroke="midnightblue" points="540.97,-47.52 535.07,-56.32 545.17,-53.12 540.97,-47.52"/>
</g>
<!-- Node17 -->
<g id="node17" class="node">
<title>Node17</title>
<g id="a_node17"><a xlink:href="a00029.xhtml" target="_top" xlink:title=" ">
<polygon fill="white" stroke="black" points="686.5,-0.5 686.5,-19.5 830.5,-19.5 830.5,-0.5 686.5,-0.5"/>
<text text-anchor="middle" x="758.5" y="-7.5" font-family="Helvetica,sans-Serif" font-size="10.00">ComputeNoveltyFunction.cpp</text>
</a>
</g>
</g>
<!-- Node11&#45;&gt;Node17 -->
<g id="edge16" class="edge">
<title>Node11&#45;&gt;Node17</title>
<path fill="none" stroke="midnightblue" d="M559.96,-56.62C603.83,-46.54 677.09,-29.71 721.3,-19.55"/>
<polygon fill="midnightblue" stroke="midnightblue" points="558.96,-53.26 550,-58.91 560.53,-60.08 558.96,-53.26"/>
</g>
<!-- Node18 -->
<g id="node18" class="node">
<title>Node18</title>
<g id="a_node18"><a xlink:href="a00101.xhtml" target="_top" xlink:title=" ">
<polygon fill="white" stroke="black" points="848.5,-0.5 848.5,-19.5 944.5,-19.5 944.5,-0.5 848.5,-0.5"/>
<text text-anchor="middle" x="896.5" y="-7.5" font-family="Helvetica,sans-Serif" font-size="10.00">ComputePitch.cpp</text>
</a>
</g>
</g>
<!-- Node11&#45;&gt;Node18 -->
<g id="edge17" class="edge">
<title>Node11&#45;&gt;Node18</title>
<path fill="none" stroke="midnightblue" d="M560.09,-59.97C618.98,-51.84 738.43,-35.17 839.5,-20 842.37,-19.57 845.33,-19.12 848.31,-18.66"/>
<polygon fill="midnightblue" stroke="midnightblue" points="559.58,-56.51 550.15,-61.34 560.54,-63.44 559.58,-56.51"/>
</g>
<!-- Node19 -->
<g id="node19" class="node">
<title>Node19</title>
<g id="a_node19"><a xlink:href="a00014.xhtml" target="_top" xlink:title=" ">
<polygon fill="white" stroke="black" points="963,-0.5 963,-19.5 1092,-19.5 1092,-0.5 963,-0.5"/>
<text text-anchor="middle" x="1027.5" y="-7.5" font-family="Helvetica,sans-Serif" font-size="10.00">ComputeSpectrogram.cpp</text>
</a>
</g>
</g>
<!-- Node11&#45;&gt;Node19 -->
<g id="edge18" class="edge">
<title>Node11&#45;&gt;Node19</title>
<path fill="none" stroke="midnightblue" d="M560.43,-61.35C634.85,-53.94 808.12,-36.45 953.5,-20 956.59,-19.65 959.74,-19.29 962.93,-18.92"/>
<polygon fill="midnightblue" stroke="midnightblue" points="559.79,-57.89 550.19,-62.36 560.48,-64.86 559.79,-57.89"/>
</g>
<!-- Node20&#45;&gt;Node4 -->
<g id="edge21" class="edge">
<title>Node20&#45;&gt;Node4</title>
<path fill="none" stroke="midnightblue" d="M1106.36,-220.23C1084.1,-210.13 1053.64,-196.31 1034.27,-187.52"/>
<polygon fill="midnightblue" stroke="midnightblue" points="1105.09,-223.5 1115.64,-224.44 1107.98,-217.12 1105.09,-223.5"/>
</g>
<!-- Node20&#45;&gt;Node5 -->
<g id="edge22" class="edge">
<title>Node20&#45;&gt;Node5</title>
<path fill="none" stroke="midnightblue" d="M1138,-214.1C1139.66,-205.14 1141.56,-194.86 1142.88,-187.75"/>
<polygon fill="midnightblue" stroke="midnightblue" points="1134.53,-213.61 1136.15,-224.08 1141.41,-214.89 1134.53,-213.61"/>
</g>
<!-- Node20&#45;&gt;Node7 -->
<g id="edge23" class="edge">
<title>Node20&#45;&gt;Node7</title>
<path fill="none" stroke="midnightblue" d="M1099.22,-224.63C1062.49,-215.83 1003.34,-201.43 952.5,-188 949.6,-187.23 946.56,-186.41 943.55,-185.58"/>
<polygon fill="midnightblue" stroke="midnightblue" points="1098.87,-228.14 1109.41,-227.06 1100.5,-221.34 1098.87,-228.14"/>
</g>
<!-- Node21 -->
<g id="node21" class="node">
<title>Node21</title>
<g id="a_node21"><a xlink:href="a00095.xhtml" target="_top" xlink:title=" ">
<polygon fill="white" stroke="black" points="819.5,-168.5 819.5,-187.5 879.5,-187.5 879.5,-168.5 819.5,-168.5"/>
<text text-anchor="middle" x="849.5" y="-175.5" font-family="Helvetica,sans-Serif" font-size="10.00">Chord.cpp</text>
</a>
</g>
</g>
<!-- Node20&#45;&gt;Node21 -->
<g id="edge20" class="edge">
<title>Node20&#45;&gt;Node21</title>
<path fill="none" stroke="midnightblue" d="M1099.13,-227.06C1051.25,-218.89 963.21,-203.44 888.5,-188 885.64,-187.41 882.67,-186.77 879.7,-186.11"/>
<polygon fill="midnightblue" stroke="midnightblue" points="1098.84,-230.56 1109.28,-228.78 1100.01,-223.65 1098.84,-230.56"/>
</g>
<!-- Node22 -->
<g id="node22" class="node">
<title>Node22</title>
<g id="a_node22"><a xlink:href="a00080.xhtml" target="_top" xlink:title=" ">
<polygon fill="white" stroke="black" points="589.5,-168.5 589.5,-187.5 679.5,-187.5 679.5,-168.5 589.5,-168.5"/>
<text text-anchor="middle" x="634.5" y="-175.5" font-family="Helvetica,sans-Serif" font-size="10.00">Spectrogram.cpp</text>
</a>
</g>
</g>
<!-- Node20&#45;&gt;Node22 -->
<g id="edge24" class="edge">
<title>Node20&#45;&gt;Node22</title>
<path fill="none" stroke="midnightblue" d="M1098.91,-230.19C1023.21,-224.06 840.69,-208.34 688.5,-188 685.58,-187.61 682.57,-187.18 679.55,-186.73"/>
<polygon fill="midnightblue" stroke="midnightblue" points="1099.04,-233.72 1109.29,-231.03 1099.6,-226.74 1099.04,-233.72"/>
</g>
<!-- Node20&#45;&gt;Node23 -->
<g id="edge25" class="edge">
<title>Node20&#45;&gt;Node23</title>
<path fill="none" stroke="midnightblue" d="M1099.28,-228.21C1039.76,-220.09 915.5,-203.04 810.5,-188 807.43,-187.56 804.27,-187.1 801.08,-186.64"/>
<polygon fill="midnightblue" stroke="midnightblue" points="1098.9,-231.69 1109.28,-229.57 1099.85,-224.75 1098.9,-231.69"/>
</g>
<!-- Node24 -->
<g id="node24" class="node">
<title>Node24</title>
<g id="a_node24"><a xlink:href="a00050.xhtml" target="_top" xlink:title=" ">
<polygon fill="white" stroke="black" points="1220.5,-168.5 1220.5,-187.5 1292.5,-187.5 1292.5,-168.5 1220.5,-168.5"/>
<text text-anchor="middle" x="1256.5" y="-175.5" font-family="Helvetica,sans-Serif" font-size="10.00">ToolNmf.cpp</text>
</a>
</g>
</g>
<!-- Node20&#45;&gt;Node24 -->
<g id="edge26" class="edge">
<title>Node20&#45;&gt;Node24</title>
<path fill="none" stroke="midnightblue" d="M1163.04,-220.37C1185.89,-210.26 1217.31,-196.35 1237.26,-187.52"/>
<polygon fill="midnightblue" stroke="midnightblue" points="1161.56,-217.2 1153.83,-224.44 1164.39,-223.6 1161.56,-217.2"/>
</g>
<!-- Node20&#45;&gt;Node25 -->
<g id="edge27" class="edge">
<title>Node20&#45;&gt;Node25</title>
<path fill="none" stroke="midnightblue" d="M1169.45,-224.1C1209.26,-213.96 1273.83,-197.51 1313.02,-187.53"/>
<polygon fill="midnightblue" stroke="midnightblue" points="1168.48,-220.73 1159.65,-226.59 1170.21,-227.52 1168.48,-220.73"/>
</g>
<!-- Node20&#45;&gt;Node26 -->
<g id="edge28" class="edge">
<title>Node20&#45;&gt;Node26</title>
<path fill="none" stroke="midnightblue" d="M1169.74,-226.98C1226.02,-217.36 1336.37,-198.5 1400.69,-187.51"/>
<polygon fill="midnightblue" stroke="midnightblue" points="1168.83,-223.58 1159.56,-228.72 1170.01,-230.48 1168.83,-223.58"/>
</g>
<!-- Node20&#45;&gt;Node27 -->
<g id="edge29" class="edge">
<title>Node20&#45;&gt;Node27</title>
<path fill="none" stroke="midnightblue" d="M1169.54,-228.95C1236.05,-221.24 1385.12,-203.8 1510.5,-188 1513.22,-187.66 1516,-187.3 1518.8,-186.94"/>
<polygon fill="midnightblue" stroke="midnightblue" points="1169.13,-225.48 1159.59,-230.11 1169.93,-232.43 1169.13,-225.48"/>
</g>
<!-- Node20&#45;&gt;Node28 -->
<g id="edge30" class="edge">
<title>Node20&#45;&gt;Node28</title>
<path fill="none" stroke="midnightblue" d="M1169.83,-230.68C1253.17,-225.04 1468.49,-209.48 1647.5,-188 1650.28,-187.67 1653.13,-187.3 1656,-186.92"/>
<polygon fill="midnightblue" stroke="midnightblue" points="1169.39,-227.2 1159.65,-231.37 1169.86,-234.19 1169.39,-227.2"/>
</g>
<!-- Node20&#45;&gt;Node29 -->
<g id="edge31" class="edge">
<title>Node20&#45;&gt;Node29</title>
<path fill="none" stroke="midnightblue" d="M1169.63,-231.01C1284.68,-224.42 1649.44,-202.87 1766.5,-188 1769.25,-187.65 1772.07,-187.25 1774.91,-186.81"/>
<polygon fill="midnightblue" stroke="midnightblue" points="1169.39,-227.52 1159.6,-231.59 1169.78,-234.51 1169.39,-227.52"/>
</g>
<!-- Node32&#45;&gt;Node11 -->
<g id="edge37" class="edge">
<title>Node32&#45;&gt;Node11</title>
<path fill="none" stroke="midnightblue" d="M328.22,-110.22C378.85,-99.01 456.22,-81.89 496.7,-72.93"/>
<polygon fill="midnightblue" stroke="midnightblue" points="327.17,-106.87 318.16,-112.44 328.68,-113.7 327.17,-106.87"/>
</g>
<!-- Node33&#45;&gt;Node3 -->
<g id="edge41" class="edge">
<title>Node33&#45;&gt;Node3</title>
<path fill="none" stroke="midnightblue" d="M492.93,-225.65C435.84,-217.08 339.27,-202.27 256.5,-188 253.58,-187.5 250.55,-186.96 247.52,-186.41"/>
<polygon fill="midnightblue" stroke="midnightblue" points="492.71,-229.16 503.12,-227.18 493.75,-222.23 492.71,-229.16"/>
</g>
<!-- Node33&#45;&gt;Node9 -->
<g id="edge48" class="edge">
<title>Node33&#45;&gt;Node9</title>
<path fill="none" stroke="midnightblue" d="M548.53,-214.63C554.37,-199.78 564.68,-179.51 580.5,-168 604.22,-150.74 679.19,-137.39 731.56,-129.86"/>
<polygon fill="midnightblue" stroke="midnightblue" points="545.15,-213.69 545.06,-224.29 551.74,-216.06 545.15,-213.69"/>
</g>
<!-- Node33&#45;&gt;Node11 -->
<g id="edge40" class="edge">
<title>Node33&#45;&gt;Node11</title>
<path fill="none" stroke="midnightblue" d="M540.32,-213.93C536.2,-177.92 527.42,-101.23 524.48,-75.57"/>
<polygon fill="midnightblue" stroke="midnightblue" points="536.86,-214.54 541.48,-224.08 543.82,-213.74 536.86,-214.54"/>
</g>
<!-- Node33&#45;&gt;Node21 -->
<g id="edge42" class="edge">
<title>Node33&#45;&gt;Node21</title>
<path fill="none" stroke="midnightblue" d="M591.46,-225.57C645.12,-217.23 733.67,-202.91 809.5,-188 812.71,-187.37 816.06,-186.67 819.4,-185.96"/>
<polygon fill="midnightblue" stroke="midnightblue" points="590.88,-222.11 581.53,-227.1 591.95,-229.03 590.88,-222.11"/>
</g>
<!-- Node33&#45;&gt;Node22 -->
<g id="edge46" class="edge">
<title>Node33&#45;&gt;Node22</title>
<path fill="none" stroke="midnightblue" d="M566.05,-219.18C582.98,-209.24 605.28,-196.15 619.76,-187.65"/>
<polygon fill="midnightblue" stroke="midnightblue" points="564.13,-216.24 557.28,-224.32 567.68,-222.28 564.13,-216.24"/>
</g>
<!-- Node33&#45;&gt;Node23 -->
<g id="edge47" class="edge">
<title>Node33&#45;&gt;Node23</title>
<path fill="none" stroke="midnightblue" d="M585.32,-221.83C624.41,-211.63 681.33,-196.78 716.85,-187.52"/>
<polygon fill="midnightblue" stroke="midnightblue" points="584.09,-218.53 575.3,-224.44 585.86,-225.31 584.09,-218.53"/>
</g>
<!-- Node34 -->
<g id="node34" class="node">
<title>Node34</title>
<g id="a_node34"><a xlink:href="a00047.xhtml" target="_top" xlink:title=" ">
<polygon fill="white" stroke="black" points="341.5,-168.5 341.5,-187.5 409.5,-187.5 409.5,-168.5 341.5,-168.5"/>
<text text-anchor="middle" x="375.5" y="-175.5" font-family="Helvetica,sans-Serif" font-size="10.00">Feature.cpp</text>
</a>
</g>
</g>
<!-- Node33&#45;&gt;Node34 -->
<g id="edge43" class="edge">
<title>Node33&#45;&gt;Node34</title>
<path fill="none" stroke="midnightblue" d="M506.33,-221.3C474.86,-211.13 430.01,-196.62 401.84,-187.52"/>
<polygon fill="midnightblue" stroke="midnightblue" points="505.45,-224.7 516.04,-224.44 507.6,-218.04 505.45,-224.7"/>
</g>
<!-- Node35 -->
<g id="node35" class="node">
<title>Node35</title>
<g id="a_node35"><a xlink:href="a00083.xhtml" target="_top" xlink:title=" ">
<polygon fill="white" stroke="black" points="427.5,-168.5 427.5,-187.5 495.5,-187.5 495.5,-168.5 427.5,-168.5"/>
<text text-anchor="middle" x="461.5" y="-175.5" font-family="Helvetica,sans-Serif" font-size="10.00">Novelty.cpp</text>
</a>
</g>
</g>
<!-- Node33&#45;&gt;Node35 -->
<g id="edge44" class="edge">
<title>Node33&#45;&gt;Node35</title>
<path fill="none" stroke="midnightblue" d="M520.93,-218.62C506.14,-208.76 486.99,-195.99 474.48,-187.65"/>
<polygon fill="midnightblue" stroke="midnightblue" points="519.22,-221.69 529.49,-224.32 523.11,-215.86 519.22,-221.69"/>
</g>
<!-- Node36 -->
<g id="node36" class="node">
<title>Node36</title>
<g id="a_node36"><a xlink:href="a00068.xhtml" target="_top" xlink:title=" ">
<polygon fill="white" stroke="black" points="266,-168.5 266,-187.5 323,-187.5 323,-168.5 266,-168.5"/>
<text text-anchor="middle" x="294.5" y="-175.5" font-family="Helvetica,sans-Serif" font-size="10.00">Pitch.cpp</text>
</a>
</g>
</g>
<!-- Node33&#45;&gt;Node36 -->
<g id="edge45" class="edge">
<title>Node33&#45;&gt;Node36</title>
<path fill="none" stroke="midnightblue" d="M493.52,-222.82C450.92,-213.88 387.56,-200.42 332.5,-188 329.46,-187.31 326.28,-186.58 323.12,-185.85"/>
<polygon fill="midnightblue" stroke="midnightblue" points="492.85,-226.25 503.35,-224.87 494.28,-219.4 492.85,-226.25"/>
</g>
</g>
</svg>
