<?xml version="1.0" encoding="UTF-8" standalone="no"?>
<!DOCTYPE svg PUBLIC "-//W3C//DTD SVG 1.1//EN"
 "http://www.w3.org/Graphics/SVG/1.1/DTD/svg11.dtd">
<!-- Generated by graphviz version 4.0.0 (20220602.1335)
 -->
<!-- Title: CPitchFromVector::CPitchFromVector Pages: 1 -->
<svg width="856pt" height="230pt"
 viewBox="0.00 0.00 856.00 230.18" xmlns="http://www.w3.org/2000/svg" xmlns:xlink="http://www.w3.org/1999/xlink">
<g id="graph0" class="graph" transform="scale(1 1) rotate(0) translate(4 226.18)">
<title>CPitchFromVector::CPitchFromVector</title>
<polygon fill="white" stroke="transparent" points="-4,4 -4,-226.18 852,-226.18 852,4 -4,4"/>
<!-- Node1 -->
<g id="node1" class="node">
<title>Node1</title>
<g id="a_node1"><a xlink:title=" ">
<polygon fill="#bfbfbf" stroke="black" points="0,-125 0,-155 131,-155 131,-125 0,-125"/>
<text text-anchor="start" x="8" y="-143" font-family="Helvetica,sans-Serif" font-size="10.00">CPitchFromVector::CPitch</text>
<text text-anchor="middle" x="65.5" y="-132" font-family="Helvetica,sans-Serif" font-size="10.00">FromVector</text>
</a>
</g>
</g>
<!-- Node2 -->
<g id="node2" class="node">
<title>Node2</title>
<g id="a_node2"><a xlink:href="a00493.xhtml#a84f0c2bf28007ef7749ab0e90c8011d2" target="_top" xlink:title=" ">
<polygon fill="white" stroke="black" points="167,-149.5 167,-168.5 277,-168.5 277,-149.5 167,-149.5"/>
<text text-anchor="middle" x="222" y="-156.5" font-family="Helvetica,sans-Serif" font-size="10.00">CBlockAudioIf::create</text>
</a>
</g>
</g>
<!-- Node1&#45;&gt;Node2 -->
<g id="edge1" class="edge">
<title>Node1&#45;&gt;Node2</title>
<path fill="none" stroke="midnightblue" d="M131.13,-147.95C139.59,-148.99 148.27,-150.06 156.72,-151.1"/>
<polygon fill="midnightblue" stroke="midnightblue" points="156.56,-154.6 166.91,-152.35 157.41,-147.65 156.56,-154.6"/>
</g>
<!-- Node3 -->
<g id="node3" class="node">
<title>Node3</title>
<g id="a_node3"><a xlink:href="a00477.xhtml#a3a966aff4a49e12324f205b20c5f2232" target="_top" xlink:title="init configuration">
<polygon fill="white" stroke="black" points="185,-111.5 185,-130.5 259,-130.5 259,-111.5 185,-111.5"/>
<text text-anchor="middle" x="222" y="-118.5" font-family="Helvetica,sans-Serif" font-size="10.00">CPitchIf::init_</text>
</a>
</g>
</g>
<!-- Node1&#45;&gt;Node3 -->
<g id="edge2" class="edge">
<title>Node1&#45;&gt;Node3</title>
<path fill="none" stroke="midnightblue" d="M131.13,-132.05C145.75,-130.25 161,-128.38 174.7,-126.69"/>
<polygon fill="midnightblue" stroke="midnightblue" points="175.33,-130.14 184.83,-125.45 174.48,-123.19 175.33,-130.14"/>
</g>
<!-- Node4 -->
<g id="node4" class="node">
<title>Node4</title>
<g id="a_node4"><a xlink:href="a00465.xhtml#abaadac98b1cad18b7b568852bc951696" target="_top" xlink:title=" ">
<polygon fill="white" stroke="black" points="636.5,-178.5 636.5,-197.5 713.5,-197.5 713.5,-178.5 636.5,-178.5"/>
<text text-anchor="middle" x="675" y="-185.5" font-family="Helvetica,sans-Serif" font-size="10.00">CVector::alloc</text>
</a>
</g>
</g>
<!-- Node3&#45;&gt;Node4 -->
<g id="edge3" class="edge">
<title>Node3&#45;&gt;Node4</title>
<path fill="none" stroke="midnightblue" d="M259.12,-130.25C265.43,-132.81 271.67,-136.01 277,-140 298.92,-156.41 288.63,-177.52 313,-190 417.21,-243.38 561.57,-217.79 631.98,-200.06"/>
<polygon fill="midnightblue" stroke="midnightblue" points="633.02,-203.4 641.82,-197.51 631.26,-196.63 633.02,-203.4"/>
</g>
<!-- Node6 -->
<g id="node6" class="node">
<title>Node6</title>
<g id="a_node6"><a xlink:href="a00481.xhtml#a1718a14a292a2a34ae92e8ce838456a3" target="_top" xlink:title=" ">
<polygon fill="white" stroke="black" points="323.5,-150 323.5,-180 427.5,-180 427.5,-150 323.5,-150"/>
<text text-anchor="start" x="331.5" y="-168" font-family="Helvetica,sans-Serif" font-size="10.00">CPitchFromBlockIf::</text>
<text text-anchor="middle" x="375.5" y="-157" font-family="Helvetica,sans-Serif" font-size="10.00">create</text>
</a>
</g>
</g>
<!-- Node3&#45;&gt;Node6 -->
<g id="edge5" class="edge">
<title>Node3&#45;&gt;Node6</title>
<path fill="none" stroke="midnightblue" d="M255.87,-130.55C272.7,-135.43 293.73,-141.54 313.4,-147.25"/>
<polygon fill="midnightblue" stroke="midnightblue" points="312.64,-150.68 323.22,-150.11 314.59,-143.96 312.64,-150.68"/>
</g>
<!-- Node7 -->
<g id="node7" class="node">
<title>Node7</title>
<g id="a_node7"><a xlink:href="a00437.xhtml#a9cb162394031e8b496f7a39b51c31d20" target="_top" xlink:title=" ">
<polygon fill="white" stroke="black" points="334,-111.5 334,-130.5 417,-130.5 417,-111.5 334,-111.5"/>
<text text-anchor="middle" x="375.5" y="-118.5" font-family="Helvetica,sans-Serif" font-size="10.00">CFft::getLength</text>
</a>
</g>
</g>
<!-- Node3&#45;&gt;Node7 -->
<g id="edge6" class="edge">
<title>Node3&#45;&gt;Node7</title>
<path fill="none" stroke="midnightblue" d="M259.29,-121C278.62,-121 302.71,-121 323.86,-121"/>
<polygon fill="midnightblue" stroke="midnightblue" points="323.97,-124.5 333.97,-121 323.97,-117.5 323.97,-124.5"/>
</g>
<!-- Node8 -->
<g id="node8" class="node">
<title>Node8</title>
<g id="a_node8"><a xlink:href="a00437.xhtml#adea9b0cecccfdb5a3da3218da6f683dd" target="_top" xlink:title=" ">
<polygon fill="white" stroke="black" points="349,-73.5 349,-92.5 402,-92.5 402,-73.5 349,-73.5"/>
<text text-anchor="middle" x="375.5" y="-80.5" font-family="Helvetica,sans-Serif" font-size="10.00">CFft::init</text>
</a>
</g>
</g>
<!-- Node3&#45;&gt;Node8 -->
<g id="edge7" class="edge">
<title>Node3&#45;&gt;Node8</title>
<path fill="none" stroke="midnightblue" d="M259.29,-111.9C283.49,-105.83 315.15,-97.89 339.16,-91.86"/>
<polygon fill="midnightblue" stroke="midnightblue" points="340.09,-95.24 348.94,-89.41 338.39,-88.45 340.09,-95.24"/>
</g>
<!-- Node16 -->
<g id="node16" class="node">
<title>Node16</title>
<g id="a_node16"><a xlink:href="a00477.xhtml#ad1d4759da8b0fddeda3d1e3bbfc0cd23" target="_top" xlink:title=" ">
<polygon fill="white" stroke="black" points="313,-24 313,-54 438,-54 438,-24 313,-24"/>
<text text-anchor="start" x="321" y="-42" font-family="Helvetica,sans-Serif" font-size="10.00">CPitchIf::isPitchExtractor</text>
<text text-anchor="middle" x="375.5" y="-31" font-family="Helvetica,sans-Serif" font-size="10.00">Spectral_</text>
</a>
</g>
</g>
<!-- Node3&#45;&gt;Node16 -->
<g id="edge16" class="edge">
<title>Node3&#45;&gt;Node16</title>
<path fill="none" stroke="midnightblue" d="M236.57,-111.32C253.81,-99.28 284.72,-78.56 313,-64 316.8,-62.04 320.8,-60.13 324.85,-58.28"/>
<polygon fill="midnightblue" stroke="midnightblue" points="326.58,-61.34 334.33,-54.12 323.77,-54.93 326.58,-61.34"/>
</g>
<!-- Node5 -->
<g id="node5" class="node">
<title>Node5</title>
<g id="a_node5"><a xlink:href="a00465.xhtml#a6dbb3f9f480568b60f7fe50090d20003" target="_top" xlink:title=" ">
<polygon fill="white" stroke="black" points="759,-178.5 759,-197.5 848,-197.5 848,-178.5 759,-178.5"/>
<text text-anchor="middle" x="803.5" y="-185.5" font-family="Helvetica,sans-Serif" font-size="10.00">CVector::setZero</text>
</a>
</g>
</g>
<!-- Node4&#45;&gt;Node5 -->
<g id="edge4" class="edge">
<title>Node4&#45;&gt;Node5</title>
<path fill="none" stroke="midnightblue" d="M713.61,-188C724.54,-188 736.7,-188 748.42,-188"/>
<polygon fill="midnightblue" stroke="midnightblue" points="748.58,-191.5 758.58,-188 748.58,-184.5 748.58,-191.5"/>
</g>
<!-- Node9 -->
<g id="node9" class="node">
<title>Node9</title>
<g id="a_node9"><a xlink:href="a00437.xhtml#adf2bc81be5029515f69907765ecc2476" target="_top" xlink:title=" ">
<polygon fill="white" stroke="black" points="482.5,-158.5 482.5,-177.5 582.5,-177.5 582.5,-158.5 482.5,-158.5"/>
<text text-anchor="middle" x="532.5" y="-165.5" font-family="Helvetica,sans-Serif" font-size="10.00">CFft::allocMemory_</text>
</a>
</g>
</g>
<!-- Node8&#45;&gt;Node9 -->
<g id="edge8" class="edge">
<title>Node8&#45;&gt;Node9</title>
<path fill="none" stroke="midnightblue" d="M402.1,-87.58C413.71,-90.47 427.21,-95.01 438,-102 458.35,-115.19 454.41,-128.71 474,-143 479.99,-147.37 486.85,-151.18 493.71,-154.42"/>
<polygon fill="midnightblue" stroke="midnightblue" points="492.41,-157.67 502.97,-158.49 495.22,-151.26 492.41,-157.67"/>
</g>
<!-- Node10 -->
<g id="node10" class="node">
<title>Node10</title>
<g id="a_node10"><a xlink:href="a00437.xhtml#aa5fffd68919cea17741c9fe69209bce6" target="_top" xlink:title=" ">
<polygon fill="white" stroke="black" points="474,-114.5 474,-133.5 591,-133.5 591,-114.5 474,-114.5"/>
<text text-anchor="middle" x="532.5" y="-121.5" font-family="Helvetica,sans-Serif" font-size="10.00">CFft::computeWindow_</text>
</a>
</g>
</g>
<!-- Node8&#45;&gt;Node10 -->
<g id="edge10" class="edge">
<title>Node8&#45;&gt;Node10</title>
<path fill="none" stroke="midnightblue" d="M402.1,-89.77C424.76,-95.77 458.39,-104.66 485.69,-111.88"/>
<polygon fill="midnightblue" stroke="midnightblue" points="484.87,-115.28 495.43,-114.46 486.66,-108.52 484.87,-115.28"/>
</g>
<!-- Node11 -->
<g id="node11" class="node">
<title>Node11</title>
<g id="a_node11"><a xlink:href="a00461.xhtml#a6d0e75b0bcbbb243b7141cfc0126e443" target="_top" xlink:title=" ">
<polygon fill="white" stroke="black" points="489.5,-76.5 489.5,-95.5 575.5,-95.5 575.5,-76.5 489.5,-76.5"/>
<text text-anchor="middle" x="532.5" y="-83.5" font-family="Helvetica,sans-Serif" font-size="10.00">CUtil::isPowOf2</text>
</a>
</g>
</g>
<!-- Node8&#45;&gt;Node11 -->
<g id="edge11" class="edge">
<title>Node8&#45;&gt;Node11</title>
<path fill="none" stroke="midnightblue" d="M402.1,-83.5C423.05,-83.9 453.36,-84.49 479.39,-84.99"/>
<polygon fill="midnightblue" stroke="midnightblue" points="479.43,-88.49 489.49,-85.19 479.56,-81.49 479.43,-88.49"/>
</g>
<!-- Node12 -->
<g id="node12" class="node">
<title>Node12</title>
<g id="a_node12"><a xlink:href="a00461.xhtml#a0fd55429d52515a9efb2fe602ce8f9ed" target="_top" xlink:title=" ">
<polygon fill="white" stroke="black" points="484.5,-38.5 484.5,-57.5 580.5,-57.5 580.5,-38.5 484.5,-38.5"/>
<text text-anchor="middle" x="532.5" y="-45.5" font-family="Helvetica,sans-Serif" font-size="10.00">CUtil::nextPowOf2</text>
</a>
</g>
</g>
<!-- Node8&#45;&gt;Node12 -->
<g id="edge12" class="edge">
<title>Node8&#45;&gt;Node12</title>
<path fill="none" stroke="midnightblue" d="M402.1,-77.22C422.97,-72.51 453.14,-65.69 479.1,-59.83"/>
<polygon fill="midnightblue" stroke="midnightblue" points="480.2,-63.17 489.19,-57.55 478.66,-56.34 480.2,-63.17"/>
</g>
<!-- Node13 -->
<g id="node13" class="node">
<title>Node13</title>
<g id="a_node13"><a xlink:href="a00437.xhtml#a0a0053b6ce93161553b573a16c77387a" target="_top" xlink:title=" ">
<polygon fill="white" stroke="black" points="501.5,-0.5 501.5,-19.5 563.5,-19.5 563.5,-0.5 501.5,-0.5"/>
<text text-anchor="middle" x="532.5" y="-7.5" font-family="Helvetica,sans-Serif" font-size="10.00">CFft::reset</text>
</a>
</g>
</g>
<!-- Node8&#45;&gt;Node13 -->
<g id="edge13" class="edge">
<title>Node8&#45;&gt;Node13</title>
<path fill="none" stroke="midnightblue" d="M402.16,-77.95C413.65,-74.98 427.04,-70.5 438,-64 457.19,-52.61 454.92,-40.57 474,-29 479.49,-25.67 485.62,-22.85 491.79,-20.48"/>
<polygon fill="midnightblue" stroke="midnightblue" points="493.13,-23.73 501.42,-17.13 490.82,-17.12 493.13,-23.73"/>
</g>
<!-- Node9&#45;&gt;Node4 -->
<g id="edge9" class="edge">
<title>Node9&#45;&gt;Node4</title>
<path fill="none" stroke="midnightblue" d="M582.64,-175C596.78,-177.01 612.17,-179.2 626.22,-181.2"/>
<polygon fill="midnightblue" stroke="midnightblue" points="625.79,-184.67 636.18,-182.62 626.77,-177.74 625.79,-184.67"/>
</g>
<!-- Node14 -->
<g id="node14" class="node">
<title>Node14</title>
<g id="a_node14"><a xlink:href="a00437.xhtml#af48c6112f4a0d28b5badd8f317f4d191" target="_top" xlink:title=" ">
<polygon fill="white" stroke="black" points="627,-0.5 627,-19.5 723,-19.5 723,-0.5 627,-0.5"/>
<text text-anchor="middle" x="675" y="-7.5" font-family="Helvetica,sans-Serif" font-size="10.00">CFft::freeMemory_</text>
</a>
</g>
</g>
<!-- Node13&#45;&gt;Node14 -->
<g id="edge14" class="edge">
<title>Node13&#45;&gt;Node14</title>
<path fill="none" stroke="midnightblue" d="M563.64,-10C579.08,-10 598.41,-10 616.55,-10"/>
<polygon fill="midnightblue" stroke="midnightblue" points="616.77,-13.5 626.77,-10 616.77,-6.5 616.77,-13.5"/>
</g>
<!-- Node15 -->
<g id="node15" class="node">
<title>Node15</title>
<g id="a_node15"><a xlink:href="a00465.xhtml#aa86bdb0c663d4d52f2765793756f8737" target="_top" xlink:title=" ">
<polygon fill="white" stroke="black" points="767,-0.5 767,-19.5 840,-19.5 840,-0.5 767,-0.5"/>
<text text-anchor="middle" x="803.5" y="-7.5" font-family="Helvetica,sans-Serif" font-size="10.00">CVector::free</text>
</a>
</g>
</g>
<!-- Node14&#45;&gt;Node15 -->
<g id="edge15" class="edge">
<title>Node14&#45;&gt;Node15</title>
<path fill="none" stroke="midnightblue" d="M723.1,-10C734.07,-10 745.73,-10 756.64,-10"/>
<polygon fill="midnightblue" stroke="midnightblue" points="756.83,-13.5 766.83,-10 756.83,-6.5 756.83,-13.5"/>
</g>
</g>
</svg>
