<?xml version="1.0" encoding="UTF-8" standalone="no"?>
<!DOCTYPE svg PUBLIC "-//W3C//DTD SVG 1.1//EN"
 "http://www.w3.org/Graphics/SVG/1.1/DTD/svg11.dtd">
<!-- Generated by graphviz version 4.0.0 (20220602.1335)
 -->
<!-- Title: CFeatureIf::isFeatureSpectral_ Pages: 1 -->
<svg width="517pt" height="151pt"
 viewBox="0.00 0.00 517.00 150.50" xmlns="http://www.w3.org/2000/svg" xmlns:xlink="http://www.w3.org/1999/xlink">
<g id="graph0" class="graph" transform="scale(1 1) rotate(0) translate(4 146.5)">
<title>CFeatureIf::isFeatureSpectral_</title>
<polygon fill="white" stroke="transparent" points="-4,4 -4,-146.5 513,-146.5 513,4 -4,4"/>
<!-- Node1 -->
<g id="node1" class="node">
<title>Node1</title>
<g id="a_node1"><a xlink:title=" ">
<polygon fill="#bfbfbf" stroke="black" points="360,-85 360,-104 509,-104 509,-85 360,-85"/>
<text text-anchor="middle" x="434.5" y="-92" font-family="Helvetica,sans-Serif" font-size="10.00">CFeatureIf::isFeatureSpectral_</text>
</a>
</g>
</g>
<!-- Node2 -->
<g id="node2" class="node">
<title>Node2</title>
<g id="a_node2"><a xlink:href="a00429.xhtml#a30248aa1fb336095d4d86d0bd3d2bdb8" target="_top" xlink:title=" ">
<polygon fill="white" stroke="black" points="176.5,-123 176.5,-142 322.5,-142 322.5,-123 176.5,-123"/>
<text text-anchor="middle" x="249.5" y="-130" font-family="Helvetica,sans-Serif" font-size="10.00">CFeatureIf::compFeature1Dim</text>
</a>
</g>
</g>
<!-- Node1&#45;&gt;Node2 -->
<g id="edge1" class="edge">
<title>Node1&#45;&gt;Node2</title>
<path fill="none" stroke="midnightblue" d="M377.25,-106.18C351.29,-111.57 320.88,-117.89 296.35,-122.98"/>
<polygon fill="midnightblue" stroke="midnightblue" points="378.24,-109.55 387.32,-104.09 376.82,-102.7 378.24,-109.55"/>
</g>
<!-- Node4 -->
<g id="node4" class="node">
<title>Node4</title>
<g id="a_node4"><a xlink:href="a00429.xhtml#ad734d1e300583449f51e6ca80aa3e7b8" target="_top" xlink:title=" ">
<polygon fill="white" stroke="black" points="175,-85 175,-104 324,-104 324,-85 175,-85"/>
<text text-anchor="middle" x="249.5" y="-92" font-family="Helvetica,sans-Serif" font-size="10.00">CFeatureIf::compFeatureNDim</text>
</a>
</g>
</g>
<!-- Node1&#45;&gt;Node4 -->
<g id="edge3" class="edge">
<title>Node1&#45;&gt;Node4</title>
<path fill="none" stroke="midnightblue" d="M349.61,-94.5C341.16,-94.5 332.62,-94.5 324.29,-94.5"/>
<polygon fill="midnightblue" stroke="midnightblue" points="349.86,-98 359.86,-94.5 349.86,-91 349.86,-98"/>
</g>
<!-- Node5 -->
<g id="node5" class="node">
<title>Node5</title>
<g id="a_node5"><a xlink:href="a00429.xhtml#ab38ca831ee8ae42a8a95e33af4f756ba" target="_top" xlink:title="init configuration">
<polygon fill="white" stroke="black" points="207,-47 207,-66 292,-66 292,-47 207,-47"/>
<text text-anchor="middle" x="249.5" y="-54" font-family="Helvetica,sans-Serif" font-size="10.00">CFeatureIf::init_</text>
</a>
</g>
</g>
<!-- Node1&#45;&gt;Node5 -->
<g id="edge5" class="edge">
<title>Node1&#45;&gt;Node5</title>
<path fill="none" stroke="midnightblue" d="M377.46,-82.86C350.01,-77.16 317.52,-70.42 292.28,-65.18"/>
<polygon fill="midnightblue" stroke="midnightblue" points="376.82,-86.3 387.32,-84.91 378.24,-79.45 376.82,-86.3"/>
</g>
<!-- Node3 -->
<g id="node3" class="node">
<title>Node3</title>
<g id="a_node3"><a xlink:href="a00002.xhtml#a0ddf1224851353fc92bfbff6f499fa97" target="_top" xlink:title=" ">
<polygon fill="white" stroke="black" points="50.5,-115 50.5,-134 88.5,-134 88.5,-115 50.5,-115"/>
<text text-anchor="middle" x="69.5" y="-122" font-family="Helvetica,sans-Serif" font-size="10.00">main</text>
</a>
</g>
</g>
<!-- Node2&#45;&gt;Node3 -->
<g id="edge2" class="edge">
<title>Node2&#45;&gt;Node3</title>
<path fill="none" stroke="midnightblue" d="M166.15,-128.8C137.14,-127.49 107.17,-126.15 88.69,-125.32"/>
<polygon fill="midnightblue" stroke="midnightblue" points="166.21,-132.31 176.36,-129.26 166.52,-125.31 166.21,-132.31"/>
</g>
<!-- Node4&#45;&gt;Node3 -->
<g id="edge4" class="edge">
<title>Node4&#45;&gt;Node3</title>
<path fill="none" stroke="midnightblue" d="M181.49,-105.79C148.08,-111.42 110.27,-117.8 88.53,-121.46"/>
<polygon fill="midnightblue" stroke="midnightblue" points="182.41,-109.19 191.69,-104.07 181.25,-102.29 182.41,-109.19"/>
</g>
<!-- Node6 -->
<g id="node6" class="node">
<title>Node6</title>
<g id="a_node6"><a xlink:href="a00285.xhtml#abdd90edbfe131bcd181d9ffac77fab8e" target="_top" xlink:title=" ">
<polygon fill="white" stroke="black" points="0,-49.5 0,-79.5 139,-79.5 139,-49.5 0,-49.5"/>
<text text-anchor="start" x="8" y="-67.5" font-family="Helvetica,sans-Serif" font-size="10.00">CFeatureFromFile::CFeature</text>
<text text-anchor="middle" x="69.5" y="-56.5" font-family="Helvetica,sans-Serif" font-size="10.00">FromFile</text>
</a>
</g>
</g>
<!-- Node5&#45;&gt;Node6 -->
<g id="edge6" class="edge">
<title>Node5&#45;&gt;Node6</title>
<path fill="none" stroke="midnightblue" d="M196.77,-58.83C178.77,-59.63 158.28,-60.55 139.13,-61.42"/>
<polygon fill="midnightblue" stroke="midnightblue" points="196.93,-62.32 206.77,-58.38 196.62,-55.33 196.93,-62.32"/>
</g>
<!-- Node7 -->
<g id="node7" class="node">
<title>Node7</title>
<g id="a_node7"><a xlink:href="a00289.xhtml#a686d96f3eac3a33378fcea886d687305" target="_top" xlink:title=" ">
<polygon fill="white" stroke="black" points="13.5,-0.5 13.5,-30.5 125.5,-30.5 125.5,-0.5 13.5,-0.5"/>
<text text-anchor="start" x="21.5" y="-18.5" font-family="Helvetica,sans-Serif" font-size="10.00">CFeatureFromVector</text>
<text text-anchor="middle" x="69.5" y="-7.5" font-family="Helvetica,sans-Serif" font-size="10.00">::CFeatureFromVector</text>
</a>
</g>
</g>
<!-- Node5&#45;&gt;Node7 -->
<g id="edge7" class="edge">
<title>Node5&#45;&gt;Node7</title>
<path fill="none" stroke="midnightblue" d="M197.23,-44.69C174.84,-39.53 148.54,-33.48 125.72,-28.22"/>
<polygon fill="midnightblue" stroke="midnightblue" points="196.69,-48.16 207.22,-46.99 198.26,-41.34 196.69,-48.16"/>
</g>
</g>
</svg>
