<?xml version="1.0" encoding="UTF-8" standalone="no"?>
<!DOCTYPE svg PUBLIC "-//W3C//DTD SVG 1.1//EN"
 "http://www.w3.org/Graphics/SVG/1.1/DTD/svg11.dtd">
<!-- Generated by graphviz version 4.0.0 (20220602.1335)
 -->
<!-- Title: CVector::add_I Pages: 1 -->
<svg width="652pt" height="171pt"
 viewBox="0.00 0.00 652.00 170.50" xmlns="http://www.w3.org/2000/svg" xmlns:xlink="http://www.w3.org/1999/xlink">
<g id="graph0" class="graph" transform="scale(1 1) rotate(0) translate(4 166.5)">
<title>CVector::add_I</title>
<polygon fill="white" stroke="transparent" points="-4,4 -4,-166.5 648,-166.5 648,4 -4,4"/>
<!-- Node1 -->
<g id="node1" class="node">
<title>Node1</title>
<g id="a_node1"><a xlink:title=" ">
<polygon fill="#bfbfbf" stroke="black" points="564,-77 564,-96 644,-96 644,-77 564,-77"/>
<text text-anchor="middle" x="604" y="-84" font-family="Helvetica,sans-Serif" font-size="10.00">CVector::add_I</text>
</a>
</g>
</g>
<!-- Node2 -->
<g id="node2" class="node">
<title>Node2</title>
<g id="a_node2"><a xlink:href="a00417.xhtml#a58a9a3d685f448ced2e843a60028e472" target="_top" xlink:title=" ">
<polygon fill="white" stroke="black" points="383,-143 383,-162 528,-162 528,-143 383,-143"/>
<text text-anchor="middle" x="455.5" y="-150" font-family="Helvetica,sans-Serif" font-size="10.00">CBeatHistoIf::compBeatHisto</text>
</a>
</g>
</g>
<!-- Node1&#45;&gt;Node2 -->
<g id="edge1" class="edge">
<title>Node1&#45;&gt;Node2</title>
<path fill="none" stroke="midnightblue" d="M582.11,-101.98C567.57,-112.15 547.38,-125.08 528,-133.5 519.4,-137.24 509.89,-140.39 500.69,-142.98"/>
<polygon fill="midnightblue" stroke="midnightblue" points="584.28,-104.74 590.38,-96.07 580.21,-99.04 584.28,-104.74"/>
</g>
<!-- Node4 -->
<g id="node4" class="node">
<title>Node4</title>
<g id="a_node4"><a xlink:href="a00357.xhtml#a7fa2c23a2108dc313f319ec803a6181f" target="_top" xlink:title=" ">
<polygon fill="white" stroke="black" points="404,-93.5 404,-123.5 507,-123.5 507,-93.5 404,-93.5"/>
<text text-anchor="start" x="412" y="-111.5" font-family="Helvetica,sans-Serif" font-size="10.00">CPitchTimeAuditory</text>
<text text-anchor="middle" x="455.5" y="-100.5" font-family="Helvetica,sans-Serif" font-size="10.00">::compF0</text>
</a>
</g>
</g>
<!-- Node1&#45;&gt;Node4 -->
<g id="edge3" class="edge">
<title>Node1&#45;&gt;Node4</title>
<path fill="none" stroke="midnightblue" d="M553.66,-93.91C538.7,-96.16 522.24,-98.63 507.19,-100.89"/>
<polygon fill="midnightblue" stroke="midnightblue" points="554.37,-97.34 563.74,-92.4 553.33,-90.42 554.37,-97.34"/>
</g>
<!-- Node5 -->
<g id="node5" class="node">
<title>Node5</title>
<g id="a_node5"><a xlink:href="a00533.xhtml#af7639b7368293c01c130192067fe0f4b" target="_top" xlink:title=" ">
<polygon fill="white" stroke="black" points="405,-55 405,-74 506,-74 506,-55 405,-55"/>
<text text-anchor="middle" x="455.5" y="-62" font-family="Helvetica,sans-Serif" font-size="10.00">CPreProc::downmix</text>
</a>
</g>
</g>
<!-- Node1&#45;&gt;Node5 -->
<g id="edge4" class="edge">
<title>Node1&#45;&gt;Node5</title>
<path fill="none" stroke="midnightblue" d="M553.45,-79.06C538.19,-76.77 521.38,-74.24 506.11,-71.95"/>
<polygon fill="midnightblue" stroke="midnightblue" points="553.33,-82.58 563.74,-80.6 554.37,-75.66 553.33,-82.58"/>
</g>
<!-- Node10 -->
<g id="node10" class="node">
<title>Node10</title>
<g id="a_node10"><a xlink:href="a00509.xhtml#ac2e104197886d92fd1e4ac6d1c0b7e75" target="_top" xlink:title=" ">
<polygon fill="white" stroke="black" points="406.5,-17 406.5,-36 504.5,-36 504.5,-17 406.5,-17"/>
<text text-anchor="middle" x="455.5" y="-24" font-family="Helvetica,sans-Serif" font-size="10.00">CInstFreq::process</text>
</a>
</g>
</g>
<!-- Node1&#45;&gt;Node10 -->
<g id="edge9" class="edge">
<title>Node1&#45;&gt;Node10</title>
<path fill="none" stroke="midnightblue" d="M579.27,-71.6C564.86,-63.05 545.86,-52.63 528,-45.5 518.93,-41.88 508.95,-38.73 499.39,-36.1"/>
<polygon fill="midnightblue" stroke="midnightblue" points="577.65,-74.71 588.01,-76.9 581.27,-68.73 577.65,-74.71"/>
</g>
<!-- Node3 -->
<g id="node3" class="node">
<title>Node3</title>
<g id="a_node3"><a xlink:href="a00017.xhtml#a0ddf1224851353fc92bfbff6f499fa97" target="_top" xlink:title=" ">
<polygon fill="white" stroke="black" points="255,-143 255,-162 293,-162 293,-143 255,-143"/>
<text text-anchor="middle" x="274" y="-150" font-family="Helvetica,sans-Serif" font-size="10.00">main</text>
</a>
</g>
</g>
<!-- Node2&#45;&gt;Node3 -->
<g id="edge2" class="edge">
<title>Node2&#45;&gt;Node3</title>
<path fill="none" stroke="midnightblue" d="M372.76,-152.5C343.02,-152.5 312.1,-152.5 293.2,-152.5"/>
<polygon fill="midnightblue" stroke="midnightblue" points="372.78,-156 382.78,-152.5 372.78,-149 372.78,-156"/>
</g>
<!-- Node6 -->
<g id="node6" class="node">
<title>Node6</title>
<g id="a_node6"><a xlink:href="a00537.xhtml#a0f2e96a9c1a1ab0b85e1410b00f0aa8e" target="_top" xlink:title=" ">
<polygon fill="white" stroke="black" points="201,-71.5 201,-101.5 347,-101.5 347,-71.5 201,-71.5"/>
<text text-anchor="start" x="209" y="-89.5" font-family="Helvetica,sans-Serif" font-size="10.00">CNormalizeAudio::CNormalize</text>
<text text-anchor="middle" x="274" y="-78.5" font-family="Helvetica,sans-Serif" font-size="10.00">Audio</text>
</a>
</g>
</g>
<!-- Node5&#45;&gt;Node6 -->
<g id="edge5" class="edge">
<title>Node5&#45;&gt;Node6</title>
<path fill="none" stroke="midnightblue" d="M394.68,-71.83C379.47,-73.7 362.97,-75.72 347.21,-77.65"/>
<polygon fill="midnightblue" stroke="midnightblue" points="395.48,-75.26 404.98,-70.57 394.62,-68.31 395.48,-75.26"/>
</g>
<!-- Node7 -->
<g id="node7" class="node">
<title>Node7</title>
<g id="a_node7"><a xlink:href="a00377.xhtml#ac77d15abc29183765326f7212dd523a1" target="_top" xlink:title=" ">
<polygon fill="white" stroke="black" points="207.5,-22.5 207.5,-52.5 340.5,-52.5 340.5,-22.5 207.5,-22.5"/>
<text text-anchor="start" x="215.5" y="-40.5" font-family="Helvetica,sans-Serif" font-size="10.00">CBlockAudioFile::readFile2</text>
<text text-anchor="middle" x="274" y="-29.5" font-family="Helvetica,sans-Serif" font-size="10.00">RingBuff</text>
</a>
</g>
</g>
<!-- Node5&#45;&gt;Node7 -->
<g id="edge6" class="edge">
<title>Node5&#45;&gt;Node7</title>
<path fill="none" stroke="midnightblue" d="M394.92,-55.54C377.47,-52.91 358.3,-50.03 340.5,-47.35"/>
<polygon fill="midnightblue" stroke="midnightblue" points="394.57,-59.02 404.98,-57.05 395.61,-52.1 394.57,-59.02"/>
</g>
<!-- Node8 -->
<g id="node8" class="node">
<title>Node8</title>
<g id="a_node8"><a xlink:href="a00377.xhtml#ae12716ee8473becf462624698243f761" target="_top" xlink:title=" ">
<polygon fill="white" stroke="black" points="0,-50 0,-69 165,-69 165,-50 0,-50"/>
<text text-anchor="middle" x="82.5" y="-57" font-family="Helvetica,sans-Serif" font-size="10.00">CBlockAudioFile::CBlockAudioFile</text>
</a>
</g>
</g>
<!-- Node7&#45;&gt;Node8 -->
<g id="edge7" class="edge">
<title>Node7&#45;&gt;Node8</title>
<path fill="none" stroke="midnightblue" d="M197.25,-46.29C186.7,-47.52 175.82,-48.78 165.16,-50.02"/>
<polygon fill="midnightblue" stroke="midnightblue" points="197.72,-49.76 207.25,-45.13 196.92,-42.81 197.72,-49.76"/>
</g>
<!-- Node9 -->
<g id="node9" class="node">
<title>Node9</title>
<g id="a_node9"><a xlink:href="a00377.xhtml#a9c2bd8b51ec72c82eb202d70f379d3ac" target="_top" xlink:title=" ">
<polygon fill="white" stroke="black" points="19,-0.5 19,-30.5 146,-30.5 146,-0.5 19,-0.5"/>
<text text-anchor="start" x="27" y="-18.5" font-family="Helvetica,sans-Serif" font-size="10.00">CBlockAudioFile::getNext</text>
<text text-anchor="middle" x="82.5" y="-7.5" font-family="Helvetica,sans-Serif" font-size="10.00">Block</text>
</a>
</g>
</g>
<!-- Node7&#45;&gt;Node9 -->
<g id="edge8" class="edge">
<title>Node7&#45;&gt;Node9</title>
<path fill="none" stroke="midnightblue" d="M196.91,-28.67C180.1,-26.71 162.47,-24.67 146.26,-22.79"/>
<polygon fill="midnightblue" stroke="midnightblue" points="196.92,-32.19 207.25,-29.87 197.72,-25.24 196.92,-32.19"/>
</g>
</g>
</svg>
