<?xml version="1.0" encoding="UTF-8" standalone="no"?>
<!DOCTYPE svg PUBLIC "-//W3C//DTD SVG 1.1//EN"
 "http://www.w3.org/Graphics/SVG/1.1/DTD/svg11.dtd">
<!-- Generated by graphviz version 4.0.0 (20220602.1335)
 -->
<!-- Title: CButterLp::calcA Pages: 1 -->
<svg width="388pt" height="78pt"
 viewBox="0.00 0.00 388.00 77.50" xmlns="http://www.w3.org/2000/svg" xmlns:xlink="http://www.w3.org/1999/xlink">
<g id="graph0" class="graph" transform="scale(1 1) rotate(0) translate(4 73.5)">
<title>CButterLp::calcA</title>
<polygon fill="white" stroke="transparent" points="-4,4 -4,-73.5 384,-73.5 384,4 -4,4"/>
<!-- Node1 -->
<g id="node1" class="node">
<title>Node1</title>
<g id="a_node1"><a xlink:title=" ">
<polygon fill="#bfbfbf" stroke="black" points="290,-22.5 290,-41.5 380,-41.5 380,-22.5 290,-22.5"/>
<text text-anchor="middle" x="335" y="-29.5" font-family="Helvetica,sans-Serif" font-size="10.00">CButterLp::calcA</text>
</a>
</g>
</g>
<!-- Node2 -->
<g id="node2" class="node">
<title>Node2</title>
<g id="a_node2"><a xlink:href="a00445.xhtml#a3878460603a6e6e1a64de6021b2bb73e" target="_top" xlink:title=" ">
<polygon fill="white" stroke="black" points="143,-22.5 143,-41.5 254,-41.5 254,-22.5 143,-22.5"/>
<text text-anchor="middle" x="198.5" y="-29.5" font-family="Helvetica,sans-Serif" font-size="10.00">CButterLp::calcCoeffs</text>
</a>
</g>
</g>
<!-- Node1&#45;&gt;Node2 -->
<g id="edge1" class="edge">
<title>Node1&#45;&gt;Node2</title>
<path fill="none" stroke="midnightblue" d="M279.91,-32C271.53,-32 262.86,-32 254.46,-32"/>
<polygon fill="midnightblue" stroke="midnightblue" points="279.96,-35.5 289.96,-32 279.96,-28.5 279.96,-35.5"/>
</g>
<!-- Node3 -->
<g id="node3" class="node">
<title>Node3</title>
<g id="a_node3"><a xlink:href="a00357.xhtml#af5f08be46100a7ecbc5450f52a96c77e" target="_top" xlink:title=" ">
<polygon fill="white" stroke="black" points="0,-39 0,-69 107,-69 107,-39 0,-39"/>
<text text-anchor="start" x="8" y="-57" font-family="Helvetica,sans-Serif" font-size="10.00">CPitchTimeAuditory</text>
<text text-anchor="middle" x="53.5" y="-46" font-family="Helvetica,sans-Serif" font-size="10.00">::CPitchTimeAuditory</text>
</a>
</g>
</g>
<!-- Node2&#45;&gt;Node3 -->
<g id="edge2" class="edge">
<title>Node2&#45;&gt;Node3</title>
<path fill="none" stroke="midnightblue" d="M132.67,-41.97C124.11,-43.29 115.43,-44.63 107.11,-45.91"/>
<polygon fill="midnightblue" stroke="midnightblue" points="133.27,-45.42 142.62,-40.44 132.21,-38.5 133.27,-45.42"/>
</g>
<!-- Node4 -->
<g id="node4" class="node">
<title>Node4</title>
<g id="a_node4"><a xlink:href="a00541.xhtml#a040a6674ec0ff9171d6b4cb4b8436cb2" target="_top" xlink:title=" ">
<polygon fill="white" stroke="black" points="0.5,-0.5 0.5,-19.5 106.5,-19.5 106.5,-0.5 0.5,-0.5"/>
<text text-anchor="middle" x="53.5" y="-7.5" font-family="Helvetica,sans-Serif" font-size="10.00">CResample::process</text>
</a>
</g>
</g>
<!-- Node2&#45;&gt;Node4 -->
<g id="edge3" class="edge">
<title>Node2&#45;&gt;Node4</title>
<path fill="none" stroke="midnightblue" d="M132.53,-22C123.86,-20.67 115.06,-19.32 106.64,-18.02"/>
<polygon fill="midnightblue" stroke="midnightblue" points="132.21,-25.5 142.62,-23.56 133.27,-18.58 132.21,-25.5"/>
</g>
</g>
</svg>
