<?xml version="1.0" encoding="UTF-8" standalone="no"?>
<!DOCTYPE svg PUBLIC "-//W3C//DTD SVG 1.1//EN"
 "http://www.w3.org/Graphics/SVG/1.1/DTD/svg11.dtd">
<!-- Generated by graphviz version 4.0.0 (20220602.1335)
 -->
<!-- Title: CFft::compFft Pages: 1 -->
<!--zoomable 519 -->
<svg id="main" version="1.1" xmlns="http://www.w3.org/2000/svg" xmlns:xlink="http://www.w3.org/1999/xlink" xml:space="preserve" onload="init(evt)">
<style type="text/css"><![CDATA[
.edge:hover path { stroke: red; }
.edge:hover polygon { stroke: red; fill: red; }
]]></style>
<script type="text/javascript"><![CDATA[
var edges = document.getElementsByTagName('g');
if (edges && edges.length) {
  for (var i=0;i<edges.length;i++) {
    if (edges[i].id.substr(0,4)=='edge') {
      edges[i].setAttribute('class','edge');
    }
  }
}
]]></script>
        <defs>
                <circle id="rim" cx="0" cy="0" r="7"/>
                <circle id="rim2" cx="0" cy="0" r="3.5"/>
                <g id="zoomPlus">
                        <use xlink:href="#rim" fill="#404040">
                                <set attributeName="fill" to="#808080" begin="zoomplus.mouseover" end="zoomplus.mouseout"/>
                        </use>
                        <path d="M-4,0h8M0,-4v8" fill="none" stroke="white" stroke-width="1.5" pointer-events="none"/>
                </g>
                <g id="zoomMin">
                        <use xlink:href="#rim" fill="#404040">
                                <set attributeName="fill" to="#808080" begin="zoomminus.mouseover" end="zoomminus.mouseout"/>
                        </use>
                        <path d="M-4,0h8" fill="none" stroke="white" stroke-width="1.5" pointer-events="none"/>
                </g>
                <g id="dirArrow">
                        <path fill="none" stroke="white" stroke-width="1.5" d="M0,-3.0v7 M-2.5,-0.5L0,-3.0L2.5,-0.5"/>
                </g>
               <g id="resetDef">
                       <use xlink:href="#rim2" fill="#404040">
                               <set attributeName="fill" to="#808080" begin="reset.mouseover" end="reset.mouseout"/>
                       </use>
               </g>
        </defs>

<script type="text/javascript">
var viewWidth = 766;
var viewHeight = 519;
var sectionId = 'dynsection-7';
</script>
<script xlink:href="svgpan.js"/>
<svg id="graph" class="graph">
<g id="viewport">
<title>CFft::compFft</title>
<polygon fill="white" stroke="transparent" points="-4,4 -4,-515 762,-515 762,4 -4,4"/>
<!-- Node1 -->
<g id="node1" class="node">
<title>Node1</title>
<g id="a_node1"><a xlink:title=" ">
<polygon fill="#bfbfbf" stroke="black" points="682,-190.5 682,-209.5 758,-209.5 758,-190.5 682,-190.5"/>
<text text-anchor="middle" x="720" y="-197.5" font-family="Helvetica,sans-Serif" font-size="10.00">CFft::compFft</text>
</a>
</g>
</g>
<!-- Node2 -->
<g id="node2" class="node">
<title>Node2</title>
<g id="a_node2"><a xlink:href="a00417.xhtml#a58a9a3d685f448ced2e843a60028e472" target="_top" xlink:title=" ">
<polygon fill="white" stroke="black" points="74,-453.5 74,-472.5 219,-472.5 219,-453.5 74,-453.5"/>
<text text-anchor="middle" x="146.5" y="-460.5" font-family="Helvetica,sans-Serif" font-size="10.00">CBeatHistoIf::compBeatHisto</text>
</a>
</g>
</g>
<!-- Node1&#45;&gt;Node2 -->
<g id="edge1" class="edge">
<title>Node1&#45;&gt;Node2</title>
<path fill="none" stroke="midnightblue" d="M712.62,-219.12C702.41,-247.29 680.03,-300.26 646,-334 572.3,-407.08 539.82,-415.55 440,-444 366.84,-464.85 279.37,-467.83 219.26,-466.7"/>
<polygon fill="midnightblue" stroke="midnightblue" points="715.94,-220.22 715.94,-209.63 709.34,-217.92 715.94,-220.22"/>
</g>
<!-- Node4 -->
<g id="node4" class="node">
<title>Node4</title>
<g id="a_node4"><a xlink:href="a00497.xhtml#a4d7d19dd39b24147d9a1fab5d7e05257" target="_top" xlink:title=" ">
<polygon fill="white" stroke="black" points="520,-305.5 520,-324.5 602,-324.5 602,-305.5 520,-305.5"/>
<text text-anchor="middle" x="561" y="-312.5" font-family="Helvetica,sans-Serif" font-size="10.00">CCcf::compCcf</text>
</a>
</g>
</g>
<!-- Node1&#45;&gt;Node4 -->
<g id="edge3" class="edge">
<title>Node1&#45;&gt;Node4</title>
<path fill="none" stroke="midnightblue" d="M697.41,-215.81C664.47,-239.94 602.61,-285.25 575.41,-305.18"/>
<polygon fill="midnightblue" stroke="midnightblue" points="699.89,-218.34 705.88,-209.61 695.75,-212.69 699.89,-218.34"/>
</g>
<!-- Node9 -->
<g id="node9" class="node">
<title>Node9</title>
<g id="a_node9"><a xlink:href="a00421.xhtml#ab7ff18d1911b7a8792536daad8cf0dd9" target="_top" xlink:title=" ">
<polygon fill="white" stroke="black" points="479.5,-190.5 479.5,-209.5 642.5,-209.5 642.5,-190.5 479.5,-190.5"/>
<text text-anchor="middle" x="561" y="-197.5" font-family="Helvetica,sans-Serif" font-size="10.00">CChordIf::computeMagSpectrum_</text>
</a>
</g>
</g>
<!-- Node1&#45;&gt;Node9 -->
<g id="edge9" class="edge">
<title>Node1&#45;&gt;Node9</title>
<path fill="none" stroke="midnightblue" d="M671.69,-200C662.45,-200 652.52,-200 642.55,-200"/>
<polygon fill="midnightblue" stroke="midnightblue" points="671.79,-203.5 681.79,-200 671.79,-196.5 671.79,-203.5"/>
</g>
<!-- Node12 -->
<g id="node12" class="node">
<title>Node12</title>
<g id="a_node12"><a xlink:href="a00429.xhtml#a7aef37fcf40e80cbace42fe663f47bbd" target="_top" xlink:title=" ">
<polygon fill="white" stroke="black" points="476,-152.5 476,-171.5 646,-171.5 646,-152.5 476,-152.5"/>
<text text-anchor="middle" x="561" y="-159.5" font-family="Helvetica,sans-Serif" font-size="10.00">CFeatureIf::computeMagSpectrum_</text>
</a>
</g>
</g>
<!-- Node1&#45;&gt;Node12 -->
<g id="edge12" class="edge">
<title>Node1&#45;&gt;Node12</title>
<path fill="none" stroke="midnightblue" d="M673.69,-187.97C664.54,-185.6 654.97,-183.18 646,-181 632.92,-177.82 618.66,-174.53 605.66,-171.6"/>
<polygon fill="midnightblue" stroke="midnightblue" points="672.85,-191.36 683.41,-190.49 674.62,-184.59 672.85,-191.36"/>
</g>
<!-- Node16 -->
<g id="node16" class="node">
<title>Node16</title>
<g id="a_node16"><a xlink:href="a00469.xhtml#a9018f2beabd03a9b41d90bde402aa227" target="_top" xlink:title=" ">
<polygon fill="white" stroke="black" points="476,-491.5 476,-510.5 646,-510.5 646,-491.5 476,-491.5"/>
<text text-anchor="middle" x="561" y="-498.5" font-family="Helvetica,sans-Serif" font-size="10.00">CNoveltyIf::computeMagSpectrum_</text>
</a>
</g>
</g>
<!-- Node1&#45;&gt;Node16 -->
<g id="edge17" class="edge">
<title>Node1&#45;&gt;Node16</title>
<path fill="none" stroke="midnightblue" d="M716.32,-219.98C708.26,-277.15 682.55,-439.69 646,-477 639.84,-483.28 632.17,-487.95 623.97,-491.42"/>
<polygon fill="midnightblue" stroke="midnightblue" points="719.83,-220.12 717.73,-209.74 712.9,-219.17 719.83,-220.12"/>
</g>
<!-- Node19 -->
<g id="node19" class="node">
<title>Node19</title>
<g id="a_node19"><a xlink:href="a00477.xhtml#aa988c75557f8281271467b000a1a1d54" target="_top" xlink:title=" ">
<polygon fill="white" stroke="black" points="481,-98.5 481,-117.5 641,-117.5 641,-98.5 481,-98.5"/>
<text text-anchor="middle" x="561" y="-105.5" font-family="Helvetica,sans-Serif" font-size="10.00">CPitchIf::computeMagSpectrum_</text>
</a>
</g>
</g>
<!-- Node1&#45;&gt;Node19 -->
<g id="edge21" class="edge">
<title>Node1&#45;&gt;Node19</title>
<path fill="none" stroke="midnightblue" d="M700.72,-183.47C686.53,-171.21 665.96,-154.66 646,-143 628.27,-132.64 606.88,-123.77 590.13,-117.56"/>
<polygon fill="midnightblue" stroke="midnightblue" points="698.47,-186.15 708.29,-190.12 703.09,-180.89 698.47,-186.15"/>
</g>
<!-- Node22 -->
<g id="node22" class="node">
<title>Node22</title>
<g id="a_node22"><a xlink:href="a00485.xhtml#abe25089ec6ef77b0b9952c33a7a8d739" target="_top" xlink:title=" ">
<polygon fill="white" stroke="black" points="488,-33 488,-63 634,-63 634,-33 488,-33"/>
<text text-anchor="start" x="496" y="-51" font-family="Helvetica,sans-Serif" font-size="10.00">CSpectrogramIf::computeMag</text>
<text text-anchor="middle" x="561" y="-40" font-family="Helvetica,sans-Serif" font-size="10.00">Spectrum_</text>
</a>
</g>
</g>
<!-- Node1&#45;&gt;Node22 -->
<g id="edge24" class="edge">
<title>Node1&#45;&gt;Node22</title>
<path fill="none" stroke="midnightblue" d="M710.63,-181.34C699.06,-157.32 676.15,-115.53 646,-89 633.82,-78.28 618.33,-69.68 603.99,-63.18"/>
<polygon fill="midnightblue" stroke="midnightblue" points="707.48,-182.87 714.88,-190.45 713.82,-179.91 707.48,-182.87"/>
</g>
<!-- Node3 -->
<g id="node3" class="node">
<title>Node3</title>
<g id="a_node3"><a xlink:href="a00017.xhtml#a0ddf1224851353fc92bfbff6f499fa97" target="_top" xlink:title=" ">
<polygon fill="white" stroke="black" points="0,-453.5 0,-472.5 38,-472.5 38,-453.5 0,-453.5"/>
<text text-anchor="middle" x="19" y="-460.5" font-family="Helvetica,sans-Serif" font-size="10.00">main</text>
</a>
</g>
</g>
<!-- Node2&#45;&gt;Node3 -->
<g id="edge2" class="edge">
<title>Node2&#45;&gt;Node3</title>
<path fill="none" stroke="midnightblue" d="M63.88,-463C54.4,-463 45.55,-463 38.32,-463"/>
<polygon fill="midnightblue" stroke="midnightblue" points="63.95,-466.5 73.95,-463 63.95,-459.5 63.95,-466.5"/>
</g>
<!-- Node4&#45;&gt;Node2 -->
<g id="edge4" class="edge">
<title>Node4&#45;&gt;Node2</title>
<path fill="none" stroke="midnightblue" d="M509.73,-318.08C435.01,-323.29 298.74,-335.46 255,-357 207.97,-380.16 168.81,-431.83 153.93,-453.33"/>
<polygon fill="midnightblue" stroke="midnightblue" points="510.11,-321.56 519.85,-317.39 509.64,-314.57 510.11,-321.56"/>
</g>
<!-- Node5 -->
<g id="node5" class="node">
<title>Node5</title>
<g id="a_node5"><a xlink:href="a00345.xhtml#a250792b516c76c54251534a33c17bea8" target="_top" xlink:title=" ">
<polygon fill="white" stroke="black" points="297,-229 297,-259 398,-259 398,-229 297,-229"/>
<text text-anchor="start" x="305" y="-247" font-family="Helvetica,sans-Serif" font-size="10.00">CPitchSpectralAcf::</text>
<text text-anchor="middle" x="347.5" y="-236" font-family="Helvetica,sans-Serif" font-size="10.00">compF0</text>
</a>
</g>
</g>
<!-- Node4&#45;&gt;Node5 -->
<g id="edge5" class="edge">
<title>Node4&#45;&gt;Node5</title>
<path fill="none" stroke="midnightblue" d="M527.91,-301.7C503.92,-292 470.19,-278.88 440,-269 426.54,-264.59 411.8,-260.33 398.15,-256.6"/>
<polygon fill="midnightblue" stroke="midnightblue" points="526.66,-304.97 537.24,-305.5 529.3,-298.49 526.66,-304.97"/>
</g>
<!-- Node6 -->
<g id="node6" class="node">
<title>Node6</title>
<g id="a_node6"><a xlink:href="a00353.xhtml#a7b6c2a935434281c2e17352a3487c912" target="_top" xlink:title=" ">
<polygon fill="white" stroke="black" points="286.5,-415.5 286.5,-434.5 408.5,-434.5 408.5,-415.5 286.5,-415.5"/>
<text text-anchor="middle" x="347.5" y="-422.5" font-family="Helvetica,sans-Serif" font-size="10.00">CPitchTimeAcf::compF0</text>
</a>
</g>
</g>
<!-- Node4&#45;&gt;Node6 -->
<g id="edge6" class="edge">
<title>Node4&#45;&gt;Node6</title>
<path fill="none" stroke="midnightblue" d="M542.95,-331.94C521.05,-352.7 480.94,-387.38 440,-406 430.25,-410.43 419.45,-413.84 408.78,-416.46"/>
<polygon fill="midnightblue" stroke="midnightblue" points="545.65,-334.2 550.42,-324.73 540.79,-329.16 545.65,-334.2"/>
</g>
<!-- Node7 -->
<g id="node7" class="node">
<title>Node7</title>
<g id="a_node7"><a xlink:href="a00357.xhtml#a7fa2c23a2108dc313f319ec803a6181f" target="_top" xlink:title=" ">
<polygon fill="white" stroke="black" points="296,-366 296,-396 399,-396 399,-366 296,-366"/>
<text text-anchor="start" x="304" y="-384" font-family="Helvetica,sans-Serif" font-size="10.00">CPitchTimeAuditory</text>
<text text-anchor="middle" x="347.5" y="-373" font-family="Helvetica,sans-Serif" font-size="10.00">::compF0</text>
</a>
</g>
</g>
<!-- Node4&#45;&gt;Node7 -->
<g id="edge7" class="edge">
<title>Node4&#45;&gt;Node7</title>
<path fill="none" stroke="midnightblue" d="M519.38,-327.68C484.43,-338.58 433.95,-354.34 396.91,-365.89"/>
<polygon fill="midnightblue" stroke="midnightblue" points="520.74,-330.92 529.25,-324.6 518.66,-324.23 520.74,-330.92"/>
</g>
<!-- Node8 -->
<g id="node8" class="node">
<title>Node8</title>
<g id="a_node8"><a xlink:href="a00317.xhtml#af20724e23d18c1126e2edf4186cc8005" target="_top" xlink:title=" ">
<polygon fill="white" stroke="black" points="292,-278 292,-308 403,-308 403,-278 292,-278"/>
<text text-anchor="start" x="300" y="-296" font-family="Helvetica,sans-Serif" font-size="10.00">CFeatureTimeMaxAcf</text>
<text text-anchor="middle" x="347.5" y="-285" font-family="Helvetica,sans-Serif" font-size="10.00">::compFeature</text>
</a>
</g>
</g>
<!-- Node4&#45;&gt;Node8 -->
<g id="edge8" class="edge">
<title>Node4&#45;&gt;Node8</title>
<path fill="none" stroke="midnightblue" d="M509.65,-309.76C477.53,-306.42 435.91,-302.09 403.01,-298.67"/>
<polygon fill="midnightblue" stroke="midnightblue" points="509.41,-313.26 519.72,-310.81 510.14,-306.29 509.41,-313.26"/>
</g>
<!-- Node10 -->
<g id="node10" class="node">
<title>Node10</title>
<g id="a_node10"><a xlink:href="a00421.xhtml#a463c7570302112f307363ec1c7260221" target="_top" xlink:title=" ">
<polygon fill="white" stroke="black" points="290.5,-190.5 290.5,-209.5 404.5,-209.5 404.5,-190.5 290.5,-190.5"/>
<text text-anchor="middle" x="347.5" y="-197.5" font-family="Helvetica,sans-Serif" font-size="10.00">CChordIf::compChords</text>
</a>
</g>
</g>
<!-- Node9&#45;&gt;Node10 -->
<g id="edge10" class="edge">
<title>Node9&#45;&gt;Node10</title>
<path fill="none" stroke="midnightblue" d="M469.39,-200C447.36,-200 424.44,-200 404.55,-200"/>
<polygon fill="midnightblue" stroke="midnightblue" points="469.44,-203.5 479.44,-200 469.44,-196.5 469.44,-203.5"/>
</g>
<!-- Node11 -->
<g id="node11" class="node">
<title>Node11</title>
<g id="a_node11"><a xlink:href="a00023.xhtml#a0ddf1224851353fc92bfbff6f499fa97" target="_top" xlink:title=" ">
<polygon fill="white" stroke="black" points="127.5,-190.5 127.5,-209.5 165.5,-209.5 165.5,-190.5 127.5,-190.5"/>
<text text-anchor="middle" x="146.5" y="-197.5" font-family="Helvetica,sans-Serif" font-size="10.00">main</text>
</a>
</g>
</g>
<!-- Node10&#45;&gt;Node11 -->
<g id="edge11" class="edge">
<title>Node10&#45;&gt;Node11</title>
<path fill="none" stroke="midnightblue" d="M280.25,-200C240.08,-200 191.74,-200 165.91,-200"/>
<polygon fill="midnightblue" stroke="midnightblue" points="280.27,-203.5 290.27,-200 280.27,-196.5 280.27,-203.5"/>
</g>
<!-- Node13 -->
<g id="node13" class="node">
<title>Node13</title>
<g id="a_node13"><a xlink:href="a00429.xhtml#a30248aa1fb336095d4d86d0bd3d2bdb8" target="_top" xlink:title=" ">
<polygon fill="white" stroke="black" points="274.5,-152.5 274.5,-171.5 420.5,-171.5 420.5,-152.5 274.5,-152.5"/>
<text text-anchor="middle" x="347.5" y="-159.5" font-family="Helvetica,sans-Serif" font-size="10.00">CFeatureIf::compFeature1Dim</text>
</a>
</g>
</g>
<!-- Node12&#45;&gt;Node13 -->
<g id="edge13" class="edge">
<title>Node12&#45;&gt;Node13</title>
<path fill="none" stroke="midnightblue" d="M465.49,-162C450.49,-162 435.19,-162 420.81,-162"/>
<polygon fill="midnightblue" stroke="midnightblue" points="465.8,-165.5 475.8,-162 465.8,-158.5 465.8,-165.5"/>
</g>
<!-- Node15 -->
<g id="node15" class="node">
<title>Node15</title>
<g id="a_node15"><a xlink:href="a00429.xhtml#ad734d1e300583449f51e6ca80aa3e7b8" target="_top" xlink:title=" ">
<polygon fill="white" stroke="black" points="273,-114.5 273,-133.5 422,-133.5 422,-114.5 273,-114.5"/>
<text text-anchor="middle" x="347.5" y="-121.5" font-family="Helvetica,sans-Serif" font-size="10.00">CFeatureIf::compFeatureNDim</text>
</a>
</g>
</g>
<!-- Node12&#45;&gt;Node15 -->
<g id="edge15" class="edge">
<title>Node12&#45;&gt;Node15</title>
<path fill="none" stroke="midnightblue" d="M496.85,-150.65C466.5,-145.2 430.54,-138.74 401.62,-133.54"/>
<polygon fill="midnightblue" stroke="midnightblue" points="496.44,-154.14 506.9,-152.46 497.68,-147.25 496.44,-154.14"/>
</g>
<!-- Node14 -->
<g id="node14" class="node">
<title>Node14</title>
<g id="a_node14"><a xlink:href="a00002.xhtml#a0ddf1224851353fc92bfbff6f499fa97" target="_top" xlink:title=" ">
<polygon fill="white" stroke="black" points="127.5,-133.5 127.5,-152.5 165.5,-152.5 165.5,-133.5 127.5,-133.5"/>
<text text-anchor="middle" x="146.5" y="-140.5" font-family="Helvetica,sans-Serif" font-size="10.00">main</text>
</a>
</g>
</g>
<!-- Node13&#45;&gt;Node14 -->
<g id="edge14" class="edge">
<title>Node13&#45;&gt;Node14</title>
<path fill="none" stroke="midnightblue" d="M264.22,-154.14C227.86,-150.67 188.34,-146.9 165.88,-144.75"/>
<polygon fill="midnightblue" stroke="midnightblue" points="264.09,-157.65 274.38,-155.11 264.75,-150.68 264.09,-157.65"/>
</g>
<!-- Node15&#45;&gt;Node14 -->
<g id="edge16" class="edge">
<title>Node15&#45;&gt;Node14</title>
<path fill="none" stroke="midnightblue" d="M262.87,-131.99C226.73,-135.44 187.73,-139.16 165.59,-141.27"/>
<polygon fill="midnightblue" stroke="midnightblue" points="263.34,-135.46 272.97,-131.02 262.68,-128.49 263.34,-135.46"/>
</g>
<!-- Node17 -->
<g id="node17" class="node">
<title>Node17</title>
<g id="a_node17"><a xlink:href="a00469.xhtml#a9f110985f86064fa24aa3157bfd5cab0" target="_top" xlink:title=" ">
<polygon fill="white" stroke="black" points="285.5,-491.5 285.5,-510.5 409.5,-510.5 409.5,-491.5 285.5,-491.5"/>
<text text-anchor="middle" x="347.5" y="-498.5" font-family="Helvetica,sans-Serif" font-size="10.00">CNoveltyIf::compNovelty</text>
</a>
</g>
</g>
<!-- Node16&#45;&gt;Node17 -->
<g id="edge18" class="edge">
<title>Node16&#45;&gt;Node17</title>
<path fill="none" stroke="midnightblue" d="M465.62,-501C446.61,-501 427.11,-501 409.6,-501"/>
<polygon fill="midnightblue" stroke="midnightblue" points="465.8,-504.5 475.8,-501 465.8,-497.5 465.8,-504.5"/>
</g>
<!-- Node17&#45;&gt;Node2 -->
<g id="edge19" class="edge">
<title>Node17&#45;&gt;Node2</title>
<path fill="none" stroke="midnightblue" d="M286.71,-489.58C258.23,-484.14 224.57,-477.72 197.48,-472.54"/>
<polygon fill="midnightblue" stroke="midnightblue" points="286.06,-493.02 296.54,-491.46 287.37,-486.15 286.06,-493.02"/>
</g>
<!-- Node18 -->
<g id="node18" class="node">
<title>Node18</title>
<g id="a_node18"><a xlink:href="a00029.xhtml#a0ddf1224851353fc92bfbff6f499fa97" target="_top" xlink:title=" ">
<polygon fill="white" stroke="black" points="127.5,-491.5 127.5,-510.5 165.5,-510.5 165.5,-491.5 127.5,-491.5"/>
<text text-anchor="middle" x="146.5" y="-498.5" font-family="Helvetica,sans-Serif" font-size="10.00">main</text>
</a>
</g>
</g>
<!-- Node17&#45;&gt;Node18 -->
<g id="edge20" class="edge">
<title>Node17&#45;&gt;Node18</title>
<path fill="none" stroke="midnightblue" d="M275.13,-501C236.03,-501 190.61,-501 165.88,-501"/>
<polygon fill="midnightblue" stroke="midnightblue" points="275.44,-504.5 285.44,-501 275.44,-497.5 275.44,-504.5"/>
</g>
<!-- Node20 -->
<g id="node20" class="node">
<title>Node20</title>
<g id="a_node20"><a xlink:href="a00477.xhtml#a5c6fea7fdc8067f1d6a116b86d543aa1" target="_top" xlink:title=" ">
<polygon fill="white" stroke="black" points="301.5,-76.5 301.5,-95.5 393.5,-95.5 393.5,-76.5 301.5,-76.5"/>
<text text-anchor="middle" x="347.5" y="-83.5" font-family="Helvetica,sans-Serif" font-size="10.00">CPitchIf::compF0</text>
</a>
</g>
</g>
<!-- Node19&#45;&gt;Node20 -->
<g id="edge22" class="edge">
<title>Node19&#45;&gt;Node20</title>
<path fill="none" stroke="midnightblue" d="M470.84,-98.73C444.24,-95.96 416.21,-93.04 393.7,-90.7"/>
<polygon fill="midnightblue" stroke="midnightblue" points="470.64,-102.22 480.94,-99.78 471.36,-95.26 470.64,-102.22"/>
</g>
<!-- Node21 -->
<g id="node21" class="node">
<title>Node21</title>
<g id="a_node21"><a xlink:href="a00101.xhtml#a0ddf1224851353fc92bfbff6f499fa97" target="_top" xlink:title=" ">
<polygon fill="white" stroke="black" points="127.5,-76.5 127.5,-95.5 165.5,-95.5 165.5,-76.5 127.5,-76.5"/>
<text text-anchor="middle" x="146.5" y="-83.5" font-family="Helvetica,sans-Serif" font-size="10.00">main</text>
</a>
</g>
</g>
<!-- Node20&#45;&gt;Node21 -->
<g id="edge23" class="edge">
<title>Node20&#45;&gt;Node21</title>
<path fill="none" stroke="midnightblue" d="M291.23,-86C249.15,-86 193.81,-86 165.66,-86"/>
<polygon fill="midnightblue" stroke="midnightblue" points="291.34,-89.5 301.34,-86 291.34,-82.5 291.34,-89.5"/>
</g>
<!-- Node23 -->
<g id="node23" class="node">
<title>Node23</title>
<g id="a_node23"><a xlink:href="a00485.xhtml#ae89af275cdd54029bbf7f0f25ddf7945" target="_top" xlink:title=" ">
<polygon fill="white" stroke="black" points="255,-0.5 255,-19.5 440,-19.5 440,-0.5 255,-0.5"/>
<text text-anchor="middle" x="347.5" y="-7.5" font-family="Helvetica,sans-Serif" font-size="10.00">CSpectrogramIf::compMelSpectrogram</text>
</a>
</g>
</g>
<!-- Node22&#45;&gt;Node23 -->
<g id="edge25" class="edge">
<title>Node22&#45;&gt;Node23</title>
<path fill="none" stroke="midnightblue" d="M477.74,-33.22C452.19,-28.63 424.7,-23.69 401.68,-19.55"/>
<polygon fill="midnightblue" stroke="midnightblue" points="477.34,-36.71 487.81,-35.03 478.58,-29.82 477.34,-36.71"/>
</g>
<!-- Node25 -->
<g id="node25" class="node">
<title>Node25</title>
<g id="a_node25"><a xlink:href="a00485.xhtml#ae041a770ec2b092761d9a88cc87946bb" target="_top" xlink:title=" ">
<polygon fill="white" stroke="black" points="263,-38.5 263,-57.5 432,-57.5 432,-38.5 263,-38.5"/>
<text text-anchor="middle" x="347.5" y="-45.5" font-family="Helvetica,sans-Serif" font-size="10.00">CSpectrogramIf::compSpectrogram</text>
</a>
</g>
</g>
<!-- Node22&#45;&gt;Node25 -->
<g id="edge27" class="edge">
<title>Node22&#45;&gt;Node25</title>
<path fill="none" stroke="midnightblue" d="M477.57,-48C462.62,-48 447.01,-48 432.02,-48"/>
<polygon fill="midnightblue" stroke="midnightblue" points="477.81,-51.5 487.81,-48 477.81,-44.5 477.81,-51.5"/>
</g>
<!-- Node24 -->
<g id="node24" class="node">
<title>Node24</title>
<g id="a_node24"><a xlink:href="a00098.xhtml#a0ddf1224851353fc92bfbff6f499fa97" target="_top" xlink:title=" ">
<polygon fill="white" stroke="black" points="127.5,-0.5 127.5,-19.5 165.5,-19.5 165.5,-0.5 127.5,-0.5"/>
<text text-anchor="middle" x="146.5" y="-7.5" font-family="Helvetica,sans-Serif" font-size="10.00">main</text>
</a>
</g>
</g>
<!-- Node23&#45;&gt;Node24 -->
<g id="edge26" class="edge">
<title>Node23&#45;&gt;Node24</title>
<path fill="none" stroke="midnightblue" d="M244.59,-10C214.27,-10 184.24,-10 165.79,-10"/>
<polygon fill="midnightblue" stroke="midnightblue" points="244.86,-13.5 254.86,-10 244.86,-6.5 244.86,-13.5"/>
</g>
<!-- Node26 -->
<g id="node26" class="node">
<title>Node26</title>
<g id="a_node26"><a xlink:href="a00014.xhtml#a0ddf1224851353fc92bfbff6f499fa97" target="_top" xlink:title=" ">
<polygon fill="white" stroke="black" points="127.5,-38.5 127.5,-57.5 165.5,-57.5 165.5,-38.5 127.5,-38.5"/>
<text text-anchor="middle" x="146.5" y="-45.5" font-family="Helvetica,sans-Serif" font-size="10.00">main</text>
</a>
</g>
</g>
<!-- Node25&#45;&gt;Node26 -->
<g id="edge28" class="edge">
<title>Node25&#45;&gt;Node26</title>
<path fill="none" stroke="midnightblue" d="M252.74,-48C219.63,-48 185.68,-48 165.59,-48"/>
<polygon fill="midnightblue" stroke="midnightblue" points="252.97,-51.5 262.97,-48 252.97,-44.5 252.97,-51.5"/>
</g>
</g>
</svg>
        <g id="navigator" transform="translate(0 0)" fill="#404254">
                <rect fill="#f2f5e9" fill-opacity="0.5" stroke="#606060" stroke-width=".5" x="0" y="0" width="60" height="60"/>
                <use id="zoomplus" xlink:href="#zoomPlus" x="17" y="9" onmousedown="handleZoom(evt,'in')"/>
                <use id="zoomminus" xlink:href="#zoomMin" x="42" y="9" onmousedown="handleZoom(evt,'out')"/>
                <use id="reset" xlink:href="#resetDef" x="30" y="36" onmousedown="handleReset()"/>
                <g id="arrowUp" xlink:href="#dirArrow" transform="translate(30 24)" onmousedown="handlePan(0,-1)">
                  <use xlink:href="#rim" fill="#404040">
                        <set attributeName="fill" to="#808080" begin="arrowUp.mouseover" end="arrowUp.mouseout"/>
                  </use>
                  <path fill="none" stroke="white" stroke-width="1.5" d="M0,-3.0v7 M-2.5,-0.5L0,-3.0L2.5,-0.5"/>
                </g>
                <g id="arrowRight" xlink:href="#dirArrow" transform="rotate(90) translate(36 -43)" onmousedown="handlePan(1,0)">
                  <use xlink:href="#rim" fill="#404040">
                        <set attributeName="fill" to="#808080" begin="arrowRight.mouseover" end="arrowRight.mouseout"/>
                  </use>
                  <path fill="none" stroke="white" stroke-width="1.5" d="M0,-3.0v7 M-2.5,-0.5L0,-3.0L2.5,-0.5"/>
                </g>
                <g id="arrowDown" xlink:href="#dirArrow" transform="rotate(180) translate(-30 -48)" onmousedown="handlePan(0,1)">
                  <use xlink:href="#rim" fill="#404040">
                        <set attributeName="fill" to="#808080" begin="arrowDown.mouseover" end="arrowDown.mouseout"/>
                  </use>
                  <path fill="none" stroke="white" stroke-width="1.5" d="M0,-3.0v7 M-2.5,-0.5L0,-3.0L2.5,-0.5"/>
                </g>
                <g id="arrowLeft" xlink:href="#dirArrow" transform="rotate(270) translate(-36 17)" onmousedown="handlePan(-1,0)">
                  <use xlink:href="#rim" fill="#404040">
                        <set attributeName="fill" to="#808080" begin="arrowLeft.mouseover" end="arrowLeft.mouseout"/>
                  </use>
                  <path fill="none" stroke="white" stroke-width="1.5" d="M0,-3.0v7 M-2.5,-0.5L0,-3.0L2.5,-0.5"/>
                </g>
        </g>
        <svg viewBox="0 0 15 15" width="100%" height="30px" preserveAspectRatio="xMaxYMin meet">
         <g id="arrow_out" transform="scale(0.3 0.3)">
          <a xlink:href="a00437_a3cae73896785c2f12ba979e15de48087_icgraph_org.svg" target="_base">
           <rect id="button" ry="5" rx="5" y="6" x="6" height="38" width="38"
                fill="#f2f5e9" fill-opacity="0.5" stroke="#606060" stroke-width="1.0"/>
           <path id="arrow"
             d="M 11.500037,31.436501 C 11.940474,20.09759 22.043105,11.32322 32.158766,21.979434 L 37.068811,17.246167 C 37.068811,17.246167 37.088388,32 37.088388,32 L 22.160133,31.978069 C 22.160133,31.978069 26.997745,27.140456 26.997745,27.140456 C 18.528582,18.264221 13.291696,25.230495 11.500037,31.436501 z"
             style="fill:#404040;"/>
          </a>
         </g>
        </svg>
</svg>
