<?xml version="1.0" encoding="UTF-8" standalone="no"?>
<!DOCTYPE svg PUBLIC "-//W3C//DTD SVG 1.1//EN"
 "http://www.w3.org/Graphics/SVG/1.1/DTD/svg11.dtd">
<!-- Generated by graphviz version 4.0.0 (20220602.1335)
 -->
<!-- Title: CKnn::classify Pages: 1 -->
<svg width="374pt" height="256pt"
 viewBox="0.00 0.00 374.00 256.00" xmlns="http://www.w3.org/2000/svg" xmlns:xlink="http://www.w3.org/1999/xlink">
<g id="graph0" class="graph" transform="scale(1 1) rotate(0) translate(4 252)">
<title>CKnn::classify</title>
<polygon fill="white" stroke="transparent" points="-4,4 -4,-252 370,-252 370,4 -4,4"/>
<!-- Node1 -->
<g id="node1" class="node">
<title>Node1</title>
<g id="a_node1"><a xlink:title=" ">
<polygon fill="#bfbfbf" stroke="black" points="0,-114.5 0,-133.5 78,-133.5 78,-114.5 0,-114.5"/>
<text text-anchor="middle" x="39" y="-121.5" font-family="Helvetica,sans-Serif" font-size="10.00">CKnn::classify</text>
</a>
</g>
</g>
<!-- Node2 -->
<g id="node2" class="node">
<title>Node2</title>
<g id="a_node2"><a xlink:href="a00557.xhtml#a875c603ba28294ac2575eb6e06407018" target="_top" xlink:title=" ">
<polygon fill="white" stroke="black" points="114,-228.5 114,-247.5 230,-247.5 230,-228.5 114,-228.5"/>
<text text-anchor="middle" x="172" y="-235.5" font-family="Helvetica,sans-Serif" font-size="10.00">CKnn::buildHistogram_</text>
</a>
</g>
</g>
<!-- Node1&#45;&gt;Node2 -->
<g id="edge1" class="edge">
<title>Node1&#45;&gt;Node2</title>
<path fill="none" stroke="midnightblue" d="M44.93,-133.6C55.2,-152.66 80.71,-195.47 114,-219 116.73,-220.93 119.66,-222.67 122.71,-224.24"/>
<polygon fill="midnightblue" stroke="midnightblue" points="121.55,-227.56 132.11,-228.47 124.42,-221.18 121.55,-227.56"/>
</g>
<!-- Node4 -->
<g id="node4" class="node">
<title>Node4</title>
<g id="a_node4"><a xlink:href="a00465.xhtml#ad7c5cba73e439adac77778f61c9418f0" target="_top" xlink:title=" ">
<polygon fill="white" stroke="black" points="133.5,-190.5 133.5,-209.5 210.5,-209.5 210.5,-190.5 133.5,-190.5"/>
<text text-anchor="middle" x="172" y="-197.5" font-family="Helvetica,sans-Serif" font-size="10.00">CVector::copy</text>
</a>
</g>
</g>
<!-- Node1&#45;&gt;Node4 -->
<g id="edge3" class="edge">
<title>Node1&#45;&gt;Node4</title>
<path fill="none" stroke="midnightblue" d="M50.25,-133.72C63.86,-146.18 89.09,-167.74 114,-181 117.99,-183.12 122.27,-185.07 126.62,-186.85"/>
<polygon fill="midnightblue" stroke="midnightblue" points="125.58,-190.2 136.17,-190.45 128.04,-183.65 125.58,-190.2"/>
</g>
<!-- Node5 -->
<g id="node5" class="node">
<title>Node5</title>
<g id="a_node5"><a xlink:href="a00557.xhtml#aa92470fc0e97510d9b2f4d4da8e86bfb" target="_top" xlink:title=" ">
<polygon fill="white" stroke="black" points="118,-114.5 118,-133.5 226,-133.5 226,-114.5 118,-114.5"/>
<text text-anchor="middle" x="172" y="-121.5" font-family="Helvetica,sans-Serif" font-size="10.00">CKnn::countMaxima_</text>
</a>
</g>
</g>
<!-- Node1&#45;&gt;Node5 -->
<g id="edge4" class="edge">
<title>Node1&#45;&gt;Node5</title>
<path fill="none" stroke="midnightblue" d="M78.24,-124C87.53,-124 97.71,-124 107.82,-124"/>
<polygon fill="midnightblue" stroke="midnightblue" points="107.86,-127.5 117.86,-124 107.86,-120.5 107.86,-127.5"/>
</g>
<!-- Node8 -->
<g id="node8" class="node">
<title>Node8</title>
<g id="a_node8"><a xlink:href="a00465.xhtml#a98bac500fad7ba363e8be30051ba6690" target="_top" xlink:title=" ">
<polygon fill="white" stroke="black" points="115,-152.5 115,-171.5 229,-171.5 229,-152.5 115,-152.5"/>
<text text-anchor="middle" x="172" y="-159.5" font-family="Helvetica,sans-Serif" font-size="10.00">CVector::distEuclidean</text>
</a>
</g>
</g>
<!-- Node1&#45;&gt;Node8 -->
<g id="edge7" class="edge">
<title>Node1&#45;&gt;Node8</title>
<path fill="none" stroke="midnightblue" d="M73.06,-133.59C89.81,-138.45 110.36,-144.41 128.3,-149.61"/>
<polygon fill="midnightblue" stroke="midnightblue" points="127.37,-152.99 137.95,-152.41 129.32,-146.27 127.37,-152.99"/>
</g>
<!-- Node10 -->
<g id="node10" class="node">
<title>Node10</title>
<g id="a_node10"><a xlink:href="a00465.xhtml#a5fb59528a3f5d3968f988d550b270898" target="_top" xlink:title=" ">
<polygon fill="white" stroke="black" points="132,-76.5 132,-95.5 212,-95.5 212,-76.5 132,-76.5"/>
<text text-anchor="middle" x="172" y="-83.5" font-family="Helvetica,sans-Serif" font-size="10.00">CVector::mul_I</text>
</a>
</g>
</g>
<!-- Node1&#45;&gt;Node10 -->
<g id="edge9" class="edge">
<title>Node1&#45;&gt;Node10</title>
<path fill="none" stroke="midnightblue" d="M73.06,-114.41C89.81,-109.55 110.36,-103.59 128.3,-98.39"/>
<polygon fill="midnightblue" stroke="midnightblue" points="129.32,-101.73 137.95,-95.59 127.37,-95.01 129.32,-101.73"/>
</g>
<!-- Node11 -->
<g id="node11" class="node">
<title>Node11</title>
<g id="a_node11"><a xlink:href="a00465.xhtml#a63b8f3254518a67c10b7a5b2b3e0381f" target="_top" xlink:title=" ">
<polygon fill="white" stroke="black" points="131.5,-38.5 131.5,-57.5 212.5,-57.5 212.5,-38.5 131.5,-38.5"/>
<text text-anchor="middle" x="172" y="-45.5" font-family="Helvetica,sans-Serif" font-size="10.00">CVector::sort_I</text>
</a>
</g>
</g>
<!-- Node1&#45;&gt;Node11 -->
<g id="edge10" class="edge">
<title>Node1&#45;&gt;Node11</title>
<path fill="none" stroke="midnightblue" d="M50.25,-114.28C63.86,-101.82 89.09,-80.26 114,-67 117.99,-64.88 122.27,-62.93 126.62,-61.15"/>
<polygon fill="midnightblue" stroke="midnightblue" points="128.04,-64.35 136.17,-57.55 125.58,-57.8 128.04,-64.35"/>
</g>
<!-- Node12 -->
<g id="node12" class="node">
<title>Node12</title>
<g id="a_node12"><a xlink:href="a00465.xhtml#a39329371d828db80c2f0ad037074c998" target="_top" xlink:title=" ">
<polygon fill="white" stroke="black" points="132,-0.5 132,-19.5 212,-19.5 212,-0.5 132,-0.5"/>
<text text-anchor="middle" x="172" y="-7.5" font-family="Helvetica,sans-Serif" font-size="10.00">CVector::sub_I</text>
</a>
</g>
</g>
<!-- Node1&#45;&gt;Node12 -->
<g id="edge12" class="edge">
<title>Node1&#45;&gt;Node12</title>
<path fill="none" stroke="midnightblue" d="M44.93,-114.4C55.2,-95.34 80.71,-52.53 114,-29 116.73,-27.07 119.66,-25.33 122.71,-23.76"/>
<polygon fill="midnightblue" stroke="midnightblue" points="124.42,-26.82 132.11,-19.53 121.55,-20.44 124.42,-26.82"/>
</g>
<!-- Node3 -->
<g id="node3" class="node">
<title>Node3</title>
<g id="a_node3"><a xlink:href="a00465.xhtml#a4cf9544dd96801e3ee47fd1ef2049a1b" target="_top" xlink:title=" ">
<polygon fill="white" stroke="black" points="268.5,-228.5 268.5,-247.5 363.5,-247.5 363.5,-228.5 268.5,-228.5"/>
<text text-anchor="middle" x="316" y="-235.5" font-family="Helvetica,sans-Serif" font-size="10.00">CVector::setValue</text>
</a>
</g>
</g>
<!-- Node2&#45;&gt;Node3 -->
<g id="edge2" class="edge">
<title>Node2&#45;&gt;Node3</title>
<path fill="none" stroke="midnightblue" d="M230.35,-238C239.52,-238 249.01,-238 258.17,-238"/>
<polygon fill="midnightblue" stroke="midnightblue" points="258.33,-241.5 268.33,-238 258.33,-234.5 258.33,-241.5"/>
</g>
<!-- Node6 -->
<g id="node6" class="node">
<title>Node6</title>
<g id="a_node6"><a xlink:href="a00465.xhtml#a34a5c0abd80cd982df8a8bae7cbcea19" target="_top" xlink:title=" ">
<polygon fill="white" stroke="black" points="271.5,-114.5 271.5,-133.5 360.5,-133.5 360.5,-114.5 271.5,-114.5"/>
<text text-anchor="middle" x="316" y="-121.5" font-family="Helvetica,sans-Serif" font-size="10.00">CVector::findMax</text>
</a>
</g>
</g>
<!-- Node5&#45;&gt;Node6 -->
<g id="edge5" class="edge">
<title>Node5&#45;&gt;Node6</title>
<path fill="none" stroke="midnightblue" d="M226.28,-124C237.61,-124 249.58,-124 260.93,-124"/>
<polygon fill="midnightblue" stroke="midnightblue" points="261.15,-127.5 271.15,-124 261.15,-120.5 261.15,-127.5"/>
</g>
<!-- Node7 -->
<g id="node7" class="node">
<title>Node7</title>
<g id="a_node7"><a xlink:href="a00461.xhtml#a4518cf65aacb5732281b35ee427d0fc2" target="_top" xlink:title=" ">
<polygon fill="white" stroke="black" points="283,-57.5 283,-76.5 349,-76.5 349,-57.5 283,-57.5"/>
<text text-anchor="middle" x="316" y="-64.5" font-family="Helvetica,sans-Serif" font-size="10.00">CUtil::swap</text>
</a>
</g>
</g>
<!-- Node5&#45;&gt;Node7 -->
<g id="edge6" class="edge">
<title>Node5&#45;&gt;Node7</title>
<path fill="none" stroke="midnightblue" d="M203.37,-114.49C212.04,-111.61 221.45,-108.33 230,-105 248.71,-97.72 269.28,-88.56 285.49,-81.05"/>
<polygon fill="midnightblue" stroke="midnightblue" points="287.39,-84.03 294.97,-76.63 284.43,-77.69 287.39,-84.03"/>
</g>
<!-- Node9 -->
<g id="node9" class="node">
<title>Node9</title>
<g id="a_node9"><a xlink:href="a00465.xhtml#a269d316eeb6000aac4f57ade32c83127" target="_top" xlink:title=" ">
<polygon fill="white" stroke="black" points="266,-152.5 266,-171.5 366,-171.5 366,-152.5 266,-152.5"/>
<text text-anchor="middle" x="316" y="-159.5" font-family="Helvetica,sans-Serif" font-size="10.00">CVector::mulScalar</text>
</a>
</g>
</g>
<!-- Node8&#45;&gt;Node9 -->
<g id="edge8" class="edge">
<title>Node8&#45;&gt;Node9</title>
<path fill="none" stroke="midnightblue" d="M229.12,-162C237.81,-162 246.82,-162 255.58,-162"/>
<polygon fill="midnightblue" stroke="midnightblue" points="255.72,-165.5 265.72,-162 255.72,-158.5 255.72,-165.5"/>
</g>
<!-- Node11&#45;&gt;Node7 -->
<g id="edge11" class="edge">
<title>Node11&#45;&gt;Node7</title>
<path fill="none" stroke="midnightblue" d="M212.55,-53.29C231.34,-55.81 253.8,-58.81 272.89,-61.37"/>
<polygon fill="midnightblue" stroke="midnightblue" points="272.45,-64.84 282.83,-62.69 273.38,-57.9 272.45,-64.84"/>
</g>
</g>
</svg>
