<?xml version="1.0" encoding="UTF-8" standalone="no"?>
<!DOCTYPE svg PUBLIC "-//W3C//DTD SVG 1.1//EN"
 "http://www.w3.org/Graphics/SVG/1.1/DTD/svg11.dtd">
<!-- Generated by graphviz version 4.0.0 (20220602.1335)
 -->
<!-- Title: CPreProc::downmix Pages: 1 -->
<svg width="492pt" height="110pt"
 viewBox="0.00 0.00 492.00 110.00" xmlns="http://www.w3.org/2000/svg" xmlns:xlink="http://www.w3.org/1999/xlink">
<g id="graph0" class="graph" transform="scale(1 1) rotate(0) translate(4 106)">
<title>CPreProc::downmix</title>
<polygon fill="white" stroke="transparent" points="-4,4 -4,-106 488,-106 488,4 -4,4"/>
<!-- Node1 -->
<g id="node1" class="node">
<title>Node1</title>
<g id="a_node1"><a xlink:title=" ">
<polygon fill="#bfbfbf" stroke="black" points="383,-52 383,-71 484,-71 484,-52 383,-52"/>
<text text-anchor="middle" x="433.5" y="-59" font-family="Helvetica,sans-Serif" font-size="10.00">CPreProc::downmix</text>
</a>
</g>
</g>
<!-- Node2 -->
<g id="node2" class="node">
<title>Node2</title>
<g id="a_node2"><a xlink:href="a00537.xhtml#a0f2e96a9c1a1ab0b85e1410b00f0aa8e" target="_top" xlink:title=" ">
<polygon fill="white" stroke="black" points="201,-71.5 201,-101.5 347,-101.5 347,-71.5 201,-71.5"/>
<text text-anchor="start" x="209" y="-89.5" font-family="Helvetica,sans-Serif" font-size="10.00">CNormalizeAudio::CNormalize</text>
<text text-anchor="middle" x="274" y="-78.5" font-family="Helvetica,sans-Serif" font-size="10.00">Audio</text>
</a>
</g>
</g>
<!-- Node1&#45;&gt;Node2 -->
<g id="edge1" class="edge">
<title>Node1&#45;&gt;Node2</title>
<path fill="none" stroke="midnightblue" d="M372.69,-70.99C364.37,-72.31 355.76,-73.68 347.24,-75.03"/>
<polygon fill="midnightblue" stroke="midnightblue" points="373.34,-74.43 382.67,-69.41 372.24,-67.52 373.34,-74.43"/>
</g>
<!-- Node3 -->
<g id="node3" class="node">
<title>Node3</title>
<g id="a_node3"><a xlink:href="a00377.xhtml#ac77d15abc29183765326f7212dd523a1" target="_top" xlink:title=" ">
<polygon fill="white" stroke="black" points="207.5,-22.5 207.5,-52.5 340.5,-52.5 340.5,-22.5 207.5,-22.5"/>
<text text-anchor="start" x="215.5" y="-40.5" font-family="Helvetica,sans-Serif" font-size="10.00">CBlockAudioFile::readFile2</text>
<text text-anchor="middle" x="274" y="-29.5" font-family="Helvetica,sans-Serif" font-size="10.00">RingBuff</text>
</a>
</g>
</g>
<!-- Node1&#45;&gt;Node3 -->
<g id="edge2" class="edge">
<title>Node1&#45;&gt;Node3</title>
<path fill="none" stroke="midnightblue" d="M372.78,-52.4C362.28,-50.8 351.3,-49.13 340.65,-47.5"/>
<polygon fill="midnightblue" stroke="midnightblue" points="372.25,-55.86 382.67,-53.91 373.31,-48.94 372.25,-55.86"/>
</g>
<!-- Node4 -->
<g id="node4" class="node">
<title>Node4</title>
<g id="a_node4"><a xlink:href="a00377.xhtml#ae12716ee8473becf462624698243f761" target="_top" xlink:title=" ">
<polygon fill="white" stroke="black" points="0,-50 0,-69 165,-69 165,-50 0,-50"/>
<text text-anchor="middle" x="82.5" y="-57" font-family="Helvetica,sans-Serif" font-size="10.00">CBlockAudioFile::CBlockAudioFile</text>
</a>
</g>
</g>
<!-- Node3&#45;&gt;Node4 -->
<g id="edge3" class="edge">
<title>Node3&#45;&gt;Node4</title>
<path fill="none" stroke="midnightblue" d="M197.25,-46.29C186.7,-47.52 175.82,-48.78 165.16,-50.02"/>
<polygon fill="midnightblue" stroke="midnightblue" points="197.72,-49.76 207.25,-45.13 196.92,-42.81 197.72,-49.76"/>
</g>
<!-- Node5 -->
<g id="node5" class="node">
<title>Node5</title>
<g id="a_node5"><a xlink:href="a00377.xhtml#a9c2bd8b51ec72c82eb202d70f379d3ac" target="_top" xlink:title=" ">
<polygon fill="white" stroke="black" points="19,-0.5 19,-30.5 146,-30.5 146,-0.5 19,-0.5"/>
<text text-anchor="start" x="27" y="-18.5" font-family="Helvetica,sans-Serif" font-size="10.00">CBlockAudioFile::getNext</text>
<text text-anchor="middle" x="82.5" y="-7.5" font-family="Helvetica,sans-Serif" font-size="10.00">Block</text>
</a>
</g>
</g>
<!-- Node3&#45;&gt;Node5 -->
<g id="edge4" class="edge">
<title>Node3&#45;&gt;Node5</title>
<path fill="none" stroke="midnightblue" d="M196.91,-28.67C180.1,-26.71 162.47,-24.67 146.26,-22.79"/>
<polygon fill="midnightblue" stroke="midnightblue" points="196.92,-32.19 207.25,-29.87 197.72,-25.24 196.92,-32.19"/>
</g>
</g>
</svg>
