<?xml version="1.0" encoding="UTF-8" standalone="no"?>
<!DOCTYPE svg PUBLIC "-//W3C//DTD SVG 1.1//EN"
 "http://www.w3.org/Graphics/SVG/1.1/DTD/svg11.dtd">
<!-- Generated by graphviz version 4.0.0 (20220602.1335)
 -->
<!-- Title: Catch::StringMaker&lt; signed char[SZ]&gt;::convert Pages: 1 -->
<svg width="258pt" height="50pt"
 viewBox="0.00 0.00 258.00 50.00" xmlns="http://www.w3.org/2000/svg" xmlns:xlink="http://www.w3.org/1999/xlink">
<g id="graph0" class="graph" transform="scale(1 1) rotate(0) translate(4 46)">
<title>Catch::StringMaker&lt; signed char[SZ]&gt;::convert</title>
<polygon fill="white" stroke="transparent" points="-4,4 -4,-46 254,-46 254,4 -4,4"/>
<!-- Node1 -->
<g id="node1" class="node">
<title>Node1</title>
<g id="a_node1"><a xlink:title=" ">
<polygon fill="#bfbfbf" stroke="black" points="0,-0.5 0,-41.5 104,-41.5 104,-0.5 0,-0.5"/>
<text text-anchor="start" x="8" y="-29.5" font-family="Helvetica,sans-Serif" font-size="10.00">Catch::StringMaker</text>
<text text-anchor="start" x="8" y="-18.5" font-family="Helvetica,sans-Serif" font-size="10.00">&lt; signed char[SZ]&gt;::</text>
<text text-anchor="middle" x="52" y="-7.5" font-family="Helvetica,sans-Serif" font-size="10.00">convert</text>
</a>
</g>
</g>
<!-- Node2 -->
<g id="node2" class="node">
<title>Node2</title>
<g id="a_node2"><a xlink:href="a00259.xhtml#af0ad48344ffd3f92f3568465248a9880" target="_top" xlink:title=" ">
<polygon fill="white" stroke="black" points="140,-11.5 140,-30.5 250,-30.5 250,-11.5 140,-11.5"/>
<text text-anchor="middle" x="195" y="-18.5" font-family="Helvetica,sans-Serif" font-size="10.00">Catch::Detail::stringify</text>
</a>
</g>
</g>
<!-- Node1&#45;&gt;Node2 -->
<g id="edge1" class="edge">
<title>Node1&#45;&gt;Node2</title>
<path fill="none" stroke="midnightblue" d="M104.3,-21C112.48,-21 121.02,-21 129.45,-21"/>
<polygon fill="midnightblue" stroke="midnightblue" points="129.65,-24.5 139.65,-21 129.65,-17.5 129.65,-24.5"/>
</g>
</g>
</svg>
