<?xml version="1.0" encoding="UTF-8" standalone="no"?>
<!DOCTYPE svg PUBLIC "-//W3C//DTD SVG 1.1//EN"
 "http://www.w3.org/Graphics/SVG/1.1/DTD/svg11.dtd">
<!-- Generated by graphviz version 4.0.0 (20220602.1335)
 -->
<!-- Title: Catch::Matchers::Vector::ApproxMatcher&lt; T, AllocComp, AllocMatch &gt; Pages: 1 -->
<svg width="311pt" height="801pt"
 viewBox="0.00 0.00 311.00 801.00" xmlns="http://www.w3.org/2000/svg" xmlns:xlink="http://www.w3.org/1999/xlink">
<g id="graph0" class="graph" transform="scale(1 1) rotate(0) translate(4 797)">
<title>Catch::Matchers::Vector::ApproxMatcher&lt; T, AllocComp, AllocMatch &gt;</title>
<polygon fill="white" stroke="transparent" points="-4,4 -4,-797 307,-797 307,4 -4,4"/>
<!-- Node1 -->
<g id="node1" class="node">
<title>Node1</title>
<g id="a_node1"><a xlink:title=" ">
<polygon fill="#bfbfbf" stroke="black" points="45,-0.5 45,-255.5 201,-255.5 201,-0.5 45,-0.5"/>
<text text-anchor="start" x="53" y="-243.5" font-family="Helvetica,sans-Serif" font-size="10.00">Catch::Matchers::Vector</text>
<text text-anchor="start" x="53" y="-232.5" font-family="Helvetica,sans-Serif" font-size="10.00">::ApproxMatcher&lt; T, AllocComp,</text>
<text text-anchor="middle" x="123" y="-221.5" font-family="Helvetica,sans-Serif" font-size="10.00"> AllocMatch &gt;</text>
<polyline fill="none" stroke="black" points="45,-214.5 201,-214.5 "/>
<text text-anchor="start" x="53" y="-202.5" font-family="Helvetica,sans-Serif" font-size="10.00">+ std::vector&lt; T, AllocComp</text>
<text text-anchor="start" x="53" y="-191.5" font-family="Helvetica,sans-Serif" font-size="10.00"> &gt; const &amp; m_comparator</text>
<text text-anchor="start" x="53" y="-180.5" font-family="Helvetica,sans-Serif" font-size="10.00">+ Catch::Detail::Approx</text>
<text text-anchor="start" x="53" y="-169.5" font-family="Helvetica,sans-Serif" font-size="10.00"> approx</text>
<polyline fill="none" stroke="black" points="45,-162.5 201,-162.5 "/>
<text text-anchor="start" x="53" y="-150.5" font-family="Helvetica,sans-Serif" font-size="10.00">+ ApproxMatcher(std</text>
<text text-anchor="start" x="53" y="-139.5" font-family="Helvetica,sans-Serif" font-size="10.00">::vector&lt; T, AllocComp</text>
<text text-anchor="start" x="53" y="-128.5" font-family="Helvetica,sans-Serif" font-size="10.00"> &gt; const &amp;comparator)</text>
<text text-anchor="start" x="53" y="-117.5" font-family="Helvetica,sans-Serif" font-size="10.00">+ bool match(std::vector</text>
<text text-anchor="start" x="53" y="-106.5" font-family="Helvetica,sans-Serif" font-size="10.00">&lt; T, AllocMatch &gt; const</text>
<text text-anchor="start" x="53" y="-95.5" font-family="Helvetica,sans-Serif" font-size="10.00"> &amp;v) const override</text>
<text text-anchor="start" x="53" y="-84.5" font-family="Helvetica,sans-Serif" font-size="10.00">+ std::string describe</text>
<text text-anchor="start" x="53" y="-73.5" font-family="Helvetica,sans-Serif" font-size="10.00">() const override</text>
<text text-anchor="start" x="53" y="-62.5" font-family="Helvetica,sans-Serif" font-size="10.00">+ ApproxMatcher &amp; epsilon</text>
<text text-anchor="start" x="53" y="-51.5" font-family="Helvetica,sans-Serif" font-size="10.00">(T const &amp;newEpsilon)</text>
<text text-anchor="start" x="53" y="-40.5" font-family="Helvetica,sans-Serif" font-size="10.00">+ ApproxMatcher &amp; margin</text>
<text text-anchor="start" x="53" y="-29.5" font-family="Helvetica,sans-Serif" font-size="10.00">(T const &amp;newMargin)</text>
<text text-anchor="start" x="53" y="-18.5" font-family="Helvetica,sans-Serif" font-size="10.00">+ ApproxMatcher &amp; scale</text>
<text text-anchor="start" x="53" y="-7.5" font-family="Helvetica,sans-Serif" font-size="10.00">(T const &amp;newScale)</text>
</a>
</g>
</g>
<!-- Node2 -->
<g id="node2" class="node">
<title>Node2</title>
<g id="a_node2"><a xlink:href="a00929.xhtml" target="_top" xlink:title=" ">
<polygon fill="white" stroke="black" points="40,-293.5 40,-416.5 206,-416.5 206,-293.5 40,-293.5"/>
<text text-anchor="start" x="48" y="-404.5" font-family="Helvetica,sans-Serif" font-size="10.00">Catch::Matchers::Impl</text>
<text text-anchor="middle" x="123" y="-393.5" font-family="Helvetica,sans-Serif" font-size="10.00">::MatcherBase&lt; T &gt;</text>
<polyline fill="none" stroke="black" points="40,-386.5 206,-386.5 "/>
<text text-anchor="middle" x="123" y="-374.5" font-family="Helvetica,sans-Serif" font-size="10.00"> </text>
<polyline fill="none" stroke="black" points="40,-367.5 206,-367.5 "/>
<text text-anchor="start" x="48" y="-355.5" font-family="Helvetica,sans-Serif" font-size="10.00">+ MatchAllOf&lt; T &gt; operator&amp;&amp;</text>
<text text-anchor="start" x="48" y="-344.5" font-family="Helvetica,sans-Serif" font-size="10.00">(MatcherBase const &amp;other) const</text>
<text text-anchor="start" x="48" y="-333.5" font-family="Helvetica,sans-Serif" font-size="10.00">+ MatchAnyOf&lt; T &gt; operator|</text>
<text text-anchor="start" x="48" y="-322.5" font-family="Helvetica,sans-Serif" font-size="10.00">|(MatcherBase const &amp;other) const</text>
<text text-anchor="start" x="48" y="-311.5" font-family="Helvetica,sans-Serif" font-size="10.00">+ MatchNotOf&lt; T &gt; operator!</text>
<text text-anchor="start" x="48" y="-300.5" font-family="Helvetica,sans-Serif" font-size="10.00">() const</text>
</a>
</g>
</g>
<!-- Node2&#45;&gt;Node1 -->
<g id="edge1" class="edge">
<title>Node2&#45;&gt;Node1</title>
<path fill="none" stroke="midnightblue" d="M123,-283.2C123,-274.33 123,-265.06 123,-255.65"/>
<polygon fill="none" stroke="midnightblue" points="119.5,-283.41 123,-293.41 126.5,-283.41 119.5,-283.41"/>
</g>
<!-- Node3 -->
<g id="node3" class="node">
<title>Node3</title>
<g id="a_node3"><a xlink:href="a00921.xhtml" target="_top" xlink:title=" ">
<polygon fill="white" stroke="black" points="0,-454.5 0,-654.5 158,-654.5 158,-454.5 0,-454.5"/>
<text text-anchor="start" x="8" y="-642.5" font-family="Helvetica,sans-Serif" font-size="10.00">Catch::Matchers::Impl</text>
<text text-anchor="middle" x="79" y="-631.5" font-family="Helvetica,sans-Serif" font-size="10.00">::MatcherUntypedBase</text>
<polyline fill="none" stroke="black" points="0,-624.5 158,-624.5 "/>
<text text-anchor="start" x="8" y="-612.5" font-family="Helvetica,sans-Serif" font-size="10.00"># std::string m_cachedToString</text>
<polyline fill="none" stroke="black" points="0,-605.5 158,-605.5 "/>
<text text-anchor="start" x="8" y="-593.5" font-family="Helvetica,sans-Serif" font-size="10.00">+ MatcherUntypedBase</text>
<text text-anchor="start" x="8" y="-582.5" font-family="Helvetica,sans-Serif" font-size="10.00">()=default</text>
<text text-anchor="start" x="8" y="-571.5" font-family="Helvetica,sans-Serif" font-size="10.00">+ MatcherUntypedBase</text>
<text text-anchor="start" x="8" y="-560.5" font-family="Helvetica,sans-Serif" font-size="10.00">(MatcherUntypedBase</text>
<text text-anchor="start" x="8" y="-549.5" font-family="Helvetica,sans-Serif" font-size="10.00"> const &amp;)=default</text>
<text text-anchor="start" x="8" y="-538.5" font-family="Helvetica,sans-Serif" font-size="10.00">+ MatcherUntypedBase</text>
<text text-anchor="start" x="8" y="-527.5" font-family="Helvetica,sans-Serif" font-size="10.00"> &amp; operator=(MatcherUntyped</text>
<text text-anchor="start" x="8" y="-516.5" font-family="Helvetica,sans-Serif" font-size="10.00">Base const &amp;)=delete</text>
<text text-anchor="start" x="8" y="-505.5" font-family="Helvetica,sans-Serif" font-size="10.00">+ std::string toString</text>
<text text-anchor="start" x="8" y="-494.5" font-family="Helvetica,sans-Serif" font-size="10.00">() const</text>
<text text-anchor="start" x="8" y="-483.5" font-family="Helvetica,sans-Serif" font-size="10.00"># virtual ~MatcherUntypedBase()</text>
<text text-anchor="start" x="8" y="-472.5" font-family="Helvetica,sans-Serif" font-size="10.00"># virtual std::string</text>
<text text-anchor="start" x="8" y="-461.5" font-family="Helvetica,sans-Serif" font-size="10.00"> describe() const =0</text>
</a>
</g>
</g>
<!-- Node3&#45;&gt;Node2 -->
<g id="edge2" class="edge">
<title>Node3&#45;&gt;Node2</title>
<path fill="none" stroke="midnightblue" d="M103.28,-444.5C105.41,-434.98 107.5,-425.58 109.48,-416.67"/>
<polygon fill="none" stroke="midnightblue" points="99.82,-443.94 101.06,-454.46 106.66,-445.46 99.82,-443.94"/>
</g>
<!-- Node4 -->
<g id="node4" class="node">
<title>Node4</title>
<g id="a_node4"><a xlink:href="a00925.xhtml" target="_top" xlink:title=" ">
<polygon fill="white" stroke="black" points="175.5,-515 175.5,-594 290.5,-594 290.5,-515 175.5,-515"/>
<text text-anchor="start" x="183.5" y="-582" font-family="Helvetica,sans-Serif" font-size="10.00">Catch::Matchers::Impl</text>
<text text-anchor="middle" x="233" y="-571" font-family="Helvetica,sans-Serif" font-size="10.00">::MatcherMethod&lt; T &gt;</text>
<polyline fill="none" stroke="black" points="175.5,-564 290.5,-564 "/>
<text text-anchor="middle" x="233" y="-552" font-family="Helvetica,sans-Serif" font-size="10.00"> </text>
<polyline fill="none" stroke="black" points="175.5,-545 290.5,-545 "/>
<text text-anchor="start" x="183.5" y="-533" font-family="Helvetica,sans-Serif" font-size="10.00">+ virtual bool match</text>
<text text-anchor="start" x="183.5" y="-522" font-family="Helvetica,sans-Serif" font-size="10.00">(T const &amp;arg) const=0</text>
</a>
</g>
</g>
<!-- Node4&#45;&gt;Node2 -->
<g id="edge3" class="edge">
<title>Node4&#45;&gt;Node2</title>
<path fill="none" stroke="midnightblue" d="M206.62,-506.13C191.66,-479.27 172.79,-445.39 156.76,-416.61"/>
<polygon fill="none" stroke="midnightblue" points="203.61,-507.92 211.53,-514.95 209.72,-504.51 203.61,-507.92"/>
</g>
<!-- Node5 -->
<g id="node5" class="node">
<title>Node5</title>
<g id="a_node5"><a xlink:href="a00925.xhtml" target="_top" xlink:title=" ">
<polygon fill="white" stroke="black" points="163,-702.5 163,-792.5 303,-792.5 303,-702.5 163,-702.5"/>
<text text-anchor="start" x="171" y="-780.5" font-family="Helvetica,sans-Serif" font-size="10.00">Catch::Matchers::Impl</text>
<text text-anchor="middle" x="233" y="-769.5" font-family="Helvetica,sans-Serif" font-size="10.00">::MatcherMethod&lt; ObjectT &gt;</text>
<polyline fill="none" stroke="black" points="163,-762.5 303,-762.5 "/>
<text text-anchor="middle" x="233" y="-750.5" font-family="Helvetica,sans-Serif" font-size="10.00"> </text>
<polyline fill="none" stroke="black" points="163,-743.5 303,-743.5 "/>
<text text-anchor="start" x="171" y="-731.5" font-family="Helvetica,sans-Serif" font-size="10.00">+ virtual bool match</text>
<text text-anchor="start" x="171" y="-720.5" font-family="Helvetica,sans-Serif" font-size="10.00">(ObjectT const &amp;arg)</text>
<text text-anchor="start" x="171" y="-709.5" font-family="Helvetica,sans-Serif" font-size="10.00"> const =0</text>
</a>
</g>
</g>
<!-- Node5&#45;&gt;Node4 -->
<g id="edge4" class="edge">
<title>Node5&#45;&gt;Node4</title>
<path fill="none" stroke="orange" d="M233,-691.9C233,-660.64 233,-622.17 233,-594.07"/>
<polygon fill="orange" stroke="orange" points="229.5,-692.2 233,-702.2 236.5,-692.2 229.5,-692.2"/>
<text text-anchor="middle" x="245.5" y="-676" font-family="Helvetica,sans-Serif" font-size="10.00"> &lt; T &gt;</text>
</g>
</g>
</svg>
