<?xml version="1.0" encoding="UTF-8" standalone="no"?>
<!DOCTYPE svg PUBLIC "-//W3C//DTD SVG 1.1//EN"
 "http://www.w3.org/Graphics/SVG/1.1/DTD/svg11.dtd">
<!-- Generated by graphviz version 4.0.0 (20220602.1335)
 -->
<!-- Title: Catch::Matchers::StdString::EndsWithMatcher Pages: 1 -->
<svg width="311pt" height="819pt"
 viewBox="0.00 0.00 311.00 819.00" xmlns="http://www.w3.org/2000/svg" xmlns:xlink="http://www.w3.org/1999/xlink">
<g id="graph0" class="graph" transform="scale(1 1) rotate(0) translate(4 815)">
<title>Catch::Matchers::StdString::EndsWithMatcher</title>
<polygon fill="white" stroke="transparent" points="-4,4 -4,-815 307,-815 307,4 -4,4"/>
<!-- Node1 -->
<g id="node1" class="node">
<title>Node1</title>
<g id="a_node1"><a xlink:title=" ">
<polygon fill="#bfbfbf" stroke="black" points="44,-0.5 44,-112.5 202,-112.5 202,-0.5 44,-0.5"/>
<text text-anchor="start" x="52" y="-100.5" font-family="Helvetica,sans-Serif" font-size="10.00">Catch::Matchers::StdString</text>
<text text-anchor="middle" x="123" y="-89.5" font-family="Helvetica,sans-Serif" font-size="10.00">::EndsWithMatcher</text>
<polyline fill="none" stroke="black" points="44,-82.5 202,-82.5 "/>
<text text-anchor="middle" x="123" y="-70.5" font-family="Helvetica,sans-Serif" font-size="10.00"> </text>
<polyline fill="none" stroke="black" points="44,-63.5 202,-63.5 "/>
<text text-anchor="start" x="52" y="-51.5" font-family="Helvetica,sans-Serif" font-size="10.00">+ EndsWithMatcher(CasedString</text>
<text text-anchor="start" x="52" y="-40.5" font-family="Helvetica,sans-Serif" font-size="10.00"> const &amp;comparator)</text>
<text text-anchor="start" x="52" y="-29.5" font-family="Helvetica,sans-Serif" font-size="10.00">+ bool match(std::string</text>
<text text-anchor="start" x="52" y="-18.5" font-family="Helvetica,sans-Serif" font-size="10.00"> const &amp;source) const</text>
<text text-anchor="start" x="52" y="-7.5" font-family="Helvetica,sans-Serif" font-size="10.00"> override</text>
</a>
</g>
</g>
<!-- Node2 -->
<g id="node2" class="node">
<title>Node2</title>
<g id="a_node2"><a xlink:href="a00957.xhtml" target="_top" xlink:title=" ">
<polygon fill="white" stroke="black" points="43.5,-150.5 43.5,-273.5 202.5,-273.5 202.5,-150.5 43.5,-150.5"/>
<text text-anchor="start" x="51.5" y="-261.5" font-family="Helvetica,sans-Serif" font-size="10.00">Catch::Matchers::StdString</text>
<text text-anchor="middle" x="123" y="-250.5" font-family="Helvetica,sans-Serif" font-size="10.00">::StringMatcherBase</text>
<polyline fill="none" stroke="black" points="43.5,-243.5 202.5,-243.5 "/>
<text text-anchor="start" x="51.5" y="-231.5" font-family="Helvetica,sans-Serif" font-size="10.00">+ CasedString m_comparator</text>
<text text-anchor="start" x="51.5" y="-220.5" font-family="Helvetica,sans-Serif" font-size="10.00">+ std::string m_operation</text>
<polyline fill="none" stroke="black" points="43.5,-213.5 202.5,-213.5 "/>
<text text-anchor="start" x="51.5" y="-201.5" font-family="Helvetica,sans-Serif" font-size="10.00">+ StringMatcherBase</text>
<text text-anchor="start" x="51.5" y="-190.5" font-family="Helvetica,sans-Serif" font-size="10.00">(std::string const &amp;operation,</text>
<text text-anchor="start" x="51.5" y="-179.5" font-family="Helvetica,sans-Serif" font-size="10.00"> CasedString const &amp;comparator)</text>
<text text-anchor="start" x="51.5" y="-168.5" font-family="Helvetica,sans-Serif" font-size="10.00">+ std::string describe</text>
<text text-anchor="start" x="51.5" y="-157.5" font-family="Helvetica,sans-Serif" font-size="10.00">() const override</text>
</a>
</g>
</g>
<!-- Node2&#45;&gt;Node1 -->
<g id="edge1" class="edge">
<title>Node2&#45;&gt;Node1</title>
<path fill="none" stroke="midnightblue" d="M123,-140.06C123,-130.89 123,-121.61 123,-112.74"/>
<polygon fill="none" stroke="midnightblue" points="119.5,-140.33 123,-150.33 126.5,-140.33 119.5,-140.33"/>
</g>
<!-- Node3 -->
<g id="node3" class="node">
<title>Node3</title>
<g id="a_node3"><a xlink:href="a00929.xhtml" target="_top" xlink:title=" ">
<polygon fill="white" stroke="black" points="40,-311.5 40,-434.5 206,-434.5 206,-311.5 40,-311.5"/>
<text text-anchor="start" x="48" y="-422.5" font-family="Helvetica,sans-Serif" font-size="10.00">Catch::Matchers::Impl</text>
<text text-anchor="middle" x="123" y="-411.5" font-family="Helvetica,sans-Serif" font-size="10.00">::MatcherBase&lt; T &gt;</text>
<polyline fill="none" stroke="black" points="40,-404.5 206,-404.5 "/>
<text text-anchor="middle" x="123" y="-392.5" font-family="Helvetica,sans-Serif" font-size="10.00"> </text>
<polyline fill="none" stroke="black" points="40,-385.5 206,-385.5 "/>
<text text-anchor="start" x="48" y="-373.5" font-family="Helvetica,sans-Serif" font-size="10.00">+ MatchAllOf&lt; T &gt; operator&amp;&amp;</text>
<text text-anchor="start" x="48" y="-362.5" font-family="Helvetica,sans-Serif" font-size="10.00">(MatcherBase const &amp;other) const</text>
<text text-anchor="start" x="48" y="-351.5" font-family="Helvetica,sans-Serif" font-size="10.00">+ MatchAnyOf&lt; T &gt; operator|</text>
<text text-anchor="start" x="48" y="-340.5" font-family="Helvetica,sans-Serif" font-size="10.00">|(MatcherBase const &amp;other) const</text>
<text text-anchor="start" x="48" y="-329.5" font-family="Helvetica,sans-Serif" font-size="10.00">+ MatchNotOf&lt; T &gt; operator!</text>
<text text-anchor="start" x="48" y="-318.5" font-family="Helvetica,sans-Serif" font-size="10.00">() const</text>
</a>
</g>
</g>
<!-- Node3&#45;&gt;Node2 -->
<g id="edge2" class="edge">
<title>Node3&#45;&gt;Node2</title>
<path fill="none" stroke="midnightblue" d="M123,-301.17C123,-291.99 123,-282.65 123,-273.66"/>
<polygon fill="none" stroke="midnightblue" points="119.5,-301.44 123,-311.44 126.5,-301.44 119.5,-301.44"/>
</g>
<!-- Node4 -->
<g id="node4" class="node">
<title>Node4</title>
<g id="a_node4"><a xlink:href="a00921.xhtml" target="_top" xlink:title=" ">
<polygon fill="white" stroke="black" points="0,-472.5 0,-672.5 158,-672.5 158,-472.5 0,-472.5"/>
<text text-anchor="start" x="8" y="-660.5" font-family="Helvetica,sans-Serif" font-size="10.00">Catch::Matchers::Impl</text>
<text text-anchor="middle" x="79" y="-649.5" font-family="Helvetica,sans-Serif" font-size="10.00">::MatcherUntypedBase</text>
<polyline fill="none" stroke="black" points="0,-642.5 158,-642.5 "/>
<text text-anchor="start" x="8" y="-630.5" font-family="Helvetica,sans-Serif" font-size="10.00"># std::string m_cachedToString</text>
<polyline fill="none" stroke="black" points="0,-623.5 158,-623.5 "/>
<text text-anchor="start" x="8" y="-611.5" font-family="Helvetica,sans-Serif" font-size="10.00">+ MatcherUntypedBase</text>
<text text-anchor="start" x="8" y="-600.5" font-family="Helvetica,sans-Serif" font-size="10.00">()=default</text>
<text text-anchor="start" x="8" y="-589.5" font-family="Helvetica,sans-Serif" font-size="10.00">+ MatcherUntypedBase</text>
<text text-anchor="start" x="8" y="-578.5" font-family="Helvetica,sans-Serif" font-size="10.00">(MatcherUntypedBase</text>
<text text-anchor="start" x="8" y="-567.5" font-family="Helvetica,sans-Serif" font-size="10.00"> const &amp;)=default</text>
<text text-anchor="start" x="8" y="-556.5" font-family="Helvetica,sans-Serif" font-size="10.00">+ MatcherUntypedBase</text>
<text text-anchor="start" x="8" y="-545.5" font-family="Helvetica,sans-Serif" font-size="10.00"> &amp; operator=(MatcherUntyped</text>
<text text-anchor="start" x="8" y="-534.5" font-family="Helvetica,sans-Serif" font-size="10.00">Base const &amp;)=delete</text>
<text text-anchor="start" x="8" y="-523.5" font-family="Helvetica,sans-Serif" font-size="10.00">+ std::string toString</text>
<text text-anchor="start" x="8" y="-512.5" font-family="Helvetica,sans-Serif" font-size="10.00">() const</text>
<text text-anchor="start" x="8" y="-501.5" font-family="Helvetica,sans-Serif" font-size="10.00"># virtual ~MatcherUntypedBase()</text>
<text text-anchor="start" x="8" y="-490.5" font-family="Helvetica,sans-Serif" font-size="10.00"># virtual std::string</text>
<text text-anchor="start" x="8" y="-479.5" font-family="Helvetica,sans-Serif" font-size="10.00"> describe() const =0</text>
</a>
</g>
</g>
<!-- Node4&#45;&gt;Node3 -->
<g id="edge3" class="edge">
<title>Node4&#45;&gt;Node3</title>
<path fill="none" stroke="midnightblue" d="M103.28,-462.5C105.41,-452.98 107.5,-443.58 109.48,-434.67"/>
<polygon fill="none" stroke="midnightblue" points="99.82,-461.94 101.06,-472.46 106.66,-463.46 99.82,-461.94"/>
</g>
<!-- Node5 -->
<g id="node5" class="node">
<title>Node5</title>
<g id="a_node5"><a xlink:href="a00925.xhtml" target="_top" xlink:title=" ">
<polygon fill="white" stroke="black" points="175.5,-533 175.5,-612 290.5,-612 290.5,-533 175.5,-533"/>
<text text-anchor="start" x="183.5" y="-600" font-family="Helvetica,sans-Serif" font-size="10.00">Catch::Matchers::Impl</text>
<text text-anchor="middle" x="233" y="-589" font-family="Helvetica,sans-Serif" font-size="10.00">::MatcherMethod&lt; T &gt;</text>
<polyline fill="none" stroke="black" points="175.5,-582 290.5,-582 "/>
<text text-anchor="middle" x="233" y="-570" font-family="Helvetica,sans-Serif" font-size="10.00"> </text>
<polyline fill="none" stroke="black" points="175.5,-563 290.5,-563 "/>
<text text-anchor="start" x="183.5" y="-551" font-family="Helvetica,sans-Serif" font-size="10.00">+ virtual bool match</text>
<text text-anchor="start" x="183.5" y="-540" font-family="Helvetica,sans-Serif" font-size="10.00">(T const &amp;arg) const=0</text>
</a>
</g>
</g>
<!-- Node5&#45;&gt;Node3 -->
<g id="edge4" class="edge">
<title>Node5&#45;&gt;Node3</title>
<path fill="none" stroke="midnightblue" d="M206.62,-524.13C191.66,-497.27 172.79,-463.39 156.76,-434.61"/>
<polygon fill="none" stroke="midnightblue" points="203.61,-525.92 211.53,-532.95 209.72,-522.51 203.61,-525.92"/>
</g>
<!-- Node6 -->
<g id="node6" class="node">
<title>Node6</title>
<g id="a_node6"><a xlink:href="a00925.xhtml" target="_top" xlink:title=" ">
<polygon fill="white" stroke="black" points="163,-720.5 163,-810.5 303,-810.5 303,-720.5 163,-720.5"/>
<text text-anchor="start" x="171" y="-798.5" font-family="Helvetica,sans-Serif" font-size="10.00">Catch::Matchers::Impl</text>
<text text-anchor="middle" x="233" y="-787.5" font-family="Helvetica,sans-Serif" font-size="10.00">::MatcherMethod&lt; ObjectT &gt;</text>
<polyline fill="none" stroke="black" points="163,-780.5 303,-780.5 "/>
<text text-anchor="middle" x="233" y="-768.5" font-family="Helvetica,sans-Serif" font-size="10.00"> </text>
<polyline fill="none" stroke="black" points="163,-761.5 303,-761.5 "/>
<text text-anchor="start" x="171" y="-749.5" font-family="Helvetica,sans-Serif" font-size="10.00">+ virtual bool match</text>
<text text-anchor="start" x="171" y="-738.5" font-family="Helvetica,sans-Serif" font-size="10.00">(ObjectT const &amp;arg)</text>
<text text-anchor="start" x="171" y="-727.5" font-family="Helvetica,sans-Serif" font-size="10.00"> const =0</text>
</a>
</g>
</g>
<!-- Node6&#45;&gt;Node5 -->
<g id="edge5" class="edge">
<title>Node6&#45;&gt;Node5</title>
<path fill="none" stroke="orange" d="M233,-709.9C233,-678.64 233,-640.17 233,-612.07"/>
<polygon fill="orange" stroke="orange" points="229.5,-710.2 233,-720.2 236.5,-710.2 229.5,-710.2"/>
<text text-anchor="middle" x="245.5" y="-694" font-family="Helvetica,sans-Serif" font-size="10.00"> &lt; T &gt;</text>
</g>
</g>
</svg>
