<?xml version="1.0" encoding="UTF-8" standalone="no"?>
<!DOCTYPE svg PUBLIC "-//W3C//DTD SVG 1.1//EN"
 "http://www.w3.org/Graphics/SVG/1.1/DTD/svg11.dtd">
<!-- Generated by graphviz version 4.0.0 (20220602.1335)
 -->
<!-- Title: FeatureFromBlock.cpp Pages: 1 -->
<svg width="913pt" height="308pt"
 viewBox="0.00 0.00 913.49 308.00" xmlns="http://www.w3.org/2000/svg" xmlns:xlink="http://www.w3.org/1999/xlink">
<g id="graph0" class="graph" transform="scale(1 1) rotate(0) translate(4 304)">
<title>FeatureFromBlock.cpp</title>
<polygon fill="white" stroke="transparent" points="-4,4 -4,-304 909.49,-304 909.49,4 -4,4"/>
<!-- Node1 -->
<g id="node1" class="node">
<title>Node1</title>
<g id="a_node1"><a xlink:title=" ">
<polygon fill="#bfbfbf" stroke="black" points="359.5,-280.5 359.5,-299.5 474.5,-299.5 474.5,-280.5 359.5,-280.5"/>
<text text-anchor="middle" x="417" y="-287.5" font-family="Helvetica,sans-Serif" font-size="10.00">FeatureFromBlock.cpp</text>
</a>
</g>
</g>
<!-- Node2 -->
<g id="node2" class="node">
<title>Node2</title>
<g id="a_node2"><a xlink:href="a00155.xhtml" target="_top" xlink:title=" ">
<polygon fill="white" stroke="black" points="126.5,-168.5 126.5,-187.5 179.5,-187.5 179.5,-168.5 126.5,-168.5"/>
<text text-anchor="middle" x="153" y="-175.5" font-family="Helvetica,sans-Serif" font-size="10.00">Vector.h</text>
</a>
</g>
</g>
<!-- Node1&#45;&gt;Node2 -->
<g id="edge1" class="edge">
<title>Node1&#45;&gt;Node2</title>
<path fill="none" stroke="midnightblue" d="M396.28,-280.37C349.83,-261.01 237.15,-214.06 183.02,-191.51"/>
<polygon fill="midnightblue" stroke="midnightblue" points="184.2,-188.21 173.62,-187.59 181.5,-194.67 184.2,-188.21"/>
</g>
<!-- Node10 -->
<g id="node10" class="node">
<title>Node10</title>
<g id="a_node10"><a xlink:href="a00149.xhtml" target="_top" xlink:title=" ">
<polygon fill="white" stroke="black" points="73.5,-56.5 73.5,-75.5 112.5,-75.5 112.5,-56.5 73.5,-56.5"/>
<text text-anchor="middle" x="93" y="-63.5" font-family="Helvetica,sans-Serif" font-size="10.00">Util.h</text>
</a>
</g>
</g>
<!-- Node1&#45;&gt;Node10 -->
<g id="edge18" class="edge">
<title>Node1&#45;&gt;Node10</title>
<path fill="none" stroke="midnightblue" d="M359.25,-286.45C290.88,-280.14 178.66,-258.87 118,-188 93.09,-158.9 90.77,-111.52 91.64,-85.52"/>
<polygon fill="midnightblue" stroke="midnightblue" points="95.14,-85.69 92.18,-75.52 88.15,-85.31 95.14,-85.69"/>
</g>
<!-- Node11 -->
<g id="node11" class="node">
<title>Node11</title>
<g id="a_node11"><a xlink:href="a00143.xhtml" target="_top" xlink:title=" ">
<polygon fill="white" stroke="black" points="392,-224.5 392,-243.5 442,-243.5 442,-224.5 392,-224.5"/>
<text text-anchor="middle" x="417" y="-231.5" font-family="Helvetica,sans-Serif" font-size="10.00">Matrix.h</text>
</a>
</g>
</g>
<!-- Node1&#45;&gt;Node11 -->
<g id="edge14" class="edge">
<title>Node1&#45;&gt;Node11</title>
<path fill="none" stroke="midnightblue" d="M417,-280.08C417,-273.01 417,-262.86 417,-253.99"/>
<polygon fill="midnightblue" stroke="midnightblue" points="420.5,-253.75 417,-243.75 413.5,-253.75 420.5,-253.75"/>
</g>
<!-- Node13 -->
<g id="node13" class="node">
<title>Node13</title>
<g id="a_node13"><a xlink:href="a00170.xhtml" target="_top" xlink:title=" ">
<polygon fill="white" stroke="black" points="536,-168.5 536,-187.5 628,-187.5 628,-168.5 536,-168.5"/>
<text text-anchor="middle" x="582" y="-175.5" font-family="Helvetica,sans-Serif" font-size="10.00">ToolConversion.h</text>
</a>
</g>
</g>
<!-- Node1&#45;&gt;Node13 -->
<g id="edge19" class="edge">
<title>Node1&#45;&gt;Node13</title>
<path fill="none" stroke="midnightblue" d="M429.95,-280.37C458.26,-261.49 525.92,-216.38 560.64,-193.24"/>
<polygon fill="midnightblue" stroke="midnightblue" points="562.73,-196.05 569.11,-187.59 558.85,-190.23 562.73,-196.05"/>
</g>
<!-- Node17 -->
<g id="node17" class="node">
<title>Node17</title>
<g id="a_node17"><a xlink:href="a00200.xhtml" target="_top" xlink:title=" ">
<polygon fill="white" stroke="black" points="784,-224.5 784,-243.5 842,-243.5 842,-224.5 784,-224.5"/>
<text text-anchor="middle" x="813" y="-231.5" font-family="Helvetica,sans-Serif" font-size="10.00">ToolCcf.h</text>
</a>
</g>
</g>
<!-- Node1&#45;&gt;Node17 -->
<g id="edge26" class="edge">
<title>Node1&#45;&gt;Node17</title>
<path fill="none" stroke="midnightblue" d="M474.58,-281.15C556.2,-270.02 703.39,-249.95 773.63,-240.37"/>
<polygon fill="midnightblue" stroke="midnightblue" points="774.39,-243.8 783.82,-238.98 773.44,-236.86 774.39,-243.8"/>
</g>
<!-- Node18 -->
<g id="node18" class="node">
<title>Node18</title>
<g id="a_node18"><a xlink:href="a00134.xhtml" target="_top" xlink:title=" ">
<polygon fill="white" stroke="black" points="305,-168.5 305,-187.5 389,-187.5 389,-168.5 305,-168.5"/>
<text text-anchor="middle" x="347" y="-175.5" font-family="Helvetica,sans-Serif" font-size="10.00">ToolLowPass.h</text>
</a>
</g>
</g>
<!-- Node1&#45;&gt;Node18 -->
<g id="edge28" class="edge">
<title>Node1&#45;&gt;Node18</title>
<path fill="none" stroke="midnightblue" d="M409.84,-280.3C402.69,-271.43 391.54,-257.14 383,-244 372.92,-228.49 362.83,-209.95 355.91,-196.65"/>
<polygon fill="midnightblue" stroke="midnightblue" points="358.97,-194.94 351.29,-187.64 352.74,-198.13 358.97,-194.94"/>
</g>
<!-- Node20 -->
<g id="node20" class="node">
<title>Node20</title>
<g id="a_node20"><a xlink:href="a00215.xhtml" target="_top" xlink:title=" ">
<polygon fill="white" stroke="black" points="692,-168.5 692,-187.5 796,-187.5 796,-168.5 692,-168.5"/>
<text text-anchor="middle" x="744" y="-175.5" font-family="Helvetica,sans-Serif" font-size="10.00">FeatureFromBlock.h</text>
</a>
</g>
</g>
<!-- Node1&#45;&gt;Node20 -->
<g id="edge36" class="edge">
<title>Node1&#45;&gt;Node20</title>
<path fill="none" stroke="midnightblue" d="M442.39,-280.46C500.34,-260.97 642.45,-213.16 708.81,-190.84"/>
<polygon fill="midnightblue" stroke="midnightblue" points="710.04,-194.12 718.4,-187.61 707.81,-187.48 710.04,-194.12"/>
</g>
<!-- Node3 -->
<g id="node3" class="node">
<title>Node3</title>
<g id="a_node3"><a xlink:title=" ">
<polygon fill="white" stroke="#bfbfbf" points="318.5,-0.5 318.5,-19.5 367.5,-19.5 367.5,-0.5 318.5,-0.5"/>
<text text-anchor="middle" x="343" y="-7.5" font-family="Helvetica,sans-Serif" font-size="10.00">cassert</text>
</a>
</g>
</g>
<!-- Node2&#45;&gt;Node3 -->
<g id="edge2" class="edge">
<title>Node2&#45;&gt;Node3</title>
<path fill="none" stroke="midnightblue" d="M140.79,-168.4C125.58,-156.53 102.57,-134.09 111,-112 122.89,-80.83 132.42,-73.22 161,-56 207.13,-28.21 269.65,-17.55 308.11,-13.48"/>
<polygon fill="midnightblue" stroke="midnightblue" points="308.67,-16.94 318.28,-12.5 307.99,-9.97 308.67,-16.94"/>
</g>
<!-- Node4 -->
<g id="node4" class="node">
<title>Node4</title>
<g id="a_node4"><a xlink:title=" ">
<polygon fill="white" stroke="#bfbfbf" points="70,-0.5 70,-19.5 116,-19.5 116,-0.5 70,-0.5"/>
<text text-anchor="middle" x="93" y="-7.5" font-family="Helvetica,sans-Serif" font-size="10.00">cstring</text>
</a>
</g>
</g>
<!-- Node2&#45;&gt;Node4 -->
<g id="edge3" class="edge">
<title>Node2&#45;&gt;Node4</title>
<path fill="none" stroke="midnightblue" d="M128.05,-168.39C111.09,-161.25 89.54,-149.43 77,-132 57.03,-104.24 55.61,-88.88 65,-56 67.9,-45.84 73.83,-35.75 79.49,-27.7"/>
<polygon fill="midnightblue" stroke="midnightblue" points="82.38,-29.69 85.59,-19.59 76.78,-25.48 82.38,-29.69"/>
</g>
<!-- Node5 -->
<g id="node5" class="node">
<title>Node5</title>
<g id="a_node5"><a xlink:title=" ">
<polygon fill="white" stroke="#bfbfbf" points="0,-0.5 0,-19.5 40,-19.5 40,-0.5 0,-0.5"/>
<text text-anchor="middle" x="20" y="-7.5" font-family="Helvetica,sans-Serif" font-size="10.00">limits</text>
</a>
</g>
</g>
<!-- Node2&#45;&gt;Node5 -->
<g id="edge4" class="edge">
<title>Node2&#45;&gt;Node5</title>
<path fill="none" stroke="midnightblue" d="M126.13,-170.01C105.66,-163.39 78.14,-151.49 61,-132 34.97,-102.4 25.32,-55.59 21.86,-29.73"/>
<polygon fill="midnightblue" stroke="midnightblue" points="25.33,-29.27 20.69,-19.74 18.37,-30.08 25.33,-29.27"/>
</g>
<!-- Node6 -->
<g id="node6" class="node">
<title>Node6</title>
<g id="a_node6"><a xlink:title=" ">
<polygon fill="white" stroke="#bfbfbf" points="233,-56.5 233,-75.5 277,-75.5 277,-56.5 233,-56.5"/>
<text text-anchor="middle" x="255" y="-63.5" font-family="Helvetica,sans-Serif" font-size="10.00">cmath</text>
</a>
</g>
</g>
<!-- Node2&#45;&gt;Node6 -->
<g id="edge5" class="edge">
<title>Node2&#45;&gt;Node6</title>
<path fill="none" stroke="midnightblue" d="M161.31,-168.44C170.02,-159.43 184.07,-144.81 196,-132 211.17,-115.72 228.23,-96.86 240.09,-83.67"/>
<polygon fill="midnightblue" stroke="midnightblue" points="242.98,-85.68 247.06,-75.9 237.77,-81 242.98,-85.68"/>
</g>
<!-- Node7 -->
<g id="node7" class="node">
<title>Node7</title>
<g id="a_node7"><a xlink:href="a00140.xhtml" target="_top" xlink:title=" ">
<polygon fill="white" stroke="black" points="119.5,-112.5 119.5,-131.5 186.5,-131.5 186.5,-112.5 119.5,-112.5"/>
<text text-anchor="middle" x="153" y="-119.5" font-family="Helvetica,sans-Serif" font-size="10.00">Synthesis.h</text>
</a>
</g>
</g>
<!-- Node2&#45;&gt;Node7 -->
<g id="edge6" class="edge">
<title>Node2&#45;&gt;Node7</title>
<path fill="none" stroke="midnightblue" d="M153,-168.08C153,-161.01 153,-150.86 153,-141.99"/>
<polygon fill="midnightblue" stroke="midnightblue" points="156.5,-141.75 153,-131.75 149.5,-141.75 156.5,-141.75"/>
</g>
<!-- Node7&#45;&gt;Node6 -->
<g id="edge7" class="edge">
<title>Node7&#45;&gt;Node6</title>
<path fill="none" stroke="midnightblue" d="M169.39,-112.32C185.67,-103.7 210.87,-90.36 229.72,-80.39"/>
<polygon fill="midnightblue" stroke="midnightblue" points="231.45,-83.43 238.65,-75.65 228.18,-77.24 231.45,-83.43"/>
</g>
<!-- Node8 -->
<g id="node8" class="node">
<title>Node8</title>
<g id="a_node8"><a xlink:title=" ">
<polygon fill="white" stroke="#bfbfbf" points="169.5,-56.5 169.5,-75.5 214.5,-75.5 214.5,-56.5 169.5,-56.5"/>
<text text-anchor="middle" x="192" y="-63.5" font-family="Helvetica,sans-Serif" font-size="10.00">cstdlib</text>
</a>
</g>
</g>
<!-- Node7&#45;&gt;Node8 -->
<g id="edge8" class="edge">
<title>Node7&#45;&gt;Node8</title>
<path fill="none" stroke="midnightblue" d="M159.44,-112.08C164.95,-104.46 173.03,-93.26 179.76,-83.94"/>
<polygon fill="midnightblue" stroke="midnightblue" points="182.66,-85.91 185.68,-75.75 176.99,-81.81 182.66,-85.91"/>
</g>
<!-- Node9 -->
<g id="node9" class="node">
<title>Node9</title>
<g id="a_node9"><a xlink:href="a00224.xhtml" target="_top" xlink:title=" ">
<polygon fill="white" stroke="black" points="682.5,-56.5 682.5,-75.5 741.5,-75.5 741.5,-56.5 682.5,-56.5"/>
<text text-anchor="middle" x="712" y="-63.5" font-family="Helvetica,sans-Serif" font-size="10.00">ErrorDef.h</text>
</a>
</g>
</g>
<!-- Node7&#45;&gt;Node9 -->
<g id="edge9" class="edge">
<title>Node7&#45;&gt;Node9</title>
<path fill="none" stroke="midnightblue" d="M186.71,-117.74C284.38,-108.31 567.28,-80.98 672.21,-70.84"/>
<polygon fill="midnightblue" stroke="midnightblue" points="672.76,-74.31 682.38,-69.86 672.09,-67.34 672.76,-74.31"/>
</g>
<!-- Node7&#45;&gt;Node10 -->
<g id="edge10" class="edge">
<title>Node7&#45;&gt;Node10</title>
<path fill="none" stroke="midnightblue" d="M143.36,-112.32C134.49,-104.34 121.13,-92.31 110.39,-82.65"/>
<polygon fill="midnightblue" stroke="midnightblue" points="112.59,-79.92 102.82,-75.83 107.91,-85.13 112.59,-79.92"/>
</g>
<!-- Node10&#45;&gt;Node3 -->
<g id="edge11" class="edge">
<title>Node10&#45;&gt;Node3</title>
<path fill="none" stroke="midnightblue" d="M112.73,-59.59C117.4,-58.36 122.36,-57.1 127,-56 190.71,-40.94 265.63,-25.93 308.39,-17.62"/>
<polygon fill="midnightblue" stroke="midnightblue" points="309.13,-21.04 318.29,-15.7 307.8,-14.17 309.13,-21.04"/>
</g>
<!-- Node10&#45;&gt;Node4 -->
<g id="edge12" class="edge">
<title>Node10&#45;&gt;Node4</title>
<path fill="none" stroke="midnightblue" d="M93,-56.08C93,-49.01 93,-38.86 93,-29.99"/>
<polygon fill="midnightblue" stroke="midnightblue" points="96.5,-29.75 93,-19.75 89.5,-29.75 96.5,-29.75"/>
</g>
<!-- Node10&#45;&gt;Node5 -->
<g id="edge13" class="edge">
<title>Node10&#45;&gt;Node5</title>
<path fill="none" stroke="midnightblue" d="M81.27,-56.32C70.16,-48.11 53.26,-35.6 40.02,-25.81"/>
<polygon fill="midnightblue" stroke="midnightblue" points="42.06,-22.97 31.94,-19.83 37.9,-28.59 42.06,-22.97"/>
</g>
<!-- Node11&#45;&gt;Node2 -->
<g id="edge17" class="edge">
<title>Node11&#45;&gt;Node2</title>
<path fill="none" stroke="midnightblue" d="M391.69,-227.82C344.77,-218.22 244.13,-197.64 189.72,-186.51"/>
<polygon fill="midnightblue" stroke="midnightblue" points="190.3,-183.06 179.8,-184.48 188.9,-189.92 190.3,-183.06"/>
</g>
<!-- Node11&#45;&gt;Node3 -->
<g id="edge15" class="edge">
<title>Node11&#45;&gt;Node3</title>
<path fill="none" stroke="midnightblue" d="M421.39,-224.42C434.59,-197.27 470.97,-111.77 436,-56 423.23,-35.63 398.33,-24.25 377.5,-18.04"/>
<polygon fill="midnightblue" stroke="midnightblue" points="378.25,-14.61 367.68,-15.38 376.42,-21.37 378.25,-14.61"/>
</g>
<!-- Node12 -->
<g id="node12" class="node">
<title>Node12</title>
<g id="a_node12"><a xlink:title=" ">
<polygon fill="white" stroke="#bfbfbf" points="371,-56.5 371,-75.5 427,-75.5 427,-56.5 371,-56.5"/>
<text text-anchor="middle" x="399" y="-63.5" font-family="Helvetica,sans-Serif" font-size="10.00">algorithm</text>
</a>
</g>
</g>
<!-- Node11&#45;&gt;Node12 -->
<g id="edge16" class="edge">
<title>Node11&#45;&gt;Node12</title>
<path fill="none" stroke="midnightblue" d="M416.03,-224.08C413.2,-197.95 404.88,-121.21 401.01,-85.58"/>
<polygon fill="midnightblue" stroke="midnightblue" points="404.49,-85.13 399.93,-75.57 397.53,-85.89 404.49,-85.13"/>
</g>
<!-- Node13&#45;&gt;Node3 -->
<g id="edge22" class="edge">
<title>Node13&#45;&gt;Node3</title>
<path fill="none" stroke="midnightblue" d="M576.2,-168.36C561.08,-146.48 518.25,-88.36 469,-56 440.89,-37.53 404.28,-25.56 377.77,-18.64"/>
<polygon fill="midnightblue" stroke="midnightblue" points="378.34,-15.18 367.79,-16.15 376.64,-21.97 378.34,-15.18"/>
</g>
<!-- Node13&#45;&gt;Node6 -->
<g id="edge20" class="edge">
<title>Node13&#45;&gt;Node6</title>
<path fill="none" stroke="midnightblue" d="M535.81,-173.15C468.85,-166.93 348.68,-153.18 311,-132 291.19,-120.86 275.1,-99.91 265.33,-84.8"/>
<polygon fill="midnightblue" stroke="midnightblue" points="268.07,-82.57 259.85,-75.88 262.1,-86.23 268.07,-82.57"/>
</g>
<!-- Node13&#45;&gt;Node9 -->
<g id="edge25" class="edge">
<title>Node13&#45;&gt;Node9</title>
<path fill="none" stroke="midnightblue" d="M590.96,-168.32C604.2,-155.59 629.92,-131.3 653,-112 665.6,-101.46 680.28,-90.26 691.85,-81.67"/>
<polygon fill="midnightblue" stroke="midnightblue" points="694.03,-84.41 700,-75.66 689.88,-78.78 694.03,-84.41"/>
</g>
<!-- Node14 -->
<g id="node14" class="node">
<title>Node14</title>
<g id="a_node14"><a xlink:title=" ">
<polygon fill="white" stroke="#bfbfbf" points="559,-112.5 559,-131.5 605,-131.5 605,-112.5 559,-112.5"/>
<text text-anchor="middle" x="582" y="-119.5" font-family="Helvetica,sans-Serif" font-size="10.00">cstdint</text>
</a>
</g>
</g>
<!-- Node13&#45;&gt;Node14 -->
<g id="edge21" class="edge">
<title>Node13&#45;&gt;Node14</title>
<path fill="none" stroke="midnightblue" d="M582,-168.08C582,-161.01 582,-150.86 582,-141.99"/>
<polygon fill="midnightblue" stroke="midnightblue" points="585.5,-141.75 582,-131.75 578.5,-141.75 585.5,-141.75"/>
</g>
<!-- Node15 -->
<g id="node15" class="node">
<title>Node15</title>
<g id="a_node15"><a xlink:title=" ">
<polygon fill="white" stroke="#bfbfbf" points="661.5,-112.5 661.5,-131.5 696.5,-131.5 696.5,-112.5 661.5,-112.5"/>
<text text-anchor="middle" x="679" y="-119.5" font-family="Helvetica,sans-Serif" font-size="10.00">map</text>
</a>
</g>
</g>
<!-- Node13&#45;&gt;Node15 -->
<g id="edge23" class="edge">
<title>Node13&#45;&gt;Node15</title>
<path fill="none" stroke="midnightblue" d="M597.58,-168.32C613,-159.74 636.81,-146.49 654.71,-136.52"/>
<polygon fill="midnightblue" stroke="midnightblue" points="656.42,-139.58 663.45,-131.65 653.01,-133.46 656.42,-139.58"/>
</g>
<!-- Node16 -->
<g id="node16" class="node">
<title>Node16</title>
<g id="a_node16"><a xlink:title=" ">
<polygon fill="white" stroke="#bfbfbf" points="714.5,-112.5 714.5,-131.5 773.5,-131.5 773.5,-112.5 714.5,-112.5"/>
<text text-anchor="middle" x="744" y="-119.5" font-family="Helvetica,sans-Serif" font-size="10.00">functional</text>
</a>
</g>
</g>
<!-- Node13&#45;&gt;Node16 -->
<g id="edge24" class="edge">
<title>Node13&#45;&gt;Node16</title>
<path fill="none" stroke="midnightblue" d="M607.67,-168.44C634.92,-159.36 678.18,-144.94 708.65,-134.78"/>
<polygon fill="midnightblue" stroke="midnightblue" points="710.07,-138 718.45,-131.52 707.86,-131.36 710.07,-138"/>
</g>
<!-- Node17&#45;&gt;Node9 -->
<g id="edge27" class="edge">
<title>Node17&#45;&gt;Node9</title>
<path fill="none" stroke="midnightblue" d="M827.36,-224.24C858.86,-203.96 928.76,-152.41 897,-112 879.27,-89.44 800.47,-76.78 751.61,-70.97"/>
<polygon fill="midnightblue" stroke="midnightblue" points="752,-67.49 741.67,-69.83 751.21,-74.45 752,-67.49"/>
</g>
<!-- Node18&#45;&gt;Node6 -->
<g id="edge29" class="edge">
<title>Node18&#45;&gt;Node6</title>
<path fill="none" stroke="midnightblue" d="M326.52,-168.42C310.92,-160.92 289.98,-148.63 277,-132 266.47,-118.51 260.83,-99.7 257.91,-85.79"/>
<polygon fill="midnightblue" stroke="midnightblue" points="261.34,-85.08 256.11,-75.87 254.45,-86.33 261.34,-85.08"/>
</g>
<!-- Node18&#45;&gt;Node9 -->
<g id="edge35" class="edge">
<title>Node18&#45;&gt;Node9</title>
<path fill="none" stroke="midnightblue" d="M372.54,-168.47C410.92,-155.73 485.82,-131.18 550,-112 591.69,-99.54 639.76,-86.33 672.65,-77.47"/>
<polygon fill="midnightblue" stroke="midnightblue" points="673.59,-80.84 682.34,-74.87 671.77,-74.08 673.59,-80.84"/>
</g>
<!-- Node19 -->
<g id="node19" class="node">
<title>Node19</title>
<g id="a_node19"><a xlink:href="a00146.xhtml" target="_top" xlink:title=" ">
<polygon fill="white" stroke="black" points="319.5,-112.5 319.5,-131.5 388.5,-131.5 388.5,-112.5 319.5,-112.5"/>
<text text-anchor="middle" x="354" y="-119.5" font-family="Helvetica,sans-Serif" font-size="10.00">RingBuffer.h</text>
</a>
</g>
</g>
<!-- Node18&#45;&gt;Node19 -->
<g id="edge30" class="edge">
<title>Node18&#45;&gt;Node19</title>
<path fill="none" stroke="midnightblue" d="M348.16,-168.08C349.08,-160.93 350.42,-150.64 351.58,-141.69"/>
<polygon fill="midnightblue" stroke="midnightblue" points="355.05,-142.12 352.87,-131.75 348.11,-141.22 355.05,-142.12"/>
</g>
<!-- Node19&#45;&gt;Node3 -->
<g id="edge31" class="edge">
<title>Node19&#45;&gt;Node3</title>
<path fill="none" stroke="midnightblue" d="M353.14,-112.37C351.36,-94.62 347.27,-53.67 344.86,-29.6"/>
<polygon fill="midnightblue" stroke="midnightblue" points="348.34,-29.19 343.86,-19.59 341.37,-29.89 348.34,-29.19"/>
</g>
<!-- Node19&#45;&gt;Node4 -->
<g id="edge34" class="edge">
<title>Node19&#45;&gt;Node4</title>
<path fill="none" stroke="midnightblue" d="M347.52,-112.32C336.51,-98.22 312.72,-70.46 286,-56 234.47,-28.12 166.1,-17.42 126.09,-13.38"/>
<polygon fill="midnightblue" stroke="midnightblue" points="126.36,-9.89 116.08,-12.45 125.71,-16.86 126.36,-9.89"/>
</g>
<!-- Node19&#45;&gt;Node6 -->
<g id="edge33" class="edge">
<title>Node19&#45;&gt;Node6</title>
<path fill="none" stroke="midnightblue" d="M338.09,-112.32C322.36,-103.74 298.06,-90.49 279.79,-80.52"/>
<polygon fill="midnightblue" stroke="midnightblue" points="281.32,-77.37 270.87,-75.65 277.97,-83.52 281.32,-77.37"/>
</g>
<!-- Node19&#45;&gt;Node12 -->
<g id="edge32" class="edge">
<title>Node19&#45;&gt;Node12</title>
<path fill="none" stroke="midnightblue" d="M361.43,-112.08C367.85,-104.38 377.31,-93.03 385.12,-83.65"/>
<polygon fill="midnightblue" stroke="midnightblue" points="387.99,-85.67 391.71,-75.75 382.62,-81.19 387.99,-85.67"/>
</g>
<!-- Node20&#45;&gt;Node9 -->
<g id="edge42" class="edge">
<title>Node20&#45;&gt;Node9</title>
<path fill="none" stroke="midnightblue" d="M755.54,-168.5C770.76,-156.19 794.35,-132.64 783,-112 775.11,-97.66 760.51,-87.25 746.6,-80.08"/>
<polygon fill="midnightblue" stroke="midnightblue" points="747.7,-76.73 737.16,-75.62 744.71,-83.06 747.7,-76.73"/>
</g>
<!-- Node20&#45;&gt;Node15 -->
<g id="edge37" class="edge">
<title>Node20&#45;&gt;Node15</title>
<path fill="none" stroke="midnightblue" d="M733.56,-168.32C723.85,-160.26 709.18,-148.08 697.5,-138.37"/>
<polygon fill="midnightblue" stroke="midnightblue" points="699.56,-135.53 689.63,-131.83 695.09,-140.92 699.56,-135.53"/>
</g>
<!-- Node20&#45;&gt;Node16 -->
<g id="edge38" class="edge">
<title>Node20&#45;&gt;Node16</title>
<path fill="none" stroke="midnightblue" d="M744,-168.08C744,-161.01 744,-150.86 744,-141.99"/>
<polygon fill="midnightblue" stroke="midnightblue" points="747.5,-141.75 744,-131.75 740.5,-141.75 747.5,-141.75"/>
</g>
<!-- Node21 -->
<g id="node21" class="node">
<title>Node21</title>
<g id="a_node21"><a xlink:href="a00242.xhtml" target="_top" xlink:title=" ">
<polygon fill="white" stroke="black" points="830.5,-112.5 830.5,-131.5 887.5,-131.5 887.5,-112.5 830.5,-112.5"/>
<text text-anchor="middle" x="859" y="-119.5" font-family="Helvetica,sans-Serif" font-size="10.00">Feature.h</text>
</a>
</g>
</g>
<!-- Node20&#45;&gt;Node21 -->
<g id="edge39" class="edge">
<title>Node20&#45;&gt;Node21</title>
<path fill="none" stroke="midnightblue" d="M762.22,-168.44C780.9,-159.68 810.16,-145.94 831.62,-135.86"/>
<polygon fill="midnightblue" stroke="midnightblue" points="833.3,-138.93 840.86,-131.52 830.32,-132.6 833.3,-138.93"/>
</g>
<!-- Node21&#45;&gt;Node9 -->
<g id="edge41" class="edge">
<title>Node21&#45;&gt;Node9</title>
<path fill="none" stroke="midnightblue" d="M835.71,-112.44C811.19,-103.44 772.4,-89.19 744.8,-79.05"/>
<polygon fill="midnightblue" stroke="midnightblue" points="745.78,-75.68 735.18,-75.52 743.36,-82.25 745.78,-75.68"/>
</g>
<!-- Node22 -->
<g id="node22" class="node">
<title>Node22</title>
<g id="a_node22"><a xlink:title=" ">
<polygon fill="white" stroke="#bfbfbf" points="838.5,-56.5 838.5,-75.5 879.5,-75.5 879.5,-56.5 838.5,-56.5"/>
<text text-anchor="middle" x="859" y="-63.5" font-family="Helvetica,sans-Serif" font-size="10.00">string</text>
</a>
</g>
</g>
<!-- Node21&#45;&gt;Node22 -->
<g id="edge40" class="edge">
<title>Node21&#45;&gt;Node22</title>
<path fill="none" stroke="midnightblue" d="M859,-112.08C859,-105.01 859,-94.86 859,-85.99"/>
<polygon fill="midnightblue" stroke="midnightblue" points="862.5,-85.75 859,-75.75 855.5,-85.75 862.5,-85.75"/>
</g>
</g>
</svg>
