<?xml version="1.0" encoding="UTF-8" standalone="no"?>
<!DOCTYPE svg PUBLIC "-//W3C//DTD SVG 1.1//EN"
 "http://www.w3.org/Graphics/SVG/1.1/DTD/svg11.dtd">
<!-- Generated by graphviz version 12.2.1 (20241206.2353)
 -->
<!-- Title: ChordFromBlock.cpp Pages: 1 -->
<!--zoomable 304 -->

<svg id="main" version="1.1" xmlns="http://www.w3.org/2000/svg" xmlns:xlink="http://www.w3.org/1999/xlink" xml:space="preserve" onload="init(evt)">

<style type="text/css"><![CDATA[
.node, .edge {opacity: 0.7;}
.node.selected, .edge.selected {opacity: 1;}
.edge:hover path { stroke: red; }
.edge:hover polygon { stroke: red; fill: red; }
]]></style>

<defs>
  <circle id="rim" cx="0" cy="0" r="7"/>
  <circle id="rim2" cx="0" cy="0" r="3.5"/>
  <g id="zoomPlus">
    <use xlink:href="#rim" fill="#404040"><set attributeName="fill" to="#808080" begin="zoomplus.mouseover" end="zoomplus.mouseout"/></use>
    <path d="M-4,0h8M0,-4v8" fill="none" stroke="white" stroke-width="1.5" pointer-events="none"/>
  </g>
  <g id="zoomMin">
    <use xlink:href="#rim" fill="#404040"><set attributeName="fill" to="#808080" begin="zoomminus.mouseover" end="zoomminus.mouseout"/></use>
    <path d="M-4,0h8" fill="none" stroke="white" stroke-width="1.5" pointer-events="none"/>
  </g>
  <g id="arrowUp" transform="translate(30 24)">
    <use xlink:href="#rim"/>
    <path pointer-events="none" fill="none" stroke="white" stroke-width="1.5" d="M0,-3.0v7 M-2.5,-0.5L0,-3.0L2.5,-0.5"/>
  </g>
  <g id="arrowRight" transform="rotate(90) translate(36 -43)">
    <use xlink:href="#rim"/>
    <path pointer-events="none" fill="none" stroke="white" stroke-width="1.5" d="M0,-3.0v7 M-2.5,-0.5L0,-3.0L2.5,-0.5"/>
  </g>
  <g id="arrowDown" transform="rotate(180) translate(-30 -48)">
    <use xlink:href="#rim"/>
    <path pointer-events="none" fill="none" stroke="white" stroke-width="1.5" d="M0,-3.0v7 M-2.5,-0.5L0,-3.0L2.5,-0.5"/>
  </g>
  <g id="arrowLeft" transform="rotate(270) translate(-36 17)">
    <use xlink:href="#rim"/>
    <path pointer-events="none" fill="none" stroke="white" stroke-width="1.5" d="M0,-3.0v7 M-2.5,-0.5L0,-3.0L2.5,-0.5"/>
  </g>
  <g id="resetDef">
    <use xlink:href="#rim2" fill="#404040"><set attributeName="fill" to="#808080" begin="reset.mouseover" end="reset.mouseout"/></use>
  </g>
</defs>
<script type="application/ecmascript">
var viewWidth = 734;
var viewHeight = 304;
var sectionId = 'dynsection-0';
</script>
<script type="application/ecmascript" xlink:href="svg.min.js"/>
<svg id="graph" class="graph">
<g id="viewport">
<title>ChordFromBlock.cpp</title>
<!-- Node1 -->
<g id="Node000001" class="node">
<title>Node1</title>
<g id="a_Node000001"><a xlink:title=" ">
<polygon fill="#999999" stroke="#666666" points="499,-295.5 392.25,-295.5 392.25,-276.25 499,-276.25 499,-295.5"/>
<text text-anchor="middle" x="445.62" y="-282" font-family="Helvetica,sans-Serif" font-size="10.00">ChordFromBlock.cpp</text>
</a>
</g>
</g>
<!-- Node2 -->
<g id="Node000002" class="node">
<title>Node2</title>
<g id="a_Node000002"><a xlink:href="a00185.xhtml" target="_top" xlink:title=" ">
<polygon fill="white" stroke="#666666" points="199.62,-185 147.62,-185 147.62,-165.75 199.62,-165.75 199.62,-185"/>
<text text-anchor="middle" x="173.62" y="-171.5" font-family="Helvetica,sans-Serif" font-size="10.00">Vector.h</text>
</a>
</g>
</g>
<!-- Node1&#45;&gt;Node2 -->
<g id="edge1_Node000001_Node000002" class="edge">
<title>Node1&#45;&gt;Node2</title>
<g id="a_edge1_Node000001_Node000002"><a xlink:title=" ">
<path fill="none" stroke="#63b8ff" d="M404.37,-275.76C372.42,-268.07 327.39,-255.82 289.62,-240.25 256.08,-226.42 219.8,-205.37 196.92,-191.25"/>
<polygon fill="#63b8ff" stroke="#63b8ff" points="199.02,-188.44 188.69,-186.11 195.31,-194.37 199.02,-188.44"/>
</a>
</g>
</g>
<!-- Node11 -->
<g id="Node000011" class="node">
<title>Node11</title>
<g id="a_Node000011"><a xlink:href="a00188.xhtml" target="_top" xlink:title=" ">
<polygon fill="white" stroke="#666666" points="348.5,-240.25 298.75,-240.25 298.75,-221 348.5,-221 348.5,-240.25"/>
<text text-anchor="middle" x="323.62" y="-226.75" font-family="Helvetica,sans-Serif" font-size="10.00">Matrix.h</text>
</a>
</g>
</g>
<!-- Node1&#45;&gt;Node11 -->
<g id="edge14_Node000001_Node000011" class="edge">
<title>Node1&#45;&gt;Node11</title>
<g id="a_edge14_Node000001_Node000011"><a xlink:title=" ">
<path fill="none" stroke="#63b8ff" d="M424.93,-275.84C405.74,-267.47 376.91,-254.88 354.91,-245.28"/>
<polygon fill="#63b8ff" stroke="#63b8ff" points="356.37,-242.1 345.81,-241.31 353.57,-248.52 356.37,-242.1"/>
</a>
</g>
</g>
<!-- Node13 -->
<g id="Node000013" class="node">
<title>Node13</title>
<g id="a_Node000013"><a xlink:href="a00227.xhtml" target="_top" xlink:title=" ">
<polygon fill="white" stroke="#666666" points="615.5,-185 511.75,-185 511.75,-165.75 615.5,-165.75 615.5,-185"/>
<text text-anchor="middle" x="563.62" y="-171.5" font-family="Helvetica,sans-Serif" font-size="10.00">FeatureFromBlock.h</text>
</a>
</g>
</g>
<!-- Node1&#45;&gt;Node13 -->
<g id="edge18_Node000001_Node000013" class="edge">
<title>Node1&#45;&gt;Node13</title>
<g id="a_edge18_Node000001_Node000013"><a xlink:title=" ">
<path fill="none" stroke="#63b8ff" d="M455.28,-276C474.99,-257.88 520.11,-216.38 545.47,-193.07"/>
<polygon fill="#63b8ff" stroke="#63b8ff" points="547.73,-195.75 552.72,-186.4 542.99,-190.59 547.73,-195.75"/>
</a>
</g>
</g>
<!-- Node18 -->
<g id="Node000018" class="node">
<title>Node18</title>
<g id="a_Node000018"><a xlink:href="a00257.xhtml" target="_top" xlink:title=" ">
<polygon fill="white" stroke="#666666" points="726.12,-129.75 677.12,-129.75 677.12,-110.5 726.12,-110.5 726.12,-129.75"/>
<text text-anchor="middle" x="701.62" y="-116.25" font-family="Helvetica,sans-Serif" font-size="10.00">Chord.h</text>
</a>
</g>
</g>
<!-- Node1&#45;&gt;Node18 -->
<g id="edge25_Node000001_Node000018" class="edge">
<title>Node1&#45;&gt;Node18</title>
<g id="a_edge25_Node000001_Node000018"><a xlink:title=" ">
<path fill="none" stroke="#63b8ff" d="M464.32,-275.87C497.64,-259.53 568.99,-223.12 624.62,-185 645.98,-170.37 668.57,-151.12 683.72,-137.59"/>
<polygon fill="#63b8ff" stroke="#63b8ff" points="685.92,-140.32 690.99,-131.01 681.23,-135.13 685.92,-140.32"/>
</a>
</g>
</g>
<!-- Node19 -->
<g id="Node000019" class="node">
<title>Node19</title>
<g id="a_Node000019"><a xlink:href="a00158.xhtml" target="_top" xlink:title=" ">
<polygon fill="white" stroke="#666666" points="493.75,-185 397.5,-185 397.5,-165.75 493.75,-165.75 493.75,-185"/>
<text text-anchor="middle" x="445.62" y="-171.5" font-family="Helvetica,sans-Serif" font-size="10.00">ChordFromBlock.h</text>
</a>
</g>
</g>
<!-- Node1&#45;&gt;Node19 -->
<g id="edge28_Node000001_Node000019" class="edge">
<title>Node1&#45;&gt;Node19</title>
<g id="a_edge28_Node000001_Node000019"><a xlink:title=" ">
<path fill="none" stroke="#63b8ff" d="M445.62,-276C445.62,-258.75 445.62,-220.33 445.62,-196.56"/>
<polygon fill="#63b8ff" stroke="#63b8ff" points="449.13,-196.89 445.63,-186.89 442.13,-196.89 449.13,-196.89"/>
</a>
</g>
</g>
<!-- Node3 -->
<g id="Node000003" class="node">
<title>Node3</title>
<g id="a_Node000003"><a xlink:title=" ">
<polygon fill="#e0e0e0" stroke="#999999" points="281.75,-19.25 233.5,-19.25 233.5,0 281.75,0 281.75,-19.25"/>
<text text-anchor="middle" x="257.62" y="-5.75" font-family="Helvetica,sans-Serif" font-size="10.00">cassert</text>
</a>
</g>
</g>
<!-- Node2&#45;&gt;Node3 -->
<g id="edge2_Node000002_Node000003" class="edge">
<title>Node2&#45;&gt;Node3</title>
<g id="a_edge2_Node000002_Node000003"><a xlink:title=" ">
<path fill="none" stroke="#63b8ff" d="M184.07,-165.32C193.33,-156.86 206.72,-143.5 215.62,-129.75 236.03,-98.25 247.93,-55.62 253.57,-30.82"/>
<polygon fill="#63b8ff" stroke="#63b8ff" points="256.97,-31.63 255.64,-21.12 250.13,-30.16 256.97,-31.63"/>
</a>
</g>
</g>
<!-- Node4 -->
<g id="Node000004" class="node">
<title>Node4</title>
<g id="a_Node000004"><a xlink:title=" ">
<polygon fill="#e0e0e0" stroke="#999999" points="45.25,-19.25 0,-19.25 0,0 45.25,0 45.25,-19.25"/>
<text text-anchor="middle" x="22.62" y="-5.75" font-family="Helvetica,sans-Serif" font-size="10.00">cstring</text>
</a>
</g>
</g>
<!-- Node2&#45;&gt;Node4 -->
<g id="edge3_Node000002_Node000004" class="edge">
<title>Node2&#45;&gt;Node4</title>
<g id="a_edge3_Node000002_Node000004"><a xlink:title=" ">
<path fill="none" stroke="#63b8ff" d="M147.5,-167.63C126.37,-161.02 97.03,-149.07 77.62,-129.75 49.46,-101.72 34.14,-56.57 27.24,-30.65"/>
<polygon fill="#63b8ff" stroke="#63b8ff" points="30.67,-29.97 24.87,-21.1 23.88,-31.65 30.67,-29.97"/>
</a>
</g>
</g>
<!-- Node5 -->
<g id="Node000005" class="node">
<title>Node5</title>
<g id="a_Node000005"><a xlink:title=" ">
<polygon fill="#e0e0e0" stroke="#999999" points="145.25,-19.25 106,-19.25 106,0 145.25,0 145.25,-19.25"/>
<text text-anchor="middle" x="125.62" y="-5.75" font-family="Helvetica,sans-Serif" font-size="10.00">limits</text>
</a>
</g>
</g>
<!-- Node2&#45;&gt;Node5 -->
<g id="edge4_Node000002_Node000005" class="edge">
<title>Node2&#45;&gt;Node5</title>
<g id="a_edge4_Node000002_Node000005"><a xlink:title=" ">
<path fill="none" stroke="#63b8ff" d="M154.83,-165.35C127.04,-150.78 76.28,-119.12 57.62,-74.5 48.24,-52.05 73.28,-33.96 95.58,-22.83"/>
<polygon fill="#63b8ff" stroke="#63b8ff" points="96.85,-26.1 104.44,-18.72 93.9,-19.75 96.85,-26.1"/>
</a>
</g>
</g>
<!-- Node6 -->
<g id="Node000006" class="node">
<title>Node6</title>
<g id="a_Node000006"><a xlink:title=" ">
<polygon fill="#e0e0e0" stroke="#999999" points="110.12,-74.5 67.12,-74.5 67.12,-55.25 110.12,-55.25 110.12,-74.5"/>
<text text-anchor="middle" x="88.62" y="-61" font-family="Helvetica,sans-Serif" font-size="10.00">cmath</text>
</a>
</g>
</g>
<!-- Node2&#45;&gt;Node6 -->
<g id="edge5_Node000002_Node000006" class="edge">
<title>Node2&#45;&gt;Node6</title>
<g id="a_edge5_Node000002_Node000006"><a xlink:title=" ">
<path fill="none" stroke="#63b8ff" d="M164.48,-165.54C155.65,-156.81 142.11,-142.89 131.62,-129.75 120.03,-115.22 108.34,-97.63 100.08,-84.59"/>
<polygon fill="#63b8ff" stroke="#63b8ff" points="103.09,-82.8 94.83,-76.16 97.15,-86.5 103.09,-82.8"/>
</a>
</g>
</g>
<!-- Node7 -->
<g id="Node000007" class="node">
<title>Node7</title>
<g id="a_Node000007"><a xlink:href="a00194.xhtml" target="_top" xlink:title=" ">
<polygon fill="white" stroke="#666666" points="206.75,-129.75 140.5,-129.75 140.5,-110.5 206.75,-110.5 206.75,-129.75"/>
<text text-anchor="middle" x="173.62" y="-116.25" font-family="Helvetica,sans-Serif" font-size="10.00">Synthesis.h</text>
</a>
</g>
</g>
<!-- Node2&#45;&gt;Node7 -->
<g id="edge6_Node000002_Node000007" class="edge">
<title>Node2&#45;&gt;Node7</title>
<g id="a_edge6_Node000002_Node000007"><a xlink:title=" ">
<path fill="none" stroke="#63b8ff" d="M173.62,-165.58C173.62,-159.07 173.62,-149.92 173.62,-141.62"/>
<polygon fill="#63b8ff" stroke="#63b8ff" points="177.13,-141.62 173.63,-131.62 170.13,-141.62 177.13,-141.62"/>
</a>
</g>
</g>
<!-- Node7&#45;&gt;Node6 -->
<g id="edge7_Node000007_Node000006" class="edge">
<title>Node7&#45;&gt;Node6</title>
<g id="a_edge7_Node000007_Node000006"><a xlink:title=" ">
<path fill="none" stroke="#63b8ff" d="M159.21,-110.09C146.51,-102.14 127.75,-90.39 112.77,-81"/>
<polygon fill="#63b8ff" stroke="#63b8ff" points="114.73,-78.1 104.4,-75.76 111.01,-84.03 114.73,-78.1"/>
</a>
</g>
</g>
<!-- Node8 -->
<g id="Node000008" class="node">
<title>Node8</title>
<g id="a_Node000008"><a xlink:title=" ">
<polygon fill="#e0e0e0" stroke="#999999" points="229.88,-74.5 185.38,-74.5 185.38,-55.25 229.88,-55.25 229.88,-74.5"/>
<text text-anchor="middle" x="207.62" y="-61" font-family="Helvetica,sans-Serif" font-size="10.00">cstdlib</text>
</a>
</g>
</g>
<!-- Node7&#45;&gt;Node8 -->
<g id="edge8_Node000007_Node000008" class="edge">
<title>Node7&#45;&gt;Node8</title>
<g id="a_edge8_Node000007_Node000008"><a xlink:title=" ">
<path fill="none" stroke="#63b8ff" d="M179.24,-110.33C183.74,-103.28 190.21,-93.15 195.84,-84.33"/>
<polygon fill="#63b8ff" stroke="#63b8ff" points="198.64,-86.45 201.07,-76.13 192.74,-82.68 198.64,-86.45"/>
</a>
</g>
</g>
<!-- Node9 -->
<g id="Node000009" class="node">
<title>Node9</title>
<g id="a_Node000009"><a xlink:href="a00167.xhtml" target="_top" xlink:title=" ">
<polygon fill="white" stroke="#666666" points="528,-74.5 469.25,-74.5 469.25,-55.25 528,-55.25 528,-74.5"/>
<text text-anchor="middle" x="498.62" y="-61" font-family="Helvetica,sans-Serif" font-size="10.00">ErrorDef.h</text>
</a>
</g>
</g>
<!-- Node7&#45;&gt;Node9 -->
<g id="edge9_Node000007_Node000009" class="edge">
<title>Node7&#45;&gt;Node9</title>
<g id="a_edge9_Node000007_Node000009"><a xlink:title=" ">
<path fill="none" stroke="#63b8ff" d="M207.18,-113.63C267.31,-103.78 393.17,-83.15 458.04,-72.52"/>
<polygon fill="#63b8ff" stroke="#63b8ff" points="458.25,-76.04 467.55,-70.97 457.11,-69.13 458.25,-76.04"/>
</a>
</g>
</g>
<!-- Node10 -->
<g id="Node000010" class="node">
<title>Node10</title>
<g id="a_Node000010"><a xlink:href="a00191.xhtml" target="_top" xlink:title=" ">
<polygon fill="white" stroke="#666666" points="166.88,-74.5 128.38,-74.5 128.38,-55.25 166.88,-55.25 166.88,-74.5"/>
<text text-anchor="middle" x="147.62" y="-61" font-family="Helvetica,sans-Serif" font-size="10.00">Util.h</text>
</a>
</g>
</g>
<!-- Node7&#45;&gt;Node10 -->
<g id="edge10_Node000007_Node000010" class="edge">
<title>Node7&#45;&gt;Node10</title>
<g id="a_edge10_Node000007_Node000010"><a xlink:title=" ">
<path fill="none" stroke="#63b8ff" d="M169.33,-110.33C166,-103.51 161.26,-93.81 157.06,-85.2"/>
<polygon fill="#63b8ff" stroke="#63b8ff" points="160.21,-83.67 152.68,-76.22 153.92,-86.74 160.21,-83.67"/>
</a>
</g>
</g>
<!-- Node10&#45;&gt;Node3 -->
<g id="edge11_Node000010_Node000003" class="edge">
<title>Node10&#45;&gt;Node3</title>
<g id="a_edge11_Node000010_Node000003"><a xlink:title=" ">
<path fill="none" stroke="#63b8ff" d="M166.29,-54.84C183.35,-46.58 208.87,-34.23 228.6,-24.68"/>
<polygon fill="#63b8ff" stroke="#63b8ff" points="230.04,-27.87 237.51,-20.36 226.99,-21.57 230.04,-27.87"/>
</a>
</g>
</g>
<!-- Node10&#45;&gt;Node4 -->
<g id="edge12_Node000010_Node000004" class="edge">
<title>Node10&#45;&gt;Node4</title>
<g id="a_edge12_Node000010_Node000004"><a xlink:title=" ">
<path fill="none" stroke="#63b8ff" d="M128.09,-55.55C108.3,-47.12 77.35,-33.94 54.09,-24.03"/>
<polygon fill="#63b8ff" stroke="#63b8ff" points="55.65,-20.89 45.08,-20.19 52.91,-27.33 55.65,-20.89"/>
</a>
</g>
</g>
<!-- Node10&#45;&gt;Node5 -->
<g id="edge13_Node000010_Node000005" class="edge">
<title>Node10&#45;&gt;Node5</title>
<g id="a_edge13_Node000010_Node000005"><a xlink:title=" ">
<path fill="none" stroke="#63b8ff" d="M143.99,-55.08C141.21,-48.34 137.25,-38.77 133.73,-30.24"/>
<polygon fill="#63b8ff" stroke="#63b8ff" points="136.97,-28.91 129.91,-21.01 130.5,-31.59 136.97,-28.91"/>
</a>
</g>
</g>
<!-- Node11&#45;&gt;Node2 -->
<g id="edge17_Node000011_Node000002" class="edge">
<title>Node11&#45;&gt;Node2</title>
<g id="a_edge17_Node000011_Node000002"><a xlink:title=" ">
<path fill="none" stroke="#63b8ff" d="M298.52,-220.71C274.33,-212.12 237.47,-199.04 210.05,-189.31"/>
<polygon fill="#63b8ff" stroke="#63b8ff" points="211.34,-186.05 200.74,-186 209,-192.65 211.34,-186.05"/>
</a>
</g>
</g>
<!-- Node11&#45;&gt;Node3 -->
<g id="edge15_Node000011_Node000003" class="edge">
<title>Node11&#45;&gt;Node3</title>
<g id="a_edge15_Node000011_Node000003"><a xlink:title=" ">
<path fill="none" stroke="#63b8ff" d="M320.96,-220.77C311.19,-188.37 277.27,-75.8 263.5,-30.12"/>
<polygon fill="#63b8ff" stroke="#63b8ff" points="266.93,-29.37 260.69,-20.8 260.23,-31.39 266.93,-29.37"/>
</a>
</g>
</g>
<!-- Node12 -->
<g id="Node000012" class="node">
<title>Node12</title>
<g id="a_Node000012"><a xlink:title=" ">
<polygon fill="#e0e0e0" stroke="#999999" points="379.5,-185 323.75,-185 323.75,-165.75 379.5,-165.75 379.5,-185"/>
<text text-anchor="middle" x="351.62" y="-171.5" font-family="Helvetica,sans-Serif" font-size="10.00">algorithm</text>
</a>
</g>
</g>
<!-- Node11&#45;&gt;Node12 -->
<g id="edge16_Node000011_Node000012" class="edge">
<title>Node11&#45;&gt;Node12</title>
<g id="a_edge16_Node000011_Node000012"><a xlink:title=" ">
<path fill="none" stroke="#63b8ff" d="M328.25,-220.83C331.87,-213.94 337.05,-204.09 341.62,-195.41"/>
<polygon fill="#63b8ff" stroke="#63b8ff" points="344.64,-197.18 346.2,-186.7 338.44,-193.92 344.64,-197.18"/>
</a>
</g>
</g>
<!-- Node13&#45;&gt;Node9 -->
<g id="edge24_Node000013_Node000009" class="edge">
<title>Node13&#45;&gt;Node9</title>
<g id="a_edge24_Node000013_Node000009"><a xlink:title=" ">
<path fill="none" stroke="#63b8ff" d="M551.36,-165.43C540.96,-157.23 526.39,-144.21 517.62,-129.75 509.45,-116.25 504.59,-99 501.84,-85.83"/>
<polygon fill="#63b8ff" stroke="#63b8ff" points="505.32,-85.41 500.07,-76.2 498.43,-86.67 505.32,-85.41"/>
</a>
</g>
</g>
<!-- Node14 -->
<g id="Node000014" class="node">
<title>Node14</title>
<g id="a_Node000014"><a xlink:title=" ">
<polygon fill="#e0e0e0" stroke="#999999" points="471,-129.75 436.25,-129.75 436.25,-110.5 471,-110.5 471,-129.75"/>
<text text-anchor="middle" x="453.62" y="-116.25" font-family="Helvetica,sans-Serif" font-size="10.00">map</text>
</a>
</g>
</g>
<!-- Node13&#45;&gt;Node14 -->
<g id="edge19_Node000013_Node000014" class="edge">
<title>Node13&#45;&gt;Node14</title>
<g id="a_edge19_Node000013_Node000014"><a xlink:title=" ">
<path fill="none" stroke="#63b8ff" d="M544.96,-165.34C527.59,-156.93 501.45,-144.28 481.58,-134.66"/>
<polygon fill="#63b8ff" stroke="#63b8ff" points="483.17,-131.54 472.65,-130.33 480.12,-137.84 483.17,-131.54"/>
</a>
</g>
</g>
<!-- Node15 -->
<g id="Node000015" class="node">
<title>Node15</title>
<g id="a_Node000015"><a xlink:title=" ">
<polygon fill="#e0e0e0" stroke="#999999" points="584.62,-129.75 526.62,-129.75 526.62,-110.5 584.62,-110.5 584.62,-129.75"/>
<text text-anchor="middle" x="555.62" y="-116.25" font-family="Helvetica,sans-Serif" font-size="10.00">functional</text>
</a>
</g>
</g>
<!-- Node13&#45;&gt;Node15 -->
<g id="edge20_Node000013_Node000015" class="edge">
<title>Node13&#45;&gt;Node15</title>
<g id="a_edge20_Node000013_Node000015"><a xlink:title=" ">
<path fill="none" stroke="#63b8ff" d="M562.3,-165.58C561.31,-158.99 559.92,-149.71 558.66,-141.32"/>
<polygon fill="#63b8ff" stroke="#63b8ff" points="562.15,-140.97 557.2,-131.61 555.22,-142.01 562.15,-140.97"/>
</a>
</g>
</g>
<!-- Node16 -->
<g id="Node000016" class="node">
<title>Node16</title>
<g id="a_Node000016"><a xlink:href="a00251.xhtml" target="_top" xlink:title=" ">
<polygon fill="white" stroke="#666666" points="658.88,-129.75 602.38,-129.75 602.38,-110.5 658.88,-110.5 658.88,-129.75"/>
<text text-anchor="middle" x="630.62" y="-116.25" font-family="Helvetica,sans-Serif" font-size="10.00">Feature.h</text>
</a>
</g>
</g>
<!-- Node13&#45;&gt;Node16 -->
<g id="edge21_Node000013_Node000016" class="edge">
<title>Node13&#45;&gt;Node16</title>
<g id="a_edge21_Node000013_Node000016"><a xlink:title=" ">
<path fill="none" stroke="#63b8ff" d="M574.99,-165.34C584.67,-157.65 598.82,-146.4 610.43,-137.18"/>
<polygon fill="#63b8ff" stroke="#63b8ff" points="612.59,-139.93 618.24,-130.97 608.24,-134.45 612.59,-139.93"/>
</a>
</g>
</g>
<!-- Node16&#45;&gt;Node9 -->
<g id="edge23_Node000016_Node000009" class="edge">
<title>Node16&#45;&gt;Node9</title>
<g id="a_edge23_Node000016_Node000009"><a xlink:title=" ">
<path fill="none" stroke="#63b8ff" d="M608.23,-110.09C587.18,-101.6 555.42,-88.79 531.5,-79.14"/>
<polygon fill="#63b8ff" stroke="#63b8ff" points="533.11,-76.01 522.53,-75.52 530.49,-82.51 533.11,-76.01"/>
</a>
</g>
</g>
<!-- Node17 -->
<g id="Node000017" class="node">
<title>Node17</title>
<g id="a_Node000017"><a xlink:title=" ">
<polygon fill="#e0e0e0" stroke="#999999" points="685.62,-74.5 645.62,-74.5 645.62,-55.25 685.62,-55.25 685.62,-74.5"/>
<text text-anchor="middle" x="665.62" y="-61" font-family="Helvetica,sans-Serif" font-size="10.00">string</text>
</a>
</g>
</g>
<!-- Node16&#45;&gt;Node17 -->
<g id="edge22_Node000016_Node000017" class="edge">
<title>Node16&#45;&gt;Node17</title>
<g id="a_edge22_Node000016_Node000017"><a xlink:title=" ">
<path fill="none" stroke="#63b8ff" d="M636.4,-110.33C641.04,-103.28 647.7,-93.15 653.49,-84.33"/>
<polygon fill="#63b8ff" stroke="#63b8ff" points="656.32,-86.4 658.89,-76.12 650.47,-82.56 656.32,-86.4"/>
</a>
</g>
</g>
<!-- Node18&#45;&gt;Node9 -->
<g id="edge27_Node000018_Node000009" class="edge">
<title>Node18&#45;&gt;Node9</title>
<g id="a_edge27_Node000018_Node000009"><a xlink:title=" ">
<path fill="none" stroke="#63b8ff" d="M676.73,-112.6C642.48,-103.61 580.38,-87.32 539.32,-76.55"/>
<polygon fill="#63b8ff" stroke="#63b8ff" points="540.36,-73.2 529.8,-74.05 538.58,-79.97 540.36,-73.2"/>
</a>
</g>
</g>
<!-- Node18&#45;&gt;Node17 -->
<g id="edge26_Node000018_Node000017" class="edge">
<title>Node18&#45;&gt;Node17</title>
<g id="a_edge26_Node000018_Node000017"><a xlink:title=" ">
<path fill="none" stroke="#63b8ff" d="M695.68,-110.33C690.91,-103.28 684.06,-93.15 678.1,-84.33"/>
<polygon fill="#63b8ff" stroke="#63b8ff" points="681.05,-82.44 672.55,-76.11 675.25,-86.36 681.05,-82.44"/>
</a>
</g>
</g>
<!-- Node19&#45;&gt;Node9 -->
<g id="edge30_Node000019_Node000009" class="edge">
<title>Node19&#45;&gt;Node9</title>
<g id="a_edge30_Node000019_Node000009"><a xlink:title=" ">
<path fill="none" stroke="#63b8ff" d="M439.16,-165.63C430.57,-152.86 417.59,-128.65 427.62,-110.5 435.14,-96.89 448.74,-86.87 462.04,-79.82"/>
<polygon fill="#63b8ff" stroke="#63b8ff" points="463.2,-83.14 470.69,-75.64 460.16,-76.84 463.2,-83.14"/>
</a>
</g>
</g>
<!-- Node19&#45;&gt;Node14 -->
<g id="edge29_Node000019_Node000014" class="edge">
<title>Node19&#45;&gt;Node14</title>
<g id="a_edge29_Node000019_Node000014"><a xlink:title=" ">
<path fill="none" stroke="#63b8ff" d="M446.95,-165.58C447.94,-158.99 449.33,-149.71 450.59,-141.32"/>
<polygon fill="#63b8ff" stroke="#63b8ff" points="454.03,-142.01 452.05,-131.61 447.1,-140.97 454.03,-142.01"/>
</a>
</g>
</g>
</g>
</svg>

<g id="navigator" transform="translate(0 0)" fill="#404254">
  <rect fill="#f2f5e9" fill-opacity="0.5" stroke="#606060" stroke-width=".5" x="0" y="0" width="60" height="60"/>
  <use id="zoomplus" xlink:href="#zoomPlus" x="17" y="9" onmousedown="handleZoom(evt,'in')"/>
  <use id="zoomminus" xlink:href="#zoomMin" x="42" y="9" onmousedown="handleZoom(evt,'out')"/>
  <use id="reset" xlink:href="#resetDef" x="30" y="36" onmousedown="handleReset()"/>
   <use id="arrowup" xlink:href="#arrowUp" x="0" y="0" onmousedown="handlePan(0,-1)"/>
  <use id="arrowright" xlink:href="#arrowRight" x="0" y="0" onmousedown="handlePan(1,0)"/>
  <use id="arrowdown" xlink:href="#arrowDown" x="0" y="0" onmousedown="handlePan(0,1)"/>
  <use id="arrowleft" xlink:href="#arrowLeft" x="0" y="0" onmousedown="handlePan(-1,0)"/>
</g>
<svg viewBox="0 0 15 15" width="100%" height="30px" preserveAspectRatio="xMaxYMin meet">
 <g id="arrow_out" transform="scale(0.3 0.3)">
  <a xlink:href="a00057_org.svg" target="_base">
   <rect id="button" ry="5" rx="5" y="6" x="6" height="38" width="38"
        fill="#f2f5e9" fill-opacity="0.5" stroke="#606060" stroke-width="1.0"/>
   <path id="arrow"
     d="M 11.500037,31.436501 C 11.940474,20.09759 22.043105,11.32322 32.158766,21.979434 L 37.068811,17.246167 C 37.068811,17.246167 37.088388,32 37.088388,32 L 22.160133,31.978069 C 22.160133,31.978069 26.997745,27.140456 26.997745,27.140456 C 18.528582,18.264221 13.291696,25.230495 11.500037,31.436501 z"
     style="fill:#404040;"/>
  </a>
 </g>
</svg>

<style type='text/css'>
<![CDATA[
[data-mouse-over-selected='false'] { opacity: 0.7; }
[data-mouse-over-selected='true']  { opacity: 1.0; }
]]>
</style>
<script type="application/ecmascript"><![CDATA[
document.addEventListener('DOMContentLoaded', (event) => {
  highlightEdges();
  highlightAdjacentNodes();
});
]]></script>
</svg>
