<?xml version="1.0" encoding="UTF-8" standalone="no"?>
<!DOCTYPE svg PUBLIC "-//W3C//DTD SVG 1.1//EN"
 "http://www.w3.org/Graphics/SVG/1.1/DTD/svg11.dtd">
<!-- Generated by graphviz version 6.0.1 (20220911.1526)
 -->
<!-- Title: ChordFromBlock.cpp Pages: 1 -->
<svg width="741pt" height="302pt"
 viewBox="0.00 0.00 741.00 302.00" xmlns="http://www.w3.org/2000/svg" xmlns:xlink="http://www.w3.org/1999/xlink">
<g id="graph0" class="graph" transform="scale(1 1) rotate(0) translate(4 298)">
<title>ChordFromBlock.cpp</title>
<!-- Node1 -->
<g id="node1" class="node">
<title>Node1</title>
<g id="a_node1"><a xlink:title=" ">
<polygon fill="#999999" stroke="#666666" points="501.5,-294 394.5,-294 394.5,-275 501.5,-275 501.5,-294"/>
<text text-anchor="middle" x="448" y="-282" font-family="Helvetica,sans-Serif" font-size="10.00">ChordFromBlock.cpp</text>
</a>
</g>
</g>
<!-- Node2 -->
<g id="node2" class="node">
<title>Node2</title>
<g id="a_node2"><a xlink:href="a00194.xhtml" target="_top" xlink:title=" ">
<polygon fill="white" stroke="#666666" points="201.5,-184 148.5,-184 148.5,-165 201.5,-165 201.5,-184"/>
<text text-anchor="middle" x="175" y="-172" font-family="Helvetica,sans-Serif" font-size="10.00">Vector.h</text>
</a>
</g>
</g>
<!-- Node1&#45;&gt;Node2 -->
<g id="edge1" class="edge">
<title>Node1&#45;&gt;Node2</title>
<path fill="none" stroke="#63b8ff" d="M409.38,-274.99C377.32,-267.33 330.85,-254.86 292,-239 257.58,-224.95 220.23,-203.49 197.21,-189.48"/>
<polygon fill="#63b8ff" stroke="#63b8ff" points="198.91,-186.41 188.56,-184.15 195.24,-192.37 198.91,-186.41"/>
</g>
<!-- Node11 -->
<g id="node11" class="node">
<title>Node11</title>
<g id="a_node11"><a xlink:href="a00197.xhtml" target="_top" xlink:title=" ">
<polygon fill="white" stroke="#666666" points="351,-239 301,-239 301,-220 351,-220 351,-239"/>
<text text-anchor="middle" x="326" y="-227" font-family="Helvetica,sans-Serif" font-size="10.00">Matrix.h</text>
</a>
</g>
</g>
<!-- Node1&#45;&gt;Node11 -->
<g id="edge14" class="edge">
<title>Node1&#45;&gt;Node11</title>
<path fill="none" stroke="#63b8ff" d="M428.4,-274.98C408.68,-266.42 378.05,-253.11 355.42,-243.28"/>
<polygon fill="#63b8ff" stroke="#63b8ff" points="356.52,-239.94 345.96,-239.17 353.74,-246.37 356.52,-239.94"/>
</g>
<!-- Node13 -->
<g id="node13" class="node">
<title>Node13</title>
<g id="a_node13"><a xlink:href="a00167.xhtml" target="_top" xlink:title=" ">
<polygon fill="white" stroke="#666666" points="619,-184 515,-184 515,-165 619,-165 619,-184"/>
<text text-anchor="middle" x="567" y="-172" font-family="Helvetica,sans-Serif" font-size="10.00">FeatureFromBlock.h</text>
</a>
</g>
</g>
<!-- Node1&#45;&gt;Node13 -->
<g id="edge18" class="edge">
<title>Node1&#45;&gt;Node13</title>
<path fill="none" stroke="#63b8ff" d="M457.74,-274.66C477.89,-256.38 524.38,-214.18 549.74,-191.17"/>
<polygon fill="#63b8ff" stroke="#63b8ff" points="552.41,-193.47 557.46,-184.16 547.7,-188.29 552.41,-193.47"/>
</g>
<!-- Node18 -->
<g id="node18" class="node">
<title>Node18</title>
<g id="a_node18"><a xlink:href="a00131.xhtml" target="_top" xlink:title=" ">
<polygon fill="white" stroke="#666666" points="733,-129 683,-129 683,-110 733,-110 733,-129"/>
<text text-anchor="middle" x="708" y="-117" font-family="Helvetica,sans-Serif" font-size="10.00">Chord.h</text>
</a>
</g>
</g>
<!-- Node1&#45;&gt;Node18 -->
<g id="edge25" class="edge">
<title>Node1&#45;&gt;Node18</title>
<path fill="none" stroke="#63b8ff" d="M465.69,-274.96C498.61,-258.79 571.1,-221.93 628,-184 650.41,-169.06 674.39,-149.5 690.18,-136.06"/>
<polygon fill="#63b8ff" stroke="#63b8ff" points="692.76,-138.46 698.06,-129.29 688.19,-133.15 692.76,-138.46"/>
</g>
<!-- Node19 -->
<g id="node19" class="node">
<title>Node19</title>
<g id="a_node19"><a xlink:href="a00209.xhtml" target="_top" xlink:title=" ">
<polygon fill="white" stroke="#666666" points="496.5,-184 399.5,-184 399.5,-165 496.5,-165 496.5,-184"/>
<text text-anchor="middle" x="448" y="-172" font-family="Helvetica,sans-Serif" font-size="10.00">ChordFromBlock.h</text>
</a>
</g>
</g>
<!-- Node1&#45;&gt;Node19 -->
<g id="edge28" class="edge">
<title>Node1&#45;&gt;Node19</title>
<path fill="none" stroke="#63b8ff" d="M448,-274.66C448,-257.17 448,-217.8 448,-194.27"/>
<polygon fill="#63b8ff" stroke="#63b8ff" points="451.5,-194.16 448,-184.16 444.5,-194.16 451.5,-194.16"/>
</g>
<!-- Node3 -->
<g id="node3" class="node">
<title>Node3</title>
<g id="a_node3"><a xlink:title=" ">
<polygon fill="#e0e0e0" stroke="#999999" points="284.5,-19 235.5,-19 235.5,0 284.5,0 284.5,-19"/>
<text text-anchor="middle" x="260" y="-7" font-family="Helvetica,sans-Serif" font-size="10.00">cassert</text>
</a>
</g>
</g>
<!-- Node2&#45;&gt;Node3 -->
<g id="edge2" class="edge">
<title>Node2&#45;&gt;Node3</title>
<path fill="none" stroke="#63b8ff" d="M185.09,-164.8C194.35,-156.38 207.97,-142.9 217,-129 237.8,-97 250.21,-53.61 256.02,-29.2"/>
<polygon fill="#63b8ff" stroke="#63b8ff" points="259.5,-29.67 258.28,-19.15 252.67,-28.13 259.5,-29.67"/>
</g>
<!-- Node4 -->
<g id="node4" class="node">
<title>Node4</title>
<g id="a_node4"><a xlink:title=" ">
<polygon fill="#e0e0e0" stroke="#999999" points="46,-19 0,-19 0,0 46,0 46,-19"/>
<text text-anchor="middle" x="23" y="-7" font-family="Helvetica,sans-Serif" font-size="10.00">cstring</text>
</a>
</g>
</g>
<!-- Node2&#45;&gt;Node4 -->
<g id="edge3" class="edge">
<title>Node2&#45;&gt;Node4</title>
<path fill="none" stroke="#63b8ff" d="M148.11,-166.44C127.09,-159.75 98.31,-147.88 79,-129 50.09,-100.73 34.33,-54.61 27.4,-29.04"/>
<polygon fill="#63b8ff" stroke="#63b8ff" points="30.74,-27.99 24.89,-19.16 23.96,-29.72 30.74,-27.99"/>
</g>
<!-- Node5 -->
<g id="node5" class="node">
<title>Node5</title>
<g id="a_node5"><a xlink:title=" ">
<polygon fill="#e0e0e0" stroke="#999999" points="147,-19 107,-19 107,0 147,0 147,-19"/>
<text text-anchor="middle" x="127" y="-7" font-family="Helvetica,sans-Serif" font-size="10.00">limits</text>
</a>
</g>
</g>
<!-- Node2&#45;&gt;Node5 -->
<g id="edge4" class="edge">
<title>Node2&#45;&gt;Node5</title>
<path fill="none" stroke="#63b8ff" d="M156.54,-164.8C128.67,-150.46 77.08,-118.91 58,-74 48.27,-51.08 74.79,-32.89 97.72,-21.95"/>
<polygon fill="#63b8ff" stroke="#63b8ff" points="99.19,-25.12 106.89,-17.85 96.33,-18.73 99.19,-25.12"/>
</g>
<!-- Node6 -->
<g id="node6" class="node">
<title>Node6</title>
<g id="a_node6"><a xlink:title=" ">
<polygon fill="#e0e0e0" stroke="#999999" points="111,-74 67,-74 67,-55 111,-55 111,-74"/>
<text text-anchor="middle" x="89" y="-62" font-family="Helvetica,sans-Serif" font-size="10.00">cmath</text>
</a>
</g>
</g>
<!-- Node2&#45;&gt;Node6 -->
<g id="edge5" class="edge">
<title>Node2&#45;&gt;Node6</title>
<path fill="none" stroke="#63b8ff" d="M165.62,-164.72C156.57,-156.04 142.7,-142.18 132,-129 119.85,-114.03 107.68,-95.67 99.41,-82.55"/>
<polygon fill="#63b8ff" stroke="#63b8ff" points="102.38,-80.69 94.13,-74.05 96.43,-84.39 102.38,-80.69"/>
</g>
<!-- Node7 -->
<g id="node7" class="node">
<title>Node7</title>
<g id="a_node7"><a xlink:href="a00188.xhtml" target="_top" xlink:title=" ">
<polygon fill="white" stroke="#666666" points="208.5,-129 141.5,-129 141.5,-110 208.5,-110 208.5,-129"/>
<text text-anchor="middle" x="175" y="-117" font-family="Helvetica,sans-Serif" font-size="10.00">Synthesis.h</text>
</a>
</g>
</g>
<!-- Node2&#45;&gt;Node7 -->
<g id="edge6" class="edge">
<title>Node2&#45;&gt;Node7</title>
<path fill="none" stroke="#63b8ff" d="M175,-164.75C175,-157.8 175,-147.85 175,-139.13"/>
<polygon fill="#63b8ff" stroke="#63b8ff" points="178.5,-139.09 175,-129.09 171.5,-139.09 178.5,-139.09"/>
</g>
<!-- Node7&#45;&gt;Node6 -->
<g id="edge7" class="edge">
<title>Node7&#45;&gt;Node6</title>
<path fill="none" stroke="#63b8ff" d="M161.18,-109.98C147.85,-101.77 127.42,-89.18 111.69,-79.49"/>
<polygon fill="#63b8ff" stroke="#63b8ff" points="113.42,-76.44 103.07,-74.17 109.75,-82.4 113.42,-76.44"/>
</g>
<!-- Node8 -->
<g id="node8" class="node">
<title>Node8</title>
<g id="a_node8"><a xlink:title=" ">
<polygon fill="#e0e0e0" stroke="#999999" points="231.5,-74 186.5,-74 186.5,-55 231.5,-55 231.5,-74"/>
<text text-anchor="middle" x="209" y="-62" font-family="Helvetica,sans-Serif" font-size="10.00">cstdlib</text>
</a>
</g>
</g>
<!-- Node7&#45;&gt;Node8 -->
<g id="edge8" class="edge">
<title>Node7&#45;&gt;Node8</title>
<path fill="none" stroke="#63b8ff" d="M180.61,-109.75C185.32,-102.42 192.17,-91.73 197.97,-82.7"/>
<polygon fill="#63b8ff" stroke="#63b8ff" points="201.04,-84.4 203.49,-74.09 195.14,-80.62 201.04,-84.4"/>
</g>
<!-- Node9 -->
<g id="node9" class="node">
<title>Node9</title>
<g id="a_node9"><a xlink:href="a00158.xhtml" target="_top" xlink:title=" ">
<polygon fill="white" stroke="#666666" points="531.5,-74 472.5,-74 472.5,-55 531.5,-55 531.5,-74"/>
<text text-anchor="middle" x="502" y="-62" font-family="Helvetica,sans-Serif" font-size="10.00">ErrorDef.h</text>
</a>
</g>
</g>
<!-- Node7&#45;&gt;Node9 -->
<g id="edge9" class="edge">
<title>Node7&#45;&gt;Node9</title>
<path fill="none" stroke="#63b8ff" d="M208.76,-113.03C269.51,-103.18 396.95,-82.53 461.98,-71.99"/>
<polygon fill="#63b8ff" stroke="#63b8ff" points="462.92,-75.38 472.23,-70.32 461.8,-68.47 462.92,-75.38"/>
</g>
<!-- Node10 -->
<g id="node10" class="node">
<title>Node10</title>
<g id="a_node10"><a xlink:href="a00185.xhtml" target="_top" xlink:title=" ">
<polygon fill="white" stroke="#666666" points="168.5,-74 129.5,-74 129.5,-55 168.5,-55 168.5,-74"/>
<text text-anchor="middle" x="149" y="-62" font-family="Helvetica,sans-Serif" font-size="10.00">Util.h</text>
</a>
</g>
</g>
<!-- Node7&#45;&gt;Node10 -->
<g id="edge10" class="edge">
<title>Node7&#45;&gt;Node10</title>
<path fill="none" stroke="#63b8ff" d="M170.71,-109.75C167.19,-102.57 162.09,-92.18 157.72,-83.27"/>
<polygon fill="#63b8ff" stroke="#63b8ff" points="160.76,-81.53 153.21,-74.09 154.48,-84.61 160.76,-81.53"/>
</g>
<!-- Node10&#45;&gt;Node3 -->
<g id="edge11" class="edge">
<title>Node10&#45;&gt;Node3</title>
<path fill="none" stroke="#63b8ff" d="M166.83,-54.98C184.61,-46.5 212.15,-33.35 232.68,-23.54"/>
<polygon fill="#63b8ff" stroke="#63b8ff" points="234.33,-26.64 241.84,-19.17 231.31,-20.32 234.33,-26.64"/>
</g>
<!-- Node10&#45;&gt;Node4 -->
<g id="edge12" class="edge">
<title>Node10&#45;&gt;Node4</title>
<path fill="none" stroke="#63b8ff" d="M129.31,-55.22C108.75,-46.57 76.26,-32.9 52.6,-22.95"/>
<polygon fill="#63b8ff" stroke="#63b8ff" points="53.96,-19.73 43.38,-19.07 51.24,-26.18 53.96,-19.73"/>
</g>
<!-- Node10&#45;&gt;Node5 -->
<g id="edge13" class="edge">
<title>Node10&#45;&gt;Node5</title>
<path fill="none" stroke="#63b8ff" d="M145.37,-54.75C142.42,-47.65 138.17,-37.4 134.49,-28.56"/>
<polygon fill="#63b8ff" stroke="#63b8ff" points="137.63,-26.98 130.57,-19.09 131.17,-29.67 137.63,-26.98"/>
</g>
<!-- Node11&#45;&gt;Node2 -->
<g id="edge17" class="edge">
<title>Node11&#45;&gt;Node2</title>
<path fill="none" stroke="#63b8ff" d="M301.74,-219.98C276.68,-211.19 237.37,-197.39 209.17,-187.49"/>
<polygon fill="#63b8ff" stroke="#63b8ff" points="210.3,-184.18 199.7,-184.17 207.98,-190.78 210.3,-184.18"/>
</g>
<!-- Node11&#45;&gt;Node3 -->
<g id="edge15" class="edge">
<title>Node11&#45;&gt;Node3</title>
<path fill="none" stroke="#63b8ff" d="M323.41,-219.95C313.68,-187.81 279.14,-73.72 265.55,-28.83"/>
<polygon fill="#63b8ff" stroke="#63b8ff" points="268.89,-27.78 262.64,-19.22 262.19,-29.81 268.89,-27.78"/>
</g>
<!-- Node12 -->
<g id="node12" class="node">
<title>Node12</title>
<g id="a_node12"><a xlink:title=" ">
<polygon fill="#e0e0e0" stroke="#999999" points="382,-184 326,-184 326,-165 382,-165 382,-184"/>
<text text-anchor="middle" x="354" y="-172" font-family="Helvetica,sans-Serif" font-size="10.00">algorithm</text>
</a>
</g>
</g>
<!-- Node11&#45;&gt;Node12 -->
<g id="edge16" class="edge">
<title>Node11&#45;&gt;Node12</title>
<path fill="none" stroke="#63b8ff" d="M330.62,-219.75C334.46,-212.49 340.02,-201.95 344.76,-192.98"/>
<polygon fill="#63b8ff" stroke="#63b8ff" points="347.89,-194.57 349.46,-184.09 341.7,-191.3 347.89,-194.57"/>
</g>
<!-- Node13&#45;&gt;Node9 -->
<g id="edge24" class="edge">
<title>Node13&#45;&gt;Node9</title>
<path fill="none" stroke="#63b8ff" d="M555.46,-164.81C545.31,-156.61 530.82,-143.44 522,-129 513.53,-115.13 508.33,-97.33 505.36,-84.11"/>
<polygon fill="#63b8ff" stroke="#63b8ff" points="508.79,-83.38 503.38,-74.27 501.93,-84.77 508.79,-83.38"/>
</g>
<!-- Node14 -->
<g id="node14" class="node">
<title>Node14</title>
<g id="a_node14"><a xlink:title=" ">
<polygon fill="#e0e0e0" stroke="#999999" points="473.5,-129 438.5,-129 438.5,-110 473.5,-110 473.5,-129"/>
<text text-anchor="middle" x="456" y="-117" font-family="Helvetica,sans-Serif" font-size="10.00">map</text>
</a>
</g>
</g>
<!-- Node13&#45;&gt;Node14 -->
<g id="edge19" class="edge">
<title>Node13&#45;&gt;Node14</title>
<path fill="none" stroke="#63b8ff" d="M549.17,-164.98C531.28,-156.45 503.52,-143.19 482.95,-133.37"/>
<polygon fill="#63b8ff" stroke="#63b8ff" points="484.32,-130.14 473.79,-128.99 481.31,-136.46 484.32,-130.14"/>
</g>
<!-- Node15 -->
<g id="node15" class="node">
<title>Node15</title>
<g id="a_node15"><a xlink:title=" ">
<polygon fill="#e0e0e0" stroke="#999999" points="589.5,-129 530.5,-129 530.5,-110 589.5,-110 589.5,-129"/>
<text text-anchor="middle" x="560" y="-117" font-family="Helvetica,sans-Serif" font-size="10.00">functional</text>
</a>
</g>
</g>
<!-- Node13&#45;&gt;Node15 -->
<g id="edge20" class="edge">
<title>Node13&#45;&gt;Node15</title>
<path fill="none" stroke="#63b8ff" d="M565.84,-164.75C564.93,-157.8 563.61,-147.85 562.46,-139.13"/>
<polygon fill="#63b8ff" stroke="#63b8ff" points="565.91,-138.54 561.13,-129.09 558.97,-139.46 565.91,-138.54"/>
</g>
<!-- Node16 -->
<g id="node16" class="node">
<title>Node16</title>
<g id="a_node16"><a xlink:href="a00203.xhtml" target="_top" xlink:title=" ">
<polygon fill="white" stroke="#666666" points="664.5,-129 607.5,-129 607.5,-110 664.5,-110 664.5,-129"/>
<text text-anchor="middle" x="636" y="-117" font-family="Helvetica,sans-Serif" font-size="10.00">Feature.h</text>
</a>
</g>
</g>
<!-- Node13&#45;&gt;Node16 -->
<g id="edge21" class="edge">
<title>Node13&#45;&gt;Node16</title>
<path fill="none" stroke="#63b8ff" d="M578.09,-164.98C588.49,-157 604.26,-144.88 616.72,-135.31"/>
<polygon fill="#63b8ff" stroke="#63b8ff" points="618.91,-138.04 624.71,-129.17 614.65,-132.49 618.91,-138.04"/>
</g>
<!-- Node16&#45;&gt;Node9 -->
<g id="edge23" class="edge">
<title>Node16&#45;&gt;Node9</title>
<path fill="none" stroke="#63b8ff" d="M614.47,-109.98C592.53,-101.3 558.26,-87.75 533.31,-77.88"/>
<polygon fill="#63b8ff" stroke="#63b8ff" points="534.51,-74.59 523.92,-74.17 531.93,-81.1 534.51,-74.59"/>
</g>
<!-- Node17 -->
<g id="node17" class="node">
<title>Node17</title>
<g id="a_node17"><a xlink:title=" ">
<polygon fill="#e0e0e0" stroke="#999999" points="692.5,-74 651.5,-74 651.5,-55 692.5,-55 692.5,-74"/>
<text text-anchor="middle" x="672" y="-62" font-family="Helvetica,sans-Serif" font-size="10.00">string</text>
</a>
</g>
</g>
<!-- Node16&#45;&gt;Node17 -->
<g id="edge22" class="edge">
<title>Node16&#45;&gt;Node17</title>
<path fill="none" stroke="#63b8ff" d="M641.94,-109.75C646.98,-102.34 654.34,-91.5 660.51,-82.41"/>
<polygon fill="#63b8ff" stroke="#63b8ff" points="663.44,-84.33 666.17,-74.09 657.65,-80.39 663.44,-84.33"/>
</g>
<!-- Node18&#45;&gt;Node9 -->
<g id="edge27" class="edge">
<title>Node18&#45;&gt;Node9</title>
<path fill="none" stroke="#63b8ff" d="M682.74,-112C647.51,-102.94 583.25,-86.4 541.61,-75.69"/>
<polygon fill="#63b8ff" stroke="#63b8ff" points="542.36,-72.27 531.8,-73.17 540.62,-79.05 542.36,-72.27"/>
</g>
<!-- Node18&#45;&gt;Node17 -->
<g id="edge26" class="edge">
<title>Node18&#45;&gt;Node17</title>
<path fill="none" stroke="#63b8ff" d="M702.06,-109.75C697.02,-102.34 689.66,-91.5 683.49,-82.41"/>
<polygon fill="#63b8ff" stroke="#63b8ff" points="686.35,-80.39 677.83,-74.09 680.56,-84.33 686.35,-80.39"/>
</g>
<!-- Node19&#45;&gt;Node9 -->
<g id="edge30" class="edge">
<title>Node19&#45;&gt;Node9</title>
<path fill="none" stroke="#63b8ff" d="M441.53,-164.8C432.94,-152.09 419.96,-128.01 430,-110 438.04,-95.58 452.9,-85.24 467.04,-78.18"/>
<polygon fill="#63b8ff" stroke="#63b8ff" points="468.51,-81.36 476.15,-74.01 465.6,-74.99 468.51,-81.36"/>
</g>
<!-- Node19&#45;&gt;Node14 -->
<g id="edge29" class="edge">
<title>Node19&#45;&gt;Node14</title>
<path fill="none" stroke="#63b8ff" d="M449.32,-164.75C450.37,-157.8 451.87,-147.85 453.19,-139.13"/>
<polygon fill="#63b8ff" stroke="#63b8ff" points="456.67,-139.5 454.7,-129.09 449.75,-138.45 456.67,-139.5"/>
</g>
</g>
</svg>
