<?xml version="1.0" encoding="UTF-8" standalone="no"?>
<!DOCTYPE svg PUBLIC "-//W3C//DTD SVG 1.1//EN"
 "http://www.w3.org/Graphics/SVG/1.1/DTD/svg11.dtd">
<!-- Generated by graphviz version 12.2.1 (20241206.2353)
 -->
<!-- Title: ToolViterbi.cpp Pages: 1 -->
<svg width="368pt" height="304pt"
 viewBox="0.00 0.00 368.23 303.50" xmlns="http://www.w3.org/2000/svg" xmlns:xlink="http://www.w3.org/1999/xlink">
<g id="graph0" class="graph" transform="scale(1 1) rotate(0) translate(4 299.5)">
<title>ToolViterbi.cpp</title>
<!-- Node1 -->
<g id="Node000001" class="node">
<title>Node1</title>
<g id="a_Node000001"><a xlink:title=" ">
<polygon fill="#999999" stroke="#666666" points="279.88,-295.5 199.38,-295.5 199.38,-276.25 279.88,-276.25 279.88,-295.5"/>
<text text-anchor="middle" x="239.62" y="-282" font-family="Helvetica,sans-Serif" font-size="10.00">ToolViterbi.cpp</text>
</a>
</g>
</g>
<!-- Node2 -->
<g id="Node000002" class="node">
<title>Node2</title>
<g id="a_Node000002"><a xlink:href="a00185.xhtml" target="_top" xlink:title=" ">
<polygon fill="white" stroke="#666666" points="194.62,-185 142.62,-185 142.62,-165.75 194.62,-165.75 194.62,-185"/>
<text text-anchor="middle" x="168.62" y="-171.5" font-family="Helvetica,sans-Serif" font-size="10.00">Vector.h</text>
</a>
</g>
</g>
<!-- Node1&#45;&gt;Node2 -->
<g id="edge1_Node000001_Node000002" class="edge">
<title>Node1&#45;&gt;Node2</title>
<g id="a_edge1_Node000001_Node000002"><a xlink:title=" ">
<path fill="none" stroke="#63b8ff" d="M233.81,-276C222.27,-258.35 196.22,-218.55 180.78,-194.95"/>
<polygon fill="#63b8ff" stroke="#63b8ff" points="183.75,-193.09 175.34,-186.64 177.89,-196.93 183.75,-193.09"/>
</a>
</g>
</g>
<!-- Node11 -->
<g id="Node000011" class="node">
<title>Node11</title>
<g id="a_Node000011"><a xlink:href="a00188.xhtml" target="_top" xlink:title=" ">
<polygon fill="white" stroke="#666666" points="318.5,-240.25 268.75,-240.25 268.75,-221 318.5,-221 318.5,-240.25"/>
<text text-anchor="middle" x="293.62" y="-226.75" font-family="Helvetica,sans-Serif" font-size="10.00">Matrix.h</text>
</a>
</g>
</g>
<!-- Node1&#45;&gt;Node11 -->
<g id="edge14_Node000001_Node000011" class="edge">
<title>Node1&#45;&gt;Node11</title>
<g id="a_edge14_Node000001_Node000011"><a xlink:title=" ">
<path fill="none" stroke="#63b8ff" d="M248.54,-276.08C256.08,-268.65 267.09,-257.79 276.35,-248.66"/>
<polygon fill="#63b8ff" stroke="#63b8ff" points="278.77,-251.19 283.44,-241.67 273.86,-246.2 278.77,-251.19"/>
</a>
</g>
</g>
<!-- Node13 -->
<g id="Node000013" class="node">
<title>Node13</title>
<g id="a_Node000013"><a xlink:href="a00176.xhtml" target="_top" xlink:title=" ">
<polygon fill="white" stroke="#666666" points="337.62,-129.75 267.62,-129.75 267.62,-110.5 337.62,-110.5 337.62,-129.75"/>
<text text-anchor="middle" x="302.62" y="-116.25" font-family="Helvetica,sans-Serif" font-size="10.00">ToolViterbi.h</text>
</a>
</g>
</g>
<!-- Node1&#45;&gt;Node13 -->
<g id="edge18_Node000001_Node000013" class="edge">
<title>Node1&#45;&gt;Node13</title>
<g id="a_edge18_Node000001_Node000013"><a xlink:title=" ">
<path fill="none" stroke="#63b8ff" d="M239.25,-275.94C238.75,-255.33 239.63,-203.31 258.62,-165.75 264.11,-154.91 273.17,-145.04 281.66,-137.35"/>
<polygon fill="#63b8ff" stroke="#63b8ff" points="283.91,-140.04 289.28,-130.91 279.38,-134.69 283.91,-140.04"/>
</a>
</g>
</g>
<!-- Node3 -->
<g id="Node000003" class="node">
<title>Node3</title>
<g id="a_Node000003"><a xlink:title=" ">
<polygon fill="#e0e0e0" stroke="#999999" points="269.75,-19.25 221.5,-19.25 221.5,0 269.75,0 269.75,-19.25"/>
<text text-anchor="middle" x="245.62" y="-5.75" font-family="Helvetica,sans-Serif" font-size="10.00">cassert</text>
</a>
</g>
</g>
<!-- Node2&#45;&gt;Node3 -->
<g id="edge2_Node000002_Node000003" class="edge">
<title>Node2&#45;&gt;Node3</title>
<g id="a_edge2_Node000002_Node000003"><a xlink:title=" ">
<path fill="none" stroke="#63b8ff" d="M179.43,-165.54C188.93,-157.23 202.48,-143.96 210.62,-129.75 228.97,-97.74 238.43,-55.28 242.69,-30.65"/>
<polygon fill="#63b8ff" stroke="#63b8ff" points="246.1,-31.47 244.22,-21.05 239.19,-30.37 246.1,-31.47"/>
</a>
</g>
</g>
<!-- Node4 -->
<g id="Node000004" class="node">
<title>Node4</title>
<g id="a_Node000004"><a xlink:title=" ">
<polygon fill="#e0e0e0" stroke="#999999" points="45.25,-19.25 0,-19.25 0,0 45.25,0 45.25,-19.25"/>
<text text-anchor="middle" x="22.62" y="-5.75" font-family="Helvetica,sans-Serif" font-size="10.00">cstring</text>
</a>
</g>
</g>
<!-- Node2&#45;&gt;Node4 -->
<g id="edge3_Node000002_Node000004" class="edge">
<title>Node2&#45;&gt;Node4</title>
<g id="a_edge3_Node000002_Node000004"><a xlink:title=" ">
<path fill="none" stroke="#63b8ff" d="M142.26,-167.99C120.11,-161.49 88.77,-149.52 67.62,-129.75 39.31,-103.28 28.67,-57.2 24.78,-30.78"/>
<polygon fill="#63b8ff" stroke="#63b8ff" points="28.28,-30.55 23.55,-21.06 21.33,-31.42 28.28,-30.55"/>
</a>
</g>
</g>
<!-- Node5 -->
<g id="Node000005" class="node">
<title>Node5</title>
<g id="a_Node000005"><a xlink:title=" ">
<polygon fill="#e0e0e0" stroke="#999999" points="169.25,-19.25 130,-19.25 130,0 169.25,0 169.25,-19.25"/>
<text text-anchor="middle" x="149.62" y="-5.75" font-family="Helvetica,sans-Serif" font-size="10.00">limits</text>
</a>
</g>
</g>
<!-- Node2&#45;&gt;Node5 -->
<g id="edge4_Node000002_Node000005" class="edge">
<title>Node2&#45;&gt;Node5</title>
<g id="a_edge4_Node000002_Node000005"><a xlink:title=" ">
<path fill="none" stroke="#63b8ff" d="M148.34,-165.4C118.94,-151.09 65.81,-120.01 45.62,-74.5 30.82,-41.12 83.09,-23.73 118.83,-15.94"/>
<polygon fill="#63b8ff" stroke="#63b8ff" points="119.15,-19.44 128.26,-14.03 117.76,-12.58 119.15,-19.44"/>
</a>
</g>
</g>
<!-- Node6 -->
<g id="Node000006" class="node">
<title>Node6</title>
<g id="a_Node000006"><a xlink:title=" ">
<polygon fill="#e0e0e0" stroke="#999999" points="98.12,-74.5 55.12,-74.5 55.12,-55.25 98.12,-55.25 98.12,-74.5"/>
<text text-anchor="middle" x="76.62" y="-61" font-family="Helvetica,sans-Serif" font-size="10.00">cmath</text>
</a>
</g>
</g>
<!-- Node2&#45;&gt;Node6 -->
<g id="edge5_Node000002_Node000006" class="edge">
<title>Node2&#45;&gt;Node6</title>
<g id="a_edge5_Node000002_Node000006"><a xlink:title=" ">
<path fill="none" stroke="#63b8ff" d="M159.69,-165.37C151.01,-156.51 137.58,-142.5 126.62,-129.75 113.61,-114.6 99.67,-96.63 89.82,-83.61"/>
<polygon fill="#63b8ff" stroke="#63b8ff" points="92.88,-81.86 84.08,-75.97 87.29,-86.06 92.88,-81.86"/>
</a>
</g>
</g>
<!-- Node7 -->
<g id="Node000007" class="node">
<title>Node7</title>
<g id="a_Node000007"><a xlink:href="a00194.xhtml" target="_top" xlink:title=" ">
<polygon fill="white" stroke="#666666" points="201.75,-129.75 135.5,-129.75 135.5,-110.5 201.75,-110.5 201.75,-129.75"/>
<text text-anchor="middle" x="168.62" y="-116.25" font-family="Helvetica,sans-Serif" font-size="10.00">Synthesis.h</text>
</a>
</g>
</g>
<!-- Node2&#45;&gt;Node7 -->
<g id="edge6_Node000002_Node000007" class="edge">
<title>Node2&#45;&gt;Node7</title>
<g id="a_edge6_Node000002_Node000007"><a xlink:title=" ">
<path fill="none" stroke="#63b8ff" d="M168.62,-165.58C168.62,-159.07 168.62,-149.92 168.62,-141.62"/>
<polygon fill="#63b8ff" stroke="#63b8ff" points="172.13,-141.62 168.63,-131.62 165.13,-141.62 172.13,-141.62"/>
</a>
</g>
</g>
<!-- Node7&#45;&gt;Node6 -->
<g id="edge7_Node000007_Node000006" class="edge">
<title>Node7&#45;&gt;Node6</title>
<g id="a_edge7_Node000007_Node000006"><a xlink:title=" ">
<path fill="none" stroke="#63b8ff" d="M153.02,-110.09C139.01,-101.98 118.19,-89.93 101.82,-80.46"/>
<polygon fill="#63b8ff" stroke="#63b8ff" points="104.03,-77.69 93.62,-75.71 100.52,-83.75 104.03,-77.69"/>
</a>
</g>
</g>
<!-- Node8 -->
<g id="Node000008" class="node">
<title>Node8</title>
<g id="a_Node000008"><a xlink:title=" ">
<polygon fill="#e0e0e0" stroke="#999999" points="160.88,-74.5 116.38,-74.5 116.38,-55.25 160.88,-55.25 160.88,-74.5"/>
<text text-anchor="middle" x="138.62" y="-61" font-family="Helvetica,sans-Serif" font-size="10.00">cstdlib</text>
</a>
</g>
</g>
<!-- Node7&#45;&gt;Node8 -->
<g id="edge8_Node000007_Node000008" class="edge">
<title>Node7&#45;&gt;Node8</title>
<g id="a_edge8_Node000007_Node000008"><a xlink:title=" ">
<path fill="none" stroke="#63b8ff" d="M163.67,-110.33C159.74,-103.36 154.11,-93.37 149.19,-84.62"/>
<polygon fill="#63b8ff" stroke="#63b8ff" points="152.39,-83.17 144.43,-76.18 146.29,-86.61 152.39,-83.17"/>
</a>
</g>
</g>
<!-- Node9 -->
<g id="Node000009" class="node">
<title>Node9</title>
<g id="a_Node000009"><a xlink:href="a00167.xhtml" target="_top" xlink:title=" ">
<polygon fill="white" stroke="#666666" points="332,-74.5 273.25,-74.5 273.25,-55.25 332,-55.25 332,-74.5"/>
<text text-anchor="middle" x="302.62" y="-61" font-family="Helvetica,sans-Serif" font-size="10.00">ErrorDef.h</text>
</a>
</g>
</g>
<!-- Node7&#45;&gt;Node9 -->
<g id="edge9_Node000007_Node000009" class="edge">
<title>Node7&#45;&gt;Node9</title>
<g id="a_edge9_Node000007_Node000009"><a xlink:title=" ">
<path fill="none" stroke="#63b8ff" d="M191.36,-110.09C212.72,-101.6 244.97,-88.79 269.25,-79.14"/>
<polygon fill="#63b8ff" stroke="#63b8ff" points="270.38,-82.46 278.38,-75.51 267.79,-75.95 270.38,-82.46"/>
</a>
</g>
</g>
<!-- Node10 -->
<g id="Node000010" class="node">
<title>Node10</title>
<g id="a_Node000010"><a xlink:href="a00191.xhtml" target="_top" xlink:title=" ">
<polygon fill="white" stroke="#666666" points="217.88,-74.5 179.38,-74.5 179.38,-55.25 217.88,-55.25 217.88,-74.5"/>
<text text-anchor="middle" x="198.62" y="-61" font-family="Helvetica,sans-Serif" font-size="10.00">Util.h</text>
</a>
</g>
</g>
<!-- Node7&#45;&gt;Node10 -->
<g id="edge10_Node000007_Node000010" class="edge">
<title>Node7&#45;&gt;Node10</title>
<g id="a_edge10_Node000007_Node000010"><a xlink:title=" ">
<path fill="none" stroke="#63b8ff" d="M173.58,-110.33C177.51,-103.36 183.14,-93.37 188.06,-84.62"/>
<polygon fill="#63b8ff" stroke="#63b8ff" points="190.96,-86.61 192.82,-76.18 184.86,-83.17 190.96,-86.61"/>
</a>
</g>
</g>
<!-- Node10&#45;&gt;Node3 -->
<g id="edge11_Node000010_Node000003" class="edge">
<title>Node10&#45;&gt;Node3</title>
<g id="a_edge11_Node000010_Node000003"><a xlink:title=" ">
<path fill="none" stroke="#63b8ff" d="M206.39,-55.08C212.81,-47.8 222.14,-37.23 230.09,-28.23"/>
<polygon fill="#63b8ff" stroke="#63b8ff" points="232.7,-30.56 236.69,-20.74 227.45,-25.93 232.7,-30.56"/>
</a>
</g>
</g>
<!-- Node10&#45;&gt;Node4 -->
<g id="edge12_Node000010_Node000004" class="edge">
<title>Node10&#45;&gt;Node4</title>
<g id="a_edge12_Node000010_Node000004"><a xlink:title=" ">
<path fill="none" stroke="#63b8ff" d="M179.12,-57.97C149.43,-48.99 92.53,-31.78 56.14,-20.76"/>
<polygon fill="#63b8ff" stroke="#63b8ff" points="57.59,-17.55 47,-18 55.56,-24.25 57.59,-17.55"/>
</a>
</g>
</g>
<!-- Node10&#45;&gt;Node5 -->
<g id="edge13_Node000010_Node000005" class="edge">
<title>Node10&#45;&gt;Node5</title>
<g id="a_edge13_Node000010_Node000005"><a xlink:title=" ">
<path fill="none" stroke="#63b8ff" d="M190.53,-55.08C183.77,-47.73 173.9,-37.01 165.56,-27.94"/>
<polygon fill="#63b8ff" stroke="#63b8ff" points="168.26,-25.71 158.92,-20.72 163.11,-30.45 168.26,-25.71"/>
</a>
</g>
</g>
<!-- Node11&#45;&gt;Node2 -->
<g id="edge17_Node000011_Node000002" class="edge">
<title>Node11&#45;&gt;Node2</title>
<g id="a_edge17_Node000011_Node000002"><a xlink:title=" ">
<path fill="none" stroke="#63b8ff" d="M272.42,-220.59C252.67,-212.18 222.95,-199.52 200.37,-189.9"/>
<polygon fill="#63b8ff" stroke="#63b8ff" points="201.9,-186.74 191.33,-186.05 199.15,-193.18 201.9,-186.74"/>
</a>
</g>
</g>
<!-- Node11&#45;&gt;Node3 -->
<g id="edge15_Node000011_Node000003" class="edge">
<title>Node11&#45;&gt;Node3</title>
<g id="a_edge15_Node000011_Node000003"><a xlink:title=" ">
<path fill="none" stroke="#63b8ff" d="M303.76,-220.7C312.65,-212.33 325.26,-199.03 332.62,-185 359.47,-133.84 374.19,-102.28 340.62,-55.25 326.69,-35.73 301.97,-24.48 281.24,-18.17"/>
<polygon fill="#63b8ff" stroke="#63b8ff" points="282.26,-14.82 271.69,-15.54 280.4,-21.57 282.26,-14.82"/>
</a>
</g>
</g>
<!-- Node12 -->
<g id="Node000012" class="node">
<title>Node12</title>
<g id="a_Node000012"><a xlink:title=" ">
<polygon fill="#e0e0e0" stroke="#999999" points="323.5,-185 267.75,-185 267.75,-165.75 323.5,-165.75 323.5,-185"/>
<text text-anchor="middle" x="295.62" y="-171.5" font-family="Helvetica,sans-Serif" font-size="10.00">algorithm</text>
</a>
</g>
</g>
<!-- Node11&#45;&gt;Node12 -->
<g id="edge16_Node000011_Node000012" class="edge">
<title>Node11&#45;&gt;Node12</title>
<g id="a_edge16_Node000011_Node000012"><a xlink:title=" ">
<path fill="none" stroke="#63b8ff" d="M293.96,-220.83C294.2,-214.24 294.55,-204.96 294.87,-196.57"/>
<polygon fill="#63b8ff" stroke="#63b8ff" points="298.35,-197 295.23,-186.87 291.36,-196.73 298.35,-197"/>
</a>
</g>
</g>
<!-- Node13&#45;&gt;Node9 -->
<g id="edge19_Node000013_Node000009" class="edge">
<title>Node13&#45;&gt;Node9</title>
<g id="a_edge19_Node000013_Node000009"><a xlink:title=" ">
<path fill="none" stroke="#63b8ff" d="M302.62,-110.33C302.62,-103.82 302.62,-94.67 302.62,-86.37"/>
<polygon fill="#63b8ff" stroke="#63b8ff" points="306.13,-86.37 302.63,-76.37 299.13,-86.37 306.13,-86.37"/>
</a>
</g>
</g>
</g>
</svg>
