<?xml version="1.0" encoding="UTF-8" standalone="no"?>
<!DOCTYPE svg PUBLIC "-//W3C//DTD SVG 1.1//EN"
 "http://www.w3.org/Graphics/SVG/1.1/DTD/svg11.dtd">
<!-- Generated by graphviz version 12.2.1 (20241206.2353)
 -->
<!-- Title: AudioFileIf.cpp Pages: 1 -->
<svg width="380pt" height="193pt"
 viewBox="0.00 0.00 379.50 193.00" xmlns="http://www.w3.org/2000/svg" xmlns:xlink="http://www.w3.org/1999/xlink">
<g id="graph0" class="graph" transform="scale(1 1) rotate(0) translate(4 189)">
<title>AudioFileIf.cpp</title>
<!-- Node1 -->
<g id="Node000001" class="node">
<title>Node1</title>
<g id="a_Node000001"><a xlink:title=" ">
<polygon fill="#999999" stroke="#666666" points="169.38,-185 88.88,-185 88.88,-165.75 169.38,-165.75 169.38,-185"/>
<text text-anchor="middle" x="129.12" y="-171.5" font-family="Helvetica,sans-Serif" font-size="10.00">AudioFileIf.cpp</text>
</a>
</g>
</g>
<!-- Node2 -->
<g id="Node000002" class="node">
<title>Node2</title>
<g id="a_Node000002"><a xlink:title=" ">
<polygon fill="#e0e0e0" stroke="#999999" points="48.25,-74.5 0,-74.5 0,-55.25 48.25,-55.25 48.25,-74.5"/>
<text text-anchor="middle" x="24.12" y="-61" font-family="Helvetica,sans-Serif" font-size="10.00">cassert</text>
</a>
</g>
</g>
<!-- Node1&#45;&gt;Node2 -->
<g id="edge1_Node000001_Node000002" class="edge">
<title>Node1&#45;&gt;Node2</title>
<g id="a_edge1_Node000001_Node000002"><a xlink:title=" ">
<path fill="none" stroke="#63b8ff" d="M88.39,-166.61C67.18,-160.35 42.88,-149.24 29.12,-129.75 20.19,-117.09 19.5,-99.28 20.73,-85.69"/>
<polygon fill="#63b8ff" stroke="#63b8ff" points="24.14,-86.53 22.01,-76.16 17.21,-85.6 24.14,-86.53"/>
</a>
</g>
</g>
<!-- Node3 -->
<g id="Node000003" class="node">
<title>Node3</title>
<g id="a_Node000003"><a xlink:title=" ">
<polygon fill="#e0e0e0" stroke="#999999" points="91.88,-129.75 38.38,-129.75 38.38,-110.5 91.88,-110.5 91.88,-129.75"/>
<text text-anchor="middle" x="65.12" y="-116.25" font-family="Helvetica,sans-Serif" font-size="10.00">iostream</text>
</a>
</g>
</g>
<!-- Node1&#45;&gt;Node3 -->
<g id="edge2_Node000001_Node000003" class="edge">
<title>Node1&#45;&gt;Node3</title>
<g id="a_edge2_Node000001_Node000003"><a xlink:title=" ">
<path fill="none" stroke="#63b8ff" d="M118.27,-165.34C109.02,-157.65 95.5,-146.4 84.42,-137.18"/>
<polygon fill="#63b8ff" stroke="#63b8ff" points="86.91,-134.7 76.98,-130.99 82.43,-140.08 86.91,-134.7"/>
</a>
</g>
</g>
<!-- Node4 -->
<g id="Node000004" class="node">
<title>Node4</title>
<g id="a_Node000004"><a xlink:href="a00191.xhtml" target="_top" xlink:title=" ">
<polygon fill="white" stroke="#666666" points="148.38,-129.75 109.88,-129.75 109.88,-110.5 148.38,-110.5 148.38,-129.75"/>
<text text-anchor="middle" x="129.12" y="-116.25" font-family="Helvetica,sans-Serif" font-size="10.00">Util.h</text>
</a>
</g>
</g>
<!-- Node1&#45;&gt;Node4 -->
<g id="edge3_Node000001_Node000004" class="edge">
<title>Node1&#45;&gt;Node4</title>
<g id="a_edge3_Node000001_Node000004"><a xlink:title=" ">
<path fill="none" stroke="#63b8ff" d="M129.12,-165.58C129.12,-159.07 129.12,-149.92 129.12,-141.62"/>
<polygon fill="#63b8ff" stroke="#63b8ff" points="132.63,-141.62 129.13,-131.62 125.63,-141.62 132.63,-141.62"/>
</a>
</g>
</g>
<!-- Node7 -->
<g id="Node000007" class="node">
<title>Node7</title>
<g id="a_Node000007"><a xlink:href="a00218.xhtml" target="_top" xlink:title=" ">
<polygon fill="white" stroke="#666666" points="267.12,-74.5 197.12,-74.5 197.12,-55.25 267.12,-55.25 267.12,-74.5"/>
<text text-anchor="middle" x="232.12" y="-61" font-family="Helvetica,sans-Serif" font-size="10.00">AudioFileIf.h</text>
</a>
</g>
</g>
<!-- Node1&#45;&gt;Node7 -->
<g id="edge7_Node000001_Node000007" class="edge">
<title>Node1&#45;&gt;Node7</title>
<g id="a_edge7_Node000001_Node000007"><a xlink:title=" ">
<path fill="none" stroke="#63b8ff" d="M137.55,-165.5C154.6,-147.53 193.46,-106.61 215.69,-83.19"/>
<polygon fill="#63b8ff" stroke="#63b8ff" points="218.19,-85.64 222.54,-75.97 213.11,-80.82 218.19,-85.64"/>
</a>
</g>
</g>
<!-- Node12 -->
<g id="Node000012" class="node">
<title>Node12</title>
<g id="a_Node000012"><a xlink:href="a00014.xhtml" target="_top" xlink:title=" ">
<polygon fill="white" stroke="#666666" points="268.12,-129.75 204.12,-129.75 204.12,-110.5 268.12,-110.5 268.12,-129.75"/>
<text text-anchor="middle" x="236.12" y="-116.25" font-family="Helvetica,sans-Serif" font-size="10.00">AudioFile.h</text>
</a>
</g>
</g>
<!-- Node1&#45;&gt;Node12 -->
<g id="edge12_Node000001_Node000012" class="edge">
<title>Node1&#45;&gt;Node12</title>
<g id="a_edge12_Node000001_Node000012"><a xlink:title=" ">
<path fill="none" stroke="#63b8ff" d="M147.28,-165.34C163.8,-157.12 188.47,-144.84 207.62,-135.31"/>
<polygon fill="#63b8ff" stroke="#63b8ff" points="209.14,-138.47 216.53,-130.88 206.02,-132.2 209.14,-138.47"/>
</a>
</g>
</g>
<!-- Node4&#45;&gt;Node2 -->
<g id="edge4_Node000004_Node000002" class="edge">
<title>Node4&#45;&gt;Node2</title>
<g id="a_edge4_Node000004_Node000002"><a xlink:title=" ">
<path fill="none" stroke="#63b8ff" d="M111.31,-110.09C95.1,-101.87 70.89,-89.59 52.09,-80.06"/>
<polygon fill="#63b8ff" stroke="#63b8ff" points="53.88,-77.04 43.37,-75.64 50.71,-83.28 53.88,-77.04"/>
</a>
</g>
</g>
<!-- Node5 -->
<g id="Node000005" class="node">
<title>Node5</title>
<g id="a_Node000005"><a xlink:title=" ">
<polygon fill="#e0e0e0" stroke="#999999" points="118.75,-74.5 73.5,-74.5 73.5,-55.25 118.75,-55.25 118.75,-74.5"/>
<text text-anchor="middle" x="96.12" y="-61" font-family="Helvetica,sans-Serif" font-size="10.00">cstring</text>
</a>
</g>
</g>
<!-- Node4&#45;&gt;Node5 -->
<g id="edge5_Node000004_Node000005" class="edge">
<title>Node4&#45;&gt;Node5</title>
<g id="a_edge5_Node000004_Node000005"><a xlink:title=" ">
<path fill="none" stroke="#63b8ff" d="M123.68,-110.33C119.35,-103.36 113.16,-93.37 107.74,-84.62"/>
<polygon fill="#63b8ff" stroke="#63b8ff" points="110.73,-82.8 102.49,-76.15 104.78,-86.49 110.73,-82.8"/>
</a>
</g>
</g>
<!-- Node6 -->
<g id="Node000006" class="node">
<title>Node6</title>
<g id="a_Node000006"><a xlink:title=" ">
<polygon fill="#e0e0e0" stroke="#999999" points="175.75,-74.5 136.5,-74.5 136.5,-55.25 175.75,-55.25 175.75,-74.5"/>
<text text-anchor="middle" x="156.12" y="-61" font-family="Helvetica,sans-Serif" font-size="10.00">limits</text>
</a>
</g>
</g>
<!-- Node4&#45;&gt;Node6 -->
<g id="edge6_Node000004_Node000006" class="edge">
<title>Node4&#45;&gt;Node6</title>
<g id="a_edge6_Node000004_Node000006"><a xlink:title=" ">
<path fill="none" stroke="#63b8ff" d="M133.58,-110.33C137.08,-103.44 142.07,-93.59 146.47,-84.91"/>
<polygon fill="#63b8ff" stroke="#63b8ff" points="149.48,-86.71 150.89,-76.21 143.24,-83.55 149.48,-86.71"/>
</a>
</g>
</g>
<!-- Node8 -->
<g id="Node000008" class="node">
<title>Node8</title>
<g id="a_Node000008"><a xlink:title=" ">
<polygon fill="#e0e0e0" stroke="#999999" points="154.12,-19.25 114.12,-19.25 114.12,0 154.12,0 154.12,-19.25"/>
<text text-anchor="middle" x="134.12" y="-5.75" font-family="Helvetica,sans-Serif" font-size="10.00">string</text>
</a>
</g>
</g>
<!-- Node7&#45;&gt;Node8 -->
<g id="edge8_Node000007_Node000008" class="edge">
<title>Node7&#45;&gt;Node8</title>
<g id="a_edge8_Node000007_Node000008"><a xlink:title=" ">
<path fill="none" stroke="#63b8ff" d="M215.5,-54.84C200.44,-46.66 177.98,-34.46 160.47,-24.94"/>
<polygon fill="#63b8ff" stroke="#63b8ff" points="162.62,-22.12 152.16,-20.43 159.28,-28.27 162.62,-22.12"/>
</a>
</g>
</g>
<!-- Node9 -->
<g id="Node000009" class="node">
<title>Node9</title>
<g id="a_Node000009"><a xlink:title=" ">
<polygon fill="#e0e0e0" stroke="#999999" points="221.62,-19.25 172.62,-19.25 172.62,0 221.62,0 221.62,-19.25"/>
<text text-anchor="middle" x="197.12" y="-5.75" font-family="Helvetica,sans-Serif" font-size="10.00">fstream</text>
</a>
</g>
</g>
<!-- Node7&#45;&gt;Node9 -->
<g id="edge9_Node000007_Node000009" class="edge">
<title>Node7&#45;&gt;Node9</title>
<g id="a_edge9_Node000007_Node000009"><a xlink:title=" ">
<path fill="none" stroke="#63b8ff" d="M226.35,-55.08C221.71,-48.03 215.05,-37.9 209.26,-29.08"/>
<polygon fill="#63b8ff" stroke="#63b8ff" points="212.28,-27.31 203.86,-20.87 206.43,-31.15 212.28,-27.31"/>
</a>
</g>
</g>
<!-- Node10 -->
<g id="Node000010" class="node">
<title>Node10</title>
<g id="a_Node000010"><a xlink:title=" ">
<polygon fill="#e0e0e0" stroke="#999999" points="295,-19.25 239.25,-19.25 239.25,0 295,0 295,-19.25"/>
<text text-anchor="middle" x="267.12" y="-5.75" font-family="Helvetica,sans-Serif" font-size="10.00">algorithm</text>
</a>
</g>
</g>
<!-- Node7&#45;&gt;Node10 -->
<g id="edge10_Node000007_Node000010" class="edge">
<title>Node7&#45;&gt;Node10</title>
<g id="a_edge10_Node000007_Node000010"><a xlink:title=" ">
<path fill="none" stroke="#63b8ff" d="M237.9,-55.08C242.54,-48.03 249.2,-37.9 254.99,-29.08"/>
<polygon fill="#63b8ff" stroke="#63b8ff" points="257.82,-31.15 260.39,-20.87 251.97,-27.31 257.82,-31.15"/>
</a>
</g>
</g>
<!-- Node11 -->
<g id="Node000011" class="node">
<title>Node11</title>
<g id="a_Node000011"><a xlink:href="a00167.xhtml" target="_top" xlink:title=" ">
<polygon fill="white" stroke="#666666" points="371.5,-19.25 312.75,-19.25 312.75,0 371.5,0 371.5,-19.25"/>
<text text-anchor="middle" x="342.12" y="-5.75" font-family="Helvetica,sans-Serif" font-size="10.00">ErrorDef.h</text>
</a>
</g>
</g>
<!-- Node7&#45;&gt;Node11 -->
<g id="edge11_Node000007_Node000011" class="edge">
<title>Node7&#45;&gt;Node11</title>
<g id="a_edge11_Node000007_Node000011"><a xlink:title=" ">
<path fill="none" stroke="#63b8ff" d="M250.79,-54.84C267.85,-46.58 293.37,-34.23 313.1,-24.68"/>
<polygon fill="#63b8ff" stroke="#63b8ff" points="314.54,-27.87 322.01,-20.36 311.49,-21.57 314.54,-27.87"/>
</a>
</g>
</g>
<!-- Node12&#45;&gt;Node7 -->
<g id="edge13_Node000012_Node000007" class="edge">
<title>Node12&#45;&gt;Node7</title>
<g id="a_edge13_Node000012_Node000007"><a xlink:title=" ">
<path fill="none" stroke="#63b8ff" d="M235.46,-110.33C234.97,-103.74 234.27,-94.46 233.64,-86.07"/>
<polygon fill="#63b8ff" stroke="#63b8ff" points="237.15,-86.08 232.91,-76.37 230.17,-86.6 237.15,-86.08"/>
</a>
</g>
</g>
</g>
</svg>
