<?xml version="1.0" encoding="UTF-8" standalone="no"?>
<!DOCTYPE svg PUBLIC "-//W3C//DTD SVG 1.1//EN"
 "http://www.w3.org/Graphics/SVG/1.1/DTD/svg11.dtd">
<!-- Generated by graphviz version 12.2.1 (20241206.2353)
 -->
<!-- Title: main Pages: 1 -->
<svg width="1067pt" height="635pt"
 viewBox="0.00 0.00 1067.25 635.25" xmlns="http://www.w3.org/2000/svg" xmlns:xlink="http://www.w3.org/1999/xlink">
<g id="graph0" class="graph" transform="scale(1 1) rotate(0) translate(4 631.25)">
<title>main</title>
<!-- Node1 -->
<g id="Node000001" class="node">
<title>Node1</title>
<g id="a_Node000001"><a xlink:title=" ">
<polygon fill="#999999" stroke="#666666" points="37,-154.25 0,-154.25 0,-135 37,-135 37,-154.25"/>
<text text-anchor="middle" x="18.5" y="-140.75" font-family="Helvetica,sans-Serif" font-size="10.00">main</text>
</a>
</g>
</g>
<!-- Node2 -->
<g id="Node000002" class="node">
<title>Node2</title>
<g id="a_Node000002"><a xlink:href="a00517.xhtml#a9f110985f86064fa24aa3157bfd5cab0" target="_top" xlink:title=" ">
<polygon fill="white" stroke="#666666" points="200,-420.25 76.75,-420.25 76.75,-401 200,-401 200,-420.25"/>
<text text-anchor="middle" x="138.38" y="-406.75" font-family="Helvetica,sans-Serif" font-size="10.00">CNoveltyIf::compNovelty</text>
</a>
</g>
</g>
<!-- Node1&#45;&gt;Node2 -->
<g id="edge1_Node000001_Node000002" class="edge">
<title>Node1&#45;&gt;Node2</title>
<g id="a_edge1_Node000001_Node000002"><a xlink:title=" ">
<path fill="none" stroke="#63b8ff" d="M23.98,-154.73C41.37,-193.98 104.68,-336.84 128.36,-390.27"/>
<polygon fill="#63b8ff" stroke="#63b8ff" points="125.03,-391.4 132.28,-399.13 131.43,-388.57 125.03,-391.4"/>
</a>
</g>
</g>
<!-- Node17 -->
<g id="Node000017" class="node">
<title>Node17</title>
<g id="a_Node000017"><a xlink:href="a00517.xhtml#abae299cfe8e8806685cab18f59db8f72" target="_top" xlink:title=" ">
<polygon fill="white" stroke="#666666" points="185,-197.25 91.75,-197.25 91.75,-178 185,-178 185,-197.25"/>
<text text-anchor="middle" x="138.38" y="-183.75" font-family="Helvetica,sans-Serif" font-size="10.00">CNoveltyIf::create</text>
</a>
</g>
</g>
<!-- Node1&#45;&gt;Node17 -->
<g id="edge18_Node000001_Node000017" class="edge">
<title>Node1&#45;&gt;Node17</title>
<g id="a_edge18_Node000001_Node000017"><a xlink:title=" ">
<path fill="none" stroke="#63b8ff" d="M37.08,-153.23C47.4,-158.1 60.78,-164.1 73,-168.62 78.26,-170.57 83.82,-172.46 89.38,-174.24"/>
<polygon fill="#63b8ff" stroke="#63b8ff" points="87.96,-177.46 98.54,-177.07 90.02,-170.77 87.96,-177.46"/>
</a>
</g>
</g>
<!-- Node28 -->
<g id="Node000028" class="node">
<title>Node28</title>
<g id="a_Node000028"><a xlink:href="a00517.xhtml#aa078a8242089a58179280c824f8ca4f9" target="_top" xlink:title=" ">
<polygon fill="white" stroke="#666666" points="187.25,-234.25 89.5,-234.25 89.5,-215 187.25,-215 187.25,-234.25"/>
<text text-anchor="middle" x="138.38" y="-220.75" font-family="Helvetica,sans-Serif" font-size="10.00">CNoveltyIf::destroy</text>
</a>
</g>
</g>
<!-- Node1&#45;&gt;Node28 -->
<g id="edge30_Node000001_Node000028" class="edge">
<title>Node1&#45;&gt;Node28</title>
<g id="a_edge30_Node000001_Node000028"><a xlink:title=" ">
<path fill="none" stroke="#63b8ff" d="M25.42,-154.61C34.12,-168.38 51.64,-193.06 73,-206.62 74.87,-207.81 76.83,-208.93 78.84,-209.97"/>
<polygon fill="#63b8ff" stroke="#63b8ff" points="77.31,-213.12 87.87,-213.97 80.15,-206.72 77.31,-213.12"/>
</a>
</g>
</g>
<!-- Node29 -->
<g id="Node000029" class="node">
<title>Node29</title>
<g id="a_Node000029"><a xlink:href="a00517.xhtml#ad8d7e7b4f827b2c4e675c252cee9ca14" target="_top" xlink:title=" ">
<polygon fill="white" stroke="#666666" points="201.12,-159.88 75.62,-159.88 75.62,-129.38 201.12,-129.38 201.12,-159.88"/>
<text text-anchor="start" x="83.62" y="-146.38" font-family="Helvetica,sans-Serif" font-size="10.00">CNoveltyIf::getNoveltyIdx</text>
<text text-anchor="middle" x="138.38" y="-135.12" font-family="Helvetica,sans-Serif" font-size="10.00">FromString</text>
</a>
</g>
</g>
<!-- Node1&#45;&gt;Node29 -->
<g id="edge32_Node000001_Node000029" class="edge">
<title>Node1&#45;&gt;Node29</title>
<g id="a_edge32_Node000001_Node000029"><a xlink:title=" ">
<path fill="none" stroke="#63b8ff" d="M37.4,-144.62C44.89,-144.62 54.13,-144.62 63.94,-144.62"/>
<polygon fill="#63b8ff" stroke="#63b8ff" points="63.69,-148.13 73.69,-144.63 63.69,-141.13 63.69,-148.13"/>
</a>
</g>
</g>
<!-- Node30 -->
<g id="Node000030" class="node">
<title>Node30</title>
<g id="a_Node000030"><a xlink:href="a00517.xhtml#aa4193070cac8cac64ad8dc222fb612e8" target="_top" xlink:title=" ">
<polygon fill="white" stroke="#666666" points="203.75,-111.25 73,-111.25 73,-92 203.75,-92 203.75,-111.25"/>
<text text-anchor="middle" x="138.38" y="-97.75" font-family="Helvetica,sans-Serif" font-size="10.00">CNoveltyIf::getNumBlocks</text>
</a>
</g>
</g>
<!-- Node1&#45;&gt;Node30 -->
<g id="edge33_Node000001_Node000030" class="edge">
<title>Node1&#45;&gt;Node30</title>
<g id="a_edge33_Node000001_Node000030"><a xlink:title=" ">
<path fill="none" stroke="#63b8ff" d="M37.08,-136.02C47.4,-131.15 60.78,-125.15 73,-120.62 78.26,-118.68 83.82,-116.79 89.38,-115.01"/>
<polygon fill="#63b8ff" stroke="#63b8ff" points="90.02,-118.48 98.54,-112.18 87.96,-111.79 90.02,-118.48"/>
</a>
</g>
</g>
<!-- Node32 -->
<g id="Node000032" class="node">
<title>Node32</title>
<g id="a_Node000032"><a xlink:href="a00517.xhtml#a97fd24dca5d494d038486b7c6cb74cce" target="_top" xlink:title=" ">
<polygon fill="white" stroke="#666666" points="203.38,-74.25 73.38,-74.25 73.38,-55 203.38,-55 203.38,-74.25"/>
<text text-anchor="middle" x="138.38" y="-60.75" font-family="Helvetica,sans-Serif" font-size="10.00">CNoveltyIf::getTimeStamp</text>
</a>
</g>
</g>
<!-- Node1&#45;&gt;Node32 -->
<g id="edge35_Node000001_Node000032" class="edge">
<title>Node1&#45;&gt;Node32</title>
<g id="a_edge35_Node000001_Node000032"><a xlink:title=" ">
<path fill="none" stroke="#63b8ff" d="M25.42,-134.64C34.12,-120.87 51.64,-96.19 73,-82.62 74.87,-81.44 76.83,-80.32 78.84,-79.28"/>
<polygon fill="#63b8ff" stroke="#63b8ff" points="80.15,-82.53 87.87,-75.28 77.31,-76.13 80.15,-82.53"/>
</a>
</g>
</g>
<!-- Node33 -->
<g id="Node000033" class="node">
<title>Node33</title>
<g id="a_Node000033"><a xlink:href="a00008.xhtml#a2d0a5ce28a4b0030ec0353c6f7a0fd64" target="_top" xlink:title=" ">
<polygon fill="white" stroke="#666666" points="170.75,-37.25 106,-37.25 106,-18 170.75,-18 170.75,-37.25"/>
<text text-anchor="middle" x="138.38" y="-23.75" font-family="Helvetica,sans-Serif" font-size="10.00">showClInfo</text>
</a>
</g>
</g>
<!-- Node1&#45;&gt;Node33 -->
<g id="edge36_Node000001_Node000033" class="edge">
<title>Node1&#45;&gt;Node33</title>
<g id="a_edge36_Node000001_Node000033"><a xlink:title=" ">
<path fill="none" stroke="#63b8ff" d="M22.01,-134.8C27.61,-114.86 43.08,-69.52 73,-45.62 79.29,-40.6 86.89,-36.98 94.63,-34.37"/>
<polygon fill="#63b8ff" stroke="#63b8ff" points="95.41,-37.79 104.1,-31.72 93.52,-31.05 95.41,-37.79"/>
</a>
</g>
</g>
<!-- Node3 -->
<g id="Node000003" class="node">
<title>Node3</title>
<g id="a_Node000003"><a xlink:href="a00505.xhtml#a22ff86e4fc2f8d5042159d9c84a7ff14" target="_top" xlink:title=" ">
<polygon fill="white" stroke="#666666" points="367.88,-627.25 281.38,-627.25 281.38,-608 367.88,-608 367.88,-627.25"/>
<text text-anchor="middle" x="324.62" y="-613.75" font-family="Helvetica,sans-Serif" font-size="10.00">CVector::addC_I</text>
</a>
</g>
</g>
<!-- Node2&#45;&gt;Node3 -->
<g id="edge2_Node000002_Node000003" class="edge">
<title>Node2&#45;&gt;Node3</title>
<g id="a_edge2_Node000002_Node000003"><a xlink:title=" ">
<path fill="none" stroke="#63b8ff" d="M141.47,-420.35C148.79,-451.83 176.31,-551.7 239.75,-599.62 248.48,-606.22 259.11,-610.51 269.83,-613.28"/>
<polygon fill="#63b8ff" stroke="#63b8ff" points="268.96,-616.68 279.47,-615.33 270.42,-609.83 268.96,-616.68"/>
</a>
</g>
</g>
<!-- Node4 -->
<g id="Node000004" class="node">
<title>Node4</title>
<g id="a_Node000004"><a xlink:href="a00505.xhtml#abaadac98b1cad18b7b568852bc951696" target="_top" xlink:title=" ">
<polygon fill="white" stroke="#666666" points="362.62,-590.25 286.62,-590.25 286.62,-571 362.62,-571 362.62,-590.25"/>
<text text-anchor="middle" x="324.62" y="-576.75" font-family="Helvetica,sans-Serif" font-size="10.00">CVector::alloc</text>
</a>
</g>
</g>
<!-- Node2&#45;&gt;Node4 -->
<g id="edge3_Node000002_Node000004" class="edge">
<title>Node2&#45;&gt;Node4</title>
<g id="a_edge3_Node000002_Node000004"><a xlink:title=" ">
<path fill="none" stroke="#63b8ff" d="M142.91,-420.74C153.12,-448.37 185.44,-525.52 239.75,-562.62 250.2,-569.76 262.96,-574.15 275.34,-576.82"/>
<polygon fill="#63b8ff" stroke="#63b8ff" points="274.57,-580.24 285.03,-578.55 275.8,-573.34 274.57,-580.24"/>
</a>
</g>
</g>
<!-- Node6 -->
<g id="Node000006" class="node">
<title>Node6</title>
<g id="a_Node000006"><a xlink:href="a00517.xhtml#a9018f2beabd03a9b41d90bde402aa227" target="_top" xlink:title=" ">
<polygon fill="white" stroke="#666666" points="409.5,-553.25 239.75,-553.25 239.75,-534 409.5,-534 409.5,-553.25"/>
<text text-anchor="middle" x="324.62" y="-539.75" font-family="Helvetica,sans-Serif" font-size="10.00">CNoveltyIf::computeMagSpectrum_</text>
</a>
</g>
</g>
<!-- Node2&#45;&gt;Node6 -->
<g id="edge5_Node000002_Node000006" class="edge">
<title>Node2&#45;&gt;Node6</title>
<g id="a_edge5_Node000002_Node000006"><a xlink:title=" ">
<path fill="none" stroke="#63b8ff" d="M145.61,-420.43C159.69,-441.79 196.18,-492.75 239.75,-519.62 246.25,-523.63 253.43,-526.99 260.79,-529.8"/>
<polygon fill="#63b8ff" stroke="#63b8ff" points="259.6,-533.09 270.2,-533.05 261.89,-526.48 259.6,-533.09"/>
</a>
</g>
</g>
<!-- Node7 -->
<g id="Node000007" class="node">
<title>Node7</title>
<g id="a_Node000007"><a xlink:href="a00505.xhtml#a9811f50434dd058d201290b2dc98bfcd" target="_top" xlink:title=" ">
<polygon fill="white" stroke="#666666" points="535.75,-534.25 449.25,-534.25 449.25,-515 535.75,-515 535.75,-534.25"/>
<text text-anchor="middle" x="492.5" y="-520.75" font-family="Helvetica,sans-Serif" font-size="10.00">CVector::mulC_I</text>
</a>
</g>
</g>
<!-- Node2&#45;&gt;Node7 -->
<g id="edge14_Node000002_Node000007" class="edge">
<title>Node2&#45;&gt;Node7</title>
<g id="a_edge14_Node000002_Node000007"><a xlink:title=" ">
<path fill="none" stroke="#63b8ff" d="M148.84,-420.48C165.5,-437.16 201.88,-470.66 239.75,-486.62 304.12,-513.76 384.97,-521.87 437.41,-524.11"/>
<polygon fill="#63b8ff" stroke="#63b8ff" points="437.17,-527.6 447.29,-524.47 437.42,-520.61 437.17,-527.6"/>
</a>
</g>
</g>
<!-- Node8 -->
<g id="Node000008" class="node">
<title>Node8</title>
<g id="a_Node000008"><a xlink:href="a00505.xhtml#a64c5c5686629f104663dd3774e7a6e1b" target="_top" xlink:title=" ">
<polygon fill="white" stroke="#666666" points="373.88,-477.25 275.38,-477.25 275.38,-458 373.88,-458 373.88,-477.25"/>
<text text-anchor="middle" x="324.62" y="-463.75" font-family="Helvetica,sans-Serif" font-size="10.00">CVector::findPeaks</text>
</a>
</g>
</g>
<!-- Node2&#45;&gt;Node8 -->
<g id="edge7_Node000002_Node000008" class="edge">
<title>Node2&#45;&gt;Node8</title>
<g id="a_edge7_Node000002_Node000008"><a xlink:title=" ">
<path fill="none" stroke="#63b8ff" d="M169.14,-420.75C189.07,-427.44 215.9,-436.3 239.75,-443.62 251.61,-447.27 264.47,-451.04 276.47,-454.48"/>
<polygon fill="#63b8ff" stroke="#63b8ff" points="275.17,-457.75 285.75,-457.12 277.09,-451.02 275.17,-457.75"/>
</a>
</g>
</g>
<!-- Node9 -->
<g id="Node000009" class="node">
<title>Node9</title>
<g id="a_Node000009"><a xlink:href="a00505.xhtml#a4cf9544dd96801e3ee47fd1ef2049a1b" target="_top" xlink:title=" ">
<polygon fill="white" stroke="#666666" points="539.5,-458.25 445.5,-458.25 445.5,-439 539.5,-439 539.5,-458.25"/>
<text text-anchor="middle" x="492.5" y="-444.75" font-family="Helvetica,sans-Serif" font-size="10.00">CVector::setValue</text>
</a>
</g>
</g>
<!-- Node2&#45;&gt;Node9 -->
<g id="edge15_Node000002_Node000009" class="edge">
<title>Node2&#45;&gt;Node9</title>
<g id="a_edge15_Node000002_Node000009"><a xlink:title=" ">
<path fill="none" stroke="#63b8ff" d="M200.31,-417.2C265.95,-424.28 369.61,-435.47 433.92,-442.41"/>
<polygon fill="#63b8ff" stroke="#63b8ff" points="433.24,-445.86 443.56,-443.45 433.99,-438.9 433.24,-445.86"/>
</a>
</g>
</g>
<!-- Node10 -->
<g id="Node000010" class="node">
<title>Node10</title>
<g id="a_Node000010"><a xlink:href="a00505.xhtml#aa86bdb0c663d4d52f2765793756f8737" target="_top" xlink:title=" ">
<polygon fill="white" stroke="#666666" points="674.75,-364.25 602.5,-364.25 602.5,-345 674.75,-345 674.75,-364.25"/>
<text text-anchor="middle" x="638.62" y="-350.75" font-family="Helvetica,sans-Serif" font-size="10.00">CVector::free</text>
</a>
</g>
</g>
<!-- Node2&#45;&gt;Node10 -->
<g id="edge9_Node000002_Node000010" class="edge">
<title>Node2&#45;&gt;Node10</title>
<g id="a_edge9_Node000002_Node000010"><a xlink:title=" ">
<path fill="none" stroke="#63b8ff" d="M200.24,-406.5C278.83,-400.78 419.76,-389.26 539.5,-372.62 556.5,-370.26 575.05,-367.03 591.4,-363.96"/>
<polygon fill="#63b8ff" stroke="#63b8ff" points="591.67,-367.47 600.83,-362.15 590.35,-360.59 591.67,-367.47"/>
</a>
</g>
</g>
<!-- Node11 -->
<g id="Node000011" class="node">
<title>Node11</title>
<g id="a_Node000011"><a xlink:href="a00505.xhtml#a9f5be871090bc5a64a7732cebfb4f8ec" target="_top" xlink:title=" ">
<polygon fill="white" stroke="#666666" points="368.25,-363.25 281,-363.25 281,-344 368.25,-344 368.25,-363.25"/>
<text text-anchor="middle" x="324.62" y="-349.75" font-family="Helvetica,sans-Serif" font-size="10.00">CVector::getMax</text>
</a>
</g>
</g>
<!-- Node2&#45;&gt;Node11 -->
<g id="edge10_Node000002_Node000011" class="edge">
<title>Node2&#45;&gt;Node11</title>
<g id="a_edge10_Node000002_Node000011"><a xlink:title=" ">
<path fill="none" stroke="#63b8ff" d="M169.14,-400.5C189.07,-393.81 215.9,-384.95 239.75,-377.62 251.61,-373.98 264.47,-370.21 276.47,-366.77"/>
<polygon fill="#63b8ff" stroke="#63b8ff" points="277.09,-370.23 285.75,-364.13 275.17,-363.5 277.09,-370.23"/>
</a>
</g>
</g>
<!-- Node13 -->
<g id="Node000013" class="node">
<title>Node13</title>
<g id="a_Node000013"><a xlink:href="a00505.xhtml#ae6e3545cf196c5e2409365bc62b7c1de" target="_top" xlink:title=" ">
<polygon fill="white" stroke="#666666" points="371.25,-326.25 278,-326.25 278,-307 371.25,-307 371.25,-326.25"/>
<text text-anchor="middle" x="324.62" y="-312.75" font-family="Helvetica,sans-Serif" font-size="10.00">CVector::getMean</text>
</a>
</g>
</g>
<!-- Node2&#45;&gt;Node13 -->
<g id="edge12_Node000002_Node000013" class="edge">
<title>Node2&#45;&gt;Node13</title>
<g id="a_edge12_Node000002_Node000013"><a xlink:title=" ">
<path fill="none" stroke="#63b8ff" d="M149.22,-400.75C166.16,-384.36 202.59,-351.65 239.75,-334.62 248.12,-330.79 257.35,-327.75 266.52,-325.36"/>
<polygon fill="#63b8ff" stroke="#63b8ff" points="267.22,-328.79 276.15,-323.09 265.62,-321.98 267.22,-328.79"/>
</a>
</g>
</g>
<!-- Node15 -->
<g id="Node000015" class="node">
<title>Node15</title>
<g id="a_Node000015"><a xlink:href="a00505.xhtml#aba07261926b4c10ed7fdbe38edf6d16d" target="_top" xlink:title=" ">
<polygon fill="white" stroke="#666666" points="397.5,-289.25 251.75,-289.25 251.75,-270 397.5,-270 397.5,-289.25"/>
<text text-anchor="middle" x="324.62" y="-275.75" font-family="Helvetica,sans-Serif" font-size="10.00">CVector::setZeroBelowThresh</text>
</a>
</g>
</g>
<!-- Node2&#45;&gt;Node15 -->
<g id="edge16_Node000002_Node000015" class="edge">
<title>Node2&#45;&gt;Node15</title>
<g id="a_edge16_Node000002_Node000015"><a xlink:title=" ">
<path fill="none" stroke="#63b8ff" d="M145.17,-400.56C158.65,-378.16 194.42,-324.06 239.75,-297.62 241.95,-296.34 244.22,-295.16 246.55,-294.05"/>
<polygon fill="#63b8ff" stroke="#63b8ff" points="247.78,-297.33 255.71,-290.3 245.13,-290.85 247.78,-297.33"/>
</a>
</g>
</g>
<!-- Node16 -->
<g id="Node000016" class="node">
<title>Node16</title>
<g id="a_Node000016"><a xlink:href="a00505.xhtml#a39329371d828db80c2f0ad037074c998" target="_top" xlink:title=" ">
<polygon fill="white" stroke="#666666" points="364.5,-252.25 284.75,-252.25 284.75,-233 364.5,-233 364.5,-252.25"/>
<text text-anchor="middle" x="324.62" y="-238.75" font-family="Helvetica,sans-Serif" font-size="10.00">CVector::sub_I</text>
</a>
</g>
</g>
<!-- Node2&#45;&gt;Node16 -->
<g id="edge17_Node000002_Node000016" class="edge">
<title>Node2&#45;&gt;Node16</title>
<g id="a_edge17_Node000002_Node000016"><a xlink:title=" ">
<path fill="none" stroke="#63b8ff" d="M142.95,-400.64C153.26,-373.37 185.82,-297.22 239.75,-260.62 249.65,-253.91 261.59,-249.63 273.33,-246.93"/>
<polygon fill="#63b8ff" stroke="#63b8ff" points="273.79,-250.41 282.95,-245.08 272.47,-243.53 273.79,-250.41"/>
</a>
</g>
</g>
<!-- Node5 -->
<g id="Node000005" class="node">
<title>Node5</title>
<g id="a_Node000005"><a xlink:href="a00505.xhtml#a6dbb3f9f480568b60f7fe50090d20003" target="_top" xlink:title=" ">
<polygon fill="white" stroke="#666666" points="536.88,-590.25 448.12,-590.25 448.12,-571 536.88,-571 536.88,-590.25"/>
<text text-anchor="middle" x="492.5" y="-576.75" font-family="Helvetica,sans-Serif" font-size="10.00">CVector::setZero</text>
</a>
</g>
</g>
<!-- Node4&#45;&gt;Node5 -->
<g id="edge4_Node000004_Node000005" class="edge">
<title>Node4&#45;&gt;Node5</title>
<g id="a_edge4_Node000004_Node000005"><a xlink:title=" ">
<path fill="none" stroke="#63b8ff" d="M362.85,-580.62C384.44,-580.62 412.04,-580.62 436.13,-580.62"/>
<polygon fill="#63b8ff" stroke="#63b8ff" points="436.12,-584.13 446.12,-580.63 436.12,-577.13 436.12,-584.13"/>
</a>
</g>
</g>
<!-- Node6&#45;&gt;Node7 -->
<g id="edge6_Node000006_Node000007" class="edge">
<title>Node6&#45;&gt;Node7</title>
<g id="a_edge6_Node000006_Node000007"><a xlink:title=" ">
<path fill="none" stroke="#63b8ff" d="M409.53,-534.01C419.14,-532.91 428.73,-531.82 437.78,-530.78"/>
<polygon fill="#63b8ff" stroke="#63b8ff" points="437.89,-534.29 447.42,-529.67 437.09,-527.33 437.89,-534.29"/>
</a>
</g>
</g>
<!-- Node8&#45;&gt;Node9 -->
<g id="edge8_Node000008_Node000009" class="edge">
<title>Node8&#45;&gt;Node9</title>
<g id="a_edge8_Node000008_Node000009"><a xlink:title=" ">
<path fill="none" stroke="#63b8ff" d="M374.05,-462.08C392.75,-459.94 414.31,-457.47 433.81,-455.23"/>
<polygon fill="#63b8ff" stroke="#63b8ff" points="433.97,-458.74 443.51,-454.12 433.18,-451.78 433.97,-458.74"/>
</a>
</g>
</g>
<!-- Node12 -->
<g id="Node000012" class="node">
<title>Node12</title>
<g id="a_Node000012"><a xlink:href="a00505.xhtml#a34a5c0abd80cd982df8a8bae7cbcea19" target="_top" xlink:title=" ">
<polygon fill="white" stroke="#666666" points="536.88,-363.25 448.12,-363.25 448.12,-344 536.88,-344 536.88,-363.25"/>
<text text-anchor="middle" x="492.5" y="-349.75" font-family="Helvetica,sans-Serif" font-size="10.00">CVector::findMax</text>
</a>
</g>
</g>
<!-- Node11&#45;&gt;Node12 -->
<g id="edge11_Node000011_Node000012" class="edge">
<title>Node11&#45;&gt;Node12</title>
<g id="a_edge11_Node000011_Node000012"><a xlink:title=" ">
<path fill="none" stroke="#63b8ff" d="M368.34,-353.62C389.1,-353.62 414.3,-353.62 436.49,-353.62"/>
<polygon fill="#63b8ff" stroke="#63b8ff" points="436.26,-357.13 446.26,-353.63 436.26,-350.13 436.26,-357.13"/>
</a>
</g>
</g>
<!-- Node14 -->
<g id="Node000014" class="node">
<title>Node14</title>
<g id="a_Node000014"><a xlink:href="a00505.xhtml#abdbcc3898121387f3694f74491b7331e" target="_top" xlink:title=" ">
<polygon fill="white" stroke="#666666" points="537.25,-326.25 447.75,-326.25 447.75,-307 537.25,-307 537.25,-326.25"/>
<text text-anchor="middle" x="492.5" y="-312.75" font-family="Helvetica,sans-Serif" font-size="10.00">CVector::getSum</text>
</a>
</g>
</g>
<!-- Node13&#45;&gt;Node14 -->
<g id="edge13_Node000013_Node000014" class="edge">
<title>Node13&#45;&gt;Node14</title>
<g id="a_edge13_Node000013_Node000014"><a xlink:title=" ">
<path fill="none" stroke="#63b8ff" d="M371.39,-316.62C391.38,-316.62 414.99,-316.62 435.97,-316.62"/>
<polygon fill="#63b8ff" stroke="#63b8ff" points="435.8,-320.13 445.8,-316.63 435.8,-313.13 435.8,-320.13"/>
</a>
</g>
</g>
<!-- Node18 -->
<g id="Node000018" class="node">
<title>Node18</title>
<g id="a_Node000018"><a xlink:href="a00517.xhtml#a120b69bf1f92d3f00ef515518a9dc604" target="_top" xlink:title=" ">
<polygon fill="white" stroke="#666666" points="380.62,-215.25 268.62,-215.25 268.62,-196 380.62,-196 380.62,-215.25"/>
<text text-anchor="middle" x="324.62" y="-201.75" font-family="Helvetica,sans-Serif" font-size="10.00">CNoveltyIf::CNoveltyIf</text>
</a>
</g>
</g>
<!-- Node17&#45;&gt;Node18 -->
<g id="edge19_Node000017_Node000018" class="edge">
<title>Node17&#45;&gt;Node18</title>
<g id="a_edge19_Node000017_Node000018"><a xlink:title=" ">
<path fill="none" stroke="#63b8ff" d="M185.39,-192.12C207.01,-194.23 233.19,-196.79 256.93,-199.11"/>
<polygon fill="#63b8ff" stroke="#63b8ff" points="256.56,-202.59 266.85,-200.08 257.24,-195.62 256.56,-202.59"/>
</a>
</g>
</g>
<!-- Node27 -->
<g id="Node000027" class="node">
<title>Node27</title>
<g id="a_Node000027"><a xlink:href="a00501.xhtml#a6d0e75b0bcbbb243b7141cfc0126e443" target="_top" xlink:title=" ">
<polygon fill="white" stroke="#666666" points="367.12,-178.25 282.12,-178.25 282.12,-159 367.12,-159 367.12,-178.25"/>
<text text-anchor="middle" x="324.62" y="-164.75" font-family="Helvetica,sans-Serif" font-size="10.00">CUtil::isPowOf2</text>
</a>
</g>
</g>
<!-- Node17&#45;&gt;Node27 -->
<g id="edge29_Node000017_Node000027" class="edge">
<title>Node17&#45;&gt;Node27</title>
<g id="a_edge29_Node000017_Node000027"><a xlink:title=" ">
<path fill="none" stroke="#63b8ff" d="M185.39,-182.88C211.23,-180.22 243.58,-176.88 270.49,-174.1"/>
<polygon fill="#63b8ff" stroke="#63b8ff" points="270.56,-177.62 280.15,-173.11 269.84,-170.65 270.56,-177.62"/>
</a>
</g>
</g>
<!-- Node19 -->
<g id="Node000019" class="node">
<title>Node19</title>
<g id="a_Node000019"><a xlink:href="a00517.xhtml#a119fc32e085bb978525ea9596ee2e9c1" target="_top" xlink:title="reset configuration">
<polygon fill="white" stroke="#666666" points="539.12,-252.25 445.88,-252.25 445.88,-233 539.12,-233 539.12,-252.25"/>
<text text-anchor="middle" x="492.5" y="-238.75" font-family="Helvetica,sans-Serif" font-size="10.00">CNoveltyIf::reset_</text>
</a>
</g>
</g>
<!-- Node18&#45;&gt;Node19 -->
<g id="edge20_Node000018_Node000019" class="edge">
<title>Node18&#45;&gt;Node19</title>
<g id="a_edge20_Node000018_Node000019"><a xlink:title=" ">
<path fill="none" stroke="#63b8ff" d="M373.12,-215.68C385.01,-218.23 397.73,-221 409.5,-223.62 418.52,-225.64 428.1,-227.82 437.4,-229.96"/>
<polygon fill="#63b8ff" stroke="#63b8ff" points="436.54,-233.35 447.07,-232.19 438.12,-226.53 436.54,-233.35"/>
</a>
</g>
</g>
<!-- Node19&#45;&gt;Node10 -->
<g id="edge28_Node000019_Node000010" class="edge">
<title>Node19&#45;&gt;Node10</title>
<g id="a_edge28_Node000019_Node000010"><a xlink:title=" ">
<path fill="none" stroke="#63b8ff" d="M506.29,-252.56C530.91,-271.69 585.13,-313.83 615.65,-337.55"/>
<polygon fill="#63b8ff" stroke="#63b8ff" points="613.42,-340.25 623.46,-343.62 617.71,-334.72 613.42,-340.25"/>
</a>
</g>
</g>
<!-- Node20 -->
<g id="Node000020" class="node">
<title>Node20</title>
<g id="a_Node000020"><a xlink:href="a00545.xhtml#a13d2bd6e36210dde0c64d188c1266b88" target="_top" xlink:title=" ">
<polygon fill="white" stroke="#666666" points="695.75,-289.25 581.5,-289.25 581.5,-270 695.75,-270 695.75,-289.25"/>
<text text-anchor="middle" x="638.62" y="-275.75" font-family="Helvetica,sans-Serif" font-size="10.00">CBlockAudioIf::destroy</text>
</a>
</g>
</g>
<!-- Node19&#45;&gt;Node20 -->
<g id="edge21_Node000019_Node000020" class="edge">
<title>Node19&#45;&gt;Node20</title>
<g id="a_edge21_Node000019_Node000020"><a xlink:title=" ">
<path fill="none" stroke="#63b8ff" d="M532.88,-252.74C549.64,-257.04 569.4,-262.11 587.21,-266.68"/>
<polygon fill="#63b8ff" stroke="#63b8ff" points="586.27,-270.05 596.82,-269.15 588.01,-263.27 586.27,-270.05"/>
</a>
</g>
</g>
<!-- Node22 -->
<g id="Node000022" class="node">
<title>Node22</title>
<g id="a_Node000022"><a xlink:href="a00589.xhtml#a5a6b1921f58c43d9daa618a97e62754f" target="_top" xlink:title=" ">
<polygon fill="white" stroke="#666666" points="701.75,-252.25 575.5,-252.25 575.5,-233 701.75,-233 701.75,-252.25"/>
<text text-anchor="middle" x="638.62" y="-238.75" font-family="Helvetica,sans-Serif" font-size="10.00">CMovingAverage::destroy</text>
</a>
</g>
</g>
<!-- Node19&#45;&gt;Node22 -->
<g id="edge23_Node000019_Node000022" class="edge">
<title>Node19&#45;&gt;Node22</title>
<g id="a_edge23_Node000019_Node000022"><a xlink:title=" ">
<path fill="none" stroke="#63b8ff" d="M539.5,-242.62C547.31,-242.62 555.6,-242.62 563.92,-242.62"/>
<polygon fill="#63b8ff" stroke="#63b8ff" points="563.73,-246.13 573.73,-242.63 563.73,-239.13 563.73,-246.13"/>
</a>
</g>
</g>
<!-- Node25 -->
<g id="Node000025" class="node">
<title>Node25</title>
<g id="a_Node000025"><a xlink:href="a00521.xhtml#a2066599bb659fd90d13bc8a57dec005e" target="_top" xlink:title=" ">
<polygon fill="white" stroke="#666666" points="693.12,-214.88 584.12,-214.88 584.12,-184.38 693.12,-184.38 693.12,-214.88"/>
<text text-anchor="start" x="592.12" y="-201.38" font-family="Helvetica,sans-Serif" font-size="10.00">CNoveltyFromBlockIf</text>
<text text-anchor="middle" x="638.62" y="-190.12" font-family="Helvetica,sans-Serif" font-size="10.00">::destroy</text>
</a>
</g>
</g>
<!-- Node19&#45;&gt;Node25 -->
<g id="edge26_Node000019_Node000025" class="edge">
<title>Node19&#45;&gt;Node25</title>
<g id="a_edge26_Node000019_Node000025"><a xlink:title=" ">
<path fill="none" stroke="#63b8ff" d="M527.29,-232.54C541.22,-228.39 557.83,-223.43 573.88,-218.64"/>
<polygon fill="#63b8ff" stroke="#63b8ff" points="574.84,-222.01 583.42,-215.8 572.83,-215.3 574.84,-222.01"/>
</a>
</g>
</g>
<!-- Node21 -->
<g id="Node000021" class="node">
<title>Node21</title>
<g id="a_Node000021"><a xlink:href="a00545.xhtml#a25b4acfbc219a671933702aaf97229fd" target="_top" xlink:title=" ">
<polygon fill="white" stroke="#666666" points="894.75,-289.25 749.75,-289.25 749.75,-270 894.75,-270 894.75,-289.25"/>
<text text-anchor="middle" x="822.25" y="-275.75" font-family="Helvetica,sans-Serif" font-size="10.00">CBlockAudioIf::CBlockAudioIf</text>
</a>
</g>
</g>
<!-- Node20&#45;&gt;Node21 -->
<g id="edge22_Node000020_Node000021" class="edge">
<title>Node20&#45;&gt;Node21</title>
<g id="a_edge22_Node000020_Node000021"><a xlink:title=" ">
<path fill="none" stroke="#63b8ff" d="M696.1,-279.62C709.41,-279.62 723.87,-279.62 738.09,-279.62"/>
<polygon fill="#63b8ff" stroke="#63b8ff" points="737.89,-283.13 747.89,-279.63 737.89,-276.13 737.89,-283.13"/>
</a>
</g>
</g>
<!-- Node23 -->
<g id="Node000023" class="node">
<title>Node23</title>
<g id="a_Node000023"><a xlink:href="a00589.xhtml#aa02ee977828ff103f3e2c25889131122" target="_top" xlink:title=" ">
<polygon fill="white" stroke="#666666" points="906.75,-252.25 737.75,-252.25 737.75,-233 906.75,-233 906.75,-252.25"/>
<text text-anchor="middle" x="822.25" y="-238.75" font-family="Helvetica,sans-Serif" font-size="10.00">CMovingAverage::CMovingAverage</text>
</a>
</g>
</g>
<!-- Node22&#45;&gt;Node23 -->
<g id="edge24_Node000022_Node000023" class="edge">
<title>Node22&#45;&gt;Node23</title>
<g id="a_edge24_Node000022_Node000023"><a xlink:title=" ">
<path fill="none" stroke="#63b8ff" d="M702.13,-242.62C709.87,-242.62 717.92,-242.62 726.01,-242.62"/>
<polygon fill="#63b8ff" stroke="#63b8ff" points="725.95,-246.13 735.95,-242.63 725.95,-239.13 725.95,-246.13"/>
</a>
</g>
</g>
<!-- Node24 -->
<g id="Node000024" class="node">
<title>Node24</title>
<g id="a_Node000024"><a xlink:href="a00589.xhtml#a9681799055b5a4622d25a70901a65af3" target="_top" xlink:title=" ">
<polygon fill="white" stroke="#666666" points="1059.25,-252.25 942.75,-252.25 942.75,-233 1059.25,-233 1059.25,-252.25"/>
<text text-anchor="middle" x="1001" y="-238.75" font-family="Helvetica,sans-Serif" font-size="10.00">CMovingAverage::reset</text>
</a>
</g>
</g>
<!-- Node23&#45;&gt;Node24 -->
<g id="edge25_Node000023_Node000024" class="edge">
<title>Node23&#45;&gt;Node24</title>
<g id="a_edge25_Node000023_Node000024"><a xlink:title=" ">
<path fill="none" stroke="#63b8ff" d="M907.23,-242.62C915.24,-242.62 923.31,-242.62 931.16,-242.62"/>
<polygon fill="#63b8ff" stroke="#63b8ff" points="930.97,-246.13 940.97,-242.63 930.97,-239.13 930.97,-246.13"/>
</a>
</g>
</g>
<!-- Node26 -->
<g id="Node000026" class="node">
<title>Node26</title>
<g id="a_Node000026"><a xlink:href="a00521.xhtml#a55adbc3ecfeffbeb621875bb56f3bf7f" target="_top" xlink:title=" ">
<polygon fill="white" stroke="#666666" points="879,-214.88 765.5,-214.88 765.5,-184.38 879,-184.38 879,-214.88"/>
<text text-anchor="start" x="773.5" y="-201.38" font-family="Helvetica,sans-Serif" font-size="10.00">CNoveltyFromBlockIf</text>
<text text-anchor="middle" x="822.25" y="-190.12" font-family="Helvetica,sans-Serif" font-size="10.00">::CNoveltyFromBlockIf</text>
</a>
</g>
</g>
<!-- Node25&#45;&gt;Node26 -->
<g id="edge27_Node000025_Node000026" class="edge">
<title>Node25&#45;&gt;Node26</title>
<g id="a_edge27_Node000025_Node000026"><a xlink:title=" ">
<path fill="none" stroke="#63b8ff" d="M693.14,-199.62C712.21,-199.62 733.93,-199.62 754.01,-199.62"/>
<polygon fill="#63b8ff" stroke="#63b8ff" points="753.77,-203.13 763.77,-199.63 753.77,-196.13 753.77,-203.13"/>
</a>
</g>
</g>
<!-- Node28&#45;&gt;Node18 -->
<g id="edge31_Node000028_Node000018" class="edge">
<title>Node28&#45;&gt;Node18</title>
<g id="a_edge31_Node000028_Node000018"><a xlink:title=" ">
<path fill="none" stroke="#63b8ff" d="M187.3,-219.68C208.65,-217.48 234.15,-214.85 257.29,-212.47"/>
<polygon fill="#63b8ff" stroke="#63b8ff" points="257.34,-215.98 266.93,-211.47 256.62,-209.02 257.34,-215.98"/>
</a>
</g>
</g>
<!-- Node31 -->
<g id="Node000031" class="node">
<title>Node31</title>
<g id="a_Node000031"><a xlink:href="a00517.xhtml#a2957fc23663fb6b67fabb6ecda9ae0bd" target="_top" xlink:title=" ">
<polygon fill="white" stroke="#666666" points="390,-111.25 259.25,-111.25 259.25,-92 390,-92 390,-111.25"/>
<text text-anchor="middle" x="324.62" y="-97.75" font-family="Helvetica,sans-Serif" font-size="10.00">CNoveltyIf::getNumBlocks</text>
</a>
</g>
</g>
<!-- Node30&#45;&gt;Node31 -->
<g id="edge34_Node000030_Node000031" class="edge">
<title>Node30&#45;&gt;Node31</title>
<g id="a_edge34_Node000030_Node000031"><a xlink:title=" ">
<path fill="none" stroke="#63b8ff" d="M204.08,-101.62C218.07,-101.62 232.99,-101.62 247.37,-101.62"/>
<polygon fill="#63b8ff" stroke="#63b8ff" points="247.26,-105.13 257.26,-101.63 247.26,-98.13 247.26,-105.13"/>
</a>
</g>
</g>
<!-- Node34 -->
<g id="Node000034" class="node">
<title>Node34</title>
<g id="a_Node000034"><a xlink:href="a00089.xhtml#a352c17bde18dd0d9c3989f6050b060b0" target="_top" xlink:title=" ">
<polygon fill="white" stroke="#666666" points="369,-56.25 280.25,-56.25 280.25,-37 369,-37 369,-56.25"/>
<text text-anchor="middle" x="324.62" y="-42.75" font-family="Helvetica,sans-Serif" font-size="10.00">getAcaBuildDate</text>
</a>
</g>
</g>
<!-- Node33&#45;&gt;Node34 -->
<g id="edge37_Node000033_Node000034" class="edge">
<title>Node33&#45;&gt;Node34</title>
<g id="a_edge37_Node000033_Node000034"><a xlink:title=" ">
<path fill="none" stroke="#63b8ff" d="M171.05,-30.89C197.81,-33.65 236.75,-37.67 268.59,-40.95"/>
<polygon fill="#63b8ff" stroke="#63b8ff" points="268.15,-44.42 278.46,-41.97 268.87,-37.46 268.15,-44.42"/>
</a>
</g>
</g>
<!-- Node35 -->
<g id="Node000035" class="node">
<title>Node35</title>
<g id="a_Node000035"><a xlink:href="a00089.xhtml#aeca12b465ae15d8b8e775e1b0cfec9f3" target="_top" xlink:title=" ">
<polygon fill="white" stroke="#666666" points="364.5,-19.25 284.75,-19.25 284.75,0 364.5,0 364.5,-19.25"/>
<text text-anchor="middle" x="324.62" y="-5.75" font-family="Helvetica,sans-Serif" font-size="10.00">getAcaVersion</text>
</a>
</g>
</g>
<!-- Node33&#45;&gt;Node35 -->
<g id="edge38_Node000033_Node000035" class="edge">
<title>Node33&#45;&gt;Node35</title>
<g id="a_edge38_Node000033_Node000035"><a xlink:title=" ">
<path fill="none" stroke="#63b8ff" d="M171.05,-24.53C199.12,-21.79 240.6,-17.74 273.23,-14.55"/>
<polygon fill="#63b8ff" stroke="#63b8ff" points="273.24,-18.06 282.85,-13.61 272.56,-11.1 273.24,-18.06"/>
</a>
</g>
</g>
</g>
</svg>
