<?xml version="1.0" encoding="UTF-8" standalone="no"?>
<!DOCTYPE svg PUBLIC "-//W3C//DTD SVG 1.1//EN"
 "http://www.w3.org/Graphics/SVG/1.1/DTD/svg11.dtd">
<!-- Generated by graphviz version 12.2.1 (20241206.2353)
 -->
<!-- Title: ToolFingerprint.cpp Pages: 1 -->
<!--zoomable 414 -->

<svg id="main" version="1.1" xmlns="http://www.w3.org/2000/svg" xmlns:xlink="http://www.w3.org/1999/xlink" xml:space="preserve" onload="init(evt)">

<style type="text/css"><![CDATA[
.node, .edge {opacity: 0.7;}
.node.selected, .edge.selected {opacity: 1;}
.edge:hover path { stroke: red; }
.edge:hover polygon { stroke: red; fill: red; }
]]></style>

<defs>
  <circle id="rim" cx="0" cy="0" r="7"/>
  <circle id="rim2" cx="0" cy="0" r="3.5"/>
  <g id="zoomPlus">
    <use xlink:href="#rim" fill="#404040"><set attributeName="fill" to="#808080" begin="zoomplus.mouseover" end="zoomplus.mouseout"/></use>
    <path d="M-4,0h8M0,-4v8" fill="none" stroke="white" stroke-width="1.5" pointer-events="none"/>
  </g>
  <g id="zoomMin">
    <use xlink:href="#rim" fill="#404040"><set attributeName="fill" to="#808080" begin="zoomminus.mouseover" end="zoomminus.mouseout"/></use>
    <path d="M-4,0h8" fill="none" stroke="white" stroke-width="1.5" pointer-events="none"/>
  </g>
  <g id="arrowUp" transform="translate(30 24)">
    <use xlink:href="#rim"/>
    <path pointer-events="none" fill="none" stroke="white" stroke-width="1.5" d="M0,-3.0v7 M-2.5,-0.5L0,-3.0L2.5,-0.5"/>
  </g>
  <g id="arrowRight" transform="rotate(90) translate(36 -43)">
    <use xlink:href="#rim"/>
    <path pointer-events="none" fill="none" stroke="white" stroke-width="1.5" d="M0,-3.0v7 M-2.5,-0.5L0,-3.0L2.5,-0.5"/>
  </g>
  <g id="arrowDown" transform="rotate(180) translate(-30 -48)">
    <use xlink:href="#rim"/>
    <path pointer-events="none" fill="none" stroke="white" stroke-width="1.5" d="M0,-3.0v7 M-2.5,-0.5L0,-3.0L2.5,-0.5"/>
  </g>
  <g id="arrowLeft" transform="rotate(270) translate(-36 17)">
    <use xlink:href="#rim"/>
    <path pointer-events="none" fill="none" stroke="white" stroke-width="1.5" d="M0,-3.0v7 M-2.5,-0.5L0,-3.0L2.5,-0.5"/>
  </g>
  <g id="resetDef">
    <use xlink:href="#rim2" fill="#404040"><set attributeName="fill" to="#808080" begin="reset.mouseover" end="reset.mouseout"/></use>
  </g>
</defs>
<script type="application/ecmascript">
var viewWidth = 956;
var viewHeight = 414;
var sectionId = 'dynsection-0';
</script>
<script type="application/ecmascript" xlink:href="svg.min.js"/>
<svg id="graph" class="graph">
<g id="viewport">
<title>ToolFingerprint.cpp</title>
<!-- Node1 -->
<g id="Node000001" class="node">
<title>Node1</title>
<g id="a_Node000001"><a xlink:title=" ">
<polygon fill="#999999" stroke="#666666" points="651.88,-406 553.38,-406 553.38,-386.75 651.88,-386.75 651.88,-406"/>
<text text-anchor="middle" x="602.62" y="-392.5" font-family="Helvetica,sans-Serif" font-size="10.00">ToolFingerprint.cpp</text>
</a>
</g>
</g>
<!-- Node2 -->
<g id="Node000002" class="node">
<title>Node2</title>
<g id="a_Node000002"><a xlink:href="a00191.xhtml" target="_top" xlink:title=" ">
<polygon fill="white" stroke="#666666" points="125.88,-74.5 87.38,-74.5 87.38,-55.25 125.88,-55.25 125.88,-74.5"/>
<text text-anchor="middle" x="106.62" y="-61" font-family="Helvetica,sans-Serif" font-size="10.00">Util.h</text>
</a>
</g>
</g>
<!-- Node1&#45;&gt;Node2 -->
<g id="edge1_Node000001_Node000002" class="edge">
<title>Node1&#45;&gt;Node2</title>
<g id="a_edge1_Node000001_Node000002"><a xlink:title=" ">
<path fill="none" stroke="#63b8ff" d="M552.94,-396.02C417.8,-396.43 53.62,-388.16 53.62,-286.88 53.62,-286.88 53.62,-286.88 53.62,-229.62 53.62,-174.78 80.87,-114.4 96.29,-84.62"/>
<polygon fill="#63b8ff" stroke="#63b8ff" points="99.21,-86.58 100.83,-76.11 93.04,-83.29 99.21,-86.58"/>
</a>
</g>
</g>
<!-- Node6 -->
<g id="Node000006" class="node">
<title>Node6</title>
<g id="a_Node000006"><a xlink:href="a00188.xhtml" target="_top" xlink:title=" ">
<polygon fill="white" stroke="#666666" points="482.5,-240.25 432.75,-240.25 432.75,-221 482.5,-221 482.5,-240.25"/>
<text text-anchor="middle" x="457.62" y="-226.75" font-family="Helvetica,sans-Serif" font-size="10.00">Matrix.h</text>
</a>
</g>
</g>
<!-- Node1&#45;&gt;Node6 -->
<g id="edge5_Node000001_Node000006" class="edge">
<title>Node1&#45;&gt;Node6</title>
<g id="a_edge5_Node000001_Node000006"><a xlink:title=" ">
<path fill="none" stroke="#63b8ff" d="M585.6,-386.46C558.48,-371.38 505.56,-338.27 476.62,-295.5 467.78,-282.43 462.97,-265.15 460.4,-251.86"/>
<polygon fill="#63b8ff" stroke="#63b8ff" points="463.87,-251.41 458.81,-242.1 456.96,-252.54 463.87,-251.41"/>
</a>
</g>
</g>
<!-- Node8 -->
<g id="Node000008" class="node">
<title>Node8</title>
<g id="a_Node000008"><a xlink:href="a00185.xhtml" target="_top" xlink:title=" ">
<polygon fill="white" stroke="#666666" points="375.62,-185 323.62,-185 323.62,-165.75 375.62,-165.75 375.62,-185"/>
<text text-anchor="middle" x="349.62" y="-171.5" font-family="Helvetica,sans-Serif" font-size="10.00">Vector.h</text>
</a>
</g>
</g>
<!-- Node1&#45;&gt;Node8 -->
<g id="edge18_Node000001_Node000008" class="edge">
<title>Node1&#45;&gt;Node8</title>
<g id="a_edge18_Node000001_Node000008"><a xlink:title=" ">
<path fill="none" stroke="#63b8ff" d="M553.11,-395.07C479.46,-393.45 346.49,-385.63 316.62,-350.75 277.95,-305.57 316.36,-229.38 337.6,-194.63"/>
<polygon fill="#63b8ff" stroke="#63b8ff" points="340.33,-196.86 342.72,-186.54 334.42,-193.12 340.33,-196.86"/>
</a>
</g>
</g>
<!-- Node13 -->
<g id="Node000013" class="node">
<title>Node13</title>
<g id="a_Node000013"><a xlink:href="a00218.xhtml" target="_top" xlink:title=" ">
<polygon fill="white" stroke="#666666" points="727.62,-240.25 657.62,-240.25 657.62,-221 727.62,-221 727.62,-240.25"/>
<text text-anchor="middle" x="692.62" y="-226.75" font-family="Helvetica,sans-Serif" font-size="10.00">AudioFileIf.h</text>
</a>
</g>
</g>
<!-- Node1&#45;&gt;Node13 -->
<g id="edge19_Node000001_Node000013" class="edge">
<title>Node1&#45;&gt;Node13</title>
<g id="a_edge19_Node000001_Node000013"><a xlink:title=" ">
<path fill="none" stroke="#63b8ff" d="M612.82,-386.28C621.86,-377.79 634.93,-364.42 643.62,-350.75 664.27,-318.31 679.29,-275.7 686.92,-251.23"/>
<polygon fill="#63b8ff" stroke="#63b8ff" points="690.18,-252.54 689.72,-241.96 683.48,-250.52 690.18,-252.54"/>
</a>
</g>
</g>
<!-- Node16 -->
<g id="Node000016" class="node">
<title>Node16</title>
<g id="a_Node000016"><a xlink:href="a00200.xhtml" target="_top" xlink:title=" ">
<polygon fill="white" stroke="#666666" points="856.38,-295.5 820.88,-295.5 820.88,-276.25 856.38,-276.25 856.38,-295.5"/>
<text text-anchor="middle" x="838.62" y="-282" font-family="Helvetica,sans-Serif" font-size="10.00">Fft.h</text>
</a>
</g>
</g>
<!-- Node1&#45;&gt;Node16 -->
<g id="edge24_Node000001_Node000016" class="edge">
<title>Node1&#45;&gt;Node16</title>
<g id="a_edge24_Node000001_Node000016"><a xlink:title=" ">
<path fill="none" stroke="#63b8ff" d="M652.18,-388.22C686.19,-381.85 731.52,-370.4 767.62,-350.75 789.61,-338.79 810.35,-318.73 823.67,-304.28"/>
<polygon fill="#63b8ff" stroke="#63b8ff" points="826.24,-306.65 830.29,-296.86 821.02,-301.99 826.24,-306.65"/>
</a>
</g>
</g>
<!-- Node17 -->
<g id="Node000017" class="node">
<title>Node17</title>
<g id="a_Node000017"><a xlink:href="a00230.xhtml" target="_top" xlink:title=" ">
<polygon fill="white" stroke="#666666" points="563.38,-295.5 485.88,-295.5 485.88,-276.25 563.38,-276.25 563.38,-295.5"/>
<text text-anchor="middle" x="524.62" y="-282" font-family="Helvetica,sans-Serif" font-size="10.00">ToolPreProc.h</text>
</a>
</g>
</g>
<!-- Node1&#45;&gt;Node17 -->
<g id="edge26_Node000001_Node000017" class="edge">
<title>Node1&#45;&gt;Node17</title>
<g id="a_edge26_Node000001_Node000017"><a xlink:title=" ">
<path fill="none" stroke="#63b8ff" d="M596.24,-386.5C583.5,-368.77 554.69,-328.69 537.75,-305.13"/>
<polygon fill="#63b8ff" stroke="#63b8ff" points="540.66,-303.18 531.98,-297.11 534.98,-307.27 540.66,-303.18"/>
</a>
</g>
</g>
<!-- Node18 -->
<g id="Node000018" class="node">
<title>Node18</title>
<g id="a_Node000018"><a xlink:href="a00242.xhtml" target="_top" xlink:title=" ">
<polygon fill="white" stroke="#666666" points="947.5,-350.75 855.75,-350.75 855.75,-331.5 947.5,-331.5 947.5,-350.75"/>
<text text-anchor="middle" x="901.62" y="-337.25" font-family="Helvetica,sans-Serif" font-size="10.00">ToolBlockAudio.h</text>
</a>
</g>
</g>
<!-- Node1&#45;&gt;Node18 -->
<g id="edge31_Node000001_Node000018" class="edge">
<title>Node1&#45;&gt;Node18</title>
<g id="a_edge31_Node000001_Node000018"><a xlink:title=" ">
<path fill="none" stroke="#63b8ff" d="M652.33,-386.52C705.31,-377.09 789.05,-362.17 844.65,-352.27"/>
<polygon fill="#63b8ff" stroke="#63b8ff" points="845.01,-355.76 854.24,-350.56 843.78,-348.87 845.01,-355.76"/>
</a>
</g>
</g>
<!-- Node19 -->
<g id="Node000019" class="node">
<title>Node19</title>
<g id="a_Node000019"><a xlink:href="a00149.xhtml" target="_top" xlink:title=" ">
<polygon fill="white" stroke="#666666" points="411.5,-350.75 325.75,-350.75 325.75,-331.5 411.5,-331.5 411.5,-350.75"/>
<text text-anchor="middle" x="368.62" y="-337.25" font-family="Helvetica,sans-Serif" font-size="10.00">ToolResample.h</text>
</a>
</g>
</g>
<!-- Node1&#45;&gt;Node19 -->
<g id="edge33_Node000001_Node000019" class="edge">
<title>Node1&#45;&gt;Node19</title>
<g id="a_edge33_Node000001_Node000019"><a xlink:title=" ">
<path fill="none" stroke="#63b8ff" d="M562.66,-386.28C523.12,-377.28 462.45,-363.48 419.49,-353.7"/>
<polygon fill="#63b8ff" stroke="#63b8ff" points="420.42,-350.32 409.9,-351.52 418.87,-357.15 420.42,-350.32"/>
</a>
</g>
</g>
<!-- Node22 -->
<g id="Node000022" class="node">
<title>Node22</title>
<g id="a_Node000022"><a xlink:href="a00233.xhtml" target="_top" xlink:title=" ">
<polygon fill="white" stroke="#666666" points="707.88,-129.75 621.38,-129.75 621.38,-110.5 707.88,-110.5 707.88,-129.75"/>
<text text-anchor="middle" x="664.62" y="-116.25" font-family="Helvetica,sans-Serif" font-size="10.00">SubFingerprint.h</text>
</a>
</g>
</g>
<!-- Node1&#45;&gt;Node22 -->
<g id="edge46_Node000001_Node000022" class="edge">
<title>Node1&#45;&gt;Node22</title>
<g id="a_edge46_Node000001_Node000022"><a xlink:title=" ">
<path fill="none" stroke="#63b8ff" d="M606.49,-386.28C613.96,-367.87 629.62,-324.73 629.62,-286.88 629.62,-286.88 629.62,-286.88 629.62,-229.62 629.62,-197.06 644.08,-161.54 654.41,-140.31"/>
<polygon fill="#63b8ff" stroke="#63b8ff" points="657.51,-141.94 658.92,-131.45 651.27,-138.77 657.51,-141.94"/>
</a>
</g>
</g>
<!-- Node23 -->
<g id="Node000023" class="node">
<title>Node23</title>
<g id="a_Node000023"><a xlink:href="a00140.xhtml" target="_top" xlink:title=" ">
<polygon fill="white" stroke="#666666" points="833.62,-240.25 745.62,-240.25 745.62,-221 833.62,-221 833.62,-240.25"/>
<text text-anchor="middle" x="789.62" y="-226.75" font-family="Helvetica,sans-Serif" font-size="10.00">ToolFingerprint.h</text>
</a>
</g>
</g>
<!-- Node1&#45;&gt;Node23 -->
<g id="edge48_Node000001_Node000023" class="edge">
<title>Node1&#45;&gt;Node23</title>
<g id="a_edge48_Node000001_Node000023"><a xlink:title=" ">
<path fill="none" stroke="#63b8ff" d="M615.35,-386.55C627.72,-377.82 646.89,-363.91 662.62,-350.75 703.75,-316.36 748.84,-272.45 772.67,-248.71"/>
<polygon fill="#63b8ff" stroke="#63b8ff" points="775.05,-251.28 779.64,-241.74 770.1,-246.34 775.05,-251.28"/>
</a>
</g>
</g>
<!-- Node3 -->
<g id="Node000003" class="node">
<title>Node3</title>
<g id="a_Node000003"><a xlink:title=" ">
<polygon fill="#e0e0e0" stroke="#999999" points="465.75,-19.25 417.5,-19.25 417.5,0 465.75,0 465.75,-19.25"/>
<text text-anchor="middle" x="441.62" y="-5.75" font-family="Helvetica,sans-Serif" font-size="10.00">cassert</text>
</a>
</g>
</g>
<!-- Node2&#45;&gt;Node3 -->
<g id="edge2_Node000002_Node000003" class="edge">
<title>Node2&#45;&gt;Node3</title>
<g id="a_edge2_Node000002_Node000003"><a xlink:title=" ">
<path fill="none" stroke="#63b8ff" d="M126.27,-60.14C134.68,-58.58 144.63,-56.77 153.62,-55.25 244.49,-39.88 351.84,-23.79 406.23,-15.79"/>
<polygon fill="#63b8ff" stroke="#63b8ff" points="406.43,-19.29 415.82,-14.38 405.41,-12.37 406.43,-19.29"/>
</a>
</g>
</g>
<!-- Node4 -->
<g id="Node000004" class="node">
<title>Node4</title>
<g id="a_Node000004"><a xlink:title=" ">
<polygon fill="#e0e0e0" stroke="#999999" points="45.25,-19.25 0,-19.25 0,0 45.25,0 45.25,-19.25"/>
<text text-anchor="middle" x="22.62" y="-5.75" font-family="Helvetica,sans-Serif" font-size="10.00">cstring</text>
</a>
</g>
</g>
<!-- Node2&#45;&gt;Node4 -->
<g id="edge3_Node000002_Node000004" class="edge">
<title>Node2&#45;&gt;Node4</title>
<g id="a_edge3_Node000002_Node000004"><a xlink:title=" ">
<path fill="none" stroke="#63b8ff" d="M92.38,-54.84C79.83,-46.89 61.29,-35.14 46.48,-25.75"/>
<polygon fill="#63b8ff" stroke="#63b8ff" points="48.54,-22.91 38.22,-20.51 44.79,-28.82 48.54,-22.91"/>
</a>
</g>
</g>
<!-- Node5 -->
<g id="Node000005" class="node">
<title>Node5</title>
<g id="a_Node000005"><a xlink:title=" ">
<polygon fill="#e0e0e0" stroke="#999999" points="270.25,-19.25 231,-19.25 231,0 270.25,0 270.25,-19.25"/>
<text text-anchor="middle" x="250.62" y="-5.75" font-family="Helvetica,sans-Serif" font-size="10.00">limits</text>
</a>
</g>
</g>
<!-- Node2&#45;&gt;Node5 -->
<g id="edge4_Node000002_Node000005" class="edge">
<title>Node2&#45;&gt;Node5</title>
<g id="a_edge4_Node000002_Node000005"><a xlink:title=" ">
<path fill="none" stroke="#63b8ff" d="M126.35,-56.58C150.55,-47.63 191.87,-32.35 220.17,-21.89"/>
<polygon fill="#63b8ff" stroke="#63b8ff" points="221.1,-25.28 229.26,-18.53 218.67,-18.71 221.1,-25.28"/>
</a>
</g>
</g>
<!-- Node6&#45;&gt;Node3 -->
<g id="edge6_Node000006_Node000003" class="edge">
<title>Node6&#45;&gt;Node3</title>
<g id="a_edge6_Node000006_Node000003"><a xlink:title=" ">
<path fill="none" stroke="#63b8ff" d="M458.16,-220.85C459.57,-195.21 462.68,-118.19 453.62,-55.25 452.44,-47.02 450.25,-38.13 448.06,-30.47"/>
<polygon fill="#63b8ff" stroke="#63b8ff" points="451.48,-29.7 445.2,-21.17 444.79,-31.75 451.48,-29.7"/>
</a>
</g>
</g>
<!-- Node7 -->
<g id="Node000007" class="node">
<title>Node7</title>
<g id="a_Node000007"><a xlink:title=" ">
<polygon fill="#e0e0e0" stroke="#999999" points="525.5,-185 469.75,-185 469.75,-165.75 525.5,-165.75 525.5,-185"/>
<text text-anchor="middle" x="497.62" y="-171.5" font-family="Helvetica,sans-Serif" font-size="10.00">algorithm</text>
</a>
</g>
</g>
<!-- Node6&#45;&gt;Node7 -->
<g id="edge7_Node000006_Node000007" class="edge">
<title>Node6&#45;&gt;Node7</title>
<g id="a_edge7_Node000006_Node000007"><a xlink:title=" ">
<path fill="none" stroke="#63b8ff" d="M464.23,-220.83C469.58,-213.71 477.3,-203.43 483.97,-194.55"/>
<polygon fill="#63b8ff" stroke="#63b8ff" points="486.76,-196.67 489.97,-186.57 481.16,-192.46 486.76,-196.67"/>
</a>
</g>
</g>
<!-- Node6&#45;&gt;Node8 -->
<g id="edge8_Node000006_Node000008" class="edge">
<title>Node6&#45;&gt;Node8</title>
<g id="a_edge8_Node000006_Node000008"><a xlink:title=" ">
<path fill="none" stroke="#63b8ff" d="M439.3,-220.59C422.55,-212.33 397.49,-199.98 378.12,-190.43"/>
<polygon fill="#63b8ff" stroke="#63b8ff" points="379.91,-187.4 369.39,-186.12 376.81,-193.68 379.91,-187.4"/>
</a>
</g>
</g>
<!-- Node8&#45;&gt;Node3 -->
<g id="edge9_Node000008_Node000003" class="edge">
<title>Node8&#45;&gt;Node3</title>
<g id="a_edge9_Node000008_Node000003"><a xlink:title=" ">
<path fill="none" stroke="#63b8ff" d="M372.04,-165.28C387.25,-157.94 406.55,-146.13 417.62,-129.75 437.95,-99.68 441.8,-56.24 442.13,-30.97"/>
<polygon fill="#63b8ff" stroke="#63b8ff" points="445.63,-31.07 442.07,-21.09 438.63,-31.11 445.63,-31.07"/>
</a>
</g>
</g>
<!-- Node8&#45;&gt;Node4 -->
<g id="edge10_Node000008_Node000004" class="edge">
<title>Node8&#45;&gt;Node4</title>
<g id="a_edge10_Node000008_Node000004"><a xlink:title=" ">
<path fill="none" stroke="#63b8ff" d="M323.35,-169.25C272.5,-158.39 158.59,-129.45 78.62,-74.5 60.82,-62.27 45.06,-43.13 34.83,-28.98"/>
<polygon fill="#63b8ff" stroke="#63b8ff" points="37.86,-27.2 29.28,-20.98 32.11,-31.19 37.86,-27.2"/>
</a>
</g>
</g>
<!-- Node8&#45;&gt;Node5 -->
<g id="edge11_Node000008_Node000005" class="edge">
<title>Node8&#45;&gt;Node5</title>
<g id="a_edge11_Node000008_Node000005"><a xlink:title=" ">
<path fill="none" stroke="#63b8ff" d="M359.84,-165.27C368.32,-156.98 379.74,-143.9 384.62,-129.75 391.81,-108.95 378.31,-60.71 373.62,-55.25 350.57,-28.41 310.04,-17.71 281.83,-13.45"/>
<polygon fill="#63b8ff" stroke="#63b8ff" points="282.45,-10 272.09,-12.18 281.55,-16.94 282.45,-10"/>
</a>
</g>
</g>
<!-- Node9 -->
<g id="Node000009" class="node">
<title>Node9</title>
<g id="a_Node000009"><a xlink:title=" ">
<polygon fill="#e0e0e0" stroke="#999999" points="284.12,-74.5 241.12,-74.5 241.12,-55.25 284.12,-55.25 284.12,-74.5"/>
<text text-anchor="middle" x="262.62" y="-61" font-family="Helvetica,sans-Serif" font-size="10.00">cmath</text>
</a>
</g>
</g>
<!-- Node8&#45;&gt;Node9 -->
<g id="edge12_Node000008_Node000009" class="edge">
<title>Node8&#45;&gt;Node9</title>
<g id="a_edge12_Node000008_Node000009"><a xlink:title=" ">
<path fill="none" stroke="#63b8ff" d="M337.82,-165.31C327.28,-156.84 311.83,-143.48 300.62,-129.75 289.15,-115.69 278.82,-97.8 271.83,-84.54"/>
<polygon fill="#63b8ff" stroke="#63b8ff" points="275.15,-83.33 267.49,-76.01 268.91,-86.51 275.15,-83.33"/>
</a>
</g>
</g>
<!-- Node10 -->
<g id="Node000010" class="node">
<title>Node10</title>
<g id="a_Node000010"><a xlink:href="a00194.xhtml" target="_top" xlink:title=" ">
<polygon fill="white" stroke="#666666" points="375.75,-129.75 309.5,-129.75 309.5,-110.5 375.75,-110.5 375.75,-129.75"/>
<text text-anchor="middle" x="342.62" y="-116.25" font-family="Helvetica,sans-Serif" font-size="10.00">Synthesis.h</text>
</a>
</g>
</g>
<!-- Node8&#45;&gt;Node10 -->
<g id="edge13_Node000008_Node000010" class="edge">
<title>Node8&#45;&gt;Node10</title>
<g id="a_edge13_Node000008_Node000010"><a xlink:title=" ">
<path fill="none" stroke="#63b8ff" d="M348.47,-165.58C347.6,-158.99 346.38,-149.71 345.28,-141.32"/>
<polygon fill="#63b8ff" stroke="#63b8ff" points="348.78,-141.07 344,-131.61 341.84,-141.98 348.78,-141.07"/>
</a>
</g>
</g>
<!-- Node10&#45;&gt;Node2 -->
<g id="edge17_Node000010_Node000002" class="edge">
<title>Node10&#45;&gt;Node2</title>
<g id="a_edge17_Node000010_Node000002"><a xlink:title=" ">
<path fill="none" stroke="#63b8ff" d="M309.06,-111.55C263.25,-101.22 181.78,-82.83 137.45,-72.83"/>
<polygon fill="#63b8ff" stroke="#63b8ff" points="138.25,-69.42 127.72,-70.63 136.7,-76.25 138.25,-69.42"/>
</a>
</g>
</g>
<!-- Node10&#45;&gt;Node9 -->
<g id="edge14_Node000010_Node000009" class="edge">
<title>Node10&#45;&gt;Node9</title>
<g id="a_edge14_Node000010_Node000009"><a xlink:title=" ">
<path fill="none" stroke="#63b8ff" d="M329.05,-110.09C317.22,-102.21 299.79,-90.61 285.75,-81.27"/>
<polygon fill="#63b8ff" stroke="#63b8ff" points="287.79,-78.42 277.52,-75.79 283.91,-84.25 287.79,-78.42"/>
</a>
</g>
</g>
<!-- Node11 -->
<g id="Node000011" class="node">
<title>Node11</title>
<g id="a_Node000011"><a xlink:title=" ">
<polygon fill="#e0e0e0" stroke="#999999" points="364.88,-74.5 320.38,-74.5 320.38,-55.25 364.88,-55.25 364.88,-74.5"/>
<text text-anchor="middle" x="342.62" y="-61" font-family="Helvetica,sans-Serif" font-size="10.00">cstdlib</text>
</a>
</g>
</g>
<!-- Node10&#45;&gt;Node11 -->
<g id="edge15_Node000010_Node000011" class="edge">
<title>Node10&#45;&gt;Node11</title>
<g id="a_edge15_Node000010_Node000011"><a xlink:title=" ">
<path fill="none" stroke="#63b8ff" d="M342.62,-110.33C342.62,-103.82 342.62,-94.67 342.62,-86.37"/>
<polygon fill="#63b8ff" stroke="#63b8ff" points="346.13,-86.37 342.63,-76.37 339.13,-86.37 346.13,-86.37"/>
</a>
</g>
</g>
<!-- Node12 -->
<g id="Node000012" class="node">
<title>Node12</title>
<g id="a_Node000012"><a xlink:href="a00167.xhtml" target="_top" xlink:title=" ">
<polygon fill="white" stroke="#666666" points="729,-74.5 670.25,-74.5 670.25,-55.25 729,-55.25 729,-74.5"/>
<text text-anchor="middle" x="699.62" y="-61" font-family="Helvetica,sans-Serif" font-size="10.00">ErrorDef.h</text>
</a>
</g>
</g>
<!-- Node10&#45;&gt;Node12 -->
<g id="edge16_Node000010_Node000012" class="edge">
<title>Node10&#45;&gt;Node12</title>
<g id="a_edge16_Node000010_Node000012"><a xlink:title=" ">
<path fill="none" stroke="#63b8ff" d="M376.21,-114.12C441.98,-104.31 587.53,-82.6 658.76,-71.97"/>
<polygon fill="#63b8ff" stroke="#63b8ff" points="659.06,-75.46 668.44,-70.53 658.03,-68.54 659.06,-75.46"/>
</a>
</g>
</g>
<!-- Node13&#45;&gt;Node7 -->
<g id="edge22_Node000013_Node000007" class="edge">
<title>Node13&#45;&gt;Node7</title>
<g id="a_edge22_Node000013_Node000007"><a xlink:title=" ">
<path fill="none" stroke="#63b8ff" d="M659.55,-220.59C625.62,-211.33 572.86,-196.92 536.85,-187.09"/>
<polygon fill="#63b8ff" stroke="#63b8ff" points="537.82,-183.72 527.25,-184.47 535.98,-190.48 537.82,-183.72"/>
</a>
</g>
</g>
<!-- Node13&#45;&gt;Node12 -->
<g id="edge23_Node000013_Node000012" class="edge">
<title>Node13&#45;&gt;Node12</title>
<g id="a_edge23_Node000013_Node000012"><a xlink:title=" ">
<path fill="none" stroke="#63b8ff" d="M699.22,-220.61C705.09,-211.97 713.27,-198.31 716.62,-185 724.71,-152.89 722.62,-143.06 716.62,-110.5 715.05,-101.95 711.91,-92.91 708.75,-85.22"/>
<polygon fill="#63b8ff" stroke="#63b8ff" points="712.01,-83.93 704.76,-76.21 705.61,-86.77 712.01,-83.93"/>
</a>
</g>
</g>
<!-- Node14 -->
<g id="Node000014" class="node">
<title>Node14</title>
<g id="a_Node000014"><a xlink:title=" ">
<polygon fill="#e0e0e0" stroke="#999999" points="803.62,-185 763.62,-185 763.62,-165.75 803.62,-165.75 803.62,-185"/>
<text text-anchor="middle" x="783.62" y="-171.5" font-family="Helvetica,sans-Serif" font-size="10.00">string</text>
</a>
</g>
</g>
<!-- Node13&#45;&gt;Node14 -->
<g id="edge20_Node000013_Node000014" class="edge">
<title>Node13&#45;&gt;Node14</title>
<g id="a_edge20_Node000013_Node000014"><a xlink:title=" ">
<path fill="none" stroke="#63b8ff" d="M708.06,-220.59C721.79,-212.56 742.12,-200.66 758.24,-191.23"/>
<polygon fill="#63b8ff" stroke="#63b8ff" points="759.94,-194.29 766.81,-186.22 756.41,-188.25 759.94,-194.29"/>
</a>
</g>
</g>
<!-- Node15 -->
<g id="Node000015" class="node">
<title>Node15</title>
<g id="a_Node000015"><a xlink:title=" ">
<polygon fill="#e0e0e0" stroke="#999999" points="707.12,-185 658.12,-185 658.12,-165.75 707.12,-165.75 707.12,-185"/>
<text text-anchor="middle" x="682.62" y="-171.5" font-family="Helvetica,sans-Serif" font-size="10.00">fstream</text>
</a>
</g>
</g>
<!-- Node13&#45;&gt;Node15 -->
<g id="edge21_Node000013_Node000015" class="edge">
<title>Node13&#45;&gt;Node15</title>
<g id="a_edge21_Node000013_Node000015"><a xlink:title=" ">
<path fill="none" stroke="#63b8ff" d="M690.97,-220.83C689.74,-214.24 687.99,-204.96 686.42,-196.57"/>
<polygon fill="#63b8ff" stroke="#63b8ff" points="689.88,-196.03 684.59,-186.85 683,-197.32 689.88,-196.03"/>
</a>
</g>
</g>
<!-- Node16&#45;&gt;Node12 -->
<g id="edge25_Node000016_Node000012" class="edge">
<title>Node16&#45;&gt;Node12</title>
<g id="a_edge25_Node000016_Node000012"><a xlink:title=" ">
<path fill="none" stroke="#63b8ff" d="M840.24,-276.16C842.28,-263.83 845.24,-240.6 842.62,-221 835.5,-167.57 832.91,-146.32 792.62,-110.5 777.22,-96.8 756.86,-86.4 739.13,-79.1"/>
<polygon fill="#63b8ff" stroke="#63b8ff" points="740.49,-75.87 729.9,-75.5 737.94,-82.4 740.49,-75.87"/>
</a>
</g>
</g>
<!-- Node17&#45;&gt;Node3 -->
<g id="edge27_Node000017_Node000003" class="edge">
<title>Node17&#45;&gt;Node3</title>
<g id="a_edge27_Node000017_Node000003"><a xlink:title=" ">
<path fill="none" stroke="#63b8ff" d="M527.44,-276.01C533.35,-255.96 545.66,-205.76 534.62,-165.75 519.45,-110.75 478.97,-55.69 456.75,-28.35"/>
<polygon fill="#63b8ff" stroke="#63b8ff" points="459.52,-26.2 450.44,-20.75 454.13,-30.68 459.52,-26.2"/>
</a>
</g>
</g>
<!-- Node17&#45;&gt;Node6 -->
<g id="edge29_Node000017_Node000006" class="edge">
<title>Node17&#45;&gt;Node6</title>
<g id="a_edge29_Node000017_Node000006"><a xlink:title=" ">
<path fill="none" stroke="#63b8ff" d="M513.26,-275.84C503.58,-268.15 489.43,-256.9 477.82,-247.68"/>
<polygon fill="#63b8ff" stroke="#63b8ff" points="480.01,-244.95 470.01,-241.47 475.66,-250.43 480.01,-244.95"/>
</a>
</g>
</g>
<!-- Node17&#45;&gt;Node8 -->
<g id="edge30_Node000017_Node000008" class="edge">
<title>Node17&#45;&gt;Node8</title>
<g id="a_edge30_Node000017_Node000008"><a xlink:title=" ">
<path fill="none" stroke="#63b8ff" d="M522.43,-276.07C518.56,-262.31 509.2,-235.78 491.62,-221 461.99,-196.08 418.39,-185.04 387.33,-180.17"/>
<polygon fill="#63b8ff" stroke="#63b8ff" points="387.99,-176.73 377.6,-178.81 387.01,-183.66 387.99,-176.73"/>
</a>
</g>
</g>
<!-- Node17&#45;&gt;Node13 -->
<g id="edge28_Node000017_Node000013" class="edge">
<title>Node17&#45;&gt;Node13</title>
<g id="a_edge28_Node000017_Node000013"><a xlink:title=" ">
<path fill="none" stroke="#63b8ff" d="M553.12,-275.84C580.64,-267.12 622.53,-253.84 653.23,-244.11"/>
<polygon fill="#63b8ff" stroke="#63b8ff" points="654.07,-247.52 662.54,-241.16 651.95,-240.84 654.07,-247.52"/>
</a>
</g>
</g>
<!-- Node18&#45;&gt;Node12 -->
<g id="edge32_Node000018_Node000012" class="edge">
<title>Node18&#45;&gt;Node12</title>
<g id="a_edge32_Node000018_Node000012"><a xlink:title=" ">
<path fill="none" stroke="#63b8ff" d="M902.46,-331.13C904.11,-312.56 907.62,-268.6 907.62,-231.62 907.62,-231.62 907.62,-231.62 907.62,-174.38 907.62,-99.76 801.11,-76.37 740.53,-69.11"/>
<polygon fill="#63b8ff" stroke="#63b8ff" points="741.25,-65.66 730.93,-68.06 740.49,-72.62 741.25,-65.66"/>
</a>
</g>
</g>
<!-- Node19&#45;&gt;Node2 -->
<g id="edge45_Node000019_Node000002" class="edge">
<title>Node19&#45;&gt;Node2</title>
<g id="a_edge45_Node000019_Node000002"><a xlink:title=" ">
<path fill="none" stroke="#63b8ff" d="M325.3,-337.47C265.59,-331.23 159.82,-310.32 110.62,-240.25 77.77,-193.46 91.2,-120.83 100.52,-85.93"/>
<polygon fill="#63b8ff" stroke="#63b8ff" points="103.87,-86.93 103.25,-76.36 97.14,-85.01 103.87,-86.93"/>
</a>
</g>
</g>
<!-- Node19&#45;&gt;Node12 -->
<g id="edge34_Node000019_Node000012" class="edge">
<title>Node19&#45;&gt;Node12</title>
<g id="a_edge34_Node000019_Node000012"><a xlink:title=" ">
<path fill="none" stroke="#63b8ff" d="M411.61,-336.15C464.61,-330.35 550.41,-317.77 572.62,-295.5 632.04,-235.94 561.39,-177.22 612.62,-110.5 624.24,-95.37 642.43,-84.92 659.17,-77.96"/>
<polygon fill="#63b8ff" stroke="#63b8ff" points="660.38,-81.25 668.47,-74.42 657.88,-74.71 660.38,-81.25"/>
</a>
</g>
</g>
<!-- Node20 -->
<g id="Node000020" class="node">
<title>Node20</title>
<g id="a_Node000020"><a xlink:href="a00197.xhtml" target="_top" xlink:title=" ">
<polygon fill="white" stroke="#666666" points="386.25,-295.5 341,-295.5 341,-276.25 386.25,-276.25 386.25,-295.5"/>
<text text-anchor="middle" x="363.62" y="-282" font-family="Helvetica,sans-Serif" font-size="10.00">Filter.h</text>
</a>
</g>
</g>
<!-- Node19&#45;&gt;Node20 -->
<g id="edge35_Node000019_Node000020" class="edge">
<title>Node19&#45;&gt;Node20</title>
<g id="a_edge35_Node000019_Node000020"><a xlink:title=" ">
<path fill="none" stroke="#63b8ff" d="M367.8,-331.33C367.18,-324.74 366.31,-315.46 365.52,-307.07"/>
<polygon fill="#63b8ff" stroke="#63b8ff" points="369.03,-307 364.61,-297.37 362.06,-307.65 369.03,-307"/>
</a>
</g>
</g>
<!-- Node20&#45;&gt;Node6 -->
<g id="edge39_Node000020_Node000006" class="edge">
<title>Node20&#45;&gt;Node6</title>
<g id="a_edge39_Node000020_Node000006"><a xlink:title=" ">
<path fill="none" stroke="#63b8ff" d="M379.57,-275.84C393.89,-267.73 415.16,-255.68 431.88,-246.21"/>
<polygon fill="#63b8ff" stroke="#63b8ff" points="433.31,-249.42 440.28,-241.45 429.86,-243.33 433.31,-249.42"/>
</a>
</g>
</g>
<!-- Node20&#45;&gt;Node8 -->
<g id="edge38_Node000020_Node000008" class="edge">
<title>Node20&#45;&gt;Node8</title>
<g id="a_edge38_Node000020_Node000008"><a xlink:title=" ">
<path fill="none" stroke="#63b8ff" d="M362.48,-276C360.25,-258.75 355.3,-220.33 352.23,-196.56"/>
<polygon fill="#63b8ff" stroke="#63b8ff" points="355.73,-196.35 350.98,-186.88 348.79,-197.24 355.73,-196.35"/>
</a>
</g>
</g>
<!-- Node20&#45;&gt;Node9 -->
<g id="edge36_Node000020_Node000009" class="edge">
<title>Node20&#45;&gt;Node9</title>
<g id="a_edge36_Node000020_Node000009"><a xlink:title=" ">
<path fill="none" stroke="#63b8ff" d="M358.42,-276.02C344.85,-252.69 307.75,-187.32 283.62,-129.75 277.54,-115.23 272.04,-98.28 268.19,-85.49"/>
<polygon fill="#63b8ff" stroke="#63b8ff" points="271.63,-84.79 265.47,-76.17 264.91,-86.75 271.63,-84.79"/>
</a>
</g>
</g>
<!-- Node20&#45;&gt;Node12 -->
<g id="edge37_Node000020_Node000012" class="edge">
<title>Node20&#45;&gt;Node12</title>
<g id="a_edge37_Node000020_Node000012"><a xlink:title=" ">
<path fill="none" stroke="#63b8ff" d="M368.88,-275.95C381.94,-254.42 417.89,-198.99 460.62,-165.75 521.55,-118.36 608.21,-89.62 658.71,-75.83"/>
<polygon fill="#63b8ff" stroke="#63b8ff" points="659.6,-79.21 668.36,-73.26 657.8,-72.45 659.6,-79.21"/>
</a>
</g>
</g>
<!-- Node21 -->
<g id="Node000021" class="node">
<title>Node21</title>
<g id="a_Node000021"><a xlink:href="a00203.xhtml" target="_top" xlink:title=" ">
<polygon fill="white" stroke="#666666" points="187.88,-240.25 119.38,-240.25 119.38,-221 187.88,-221 187.88,-240.25"/>
<text text-anchor="middle" x="153.62" y="-226.75" font-family="Helvetica,sans-Serif" font-size="10.00">RingBuffer.h</text>
</a>
</g>
</g>
<!-- Node20&#45;&gt;Node21 -->
<g id="edge40_Node000020_Node000021" class="edge">
<title>Node20&#45;&gt;Node21</title>
<g id="a_edge40_Node000020_Node000021"><a xlink:title=" ">
<path fill="none" stroke="#63b8ff" d="M340.75,-279.07C306.92,-270.5 242.83,-254.25 199.18,-243.18"/>
<polygon fill="#63b8ff" stroke="#63b8ff" points="200.3,-239.85 189.75,-240.79 198.58,-246.64 200.3,-239.85"/>
</a>
</g>
</g>
<!-- Node21&#45;&gt;Node3 -->
<g id="edge41_Node000021_Node000003" class="edge">
<title>Node21&#45;&gt;Node3</title>
<g id="a_edge41_Node000021_Node000003"><a xlink:title=" ">
<path fill="none" stroke="#63b8ff" d="M154.77,-220.68C158.98,-191.7 176.33,-99.75 231.62,-55.25 258.08,-33.96 353.27,-20.37 405.94,-14.3"/>
<polygon fill="#63b8ff" stroke="#63b8ff" points="406.06,-17.81 415.61,-13.22 405.28,-10.85 406.06,-17.81"/>
</a>
</g>
</g>
<!-- Node21&#45;&gt;Node4 -->
<g id="edge44_Node000021_Node000004" class="edge">
<title>Node21&#45;&gt;Node4</title>
<g id="a_edge44_Node000021_Node000004"><a xlink:title=" ">
<path fill="none" stroke="#63b8ff" d="M147.37,-220.77C131.01,-197.42 85.98,-132.04 53.62,-74.5 45.39,-59.86 37.14,-42.7 31.22,-29.86"/>
<polygon fill="#63b8ff" stroke="#63b8ff" points="34.45,-28.51 27.14,-20.85 28.08,-31.41 34.45,-28.51"/>
</a>
</g>
</g>
<!-- Node21&#45;&gt;Node7 -->
<g id="edge42_Node000021_Node000007" class="edge">
<title>Node21&#45;&gt;Node7</title>
<g id="a_edge42_Node000021_Node000007"><a xlink:title=" ">
<path fill="none" stroke="#63b8ff" d="M188.18,-224.28C252.61,-214.3 390.65,-192.93 458.43,-182.44"/>
<polygon fill="#63b8ff" stroke="#63b8ff" points="458.62,-185.95 467.97,-180.97 457.55,-179.04 458.62,-185.95"/>
</a>
</g>
</g>
<!-- Node21&#45;&gt;Node9 -->
<g id="edge43_Node000021_Node000009" class="edge">
<title>Node21&#45;&gt;Node9</title>
<g id="a_edge43_Node000021_Node000009"><a xlink:title=" ">
<path fill="none" stroke="#63b8ff" d="M159.33,-220.5C174.43,-196.4 215.24,-131.42 229.62,-110.5 235.69,-101.68 242.71,-92.11 248.7,-84.1"/>
<polygon fill="#63b8ff" stroke="#63b8ff" points="251.46,-86.27 254.7,-76.18 245.87,-82.04 251.46,-86.27"/>
</a>
</g>
</g>
<!-- Node22&#45;&gt;Node12 -->
<g id="edge47_Node000022_Node000012" class="edge">
<title>Node22&#45;&gt;Node12</title>
<g id="a_edge47_Node000022_Node000012"><a xlink:title=" ">
<path fill="none" stroke="#63b8ff" d="M670.4,-110.33C675.04,-103.28 681.7,-93.15 687.49,-84.33"/>
<polygon fill="#63b8ff" stroke="#63b8ff" points="690.32,-86.4 692.89,-76.12 684.47,-82.56 690.32,-86.4"/>
</a>
</g>
</g>
<!-- Node23&#45;&gt;Node12 -->
<g id="edge50_Node000023_Node000012" class="edge">
<title>Node23&#45;&gt;Node12</title>
<g id="a_edge50_Node000023_Node000012"><a xlink:title=" ">
<path fill="none" stroke="#63b8ff" d="M797.13,-220.78C806.76,-208.29 821.25,-184.88 812.62,-165.75 795.17,-127.02 754.44,-97.26 726.96,-80.66"/>
<polygon fill="#63b8ff" stroke="#63b8ff" points="728.86,-77.72 718.46,-75.71 725.34,-83.77 728.86,-77.72"/>
</a>
</g>
</g>
<!-- Node23&#45;&gt;Node14 -->
<g id="edge49_Node000023_Node000014" class="edge">
<title>Node23&#45;&gt;Node14</title>
<g id="a_edge49_Node000023_Node000014"><a xlink:title=" ">
<path fill="none" stroke="#63b8ff" d="M788.63,-220.83C787.89,-214.24 786.85,-204.96 785.9,-196.57"/>
<polygon fill="#63b8ff" stroke="#63b8ff" points="789.4,-196.41 784.81,-186.86 782.45,-197.19 789.4,-196.41"/>
</a>
</g>
</g>
</g>
</svg>

<g id="navigator" transform="translate(0 0)" fill="#404254">
  <rect fill="#f2f5e9" fill-opacity="0.5" stroke="#606060" stroke-width=".5" x="0" y="0" width="60" height="60"/>
  <use id="zoomplus" xlink:href="#zoomPlus" x="17" y="9" onmousedown="handleZoom(evt,'in')"/>
  <use id="zoomminus" xlink:href="#zoomMin" x="42" y="9" onmousedown="handleZoom(evt,'out')"/>
  <use id="reset" xlink:href="#resetDef" x="30" y="36" onmousedown="handleReset()"/>
   <use id="arrowup" xlink:href="#arrowUp" x="0" y="0" onmousedown="handlePan(0,-1)"/>
  <use id="arrowright" xlink:href="#arrowRight" x="0" y="0" onmousedown="handlePan(1,0)"/>
  <use id="arrowdown" xlink:href="#arrowDown" x="0" y="0" onmousedown="handlePan(0,1)"/>
  <use id="arrowleft" xlink:href="#arrowLeft" x="0" y="0" onmousedown="handlePan(-1,0)"/>
</g>
<svg viewBox="0 0 15 15" width="100%" height="30px" preserveAspectRatio="xMaxYMin meet">
 <g id="arrow_out" transform="scale(0.3 0.3)">
  <a xlink:href="a00069_org.svg" target="_base">
   <rect id="button" ry="5" rx="5" y="6" x="6" height="38" width="38"
        fill="#f2f5e9" fill-opacity="0.5" stroke="#606060" stroke-width="1.0"/>
   <path id="arrow"
     d="M 11.500037,31.436501 C 11.940474,20.09759 22.043105,11.32322 32.158766,21.979434 L 37.068811,17.246167 C 37.068811,17.246167 37.088388,32 37.088388,32 L 22.160133,31.978069 C 22.160133,31.978069 26.997745,27.140456 26.997745,27.140456 C 18.528582,18.264221 13.291696,25.230495 11.500037,31.436501 z"
     style="fill:#404040;"/>
  </a>
 </g>
</svg>

<style type='text/css'>
<![CDATA[
[data-mouse-over-selected='false'] { opacity: 0.7; }
[data-mouse-over-selected='true']  { opacity: 1.0; }
]]>
</style>
<script type="application/ecmascript"><![CDATA[
document.addEventListener('DOMContentLoaded', (event) => {
  highlightEdges();
  highlightAdjacentNodes();
});
]]></script>
</svg>
