<?xml version="1.0" encoding="UTF-8" standalone="no"?>
<!DOCTYPE svg PUBLIC "-//W3C//DTD SVG 1.1//EN"
 "http://www.w3.org/Graphics/SVG/1.1/DTD/svg11.dtd">
<!-- Generated by graphviz version 6.0.1 (20220911.1526)
 -->
<!-- Title: main Pages: 1 -->
<!--zoomable 388 -->
<svg id="main" version="1.1" xmlns="http://www.w3.org/2000/svg" xmlns:xlink="http://www.w3.org/1999/xlink" xml:space="preserve" onload="init(evt)">
<style type="text/css"><![CDATA[
.edge:hover path { stroke: red; }
.edge:hover polygon { stroke: red; fill: red; }
]]></style>
<script type="text/javascript"><![CDATA[
var edges = document.getElementsByTagName('g');
if (edges && edges.length) {
  for (var i=0;i<edges.length;i++) {
    if (edges[i].id.substr(0,4)=='edge') {
      edges[i].setAttribute('class','edge');
    }
  }
}
]]></script>
        <defs>
                <circle id="rim" cx="0" cy="0" r="7"/>
                <circle id="rim2" cx="0" cy="0" r="3.5"/>
                <g id="zoomPlus">
                        <use xlink:href="#rim" fill="#404040">
                                <set attributeName="fill" to="#808080" begin="zoomplus.mouseover" end="zoomplus.mouseout"/>
                        </use>
                        <path d="M-4,0h8M0,-4v8" fill="none" stroke="white" stroke-width="1.5" pointer-events="none"/>
                </g>
                <g id="zoomMin">
                        <use xlink:href="#rim" fill="#404040">
                                <set attributeName="fill" to="#808080" begin="zoomminus.mouseover" end="zoomminus.mouseout"/>
                        </use>
                        <path d="M-4,0h8" fill="none" stroke="white" stroke-width="1.5" pointer-events="none"/>
                </g>
                <g id="dirArrow">
                        <path fill="none" stroke="white" stroke-width="1.5" d="M0,-3.0v7 M-2.5,-0.5L0,-3.0L2.5,-0.5"/>
                </g>
               <g id="resetDef">
                       <use xlink:href="#rim2" fill="#404040">
                               <set attributeName="fill" to="#808080" begin="reset.mouseover" end="reset.mouseout"/>
                       </use>
               </g>
        </defs>

<script type="text/javascript">
var viewWidth = 738;
var viewHeight = 388;
var sectionId = 'dynsection-1';
</script>
<script xlink:href="svgpan.js"/>
<svg id="graph" class="graph">
<g id="viewport">
<title>main</title>
<!-- Node1 -->
<g id="node1" class="node">
<title>Node1</title>
<g id="a_node1"><a xlink:title=" ">
<polygon fill="#999999" stroke="#666666" points="38,-130 0,-130 0,-111 38,-111 38,-130"/>
<text text-anchor="middle" x="19" y="-118" font-family="Helvetica,sans-Serif" font-size="10.00">main</text>
</a>
</g>
</g>
<!-- Node2 -->
<g id="node2" class="node">
<title>Node2</title>
<g id="a_node2"><a xlink:href="a00530.xhtml#ae041a770ec2b092761d9a88cc87946bb" target="_top" xlink:title=" ">
<polygon fill="white" stroke="#666666" points="243,-216 74,-216 74,-197 243,-197 243,-216"/>
<text text-anchor="middle" x="158.5" y="-204" font-family="Helvetica,sans-Serif" font-size="10.00">CSpectrogramIf::compSpectrogram</text>
</a>
</g>
</g>
<!-- Node1&#45;&gt;Node2 -->
<g id="edge1" class="edge">
<title>Node1&#45;&gt;Node2</title>
<path fill="none" stroke="#63b8ff" d="M25.15,-130.45C33.37,-145.31 50.94,-173.1 74,-187.5 77.38,-189.61 80.97,-191.49 84.68,-193.15"/>
<polygon fill="#63b8ff" stroke="#63b8ff" points="83.54,-196.47 94.13,-196.89 86.11,-189.96 83.54,-196.47"/>
</g>
<!-- Node15 -->
<g id="node15" class="node">
<title>Node15</title>
<g id="a_node15"><a xlink:href="a00530.xhtml#acd73d8c1aaaed8b188de6b8bf2103139" target="_top" xlink:title=" ">
<polygon fill="white" stroke="#666666" points="216.5,-93 100.5,-93 100.5,-74 216.5,-74 216.5,-93"/>
<text text-anchor="middle" x="158.5" y="-81" font-family="Helvetica,sans-Serif" font-size="10.00">CSpectrogramIf::create</text>
</a>
</g>
</g>
<!-- Node1&#45;&gt;Node15 -->
<g id="edge15" class="edge">
<title>Node1&#45;&gt;Node15</title>
<path fill="none" stroke="#63b8ff" d="M38.31,-113.41C48.68,-109.56 61.95,-104.9 74,-101.5 81.81,-99.29 90.1,-97.21 98.31,-95.29"/>
<polygon fill="#63b8ff" stroke="#63b8ff" points="99.26,-98.66 108.24,-93.04 97.71,-91.84 99.26,-98.66"/>
</g>
<!-- Node17 -->
<g id="node17" class="node">
<title>Node17</title>
<g id="a_node17"><a xlink:href="a00530.xhtml#a6511fc72ef04be91a712ee5ef479bd7e" target="_top" xlink:title=" ">
<polygon fill="white" stroke="#666666" points="219,-130 98,-130 98,-111 219,-111 219,-130"/>
<text text-anchor="middle" x="158.5" y="-118" font-family="Helvetica,sans-Serif" font-size="10.00">CSpectrogramIf::destroy</text>
</a>
</g>
</g>
<!-- Node1&#45;&gt;Node17 -->
<g id="edge17" class="edge">
<title>Node1&#45;&gt;Node17</title>
<path fill="none" stroke="#63b8ff" d="M38.26,-120.5C51.2,-120.5 69.47,-120.5 87.82,-120.5"/>
<polygon fill="#63b8ff" stroke="#63b8ff" points="87.99,-124 97.99,-120.5 87.99,-117 87.99,-124"/>
</g>
<!-- Node18 -->
<g id="node18" class="node">
<title>Node18</title>
<g id="a_node18"><a xlink:href="a00530.xhtml#afb50af1070f5876b4706f5891879fcd8" target="_top" xlink:title=" ">
<polygon fill="white" stroke="#666666" points="237.5,-178.5 79.5,-178.5 79.5,-148.5 237.5,-148.5 237.5,-178.5"/>
<text text-anchor="start" x="87.5" y="-166.5" font-family="Helvetica,sans-Serif" font-size="10.00">CSpectrogramIf::getSpectrogram</text>
<text text-anchor="middle" x="158.5" y="-155.5" font-family="Helvetica,sans-Serif" font-size="10.00">Dimensions</text>
</a>
</g>
</g>
<!-- Node1&#45;&gt;Node18 -->
<g id="edge18" class="edge">
<title>Node1&#45;&gt;Node18</title>
<path fill="none" stroke="#63b8ff" d="M38.45,-126.81C48.86,-130.33 62.13,-134.75 74,-138.5 81.3,-140.81 88.98,-143.18 96.61,-145.51"/>
<polygon fill="#63b8ff" stroke="#63b8ff" points="95.61,-148.86 106.2,-148.41 97.64,-142.16 95.61,-148.86"/>
</g>
<!-- Node19 -->
<g id="node19" class="node">
<title>Node19</title>
<g id="a_node19"><a xlink:href="a00008.xhtml#a2d0a5ce28a4b0030ec0353c6f7a0fd64" target="_top" xlink:title=" ">
<polygon fill="white" stroke="#666666" points="191,-56 126,-56 126,-37 191,-37 191,-56"/>
<text text-anchor="middle" x="158.5" y="-44" font-family="Helvetica,sans-Serif" font-size="10.00">showClInfo</text>
</a>
</g>
</g>
<!-- Node1&#45;&gt;Node19 -->
<g id="edge20" class="edge">
<title>Node1&#45;&gt;Node19</title>
<path fill="none" stroke="#63b8ff" d="M26.44,-110.9C35.5,-98.19 53.23,-76.06 74,-64.5 86.72,-57.42 101.96,-53.12 115.93,-50.51"/>
<polygon fill="#63b8ff" stroke="#63b8ff" points="116.51,-53.97 125.81,-48.9 115.38,-47.06 116.51,-53.97"/>
</g>
<!-- Node3 -->
<g id="node3" class="node">
<title>Node3</title>
<g id="a_node3"><a xlink:href="a00530.xhtml#abe25089ec6ef77b0b9952c33a7a8d739" target="_top" xlink:title=" ">
<polygon fill="white" stroke="#666666" points="426,-262.5 280,-262.5 280,-232.5 426,-232.5 426,-262.5"/>
<text text-anchor="start" x="288" y="-250.5" font-family="Helvetica,sans-Serif" font-size="10.00">CSpectrogramIf::computeMag</text>
<text text-anchor="middle" x="353" y="-239.5" font-family="Helvetica,sans-Serif" font-size="10.00">Spectrum_</text>
</a>
</g>
</g>
<!-- Node2&#45;&gt;Node3 -->
<g id="edge2" class="edge">
<title>Node2&#45;&gt;Node3</title>
<path fill="none" stroke="#63b8ff" d="M204.15,-216.01C224.08,-220.25 248.2,-225.39 271.13,-230.27"/>
<polygon fill="#63b8ff" stroke="#63b8ff" points="270.7,-233.76 281.21,-232.42 272.16,-226.92 270.7,-233.76"/>
</g>
<!-- Node13 -->
<g id="node13" class="node">
<title>Node13</title>
<g id="a_node13"><a xlink:href="a00474.xhtml#a9cb162394031e8b496f7a39b51c31d20" target="_top" xlink:title=" ">
<polygon fill="white" stroke="#666666" points="394.5,-214 311.5,-214 311.5,-195 394.5,-195 394.5,-214"/>
<text text-anchor="middle" x="353" y="-202" font-family="Helvetica,sans-Serif" font-size="10.00">CFft::getLength</text>
</a>
</g>
</g>
<!-- Node2&#45;&gt;Node13 -->
<g id="edge13" class="edge">
<title>Node2&#45;&gt;Node13</title>
<path fill="none" stroke="#63b8ff" d="M243.09,-205.63C262.86,-205.43 283.34,-205.21 301.14,-205.03"/>
<polygon fill="#63b8ff" stroke="#63b8ff" points="301.33,-208.53 311.29,-204.92 301.25,-201.53 301.33,-208.53"/>
</g>
<!-- Node14 -->
<g id="node14" class="node">
<title>Node14</title>
<g id="a_node14"><a xlink:href="a00542.xhtml#a595b3a391e2540a1dc9e53edf8634494" target="_top" xlink:title=" ">
<polygon fill="white" stroke="#666666" points="427,-174 279,-174 279,-155 427,-155 427,-174"/>
<text text-anchor="middle" x="353" y="-162" font-family="Helvetica,sans-Serif" font-size="10.00">CBlockAudioIf::getNumBlocks</text>
</a>
</g>
</g>
<!-- Node2&#45;&gt;Node14 -->
<g id="edge14" class="edge">
<title>Node2&#45;&gt;Node14</title>
<path fill="none" stroke="#63b8ff" d="M203.18,-196.97C231.39,-190.82 268.28,-182.77 298.27,-176.22"/>
<polygon fill="#63b8ff" stroke="#63b8ff" points="299.13,-179.62 308.16,-174.07 297.64,-172.78 299.13,-179.62"/>
</g>
<!-- Node4 -->
<g id="node4" class="node">
<title>Node4</title>
<g id="a_node4"><a xlink:href="a00474.xhtml#ab5c17fe5c368048a3393818735dc9b8a" target="_top" xlink:title=" ">
<polygon fill="white" stroke="#666666" points="572,-331 496,-331 496,-312 572,-312 572,-331"/>
<text text-anchor="middle" x="534" y="-319" font-family="Helvetica,sans-Serif" font-size="10.00">CFft::compFft</text>
</a>
</g>
</g>
<!-- Node3&#45;&gt;Node4 -->
<g id="edge3" class="edge">
<title>Node3&#45;&gt;Node4</title>
<path fill="none" stroke="#63b8ff" d="M379.24,-262.52C400.87,-274.89 433.17,-292.16 463,-303.5 470.34,-306.29 478.27,-308.79 486.07,-310.98"/>
<polygon fill="#63b8ff" stroke="#63b8ff" points="485.26,-314.38 495.83,-313.58 487.07,-307.62 485.26,-314.38"/>
</g>
<!-- Node9 -->
<g id="node9" class="node">
<title>Node9</title>
<g id="a_node9"><a xlink:href="a00474.xhtml#a48428f0ac37a3c112c9598c784771d4a" target="_top" xlink:title=" ">
<polygon fill="white" stroke="#666666" points="583,-294 485,-294 485,-275 583,-275 583,-294"/>
<text text-anchor="middle" x="534" y="-282" font-family="Helvetica,sans-Serif" font-size="10.00">CFft::getMagnitude</text>
</a>
</g>
</g>
<!-- Node3&#45;&gt;Node9 -->
<g id="edge8" class="edge">
<title>Node3&#45;&gt;Node9</title>
<path fill="none" stroke="#63b8ff" d="M426.03,-262.39C443.01,-265.9 460.85,-269.59 477,-272.92"/>
<polygon fill="#63b8ff" stroke="#63b8ff" points="476.31,-276.36 486.81,-274.95 477.73,-269.5 476.31,-276.36"/>
</g>
<!-- Node10 -->
<g id="node10" class="node">
<title>Node10</title>
<g id="a_node10"><a xlink:href="a00542.xhtml#a531920b36b04ecdb562bfbb09dd2e856" target="_top" xlink:title=" ">
<polygon fill="white" stroke="#666666" points="605,-257 463,-257 463,-238 605,-238 605,-257"/>
<text text-anchor="middle" x="534" y="-245" font-family="Helvetica,sans-Serif" font-size="10.00">CBlockAudioIf::getNextBlock</text>
</a>
</g>
</g>
<!-- Node3&#45;&gt;Node10 -->
<g id="edge9" class="edge">
<title>Node3&#45;&gt;Node10</title>
<path fill="none" stroke="#63b8ff" d="M426.03,-247.5C434.86,-247.5 443.91,-247.5 452.85,-247.5"/>
<polygon fill="#63b8ff" stroke="#63b8ff" points="452.86,-251 462.86,-247.5 452.86,-244 452.86,-251"/>
</g>
<!-- Node11 -->
<g id="node11" class="node">
<title>Node11</title>
<g id="a_node11"><a xlink:href="a00502.xhtml#a9811f50434dd058d201290b2dc98bfcd" target="_top" xlink:title=" ">
<polygon fill="white" stroke="#666666" points="729,-202 642,-202 642,-183 729,-183 729,-202"/>
<text text-anchor="middle" x="685.5" y="-190" font-family="Helvetica,sans-Serif" font-size="10.00">CVector::mulC_I</text>
</a>
</g>
</g>
<!-- Node3&#45;&gt;Node11 -->
<g id="edge10" class="edge">
<title>Node3&#45;&gt;Node11</title>
<path fill="none" stroke="#63b8ff" d="M410.52,-232.5C416.31,-229.92 421.92,-226.94 427,-223.5 447.63,-209.52 440.42,-191.05 463,-180.5 522.53,-152.7 601.08,-167.28 646.87,-180.1"/>
<polygon fill="#63b8ff" stroke="#63b8ff" points="646.09,-183.52 656.67,-182.96 648.05,-176.8 646.09,-183.52"/>
</g>
<!-- Node12 -->
<g id="node12" class="node">
<title>Node12</title>
<g id="a_node12"><a xlink:href="a00606.xhtml#aa8a561b4133585586c5b595116a9217f" target="_top" xlink:title=" ">
<polygon fill="white" stroke="#666666" points="602.5,-219.5 465.5,-219.5 465.5,-189.5 602.5,-189.5 602.5,-219.5"/>
<text text-anchor="start" x="473.5" y="-207.5" font-family="Helvetica,sans-Serif" font-size="10.00">CNormalizeAudio::normalize</text>
<text text-anchor="middle" x="534" y="-196.5" font-family="Helvetica,sans-Serif" font-size="10.00">Block</text>
</a>
</g>
</g>
<!-- Node3&#45;&gt;Node12 -->
<g id="edge11" class="edge">
<title>Node3&#45;&gt;Node12</title>
<path fill="none" stroke="#63b8ff" d="M416.61,-232.46C430.78,-229.06 445.94,-225.41 460.48,-221.92"/>
<polygon fill="#63b8ff" stroke="#63b8ff" points="461.52,-225.27 470.43,-219.53 459.89,-218.46 461.52,-225.27"/>
</g>
<!-- Node5 -->
<g id="node5" class="node">
<title>Node5</title>
<g id="a_node5"><a xlink:href="a00502.xhtml#ad7c5cba73e439adac77778f61c9418f0" target="_top" xlink:title=" ">
<polygon fill="white" stroke="#666666" points="724,-343 647,-343 647,-324 724,-324 724,-343"/>
<text text-anchor="middle" x="685.5" y="-331" font-family="Helvetica,sans-Serif" font-size="10.00">CVector::copy</text>
</a>
</g>
</g>
<!-- Node4&#45;&gt;Node5 -->
<g id="edge4" class="edge">
<title>Node4&#45;&gt;Node5</title>
<path fill="none" stroke="#63b8ff" d="M572.34,-324.5C591.8,-326.06 615.81,-327.99 636.62,-329.66"/>
<polygon fill="#63b8ff" stroke="#63b8ff" points="636.61,-333.17 646.86,-330.48 637.17,-326.19 636.61,-333.17"/>
</g>
<!-- Node6 -->
<g id="node6" class="node">
<title>Node6</title>
<g id="a_node6"><a xlink:href="a00502.xhtml#a5fb59528a3f5d3968f988d550b270898" target="_top" xlink:title=" ">
<polygon fill="white" stroke="#666666" points="725.5,-306 645.5,-306 645.5,-287 725.5,-287 725.5,-306"/>
<text text-anchor="middle" x="685.5" y="-294" font-family="Helvetica,sans-Serif" font-size="10.00">CVector::mul_I</text>
</a>
</g>
</g>
<!-- Node4&#45;&gt;Node6 -->
<g id="edge5" class="edge">
<title>Node4&#45;&gt;Node6</title>
<path fill="none" stroke="#63b8ff" d="M572.34,-315.26C591.35,-312.08 614.72,-308.17 635.19,-304.75"/>
<polygon fill="#63b8ff" stroke="#63b8ff" points="636,-308.16 645.29,-303.06 634.85,-301.25 636,-308.16"/>
</g>
<!-- Node7 -->
<g id="node7" class="node">
<title>Node7</title>
<g id="a_node7"><a xlink:href="a00305.xhtml#a32fc71031e721d003fd1dc07f771351d" target="_top" xlink:title=" ">
<polygon fill="white" stroke="#666666" points="728.5,-268.5 642.5,-268.5 642.5,-238.5 728.5,-238.5 728.5,-268.5"/>
<text text-anchor="start" x="650.5" y="-256.5" font-family="Helvetica,sans-Serif" font-size="10.00">LaszloFft::realfft</text>
<text text-anchor="middle" x="685.5" y="-245.5" font-family="Helvetica,sans-Serif" font-size="10.00">_split</text>
</a>
</g>
</g>
<!-- Node4&#45;&gt;Node7 -->
<g id="edge6" class="edge">
<title>Node4&#45;&gt;Node7</title>
<path fill="none" stroke="#63b8ff" d="M572.18,-314.54C583.03,-311.82 594.73,-308.2 605,-303.5 622.71,-295.39 624.54,-288.92 641,-278.5 643.41,-276.97 645.93,-275.42 648.47,-273.89"/>
<polygon fill="#63b8ff" stroke="#63b8ff" points="650.32,-276.86 657.14,-268.75 646.75,-270.84 650.32,-276.86"/>
</g>
<!-- Node8 -->
<g id="node8" class="node">
<title>Node8</title>
<g id="a_node8"><a xlink:href="a00502.xhtml#a6dbb3f9f480568b60f7fe50090d20003" target="_top" xlink:title=" ">
<polygon fill="white" stroke="#666666" points="730,-380 641,-380 641,-361 730,-361 730,-380"/>
<text text-anchor="middle" x="685.5" y="-368" font-family="Helvetica,sans-Serif" font-size="10.00">CVector::setZero</text>
</a>
</g>
</g>
<!-- Node4&#45;&gt;Node8 -->
<g id="edge7" class="edge">
<title>Node4&#45;&gt;Node8</title>
<path fill="none" stroke="#63b8ff" d="M564.18,-331.06C587.44,-338.69 620.21,-349.43 645.68,-357.78"/>
<polygon fill="#63b8ff" stroke="#63b8ff" points="644.8,-361.17 655.39,-360.96 646.98,-354.52 644.8,-361.17"/>
</g>
<!-- Node12&#45;&gt;Node11 -->
<g id="edge12" class="edge">
<title>Node12&#45;&gt;Node11</title>
<path fill="none" stroke="#63b8ff" d="M602.75,-199.06C612.51,-198.28 622.43,-197.48 631.84,-196.73"/>
<polygon fill="#63b8ff" stroke="#63b8ff" points="632.12,-200.22 641.81,-195.93 631.56,-193.24 632.12,-200.22"/>
</g>
<!-- Node16 -->
<g id="node16" class="node">
<title>Node16</title>
<g id="a_node16"><a xlink:href="a00498.xhtml#a6d0e75b0bcbbb243b7141cfc0126e443" target="_top" xlink:title=" ">
<polygon fill="white" stroke="#666666" points="396,-93 310,-93 310,-74 396,-74 396,-93"/>
<text text-anchor="middle" x="353" y="-81" font-family="Helvetica,sans-Serif" font-size="10.00">CUtil::isPowOf2</text>
</a>
</g>
</g>
<!-- Node15&#45;&gt;Node16 -->
<g id="edge16" class="edge">
<title>Node15&#45;&gt;Node16</title>
<path fill="none" stroke="#63b8ff" d="M216.74,-83.5C243.04,-83.5 274.01,-83.5 299.68,-83.5"/>
<polygon fill="#63b8ff" stroke="#63b8ff" points="299.97,-87 309.97,-83.5 299.97,-80 299.97,-87"/>
</g>
<!-- Node18&#45;&gt;Node14 -->
<g id="edge19" class="edge">
<title>Node18&#45;&gt;Node14</title>
<path fill="none" stroke="#63b8ff" d="M237.52,-163.91C247.76,-163.96 258.28,-164.01 268.61,-164.07"/>
<polygon fill="#63b8ff" stroke="#63b8ff" points="268.83,-167.57 278.85,-164.12 268.87,-160.57 268.83,-167.57"/>
</g>
<!-- Node20 -->
<g id="node20" class="node">
<title>Node20</title>
<g id="a_node20"><a xlink:href="a00053.xhtml#a352c17bde18dd0d9c3989f6050b060b0" target="_top" xlink:title=" ">
<polygon fill="white" stroke="#666666" points="397.5,-56 308.5,-56 308.5,-37 397.5,-37 397.5,-56"/>
<text text-anchor="middle" x="353" y="-44" font-family="Helvetica,sans-Serif" font-size="10.00">getAcaBuildDate</text>
</a>
</g>
</g>
<!-- Node19&#45;&gt;Node20 -->
<g id="edge21" class="edge">
<title>Node19&#45;&gt;Node20</title>
<path fill="none" stroke="#63b8ff" d="M191.29,-46.5C220.22,-46.5 263.55,-46.5 297.92,-46.5"/>
<polygon fill="#63b8ff" stroke="#63b8ff" points="298.28,-50 308.28,-46.5 298.28,-43 298.28,-50"/>
</g>
<!-- Node21 -->
<g id="node21" class="node">
<title>Node21</title>
<g id="a_node21"><a xlink:href="a00053.xhtml#aeca12b465ae15d8b8e775e1b0cfec9f3" target="_top" xlink:title=" ">
<polygon fill="white" stroke="#666666" points="393,-19 313,-19 313,0 393,0 393,-19"/>
<text text-anchor="middle" x="353" y="-7" font-family="Helvetica,sans-Serif" font-size="10.00">getAcaVersion</text>
</a>
</g>
</g>
<!-- Node19&#45;&gt;Node21 -->
<g id="edge22" class="edge">
<title>Node19&#45;&gt;Node21</title>
<path fill="none" stroke="#63b8ff" d="M191.29,-40.39C221.61,-34.56 267.74,-25.7 302.81,-18.96"/>
<polygon fill="#63b8ff" stroke="#63b8ff" points="303.68,-22.35 312.84,-17.03 302.36,-15.48 303.68,-22.35"/>
</g>
</g>
</svg>
        <g id="navigator" transform="translate(0 0)" fill="#404254">
                <rect fill="#f2f5e9" fill-opacity="0.5" stroke="#606060" stroke-width=".5" x="0" y="0" width="60" height="60"/>
                <use id="zoomplus" xlink:href="#zoomPlus" x="17" y="9" onmousedown="handleZoom(evt,'in')"/>
                <use id="zoomminus" xlink:href="#zoomMin" x="42" y="9" onmousedown="handleZoom(evt,'out')"/>
                <use id="reset" xlink:href="#resetDef" x="30" y="36" onmousedown="handleReset()"/>
                <g id="arrowUp" xlink:href="#dirArrow" transform="translate(30 24)" onmousedown="handlePan(0,-1)">
                  <use xlink:href="#rim" fill="#404040">
                        <set attributeName="fill" to="#808080" begin="arrowUp.mouseover" end="arrowUp.mouseout"/>
                  </use>
                  <path fill="none" stroke="white" stroke-width="1.5" d="M0,-3.0v7 M-2.5,-0.5L0,-3.0L2.5,-0.5"/>
                </g>
                <g id="arrowRight" xlink:href="#dirArrow" transform="rotate(90) translate(36 -43)" onmousedown="handlePan(1,0)">
                  <use xlink:href="#rim" fill="#404040">
                        <set attributeName="fill" to="#808080" begin="arrowRight.mouseover" end="arrowRight.mouseout"/>
                  </use>
                  <path fill="none" stroke="white" stroke-width="1.5" d="M0,-3.0v7 M-2.5,-0.5L0,-3.0L2.5,-0.5"/>
                </g>
                <g id="arrowDown" xlink:href="#dirArrow" transform="rotate(180) translate(-30 -48)" onmousedown="handlePan(0,1)">
                  <use xlink:href="#rim" fill="#404040">
                        <set attributeName="fill" to="#808080" begin="arrowDown.mouseover" end="arrowDown.mouseout"/>
                  </use>
                  <path fill="none" stroke="white" stroke-width="1.5" d="M0,-3.0v7 M-2.5,-0.5L0,-3.0L2.5,-0.5"/>
                </g>
                <g id="arrowLeft" xlink:href="#dirArrow" transform="rotate(270) translate(-36 17)" onmousedown="handlePan(-1,0)">
                  <use xlink:href="#rim" fill="#404040">
                        <set attributeName="fill" to="#808080" begin="arrowLeft.mouseover" end="arrowLeft.mouseout"/>
                  </use>
                  <path fill="none" stroke="white" stroke-width="1.5" d="M0,-3.0v7 M-2.5,-0.5L0,-3.0L2.5,-0.5"/>
                </g>
        </g>
        <svg viewBox="0 0 15 15" width="100%" height="30px" preserveAspectRatio="xMaxYMin meet">
         <g id="arrow_out" transform="scale(0.3 0.3)">
          <a xlink:href="a00008_a0ddf1224851353fc92bfbff6f499fa97_cgraph_org.svg" target="_base">
           <rect id="button" ry="5" rx="5" y="6" x="6" height="38" width="38"
                fill="#f2f5e9" fill-opacity="0.5" stroke="#606060" stroke-width="1.0"/>
           <path id="arrow"
             d="M 11.500037,31.436501 C 11.940474,20.09759 22.043105,11.32322 32.158766,21.979434 L 37.068811,17.246167 C 37.068811,17.246167 37.088388,32 37.088388,32 L 22.160133,31.978069 C 22.160133,31.978069 26.997745,27.140456 26.997745,27.140456 C 18.528582,18.264221 13.291696,25.230495 11.500037,31.436501 z"
             style="fill:#404040;"/>
          </a>
         </g>
        </svg>
</svg>
