<?xml version="1.0" encoding="UTF-8" standalone="no"?>
<!DOCTYPE svg PUBLIC "-//W3C//DTD SVG 1.1//EN"
 "http://www.w3.org/Graphics/SVG/1.1/DTD/svg11.dtd">
<!-- Generated by graphviz version 4.0.0 (20220602.1335)
 -->
<!-- Title: BeatHisto.cpp Pages: 1 -->
<svg width="869pt" height="364pt"
 viewBox="0.00 0.00 869.00 364.00" xmlns="http://www.w3.org/2000/svg" xmlns:xlink="http://www.w3.org/1999/xlink">
<g id="graph0" class="graph" transform="scale(1 1) rotate(0) translate(4 360)">
<title>BeatHisto.cpp</title>
<polygon fill="white" stroke="transparent" points="-4,4 -4,-360 865,-360 865,4 -4,4"/>
<!-- Node1 -->
<g id="node1" class="node">
<title>Node1</title>
<g id="a_node1"><a xlink:title=" ">
<polygon fill="#bfbfbf" stroke="black" points="526,-336.5 526,-355.5 604,-355.5 604,-336.5 526,-336.5"/>
<text text-anchor="middle" x="565" y="-343.5" font-family="Helvetica,sans-Serif" font-size="10.00">BeatHisto.cpp</text>
</a>
</g>
</g>
<!-- Node2 -->
<g id="node2" class="node">
<title>Node2</title>
<g id="a_node2"><a xlink:href="a00167.xhtml" target="_top" xlink:title=" ">
<polygon fill="white" stroke="black" points="66.5,-56.5 66.5,-75.5 105.5,-75.5 105.5,-56.5 66.5,-56.5"/>
<text text-anchor="middle" x="86" y="-63.5" font-family="Helvetica,sans-Serif" font-size="10.00">Util.h</text>
</a>
</g>
</g>
<!-- Node1&#45;&gt;Node2 -->
<g id="edge1" class="edge">
<title>Node1&#45;&gt;Node2</title>
<path fill="none" stroke="midnightblue" d="M525.72,-345.71C397.59,-346.99 0,-342.3 0,-235 0,-235 0,-235 0,-177 0,-135.58 38.31,-100.45 63.79,-81.67"/>
<polygon fill="midnightblue" stroke="midnightblue" points="66.05,-84.36 72.18,-75.72 62,-78.64 66.05,-84.36"/>
</g>
<!-- Node6 -->
<g id="node6" class="node">
<title>Node6</title>
<g id="a_node6"><a xlink:href="a00161.xhtml" target="_top" xlink:title=" ">
<polygon fill="white" stroke="black" points="181.5,-168.5 181.5,-187.5 234.5,-187.5 234.5,-168.5 181.5,-168.5"/>
<text text-anchor="middle" x="208" y="-175.5" font-family="Helvetica,sans-Serif" font-size="10.00">Vector.h</text>
</a>
</g>
</g>
<!-- Node1&#45;&gt;Node6 -->
<g id="edge5" class="edge">
<title>Node1&#45;&gt;Node6</title>
<path fill="none" stroke="midnightblue" d="M525.91,-343.01C477.4,-339.35 393.02,-329.02 327,-300 288.92,-283.26 280.73,-274.09 252,-244 238.22,-229.57 225.81,-210.37 217.7,-196.59"/>
<polygon fill="midnightblue" stroke="midnightblue" points="220.6,-194.61 212.61,-187.66 214.52,-198.08 220.6,-194.61"/>
</g>
<!-- Node11 -->
<g id="node11" class="node">
<title>Node11</title>
<g id="a_node11"><a xlink:href="a00152.xhtml" target="_top" xlink:title=" ">
<polygon fill="white" stroke="black" points="646,-280.5 646,-299.5 682,-299.5 682,-280.5 646,-280.5"/>
<text text-anchor="middle" x="664" y="-287.5" font-family="Helvetica,sans-Serif" font-size="10.00">Fft.h</text>
</a>
</g>
</g>
<!-- Node1&#45;&gt;Node11 -->
<g id="edge15" class="edge">
<title>Node1&#45;&gt;Node11</title>
<path fill="none" stroke="midnightblue" d="M580.91,-336.32C596.64,-327.74 620.94,-314.49 639.21,-304.52"/>
<polygon fill="midnightblue" stroke="midnightblue" points="641.03,-307.52 648.13,-299.65 637.68,-301.37 641.03,-307.52"/>
</g>
<!-- Node12 -->
<g id="node12" class="node">
<title>Node12</title>
<g id="a_node12"><a xlink:href="a00203.xhtml" target="_top" xlink:title=" ">
<polygon fill="white" stroke="black" points="617.5,-224.5 617.5,-243.5 674.5,-243.5 674.5,-224.5 617.5,-224.5"/>
<text text-anchor="middle" x="646" y="-231.5" font-family="Helvetica,sans-Serif" font-size="10.00">Novelty.h</text>
</a>
</g>
</g>
<!-- Node1&#45;&gt;Node12 -->
<g id="edge17" class="edge">
<title>Node1&#45;&gt;Node12</title>
<path fill="none" stroke="midnightblue" d="M571.36,-336.37C584.78,-318.14 616.23,-275.43 633.72,-251.68"/>
<polygon fill="midnightblue" stroke="midnightblue" points="636.56,-253.72 639.67,-243.59 630.93,-249.57 636.56,-253.72"/>
</g>
<!-- Node14 -->
<g id="node14" class="node">
<title>Node14</title>
<g id="a_node14"><a xlink:href="a00212.xhtml" target="_top" xlink:title=" ">
<polygon fill="white" stroke="black" points="702,-280.5 702,-299.5 760,-299.5 760,-280.5 702,-280.5"/>
<text text-anchor="middle" x="731" y="-287.5" font-family="Helvetica,sans-Serif" font-size="10.00">ToolCcf.h</text>
</a>
</g>
</g>
<!-- Node1&#45;&gt;Node14 -->
<g id="edge20" class="edge">
<title>Node1&#45;&gt;Node14</title>
<path fill="none" stroke="midnightblue" d="M591.3,-336.44C619.35,-327.32 663.94,-312.81 695.18,-302.65"/>
<polygon fill="midnightblue" stroke="midnightblue" points="696.39,-305.94 704.82,-299.52 694.23,-299.28 696.39,-305.94"/>
</g>
<!-- Node15 -->
<g id="node15" class="node">
<title>Node15</title>
<g id="a_node15"><a xlink:href="a00194.xhtml" target="_top" xlink:title=" ">
<polygon fill="white" stroke="black" points="769,-112.5 769,-131.5 861,-131.5 861,-112.5 769,-112.5"/>
<text text-anchor="middle" x="815" y="-119.5" font-family="Helvetica,sans-Serif" font-size="10.00">ToolBlockAudio.h</text>
</a>
</g>
</g>
<!-- Node1&#45;&gt;Node15 -->
<g id="edge22" class="edge">
<title>Node1&#45;&gt;Node15</title>
<path fill="none" stroke="midnightblue" d="M604.24,-341.2C656.71,-335.33 745.82,-322.33 769,-300 813.36,-257.26 816.9,-177.65 816.02,-141.59"/>
<polygon fill="midnightblue" stroke="midnightblue" points="819.51,-141.38 815.62,-131.52 812.52,-141.65 819.51,-141.38"/>
</g>
<!-- Node16 -->
<g id="node16" class="node">
<title>Node16</title>
<g id="a_node16"><a xlink:href="a00140.xhtml" target="_top" xlink:title=" ">
<polygon fill="white" stroke="black" points="336,-280.5 336,-299.5 414,-299.5 414,-280.5 336,-280.5"/>
<text text-anchor="middle" x="375" y="-287.5" font-family="Helvetica,sans-Serif" font-size="10.00">ToolPreProc.h</text>
</a>
</g>
</g>
<!-- Node1&#45;&gt;Node16 -->
<g id="edge24" class="edge">
<title>Node1&#45;&gt;Node16</title>
<path fill="none" stroke="midnightblue" d="M534.89,-336.44C502.37,-327.2 450.42,-312.44 414.61,-302.26"/>
<polygon fill="midnightblue" stroke="midnightblue" points="415.54,-298.88 404.97,-299.52 413.63,-305.62 415.54,-298.88"/>
</g>
<!-- Node21 -->
<g id="node21" class="node">
<title>Node21</title>
<g id="a_node21"><a xlink:href="a00179.xhtml" target="_top" xlink:title=" ">
<polygon fill="white" stroke="black" points="405,-112.5 405,-131.5 497,-131.5 497,-112.5 405,-112.5"/>
<text text-anchor="middle" x="451" y="-119.5" font-family="Helvetica,sans-Serif" font-size="10.00">ToolConversion.h</text>
</a>
</g>
</g>
<!-- Node1&#45;&gt;Node21 -->
<g id="edge36" class="edge">
<title>Node1&#45;&gt;Node21</title>
<path fill="none" stroke="midnightblue" d="M560.53,-336.3C543.62,-303.36 483.3,-185.9 460.14,-140.81"/>
<polygon fill="midnightblue" stroke="midnightblue" points="463.24,-139.18 455.56,-131.88 457.02,-142.38 463.24,-139.18"/>
</g>
<!-- Node25 -->
<g id="node25" class="node">
<title>Node25</title>
<g id="a_node25"><a xlink:href="a00239.xhtml" target="_top" xlink:title=" ">
<polygon fill="white" stroke="black" points="531,-224.5 531,-243.5 599,-243.5 599,-224.5 531,-224.5"/>
<text text-anchor="middle" x="565" y="-231.5" font-family="Helvetica,sans-Serif" font-size="10.00">BeatHisto.h</text>
</a>
</g>
</g>
<!-- Node1&#45;&gt;Node25 -->
<g id="edge43" class="edge">
<title>Node1&#45;&gt;Node25</title>
<path fill="none" stroke="midnightblue" d="M565,-336.37C565,-318.62 565,-277.67 565,-253.6"/>
<polygon fill="midnightblue" stroke="midnightblue" points="568.5,-253.59 565,-243.59 561.5,-253.59 568.5,-253.59"/>
</g>
<!-- Node3 -->
<g id="node3" class="node">
<title>Node3</title>
<g id="a_node3"><a xlink:title=" ">
<polygon fill="white" stroke="#bfbfbf" points="311.5,-0.5 311.5,-19.5 360.5,-19.5 360.5,-0.5 311.5,-0.5"/>
<text text-anchor="middle" x="336" y="-7.5" font-family="Helvetica,sans-Serif" font-size="10.00">cassert</text>
</a>
</g>
</g>
<!-- Node2&#45;&gt;Node3 -->
<g id="edge2" class="edge">
<title>Node2&#45;&gt;Node3</title>
<path fill="none" stroke="midnightblue" d="M105.62,-60.76C147.92,-51.63 248.19,-29.97 301.42,-18.47"/>
<polygon fill="midnightblue" stroke="midnightblue" points="302.37,-21.85 311.4,-16.31 300.89,-15 302.37,-21.85"/>
</g>
<!-- Node4 -->
<g id="node4" class="node">
<title>Node4</title>
<g id="a_node4"><a xlink:title=" ">
<polygon fill="white" stroke="#bfbfbf" points="24,-0.5 24,-19.5 70,-19.5 70,-0.5 24,-0.5"/>
<text text-anchor="middle" x="47" y="-7.5" font-family="Helvetica,sans-Serif" font-size="10.00">cstring</text>
</a>
</g>
</g>
<!-- Node2&#45;&gt;Node4 -->
<g id="edge3" class="edge">
<title>Node2&#45;&gt;Node4</title>
<path fill="none" stroke="midnightblue" d="M79.56,-56.08C74.05,-48.46 65.97,-37.26 59.24,-27.94"/>
<polygon fill="midnightblue" stroke="midnightblue" points="62.01,-25.81 53.32,-19.75 56.34,-29.91 62.01,-25.81"/>
</g>
<!-- Node5 -->
<g id="node5" class="node">
<title>Node5</title>
<g id="a_node5"><a xlink:title=" ">
<polygon fill="white" stroke="#bfbfbf" points="97,-0.5 97,-19.5 137,-19.5 137,-0.5 97,-0.5"/>
<text text-anchor="middle" x="117" y="-7.5" font-family="Helvetica,sans-Serif" font-size="10.00">limits</text>
</a>
</g>
</g>
<!-- Node2&#45;&gt;Node5 -->
<g id="edge4" class="edge">
<title>Node2&#45;&gt;Node5</title>
<path fill="none" stroke="midnightblue" d="M91.12,-56.08C95.41,-48.61 101.66,-37.72 106.94,-28.52"/>
<polygon fill="midnightblue" stroke="midnightblue" points="110.03,-30.17 111.98,-19.75 103.96,-26.68 110.03,-30.17"/>
</g>
<!-- Node6&#45;&gt;Node3 -->
<g id="edge6" class="edge">
<title>Node6&#45;&gt;Node3</title>
<path fill="none" stroke="midnightblue" d="M218.34,-168.27C228.31,-159.61 243.52,-145.67 255,-132 283.86,-97.63 311.65,-52.74 325.97,-28.45"/>
<polygon fill="midnightblue" stroke="midnightblue" points="329.08,-30.06 331.09,-19.66 323.03,-26.54 329.08,-30.06"/>
</g>
<!-- Node6&#45;&gt;Node4 -->
<g id="edge7" class="edge">
<title>Node6&#45;&gt;Node4</title>
<path fill="none" stroke="midnightblue" d="M184.26,-168.4C149.96,-154.62 87.34,-124.17 57,-76 48.35,-62.26 46.22,-43.73 46.04,-29.97"/>
<polygon fill="midnightblue" stroke="midnightblue" points="49.55,-29.81 46.25,-19.75 42.55,-29.67 49.55,-29.81"/>
</g>
<!-- Node6&#45;&gt;Node5 -->
<g id="edge8" class="edge">
<title>Node6&#45;&gt;Node5</title>
<path fill="none" stroke="midnightblue" d="M193.29,-168.48C180.83,-160.55 163.39,-147.61 153,-132 131.63,-99.88 122.62,-54.72 119.09,-29.64"/>
<polygon fill="midnightblue" stroke="midnightblue" points="122.55,-29.13 117.82,-19.65 115.61,-30.01 122.55,-29.13"/>
</g>
<!-- Node7 -->
<g id="node7" class="node">
<title>Node7</title>
<g id="a_node7"><a xlink:title=" ">
<polygon fill="white" stroke="#bfbfbf" points="226,-56.5 226,-75.5 270,-75.5 270,-56.5 226,-56.5"/>
<text text-anchor="middle" x="248" y="-63.5" font-family="Helvetica,sans-Serif" font-size="10.00">cmath</text>
</a>
</g>
</g>
<!-- Node6&#45;&gt;Node7 -->
<g id="edge9" class="edge">
<title>Node6&#45;&gt;Node7</title>
<path fill="none" stroke="midnightblue" d="M215.77,-168.41C223.04,-159.84 233.57,-145.97 239,-132 244.74,-117.22 246.9,-99.29 247.67,-86.01"/>
<polygon fill="midnightblue" stroke="midnightblue" points="251.18,-85.85 248.05,-75.73 244.19,-85.59 251.18,-85.85"/>
</g>
<!-- Node8 -->
<g id="node8" class="node">
<title>Node8</title>
<g id="a_node8"><a xlink:href="a00164.xhtml" target="_top" xlink:title=" ">
<polygon fill="white" stroke="black" points="162.5,-112.5 162.5,-131.5 229.5,-131.5 229.5,-112.5 162.5,-112.5"/>
<text text-anchor="middle" x="196" y="-119.5" font-family="Helvetica,sans-Serif" font-size="10.00">Synthesis.h</text>
</a>
</g>
</g>
<!-- Node6&#45;&gt;Node8 -->
<g id="edge10" class="edge">
<title>Node6&#45;&gt;Node8</title>
<path fill="none" stroke="midnightblue" d="M206.02,-168.08C204.43,-160.93 202.14,-150.64 200.15,-141.69"/>
<polygon fill="midnightblue" stroke="midnightblue" points="203.53,-140.75 197.94,-131.75 196.7,-142.27 203.53,-140.75"/>
</g>
<!-- Node8&#45;&gt;Node2 -->
<g id="edge14" class="edge">
<title>Node8&#45;&gt;Node2</title>
<path fill="none" stroke="midnightblue" d="M178.33,-112.32C160.61,-103.62 133.1,-90.12 112.71,-80.11"/>
<polygon fill="midnightblue" stroke="midnightblue" points="114.15,-76.92 103.63,-75.65 111.06,-83.2 114.15,-76.92"/>
</g>
<!-- Node8&#45;&gt;Node7 -->
<g id="edge11" class="edge">
<title>Node8&#45;&gt;Node7</title>
<path fill="none" stroke="midnightblue" d="M204.59,-112.08C212.16,-104.22 223.38,-92.57 232.51,-83.08"/>
<polygon fill="midnightblue" stroke="midnightblue" points="235.16,-85.38 239.57,-75.75 230.12,-80.53 235.16,-85.38"/>
</g>
<!-- Node9 -->
<g id="node9" class="node">
<title>Node9</title>
<g id="a_node9"><a xlink:title=" ">
<polygon fill="white" stroke="#bfbfbf" points="162.5,-56.5 162.5,-75.5 207.5,-75.5 207.5,-56.5 162.5,-56.5"/>
<text text-anchor="middle" x="185" y="-63.5" font-family="Helvetica,sans-Serif" font-size="10.00">cstdlib</text>
</a>
</g>
</g>
<!-- Node8&#45;&gt;Node9 -->
<g id="edge12" class="edge">
<title>Node8&#45;&gt;Node9</title>
<path fill="none" stroke="midnightblue" d="M194.18,-112.08C192.73,-104.93 190.63,-94.64 188.81,-85.69"/>
<polygon fill="midnightblue" stroke="midnightblue" points="192.21,-84.85 186.78,-75.75 185.35,-86.25 192.21,-84.85"/>
</g>
<!-- Node10 -->
<g id="node10" class="node">
<title>Node10</title>
<g id="a_node10"><a xlink:href="a00125.xhtml" target="_top" xlink:title=" ">
<polygon fill="white" stroke="black" points="635.5,-56.5 635.5,-75.5 694.5,-75.5 694.5,-56.5 635.5,-56.5"/>
<text text-anchor="middle" x="665" y="-63.5" font-family="Helvetica,sans-Serif" font-size="10.00">ErrorDef.h</text>
</a>
</g>
</g>
<!-- Node8&#45;&gt;Node10 -->
<g id="edge13" class="edge">
<title>Node8&#45;&gt;Node10</title>
<path fill="none" stroke="midnightblue" d="M229.56,-117.17C297.32,-109.43 455.31,-91.37 588,-76 600.1,-74.6 613.26,-73.06 625.23,-71.66"/>
<polygon fill="midnightblue" stroke="midnightblue" points="625.86,-75.11 635.38,-70.48 625.05,-68.16 625.86,-75.11"/>
</g>
<!-- Node11&#45;&gt;Node10 -->
<g id="edge16" class="edge">
<title>Node11&#45;&gt;Node10</title>
<path fill="none" stroke="midnightblue" d="M669.13,-280.41C674.06,-271.61 681.16,-257.38 684,-244 696.11,-186.94 680.03,-117.8 670.75,-85.41"/>
<polygon fill="midnightblue" stroke="midnightblue" points="674.03,-84.15 667.81,-75.57 667.32,-86.15 674.03,-84.15"/>
</g>
<!-- Node12&#45;&gt;Node10 -->
<g id="edge19" class="edge">
<title>Node12&#45;&gt;Node10</title>
<path fill="none" stroke="midnightblue" d="M647.02,-224.08C650.01,-197.95 658.8,-121.21 662.87,-85.58"/>
<polygon fill="midnightblue" stroke="midnightblue" points="666.36,-85.9 664.02,-75.57 659.4,-85.11 666.36,-85.9"/>
</g>
<!-- Node13 -->
<g id="node13" class="node">
<title>Node13</title>
<g id="a_node13"><a xlink:title=" ">
<polygon fill="white" stroke="#bfbfbf" points="593.5,-168.5 593.5,-187.5 634.5,-187.5 634.5,-168.5 593.5,-168.5"/>
<text text-anchor="middle" x="614" y="-175.5" font-family="Helvetica,sans-Serif" font-size="10.00">string</text>
</a>
</g>
</g>
<!-- Node12&#45;&gt;Node13 -->
<g id="edge18" class="edge">
<title>Node12&#45;&gt;Node13</title>
<path fill="none" stroke="midnightblue" d="M640.72,-224.08C636.29,-216.61 629.84,-205.72 624.38,-196.52"/>
<polygon fill="midnightblue" stroke="midnightblue" points="627.29,-194.57 619.19,-187.75 621.27,-198.14 627.29,-194.57"/>
</g>
<!-- Node14&#45;&gt;Node10 -->
<g id="edge21" class="edge">
<title>Node14&#45;&gt;Node10</title>
<path fill="none" stroke="midnightblue" d="M730.19,-280.21C727.55,-253.86 717.85,-173.49 693,-112 689.04,-102.21 683,-92.15 677.55,-84.03"/>
<polygon fill="midnightblue" stroke="midnightblue" points="680.38,-81.98 671.77,-75.81 674.66,-86 680.38,-81.98"/>
</g>
<!-- Node15&#45;&gt;Node10 -->
<g id="edge23" class="edge">
<title>Node15&#45;&gt;Node10</title>
<path fill="none" stroke="midnightblue" d="M791.23,-112.44C766.11,-103.4 726.29,-89.06 698.1,-78.92"/>
<polygon fill="midnightblue" stroke="midnightblue" points="699.25,-75.61 688.66,-75.52 696.88,-82.2 699.25,-75.61"/>
</g>
<!-- Node16&#45;&gt;Node3 -->
<g id="edge25" class="edge">
<title>Node16&#45;&gt;Node3</title>
<path fill="none" stroke="midnightblue" d="M373.79,-280.38C368.36,-241.7 346.21,-83.79 338.59,-29.47"/>
<polygon fill="midnightblue" stroke="midnightblue" points="342.05,-28.94 337.2,-19.52 335.12,-29.91 342.05,-28.94"/>
</g>
<!-- Node16&#45;&gt;Node6 -->
<g id="edge35" class="edge">
<title>Node16&#45;&gt;Node6</title>
<path fill="none" stroke="midnightblue" d="M353.7,-280.46C334.49,-272.32 305.84,-259.11 283,-244 260.93,-229.4 238.35,-208.93 223.82,-194.88"/>
<polygon fill="midnightblue" stroke="midnightblue" points="226.21,-192.33 216.62,-187.82 221.3,-197.32 226.21,-192.33"/>
</g>
<!-- Node17 -->
<g id="node17" class="node">
<title>Node17</title>
<g id="a_node17"><a xlink:href="a00173.xhtml" target="_top" xlink:title=" ">
<polygon fill="white" stroke="black" points="403.5,-224.5 403.5,-243.5 474.5,-243.5 474.5,-224.5 403.5,-224.5"/>
<text text-anchor="middle" x="439" y="-231.5" font-family="Helvetica,sans-Serif" font-size="10.00">AudioFileIf.h</text>
</a>
</g>
</g>
<!-- Node16&#45;&gt;Node17 -->
<g id="edge26" class="edge">
<title>Node16&#45;&gt;Node17</title>
<path fill="none" stroke="midnightblue" d="M385.28,-280.32C394.84,-272.26 409.28,-260.08 420.78,-250.37"/>
<polygon fill="midnightblue" stroke="midnightblue" points="423.14,-252.96 428.53,-243.83 418.63,-247.61 423.14,-252.96"/>
</g>
<!-- Node20 -->
<g id="node20" class="node">
<title>Node20</title>
<g id="a_node20"><a xlink:href="a00155.xhtml" target="_top" xlink:title=" ">
<polygon fill="white" stroke="black" points="292,-224.5 292,-243.5 342,-243.5 342,-224.5 292,-224.5"/>
<text text-anchor="middle" x="317" y="-231.5" font-family="Helvetica,sans-Serif" font-size="10.00">Matrix.h</text>
</a>
</g>
</g>
<!-- Node16&#45;&gt;Node20 -->
<g id="edge31" class="edge">
<title>Node16&#45;&gt;Node20</title>
<path fill="none" stroke="midnightblue" d="M365.68,-280.32C357.11,-272.34 344.19,-260.31 333.81,-250.65"/>
<polygon fill="midnightblue" stroke="midnightblue" points="336.19,-248.09 326.49,-243.83 331.42,-253.21 336.19,-248.09"/>
</g>
<!-- Node17&#45;&gt;Node10 -->
<g id="edge30" class="edge">
<title>Node17&#45;&gt;Node10</title>
<path fill="none" stroke="midnightblue" d="M450.51,-224.46C477.24,-204.64 545.61,-154 603,-112 616.99,-101.76 632.81,-90.28 644.97,-81.48"/>
<polygon fill="midnightblue" stroke="midnightblue" points="647.04,-84.3 653.09,-75.6 642.94,-78.63 647.04,-84.3"/>
</g>
<!-- Node17&#45;&gt;Node13 -->
<g id="edge27" class="edge">
<title>Node17&#45;&gt;Node13</title>
<path fill="none" stroke="midnightblue" d="M466.73,-224.44C498.61,-214.61 550.77,-198.51 583.69,-188.35"/>
<polygon fill="midnightblue" stroke="midnightblue" points="584.73,-191.7 593.25,-185.4 582.66,-185.01 584.73,-191.7"/>
</g>
<!-- Node18 -->
<g id="node18" class="node">
<title>Node18</title>
<g id="a_node18"><a xlink:title=" ">
<polygon fill="white" stroke="#bfbfbf" points="403,-168.5 403,-187.5 453,-187.5 453,-168.5 403,-168.5"/>
<text text-anchor="middle" x="428" y="-175.5" font-family="Helvetica,sans-Serif" font-size="10.00">fstream</text>
</a>
</g>
</g>
<!-- Node17&#45;&gt;Node18 -->
<g id="edge28" class="edge">
<title>Node17&#45;&gt;Node18</title>
<path fill="none" stroke="midnightblue" d="M437.18,-224.08C435.73,-216.93 433.63,-206.64 431.81,-197.69"/>
<polygon fill="midnightblue" stroke="midnightblue" points="435.21,-196.85 429.78,-187.75 428.35,-198.25 435.21,-196.85"/>
</g>
<!-- Node19 -->
<g id="node19" class="node">
<title>Node19</title>
<g id="a_node19"><a xlink:title=" ">
<polygon fill="white" stroke="#bfbfbf" points="291,-168.5 291,-187.5 347,-187.5 347,-168.5 291,-168.5"/>
<text text-anchor="middle" x="319" y="-175.5" font-family="Helvetica,sans-Serif" font-size="10.00">algorithm</text>
</a>
</g>
</g>
<!-- Node17&#45;&gt;Node19 -->
<g id="edge29" class="edge">
<title>Node17&#45;&gt;Node19</title>
<path fill="none" stroke="midnightblue" d="M419.99,-224.44C400.41,-215.64 369.69,-201.81 347.27,-191.72"/>
<polygon fill="midnightblue" stroke="midnightblue" points="348.48,-188.43 337.93,-187.52 345.61,-194.81 348.48,-188.43"/>
</g>
<!-- Node20&#45;&gt;Node3 -->
<g id="edge32" class="edge">
<title>Node20&#45;&gt;Node3</title>
<path fill="none" stroke="midnightblue" d="M307.44,-224.45C298.91,-216.12 287.01,-202.6 282,-188 279.12,-179.59 280.43,-176.75 282,-168 289.68,-125.09 302.03,-117.29 316,-76 321.26,-60.45 326.71,-42.61 330.59,-29.56"/>
<polygon fill="midnightblue" stroke="midnightblue" points="333.97,-30.46 333.44,-19.88 327.26,-28.49 333.97,-30.46"/>
</g>
<!-- Node20&#45;&gt;Node6 -->
<g id="edge34" class="edge">
<title>Node20&#45;&gt;Node6</title>
<path fill="none" stroke="midnightblue" d="M299.49,-224.32C281.93,-215.62 254.67,-202.12 234.47,-192.11"/>
<polygon fill="midnightblue" stroke="midnightblue" points="235.98,-188.96 225.47,-187.65 232.88,-195.23 235.98,-188.96"/>
</g>
<!-- Node20&#45;&gt;Node19 -->
<g id="edge33" class="edge">
<title>Node20&#45;&gt;Node19</title>
<path fill="none" stroke="midnightblue" d="M317.33,-224.08C317.59,-217.01 317.97,-206.86 318.3,-197.99"/>
<polygon fill="midnightblue" stroke="midnightblue" points="321.8,-197.87 318.68,-187.75 314.81,-197.61 321.8,-197.87"/>
</g>
<!-- Node21&#45;&gt;Node3 -->
<g id="edge39" class="edge">
<title>Node21&#45;&gt;Node3</title>
<path fill="none" stroke="midnightblue" d="M494.58,-112.46C530.33,-104.47 576.8,-91.46 588,-76 593.21,-68.8 593.71,-62.82 588,-56 560.69,-23.39 433.32,-14.38 370.8,-11.92"/>
<polygon fill="midnightblue" stroke="midnightblue" points="370.75,-8.42 360.63,-11.55 370.5,-15.41 370.75,-8.42"/>
</g>
<!-- Node21&#45;&gt;Node7 -->
<g id="edge37" class="edge">
<title>Node21&#45;&gt;Node7</title>
<path fill="none" stroke="midnightblue" d="M418.83,-112.44C380.82,-102.33 317.95,-85.61 280.01,-75.51"/>
<polygon fill="midnightblue" stroke="midnightblue" points="280.57,-72.04 270.01,-72.85 278.77,-78.81 280.57,-72.04"/>
</g>
<!-- Node21&#45;&gt;Node10 -->
<g id="edge42" class="edge">
<title>Node21&#45;&gt;Node10</title>
<path fill="none" stroke="midnightblue" d="M484.91,-112.44C523.15,-102.79 585.26,-87.12 625.62,-76.94"/>
<polygon fill="midnightblue" stroke="midnightblue" points="626.55,-80.31 635.38,-74.47 624.83,-73.53 626.55,-80.31"/>
</g>
<!-- Node22 -->
<g id="node22" class="node">
<title>Node22</title>
<g id="a_node22"><a xlink:title=" ">
<polygon fill="white" stroke="#bfbfbf" points="402,-56.5 402,-75.5 448,-75.5 448,-56.5 402,-56.5"/>
<text text-anchor="middle" x="425" y="-63.5" font-family="Helvetica,sans-Serif" font-size="10.00">cstdint</text>
</a>
</g>
</g>
<!-- Node21&#45;&gt;Node22 -->
<g id="edge38" class="edge">
<title>Node21&#45;&gt;Node22</title>
<path fill="none" stroke="midnightblue" d="M446.71,-112.08C443.15,-104.69 437.98,-93.95 433.58,-84.81"/>
<polygon fill="midnightblue" stroke="midnightblue" points="436.71,-83.24 429.21,-75.75 430.4,-86.28 436.71,-83.24"/>
</g>
<!-- Node23 -->
<g id="node23" class="node">
<title>Node23</title>
<g id="a_node23"><a xlink:title=" ">
<polygon fill="white" stroke="#bfbfbf" points="466.5,-56.5 466.5,-75.5 501.5,-75.5 501.5,-56.5 466.5,-56.5"/>
<text text-anchor="middle" x="484" y="-63.5" font-family="Helvetica,sans-Serif" font-size="10.00">map</text>
</a>
</g>
</g>
<!-- Node21&#45;&gt;Node23 -->
<g id="edge40" class="edge">
<title>Node21&#45;&gt;Node23</title>
<path fill="none" stroke="midnightblue" d="M456.45,-112.08C461.01,-104.61 467.67,-93.72 473.29,-84.52"/>
<polygon fill="midnightblue" stroke="midnightblue" points="476.42,-86.11 478.65,-75.75 470.45,-82.46 476.42,-86.11"/>
</g>
<!-- Node24 -->
<g id="node24" class="node">
<title>Node24</title>
<g id="a_node24"><a xlink:title=" ">
<polygon fill="white" stroke="#bfbfbf" points="519.5,-56.5 519.5,-75.5 578.5,-75.5 578.5,-56.5 519.5,-56.5"/>
<text text-anchor="middle" x="549" y="-63.5" font-family="Helvetica,sans-Serif" font-size="10.00">functional</text>
</a>
</g>
</g>
<!-- Node21&#45;&gt;Node24 -->
<g id="edge41" class="edge">
<title>Node21&#45;&gt;Node24</title>
<path fill="none" stroke="midnightblue" d="M466.75,-112.32C482.32,-103.74 506.38,-90.49 524.46,-80.52"/>
<polygon fill="midnightblue" stroke="midnightblue" points="526.22,-83.55 533.29,-75.65 522.85,-77.42 526.22,-83.55"/>
</g>
<!-- Node25&#45;&gt;Node10 -->
<g id="edge45" class="edge">
<title>Node25&#45;&gt;Node10</title>
<path fill="none" stroke="midnightblue" d="M566.63,-224.19C569.24,-211.3 575.11,-186.81 585,-168 602.42,-134.89 631.22,-101.93 649.1,-83.06"/>
<polygon fill="midnightblue" stroke="midnightblue" points="651.82,-85.28 656.25,-75.65 646.79,-80.42 651.82,-85.28"/>
</g>
<!-- Node25&#45;&gt;Node13 -->
<g id="edge44" class="edge">
<title>Node25&#45;&gt;Node13</title>
<path fill="none" stroke="midnightblue" d="M573.09,-224.08C580.16,-216.3 590.59,-204.8 599.15,-195.37"/>
<polygon fill="midnightblue" stroke="midnightblue" points="601.93,-197.51 606.06,-187.75 596.75,-192.8 601.93,-197.51"/>
</g>
</g>
</svg>
