<?xml version="1.0" encoding="UTF-8" standalone="no"?>
<!DOCTYPE svg PUBLIC "-//W3C//DTD SVG 1.1//EN"
 "http://www.w3.org/Graphics/SVG/1.1/DTD/svg11.dtd">
<!-- Generated by graphviz version 4.0.0 (20220602.1335)
 -->
<!-- Title: ToolGmmClassifier.cpp Pages: 1 -->
<svg width="425pt" height="364pt"
 viewBox="0.00 0.00 425.00 364.00" xmlns="http://www.w3.org/2000/svg" xmlns:xlink="http://www.w3.org/1999/xlink">
<g id="graph0" class="graph" transform="scale(1 1) rotate(0) translate(4 360)">
<title>ToolGmmClassifier.cpp</title>
<polygon fill="white" stroke="transparent" points="-4,4 -4,-360 421,-360 421,4 -4,4"/>
<!-- Node1 -->
<g id="node1" class="node">
<title>Node1</title>
<g id="a_node1"><a xlink:title=" ">
<polygon fill="#bfbfbf" stroke="black" points="126,-336.5 126,-355.5 243,-355.5 243,-336.5 126,-336.5"/>
<text text-anchor="middle" x="184.5" y="-343.5" font-family="Helvetica,sans-Serif" font-size="10.00">ToolGmmClassifier.cpp</text>
</a>
</g>
</g>
<!-- Node2 -->
<g id="node2" class="node">
<title>Node2</title>
<g id="a_node2"><a xlink:href="a00155.xhtml" target="_top" xlink:title=" ">
<polygon fill="white" stroke="black" points="117,-168.5 117,-187.5 170,-187.5 170,-168.5 117,-168.5"/>
<text text-anchor="middle" x="143.5" y="-175.5" font-family="Helvetica,sans-Serif" font-size="10.00">Vector.h</text>
</a>
</g>
</g>
<!-- Node1&#45;&gt;Node2 -->
<g id="edge1" class="edge">
<title>Node1&#45;&gt;Node2</title>
<path fill="none" stroke="midnightblue" d="M179.58,-336.32C174.76,-327.46 167.58,-313.18 163.5,-300 152.62,-264.87 147.32,-222.06 145.02,-197.92"/>
<polygon fill="midnightblue" stroke="midnightblue" points="148.48,-197.35 144.12,-187.69 141.51,-197.96 148.48,-197.35"/>
</g>
<!-- Node11 -->
<g id="node11" class="node">
<title>Node11</title>
<g id="a_node11"><a xlink:href="a00143.xhtml" target="_top" xlink:title=" ">
<polygon fill="white" stroke="black" points="55.5,-224.5 55.5,-243.5 105.5,-243.5 105.5,-224.5 55.5,-224.5"/>
<text text-anchor="middle" x="80.5" y="-231.5" font-family="Helvetica,sans-Serif" font-size="10.00">Matrix.h</text>
</a>
</g>
</g>
<!-- Node1&#45;&gt;Node11 -->
<g id="edge14" class="edge">
<title>Node1&#45;&gt;Node11</title>
<path fill="none" stroke="midnightblue" d="M172.43,-336.44C160.79,-327.9 143.01,-314.06 129.5,-300 115.02,-284.93 100.92,-265.58 91.59,-251.93"/>
<polygon fill="midnightblue" stroke="midnightblue" points="94.42,-249.87 85.95,-243.51 88.61,-253.76 94.42,-249.87"/>
</g>
<!-- Node13 -->
<g id="node13" class="node">
<title>Node13</title>
<g id="a_node13"><a xlink:href="a00182.xhtml" target="_top" xlink:title=" ">
<polygon fill="white" stroke="black" points="350,-112.5 350,-131.5 417,-131.5 417,-112.5 350,-112.5"/>
<text text-anchor="middle" x="383.5" y="-119.5" font-family="Helvetica,sans-Serif" font-size="10.00">ToolGmm.h</text>
</a>
</g>
</g>
<!-- Node1&#45;&gt;Node13 -->
<g id="edge18" class="edge">
<title>Node1&#45;&gt;Node13</title>
<path fill="none" stroke="midnightblue" d="M219.13,-336.39C241.09,-329.5 268.95,-317.97 288.5,-300 338.08,-254.43 366.92,-176.9 378.09,-141.55"/>
<polygon fill="midnightblue" stroke="midnightblue" points="381.54,-142.24 381.1,-131.65 374.85,-140.2 381.54,-142.24"/>
</g>
<!-- Node14 -->
<g id="node14" class="node">
<title>Node14</title>
<g id="a_node14"><a xlink:href="a00188.xhtml" target="_top" xlink:title=" ">
<polygon fill="white" stroke="black" points="172,-280.5 172,-299.5 279,-299.5 279,-280.5 172,-280.5"/>
<text text-anchor="middle" x="225.5" y="-287.5" font-family="Helvetica,sans-Serif" font-size="10.00">ToolGmmClassifier.h</text>
</a>
</g>
</g>
<!-- Node1&#45;&gt;Node14 -->
<g id="edge20" class="edge">
<title>Node1&#45;&gt;Node14</title>
<path fill="none" stroke="midnightblue" d="M191.27,-336.08C197.06,-328.46 205.56,-317.26 212.64,-307.94"/>
<polygon fill="midnightblue" stroke="midnightblue" points="215.6,-309.83 218.86,-299.75 210.02,-305.6 215.6,-309.83"/>
</g>
<!-- Node3 -->
<g id="node3" class="node">
<title>Node3</title>
<g id="a_node3"><a xlink:title=" ">
<polygon fill="white" stroke="#bfbfbf" points="0,-0.5 0,-19.5 49,-19.5 49,-0.5 0,-0.5"/>
<text text-anchor="middle" x="24.5" y="-7.5" font-family="Helvetica,sans-Serif" font-size="10.00">cassert</text>
</a>
</g>
</g>
<!-- Node2&#45;&gt;Node3 -->
<g id="edge2" class="edge">
<title>Node2&#45;&gt;Node3</title>
<path fill="none" stroke="midnightblue" d="M131.8,-168.26C121,-159.79 104.93,-146.19 93.5,-132 66.69,-98.71 44.01,-53.71 32.53,-29.04"/>
<polygon fill="midnightblue" stroke="midnightblue" points="35.66,-27.45 28.32,-19.8 29.29,-30.35 35.66,-27.45"/>
</g>
<!-- Node4 -->
<g id="node4" class="node">
<title>Node4</title>
<g id="a_node4"><a xlink:title=" ">
<polygon fill="white" stroke="#bfbfbf" points="113.5,-0.5 113.5,-19.5 159.5,-19.5 159.5,-0.5 113.5,-0.5"/>
<text text-anchor="middle" x="136.5" y="-7.5" font-family="Helvetica,sans-Serif" font-size="10.00">cstring</text>
</a>
</g>
</g>
<!-- Node2&#45;&gt;Node4 -->
<g id="edge3" class="edge">
<title>Node2&#45;&gt;Node4</title>
<path fill="none" stroke="midnightblue" d="M135.83,-168.35C121.74,-151.82 92.24,-114.02 81.5,-76 79.08,-67.45 77.69,-64.03 81.5,-56 87.63,-43.07 99.49,-32.62 110.64,-25.05"/>
<polygon fill="midnightblue" stroke="midnightblue" points="112.69,-27.9 119.3,-19.61 108.97,-21.97 112.69,-27.9"/>
</g>
<!-- Node5 -->
<g id="node5" class="node">
<title>Node5</title>
<g id="a_node5"><a xlink:title=" ">
<polygon fill="white" stroke="#bfbfbf" points="187.5,-0.5 187.5,-19.5 227.5,-19.5 227.5,-0.5 187.5,-0.5"/>
<text text-anchor="middle" x="207.5" y="-7.5" font-family="Helvetica,sans-Serif" font-size="10.00">limits</text>
</a>
</g>
</g>
<!-- Node2&#45;&gt;Node5 -->
<g id="edge4" class="edge">
<title>Node2&#45;&gt;Node5</title>
<path fill="none" stroke="midnightblue" d="M163.72,-168.29C193.49,-154.1 247.46,-122.8 264.5,-76 267.54,-67.65 268.38,-64 264.5,-56 258.1,-42.8 245.75,-32.3 234.17,-24.78"/>
<polygon fill="midnightblue" stroke="midnightblue" points="235.95,-21.77 225.58,-19.61 232.34,-27.77 235.95,-21.77"/>
</g>
<!-- Node6 -->
<g id="node6" class="node">
<title>Node6</title>
<g id="a_node6"><a xlink:title=" ">
<polygon fill="white" stroke="#bfbfbf" points="90.5,-56.5 90.5,-75.5 134.5,-75.5 134.5,-56.5 90.5,-56.5"/>
<text text-anchor="middle" x="112.5" y="-63.5" font-family="Helvetica,sans-Serif" font-size="10.00">cmath</text>
</a>
</g>
</g>
<!-- Node2&#45;&gt;Node6 -->
<g id="edge5" class="edge">
<title>Node2&#45;&gt;Node6</title>
<path fill="none" stroke="midnightblue" d="M141.07,-168.37C136.04,-150.54 124.42,-109.3 117.65,-85.27"/>
<polygon fill="midnightblue" stroke="midnightblue" points="121,-84.27 114.92,-75.59 114.27,-86.17 121,-84.27"/>
</g>
<!-- Node7 -->
<g id="node7" class="node">
<title>Node7</title>
<g id="a_node7"><a xlink:href="a00140.xhtml" target="_top" xlink:title=" ">
<polygon fill="white" stroke="black" points="141,-112.5 141,-131.5 208,-131.5 208,-112.5 141,-112.5"/>
<text text-anchor="middle" x="174.5" y="-119.5" font-family="Helvetica,sans-Serif" font-size="10.00">Synthesis.h</text>
</a>
</g>
</g>
<!-- Node2&#45;&gt;Node7 -->
<g id="edge6" class="edge">
<title>Node2&#45;&gt;Node7</title>
<path fill="none" stroke="midnightblue" d="M148.62,-168.08C152.91,-160.61 159.16,-149.72 164.44,-140.52"/>
<polygon fill="midnightblue" stroke="midnightblue" points="167.53,-142.17 169.48,-131.75 161.46,-138.68 167.53,-142.17"/>
</g>
<!-- Node7&#45;&gt;Node6 -->
<g id="edge7" class="edge">
<title>Node7&#45;&gt;Node6</title>
<path fill="none" stroke="midnightblue" d="M164.54,-112.32C155.37,-104.34 141.56,-92.31 130.47,-82.65"/>
<polygon fill="midnightblue" stroke="midnightblue" points="132.48,-79.76 122.64,-75.83 127.88,-85.04 132.48,-79.76"/>
</g>
<!-- Node8 -->
<g id="node8" class="node">
<title>Node8</title>
<g id="a_node8"><a xlink:title=" ">
<polygon fill="white" stroke="#bfbfbf" points="210,-56.5 210,-75.5 255,-75.5 255,-56.5 210,-56.5"/>
<text text-anchor="middle" x="232.5" y="-63.5" font-family="Helvetica,sans-Serif" font-size="10.00">cstdlib</text>
</a>
</g>
</g>
<!-- Node7&#45;&gt;Node8 -->
<g id="edge8" class="edge">
<title>Node7&#45;&gt;Node8</title>
<path fill="none" stroke="midnightblue" d="M183.82,-112.32C192.39,-104.34 205.31,-92.31 215.69,-82.65"/>
<polygon fill="midnightblue" stroke="midnightblue" points="218.08,-85.21 223.01,-75.83 213.31,-80.09 218.08,-85.21"/>
</g>
<!-- Node9 -->
<g id="node9" class="node">
<title>Node9</title>
<g id="a_node9"><a xlink:href="a00224.xhtml" target="_top" xlink:title=" ">
<polygon fill="white" stroke="black" points="312,-56.5 312,-75.5 371,-75.5 371,-56.5 312,-56.5"/>
<text text-anchor="middle" x="341.5" y="-63.5" font-family="Helvetica,sans-Serif" font-size="10.00">ErrorDef.h</text>
</a>
</g>
</g>
<!-- Node7&#45;&gt;Node9 -->
<g id="edge9" class="edge">
<title>Node7&#45;&gt;Node9</title>
<path fill="none" stroke="midnightblue" d="M200.96,-112.44C229.18,-103.32 274.04,-88.81 305.47,-78.65"/>
<polygon fill="midnightblue" stroke="midnightblue" points="306.72,-81.92 315.16,-75.52 304.57,-75.26 306.72,-81.92"/>
</g>
<!-- Node10 -->
<g id="node10" class="node">
<title>Node10</title>
<g id="a_node10"><a xlink:href="a00149.xhtml" target="_top" xlink:title=" ">
<polygon fill="white" stroke="black" points="153,-56.5 153,-75.5 192,-75.5 192,-56.5 153,-56.5"/>
<text text-anchor="middle" x="172.5" y="-63.5" font-family="Helvetica,sans-Serif" font-size="10.00">Util.h</text>
</a>
</g>
</g>
<!-- Node7&#45;&gt;Node10 -->
<g id="edge10" class="edge">
<title>Node7&#45;&gt;Node10</title>
<path fill="none" stroke="midnightblue" d="M174.17,-112.08C173.91,-105.01 173.53,-94.86 173.2,-85.99"/>
<polygon fill="midnightblue" stroke="midnightblue" points="176.69,-85.61 172.82,-75.75 169.7,-85.87 176.69,-85.61"/>
</g>
<!-- Node10&#45;&gt;Node3 -->
<g id="edge11" class="edge">
<title>Node10&#45;&gt;Node3</title>
<path fill="none" stroke="midnightblue" d="M152.85,-57.83C128.54,-48.96 86.82,-33.74 57.55,-23.06"/>
<polygon fill="midnightblue" stroke="midnightblue" points="58.74,-19.77 48.15,-19.63 56.35,-26.34 58.74,-19.77"/>
</g>
<!-- Node10&#45;&gt;Node4 -->
<g id="edge12" class="edge">
<title>Node10&#45;&gt;Node4</title>
<path fill="none" stroke="midnightblue" d="M166.56,-56.08C161.52,-48.53 154.16,-37.49 147.99,-28.23"/>
<polygon fill="midnightblue" stroke="midnightblue" points="150.79,-26.13 142.33,-19.75 144.97,-30.01 150.79,-26.13"/>
</g>
<!-- Node10&#45;&gt;Node5 -->
<g id="edge13" class="edge">
<title>Node10&#45;&gt;Node5</title>
<path fill="none" stroke="midnightblue" d="M178.28,-56.08C183.17,-48.53 190.33,-37.49 196.33,-28.23"/>
<polygon fill="midnightblue" stroke="midnightblue" points="199.33,-30.05 201.83,-19.75 193.45,-26.24 199.33,-30.05"/>
</g>
<!-- Node11&#45;&gt;Node2 -->
<g id="edge17" class="edge">
<title>Node11&#45;&gt;Node2</title>
<path fill="none" stroke="midnightblue" d="M90.62,-224.32C100.03,-216.26 114.24,-204.08 125.57,-194.37"/>
<polygon fill="midnightblue" stroke="midnightblue" points="127.88,-197 133.19,-187.83 123.32,-191.68 127.88,-197"/>
</g>
<!-- Node11&#45;&gt;Node3 -->
<g id="edge15" class="edge">
<title>Node11&#45;&gt;Node3</title>
<path fill="none" stroke="midnightblue" d="M67.07,-224.49C55.87,-216.55 40.64,-203.62 33.5,-188 9.23,-134.94 15.98,-63.36 21.11,-29.82"/>
<polygon fill="midnightblue" stroke="midnightblue" points="24.61,-30.07 22.8,-19.63 17.71,-28.92 24.61,-30.07"/>
</g>
<!-- Node12 -->
<g id="node12" class="node">
<title>Node12</title>
<g id="a_node12"><a xlink:title=" ">
<polygon fill="white" stroke="#bfbfbf" points="42.5,-168.5 42.5,-187.5 98.5,-187.5 98.5,-168.5 42.5,-168.5"/>
<text text-anchor="middle" x="70.5" y="-175.5" font-family="Helvetica,sans-Serif" font-size="10.00">algorithm</text>
</a>
</g>
</g>
<!-- Node11&#45;&gt;Node12 -->
<g id="edge16" class="edge">
<title>Node11&#45;&gt;Node12</title>
<path fill="none" stroke="midnightblue" d="M78.85,-224.08C77.52,-216.93 75.62,-206.64 73.96,-197.69"/>
<polygon fill="midnightblue" stroke="midnightblue" points="77.38,-196.95 72.12,-187.75 70.5,-198.22 77.38,-196.95"/>
</g>
<!-- Node13&#45;&gt;Node9 -->
<g id="edge19" class="edge">
<title>Node13&#45;&gt;Node9</title>
<path fill="none" stroke="midnightblue" d="M376.56,-112.08C370.57,-104.38 361.75,-93.03 354.45,-83.65"/>
<polygon fill="midnightblue" stroke="midnightblue" points="357.21,-81.5 348.31,-75.75 351.68,-85.79 357.21,-81.5"/>
</g>
<!-- Node14&#45;&gt;Node9 -->
<g id="edge21" class="edge">
<title>Node14&#45;&gt;Node9</title>
<path fill="none" stroke="midnightblue" d="M237.89,-280.28C248.82,-272.02 264.53,-258.73 274.5,-244 309.57,-192.17 329.54,-119.48 337.47,-85.67"/>
<polygon fill="midnightblue" stroke="midnightblue" points="340.92,-86.3 339.7,-75.78 334.09,-84.76 340.92,-86.3"/>
</g>
<!-- Node15 -->
<g id="node15" class="node">
<title>Node15</title>
<g id="a_node15"><a xlink:href="a00245.xhtml" target="_top" xlink:title=" ">
<polygon fill="white" stroke="black" points="179.5,-224.5 179.5,-243.5 265.5,-243.5 265.5,-224.5 179.5,-224.5"/>
<text text-anchor="middle" x="222.5" y="-231.5" font-family="Helvetica,sans-Serif" font-size="10.00">ClassifierBase.h</text>
</a>
</g>
</g>
<!-- Node14&#45;&gt;Node15 -->
<g id="edge22" class="edge">
<title>Node14&#45;&gt;Node15</title>
<path fill="none" stroke="midnightblue" d="M225,-280.08C224.61,-273.01 224.05,-262.86 223.55,-253.99"/>
<polygon fill="midnightblue" stroke="midnightblue" points="227.04,-253.54 222.99,-243.75 220.05,-253.93 227.04,-253.54"/>
</g>
<!-- Node15&#45;&gt;Node2 -->
<g id="edge23" class="edge">
<title>Node15&#45;&gt;Node2</title>
<path fill="none" stroke="midnightblue" d="M209.81,-224.32C197.6,-215.98 178.92,-203.21 164.5,-193.35"/>
<polygon fill="midnightblue" stroke="midnightblue" points="166.39,-190.41 156.16,-187.65 162.44,-196.19 166.39,-190.41"/>
</g>
</g>
</svg>
