<?xml version="1.0" encoding="UTF-8" standalone="no"?>
<!DOCTYPE svg PUBLIC "-//W3C//DTD SVG 1.1//EN"
 "http://www.w3.org/Graphics/SVG/1.1/DTD/svg11.dtd">
<!-- Generated by graphviz version 4.0.0 (20220602.1335)
 -->
<!-- Title: PitchFromBlock.cpp Pages: 1 -->
<svg width="908pt" height="364pt"
 viewBox="0.00 0.00 908.00 364.00" xmlns="http://www.w3.org/2000/svg" xmlns:xlink="http://www.w3.org/1999/xlink">
<g id="graph0" class="graph" transform="scale(1 1) rotate(0) translate(4 360)">
<title>PitchFromBlock.cpp</title>
<polygon fill="white" stroke="transparent" points="-4,4 -4,-360 904,-360 904,4 -4,4"/>
<!-- Node1 -->
<g id="node1" class="node">
<title>Node1</title>
<g id="a_node1"><a xlink:title=" ">
<polygon fill="#bfbfbf" stroke="black" points="453,-336.5 453,-355.5 557,-355.5 557,-336.5 453,-336.5"/>
<text text-anchor="middle" x="505" y="-343.5" font-family="Helvetica,sans-Serif" font-size="10.00">PitchFromBlock.cpp</text>
</a>
</g>
</g>
<!-- Node2 -->
<g id="node2" class="node">
<title>Node2</title>
<g id="a_node2"><a xlink:title=" ">
<polygon fill="white" stroke="#bfbfbf" points="18,-0.5 18,-19.5 58,-19.5 58,-0.5 18,-0.5"/>
<text text-anchor="middle" x="38" y="-7.5" font-family="Helvetica,sans-Serif" font-size="10.00">limits</text>
</a>
</g>
</g>
<!-- Node1&#45;&gt;Node2 -->
<g id="edge1" class="edge">
<title>Node1&#45;&gt;Node2</title>
<path fill="none" stroke="midnightblue" d="M452.86,-344.59C323.83,-342.18 0,-326.97 0,-235 0,-235 0,-235 0,-121 0,-86.81 16.6,-49.76 27.86,-28.57"/>
<polygon fill="midnightblue" stroke="midnightblue" points="30.95,-30.22 32.72,-19.77 24.82,-26.83 30.95,-30.22"/>
</g>
<!-- Node3 -->
<g id="node3" class="node">
<title>Node3</title>
<g id="a_node3"><a xlink:href="a00140.xhtml" target="_top" xlink:title=" ">
<polygon fill="white" stroke="black" points="395,-280.5 395,-299.5 441,-299.5 441,-280.5 395,-280.5"/>
<text text-anchor="middle" x="418" y="-287.5" font-family="Helvetica,sans-Serif" font-size="10.00">Filter.h</text>
</a>
</g>
</g>
<!-- Node1&#45;&gt;Node3 -->
<g id="edge2" class="edge">
<title>Node1&#45;&gt;Node3</title>
<path fill="none" stroke="midnightblue" d="M491.02,-336.32C477.45,-327.9 456.62,-314.97 440.68,-305.07"/>
<polygon fill="midnightblue" stroke="midnightblue" points="442.29,-301.95 431.94,-299.65 438.59,-307.9 442.29,-301.95"/>
</g>
<!-- Node6 -->
<g id="node6" class="node">
<title>Node6</title>
<g id="a_node6"><a xlink:href="a00143.xhtml" target="_top" xlink:title=" ">
<polygon fill="white" stroke="black" points="198.5,-168.5 198.5,-187.5 251.5,-187.5 251.5,-168.5 198.5,-168.5"/>
<text text-anchor="middle" x="225" y="-175.5" font-family="Helvetica,sans-Serif" font-size="10.00">Vector.h</text>
</a>
</g>
</g>
<!-- Node1&#45;&gt;Node6 -->
<g id="edge27" class="edge">
<title>Node1&#45;&gt;Node6</title>
<path fill="none" stroke="midnightblue" d="M471.02,-336.48C423.14,-323.15 334.98,-293.62 275,-244 258.6,-230.43 244.3,-210.54 235.25,-196.34"/>
<polygon fill="midnightblue" stroke="midnightblue" points="238.07,-194.26 229.85,-187.57 232.11,-197.92 238.07,-194.26"/>
</g>
<!-- Node11 -->
<g id="node11" class="node">
<title>Node11</title>
<g id="a_node11"><a xlink:href="a00149.xhtml" target="_top" xlink:title=" ">
<polygon fill="white" stroke="black" points="104.5,-56.5 104.5,-75.5 143.5,-75.5 143.5,-56.5 104.5,-56.5"/>
<text text-anchor="middle" x="124" y="-63.5" font-family="Helvetica,sans-Serif" font-size="10.00">Util.h</text>
</a>
</g>
</g>
<!-- Node1&#45;&gt;Node11 -->
<g id="edge28" class="edge">
<title>Node1&#45;&gt;Node11</title>
<path fill="none" stroke="midnightblue" d="M452.95,-340.99C348.23,-331.48 122,-303.06 122,-235 122,-235 122,-235 122,-177 122,-144.94 122.86,-107.64 123.45,-85.75"/>
<polygon fill="midnightblue" stroke="midnightblue" points="126.96,-85.65 123.74,-75.56 119.96,-85.45 126.96,-85.65"/>
</g>
<!-- Node15 -->
<g id="node15" class="node">
<title>Node15</title>
<g id="a_node15"><a xlink:href="a00161.xhtml" target="_top" xlink:title=" ">
<polygon fill="white" stroke="black" points="514,-112.5 514,-131.5 606,-131.5 606,-112.5 514,-112.5"/>
<text text-anchor="middle" x="560" y="-119.5" font-family="Helvetica,sans-Serif" font-size="10.00">ToolConversion.h</text>
</a>
</g>
</g>
<!-- Node1&#45;&gt;Node15 -->
<g id="edge29" class="edge">
<title>Node1&#45;&gt;Node15</title>
<path fill="none" stroke="midnightblue" d="M507.16,-336.3C515.27,-303.56 544.05,-187.38 555.38,-141.67"/>
<polygon fill="midnightblue" stroke="midnightblue" points="558.79,-142.43 557.8,-131.88 552,-140.75 558.79,-142.43"/>
</g>
<!-- Node18 -->
<g id="node18" class="node">
<title>Node18</title>
<g id="a_node18"><a xlink:href="a00185.xhtml" target="_top" xlink:title=" ">
<polygon fill="white" stroke="black" points="661,-224.5 661,-243.5 719,-243.5 719,-224.5 661,-224.5"/>
<text text-anchor="middle" x="690" y="-231.5" font-family="Helvetica,sans-Serif" font-size="10.00">ToolCcf.h</text>
</a>
</g>
</g>
<!-- Node1&#45;&gt;Node18 -->
<g id="edge35" class="edge">
<title>Node1&#45;&gt;Node18</title>
<path fill="none" stroke="midnightblue" d="M519.52,-336.37C551.4,-317.41 627.77,-272 666.55,-248.94"/>
<polygon fill="midnightblue" stroke="midnightblue" points="668.74,-251.71 675.55,-243.59 665.17,-245.69 668.74,-251.71"/>
</g>
<!-- Node19 -->
<g id="node19" class="node">
<title>Node19</title>
<g id="a_node19"><a xlink:href="a00131.xhtml" target="_top" xlink:title=" ">
<polygon fill="white" stroke="black" points="804,-112.5 804,-131.5 900,-131.5 900,-112.5 804,-112.5"/>
<text text-anchor="middle" x="852" y="-119.5" font-family="Helvetica,sans-Serif" font-size="10.00">ToolGammatone.h</text>
</a>
</g>
</g>
<!-- Node1&#45;&gt;Node19 -->
<g id="edge37" class="edge">
<title>Node1&#45;&gt;Node19</title>
<path fill="none" stroke="midnightblue" d="M557.07,-338.85C594.39,-332.85 644.92,-321.37 685,-300 758.58,-260.77 817.97,-176.83 841.31,-140.43"/>
<polygon fill="midnightblue" stroke="midnightblue" points="844.33,-142.21 846.69,-131.88 838.4,-138.48 844.33,-142.21"/>
</g>
<!-- Node21 -->
<g id="node21" class="node">
<title>Node21</title>
<g id="a_node21"><a xlink:href="a00188.xhtml" target="_top" xlink:title=" ">
<polygon fill="white" stroke="black" points="700,-168.5 700,-187.5 794,-187.5 794,-168.5 700,-168.5"/>
<text text-anchor="middle" x="747" y="-175.5" font-family="Helvetica,sans-Serif" font-size="10.00">PitchFromBlock.h</text>
</a>
</g>
</g>
<!-- Node1&#45;&gt;Node21 -->
<g id="edge40" class="edge">
<title>Node1&#45;&gt;Node21</title>
<path fill="none" stroke="midnightblue" d="M550.45,-336.48C601.14,-324.59 682.04,-298.08 728,-244 739.05,-230.99 743.68,-211.83 745.62,-197.68"/>
<polygon fill="midnightblue" stroke="midnightblue" points="749.11,-197.93 746.66,-187.62 742.15,-197.21 749.11,-197.93"/>
</g>
<!-- Node4 -->
<g id="node4" class="node">
<title>Node4</title>
<g id="a_node4"><a xlink:title=" ">
<polygon fill="white" stroke="#bfbfbf" points="264,-56.5 264,-75.5 308,-75.5 308,-56.5 264,-56.5"/>
<text text-anchor="middle" x="286" y="-63.5" font-family="Helvetica,sans-Serif" font-size="10.00">cmath</text>
</a>
</g>
</g>
<!-- Node3&#45;&gt;Node4 -->
<g id="edge3" class="edge">
<title>Node3&#45;&gt;Node4</title>
<path fill="none" stroke="midnightblue" d="M412.83,-280.3C393.2,-247.29 323.11,-129.4 296.42,-84.52"/>
<polygon fill="midnightblue" stroke="midnightblue" points="299.4,-82.69 291.28,-75.88 293.38,-86.27 299.4,-82.69"/>
</g>
<!-- Node5 -->
<g id="node5" class="node">
<title>Node5</title>
<g id="a_node5"><a xlink:href="a00110.xhtml" target="_top" xlink:title=" ">
<polygon fill="white" stroke="black" points="683.5,-56.5 683.5,-75.5 742.5,-75.5 742.5,-56.5 683.5,-56.5"/>
<text text-anchor="middle" x="713" y="-63.5" font-family="Helvetica,sans-Serif" font-size="10.00">ErrorDef.h</text>
</a>
</g>
</g>
<!-- Node3&#45;&gt;Node5 -->
<g id="edge4" class="edge">
<title>Node3&#45;&gt;Node5</title>
<path fill="none" stroke="midnightblue" d="M429.56,-280.3C474.36,-246.59 636.76,-124.37 693.37,-81.77"/>
<polygon fill="midnightblue" stroke="midnightblue" points="695.63,-84.45 701.52,-75.64 691.42,-78.86 695.63,-84.45"/>
</g>
<!-- Node3&#45;&gt;Node6 -->
<g id="edge5" class="edge">
<title>Node3&#45;&gt;Node6</title>
<path fill="none" stroke="midnightblue" d="M394.81,-281.61C371.93,-273.85 336.37,-260.48 308,-244 283.2,-229.59 257.67,-208.47 241.59,-194.25"/>
<polygon fill="midnightblue" stroke="midnightblue" points="243.87,-191.6 234.09,-187.52 239.19,-196.81 243.87,-191.6"/>
</g>
<!-- Node12 -->
<g id="node12" class="node">
<title>Node12</title>
<g id="a_node12"><a xlink:href="a00137.xhtml" target="_top" xlink:title=" ">
<polygon fill="white" stroke="black" points="418,-224.5 418,-243.5 468,-243.5 468,-224.5 418,-224.5"/>
<text text-anchor="middle" x="443" y="-231.5" font-family="Helvetica,sans-Serif" font-size="10.00">Matrix.h</text>
</a>
</g>
</g>
<!-- Node3&#45;&gt;Node12 -->
<g id="edge18" class="edge">
<title>Node3&#45;&gt;Node12</title>
<path fill="none" stroke="midnightblue" d="M422.13,-280.08C425.51,-272.77 430.42,-262.18 434.62,-253.1"/>
<polygon fill="midnightblue" stroke="midnightblue" points="437.92,-254.3 438.95,-243.75 431.57,-251.36 437.92,-254.3"/>
</g>
<!-- Node14 -->
<g id="node14" class="node">
<title>Node14</title>
<g id="a_node14"><a xlink:href="a00152.xhtml" target="_top" xlink:title=" ">
<polygon fill="white" stroke="black" points="350.5,-112.5 350.5,-131.5 419.5,-131.5 419.5,-112.5 350.5,-112.5"/>
<text text-anchor="middle" x="385" y="-119.5" font-family="Helvetica,sans-Serif" font-size="10.00">RingBuffer.h</text>
</a>
</g>
</g>
<!-- Node3&#45;&gt;Node14 -->
<g id="edge22" class="edge">
<title>Node3&#45;&gt;Node14</title>
<path fill="none" stroke="midnightblue" d="M416.27,-280.37C414.46,-271.32 411.52,-256.66 409,-244 401.77,-207.72 393.37,-165.31 388.67,-141.56"/>
<polygon fill="midnightblue" stroke="midnightblue" points="392.06,-140.64 386.68,-131.51 385.19,-142 392.06,-140.64"/>
</g>
<!-- Node6&#45;&gt;Node2 -->
<g id="edge8" class="edge">
<title>Node6&#45;&gt;Node2</title>
<path fill="none" stroke="midnightblue" d="M198.14,-170.97C174.24,-164.52 139.38,-152.38 115,-132 80.58,-103.23 56.47,-55.02 45.2,-28.99"/>
<polygon fill="midnightblue" stroke="midnightblue" points="48.37,-27.48 41.29,-19.6 41.91,-30.17 48.37,-27.48"/>
</g>
<!-- Node6&#45;&gt;Node4 -->
<g id="edge9" class="edge">
<title>Node6&#45;&gt;Node4</title>
<path fill="none" stroke="midnightblue" d="M234.84,-168.24C243.82,-159.77 256.9,-146.15 265,-132 273.28,-117.52 278.8,-99.34 282.09,-85.89"/>
<polygon fill="midnightblue" stroke="midnightblue" points="285.56,-86.41 284.35,-75.89 278.73,-84.87 285.56,-86.41"/>
</g>
<!-- Node7 -->
<g id="node7" class="node">
<title>Node7</title>
<g id="a_node7"><a xlink:title=" ">
<polygon fill="white" stroke="#bfbfbf" points="349.5,-0.5 349.5,-19.5 398.5,-19.5 398.5,-0.5 349.5,-0.5"/>
<text text-anchor="middle" x="374" y="-7.5" font-family="Helvetica,sans-Serif" font-size="10.00">cassert</text>
</a>
</g>
</g>
<!-- Node6&#45;&gt;Node7 -->
<g id="edge6" class="edge">
<title>Node6&#45;&gt;Node7</title>
<path fill="none" stroke="midnightblue" d="M211.21,-168.19C200.17,-160.24 185.5,-147.45 179,-132 170.36,-111.46 184.12,-63.09 191,-56 211.28,-35.1 291.86,-21.51 339.06,-15.16"/>
<polygon fill="midnightblue" stroke="midnightblue" points="339.69,-18.61 349.16,-13.85 338.79,-11.67 339.69,-18.61"/>
</g>
<!-- Node8 -->
<g id="node8" class="node">
<title>Node8</title>
<g id="a_node8"><a xlink:title=" ">
<polygon fill="white" stroke="#bfbfbf" points="101,-0.5 101,-19.5 147,-19.5 147,-0.5 101,-0.5"/>
<text text-anchor="middle" x="124" y="-7.5" font-family="Helvetica,sans-Serif" font-size="10.00">cstring</text>
</a>
</g>
</g>
<!-- Node6&#45;&gt;Node8 -->
<g id="edge7" class="edge">
<title>Node6&#45;&gt;Node8</title>
<path fill="none" stroke="midnightblue" d="M202.87,-168.49C170.93,-154.76 113.68,-124.24 95,-76 88.55,-59.33 98.64,-40.75 108.65,-27.74"/>
<polygon fill="midnightblue" stroke="midnightblue" points="111.63,-29.63 115.35,-19.71 106.25,-25.14 111.63,-29.63"/>
</g>
<!-- Node9 -->
<g id="node9" class="node">
<title>Node9</title>
<g id="a_node9"><a xlink:href="a00146.xhtml" target="_top" xlink:title=" ">
<polygon fill="white" stroke="black" points="188.5,-112.5 188.5,-131.5 255.5,-131.5 255.5,-112.5 188.5,-112.5"/>
<text text-anchor="middle" x="222" y="-119.5" font-family="Helvetica,sans-Serif" font-size="10.00">Synthesis.h</text>
</a>
</g>
</g>
<!-- Node6&#45;&gt;Node9 -->
<g id="edge10" class="edge">
<title>Node6&#45;&gt;Node9</title>
<path fill="none" stroke="midnightblue" d="M224.5,-168.08C224.11,-161.01 223.55,-150.86 223.05,-141.99"/>
<polygon fill="midnightblue" stroke="midnightblue" points="226.54,-141.54 222.49,-131.75 219.55,-141.93 226.54,-141.54"/>
</g>
<!-- Node9&#45;&gt;Node4 -->
<g id="edge11" class="edge">
<title>Node9&#45;&gt;Node4</title>
<path fill="none" stroke="midnightblue" d="M232.28,-112.32C241.84,-104.26 256.28,-92.08 267.78,-82.37"/>
<polygon fill="midnightblue" stroke="midnightblue" points="270.14,-84.96 275.53,-75.83 265.63,-79.61 270.14,-84.96"/>
</g>
<!-- Node9&#45;&gt;Node5 -->
<g id="edge13" class="edge">
<title>Node9&#45;&gt;Node5</title>
<path fill="none" stroke="midnightblue" d="M255.55,-117.45C326.03,-109.96 494.65,-91.94 636,-76 648.1,-74.63 661.27,-73.11 673.24,-71.71"/>
<polygon fill="midnightblue" stroke="midnightblue" points="673.87,-75.16 683.39,-70.52 673.05,-68.21 673.87,-75.16"/>
</g>
<!-- Node10 -->
<g id="node10" class="node">
<title>Node10</title>
<g id="a_node10"><a xlink:title=" ">
<polygon fill="white" stroke="#bfbfbf" points="200.5,-56.5 200.5,-75.5 245.5,-75.5 245.5,-56.5 200.5,-56.5"/>
<text text-anchor="middle" x="223" y="-63.5" font-family="Helvetica,sans-Serif" font-size="10.00">cstdlib</text>
</a>
</g>
</g>
<!-- Node9&#45;&gt;Node10 -->
<g id="edge12" class="edge">
<title>Node9&#45;&gt;Node10</title>
<path fill="none" stroke="midnightblue" d="M222.17,-112.08C222.3,-105.01 222.48,-94.86 222.65,-85.99"/>
<polygon fill="midnightblue" stroke="midnightblue" points="226.15,-85.81 222.84,-75.75 219.15,-85.68 226.15,-85.81"/>
</g>
<!-- Node9&#45;&gt;Node11 -->
<g id="edge14" class="edge">
<title>Node9&#45;&gt;Node11</title>
<path fill="none" stroke="midnightblue" d="M206.25,-112.32C190.68,-103.74 166.62,-90.49 148.54,-80.52"/>
<polygon fill="midnightblue" stroke="midnightblue" points="150.15,-77.42 139.71,-75.65 146.78,-83.55 150.15,-77.42"/>
</g>
<!-- Node11&#45;&gt;Node2 -->
<g id="edge17" class="edge">
<title>Node11&#45;&gt;Node2</title>
<path fill="none" stroke="midnightblue" d="M110.18,-56.32C96.77,-47.9 76.18,-34.97 60.41,-25.07"/>
<polygon fill="midnightblue" stroke="midnightblue" points="62.11,-22.01 51.78,-19.65 58.39,-27.94 62.11,-22.01"/>
</g>
<!-- Node11&#45;&gt;Node7 -->
<g id="edge15" class="edge">
<title>Node11&#45;&gt;Node7</title>
<path fill="none" stroke="midnightblue" d="M143.73,-59.59C148.4,-58.36 153.36,-57.1 158,-56 221.71,-40.94 296.63,-25.93 339.39,-17.62"/>
<polygon fill="midnightblue" stroke="midnightblue" points="340.13,-21.04 349.29,-15.7 338.8,-14.17 340.13,-21.04"/>
</g>
<!-- Node11&#45;&gt;Node8 -->
<g id="edge16" class="edge">
<title>Node11&#45;&gt;Node8</title>
<path fill="none" stroke="midnightblue" d="M124,-56.08C124,-49.01 124,-38.86 124,-29.99"/>
<polygon fill="midnightblue" stroke="midnightblue" points="127.5,-29.75 124,-19.75 120.5,-29.75 127.5,-29.75"/>
</g>
<!-- Node12&#45;&gt;Node6 -->
<g id="edge21" class="edge">
<title>Node12&#45;&gt;Node6</title>
<path fill="none" stroke="midnightblue" d="M417.99,-226.81C379.6,-217.3 305.94,-199.05 261.56,-188.06"/>
<polygon fill="midnightblue" stroke="midnightblue" points="262.3,-184.63 251.75,-185.63 260.62,-191.43 262.3,-184.63"/>
</g>
<!-- Node12&#45;&gt;Node7 -->
<g id="edge19" class="edge">
<title>Node12&#45;&gt;Node7</title>
<path fill="none" stroke="midnightblue" d="M447.77,-224.43C462.17,-197.33 502.09,-111.96 467,-56 454.23,-35.63 429.33,-24.25 408.5,-18.04"/>
<polygon fill="midnightblue" stroke="midnightblue" points="409.25,-14.61 398.68,-15.38 407.42,-21.37 409.25,-14.61"/>
</g>
<!-- Node13 -->
<g id="node13" class="node">
<title>Node13</title>
<g id="a_node13"><a xlink:title=" ">
<polygon fill="white" stroke="#bfbfbf" points="402,-56.5 402,-75.5 458,-75.5 458,-56.5 402,-56.5"/>
<text text-anchor="middle" x="430" y="-63.5" font-family="Helvetica,sans-Serif" font-size="10.00">algorithm</text>
</a>
</g>
</g>
<!-- Node12&#45;&gt;Node13 -->
<g id="edge20" class="edge">
<title>Node12&#45;&gt;Node13</title>
<path fill="none" stroke="midnightblue" d="M442.3,-224.08C440.25,-197.95 434.25,-121.21 431.45,-85.58"/>
<polygon fill="midnightblue" stroke="midnightblue" points="434.94,-85.26 430.67,-75.57 427.96,-85.81 434.94,-85.26"/>
</g>
<!-- Node14&#45;&gt;Node4 -->
<g id="edge25" class="edge">
<title>Node14&#45;&gt;Node4</title>
<path fill="none" stroke="midnightblue" d="M369.09,-112.32C353.36,-103.74 329.06,-90.49 310.79,-80.52"/>
<polygon fill="midnightblue" stroke="midnightblue" points="312.32,-77.37 301.87,-75.65 308.97,-83.52 312.32,-77.37"/>
</g>
<!-- Node14&#45;&gt;Node7 -->
<g id="edge23" class="edge">
<title>Node14&#45;&gt;Node7</title>
<path fill="none" stroke="midnightblue" d="M384.14,-112.37C382.36,-94.62 378.27,-53.67 375.86,-29.6"/>
<polygon fill="midnightblue" stroke="midnightblue" points="379.34,-29.19 374.86,-19.59 372.37,-29.89 379.34,-29.19"/>
</g>
<!-- Node14&#45;&gt;Node8 -->
<g id="edge26" class="edge">
<title>Node14&#45;&gt;Node8</title>
<path fill="none" stroke="midnightblue" d="M378.52,-112.32C367.51,-98.22 343.72,-70.46 317,-56 265.47,-28.12 197.1,-17.42 157.09,-13.38"/>
<polygon fill="midnightblue" stroke="midnightblue" points="157.36,-9.89 147.08,-12.45 156.71,-16.86 157.36,-9.89"/>
</g>
<!-- Node14&#45;&gt;Node13 -->
<g id="edge24" class="edge">
<title>Node14&#45;&gt;Node13</title>
<path fill="none" stroke="midnightblue" d="M392.43,-112.08C398.85,-104.38 408.31,-93.03 416.12,-83.65"/>
<polygon fill="midnightblue" stroke="midnightblue" points="418.99,-85.67 422.71,-75.75 413.62,-81.19 418.99,-85.67"/>
</g>
<!-- Node15&#45;&gt;Node4 -->
<g id="edge30" class="edge">
<title>Node15&#45;&gt;Node4</title>
<path fill="none" stroke="midnightblue" d="M516.58,-112.44C461.47,-101.58 367.67,-83.09 318.41,-73.39"/>
<polygon fill="midnightblue" stroke="midnightblue" points="318.8,-69.9 308.31,-71.4 317.45,-76.77 318.8,-69.9"/>
</g>
<!-- Node15&#45;&gt;Node5 -->
<g id="edge34" class="edge">
<title>Node15&#45;&gt;Node5</title>
<path fill="none" stroke="midnightblue" d="M584.24,-112.44C609.87,-103.4 650.49,-89.06 679.24,-78.92"/>
<polygon fill="midnightblue" stroke="midnightblue" points="680.61,-82.15 688.87,-75.52 678.28,-75.54 680.61,-82.15"/>
</g>
<!-- Node15&#45;&gt;Node7 -->
<g id="edge31" class="edge">
<title>Node15&#45;&gt;Node7</title>
<path fill="none" stroke="midnightblue" d="M584.39,-112.38C613.36,-100.83 655.47,-79.1 636,-56 607.33,-21.99 473.28,-13.68 408.81,-11.65"/>
<polygon fill="midnightblue" stroke="midnightblue" points="408.81,-8.15 398.72,-11.37 408.62,-15.15 408.81,-8.15"/>
</g>
<!-- Node16 -->
<g id="node16" class="node">
<title>Node16</title>
<g id="a_node16"><a xlink:title=" ">
<polygon fill="white" stroke="#bfbfbf" points="514.5,-56.5 514.5,-75.5 549.5,-75.5 549.5,-56.5 514.5,-56.5"/>
<text text-anchor="middle" x="532" y="-63.5" font-family="Helvetica,sans-Serif" font-size="10.00">map</text>
</a>
</g>
</g>
<!-- Node15&#45;&gt;Node16 -->
<g id="edge32" class="edge">
<title>Node15&#45;&gt;Node16</title>
<path fill="none" stroke="midnightblue" d="M555.38,-112.08C551.54,-104.69 545.98,-93.95 541.24,-84.81"/>
<polygon fill="midnightblue" stroke="midnightblue" points="544.25,-83.02 536.54,-75.75 538.03,-86.24 544.25,-83.02"/>
</g>
<!-- Node17 -->
<g id="node17" class="node">
<title>Node17</title>
<g id="a_node17"><a xlink:title=" ">
<polygon fill="white" stroke="#bfbfbf" points="567.5,-56.5 567.5,-75.5 626.5,-75.5 626.5,-56.5 567.5,-56.5"/>
<text text-anchor="middle" x="597" y="-63.5" font-family="Helvetica,sans-Serif" font-size="10.00">functional</text>
</a>
</g>
</g>
<!-- Node15&#45;&gt;Node17 -->
<g id="edge33" class="edge">
<title>Node15&#45;&gt;Node17</title>
<path fill="none" stroke="midnightblue" d="M566.11,-112.08C571.28,-104.53 578.85,-93.49 585.19,-84.23"/>
<polygon fill="midnightblue" stroke="midnightblue" points="588.24,-85.98 591,-75.75 582.46,-82.02 588.24,-85.98"/>
</g>
<!-- Node18&#45;&gt;Node5 -->
<g id="edge36" class="edge">
<title>Node18&#45;&gt;Node5</title>
<path fill="none" stroke="midnightblue" d="M689.58,-224.13C689.11,-211.59 688.7,-187.96 691,-168 694.39,-138.67 702.51,-105.32 707.88,-85.23"/>
<polygon fill="midnightblue" stroke="midnightblue" points="711.26,-86.12 710.53,-75.55 704.51,-84.27 711.26,-86.12"/>
</g>
<!-- Node19&#45;&gt;Node5 -->
<g id="edge39" class="edge">
<title>Node19&#45;&gt;Node5</title>
<path fill="none" stroke="midnightblue" d="M829.98,-112.44C806.9,-103.48 770.44,-89.31 744.36,-79.18"/>
<polygon fill="midnightblue" stroke="midnightblue" points="745.51,-75.88 734.92,-75.52 742.98,-82.4 745.51,-75.88"/>
</g>
<!-- Node20 -->
<g id="node20" class="node">
<title>Node20</title>
<g id="a_node20"><a xlink:title=" ">
<polygon fill="white" stroke="#bfbfbf" points="795.5,-56.5 795.5,-75.5 836.5,-75.5 836.5,-56.5 795.5,-56.5"/>
<text text-anchor="middle" x="816" y="-63.5" font-family="Helvetica,sans-Serif" font-size="10.00">string</text>
</a>
</g>
</g>
<!-- Node19&#45;&gt;Node20 -->
<g id="edge38" class="edge">
<title>Node19&#45;&gt;Node20</title>
<path fill="none" stroke="midnightblue" d="M846.06,-112.08C841.02,-104.53 833.66,-93.49 827.49,-84.23"/>
<polygon fill="midnightblue" stroke="midnightblue" points="830.29,-82.13 821.83,-75.75 824.47,-86.01 830.29,-82.13"/>
</g>
<!-- Node21&#45;&gt;Node5 -->
<g id="edge41" class="edge">
<title>Node21&#45;&gt;Node5</title>
<path fill="none" stroke="midnightblue" d="M743.47,-168.47C739.82,-159.49 734.11,-144.89 730,-132 725.12,-116.7 720.58,-99.06 717.41,-86.02"/>
<polygon fill="midnightblue" stroke="midnightblue" points="720.73,-84.84 715.02,-75.92 713.92,-86.45 720.73,-84.84"/>
</g>
<!-- Node22 -->
<g id="node22" class="node">
<title>Node22</title>
<g id="a_node22"><a xlink:href="a00215.xhtml" target="_top" xlink:title=" ">
<polygon fill="white" stroke="black" points="738.5,-112.5 738.5,-131.5 785.5,-131.5 785.5,-112.5 738.5,-112.5"/>
<text text-anchor="middle" x="762" y="-119.5" font-family="Helvetica,sans-Serif" font-size="10.00">Pitch.h</text>
</a>
</g>
</g>
<!-- Node21&#45;&gt;Node22 -->
<g id="edge42" class="edge">
<title>Node21&#45;&gt;Node22</title>
<path fill="none" stroke="midnightblue" d="M749.48,-168.08C751.49,-160.85 754.39,-150.41 756.89,-141.4"/>
<polygon fill="midnightblue" stroke="midnightblue" points="760.26,-142.32 759.57,-131.75 753.52,-140.45 760.26,-142.32"/>
</g>
<!-- Node22&#45;&gt;Node5 -->
<g id="edge44" class="edge">
<title>Node22&#45;&gt;Node5</title>
<path fill="none" stroke="midnightblue" d="M753.91,-112.08C746.84,-104.3 736.41,-92.8 727.85,-83.37"/>
<polygon fill="midnightblue" stroke="midnightblue" points="730.25,-80.8 720.94,-75.75 725.07,-85.51 730.25,-80.8"/>
</g>
<!-- Node22&#45;&gt;Node20 -->
<g id="edge43" class="edge">
<title>Node22&#45;&gt;Node20</title>
<path fill="none" stroke="midnightblue" d="M770.92,-112.08C778.78,-104.22 790.43,-92.57 799.92,-83.08"/>
<polygon fill="midnightblue" stroke="midnightblue" points="802.65,-85.3 807.25,-75.75 797.7,-80.35 802.65,-85.3"/>
</g>
</g>
</svg>
