<?xml version="1.0" encoding="UTF-8" standalone="no"?>
<!DOCTYPE svg PUBLIC "-//W3C//DTD SVG 1.1//EN"
 "http://www.w3.org/Graphics/SVG/1.1/DTD/svg11.dtd">
<!-- Generated by graphviz version 6.0.1 (20220911.1526)
 -->
<!-- Title: PitchFromBlock.cpp Pages: 1 -->
<!--zoomable 357 -->
<svg id="main" version="1.1" xmlns="http://www.w3.org/2000/svg" xmlns:xlink="http://www.w3.org/1999/xlink" xml:space="preserve" onload="init(evt)">
<style type="text/css"><![CDATA[
.edge:hover path { stroke: red; }
.edge:hover polygon { stroke: red; fill: red; }
]]></style>
<script type="text/javascript"><![CDATA[
var edges = document.getElementsByTagName('g');
if (edges && edges.length) {
  for (var i=0;i<edges.length;i++) {
    if (edges[i].id.substr(0,4)=='edge') {
      edges[i].setAttribute('class','edge');
    }
  }
}
]]></script>
        <defs>
                <circle id="rim" cx="0" cy="0" r="7"/>
                <circle id="rim2" cx="0" cy="0" r="3.5"/>
                <g id="zoomPlus">
                        <use xlink:href="#rim" fill="#404040">
                                <set attributeName="fill" to="#808080" begin="zoomplus.mouseover" end="zoomplus.mouseout"/>
                        </use>
                        <path d="M-4,0h8M0,-4v8" fill="none" stroke="white" stroke-width="1.5" pointer-events="none"/>
                </g>
                <g id="zoomMin">
                        <use xlink:href="#rim" fill="#404040">
                                <set attributeName="fill" to="#808080" begin="zoomminus.mouseover" end="zoomminus.mouseout"/>
                        </use>
                        <path d="M-4,0h8" fill="none" stroke="white" stroke-width="1.5" pointer-events="none"/>
                </g>
                <g id="dirArrow">
                        <path fill="none" stroke="white" stroke-width="1.5" d="M0,-3.0v7 M-2.5,-0.5L0,-3.0L2.5,-0.5"/>
                </g>
               <g id="resetDef">
                       <use xlink:href="#rim2" fill="#404040">
                               <set attributeName="fill" to="#808080" begin="reset.mouseover" end="reset.mouseout"/>
                       </use>
               </g>
        </defs>

<script type="text/javascript">
var viewWidth = 922;
var viewHeight = 357;
var sectionId = 'dynsection-0';
</script>
<script xlink:href="svgpan.js"/>
<svg id="graph" class="graph">
<g id="viewport">
<title>PitchFromBlock.cpp</title>
<!-- Node1 -->
<g id="node1" class="node">
<title>Node1</title>
<g id="a_node1"><a xlink:title=" ">
<polygon fill="#999999" stroke="#666666" points="557,-349 453,-349 453,-330 557,-330 557,-349"/>
<text text-anchor="middle" x="505" y="-337" font-family="Helvetica,sans-Serif" font-size="10.00">PitchFromBlock.cpp</text>
</a>
</g>
</g>
<!-- Node2 -->
<g id="node2" class="node">
<title>Node2</title>
<g id="a_node2"><a xlink:title=" ">
<polygon fill="#e0e0e0" stroke="#999999" points="58,-19 18,-19 18,0 58,0 58,-19"/>
<text text-anchor="middle" x="38" y="-7" font-family="Helvetica,sans-Serif" font-size="10.00">limits</text>
</a>
</g>
</g>
<!-- Node1&#45;&gt;Node2 -->
<g id="edge1" class="edge">
<title>Node1&#45;&gt;Node2</title>
<path fill="none" stroke="#63b8ff" d="M452.86,-338.29C323.83,-336.37 0,-322.4 0,-230.5 0,-230.5 0,-230.5 0,-118.5 0,-85.02 16.45,-48.84 27.7,-28.01"/>
<polygon fill="#63b8ff" stroke="#63b8ff" points="30.87,-29.53 32.72,-19.1 24.76,-26.1 30.87,-29.53"/>
</g>
<!-- Node3 -->
<g id="node3" class="node">
<title>Node3</title>
<g id="a_node3"><a xlink:href="a00191.xhtml" target="_top" xlink:title=" ">
<polygon fill="white" stroke="#666666" points="441,-294 395,-294 395,-275 441,-275 441,-294"/>
<text text-anchor="middle" x="418" y="-282" font-family="Helvetica,sans-Serif" font-size="10.00">Filter.h</text>
</a>
</g>
</g>
<!-- Node1&#45;&gt;Node3 -->
<g id="edge2" class="edge">
<title>Node1&#45;&gt;Node3</title>
<path fill="none" stroke="#63b8ff" d="M491.02,-329.98C477.53,-321.77 456.87,-309.18 440.96,-299.49"/>
<polygon fill="#63b8ff" stroke="#63b8ff" points="442.59,-296.38 432.23,-294.17 438.95,-302.36 442.59,-296.38"/>
</g>
<!-- Node6 -->
<g id="node6" class="node">
<title>Node6</title>
<g id="a_node6"><a xlink:href="a00194.xhtml" target="_top" xlink:title=" ">
<polygon fill="white" stroke="#666666" points="251.5,-184 198.5,-184 198.5,-165 251.5,-165 251.5,-184"/>
<text text-anchor="middle" x="225" y="-172" font-family="Helvetica,sans-Serif" font-size="10.00">Vector.h</text>
</a>
</g>
</g>
<!-- Node1&#45;&gt;Node6 -->
<g id="edge27" class="edge">
<title>Node1&#45;&gt;Node6</title>
<path fill="none" stroke="#63b8ff" d="M470.3,-329.9C422.34,-316.68 334.95,-287.67 275,-239 258.89,-225.92 244.71,-206.77 235.6,-192.92"/>
<polygon fill="#63b8ff" stroke="#63b8ff" points="238.46,-190.89 230.15,-184.32 232.55,-194.63 238.46,-190.89"/>
</g>
<!-- Node11 -->
<g id="node11" class="node">
<title>Node11</title>
<g id="a_node11"><a xlink:href="a00185.xhtml" target="_top" xlink:title=" ">
<polygon fill="white" stroke="#666666" points="143.5,-74 104.5,-74 104.5,-55 143.5,-55 143.5,-74"/>
<text text-anchor="middle" x="124" y="-62" font-family="Helvetica,sans-Serif" font-size="10.00">Util.h</text>
</a>
</g>
</g>
<!-- Node1&#45;&gt;Node11 -->
<g id="edge28" class="edge">
<title>Node1&#45;&gt;Node11</title>
<path fill="none" stroke="#63b8ff" d="M452.83,-336.31C338.5,-330.08 76,-307.4 76,-230.5 76,-230.5 76,-230.5 76,-173.5 76,-138.8 96.94,-102.82 111.16,-82.39"/>
<polygon fill="#63b8ff" stroke="#63b8ff" points="114.09,-84.31 117.12,-74.16 108.42,-80.21 114.09,-84.31"/>
</g>
<!-- Node15 -->
<g id="node15" class="node">
<title>Node15</title>
<g id="a_node15"><a xlink:href="a00254.xhtml" target="_top" xlink:title=" ">
<polygon fill="white" stroke="#666666" points="606,-129 514,-129 514,-110 606,-110 606,-129"/>
<text text-anchor="middle" x="560" y="-117" font-family="Helvetica,sans-Serif" font-size="10.00">ToolConversion.h</text>
</a>
</g>
</g>
<!-- Node1&#45;&gt;Node15 -->
<g id="edge29" class="edge">
<title>Node1&#45;&gt;Node15</title>
<path fill="none" stroke="#63b8ff" d="M507.16,-329.95C515.25,-297.88 543.93,-184.2 555.3,-139.12"/>
<polygon fill="#63b8ff" stroke="#63b8ff" points="558.75,-139.78 557.8,-129.22 551.96,-138.06 558.75,-139.78"/>
</g>
<!-- Node19 -->
<g id="node19" class="node">
<title>Node19</title>
<g id="a_node19"><a xlink:href="a00173.xhtml" target="_top" xlink:title=" ">
<polygon fill="white" stroke="#666666" points="720,-239 662,-239 662,-220 720,-220 720,-239"/>
<text text-anchor="middle" x="691" y="-227" font-family="Helvetica,sans-Serif" font-size="10.00">ToolCcf.h</text>
</a>
</g>
</g>
<!-- Node1&#45;&gt;Node19 -->
<g id="edge36" class="edge">
<title>Node1&#45;&gt;Node19</title>
<path fill="none" stroke="#63b8ff" d="M519.91,-329.84C552.09,-311.16 628.32,-266.9 667.24,-244.3"/>
<polygon fill="#63b8ff" stroke="#63b8ff" points="669.39,-247.1 676.28,-239.05 665.88,-241.04 669.39,-247.1"/>
</g>
<!-- Node20 -->
<g id="node20" class="node">
<title>Node20</title>
<g id="a_node20"><a xlink:href="a00221.xhtml" target="_top" xlink:title=" ">
<polygon fill="white" stroke="#666666" points="914,-129 818,-129 818,-110 914,-110 914,-129"/>
<text text-anchor="middle" x="866" y="-117" font-family="Helvetica,sans-Serif" font-size="10.00">ToolGammatone.h</text>
</a>
</g>
</g>
<!-- Node1&#45;&gt;Node20 -->
<g id="edge38" class="edge">
<title>Node1&#45;&gt;Node20</title>
<path fill="none" stroke="#63b8ff" d="M557.27,-330.49C592.36,-323.81 638.94,-312.36 677,-294 748.27,-259.62 761.9,-240.79 817,-184 831.18,-169.38 845.15,-150.74 854.52,-137.45"/>
<polygon fill="#63b8ff" stroke="#63b8ff" points="857.41,-139.43 860.22,-129.21 851.65,-135.44 857.41,-139.43"/>
</g>
<!-- Node22 -->
<g id="node22" class="node">
<title>Node22</title>
<g id="a_node22"><a xlink:href="a00164.xhtml" target="_top" xlink:title=" ">
<polygon fill="white" stroke="#666666" points="808,-184 714,-184 714,-165 808,-165 808,-184"/>
<text text-anchor="middle" x="761" y="-172" font-family="Helvetica,sans-Serif" font-size="10.00">PitchFromBlock.h</text>
</a>
</g>
</g>
<!-- Node1&#45;&gt;Node22 -->
<g id="edge41" class="edge">
<title>Node1&#45;&gt;Node22</title>
<path fill="none" stroke="#63b8ff" d="M544.16,-329.99C592.97,-317.57 676.39,-290.19 729,-239 741.71,-226.64 750.23,-208.16 755.26,-194.32"/>
<polygon fill="#63b8ff" stroke="#63b8ff" points="758.72,-195.02 758.56,-184.42 752.08,-192.8 758.72,-195.02"/>
</g>
<!-- Node4 -->
<g id="node4" class="node">
<title>Node4</title>
<g id="a_node4"><a xlink:title=" ">
<polygon fill="#e0e0e0" stroke="#999999" points="308,-74 264,-74 264,-55 308,-55 308,-74"/>
<text text-anchor="middle" x="286" y="-62" font-family="Helvetica,sans-Serif" font-size="10.00">cmath</text>
</a>
</g>
</g>
<!-- Node3&#45;&gt;Node4 -->
<g id="edge3" class="edge">
<title>Node3&#45;&gt;Node4</title>
<path fill="none" stroke="#63b8ff" d="M412.83,-274.95C393.24,-242.61 323.4,-127.26 296.59,-82.98"/>
<polygon fill="#63b8ff" stroke="#63b8ff" points="299.46,-80.96 291.28,-74.22 293.47,-84.59 299.46,-80.96"/>
</g>
<!-- Node5 -->
<g id="node5" class="node">
<title>Node5</title>
<g id="a_node5"><a xlink:href="a00158.xhtml" target="_top" xlink:title=" ">
<polygon fill="white" stroke="#666666" points="805.5,-74 746.5,-74 746.5,-55 805.5,-55 805.5,-74"/>
<text text-anchor="middle" x="776" y="-62" font-family="Helvetica,sans-Serif" font-size="10.00">ErrorDef.h</text>
</a>
</g>
</g>
<!-- Node3&#45;&gt;Node5 -->
<g id="edge4" class="edge">
<title>Node3&#45;&gt;Node5</title>
<path fill="none" stroke="#63b8ff" d="M432.03,-274.95C486.61,-241.72 685.02,-120.9 752.98,-79.52"/>
<polygon fill="#63b8ff" stroke="#63b8ff" points="754.95,-82.41 761.67,-74.22 751.31,-76.44 754.95,-82.41"/>
</g>
<!-- Node3&#45;&gt;Node6 -->
<g id="edge5" class="edge">
<title>Node3&#45;&gt;Node6</title>
<path fill="none" stroke="#63b8ff" d="M394.84,-276.17C371.99,-268.47 336.45,-255.24 308,-239 283.58,-225.06 258.31,-204.72 242.16,-190.85"/>
<polygon fill="#63b8ff" stroke="#63b8ff" points="244.44,-188.19 234.61,-184.25 239.84,-193.46 244.44,-188.19"/>
</g>
<!-- Node12 -->
<g id="node12" class="node">
<title>Node12</title>
<g id="a_node12"><a xlink:href="a00197.xhtml" target="_top" xlink:title=" ">
<polygon fill="white" stroke="#666666" points="468,-239 418,-239 418,-220 468,-220 468,-239"/>
<text text-anchor="middle" x="443" y="-227" font-family="Helvetica,sans-Serif" font-size="10.00">Matrix.h</text>
</a>
</g>
</g>
<!-- Node3&#45;&gt;Node12 -->
<g id="edge18" class="edge">
<title>Node3&#45;&gt;Node12</title>
<path fill="none" stroke="#63b8ff" d="M422.13,-274.75C425.51,-267.57 430.42,-257.18 434.62,-248.27"/>
<polygon fill="#63b8ff" stroke="#63b8ff" points="437.85,-249.63 438.95,-239.09 431.52,-246.64 437.85,-249.63"/>
</g>
<!-- Node14 -->
<g id="node14" class="node">
<title>Node14</title>
<g id="a_node14"><a xlink:href="a00200.xhtml" target="_top" xlink:title=" ">
<polygon fill="white" stroke="#666666" points="419.5,-129 350.5,-129 350.5,-110 419.5,-110 419.5,-129"/>
<text text-anchor="middle" x="385" y="-117" font-family="Helvetica,sans-Serif" font-size="10.00">RingBuffer.h</text>
</a>
</g>
</g>
<!-- Node3&#45;&gt;Node14 -->
<g id="edge22" class="edge">
<title>Node3&#45;&gt;Node14</title>
<path fill="none" stroke="#63b8ff" d="M416.23,-274.74C411.06,-249.2 395.92,-174.43 388.79,-139.23"/>
<polygon fill="#63b8ff" stroke="#63b8ff" points="392.2,-138.41 386.78,-129.31 385.34,-139.8 392.2,-138.41"/>
</g>
<!-- Node6&#45;&gt;Node2 -->
<g id="edge8" class="edge">
<title>Node6&#45;&gt;Node2</title>
<path fill="none" stroke="#63b8ff" d="M198.19,-167.55C174.31,-161.19 139.48,-149.18 115,-129 81.06,-101.02 56.89,-54.1 45.45,-28.5"/>
<polygon fill="#63b8ff" stroke="#63b8ff" points="48.63,-27.04 41.46,-19.24 42.21,-29.81 48.63,-27.04"/>
</g>
<!-- Node6&#45;&gt;Node4 -->
<g id="edge9" class="edge">
<title>Node6&#45;&gt;Node4</title>
<path fill="none" stroke="#63b8ff" d="M234.82,-164.85C243.79,-156.47 256.87,-143.02 265,-129 273.2,-114.88 278.72,-97.11 282.04,-83.96"/>
<polygon fill="#63b8ff" stroke="#63b8ff" points="285.46,-84.72 284.32,-74.19 278.64,-83.13 285.46,-84.72"/>
</g>
<!-- Node7 -->
<g id="node7" class="node">
<title>Node7</title>
<g id="a_node7"><a xlink:title=" ">
<polygon fill="#e0e0e0" stroke="#999999" points="398.5,-19 349.5,-19 349.5,0 398.5,0 398.5,-19"/>
<text text-anchor="middle" x="374" y="-7" font-family="Helvetica,sans-Serif" font-size="10.00">cassert</text>
</a>
</g>
</g>
<!-- Node6&#45;&gt;Node7 -->
<g id="edge6" class="edge">
<title>Node6&#45;&gt;Node7</title>
<path fill="none" stroke="#63b8ff" d="M211.22,-164.82C200.18,-156.99 185.51,-144.35 179,-129 170.44,-108.8 183.43,-62.75 191,-55 211.34,-34.18 291.89,-20.79 339.08,-14.57"/>
<polygon fill="#63b8ff" stroke="#63b8ff" points="339.69,-18.02 349.17,-13.29 338.81,-11.08 339.69,-18.02"/>
</g>
<!-- Node8 -->
<g id="node8" class="node">
<title>Node8</title>
<g id="a_node8"><a xlink:title=" ">
<polygon fill="#e0e0e0" stroke="#999999" points="147,-19 101,-19 101,0 147,0 147,-19"/>
<text text-anchor="middle" x="124" y="-7" font-family="Helvetica,sans-Serif" font-size="10.00">cstring</text>
</a>
</g>
</g>
<!-- Node6&#45;&gt;Node8 -->
<g id="edge7" class="edge">
<title>Node6&#45;&gt;Node8</title>
<path fill="none" stroke="#63b8ff" d="M202.37,-164.99C170.36,-151.47 113.68,-121.63 95,-74 88.67,-57.87 98.46,-39.94 108.34,-27.26"/>
<polygon fill="#63b8ff" stroke="#63b8ff" points="111.2,-29.3 114.99,-19.41 105.86,-24.78 111.2,-29.3"/>
</g>
<!-- Node9 -->
<g id="node9" class="node">
<title>Node9</title>
<g id="a_node9"><a xlink:href="a00188.xhtml" target="_top" xlink:title=" ">
<polygon fill="white" stroke="#666666" points="255.5,-129 188.5,-129 188.5,-110 255.5,-110 255.5,-129"/>
<text text-anchor="middle" x="222" y="-117" font-family="Helvetica,sans-Serif" font-size="10.00">Synthesis.h</text>
</a>
</g>
</g>
<!-- Node6&#45;&gt;Node9 -->
<g id="edge10" class="edge">
<title>Node6&#45;&gt;Node9</title>
<path fill="none" stroke="#63b8ff" d="M224.5,-164.75C224.11,-157.8 223.55,-147.85 223.05,-139.13"/>
<polygon fill="#63b8ff" stroke="#63b8ff" points="226.55,-138.88 222.49,-129.09 219.56,-139.27 226.55,-138.88"/>
</g>
<!-- Node9&#45;&gt;Node4 -->
<g id="edge11" class="edge">
<title>Node9&#45;&gt;Node4</title>
<path fill="none" stroke="#63b8ff" d="M232.28,-109.98C241.84,-102.07 256.28,-90.11 267.78,-80.58"/>
<polygon fill="#63b8ff" stroke="#63b8ff" points="270.06,-83.24 275.53,-74.17 265.6,-77.85 270.06,-83.24"/>
</g>
<!-- Node9&#45;&gt;Node5 -->
<g id="edge13" class="edge">
<title>Node9&#45;&gt;Node5</title>
<path fill="none" stroke="#63b8ff" d="M255.64,-115.86C357.37,-107.85 659.02,-83.83 736.15,-73.97"/>
<polygon fill="#63b8ff" stroke="#63b8ff" points="736.78,-77.41 746.2,-72.56 735.81,-70.48 736.78,-77.41"/>
</g>
<!-- Node10 -->
<g id="node10" class="node">
<title>Node10</title>
<g id="a_node10"><a xlink:title=" ">
<polygon fill="#e0e0e0" stroke="#999999" points="245.5,-74 200.5,-74 200.5,-55 245.5,-55 245.5,-74"/>
<text text-anchor="middle" x="223" y="-62" font-family="Helvetica,sans-Serif" font-size="10.00">cstdlib</text>
</a>
</g>
</g>
<!-- Node9&#45;&gt;Node10 -->
<g id="edge12" class="edge">
<title>Node9&#45;&gt;Node10</title>
<path fill="none" stroke="#63b8ff" d="M222.17,-109.75C222.3,-102.8 222.48,-92.85 222.65,-84.13"/>
<polygon fill="#63b8ff" stroke="#63b8ff" points="226.15,-84.15 222.84,-74.09 219.15,-84.02 226.15,-84.15"/>
</g>
<!-- Node9&#45;&gt;Node11 -->
<g id="edge14" class="edge">
<title>Node9&#45;&gt;Node11</title>
<path fill="none" stroke="#63b8ff" d="M206.25,-109.98C190.77,-101.61 166.91,-88.7 148.86,-78.95"/>
<polygon fill="#63b8ff" stroke="#63b8ff" points="150.49,-75.85 140.03,-74.17 147.16,-82.01 150.49,-75.85"/>
</g>
<!-- Node11&#45;&gt;Node2 -->
<g id="edge17" class="edge">
<title>Node11&#45;&gt;Node2</title>
<path fill="none" stroke="#63b8ff" d="M110.18,-54.98C96.85,-46.77 76.42,-34.18 60.69,-24.49"/>
<polygon fill="#63b8ff" stroke="#63b8ff" points="62.42,-21.44 52.07,-19.17 58.75,-27.4 62.42,-21.44"/>
</g>
<!-- Node11&#45;&gt;Node7 -->
<g id="edge15" class="edge">
<title>Node11&#45;&gt;Node7</title>
<path fill="none" stroke="#63b8ff" d="M143.74,-58.42C148.41,-57.26 153.37,-56.05 158,-55 221.8,-40.46 296.69,-25.5 339.42,-17.16"/>
<polygon fill="#63b8ff" stroke="#63b8ff" points="340.16,-20.58 349.31,-15.24 338.82,-13.71 340.16,-20.58"/>
</g>
<!-- Node11&#45;&gt;Node8 -->
<g id="edge16" class="edge">
<title>Node11&#45;&gt;Node8</title>
<path fill="none" stroke="#63b8ff" d="M124,-54.75C124,-47.8 124,-37.85 124,-29.13"/>
<polygon fill="#63b8ff" stroke="#63b8ff" points="127.5,-29.09 124,-19.09 120.5,-29.09 127.5,-29.09"/>
</g>
<!-- Node12&#45;&gt;Node6 -->
<g id="edge21" class="edge">
<title>Node12&#45;&gt;Node6</title>
<path fill="none" stroke="#63b8ff" d="M417.99,-222.42C379.6,-213.09 305.94,-195.18 261.56,-184.39"/>
<polygon fill="#63b8ff" stroke="#63b8ff" points="262.3,-180.97 251.75,-182 260.64,-187.77 262.3,-180.97"/>
</g>
<!-- Node12&#45;&gt;Node7 -->
<g id="edge19" class="edge">
<title>Node12&#45;&gt;Node7</title>
<path fill="none" stroke="#63b8ff" d="M447.93,-219.72C462.35,-192.73 501.37,-109.54 467,-55 454.21,-34.7 429.31,-23.46 408.49,-17.35"/>
<polygon fill="#63b8ff" stroke="#63b8ff" points="409.23,-13.93 398.67,-14.75 407.44,-20.69 409.23,-13.93"/>
</g>
<!-- Node13 -->
<g id="node13" class="node">
<title>Node13</title>
<g id="a_node13"><a xlink:title=" ">
<polygon fill="#e0e0e0" stroke="#999999" points="458,-74 402,-74 402,-55 458,-55 458,-74"/>
<text text-anchor="middle" x="430" y="-62" font-family="Helvetica,sans-Serif" font-size="10.00">algorithm</text>
</a>
</g>
</g>
<!-- Node12&#45;&gt;Node13 -->
<g id="edge20" class="edge">
<title>Node12&#45;&gt;Node13</title>
<path fill="none" stroke="#63b8ff" d="M442.3,-219.74C440.27,-194.31 434.35,-120.08 431.53,-84.69"/>
<polygon fill="#63b8ff" stroke="#63b8ff" points="434.99,-84 430.7,-74.31 428.01,-84.55 434.99,-84"/>
</g>
<!-- Node14&#45;&gt;Node4 -->
<g id="edge25" class="edge">
<title>Node14&#45;&gt;Node4</title>
<path fill="none" stroke="#63b8ff" d="M369.09,-109.98C353.45,-101.61 329.34,-88.7 311.12,-78.95"/>
<polygon fill="#63b8ff" stroke="#63b8ff" points="312.66,-75.8 302.2,-74.17 309.36,-81.98 312.66,-75.8"/>
</g>
<!-- Node14&#45;&gt;Node7 -->
<g id="edge23" class="edge">
<title>Node14&#45;&gt;Node7</title>
<path fill="none" stroke="#63b8ff" d="M384.1,-109.66C382.32,-92.17 378.31,-52.8 375.91,-29.27"/>
<polygon fill="#63b8ff" stroke="#63b8ff" points="379.38,-28.75 374.88,-19.16 372.41,-29.46 379.38,-28.75"/>
</g>
<!-- Node14&#45;&gt;Node8 -->
<g id="edge26" class="edge">
<title>Node14&#45;&gt;Node8</title>
<path fill="none" stroke="#63b8ff" d="M378.12,-109.57C366.89,-95.66 343.24,-68.96 317,-55 265.31,-27.5 196.99,-16.9 157.04,-12.88"/>
<polygon fill="#63b8ff" stroke="#63b8ff" points="157.32,-9.39 147.04,-11.95 156.67,-16.36 157.32,-9.39"/>
</g>
<!-- Node14&#45;&gt;Node13 -->
<g id="edge24" class="edge">
<title>Node14&#45;&gt;Node13</title>
<path fill="none" stroke="#63b8ff" d="M392.43,-109.75C398.85,-102.18 408.31,-91.05 416.12,-81.84"/>
<polygon fill="#63b8ff" stroke="#63b8ff" points="418.9,-83.98 422.71,-74.09 413.57,-79.45 418.9,-83.98"/>
</g>
<!-- Node15&#45;&gt;Node4 -->
<g id="edge30" class="edge">
<title>Node15&#45;&gt;Node4</title>
<path fill="none" stroke="#63b8ff" d="M515.98,-109.98C460.73,-99.3 367.29,-81.22 318.25,-71.74"/>
<polygon fill="#63b8ff" stroke="#63b8ff" points="318.69,-68.26 308.2,-69.8 317.36,-75.13 318.69,-68.26"/>
</g>
<!-- Node15&#45;&gt;Node5 -->
<g id="edge35" class="edge">
<title>Node15&#45;&gt;Node5</title>
<path fill="none" stroke="#63b8ff" d="M594.7,-109.98C633.4,-100.49 695.87,-85.16 736.44,-75.21"/>
<polygon fill="#63b8ff" stroke="#63b8ff" points="737.37,-78.58 746.25,-72.8 735.7,-71.78 737.37,-78.58"/>
</g>
<!-- Node15&#45;&gt;Node7 -->
<g id="edge32" class="edge">
<title>Node15&#45;&gt;Node7</title>
<path fill="none" stroke="#63b8ff" d="M553.98,-109.87C544.16,-96.36 523.4,-70.21 500,-55 471.84,-36.69 435.23,-24.86 408.74,-18.03"/>
<polygon fill="#63b8ff" stroke="#63b8ff" points="409.31,-14.57 398.76,-15.57 407.64,-21.36 409.31,-14.57"/>
</g>
<!-- Node16 -->
<g id="node16" class="node">
<title>Node16</title>
<g id="a_node16"><a xlink:title=" ">
<polygon fill="#e0e0e0" stroke="#999999" points="598,-74 552,-74 552,-55 598,-55 598,-74"/>
<text text-anchor="middle" x="575" y="-62" font-family="Helvetica,sans-Serif" font-size="10.00">cstdint</text>
</a>
</g>
</g>
<!-- Node15&#45;&gt;Node16 -->
<g id="edge31" class="edge">
<title>Node15&#45;&gt;Node16</title>
<path fill="none" stroke="#63b8ff" d="M562.48,-109.75C564.46,-102.72 567.32,-92.62 569.81,-83.84"/>
<polygon fill="#63b8ff" stroke="#63b8ff" points="573.21,-84.66 572.57,-74.09 566.48,-82.76 573.21,-84.66"/>
</g>
<!-- Node17 -->
<g id="node17" class="node">
<title>Node17</title>
<g id="a_node17"><a xlink:title=" ">
<polygon fill="#e0e0e0" stroke="#999999" points="651.5,-74 616.5,-74 616.5,-55 651.5,-55 651.5,-74"/>
<text text-anchor="middle" x="634" y="-62" font-family="Helvetica,sans-Serif" font-size="10.00">map</text>
</a>
</g>
</g>
<!-- Node15&#45;&gt;Node17 -->
<g id="edge33" class="edge">
<title>Node15&#45;&gt;Node17</title>
<path fill="none" stroke="#63b8ff" d="M571.89,-109.98C583.15,-101.92 600.29,-89.65 613.71,-80.03"/>
<polygon fill="#63b8ff" stroke="#63b8ff" points="615.8,-82.84 621.89,-74.17 611.73,-77.15 615.8,-82.84"/>
</g>
<!-- Node18 -->
<g id="node18" class="node">
<title>Node18</title>
<g id="a_node18"><a xlink:title=" ">
<polygon fill="#e0e0e0" stroke="#999999" points="728.5,-74 669.5,-74 669.5,-55 728.5,-55 728.5,-74"/>
<text text-anchor="middle" x="699" y="-62" font-family="Helvetica,sans-Serif" font-size="10.00">functional</text>
</a>
</g>
</g>
<!-- Node15&#45;&gt;Node18 -->
<g id="edge34" class="edge">
<title>Node15&#45;&gt;Node18</title>
<path fill="none" stroke="#63b8ff" d="M582.33,-109.98C605.2,-101.27 640.96,-87.63 666.86,-77.75"/>
<polygon fill="#63b8ff" stroke="#63b8ff" points="668.16,-81 676.26,-74.17 665.67,-74.46 668.16,-81"/>
</g>
<!-- Node19&#45;&gt;Node5 -->
<g id="edge37" class="edge">
<title>Node19&#45;&gt;Node5</title>
<path fill="none" stroke="#63b8ff" d="M692.04,-219.61C693.7,-207.08 697.57,-183.67 705,-165 718,-132.34 743.9,-100.29 760.56,-81.73"/>
<polygon fill="#63b8ff" stroke="#63b8ff" points="763.3,-83.93 767.49,-74.2 758.14,-79.19 763.3,-83.93"/>
</g>
<!-- Node20&#45;&gt;Node5 -->
<g id="edge40" class="edge">
<title>Node20&#45;&gt;Node5</title>
<path fill="none" stroke="#63b8ff" d="M851.54,-109.98C837.58,-101.77 816.21,-89.18 799.75,-79.49"/>
<polygon fill="#63b8ff" stroke="#63b8ff" points="801.12,-76.23 790.72,-74.17 797.56,-82.26 801.12,-76.23"/>
</g>
<!-- Node21 -->
<g id="node21" class="node">
<title>Node21</title>
<g id="a_node21"><a xlink:title=" ">
<polygon fill="#e0e0e0" stroke="#999999" points="875.5,-74 834.5,-74 834.5,-55 875.5,-55 875.5,-74"/>
<text text-anchor="middle" x="855" y="-62" font-family="Helvetica,sans-Serif" font-size="10.00">string</text>
</a>
</g>
</g>
<!-- Node20&#45;&gt;Node21 -->
<g id="edge39" class="edge">
<title>Node20&#45;&gt;Node21</title>
<path fill="none" stroke="#63b8ff" d="M864.18,-109.75C862.74,-102.8 860.68,-92.85 858.87,-84.13"/>
<polygon fill="#63b8ff" stroke="#63b8ff" points="862.24,-83.17 856.78,-74.09 855.39,-84.59 862.24,-83.17"/>
</g>
<!-- Node22&#45;&gt;Node5 -->
<g id="edge42" class="edge">
<title>Node22&#45;&gt;Node5</title>
<path fill="none" stroke="#63b8ff" d="M755.49,-164.79C748.42,-152.48 737.77,-129.34 744,-110 747.34,-99.62 754.1,-89.62 760.55,-81.74"/>
<polygon fill="#63b8ff" stroke="#63b8ff" points="763.29,-83.92 767.25,-74.1 758.03,-79.31 763.29,-83.92"/>
</g>
<!-- Node23 -->
<g id="node23" class="node">
<title>Node23</title>
<g id="a_node23"><a xlink:href="a00230.xhtml" target="_top" xlink:title=" ">
<polygon fill="white" stroke="#666666" points="799.5,-129 752.5,-129 752.5,-110 799.5,-110 799.5,-129"/>
<text text-anchor="middle" x="776" y="-117" font-family="Helvetica,sans-Serif" font-size="10.00">Pitch.h</text>
</a>
</g>
</g>
<!-- Node22&#45;&gt;Node23 -->
<g id="edge43" class="edge">
<title>Node22&#45;&gt;Node23</title>
<path fill="none" stroke="#63b8ff" d="M763.48,-164.75C765.46,-157.72 768.32,-147.62 770.81,-138.84"/>
<polygon fill="#63b8ff" stroke="#63b8ff" points="774.21,-139.66 773.57,-129.09 767.48,-137.76 774.21,-139.66"/>
</g>
<!-- Node23&#45;&gt;Node5 -->
<g id="edge45" class="edge">
<title>Node23&#45;&gt;Node5</title>
<path fill="none" stroke="#63b8ff" d="M776,-109.75C776,-102.8 776,-92.85 776,-84.13"/>
<polygon fill="#63b8ff" stroke="#63b8ff" points="779.5,-84.09 776,-74.09 772.5,-84.09 779.5,-84.09"/>
</g>
<!-- Node23&#45;&gt;Node21 -->
<g id="edge44" class="edge">
<title>Node23&#45;&gt;Node21</title>
<path fill="none" stroke="#63b8ff" d="M788.69,-109.98C800.83,-101.84 819.36,-89.41 833.75,-79.76"/>
<polygon fill="#63b8ff" stroke="#63b8ff" points="835.72,-82.65 842.08,-74.17 831.82,-76.84 835.72,-82.65"/>
</g>
</g>
</svg>
        <g id="navigator" transform="translate(0 0)" fill="#404254">
                <rect fill="#f2f5e9" fill-opacity="0.5" stroke="#606060" stroke-width=".5" x="0" y="0" width="60" height="60"/>
                <use id="zoomplus" xlink:href="#zoomPlus" x="17" y="9" onmousedown="handleZoom(evt,'in')"/>
                <use id="zoomminus" xlink:href="#zoomMin" x="42" y="9" onmousedown="handleZoom(evt,'out')"/>
                <use id="reset" xlink:href="#resetDef" x="30" y="36" onmousedown="handleReset()"/>
                <g id="arrowUp" xlink:href="#dirArrow" transform="translate(30 24)" onmousedown="handlePan(0,-1)">
                  <use xlink:href="#rim" fill="#404040">
                        <set attributeName="fill" to="#808080" begin="arrowUp.mouseover" end="arrowUp.mouseout"/>
                  </use>
                  <path fill="none" stroke="white" stroke-width="1.5" d="M0,-3.0v7 M-2.5,-0.5L0,-3.0L2.5,-0.5"/>
                </g>
                <g id="arrowRight" xlink:href="#dirArrow" transform="rotate(90) translate(36 -43)" onmousedown="handlePan(1,0)">
                  <use xlink:href="#rim" fill="#404040">
                        <set attributeName="fill" to="#808080" begin="arrowRight.mouseover" end="arrowRight.mouseout"/>
                  </use>
                  <path fill="none" stroke="white" stroke-width="1.5" d="M0,-3.0v7 M-2.5,-0.5L0,-3.0L2.5,-0.5"/>
                </g>
                <g id="arrowDown" xlink:href="#dirArrow" transform="rotate(180) translate(-30 -48)" onmousedown="handlePan(0,1)">
                  <use xlink:href="#rim" fill="#404040">
                        <set attributeName="fill" to="#808080" begin="arrowDown.mouseover" end="arrowDown.mouseout"/>
                  </use>
                  <path fill="none" stroke="white" stroke-width="1.5" d="M0,-3.0v7 M-2.5,-0.5L0,-3.0L2.5,-0.5"/>
                </g>
                <g id="arrowLeft" xlink:href="#dirArrow" transform="rotate(270) translate(-36 17)" onmousedown="handlePan(-1,0)">
                  <use xlink:href="#rim" fill="#404040">
                        <set attributeName="fill" to="#808080" begin="arrowLeft.mouseover" end="arrowLeft.mouseout"/>
                  </use>
                  <path fill="none" stroke="white" stroke-width="1.5" d="M0,-3.0v7 M-2.5,-0.5L0,-3.0L2.5,-0.5"/>
                </g>
        </g>
        <svg viewBox="0 0 15 15" width="100%" height="30px" preserveAspectRatio="xMaxYMin meet">
         <g id="arrow_out" transform="scale(0.3 0.3)">
          <a xlink:href="a00075_org.svg" target="_base">
           <rect id="button" ry="5" rx="5" y="6" x="6" height="38" width="38"
                fill="#f2f5e9" fill-opacity="0.5" stroke="#606060" stroke-width="1.0"/>
           <path id="arrow"
             d="M 11.500037,31.436501 C 11.940474,20.09759 22.043105,11.32322 32.158766,21.979434 L 37.068811,17.246167 C 37.068811,17.246167 37.088388,32 37.088388,32 L 22.160133,31.978069 C 22.160133,31.978069 26.997745,27.140456 26.997745,27.140456 C 18.528582,18.264221 13.291696,25.230495 11.500037,31.436501 z"
             style="fill:#404040;"/>
          </a>
         </g>
        </svg>
</svg>
