<?xml version="1.0" encoding="UTF-8" standalone="no"?>
<!DOCTYPE svg PUBLIC "-//W3C//DTD SVG 1.1//EN"
 "http://www.w3.org/Graphics/SVG/1.1/DTD/svg11.dtd">
<!-- Generated by graphviz version 4.0.0 (20220602.1335)
 -->
<!-- Title: ToolSimpleKnn.cpp Pages: 1 -->
<svg width="453pt" height="308pt"
 viewBox="0.00 0.00 452.50 308.00" xmlns="http://www.w3.org/2000/svg" xmlns:xlink="http://www.w3.org/1999/xlink">
<g id="graph0" class="graph" transform="scale(1 1) rotate(0) translate(4 304)">
<title>ToolSimpleKnn.cpp</title>
<polygon fill="white" stroke="transparent" points="-4,4 -4,-304 448.5,-304 448.5,4 -4,4"/>
<!-- Node1 -->
<g id="node1" class="node">
<title>Node1</title>
<g id="a_node1"><a xlink:title=" ">
<polygon fill="#bfbfbf" stroke="black" points="108,-280.5 108,-299.5 209,-299.5 209,-280.5 108,-280.5"/>
<text text-anchor="middle" x="158.5" y="-287.5" font-family="Helvetica,sans-Serif" font-size="10.00">ToolSimpleKnn.cpp</text>
</a>
</g>
</g>
<!-- Node2 -->
<g id="node2" class="node">
<title>Node2</title>
<g id="a_node2"><a xlink:href="a00152.xhtml" target="_top" xlink:title=" ">
<polygon fill="white" stroke="black" points="70.5,-224.5 70.5,-243.5 120.5,-243.5 120.5,-224.5 70.5,-224.5"/>
<text text-anchor="middle" x="95.5" y="-231.5" font-family="Helvetica,sans-Serif" font-size="10.00">Matrix.h</text>
</a>
</g>
</g>
<!-- Node1&#45;&gt;Node2 -->
<g id="edge1" class="edge">
<title>Node1&#45;&gt;Node2</title>
<path fill="none" stroke="midnightblue" d="M148.38,-280.32C138.97,-272.26 124.76,-260.08 113.43,-250.37"/>
<polygon fill="midnightblue" stroke="midnightblue" points="115.68,-247.68 105.81,-243.83 111.12,-253 115.68,-247.68"/>
</g>
<!-- Node5 -->
<g id="node5" class="node">
<title>Node5</title>
<g id="a_node5"><a xlink:href="a00158.xhtml" target="_top" xlink:title=" ">
<polygon fill="white" stroke="black" points="132,-168.5 132,-187.5 185,-187.5 185,-168.5 132,-168.5"/>
<text text-anchor="middle" x="158.5" y="-175.5" font-family="Helvetica,sans-Serif" font-size="10.00">Vector.h</text>
</a>
</g>
</g>
<!-- Node1&#45;&gt;Node5 -->
<g id="edge17" class="edge">
<title>Node1&#45;&gt;Node5</title>
<path fill="none" stroke="midnightblue" d="M158.5,-280.37C158.5,-262.62 158.5,-221.67 158.5,-197.6"/>
<polygon fill="midnightblue" stroke="midnightblue" points="162,-197.59 158.5,-187.59 155,-197.59 162,-197.59"/>
</g>
<!-- Node13 -->
<g id="node13" class="node">
<title>Node13</title>
<g id="a_node13"><a xlink:href="a00128.xhtml" target="_top" xlink:title=" ">
<polygon fill="white" stroke="black" points="285.5,-224.5 285.5,-243.5 375.5,-243.5 375.5,-224.5 285.5,-224.5"/>
<text text-anchor="middle" x="330.5" y="-231.5" font-family="Helvetica,sans-Serif" font-size="10.00">ToolSimpleKnn.h</text>
</a>
</g>
</g>
<!-- Node1&#45;&gt;Node13 -->
<g id="edge18" class="edge">
<title>Node1&#45;&gt;Node13</title>
<path fill="none" stroke="midnightblue" d="M185.75,-280.44C214.94,-271.28 261.42,-256.69 293.81,-246.52"/>
<polygon fill="midnightblue" stroke="midnightblue" points="294.88,-249.85 303.37,-243.52 292.78,-243.17 294.88,-249.85"/>
</g>
<!-- Node3 -->
<g id="node3" class="node">
<title>Node3</title>
<g id="a_node3"><a xlink:title=" ">
<polygon fill="white" stroke="#bfbfbf" points="0,-0.5 0,-19.5 49,-19.5 49,-0.5 0,-0.5"/>
<text text-anchor="middle" x="24.5" y="-7.5" font-family="Helvetica,sans-Serif" font-size="10.00">cassert</text>
</a>
</g>
</g>
<!-- Node2&#45;&gt;Node3 -->
<g id="edge2" class="edge">
<title>Node2&#45;&gt;Node3</title>
<path fill="none" stroke="midnightblue" d="M82.39,-224.33C71.4,-216.3 56.29,-203.3 48.5,-188 21.82,-135.59 21.5,-63.7 23.12,-29.95"/>
<polygon fill="midnightblue" stroke="midnightblue" points="26.63,-29.89 23.74,-19.7 19.65,-29.47 26.63,-29.89"/>
</g>
<!-- Node4 -->
<g id="node4" class="node">
<title>Node4</title>
<g id="a_node4"><a xlink:title=" ">
<polygon fill="white" stroke="#bfbfbf" points="57.5,-168.5 57.5,-187.5 113.5,-187.5 113.5,-168.5 57.5,-168.5"/>
<text text-anchor="middle" x="85.5" y="-175.5" font-family="Helvetica,sans-Serif" font-size="10.00">algorithm</text>
</a>
</g>
</g>
<!-- Node2&#45;&gt;Node4 -->
<g id="edge3" class="edge">
<title>Node2&#45;&gt;Node4</title>
<path fill="none" stroke="midnightblue" d="M93.85,-224.08C92.52,-216.93 90.62,-206.64 88.96,-197.69"/>
<polygon fill="midnightblue" stroke="midnightblue" points="92.38,-196.95 87.12,-187.75 85.5,-198.22 92.38,-196.95"/>
</g>
<!-- Node2&#45;&gt;Node5 -->
<g id="edge4" class="edge">
<title>Node2&#45;&gt;Node5</title>
<path fill="none" stroke="midnightblue" d="M105.62,-224.32C115.03,-216.26 129.24,-204.08 140.57,-194.37"/>
<polygon fill="midnightblue" stroke="midnightblue" points="142.88,-197 148.19,-187.83 138.32,-191.68 142.88,-197"/>
</g>
<!-- Node5&#45;&gt;Node3 -->
<g id="edge5" class="edge">
<title>Node5&#45;&gt;Node3</title>
<path fill="none" stroke="midnightblue" d="M143.39,-168.47C129.94,-160.34 110.31,-147.13 96.5,-132 67.23,-99.93 43.91,-54.11 32.38,-29.06"/>
<polygon fill="midnightblue" stroke="midnightblue" points="35.47,-27.39 28.18,-19.7 29.08,-30.26 35.47,-27.39"/>
</g>
<!-- Node6 -->
<g id="node6" class="node">
<title>Node6</title>
<g id="a_node6"><a xlink:title=" ">
<polygon fill="white" stroke="#bfbfbf" points="70.5,-0.5 70.5,-19.5 116.5,-19.5 116.5,-0.5 70.5,-0.5"/>
<text text-anchor="middle" x="93.5" y="-7.5" font-family="Helvetica,sans-Serif" font-size="10.00">cstring</text>
</a>
</g>
</g>
<!-- Node5&#45;&gt;Node6 -->
<g id="edge6" class="edge">
<title>Node5&#45;&gt;Node6</title>
<path fill="none" stroke="midnightblue" d="M148.73,-168.49C131.21,-152.48 94.97,-115.9 81.5,-76 76.29,-60.56 80.55,-42.24 85.38,-29"/>
<polygon fill="midnightblue" stroke="midnightblue" points="88.67,-30.19 89.21,-19.61 82.19,-27.55 88.67,-30.19"/>
</g>
<!-- Node7 -->
<g id="node7" class="node">
<title>Node7</title>
<g id="a_node7"><a xlink:title=" ">
<polygon fill="white" stroke="#bfbfbf" points="136.5,-0.5 136.5,-19.5 176.5,-19.5 176.5,-0.5 136.5,-0.5"/>
<text text-anchor="middle" x="156.5" y="-7.5" font-family="Helvetica,sans-Serif" font-size="10.00">limits</text>
</a>
</g>
</g>
<!-- Node5&#45;&gt;Node7 -->
<g id="edge7" class="edge">
<title>Node5&#45;&gt;Node7</title>
<path fill="none" stroke="midnightblue" d="M158.39,-168.08C158.08,-141.95 157.15,-65.21 156.72,-29.58"/>
<polygon fill="midnightblue" stroke="midnightblue" points="160.22,-29.53 156.6,-19.57 153.22,-29.61 160.22,-29.53"/>
</g>
<!-- Node8 -->
<g id="node8" class="node">
<title>Node8</title>
<g id="a_node8"><a xlink:title=" ">
<polygon fill="white" stroke="#bfbfbf" points="186.5,-56.5 186.5,-75.5 230.5,-75.5 230.5,-56.5 186.5,-56.5"/>
<text text-anchor="middle" x="208.5" y="-63.5" font-family="Helvetica,sans-Serif" font-size="10.00">cmath</text>
</a>
</g>
</g>
<!-- Node5&#45;&gt;Node8 -->
<g id="edge8" class="edge">
<title>Node5&#45;&gt;Node8</title>
<path fill="none" stroke="midnightblue" d="M162.42,-168.37C170.57,-150.46 189.44,-108.92 200.34,-84.95"/>
<polygon fill="midnightblue" stroke="midnightblue" points="203.64,-86.14 204.59,-75.59 197.27,-83.25 203.64,-86.14"/>
</g>
<!-- Node9 -->
<g id="node9" class="node">
<title>Node9</title>
<g id="a_node9"><a xlink:href="a00161.xhtml" target="_top" xlink:title=" ">
<polygon fill="white" stroke="black" points="225,-112.5 225,-131.5 292,-131.5 292,-112.5 225,-112.5"/>
<text text-anchor="middle" x="258.5" y="-119.5" font-family="Helvetica,sans-Serif" font-size="10.00">Synthesis.h</text>
</a>
</g>
</g>
<!-- Node5&#45;&gt;Node9 -->
<g id="edge9" class="edge">
<title>Node5&#45;&gt;Node9</title>
<path fill="none" stroke="midnightblue" d="M174.57,-168.32C190.46,-159.74 215.01,-146.49 233.46,-136.52"/>
<polygon fill="midnightblue" stroke="midnightblue" points="235.34,-139.49 242.47,-131.65 232.01,-133.33 235.34,-139.49"/>
</g>
<!-- Node9&#45;&gt;Node8 -->
<g id="edge10" class="edge">
<title>Node9&#45;&gt;Node8</title>
<path fill="none" stroke="midnightblue" d="M250.24,-112.08C243.04,-104.3 232.39,-92.8 223.65,-83.37"/>
<polygon fill="midnightblue" stroke="midnightblue" points="225.97,-80.71 216.6,-75.75 220.83,-85.47 225.97,-80.71"/>
</g>
<!-- Node10 -->
<g id="node10" class="node">
<title>Node10</title>
<g id="a_node10"><a xlink:title=" ">
<polygon fill="white" stroke="#bfbfbf" points="249,-56.5 249,-75.5 294,-75.5 294,-56.5 249,-56.5"/>
<text text-anchor="middle" x="271.5" y="-63.5" font-family="Helvetica,sans-Serif" font-size="10.00">cstdlib</text>
</a>
</g>
</g>
<!-- Node9&#45;&gt;Node10 -->
<g id="edge11" class="edge">
<title>Node9&#45;&gt;Node10</title>
<path fill="none" stroke="midnightblue" d="M260.65,-112.08C262.37,-104.93 264.85,-94.64 267,-85.69"/>
<polygon fill="midnightblue" stroke="midnightblue" points="270.46,-86.29 269.39,-75.75 263.65,-84.65 270.46,-86.29"/>
</g>
<!-- Node11 -->
<g id="node11" class="node">
<title>Node11</title>
<g id="a_node11"><a xlink:href="a00122.xhtml" target="_top" xlink:title=" ">
<polygon fill="white" stroke="black" points="312,-56.5 312,-75.5 371,-75.5 371,-56.5 312,-56.5"/>
<text text-anchor="middle" x="341.5" y="-63.5" font-family="Helvetica,sans-Serif" font-size="10.00">ErrorDef.h</text>
</a>
</g>
</g>
<!-- Node9&#45;&gt;Node11 -->
<g id="edge12" class="edge">
<title>Node9&#45;&gt;Node11</title>
<path fill="none" stroke="midnightblue" d="M271.84,-112.32C284.66,-103.98 304.28,-91.21 319.44,-81.35"/>
<polygon fill="midnightblue" stroke="midnightblue" points="321.72,-84.04 328.2,-75.65 317.91,-78.17 321.72,-84.04"/>
</g>
<!-- Node12 -->
<g id="node12" class="node">
<title>Node12</title>
<g id="a_node12"><a xlink:href="a00164.xhtml" target="_top" xlink:title=" ">
<polygon fill="white" stroke="black" points="91,-56.5 91,-75.5 130,-75.5 130,-56.5 91,-56.5"/>
<text text-anchor="middle" x="110.5" y="-63.5" font-family="Helvetica,sans-Serif" font-size="10.00">Util.h</text>
</a>
</g>
</g>
<!-- Node9&#45;&gt;Node12 -->
<g id="edge13" class="edge">
<title>Node9&#45;&gt;Node12</title>
<path fill="none" stroke="midnightblue" d="M235.05,-112.44C209.21,-103.01 167.61,-87.84 139.68,-77.65"/>
<polygon fill="midnightblue" stroke="midnightblue" points="140.65,-74.28 130.06,-74.14 138.25,-80.85 140.65,-74.28"/>
</g>
<!-- Node12&#45;&gt;Node3 -->
<g id="edge14" class="edge">
<title>Node12&#45;&gt;Node3</title>
<path fill="none" stroke="midnightblue" d="M96.68,-56.32C83.27,-47.9 62.68,-34.97 46.91,-25.07"/>
<polygon fill="midnightblue" stroke="midnightblue" points="48.61,-22.01 38.28,-19.65 44.89,-27.94 48.61,-22.01"/>
</g>
<!-- Node12&#45;&gt;Node6 -->
<g id="edge15" class="edge">
<title>Node12&#45;&gt;Node6</title>
<path fill="none" stroke="midnightblue" d="M107.69,-56.08C105.42,-48.85 102.13,-38.41 99.29,-29.4"/>
<polygon fill="midnightblue" stroke="midnightblue" points="102.6,-28.24 96.25,-19.75 95.92,-30.34 102.6,-28.24"/>
</g>
<!-- Node12&#45;&gt;Node7 -->
<g id="edge16" class="edge">
<title>Node12&#45;&gt;Node7</title>
<path fill="none" stroke="midnightblue" d="M118.1,-56.08C124.73,-48.3 134.52,-36.8 142.56,-27.37"/>
<polygon fill="midnightblue" stroke="midnightblue" points="145.23,-29.63 149.05,-19.75 139.9,-25.09 145.23,-29.63"/>
</g>
<!-- Node13&#45;&gt;Node11 -->
<g id="edge19" class="edge">
<title>Node13&#45;&gt;Node11</title>
<path fill="none" stroke="midnightblue" d="M331.09,-224.08C332.82,-197.95 337.91,-121.21 340.27,-85.58"/>
<polygon fill="midnightblue" stroke="midnightblue" points="343.76,-85.78 340.93,-75.57 336.78,-85.31 343.76,-85.78"/>
</g>
<!-- Node14 -->
<g id="node14" class="node">
<title>Node14</title>
<g id="a_node14"><a xlink:href="a00242.xhtml" target="_top" xlink:title=" ">
<polygon fill="white" stroke="black" points="358.5,-168.5 358.5,-187.5 444.5,-187.5 444.5,-168.5 358.5,-168.5"/>
<text text-anchor="middle" x="401.5" y="-175.5" font-family="Helvetica,sans-Serif" font-size="10.00">ClassifierBase.h</text>
</a>
</g>
</g>
<!-- Node13&#45;&gt;Node14 -->
<g id="edge20" class="edge">
<title>Node13&#45;&gt;Node14</title>
<path fill="none" stroke="midnightblue" d="M341.91,-224.32C352.61,-216.18 368.84,-203.84 381.66,-194.09"/>
<polygon fill="midnightblue" stroke="midnightblue" points="384.04,-196.67 389.89,-187.83 379.81,-191.1 384.04,-196.67"/>
</g>
</g>
</svg>
