<?xml version="1.0" encoding="UTF-8" standalone="no"?>
<!DOCTYPE svg PUBLIC "-//W3C//DTD SVG 1.1//EN"
 "http://www.w3.org/Graphics/SVG/1.1/DTD/svg11.dtd">
<!-- Generated by graphviz version 4.0.0 (20220602.1335)
 -->
<!-- Title: main Pages: 1 -->
<svg width="725pt" height="656pt"
 viewBox="0.00 0.00 725.00 656.00" xmlns="http://www.w3.org/2000/svg" xmlns:xlink="http://www.w3.org/1999/xlink">
<g id="graph0" class="graph" transform="scale(1 1) rotate(0) translate(4 652)">
<title>main</title>
<polygon fill="white" stroke="transparent" points="-4,4 -4,-652 721,-652 721,4 -4,4"/>
<!-- Node1 -->
<g id="node1" class="node">
<title>Node1</title>
<g id="a_node1"><a xlink:title=" ">
<polygon fill="#bfbfbf" stroke="black" points="0,-152.5 0,-171.5 38,-171.5 38,-152.5 0,-152.5"/>
<text text-anchor="middle" x="19" y="-159.5" font-family="Helvetica,sans-Serif" font-size="10.00">main</text>
</a>
</g>
</g>
<!-- Node2 -->
<g id="node2" class="node">
<title>Node2</title>
<g id="a_node2"><a xlink:href="a00454.xhtml#a463c7570302112f307363ec1c7260221" target="_top" xlink:title=" ">
<polygon fill="white" stroke="black" points="79,-334.5 79,-353.5 193,-353.5 193,-334.5 79,-334.5"/>
<text text-anchor="middle" x="136" y="-341.5" font-family="Helvetica,sans-Serif" font-size="10.00">CChordIf::compChords</text>
</a>
</g>
</g>
<!-- Node1&#45;&gt;Node2 -->
<g id="edge1" class="edge">
<title>Node1&#45;&gt;Node2</title>
<path fill="none" stroke="midnightblue" d="M26.18,-171.79C44.59,-200.92 99.25,-287.42 123.36,-325.57"/>
<polygon fill="midnightblue" stroke="midnightblue" points="120.49,-327.58 128.79,-334.17 126.4,-323.84 120.49,-327.58"/>
</g>
<!-- Node29 -->
<g id="node29" class="node">
<title>Node29</title>
<g id="a_node29"><a xlink:href="a00454.xhtml#a49eaa5eea529fe7545a698b91b7e6216" target="_top" xlink:title=" ">
<polygon fill="white" stroke="black" points="93,-190.5 93,-209.5 179,-209.5 179,-190.5 93,-190.5"/>
<text text-anchor="middle" x="136" y="-197.5" font-family="Helvetica,sans-Serif" font-size="10.00">CChordIf::create</text>
</a>
</g>
</g>
<!-- Node1&#45;&gt;Node29 -->
<g id="edge32" class="edge">
<title>Node1&#45;&gt;Node29</title>
<path fill="none" stroke="midnightblue" d="M38.44,-168.67C48.85,-172.39 62.11,-177.06 74,-181 80.44,-183.13 87.28,-185.33 93.97,-187.44"/>
<polygon fill="midnightblue" stroke="midnightblue" points="93,-190.81 103.58,-190.45 95.09,-184.13 93,-190.81"/>
</g>
<!-- Node31 -->
<g id="node31" class="node">
<title>Node31</title>
<g id="a_node31"><a xlink:href="a00454.xhtml#a8f184fd60056e658f22caf63ddee941d" target="_top" xlink:title=" ">
<polygon fill="white" stroke="black" points="90.5,-152.5 90.5,-171.5 181.5,-171.5 181.5,-152.5 90.5,-152.5"/>
<text text-anchor="middle" x="136" y="-159.5" font-family="Helvetica,sans-Serif" font-size="10.00">CChordIf::destroy</text>
</a>
</g>
</g>
<!-- Node1&#45;&gt;Node31 -->
<g id="edge34" class="edge">
<title>Node1&#45;&gt;Node31</title>
<path fill="none" stroke="midnightblue" d="M38.22,-162C49.54,-162 64.76,-162 79.76,-162"/>
<polygon fill="midnightblue" stroke="midnightblue" points="80.07,-165.5 90.07,-162 80.07,-158.5 80.07,-165.5"/>
</g>
<!-- Node32 -->
<g id="node32" class="node">
<title>Node32</title>
<g id="a_node32"><a xlink:href="a00454.xhtml#a5b94769328edf985eb6752293316a412" target="_top" xlink:title=" ">
<polygon fill="white" stroke="black" points="74,-114.5 74,-133.5 198,-133.5 198,-114.5 74,-114.5"/>
<text text-anchor="middle" x="136" y="-121.5" font-family="Helvetica,sans-Serif" font-size="10.00">CChordIf::getChordString</text>
</a>
</g>
</g>
<!-- Node1&#45;&gt;Node32 -->
<g id="edge35" class="edge">
<title>Node1&#45;&gt;Node32</title>
<path fill="none" stroke="midnightblue" d="M38.44,-155.33C48.85,-151.61 62.11,-146.94 74,-143 80.44,-140.87 87.28,-138.67 93.97,-136.56"/>
<polygon fill="midnightblue" stroke="midnightblue" points="95.09,-139.87 103.58,-133.55 93,-133.19 95.09,-139.87"/>
</g>
<!-- Node33 -->
<g id="node33" class="node">
<title>Node33</title>
<g id="a_node33"><a xlink:href="a00454.xhtml#a91455e2af2bd01006c1fc085e3904643" target="_top" xlink:title=" ">
<polygon fill="white" stroke="black" points="74,-475.5 74,-494.5 198,-494.5 198,-475.5 74,-475.5"/>
<text text-anchor="middle" x="136" y="-482.5" font-family="Helvetica,sans-Serif" font-size="10.00">CChordIf::getNumBlocks</text>
</a>
</g>
</g>
<!-- Node1&#45;&gt;Node33 -->
<g id="edge36" class="edge">
<title>Node1&#45;&gt;Node33</title>
<path fill="none" stroke="midnightblue" d="M21.91,-171.84C27.8,-201.4 46.92,-291.73 74,-363 88.5,-401.16 111.13,-443.24 124.37,-466.67"/>
<polygon fill="midnightblue" stroke="midnightblue" points="121.41,-468.55 129.41,-475.5 127.49,-465.08 121.41,-468.55"/>
</g>
<!-- Node35 -->
<g id="node35" class="node">
<title>Node35</title>
<g id="a_node35"><a xlink:href="a00454.xhtml#af2428223392b9084f6cf23bfb676eddc" target="_top" xlink:title=" ">
<polygon fill="white" stroke="black" points="74.5,-76.5 74.5,-95.5 197.5,-95.5 197.5,-76.5 74.5,-76.5"/>
<text text-anchor="middle" x="136" y="-83.5" font-family="Helvetica,sans-Serif" font-size="10.00">CChordIf::getTimeStamp</text>
</a>
</g>
</g>
<!-- Node1&#45;&gt;Node35 -->
<g id="edge39" class="edge">
<title>Node1&#45;&gt;Node35</title>
<path fill="none" stroke="midnightblue" d="M26.56,-152.5C35.75,-139.87 53.64,-117.69 74,-105 77.35,-102.92 80.94,-101.04 84.65,-99.36"/>
<polygon fill="midnightblue" stroke="midnightblue" points="86.06,-102.57 94.02,-95.58 83.44,-96.08 86.06,-102.57"/>
</g>
<!-- Node37 -->
<g id="node37" class="node">
<title>Node37</title>
<g id="a_node37"><a xlink:href="a00032.xhtml#a2d0a5ce28a4b0030ec0353c6f7a0fd64" target="_top" xlink:title=" ">
<polygon fill="white" stroke="black" points="103.5,-38.5 103.5,-57.5 168.5,-57.5 168.5,-38.5 103.5,-38.5"/>
<text text-anchor="middle" x="136" y="-45.5" font-family="Helvetica,sans-Serif" font-size="10.00">showClInfo</text>
</a>
</g>
</g>
<!-- Node1&#45;&gt;Node37 -->
<g id="edge41" class="edge">
<title>Node1&#45;&gt;Node37</title>
<path fill="none" stroke="midnightblue" d="M22.83,-152.34C28.94,-133.18 45.19,-90.2 74,-67 79.76,-62.36 86.66,-58.85 93.71,-56.19"/>
<polygon fill="midnightblue" stroke="midnightblue" points="94.9,-59.49 103.33,-53.07 92.74,-52.83 94.9,-59.49"/>
</g>
<!-- Node3 -->
<g id="node3" class="node">
<title>Node3</title>
<g id="a_node3"><a xlink:href="a00502.xhtml#abaadac98b1cad18b7b568852bc951696" target="_top" xlink:title=" ">
<polygon fill="white" stroke="black" points="468.5,-506.5 468.5,-525.5 545.5,-525.5 545.5,-506.5 468.5,-506.5"/>
<text text-anchor="middle" x="507" y="-513.5" font-family="Helvetica,sans-Serif" font-size="10.00">CVector::alloc</text>
</a>
</g>
</g>
<!-- Node2&#45;&gt;Node3 -->
<g id="edge2" class="edge">
<title>Node2&#45;&gt;Node3</title>
<path fill="none" stroke="midnightblue" d="M152.97,-353.61C171.8,-364.62 204.29,-382.58 234,-394 303.94,-420.88 335.46,-394.26 397,-437 419.79,-452.83 411.1,-470.96 433,-488 440.71,-494 449.86,-498.84 459.03,-502.7"/>
<polygon fill="midnightblue" stroke="midnightblue" points="457.94,-506.03 468.53,-506.37 460.46,-499.5 457.94,-506.03"/>
</g>
<!-- Node5 -->
<g id="node5" class="node">
<title>Node5</title>
<g id="a_node5"><a xlink:href="a00458.xhtml#a3671f264a475e2d6eb36d87d0c8e07fb" target="_top" xlink:title=" ">
<polygon fill="white" stroke="black" points="262,-354 262,-384 369,-384 369,-354 262,-354"/>
<text text-anchor="start" x="270" y="-372" font-family="Helvetica,sans-Serif" font-size="10.00">CChordFromBlockIf::</text>
<text text-anchor="middle" x="315.5" y="-361" font-family="Helvetica,sans-Serif" font-size="10.00">compChordProb</text>
</a>
</g>
</g>
<!-- Node2&#45;&gt;Node5 -->
<g id="edge4" class="edge">
<title>Node2&#45;&gt;Node5</title>
<path fill="none" stroke="midnightblue" d="M193.16,-351.91C211.76,-354.53 232.57,-357.46 251.64,-360.15"/>
<polygon fill="midnightblue" stroke="midnightblue" points="251.33,-363.64 261.72,-361.57 252.31,-356.71 251.33,-363.64"/>
</g>
<!-- Node11 -->
<g id="node11" class="node">
<title>Node11</title>
<g id="a_node11"><a xlink:href="a00454.xhtml#ab7ff18d1911b7a8792536daad8cf0dd9" target="_top" xlink:title=" ">
<polygon fill="white" stroke="black" points="234,-266.5 234,-285.5 397,-285.5 397,-266.5 234,-266.5"/>
<text text-anchor="middle" x="315.5" y="-273.5" font-family="Helvetica,sans-Serif" font-size="10.00">CChordIf::computeMagSpectrum_</text>
</a>
</g>
</g>
<!-- Node2&#45;&gt;Node11 -->
<g id="edge11" class="edge">
<title>Node2&#45;&gt;Node11</title>
<path fill="none" stroke="midnightblue" d="M153.68,-334.36C172.62,-323.73 204.72,-306.74 234,-296 241.97,-293.08 250.53,-290.44 259,-288.11"/>
<polygon fill="midnightblue" stroke="midnightblue" points="260.07,-291.45 268.85,-285.52 258.29,-284.68 260.07,-291.45"/>
</g>
<!-- Node18 -->
<g id="node18" class="node">
<title>Node18</title>
<g id="a_node18"><a xlink:href="a00630.xhtml#a9c6126cdc8793ca4b0187a4d31877e71" target="_top" xlink:title=" ">
<polygon fill="white" stroke="black" points="262,-593.5 262,-612.5 369,-612.5 369,-593.5 262,-593.5"/>
<text text-anchor="middle" x="315.5" y="-600.5" font-family="Helvetica,sans-Serif" font-size="10.00">CViterbi::compViterbi</text>
</a>
</g>
</g>
<!-- Node2&#45;&gt;Node18 -->
<g id="edge20" class="edge">
<title>Node2&#45;&gt;Node18</title>
<path fill="none" stroke="midnightblue" d="M142.47,-353.55C153.9,-373.78 180.7,-422.68 198,-466 218.33,-516.92 194,-546.5 234,-584 239.14,-588.82 245.26,-592.49 251.81,-595.27"/>
<polygon fill="midnightblue" stroke="midnightblue" points="251.03,-598.71 261.63,-598.75 253.37,-592.11 251.03,-598.71"/>
</g>
<!-- Node22 -->
<g id="node22" class="node">
<title>Node22</title>
<g id="a_node22"><a xlink:href="a00502.xhtml#a34a5c0abd80cd982df8a8bae7cbcea19" target="_top" xlink:title=" ">
<polygon fill="white" stroke="black" points="271,-228.5 271,-247.5 360,-247.5 360,-228.5 271,-228.5"/>
<text text-anchor="middle" x="315.5" y="-235.5" font-family="Helvetica,sans-Serif" font-size="10.00">CVector::findMax</text>
</a>
</g>
</g>
<!-- Node2&#45;&gt;Node22 -->
<g id="edge24" class="edge">
<title>Node2&#45;&gt;Node22</title>
<path fill="none" stroke="midnightblue" d="M144.7,-334.46C159.82,-316.4 195.3,-277.22 234,-257 242.32,-252.65 251.64,-249.29 260.9,-246.69"/>
<polygon fill="midnightblue" stroke="midnightblue" points="262.05,-250.01 270.88,-244.15 260.33,-243.22 262.05,-250.01"/>
</g>
<!-- Node23 -->
<g id="node23" class="node">
<title>Node23</title>
<g id="a_node23"><a xlink:href="a00502.xhtml#aa86bdb0c663d4d52f2765793756f8737" target="_top" xlink:title=" ">
<polygon fill="white" stroke="black" points="279,-190.5 279,-209.5 352,-209.5 352,-190.5 279,-190.5"/>
<text text-anchor="middle" x="315.5" y="-197.5" font-family="Helvetica,sans-Serif" font-size="10.00">CVector::free</text>
</a>
</g>
</g>
<!-- Node2&#45;&gt;Node23 -->
<g id="edge25" class="edge">
<title>Node2&#45;&gt;Node23</title>
<path fill="none" stroke="midnightblue" d="M141.55,-334.37C153.25,-310.69 186.86,-249.3 234,-219 244.38,-212.33 256.86,-207.99 268.87,-205.18"/>
<polygon fill="midnightblue" stroke="midnightblue" points="269.68,-208.59 278.78,-203.16 268.28,-201.73 269.68,-208.59"/>
</g>
<!-- Node24 -->
<g id="node24" class="node">
<title>Node24</title>
<g id="a_node24"><a xlink:href="a00542.xhtml#a531920b36b04ecdb562bfbb09dd2e856" target="_top" xlink:title=" ">
<polygon fill="white" stroke="black" points="244.5,-152.5 244.5,-171.5 386.5,-171.5 386.5,-152.5 244.5,-152.5"/>
<text text-anchor="middle" x="315.5" y="-159.5" font-family="Helvetica,sans-Serif" font-size="10.00">CBlockAudioIf::getNextBlock</text>
</a>
</g>
</g>
<!-- Node2&#45;&gt;Node24 -->
<g id="edge26" class="edge">
<title>Node2&#45;&gt;Node24</title>
<path fill="none" stroke="midnightblue" d="M141.47,-334.41C156.44,-302.68 205.46,-201.94 234,-181 236.52,-179.15 239.2,-177.47 241.99,-175.96"/>
<polygon fill="midnightblue" stroke="midnightblue" points="243.63,-179.06 251.21,-171.66 240.66,-172.72 243.63,-179.06"/>
</g>
<!-- Node25 -->
<g id="node25" class="node">
<title>Node25</title>
<g id="a_node25"><a xlink:href="a00542.xhtml#a595b3a391e2540a1dc9e53edf8634494" target="_top" xlink:title=" ">
<polygon fill="white" stroke="black" points="433,-549.5 433,-568.5 581,-568.5 581,-549.5 433,-549.5"/>
<text text-anchor="middle" x="507" y="-556.5" font-family="Helvetica,sans-Serif" font-size="10.00">CBlockAudioIf::getNumBlocks</text>
</a>
</g>
</g>
<!-- Node2&#45;&gt;Node25 -->
<g id="edge27" class="edge">
<title>Node2&#45;&gt;Node25</title>
<path fill="none" stroke="midnightblue" d="M145.02,-353.54C160.4,-371.2 195.93,-409.03 234,-429 300.16,-463.69 337.79,-424.45 397,-470 423.18,-490.14 407.56,-513.95 433,-535 437.99,-539.13 443.72,-542.56 449.72,-545.4"/>
<polygon fill="midnightblue" stroke="midnightblue" points="448.73,-548.78 459.31,-549.4 451.42,-542.32 448.73,-548.78"/>
</g>
<!-- Node26 -->
<g id="node26" class="node">
<title>Node26</title>
<g id="a_node26"><a xlink:href="a00630.xhtml#ad38834e360270390b08848a9f6e60969" target="_top" xlink:title=" ">
<polygon fill="white" stroke="black" points="247.5,-517.5 247.5,-536.5 383.5,-536.5 383.5,-517.5 247.5,-517.5"/>
<text text-anchor="middle" x="315.5" y="-524.5" font-family="Helvetica,sans-Serif" font-size="10.00">CViterbi::getStateSequence</text>
</a>
</g>
</g>
<!-- Node2&#45;&gt;Node26 -->
<g id="edge28" class="edge">
<title>Node2&#45;&gt;Node26</title>
<path fill="none" stroke="midnightblue" d="M141.46,-353.65C156.41,-385.58 205.35,-486.93 234,-508 236.52,-509.85 239.2,-511.53 241.98,-513.05"/>
<polygon fill="midnightblue" stroke="midnightblue" points="240.66,-516.29 251.2,-517.36 243.62,-509.95 240.66,-516.29"/>
</g>
<!-- Node27 -->
<g id="node27" class="node">
<title>Node27</title>
<g id="a_node27"><a xlink:href="a00606.xhtml#aa8a561b4133585586c5b595116a9217f" target="_top" xlink:title=" ">
<polygon fill="white" stroke="black" points="247,-305 247,-335 384,-335 384,-305 247,-305"/>
<text text-anchor="start" x="255" y="-323" font-family="Helvetica,sans-Serif" font-size="10.00">CNormalizeAudio::normalize</text>
<text text-anchor="middle" x="315.5" y="-312" font-family="Helvetica,sans-Serif" font-size="10.00">Block</text>
</a>
</g>
</g>
<!-- Node2&#45;&gt;Node27 -->
<g id="edge29" class="edge">
<title>Node2&#45;&gt;Node27</title>
<path fill="none" stroke="midnightblue" d="M193.16,-336.41C207.03,-334.53 222.12,-332.49 236.81,-330.5"/>
<polygon fill="midnightblue" stroke="midnightblue" points="237.45,-333.95 246.89,-329.14 236.51,-327.01 237.45,-333.95"/>
</g>
<!-- Node28 -->
<g id="node28" class="node">
<title>Node28</title>
<g id="a_node28"><a xlink:href="a00486.xhtml#a5a4d1830fe1344f0ac40d519690dafea" target="_top" xlink:title=" ">
<polygon fill="white" stroke="black" points="274.5,-479.5 274.5,-498.5 356.5,-498.5 356.5,-479.5 274.5,-479.5"/>
<text text-anchor="middle" x="315.5" y="-486.5" font-family="Helvetica,sans-Serif" font-size="10.00">CMatrix::setCol</text>
</a>
</g>
</g>
<!-- Node2&#45;&gt;Node28 -->
<g id="edge31" class="edge">
<title>Node2&#45;&gt;Node28</title>
<path fill="none" stroke="midnightblue" d="M142.1,-353.83C154.57,-376.85 188.88,-434.63 234,-465 243.17,-471.17 253.97,-475.79 264.62,-479.24"/>
<polygon fill="midnightblue" stroke="midnightblue" points="263.74,-482.63 274.32,-482.09 265.71,-475.91 263.74,-482.63"/>
</g>
<!-- Node4 -->
<g id="node4" class="node">
<title>Node4</title>
<g id="a_node4"><a xlink:href="a00502.xhtml#a6dbb3f9f480568b60f7fe50090d20003" target="_top" xlink:title=" ">
<polygon fill="white" stroke="black" points="622.5,-468.5 622.5,-487.5 711.5,-487.5 711.5,-468.5 622.5,-468.5"/>
<text text-anchor="middle" x="667" y="-475.5" font-family="Helvetica,sans-Serif" font-size="10.00">CVector::setZero</text>
</a>
</g>
</g>
<!-- Node3&#45;&gt;Node4 -->
<g id="edge3" class="edge">
<title>Node3&#45;&gt;Node4</title>
<path fill="none" stroke="midnightblue" d="M545.84,-506.9C567,-501.81 593.62,-495.41 616.42,-489.93"/>
<polygon fill="midnightblue" stroke="midnightblue" points="617.35,-493.3 626.26,-487.56 615.72,-486.49 617.35,-493.3"/>
</g>
<!-- Node5&#45;&gt;Node4 -->
<g id="edge10" class="edge">
<title>Node5&#45;&gt;Node4</title>
<path fill="none" stroke="midnightblue" d="M369.1,-382.75C379.04,-386.91 388.86,-392.23 397,-399 420.91,-418.88 406.58,-442.59 433,-459 487.02,-492.56 562.21,-492.15 612.41,-486.79"/>
<polygon fill="midnightblue" stroke="midnightblue" points="612.89,-490.26 622.42,-485.62 612.08,-483.3 612.89,-490.26"/>
</g>
<!-- Node6 -->
<g id="node6" class="node">
<title>Node6</title>
<g id="a_node6"><a xlink:href="a00470.xhtml#a7eea1378e1f161f7a69c4723405efa8a" target="_top" xlink:title=" ">
<polygon fill="white" stroke="black" points="452,-381 452,-411 562,-411 562,-381 452,-381"/>
<text text-anchor="start" x="460" y="-399" font-family="Helvetica,sans-Serif" font-size="10.00">CFeatureFromBlockIf</text>
<text text-anchor="middle" x="507" y="-388" font-family="Helvetica,sans-Serif" font-size="10.00">::compFeature</text>
</a>
</g>
</g>
<!-- Node5&#45;&gt;Node6 -->
<g id="edge5" class="edge">
<title>Node5&#45;&gt;Node6</title>
<path fill="none" stroke="midnightblue" d="M369.03,-376.49C391.56,-379.69 418.08,-383.47 441.76,-386.85"/>
<polygon fill="midnightblue" stroke="midnightblue" points="441.32,-390.32 451.71,-388.27 442.31,-383.39 441.32,-390.32"/>
</g>
<!-- Node7 -->
<g id="node7" class="node">
<title>Node7</title>
<g id="a_node7"><a xlink:href="a00502.xhtml#abdbcc3898121387f3694f74491b7331e" target="_top" xlink:title=" ">
<polygon fill="white" stroke="black" points="462,-342.5 462,-361.5 552,-361.5 552,-342.5 462,-342.5"/>
<text text-anchor="middle" x="507" y="-349.5" font-family="Helvetica,sans-Serif" font-size="10.00">CVector::getSum</text>
</a>
</g>
</g>
<!-- Node5&#45;&gt;Node7 -->
<g id="edge6" class="edge">
<title>Node5&#45;&gt;Node7</title>
<path fill="none" stroke="midnightblue" d="M369.03,-364.29C394.76,-361.98 425.7,-359.2 451.66,-356.88"/>
<polygon fill="midnightblue" stroke="midnightblue" points="452.06,-360.35 461.71,-355.97 451.43,-353.38 452.06,-360.35"/>
</g>
<!-- Node8 -->
<g id="node8" class="node">
<title>Node8</title>
<g id="a_node8"><a xlink:href="a00502.xhtml#a9811f50434dd058d201290b2dc98bfcd" target="_top" xlink:title=" ">
<polygon fill="white" stroke="black" points="463.5,-304.5 463.5,-323.5 550.5,-323.5 550.5,-304.5 463.5,-304.5"/>
<text text-anchor="middle" x="507" y="-311.5" font-family="Helvetica,sans-Serif" font-size="10.00">CVector::mulC_I</text>
</a>
</g>
</g>
<!-- Node5&#45;&gt;Node8 -->
<g id="edge7" class="edge">
<title>Node5&#45;&gt;Node8</title>
<path fill="none" stroke="midnightblue" d="M368.11,-353.88C377.73,-350.99 387.68,-347.94 397,-345 413.08,-339.92 416.83,-337.79 433,-333 440.86,-330.67 449.23,-328.35 457.4,-326.16"/>
<polygon fill="midnightblue" stroke="midnightblue" points="458.44,-329.51 467.22,-323.58 456.66,-322.74 458.44,-329.51"/>
</g>
<!-- Node9 -->
<g id="node9" class="node">
<title>Node9</title>
<g id="a_node9"><a xlink:href="a00486.xhtml#a05a5555eb9e7b63c5534cee3f525a03c" target="_top" xlink:title=" ">
<polygon fill="white" stroke="black" points="449,-430.5 449,-449.5 565,-449.5 565,-430.5 449,-430.5"/>
<text text-anchor="middle" x="507" y="-437.5" font-family="Helvetica,sans-Serif" font-size="10.00">CMatrix::mulMatColvec</text>
</a>
</g>
</g>
<!-- Node5&#45;&gt;Node9 -->
<g id="edge8" class="edge">
<title>Node5&#45;&gt;Node9</title>
<path fill="none" stroke="midnightblue" d="M361.43,-384.01C373.19,-388.41 385.73,-393.52 397,-399 413.86,-407.2 415.74,-413.67 433,-421 438.77,-423.45 444.94,-425.65 451.16,-427.61"/>
<polygon fill="midnightblue" stroke="midnightblue" points="450.33,-431.01 460.91,-430.48 452.31,-424.3 450.33,-431.01"/>
</g>
<!-- Node10 -->
<g id="node10" class="node">
<title>Node10</title>
<g id="a_node10"><a xlink:href="a00502.xhtml#a269d316eeb6000aac4f57ade32c83127" target="_top" xlink:title=" ">
<polygon fill="white" stroke="black" points="617,-430.5 617,-449.5 717,-449.5 717,-430.5 617,-430.5"/>
<text text-anchor="middle" x="667" y="-437.5" font-family="Helvetica,sans-Serif" font-size="10.00">CVector::mulScalar</text>
</a>
</g>
</g>
<!-- Node9&#45;&gt;Node10 -->
<g id="edge9" class="edge">
<title>Node9&#45;&gt;Node10</title>
<path fill="none" stroke="midnightblue" d="M565.04,-440C578.57,-440 593.02,-440 606.65,-440"/>
<polygon fill="midnightblue" stroke="midnightblue" points="606.87,-443.5 616.87,-440 606.87,-436.5 606.87,-443.5"/>
</g>
<!-- Node11&#45;&gt;Node8 -->
<g id="edge19" class="edge">
<title>Node11&#45;&gt;Node8</title>
<path fill="none" stroke="midnightblue" d="M364.32,-285.59C391.47,-291.03 425.49,-297.86 453.39,-303.45"/>
<polygon fill="midnightblue" stroke="midnightblue" points="452.88,-306.92 463.37,-305.45 454.25,-300.05 452.88,-306.92"/>
</g>
<!-- Node12 -->
<g id="node12" class="node">
<title>Node12</title>
<g id="a_node12"><a xlink:href="a00474.xhtml#ab5c17fe5c368048a3393818735dc9b8a" target="_top" xlink:title=" ">
<polygon fill="white" stroke="black" points="469,-228.5 469,-247.5 545,-247.5 545,-228.5 469,-228.5"/>
<text text-anchor="middle" x="507" y="-235.5" font-family="Helvetica,sans-Serif" font-size="10.00">CFft::compFft</text>
</a>
</g>
</g>
<!-- Node11&#45;&gt;Node12 -->
<g id="edge12" class="edge">
<title>Node11&#45;&gt;Node12</title>
<path fill="none" stroke="midnightblue" d="M364.32,-266.41C393.35,-260.59 430.25,-253.19 459.11,-247.4"/>
<polygon fill="midnightblue" stroke="midnightblue" points="459.84,-250.83 468.96,-245.43 458.46,-243.96 459.84,-250.83"/>
</g>
<!-- Node16 -->
<g id="node16" class="node">
<title>Node16</title>
<g id="a_node16"><a xlink:href="a00474.xhtml#a9cb162394031e8b496f7a39b51c31d20" target="_top" xlink:title=" ">
<polygon fill="white" stroke="black" points="465.5,-266.5 465.5,-285.5 548.5,-285.5 548.5,-266.5 465.5,-266.5"/>
<text text-anchor="middle" x="507" y="-273.5" font-family="Helvetica,sans-Serif" font-size="10.00">CFft::getLength</text>
</a>
</g>
</g>
<!-- Node11&#45;&gt;Node16 -->
<g id="edge17" class="edge">
<title>Node11&#45;&gt;Node16</title>
<path fill="none" stroke="midnightblue" d="M397.14,-276C416.84,-276 437.38,-276 455.24,-276"/>
<polygon fill="midnightblue" stroke="midnightblue" points="455.42,-279.5 465.42,-276 455.42,-272.5 455.42,-279.5"/>
</g>
<!-- Node17 -->
<g id="node17" class="node">
<title>Node17</title>
<g id="a_node17"><a xlink:href="a00474.xhtml#a48428f0ac37a3c112c9598c784771d4a" target="_top" xlink:title=" ">
<polygon fill="white" stroke="black" points="458,-190.5 458,-209.5 556,-209.5 556,-190.5 458,-190.5"/>
<text text-anchor="middle" x="507" y="-197.5" font-family="Helvetica,sans-Serif" font-size="10.00">CFft::getMagnitude</text>
</a>
</g>
</g>
<!-- Node11&#45;&gt;Node17 -->
<g id="edge18" class="edge">
<title>Node11&#45;&gt;Node17</title>
<path fill="none" stroke="midnightblue" d="M375.21,-266.4C382.81,-263.95 390.28,-260.87 397,-257 417.17,-245.4 412.97,-230.83 433,-219 437.72,-216.21 442.85,-213.83 448.13,-211.79"/>
<polygon fill="midnightblue" stroke="midnightblue" points="449.42,-215.05 457.74,-208.48 447.14,-208.43 449.42,-215.05"/>
</g>
<!-- Node12&#45;&gt;Node4 -->
<g id="edge16" class="edge">
<title>Node12&#45;&gt;Node4</title>
<path fill="none" stroke="midnightblue" d="M545.24,-239.64C558.24,-242.09 571.84,-247.1 581,-257 642.91,-323.96 559.05,-388.59 617,-459 617.98,-460.19 619.04,-461.3 620.17,-462.35"/>
<polygon fill="midnightblue" stroke="midnightblue" points="618.3,-465.31 628.47,-468.29 622.37,-459.62 618.3,-465.31"/>
</g>
<!-- Node13 -->
<g id="node13" class="node">
<title>Node13</title>
<g id="a_node13"><a xlink:href="a00502.xhtml#ad7c5cba73e439adac77778f61c9418f0" target="_top" xlink:title=" ">
<polygon fill="white" stroke="black" points="628.5,-184.5 628.5,-203.5 705.5,-203.5 705.5,-184.5 628.5,-184.5"/>
<text text-anchor="middle" x="667" y="-191.5" font-family="Helvetica,sans-Serif" font-size="10.00">CVector::copy</text>
</a>
</g>
</g>
<!-- Node12&#45;&gt;Node13 -->
<g id="edge13" class="edge">
<title>Node12&#45;&gt;Node13</title>
<path fill="none" stroke="midnightblue" d="M545.2,-228.56C556.7,-225.58 569.39,-222.22 581,-219 595.19,-215.07 610.66,-210.58 624.47,-206.5"/>
<polygon fill="midnightblue" stroke="midnightblue" points="625.59,-209.82 634.18,-203.62 623.6,-203.11 625.59,-209.82"/>
</g>
<!-- Node14 -->
<g id="node14" class="node">
<title>Node14</title>
<g id="a_node14"><a xlink:href="a00502.xhtml#a5fb59528a3f5d3968f988d550b270898" target="_top" xlink:title=" ">
<polygon fill="white" stroke="black" points="627,-272.5 627,-291.5 707,-291.5 707,-272.5 627,-272.5"/>
<text text-anchor="middle" x="667" y="-279.5" font-family="Helvetica,sans-Serif" font-size="10.00">CVector::mul_I</text>
</a>
</g>
</g>
<!-- Node12&#45;&gt;Node14 -->
<g id="edge14" class="edge">
<title>Node12&#45;&gt;Node14</title>
<path fill="none" stroke="midnightblue" d="M545.2,-247.44C556.7,-250.42 569.39,-253.78 581,-257 595.19,-260.93 610.66,-265.42 624.47,-269.5"/>
<polygon fill="midnightblue" stroke="midnightblue" points="623.6,-272.89 634.18,-272.38 625.59,-266.18 623.6,-272.89"/>
</g>
<!-- Node15 -->
<g id="node15" class="node">
<title>Node15</title>
<g id="a_node15"><a xlink:href="a00305.xhtml#a32fc71031e721d003fd1dc07f771351d" target="_top" xlink:title=" ">
<polygon fill="white" stroke="black" points="624,-223 624,-253 710,-253 710,-223 624,-223"/>
<text text-anchor="start" x="632" y="-241" font-family="Helvetica,sans-Serif" font-size="10.00">LaszloFft::realfft</text>
<text text-anchor="middle" x="667" y="-230" font-family="Helvetica,sans-Serif" font-size="10.00">_split</text>
</a>
</g>
</g>
<!-- Node12&#45;&gt;Node15 -->
<g id="edge15" class="edge">
<title>Node12&#45;&gt;Node15</title>
<path fill="none" stroke="midnightblue" d="M545.04,-238C565.53,-238 591.32,-238 613.82,-238"/>
<polygon fill="midnightblue" stroke="midnightblue" points="613.89,-241.5 623.89,-238 613.89,-234.5 613.89,-241.5"/>
</g>
<!-- Node19 -->
<g id="node19" class="node">
<title>Node19</title>
<g id="a_node19"><a xlink:href="a00630.xhtml#a2de11e7db06cbe9835e12708e4a16d71" target="_top" xlink:title=" ">
<polygon fill="white" stroke="black" points="434,-590.5 434,-609.5 580,-609.5 580,-590.5 434,-590.5"/>
<text text-anchor="middle" x="507" y="-597.5" font-family="Helvetica,sans-Serif" font-size="10.00">CViterbi::compLogLikelihood_</text>
</a>
</g>
</g>
<!-- Node18&#45;&gt;Node19 -->
<g id="edge21" class="edge">
<title>Node18&#45;&gt;Node19</title>
<path fill="none" stroke="midnightblue" d="M369.03,-602.17C385.95,-601.9 405.12,-601.6 423.64,-601.3"/>
<polygon fill="midnightblue" stroke="midnightblue" points="423.91,-604.8 433.85,-601.14 423.79,-597.8 423.91,-604.8"/>
</g>
<!-- Node20 -->
<g id="node20" class="node">
<title>Node20</title>
<g id="a_node20"><a xlink:href="a00630.xhtml#a8a7fbd879019db496d0ac6623387003c" target="_top" xlink:title=" ">
<polygon fill="white" stroke="black" points="442,-628.5 442,-647.5 572,-647.5 572,-628.5 442,-628.5"/>
<text text-anchor="middle" x="507" y="-635.5" font-family="Helvetica,sans-Serif" font-size="10.00">CViterbi::compProbability_</text>
</a>
</g>
</g>
<!-- Node18&#45;&gt;Node20 -->
<g id="edge22" class="edge">
<title>Node18&#45;&gt;Node20</title>
<path fill="none" stroke="midnightblue" d="M368.28,-612.56C391.78,-616.9 419.76,-622.07 444.34,-626.61"/>
<polygon fill="midnightblue" stroke="midnightblue" points="443.81,-630.07 454.28,-628.45 445.08,-623.19 443.81,-630.07"/>
</g>
<!-- Node21 -->
<g id="node21" class="node">
<title>Node21</title>
<g id="a_node21"><a xlink:href="a00502.xhtml#a4cf9544dd96801e3ee47fd1ef2049a1b" target="_top" xlink:title=" ">
<polygon fill="white" stroke="black" points="619.5,-628.5 619.5,-647.5 714.5,-647.5 714.5,-628.5 619.5,-628.5"/>
<text text-anchor="middle" x="667" y="-635.5" font-family="Helvetica,sans-Serif" font-size="10.00">CVector::setValue</text>
</a>
</g>
</g>
<!-- Node20&#45;&gt;Node21 -->
<g id="edge23" class="edge">
<title>Node20&#45;&gt;Node21</title>
<path fill="none" stroke="midnightblue" d="M572.26,-638C584.42,-638 597.06,-638 608.98,-638"/>
<polygon fill="midnightblue" stroke="midnightblue" points="609.24,-641.5 619.24,-638 609.24,-634.5 609.24,-641.5"/>
</g>
<!-- Node27&#45;&gt;Node8 -->
<g id="edge30" class="edge">
<title>Node27&#45;&gt;Node8</title>
<path fill="none" stroke="midnightblue" d="M384.11,-317.86C406.76,-317.14 431.68,-316.35 453.05,-315.68"/>
<polygon fill="midnightblue" stroke="midnightblue" points="453.34,-319.17 463.23,-315.35 453.12,-312.17 453.34,-319.17"/>
</g>
<!-- Node30 -->
<g id="node30" class="node">
<title>Node30</title>
<g id="a_node30"><a xlink:href="a00498.xhtml#a6d0e75b0bcbbb243b7141cfc0126e443" target="_top" xlink:title=" ">
<polygon fill="white" stroke="black" points="272.5,-114.5 272.5,-133.5 358.5,-133.5 358.5,-114.5 272.5,-114.5"/>
<text text-anchor="middle" x="315.5" y="-121.5" font-family="Helvetica,sans-Serif" font-size="10.00">CUtil::isPowOf2</text>
</a>
</g>
</g>
<!-- Node29&#45;&gt;Node30 -->
<g id="edge33" class="edge">
<title>Node29&#45;&gt;Node30</title>
<path fill="none" stroke="midnightblue" d="M177.98,-190.42C184.94,-187.91 191.88,-184.81 198,-181 217.75,-168.7 213.83,-154.6 234,-143 242.68,-138.01 252.61,-134.32 262.46,-131.61"/>
<polygon fill="midnightblue" stroke="midnightblue" points="263.36,-134.99 272.23,-129.2 261.68,-128.19 263.36,-134.99"/>
</g>
<!-- Node34 -->
<g id="node34" class="node">
<title>Node34</title>
<g id="a_node34"><a xlink:href="a00454.xhtml#a2c48f69f930e943cc5dbeaa8ca9e9e72" target="_top" xlink:title=" ">
<polygon fill="white" stroke="black" points="253.5,-555.5 253.5,-574.5 377.5,-574.5 377.5,-555.5 253.5,-555.5"/>
<text text-anchor="middle" x="315.5" y="-562.5" font-family="Helvetica,sans-Serif" font-size="10.00">CChordIf::getNumBlocks</text>
</a>
</g>
</g>
<!-- Node33&#45;&gt;Node34 -->
<g id="edge37" class="edge">
<title>Node33&#45;&gt;Node34</title>
<path fill="none" stroke="midnightblue" d="M149.13,-494.5C166.82,-507.9 201.15,-532.25 234,-546 239.91,-548.48 246.21,-550.66 252.57,-552.59"/>
<polygon fill="midnightblue" stroke="midnightblue" points="252.02,-556.07 262.59,-555.41 253.92,-549.33 252.02,-556.07"/>
</g>
<!-- Node34&#45;&gt;Node25 -->
<g id="edge38" class="edge">
<title>Node34&#45;&gt;Node25</title>
<path fill="none" stroke="midnightblue" d="M377.5,-563.07C391.83,-562.61 407.35,-562.12 422.47,-561.64"/>
<polygon fill="midnightblue" stroke="midnightblue" points="422.98,-565.13 432.86,-561.32 422.76,-558.13 422.98,-565.13"/>
</g>
<!-- Node36 -->
<g id="node36" class="node">
<title>Node36</title>
<g id="a_node36"><a xlink:href="a00542.xhtml#a95d0310c888433e7e45806538dc0d347" target="_top" xlink:title=" ">
<polygon fill="white" stroke="black" points="242,-76.5 242,-95.5 389,-95.5 389,-76.5 242,-76.5"/>
<text text-anchor="middle" x="315.5" y="-83.5" font-family="Helvetica,sans-Serif" font-size="10.00">CBlockAudioIf::getTimeStamp</text>
</a>
</g>
</g>
<!-- Node35&#45;&gt;Node36 -->
<g id="edge40" class="edge">
<title>Node35&#45;&gt;Node36</title>
<path fill="none" stroke="midnightblue" d="M197.59,-86C208.62,-86 220.3,-86 231.84,-86"/>
<polygon fill="midnightblue" stroke="midnightblue" points="231.92,-89.5 241.92,-86 231.92,-82.5 231.92,-89.5"/>
</g>
<!-- Node38 -->
<g id="node38" class="node">
<title>Node38</title>
<g id="a_node38"><a xlink:href="a00122.xhtml#a352c17bde18dd0d9c3989f6050b060b0" target="_top" xlink:title=" ">
<polygon fill="white" stroke="black" points="271,-38.5 271,-57.5 360,-57.5 360,-38.5 271,-38.5"/>
<text text-anchor="middle" x="315.5" y="-45.5" font-family="Helvetica,sans-Serif" font-size="10.00">getAcaBuildDate</text>
</a>
</g>
</g>
<!-- Node37&#45;&gt;Node38 -->
<g id="edge42" class="edge">
<title>Node37&#45;&gt;Node38</title>
<path fill="none" stroke="midnightblue" d="M168.73,-48C194.16,-48 230.4,-48 260.39,-48"/>
<polygon fill="midnightblue" stroke="midnightblue" points="260.71,-51.5 270.71,-48 260.71,-44.5 260.71,-51.5"/>
</g>
<!-- Node39 -->
<g id="node39" class="node">
<title>Node39</title>
<g id="a_node39"><a xlink:href="a00122.xhtml#aeca12b465ae15d8b8e775e1b0cfec9f3" target="_top" xlink:title=" ">
<polygon fill="white" stroke="black" points="275.5,-0.5 275.5,-19.5 355.5,-19.5 355.5,-0.5 275.5,-0.5"/>
<text text-anchor="middle" x="315.5" y="-7.5" font-family="Helvetica,sans-Serif" font-size="10.00">getAcaVersion</text>
</a>
</g>
</g>
<!-- Node37&#45;&gt;Node39 -->
<g id="edge43" class="edge">
<title>Node37&#45;&gt;Node39</title>
<path fill="none" stroke="midnightblue" d="M168.73,-41.21C195.52,-35.47 234.33,-27.16 265.16,-20.56"/>
<polygon fill="midnightblue" stroke="midnightblue" points="266.24,-23.91 275.29,-18.39 264.78,-17.07 266.24,-23.91"/>
</g>
</g>
</svg>
