<?xml version="1.0" encoding="UTF-8" standalone="no"?>
<!DOCTYPE svg PUBLIC "-//W3C//DTD SVG 1.1//EN"
 "http://www.w3.org/Graphics/SVG/1.1/DTD/svg11.dtd">
<!-- Generated by graphviz version 12.2.1 (20241206.2353)
 -->
<!-- Title: Fft.cpp Pages: 1 -->
<svg width="384pt" height="248pt"
 viewBox="0.00 0.00 383.50 248.25" xmlns="http://www.w3.org/2000/svg" xmlns:xlink="http://www.w3.org/1999/xlink">
<g id="graph0" class="graph" transform="scale(1 1) rotate(0) translate(4 244.25)">
<title>Fft.cpp</title>
<!-- Node1 -->
<g id="Node000001" class="node">
<title>Node1</title>
<g id="a_Node000001"><a xlink:title=" ">
<polygon fill="#999999" stroke="#666666" points="292.5,-240.25 246.5,-240.25 246.5,-221 292.5,-221 292.5,-240.25"/>
<text text-anchor="middle" x="269.5" y="-226.75" font-family="Helvetica,sans-Serif" font-size="10.00">Fft.cpp</text>
</a>
</g>
</g>
<!-- Node2 -->
<g id="Node000002" class="node">
<title>Node2</title>
<g id="a_Node000002"><a xlink:title=" ">
<polygon fill="#e0e0e0" stroke="#999999" points="43,-74.5 0,-74.5 0,-55.25 43,-55.25 43,-74.5"/>
<text text-anchor="middle" x="21.5" y="-61" font-family="Helvetica,sans-Serif" font-size="10.00">cmath</text>
</a>
</g>
</g>
<!-- Node1&#45;&gt;Node2 -->
<g id="edge1_Node000001_Node000002" class="edge">
<title>Node1&#45;&gt;Node2</title>
<g id="a_edge1_Node000001_Node000002"><a xlink:title=" ">
<path fill="none" stroke="#63b8ff" d="M246.09,-226.45C213.21,-221.29 152.15,-209.14 105.5,-185 71.22,-167.26 59.35,-162.23 38.5,-129.75 30.04,-116.58 25.77,-99.31 23.63,-86.05"/>
<polygon fill="#63b8ff" stroke="#63b8ff" points="27.12,-85.79 22.35,-76.33 20.18,-86.7 27.12,-85.79"/>
</a>
</g>
</g>
<!-- Node3 -->
<g id="Node000003" class="node">
<title>Node3</title>
<g id="a_Node000003"><a xlink:href="a00191.xhtml" target="_top" xlink:title=" ">
<polygon fill="white" stroke="#666666" points="238.75,-74.5 200.25,-74.5 200.25,-55.25 238.75,-55.25 238.75,-74.5"/>
<text text-anchor="middle" x="219.5" y="-61" font-family="Helvetica,sans-Serif" font-size="10.00">Util.h</text>
</a>
</g>
</g>
<!-- Node1&#45;&gt;Node3 -->
<g id="edge2_Node000001_Node000003" class="edge">
<title>Node1&#45;&gt;Node3</title>
<g id="a_edge2_Node000001_Node000003"><a xlink:title=" ">
<path fill="none" stroke="#63b8ff" d="M266.81,-220.82C259.05,-195.39 236.44,-121.35 225.53,-85.62"/>
<polygon fill="#63b8ff" stroke="#63b8ff" points="228.91,-84.71 222.64,-76.17 222.22,-86.76 228.91,-84.71"/>
</a>
</g>
</g>
<!-- Node7 -->
<g id="Node000007" class="node">
<title>Node7</title>
<g id="a_Node000007"><a xlink:href="a00185.xhtml" target="_top" xlink:title=" ">
<polygon fill="white" stroke="#666666" points="166.5,-185 114.5,-185 114.5,-165.75 166.5,-165.75 166.5,-185"/>
<text text-anchor="middle" x="140.5" y="-171.5" font-family="Helvetica,sans-Serif" font-size="10.00">Vector.h</text>
</a>
</g>
</g>
<!-- Node1&#45;&gt;Node7 -->
<g id="edge6_Node000001_Node000007" class="edge">
<title>Node1&#45;&gt;Node7</title>
<g id="a_edge6_Node000001_Node000007"><a xlink:title=" ">
<path fill="none" stroke="#63b8ff" d="M247.62,-220.59C227.14,-212.14 196.29,-199.4 172.94,-189.77"/>
<polygon fill="#63b8ff" stroke="#63b8ff" points="174.47,-186.61 163.89,-186.03 171.8,-193.08 174.47,-186.61"/>
</a>
</g>
</g>
<!-- Node11 -->
<g id="Node000011" class="node">
<title>Node11</title>
<g id="a_Node000011"><a xlink:href="a00200.xhtml" target="_top" xlink:title=" ">
<polygon fill="white" stroke="#666666" points="333.25,-129.75 297.75,-129.75 297.75,-110.5 333.25,-110.5 333.25,-129.75"/>
<text text-anchor="middle" x="315.5" y="-116.25" font-family="Helvetica,sans-Serif" font-size="10.00">Fft.h</text>
</a>
</g>
</g>
<!-- Node1&#45;&gt;Node11 -->
<g id="edge16_Node000001_Node000011" class="edge">
<title>Node1&#45;&gt;Node11</title>
<g id="a_edge16_Node000001_Node000011"><a xlink:title=" ">
<path fill="none" stroke="#63b8ff" d="M273.26,-220.75C280.64,-203.34 297.16,-164.37 307.22,-140.66"/>
<polygon fill="#63b8ff" stroke="#63b8ff" points="310.41,-142.09 311.09,-131.52 303.97,-139.36 310.41,-142.09"/>
</a>
</g>
</g>
<!-- Node12 -->
<g id="Node000012" class="node">
<title>Node12</title>
<g id="a_Node000012"><a xlink:href="a00302.xhtml" target="_top" xlink:title=" ">
<polygon fill="white" stroke="#666666" points="375.5,-185 335.5,-185 335.5,-165.75 375.5,-165.75 375.5,-185"/>
<text text-anchor="middle" x="355.5" y="-171.5" font-family="Helvetica,sans-Serif" font-size="10.00">rvfft.h</text>
</a>
</g>
</g>
<!-- Node1&#45;&gt;Node12 -->
<g id="edge18_Node000001_Node000012" class="edge">
<title>Node1&#45;&gt;Node12</title>
<g id="a_edge18_Node000001_Node000012"><a xlink:title=" ">
<path fill="none" stroke="#63b8ff" d="M284.09,-220.59C296.94,-212.64 315.91,-200.89 331.07,-191.5"/>
<polygon fill="#63b8ff" stroke="#63b8ff" points="332.89,-194.49 339.55,-186.25 329.21,-188.54 332.89,-194.49"/>
</a>
</g>
</g>
<!-- Node4 -->
<g id="Node000004" class="node">
<title>Node4</title>
<g id="a_Node000004"><a xlink:title=" ">
<polygon fill="#e0e0e0" stroke="#999999" points="135.62,-19.25 87.38,-19.25 87.38,0 135.62,0 135.62,-19.25"/>
<text text-anchor="middle" x="111.5" y="-5.75" font-family="Helvetica,sans-Serif" font-size="10.00">cassert</text>
</a>
</g>
</g>
<!-- Node3&#45;&gt;Node4 -->
<g id="edge3_Node000003_Node000004" class="edge">
<title>Node3&#45;&gt;Node4</title>
<g id="a_edge3_Node000003_Node000004"><a xlink:title=" ">
<path fill="none" stroke="#63b8ff" d="M201.18,-54.84C184.42,-46.58 159.37,-34.23 140,-24.68"/>
<polygon fill="#63b8ff" stroke="#63b8ff" points="141.78,-21.65 131.27,-20.37 138.69,-27.93 141.78,-21.65"/>
</a>
</g>
</g>
<!-- Node5 -->
<g id="Node000005" class="node">
<title>Node5</title>
<g id="a_Node000005"><a xlink:title=" ">
<polygon fill="#e0e0e0" stroke="#999999" points="275.12,-19.25 229.88,-19.25 229.88,0 275.12,0 275.12,-19.25"/>
<text text-anchor="middle" x="252.5" y="-5.75" font-family="Helvetica,sans-Serif" font-size="10.00">cstring</text>
</a>
</g>
</g>
<!-- Node3&#45;&gt;Node5 -->
<g id="edge4_Node000003_Node000005" class="edge">
<title>Node3&#45;&gt;Node5</title>
<g id="a_edge4_Node000003_Node000005"><a xlink:title=" ">
<path fill="none" stroke="#63b8ff" d="M224.95,-55.08C229.27,-48.11 235.46,-38.12 240.88,-29.37"/>
<polygon fill="#63b8ff" stroke="#63b8ff" points="243.84,-31.24 246.14,-20.9 237.89,-27.55 243.84,-31.24"/>
</a>
</g>
</g>
<!-- Node6 -->
<g id="Node000006" class="node">
<title>Node6</title>
<g id="a_Node000006"><a xlink:title=" ">
<polygon fill="#e0e0e0" stroke="#999999" points="206.12,-19.25 166.88,-19.25 166.88,0 206.12,0 206.12,-19.25"/>
<text text-anchor="middle" x="186.5" y="-5.75" font-family="Helvetica,sans-Serif" font-size="10.00">limits</text>
</a>
</g>
</g>
<!-- Node3&#45;&gt;Node6 -->
<g id="edge5_Node000003_Node000006" class="edge">
<title>Node3&#45;&gt;Node6</title>
<g id="a_edge5_Node000003_Node000006"><a xlink:title=" ">
<path fill="none" stroke="#63b8ff" d="M214.05,-55.08C209.73,-48.11 203.54,-38.12 198.12,-29.37"/>
<polygon fill="#63b8ff" stroke="#63b8ff" points="201.11,-27.55 192.86,-20.9 195.16,-31.24 201.11,-27.55"/>
</a>
</g>
</g>
<!-- Node7&#45;&gt;Node2 -->
<g id="edge10_Node000007_Node000002" class="edge">
<title>Node7&#45;&gt;Node2</title>
<g id="a_edge10_Node000007_Node000002"><a xlink:title=" ">
<path fill="none" stroke="#63b8ff" d="M115.65,-165.38C97.81,-157.96 74.09,-146.01 57.5,-129.75 44.57,-117.08 34.9,-98.78 28.86,-85.01"/>
<polygon fill="#63b8ff" stroke="#63b8ff" points="32.25,-84.06 25.21,-76.14 25.77,-86.72 32.25,-84.06"/>
</a>
</g>
</g>
<!-- Node7&#45;&gt;Node4 -->
<g id="edge7_Node000007_Node000004" class="edge">
<title>Node7&#45;&gt;Node4</title>
<g id="a_edge7_Node000007_Node000004"><a xlink:title=" ">
<path fill="none" stroke="#63b8ff" d="M126.57,-165.28C115.82,-157.35 101.76,-144.78 95.5,-129.75 81.71,-96.64 93.65,-54.29 102.98,-30.04"/>
<polygon fill="#63b8ff" stroke="#63b8ff" points="106.09,-31.68 106.66,-21.1 99.62,-29.02 106.09,-31.68"/>
</a>
</g>
</g>
<!-- Node7&#45;&gt;Node5 -->
<g id="edge8_Node000007_Node000005" class="edge">
<title>Node7&#45;&gt;Node5</title>
<g id="a_edge8_Node000007_Node000005"><a xlink:title=" ">
<path fill="none" stroke="#63b8ff" d="M163.78,-165.25C209.1,-146.96 306.38,-104.95 324.5,-74.5 337.36,-52.89 310.21,-34.61 285.66,-23.22"/>
<polygon fill="#63b8ff" stroke="#63b8ff" points="287.37,-20.14 276.8,-19.37 284.58,-26.56 287.37,-20.14"/>
</a>
</g>
</g>
<!-- Node7&#45;&gt;Node6 -->
<g id="edge9_Node000007_Node000006" class="edge">
<title>Node7&#45;&gt;Node6</title>
<g id="a_edge9_Node000007_Node000006"><a xlink:title=" ">
<path fill="none" stroke="#63b8ff" d="M136.52,-165.43C127.97,-144.79 110.05,-92.73 128.5,-55.25 134.66,-42.73 146.21,-32.74 157.39,-25.41"/>
<polygon fill="#63b8ff" stroke="#63b8ff" points="158.91,-28.59 165.68,-20.44 155.31,-22.58 158.91,-28.59"/>
</a>
</g>
</g>
<!-- Node8 -->
<g id="Node000008" class="node">
<title>Node8</title>
<g id="a_Node000008"><a xlink:href="a00194.xhtml" target="_top" xlink:title=" ">
<polygon fill="white" stroke="#666666" points="203.62,-129.75 137.38,-129.75 137.38,-110.5 203.62,-110.5 203.62,-129.75"/>
<text text-anchor="middle" x="170.5" y="-116.25" font-family="Helvetica,sans-Serif" font-size="10.00">Synthesis.h</text>
</a>
</g>
</g>
<!-- Node7&#45;&gt;Node8 -->
<g id="edge11_Node000007_Node000008" class="edge">
<title>Node7&#45;&gt;Node8</title>
<g id="a_edge11_Node000007_Node000008"><a xlink:title=" ">
<path fill="none" stroke="#63b8ff" d="M145.45,-165.58C149.38,-158.61 155.01,-148.62 159.94,-139.87"/>
<polygon fill="#63b8ff" stroke="#63b8ff" points="162.84,-141.86 164.7,-131.43 156.74,-138.42 162.84,-141.86"/>
</a>
</g>
</g>
<!-- Node8&#45;&gt;Node2 -->
<g id="edge12_Node000008_Node000002" class="edge">
<title>Node8&#45;&gt;Node2</title>
<g id="a_edge12_Node000008_Node000002"><a xlink:title=" ">
<path fill="none" stroke="#63b8ff" d="M145.22,-110.09C120.12,-101.12 81.52,-87.33 54.12,-77.53"/>
<polygon fill="#63b8ff" stroke="#63b8ff" points="55.52,-74.31 44.92,-74.25 53.16,-80.91 55.52,-74.31"/>
</a>
</g>
</g>
<!-- Node8&#45;&gt;Node3 -->
<g id="edge15_Node000008_Node000003" class="edge">
<title>Node8&#45;&gt;Node3</title>
<g id="a_edge15_Node000008_Node000003"><a xlink:title=" ">
<path fill="none" stroke="#63b8ff" d="M178.59,-110.33C185.36,-102.98 195.22,-92.26 203.56,-83.19"/>
<polygon fill="#63b8ff" stroke="#63b8ff" points="206.01,-85.7 210.21,-75.97 200.86,-80.96 206.01,-85.7"/>
</a>
</g>
</g>
<!-- Node9 -->
<g id="Node000009" class="node">
<title>Node9</title>
<g id="a_Node000009"><a xlink:title=" ">
<polygon fill="#e0e0e0" stroke="#999999" points="181.75,-74.5 137.25,-74.5 137.25,-55.25 181.75,-55.25 181.75,-74.5"/>
<text text-anchor="middle" x="159.5" y="-61" font-family="Helvetica,sans-Serif" font-size="10.00">cstdlib</text>
</a>
</g>
</g>
<!-- Node8&#45;&gt;Node9 -->
<g id="edge13_Node000008_Node000009" class="edge">
<title>Node8&#45;&gt;Node9</title>
<g id="a_edge13_Node000008_Node000009"><a xlink:title=" ">
<path fill="none" stroke="#63b8ff" d="M168.68,-110.33C167.32,-103.74 165.4,-94.46 163.67,-86.07"/>
<polygon fill="#63b8ff" stroke="#63b8ff" points="167.11,-85.43 161.66,-76.34 160.26,-86.84 167.11,-85.43"/>
</a>
</g>
</g>
<!-- Node10 -->
<g id="Node000010" class="node">
<title>Node10</title>
<g id="a_Node000010"><a xlink:href="a00167.xhtml" target="_top" xlink:title=" ">
<polygon fill="white" stroke="#666666" points="315.88,-74.5 257.12,-74.5 257.12,-55.25 315.88,-55.25 315.88,-74.5"/>
<text text-anchor="middle" x="286.5" y="-61" font-family="Helvetica,sans-Serif" font-size="10.00">ErrorDef.h</text>
</a>
</g>
</g>
<!-- Node8&#45;&gt;Node10 -->
<g id="edge14_Node000008_Node000010" class="edge">
<title>Node8&#45;&gt;Node10</title>
<g id="a_edge14_Node000008_Node000010"><a xlink:title=" ">
<path fill="none" stroke="#63b8ff" d="M190.18,-110.09C208.34,-101.75 235.58,-89.25 256.47,-79.66"/>
<polygon fill="#63b8ff" stroke="#63b8ff" points="257.72,-82.94 265.35,-75.58 254.8,-76.58 257.72,-82.94"/>
</a>
</g>
</g>
<!-- Node11&#45;&gt;Node10 -->
<g id="edge17_Node000011_Node000010" class="edge">
<title>Node11&#45;&gt;Node10</title>
<g id="a_edge17_Node000011_Node000010"><a xlink:title=" ">
<path fill="none" stroke="#63b8ff" d="M310.71,-110.33C306.96,-103.44 301.59,-93.59 296.87,-84.91"/>
<polygon fill="#63b8ff" stroke="#63b8ff" points="299.97,-83.3 292.12,-76.19 293.83,-86.64 299.97,-83.3"/>
</a>
</g>
</g>
</g>
</svg>
