<?xml version="1.0" encoding="UTF-8" standalone="no"?>
<!DOCTYPE svg PUBLIC "-//W3C//DTD SVG 1.1//EN"
 "http://www.w3.org/Graphics/SVG/1.1/DTD/svg11.dtd">
<!-- Generated by graphviz version 6.0.1 (20220911.1526)
 -->
<!-- Title: ToolGammatone.cpp Pages: 1 -->
<svg width="869pt" height="357pt"
 viewBox="0.00 0.00 869.00 357.00" xmlns="http://www.w3.org/2000/svg" xmlns:xlink="http://www.w3.org/1999/xlink">
<g id="graph0" class="graph" transform="scale(1 1) rotate(0) translate(4 353)">
<title>ToolGammatone.cpp</title>
<!-- Node1 -->
<g id="node1" class="node">
<title>Node1</title>
<g id="a_node1"><a xlink:title=" ">
<polygon fill="#999999" stroke="#666666" points="656.5,-349 549.5,-349 549.5,-330 656.5,-330 656.5,-349"/>
<text text-anchor="middle" x="603" y="-337" font-family="Helvetica,sans-Serif" font-size="10.00">ToolGammatone.cpp</text>
</a>
</g>
</g>
<!-- Node2 -->
<g id="node2" class="node">
<title>Node2</title>
<g id="a_node2"><a xlink:title=" ">
<polygon fill="#e0e0e0" stroke="#999999" points="134,-74 90,-74 90,-55 134,-55 134,-74"/>
<text text-anchor="middle" x="112" y="-62" font-family="Helvetica,sans-Serif" font-size="10.00">cmath</text>
</a>
</g>
</g>
<!-- Node1&#45;&gt;Node2 -->
<g id="edge1" class="edge">
<title>Node1&#45;&gt;Node2</title>
<path fill="none" stroke="#63b8ff" d="M549.49,-334.53C401.91,-322.89 0,-286.07 0,-230.5 0,-230.5 0,-230.5 0,-173.5 0,-127.77 48.98,-95.29 82.16,-78.54"/>
<polygon fill="#63b8ff" stroke="#63b8ff" points="83.98,-81.54 91.46,-74.04 80.93,-75.24 83.98,-81.54"/>
</g>
<!-- Node3 -->
<g id="node3" class="node">
<title>Node3</title>
<g id="a_node3"><a xlink:title=" ">
<polygon fill="#e0e0e0" stroke="#999999" points="860.5,-294 807.5,-294 807.5,-275 860.5,-275 860.5,-294"/>
<text text-anchor="middle" x="834" y="-282" font-family="Helvetica,sans-Serif" font-size="10.00">complex</text>
</a>
</g>
</g>
<!-- Node1&#45;&gt;Node3 -->
<g id="edge2" class="edge">
<title>Node1&#45;&gt;Node3</title>
<path fill="none" stroke="#63b8ff" d="M640.11,-329.98C683.45,-320.04 754.65,-303.71 797.65,-293.84"/>
<polygon fill="#63b8ff" stroke="#63b8ff" points="798.45,-297.25 807.42,-291.6 796.89,-290.42 798.45,-297.25"/>
</g>
<!-- Node4 -->
<g id="node4" class="node">
<title>Node4</title>
<g id="a_node4"><a xlink:href="a00212.xhtml" target="_top" xlink:title=" ">
<polygon fill="white" stroke="#666666" points="636.5,-239 565.5,-239 565.5,-220 636.5,-220 636.5,-239"/>
<text text-anchor="middle" x="601" y="-227" font-family="Helvetica,sans-Serif" font-size="10.00">AudioFileIf.h</text>
</a>
</g>
</g>
<!-- Node1&#45;&gt;Node4 -->
<g id="edge3" class="edge">
<title>Node1&#45;&gt;Node4</title>
<path fill="none" stroke="#63b8ff" d="M602.84,-329.66C602.51,-312.17 601.78,-272.8 601.35,-249.27"/>
<polygon fill="#63b8ff" stroke="#63b8ff" points="604.84,-249.09 601.16,-239.16 597.85,-249.22 604.84,-249.09"/>
</g>
<!-- Node9 -->
<g id="node9" class="node">
<title>Node9</title>
<g id="a_node9"><a xlink:href="a00191.xhtml" target="_top" xlink:title=" ">
<polygon fill="white" stroke="#666666" points="393,-294 347,-294 347,-275 393,-275 393,-294"/>
<text text-anchor="middle" x="370" y="-282" font-family="Helvetica,sans-Serif" font-size="10.00">Filter.h</text>
</a>
</g>
</g>
<!-- Node1&#45;&gt;Node9 -->
<g id="edge8" class="edge">
<title>Node1&#45;&gt;Node9</title>
<path fill="none" stroke="#63b8ff" d="M565.56,-329.98C520.64,-319.77 446.02,-302.79 403.12,-293.03"/>
<polygon fill="#63b8ff" stroke="#63b8ff" points="403.71,-289.58 393.18,-290.77 402.16,-296.4 403.71,-289.58"/>
</g>
<!-- Node19 -->
<g id="node19" class="node">
<title>Node19</title>
<g id="a_node19"><a xlink:href="a00137.xhtml" target="_top" xlink:title=" ">
<polygon fill="white" stroke="#666666" points="575,-294 497,-294 497,-275 575,-275 575,-294"/>
<text text-anchor="middle" x="536" y="-282" font-family="Helvetica,sans-Serif" font-size="10.00">ToolPreProc.h</text>
</a>
</g>
</g>
<!-- Node1&#45;&gt;Node19 -->
<g id="edge33" class="edge">
<title>Node1&#45;&gt;Node19</title>
<path fill="none" stroke="#63b8ff" d="M592.24,-329.98C582.23,-322.07 567.11,-310.11 555.07,-300.58"/>
<polygon fill="#63b8ff" stroke="#63b8ff" points="556.97,-297.63 546.96,-294.17 552.63,-303.12 556.97,-297.63"/>
</g>
<!-- Node20 -->
<g id="node20" class="node">
<title>Node20</title>
<g id="a_node20"><a xlink:href="a00161.xhtml" target="_top" xlink:title=" ">
<polygon fill="white" stroke="#666666" points="861,-129 769,-129 769,-110 861,-110 861,-129"/>
<text text-anchor="middle" x="815" y="-117" font-family="Helvetica,sans-Serif" font-size="10.00">ToolBlockAudio.h</text>
</a>
</g>
</g>
<!-- Node1&#45;&gt;Node20 -->
<g id="edge38" class="edge">
<title>Node1&#45;&gt;Node20</title>
<path fill="none" stroke="#63b8ff" d="M623.98,-329.91C656.86,-315.51 720.84,-283.63 760,-239 786.45,-208.85 802.6,-163.81 810.06,-138.84"/>
<polygon fill="#63b8ff" stroke="#63b8ff" points="813.44,-139.76 812.81,-129.18 806.71,-137.85 813.44,-139.76"/>
</g>
<!-- Node21 -->
<g id="node21" class="node">
<title>Node21</title>
<g id="a_node21"><a xlink:href="a00221.xhtml" target="_top" xlink:title=" ">
<polygon fill="white" stroke="#666666" points="751,-239 655,-239 655,-220 751,-220 751,-239"/>
<text text-anchor="middle" x="703" y="-227" font-family="Helvetica,sans-Serif" font-size="10.00">ToolGammatone.h</text>
</a>
</g>
</g>
<!-- Node1&#45;&gt;Node21 -->
<g id="edge40" class="edge">
<title>Node1&#45;&gt;Node21</title>
<path fill="none" stroke="#63b8ff" d="M611.18,-329.66C627.97,-311.54 666.51,-269.91 687.93,-246.77"/>
<polygon fill="#63b8ff" stroke="#63b8ff" points="690.76,-248.87 694.98,-239.16 685.62,-244.12 690.76,-248.87"/>
</g>
<!-- Node5 -->
<g id="node5" class="node">
<title>Node5</title>
<g id="a_node5"><a xlink:title=" ">
<polygon fill="#e0e0e0" stroke="#999999" points="712.5,-184 671.5,-184 671.5,-165 712.5,-165 712.5,-184"/>
<text text-anchor="middle" x="692" y="-172" font-family="Helvetica,sans-Serif" font-size="10.00">string</text>
</a>
</g>
</g>
<!-- Node4&#45;&gt;Node5 -->
<g id="edge4" class="edge">
<title>Node4&#45;&gt;Node5</title>
<path fill="none" stroke="#63b8ff" d="M615.62,-219.98C629.86,-211.69 651.75,-198.94 668.45,-189.22"/>
<polygon fill="#63b8ff" stroke="#63b8ff" points="670.23,-192.23 677.11,-184.17 666.71,-186.18 670.23,-192.23"/>
</g>
<!-- Node6 -->
<g id="node6" class="node">
<title>Node6</title>
<g id="a_node6"><a xlink:title=" ">
<polygon fill="#e0e0e0" stroke="#999999" points="615,-184 565,-184 565,-165 615,-165 615,-184"/>
<text text-anchor="middle" x="590" y="-172" font-family="Helvetica,sans-Serif" font-size="10.00">fstream</text>
</a>
</g>
</g>
<!-- Node4&#45;&gt;Node6 -->
<g id="edge5" class="edge">
<title>Node4&#45;&gt;Node6</title>
<path fill="none" stroke="#63b8ff" d="M599.18,-219.75C597.74,-212.8 595.68,-202.85 593.87,-194.13"/>
<polygon fill="#63b8ff" stroke="#63b8ff" points="597.24,-193.17 591.78,-184.09 590.39,-194.59 597.24,-193.17"/>
</g>
<!-- Node7 -->
<g id="node7" class="node">
<title>Node7</title>
<g id="a_node7"><a xlink:title=" ">
<polygon fill="#e0e0e0" stroke="#999999" points="471,-184 415,-184 415,-165 471,-165 471,-184"/>
<text text-anchor="middle" x="443" y="-172" font-family="Helvetica,sans-Serif" font-size="10.00">algorithm</text>
</a>
</g>
</g>
<!-- Node4&#45;&gt;Node7 -->
<g id="edge6" class="edge">
<title>Node4&#45;&gt;Node7</title>
<path fill="none" stroke="#63b8ff" d="M575.61,-219.98C549.2,-211.13 507.65,-197.19 478.11,-187.28"/>
<polygon fill="#63b8ff" stroke="#63b8ff" points="479.18,-183.94 468.58,-184.08 476.95,-190.58 479.18,-183.94"/>
</g>
<!-- Node8 -->
<g id="node8" class="node">
<title>Node8</title>
<g id="a_node8"><a xlink:href="a00158.xhtml" target="_top" xlink:title=" ">
<polygon fill="white" stroke="#666666" points="672.5,-74 613.5,-74 613.5,-55 672.5,-55 672.5,-74"/>
<text text-anchor="middle" x="643" y="-62" font-family="Helvetica,sans-Serif" font-size="10.00">ErrorDef.h</text>
</a>
</g>
</g>
<!-- Node4&#45;&gt;Node8 -->
<g id="edge7" class="edge">
<title>Node4&#45;&gt;Node8</title>
<path fill="none" stroke="#63b8ff" d="M606.44,-220C611.75,-211.3 619.65,-197.22 624,-184 635.25,-149.81 639.97,-107.81 641.85,-84.1"/>
<polygon fill="#63b8ff" stroke="#63b8ff" points="645.35,-84.27 642.56,-74.05 638.36,-83.78 645.35,-84.27"/>
</g>
<!-- Node9&#45;&gt;Node2 -->
<g id="edge9" class="edge">
<title>Node9&#45;&gt;Node2</title>
<path fill="none" stroke="#63b8ff" d="M346.84,-281.28C315.12,-277.29 257.47,-266.57 217,-239 165.94,-204.22 160.61,-183.76 132,-129 124.55,-114.74 119.29,-97.21 116.04,-84.18"/>
<polygon fill="#63b8ff" stroke="#63b8ff" points="119.36,-83.04 113.69,-74.09 112.55,-84.62 119.36,-83.04"/>
</g>
<!-- Node9&#45;&gt;Node8 -->
<g id="edge10" class="edge">
<title>Node9&#45;&gt;Node8</title>
<path fill="none" stroke="#63b8ff" d="M387.61,-274.98C404.06,-266.69 429.03,-253.29 449,-239 520.8,-187.59 596.04,-113.56 627.62,-81.41"/>
<polygon fill="#63b8ff" stroke="#63b8ff" points="630.2,-83.77 634.68,-74.17 625.19,-78.88 630.2,-83.77"/>
</g>
<!-- Node10 -->
<g id="node10" class="node">
<title>Node10</title>
<g id="a_node10"><a xlink:href="a00194.xhtml" target="_top" xlink:title=" ">
<polygon fill="white" stroke="#666666" points="320.5,-184 267.5,-184 267.5,-165 320.5,-165 320.5,-184"/>
<text text-anchor="middle" x="294" y="-172" font-family="Helvetica,sans-Serif" font-size="10.00">Vector.h</text>
</a>
</g>
</g>
<!-- Node9&#45;&gt;Node10 -->
<g id="edge11" class="edge">
<title>Node9&#45;&gt;Node10</title>
<path fill="none" stroke="#63b8ff" d="M363.78,-274.66C351.14,-256.69 322.25,-215.64 305.88,-192.38"/>
<polygon fill="#63b8ff" stroke="#63b8ff" points="308.71,-190.32 300.09,-184.16 302.99,-194.35 308.71,-190.32"/>
</g>
<!-- Node17 -->
<g id="node17" class="node">
<title>Node17</title>
<g id="a_node17"><a xlink:href="a00197.xhtml" target="_top" xlink:title=" ">
<polygon fill="white" stroke="#666666" points="440,-239 390,-239 390,-220 440,-220 440,-239"/>
<text text-anchor="middle" x="415" y="-227" font-family="Helvetica,sans-Serif" font-size="10.00">Matrix.h</text>
</a>
</g>
</g>
<!-- Node9&#45;&gt;Node17 -->
<g id="edge24" class="edge">
<title>Node9&#45;&gt;Node17</title>
<path fill="none" stroke="#63b8ff" d="M377.43,-274.75C383.85,-267.18 393.31,-256.05 401.12,-246.84"/>
<polygon fill="#63b8ff" stroke="#63b8ff" points="403.9,-248.98 407.71,-239.09 398.57,-244.45 403.9,-248.98"/>
</g>
<!-- Node18 -->
<g id="node18" class="node">
<title>Node18</title>
<g id="a_node18"><a xlink:href="a00200.xhtml" target="_top" xlink:title=" ">
<polygon fill="white" stroke="#666666" points="295.5,-239 226.5,-239 226.5,-220 295.5,-220 295.5,-239"/>
<text text-anchor="middle" x="261" y="-227" font-family="Helvetica,sans-Serif" font-size="10.00">RingBuffer.h</text>
</a>
</g>
</g>
<!-- Node9&#45;&gt;Node18 -->
<g id="edge28" class="edge">
<title>Node9&#45;&gt;Node18</title>
<path fill="none" stroke="#63b8ff" d="M352.49,-274.98C335.03,-266.5 307.99,-253.35 287.83,-243.54"/>
<polygon fill="#63b8ff" stroke="#63b8ff" points="289.36,-240.4 278.83,-239.17 286.29,-246.69 289.36,-240.4"/>
</g>
<!-- Node10&#45;&gt;Node2 -->
<g id="edge15" class="edge">
<title>Node10&#45;&gt;Node2</title>
<path fill="none" stroke="#63b8ff" d="M267.2,-166.89C242.27,-159.95 204.74,-147.46 176,-129 155.93,-116.11 137.08,-96.07 125.11,-81.95"/>
<polygon fill="#63b8ff" stroke="#63b8ff" points="127.65,-79.54 118.59,-74.05 122.25,-83.99 127.65,-79.54"/>
</g>
<!-- Node11 -->
<g id="node11" class="node">
<title>Node11</title>
<g id="a_node11"><a xlink:title=" ">
<polygon fill="#e0e0e0" stroke="#999999" points="421.5,-19 372.5,-19 372.5,0 421.5,0 421.5,-19"/>
<text text-anchor="middle" x="397" y="-7" font-family="Helvetica,sans-Serif" font-size="10.00">cassert</text>
</a>
</g>
</g>
<!-- Node10&#45;&gt;Node11 -->
<g id="edge12" class="edge">
<title>Node10&#45;&gt;Node11</title>
<path fill="none" stroke="#63b8ff" d="M303.49,-164.95C312.58,-156.44 326.3,-142.7 336,-129 359.52,-95.77 379.53,-52.23 389.74,-28.26"/>
<polygon fill="#63b8ff" stroke="#63b8ff" points="392.98,-29.58 393.61,-19 386.52,-26.88 392.98,-29.58"/>
</g>
<!-- Node12 -->
<g id="node12" class="node">
<title>Node12</title>
<g id="a_node12"><a xlink:title=" ">
<polygon fill="#e0e0e0" stroke="#999999" points="185,-19 139,-19 139,0 185,0 185,-19"/>
<text text-anchor="middle" x="162" y="-7" font-family="Helvetica,sans-Serif" font-size="10.00">cstring</text>
</a>
</g>
</g>
<!-- Node10&#45;&gt;Node12 -->
<g id="edge13" class="edge">
<title>Node10&#45;&gt;Node12</title>
<path fill="none" stroke="#63b8ff" d="M278.89,-164.88C265.67,-156.81 246.53,-143.81 233,-129 204.27,-97.55 181.23,-52.69 169.81,-28.18"/>
<polygon fill="#63b8ff" stroke="#63b8ff" points="172.97,-26.67 165.65,-19.01 166.6,-29.56 172.97,-26.67"/>
</g>
<!-- Node13 -->
<g id="node13" class="node">
<title>Node13</title>
<g id="a_node13"><a xlink:title=" ">
<polygon fill="#e0e0e0" stroke="#999999" points="256,-19 216,-19 216,0 256,0 256,-19"/>
<text text-anchor="middle" x="236" y="-7" font-family="Helvetica,sans-Serif" font-size="10.00">limits</text>
</a>
</g>
</g>
<!-- Node10&#45;&gt;Node13 -->
<g id="edge14" class="edge">
<title>Node10&#45;&gt;Node13</title>
<path fill="none" stroke="#63b8ff" d="M283.75,-164.98C265.83,-149.27 229.7,-113.68 219,-74 214.83,-58.52 220.35,-40.92 226.19,-28.17"/>
<polygon fill="#63b8ff" stroke="#63b8ff" points="229.37,-29.63 230.75,-19.13 223.12,-26.48 229.37,-29.63"/>
</g>
<!-- Node14 -->
<g id="node14" class="node">
<title>Node14</title>
<g id="a_node14"><a xlink:href="a00188.xhtml" target="_top" xlink:title=" ">
<polygon fill="white" stroke="#666666" points="327.5,-129 260.5,-129 260.5,-110 327.5,-110 327.5,-129"/>
<text text-anchor="middle" x="294" y="-117" font-family="Helvetica,sans-Serif" font-size="10.00">Synthesis.h</text>
</a>
</g>
</g>
<!-- Node10&#45;&gt;Node14 -->
<g id="edge16" class="edge">
<title>Node10&#45;&gt;Node14</title>
<path fill="none" stroke="#63b8ff" d="M294,-164.75C294,-157.8 294,-147.85 294,-139.13"/>
<polygon fill="#63b8ff" stroke="#63b8ff" points="297.5,-139.09 294,-129.09 290.5,-139.09 297.5,-139.09"/>
</g>
<!-- Node14&#45;&gt;Node2 -->
<g id="edge17" class="edge">
<title>Node14&#45;&gt;Node2</title>
<path fill="none" stroke="#63b8ff" d="M264.76,-109.98C231.7,-100.36 178.06,-84.74 143.93,-74.8"/>
<polygon fill="#63b8ff" stroke="#63b8ff" points="144.59,-71.35 134.01,-71.91 142.64,-78.07 144.59,-71.35"/>
</g>
<!-- Node14&#45;&gt;Node8 -->
<g id="edge19" class="edge">
<title>Node14&#45;&gt;Node8</title>
<path fill="none" stroke="#63b8ff" d="M327.78,-113.37C392.54,-103.54 533.86,-82.07 603.13,-71.56"/>
<polygon fill="#63b8ff" stroke="#63b8ff" points="603.84,-74.99 613.2,-70.03 602.79,-68.07 603.84,-74.99"/>
</g>
<!-- Node15 -->
<g id="node15" class="node">
<title>Node15</title>
<g id="a_node15"><a xlink:title=" ">
<polygon fill="#e0e0e0" stroke="#999999" points="330.5,-74 285.5,-74 285.5,-55 330.5,-55 330.5,-74"/>
<text text-anchor="middle" x="308" y="-62" font-family="Helvetica,sans-Serif" font-size="10.00">cstdlib</text>
</a>
</g>
</g>
<!-- Node14&#45;&gt;Node15 -->
<g id="edge18" class="edge">
<title>Node14&#45;&gt;Node15</title>
<path fill="none" stroke="#63b8ff" d="M296.31,-109.75C298.17,-102.72 300.84,-92.62 303.15,-83.84"/>
<polygon fill="#63b8ff" stroke="#63b8ff" points="306.56,-84.65 305.73,-74.09 299.79,-82.86 306.56,-84.65"/>
</g>
<!-- Node16 -->
<g id="node16" class="node">
<title>Node16</title>
<g id="a_node16"><a xlink:href="a00185.xhtml" target="_top" xlink:title=" ">
<polygon fill="white" stroke="#666666" points="267.5,-74 228.5,-74 228.5,-55 267.5,-55 267.5,-74"/>
<text text-anchor="middle" x="248" y="-62" font-family="Helvetica,sans-Serif" font-size="10.00">Util.h</text>
</a>
</g>
</g>
<!-- Node14&#45;&gt;Node16 -->
<g id="edge20" class="edge">
<title>Node14&#45;&gt;Node16</title>
<path fill="none" stroke="#63b8ff" d="M286.4,-109.75C279.84,-102.18 270.18,-91.05 262.19,-81.84"/>
<polygon fill="#63b8ff" stroke="#63b8ff" points="264.65,-79.35 255.45,-74.09 259.37,-83.94 264.65,-79.35"/>
</g>
<!-- Node16&#45;&gt;Node11 -->
<g id="edge21" class="edge">
<title>Node16&#45;&gt;Node11</title>
<path fill="none" stroke="#63b8ff" d="M267.79,-56.46C292.18,-47.78 334.02,-32.9 363.47,-22.43"/>
<polygon fill="#63b8ff" stroke="#63b8ff" points="364.69,-25.71 372.93,-19.06 362.34,-19.11 364.69,-25.71"/>
</g>
<!-- Node16&#45;&gt;Node12 -->
<g id="edge22" class="edge">
<title>Node16&#45;&gt;Node12</title>
<path fill="none" stroke="#63b8ff" d="M234.18,-54.98C220.85,-46.77 200.42,-34.18 184.69,-24.49"/>
<polygon fill="#63b8ff" stroke="#63b8ff" points="186.42,-21.44 176.07,-19.17 182.75,-27.4 186.42,-21.44"/>
</g>
<!-- Node16&#45;&gt;Node13 -->
<g id="edge23" class="edge">
<title>Node16&#45;&gt;Node13</title>
<path fill="none" stroke="#63b8ff" d="M246.02,-54.75C244.43,-47.72 242.14,-37.62 240.15,-28.84"/>
<polygon fill="#63b8ff" stroke="#63b8ff" points="243.57,-28.07 237.94,-19.09 236.74,-29.62 243.57,-28.07"/>
</g>
<!-- Node17&#45;&gt;Node7 -->
<g id="edge26" class="edge">
<title>Node17&#45;&gt;Node7</title>
<path fill="none" stroke="#63b8ff" d="M419.62,-219.75C423.46,-212.49 429.02,-201.95 433.76,-192.98"/>
<polygon fill="#63b8ff" stroke="#63b8ff" points="436.89,-194.57 438.46,-184.09 430.7,-191.3 436.89,-194.57"/>
</g>
<!-- Node17&#45;&gt;Node10 -->
<g id="edge27" class="edge">
<title>Node17&#45;&gt;Node10</title>
<path fill="none" stroke="#63b8ff" d="M395.56,-219.98C376.01,-211.42 345.62,-198.11 323.18,-188.28"/>
<polygon fill="#63b8ff" stroke="#63b8ff" points="324.36,-184.98 313.79,-184.17 321.55,-191.39 324.36,-184.98"/>
</g>
<!-- Node17&#45;&gt;Node11 -->
<g id="edge25" class="edge">
<title>Node17&#45;&gt;Node11</title>
<path fill="none" stroke="#63b8ff" d="M412.68,-219.71C410.46,-210.79 407.26,-196.55 406,-184 405.16,-175.6 405.42,-173.42 406,-165 407.11,-148.88 409.89,-145.12 411,-129 413.27,-96.19 415.99,-87.51 411,-55 409.65,-46.19 406.87,-36.74 404.15,-28.82"/>
<polygon fill="#63b8ff" stroke="#63b8ff" points="407.34,-27.35 400.6,-19.18 400.77,-29.77 407.34,-27.35"/>
</g>
<!-- Node18&#45;&gt;Node2 -->
<g id="edge31" class="edge">
<title>Node18&#45;&gt;Node2</title>
<path fill="none" stroke="#63b8ff" d="M249.09,-219.95C227.33,-203.91 180.47,-167.44 149,-129 137.41,-114.84 127.19,-96.61 120.45,-83.32"/>
<polygon fill="#63b8ff" stroke="#63b8ff" points="123.55,-81.7 116,-74.27 117.27,-84.79 123.55,-81.7"/>
</g>
<!-- Node18&#45;&gt;Node7 -->
<g id="edge30" class="edge">
<title>Node18&#45;&gt;Node7</title>
<path fill="none" stroke="#63b8ff" d="M290.24,-219.98C321.43,-210.9 370.94,-196.49 405.09,-186.54"/>
<polygon fill="#63b8ff" stroke="#63b8ff" points="406.11,-189.89 414.73,-183.73 404.15,-183.17 406.11,-189.89"/>
</g>
<!-- Node18&#45;&gt;Node11 -->
<g id="edge29" class="edge">
<title>Node18&#45;&gt;Node11</title>
<path fill="none" stroke="#63b8ff" d="M279.41,-219.93C294.33,-212.24 315.08,-199.75 329,-184 370,-137.61 387.7,-63.62 394.03,-29.22"/>
<polygon fill="#63b8ff" stroke="#63b8ff" points="397.51,-29.62 395.75,-19.17 390.61,-28.43 397.51,-29.62"/>
</g>
<!-- Node18&#45;&gt;Node12 -->
<g id="edge32" class="edge">
<title>Node18&#45;&gt;Node12</title>
<path fill="none" stroke="#63b8ff" d="M241.66,-219.88C201.45,-200.66 110.14,-149.94 81,-74 77.97,-66.12 76.7,-62.27 81,-55 91.48,-37.29 111.79,-26.16 129.45,-19.45"/>
<polygon fill="#63b8ff" stroke="#63b8ff" points="130.6,-22.76 138.91,-16.17 128.31,-16.14 130.6,-22.76"/>
</g>
<!-- Node19&#45;&gt;Node4 -->
<g id="edge35" class="edge">
<title>Node19&#45;&gt;Node4</title>
<path fill="none" stroke="#63b8ff" d="M546.44,-274.98C556.15,-267.07 570.82,-255.11 582.5,-245.58"/>
<polygon fill="#63b8ff" stroke="#63b8ff" points="584.83,-248.2 590.37,-239.17 580.4,-242.78 584.83,-248.2"/>
</g>
<!-- Node19&#45;&gt;Node10 -->
<g id="edge37" class="edge">
<title>Node19&#45;&gt;Node10</title>
<path fill="none" stroke="#63b8ff" d="M496.71,-276.22C464.52,-269.32 418.34,-257.27 381,-239 354.68,-226.12 327.99,-205.22 311.24,-190.94"/>
<polygon fill="#63b8ff" stroke="#63b8ff" points="313.28,-188.08 303.44,-184.15 308.69,-193.36 313.28,-188.08"/>
</g>
<!-- Node19&#45;&gt;Node11 -->
<g id="edge34" class="edge">
<title>Node19&#45;&gt;Node11</title>
<path fill="none" stroke="#63b8ff" d="M532.49,-274.97C519.79,-244.39 474.48,-137.72 427,-55 421.61,-45.61 414.93,-35.57 409.24,-27.41"/>
<polygon fill="#63b8ff" stroke="#63b8ff" points="412,-25.25 403.36,-19.13 406.3,-29.31 412,-25.25"/>
</g>
<!-- Node19&#45;&gt;Node17 -->
<g id="edge36" class="edge">
<title>Node19&#45;&gt;Node17</title>
<path fill="none" stroke="#63b8ff" d="M516.56,-274.98C497.01,-266.42 466.62,-253.11 444.18,-243.28"/>
<polygon fill="#63b8ff" stroke="#63b8ff" points="445.36,-239.98 434.79,-239.17 442.55,-246.39 445.36,-239.98"/>
</g>
<!-- Node20&#45;&gt;Node8 -->
<g id="edge39" class="edge">
<title>Node20&#45;&gt;Node8</title>
<path fill="none" stroke="#63b8ff" d="M787.37,-109.98C758.49,-101.09 712.99,-87.07 680.8,-77.15"/>
<polygon fill="#63b8ff" stroke="#63b8ff" points="681.44,-73.68 670.85,-74.08 679.38,-80.37 681.44,-73.68"/>
</g>
<!-- Node21&#45;&gt;Node5 -->
<g id="edge41" class="edge">
<title>Node21&#45;&gt;Node5</title>
<path fill="none" stroke="#63b8ff" d="M701.18,-219.75C699.74,-212.8 697.68,-202.85 695.87,-194.13"/>
<polygon fill="#63b8ff" stroke="#63b8ff" points="699.24,-193.17 693.78,-184.09 692.39,-194.59 699.24,-193.17"/>
</g>
<!-- Node21&#45;&gt;Node8 -->
<g id="edge42" class="edge">
<title>Node21&#45;&gt;Node8</title>
<path fill="none" stroke="#63b8ff" d="M708.85,-219.78C716.35,-207.45 727.66,-184.28 721,-165 709.09,-130.51 679.75,-98.85 660.65,-80.9"/>
<polygon fill="#63b8ff" stroke="#63b8ff" points="662.91,-78.22 653.17,-74.07 658.2,-83.4 662.91,-78.22"/>
</g>
</g>
</svg>
