<?xml version="1.0" encoding="UTF-8" standalone="no"?>
<!DOCTYPE svg PUBLIC "-//W3C//DTD SVG 1.1//EN"
 "http://www.w3.org/Graphics/SVG/1.1/DTD/svg11.dtd">
<!-- Generated by graphviz version 4.0.0 (20220602.1335)
 -->
<!-- Title: Fft.h Pages: 1 -->
<svg width="1363pt" height="196pt"
 viewBox="0.00 0.00 1362.50 196.00" xmlns="http://www.w3.org/2000/svg" xmlns:xlink="http://www.w3.org/1999/xlink">
<g id="graph0" class="graph" transform="scale(1 1) rotate(0) translate(4 192)">
<title>Fft.h</title>
<polygon fill="white" stroke="transparent" points="-4,4 -4,-192 1358.5,-192 1358.5,4 -4,4"/>
<!-- Node1 -->
<g id="node1" class="node">
<title>Node1</title>
<g id="a_node1"><a xlink:title=" ">
<polygon fill="#bfbfbf" stroke="black" points="342,-168.5 342,-187.5 378,-187.5 378,-168.5 342,-168.5"/>
<text text-anchor="middle" x="360" y="-175.5" font-family="Helvetica,sans-Serif" font-size="10.00">Fft.h</text>
</a>
</g>
</g>
<!-- Node2 -->
<g id="node2" class="node">
<title>Node2</title>
<g id="a_node2"><a xlink:href="a00080.xhtml" target="_top" xlink:title=" ">
<polygon fill="white" stroke="black" points="0,-112.5 0,-131.5 78,-131.5 78,-112.5 0,-112.5"/>
<text text-anchor="middle" x="39" y="-119.5" font-family="Helvetica,sans-Serif" font-size="10.00">BeatHisto.cpp</text>
</a>
</g>
</g>
<!-- Node1&#45;&gt;Node2 -->
<g id="edge1" class="edge">
<title>Node1&#45;&gt;Node2</title>
<path fill="none" stroke="midnightblue" d="M331.79,-172.56C282.22,-164.71 176.25,-147.72 87,-132 84.08,-131.49 81.06,-130.94 78.02,-130.39"/>
<polygon fill="midnightblue" stroke="midnightblue" points="331.34,-176.03 341.77,-174.14 332.43,-169.12 331.34,-176.03"/>
</g>
<!-- Node3 -->
<g id="node3" class="node">
<title>Node3</title>
<g id="a_node3"><a xlink:href="a00101.xhtml" target="_top" xlink:title=" ">
<polygon fill="white" stroke="black" points="96,-112.5 96,-131.5 156,-131.5 156,-112.5 96,-112.5"/>
<text text-anchor="middle" x="126" y="-119.5" font-family="Helvetica,sans-Serif" font-size="10.00">Chord.cpp</text>
</a>
</g>
</g>
<!-- Node1&#45;&gt;Node3 -->
<g id="edge2" class="edge">
<title>Node1&#45;&gt;Node3</title>
<path fill="none" stroke="midnightblue" d="M331.81,-170.49C287.45,-160.26 201.72,-140.47 156.16,-129.96"/>
<polygon fill="midnightblue" stroke="midnightblue" points="331.11,-173.92 341.64,-172.76 332.68,-167.1 331.11,-173.92"/>
</g>
<!-- Node4 -->
<g id="node4" class="node">
<title>Node4</title>
<g id="a_node4"><a xlink:href="a00050.xhtml" target="_top" xlink:title=" ">
<polygon fill="white" stroke="black" points="174,-112.5 174,-131.5 242,-131.5 242,-112.5 174,-112.5"/>
<text text-anchor="middle" x="208" y="-119.5" font-family="Helvetica,sans-Serif" font-size="10.00">Feature.cpp</text>
</a>
</g>
</g>
<!-- Node1&#45;&gt;Node4 -->
<g id="edge3" class="edge">
<title>Node1&#45;&gt;Node4</title>
<path fill="none" stroke="midnightblue" d="M332.54,-167.24C303.86,-157.06 259.32,-141.23 232.01,-131.53"/>
<polygon fill="midnightblue" stroke="midnightblue" points="331.37,-170.54 341.97,-170.59 333.72,-163.95 331.37,-170.54"/>
</g>
<!-- Node5 -->
<g id="node5" class="node">
<title>Node5</title>
<g id="a_node5"><a xlink:href="a00068.xhtml" target="_top" xlink:title=" ">
<polygon fill="white" stroke="black" points="260.5,-112.5 260.5,-131.5 307.5,-131.5 307.5,-112.5 260.5,-112.5"/>
<text text-anchor="middle" x="284" y="-119.5" font-family="Helvetica,sans-Serif" font-size="10.00">Fft.cpp</text>
</a>
</g>
</g>
<!-- Node1&#45;&gt;Node5 -->
<g id="edge4" class="edge">
<title>Node1&#45;&gt;Node5</title>
<path fill="none" stroke="midnightblue" d="M339.42,-162.38C325.69,-152.62 308.07,-140.11 296.43,-131.83"/>
<polygon fill="midnightblue" stroke="midnightblue" points="337.61,-165.38 347.79,-168.32 341.66,-159.68 337.61,-165.38"/>
</g>
<!-- Node6 -->
<g id="node6" class="node">
<title>Node6</title>
<g id="a_node6"><a xlink:href="a00086.xhtml" target="_top" xlink:title=" ">
<polygon fill="white" stroke="black" points="326,-112.5 326,-131.5 394,-131.5 394,-112.5 326,-112.5"/>
<text text-anchor="middle" x="360" y="-119.5" font-family="Helvetica,sans-Serif" font-size="10.00">Novelty.cpp</text>
</a>
</g>
</g>
<!-- Node1&#45;&gt;Node6 -->
<g id="edge5" class="edge">
<title>Node1&#45;&gt;Node6</title>
<path fill="none" stroke="midnightblue" d="M360,-157.8C360,-148.91 360,-138.78 360,-131.75"/>
<polygon fill="midnightblue" stroke="midnightblue" points="356.5,-158.08 360,-168.08 363.5,-158.08 356.5,-158.08"/>
</g>
<!-- Node7 -->
<g id="node7" class="node">
<title>Node7</title>
<g id="a_node7"><a xlink:href="a00071.xhtml" target="_top" xlink:title=" ">
<polygon fill="white" stroke="black" points="412.5,-112.5 412.5,-131.5 469.5,-131.5 469.5,-112.5 412.5,-112.5"/>
<text text-anchor="middle" x="441" y="-119.5" font-family="Helvetica,sans-Serif" font-size="10.00">Pitch.cpp</text>
</a>
</g>
</g>
<!-- Node1&#45;&gt;Node7 -->
<g id="edge6" class="edge">
<title>Node1&#45;&gt;Node7</title>
<path fill="none" stroke="midnightblue" d="M381.57,-162.62C396.36,-152.76 415.51,-139.99 428.02,-131.65"/>
<polygon fill="midnightblue" stroke="midnightblue" points="379.39,-159.86 373.01,-168.32 383.28,-165.69 379.39,-159.86"/>
</g>
<!-- Node8 -->
<g id="node8" class="node">
<title>Node8</title>
<g id="a_node8"><a xlink:href="a00083.xhtml" target="_top" xlink:title=" ">
<polygon fill="white" stroke="black" points="488,-112.5 488,-131.5 578,-131.5 578,-112.5 488,-112.5"/>
<text text-anchor="middle" x="533" y="-119.5" font-family="Helvetica,sans-Serif" font-size="10.00">Spectrogram.cpp</text>
</a>
</g>
</g>
<!-- Node1&#45;&gt;Node8 -->
<g id="edge7" class="edge">
<title>Node1&#45;&gt;Node8</title>
<path fill="none" stroke="midnightblue" d="M387.94,-168.28C420.39,-158.15 473.58,-141.55 505.74,-131.51"/>
<polygon fill="midnightblue" stroke="midnightblue" points="386.69,-165 378.19,-171.32 388.78,-171.68 386.69,-165"/>
</g>
<!-- Node9 -->
<g id="node9" class="node">
<title>Node9</title>
<g id="a_node9"><a xlink:href="a00095.xhtml" target="_top" xlink:title=" ">
<polygon fill="white" stroke="black" points="596,-112.5 596,-131.5 664,-131.5 664,-112.5 596,-112.5"/>
<text text-anchor="middle" x="630" y="-119.5" font-family="Helvetica,sans-Serif" font-size="10.00">ToolCcf.cpp</text>
</a>
</g>
</g>
<!-- Node1&#45;&gt;Node9 -->
<g id="edge8" class="edge">
<title>Node1&#45;&gt;Node9</title>
<path fill="none" stroke="midnightblue" d="M388.25,-171.5C431.21,-163.11 515.5,-146.57 587,-132 589.84,-131.42 592.78,-130.82 595.74,-130.21"/>
<polygon fill="midnightblue" stroke="midnightblue" points="387.4,-168.1 378.26,-173.45 388.74,-174.97 387.4,-168.1"/>
</g>
<!-- Node10 -->
<g id="node10" class="node">
<title>Node10</title>
<g id="a_node10"><a xlink:href="a00182.xhtml" target="_top" xlink:title=" ">
<polygon fill="white" stroke="black" points="682.5,-112.5 682.5,-131.5 761.5,-131.5 761.5,-112.5 682.5,-112.5"/>
<text text-anchor="middle" x="722" y="-119.5" font-family="Helvetica,sans-Serif" font-size="10.00">ToolInstFreq.h</text>
</a>
</g>
</g>
<!-- Node1&#45;&gt;Node10 -->
<g id="edge9" class="edge">
<title>Node1&#45;&gt;Node10</title>
<path fill="none" stroke="midnightblue" d="M388.03,-173.34C442.87,-166.1 568.11,-149.17 673,-132 676.07,-131.5 679.25,-130.96 682.44,-130.4"/>
<polygon fill="midnightblue" stroke="midnightblue" points="387.49,-169.88 378.03,-174.66 388.4,-176.82 387.49,-169.88"/>
</g>
<!-- Node11 -->
<g id="node11" class="node">
<title>Node11</title>
<g id="a_node11"><a xlink:href="a00197.xhtml" target="_top" xlink:title=" ">
<polygon fill="white" stroke="black" points="695.5,-56.5 695.5,-75.5 748.5,-75.5 748.5,-56.5 695.5,-56.5"/>
<text text-anchor="middle" x="722" y="-63.5" font-family="Helvetica,sans-Serif" font-size="10.00">AcaAll.h</text>
</a>
</g>
</g>
<!-- Node10&#45;&gt;Node11 -->
<g id="edge10" class="edge">
<title>Node10&#45;&gt;Node11</title>
<path fill="none" stroke="midnightblue" d="M722,-101.8C722,-92.91 722,-82.78 722,-75.75"/>
<polygon fill="midnightblue" stroke="midnightblue" points="718.5,-102.08 722,-112.08 725.5,-102.08 718.5,-102.08"/>
</g>
<!-- Node12 -->
<g id="node12" class="node">
<title>Node12</title>
<g id="a_node12"><a xlink:href="a00035.xhtml" target="_top" xlink:title=" ">
<polygon fill="white" stroke="black" points="212.5,-0.5 212.5,-19.5 275.5,-19.5 275.5,-0.5 212.5,-0.5"/>
<text text-anchor="middle" x="244" y="-7.5" font-family="Helvetica,sans-Serif" font-size="10.00">AcaAll.cpp</text>
</a>
</g>
</g>
<!-- Node11&#45;&gt;Node12 -->
<g id="edge11" class="edge">
<title>Node11&#45;&gt;Node12</title>
<path fill="none" stroke="midnightblue" d="M684.86,-62.6C609.24,-57.41 432.13,-43.65 285,-20 281.98,-19.51 278.84,-18.95 275.72,-18.33"/>
<polygon fill="midnightblue" stroke="midnightblue" points="685.05,-66.12 695.26,-63.31 685.52,-59.14 685.05,-66.12"/>
</g>
<!-- Node13 -->
<g id="node13" class="node">
<title>Node13</title>
<g id="a_node13"><a xlink:href="a00017.xhtml" target="_top" xlink:title=" ">
<polygon fill="white" stroke="black" points="293.5,-0.5 293.5,-19.5 410.5,-19.5 410.5,-0.5 293.5,-0.5"/>
<text text-anchor="middle" x="352" y="-7.5" font-family="Helvetica,sans-Serif" font-size="10.00">ComputeBeatHisto.cpp</text>
</a>
</g>
</g>
<!-- Node11&#45;&gt;Node13 -->
<g id="edge12" class="edge">
<title>Node11&#45;&gt;Node13</title>
<path fill="none" stroke="midnightblue" d="M685.32,-59.65C621.03,-50.26 487.53,-30.78 410.41,-19.52"/>
<polygon fill="midnightblue" stroke="midnightblue" points="684.99,-63.14 695.39,-61.12 686,-56.21 684.99,-63.14"/>
</g>
<!-- Node14 -->
<g id="node14" class="node">
<title>Node14</title>
<g id="a_node14"><a xlink:href="a00023.xhtml" target="_top" xlink:title=" ">
<polygon fill="white" stroke="black" points="429,-0.5 429,-19.5 533,-19.5 533,-0.5 429,-0.5"/>
<text text-anchor="middle" x="481" y="-7.5" font-family="Helvetica,sans-Serif" font-size="10.00">ComputeChords.cpp</text>
</a>
</g>
</g>
<!-- Node11&#45;&gt;Node14 -->
<g id="edge13" class="edge">
<title>Node11&#45;&gt;Node14</title>
<path fill="none" stroke="midnightblue" d="M685.4,-56.8C640.55,-46.75 564.94,-29.81 519.32,-19.59"/>
<polygon fill="midnightblue" stroke="midnightblue" points="684.76,-60.24 695.29,-59.01 686.3,-53.41 684.76,-60.24"/>
</g>
<!-- Node15 -->
<g id="node15" class="node">
<title>Node15</title>
<g id="a_node15"><a xlink:href="a00002.xhtml" target="_top" xlink:title=" ">
<polygon fill="white" stroke="black" points="551.5,-0.5 551.5,-19.5 658.5,-19.5 658.5,-0.5 551.5,-0.5"/>
<text text-anchor="middle" x="605" y="-7.5" font-family="Helvetica,sans-Serif" font-size="10.00">ComputeFeature.cpp</text>
</a>
</g>
</g>
<!-- Node11&#45;&gt;Node15 -->
<g id="edge14" class="edge">
<title>Node11&#45;&gt;Node15</title>
<path fill="none" stroke="midnightblue" d="M694.34,-52.23C672.45,-42.13 642.5,-28.31 623.45,-19.52"/>
<polygon fill="midnightblue" stroke="midnightblue" points="692.91,-55.43 703.46,-56.44 695.85,-49.08 692.91,-55.43"/>
</g>
<!-- Node16 -->
<g id="node16" class="node">
<title>Node16</title>
<g id="a_node16"><a xlink:href="a00026.xhtml" target="_top" xlink:title=" ">
<polygon fill="white" stroke="black" points="677,-0.5 677,-19.5 767,-19.5 767,-0.5 677,-0.5"/>
<text text-anchor="middle" x="722" y="-7.5" font-family="Helvetica,sans-Serif" font-size="10.00">ComputeKey.cpp</text>
</a>
</g>
</g>
<!-- Node11&#45;&gt;Node16 -->
<g id="edge15" class="edge">
<title>Node11&#45;&gt;Node16</title>
<path fill="none" stroke="midnightblue" d="M722,-45.8C722,-36.91 722,-26.78 722,-19.75"/>
<polygon fill="midnightblue" stroke="midnightblue" points="718.5,-46.08 722,-56.08 725.5,-46.08 718.5,-46.08"/>
</g>
<!-- Node17 -->
<g id="node17" class="node">
<title>Node17</title>
<g id="a_node17"><a xlink:href="a00104.xhtml" target="_top" xlink:title=" ">
<polygon fill="white" stroke="black" points="785.5,-0.5 785.5,-19.5 930.5,-19.5 930.5,-0.5 785.5,-0.5"/>
<text text-anchor="middle" x="858" y="-7.5" font-family="Helvetica,sans-Serif" font-size="10.00">ComputeMelSpectrogram.cpp</text>
</a>
</g>
</g>
<!-- Node11&#45;&gt;Node17 -->
<g id="edge16" class="edge">
<title>Node11&#45;&gt;Node17</title>
<path fill="none" stroke="midnightblue" d="M753.13,-52.64C778.66,-42.5 814.11,-28.43 836.55,-19.52"/>
<polygon fill="midnightblue" stroke="midnightblue" points="751.55,-49.5 743.55,-56.44 754.14,-56.01 751.55,-49.5"/>
</g>
<!-- Node18 -->
<g id="node18" class="node">
<title>Node18</title>
<g id="a_node18"><a xlink:href="a00029.xhtml" target="_top" xlink:title=" ">
<polygon fill="white" stroke="black" points="949,-0.5 949,-19.5 1093,-19.5 1093,-0.5 949,-0.5"/>
<text text-anchor="middle" x="1021" y="-7.5" font-family="Helvetica,sans-Serif" font-size="10.00">ComputeNoveltyFunction.cpp</text>
</a>
</g>
</g>
<!-- Node11&#45;&gt;Node18 -->
<g id="edge17" class="edge">
<title>Node11&#45;&gt;Node18</title>
<path fill="none" stroke="midnightblue" d="M758.38,-58.43C812.48,-48.66 914.17,-30.29 973.9,-19.51"/>
<polygon fill="midnightblue" stroke="midnightblue" points="757.75,-54.99 748.53,-60.21 759,-61.87 757.75,-54.99"/>
</g>
<!-- Node19 -->
<g id="node19" class="node">
<title>Node19</title>
<g id="a_node19"><a xlink:href="a00107.xhtml" target="_top" xlink:title=" ">
<polygon fill="white" stroke="black" points="1111,-0.5 1111,-19.5 1207,-19.5 1207,-0.5 1111,-0.5"/>
<text text-anchor="middle" x="1159" y="-7.5" font-family="Helvetica,sans-Serif" font-size="10.00">ComputePitch.cpp</text>
</a>
</g>
</g>
<!-- Node11&#45;&gt;Node19 -->
<g id="edge18" class="edge">
<title>Node11&#45;&gt;Node19</title>
<path fill="none" stroke="midnightblue" d="M758.96,-61.1C826.97,-53.83 976.44,-37.34 1102,-20 1104.88,-19.6 1107.84,-19.18 1110.82,-18.74"/>
<polygon fill="midnightblue" stroke="midnightblue" points="758.34,-57.65 748.77,-62.19 759.08,-64.61 758.34,-57.65"/>
</g>
<!-- Node20 -->
<g id="node20" class="node">
<title>Node20</title>
<g id="a_node20"><a xlink:href="a00014.xhtml" target="_top" xlink:title=" ">
<polygon fill="white" stroke="black" points="1225.5,-0.5 1225.5,-19.5 1354.5,-19.5 1354.5,-0.5 1225.5,-0.5"/>
<text text-anchor="middle" x="1290" y="-7.5" font-family="Helvetica,sans-Serif" font-size="10.00">ComputeSpectrogram.cpp</text>
</a>
</g>
</g>
<!-- Node11&#45;&gt;Node20 -->
<g id="edge19" class="edge">
<title>Node11&#45;&gt;Node20</title>
<path fill="none" stroke="midnightblue" d="M758.59,-62.05C840.57,-55.35 1045.15,-38.17 1216,-20 1219.09,-19.67 1222.25,-19.33 1225.44,-18.97"/>
<polygon fill="midnightblue" stroke="midnightblue" points="758.22,-58.57 748.54,-62.87 758.79,-65.54 758.22,-58.57"/>
</g>
</g>
</svg>
