<?xml version="1.0" encoding="UTF-8" standalone="no"?>
<!DOCTYPE svg PUBLIC "-//W3C//DTD SVG 1.1//EN"
 "http://www.w3.org/Graphics/SVG/1.1/DTD/svg11.dtd">
<!-- Generated by graphviz version 4.0.0 (20220602.1335)
 -->
<!-- Title: Chord.h Pages: 1 -->
<svg width="1287pt" height="140pt"
 viewBox="0.00 0.00 1286.50 140.00" xmlns="http://www.w3.org/2000/svg" xmlns:xlink="http://www.w3.org/1999/xlink">
<g id="graph0" class="graph" transform="scale(1 1) rotate(0) translate(4 136)">
<title>Chord.h</title>
<polygon fill="white" stroke="transparent" points="-4,4 -4,-136 1282.5,-136 1282.5,4 -4,4"/>
<!-- Node1 -->
<g id="node1" class="node">
<title>Node1</title>
<g id="a_node1"><a xlink:title=" ">
<polygon fill="#bfbfbf" stroke="black" points="535,-112.5 535,-131.5 585,-131.5 585,-112.5 535,-112.5"/>
<text text-anchor="middle" x="560" y="-119.5" font-family="Helvetica,sans-Serif" font-size="10.00">Chord.h</text>
</a>
</g>
</g>
<!-- Node2 -->
<g id="node2" class="node">
<title>Node2</title>
<g id="a_node2"><a xlink:href="a00224.xhtml" target="_top" xlink:title=" ">
<polygon fill="white" stroke="black" points="496.5,-56.5 496.5,-75.5 549.5,-75.5 549.5,-56.5 496.5,-56.5"/>
<text text-anchor="middle" x="523" y="-63.5" font-family="Helvetica,sans-Serif" font-size="10.00">AcaAll.h</text>
</a>
</g>
</g>
<!-- Node1&#45;&gt;Node2 -->
<g id="edge1" class="edge">
<title>Node1&#45;&gt;Node2</title>
<path fill="none" stroke="midnightblue" d="M548.05,-103.57C541.69,-94.27 534.13,-83.25 529,-75.75"/>
<polygon fill="midnightblue" stroke="midnightblue" points="545.35,-105.81 553.89,-112.08 551.13,-101.86 545.35,-105.81"/>
</g>
<!-- Node5 -->
<g id="node5" class="node">
<title>Node5</title>
<g id="a_node5"><a xlink:href="a00023.xhtml" target="_top" xlink:title=" ">
<polygon fill="white" stroke="black" points="0,-0.5 0,-19.5 104,-19.5 104,-0.5 0,-0.5"/>
<text text-anchor="middle" x="52" y="-7.5" font-family="Helvetica,sans-Serif" font-size="10.00">ComputeChords.cpp</text>
</a>
</g>
</g>
<!-- Node1&#45;&gt;Node5 -->
<g id="edge14" class="edge">
<title>Node1&#45;&gt;Node5</title>
<path fill="none" stroke="midnightblue" d="M524.93,-113.41C433.35,-93.58 187.52,-40.35 91.35,-19.52"/>
<polygon fill="midnightblue" stroke="midnightblue" points="524.29,-116.85 534.81,-115.55 525.78,-110.01 524.29,-116.85"/>
</g>
<!-- Node13 -->
<g id="node13" class="node">
<title>Node13</title>
<g id="a_node13"><a xlink:href="a00116.xhtml" target="_top" xlink:title=" ">
<polygon fill="white" stroke="black" points="568,-56.5 568,-75.5 628,-75.5 628,-56.5 568,-56.5"/>
<text text-anchor="middle" x="598" y="-63.5" font-family="Helvetica,sans-Serif" font-size="10.00">Chord.cpp</text>
</a>
</g>
</g>
<!-- Node1&#45;&gt;Node13 -->
<g id="edge12" class="edge">
<title>Node1&#45;&gt;Node13</title>
<path fill="none" stroke="midnightblue" d="M572.06,-103.86C578.64,-94.5 586.51,-83.33 591.84,-75.75"/>
<polygon fill="midnightblue" stroke="midnightblue" points="569.17,-101.89 566.27,-112.08 574.89,-105.92 569.17,-101.89"/>
</g>
<!-- Node14 -->
<g id="node14" class="node">
<title>Node14</title>
<g id="a_node14"><a xlink:href="a00059.xhtml" target="_top" xlink:title=" ">
<polygon fill="white" stroke="black" points="645.5,-56.5 645.5,-75.5 752.5,-75.5 752.5,-56.5 645.5,-56.5"/>
<text text-anchor="middle" x="699" y="-63.5" font-family="Helvetica,sans-Serif" font-size="10.00">ChordFromBlock.cpp</text>
</a>
</g>
</g>
<!-- Node1&#45;&gt;Node14 -->
<g id="edge13" class="edge">
<title>Node1&#45;&gt;Node14</title>
<path fill="none" stroke="midnightblue" d="M591.48,-108.77C617.59,-98.63 654.04,-84.47 677.08,-75.52"/>
<polygon fill="midnightblue" stroke="midnightblue" points="590.08,-105.56 582.02,-112.44 592.61,-112.08 590.08,-105.56"/>
</g>
<!-- Node3 -->
<g id="node3" class="node">
<title>Node3</title>
<g id="a_node3"><a xlink:href="a00035.xhtml" target="_top" xlink:title=" ">
<polygon fill="white" stroke="black" points="122.5,-0.5 122.5,-19.5 185.5,-19.5 185.5,-0.5 122.5,-0.5"/>
<text text-anchor="middle" x="154" y="-7.5" font-family="Helvetica,sans-Serif" font-size="10.00">AcaAll.cpp</text>
</a>
</g>
</g>
<!-- Node2&#45;&gt;Node3 -->
<g id="edge2" class="edge">
<title>Node2&#45;&gt;Node3</title>
<path fill="none" stroke="midnightblue" d="M485.83,-60.88C424.86,-53.9 299.9,-38.68 195,-20 191.99,-19.46 188.86,-18.86 185.73,-18.23"/>
<polygon fill="midnightblue" stroke="midnightblue" points="485.77,-64.39 496.1,-62.05 486.56,-57.44 485.77,-64.39"/>
</g>
<!-- Node4 -->
<g id="node4" class="node">
<title>Node4</title>
<g id="a_node4"><a xlink:href="a00017.xhtml" target="_top" xlink:title=" ">
<polygon fill="white" stroke="black" points="203.5,-0.5 203.5,-19.5 320.5,-19.5 320.5,-0.5 203.5,-0.5"/>
<text text-anchor="middle" x="262" y="-7.5" font-family="Helvetica,sans-Serif" font-size="10.00">ComputeBeatHisto.cpp</text>
</a>
</g>
</g>
<!-- Node2&#45;&gt;Node4 -->
<g id="edge3" class="edge">
<title>Node2&#45;&gt;Node4</title>
<path fill="none" stroke="midnightblue" d="M486.04,-57.35C437.8,-47.37 353.61,-29.95 303.31,-19.55"/>
<polygon fill="midnightblue" stroke="midnightblue" points="485.55,-60.83 496.05,-59.42 486.97,-53.97 485.55,-60.83"/>
</g>
<!-- Node2&#45;&gt;Node5 -->
<g id="edge4" class="edge">
<title>Node2&#45;&gt;Node5</title>
<path fill="none" stroke="midnightblue" d="M485.83,-61.34C413.93,-54.18 250.82,-37.45 114,-20 110.76,-19.59 107.43,-19.15 104.08,-18.69"/>
<polygon fill="midnightblue" stroke="midnightblue" points="485.87,-64.87 496.16,-62.37 486.56,-57.9 485.87,-64.87"/>
</g>
<!-- Node6 -->
<g id="node6" class="node">
<title>Node6</title>
<g id="a_node6"><a xlink:href="a00002.xhtml" target="_top" xlink:title=" ">
<polygon fill="white" stroke="black" points="338.5,-0.5 338.5,-19.5 445.5,-19.5 445.5,-0.5 338.5,-0.5"/>
<text text-anchor="middle" x="392" y="-7.5" font-family="Helvetica,sans-Serif" font-size="10.00">ComputeFeature.cpp</text>
</a>
</g>
</g>
<!-- Node2&#45;&gt;Node6 -->
<g id="edge5" class="edge">
<title>Node2&#45;&gt;Node6</title>
<path fill="none" stroke="midnightblue" d="M492.68,-52.5C468.12,-42.38 434.18,-28.39 412.66,-19.52"/>
<polygon fill="midnightblue" stroke="midnightblue" points="491.66,-55.87 502.24,-56.44 494.33,-49.4 491.66,-55.87"/>
</g>
<!-- Node7 -->
<g id="node7" class="node">
<title>Node7</title>
<g id="a_node7"><a xlink:href="a00020.xhtml" target="_top" xlink:title=" ">
<polygon fill="white" stroke="black" points="463.5,-0.5 463.5,-19.5 582.5,-19.5 582.5,-0.5 463.5,-0.5"/>
<text text-anchor="middle" x="523" y="-7.5" font-family="Helvetica,sans-Serif" font-size="10.00">ComputeFingerprint.cpp</text>
</a>
</g>
</g>
<!-- Node2&#45;&gt;Node7 -->
<g id="edge6" class="edge">
<title>Node2&#45;&gt;Node7</title>
<path fill="none" stroke="midnightblue" d="M523,-45.8C523,-36.91 523,-26.78 523,-19.75"/>
<polygon fill="midnightblue" stroke="midnightblue" points="519.5,-46.08 523,-56.08 526.5,-46.08 519.5,-46.08"/>
</g>
<!-- Node8 -->
<g id="node8" class="node">
<title>Node8</title>
<g id="a_node8"><a xlink:href="a00026.xhtml" target="_top" xlink:title=" ">
<polygon fill="white" stroke="black" points="601,-0.5 601,-19.5 691,-19.5 691,-0.5 601,-0.5"/>
<text text-anchor="middle" x="646" y="-7.5" font-family="Helvetica,sans-Serif" font-size="10.00">ComputeKey.cpp</text>
</a>
</g>
</g>
<!-- Node2&#45;&gt;Node8 -->
<g id="edge7" class="edge">
<title>Node2&#45;&gt;Node8</title>
<path fill="none" stroke="midnightblue" d="M551.77,-52.37C574.81,-42.26 606.48,-28.35 626.6,-19.52"/>
<polygon fill="midnightblue" stroke="midnightblue" points="550.24,-49.22 542.49,-56.44 553.05,-55.63 550.24,-49.22"/>
</g>
<!-- Node9 -->
<g id="node9" class="node">
<title>Node9</title>
<g id="a_node9"><a xlink:href="a00119.xhtml" target="_top" xlink:title=" ">
<polygon fill="white" stroke="black" points="709.5,-0.5 709.5,-19.5 854.5,-19.5 854.5,-0.5 709.5,-0.5"/>
<text text-anchor="middle" x="782" y="-7.5" font-family="Helvetica,sans-Serif" font-size="10.00">ComputeMelSpectrogram.cpp</text>
</a>
</g>
</g>
<!-- Node2&#45;&gt;Node9 -->
<g id="edge8" class="edge">
<title>Node2&#45;&gt;Node9</title>
<path fill="none" stroke="midnightblue" d="M559.63,-55.94C626.87,-40.87 693.56,-27.76 736.6,-19.53"/>
<polygon fill="midnightblue" stroke="midnightblue" points="558.69,-52.57 549.7,-58.18 560.23,-59.39 558.69,-52.57"/>
</g>
<!-- Node10 -->
<g id="node10" class="node">
<title>Node10</title>
<g id="a_node10"><a xlink:href="a00029.xhtml" target="_top" xlink:title=" ">
<polygon fill="white" stroke="black" points="873,-0.5 873,-19.5 1017,-19.5 1017,-0.5 873,-0.5"/>
<text text-anchor="middle" x="945" y="-7.5" font-family="Helvetica,sans-Serif" font-size="10.00">ComputeNoveltyFunction.cpp</text>
</a>
</g>
</g>
<!-- Node2&#45;&gt;Node10 -->
<g id="edge9" class="edge">
<title>Node2&#45;&gt;Node10</title>
<path fill="none" stroke="midnightblue" d="M559.82,-56.31C607.17,-49.46 774.87,-30.29 872.88,-19.16"/>
<polygon fill="midnightblue" stroke="midnightblue" points="558.98,-52.9 549.65,-57.93 560.08,-59.81 558.98,-52.9"/>
</g>
<!-- Node11 -->
<g id="node11" class="node">
<title>Node11</title>
<g id="a_node11"><a xlink:href="a00122.xhtml" target="_top" xlink:title=" ">
<polygon fill="white" stroke="black" points="1035,-0.5 1035,-19.5 1131,-19.5 1131,-0.5 1035,-0.5"/>
<text text-anchor="middle" x="1083" y="-7.5" font-family="Helvetica,sans-Serif" font-size="10.00">ComputePitch.cpp</text>
</a>
</g>
</g>
<!-- Node2&#45;&gt;Node11 -->
<g id="edge10" class="edge">
<title>Node2&#45;&gt;Node11</title>
<path fill="none" stroke="midnightblue" d="M559.59,-56.2C766.23,-23.3 822.48,-43.87 1026,-20 1028.89,-19.66 1031.85,-19.28 1034.84,-18.88"/>
<polygon fill="midnightblue" stroke="midnightblue" points="558.95,-52.76 549.63,-57.81 560.06,-59.67 558.95,-52.76"/>
</g>
<!-- Node12 -->
<g id="node12" class="node">
<title>Node12</title>
<g id="a_node12"><a xlink:href="a00014.xhtml" target="_top" xlink:title=" ">
<polygon fill="white" stroke="black" points="1149.5,-0.5 1149.5,-19.5 1278.5,-19.5 1278.5,-0.5 1149.5,-0.5"/>
<text text-anchor="middle" x="1214" y="-7.5" font-family="Helvetica,sans-Serif" font-size="10.00">ComputeSpectrogram.cpp</text>
</a>
</g>
</g>
<!-- Node2&#45;&gt;Node12 -->
<g id="edge11" class="edge">
<title>Node2&#45;&gt;Node12</title>
<path fill="none" stroke="midnightblue" d="M559.63,-56.23C816.43,-17.14 885.63,-43.33 1140,-20 1143.09,-19.72 1146.26,-19.41 1149.45,-19.08"/>
<polygon fill="midnightblue" stroke="midnightblue" points="558.98,-52.78 549.63,-57.77 560.04,-59.7 558.98,-52.78"/>
</g>
</g>
</svg>
