<?xml version="1.0" encoding="UTF-8" standalone="no"?>
<!DOCTYPE svg PUBLIC "-//W3C//DTD SVG 1.1//EN"
 "http://www.w3.org/Graphics/SVG/1.1/DTD/svg11.dtd">
<!-- Generated by graphviz version 4.0.0 (20220602.1335)
 -->
<!-- Title: Vector.h Pages: 1 -->
<!--zoomable 308 -->
<svg id="main" version="1.1" xmlns="http://www.w3.org/2000/svg" xmlns:xlink="http://www.w3.org/1999/xlink" xml:space="preserve" onload="init(evt)">
<style type="text/css"><![CDATA[
.edge:hover path { stroke: red; }
.edge:hover polygon { stroke: red; fill: red; }
]]></style>
<script type="text/javascript"><![CDATA[
var edges = document.getElementsByTagName('g');
if (edges && edges.length) {
  for (var i=0;i<edges.length;i++) {
    if (edges[i].id.substr(0,4)=='edge') {
      edges[i].setAttribute('class','edge');
    }
  }
}
]]></script>
        <defs>
                <circle id="rim" cx="0" cy="0" r="7"/>
                <circle id="rim2" cx="0" cy="0" r="3.5"/>
                <g id="zoomPlus">
                        <use xlink:href="#rim" fill="#404040">
                                <set attributeName="fill" to="#808080" begin="zoomplus.mouseover" end="zoomplus.mouseout"/>
                        </use>
                        <path d="M-4,0h8M0,-4v8" fill="none" stroke="white" stroke-width="1.5" pointer-events="none"/>
                </g>
                <g id="zoomMin">
                        <use xlink:href="#rim" fill="#404040">
                                <set attributeName="fill" to="#808080" begin="zoomminus.mouseover" end="zoomminus.mouseout"/>
                        </use>
                        <path d="M-4,0h8" fill="none" stroke="white" stroke-width="1.5" pointer-events="none"/>
                </g>
                <g id="dirArrow">
                        <path fill="none" stroke="white" stroke-width="1.5" d="M0,-3.0v7 M-2.5,-0.5L0,-3.0L2.5,-0.5"/>
                </g>
               <g id="resetDef">
                       <use xlink:href="#rim2" fill="#404040">
                               <set attributeName="fill" to="#808080" begin="reset.mouseover" end="reset.mouseout"/>
                       </use>
               </g>
        </defs>

<script type="text/javascript">
var viewWidth = 2610;
var viewHeight = 308;
var sectionId = 'dynsection-1';
</script>
<script xlink:href="svgpan.js"/>
<svg id="graph" class="graph">
<g id="viewport">
<title>Vector.h</title>
<polygon fill="white" stroke="transparent" points="-4,4 -4,-304 2605.5,-304 2605.5,4 -4,4"/>
<!-- Node1 -->
<g id="node1" class="node">
<title>Node1</title>
<g id="a_node1"><a xlink:title=" ">
<polygon fill="#bfbfbf" stroke="black" points="1601,-280.5 1601,-299.5 1654,-299.5 1654,-280.5 1601,-280.5"/>
<text text-anchor="middle" x="1627.5" y="-287.5" font-family="Helvetica,sans-Serif" font-size="10.00">Vector.h</text>
</a>
</g>
</g>
<!-- Node2 -->
<g id="node2" class="node">
<title>Node2</title>
<g id="a_node2"><a xlink:href="a00008.xhtml" target="_top" xlink:title=" ">
<polygon fill="white" stroke="black" points="456,-224.5 456,-243.5 531,-243.5 531,-224.5 456,-224.5"/>
<text text-anchor="middle" x="493.5" y="-231.5" font-family="Helvetica,sans-Serif" font-size="10.00">AudioFile.cpp</text>
</a>
</g>
</g>
<!-- Node1&#45;&gt;Node2 -->
<g id="edge1" class="edge">
<title>Node1&#45;&gt;Node2</title>
<path fill="none" stroke="midnightblue" d="M1590.82,-289.5C1452.54,-290.94 949.84,-292.34 539.5,-244 536.75,-243.68 533.92,-243.28 531.08,-242.84"/>
<polygon fill="midnightblue" stroke="midnightblue" points="1590.91,-293 1600.87,-289.38 1590.84,-286 1590.91,-293"/>
</g>
<!-- Node3 -->
<g id="node3" class="node">
<title>Node3</title>
<g id="a_node3"><a xlink:href="a00083.xhtml" target="_top" xlink:title=" ">
<polygon fill="white" stroke="black" points="741.5,-112.5 741.5,-131.5 819.5,-131.5 819.5,-112.5 741.5,-112.5"/>
<text text-anchor="middle" x="780.5" y="-119.5" font-family="Helvetica,sans-Serif" font-size="10.00">BeatHisto.cpp</text>
</a>
</g>
</g>
<!-- Node1&#45;&gt;Node3 -->
<g id="edge2" class="edge">
<title>Node1&#45;&gt;Node3</title>
<path fill="none" stroke="midnightblue" d="M1590.88,-288.47C1504.21,-286.66 1279.97,-278.72 1096.5,-244 1010.84,-227.79 989.41,-220.47 908.5,-188 890.42,-180.74 886.86,-176.84 869.5,-168 844.51,-155.27 815.5,-140.63 797.58,-131.6"/>
<polygon fill="midnightblue" stroke="midnightblue" points="1590.93,-291.97 1601,-288.67 1591.07,-284.97 1590.93,-291.97"/>
</g>
<!-- Node4 -->
<g id="node4" class="node">
<title>Node4</title>
<g id="a_node4"><a xlink:href="a00056.xhtml" target="_top" xlink:title=" ">
<polygon fill="white" stroke="black" points="1078,-168.5 1078,-187.5 1185,-187.5 1185,-168.5 1078,-168.5"/>
<text text-anchor="middle" x="1131.5" y="-175.5" font-family="Helvetica,sans-Serif" font-size="10.00">ChordFromBlock.cpp</text>
</a>
</g>
</g>
<!-- Node1&#45;&gt;Node4 -->
<g id="edge3" class="edge">
<title>Node1&#45;&gt;Node4</title>
<path fill="none" stroke="midnightblue" d="M1590.49,-283.8C1539.7,-276.4 1445.67,-261.73 1366.5,-244 1290.7,-227.03 1202.82,-200.99 1159.13,-187.6"/>
<polygon fill="midnightblue" stroke="midnightblue" points="1590.25,-287.3 1600.65,-285.27 1591.25,-280.37 1590.25,-287.3"/>
</g>
<!-- Node5 -->
<g id="node5" class="node">
<title>Node5</title>
<g id="a_node5"><a xlink:href="a00038.xhtml" target="_top" xlink:title=" ">
<polygon fill="white" stroke="black" points="1203,-168.5 1203,-187.5 1318,-187.5 1318,-168.5 1203,-168.5"/>
<text text-anchor="middle" x="1260.5" y="-175.5" font-family="Helvetica,sans-Serif" font-size="10.00">FeatureFromBlock.cpp</text>
</a>
</g>
</g>
<!-- Node1&#45;&gt;Node5 -->
<g id="edge4" class="edge">
<title>Node1&#45;&gt;Node5</title>
<path fill="none" stroke="midnightblue" d="M1590.84,-282.54C1550.22,-274.98 1482.97,-261.27 1426.5,-244 1372.04,-227.35 1310.11,-201.05 1279.58,-187.58"/>
<polygon fill="midnightblue" stroke="midnightblue" points="1590.36,-286.01 1600.82,-284.37 1591.62,-279.13 1590.36,-286.01"/>
</g>
<!-- Node6 -->
<g id="node6" class="node">
<title>Node6</title>
<g id="a_node6"><a xlink:href="a00071.xhtml" target="_top" xlink:title=" ">
<polygon fill="white" stroke="black" points="2335,-224.5 2335,-243.5 2382,-243.5 2382,-224.5 2335,-224.5"/>
<text text-anchor="middle" x="2358.5" y="-231.5" font-family="Helvetica,sans-Serif" font-size="10.00">Fft.cpp</text>
</a>
</g>
</g>
<!-- Node1&#45;&gt;Node6 -->
<g id="edge5" class="edge">
<title>Node1&#45;&gt;Node6</title>
<path fill="none" stroke="midnightblue" d="M1664.37,-288.78C1768.21,-287.68 2071.75,-281.26 2320.5,-244 2325.19,-243.3 2330.16,-242.31 2334.9,-241.24"/>
<polygon fill="midnightblue" stroke="midnightblue" points="1664.07,-285.28 1654.11,-288.87 1664.14,-292.28 1664.07,-285.28"/>
</g>
<!-- Node7 -->
<g id="node7" class="node">
<title>Node7</title>
<g id="a_node7"><a xlink:href="a00149.xhtml" target="_top" xlink:title=" ">
<polygon fill="white" stroke="black" points="917.5,-168.5 917.5,-187.5 963.5,-187.5 963.5,-168.5 917.5,-168.5"/>
<text text-anchor="middle" x="940.5" y="-175.5" font-family="Helvetica,sans-Serif" font-size="10.00">Filter.h</text>
</a>
</g>
</g>
<!-- Node1&#45;&gt;Node7 -->
<g id="edge6" class="edge">
<title>Node1&#45;&gt;Node7</title>
<path fill="none" stroke="midnightblue" d="M1590.37,-287.02C1514.8,-282.58 1337.87,-270.12 1191.5,-244 1106.42,-228.82 1007.77,-199.85 963.77,-186.31"/>
<polygon fill="midnightblue" stroke="midnightblue" points="1590.58,-290.54 1600.77,-287.62 1590.98,-283.55 1590.58,-290.54"/>
</g>
<!-- Node8 -->
<g id="node8" class="node">
<title>Node8</title>
<g id="a_node8"><a xlink:href="a00098.xhtml" target="_top" xlink:title=" ">
<polygon fill="white" stroke="black" points="515.5,-112.5 515.5,-131.5 619.5,-131.5 619.5,-112.5 515.5,-112.5"/>
<text text-anchor="middle" x="567.5" y="-119.5" font-family="Helvetica,sans-Serif" font-size="10.00">PitchFromBlock.cpp</text>
</a>
</g>
</g>
<!-- Node1&#45;&gt;Node8 -->
<g id="edge54" class="edge">
<title>Node1&#45;&gt;Node8</title>
<path fill="none" stroke="midnightblue" d="M1590.41,-288.52C1429.95,-286.25 799.95,-275.42 717.5,-244 652.47,-219.22 594.09,-154.83 574.48,-131.55"/>
<polygon fill="midnightblue" stroke="midnightblue" points="1590.67,-292.02 1600.71,-288.66 1590.76,-285.02 1590.67,-292.02"/>
</g>
<!-- Node22 -->
<g id="node22" class="node">
<title>Node22</title>
<g id="a_node22"><a xlink:href="a00068.xhtml" target="_top" xlink:title=" ">
<polygon fill="white" stroke="black" points="1322,-56.5 1322,-75.5 1421,-75.5 1421,-56.5 1322,-56.5"/>
<text text-anchor="middle" x="1371.5" y="-63.5" font-family="Helvetica,sans-Serif" font-size="10.00">ToolFingerprint.cpp</text>
</a>
</g>
</g>
<!-- Node1&#45;&gt;Node22 -->
<g id="edge58" class="edge">
<title>Node1&#45;&gt;Node22</title>
<path fill="none" stroke="midnightblue" d="M1664.17,-288.62C1772.97,-287.08 2092.44,-279.57 2189.5,-244 2234.95,-227.34 2299.75,-204.09 2267.5,-168 2210.65,-104.38 1600.88,-75.87 1421.11,-68.81"/>
<polygon fill="midnightblue" stroke="midnightblue" points="1663.97,-285.12 1654.02,-288.75 1664.06,-292.12 1663.97,-285.12"/>
</g>
<!-- Node23 -->
<g id="node23" class="node">
<title>Node23</title>
<g id="a_node23"><a xlink:href="a00134.xhtml" target="_top" xlink:title=" ">
<polygon fill="white" stroke="black" points="727,-224.5 727,-243.5 824,-243.5 824,-224.5 727,-224.5"/>
<text text-anchor="middle" x="775.5" y="-231.5" font-family="Helvetica,sans-Serif" font-size="10.00">KeyFromChroma.h</text>
</a>
</g>
</g>
<!-- Node1&#45;&gt;Node23 -->
<g id="edge22" class="edge">
<title>Node1&#45;&gt;Node23</title>
<path fill="none" stroke="midnightblue" d="M1590.68,-287.19C1481.5,-281.73 1150.03,-264.56 875.5,-244 858.73,-242.74 840.39,-241.16 824.05,-239.66"/>
<polygon fill="midnightblue" stroke="midnightblue" points="1590.68,-290.69 1600.84,-287.69 1591.03,-283.7 1590.68,-290.69"/>
</g>
<!-- Node26 -->
<g id="node26" class="node">
<title>Node26</title>
<g id="a_node26"><a xlink:href="a00146.xhtml" target="_top" xlink:title=" ">
<polygon fill="white" stroke="black" points="1435.5,-224.5 1435.5,-243.5 1485.5,-243.5 1485.5,-224.5 1435.5,-224.5"/>
<text text-anchor="middle" x="1460.5" y="-231.5" font-family="Helvetica,sans-Serif" font-size="10.00">Matrix.h</text>
</a>
</g>
</g>
<!-- Node1&#45;&gt;Node26 -->
<g id="edge26" class="edge">
<title>Node1&#45;&gt;Node26</title>
<path fill="none" stroke="midnightblue" d="M1591.21,-277.27C1559.34,-266.96 1513.8,-252.23 1485.74,-243.16"/>
<polygon fill="midnightblue" stroke="midnightblue" points="1590.45,-280.7 1601.04,-280.44 1592.6,-274.04 1590.45,-280.7"/>
</g>
<!-- Node29 -->
<g id="node29" class="node">
<title>Node29</title>
<g id="a_node29"><a xlink:href="a00089.xhtml" target="_top" xlink:title=" ">
<polygon fill="white" stroke="black" points="1578.5,-168.5 1578.5,-187.5 1676.5,-187.5 1676.5,-168.5 1578.5,-168.5"/>
<text text-anchor="middle" x="1627.5" y="-175.5" font-family="Helvetica,sans-Serif" font-size="10.00">SubFingerprint.cpp</text>
</a>
</g>
</g>
<!-- Node1&#45;&gt;Node29 -->
<g id="edge55" class="edge">
<title>Node1&#45;&gt;Node29</title>
<path fill="none" stroke="midnightblue" d="M1627.5,-270.35C1627.5,-246.25 1627.5,-205.31 1627.5,-187.59"/>
<polygon fill="midnightblue" stroke="midnightblue" points="1624,-270.37 1627.5,-280.37 1631,-270.37 1624,-270.37"/>
</g>
<!-- Node30 -->
<g id="node30" class="node">
<title>Node30</title>
<g id="a_node30"><a xlink:href="a00077.xhtml" target="_top" xlink:title=" ">
<polygon fill="white" stroke="black" points="1512,-112.5 1512,-131.5 1615,-131.5 1615,-112.5 1512,-112.5"/>
<text text-anchor="middle" x="1563.5" y="-119.5" font-family="Helvetica,sans-Serif" font-size="10.00">ToolBlockAudio.cpp</text>
</a>
</g>
</g>
<!-- Node1&#45;&gt;Node30 -->
<g id="edge56" class="edge">
<title>Node1&#45;&gt;Node30</title>
<path fill="none" stroke="midnightblue" d="M1664.4,-287.79C1809.97,-282.37 2332.49,-256.62 2249.5,-168 2206.41,-121.99 1767.31,-121.27 1615.11,-122.43"/>
<polygon fill="midnightblue" stroke="midnightblue" points="1664.06,-284.3 1654.19,-288.16 1664.31,-291.29 1664.06,-284.3"/>
</g>
<!-- Node32 -->
<g id="node32" class="node">
<title>Node32</title>
<g id="a_node32"><a xlink:href="a00059.xhtml" target="_top" xlink:title=" ">
<polygon fill="white" stroke="black" points="1695,-168.5 1695,-187.5 1766,-187.5 1766,-168.5 1695,-168.5"/>
<text text-anchor="middle" x="1730.5" y="-175.5" font-family="Helvetica,sans-Serif" font-size="10.00">ToolPca.cpp</text>
</a>
</g>
</g>
<!-- Node1&#45;&gt;Node32 -->
<g id="edge61" class="edge">
<title>Node1&#45;&gt;Node32</title>
<path fill="none" stroke="midnightblue" d="M1642.58,-272.9C1664.72,-249.25 1705.27,-205.95 1722.46,-187.59"/>
<polygon fill="midnightblue" stroke="midnightblue" points="1639.86,-270.68 1635.58,-280.37 1644.97,-275.46 1639.86,-270.68"/>
</g>
<!-- Node33 -->
<g id="node33" class="node">
<title>Node33</title>
<g id="a_node33"><a xlink:href="a00131.xhtml" target="_top" xlink:title=" ">
<polygon fill="white" stroke="black" points="981.5,-168.5 981.5,-187.5 1059.5,-187.5 1059.5,-168.5 981.5,-168.5"/>
<text text-anchor="middle" x="1020.5" y="-175.5" font-family="Helvetica,sans-Serif" font-size="10.00">ToolPreProc.h</text>
</a>
</g>
</g>
<!-- Node1&#45;&gt;Node33 -->
<g id="edge62" class="edge">
<title>Node1&#45;&gt;Node33</title>
<path fill="none" stroke="midnightblue" d="M1590.3,-285.52C1526.96,-279.28 1394.29,-264.87 1283.5,-244 1197.99,-227.89 1098.72,-201.12 1050.24,-187.51"/>
<polygon fill="midnightblue" stroke="midnightblue" points="1590.28,-289.03 1600.58,-286.52 1590.96,-282.06 1590.28,-289.03"/>
</g>
<!-- Node37 -->
<g id="node37" class="node">
<title>Node37</title>
<g id="a_node37"><a xlink:href="a00062.xhtml" target="_top" xlink:title=" ">
<polygon fill="white" stroke="black" points="1784,-168.5 1784,-187.5 1885,-187.5 1885,-168.5 1784,-168.5"/>
<text text-anchor="middle" x="1834.5" y="-175.5" font-family="Helvetica,sans-Serif" font-size="10.00">ToolSimpleDtw.cpp</text>
</a>
</g>
</g>
<!-- Node1&#45;&gt;Node37 -->
<g id="edge63" class="edge">
<title>Node1&#45;&gt;Node37</title>
<path fill="none" stroke="midnightblue" d="M1652.73,-275.59C1695.83,-252.69 1782.43,-206.67 1818.33,-187.59"/>
<polygon fill="midnightblue" stroke="midnightblue" points="1650.93,-272.59 1643.74,-280.37 1654.22,-278.77 1650.93,-272.59"/>
</g>
<!-- Node38 -->
<g id="node38" class="node">
<title>Node38</title>
<g id="a_node38"><a xlink:href="a00041.xhtml" target="_top" xlink:title=" ">
<polygon fill="white" stroke="black" points="1903,-168.5 1903,-187.5 2022,-187.5 2022,-168.5 1903,-168.5"/>
<text text-anchor="middle" x="1962.5" y="-175.5" font-family="Helvetica,sans-Serif" font-size="10.00">ToolSimpleKmeans.cpp</text>
</a>
</g>
</g>
<!-- Node1&#45;&gt;Node38 -->
<g id="edge64" class="edge">
<title>Node1&#45;&gt;Node38</title>
<path fill="none" stroke="midnightblue" d="M1663.31,-277.24C1731.1,-254.98 1876.7,-207.17 1936.28,-187.61"/>
<polygon fill="midnightblue" stroke="midnightblue" points="1661.92,-274.01 1653.51,-280.46 1664.1,-280.67 1661.92,-274.01"/>
</g>
<!-- Node39 -->
<g id="node39" class="node">
<title>Node39</title>
<g id="a_node39"><a xlink:href="a00044.xhtml" target="_top" xlink:title=" ">
<polygon fill="white" stroke="black" points="2040,-168.5 2040,-187.5 2141,-187.5 2141,-168.5 2040,-168.5"/>
<text text-anchor="middle" x="2090.5" y="-175.5" font-family="Helvetica,sans-Serif" font-size="10.00">ToolSimpleKnn.cpp</text>
</a>
</g>
</g>
<!-- Node1&#45;&gt;Node39 -->
<g id="edge65" class="edge">
<title>Node1&#45;&gt;Node39</title>
<path fill="none" stroke="midnightblue" d="M1663.96,-280.34C1750.65,-259.74 1968.25,-208.04 2054.49,-187.56"/>
<polygon fill="midnightblue" stroke="midnightblue" points="1662.98,-276.97 1654.06,-282.69 1664.59,-283.78 1662.98,-276.97"/>
</g>
<!-- Node40 -->
<g id="node40" class="node">
<title>Node40</title>
<g id="a_node40"><a xlink:href="a00080.xhtml" target="_top" xlink:title=" ">
<polygon fill="white" stroke="black" points="2159,-168.5 2159,-187.5 2240,-187.5 2240,-168.5 2159,-168.5"/>
<text text-anchor="middle" x="2199.5" y="-175.5" font-family="Helvetica,sans-Serif" font-size="10.00">ToolViterbi.cpp</text>
</a>
</g>
</g>
<!-- Node1&#45;&gt;Node40 -->
<g id="edge66" class="edge">
<title>Node1&#45;&gt;Node40</title>
<path fill="none" stroke="midnightblue" d="M1664.26,-282.42C1712.22,-273.8 1798.7,-258.11 1872.5,-244 1975.69,-224.27 2096.93,-199.84 2158.75,-187.3"/>
<polygon fill="midnightblue" stroke="midnightblue" points="1663.58,-278.99 1654.35,-284.2 1664.81,-285.88 1663.58,-278.99"/>
</g>
<!-- Node41 -->
<g id="node41" class="node">
<title>Node41</title>
<g id="a_node41"><a xlink:href="a00065.xhtml" target="_top" xlink:title=" ">
<polygon fill="white" stroke="black" points="2400,-224.5 2400,-243.5 2515,-243.5 2515,-224.5 2400,-224.5"/>
<text text-anchor="middle" x="2457.5" y="-231.5" font-family="Helvetica,sans-Serif" font-size="10.00">NoveltyFromBlock.cpp</text>
</a>
</g>
</g>
<!-- Node1&#45;&gt;Node41 -->
<g id="edge53" class="edge">
<title>Node1&#45;&gt;Node41</title>
<path fill="none" stroke="midnightblue" d="M1664.58,-287.82C1775.25,-284.1 2112.82,-271.17 2391.5,-244 2394.26,-243.73 2397.09,-243.43 2399.94,-243.11"/>
<polygon fill="midnightblue" stroke="midnightblue" points="1664.16,-284.34 1654.29,-288.17 1664.4,-291.33 1664.16,-284.34"/>
</g>
<!-- Node42 -->
<g id="node42" class="node">
<title>Node42</title>
<g id="a_node42"><a xlink:href="a00101.xhtml" target="_top" xlink:title=" ">
<polygon fill="white" stroke="black" points="2533.5,-224.5 2533.5,-243.5 2601.5,-243.5 2601.5,-224.5 2533.5,-224.5"/>
<text text-anchor="middle" x="2567.5" y="-231.5" font-family="Helvetica,sans-Serif" font-size="10.00">ToolCcf.cpp</text>
</a>
</g>
</g>
<!-- Node1&#45;&gt;Node42 -->
<g id="edge57" class="edge">
<title>Node1&#45;&gt;Node42</title>
<path fill="none" stroke="midnightblue" d="M1664.38,-289.21C1787.11,-289.46 2192.75,-286.77 2524.5,-244 2527.37,-243.63 2530.34,-243.17 2533.31,-242.66"/>
<polygon fill="midnightblue" stroke="midnightblue" points="1664.06,-285.71 1654.05,-289.18 1664.04,-292.71 1664.06,-285.71"/>
</g>
<!-- Node43 -->
<g id="node43" class="node">
<title>Node43</title>
<g id="a_node43"><a xlink:href="a00194.xhtml" target="_top" xlink:title=" ">
<polygon fill="white" stroke="black" points="549,-224.5 549,-243.5 628,-243.5 628,-224.5 549,-224.5"/>
<text text-anchor="middle" x="588.5" y="-231.5" font-family="Helvetica,sans-Serif" font-size="10.00">ToolInstFreq.h</text>
</a>
</g>
</g>
<!-- Node1&#45;&gt;Node43 -->
<g id="edge59" class="edge">
<title>Node1&#45;&gt;Node43</title>
<path fill="none" stroke="midnightblue" d="M1590.56,-288.9C1460.37,-288.21 1010.92,-282.98 642.5,-244 637.87,-243.51 633.03,-242.88 628.24,-242.18"/>
<polygon fill="midnightblue" stroke="midnightblue" points="1590.75,-292.4 1600.77,-288.95 1590.79,-285.4 1590.75,-292.4"/>
</g>
<!-- Node7&#45;&gt;Node8 -->
<g id="edge7" class="edge">
<title>Node7&#45;&gt;Node8</title>
<path fill="none" stroke="midnightblue" d="M907.18,-172.23C850.11,-164.05 730,-146.81 628.5,-132 625.64,-131.58 622.7,-131.15 619.74,-130.72"/>
<polygon fill="midnightblue" stroke="midnightblue" points="907.01,-175.74 917.4,-173.69 908,-168.81 907.01,-175.74"/>
</g>
<!-- Node9 -->
<g id="node9" class="node">
<title>Node9</title>
<g id="a_node9"><a xlink:href="a00104.xhtml" target="_top" xlink:title=" ">
<polygon fill="white" stroke="black" points="838,-112.5 838,-131.5 945,-131.5 945,-112.5 838,-112.5"/>
<text text-anchor="middle" x="891.5" y="-119.5" font-family="Helvetica,sans-Serif" font-size="10.00">ToolGammatone.cpp</text>
</a>
</g>
</g>
<!-- Node7&#45;&gt;Node9 -->
<g id="edge8" class="edge">
<title>Node7&#45;&gt;Node9</title>
<path fill="none" stroke="midnightblue" d="M925.47,-160.43C916.88,-150.97 906.46,-139.48 899.44,-131.75"/>
<polygon fill="midnightblue" stroke="midnightblue" points="923.1,-163.03 932.41,-168.08 928.28,-158.33 923.1,-163.03"/>
</g>
<!-- Node10 -->
<g id="node10" class="node">
<title>Node10</title>
<g id="a_node10"><a xlink:href="a00206.xhtml" target="_top" xlink:title=" ">
<polygon fill="white" stroke="black" points="637.5,-112.5 637.5,-131.5 723.5,-131.5 723.5,-112.5 637.5,-112.5"/>
<text text-anchor="middle" x="680.5" y="-119.5" font-family="Helvetica,sans-Serif" font-size="10.00">ToolResample.h</text>
</a>
</g>
</g>
<!-- Node7&#45;&gt;Node10 -->
<g id="edge9" class="edge">
<title>Node7&#45;&gt;Node10</title>
<path fill="none" stroke="midnightblue" d="M907.4,-170.13C860.08,-160.3 773.12,-142.24 721.69,-131.56"/>
<polygon fill="midnightblue" stroke="midnightblue" points="906.92,-173.6 917.43,-172.21 908.35,-166.75 906.92,-173.6"/>
</g>
<!-- Node11 -->
<g id="node11" class="node">
<title>Node11</title>
<g id="a_node11"><a xlink:href="a00209.xhtml" target="_top" xlink:title=" ">
<polygon fill="white" stroke="black" points="558,-56.5 558,-75.5 611,-75.5 611,-56.5 558,-56.5"/>
<text text-anchor="middle" x="584.5" y="-63.5" font-family="Helvetica,sans-Serif" font-size="10.00">AcaAll.h</text>
</a>
</g>
</g>
<!-- Node10&#45;&gt;Node11 -->
<g id="edge10" class="edge">
<title>Node10&#45;&gt;Node11</title>
<path fill="none" stroke="midnightblue" d="M655.93,-107.18C638.26,-97.24 614.99,-84.15 599.89,-75.65"/>
<polygon fill="midnightblue" stroke="midnightblue" points="654.64,-110.47 665.08,-112.32 658.08,-104.37 654.64,-110.47"/>
</g>
<!-- Node10&#45;&gt;Node22 -->
<g id="edge21" class="edge">
<title>Node10&#45;&gt;Node22</title>
<path fill="none" stroke="midnightblue" d="M733.6,-111.99C958.76,-85.09 1215.38,-72.99 1321.62,-68.8"/>
<polygon fill="midnightblue" stroke="midnightblue" points="733.09,-108.53 723.58,-113.2 733.93,-115.47 733.09,-108.53"/>
</g>
<!-- Node12 -->
<g id="node12" class="node">
<title>Node12</title>
<g id="a_node12"><a xlink:href="a00035.xhtml" target="_top" xlink:title=" ">
<polygon fill="white" stroke="black" points="0,-0.5 0,-19.5 63,-19.5 63,-0.5 0,-0.5"/>
<text text-anchor="middle" x="31.5" y="-7.5" font-family="Helvetica,sans-Serif" font-size="10.00">AcaAll.cpp</text>
</a>
</g>
</g>
<!-- Node11&#45;&gt;Node12 -->
<g id="edge11" class="edge">
<title>Node11&#45;&gt;Node12</title>
<path fill="none" stroke="midnightblue" d="M547.81,-63.47C463.34,-59.58 248.77,-47.59 71.5,-20 68.83,-19.58 66.07,-19.09 63.3,-18.56"/>
<polygon fill="midnightblue" stroke="midnightblue" points="547.77,-66.97 557.92,-63.92 548.09,-59.98 547.77,-66.97"/>
</g>
<!-- Node13 -->
<g id="node13" class="node">
<title>Node13</title>
<g id="a_node13"><a xlink:href="a00017.xhtml" target="_top" xlink:title=" ">
<polygon fill="white" stroke="black" points="81,-0.5 81,-19.5 198,-19.5 198,-0.5 81,-0.5"/>
<text text-anchor="middle" x="139.5" y="-7.5" font-family="Helvetica,sans-Serif" font-size="10.00">ComputeBeatHisto.cpp</text>
</a>
</g>
</g>
<!-- Node11&#45;&gt;Node13 -->
<g id="edge12" class="edge">
<title>Node11&#45;&gt;Node13</title>
<path fill="none" stroke="midnightblue" d="M547.87,-60.79C480.47,-53 332.28,-35.7 207.5,-20 204.43,-19.61 201.28,-19.21 198.1,-18.8"/>
<polygon fill="midnightblue" stroke="midnightblue" points="547.64,-64.28 557.98,-61.95 548.44,-57.33 547.64,-64.28"/>
</g>
<!-- Node14 -->
<g id="node14" class="node">
<title>Node14</title>
<g id="a_node14"><a xlink:href="a00023.xhtml" target="_top" xlink:title=" ">
<polygon fill="white" stroke="black" points="216.5,-0.5 216.5,-19.5 320.5,-19.5 320.5,-0.5 216.5,-0.5"/>
<text text-anchor="middle" x="268.5" y="-7.5" font-family="Helvetica,sans-Serif" font-size="10.00">ComputeChords.cpp</text>
</a>
</g>
</g>
<!-- Node11&#45;&gt;Node14 -->
<g id="edge13" class="edge">
<title>Node11&#45;&gt;Node14</title>
<path fill="none" stroke="midnightblue" d="M547.88,-58.74C491.17,-49.05 382.04,-30.4 318.24,-19.5"/>
<polygon fill="midnightblue" stroke="midnightblue" points="547.38,-62.21 557.83,-60.44 548.56,-55.31 547.38,-62.21"/>
</g>
<!-- Node15 -->
<g id="node15" class="node">
<title>Node15</title>
<g id="a_node15"><a xlink:href="a00002.xhtml" target="_top" xlink:title=" ">
<polygon fill="white" stroke="black" points="339,-0.5 339,-19.5 446,-19.5 446,-0.5 339,-0.5"/>
<text text-anchor="middle" x="392.5" y="-7.5" font-family="Helvetica,sans-Serif" font-size="10.00">ComputeFeature.cpp</text>
</a>
</g>
</g>
<!-- Node11&#45;&gt;Node15 -->
<g id="edge14" class="edge">
<title>Node11&#45;&gt;Node15</title>
<path fill="none" stroke="midnightblue" d="M548.1,-54.76C511.81,-44.56 456.73,-29.06 422.76,-19.51"/>
<polygon fill="midnightblue" stroke="midnightblue" points="547.23,-58.15 557.8,-57.49 549.12,-51.41 547.23,-58.15"/>
</g>
<!-- Node16 -->
<g id="node16" class="node">
<title>Node16</title>
<g id="a_node16"><a xlink:href="a00020.xhtml" target="_top" xlink:title=" ">
<polygon fill="white" stroke="black" points="464,-0.5 464,-19.5 583,-19.5 583,-0.5 464,-0.5"/>
<text text-anchor="middle" x="523.5" y="-7.5" font-family="Helvetica,sans-Serif" font-size="10.00">ComputeFingerprint.cpp</text>
</a>
</g>
</g>
<!-- Node11&#45;&gt;Node16 -->
<g id="edge15" class="edge">
<title>Node11&#45;&gt;Node16</title>
<path fill="none" stroke="midnightblue" d="M567.03,-49.54C556.16,-39.91 542.56,-27.87 533.48,-19.83"/>
<polygon fill="midnightblue" stroke="midnightblue" points="564.89,-52.32 574.7,-56.32 569.53,-47.07 564.89,-52.32"/>
</g>
<!-- Node17 -->
<g id="node17" class="node">
<title>Node17</title>
<g id="a_node17"><a xlink:href="a00026.xhtml" target="_top" xlink:title=" ">
<polygon fill="white" stroke="black" points="601.5,-0.5 601.5,-19.5 691.5,-19.5 691.5,-0.5 601.5,-0.5"/>
<text text-anchor="middle" x="646.5" y="-7.5" font-family="Helvetica,sans-Serif" font-size="10.00">ComputeKey.cpp</text>
</a>
</g>
</g>
<!-- Node11&#45;&gt;Node17 -->
<g id="edge16" class="edge">
<title>Node11&#45;&gt;Node17</title>
<path fill="none" stroke="midnightblue" d="M602.25,-49.54C613.31,-39.91 627.13,-27.87 636.36,-19.83"/>
<polygon fill="midnightblue" stroke="midnightblue" points="599.7,-47.12 594.46,-56.32 604.3,-52.4 599.7,-47.12"/>
</g>
<!-- Node18 -->
<g id="node18" class="node">
<title>Node18</title>
<g id="a_node18"><a xlink:href="a00110.xhtml" target="_top" xlink:title=" ">
<polygon fill="white" stroke="black" points="710,-0.5 710,-19.5 855,-19.5 855,-0.5 710,-0.5"/>
<text text-anchor="middle" x="782.5" y="-7.5" font-family="Helvetica,sans-Serif" font-size="10.00">ComputeMelSpectrogram.cpp</text>
</a>
</g>
</g>
<!-- Node11&#45;&gt;Node18 -->
<g id="edge17" class="edge">
<title>Node11&#45;&gt;Node18</title>
<path fill="none" stroke="midnightblue" d="M621.16,-55C658.47,-44.83 715.68,-29.22 751,-19.59"/>
<polygon fill="midnightblue" stroke="midnightblue" points="619.93,-51.71 611.2,-57.72 621.77,-58.46 619.93,-51.71"/>
</g>
<!-- Node19 -->
<g id="node19" class="node">
<title>Node19</title>
<g id="a_node19"><a xlink:href="a00029.xhtml" target="_top" xlink:title=" ">
<polygon fill="white" stroke="black" points="873.5,-0.5 873.5,-19.5 1017.5,-19.5 1017.5,-0.5 873.5,-0.5"/>
<text text-anchor="middle" x="945.5" y="-7.5" font-family="Helvetica,sans-Serif" font-size="10.00">ComputeNoveltyFunction.cpp</text>
</a>
</g>
</g>
<!-- Node11&#45;&gt;Node19 -->
<g id="edge18" class="edge">
<title>Node11&#45;&gt;Node19</title>
<path fill="none" stroke="midnightblue" d="M621.31,-59.49C684.39,-50.06 813.57,-30.74 888.42,-19.54"/>
<polygon fill="midnightblue" stroke="midnightblue" points="620.42,-56.09 611.05,-61.03 621.45,-63.01 620.42,-56.09"/>
</g>
<!-- Node20 -->
<g id="node20" class="node">
<title>Node20</title>
<g id="a_node20"><a xlink:href="a00113.xhtml" target="_top" xlink:title=" ">
<polygon fill="white" stroke="black" points="1035.5,-0.5 1035.5,-19.5 1131.5,-19.5 1131.5,-0.5 1035.5,-0.5"/>
<text text-anchor="middle" x="1083.5" y="-7.5" font-family="Helvetica,sans-Serif" font-size="10.00">ComputePitch.cpp</text>
</a>
</g>
</g>
<!-- Node11&#45;&gt;Node20 -->
<g id="edge19" class="edge">
<title>Node11&#45;&gt;Node20</title>
<path fill="none" stroke="midnightblue" d="M621.22,-61.95C697.08,-55.5 876.55,-39.46 1026.5,-20 1029.38,-19.63 1032.34,-19.22 1035.32,-18.8"/>
<polygon fill="midnightblue" stroke="midnightblue" points="620.88,-58.47 611.21,-62.8 621.47,-65.44 620.88,-58.47"/>
</g>
<!-- Node21 -->
<g id="node21" class="node">
<title>Node21</title>
<g id="a_node21"><a xlink:href="a00014.xhtml" target="_top" xlink:title=" ">
<polygon fill="white" stroke="black" points="1150,-0.5 1150,-19.5 1279,-19.5 1279,-0.5 1150,-0.5"/>
<text text-anchor="middle" x="1214.5" y="-7.5" font-family="Helvetica,sans-Serif" font-size="10.00">ComputeSpectrogram.cpp</text>
</a>
</g>
</g>
<!-- Node11&#45;&gt;Node21 -->
<g id="edge20" class="edge">
<title>Node11&#45;&gt;Node21</title>
<path fill="none" stroke="midnightblue" d="M621.29,-62.54C710.46,-56.46 945.14,-39.78 1140.5,-20 1143.59,-19.69 1146.75,-19.35 1149.94,-19.01"/>
<polygon fill="midnightblue" stroke="midnightblue" points="620.89,-59.06 611.15,-63.23 621.37,-66.04 620.89,-59.06"/>
</g>
<!-- Node23&#45;&gt;Node11 -->
<g id="edge23" class="edge">
<title>Node23&#45;&gt;Node11</title>
<path fill="none" stroke="midnightblue" d="M716.63,-229.57C652.77,-222.33 553.66,-200.08 506.5,-132 489.34,-107.22 529.9,-86.54 558.74,-75.54"/>
<polygon fill="midnightblue" stroke="midnightblue" points="716.64,-233.09 726.95,-230.64 717.37,-226.13 716.64,-233.09"/>
</g>
<!-- Node24 -->
<g id="node24" class="node">
<title>Node24</title>
<g id="a_node24"><a xlink:href="a00032.xhtml" target="_top" xlink:title=" ">
<polygon fill="white" stroke="black" points="810,-168.5 810,-187.5 861,-187.5 861,-168.5 810,-168.5"/>
<text text-anchor="middle" x="835.5" y="-175.5" font-family="Helvetica,sans-Serif" font-size="10.00">Key.cpp</text>
</a>
</g>
</g>
<!-- Node23&#45;&gt;Node24 -->
<g id="edge24" class="edge">
<title>Node23&#45;&gt;Node24</title>
<path fill="none" stroke="midnightblue" d="M792.68,-217.54C803.38,-207.91 816.76,-195.87 825.68,-187.83"/>
<polygon fill="midnightblue" stroke="midnightblue" points="790.23,-215.03 785.14,-224.32 794.91,-220.24 790.23,-215.03"/>
</g>
<!-- Node25 -->
<g id="node25" class="node">
<title>Node25</title>
<g id="a_node25"><a xlink:href="a00095.xhtml" target="_top" xlink:title=" ">
<polygon fill="white" stroke="black" points="685,-168.5 685,-187.5 792,-187.5 792,-168.5 685,-168.5"/>
<text text-anchor="middle" x="738.5" y="-175.5" font-family="Helvetica,sans-Serif" font-size="10.00">KeyFromChroma.cpp</text>
</a>
</g>
</g>
<!-- Node23&#45;&gt;Node25 -->
<g id="edge25" class="edge">
<title>Node23&#45;&gt;Node25</title>
<path fill="none" stroke="midnightblue" d="M763.55,-215.57C757.19,-206.27 749.63,-195.25 744.5,-187.75"/>
<polygon fill="midnightblue" stroke="midnightblue" points="760.85,-217.81 769.39,-224.08 766.63,-213.86 760.85,-217.81"/>
</g>
<!-- Node26&#45;&gt;Node4 -->
<g id="edge28" class="edge">
<title>Node26&#45;&gt;Node4</title>
<path fill="none" stroke="midnightblue" d="M1425.06,-227.18C1366.88,-217.63 1250.84,-198.59 1183.39,-187.52"/>
<polygon fill="midnightblue" stroke="midnightblue" points="1424.8,-230.69 1435.23,-228.85 1425.93,-223.78 1424.8,-230.69"/>
</g>
<!-- Node26&#45;&gt;Node5 -->
<g id="edge29" class="edge">
<title>Node26&#45;&gt;Node5</title>
<path fill="none" stroke="midnightblue" d="M1425.15,-223.46C1387.49,-213.29 1328.41,-197.34 1292.21,-187.56"/>
<polygon fill="midnightblue" stroke="midnightblue" points="1424.6,-226.93 1435.17,-226.16 1426.43,-220.18 1424.6,-226.93"/>
</g>
<!-- Node26&#45;&gt;Node7 -->
<g id="edge30" class="edge">
<title>Node26&#45;&gt;Node7</title>
<path fill="none" stroke="midnightblue" d="M1425.29,-231.95C1344.57,-229.07 1140.24,-219.05 972.5,-188 969.66,-187.47 966.71,-186.81 963.8,-186.08"/>
<polygon fill="midnightblue" stroke="midnightblue" points="1425.28,-235.45 1435.39,-232.3 1425.52,-228.46 1425.28,-235.45"/>
</g>
<!-- Node26&#45;&gt;Node22 -->
<g id="edge35" class="edge">
<title>Node26&#45;&gt;Node22</title>
<path fill="none" stroke="midnightblue" d="M1461.67,-214.14C1463.64,-181.2 1467.16,-116.24 1464.5,-112 1452.68,-93.16 1430.5,-82.01 1410.75,-75.52"/>
<polygon fill="midnightblue" stroke="midnightblue" points="1458.17,-214.11 1461.05,-224.31 1465.16,-214.54 1458.17,-214.11"/>
</g>
<!-- Node26&#45;&gt;Node24 -->
<g id="edge31" class="edge">
<title>Node26&#45;&gt;Node24</title>
<path fill="none" stroke="midnightblue" d="M1425.26,-230.63C1337.73,-224.65 1103.39,-207.95 908.5,-188 892.75,-186.39 875.13,-184.23 861.15,-182.42"/>
<polygon fill="midnightblue" stroke="midnightblue" points="1425.22,-234.14 1435.43,-231.33 1425.69,-227.16 1425.22,-234.14"/>
</g>
<!-- Node27 -->
<g id="node27" class="node">
<title>Node27</title>
<g id="a_node27"><a xlink:href="a00107.xhtml" target="_top" xlink:title=" ">
<polygon fill="white" stroke="black" points="1395.5,-112.5 1395.5,-131.5 1455.5,-131.5 1455.5,-112.5 1395.5,-112.5"/>
<text text-anchor="middle" x="1425.5" y="-119.5" font-family="Helvetica,sans-Serif" font-size="10.00">Chord.cpp</text>
</a>
</g>
</g>
<!-- Node26&#45;&gt;Node27 -->
<g id="edge27" class="edge">
<title>Node26&#45;&gt;Node27</title>
<path fill="none" stroke="midnightblue" d="M1436.13,-218.73C1425.55,-211.09 1414.28,-200.64 1408.5,-188 1399.77,-168.9 1411.72,-144.53 1419.59,-131.74"/>
<polygon fill="midnightblue" stroke="midnightblue" points="1434.46,-221.82 1444.72,-224.47 1438.35,-216 1434.46,-221.82"/>
</g>
<!-- Node28 -->
<g id="node28" class="node">
<title>Node28</title>
<g id="a_node28"><a xlink:href="a00086.xhtml" target="_top" xlink:title=" ">
<polygon fill="white" stroke="black" points="1287.5,-112.5 1287.5,-131.5 1377.5,-131.5 1377.5,-112.5 1287.5,-112.5"/>
<text text-anchor="middle" x="1332.5" y="-119.5" font-family="Helvetica,sans-Serif" font-size="10.00">Spectrogram.cpp</text>
</a>
</g>
</g>
<!-- Node26&#45;&gt;Node28 -->
<g id="edge32" class="edge">
<title>Node26&#45;&gt;Node28</title>
<path fill="none" stroke="midnightblue" d="M1439.9,-218.48C1428.1,-209.94 1413.16,-198.74 1400.5,-188 1378.08,-168.99 1353.57,-144.58 1340.99,-131.76"/>
<polygon fill="midnightblue" stroke="midnightblue" points="1438.05,-221.47 1448.22,-224.45 1442.13,-215.78 1438.05,-221.47"/>
</g>
<!-- Node26&#45;&gt;Node29 -->
<g id="edge33" class="edge">
<title>Node26&#45;&gt;Node29</title>
<path fill="none" stroke="midnightblue" d="M1495.17,-221.79C1526.62,-211.62 1572.31,-196.84 1600.95,-187.59"/>
<polygon fill="midnightblue" stroke="midnightblue" points="1493.94,-218.51 1485.5,-224.92 1496.09,-225.17 1493.94,-218.51"/>
</g>
<!-- Node26&#45;&gt;Node30 -->
<g id="edge34" class="edge">
<title>Node26&#45;&gt;Node30</title>
<path fill="none" stroke="midnightblue" d="M1462.05,-214.46C1464.08,-200.38 1468.74,-181.25 1479.5,-168 1493.89,-150.27 1517.17,-138.58 1535.58,-131.57"/>
<polygon fill="midnightblue" stroke="midnightblue" points="1458.57,-214.13 1460.93,-224.45 1465.52,-214.91 1458.57,-214.13"/>
</g>
<!-- Node31 -->
<g id="node31" class="node">
<title>Node31</title>
<g id="a_node31"><a xlink:href="a00053.xhtml" target="_top" xlink:title=" ">
<polygon fill="white" stroke="black" points="1488.5,-168.5 1488.5,-187.5 1560.5,-187.5 1560.5,-168.5 1488.5,-168.5"/>
<text text-anchor="middle" x="1524.5" y="-175.5" font-family="Helvetica,sans-Serif" font-size="10.00">ToolNmf.cpp</text>
</a>
</g>
</g>
<!-- Node26&#45;&gt;Node31 -->
<g id="edge36" class="edge">
<title>Node26&#45;&gt;Node31</title>
<path fill="none" stroke="midnightblue" d="M1478.49,-217.82C1489.96,-208.15 1504.41,-195.95 1514.03,-187.83"/>
<polygon fill="midnightblue" stroke="midnightblue" points="1476.17,-215.2 1470.78,-224.32 1480.68,-220.55 1476.17,-215.2"/>
</g>
<!-- Node26&#45;&gt;Node32 -->
<g id="edge37" class="edge">
<title>Node26&#45;&gt;Node32</title>
<path fill="none" stroke="midnightblue" d="M1495.92,-225.92C1547.57,-215.59 1643,-196.5 1694.8,-186.14"/>
<polygon fill="midnightblue" stroke="midnightblue" points="1495.02,-222.53 1485.9,-227.92 1496.39,-229.39 1495.02,-222.53"/>
</g>
<!-- Node26&#45;&gt;Node33 -->
<g id="edge38" class="edge">
<title>Node26&#45;&gt;Node33</title>
<path fill="none" stroke="midnightblue" d="M1424.99,-229.72C1356.2,-223.18 1200.05,-207.48 1069.5,-188 1066.25,-187.51 1062.88,-186.98 1059.51,-186.41"/>
<polygon fill="midnightblue" stroke="midnightblue" points="1424.98,-233.23 1435.26,-230.69 1425.64,-226.26 1424.98,-233.23"/>
</g>
<!-- Node26&#45;&gt;Node37 -->
<g id="edge49" class="edge">
<title>Node26&#45;&gt;Node37</title>
<path fill="none" stroke="midnightblue" d="M1495.99,-228.04C1554.33,-219.87 1674.15,-202.97 1775.5,-188 1778.27,-187.59 1781.11,-187.17 1783.97,-186.74"/>
<polygon fill="midnightblue" stroke="midnightblue" points="1495.24,-224.61 1485.83,-229.46 1496.22,-231.54 1495.24,-224.61"/>
</g>
<!-- Node26&#45;&gt;Node38 -->
<g id="edge50" class="edge">
<title>Node26&#45;&gt;Node38</title>
<path fill="none" stroke="midnightblue" d="M1496.16,-229.65C1570.36,-222.59 1746.79,-205.43 1894.5,-188 1897.22,-187.68 1900,-187.34 1902.81,-187"/>
<polygon fill="midnightblue" stroke="midnightblue" points="1495.59,-226.19 1485.97,-230.61 1496.25,-233.15 1495.59,-226.19"/>
</g>
<!-- Node26&#45;&gt;Node39 -->
<g id="edge51" class="edge">
<title>Node26&#45;&gt;Node39</title>
<path fill="none" stroke="midnightblue" d="M1495.77,-231.12C1585.42,-226.13 1829.31,-211.36 2031.5,-188 2034.18,-187.69 2036.92,-187.35 2039.68,-186.99"/>
<polygon fill="midnightblue" stroke="midnightblue" points="1495.4,-227.63 1485.61,-231.67 1495.79,-234.62 1495.4,-227.63"/>
</g>
<!-- Node26&#45;&gt;Node40 -->
<g id="edge52" class="edge">
<title>Node26&#45;&gt;Node40</title>
<path fill="none" stroke="midnightblue" d="M1495.7,-232.15C1597.49,-229.39 1900.82,-218.97 2150.5,-188 2153.25,-187.66 2156.07,-187.26 2158.91,-186.83"/>
<polygon fill="midnightblue" stroke="midnightblue" points="1495.57,-228.65 1485.66,-232.42 1495.75,-235.65 1495.57,-228.65"/>
</g>
<!-- Node33&#45;&gt;Node3 -->
<g id="edge40" class="edge">
<title>Node33&#45;&gt;Node3</title>
<path fill="none" stroke="midnightblue" d="M972.58,-166.22C927.23,-156.01 860.06,-140.9 818.35,-131.52"/>
<polygon fill="midnightblue" stroke="midnightblue" points="971.95,-169.66 982.47,-168.44 973.48,-162.83 971.95,-169.66"/>
</g>
<!-- Node33&#45;&gt;Node9 -->
<g id="edge48" class="edge">
<title>Node33&#45;&gt;Node9</title>
<path fill="none" stroke="midnightblue" d="M990.65,-164.5C966.46,-154.38 933.04,-140.39 911.84,-131.52"/>
<polygon fill="midnightblue" stroke="midnightblue" points="989.48,-167.81 1000.06,-168.44 992.19,-161.35 989.48,-167.81"/>
</g>
<!-- Node33&#45;&gt;Node11 -->
<g id="edge39" class="edge">
<title>Node33&#45;&gt;Node11</title>
<path fill="none" stroke="midnightblue" d="M1008.53,-160.32C996.5,-144.98 976.48,-122.98 953.5,-112 892.65,-82.92 685.21,-71.33 611.09,-68.05"/>
<polygon fill="midnightblue" stroke="midnightblue" points="1005.84,-162.57 1014.65,-168.46 1011.43,-158.36 1005.84,-162.57"/>
</g>
<!-- Node33&#45;&gt;Node22 -->
<g id="edge47" class="edge">
<title>Node33&#45;&gt;Node22</title>
<path fill="none" stroke="midnightblue" d="M1069.88,-167.66C1129.74,-156.23 1224.62,-137.67 1240.5,-132 1258.47,-125.58 1261.46,-120.6 1278.5,-112 1304.28,-98.98 1334.42,-84.54 1353.23,-75.61"/>
<polygon fill="midnightblue" stroke="midnightblue" points="1069.04,-164.26 1059.87,-169.57 1070.35,-171.14 1069.04,-164.26"/>
</g>
<!-- Node33&#45;&gt;Node27 -->
<g id="edge41" class="edge">
<title>Node33&#45;&gt;Node27</title>
<path fill="none" stroke="midnightblue" d="M1069.19,-168.05C1069.3,-168.03 1069.4,-168.02 1069.5,-168 1209.76,-147.18 1246.75,-155.98 1386.5,-132 1389.38,-131.51 1392.36,-130.93 1395.33,-130.32"/>
<polygon fill="midnightblue" stroke="midnightblue" points="1068.83,-164.56 1059.51,-169.59 1069.93,-171.47 1068.83,-164.56"/>
</g>
<!-- Node33&#45;&gt;Node28 -->
<g id="edge45" class="edge">
<title>Node33&#45;&gt;Node28</title>
<path fill="none" stroke="midnightblue" d="M1069.2,-168.05C1069.3,-168.04 1069.4,-168.02 1069.5,-168 1145.9,-154.45 1234.91,-139.37 1287.33,-130.56"/>
<polygon fill="midnightblue" stroke="midnightblue" points="1068.77,-164.58 1059.54,-169.78 1070,-171.47 1068.77,-164.58"/>
</g>
<!-- Node33&#45;&gt;Node30 -->
<g id="edge46" class="edge">
<title>Node33&#45;&gt;Node30</title>
<path fill="none" stroke="midnightblue" d="M1069.74,-168.4C1125.84,-162.81 1396.64,-138.18 1511.73,-127.71"/>
<polygon fill="midnightblue" stroke="midnightblue" points="1069.34,-164.92 1059.76,-169.46 1070.08,-171.88 1069.34,-164.92"/>
</g>
<!-- Node34 -->
<g id="node34" class="node">
<title>Node34</title>
<g id="a_node34"><a xlink:href="a00050.xhtml" target="_top" xlink:title=" ">
<polygon fill="white" stroke="black" points="1001.5,-112.5 1001.5,-131.5 1069.5,-131.5 1069.5,-112.5 1001.5,-112.5"/>
<text text-anchor="middle" x="1035.5" y="-119.5" font-family="Helvetica,sans-Serif" font-size="10.00">Feature.cpp</text>
</a>
</g>
</g>
<!-- Node33&#45;&gt;Node34 -->
<g id="edge42" class="edge">
<title>Node33&#45;&gt;Node34</title>
<path fill="none" stroke="midnightblue" d="M1025.67,-158.4C1028.18,-149.36 1031.07,-138.94 1033.07,-131.75"/>
<polygon fill="midnightblue" stroke="midnightblue" points="1022.28,-157.51 1022.98,-168.08 1029.03,-159.38 1022.28,-157.51"/>
</g>
<!-- Node35 -->
<g id="node35" class="node">
<title>Node35</title>
<g id="a_node35"><a xlink:href="a00092.xhtml" target="_top" xlink:title=" ">
<polygon fill="white" stroke="black" points="1087.5,-112.5 1087.5,-131.5 1155.5,-131.5 1155.5,-112.5 1087.5,-112.5"/>
<text text-anchor="middle" x="1121.5" y="-119.5" font-family="Helvetica,sans-Serif" font-size="10.00">Novelty.cpp</text>
</a>
</g>
</g>
<!-- Node33&#45;&gt;Node35 -->
<g id="edge43" class="edge">
<title>Node33&#45;&gt;Node35</title>
<path fill="none" stroke="midnightblue" d="M1045.58,-163.59C1064.26,-153.61 1089.2,-140.27 1105.31,-131.65"/>
<polygon fill="midnightblue" stroke="midnightblue" points="1043.9,-160.52 1036.73,-168.32 1047.2,-166.7 1043.9,-160.52"/>
</g>
<!-- Node36 -->
<g id="node36" class="node">
<title>Node36</title>
<g id="a_node36"><a xlink:href="a00074.xhtml" target="_top" xlink:title=" ">
<polygon fill="white" stroke="black" points="1174,-112.5 1174,-131.5 1231,-131.5 1231,-112.5 1174,-112.5"/>
<text text-anchor="middle" x="1202.5" y="-119.5" font-family="Helvetica,sans-Serif" font-size="10.00">Pitch.cpp</text>
</a>
</g>
</g>
<!-- Node33&#45;&gt;Node36 -->
<g id="edge44" class="edge">
<title>Node33&#45;&gt;Node36</title>
<path fill="none" stroke="midnightblue" d="M1059.03,-165.57C1093.36,-155.38 1142.83,-140.7 1173.8,-131.52"/>
<polygon fill="midnightblue" stroke="midnightblue" points="1057.93,-162.24 1049.34,-168.44 1059.92,-168.95 1057.93,-162.24"/>
</g>
<!-- Node43&#45;&gt;Node11 -->
<g id="edge60" class="edge">
<title>Node43&#45;&gt;Node11</title>
<path fill="none" stroke="midnightblue" d="M545.37,-221.62C516.42,-213 482.07,-200.55 473.5,-188 454.46,-160.1 454.63,-140.01 473.5,-112 492.2,-84.23 531.29,-73.59 557.71,-69.52"/>
<polygon fill="midnightblue" stroke="midnightblue" points="544.75,-225.08 555.33,-224.5 546.7,-218.36 544.75,-225.08"/>
</g>
</g>
</svg>
        <g id="navigator" transform="translate(0 0)" fill="#404254">
                <rect fill="#f2f5e9" fill-opacity="0.5" stroke="#606060" stroke-width=".5" x="0" y="0" width="60" height="60"/>
                <use id="zoomplus" xlink:href="#zoomPlus" x="17" y="9" onmousedown="handleZoom(evt,'in')"/>
                <use id="zoomminus" xlink:href="#zoomMin" x="42" y="9" onmousedown="handleZoom(evt,'out')"/>
                <use id="reset" xlink:href="#resetDef" x="30" y="36" onmousedown="handleReset()"/>
                <g id="arrowUp" xlink:href="#dirArrow" transform="translate(30 24)" onmousedown="handlePan(0,-1)">
                  <use xlink:href="#rim" fill="#404040">
                        <set attributeName="fill" to="#808080" begin="arrowUp.mouseover" end="arrowUp.mouseout"/>
                  </use>
                  <path fill="none" stroke="white" stroke-width="1.5" d="M0,-3.0v7 M-2.5,-0.5L0,-3.0L2.5,-0.5"/>
                </g>
                <g id="arrowRight" xlink:href="#dirArrow" transform="rotate(90) translate(36 -43)" onmousedown="handlePan(1,0)">
                  <use xlink:href="#rim" fill="#404040">
                        <set attributeName="fill" to="#808080" begin="arrowRight.mouseover" end="arrowRight.mouseout"/>
                  </use>
                  <path fill="none" stroke="white" stroke-width="1.5" d="M0,-3.0v7 M-2.5,-0.5L0,-3.0L2.5,-0.5"/>
                </g>
                <g id="arrowDown" xlink:href="#dirArrow" transform="rotate(180) translate(-30 -48)" onmousedown="handlePan(0,1)">
                  <use xlink:href="#rim" fill="#404040">
                        <set attributeName="fill" to="#808080" begin="arrowDown.mouseover" end="arrowDown.mouseout"/>
                  </use>
                  <path fill="none" stroke="white" stroke-width="1.5" d="M0,-3.0v7 M-2.5,-0.5L0,-3.0L2.5,-0.5"/>
                </g>
                <g id="arrowLeft" xlink:href="#dirArrow" transform="rotate(270) translate(-36 17)" onmousedown="handlePan(-1,0)">
                  <use xlink:href="#rim" fill="#404040">
                        <set attributeName="fill" to="#808080" begin="arrowLeft.mouseover" end="arrowLeft.mouseout"/>
                  </use>
                  <path fill="none" stroke="white" stroke-width="1.5" d="M0,-3.0v7 M-2.5,-0.5L0,-3.0L2.5,-0.5"/>
                </g>
        </g>
        <svg viewBox="0 0 15 15" width="100%" height="30px" preserveAspectRatio="xMaxYMin meet">
         <g id="arrow_out" transform="scale(0.3 0.3)">
          <a xlink:href="a00154_org.svg" target="_base">
           <rect id="button" ry="5" rx="5" y="6" x="6" height="38" width="38"
                fill="#f2f5e9" fill-opacity="0.5" stroke="#606060" stroke-width="1.0"/>
           <path id="arrow"
             d="M 11.500037,31.436501 C 11.940474,20.09759 22.043105,11.32322 32.158766,21.979434 L 37.068811,17.246167 C 37.068811,17.246167 37.088388,32 37.088388,32 L 22.160133,31.978069 C 22.160133,31.978069 26.997745,27.140456 26.997745,27.140456 C 18.528582,18.264221 13.291696,25.230495 11.500037,31.436501 z"
             style="fill:#404040;"/>
          </a>
         </g>
        </svg>
</svg>
