<?xml version="1.0" encoding="UTF-8" standalone="no"?>
<!DOCTYPE svg PUBLIC "-//W3C//DTD SVG 1.1//EN"
 "http://www.w3.org/Graphics/SVG/1.1/DTD/svg11.dtd">
<!-- Generated by graphviz version 4.0.0 (20220602.1335)
 -->
<!-- Title: Pitch.h Pages: 1 -->
<!--zoomable 196 -->
<svg id="main" version="1.1" xmlns="http://www.w3.org/2000/svg" xmlns:xlink="http://www.w3.org/1999/xlink" xml:space="preserve" onload="init(evt)">
<style type="text/css"><![CDATA[
.edge:hover path { stroke: red; }
.edge:hover polygon { stroke: red; fill: red; }
]]></style>
<script type="text/javascript"><![CDATA[
var edges = document.getElementsByTagName('g');
if (edges && edges.length) {
  for (var i=0;i<edges.length;i++) {
    if (edges[i].id.substr(0,4)=='edge') {
      edges[i].setAttribute('class','edge');
    }
  }
}
]]></script>
        <defs>
                <circle id="rim" cx="0" cy="0" r="7"/>
                <circle id="rim2" cx="0" cy="0" r="3.5"/>
                <g id="zoomPlus">
                        <use xlink:href="#rim" fill="#404040">
                                <set attributeName="fill" to="#808080" begin="zoomplus.mouseover" end="zoomplus.mouseout"/>
                        </use>
                        <path d="M-4,0h8M0,-4v8" fill="none" stroke="white" stroke-width="1.5" pointer-events="none"/>
                </g>
                <g id="zoomMin">
                        <use xlink:href="#rim" fill="#404040">
                                <set attributeName="fill" to="#808080" begin="zoomminus.mouseover" end="zoomminus.mouseout"/>
                        </use>
                        <path d="M-4,0h8" fill="none" stroke="white" stroke-width="1.5" pointer-events="none"/>
                </g>
                <g id="dirArrow">
                        <path fill="none" stroke="white" stroke-width="1.5" d="M0,-3.0v7 M-2.5,-0.5L0,-3.0L2.5,-0.5"/>
                </g>
               <g id="resetDef">
                       <use xlink:href="#rim2" fill="#404040">
                               <set attributeName="fill" to="#808080" begin="reset.mouseover" end="reset.mouseout"/>
                       </use>
               </g>
        </defs>

<script type="text/javascript">
var viewWidth = 1288;
var viewHeight = 196;
var sectionId = 'dynsection-1';
</script>
<script xlink:href="svgpan.js"/>
<svg id="graph" class="graph">
<g id="viewport">
<title>Pitch.h</title>
<polygon fill="white" stroke="transparent" points="-4,4 -4,-192 1283.5,-192 1283.5,4 -4,4"/>
<!-- Node1 -->
<g id="node1" class="node">
<title>Node1</title>
<g id="a_node1"><a xlink:title=" ">
<polygon fill="#bfbfbf" stroke="black" points="575.5,-168.5 575.5,-187.5 622.5,-187.5 622.5,-168.5 575.5,-168.5"/>
<text text-anchor="middle" x="599" y="-175.5" font-family="Helvetica,sans-Serif" font-size="10.00">Pitch.h</text>
</a>
</g>
</g>
<!-- Node2 -->
<g id="node2" class="node">
<title>Node2</title>
<g id="a_node2"><a xlink:href="a00254.xhtml" target="_top" xlink:title=" ">
<polygon fill="white" stroke="black" points="530.5,-56.5 530.5,-75.5 583.5,-75.5 583.5,-56.5 530.5,-56.5"/>
<text text-anchor="middle" x="557" y="-63.5" font-family="Helvetica,sans-Serif" font-size="10.00">AcaAll.h</text>
</a>
</g>
</g>
<!-- Node1&#45;&gt;Node2 -->
<g id="edge1" class="edge">
<title>Node1&#45;&gt;Node2</title>
<path fill="none" stroke="midnightblue" d="M592.13,-159C582.96,-135 567.11,-93.47 560.28,-75.59"/>
<polygon fill="midnightblue" stroke="midnightblue" points="588.87,-160.27 595.7,-168.37 595.41,-157.78 588.87,-160.27"/>
</g>
<!-- Node11 -->
<g id="node11" class="node">
<title>Node11</title>
<g id="a_node11"><a xlink:href="a00005.xhtml" target="_top" xlink:title=" ">
<polygon fill="white" stroke="black" points="0,-0.5 0,-19.5 96,-19.5 96,-0.5 0,-0.5"/>
<text text-anchor="middle" x="48" y="-7.5" font-family="Helvetica,sans-Serif" font-size="10.00">ComputePitch.cpp</text>
</a>
</g>
</g>
<!-- Node1&#45;&gt;Node11 -->
<g id="edge12" class="edge">
<title>Node1&#45;&gt;Node11</title>
<path fill="none" stroke="midnightblue" d="M565.74,-166.98C465.86,-136.89 169.63,-47.64 76.42,-19.56"/>
<polygon fill="midnightblue" stroke="midnightblue" points="564.74,-170.33 575.32,-169.87 566.76,-163.63 564.74,-170.33"/>
</g>
<!-- Node13 -->
<g id="node13" class="node">
<title>Node13</title>
<g id="a_node13"><a xlink:href="a00119.xhtml" target="_top" xlink:title=" ">
<polygon fill="white" stroke="black" points="724.5,-56.5 724.5,-75.5 781.5,-75.5 781.5,-56.5 724.5,-56.5"/>
<text text-anchor="middle" x="753" y="-63.5" font-family="Helvetica,sans-Serif" font-size="10.00">Pitch.cpp</text>
</a>
</g>
</g>
<!-- Node1&#45;&gt;Node13 -->
<g id="edge13" class="edge">
<title>Node1&#45;&gt;Node13</title>
<path fill="none" stroke="midnightblue" d="M632.1,-167.74C654.04,-160.47 682.61,-148.77 704,-132 724.46,-115.96 740.82,-89.4 748.41,-75.73"/>
<polygon fill="midnightblue" stroke="midnightblue" points="631.02,-164.41 622.54,-170.76 633.13,-171.08 631.02,-164.41"/>
</g>
<!-- Node14 -->
<g id="node14" class="node">
<title>Node14</title>
<g id="a_node14"><a xlink:href="a00191.xhtml" target="_top" xlink:title=" ">
<polygon fill="white" stroke="black" points="601,-112.5 601,-131.5 695,-131.5 695,-112.5 601,-112.5"/>
<text text-anchor="middle" x="648" y="-119.5" font-family="Helvetica,sans-Serif" font-size="10.00">PitchFromBlock.h</text>
</a>
</g>
</g>
<!-- Node1&#45;&gt;Node14 -->
<g id="edge14" class="edge">
<title>Node1&#45;&gt;Node14</title>
<path fill="none" stroke="midnightblue" d="M614.03,-160.43C622.62,-150.97 633.04,-139.48 640.06,-131.75"/>
<polygon fill="midnightblue" stroke="midnightblue" points="611.22,-158.33 607.09,-168.08 616.4,-163.03 611.22,-158.33"/>
</g>
<!-- Node3 -->
<g id="node3" class="node">
<title>Node3</title>
<g id="a_node3"><a xlink:href="a00122.xhtml" target="_top" xlink:title=" ">
<polygon fill="white" stroke="black" points="1216.5,-0.5 1216.5,-19.5 1279.5,-19.5 1279.5,-0.5 1216.5,-0.5"/>
<text text-anchor="middle" x="1248" y="-7.5" font-family="Helvetica,sans-Serif" font-size="10.00">AcaAll.cpp</text>
</a>
</g>
</g>
<!-- Node2&#45;&gt;Node3 -->
<g id="edge2" class="edge">
<title>Node2&#45;&gt;Node3</title>
<path fill="none" stroke="midnightblue" d="M593.79,-56.21C865.47,-15.67 940.18,-57.71 1208,-20 1210.68,-19.62 1213.44,-19.16 1216.21,-18.64"/>
<polygon fill="midnightblue" stroke="midnightblue" points="592.99,-52.8 583.62,-57.76 594.04,-59.72 592.99,-52.8"/>
</g>
<!-- Node4 -->
<g id="node4" class="node">
<title>Node4</title>
<g id="a_node4"><a xlink:href="a00020.xhtml" target="_top" xlink:title=" ">
<polygon fill="white" stroke="black" points="114.5,-0.5 114.5,-19.5 231.5,-19.5 231.5,-0.5 114.5,-0.5"/>
<text text-anchor="middle" x="173" y="-7.5" font-family="Helvetica,sans-Serif" font-size="10.00">ComputeBeatHisto.cpp</text>
</a>
</g>
</g>
<!-- Node2&#45;&gt;Node4 -->
<g id="edge3" class="edge">
<title>Node2&#45;&gt;Node4</title>
<path fill="none" stroke="midnightblue" d="M520.25,-59.83C453.48,-50.44 311.74,-30.51 231.53,-19.23"/>
<polygon fill="midnightblue" stroke="midnightblue" points="519.91,-63.32 530.3,-61.25 520.89,-56.39 519.91,-63.32"/>
</g>
<!-- Node5 -->
<g id="node5" class="node">
<title>Node5</title>
<g id="a_node5"><a xlink:href="a00032.xhtml" target="_top" xlink:title=" ">
<polygon fill="white" stroke="black" points="250,-0.5 250,-19.5 354,-19.5 354,-0.5 250,-0.5"/>
<text text-anchor="middle" x="302" y="-7.5" font-family="Helvetica,sans-Serif" font-size="10.00">ComputeChords.cpp</text>
</a>
</g>
</g>
<!-- Node2&#45;&gt;Node5 -->
<g id="edge4" class="edge">
<title>Node2&#45;&gt;Node5</title>
<path fill="none" stroke="midnightblue" d="M520.37,-57.24C473.1,-47.23 391.13,-29.87 342.19,-19.51"/>
<polygon fill="midnightblue" stroke="midnightblue" points="519.68,-60.68 530.19,-59.32 521.13,-53.83 519.68,-60.68"/>
</g>
<!-- Node6 -->
<g id="node6" class="node">
<title>Node6</title>
<g id="a_node6"><a xlink:href="a00002.xhtml" target="_top" xlink:title=" ">
<polygon fill="white" stroke="black" points="372.5,-0.5 372.5,-19.5 479.5,-19.5 479.5,-0.5 372.5,-0.5"/>
<text text-anchor="middle" x="426" y="-7.5" font-family="Helvetica,sans-Serif" font-size="10.00">ComputeFeature.cpp</text>
</a>
</g>
</g>
<!-- Node2&#45;&gt;Node6 -->
<g id="edge5" class="edge">
<title>Node2&#45;&gt;Node6</title>
<path fill="none" stroke="midnightblue" d="M526.68,-52.5C502.12,-42.38 468.18,-28.39 446.66,-19.52"/>
<polygon fill="midnightblue" stroke="midnightblue" points="525.66,-55.87 536.24,-56.44 528.33,-49.4 525.66,-55.87"/>
</g>
<!-- Node7 -->
<g id="node7" class="node">
<title>Node7</title>
<g id="a_node7"><a xlink:href="a00026.xhtml" target="_top" xlink:title=" ">
<polygon fill="white" stroke="black" points="497.5,-0.5 497.5,-19.5 616.5,-19.5 616.5,-0.5 497.5,-0.5"/>
<text text-anchor="middle" x="557" y="-7.5" font-family="Helvetica,sans-Serif" font-size="10.00">ComputeFingerprint.cpp</text>
</a>
</g>
</g>
<!-- Node2&#45;&gt;Node7 -->
<g id="edge6" class="edge">
<title>Node2&#45;&gt;Node7</title>
<path fill="none" stroke="midnightblue" d="M557,-45.8C557,-36.91 557,-26.78 557,-19.75"/>
<polygon fill="midnightblue" stroke="midnightblue" points="553.5,-46.08 557,-56.08 560.5,-46.08 553.5,-46.08"/>
</g>
<!-- Node8 -->
<g id="node8" class="node">
<title>Node8</title>
<g id="a_node8"><a xlink:href="a00029.xhtml" target="_top" xlink:title=" ">
<polygon fill="white" stroke="black" points="635,-0.5 635,-19.5 725,-19.5 725,-0.5 635,-0.5"/>
<text text-anchor="middle" x="680" y="-7.5" font-family="Helvetica,sans-Serif" font-size="10.00">ComputeKey.cpp</text>
</a>
</g>
</g>
<!-- Node2&#45;&gt;Node8 -->
<g id="edge7" class="edge">
<title>Node2&#45;&gt;Node8</title>
<path fill="none" stroke="midnightblue" d="M585.77,-52.37C608.81,-42.26 640.48,-28.35 660.6,-19.52"/>
<polygon fill="midnightblue" stroke="midnightblue" points="584.24,-49.22 576.49,-56.44 587.05,-55.63 584.24,-49.22"/>
</g>
<!-- Node9 -->
<g id="node9" class="node">
<title>Node9</title>
<g id="a_node9"><a xlink:href="a00035.xhtml" target="_top" xlink:title=" ">
<polygon fill="white" stroke="black" points="743.5,-0.5 743.5,-19.5 888.5,-19.5 888.5,-0.5 743.5,-0.5"/>
<text text-anchor="middle" x="816" y="-7.5" font-family="Helvetica,sans-Serif" font-size="10.00">ComputeMelSpectrogram.cpp</text>
</a>
</g>
</g>
<!-- Node2&#45;&gt;Node9 -->
<g id="edge8" class="edge">
<title>Node2&#45;&gt;Node9</title>
<path fill="none" stroke="midnightblue" d="M593.63,-55.94C660.87,-40.87 727.56,-27.76 770.6,-19.53"/>
<polygon fill="midnightblue" stroke="midnightblue" points="592.69,-52.57 583.7,-58.18 594.23,-59.39 592.69,-52.57"/>
</g>
<!-- Node10 -->
<g id="node10" class="node">
<title>Node10</title>
<g id="a_node10"><a xlink:href="a00017.xhtml" target="_top" xlink:title=" ">
<polygon fill="white" stroke="black" points="907,-0.5 907,-19.5 1051,-19.5 1051,-0.5 907,-0.5"/>
<text text-anchor="middle" x="979" y="-7.5" font-family="Helvetica,sans-Serif" font-size="10.00">ComputeNoveltyFunction.cpp</text>
</a>
</g>
</g>
<!-- Node2&#45;&gt;Node10 -->
<g id="edge9" class="edge">
<title>Node2&#45;&gt;Node10</title>
<path fill="none" stroke="midnightblue" d="M593.82,-56.31C641.17,-49.46 808.87,-30.29 906.88,-19.16"/>
<polygon fill="midnightblue" stroke="midnightblue" points="592.98,-52.9 583.65,-57.93 594.08,-59.81 592.98,-52.9"/>
</g>
<!-- Node2&#45;&gt;Node11 -->
<g id="edge10" class="edge">
<title>Node2&#45;&gt;Node11</title>
<path fill="none" stroke="midnightblue" d="M520.3,-62.06C443.21,-55.74 258.89,-39.79 105,-20 102.12,-19.63 99.16,-19.23 96.17,-18.81"/>
<polygon fill="midnightblue" stroke="midnightblue" points="520.2,-65.57 530.45,-62.89 520.76,-58.59 520.2,-65.57"/>
</g>
<!-- Node12 -->
<g id="node12" class="node">
<title>Node12</title>
<g id="a_node12"><a xlink:href="a00023.xhtml" target="_top" xlink:title=" ">
<polygon fill="white" stroke="black" points="1069.5,-0.5 1069.5,-19.5 1198.5,-19.5 1198.5,-0.5 1069.5,-0.5"/>
<text text-anchor="middle" x="1134" y="-7.5" font-family="Helvetica,sans-Serif" font-size="10.00">ComputeSpectrogram.cpp</text>
</a>
</g>
</g>
<!-- Node2&#45;&gt;Node12 -->
<g id="edge11" class="edge">
<title>Node2&#45;&gt;Node12</title>
<path fill="none" stroke="midnightblue" d="M593.59,-56.2C800.22,-23.19 856.08,-40.25 1060,-20 1063.09,-19.69 1066.25,-19.36 1069.44,-19.02"/>
<polygon fill="midnightblue" stroke="midnightblue" points="592.95,-52.76 583.63,-57.81 594.06,-59.67 592.95,-52.76"/>
</g>
<!-- Node14&#45;&gt;Node2 -->
<g id="edge15" class="edge">
<title>Node14&#45;&gt;Node2</title>
<path fill="none" stroke="midnightblue" d="M624.71,-107.18C607.96,-97.24 585.9,-84.15 571.58,-75.65"/>
<polygon fill="midnightblue" stroke="midnightblue" points="622.99,-110.23 633.38,-112.32 626.57,-104.21 622.99,-110.23"/>
</g>
<!-- Node14&#45;&gt;Node13 -->
<g id="edge16" class="edge">
<title>Node14&#45;&gt;Node13</title>
<path fill="none" stroke="midnightblue" d="M673.81,-107.73C693.25,-97.73 719.35,-84.31 736.17,-75.65"/>
<polygon fill="midnightblue" stroke="midnightblue" points="672.16,-104.64 664.87,-112.32 675.36,-110.86 672.16,-104.64"/>
</g>
<!-- Node15 -->
<g id="node15" class="node">
<title>Node15</title>
<g id="a_node15"><a xlink:href="a00077.xhtml" target="_top" xlink:title=" ">
<polygon fill="white" stroke="black" points="602,-56.5 602,-75.5 706,-75.5 706,-56.5 602,-56.5"/>
<text text-anchor="middle" x="654" y="-63.5" font-family="Helvetica,sans-Serif" font-size="10.00">PitchFromBlock.cpp</text>
</a>
</g>
</g>
<!-- Node14&#45;&gt;Node15 -->
<g id="edge17" class="edge">
<title>Node14&#45;&gt;Node15</title>
<path fill="none" stroke="midnightblue" d="M650.1,-102.1C651.1,-93.14 652.24,-82.86 653.03,-75.75"/>
<polygon fill="midnightblue" stroke="midnightblue" points="646.62,-101.76 648.99,-112.08 653.57,-102.53 646.62,-101.76"/>
</g>
</g>
</svg>
        <g id="navigator" transform="translate(0 0)" fill="#404254">
                <rect fill="#f2f5e9" fill-opacity="0.5" stroke="#606060" stroke-width=".5" x="0" y="0" width="60" height="60"/>
                <use id="zoomplus" xlink:href="#zoomPlus" x="17" y="9" onmousedown="handleZoom(evt,'in')"/>
                <use id="zoomminus" xlink:href="#zoomMin" x="42" y="9" onmousedown="handleZoom(evt,'out')"/>
                <use id="reset" xlink:href="#resetDef" x="30" y="36" onmousedown="handleReset()"/>
                <g id="arrowUp" xlink:href="#dirArrow" transform="translate(30 24)" onmousedown="handlePan(0,-1)">
                  <use xlink:href="#rim" fill="#404040">
                        <set attributeName="fill" to="#808080" begin="arrowUp.mouseover" end="arrowUp.mouseout"/>
                  </use>
                  <path fill="none" stroke="white" stroke-width="1.5" d="M0,-3.0v7 M-2.5,-0.5L0,-3.0L2.5,-0.5"/>
                </g>
                <g id="arrowRight" xlink:href="#dirArrow" transform="rotate(90) translate(36 -43)" onmousedown="handlePan(1,0)">
                  <use xlink:href="#rim" fill="#404040">
                        <set attributeName="fill" to="#808080" begin="arrowRight.mouseover" end="arrowRight.mouseout"/>
                  </use>
                  <path fill="none" stroke="white" stroke-width="1.5" d="M0,-3.0v7 M-2.5,-0.5L0,-3.0L2.5,-0.5"/>
                </g>
                <g id="arrowDown" xlink:href="#dirArrow" transform="rotate(180) translate(-30 -48)" onmousedown="handlePan(0,1)">
                  <use xlink:href="#rim" fill="#404040">
                        <set attributeName="fill" to="#808080" begin="arrowDown.mouseover" end="arrowDown.mouseout"/>
                  </use>
                  <path fill="none" stroke="white" stroke-width="1.5" d="M0,-3.0v7 M-2.5,-0.5L0,-3.0L2.5,-0.5"/>
                </g>
                <g id="arrowLeft" xlink:href="#dirArrow" transform="rotate(270) translate(-36 17)" onmousedown="handlePan(-1,0)">
                  <use xlink:href="#rim" fill="#404040">
                        <set attributeName="fill" to="#808080" begin="arrowLeft.mouseover" end="arrowLeft.mouseout"/>
                  </use>
                  <path fill="none" stroke="white" stroke-width="1.5" d="M0,-3.0v7 M-2.5,-0.5L0,-3.0L2.5,-0.5"/>
                </g>
        </g>
        <svg viewBox="0 0 15 15" width="100%" height="30px" preserveAspectRatio="xMaxYMin meet">
         <g id="arrow_out" transform="scale(0.3 0.3)">
          <a xlink:href="a00139_org.svg" target="_base">
           <rect id="button" ry="5" rx="5" y="6" x="6" height="38" width="38"
                fill="#f2f5e9" fill-opacity="0.5" stroke="#606060" stroke-width="1.0"/>
           <path id="arrow"
             d="M 11.500037,31.436501 C 11.940474,20.09759 22.043105,11.32322 32.158766,21.979434 L 37.068811,17.246167 C 37.068811,17.246167 37.088388,32 37.088388,32 L 22.160133,31.978069 C 22.160133,31.978069 26.997745,27.140456 26.997745,27.140456 C 18.528582,18.264221 13.291696,25.230495 11.500037,31.436501 z"
             style="fill:#404040;"/>
          </a>
         </g>
        </svg>
</svg>
