<?xml version="1.0" encoding="UTF-8" standalone="no"?>
<!DOCTYPE svg PUBLIC "-//W3C//DTD SVG 1.1//EN"
 "http://www.w3.org/Graphics/SVG/1.1/DTD/svg11.dtd">
<!-- Generated by graphviz version 4.0.0 (20220602.1335)
 -->
<!-- Title: Filter.h Pages: 1 -->
<svg width="1287pt" height="196pt"
 viewBox="0.00 0.00 1287.00 196.00" xmlns="http://www.w3.org/2000/svg" xmlns:xlink="http://www.w3.org/1999/xlink">
<g id="graph0" class="graph" transform="scale(1 1) rotate(0) translate(4 192)">
<title>Filter.h</title>
<polygon fill="white" stroke="transparent" points="-4,4 -4,-192 1283,-192 1283,4 -4,4"/>
<!-- Node1 -->
<g id="node1" class="node">
<title>Node1</title>
<g id="a_node1"><a xlink:title=" ">
<polygon fill="#bfbfbf" stroke="black" points="493.5,-168.5 493.5,-187.5 539.5,-187.5 539.5,-168.5 493.5,-168.5"/>
<text text-anchor="middle" x="516.5" y="-175.5" font-family="Helvetica,sans-Serif" font-size="10.00">Filter.h</text>
</a>
</g>
</g>
<!-- Node2 -->
<g id="node2" class="node">
<title>Node2</title>
<g id="a_node2"><a xlink:href="a00107.xhtml" target="_top" xlink:title=" ">
<polygon fill="white" stroke="black" points="340.5,-112.5 340.5,-131.5 444.5,-131.5 444.5,-112.5 340.5,-112.5"/>
<text text-anchor="middle" x="392.5" y="-119.5" font-family="Helvetica,sans-Serif" font-size="10.00">PitchFromBlock.cpp</text>
</a>
</g>
</g>
<!-- Node1&#45;&gt;Node2 -->
<g id="edge1" class="edge">
<title>Node1&#45;&gt;Node2</title>
<path fill="none" stroke="midnightblue" d="M487.49,-164.37C464.27,-154.26 432.34,-140.35 412.06,-131.52"/>
<polygon fill="midnightblue" stroke="midnightblue" points="486.29,-167.66 496.85,-168.44 489.08,-161.24 486.29,-167.66"/>
</g>
<!-- Node3 -->
<g id="node3" class="node">
<title>Node3</title>
<g id="a_node3"><a xlink:href="a00113.xhtml" target="_top" xlink:title=" ">
<polygon fill="white" stroke="black" points="463,-112.5 463,-131.5 570,-131.5 570,-112.5 463,-112.5"/>
<text text-anchor="middle" x="516.5" y="-119.5" font-family="Helvetica,sans-Serif" font-size="10.00">ToolGammatone.cpp</text>
</a>
</g>
</g>
<!-- Node1&#45;&gt;Node3 -->
<g id="edge2" class="edge">
<title>Node1&#45;&gt;Node3</title>
<path fill="none" stroke="midnightblue" d="M516.5,-157.8C516.5,-148.91 516.5,-138.78 516.5,-131.75"/>
<polygon fill="midnightblue" stroke="midnightblue" points="513,-158.08 516.5,-168.08 520,-158.08 513,-158.08"/>
</g>
<!-- Node4 -->
<g id="node4" class="node">
<title>Node4</title>
<g id="a_node4"><a xlink:href="a00221.xhtml" target="_top" xlink:title=" ">
<polygon fill="white" stroke="black" points="588.5,-112.5 588.5,-131.5 674.5,-131.5 674.5,-112.5 588.5,-112.5"/>
<text text-anchor="middle" x="631.5" y="-119.5" font-family="Helvetica,sans-Serif" font-size="10.00">ToolResample.h</text>
</a>
</g>
</g>
<!-- Node1&#45;&gt;Node4 -->
<g id="edge3" class="edge">
<title>Node1&#45;&gt;Node4</title>
<path fill="none" stroke="midnightblue" d="M543.98,-164.1C565.47,-154.01 594.72,-140.27 613.36,-131.52"/>
<polygon fill="midnightblue" stroke="midnightblue" points="542.29,-161.02 534.72,-168.44 545.26,-167.36 542.29,-161.02"/>
</g>
<!-- Node5 -->
<g id="node5" class="node">
<title>Node5</title>
<g id="a_node5"><a xlink:href="a00224.xhtml" target="_top" xlink:title=" ">
<polygon fill="white" stroke="black" points="558,-56.5 558,-75.5 611,-75.5 611,-56.5 558,-56.5"/>
<text text-anchor="middle" x="584.5" y="-63.5" font-family="Helvetica,sans-Serif" font-size="10.00">AcaAll.h</text>
</a>
</g>
</g>
<!-- Node4&#45;&gt;Node5 -->
<g id="edge4" class="edge">
<title>Node4&#45;&gt;Node5</title>
<path fill="none" stroke="midnightblue" d="M617.08,-104.43C608.84,-94.97 598.85,-83.48 592.12,-75.75"/>
<polygon fill="midnightblue" stroke="midnightblue" points="614.53,-106.84 623.74,-112.08 619.81,-102.24 614.53,-106.84"/>
</g>
<!-- Node16 -->
<g id="node16" class="node">
<title>Node16</title>
<g id="a_node16"><a xlink:href="a00071.xhtml" target="_top" xlink:title=" ">
<polygon fill="white" stroke="black" points="629,-56.5 629,-75.5 728,-75.5 728,-56.5 629,-56.5"/>
<text text-anchor="middle" x="678.5" y="-63.5" font-family="Helvetica,sans-Serif" font-size="10.00">ToolFingerprint.cpp</text>
</a>
</g>
</g>
<!-- Node4&#45;&gt;Node16 -->
<g id="edge15" class="edge">
<title>Node4&#45;&gt;Node16</title>
<path fill="none" stroke="midnightblue" d="M645.92,-104.43C654.16,-94.97 664.15,-83.48 670.88,-75.75"/>
<polygon fill="midnightblue" stroke="midnightblue" points="643.19,-102.24 639.26,-112.08 648.47,-106.84 643.19,-102.24"/>
</g>
<!-- Node6 -->
<g id="node6" class="node">
<title>Node6</title>
<g id="a_node6"><a xlink:href="a00035.xhtml" target="_top" xlink:title=" ">
<polygon fill="white" stroke="black" points="0,-0.5 0,-19.5 63,-19.5 63,-0.5 0,-0.5"/>
<text text-anchor="middle" x="31.5" y="-7.5" font-family="Helvetica,sans-Serif" font-size="10.00">AcaAll.cpp</text>
</a>
</g>
</g>
<!-- Node5&#45;&gt;Node6 -->
<g id="edge5" class="edge">
<title>Node5&#45;&gt;Node6</title>
<path fill="none" stroke="midnightblue" d="M547.81,-63.47C463.34,-59.58 248.77,-47.59 71.5,-20 68.83,-19.58 66.07,-19.09 63.3,-18.56"/>
<polygon fill="midnightblue" stroke="midnightblue" points="547.77,-66.97 557.92,-63.92 548.09,-59.98 547.77,-66.97"/>
</g>
<!-- Node7 -->
<g id="node7" class="node">
<title>Node7</title>
<g id="a_node7"><a xlink:href="a00017.xhtml" target="_top" xlink:title=" ">
<polygon fill="white" stroke="black" points="81,-0.5 81,-19.5 198,-19.5 198,-0.5 81,-0.5"/>
<text text-anchor="middle" x="139.5" y="-7.5" font-family="Helvetica,sans-Serif" font-size="10.00">ComputeBeatHisto.cpp</text>
</a>
</g>
</g>
<!-- Node5&#45;&gt;Node7 -->
<g id="edge6" class="edge">
<title>Node5&#45;&gt;Node7</title>
<path fill="none" stroke="midnightblue" d="M547.87,-60.79C480.47,-53 332.28,-35.7 207.5,-20 204.43,-19.61 201.28,-19.21 198.1,-18.8"/>
<polygon fill="midnightblue" stroke="midnightblue" points="547.64,-64.28 557.98,-61.95 548.44,-57.33 547.64,-64.28"/>
</g>
<!-- Node8 -->
<g id="node8" class="node">
<title>Node8</title>
<g id="a_node8"><a xlink:href="a00023.xhtml" target="_top" xlink:title=" ">
<polygon fill="white" stroke="black" points="216.5,-0.5 216.5,-19.5 320.5,-19.5 320.5,-0.5 216.5,-0.5"/>
<text text-anchor="middle" x="268.5" y="-7.5" font-family="Helvetica,sans-Serif" font-size="10.00">ComputeChords.cpp</text>
</a>
</g>
</g>
<!-- Node5&#45;&gt;Node8 -->
<g id="edge7" class="edge">
<title>Node5&#45;&gt;Node8</title>
<path fill="none" stroke="midnightblue" d="M547.88,-58.74C491.17,-49.05 382.04,-30.4 318.24,-19.5"/>
<polygon fill="midnightblue" stroke="midnightblue" points="547.38,-62.21 557.83,-60.44 548.56,-55.31 547.38,-62.21"/>
</g>
<!-- Node9 -->
<g id="node9" class="node">
<title>Node9</title>
<g id="a_node9"><a xlink:href="a00002.xhtml" target="_top" xlink:title=" ">
<polygon fill="white" stroke="black" points="339,-0.5 339,-19.5 446,-19.5 446,-0.5 339,-0.5"/>
<text text-anchor="middle" x="392.5" y="-7.5" font-family="Helvetica,sans-Serif" font-size="10.00">ComputeFeature.cpp</text>
</a>
</g>
</g>
<!-- Node5&#45;&gt;Node9 -->
<g id="edge8" class="edge">
<title>Node5&#45;&gt;Node9</title>
<path fill="none" stroke="midnightblue" d="M548.1,-54.76C511.81,-44.56 456.73,-29.06 422.76,-19.51"/>
<polygon fill="midnightblue" stroke="midnightblue" points="547.23,-58.15 557.8,-57.49 549.12,-51.41 547.23,-58.15"/>
</g>
<!-- Node10 -->
<g id="node10" class="node">
<title>Node10</title>
<g id="a_node10"><a xlink:href="a00020.xhtml" target="_top" xlink:title=" ">
<polygon fill="white" stroke="black" points="464,-0.5 464,-19.5 583,-19.5 583,-0.5 464,-0.5"/>
<text text-anchor="middle" x="523.5" y="-7.5" font-family="Helvetica,sans-Serif" font-size="10.00">ComputeFingerprint.cpp</text>
</a>
</g>
</g>
<!-- Node5&#45;&gt;Node10 -->
<g id="edge9" class="edge">
<title>Node5&#45;&gt;Node10</title>
<path fill="none" stroke="midnightblue" d="M567.03,-49.54C556.16,-39.91 542.56,-27.87 533.48,-19.83"/>
<polygon fill="midnightblue" stroke="midnightblue" points="564.89,-52.32 574.7,-56.32 569.53,-47.07 564.89,-52.32"/>
</g>
<!-- Node11 -->
<g id="node11" class="node">
<title>Node11</title>
<g id="a_node11"><a xlink:href="a00026.xhtml" target="_top" xlink:title=" ">
<polygon fill="white" stroke="black" points="601.5,-0.5 601.5,-19.5 691.5,-19.5 691.5,-0.5 601.5,-0.5"/>
<text text-anchor="middle" x="646.5" y="-7.5" font-family="Helvetica,sans-Serif" font-size="10.00">ComputeKey.cpp</text>
</a>
</g>
</g>
<!-- Node5&#45;&gt;Node11 -->
<g id="edge10" class="edge">
<title>Node5&#45;&gt;Node11</title>
<path fill="none" stroke="midnightblue" d="M602.25,-49.54C613.31,-39.91 627.13,-27.87 636.36,-19.83"/>
<polygon fill="midnightblue" stroke="midnightblue" points="599.7,-47.12 594.46,-56.32 604.3,-52.4 599.7,-47.12"/>
</g>
<!-- Node12 -->
<g id="node12" class="node">
<title>Node12</title>
<g id="a_node12"><a xlink:href="a00119.xhtml" target="_top" xlink:title=" ">
<polygon fill="white" stroke="black" points="710,-0.5 710,-19.5 855,-19.5 855,-0.5 710,-0.5"/>
<text text-anchor="middle" x="782.5" y="-7.5" font-family="Helvetica,sans-Serif" font-size="10.00">ComputeMelSpectrogram.cpp</text>
</a>
</g>
</g>
<!-- Node5&#45;&gt;Node12 -->
<g id="edge11" class="edge">
<title>Node5&#45;&gt;Node12</title>
<path fill="none" stroke="midnightblue" d="M621.16,-55C658.47,-44.83 715.68,-29.22 751,-19.59"/>
<polygon fill="midnightblue" stroke="midnightblue" points="619.93,-51.71 611.2,-57.72 621.77,-58.46 619.93,-51.71"/>
</g>
<!-- Node13 -->
<g id="node13" class="node">
<title>Node13</title>
<g id="a_node13"><a xlink:href="a00029.xhtml" target="_top" xlink:title=" ">
<polygon fill="white" stroke="black" points="873.5,-0.5 873.5,-19.5 1017.5,-19.5 1017.5,-0.5 873.5,-0.5"/>
<text text-anchor="middle" x="945.5" y="-7.5" font-family="Helvetica,sans-Serif" font-size="10.00">ComputeNoveltyFunction.cpp</text>
</a>
</g>
</g>
<!-- Node5&#45;&gt;Node13 -->
<g id="edge12" class="edge">
<title>Node5&#45;&gt;Node13</title>
<path fill="none" stroke="midnightblue" d="M621.03,-55.91C681.33,-44.75 800.82,-29.15 877.04,-19.51"/>
<polygon fill="midnightblue" stroke="midnightblue" points="620.34,-52.48 611.18,-57.8 621.66,-59.36 620.34,-52.48"/>
</g>
<!-- Node14 -->
<g id="node14" class="node">
<title>Node14</title>
<g id="a_node14"><a xlink:href="a00122.xhtml" target="_top" xlink:title=" ">
<polygon fill="white" stroke="black" points="1035.5,-0.5 1035.5,-19.5 1131.5,-19.5 1131.5,-0.5 1035.5,-0.5"/>
<text text-anchor="middle" x="1083.5" y="-7.5" font-family="Helvetica,sans-Serif" font-size="10.00">ComputePitch.cpp</text>
</a>
</g>
</g>
<!-- Node5&#45;&gt;Node14 -->
<g id="edge13" class="edge">
<title>Node5&#45;&gt;Node14</title>
<path fill="none" stroke="midnightblue" d="M621.17,-55.96C800.25,-25.88 849.52,-41.77 1026.5,-20 1029.38,-19.65 1032.35,-19.26 1035.33,-18.84"/>
<polygon fill="midnightblue" stroke="midnightblue" points="620.43,-52.54 611.16,-57.67 621.6,-59.44 620.43,-52.54"/>
</g>
<!-- Node15 -->
<g id="node15" class="node">
<title>Node15</title>
<g id="a_node15"><a xlink:href="a00014.xhtml" target="_top" xlink:title=" ">
<polygon fill="white" stroke="black" points="1150,-0.5 1150,-19.5 1279,-19.5 1279,-0.5 1150,-0.5"/>
<text text-anchor="middle" x="1214.5" y="-7.5" font-family="Helvetica,sans-Serif" font-size="10.00">ComputeSpectrogram.cpp</text>
</a>
</g>
</g>
<!-- Node5&#45;&gt;Node15 -->
<g id="edge14" class="edge">
<title>Node5&#45;&gt;Node15</title>
<path fill="none" stroke="midnightblue" d="M621.13,-56.01C850.39,-19.59 912.71,-41.71 1140.5,-20 1143.59,-19.71 1146.75,-19.39 1149.95,-19.05"/>
<polygon fill="midnightblue" stroke="midnightblue" points="620.46,-52.57 611.15,-57.61 621.58,-59.48 620.46,-52.57"/>
</g>
</g>
</svg>
