<?xml version="1.0" encoding="UTF-8" standalone="no"?>
<!DOCTYPE svg PUBLIC "-//W3C//DTD SVG 1.1//EN"
 "http://www.w3.org/Graphics/SVG/1.1/DTD/svg11.dtd">
<!-- Generated by graphviz version 4.0.0 (20220602.1335)
 -->
<!-- Title: ToolLeaveOneOutCrossVal.cpp Pages: 1 -->
<svg width="540pt" height="308pt"
 viewBox="0.00 0.00 540.00 308.00" xmlns="http://www.w3.org/2000/svg" xmlns:xlink="http://www.w3.org/1999/xlink">
<g id="graph0" class="graph" transform="scale(1 1) rotate(0) translate(4 304)">
<title>ToolLeaveOneOutCrossVal.cpp</title>
<polygon fill="white" stroke="transparent" points="-4,4 -4,-304 536,-304 536,4 -4,4"/>
<!-- Node1 -->
<g id="node1" class="node">
<title>Node1</title>
<g id="a_node1"><a xlink:title=" ">
<polygon fill="#bfbfbf" stroke="black" points="125.5,-280.5 125.5,-299.5 279.5,-299.5 279.5,-280.5 125.5,-280.5"/>
<text text-anchor="middle" x="202.5" y="-287.5" font-family="Helvetica,sans-Serif" font-size="10.00">ToolLeaveOneOutCrossVal.cpp</text>
</a>
</g>
</g>
<!-- Node2 -->
<g id="node2" class="node">
<title>Node2</title>
<g id="a_node2"><a xlink:href="a00155.xhtml" target="_top" xlink:title=" ">
<polygon fill="white" stroke="black" points="141,-168.5 141,-187.5 194,-187.5 194,-168.5 141,-168.5"/>
<text text-anchor="middle" x="167.5" y="-175.5" font-family="Helvetica,sans-Serif" font-size="10.00">Vector.h</text>
</a>
</g>
</g>
<!-- Node1&#45;&gt;Node2 -->
<g id="edge1" class="edge">
<title>Node1&#45;&gt;Node2</title>
<path fill="none" stroke="midnightblue" d="M199.75,-280.37C194.08,-262.54 180.96,-221.3 173.31,-197.27"/>
<polygon fill="midnightblue" stroke="midnightblue" points="176.6,-196.06 170.23,-187.59 169.93,-198.18 176.6,-196.06"/>
</g>
<!-- Node11 -->
<g id="node11" class="node">
<title>Node11</title>
<g id="a_node11"><a xlink:href="a00143.xhtml" target="_top" xlink:title=" ">
<polygon fill="white" stroke="black" points="87.5,-224.5 87.5,-243.5 137.5,-243.5 137.5,-224.5 87.5,-224.5"/>
<text text-anchor="middle" x="112.5" y="-231.5" font-family="Helvetica,sans-Serif" font-size="10.00">Matrix.h</text>
</a>
</g>
</g>
<!-- Node1&#45;&gt;Node11 -->
<g id="edge14" class="edge">
<title>Node1&#45;&gt;Node11</title>
<path fill="none" stroke="midnightblue" d="M188.04,-280.32C174,-271.9 152.45,-258.97 135.96,-249.07"/>
<polygon fill="midnightblue" stroke="midnightblue" points="137.3,-245.8 126.92,-243.65 133.7,-251.8 137.3,-245.8"/>
</g>
<!-- Node13 -->
<g id="node13" class="node">
<title>Node13</title>
<g id="a_node13"><a xlink:href="a00245.xhtml" target="_top" xlink:title=" ">
<polygon fill="white" stroke="black" points="250.5,-224.5 250.5,-243.5 336.5,-243.5 336.5,-224.5 250.5,-224.5"/>
<text text-anchor="middle" x="293.5" y="-231.5" font-family="Helvetica,sans-Serif" font-size="10.00">ClassifierBase.h</text>
</a>
</g>
</g>
<!-- Node1&#45;&gt;Node13 -->
<g id="edge18" class="edge">
<title>Node1&#45;&gt;Node13</title>
<path fill="none" stroke="midnightblue" d="M217.12,-280.32C231.45,-271.82 253.51,-258.73 270.25,-248.8"/>
<polygon fill="midnightblue" stroke="midnightblue" points="272.1,-251.77 278.92,-243.65 268.53,-245.75 272.1,-251.77"/>
</g>
<!-- Node14 -->
<g id="node14" class="node">
<title>Node14</title>
<g id="a_node14"><a xlink:href="a00248.xhtml" target="_top" xlink:title=" ">
<polygon fill="white" stroke="black" points="389,-112.5 389,-131.5 532,-131.5 532,-112.5 389,-112.5"/>
<text text-anchor="middle" x="460.5" y="-119.5" font-family="Helvetica,sans-Serif" font-size="10.00">ToolLeaveOneOutCrossVal.h</text>
</a>
</g>
</g>
<!-- Node1&#45;&gt;Node14 -->
<g id="edge19" class="edge">
<title>Node1&#45;&gt;Node14</title>
<path fill="none" stroke="midnightblue" d="M205.74,-280.3C211.21,-266.68 223.48,-240.17 241.5,-224 293.29,-177.54 370.12,-148.84 417.67,-134.42"/>
<polygon fill="midnightblue" stroke="midnightblue" points="418.75,-137.75 427.35,-131.55 416.76,-131.03 418.75,-137.75"/>
</g>
<!-- Node3 -->
<g id="node3" class="node">
<title>Node3</title>
<g id="a_node3"><a xlink:title=" ">
<polygon fill="white" stroke="#bfbfbf" points="0,-0.5 0,-19.5 49,-19.5 49,-0.5 0,-0.5"/>
<text text-anchor="middle" x="24.5" y="-7.5" font-family="Helvetica,sans-Serif" font-size="10.00">cassert</text>
</a>
</g>
</g>
<!-- Node2&#45;&gt;Node3 -->
<g id="edge2" class="edge">
<title>Node2&#45;&gt;Node3</title>
<path fill="none" stroke="midnightblue" d="M150.91,-168.29C123.97,-153.24 70.95,-119.75 43.5,-76 34.62,-61.84 29.74,-43.36 27.16,-29.72"/>
<polygon fill="midnightblue" stroke="midnightblue" points="30.57,-28.91 25.49,-19.61 23.67,-30.05 30.57,-28.91"/>
</g>
<!-- Node4 -->
<g id="node4" class="node">
<title>Node4</title>
<g id="a_node4"><a xlink:title=" ">
<polygon fill="white" stroke="#bfbfbf" points="199.5,-0.5 199.5,-19.5 245.5,-19.5 245.5,-0.5 199.5,-0.5"/>
<text text-anchor="middle" x="222.5" y="-7.5" font-family="Helvetica,sans-Serif" font-size="10.00">cstring</text>
</a>
</g>
</g>
<!-- Node2&#45;&gt;Node4 -->
<g id="edge3" class="edge">
<title>Node2&#45;&gt;Node4</title>
<path fill="none" stroke="midnightblue" d="M189.26,-168.43C221.18,-154.52 279.52,-123.69 303.5,-76 316.18,-50.78 283.07,-32.1 255.42,-21.39"/>
<polygon fill="midnightblue" stroke="midnightblue" points="256.55,-18.08 245.95,-17.94 254.15,-24.65 256.55,-18.08"/>
</g>
<!-- Node5 -->
<g id="node5" class="node">
<title>Node5</title>
<g id="a_node5"><a xlink:title=" ">
<polygon fill="white" stroke="#bfbfbf" points="314.5,-0.5 314.5,-19.5 354.5,-19.5 354.5,-0.5 314.5,-0.5"/>
<text text-anchor="middle" x="334.5" y="-7.5" font-family="Helvetica,sans-Serif" font-size="10.00">limits</text>
</a>
</g>
</g>
<!-- Node2&#45;&gt;Node5 -->
<g id="edge4" class="edge">
<title>Node2&#45;&gt;Node5</title>
<path fill="none" stroke="midnightblue" d="M194.35,-170.71C218.3,-164.09 253.36,-151.83 278.5,-132 302.51,-113.06 305.73,-103.79 318.5,-76 325.32,-61.15 329.48,-43 331.84,-29.66"/>
<polygon fill="midnightblue" stroke="midnightblue" points="335.3,-30.19 333.42,-19.76 328.39,-29.08 335.3,-30.19"/>
</g>
<!-- Node6 -->
<g id="node6" class="node">
<title>Node6</title>
<g id="a_node6"><a xlink:title=" ">
<polygon fill="white" stroke="#bfbfbf" points="52.5,-56.5 52.5,-75.5 96.5,-75.5 96.5,-56.5 52.5,-56.5"/>
<text text-anchor="middle" x="74.5" y="-63.5" font-family="Helvetica,sans-Serif" font-size="10.00">cmath</text>
</a>
</g>
</g>
<!-- Node2&#45;&gt;Node6 -->
<g id="edge5" class="edge">
<title>Node2&#45;&gt;Node6</title>
<path fill="none" stroke="midnightblue" d="M158.64,-168.3C149.74,-159.42 135.76,-145.12 124.5,-132 110.94,-116.2 96.56,-97.24 86.71,-83.88"/>
<polygon fill="midnightblue" stroke="midnightblue" points="89.42,-81.65 80.69,-75.64 83.77,-85.78 89.42,-81.65"/>
</g>
<!-- Node7 -->
<g id="node7" class="node">
<title>Node7</title>
<g id="a_node7"><a xlink:href="a00140.xhtml" target="_top" xlink:title=" ">
<polygon fill="white" stroke="black" points="134,-112.5 134,-131.5 201,-131.5 201,-112.5 134,-112.5"/>
<text text-anchor="middle" x="167.5" y="-119.5" font-family="Helvetica,sans-Serif" font-size="10.00">Synthesis.h</text>
</a>
</g>
</g>
<!-- Node2&#45;&gt;Node7 -->
<g id="edge6" class="edge">
<title>Node2&#45;&gt;Node7</title>
<path fill="none" stroke="midnightblue" d="M167.5,-168.08C167.5,-161.01 167.5,-150.86 167.5,-141.99"/>
<polygon fill="midnightblue" stroke="midnightblue" points="171,-141.75 167.5,-131.75 164,-141.75 171,-141.75"/>
</g>
<!-- Node7&#45;&gt;Node6 -->
<g id="edge7" class="edge">
<title>Node7&#45;&gt;Node6</title>
<path fill="none" stroke="midnightblue" d="M152.56,-112.32C137.91,-103.82 115.37,-90.73 98.26,-80.8"/>
<polygon fill="midnightblue" stroke="midnightblue" points="99.81,-77.65 89.4,-75.65 96.3,-83.7 99.81,-77.65"/>
</g>
<!-- Node8 -->
<g id="node8" class="node">
<title>Node8</title>
<g id="a_node8"><a xlink:title=" ">
<polygon fill="white" stroke="#bfbfbf" points="115,-56.5 115,-75.5 160,-75.5 160,-56.5 115,-56.5"/>
<text text-anchor="middle" x="137.5" y="-63.5" font-family="Helvetica,sans-Serif" font-size="10.00">cstdlib</text>
</a>
</g>
</g>
<!-- Node7&#45;&gt;Node8 -->
<g id="edge8" class="edge">
<title>Node7&#45;&gt;Node8</title>
<path fill="none" stroke="midnightblue" d="M162.55,-112.08C158.4,-104.61 152.35,-93.72 147.23,-84.52"/>
<polygon fill="midnightblue" stroke="midnightblue" points="150.28,-82.79 142.36,-75.75 144.16,-86.19 150.28,-82.79"/>
</g>
<!-- Node9 -->
<g id="node9" class="node">
<title>Node9</title>
<g id="a_node9"><a xlink:href="a00224.xhtml" target="_top" xlink:title=" ">
<polygon fill="white" stroke="black" points="235,-56.5 235,-75.5 294,-75.5 294,-56.5 235,-56.5"/>
<text text-anchor="middle" x="264.5" y="-63.5" font-family="Helvetica,sans-Serif" font-size="10.00">ErrorDef.h</text>
</a>
</g>
</g>
<!-- Node7&#45;&gt;Node9 -->
<g id="edge9" class="edge">
<title>Node7&#45;&gt;Node9</title>
<path fill="none" stroke="midnightblue" d="M183.08,-112.32C198.5,-103.74 222.31,-90.49 240.21,-80.52"/>
<polygon fill="midnightblue" stroke="midnightblue" points="241.92,-83.58 248.95,-75.65 238.51,-77.46 241.92,-83.58"/>
</g>
<!-- Node10 -->
<g id="node10" class="node">
<title>Node10</title>
<g id="a_node10"><a xlink:href="a00149.xhtml" target="_top" xlink:title=" ">
<polygon fill="white" stroke="black" points="178,-56.5 178,-75.5 217,-75.5 217,-56.5 178,-56.5"/>
<text text-anchor="middle" x="197.5" y="-63.5" font-family="Helvetica,sans-Serif" font-size="10.00">Util.h</text>
</a>
</g>
</g>
<!-- Node7&#45;&gt;Node10 -->
<g id="edge10" class="edge">
<title>Node7&#45;&gt;Node10</title>
<path fill="none" stroke="midnightblue" d="M172.45,-112.08C176.6,-104.61 182.65,-93.72 187.77,-84.52"/>
<polygon fill="midnightblue" stroke="midnightblue" points="190.84,-86.19 192.64,-75.75 184.72,-82.79 190.84,-86.19"/>
</g>
<!-- Node10&#45;&gt;Node3 -->
<g id="edge11" class="edge">
<title>Node10&#45;&gt;Node3</title>
<path fill="none" stroke="midnightblue" d="M177.99,-58.91C149.2,-49.92 94.89,-32.97 59.2,-21.83"/>
<polygon fill="midnightblue" stroke="midnightblue" points="59.81,-18.35 49.22,-18.72 57.72,-25.04 59.81,-18.35"/>
</g>
<!-- Node10&#45;&gt;Node4 -->
<g id="edge12" class="edge">
<title>Node10&#45;&gt;Node4</title>
<path fill="none" stroke="midnightblue" d="M201.63,-56.08C205.01,-48.77 209.92,-38.18 214.12,-29.1"/>
<polygon fill="midnightblue" stroke="midnightblue" points="217.42,-30.3 218.45,-19.75 211.07,-27.36 217.42,-30.3"/>
</g>
<!-- Node10&#45;&gt;Node5 -->
<g id="edge13" class="edge">
<title>Node10&#45;&gt;Node5</title>
<path fill="none" stroke="midnightblue" d="M217.13,-57.26C240.09,-48.21 278.34,-33.14 304.91,-22.66"/>
<polygon fill="midnightblue" stroke="midnightblue" points="306.44,-25.82 314.46,-18.9 303.88,-19.31 306.44,-25.82"/>
</g>
<!-- Node11&#45;&gt;Node2 -->
<g id="edge17" class="edge">
<title>Node11&#45;&gt;Node2</title>
<path fill="none" stroke="midnightblue" d="M121.58,-224.08C129.67,-216.14 141.7,-204.34 151.41,-194.8"/>
<polygon fill="midnightblue" stroke="midnightblue" points="153.9,-197.25 158.59,-187.75 149,-192.26 153.9,-197.25"/>
</g>
<!-- Node11&#45;&gt;Node3 -->
<g id="edge15" class="edge">
<title>Node11&#45;&gt;Node3</title>
<path fill="none" stroke="midnightblue" d="M97.33,-224.46C84.76,-216.6 67.41,-203.78 57.5,-188 25.82,-137.56 23.02,-64.16 23.66,-29.91"/>
<polygon fill="midnightblue" stroke="midnightblue" points="27.17,-29.64 23.98,-19.53 20.17,-29.42 27.17,-29.64"/>
</g>
<!-- Node12 -->
<g id="node12" class="node">
<title>Node12</title>
<g id="a_node12"><a xlink:title=" ">
<polygon fill="white" stroke="#bfbfbf" points="66.5,-168.5 66.5,-187.5 122.5,-187.5 122.5,-168.5 66.5,-168.5"/>
<text text-anchor="middle" x="94.5" y="-175.5" font-family="Helvetica,sans-Serif" font-size="10.00">algorithm</text>
</a>
</g>
</g>
<!-- Node11&#45;&gt;Node12 -->
<g id="edge16" class="edge">
<title>Node11&#45;&gt;Node12</title>
<path fill="none" stroke="midnightblue" d="M109.53,-224.08C107.12,-216.85 103.64,-206.41 100.63,-197.4"/>
<polygon fill="midnightblue" stroke="midnightblue" points="103.9,-196.13 97.42,-187.75 97.26,-198.34 103.9,-196.13"/>
</g>
<!-- Node14&#45;&gt;Node9 -->
<g id="edge20" class="edge">
<title>Node14&#45;&gt;Node9</title>
<path fill="none" stroke="midnightblue" d="M429.44,-112.44C395.5,-103.09 341.04,-88.09 304.06,-77.9"/>
<polygon fill="midnightblue" stroke="midnightblue" points="304.7,-74.44 294.13,-75.16 302.84,-81.19 304.7,-74.44"/>
</g>
</g>
</svg>
