<?xml version="1.0" encoding="UTF-8" standalone="no"?>
<!DOCTYPE svg PUBLIC "-//W3C//DTD SVG 1.1//EN"
 "http://www.w3.org/Graphics/SVG/1.1/DTD/svg11.dtd">
<!-- Generated by graphviz version 4.0.0 (20220602.1335)
 -->
<!-- Title: ToolSeqFeatureSel.cpp Pages: 1 -->
<svg width="603pt" height="308pt"
 viewBox="0.00 0.00 603.00 308.00" xmlns="http://www.w3.org/2000/svg" xmlns:xlink="http://www.w3.org/1999/xlink">
<g id="graph0" class="graph" transform="scale(1 1) rotate(0) translate(4 304)">
<title>ToolSeqFeatureSel.cpp</title>
<polygon fill="white" stroke="transparent" points="-4,4 -4,-304 599,-304 599,4 -4,4"/>
<!-- Node1 -->
<g id="node1" class="node">
<title>Node1</title>
<g id="a_node1"><a xlink:title=" ">
<polygon fill="#bfbfbf" stroke="black" points="257.5,-280.5 257.5,-299.5 375.5,-299.5 375.5,-280.5 257.5,-280.5"/>
<text text-anchor="middle" x="316.5" y="-287.5" font-family="Helvetica,sans-Serif" font-size="10.00">ToolSeqFeatureSel.cpp</text>
</a>
</g>
</g>
<!-- Node2 -->
<g id="node2" class="node">
<title>Node2</title>
<g id="a_node2"><a xlink:href="a00155.xhtml" target="_top" xlink:title=" ">
<polygon fill="white" stroke="black" points="119,-168.5 119,-187.5 172,-187.5 172,-168.5 119,-168.5"/>
<text text-anchor="middle" x="145.5" y="-175.5" font-family="Helvetica,sans-Serif" font-size="10.00">Vector.h</text>
</a>
</g>
</g>
<!-- Node1&#45;&gt;Node2 -->
<g id="edge1" class="edge">
<title>Node1&#45;&gt;Node2</title>
<path fill="none" stroke="midnightblue" d="M303.08,-280.37C273.74,-261.49 203.62,-216.38 167.63,-193.24"/>
<polygon fill="midnightblue" stroke="midnightblue" points="169.16,-190.06 158.86,-187.59 165.37,-195.95 169.16,-190.06"/>
</g>
<!-- Node11 -->
<g id="node11" class="node">
<title>Node11</title>
<g id="a_node11"><a xlink:href="a00143.xhtml" target="_top" xlink:title=" ">
<polygon fill="white" stroke="black" points="84.5,-224.5 84.5,-243.5 134.5,-243.5 134.5,-224.5 84.5,-224.5"/>
<text text-anchor="middle" x="109.5" y="-231.5" font-family="Helvetica,sans-Serif" font-size="10.00">Matrix.h</text>
</a>
</g>
</g>
<!-- Node1&#45;&gt;Node11 -->
<g id="edge14" class="edge">
<title>Node1&#45;&gt;Node11</title>
<path fill="none" stroke="midnightblue" d="M283.7,-280.44C245.71,-270.53 183.38,-254.27 144.49,-244.13"/>
<polygon fill="midnightblue" stroke="midnightblue" points="145.22,-240.7 134.66,-241.56 143.45,-247.47 145.22,-240.7"/>
</g>
<!-- Node13 -->
<g id="node13" class="node">
<title>Node13</title>
<g id="a_node13"><a xlink:href="a00248.xhtml" target="_top" xlink:title=" ">
<polygon fill="white" stroke="black" points="288,-112.5 288,-131.5 431,-131.5 431,-112.5 288,-112.5"/>
<text text-anchor="middle" x="359.5" y="-119.5" font-family="Helvetica,sans-Serif" font-size="10.00">ToolLeaveOneOutCrossVal.h</text>
</a>
</g>
</g>
<!-- Node1&#45;&gt;Node13 -->
<g id="edge18" class="edge">
<title>Node1&#45;&gt;Node13</title>
<path fill="none" stroke="midnightblue" d="M317.02,-280.27C318.42,-260.06 323.11,-208.65 336.5,-168 339.62,-158.52 344.51,-148.58 348.98,-140.46"/>
<polygon fill="midnightblue" stroke="midnightblue" points="352.12,-142.03 354.08,-131.61 346.05,-138.53 352.12,-142.03"/>
</g>
<!-- Node14 -->
<g id="node14" class="node">
<title>Node14</title>
<g id="a_node14"><a xlink:href="a00173.xhtml" target="_top" xlink:title=" ">
<polygon fill="white" stroke="black" points="344.5,-224.5 344.5,-243.5 434.5,-243.5 434.5,-224.5 344.5,-224.5"/>
<text text-anchor="middle" x="389.5" y="-231.5" font-family="Helvetica,sans-Serif" font-size="10.00">ToolSimpleKnn.h</text>
</a>
</g>
</g>
<!-- Node1&#45;&gt;Node14 -->
<g id="edge20" class="edge">
<title>Node1&#45;&gt;Node14</title>
<path fill="none" stroke="midnightblue" d="M328.23,-280.32C339.34,-272.11 356.24,-259.6 369.48,-249.81"/>
<polygon fill="midnightblue" stroke="midnightblue" points="371.6,-252.59 377.56,-243.83 367.44,-246.97 371.6,-252.59"/>
</g>
<!-- Node16 -->
<g id="node16" class="node">
<title>Node16</title>
<g id="a_node16"><a xlink:href="a00131.xhtml" target="_top" xlink:title=" ">
<polygon fill="white" stroke="black" points="488,-112.5 488,-131.5 595,-131.5 595,-112.5 488,-112.5"/>
<text text-anchor="middle" x="541.5" y="-119.5" font-family="Helvetica,sans-Serif" font-size="10.00">ToolSeqFeatureSel.h</text>
</a>
</g>
</g>
<!-- Node1&#45;&gt;Node16 -->
<g id="edge23" class="edge">
<title>Node1&#45;&gt;Node16</title>
<path fill="none" stroke="midnightblue" d="M357.81,-280.48C384.06,-273.66 417.81,-262.16 443.5,-244 483.63,-215.64 516.18,-166.55 531.68,-140.46"/>
<polygon fill="midnightblue" stroke="midnightblue" points="534.78,-142.09 536.77,-131.68 528.73,-138.58 534.78,-142.09"/>
</g>
<!-- Node3 -->
<g id="node3" class="node">
<title>Node3</title>
<g id="a_node3"><a xlink:title=" ">
<polygon fill="white" stroke="#bfbfbf" points="0,-0.5 0,-19.5 49,-19.5 49,-0.5 0,-0.5"/>
<text text-anchor="middle" x="24.5" y="-7.5" font-family="Helvetica,sans-Serif" font-size="10.00">cassert</text>
</a>
</g>
</g>
<!-- Node2&#45;&gt;Node3 -->
<g id="edge2" class="edge">
<title>Node2&#45;&gt;Node3</title>
<path fill="none" stroke="midnightblue" d="M133.31,-168.35C122.05,-159.95 105.32,-146.39 93.5,-132 66.23,-98.81 43.58,-53.43 32.27,-28.75"/>
<polygon fill="midnightblue" stroke="midnightblue" points="35.43,-27.23 28.14,-19.53 29.04,-30.09 35.43,-27.23"/>
</g>
<!-- Node4 -->
<g id="node4" class="node">
<title>Node4</title>
<g id="a_node4"><a xlink:title=" ">
<polygon fill="white" stroke="#bfbfbf" points="113.5,-0.5 113.5,-19.5 159.5,-19.5 159.5,-0.5 113.5,-0.5"/>
<text text-anchor="middle" x="136.5" y="-7.5" font-family="Helvetica,sans-Serif" font-size="10.00">cstring</text>
</a>
</g>
</g>
<!-- Node2&#45;&gt;Node4 -->
<g id="edge3" class="edge">
<title>Node2&#45;&gt;Node4</title>
<path fill="none" stroke="midnightblue" d="M137.58,-168.4C123.05,-151.95 92.61,-114.28 81.5,-76 79.02,-67.46 77.69,-64.03 81.5,-56 87.63,-43.07 99.49,-32.62 110.64,-25.05"/>
<polygon fill="midnightblue" stroke="midnightblue" points="112.69,-27.9 119.3,-19.61 108.97,-21.97 112.69,-27.9"/>
</g>
<!-- Node5 -->
<g id="node5" class="node">
<title>Node5</title>
<g id="a_node5"><a xlink:title=" ">
<polygon fill="white" stroke="#bfbfbf" points="187.5,-0.5 187.5,-19.5 227.5,-19.5 227.5,-0.5 187.5,-0.5"/>
<text text-anchor="middle" x="207.5" y="-7.5" font-family="Helvetica,sans-Serif" font-size="10.00">limits</text>
</a>
</g>
</g>
<!-- Node2&#45;&gt;Node5 -->
<g id="edge4" class="edge">
<title>Node2&#45;&gt;Node5</title>
<path fill="none" stroke="midnightblue" d="M164.7,-168.36C193.57,-154.06 246.62,-122.37 263.5,-76 266.54,-67.65 267.34,-64.02 263.5,-56 257.25,-42.95 245.16,-32.49 233.82,-24.95"/>
<polygon fill="midnightblue" stroke="midnightblue" points="235.35,-21.79 225,-19.54 231.69,-27.75 235.35,-21.79"/>
</g>
<!-- Node6 -->
<g id="node6" class="node">
<title>Node6</title>
<g id="a_node6"><a xlink:title=" ">
<polygon fill="white" stroke="#bfbfbf" points="90.5,-56.5 90.5,-75.5 134.5,-75.5 134.5,-56.5 90.5,-56.5"/>
<text text-anchor="middle" x="112.5" y="-63.5" font-family="Helvetica,sans-Serif" font-size="10.00">cmath</text>
</a>
</g>
</g>
<!-- Node2&#45;&gt;Node6 -->
<g id="edge5" class="edge">
<title>Node2&#45;&gt;Node6</title>
<path fill="none" stroke="midnightblue" d="M142.77,-168.39C139.92,-159.34 135.33,-144.69 131.5,-132 126.78,-116.35 121.58,-98.52 117.82,-85.5"/>
<polygon fill="midnightblue" stroke="midnightblue" points="121.17,-84.49 115.03,-75.85 114.44,-86.42 121.17,-84.49"/>
</g>
<!-- Node7 -->
<g id="node7" class="node">
<title>Node7</title>
<g id="a_node7"><a xlink:href="a00140.xhtml" target="_top" xlink:title=" ">
<polygon fill="white" stroke="black" points="141,-112.5 141,-131.5 208,-131.5 208,-112.5 141,-112.5"/>
<text text-anchor="middle" x="174.5" y="-119.5" font-family="Helvetica,sans-Serif" font-size="10.00">Synthesis.h</text>
</a>
</g>
</g>
<!-- Node2&#45;&gt;Node7 -->
<g id="edge6" class="edge">
<title>Node2&#45;&gt;Node7</title>
<path fill="none" stroke="midnightblue" d="M150.29,-168.08C154.26,-160.69 160.03,-149.95 164.93,-140.81"/>
<polygon fill="midnightblue" stroke="midnightblue" points="168.15,-142.22 169.8,-131.75 161.99,-138.91 168.15,-142.22"/>
</g>
<!-- Node7&#45;&gt;Node6 -->
<g id="edge7" class="edge">
<title>Node7&#45;&gt;Node6</title>
<path fill="none" stroke="midnightblue" d="M164.54,-112.32C155.37,-104.34 141.56,-92.31 130.47,-82.65"/>
<polygon fill="midnightblue" stroke="midnightblue" points="132.48,-79.76 122.64,-75.83 127.88,-85.04 132.48,-79.76"/>
</g>
<!-- Node8 -->
<g id="node8" class="node">
<title>Node8</title>
<g id="a_node8"><a xlink:title=" ">
<polygon fill="white" stroke="#bfbfbf" points="210,-56.5 210,-75.5 255,-75.5 255,-56.5 210,-56.5"/>
<text text-anchor="middle" x="232.5" y="-63.5" font-family="Helvetica,sans-Serif" font-size="10.00">cstdlib</text>
</a>
</g>
</g>
<!-- Node7&#45;&gt;Node8 -->
<g id="edge8" class="edge">
<title>Node7&#45;&gt;Node8</title>
<path fill="none" stroke="midnightblue" d="M183.82,-112.32C192.39,-104.34 205.31,-92.31 215.69,-82.65"/>
<polygon fill="midnightblue" stroke="midnightblue" points="218.08,-85.21 223.01,-75.83 213.31,-80.09 218.08,-85.21"/>
</g>
<!-- Node9 -->
<g id="node9" class="node">
<title>Node9</title>
<g id="a_node9"><a xlink:href="a00224.xhtml" target="_top" xlink:title=" ">
<polygon fill="white" stroke="black" points="359,-56.5 359,-75.5 418,-75.5 418,-56.5 359,-56.5"/>
<text text-anchor="middle" x="388.5" y="-63.5" font-family="Helvetica,sans-Serif" font-size="10.00">ErrorDef.h</text>
</a>
</g>
</g>
<!-- Node7&#45;&gt;Node9 -->
<g id="edge9" class="edge">
<title>Node7&#45;&gt;Node9</title>
<path fill="none" stroke="midnightblue" d="M208.41,-112.44C246.65,-102.79 308.76,-87.12 349.12,-76.94"/>
<polygon fill="midnightblue" stroke="midnightblue" points="350.05,-80.31 358.88,-74.47 348.33,-73.53 350.05,-80.31"/>
</g>
<!-- Node10 -->
<g id="node10" class="node">
<title>Node10</title>
<g id="a_node10"><a xlink:href="a00149.xhtml" target="_top" xlink:title=" ">
<polygon fill="white" stroke="black" points="153,-56.5 153,-75.5 192,-75.5 192,-56.5 153,-56.5"/>
<text text-anchor="middle" x="172.5" y="-63.5" font-family="Helvetica,sans-Serif" font-size="10.00">Util.h</text>
</a>
</g>
</g>
<!-- Node7&#45;&gt;Node10 -->
<g id="edge10" class="edge">
<title>Node7&#45;&gt;Node10</title>
<path fill="none" stroke="midnightblue" d="M174.17,-112.08C173.91,-105.01 173.53,-94.86 173.2,-85.99"/>
<polygon fill="midnightblue" stroke="midnightblue" points="176.69,-85.61 172.82,-75.75 169.7,-85.87 176.69,-85.61"/>
</g>
<!-- Node10&#45;&gt;Node3 -->
<g id="edge11" class="edge">
<title>Node10&#45;&gt;Node3</title>
<path fill="none" stroke="midnightblue" d="M152.85,-57.83C128.54,-48.96 86.82,-33.74 57.55,-23.06"/>
<polygon fill="midnightblue" stroke="midnightblue" points="58.74,-19.77 48.15,-19.63 56.35,-26.34 58.74,-19.77"/>
</g>
<!-- Node10&#45;&gt;Node4 -->
<g id="edge12" class="edge">
<title>Node10&#45;&gt;Node4</title>
<path fill="none" stroke="midnightblue" d="M166.56,-56.08C161.52,-48.53 154.16,-37.49 147.99,-28.23"/>
<polygon fill="midnightblue" stroke="midnightblue" points="150.79,-26.13 142.33,-19.75 144.97,-30.01 150.79,-26.13"/>
</g>
<!-- Node10&#45;&gt;Node5 -->
<g id="edge13" class="edge">
<title>Node10&#45;&gt;Node5</title>
<path fill="none" stroke="midnightblue" d="M178.28,-56.08C183.17,-48.53 190.33,-37.49 196.33,-28.23"/>
<polygon fill="midnightblue" stroke="midnightblue" points="199.33,-30.05 201.83,-19.75 193.45,-26.24 199.33,-30.05"/>
</g>
<!-- Node11&#45;&gt;Node2 -->
<g id="edge17" class="edge">
<title>Node11&#45;&gt;Node2</title>
<path fill="none" stroke="midnightblue" d="M115.44,-224.08C120.48,-216.53 127.84,-205.49 134.01,-196.23"/>
<polygon fill="midnightblue" stroke="midnightblue" points="137.03,-198.01 139.67,-187.75 131.21,-194.13 137.03,-198.01"/>
</g>
<!-- Node11&#45;&gt;Node3 -->
<g id="edge15" class="edge">
<title>Node11&#45;&gt;Node3</title>
<path fill="none" stroke="midnightblue" d="M84.39,-224.75C67.49,-217.79 46.38,-206.02 35.5,-188 5.04,-137.56 13.97,-63.63 20.43,-29.51"/>
<polygon fill="midnightblue" stroke="midnightblue" points="23.89,-30.05 22.46,-19.55 17.03,-28.65 23.89,-30.05"/>
</g>
<!-- Node12 -->
<g id="node12" class="node">
<title>Node12</title>
<g id="a_node12"><a xlink:title=" ">
<polygon fill="white" stroke="#bfbfbf" points="44.5,-168.5 44.5,-187.5 100.5,-187.5 100.5,-168.5 44.5,-168.5"/>
<text text-anchor="middle" x="72.5" y="-175.5" font-family="Helvetica,sans-Serif" font-size="10.00">algorithm</text>
</a>
</g>
</g>
<!-- Node11&#45;&gt;Node12 -->
<g id="edge16" class="edge">
<title>Node11&#45;&gt;Node12</title>
<path fill="none" stroke="midnightblue" d="M103.39,-224.08C98.22,-216.53 90.65,-205.49 84.31,-196.23"/>
<polygon fill="midnightblue" stroke="midnightblue" points="87.04,-194.02 78.5,-187.75 81.26,-197.98 87.04,-194.02"/>
</g>
<!-- Node13&#45;&gt;Node9 -->
<g id="edge19" class="edge">
<title>Node13&#45;&gt;Node9</title>
<path fill="none" stroke="midnightblue" d="M364.29,-112.08C368.26,-104.69 374.03,-93.95 378.93,-84.81"/>
<polygon fill="midnightblue" stroke="midnightblue" points="382.15,-86.22 383.8,-75.75 375.99,-82.91 382.15,-86.22"/>
</g>
<!-- Node14&#45;&gt;Node9 -->
<g id="edge21" class="edge">
<title>Node14&#45;&gt;Node9</title>
<path fill="none" stroke="midnightblue" d="M405.23,-224.24C417.39,-216.48 433.31,-203.93 440.5,-188 454.39,-157.21 454.54,-142.72 440.5,-112 434.72,-99.36 423.45,-88.91 412.87,-81.27"/>
<polygon fill="midnightblue" stroke="midnightblue" points="414.54,-78.18 404.28,-75.53 410.65,-84 414.54,-78.18"/>
</g>
<!-- Node15 -->
<g id="node15" class="node">
<title>Node15</title>
<g id="a_node15"><a xlink:href="a00245.xhtml" target="_top" xlink:title=" ">
<polygon fill="white" stroke="black" points="345.5,-168.5 345.5,-187.5 431.5,-187.5 431.5,-168.5 345.5,-168.5"/>
<text text-anchor="middle" x="388.5" y="-175.5" font-family="Helvetica,sans-Serif" font-size="10.00">ClassifierBase.h</text>
</a>
</g>
</g>
<!-- Node14&#45;&gt;Node15 -->
<g id="edge22" class="edge">
<title>Node14&#45;&gt;Node15</title>
<path fill="none" stroke="midnightblue" d="M389.33,-224.08C389.2,-217.01 389.02,-206.86 388.85,-197.99"/>
<polygon fill="midnightblue" stroke="midnightblue" points="392.35,-197.68 388.66,-187.75 385.35,-197.81 392.35,-197.68"/>
</g>
<!-- Node16&#45;&gt;Node9 -->
<g id="edge24" class="edge">
<title>Node16&#45;&gt;Node9</title>
<path fill="none" stroke="midnightblue" d="M517.26,-112.44C491.63,-103.4 451.01,-89.06 422.26,-78.92"/>
<polygon fill="midnightblue" stroke="midnightblue" points="423.22,-75.54 412.63,-75.52 420.89,-82.15 423.22,-75.54"/>
</g>
</g>
</svg>
