<?xml version="1.0" encoding="UTF-8" standalone="no"?>
<!DOCTYPE svg PUBLIC "-//W3C//DTD SVG 1.1//EN"
 "http://www.w3.org/Graphics/SVG/1.1/DTD/svg11.dtd">
<!-- Generated by graphviz version 4.0.0 (20220602.1335)
 -->
<!-- Title: ToolPreProc.h Pages: 1 -->
<svg width="552pt" height="252pt"
 viewBox="0.00 0.00 551.50 252.00" xmlns="http://www.w3.org/2000/svg" xmlns:xlink="http://www.w3.org/1999/xlink">
<g id="graph0" class="graph" transform="scale(1 1) rotate(0) translate(4 248)">
<title>ToolPreProc.h</title>
<polygon fill="white" stroke="transparent" points="-4,4 -4,-248 547.5,-248 547.5,4 -4,4"/>
<!-- Node1 -->
<g id="node1" class="node">
<title>Node1</title>
<g id="a_node1"><a xlink:title=" ">
<polygon fill="#bfbfbf" stroke="black" points="132.5,-224.5 132.5,-243.5 210.5,-243.5 210.5,-224.5 132.5,-224.5"/>
<text text-anchor="middle" x="171.5" y="-231.5" font-family="Helvetica,sans-Serif" font-size="10.00">ToolPreProc.h</text>
</a>
</g>
</g>
<!-- Node2 -->
<g id="node2" class="node">
<title>Node2</title>
<g id="a_node2"><a xlink:title=" ">
<polygon fill="white" stroke="#bfbfbf" points="0,-0.5 0,-19.5 49,-19.5 49,-0.5 0,-0.5"/>
<text text-anchor="middle" x="24.5" y="-7.5" font-family="Helvetica,sans-Serif" font-size="10.00">cassert</text>
</a>
</g>
</g>
<!-- Node1&#45;&gt;Node2 -->
<g id="edge1" class="edge">
<title>Node1&#45;&gt;Node2</title>
<path fill="none" stroke="midnightblue" d="M158.77,-224.25C129.17,-203.01 56.3,-145.36 30.5,-76 25,-61.21 23.71,-43.29 23.67,-30.01"/>
<polygon fill="midnightblue" stroke="midnightblue" points="27.18,-29.8 23.89,-19.73 20.18,-29.65 27.18,-29.8"/>
</g>
<!-- Node3 -->
<g id="node3" class="node">
<title>Node3</title>
<g id="a_node3"><a xlink:href="a00155.xhtml" target="_top" xlink:title=" ">
<polygon fill="white" stroke="black" points="345,-168.5 345,-187.5 416,-187.5 416,-168.5 345,-168.5"/>
<text text-anchor="middle" x="380.5" y="-175.5" font-family="Helvetica,sans-Serif" font-size="10.00">AudioFileIf.h</text>
</a>
</g>
</g>
<!-- Node1&#45;&gt;Node3 -->
<g id="edge2" class="edge">
<title>Node1&#45;&gt;Node3</title>
<path fill="none" stroke="midnightblue" d="M204.62,-224.44C240.62,-215.14 298.27,-200.25 337.69,-190.06"/>
<polygon fill="midnightblue" stroke="midnightblue" points="338.73,-193.41 347.54,-187.52 336.98,-186.63 338.73,-193.41"/>
</g>
<!-- Node8 -->
<g id="node8" class="node">
<title>Node8</title>
<g id="a_node8"><a xlink:href="a00143.xhtml" target="_top" xlink:title=" ">
<polygon fill="white" stroke="black" points="145,-168.5 145,-187.5 198,-187.5 198,-168.5 145,-168.5"/>
<text text-anchor="middle" x="171.5" y="-175.5" font-family="Helvetica,sans-Serif" font-size="10.00">Vector.h</text>
</a>
</g>
</g>
<!-- Node1&#45;&gt;Node8 -->
<g id="edge7" class="edge">
<title>Node1&#45;&gt;Node8</title>
<path fill="none" stroke="midnightblue" d="M171.5,-224.08C171.5,-217.01 171.5,-206.86 171.5,-197.99"/>
<polygon fill="midnightblue" stroke="midnightblue" points="175,-197.75 171.5,-187.75 168,-197.75 175,-197.75"/>
</g>
<!-- Node4 -->
<g id="node4" class="node">
<title>Node4</title>
<g id="a_node4"><a xlink:title=" ">
<polygon fill="white" stroke="#bfbfbf" points="360,-112.5 360,-131.5 401,-131.5 401,-112.5 360,-112.5"/>
<text text-anchor="middle" x="380.5" y="-119.5" font-family="Helvetica,sans-Serif" font-size="10.00">string</text>
</a>
</g>
</g>
<!-- Node3&#45;&gt;Node4 -->
<g id="edge3" class="edge">
<title>Node3&#45;&gt;Node4</title>
<path fill="none" stroke="midnightblue" d="M380.5,-168.08C380.5,-161.01 380.5,-150.86 380.5,-141.99"/>
<polygon fill="midnightblue" stroke="midnightblue" points="384,-141.75 380.5,-131.75 377,-141.75 384,-141.75"/>
</g>
<!-- Node5 -->
<g id="node5" class="node">
<title>Node5</title>
<g id="a_node5"><a xlink:title=" ">
<polygon fill="white" stroke="#bfbfbf" points="419.5,-112.5 419.5,-131.5 469.5,-131.5 469.5,-112.5 419.5,-112.5"/>
<text text-anchor="middle" x="444.5" y="-119.5" font-family="Helvetica,sans-Serif" font-size="10.00">fstream</text>
</a>
</g>
</g>
<!-- Node3&#45;&gt;Node5 -->
<g id="edge4" class="edge">
<title>Node3&#45;&gt;Node5</title>
<path fill="none" stroke="midnightblue" d="M390.78,-168.32C400.34,-160.26 414.78,-148.08 426.28,-138.37"/>
<polygon fill="midnightblue" stroke="midnightblue" points="428.64,-140.96 434.03,-131.83 424.13,-135.61 428.64,-140.96"/>
</g>
<!-- Node6 -->
<g id="node6" class="node">
<title>Node6</title>
<g id="a_node6"><a xlink:title=" ">
<polygon fill="white" stroke="#bfbfbf" points="487.5,-112.5 487.5,-131.5 543.5,-131.5 543.5,-112.5 487.5,-112.5"/>
<text text-anchor="middle" x="515.5" y="-119.5" font-family="Helvetica,sans-Serif" font-size="10.00">algorithm</text>
</a>
</g>
</g>
<!-- Node3&#45;&gt;Node6 -->
<g id="edge5" class="edge">
<title>Node3&#45;&gt;Node6</title>
<path fill="none" stroke="midnightblue" d="M401.89,-168.44C424.21,-159.52 459.4,-145.44 484.71,-135.32"/>
<polygon fill="midnightblue" stroke="midnightblue" points="486.22,-138.48 494.21,-131.52 483.62,-131.98 486.22,-138.48"/>
</g>
<!-- Node7 -->
<g id="node7" class="node">
<title>Node7</title>
<g id="a_node7"><a xlink:href="a00110.xhtml" target="_top" xlink:title=" ">
<polygon fill="white" stroke="black" points="312,-56.5 312,-75.5 371,-75.5 371,-56.5 312,-56.5"/>
<text text-anchor="middle" x="341.5" y="-63.5" font-family="Helvetica,sans-Serif" font-size="10.00">ErrorDef.h</text>
</a>
</g>
</g>
<!-- Node3&#45;&gt;Node7 -->
<g id="edge6" class="edge">
<title>Node3&#45;&gt;Node7</title>
<path fill="none" stroke="midnightblue" d="M373.29,-168.3C366.53,-159.65 356.71,-145.73 351.5,-132 345.86,-117.14 343.4,-99.22 342.32,-85.96"/>
<polygon fill="midnightblue" stroke="midnightblue" points="345.8,-85.47 341.69,-75.7 338.81,-85.9 345.8,-85.47"/>
</g>
<!-- Node8&#45;&gt;Node2 -->
<g id="edge8" class="edge">
<title>Node8&#45;&gt;Node2</title>
<path fill="none" stroke="midnightblue" d="M154.42,-168.4C126.66,-153.53 72,-120.27 43.5,-76 34.45,-61.94 29.59,-43.45 27.06,-29.78"/>
<polygon fill="midnightblue" stroke="midnightblue" points="30.48,-28.97 25.44,-19.64 23.56,-30.07 30.48,-28.97"/>
</g>
<!-- Node9 -->
<g id="node9" class="node">
<title>Node9</title>
<g id="a_node9"><a xlink:title=" ">
<polygon fill="white" stroke="#bfbfbf" points="253.5,-0.5 253.5,-19.5 299.5,-19.5 299.5,-0.5 253.5,-0.5"/>
<text text-anchor="middle" x="276.5" y="-7.5" font-family="Helvetica,sans-Serif" font-size="10.00">cstring</text>
</a>
</g>
</g>
<!-- Node8&#45;&gt;Node9 -->
<g id="edge9" class="edge">
<title>Node8&#45;&gt;Node9</title>
<path fill="none" stroke="midnightblue" d="M187.56,-168.45C200.97,-160.58 219.73,-147.75 231.5,-132 255.12,-100.39 267.53,-55.04 272.98,-29.79"/>
<polygon fill="midnightblue" stroke="midnightblue" points="276.47,-30.22 275.01,-19.72 269.61,-28.84 276.47,-30.22"/>
</g>
<!-- Node10 -->
<g id="node10" class="node">
<title>Node10</title>
<g id="a_node10"><a xlink:title=" ">
<polygon fill="white" stroke="#bfbfbf" points="183.5,-0.5 183.5,-19.5 223.5,-19.5 223.5,-0.5 183.5,-0.5"/>
<text text-anchor="middle" x="203.5" y="-7.5" font-family="Helvetica,sans-Serif" font-size="10.00">limits</text>
</a>
</g>
</g>
<!-- Node8&#45;&gt;Node10 -->
<g id="edge10" class="edge">
<title>Node8&#45;&gt;Node10</title>
<path fill="none" stroke="midnightblue" d="M182.83,-168.27C192.73,-160 206.71,-146.71 214.5,-132 226.41,-109.5 223.82,-101.31 226.5,-76 227.44,-67.16 228.58,-64.64 226.5,-56 224.19,-46.42 219.48,-36.58 214.92,-28.56"/>
<polygon fill="midnightblue" stroke="midnightblue" points="217.79,-26.54 209.6,-19.81 211.81,-30.17 217.79,-26.54"/>
</g>
<!-- Node11 -->
<g id="node11" class="node">
<title>Node11</title>
<g id="a_node11"><a xlink:title=" ">
<polygon fill="white" stroke="#bfbfbf" points="52.5,-56.5 52.5,-75.5 96.5,-75.5 96.5,-56.5 52.5,-56.5"/>
<text text-anchor="middle" x="74.5" y="-63.5" font-family="Helvetica,sans-Serif" font-size="10.00">cmath</text>
</a>
</g>
</g>
<!-- Node8&#45;&gt;Node11 -->
<g id="edge11" class="edge">
<title>Node8&#45;&gt;Node11</title>
<path fill="none" stroke="midnightblue" d="M162.75,-168.21C153.92,-159.26 140,-144.91 128.5,-132 114.09,-115.83 98.34,-96.69 87.58,-83.38"/>
<polygon fill="midnightblue" stroke="midnightblue" points="90.3,-81.17 81.31,-75.57 84.84,-85.56 90.3,-81.17"/>
</g>
<!-- Node12 -->
<g id="node12" class="node">
<title>Node12</title>
<g id="a_node12"><a xlink:href="a00146.xhtml" target="_top" xlink:title=" ">
<polygon fill="white" stroke="black" points="138,-112.5 138,-131.5 205,-131.5 205,-112.5 138,-112.5"/>
<text text-anchor="middle" x="171.5" y="-119.5" font-family="Helvetica,sans-Serif" font-size="10.00">Synthesis.h</text>
</a>
</g>
</g>
<!-- Node8&#45;&gt;Node12 -->
<g id="edge12" class="edge">
<title>Node8&#45;&gt;Node12</title>
<path fill="none" stroke="midnightblue" d="M171.5,-168.08C171.5,-161.01 171.5,-150.86 171.5,-141.99"/>
<polygon fill="midnightblue" stroke="midnightblue" points="175,-141.75 171.5,-131.75 168,-141.75 175,-141.75"/>
</g>
<!-- Node12&#45;&gt;Node7 -->
<g id="edge15" class="edge">
<title>Node12&#45;&gt;Node7</title>
<path fill="none" stroke="midnightblue" d="M198.44,-112.44C227.16,-103.32 272.83,-88.81 304.82,-78.65"/>
<polygon fill="midnightblue" stroke="midnightblue" points="306.22,-81.88 314.69,-75.52 304.1,-75.21 306.22,-81.88"/>
</g>
<!-- Node12&#45;&gt;Node11 -->
<g id="edge13" class="edge">
<title>Node12&#45;&gt;Node11</title>
<path fill="none" stroke="midnightblue" d="M155.92,-112.32C140.5,-103.74 116.69,-90.49 98.79,-80.52"/>
<polygon fill="midnightblue" stroke="midnightblue" points="100.49,-77.46 90.05,-75.65 97.08,-83.58 100.49,-77.46"/>
</g>
<!-- Node13 -->
<g id="node13" class="node">
<title>Node13</title>
<g id="a_node13"><a xlink:title=" ">
<polygon fill="white" stroke="#bfbfbf" points="115,-56.5 115,-75.5 160,-75.5 160,-56.5 115,-56.5"/>
<text text-anchor="middle" x="137.5" y="-63.5" font-family="Helvetica,sans-Serif" font-size="10.00">cstdlib</text>
</a>
</g>
</g>
<!-- Node12&#45;&gt;Node13 -->
<g id="edge14" class="edge">
<title>Node12&#45;&gt;Node13</title>
<path fill="none" stroke="midnightblue" d="M165.89,-112.08C161.13,-104.53 154.18,-93.49 148.35,-84.23"/>
<polygon fill="midnightblue" stroke="midnightblue" points="151.3,-82.35 143.01,-75.75 145.38,-86.08 151.3,-82.35"/>
</g>
<!-- Node14 -->
<g id="node14" class="node">
<title>Node14</title>
<g id="a_node14"><a xlink:href="a00149.xhtml" target="_top" xlink:title=" ">
<polygon fill="white" stroke="black" points="178,-56.5 178,-75.5 217,-75.5 217,-56.5 178,-56.5"/>
<text text-anchor="middle" x="197.5" y="-63.5" font-family="Helvetica,sans-Serif" font-size="10.00">Util.h</text>
</a>
</g>
</g>
<!-- Node12&#45;&gt;Node14 -->
<g id="edge16" class="edge">
<title>Node12&#45;&gt;Node14</title>
<path fill="none" stroke="midnightblue" d="M175.79,-112.08C179.35,-104.69 184.52,-93.95 188.92,-84.81"/>
<polygon fill="midnightblue" stroke="midnightblue" points="192.1,-86.28 193.29,-75.75 185.79,-83.24 192.1,-86.28"/>
</g>
<!-- Node14&#45;&gt;Node2 -->
<g id="edge17" class="edge">
<title>Node14&#45;&gt;Node2</title>
<path fill="none" stroke="midnightblue" d="M177.93,-58.68C175.1,-57.78 172.23,-56.86 169.5,-56 131.73,-44.07 88.33,-30.64 58.94,-21.58"/>
<polygon fill="midnightblue" stroke="midnightblue" points="59.74,-18.17 49.15,-18.57 57.68,-24.86 59.74,-18.17"/>
</g>
<!-- Node14&#45;&gt;Node9 -->
<g id="edge18" class="edge">
<title>Node14&#45;&gt;Node9</title>
<path fill="none" stroke="midnightblue" d="M210.19,-56.32C222.4,-47.98 241.08,-35.21 255.5,-25.35"/>
<polygon fill="midnightblue" stroke="midnightblue" points="257.56,-28.19 263.84,-19.65 253.61,-22.41 257.56,-28.19"/>
</g>
<!-- Node14&#45;&gt;Node10 -->
<g id="edge19" class="edge">
<title>Node14&#45;&gt;Node10</title>
<path fill="none" stroke="midnightblue" d="M198.49,-56.08C199.29,-48.93 200.43,-38.64 201.42,-29.69"/>
<polygon fill="midnightblue" stroke="midnightblue" points="204.9,-30.08 202.53,-19.75 197.94,-29.3 204.9,-30.08"/>
</g>
</g>
</svg>
