<?xml version="1.0" encoding="UTF-8" standalone="no"?>
<!DOCTYPE svg PUBLIC "-//W3C//DTD SVG 1.1//EN"
 "http://www.w3.org/Graphics/SVG/1.1/DTD/svg11.dtd">
<!-- Generated by graphviz version 6.0.1 (20220911.1526)
 -->
<!-- Title: Matrix.h Pages: 1 -->
<svg width="450pt" height="247pt"
 viewBox="0.00 0.00 450.41 247.00" xmlns="http://www.w3.org/2000/svg" xmlns:xlink="http://www.w3.org/1999/xlink">
<g id="graph0" class="graph" transform="scale(1 1) rotate(0) translate(4 243)">
<title>Matrix.h</title>
<!-- Node1 -->
<g id="node1" class="node">
<title>Node1</title>
<g id="a_node1"><a xlink:title=" ">
<polygon fill="#999999" stroke="#666666" points="383.41,-239 333.41,-239 333.41,-220 383.41,-220 383.41,-239"/>
<text text-anchor="middle" x="358.41" y="-227" font-family="Helvetica,sans-Serif" font-size="10.00">Matrix.h</text>
</a>
</g>
</g>
<!-- Node2 -->
<g id="node2" class="node">
<title>Node2</title>
<g id="a_node2"><a xlink:title=" ">
<polygon fill="#e0e0e0" stroke="#999999" points="344.91,-19 295.91,-19 295.91,0 344.91,0 344.91,-19"/>
<text text-anchor="middle" x="320.41" y="-7" font-family="Helvetica,sans-Serif" font-size="10.00">cassert</text>
</a>
</g>
</g>
<!-- Node1&#45;&gt;Node2 -->
<g id="edge1" class="edge">
<title>Node1&#45;&gt;Node2</title>
<path fill="none" stroke="#63b8ff" d="M356.92,-219.95C351.33,-187.88 331.52,-74.2 323.66,-29.12"/>
<polygon fill="#63b8ff" stroke="#63b8ff" points="327.1,-28.47 321.93,-19.22 320.2,-29.68 327.1,-28.47"/>
</g>
<!-- Node3 -->
<g id="node3" class="node">
<title>Node3</title>
<g id="a_node3"><a xlink:title=" ">
<polygon fill="#e0e0e0" stroke="#999999" points="442.41,-184 386.41,-184 386.41,-165 442.41,-165 442.41,-184"/>
<text text-anchor="middle" x="414.41" y="-172" font-family="Helvetica,sans-Serif" font-size="10.00">algorithm</text>
</a>
</g>
</g>
<!-- Node1&#45;&gt;Node3 -->
<g id="edge2" class="edge">
<title>Node1&#45;&gt;Node3</title>
<path fill="none" stroke="#63b8ff" d="M367.41,-219.98C375.61,-212.23 387.92,-200.58 397.89,-191.14"/>
<polygon fill="#63b8ff" stroke="#63b8ff" points="400.39,-193.59 405.25,-184.17 395.58,-188.5 400.39,-193.59"/>
</g>
<!-- Node4 -->
<g id="node4" class="node">
<title>Node4</title>
<g id="a_node4"><a xlink:href="a00194.xhtml" target="_top" xlink:title=" ">
<polygon fill="white" stroke="#666666" points="251.91,-184 198.91,-184 198.91,-165 251.91,-165 251.91,-184"/>
<text text-anchor="middle" x="225.41" y="-172" font-family="Helvetica,sans-Serif" font-size="10.00">Vector.h</text>
</a>
</g>
</g>
<!-- Node1&#45;&gt;Node4 -->
<g id="edge3" class="edge">
<title>Node1&#45;&gt;Node4</title>
<path fill="none" stroke="#63b8ff" d="M337.04,-219.98C315.26,-211.3 281.25,-197.75 256.49,-187.88"/>
<polygon fill="#63b8ff" stroke="#63b8ff" points="257.76,-184.62 247.17,-184.17 255.16,-191.12 257.76,-184.62"/>
</g>
<!-- Node4&#45;&gt;Node2 -->
<g id="edge4" class="edge">
<title>Node4&#45;&gt;Node2</title>
<path fill="none" stroke="#63b8ff" d="M234,-164.84C242.23,-156.25 254.65,-142.45 263.41,-129 285.14,-95.66 303.7,-52.79 313.34,-28.82"/>
<polygon fill="#63b8ff" stroke="#63b8ff" points="316.71,-29.82 317.12,-19.24 310.19,-27.25 316.71,-29.82"/>
</g>
<!-- Node5 -->
<g id="node5" class="node">
<title>Node5</title>
<g id="a_node5"><a xlink:title=" ">
<polygon fill="#e0e0e0" stroke="#999999" points="267.41,-19 221.41,-19 221.41,0 267.41,0 267.41,-19"/>
<text text-anchor="middle" x="244.41" y="-7" font-family="Helvetica,sans-Serif" font-size="10.00">cstring</text>
</a>
</g>
</g>
<!-- Node4&#45;&gt;Node5 -->
<g id="edge5" class="edge">
<title>Node4&#45;&gt;Node5</title>
<path fill="none" stroke="#63b8ff" d="M230.01,-164.76C238.63,-147.83 256.94,-109.1 263.41,-74 264.94,-65.7 265.11,-63.27 263.41,-55 261.52,-45.74 257.62,-36.03 253.85,-28.04"/>
<polygon fill="#63b8ff" stroke="#63b8ff" points="256.92,-26.37 249.29,-19.02 250.67,-29.53 256.92,-26.37"/>
</g>
<!-- Node6 -->
<g id="node6" class="node">
<title>Node6</title>
<g id="a_node6"><a xlink:title=" ">
<polygon fill="#e0e0e0" stroke="#999999" points="109.41,-19 69.41,-19 69.41,0 109.41,0 109.41,-19"/>
<text text-anchor="middle" x="89.41" y="-7" font-family="Helvetica,sans-Serif" font-size="10.00">limits</text>
</a>
</g>
</g>
<!-- Node4&#45;&gt;Node6 -->
<g id="edge6" class="edge">
<title>Node4&#45;&gt;Node6</title>
<path fill="none" stroke="#63b8ff" d="M198.91,-171.32C149.13,-165.6 43.11,-145.2 3.41,-74 -11.61,-47.06 29.13,-28.33 59.55,-18.51"/>
<polygon fill="#63b8ff" stroke="#63b8ff" points="60.83,-21.78 69.38,-15.52 58.79,-15.08 60.83,-21.78"/>
</g>
<!-- Node7 -->
<g id="node7" class="node">
<title>Node7</title>
<g id="a_node7"><a xlink:title=" ">
<polygon fill="#e0e0e0" stroke="#999999" points="56.41,-74 12.41,-74 12.41,-55 56.41,-55 56.41,-74"/>
<text text-anchor="middle" x="34.41" y="-62" font-family="Helvetica,sans-Serif" font-size="10.00">cmath</text>
</a>
</g>
</g>
<!-- Node4&#45;&gt;Node7 -->
<g id="edge7" class="edge">
<title>Node4&#45;&gt;Node7</title>
<path fill="none" stroke="#63b8ff" d="M202.98,-164.95C182.31,-156.74 151.06,-143.48 125.41,-129 99.17,-114.19 71.03,-93.77 53.1,-80.13"/>
<polygon fill="#63b8ff" stroke="#63b8ff" points="55.23,-77.35 45.17,-74.03 50.97,-82.9 55.23,-77.35"/>
</g>
<!-- Node8 -->
<g id="node8" class="node">
<title>Node8</title>
<g id="a_node8"><a xlink:href="a00188.xhtml" target="_top" xlink:title=" ">
<polygon fill="white" stroke="#666666" points="200.91,-129 133.91,-129 133.91,-110 200.91,-110 200.91,-129"/>
<text text-anchor="middle" x="167.41" y="-117" font-family="Helvetica,sans-Serif" font-size="10.00">Synthesis.h</text>
</a>
</g>
</g>
<!-- Node4&#45;&gt;Node8 -->
<g id="edge8" class="edge">
<title>Node4&#45;&gt;Node8</title>
<path fill="none" stroke="#63b8ff" d="M216.09,-164.98C207.6,-157.23 194.85,-145.58 184.53,-136.14"/>
<polygon fill="#63b8ff" stroke="#63b8ff" points="186.64,-133.33 176.9,-129.17 181.92,-138.5 186.64,-133.33"/>
</g>
<!-- Node8&#45;&gt;Node7 -->
<g id="edge9" class="edge">
<title>Node8&#45;&gt;Node7</title>
<path fill="none" stroke="#63b8ff" d="M146.04,-109.98C124.26,-101.3 90.25,-87.75 65.49,-77.88"/>
<polygon fill="#63b8ff" stroke="#63b8ff" points="66.76,-74.62 56.17,-74.17 64.16,-81.12 66.76,-74.62"/>
</g>
<!-- Node9 -->
<g id="node9" class="node">
<title>Node9</title>
<g id="a_node9"><a xlink:title=" ">
<polygon fill="#e0e0e0" stroke="#999999" points="119.91,-74 74.91,-74 74.91,-55 119.91,-55 119.91,-74"/>
<text text-anchor="middle" x="97.41" y="-62" font-family="Helvetica,sans-Serif" font-size="10.00">cstdlib</text>
</a>
</g>
</g>
<!-- Node8&#45;&gt;Node9 -->
<g id="edge10" class="edge">
<title>Node8&#45;&gt;Node9</title>
<path fill="none" stroke="#63b8ff" d="M156.17,-109.98C145.62,-102 129.61,-89.88 116.97,-80.31"/>
<polygon fill="#63b8ff" stroke="#63b8ff" points="118.95,-77.42 108.86,-74.17 114.72,-83 118.95,-77.42"/>
</g>
<!-- Node10 -->
<g id="node10" class="node">
<title>Node10</title>
<g id="a_node10"><a xlink:href="a00158.xhtml" target="_top" xlink:title=" ">
<polygon fill="white" stroke="#666666" points="196.91,-74 137.91,-74 137.91,-55 196.91,-55 196.91,-74"/>
<text text-anchor="middle" x="167.41" y="-62" font-family="Helvetica,sans-Serif" font-size="10.00">ErrorDef.h</text>
</a>
</g>
</g>
<!-- Node8&#45;&gt;Node10 -->
<g id="edge11" class="edge">
<title>Node8&#45;&gt;Node10</title>
<path fill="none" stroke="#63b8ff" d="M167.41,-109.75C167.41,-102.8 167.41,-92.85 167.41,-84.13"/>
<polygon fill="#63b8ff" stroke="#63b8ff" points="170.91,-84.09 167.41,-74.09 163.91,-84.09 170.91,-84.09"/>
</g>
<!-- Node11 -->
<g id="node11" class="node">
<title>Node11</title>
<g id="a_node11"><a xlink:href="a00185.xhtml" target="_top" xlink:title=" ">
<polygon fill="white" stroke="#666666" points="253.91,-74 214.91,-74 214.91,-55 253.91,-55 253.91,-74"/>
<text text-anchor="middle" x="234.41" y="-62" font-family="Helvetica,sans-Serif" font-size="10.00">Util.h</text>
</a>
</g>
</g>
<!-- Node8&#45;&gt;Node11 -->
<g id="edge12" class="edge">
<title>Node8&#45;&gt;Node11</title>
<path fill="none" stroke="#63b8ff" d="M178.18,-109.98C188.18,-102.07 203.3,-90.11 215.34,-80.58"/>
<polygon fill="#63b8ff" stroke="#63b8ff" points="217.78,-83.12 223.45,-74.17 213.44,-77.63 217.78,-83.12"/>
</g>
<!-- Node11&#45;&gt;Node2 -->
<g id="edge13" class="edge">
<title>Node11&#45;&gt;Node2</title>
<path fill="none" stroke="#63b8ff" d="M248.23,-54.98C261.57,-46.77 281.99,-34.18 297.72,-24.49"/>
<polygon fill="#63b8ff" stroke="#63b8ff" points="299.67,-27.4 306.34,-19.17 295.99,-21.44 299.67,-27.4"/>
</g>
<!-- Node11&#45;&gt;Node5 -->
<g id="edge14" class="edge">
<title>Node11&#45;&gt;Node5</title>
<path fill="none" stroke="#63b8ff" d="M236.06,-54.75C237.37,-47.8 239.25,-37.85 240.9,-29.13"/>
<polygon fill="#63b8ff" stroke="#63b8ff" points="244.38,-29.56 242.79,-19.09 237.5,-28.27 244.38,-29.56"/>
</g>
<!-- Node11&#45;&gt;Node6 -->
<g id="edge15" class="edge">
<title>Node11&#45;&gt;Node6</title>
<path fill="none" stroke="#63b8ff" d="M214.86,-56.35C190.24,-47.35 147.72,-31.81 119.09,-21.35"/>
<polygon fill="#63b8ff" stroke="#63b8ff" points="120.18,-18.02 109.59,-17.87 117.78,-24.6 120.18,-18.02"/>
</g>
</g>
</svg>
