<?xml version="1.0" encoding="UTF-8" standalone="no"?>
<!DOCTYPE svg PUBLIC "-//W3C//DTD SVG 1.1//EN"
 "http://www.w3.org/Graphics/SVG/1.1/DTD/svg11.dtd">
<!-- Generated by graphviz version 4.0.0 (20220602.1335)
 -->
<!-- Title: Matrix.h Pages: 1 -->
<!--zoomable 252 -->
<svg id="main" version="1.1" xmlns="http://www.w3.org/2000/svg" xmlns:xlink="http://www.w3.org/1999/xlink" xml:space="preserve" onload="init(evt)">
<style type="text/css"><![CDATA[
.edge:hover path { stroke: red; }
.edge:hover polygon { stroke: red; fill: red; }
]]></style>
<script type="text/javascript"><![CDATA[
var edges = document.getElementsByTagName('g');
if (edges && edges.length) {
  for (var i=0;i<edges.length;i++) {
    if (edges[i].id.substr(0,4)=='edge') {
      edges[i].setAttribute('class','edge');
    }
  }
}
]]></script>
        <defs>
                <circle id="rim" cx="0" cy="0" r="7"/>
                <circle id="rim2" cx="0" cy="0" r="3.5"/>
                <g id="zoomPlus">
                        <use xlink:href="#rim" fill="#404040">
                                <set attributeName="fill" to="#808080" begin="zoomplus.mouseover" end="zoomplus.mouseout"/>
                        </use>
                        <path d="M-4,0h8M0,-4v8" fill="none" stroke="white" stroke-width="1.5" pointer-events="none"/>
                </g>
                <g id="zoomMin">
                        <use xlink:href="#rim" fill="#404040">
                                <set attributeName="fill" to="#808080" begin="zoomminus.mouseover" end="zoomminus.mouseout"/>
                        </use>
                        <path d="M-4,0h8" fill="none" stroke="white" stroke-width="1.5" pointer-events="none"/>
                </g>
                <g id="dirArrow">
                        <path fill="none" stroke="white" stroke-width="1.5" d="M0,-3.0v7 M-2.5,-0.5L0,-3.0L2.5,-0.5"/>
                </g>
               <g id="resetDef">
                       <use xlink:href="#rim2" fill="#404040">
                               <set attributeName="fill" to="#808080" begin="reset.mouseover" end="reset.mouseout"/>
                       </use>
               </g>
        </defs>

<script type="text/javascript">
var viewWidth = 1745;
var viewHeight = 252;
var sectionId = 'dynsection-1';
</script>
<script xlink:href="svgpan.js"/>
<svg id="graph" class="graph">
<g id="viewport">
<title>Matrix.h</title>
<polygon fill="white" stroke="transparent" points="-4,4 -4,-248 1741.15,-248 1741.15,4 -4,4"/>
<!-- Node1 -->
<g id="node1" class="node">
<title>Node1</title>
<g id="a_node1"><a xlink:title=" ">
<polygon fill="#bfbfbf" stroke="black" points="866.65,-224.5 866.65,-243.5 916.65,-243.5 916.65,-224.5 866.65,-224.5"/>
<text text-anchor="middle" x="891.65" y="-231.5" font-family="Helvetica,sans-Serif" font-size="10.00">Matrix.h</text>
</a>
</g>
</g>
<!-- Node2 -->
<g id="node2" class="node">
<title>Node2</title>
<g id="a_node2"><a xlink:href="a00107.xhtml" target="_top" xlink:title=" ">
<polygon fill="white" stroke="black" points="367.65,-112.5 367.65,-131.5 427.65,-131.5 427.65,-112.5 367.65,-112.5"/>
<text text-anchor="middle" x="397.65" y="-119.5" font-family="Helvetica,sans-Serif" font-size="10.00">Chord.cpp</text>
</a>
</g>
</g>
<!-- Node1&#45;&gt;Node2 -->
<g id="edge1" class="edge">
<title>Node1&#45;&gt;Node2</title>
<path fill="none" stroke="midnightblue" d="M856.42,-231.08C772.44,-226.18 562.55,-211.85 496.65,-188 460.31,-174.85 423.95,-145.96 407.2,-131.54"/>
<polygon fill="midnightblue" stroke="midnightblue" points="856.3,-234.58 866.49,-231.66 856.71,-227.59 856.3,-234.58"/>
</g>
<!-- Node3 -->
<g id="node3" class="node">
<title>Node3</title>
<g id="a_node3"><a xlink:href="a00056.xhtml" target="_top" xlink:title=" ">
<polygon fill="white" stroke="black" points="659.15,-168.5 659.15,-187.5 766.15,-187.5 766.15,-168.5 659.15,-168.5"/>
<text text-anchor="middle" x="712.65" y="-175.5" font-family="Helvetica,sans-Serif" font-size="10.00">ChordFromBlock.cpp</text>
</a>
</g>
</g>
<!-- Node1&#45;&gt;Node3 -->
<g id="edge2" class="edge">
<title>Node1&#45;&gt;Node3</title>
<path fill="none" stroke="midnightblue" d="M856.48,-222.39C822.71,-212.2 772.33,-197 741.04,-187.56"/>
<polygon fill="midnightblue" stroke="midnightblue" points="855.8,-225.84 866.39,-225.38 857.82,-219.14 855.8,-225.84"/>
</g>
<!-- Node4 -->
<g id="node4" class="node">
<title>Node4</title>
<g id="a_node4"><a xlink:href="a00038.xhtml" target="_top" xlink:title=" ">
<polygon fill="white" stroke="black" points="784.15,-168.5 784.15,-187.5 899.15,-187.5 899.15,-168.5 784.15,-168.5"/>
<text text-anchor="middle" x="841.65" y="-175.5" font-family="Helvetica,sans-Serif" font-size="10.00">FeatureFromBlock.cpp</text>
</a>
</g>
</g>
<!-- Node1&#45;&gt;Node4 -->
<g id="edge3" class="edge">
<title>Node1&#45;&gt;Node4</title>
<path fill="none" stroke="midnightblue" d="M876.58,-216.72C867.76,-207.2 856.99,-195.56 849.76,-187.75"/>
<polygon fill="midnightblue" stroke="midnightblue" points="874.04,-219.12 883.4,-224.08 879.17,-214.37 874.04,-219.12"/>
</g>
<!-- Node5 -->
<g id="node5" class="node">
<title>Node5</title>
<g id="a_node5"><a xlink:href="a00149.xhtml" target="_top" xlink:title=" ">
<polygon fill="white" stroke="black" points="215.65,-168.5 215.65,-187.5 261.65,-187.5 261.65,-168.5 215.65,-168.5"/>
<text text-anchor="middle" x="238.65" y="-175.5" font-family="Helvetica,sans-Serif" font-size="10.00">Filter.h</text>
</a>
</g>
</g>
<!-- Node1&#45;&gt;Node5 -->
<g id="edge4" class="edge">
<title>Node1&#45;&gt;Node5</title>
<path fill="none" stroke="midnightblue" d="M856.16,-230.06C737.88,-220.28 359.19,-188.97 261.71,-180.91"/>
<polygon fill="midnightblue" stroke="midnightblue" points="856.2,-233.58 866.46,-230.92 856.78,-226.6 856.2,-233.58"/>
</g>
<!-- Node20 -->
<g id="node20" class="node">
<title>Node20</title>
<g id="a_node20"><a xlink:href="a00068.xhtml" target="_top" xlink:title=" ">
<polygon fill="white" stroke="black" points="132.15,-56.5 132.15,-75.5 231.15,-75.5 231.15,-56.5 132.15,-56.5"/>
<text text-anchor="middle" x="181.65" y="-63.5" font-family="Helvetica,sans-Serif" font-size="10.00">ToolFingerprint.cpp</text>
</a>
</g>
</g>
<!-- Node1&#45;&gt;Node20 -->
<g id="edge24" class="edge">
<title>Node1&#45;&gt;Node20</title>
<path fill="none" stroke="midnightblue" d="M856.54,-233.27C755.04,-233.48 452.84,-230.25 206.65,-188 116.1,-172.46 63.13,-205.24 7.65,-132 -26.76,-86.56 69.29,-72.88 132.06,-68.77"/>
<polygon fill="midnightblue" stroke="midnightblue" points="856.56,-236.77 866.55,-233.23 856.54,-229.77 856.56,-236.77"/>
</g>
<!-- Node21 -->
<g id="node21" class="node">
<title>Node21</title>
<g id="a_node21"><a xlink:href="a00032.xhtml" target="_top" xlink:title=" ">
<polygon fill="white" stroke="black" points="917.15,-168.5 917.15,-187.5 968.15,-187.5 968.15,-168.5 917.15,-168.5"/>
<text text-anchor="middle" x="942.65" y="-175.5" font-family="Helvetica,sans-Serif" font-size="10.00">Key.cpp</text>
</a>
</g>
</g>
<!-- Node1&#45;&gt;Node21 -->
<g id="edge20" class="edge">
<title>Node1&#45;&gt;Node21</title>
<path fill="none" stroke="midnightblue" d="M907.03,-216.72C916.02,-207.2 927.01,-195.56 934.39,-187.75"/>
<polygon fill="midnightblue" stroke="midnightblue" points="904.4,-214.41 900.08,-224.08 909.49,-219.22 904.4,-214.41"/>
</g>
<!-- Node22 -->
<g id="node22" class="node">
<title>Node22</title>
<g id="a_node22"><a xlink:href="a00086.xhtml" target="_top" xlink:title=" ">
<polygon fill="white" stroke="black" points="445.65,-112.5 445.65,-131.5 535.65,-131.5 535.65,-112.5 445.65,-112.5"/>
<text text-anchor="middle" x="490.65" y="-119.5" font-family="Helvetica,sans-Serif" font-size="10.00">Spectrogram.cpp</text>
</a>
</g>
</g>
<!-- Node1&#45;&gt;Node22 -->
<g id="edge21" class="edge">
<title>Node1&#45;&gt;Node22</title>
<path fill="none" stroke="midnightblue" d="M856.28,-233.28C773.12,-233.25 568.22,-228.91 515.65,-188 497.91,-174.19 492.75,-146.13 491.26,-131.82"/>
<polygon fill="midnightblue" stroke="midnightblue" points="856.5,-236.78 866.49,-233.26 856.49,-229.78 856.5,-236.78"/>
</g>
<!-- Node23 -->
<g id="node23" class="node">
<title>Node23</title>
<g id="a_node23"><a xlink:href="a00089.xhtml" target="_top" xlink:title=" ">
<polygon fill="white" stroke="black" points="985.65,-168.5 985.65,-187.5 1083.65,-187.5 1083.65,-168.5 985.65,-168.5"/>
<text text-anchor="middle" x="1034.65" y="-175.5" font-family="Helvetica,sans-Serif" font-size="10.00">SubFingerprint.cpp</text>
</a>
</g>
</g>
<!-- Node1&#45;&gt;Node23 -->
<g id="edge22" class="edge">
<title>Node1&#45;&gt;Node23</title>
<path fill="none" stroke="midnightblue" d="M923.68,-220.91C950.57,-210.75 988.29,-196.51 1012.1,-187.52"/>
<polygon fill="midnightblue" stroke="midnightblue" points="922.43,-217.64 914.31,-224.44 924.9,-224.19 922.43,-217.64"/>
</g>
<!-- Node24 -->
<g id="node24" class="node">
<title>Node24</title>
<g id="a_node24"><a xlink:href="a00077.xhtml" target="_top" xlink:title=" ">
<polygon fill="white" stroke="black" points="974.15,-112.5 974.15,-131.5 1077.15,-131.5 1077.15,-112.5 974.15,-112.5"/>
<text text-anchor="middle" x="1025.65" y="-119.5" font-family="Helvetica,sans-Serif" font-size="10.00">ToolBlockAudio.cpp</text>
</a>
</g>
</g>
<!-- Node1&#45;&gt;Node24 -->
<g id="edge23" class="edge">
<title>Node1&#45;&gt;Node24</title>
<path fill="none" stroke="midnightblue" d="M856.19,-231.73C795.65,-228.74 676.37,-218.97 650.65,-188 644.97,-181.16 644.75,-174.65 650.65,-168 653.32,-165 871.72,-140.21 973.95,-128.76"/>
<polygon fill="midnightblue" stroke="midnightblue" points="856.28,-235.24 866.43,-232.2 856.6,-228.25 856.28,-235.24"/>
</g>
<!-- Node25 -->
<g id="node25" class="node">
<title>Node25</title>
<g id="a_node25"><a xlink:href="a00053.xhtml" target="_top" xlink:title=" ">
<polygon fill="white" stroke="black" points="1101.65,-168.5 1101.65,-187.5 1173.65,-187.5 1173.65,-168.5 1101.65,-168.5"/>
<text text-anchor="middle" x="1137.65" y="-175.5" font-family="Helvetica,sans-Serif" font-size="10.00">ToolNmf.cpp</text>
</a>
</g>
</g>
<!-- Node1&#45;&gt;Node25 -->
<g id="edge25" class="edge">
<title>Node1&#45;&gt;Node25</title>
<path fill="none" stroke="midnightblue" d="M926.95,-225.25C973.33,-215.07 1054.39,-197.28 1101.29,-186.98"/>
<polygon fill="midnightblue" stroke="midnightblue" points="926.07,-221.86 917.05,-227.42 927.57,-228.7 926.07,-221.86"/>
</g>
<!-- Node26 -->
<g id="node26" class="node">
<title>Node26</title>
<g id="a_node26"><a xlink:href="a00059.xhtml" target="_top" xlink:title=" ">
<polygon fill="white" stroke="black" points="1192.15,-168.5 1192.15,-187.5 1263.15,-187.5 1263.15,-168.5 1192.15,-168.5"/>
<text text-anchor="middle" x="1227.65" y="-175.5" font-family="Helvetica,sans-Serif" font-size="10.00">ToolPca.cpp</text>
</a>
</g>
</g>
<!-- Node1&#45;&gt;Node26 -->
<g id="edge26" class="edge">
<title>Node1&#45;&gt;Node26</title>
<path fill="none" stroke="midnightblue" d="M926.92,-228.06C981.75,-220.26 1090.68,-204.3 1182.65,-188 1185.64,-187.47 1188.72,-186.9 1191.82,-186.31"/>
<polygon fill="midnightblue" stroke="midnightblue" points="926.43,-224.59 917.02,-229.46 927.41,-231.52 926.43,-224.59"/>
</g>
<!-- Node27 -->
<g id="node27" class="node">
<title>Node27</title>
<g id="a_node27"><a xlink:href="a00131.xhtml" target="_top" xlink:title=" ">
<polygon fill="white" stroke="black" points="524.65,-168.5 524.65,-187.5 602.65,-187.5 602.65,-168.5 524.65,-168.5"/>
<text text-anchor="middle" x="563.65" y="-175.5" font-family="Helvetica,sans-Serif" font-size="10.00">ToolPreProc.h</text>
</a>
</g>
</g>
<!-- Node1&#45;&gt;Node27 -->
<g id="edge27" class="edge">
<title>Node1&#45;&gt;Node27</title>
<path fill="none" stroke="midnightblue" d="M856.53,-227.32C804.24,-218.85 702.82,-202.37 616.65,-188 612.14,-187.25 607.42,-186.45 602.72,-185.66"/>
<polygon fill="midnightblue" stroke="midnightblue" points="856.19,-230.81 866.62,-228.96 857.31,-223.9 856.19,-230.81"/>
</g>
<!-- Node32 -->
<g id="node32" class="node">
<title>Node32</title>
<g id="a_node32"><a xlink:href="a00062.xhtml" target="_top" xlink:title=" ">
<polygon fill="white" stroke="black" points="1281.15,-168.5 1281.15,-187.5 1382.15,-187.5 1382.15,-168.5 1281.15,-168.5"/>
<text text-anchor="middle" x="1331.65" y="-175.5" font-family="Helvetica,sans-Serif" font-size="10.00">ToolSimpleDtw.cpp</text>
</a>
</g>
</g>
<!-- Node1&#45;&gt;Node32 -->
<g id="edge38" class="edge">
<title>Node1&#45;&gt;Node32</title>
<path fill="none" stroke="midnightblue" d="M926.7,-229.26C993.89,-222.01 1145.47,-205.21 1272.65,-188 1275.43,-187.62 1278.27,-187.23 1281.14,-186.82"/>
<polygon fill="midnightblue" stroke="midnightblue" points="926.22,-225.79 916.65,-230.34 926.97,-232.75 926.22,-225.79"/>
</g>
<!-- Node33 -->
<g id="node33" class="node">
<title>Node33</title>
<g id="a_node33"><a xlink:href="a00041.xhtml" target="_top" xlink:title=" ">
<polygon fill="white" stroke="black" points="1400.15,-168.5 1400.15,-187.5 1519.15,-187.5 1519.15,-168.5 1400.15,-168.5"/>
<text text-anchor="middle" x="1459.65" y="-175.5" font-family="Helvetica,sans-Serif" font-size="10.00">ToolSimpleKmeans.cpp</text>
</a>
</g>
</g>
<!-- Node1&#45;&gt;Node33 -->
<g id="edge39" class="edge">
<title>Node1&#45;&gt;Node33</title>
<path fill="none" stroke="midnightblue" d="M926.89,-230.34C1008.65,-224.05 1217.56,-207.35 1391.65,-188 1394.38,-187.7 1397.16,-187.38 1399.97,-187.04"/>
<polygon fill="midnightblue" stroke="midnightblue" points="926.37,-226.87 916.66,-231.12 926.9,-233.85 926.37,-226.87"/>
</g>
<!-- Node34 -->
<g id="node34" class="node">
<title>Node34</title>
<g id="a_node34"><a xlink:href="a00044.xhtml" target="_top" xlink:title=" ">
<polygon fill="white" stroke="black" points="1537.15,-168.5 1537.15,-187.5 1638.15,-187.5 1638.15,-168.5 1537.15,-168.5"/>
<text text-anchor="middle" x="1587.65" y="-175.5" font-family="Helvetica,sans-Serif" font-size="10.00">ToolSimpleKnn.cpp</text>
</a>
</g>
</g>
<!-- Node1&#45;&gt;Node34 -->
<g id="edge40" class="edge">
<title>Node1&#45;&gt;Node34</title>
<path fill="none" stroke="midnightblue" d="M927,-231.51C1023.6,-227.21 1300.05,-213.47 1528.65,-188 1531.33,-187.7 1534.07,-187.37 1536.84,-187.02"/>
<polygon fill="midnightblue" stroke="midnightblue" points="926.75,-228.02 916.91,-231.95 927.05,-235.01 926.75,-228.02"/>
</g>
<!-- Node35 -->
<g id="node35" class="node">
<title>Node35</title>
<g id="a_node35"><a xlink:href="a00080.xhtml" target="_top" xlink:title=" ">
<polygon fill="white" stroke="black" points="1656.15,-168.5 1656.15,-187.5 1737.15,-187.5 1737.15,-168.5 1656.15,-168.5"/>
<text text-anchor="middle" x="1696.65" y="-175.5" font-family="Helvetica,sans-Serif" font-size="10.00">ToolViterbi.cpp</text>
</a>
</g>
</g>
<!-- Node1&#45;&gt;Node35 -->
<g id="edge41" class="edge">
<title>Node1&#45;&gt;Node35</title>
<path fill="none" stroke="midnightblue" d="M926.91,-232.43C1035.03,-230.36 1371.33,-221.47 1647.65,-188 1650.4,-187.67 1653.23,-187.28 1656.07,-186.85"/>
<polygon fill="midnightblue" stroke="midnightblue" points="926.81,-228.93 916.88,-232.62 926.94,-235.93 926.81,-228.93"/>
</g>
<!-- Node6 -->
<g id="node6" class="node">
<title>Node6</title>
<g id="a_node6"><a xlink:href="a00098.xhtml" target="_top" xlink:title=" ">
<polygon fill="white" stroke="black" points="16.65,-112.5 16.65,-131.5 120.65,-131.5 120.65,-112.5 16.65,-112.5"/>
<text text-anchor="middle" x="68.65" y="-119.5" font-family="Helvetica,sans-Serif" font-size="10.00">PitchFromBlock.cpp</text>
</a>
</g>
</g>
<!-- Node5&#45;&gt;Node6 -->
<g id="edge5" class="edge">
<title>Node5&#45;&gt;Node6</title>
<path fill="none" stroke="midnightblue" d="M205.56,-166.49C173.47,-156.29 125.39,-141.02 95.57,-131.55"/>
<polygon fill="midnightblue" stroke="midnightblue" points="204.78,-169.91 215.37,-169.6 206.9,-163.24 204.78,-169.91"/>
</g>
<!-- Node7 -->
<g id="node7" class="node">
<title>Node7</title>
<g id="a_node7"><a xlink:href="a00104.xhtml" target="_top" xlink:title=" ">
<polygon fill="white" stroke="black" points="243.15,-112.5 243.15,-131.5 350.15,-131.5 350.15,-112.5 243.15,-112.5"/>
<text text-anchor="middle" x="296.65" y="-119.5" font-family="Helvetica,sans-Serif" font-size="10.00">ToolGammatone.cpp</text>
</a>
</g>
</g>
<!-- Node5&#45;&gt;Node7 -->
<g id="edge6" class="edge">
<title>Node5&#45;&gt;Node7</title>
<path fill="none" stroke="midnightblue" d="M255.57,-161.25C265.86,-151.67 278.62,-139.79 287.17,-131.83"/>
<polygon fill="midnightblue" stroke="midnightblue" points="252.91,-158.95 247.97,-168.32 257.68,-164.07 252.91,-158.95"/>
</g>
<!-- Node8 -->
<g id="node8" class="node">
<title>Node8</title>
<g id="a_node8"><a xlink:href="a00206.xhtml" target="_top" xlink:title=" ">
<polygon fill="white" stroke="black" points="138.65,-112.5 138.65,-131.5 224.65,-131.5 224.65,-112.5 138.65,-112.5"/>
<text text-anchor="middle" x="181.65" y="-119.5" font-family="Helvetica,sans-Serif" font-size="10.00">ToolResample.h</text>
</a>
</g>
</g>
<!-- Node5&#45;&gt;Node8 -->
<g id="edge7" class="edge">
<title>Node5&#45;&gt;Node8</title>
<path fill="none" stroke="midnightblue" d="M222.03,-161.25C211.92,-151.67 199.38,-139.79 190.98,-131.83"/>
<polygon fill="midnightblue" stroke="midnightblue" points="219.83,-163.99 229.5,-168.32 224.64,-158.91 219.83,-163.99"/>
</g>
<!-- Node9 -->
<g id="node9" class="node">
<title>Node9</title>
<g id="a_node9"><a xlink:href="a00209.xhtml" target="_top" xlink:title=" ">
<polygon fill="white" stroke="black" points="584.15,-56.5 584.15,-75.5 637.15,-75.5 637.15,-56.5 584.15,-56.5"/>
<text text-anchor="middle" x="610.65" y="-63.5" font-family="Helvetica,sans-Serif" font-size="10.00">AcaAll.h</text>
</a>
</g>
</g>
<!-- Node8&#45;&gt;Node9 -->
<g id="edge8" class="edge">
<title>Node8&#45;&gt;Node9</title>
<path fill="none" stroke="midnightblue" d="M235.04,-111.86C372.39,-92.03 523.9,-75.87 584.08,-69.69"/>
<polygon fill="midnightblue" stroke="midnightblue" points="234.15,-108.46 224.76,-113.36 235.16,-115.38 234.15,-108.46"/>
</g>
<!-- Node8&#45;&gt;Node20 -->
<g id="edge19" class="edge">
<title>Node8&#45;&gt;Node20</title>
<path fill="none" stroke="midnightblue" d="M181.65,-101.8C181.65,-92.91 181.65,-82.78 181.65,-75.75"/>
<polygon fill="midnightblue" stroke="midnightblue" points="178.15,-102.08 181.65,-112.08 185.15,-102.08 178.15,-102.08"/>
</g>
<!-- Node10 -->
<g id="node10" class="node">
<title>Node10</title>
<g id="a_node10"><a xlink:href="a00035.xhtml" target="_top" xlink:title=" ">
<polygon fill="white" stroke="black" points="26.15,-0.5 26.15,-19.5 89.15,-19.5 89.15,-0.5 26.15,-0.5"/>
<text text-anchor="middle" x="57.65" y="-7.5" font-family="Helvetica,sans-Serif" font-size="10.00">AcaAll.cpp</text>
</a>
</g>
</g>
<!-- Node9&#45;&gt;Node10 -->
<g id="edge9" class="edge">
<title>Node9&#45;&gt;Node10</title>
<path fill="none" stroke="midnightblue" d="M573.96,-63.47C489.49,-59.58 274.93,-47.59 97.65,-20 94.98,-19.58 92.22,-19.09 89.46,-18.56"/>
<polygon fill="midnightblue" stroke="midnightblue" points="573.92,-66.97 584.07,-63.92 574.24,-59.98 573.92,-66.97"/>
</g>
<!-- Node11 -->
<g id="node11" class="node">
<title>Node11</title>
<g id="a_node11"><a xlink:href="a00017.xhtml" target="_top" xlink:title=" ">
<polygon fill="white" stroke="black" points="107.15,-0.5 107.15,-19.5 224.15,-19.5 224.15,-0.5 107.15,-0.5"/>
<text text-anchor="middle" x="165.65" y="-7.5" font-family="Helvetica,sans-Serif" font-size="10.00">ComputeBeatHisto.cpp</text>
</a>
</g>
</g>
<!-- Node9&#45;&gt;Node11 -->
<g id="edge10" class="edge">
<title>Node9&#45;&gt;Node11</title>
<path fill="none" stroke="midnightblue" d="M574.02,-60.79C506.62,-53 358.43,-35.7 233.65,-20 230.58,-19.61 227.43,-19.21 224.25,-18.8"/>
<polygon fill="midnightblue" stroke="midnightblue" points="573.79,-64.28 584.13,-61.95 574.6,-57.33 573.79,-64.28"/>
</g>
<!-- Node12 -->
<g id="node12" class="node">
<title>Node12</title>
<g id="a_node12"><a xlink:href="a00023.xhtml" target="_top" xlink:title=" ">
<polygon fill="white" stroke="black" points="242.65,-0.5 242.65,-19.5 346.65,-19.5 346.65,-0.5 242.65,-0.5"/>
<text text-anchor="middle" x="294.65" y="-7.5" font-family="Helvetica,sans-Serif" font-size="10.00">ComputeChords.cpp</text>
</a>
</g>
</g>
<!-- Node9&#45;&gt;Node12 -->
<g id="edge11" class="edge">
<title>Node9&#45;&gt;Node12</title>
<path fill="none" stroke="midnightblue" d="M574.03,-58.74C517.33,-49.05 408.19,-30.4 344.4,-19.5"/>
<polygon fill="midnightblue" stroke="midnightblue" points="573.54,-62.21 583.98,-60.44 574.72,-55.31 573.54,-62.21"/>
</g>
<!-- Node13 -->
<g id="node13" class="node">
<title>Node13</title>
<g id="a_node13"><a xlink:href="a00002.xhtml" target="_top" xlink:title=" ">
<polygon fill="white" stroke="black" points="365.15,-0.5 365.15,-19.5 472.15,-19.5 472.15,-0.5 365.15,-0.5"/>
<text text-anchor="middle" x="418.65" y="-7.5" font-family="Helvetica,sans-Serif" font-size="10.00">ComputeFeature.cpp</text>
</a>
</g>
</g>
<!-- Node9&#45;&gt;Node13 -->
<g id="edge12" class="edge">
<title>Node9&#45;&gt;Node13</title>
<path fill="none" stroke="midnightblue" d="M574.25,-54.76C537.97,-44.56 482.88,-29.06 448.92,-19.51"/>
<polygon fill="midnightblue" stroke="midnightblue" points="573.38,-58.15 583.96,-57.49 575.28,-51.41 573.38,-58.15"/>
</g>
<!-- Node14 -->
<g id="node14" class="node">
<title>Node14</title>
<g id="a_node14"><a xlink:href="a00020.xhtml" target="_top" xlink:title=" ">
<polygon fill="white" stroke="black" points="490.15,-0.5 490.15,-19.5 609.15,-19.5 609.15,-0.5 490.15,-0.5"/>
<text text-anchor="middle" x="549.65" y="-7.5" font-family="Helvetica,sans-Serif" font-size="10.00">ComputeFingerprint.cpp</text>
</a>
</g>
</g>
<!-- Node9&#45;&gt;Node14 -->
<g id="edge13" class="edge">
<title>Node9&#45;&gt;Node14</title>
<path fill="none" stroke="midnightblue" d="M593.19,-49.54C582.31,-39.91 568.71,-27.87 559.63,-19.83"/>
<polygon fill="midnightblue" stroke="midnightblue" points="591.05,-52.32 600.85,-56.32 595.69,-47.07 591.05,-52.32"/>
</g>
<!-- Node15 -->
<g id="node15" class="node">
<title>Node15</title>
<g id="a_node15"><a xlink:href="a00026.xhtml" target="_top" xlink:title=" ">
<polygon fill="white" stroke="black" points="627.65,-0.5 627.65,-19.5 717.65,-19.5 717.65,-0.5 627.65,-0.5"/>
<text text-anchor="middle" x="672.65" y="-7.5" font-family="Helvetica,sans-Serif" font-size="10.00">ComputeKey.cpp</text>
</a>
</g>
</g>
<!-- Node9&#45;&gt;Node15 -->
<g id="edge14" class="edge">
<title>Node9&#45;&gt;Node15</title>
<path fill="none" stroke="midnightblue" d="M628.41,-49.54C639.46,-39.91 653.29,-27.87 662.51,-19.83"/>
<polygon fill="midnightblue" stroke="midnightblue" points="625.86,-47.12 620.62,-56.32 630.46,-52.4 625.86,-47.12"/>
</g>
<!-- Node16 -->
<g id="node16" class="node">
<title>Node16</title>
<g id="a_node16"><a xlink:href="a00110.xhtml" target="_top" xlink:title=" ">
<polygon fill="white" stroke="black" points="736.15,-0.5 736.15,-19.5 881.15,-19.5 881.15,-0.5 736.15,-0.5"/>
<text text-anchor="middle" x="808.65" y="-7.5" font-family="Helvetica,sans-Serif" font-size="10.00">ComputeMelSpectrogram.cpp</text>
</a>
</g>
</g>
<!-- Node9&#45;&gt;Node16 -->
<g id="edge15" class="edge">
<title>Node9&#45;&gt;Node16</title>
<path fill="none" stroke="midnightblue" d="M647.32,-55C684.62,-44.83 741.83,-29.22 777.16,-19.59"/>
<polygon fill="midnightblue" stroke="midnightblue" points="646.08,-51.71 637.36,-57.72 647.93,-58.46 646.08,-51.71"/>
</g>
<!-- Node17 -->
<g id="node17" class="node">
<title>Node17</title>
<g id="a_node17"><a xlink:href="a00029.xhtml" target="_top" xlink:title=" ">
<polygon fill="white" stroke="black" points="899.65,-0.5 899.65,-19.5 1043.65,-19.5 1043.65,-0.5 899.65,-0.5"/>
<text text-anchor="middle" x="971.65" y="-7.5" font-family="Helvetica,sans-Serif" font-size="10.00">ComputeNoveltyFunction.cpp</text>
</a>
</g>
</g>
<!-- Node9&#45;&gt;Node17 -->
<g id="edge16" class="edge">
<title>Node9&#45;&gt;Node17</title>
<path fill="none" stroke="midnightblue" d="M647.46,-59.49C710.54,-50.06 839.72,-30.74 914.57,-19.54"/>
<polygon fill="midnightblue" stroke="midnightblue" points="646.57,-56.09 637.2,-61.03 647.61,-63.01 646.57,-56.09"/>
</g>
<!-- Node18 -->
<g id="node18" class="node">
<title>Node18</title>
<g id="a_node18"><a xlink:href="a00113.xhtml" target="_top" xlink:title=" ">
<polygon fill="white" stroke="black" points="1061.65,-0.5 1061.65,-19.5 1157.65,-19.5 1157.65,-0.5 1061.65,-0.5"/>
<text text-anchor="middle" x="1109.65" y="-7.5" font-family="Helvetica,sans-Serif" font-size="10.00">ComputePitch.cpp</text>
</a>
</g>
</g>
<!-- Node9&#45;&gt;Node18 -->
<g id="edge17" class="edge">
<title>Node9&#45;&gt;Node18</title>
<path fill="none" stroke="midnightblue" d="M647.37,-61.95C723.23,-55.5 902.71,-39.46 1052.65,-20 1055.54,-19.63 1058.5,-19.22 1061.48,-18.8"/>
<polygon fill="midnightblue" stroke="midnightblue" points="647.04,-58.47 637.37,-62.8 647.63,-65.44 647.04,-58.47"/>
</g>
<!-- Node19 -->
<g id="node19" class="node">
<title>Node19</title>
<g id="a_node19"><a xlink:href="a00014.xhtml" target="_top" xlink:title=" ">
<polygon fill="white" stroke="black" points="1176.15,-0.5 1176.15,-19.5 1305.15,-19.5 1305.15,-0.5 1176.15,-0.5"/>
<text text-anchor="middle" x="1240.65" y="-7.5" font-family="Helvetica,sans-Serif" font-size="10.00">ComputeSpectrogram.cpp</text>
</a>
</g>
</g>
<!-- Node9&#45;&gt;Node19 -->
<g id="edge18" class="edge">
<title>Node9&#45;&gt;Node19</title>
<path fill="none" stroke="midnightblue" d="M647.45,-62.54C736.61,-56.46 971.3,-39.78 1166.65,-20 1169.74,-19.69 1172.91,-19.35 1176.1,-19.01"/>
<polygon fill="midnightblue" stroke="midnightblue" points="647.05,-59.06 637.31,-63.23 647.52,-66.04 647.05,-59.06"/>
</g>
<!-- Node27&#45;&gt;Node2 -->
<g id="edge30" class="edge">
<title>Node27&#45;&gt;Node2</title>
<path fill="none" stroke="midnightblue" d="M527.7,-165.3C496.42,-155.13 451.83,-140.62 423.83,-131.52"/>
<polygon fill="midnightblue" stroke="midnightblue" points="526.76,-168.68 537.35,-168.44 528.92,-162.02 526.76,-168.68"/>
</g>
<!-- Node27&#45;&gt;Node7 -->
<g id="edge37" class="edge">
<title>Node27&#45;&gt;Node7</title>
<path fill="none" stroke="midnightblue" d="M514.54,-167.07C464.19,-156.88 386.68,-141.21 338.96,-131.56"/>
<polygon fill="midnightblue" stroke="midnightblue" points="514.05,-170.54 524.54,-169.09 515.44,-163.68 514.05,-170.54"/>
</g>
<!-- Node27&#45;&gt;Node9 -->
<g id="edge28" class="edge">
<title>Node27&#45;&gt;Node9</title>
<path fill="none" stroke="midnightblue" d="M612.79,-168.56C614.09,-168.37 615.38,-168.18 616.65,-168 685.31,-158.19 880.53,-183.79 926.65,-132 932.57,-125.36 932.48,-118.71 926.65,-112 889.16,-68.78 706.54,-66.01 637.32,-66.55"/>
<polygon fill="midnightblue" stroke="midnightblue" points="612.04,-165.14 602.69,-170.13 613.11,-172.06 612.04,-165.14"/>
</g>
<!-- Node27&#45;&gt;Node20 -->
<g id="edge36" class="edge">
<title>Node27&#45;&gt;Node20</title>
<path fill="none" stroke="midnightblue" d="M563.44,-158.14C562.2,-143.3 557.93,-123.29 544.65,-112 498.52,-72.76 319.6,-67.01 231.39,-66.63"/>
<polygon fill="midnightblue" stroke="midnightblue" points="559.95,-158.43 563.91,-168.26 566.95,-158.11 559.95,-158.43"/>
</g>
<!-- Node27&#45;&gt;Node22 -->
<g id="edge34" class="edge">
<title>Node27&#45;&gt;Node22</title>
<path fill="none" stroke="midnightblue" d="M543.51,-162.1C530.37,-152.38 513.67,-140.03 502.6,-131.83"/>
<polygon fill="midnightblue" stroke="midnightblue" points="541.8,-165.19 551.93,-168.32 545.97,-159.56 541.8,-165.19"/>
</g>
<!-- Node27&#45;&gt;Node24 -->
<g id="edge35" class="edge">
<title>Node27&#45;&gt;Node24</title>
<path fill="none" stroke="midnightblue" d="M612.79,-168.55C614.09,-168.36 615.38,-168.17 616.65,-168 768.51,-147.16 807.48,-150.36 959.65,-132 964.36,-131.43 969.25,-130.82 974.15,-130.18"/>
<polygon fill="midnightblue" stroke="midnightblue" points="612.04,-165.12 602.69,-170.08 613.1,-172.04 612.04,-165.12"/>
</g>
<!-- Node28 -->
<g id="node28" class="node">
<title>Node28</title>
<g id="a_node28"><a xlink:href="a00083.xhtml" target="_top" xlink:title=" ">
<polygon fill="white" stroke="black" points="591.65,-112.5 591.65,-131.5 669.65,-131.5 669.65,-112.5 591.65,-112.5"/>
<text text-anchor="middle" x="630.65" y="-119.5" font-family="Helvetica,sans-Serif" font-size="10.00">BeatHisto.cpp</text>
</a>
</g>
</g>
<!-- Node27&#45;&gt;Node28 -->
<g id="edge29" class="edge">
<title>Node27&#45;&gt;Node28</title>
<path fill="none" stroke="midnightblue" d="M582.49,-161.82C594.49,-152.15 609.63,-139.95 619.69,-131.83"/>
<polygon fill="midnightblue" stroke="midnightblue" points="580.01,-159.32 574.42,-168.32 584.4,-164.77 580.01,-159.32"/>
</g>
<!-- Node29 -->
<g id="node29" class="node">
<title>Node29</title>
<g id="a_node29"><a xlink:href="a00050.xhtml" target="_top" xlink:title=" ">
<polygon fill="white" stroke="black" points="687.65,-112.5 687.65,-131.5 755.65,-131.5 755.65,-112.5 687.65,-112.5"/>
<text text-anchor="middle" x="721.65" y="-119.5" font-family="Helvetica,sans-Serif" font-size="10.00">Feature.cpp</text>
</a>
</g>
</g>
<!-- Node27&#45;&gt;Node29 -->
<g id="edge31" class="edge">
<title>Node27&#45;&gt;Node29</title>
<path fill="none" stroke="midnightblue" d="M598.26,-165.17C628.01,-155 670.2,-140.59 696.74,-131.52"/>
<polygon fill="midnightblue" stroke="midnightblue" points="597.02,-161.9 588.69,-168.44 599.28,-168.52 597.02,-161.9"/>
</g>
<!-- Node30 -->
<g id="node30" class="node">
<title>Node30</title>
<g id="a_node30"><a xlink:href="a00092.xhtml" target="_top" xlink:title=" ">
<polygon fill="white" stroke="black" points="773.65,-112.5 773.65,-131.5 841.65,-131.5 841.65,-112.5 773.65,-112.5"/>
<text text-anchor="middle" x="807.65" y="-119.5" font-family="Helvetica,sans-Serif" font-size="10.00">Novelty.cpp</text>
</a>
</g>
</g>
<!-- Node27&#45;&gt;Node30 -->
<g id="edge32" class="edge">
<title>Node27&#45;&gt;Node30</title>
<path fill="none" stroke="midnightblue" d="M612.11,-166.28C659.83,-155.72 731.47,-139.86 773.5,-130.56"/>
<polygon fill="midnightblue" stroke="midnightblue" points="611.32,-162.87 602.32,-168.44 612.84,-169.7 611.32,-162.87"/>
</g>
<!-- Node31 -->
<g id="node31" class="node">
<title>Node31</title>
<g id="a_node31"><a xlink:href="a00074.xhtml" target="_top" xlink:title=" ">
<polygon fill="white" stroke="black" points="860.15,-112.5 860.15,-131.5 917.15,-131.5 917.15,-112.5 860.15,-112.5"/>
<text text-anchor="middle" x="888.65" y="-119.5" font-family="Helvetica,sans-Serif" font-size="10.00">Pitch.cpp</text>
</a>
</g>
</g>
<!-- Node27&#45;&gt;Node31 -->
<g id="edge33" class="edge">
<title>Node27&#45;&gt;Node31</title>
<path fill="none" stroke="midnightblue" d="M612.8,-168.63C614.1,-168.41 615.38,-168.21 616.65,-168 720.53,-151.19 747.38,-152.14 850.65,-132 853.72,-131.4 856.9,-130.73 860.07,-130.03"/>
<polygon fill="midnightblue" stroke="midnightblue" points="612.01,-165.21 602.72,-170.3 613.15,-172.12 612.01,-165.21"/>
</g>
</g>
</svg>
        <g id="navigator" transform="translate(0 0)" fill="#404254">
                <rect fill="#f2f5e9" fill-opacity="0.5" stroke="#606060" stroke-width=".5" x="0" y="0" width="60" height="60"/>
                <use id="zoomplus" xlink:href="#zoomPlus" x="17" y="9" onmousedown="handleZoom(evt,'in')"/>
                <use id="zoomminus" xlink:href="#zoomMin" x="42" y="9" onmousedown="handleZoom(evt,'out')"/>
                <use id="reset" xlink:href="#resetDef" x="30" y="36" onmousedown="handleReset()"/>
                <g id="arrowUp" xlink:href="#dirArrow" transform="translate(30 24)" onmousedown="handlePan(0,-1)">
                  <use xlink:href="#rim" fill="#404040">
                        <set attributeName="fill" to="#808080" begin="arrowUp.mouseover" end="arrowUp.mouseout"/>
                  </use>
                  <path fill="none" stroke="white" stroke-width="1.5" d="M0,-3.0v7 M-2.5,-0.5L0,-3.0L2.5,-0.5"/>
                </g>
                <g id="arrowRight" xlink:href="#dirArrow" transform="rotate(90) translate(36 -43)" onmousedown="handlePan(1,0)">
                  <use xlink:href="#rim" fill="#404040">
                        <set attributeName="fill" to="#808080" begin="arrowRight.mouseover" end="arrowRight.mouseout"/>
                  </use>
                  <path fill="none" stroke="white" stroke-width="1.5" d="M0,-3.0v7 M-2.5,-0.5L0,-3.0L2.5,-0.5"/>
                </g>
                <g id="arrowDown" xlink:href="#dirArrow" transform="rotate(180) translate(-30 -48)" onmousedown="handlePan(0,1)">
                  <use xlink:href="#rim" fill="#404040">
                        <set attributeName="fill" to="#808080" begin="arrowDown.mouseover" end="arrowDown.mouseout"/>
                  </use>
                  <path fill="none" stroke="white" stroke-width="1.5" d="M0,-3.0v7 M-2.5,-0.5L0,-3.0L2.5,-0.5"/>
                </g>
                <g id="arrowLeft" xlink:href="#dirArrow" transform="rotate(270) translate(-36 17)" onmousedown="handlePan(-1,0)">
                  <use xlink:href="#rim" fill="#404040">
                        <set attributeName="fill" to="#808080" begin="arrowLeft.mouseover" end="arrowLeft.mouseout"/>
                  </use>
                  <path fill="none" stroke="white" stroke-width="1.5" d="M0,-3.0v7 M-2.5,-0.5L0,-3.0L2.5,-0.5"/>
                </g>
        </g>
        <svg viewBox="0 0 15 15" width="100%" height="30px" preserveAspectRatio="xMaxYMin meet">
         <g id="arrow_out" transform="scale(0.3 0.3)">
          <a xlink:href="a00148_org.svg" target="_base">
           <rect id="button" ry="5" rx="5" y="6" x="6" height="38" width="38"
                fill="#f2f5e9" fill-opacity="0.5" stroke="#606060" stroke-width="1.0"/>
           <path id="arrow"
             d="M 11.500037,31.436501 C 11.940474,20.09759 22.043105,11.32322 32.158766,21.979434 L 37.068811,17.246167 C 37.068811,17.246167 37.088388,32 37.088388,32 L 22.160133,31.978069 C 22.160133,31.978069 26.997745,27.140456 26.997745,27.140456 C 18.528582,18.264221 13.291696,25.230495 11.500037,31.436501 z"
             style="fill:#404040;"/>
          </a>
         </g>
        </svg>
</svg>
