<?xml version="1.0" encoding="UTF-8" standalone="no"?>
<!DOCTYPE svg PUBLIC "-//W3C//DTD SVG 1.1//EN"
 "http://www.w3.org/Graphics/SVG/1.1/DTD/svg11.dtd">
<!-- Generated by graphviz version 4.0.0 (20220602.1335)
 -->
<!-- Title: AudioFileIf.h Pages: 1 -->
<svg width="1539pt" height="196pt"
 viewBox="0.00 0.00 1539.00 196.00" xmlns="http://www.w3.org/2000/svg" xmlns:xlink="http://www.w3.org/1999/xlink">
<g id="graph0" class="graph" transform="scale(1 1) rotate(0) translate(4 192)">
<title>AudioFileIf.h</title>
<polygon fill="white" stroke="transparent" points="-4,4 -4,-192 1535,-192 1535,4 -4,4"/>
<!-- Node1 -->
<g id="node1" class="node">
<title>Node1</title>
<g id="a_node1"><a xlink:title=" ">
<polygon fill="#bfbfbf" stroke="black" points="926,-168.5 926,-187.5 997,-187.5 997,-168.5 926,-168.5"/>
<text text-anchor="middle" x="961.5" y="-175.5" font-family="Helvetica,sans-Serif" font-size="10.00">AudioFileIf.h</text>
</a>
</g>
</g>
<!-- Node2 -->
<g id="node2" class="node">
<title>Node2</title>
<g id="a_node2"><a xlink:href="a00197.xhtml" target="_top" xlink:title=" ">
<polygon fill="white" stroke="black" points="483,-56.5 483,-75.5 536,-75.5 536,-56.5 483,-56.5"/>
<text text-anchor="middle" x="509.5" y="-63.5" font-family="Helvetica,sans-Serif" font-size="10.00">AcaAll.h</text>
</a>
</g>
</g>
<!-- Node1&#45;&gt;Node2 -->
<g id="edge1" class="edge">
<title>Node1&#45;&gt;Node2</title>
<path fill="none" stroke="midnightblue" d="M915.53,-172.43C859.74,-166.24 763.13,-153.42 682.5,-132 624.98,-116.72 559.98,-89.45 528.55,-75.6"/>
<polygon fill="midnightblue" stroke="midnightblue" points="915.47,-175.95 925.79,-173.55 916.23,-168.99 915.47,-175.95"/>
</g>
<!-- Node12 -->
<g id="node12" class="node">
<title>Node12</title>
<g id="a_node12"><a xlink:href="a00011.xhtml" target="_top" xlink:title=" ">
<polygon fill="white" stroke="black" points="1290,-112.5 1290,-131.5 1355,-131.5 1355,-112.5 1290,-112.5"/>
<text text-anchor="middle" x="1322.5" y="-119.5" font-family="Helvetica,sans-Serif" font-size="10.00">AudioFile.h</text>
</a>
</g>
</g>
<!-- Node1&#45;&gt;Node12 -->
<g id="edge11" class="edge">
<title>Node1&#45;&gt;Node12</title>
<path fill="none" stroke="midnightblue" d="M1007.05,-170.19C1080.93,-159.14 1225.14,-137.56 1289.78,-127.89"/>
<polygon fill="midnightblue" stroke="midnightblue" points="1006.47,-166.73 997.1,-171.67 1007.51,-173.66 1006.47,-166.73"/>
</g>
<!-- Node14 -->
<g id="node14" class="node">
<title>Node14</title>
<g id="a_node14"><a xlink:href="a00005.xhtml" target="_top" xlink:title=" ">
<polygon fill="white" stroke="black" points="1424,-56.5 1424,-75.5 1505,-75.5 1505,-56.5 1424,-56.5"/>
<text text-anchor="middle" x="1464.5" y="-63.5" font-family="Helvetica,sans-Serif" font-size="10.00">AudioFileIf.cpp</text>
</a>
</g>
</g>
<!-- Node1&#45;&gt;Node14 -->
<g id="edge14" class="edge">
<title>Node1&#45;&gt;Node14</title>
<path fill="none" stroke="midnightblue" d="M1007.24,-174.55C1098.42,-169.24 1299.64,-155.22 1364.5,-132 1383.31,-125.27 1430.6,-91.74 1452.73,-75.65"/>
<polygon fill="midnightblue" stroke="midnightblue" points="1006.98,-171.06 997.2,-175.13 1007.39,-178.05 1006.98,-171.06"/>
</g>
<!-- Node15 -->
<g id="node15" class="node">
<title>Node15</title>
<g id="a_node15"><a xlink:href="a00101.xhtml" target="_top" xlink:title=" ">
<polygon fill="white" stroke="black" points="554.5,-56.5 554.5,-75.5 614.5,-75.5 614.5,-56.5 554.5,-56.5"/>
<text text-anchor="middle" x="584.5" y="-63.5" font-family="Helvetica,sans-Serif" font-size="10.00">Chord.cpp</text>
</a>
</g>
</g>
<!-- Node1&#45;&gt;Node15 -->
<g id="edge15" class="edge">
<title>Node1&#45;&gt;Node15</title>
<path fill="none" stroke="midnightblue" d="M915.72,-170.6C869.97,-163.55 797.92,-150.69 737.5,-132 686.49,-116.22 629.31,-89.3 601.51,-75.59"/>
<polygon fill="midnightblue" stroke="midnightblue" points="915.23,-174.06 925.64,-172.1 916.27,-167.14 915.23,-174.06"/>
</g>
<!-- Node16 -->
<g id="node16" class="node">
<title>Node16</title>
<g id="a_node16"><a xlink:href="a00020.xhtml" target="_top" xlink:title=" ">
<polygon fill="white" stroke="black" points="1412,-112.5 1412,-131.5 1531,-131.5 1531,-112.5 1412,-112.5"/>
<text text-anchor="middle" x="1471.5" y="-119.5" font-family="Helvetica,sans-Serif" font-size="10.00">ComputeFingerprint.cpp</text>
</a>
</g>
</g>
<!-- Node1&#45;&gt;Node16 -->
<g id="edge16" class="edge">
<title>Node1&#45;&gt;Node16</title>
<path fill="none" stroke="midnightblue" d="M1007.28,-172.55C1086.73,-164.77 1255.29,-147.99 1397.5,-132 1402.13,-131.48 1406.92,-130.93 1411.74,-130.36"/>
<polygon fill="midnightblue" stroke="midnightblue" points="1006.74,-169.09 997.13,-173.54 1007.42,-176.05 1006.74,-169.09"/>
</g>
<!-- Node17 -->
<g id="node17" class="node">
<title>Node17</title>
<g id="a_node17"><a xlink:href="a00050.xhtml" target="_top" xlink:title=" ">
<polygon fill="white" stroke="black" points="632.5,-56.5 632.5,-75.5 700.5,-75.5 700.5,-56.5 632.5,-56.5"/>
<text text-anchor="middle" x="666.5" y="-63.5" font-family="Helvetica,sans-Serif" font-size="10.00">Feature.cpp</text>
</a>
</g>
</g>
<!-- Node1&#45;&gt;Node17 -->
<g id="edge17" class="edge">
<title>Node1&#45;&gt;Node17</title>
<path fill="none" stroke="midnightblue" d="M915.58,-169.33C878.1,-162.21 824.22,-149.98 779.5,-132 740.65,-116.38 698.94,-89.39 678.79,-75.62"/>
<polygon fill="midnightblue" stroke="midnightblue" points="915.22,-172.83 925.69,-171.21 916.5,-165.95 915.22,-172.83"/>
</g>
<!-- Node18 -->
<g id="node18" class="node">
<title>Node18</title>
<g id="a_node18"><a xlink:href="a00086.xhtml" target="_top" xlink:title=" ">
<polygon fill="white" stroke="black" points="718.5,-56.5 718.5,-75.5 786.5,-75.5 786.5,-56.5 718.5,-56.5"/>
<text text-anchor="middle" x="752.5" y="-63.5" font-family="Helvetica,sans-Serif" font-size="10.00">Novelty.cpp</text>
</a>
</g>
</g>
<!-- Node1&#45;&gt;Node18 -->
<g id="edge18" class="edge">
<title>Node1&#45;&gt;Node18</title>
<path fill="none" stroke="midnightblue" d="M915.96,-171.49C882.83,-165.77 838.08,-154.36 804.5,-132 782.13,-117.1 764.82,-89.54 757.02,-75.58"/>
<polygon fill="midnightblue" stroke="midnightblue" points="915.41,-174.95 925.84,-173.09 916.53,-168.04 915.41,-174.95"/>
</g>
<!-- Node19 -->
<g id="node19" class="node">
<title>Node19</title>
<g id="a_node19"><a xlink:href="a00071.xhtml" target="_top" xlink:title=" ">
<polygon fill="white" stroke="black" points="901,-56.5 901,-75.5 958,-75.5 958,-56.5 901,-56.5"/>
<text text-anchor="middle" x="929.5" y="-63.5" font-family="Helvetica,sans-Serif" font-size="10.00">Pitch.cpp</text>
</a>
</g>
</g>
<!-- Node1&#45;&gt;Node19 -->
<g id="edge19" class="edge">
<title>Node1&#45;&gt;Node19</title>
<path fill="none" stroke="midnightblue" d="M956.17,-158.67C949.17,-134.62 937.18,-93.39 932,-75.59"/>
<polygon fill="midnightblue" stroke="midnightblue" points="952.83,-159.74 958.99,-168.37 959.56,-157.79 952.83,-159.74"/>
</g>
<!-- Node20 -->
<g id="node20" class="node">
<title>Node20</title>
<g id="a_node20"><a xlink:href="a00083.xhtml" target="_top" xlink:title=" ">
<polygon fill="white" stroke="black" points="976.5,-56.5 976.5,-75.5 1066.5,-75.5 1066.5,-56.5 976.5,-56.5"/>
<text text-anchor="middle" x="1021.5" y="-63.5" font-family="Helvetica,sans-Serif" font-size="10.00">Spectrogram.cpp</text>
</a>
</g>
</g>
<!-- Node1&#45;&gt;Node20 -->
<g id="edge20" class="edge">
<title>Node1&#45;&gt;Node20</title>
<path fill="none" stroke="midnightblue" d="M971.14,-159.32C984.21,-135.37 1007.02,-93.55 1016.81,-75.59"/>
<polygon fill="midnightblue" stroke="midnightblue" points="967.92,-157.91 966.21,-168.37 974.07,-161.27 967.92,-157.91"/>
</g>
<!-- Node21 -->
<g id="node21" class="node">
<title>Node21</title>
<g id="a_node21"><a xlink:href="a00074.xhtml" target="_top" xlink:title=" ">
<polygon fill="white" stroke="black" points="1085,-56.5 1085,-75.5 1188,-75.5 1188,-56.5 1085,-56.5"/>
<text text-anchor="middle" x="1136.5" y="-63.5" font-family="Helvetica,sans-Serif" font-size="10.00">ToolBlockAudio.cpp</text>
</a>
</g>
</g>
<!-- Node1&#45;&gt;Node21 -->
<g id="edge21" class="edge">
<title>Node1&#45;&gt;Node21</title>
<path fill="none" stroke="midnightblue" d="M983.76,-163.01C1020.49,-139.92 1092.73,-94.51 1122.83,-75.59"/>
<polygon fill="midnightblue" stroke="midnightblue" points="981.84,-160.08 975.23,-168.37 985.56,-166.01 981.84,-160.08"/>
</g>
<!-- Node22 -->
<g id="node22" class="node">
<title>Node22</title>
<g id="a_node22"><a xlink:href="a00098.xhtml" target="_top" xlink:title=" ">
<polygon fill="white" stroke="black" points="1206,-56.5 1206,-75.5 1313,-75.5 1313,-56.5 1206,-56.5"/>
<text text-anchor="middle" x="1259.5" y="-63.5" font-family="Helvetica,sans-Serif" font-size="10.00">ToolGammatone.cpp</text>
</a>
</g>
</g>
<!-- Node1&#45;&gt;Node22 -->
<g id="edge22" class="edge">
<title>Node1&#45;&gt;Node22</title>
<path fill="none" stroke="midnightblue" d="M994.38,-164.86C1055.12,-142.44 1183.56,-95.03 1236.23,-75.59"/>
<polygon fill="midnightblue" stroke="midnightblue" points="993.05,-161.62 984.88,-168.37 995.48,-168.19 993.05,-161.62"/>
</g>
<!-- Node23 -->
<g id="node23" class="node">
<title>Node23</title>
<g id="a_node23"><a xlink:href="a00122.xhtml" target="_top" xlink:title=" ">
<polygon fill="white" stroke="black" points="813.5,-112.5 813.5,-131.5 891.5,-131.5 891.5,-112.5 813.5,-112.5"/>
<text text-anchor="middle" x="852.5" y="-119.5" font-family="Helvetica,sans-Serif" font-size="10.00">ToolPreProc.h</text>
</a>
</g>
</g>
<!-- Node1&#45;&gt;Node23 -->
<g id="edge23" class="edge">
<title>Node1&#45;&gt;Node23</title>
<path fill="none" stroke="midnightblue" d="M934.98,-163.86C914.77,-153.85 887.51,-140.35 869.97,-131.65"/>
<polygon fill="midnightblue" stroke="midnightblue" points="933.47,-167.02 943.99,-168.32 936.58,-160.75 933.47,-167.02"/>
</g>
<!-- Node3 -->
<g id="node3" class="node">
<title>Node3</title>
<g id="a_node3"><a xlink:href="a00035.xhtml" target="_top" xlink:title=" ">
<polygon fill="white" stroke="black" points="0,-0.5 0,-19.5 63,-19.5 63,-0.5 0,-0.5"/>
<text text-anchor="middle" x="31.5" y="-7.5" font-family="Helvetica,sans-Serif" font-size="10.00">AcaAll.cpp</text>
</a>
</g>
</g>
<!-- Node2&#45;&gt;Node3 -->
<g id="edge2" class="edge">
<title>Node2&#45;&gt;Node3</title>
<path fill="none" stroke="midnightblue" d="M472.54,-62.69C396.89,-57.64 219.09,-44.1 71.5,-20 68.83,-19.56 66.07,-19.06 63.31,-18.52"/>
<polygon fill="midnightblue" stroke="midnightblue" points="472.73,-66.21 482.94,-63.38 473.19,-59.23 472.73,-66.21"/>
</g>
<!-- Node4 -->
<g id="node4" class="node">
<title>Node4</title>
<g id="a_node4"><a xlink:href="a00017.xhtml" target="_top" xlink:title=" ">
<polygon fill="white" stroke="black" points="81,-0.5 81,-19.5 198,-19.5 198,-0.5 81,-0.5"/>
<text text-anchor="middle" x="139.5" y="-7.5" font-family="Helvetica,sans-Serif" font-size="10.00">ComputeBeatHisto.cpp</text>
</a>
</g>
</g>
<!-- Node2&#45;&gt;Node4 -->
<g id="edge3" class="edge">
<title>Node2&#45;&gt;Node4</title>
<path fill="none" stroke="midnightblue" d="M472.82,-59.65C408.53,-50.26 275.03,-30.78 197.91,-19.52"/>
<polygon fill="midnightblue" stroke="midnightblue" points="472.49,-63.14 482.89,-61.12 473.5,-56.21 472.49,-63.14"/>
</g>
<!-- Node5 -->
<g id="node5" class="node">
<title>Node5</title>
<g id="a_node5"><a xlink:href="a00023.xhtml" target="_top" xlink:title=" ">
<polygon fill="white" stroke="black" points="216.5,-0.5 216.5,-19.5 320.5,-19.5 320.5,-0.5 216.5,-0.5"/>
<text text-anchor="middle" x="268.5" y="-7.5" font-family="Helvetica,sans-Serif" font-size="10.00">ComputeChords.cpp</text>
</a>
</g>
</g>
<!-- Node2&#45;&gt;Node5 -->
<g id="edge4" class="edge">
<title>Node2&#45;&gt;Node5</title>
<path fill="none" stroke="midnightblue" d="M472.9,-56.8C428.05,-46.75 352.44,-29.81 306.82,-19.59"/>
<polygon fill="midnightblue" stroke="midnightblue" points="472.26,-60.24 482.79,-59.01 473.8,-53.41 472.26,-60.24"/>
</g>
<!-- Node6 -->
<g id="node6" class="node">
<title>Node6</title>
<g id="a_node6"><a xlink:href="a00002.xhtml" target="_top" xlink:title=" ">
<polygon fill="white" stroke="black" points="339,-0.5 339,-19.5 446,-19.5 446,-0.5 339,-0.5"/>
<text text-anchor="middle" x="392.5" y="-7.5" font-family="Helvetica,sans-Serif" font-size="10.00">ComputeFeature.cpp</text>
</a>
</g>
</g>
<!-- Node2&#45;&gt;Node6 -->
<g id="edge5" class="edge">
<title>Node2&#45;&gt;Node6</title>
<path fill="none" stroke="midnightblue" d="M481.84,-52.23C459.95,-42.13 430,-28.31 410.95,-19.52"/>
<polygon fill="midnightblue" stroke="midnightblue" points="480.41,-55.43 490.96,-56.44 483.35,-49.08 480.41,-55.43"/>
</g>
<!-- Node7 -->
<g id="node7" class="node">
<title>Node7</title>
<g id="a_node7"><a xlink:href="a00026.xhtml" target="_top" xlink:title=" ">
<polygon fill="white" stroke="black" points="464.5,-0.5 464.5,-19.5 554.5,-19.5 554.5,-0.5 464.5,-0.5"/>
<text text-anchor="middle" x="509.5" y="-7.5" font-family="Helvetica,sans-Serif" font-size="10.00">ComputeKey.cpp</text>
</a>
</g>
</g>
<!-- Node2&#45;&gt;Node7 -->
<g id="edge6" class="edge">
<title>Node2&#45;&gt;Node7</title>
<path fill="none" stroke="midnightblue" d="M509.5,-45.8C509.5,-36.91 509.5,-26.78 509.5,-19.75"/>
<polygon fill="midnightblue" stroke="midnightblue" points="506,-46.08 509.5,-56.08 513,-46.08 506,-46.08"/>
</g>
<!-- Node8 -->
<g id="node8" class="node">
<title>Node8</title>
<g id="a_node8"><a xlink:href="a00104.xhtml" target="_top" xlink:title=" ">
<polygon fill="white" stroke="black" points="573,-0.5 573,-19.5 718,-19.5 718,-0.5 573,-0.5"/>
<text text-anchor="middle" x="645.5" y="-7.5" font-family="Helvetica,sans-Serif" font-size="10.00">ComputeMelSpectrogram.cpp</text>
</a>
</g>
</g>
<!-- Node2&#45;&gt;Node8 -->
<g id="edge7" class="edge">
<title>Node2&#45;&gt;Node8</title>
<path fill="none" stroke="midnightblue" d="M540.63,-52.64C566.16,-42.5 601.61,-28.43 624.05,-19.52"/>
<polygon fill="midnightblue" stroke="midnightblue" points="539.05,-49.5 531.05,-56.44 541.64,-56.01 539.05,-49.5"/>
</g>
<!-- Node9 -->
<g id="node9" class="node">
<title>Node9</title>
<g id="a_node9"><a xlink:href="a00029.xhtml" target="_top" xlink:title=" ">
<polygon fill="white" stroke="black" points="736.5,-0.5 736.5,-19.5 880.5,-19.5 880.5,-0.5 736.5,-0.5"/>
<text text-anchor="middle" x="808.5" y="-7.5" font-family="Helvetica,sans-Serif" font-size="10.00">ComputeNoveltyFunction.cpp</text>
</a>
</g>
</g>
<!-- Node2&#45;&gt;Node9 -->
<g id="edge8" class="edge">
<title>Node2&#45;&gt;Node9</title>
<path fill="none" stroke="midnightblue" d="M546.01,-56.03C622.66,-40.09 700.08,-27.42 751.32,-19.51"/>
<polygon fill="midnightblue" stroke="midnightblue" points="545.25,-52.61 536.18,-58.09 546.69,-59.46 545.25,-52.61"/>
</g>
<!-- Node10 -->
<g id="node10" class="node">
<title>Node10</title>
<g id="a_node10"><a xlink:href="a00107.xhtml" target="_top" xlink:title=" ">
<polygon fill="white" stroke="black" points="898.5,-0.5 898.5,-19.5 994.5,-19.5 994.5,-0.5 898.5,-0.5"/>
<text text-anchor="middle" x="946.5" y="-7.5" font-family="Helvetica,sans-Serif" font-size="10.00">ComputePitch.cpp</text>
</a>
</g>
</g>
<!-- Node2&#45;&gt;Node10 -->
<g id="edge9" class="edge">
<title>Node2&#45;&gt;Node10</title>
<path fill="none" stroke="midnightblue" d="M546.34,-56.1C698.66,-29.74 740.36,-39.56 889.5,-20 892.38,-19.62 895.34,-19.21 898.32,-18.79"/>
<polygon fill="midnightblue" stroke="midnightblue" points="545.39,-52.72 536.15,-57.89 546.6,-59.61 545.39,-52.72"/>
</g>
<!-- Node11 -->
<g id="node11" class="node">
<title>Node11</title>
<g id="a_node11"><a xlink:href="a00014.xhtml" target="_top" xlink:title=" ">
<polygon fill="white" stroke="black" points="1013,-0.5 1013,-19.5 1142,-19.5 1142,-0.5 1013,-0.5"/>
<text text-anchor="middle" x="1077.5" y="-7.5" font-family="Helvetica,sans-Serif" font-size="10.00">ComputeSpectrogram.cpp</text>
</a>
</g>
</g>
<!-- Node2&#45;&gt;Node11 -->
<g id="edge10" class="edge">
<title>Node2&#45;&gt;Node11</title>
<path fill="none" stroke="midnightblue" d="M546.21,-56.18C748.78,-23.67 803.6,-40 1003.5,-20 1006.59,-19.69 1009.75,-19.36 1012.94,-19.02"/>
<polygon fill="midnightblue" stroke="midnightblue" points="545.44,-52.76 536.13,-57.82 546.57,-59.67 545.44,-52.76"/>
</g>
<!-- Node13 -->
<g id="node13" class="node">
<title>Node13</title>
<g id="a_node13"><a xlink:href="a00008.xhtml" target="_top" xlink:title=" ">
<polygon fill="white" stroke="black" points="1331,-56.5 1331,-75.5 1406,-75.5 1406,-56.5 1331,-56.5"/>
<text text-anchor="middle" x="1368.5" y="-63.5" font-family="Helvetica,sans-Serif" font-size="10.00">AudioFile.cpp</text>
</a>
</g>
</g>
<!-- Node12&#45;&gt;Node13 -->
<g id="edge12" class="edge">
<title>Node12&#45;&gt;Node13</title>
<path fill="none" stroke="midnightblue" d="M1336.61,-104.43C1344.68,-94.97 1354.46,-83.48 1361.05,-75.75"/>
<polygon fill="midnightblue" stroke="midnightblue" points="1333.92,-102.2 1330.1,-112.08 1339.25,-106.74 1333.92,-102.2"/>
</g>
<!-- Node12&#45;&gt;Node14 -->
<g id="edge13" class="edge">
<title>Node12&#45;&gt;Node14</title>
<path fill="none" stroke="midnightblue" d="M1354.66,-108.77C1381.33,-98.63 1418.57,-84.47 1442.1,-75.52"/>
<polygon fill="midnightblue" stroke="midnightblue" points="1353.1,-105.62 1345,-112.44 1355.59,-112.16 1353.1,-105.62"/>
</g>
<!-- Node23&#45;&gt;Node2 -->
<g id="edge24" class="edge">
<title>Node23&#45;&gt;Node2</title>
<path fill="none" stroke="midnightblue" d="M802.93,-115.27C742.02,-107.89 635.67,-93.83 545.5,-76 542.47,-75.4 539.3,-74.71 536.17,-73.98"/>
<polygon fill="midnightblue" stroke="midnightblue" points="802.69,-118.77 813.03,-116.49 803.52,-111.82 802.69,-118.77"/>
</g>
<!-- Node23&#45;&gt;Node15 -->
<g id="edge26" class="edge">
<title>Node23&#45;&gt;Node15</title>
<path fill="none" stroke="midnightblue" d="M803.02,-111.76C756.57,-102.98 685.2,-89.18 623.5,-76 620.65,-75.39 617.68,-74.74 614.71,-74.07"/>
<polygon fill="midnightblue" stroke="midnightblue" points="802.64,-115.25 813.11,-113.67 803.94,-108.37 802.64,-115.25"/>
</g>
<!-- Node23&#45;&gt;Node17 -->
<g id="edge27" class="edge">
<title>Node23&#45;&gt;Node17</title>
<path fill="none" stroke="midnightblue" d="M813.12,-109.57C778.03,-99.38 727.48,-84.7 695.83,-75.52"/>
<polygon fill="midnightblue" stroke="midnightblue" points="812.45,-113.02 823.03,-112.44 814.4,-106.29 812.45,-113.02"/>
</g>
<!-- Node23&#45;&gt;Node18 -->
<g id="edge28" class="edge">
<title>Node23&#45;&gt;Node18</title>
<path fill="none" stroke="midnightblue" d="M827.41,-107.45C808.95,-97.48 784.4,-84.23 768.53,-75.65"/>
<polygon fill="midnightblue" stroke="midnightblue" points="825.97,-110.65 836.43,-112.32 829.3,-104.49 825.97,-110.65"/>
</g>
<!-- Node23&#45;&gt;Node19 -->
<g id="edge29" class="edge">
<title>Node23&#45;&gt;Node19</title>
<path fill="none" stroke="midnightblue" d="M873.4,-106.34C887.41,-96.52 905.38,-83.91 917.16,-75.65"/>
<polygon fill="midnightblue" stroke="midnightblue" points="871.05,-103.72 864.87,-112.32 875.07,-109.45 871.05,-103.72"/>
</g>
<!-- Node23&#45;&gt;Node20 -->
<g id="edge30" class="edge">
<title>Node23&#45;&gt;Node20</title>
<path fill="none" stroke="midnightblue" d="M889.1,-109.3C920.95,-99.13 966.34,-84.62 994.85,-75.52"/>
<polygon fill="midnightblue" stroke="midnightblue" points="887.74,-106.07 879.28,-112.44 889.87,-112.73 887.74,-106.07"/>
</g>
<!-- Node23&#45;&gt;Node21 -->
<g id="edge31" class="edge">
<title>Node23&#45;&gt;Node21</title>
<path fill="none" stroke="midnightblue" d="M901.62,-111.66C955.1,-101.49 1039.89,-85.37 1091.63,-75.53"/>
<polygon fill="midnightblue" stroke="midnightblue" points="900.86,-108.24 891.69,-113.55 902.17,-115.12 900.86,-108.24"/>
</g>
<!-- Node23&#45;&gt;Node22 -->
<g id="edge32" class="edge">
<title>Node23&#45;&gt;Node22</title>
<path fill="none" stroke="midnightblue" d="M901.96,-114.72C968.82,-106.18 1091.71,-90.34 1196.5,-76 1199.57,-75.58 1202.71,-75.15 1205.89,-74.7"/>
<polygon fill="midnightblue" stroke="midnightblue" points="901.21,-111.28 891.73,-116.02 902.09,-118.23 901.21,-111.28"/>
</g>
<!-- Node24 -->
<g id="node24" class="node">
<title>Node24</title>
<g id="a_node24"><a xlink:href="a00080.xhtml" target="_top" xlink:title=" ">
<polygon fill="white" stroke="black" points="804.5,-56.5 804.5,-75.5 882.5,-75.5 882.5,-56.5 804.5,-56.5"/>
<text text-anchor="middle" x="843.5" y="-63.5" font-family="Helvetica,sans-Serif" font-size="10.00">BeatHisto.cpp</text>
</a>
</g>
</g>
<!-- Node23&#45;&gt;Node24 -->
<g id="edge25" class="edge">
<title>Node23&#45;&gt;Node24</title>
<path fill="none" stroke="midnightblue" d="M849.35,-102.1C847.86,-93.14 846.14,-82.86 844.96,-75.75"/>
<polygon fill="midnightblue" stroke="midnightblue" points="845.92,-102.79 851.01,-112.08 852.82,-101.64 845.92,-102.79"/>
</g>
</g>
</svg>
