<?xml version="1.0" encoding="UTF-8" standalone="no"?>
<!DOCTYPE svg PUBLIC "-//W3C//DTD SVG 1.1//EN"
 "http://www.w3.org/Graphics/SVG/1.1/DTD/svg11.dtd">
<!-- Generated by graphviz version 6.0.1 (20220911.1526)
 -->
<!-- Title: Vector.h Pages: 1 -->
<svg width="2733pt" height="302pt"
 viewBox="0.00 0.00 2732.50 302.00" xmlns="http://www.w3.org/2000/svg" xmlns:xlink="http://www.w3.org/1999/xlink">
<g id="graph0" class="graph" transform="scale(1 1) rotate(0) translate(4 298)">
<title>Vector.h</title>
<!-- Node1 -->
<g id="node1" class="node">
<title>Node1</title>
<g id="a_node1"><a xlink:title=" ">
<polygon fill="#999999" stroke="#666666" points="1348,-294 1295,-294 1295,-275 1348,-275 1348,-294"/>
<text text-anchor="middle" x="1321.5" y="-282" font-family="Helvetica,sans-Serif" font-size="10.00">Vector.h</text>
</a>
</g>
</g>
<!-- Node2 -->
<g id="node2" class="node">
<title>Node2</title>
<g id="a_node2"><a xlink:href="a00014.xhtml" target="_top" xlink:title=" ">
<polygon fill="white" stroke="#666666" points="75,-239 0,-239 0,-220 75,-220 75,-239"/>
<text text-anchor="middle" x="37.5" y="-227" font-family="Helvetica,sans-Serif" font-size="10.00">AudioFile.cpp</text>
</a>
</g>
</g>
<!-- Node1&#45;&gt;Node2 -->
<g id="edge1" class="edge">
<title>Node1&#45;&gt;Node2</title>
<path fill="none" stroke="#63b8ff" d="M1284.55,-283.86C1134.93,-284.96 559.6,-285.72 89.5,-239 84.86,-238.54 80,-237.92 75.2,-237.23"/>
<polygon fill="#63b8ff" stroke="#63b8ff" points="1285,-287.36 1294.98,-283.78 1284.95,-280.36 1285,-287.36"/>
</g>
<!-- Node3 -->
<g id="node3" class="node">
<title>Node3</title>
<g id="a_node3"><a xlink:href="a00041.xhtml" target="_top" xlink:title=" ">
<polygon fill="white" stroke="#666666" points="941.5,-129 863.5,-129 863.5,-110 941.5,-110 941.5,-129"/>
<text text-anchor="middle" x="902.5" y="-117" font-family="Helvetica,sans-Serif" font-size="10.00">BeatHisto.cpp</text>
</a>
</g>
</g>
<!-- Node1&#45;&gt;Node3 -->
<g id="edge2" class="edge">
<title>Node1&#45;&gt;Node3</title>
<path fill="none" stroke="#63b8ff" d="M1284.6,-283.12C1168.54,-281.05 814.65,-267.87 746.5,-184 741.17,-177.45 741.41,-171.74 746.5,-165 753.69,-155.47 819.75,-139.05 863.57,-129.05"/>
<polygon fill="#63b8ff" stroke="#63b8ff" points="1284.7,-286.62 1294.75,-283.28 1284.81,-279.62 1284.7,-286.62"/>
</g>
<!-- Node4 -->
<g id="node4" class="node">
<title>Node4</title>
<g id="a_node4"><a xlink:href="a00062.xhtml" target="_top" xlink:title=" ">
<polygon fill="white" stroke="#666666" points="863,-184 756,-184 756,-165 863,-165 863,-184"/>
<text text-anchor="middle" x="809.5" y="-172" font-family="Helvetica,sans-Serif" font-size="10.00">ChordFromBlock.cpp</text>
</a>
</g>
</g>
<!-- Node1&#45;&gt;Node4 -->
<g id="edge3" class="edge">
<title>Node1&#45;&gt;Node4</title>
<path fill="none" stroke="#63b8ff" d="M1285.01,-276.24C1241.52,-267.54 1166.65,-252.47 1102.5,-239 1011.32,-219.86 904.4,-196.44 848.33,-184.08"/>
<polygon fill="#63b8ff" stroke="#63b8ff" points="1284.35,-279.67 1294.84,-278.2 1285.72,-272.81 1284.35,-279.67"/>
</g>
<!-- Node5 -->
<g id="node5" class="node">
<title>Node5</title>
<g id="a_node5"><a xlink:href="a00155.xhtml" target="_top" xlink:title=" ">
<polygon fill="white" stroke="#666666" points="380.5,-239 294.5,-239 294.5,-220 380.5,-220 380.5,-239"/>
<text text-anchor="middle" x="337.5" y="-227" font-family="Helvetica,sans-Serif" font-size="10.00">ClassifierBase.h</text>
</a>
</g>
</g>
<!-- Node1&#45;&gt;Node5 -->
<g id="edge4" class="edge">
<title>Node1&#45;&gt;Node5</title>
<path fill="none" stroke="#63b8ff" d="M1284.74,-281.81C1165.83,-276.29 780.83,-258.07 462.5,-239 435.25,-237.37 404.68,-235.29 380.59,-233.6"/>
<polygon fill="#63b8ff" stroke="#63b8ff" points="1284.62,-285.31 1294.77,-282.27 1284.94,-278.31 1284.62,-285.31"/>
</g>
<!-- Node18 -->
<g id="node18" class="node">
<title>Node18</title>
<g id="a_node18"><a xlink:href="a00056.xhtml" target="_top" xlink:title=" ">
<polygon fill="white" stroke="#666666" points="287,-129 170,-129 170,-110 287,-110 287,-129"/>
<text text-anchor="middle" x="228.5" y="-117" font-family="Helvetica,sans-Serif" font-size="10.00">ToolGmmClassifier.cpp</text>
</a>
</g>
</g>
<!-- Node1&#45;&gt;Node18 -->
<g id="edge70" class="edge">
<title>Node1&#45;&gt;Node18</title>
<path fill="none" stroke="#63b8ff" d="M1284.4,-283.31C1123.2,-282.25 482.94,-275.78 285.5,-239 210.34,-225 167.09,-246.11 122.5,-184 102.61,-156.29 148.32,-138.51 185.81,-129.01"/>
<polygon fill="#63b8ff" stroke="#63b8ff" points="1284.72,-286.81 1294.74,-283.37 1284.76,-279.81 1284.72,-286.81"/>
</g>
<!-- Node19 -->
<g id="node19" class="node">
<title>Node19</title>
<g id="a_node19"><a xlink:href="a00050.xhtml" target="_top" xlink:title=" ">
<polygon fill="white" stroke="#666666" points="519.5,-184 365.5,-184 365.5,-165 519.5,-165 519.5,-184"/>
<text text-anchor="middle" x="442.5" y="-172" font-family="Helvetica,sans-Serif" font-size="10.00">ToolLeaveOneOutCrossVal.cpp</text>
</a>
</g>
</g>
<!-- Node1&#45;&gt;Node19 -->
<g id="edge73" class="edge">
<title>Node1&#45;&gt;Node19</title>
<path fill="none" stroke="#63b8ff" d="M1284.33,-282.59C1137.82,-278.86 604.88,-263.68 533.5,-239 499.27,-227.17 466.24,-198.47 451.11,-184.06"/>
<polygon fill="#63b8ff" stroke="#63b8ff" points="1284.5,-286.1 1294.59,-282.85 1284.68,-279.1 1284.5,-286.1"/>
</g>
<!-- Node21 -->
<g id="node21" class="node">
<title>Node21</title>
<g id="a_node21"><a xlink:href="a00095.xhtml" target="_top" xlink:title=" ">
<polygon fill="white" stroke="#666666" points="461.5,-129 343.5,-129 343.5,-110 461.5,-110 461.5,-129"/>
<text text-anchor="middle" x="402.5" y="-117" font-family="Helvetica,sans-Serif" font-size="10.00">ToolSeqFeatureSel.cpp</text>
</a>
</g>
</g>
<!-- Node1&#45;&gt;Node21 -->
<g id="edge76" class="edge">
<title>Node1&#45;&gt;Node21</title>
<path fill="none" stroke="#63b8ff" d="M1284.49,-283.13C1143.3,-281.46 643.33,-273.15 581.5,-239 546.09,-219.44 560.84,-189.3 528.5,-165 504.39,-146.88 472.27,-135.69 446.5,-129.06"/>
<polygon fill="#63b8ff" stroke="#63b8ff" points="1284.74,-286.63 1294.78,-283.24 1284.82,-279.63 1284.74,-286.63"/>
</g>
<!-- Node22 -->
<g id="node22" class="node">
<title>Node22</title>
<g id="a_node22"><a xlink:href="a00107.xhtml" target="_top" xlink:title=" ">
<polygon fill="white" stroke="#666666" points="581,-129 480,-129 480,-110 581,-110 581,-129"/>
<text text-anchor="middle" x="530.5" y="-117" font-family="Helvetica,sans-Serif" font-size="10.00">ToolSimpleKnn.cpp</text>
</a>
</g>
</g>
<!-- Node1&#45;&gt;Node22 -->
<g id="edge79" class="edge">
<title>Node1&#45;&gt;Node22</title>
<path fill="none" stroke="#63b8ff" d="M1284.62,-283.23C1146.21,-281.94 662.61,-274.88 604.5,-239 572.14,-219.01 581.94,-197.08 561.5,-165 553.4,-152.3 543.32,-138.09 536.89,-129.22"/>
<polygon fill="#63b8ff" stroke="#63b8ff" points="1284.69,-286.73 1294.72,-283.32 1284.75,-279.73 1284.69,-286.73"/>
</g>
<!-- Node23 -->
<g id="node23" class="node">
<title>Node23</title>
<g id="a_node23"><a xlink:href="a00098.xhtml" target="_top" xlink:title=" ">
<polygon fill="white" stroke="#666666" points="996,-184 881,-184 881,-165 996,-165 996,-184"/>
<text text-anchor="middle" x="938.5" y="-172" font-family="Helvetica,sans-Serif" font-size="10.00">FeatureFromBlock.cpp</text>
</a>
</g>
</g>
<!-- Node1&#45;&gt;Node23 -->
<g id="edge23" class="edge">
<title>Node1&#45;&gt;Node23</title>
<path fill="none" stroke="#63b8ff" d="M1284.9,-273.18C1209.6,-251.95 1038.54,-203.71 968.87,-184.06"/>
<polygon fill="#63b8ff" stroke="#63b8ff" points="1284.3,-276.65 1294.87,-275.99 1286.2,-269.91 1284.3,-276.65"/>
</g>
<!-- Node24 -->
<g id="node24" class="node">
<title>Node24</title>
<g id="a_node24"><a xlink:href="a00077.xhtml" target="_top" xlink:title=" ">
<polygon fill="white" stroke="#666666" points="2380,-239 2333,-239 2333,-220 2380,-220 2380,-239"/>
<text text-anchor="middle" x="2356.5" y="-227" font-family="Helvetica,sans-Serif" font-size="10.00">Fft.cpp</text>
</a>
</g>
</g>
<!-- Node1&#45;&gt;Node24 -->
<g id="edge24" class="edge">
<title>Node1&#45;&gt;Node24</title>
<path fill="none" stroke="#63b8ff" d="M1358.15,-282.73C1514.61,-279.29 2127.32,-264.45 2318.5,-239 2323.19,-238.38 2328.16,-237.46 2332.9,-236.45"/>
<polygon fill="#63b8ff" stroke="#63b8ff" points="1358.02,-279.23 1348.1,-282.94 1358.17,-286.23 1358.02,-279.23"/>
</g>
<!-- Node25 -->
<g id="node25" class="node">
<title>Node25</title>
<g id="a_node25"><a xlink:href="a00191.xhtml" target="_top" xlink:title=" ">
<polygon fill="white" stroke="#666666" points="1174.5,-184 1128.5,-184 1128.5,-165 1174.5,-165 1174.5,-184"/>
<text text-anchor="middle" x="1151.5" y="-172" font-family="Helvetica,sans-Serif" font-size="10.00">Filter.h</text>
</a>
</g>
</g>
<!-- Node1&#45;&gt;Node25 -->
<g id="edge25" class="edge">
<title>Node1&#45;&gt;Node25</title>
<path fill="none" stroke="#63b8ff" d="M1299.14,-269.3C1263.41,-246.59 1194.47,-202.8 1165.19,-184.2"/>
<polygon fill="#63b8ff" stroke="#63b8ff" points="1297.56,-272.44 1307.88,-274.84 1301.31,-266.53 1297.56,-272.44"/>
</g>
<!-- Node26 -->
<g id="node26" class="node">
<title>Node26</title>
<g id="a_node26"><a xlink:href="a00074.xhtml" target="_top" xlink:title=" ">
<polygon fill="white" stroke="#666666" points="741.5,-129 637.5,-129 637.5,-110 741.5,-110 741.5,-129"/>
<text text-anchor="middle" x="689.5" y="-117" font-family="Helvetica,sans-Serif" font-size="10.00">PitchFromBlock.cpp</text>
</a>
</g>
</g>
<!-- Node1&#45;&gt;Node26 -->
<g id="edge64" class="edge">
<title>Node1&#45;&gt;Node26</title>
<path fill="none" stroke="#63b8ff" d="M1284.57,-283.37C1180.67,-282.55 887.67,-276.83 800.5,-239 746.97,-215.77 707.43,-152.63 694.26,-129.31"/>
<polygon fill="#63b8ff" stroke="#63b8ff" points="1284.85,-286.88 1294.88,-283.44 1284.9,-279.88 1284.85,-286.88"/>
</g>
<!-- Node29 -->
<g id="node29" class="node">
<title>Node29</title>
<g id="a_node29"><a xlink:href="a00071.xhtml" target="_top" xlink:title=" ">
<polygon fill="white" stroke="#666666" points="1604,-74 1505,-74 1505,-55 1604,-55 1604,-74"/>
<text text-anchor="middle" x="1554.5" y="-62" font-family="Helvetica,sans-Serif" font-size="10.00">ToolFingerprint.cpp</text>
</a>
</g>
</g>
<!-- Node1&#45;&gt;Node29 -->
<g id="edge68" class="edge">
<title>Node1&#45;&gt;Node29</title>
<path fill="none" stroke="#63b8ff" d="M1358.54,-282.69C1492.97,-279.54 1954.8,-266.88 2099.5,-239 2174.99,-224.45 2218.61,-246.41 2263.5,-184 2342.62,-74.02 1777.51,-65.35 1604.06,-65.26"/>
<polygon fill="#63b8ff" stroke="#63b8ff" points="1358.27,-279.19 1348.35,-282.92 1358.43,-286.19 1358.27,-279.19"/>
</g>
<!-- Node30 -->
<g id="node30" class="node">
<title>Node30</title>
<g id="a_node30"><a xlink:href="a00083.xhtml" target="_top" xlink:title=" ">
<polygon fill="white" stroke="#666666" points="2505,-239 2398,-239 2398,-220 2505,-220 2505,-239"/>
<text text-anchor="middle" x="2451.5" y="-227" font-family="Helvetica,sans-Serif" font-size="10.00">KeyFromChroma.cpp</text>
</a>
</g>
</g>
<!-- Node1&#45;&gt;Node30 -->
<g id="edge31" class="edge">
<title>Node1&#45;&gt;Node30</title>
<path fill="none" stroke="#63b8ff" d="M1358.76,-283.22C1496.08,-281.93 1986.82,-274.91 2389.5,-239 2392.21,-238.76 2394.97,-238.48 2397.77,-238.18"/>
<polygon fill="#63b8ff" stroke="#63b8ff" points="1358.35,-279.73 1348.39,-283.32 1358.42,-286.73 1358.35,-279.73"/>
</g>
<!-- Node31 -->
<g id="node31" class="node">
<title>Node31</title>
<g id="a_node31"><a xlink:href="a00197.xhtml" target="_top" xlink:title=" ">
<polygon fill="white" stroke="#666666" points="1377.5,-239 1327.5,-239 1327.5,-220 1377.5,-220 1377.5,-239"/>
<text text-anchor="middle" x="1352.5" y="-227" font-family="Helvetica,sans-Serif" font-size="10.00">Matrix.h</text>
</a>
</g>
</g>
<!-- Node1&#45;&gt;Node31 -->
<g id="edge32" class="edge">
<title>Node1&#45;&gt;Node31</title>
<path fill="none" stroke="#63b8ff" d="M1331.68,-266.1C1336.97,-257.04 1343.22,-246.37 1347.48,-239.09"/>
<polygon fill="#63b8ff" stroke="#63b8ff" points="1328.65,-264.35 1326.62,-274.75 1334.69,-267.88 1328.65,-264.35"/>
</g>
<!-- Node35 -->
<g id="node35" class="node">
<title>Node35</title>
<g id="a_node35"><a xlink:href="a00080.xhtml" target="_top" xlink:title=" ">
<polygon fill="white" stroke="#666666" points="1698.5,-184 1600.5,-184 1600.5,-165 1698.5,-165 1698.5,-184"/>
<text text-anchor="middle" x="1649.5" y="-172" font-family="Helvetica,sans-Serif" font-size="10.00">SubFingerprint.cpp</text>
</a>
</g>
</g>
<!-- Node1&#45;&gt;Node35 -->
<g id="edge65" class="edge">
<title>Node1&#45;&gt;Node35</title>
<path fill="none" stroke="#63b8ff" d="M1357.14,-271.77C1423.62,-249.87 1565.11,-203.29 1623.49,-184.07"/>
<polygon fill="#63b8ff" stroke="#63b8ff" points="1355.92,-268.48 1347.51,-274.94 1358.1,-275.13 1355.92,-268.48"/>
</g>
<!-- Node36 -->
<g id="node36" class="node">
<title>Node36</title>
<g id="a_node36"><a xlink:href="a00110.xhtml" target="_top" xlink:title=" ">
<polygon fill="white" stroke="#666666" points="1699,-129 1596,-129 1596,-110 1699,-110 1699,-129"/>
<text text-anchor="middle" x="1647.5" y="-117" font-family="Helvetica,sans-Serif" font-size="10.00">ToolBlockAudio.cpp</text>
</a>
</g>
</g>
<!-- Node1&#45;&gt;Node36 -->
<g id="edge66" class="edge">
<title>Node1&#45;&gt;Node36</title>
<path fill="none" stroke="#63b8ff" d="M1358.32,-282.43C1523.16,-277.24 2187.89,-252.2 2247.5,-184 2253.06,-177.64 2253.25,-171.19 2247.5,-165 2210.56,-125.22 1837.99,-120.7 1699.22,-120.41"/>
<polygon fill="#63b8ff" stroke="#63b8ff" points="1358.08,-278.93 1348.2,-282.74 1358.3,-285.93 1358.08,-278.93"/>
</g>
<!-- Node37 -->
<g id="node37" class="node">
<title>Node37</title>
<g id="a_node37"><a xlink:href="a00026.xhtml" target="_top" xlink:title=" ">
<polygon fill="white" stroke="#666666" points="1794,-184 1717,-184 1717,-165 1794,-165 1794,-184"/>
<text text-anchor="middle" x="1755.5" y="-172" font-family="Helvetica,sans-Serif" font-size="10.00">ToolGmm.cpp</text>
</a>
</g>
</g>
<!-- Node1&#45;&gt;Node37 -->
<g id="edge69" class="edge">
<title>Node1&#45;&gt;Node37</title>
<path fill="none" stroke="#63b8ff" d="M1358.03,-274.41C1440.63,-253.85 1640.87,-204.03 1721.26,-184.02"/>
<polygon fill="#63b8ff" stroke="#63b8ff" points="1357.18,-271.01 1348.32,-276.83 1358.87,-277.81 1357.18,-271.01"/>
</g>
<!-- Node39 -->
<g id="node39" class="node">
<title>Node39</title>
<g id="a_node39"><a xlink:href="a00104.xhtml" target="_top" xlink:title=" ">
<polygon fill="white" stroke="#666666" points="1883,-184 1812,-184 1812,-165 1883,-165 1883,-184"/>
<text text-anchor="middle" x="1847.5" y="-172" font-family="Helvetica,sans-Serif" font-size="10.00">ToolPca.cpp</text>
</a>
</g>
</g>
<!-- Node1&#45;&gt;Node39 -->
<g id="edge74" class="edge">
<title>Node1&#45;&gt;Node39</title>
<path fill="none" stroke="#63b8ff" d="M1358.22,-276.68C1403.83,-268.15 1484,-252.97 1552.5,-239 1646.18,-219.9 1756.22,-195.76 1811.68,-183.47"/>
<polygon fill="#63b8ff" stroke="#63b8ff" points="1357.4,-273.27 1348.21,-278.55 1358.69,-280.15 1357.4,-273.27"/>
</g>
<!-- Node40 -->
<g id="node40" class="node">
<title>Node40</title>
<g id="a_node40"><a xlink:href="a00137.xhtml" target="_top" xlink:title=" ">
<polygon fill="white" stroke="#666666" points="1270.5,-184 1192.5,-184 1192.5,-165 1270.5,-165 1270.5,-184"/>
<text text-anchor="middle" x="1231.5" y="-172" font-family="Helvetica,sans-Serif" font-size="10.00">ToolPreProc.h</text>
</a>
</g>
</g>
<!-- Node1&#45;&gt;Node40 -->
<g id="edge75" class="edge">
<title>Node1&#45;&gt;Node40</title>
<path fill="none" stroke="#63b8ff" d="M1307.49,-266.69C1288.06,-243.37 1253.62,-202.05 1238.72,-184.16"/>
<polygon fill="#63b8ff" stroke="#63b8ff" points="1305.04,-269.22 1314.13,-274.66 1310.42,-264.74 1305.04,-269.22"/>
</g>
<!-- Node44 -->
<g id="node44" class="node">
<title>Node44</title>
<g id="a_node44"><a xlink:href="a00089.xhtml" target="_top" xlink:title=" ">
<polygon fill="white" stroke="#666666" points="2002,-184 1901,-184 1901,-165 2002,-165 2002,-184"/>
<text text-anchor="middle" x="1951.5" y="-172" font-family="Helvetica,sans-Serif" font-size="10.00">ToolSimpleDtw.cpp</text>
</a>
</g>
</g>
<!-- Node1&#45;&gt;Node44 -->
<g id="edge77" class="edge">
<title>Node1&#45;&gt;Node44</title>
<path fill="none" stroke="#63b8ff" d="M1358.2,-278.23C1413.14,-270.24 1519.99,-254.39 1610.5,-239 1717.81,-220.75 1843.58,-196.62 1908.25,-184"/>
<polygon fill="#63b8ff" stroke="#63b8ff" points="1357.64,-274.77 1348.24,-279.67 1358.64,-281.7 1357.64,-274.77"/>
</g>
<!-- Node45 -->
<g id="node45" class="node">
<title>Node45</title>
<g id="a_node45"><a xlink:href="a00029.xhtml" target="_top" xlink:title=" ">
<polygon fill="white" stroke="#666666" points="2139,-184 2020,-184 2020,-165 2139,-165 2139,-184"/>
<text text-anchor="middle" x="2079.5" y="-172" font-family="Helvetica,sans-Serif" font-size="10.00">ToolSimpleKmeans.cpp</text>
</a>
</g>
</g>
<!-- Node1&#45;&gt;Node45 -->
<g id="edge78" class="edge">
<title>Node1&#45;&gt;Node45</title>
<path fill="none" stroke="#63b8ff" d="M1358.24,-279.26C1422.59,-271.75 1559.89,-255.35 1675.5,-239 1802.74,-221.01 1952.01,-196.71 2028.56,-184.02"/>
<polygon fill="#63b8ff" stroke="#63b8ff" points="1357.71,-275.8 1348.18,-280.43 1358.52,-282.75 1357.71,-275.8"/>
</g>
<!-- Node46 -->
<g id="node46" class="node">
<title>Node46</title>
<g id="a_node46"><a xlink:href="a00101.xhtml" target="_top" xlink:title=" ">
<polygon fill="white" stroke="#666666" points="2238,-184 2157,-184 2157,-165 2238,-165 2238,-184"/>
<text text-anchor="middle" x="2197.5" y="-172" font-family="Helvetica,sans-Serif" font-size="10.00">ToolViterbi.cpp</text>
</a>
</g>
</g>
<!-- Node1&#45;&gt;Node46 -->
<g id="edge80" class="edge">
<title>Node1&#45;&gt;Node46</title>
<path fill="none" stroke="#63b8ff" d="M1358.37,-280.1C1432.66,-273.16 1605.61,-256.52 1750.5,-239 1927.78,-217.56 1972.06,-211.49 2148.5,-184 2151.23,-183.57 2154.04,-183.12 2156.88,-182.66"/>
<polygon fill="#63b8ff" stroke="#63b8ff" points="1357.78,-276.64 1348.14,-281.05 1358.42,-283.61 1357.78,-276.64"/>
</g>
<!-- Node47 -->
<g id="node47" class="node">
<title>Node47</title>
<g id="a_node47"><a xlink:href="a00092.xhtml" target="_top" xlink:title=" ">
<polygon fill="white" stroke="#666666" points="2638,-239 2523,-239 2523,-220 2638,-220 2638,-239"/>
<text text-anchor="middle" x="2580.5" y="-227" font-family="Helvetica,sans-Serif" font-size="10.00">NoveltyFromBlock.cpp</text>
</a>
</g>
</g>
<!-- Node1&#45;&gt;Node47 -->
<g id="edge63" class="edge">
<title>Node1&#45;&gt;Node47</title>
<path fill="none" stroke="#63b8ff" d="M1358.21,-283.34C1504.43,-282.47 2059.59,-276.7 2514.5,-239 2517.26,-238.77 2520.09,-238.51 2522.94,-238.23"/>
<polygon fill="#63b8ff" stroke="#63b8ff" points="1357.98,-279.85 1348,-283.4 1358.02,-286.85 1357.98,-279.85"/>
</g>
<!-- Node48 -->
<g id="node48" class="node">
<title>Node48</title>
<g id="a_node48"><a xlink:href="a00086.xhtml" target="_top" xlink:title=" ">
<polygon fill="white" stroke="#666666" points="2724.5,-239 2656.5,-239 2656.5,-220 2724.5,-220 2724.5,-239"/>
<text text-anchor="middle" x="2690.5" y="-227" font-family="Helvetica,sans-Serif" font-size="10.00">ToolCcf.cpp</text>
</a>
</g>
</g>
<!-- Node1&#45;&gt;Node48 -->
<g id="edge67" class="edge">
<title>Node1&#45;&gt;Node48</title>
<path fill="none" stroke="#63b8ff" d="M1358.17,-283.07C1544.47,-280.77 2387.53,-268.86 2647.5,-239 2650.37,-238.67 2653.34,-238.25 2656.31,-237.78"/>
<polygon fill="#63b8ff" stroke="#63b8ff" points="1358.02,-279.57 1348.07,-283.19 1358.11,-286.57 1358.02,-279.57"/>
</g>
<!-- Node49 -->
<g id="node49" class="node">
<title>Node49</title>
<g id="a_node49"><a xlink:href="a00140.xhtml" target="_top" xlink:title=" ">
<polygon fill="white" stroke="#666666" points="693,-239 614,-239 614,-220 693,-220 693,-239"/>
<text text-anchor="middle" x="653.5" y="-227" font-family="Helvetica,sans-Serif" font-size="10.00">ToolInstFreq.h</text>
</a>
</g>
</g>
<!-- Node1&#45;&gt;Node49 -->
<g id="edge71" class="edge">
<title>Node1&#45;&gt;Node49</title>
<path fill="none" stroke="#63b8ff" d="M1284.78,-281.91C1189.35,-277.56 925.75,-264.04 707.5,-239 702.88,-238.47 698.05,-237.83 693.26,-237.15"/>
<polygon fill="#63b8ff" stroke="#63b8ff" points="1284.65,-285.41 1294.79,-282.37 1284.96,-278.42 1284.65,-285.41"/>
</g>
<!-- Node6 -->
<g id="node6" class="node">
<title>Node6</title>
<g id="a_node6"><a xlink:href="a00176.xhtml" target="_top" xlink:title=" ">
<polygon fill="white" stroke="#666666" points="239,-184 132,-184 132,-165 239,-165 239,-184"/>
<text text-anchor="middle" x="185.5" y="-172" font-family="Helvetica,sans-Serif" font-size="10.00">ToolGmmClassifier.h</text>
</a>
</g>
</g>
<!-- Node5&#45;&gt;Node6 -->
<g id="edge5" class="edge">
<title>Node5&#45;&gt;Node6</title>
<path fill="none" stroke="#63b8ff" d="M303.57,-216.67C275.23,-206.79 235.48,-192.93 210.11,-184.08"/>
<polygon fill="#63b8ff" stroke="#63b8ff" points="302.48,-220 313.08,-219.98 304.79,-213.39 302.48,-220"/>
</g>
<!-- Node5&#45;&gt;Node19 -->
<g id="edge18" class="edge">
<title>Node5&#45;&gt;Node19</title>
<path fill="none" stroke="#63b8ff" d="M363.52,-215.37C382.8,-205.63 408.55,-192.64 425.32,-184.17"/>
<polygon fill="#63b8ff" stroke="#63b8ff" points="361.72,-212.35 354.37,-219.98 364.87,-218.6 361.72,-212.35"/>
</g>
<!-- Node20 -->
<g id="node20" class="node">
<title>Node20</title>
<g id="a_node20"><a xlink:href="a00149.xhtml" target="_top" xlink:title=" ">
<polygon fill="white" stroke="#666666" points="347.5,-184 257.5,-184 257.5,-165 347.5,-165 347.5,-184"/>
<text text-anchor="middle" x="302.5" y="-172" font-family="Helvetica,sans-Serif" font-size="10.00">ToolSimpleKnn.h</text>
</a>
</g>
</g>
<!-- Node5&#45;&gt;Node20 -->
<g id="edge19" class="edge">
<title>Node5&#45;&gt;Node20</title>
<path fill="none" stroke="#63b8ff" d="M326.2,-211.39C320.18,-202.27 313.03,-191.45 308.17,-184.09"/>
<polygon fill="#63b8ff" stroke="#63b8ff" points="323.29,-213.33 331.72,-219.75 329.13,-209.47 323.29,-213.33"/>
</g>
<!-- Node7 -->
<g id="node7" class="node">
<title>Node7</title>
<g id="a_node7"><a xlink:href="a00128.xhtml" target="_top" xlink:title=" ">
<polygon fill="white" stroke="#666666" points="636,-74 583,-74 583,-55 636,-55 636,-74"/>
<text text-anchor="middle" x="609.5" y="-62" font-family="Helvetica,sans-Serif" font-size="10.00">AcaAll.h</text>
</a>
</g>
</g>
<!-- Node6&#45;&gt;Node7 -->
<g id="edge6" class="edge">
<title>Node6&#45;&gt;Node7</title>
<path fill="none" stroke="#63b8ff" d="M170.21,-156.83C159.31,-142.9 148.51,-123.23 160.5,-110 188.96,-78.58 490.41,-68.48 582.76,-66.11"/>
<polygon fill="#63b8ff" stroke="#63b8ff" points="167.69,-159.27 176.81,-164.66 173.04,-154.76 167.69,-159.27"/>
</g>
<!-- Node6&#45;&gt;Node18 -->
<g id="edge17" class="edge">
<title>Node6&#45;&gt;Node18</title>
<path fill="none" stroke="#63b8ff" d="M198.92,-156.96C206.41,-147.72 215.44,-136.6 221.53,-129.09"/>
<polygon fill="#63b8ff" stroke="#63b8ff" points="196.18,-154.78 192.6,-164.75 201.62,-159.19 196.18,-154.78"/>
</g>
<!-- Node8 -->
<g id="node8" class="node">
<title>Node8</title>
<g id="a_node8"><a xlink:href="a00053.xhtml" target="_top" xlink:title=" ">
<polygon fill="white" stroke="#666666" points="88,-19 25,-19 25,0 88,0 88,-19"/>
<text text-anchor="middle" x="56.5" y="-7" font-family="Helvetica,sans-Serif" font-size="10.00">AcaAll.cpp</text>
</a>
</g>
</g>
<!-- Node7&#45;&gt;Node8 -->
<g id="edge7" class="edge">
<title>Node7&#45;&gt;Node8</title>
<path fill="none" stroke="#63b8ff" d="M572.83,-61.87C488.4,-57.77 273.93,-45.45 96.5,-19 93.83,-18.6 91.07,-18.14 88.31,-17.63"/>
<polygon fill="#63b8ff" stroke="#63b8ff" points="572.78,-65.37 582.93,-62.35 573.11,-58.38 572.78,-65.37"/>
</g>
<!-- Node9 -->
<g id="node9" class="node">
<title>Node9</title>
<g id="a_node9"><a xlink:href="a00011.xhtml" target="_top" xlink:title=" ">
<polygon fill="white" stroke="#666666" points="223,-19 106,-19 106,0 223,0 223,-19"/>
<text text-anchor="middle" x="164.5" y="-7" font-family="Helvetica,sans-Serif" font-size="10.00">ComputeBeatHisto.cpp</text>
</a>
</g>
</g>
<!-- Node7&#45;&gt;Node9 -->
<g id="edge8" class="edge">
<title>Node7&#45;&gt;Node9</title>
<path fill="none" stroke="#63b8ff" d="M572.88,-59.26C505.49,-51.44 357.33,-34.17 232.5,-19 229.43,-18.63 226.28,-18.24 223.1,-17.85"/>
<polygon fill="#63b8ff" stroke="#63b8ff" points="572.65,-62.76 582.98,-60.43 573.45,-55.8 572.65,-62.76"/>
</g>
<!-- Node10 -->
<g id="node10" class="node">
<title>Node10</title>
<g id="a_node10"><a xlink:href="a00005.xhtml" target="_top" xlink:title=" ">
<polygon fill="white" stroke="#666666" points="345.5,-19 241.5,-19 241.5,0 345.5,0 345.5,-19"/>
<text text-anchor="middle" x="293.5" y="-7" font-family="Helvetica,sans-Serif" font-size="10.00">ComputeChords.cpp</text>
</a>
</g>
</g>
<!-- Node7&#45;&gt;Node10 -->
<g id="edge9" class="edge">
<title>Node7&#45;&gt;Node10</title>
<path fill="none" stroke="#63b8ff" d="M572.94,-57.37C516.59,-47.92 408.36,-29.76 344.39,-19.04"/>
<polygon fill="#63b8ff" stroke="#63b8ff" points="572.39,-60.82 582.83,-59.03 573.55,-53.92 572.39,-60.82"/>
</g>
<!-- Node11 -->
<g id="node11" class="node">
<title>Node11</title>
<g id="a_node11"><a xlink:href="a00002.xhtml" target="_top" xlink:title=" ">
<polygon fill="white" stroke="#666666" points="471,-19 364,-19 364,0 471,0 471,-19"/>
<text text-anchor="middle" x="417.5" y="-7" font-family="Helvetica,sans-Serif" font-size="10.00">ComputeFeature.cpp</text>
</a>
</g>
</g>
<!-- Node7&#45;&gt;Node11 -->
<g id="edge10" class="edge">
<title>Node7&#45;&gt;Node11</title>
<path fill="none" stroke="#63b8ff" d="M573.16,-53.47C537.1,-43.52 482.45,-28.43 448.41,-19.03"/>
<polygon fill="#63b8ff" stroke="#63b8ff" points="572.23,-56.84 582.8,-56.13 574.1,-50.1 572.23,-56.84"/>
</g>
<!-- Node12 -->
<g id="node12" class="node">
<title>Node12</title>
<g id="a_node12"><a xlink:href="a00116.xhtml" target="_top" xlink:title=" ">
<polygon fill="white" stroke="#666666" points="608,-19 489,-19 489,0 608,0 608,-19"/>
<text text-anchor="middle" x="548.5" y="-7" font-family="Helvetica,sans-Serif" font-size="10.00">ComputeFingerprint.cpp</text>
</a>
</g>
</g>
<!-- Node7&#45;&gt;Node12 -->
<g id="edge11" class="edge">
<title>Node7&#45;&gt;Node12</title>
<path fill="none" stroke="#63b8ff" d="M592.03,-48.32C581.16,-38.87 567.56,-27.06 558.48,-19.17"/>
<polygon fill="#63b8ff" stroke="#63b8ff" points="589.85,-51.07 599.7,-54.98 594.45,-45.78 589.85,-51.07"/>
</g>
<!-- Node13 -->
<g id="node13" class="node">
<title>Node13</title>
<g id="a_node13"><a xlink:href="a00122.xhtml" target="_top" xlink:title=" ">
<polygon fill="white" stroke="#666666" points="716.5,-19 626.5,-19 626.5,0 716.5,0 716.5,-19"/>
<text text-anchor="middle" x="671.5" y="-7" font-family="Helvetica,sans-Serif" font-size="10.00">ComputeKey.cpp</text>
</a>
</g>
</g>
<!-- Node7&#45;&gt;Node13 -->
<g id="edge12" class="edge">
<title>Node7&#45;&gt;Node13</title>
<path fill="none" stroke="#63b8ff" d="M627.25,-48.32C638.31,-38.87 652.13,-27.06 661.36,-19.17"/>
<polygon fill="#63b8ff" stroke="#63b8ff" points="624.79,-45.83 619.46,-54.98 629.34,-51.15 624.79,-45.83"/>
</g>
<!-- Node14 -->
<g id="node14" class="node">
<title>Node14</title>
<g id="a_node14"><a xlink:href="a00119.xhtml" target="_top" xlink:title=" ">
<polygon fill="white" stroke="#666666" points="880,-19 735,-19 735,0 880,0 880,-19"/>
<text text-anchor="middle" x="807.5" y="-7" font-family="Helvetica,sans-Serif" font-size="10.00">ComputeMelSpectrogram.cpp</text>
</a>
</g>
</g>
<!-- Node7&#45;&gt;Node14 -->
<g id="edge13" class="edge">
<title>Node7&#45;&gt;Node14</title>
<path fill="none" stroke="#63b8ff" d="M646.13,-53.69C683.32,-43.74 740.31,-28.49 775.67,-19.02"/>
<polygon fill="#63b8ff" stroke="#63b8ff" points="644.96,-50.39 636.2,-56.35 646.77,-57.15 644.96,-50.39"/>
</g>
<!-- Node15 -->
<g id="node15" class="node">
<title>Node15</title>
<g id="a_node15"><a xlink:href="a00023.xhtml" target="_top" xlink:title=" ">
<polygon fill="white" stroke="#666666" points="1042.5,-19 898.5,-19 898.5,0 1042.5,0 1042.5,-19"/>
<text text-anchor="middle" x="970.5" y="-7" font-family="Helvetica,sans-Serif" font-size="10.00">ComputeNoveltyFunction.cpp</text>
</a>
</g>
</g>
<!-- Node7&#45;&gt;Node15 -->
<g id="edge14" class="edge">
<title>Node7&#45;&gt;Node15</title>
<path fill="none" stroke="#63b8ff" d="M646.26,-58.1C709.04,-48.89 837.4,-30.04 912.42,-19.03"/>
<polygon fill="#63b8ff" stroke="#63b8ff" points="645.43,-54.69 636.05,-59.6 646.45,-61.61 645.43,-54.69"/>
</g>
<!-- Node16 -->
<g id="node16" class="node">
<title>Node16</title>
<g id="a_node16"><a xlink:href="a00125.xhtml" target="_top" xlink:title=" ">
<polygon fill="white" stroke="#666666" points="1156.5,-19 1060.5,-19 1060.5,0 1156.5,0 1156.5,-19"/>
<text text-anchor="middle" x="1108.5" y="-7" font-family="Helvetica,sans-Serif" font-size="10.00">ComputePitch.cpp</text>
</a>
</g>
</g>
<!-- Node7&#45;&gt;Node16 -->
<g id="edge15" class="edge">
<title>Node7&#45;&gt;Node16</title>
<path fill="none" stroke="#63b8ff" d="M646.2,-60.4C722.04,-53.87 901.48,-37.73 1051.5,-19 1054.38,-18.64 1057.34,-18.25 1060.32,-17.85"/>
<polygon fill="#63b8ff" stroke="#63b8ff" points="645.87,-56.92 636.21,-61.26 646.47,-63.89 645.87,-56.92"/>
</g>
<!-- Node17 -->
<g id="node17" class="node">
<title>Node17</title>
<g id="a_node17"><a xlink:href="a00008.xhtml" target="_top" xlink:title=" ">
<polygon fill="white" stroke="#666666" points="1304,-19 1175,-19 1175,0 1304,0 1304,-19"/>
<text text-anchor="middle" x="1239.5" y="-7" font-family="Helvetica,sans-Serif" font-size="10.00">ComputeSpectrogram.cpp</text>
</a>
</g>
</g>
<!-- Node7&#45;&gt;Node17 -->
<g id="edge16" class="edge">
<title>Node7&#45;&gt;Node17</title>
<path fill="none" stroke="#63b8ff" d="M646.29,-61C735.44,-54.83 970.08,-38.04 1165.5,-19 1168.59,-18.7 1171.75,-18.38 1174.94,-18.05"/>
<polygon fill="#63b8ff" stroke="#63b8ff" points="645.88,-57.52 636.15,-61.69 646.37,-64.5 645.88,-57.52"/>
</g>
<!-- Node20&#45;&gt;Node7 -->
<g id="edge20" class="edge">
<title>Node20&#45;&gt;Node7</title>
<path fill="none" stroke="#63b8ff" d="M306.89,-154.96C311.34,-140.39 319.74,-120.81 334.5,-110 373.81,-81.21 521.61,-70.17 582.76,-66.78"/>
<polygon fill="#63b8ff" stroke="#63b8ff" points="303.44,-154.33 304.21,-164.9 310.19,-156.15 303.44,-154.33"/>
</g>
<!-- Node20&#45;&gt;Node21 -->
<g id="edge21" class="edge">
<title>Node20&#45;&gt;Node21</title>
<path fill="none" stroke="#63b8ff" d="M327.53,-160.23C345.87,-150.51 370.24,-137.6 386.14,-129.17"/>
<polygon fill="#63b8ff" stroke="#63b8ff" points="325.76,-157.21 318.57,-164.98 329.04,-163.39 325.76,-157.21"/>
</g>
<!-- Node20&#45;&gt;Node22 -->
<g id="edge22" class="edge">
<title>Node20&#45;&gt;Node22</title>
<path fill="none" stroke="#63b8ff" d="M349,-162.69C391.72,-152.76 454.2,-138.24 493.58,-129.08"/>
<polygon fill="#63b8ff" stroke="#63b8ff" points="348.08,-159.31 339.13,-164.98 349.66,-166.13 348.08,-159.31"/>
</g>
<!-- Node25&#45;&gt;Node26 -->
<g id="edge26" class="edge">
<title>Node25&#45;&gt;Node26</title>
<path fill="none" stroke="#63b8ff" d="M1118.4,-165.68C1117.08,-165.44 1115.78,-165.21 1114.5,-165 954.07,-138.75 911.93,-148.22 750.5,-129 747.63,-128.66 744.69,-128.29 741.73,-127.92"/>
<polygon fill="#63b8ff" stroke="#63b8ff" points="1118,-169.17 1128.5,-167.74 1119.4,-162.31 1118,-169.17"/>
</g>
<!-- Node27 -->
<g id="node27" class="node">
<title>Node27</title>
<g id="a_node27"><a xlink:href="a00044.xhtml" target="_top" xlink:title=" ">
<polygon fill="white" stroke="#666666" points="1067,-129 960,-129 960,-110 1067,-110 1067,-129"/>
<text text-anchor="middle" x="1013.5" y="-117" font-family="Helvetica,sans-Serif" font-size="10.00">ToolGammatone.cpp</text>
</a>
</g>
</g>
<!-- Node25&#45;&gt;Node27 -->
<g id="edge27" class="edge">
<title>Node25&#45;&gt;Node27</title>
<path fill="none" stroke="#63b8ff" d="M1119.71,-161.29C1094.13,-151.47 1058.83,-137.91 1036.08,-129.17"/>
<polygon fill="#63b8ff" stroke="#63b8ff" points="1118.74,-164.67 1129.33,-164.98 1121.25,-158.13 1118.74,-164.67"/>
</g>
<!-- Node28 -->
<g id="node28" class="node">
<title>Node28</title>
<g id="a_node28"><a xlink:href="a00239.xhtml" target="_top" xlink:title=" ">
<polygon fill="white" stroke="#666666" points="845.5,-129 759.5,-129 759.5,-110 845.5,-110 845.5,-129"/>
<text text-anchor="middle" x="802.5" y="-117" font-family="Helvetica,sans-Serif" font-size="10.00">ToolResample.h</text>
</a>
</g>
</g>
<!-- Node25&#45;&gt;Node28 -->
<g id="edge28" class="edge">
<title>Node25&#45;&gt;Node28</title>
<path fill="none" stroke="#63b8ff" d="M1118.39,-165.74C1117.07,-165.48 1115.78,-165.23 1114.5,-165 999.76,-143.92 969.85,-146.41 854.5,-129 851.61,-128.56 848.62,-128.1 845.62,-127.63"/>
<polygon fill="#63b8ff" stroke="#63b8ff" points="1117.96,-169.23 1128.47,-167.88 1119.42,-162.38 1117.96,-169.23"/>
</g>
<!-- Node28&#45;&gt;Node7 -->
<g id="edge29" class="edge">
<title>Node28&#45;&gt;Node7</title>
<path fill="none" stroke="#63b8ff" d="M761.79,-107.32C723.91,-96.92 668.58,-81.72 636.08,-72.8"/>
<polygon fill="#63b8ff" stroke="#63b8ff" points="760.92,-110.71 771.49,-109.98 762.78,-103.96 760.92,-110.71"/>
</g>
<!-- Node28&#45;&gt;Node29 -->
<g id="edge30" class="edge">
<title>Node28&#45;&gt;Node29</title>
<path fill="none" stroke="#63b8ff" d="M855.57,-110C1105.09,-82.19 1391.32,-70.71 1504.7,-66.98"/>
<polygon fill="#63b8ff" stroke="#63b8ff" points="855.13,-106.53 845.58,-111.12 855.91,-113.48 855.13,-106.53"/>
</g>
<!-- Node31&#45;&gt;Node4 -->
<g id="edge34" class="edge">
<title>Node31&#45;&gt;Node4</title>
<path fill="none" stroke="#63b8ff" d="M1316.98,-225.75C1237.2,-219.46 1037.81,-203.08 871.5,-184 868.8,-183.69 866.04,-183.36 863.25,-183.02"/>
<polygon fill="#63b8ff" stroke="#63b8ff" points="1317.18,-229.28 1327.42,-226.57 1317.73,-222.3 1317.18,-229.28"/>
</g>
<!-- Node31&#45;&gt;Node18 -->
<g id="edge43" class="edge">
<title>Node31&#45;&gt;Node18</title>
<path fill="none" stroke="#63b8ff" d="M1317.05,-227.69C1257.85,-225.42 1135.75,-216.79 1038.5,-184 1022.1,-178.47 1021.13,-169.81 1004.5,-165 861.27,-123.56 483.27,-138.96 334.5,-129 319.12,-127.97 302.49,-126.71 287.07,-125.47"/>
<polygon fill="#63b8ff" stroke="#63b8ff" points="1317.24,-231.2 1327.36,-228.05 1317.48,-224.2 1317.24,-231.2"/>
</g>
<!-- Node31&#45;&gt;Node19 -->
<g id="edge44" class="edge">
<title>Node31&#45;&gt;Node19</title>
<path fill="none" stroke="#63b8ff" d="M1317.12,-226.44C1183.55,-218.66 707.9,-190.96 519.83,-180"/>
<polygon fill="#63b8ff" stroke="#63b8ff" points="1317.03,-229.94 1327.21,-227.03 1317.43,-222.95 1317.03,-229.94"/>
</g>
<!-- Node31&#45;&gt;Node21 -->
<g id="edge58" class="edge">
<title>Node31&#45;&gt;Node21</title>
<path fill="none" stroke="#63b8ff" d="M1316.87,-226.22C1263.5,-222.04 1160.13,-210.95 1076.5,-184 1058.53,-178.21 1056.73,-169.92 1038.5,-165 794.28,-99.12 722.34,-152.7 470.5,-129 467.66,-128.73 464.75,-128.44 461.81,-128.13"/>
<polygon fill="#63b8ff" stroke="#63b8ff" points="1316.93,-229.73 1327.16,-226.99 1317.45,-222.75 1316.93,-229.73"/>
</g>
<!-- Node31&#45;&gt;Node22 -->
<g id="edge61" class="edge">
<title>Node31&#45;&gt;Node22</title>
<path fill="none" stroke="#63b8ff" d="M1317.11,-224.29C1270.92,-218.22 1187.89,-205.33 1119.5,-184 1099.55,-177.78 1096.75,-170.13 1076.5,-165 882.86,-115.94 827.56,-145.63 628.5,-129 613.1,-127.71 596.34,-126.27 581.11,-124.95"/>
<polygon fill="#63b8ff" stroke="#63b8ff" points="1316.85,-227.79 1327.21,-225.59 1317.74,-220.84 1316.85,-227.79"/>
</g>
<!-- Node31&#45;&gt;Node23 -->
<g id="edge35" class="edge">
<title>Node31&#45;&gt;Node23</title>
<path fill="none" stroke="#63b8ff" d="M1316.94,-223.95C1245.34,-214.78 1083.25,-194.03 996.26,-182.89"/>
<polygon fill="#63b8ff" stroke="#63b8ff" points="1316.86,-227.47 1327.23,-225.26 1317.75,-220.52 1316.86,-227.47"/>
</g>
<!-- Node31&#45;&gt;Node25 -->
<g id="edge36" class="edge">
<title>Node31&#45;&gt;Node25</title>
<path fill="none" stroke="#63b8ff" d="M1317.33,-219.26C1283.15,-210.28 1229.75,-196.23 1183.5,-184 1180.61,-183.24 1177.57,-182.43 1174.57,-181.63"/>
<polygon fill="#63b8ff" stroke="#63b8ff" points="1316.74,-222.73 1327.3,-221.88 1318.52,-215.96 1316.74,-222.73"/>
</g>
<!-- Node31&#45;&gt;Node29 -->
<g id="edge41" class="edge">
<title>Node31&#45;&gt;Node29</title>
<path fill="none" stroke="#63b8ff" d="M1387.45,-221.21C1424.86,-213.15 1485.81,-199.27 1537.5,-184 1561.9,-176.79 1567.34,-172.96 1591.5,-165 1643.17,-147.97 1676.18,-172.76 1708.5,-129 1737.79,-89.34 1659.76,-74.34 1604.36,-68.75"/>
<polygon fill="#63b8ff" stroke="#63b8ff" points="1386.6,-217.81 1377.55,-223.33 1388.06,-224.66 1386.6,-217.81"/>
</g>
<!-- Node32 -->
<g id="node32" class="node">
<title>Node32</title>
<g id="a_node32"><a xlink:href="a00032.xhtml" target="_top" xlink:title=" ">
<polygon fill="white" stroke="#666666" points="1469.5,-129 1409.5,-129 1409.5,-110 1469.5,-110 1469.5,-129"/>
<text text-anchor="middle" x="1439.5" y="-117" font-family="Helvetica,sans-Serif" font-size="10.00">Chord.cpp</text>
</a>
</g>
</g>
<!-- Node31&#45;&gt;Node32 -->
<g id="edge33" class="edge">
<title>Node31&#45;&gt;Node32</title>
<path fill="none" stroke="#63b8ff" d="M1334.44,-212.89C1321.37,-199.66 1307.73,-180.43 1318.5,-165 1329.16,-149.72 1377.14,-135.49 1409.38,-127.41"/>
<polygon fill="#63b8ff" stroke="#63b8ff" points="1332.21,-215.6 1341.88,-219.91 1337.01,-210.51 1332.21,-215.6"/>
</g>
<!-- Node33 -->
<g id="node33" class="node">
<title>Node33</title>
<g id="a_node33"><a xlink:href="a00059.xhtml" target="_top" xlink:title=" ">
<polygon fill="white" stroke="#666666" points="1378,-184 1327,-184 1327,-165 1378,-165 1378,-184"/>
<text text-anchor="middle" x="1352.5" y="-172" font-family="Helvetica,sans-Serif" font-size="10.00">Key.cpp</text>
</a>
</g>
</g>
<!-- Node31&#45;&gt;Node33 -->
<g id="edge37" class="edge">
<title>Node31&#45;&gt;Node33</title>
<path fill="none" stroke="#63b8ff" d="M1352.5,-209.66C1352.5,-200.93 1352.5,-190.99 1352.5,-184.09"/>
<polygon fill="#63b8ff" stroke="#63b8ff" points="1349,-209.75 1352.5,-219.75 1356,-209.75 1349,-209.75"/>
</g>
<!-- Node34 -->
<g id="node34" class="node">
<title>Node34</title>
<g id="a_node34"><a xlink:href="a00038.xhtml" target="_top" xlink:title=" ">
<polygon fill="white" stroke="#666666" points="1577.5,-129 1487.5,-129 1487.5,-110 1577.5,-110 1577.5,-129"/>
<text text-anchor="middle" x="1532.5" y="-117" font-family="Helvetica,sans-Serif" font-size="10.00">Spectrogram.cpp</text>
</a>
</g>
</g>
<!-- Node31&#45;&gt;Node34 -->
<g id="edge38" class="edge">
<title>Node31&#45;&gt;Node34</title>
<path fill="none" stroke="#63b8ff" d="M1387.67,-221.13C1414.04,-214.44 1450.13,-202.7 1477.5,-184 1499.66,-168.86 1518.38,-142.68 1527.15,-129.15"/>
<polygon fill="#63b8ff" stroke="#63b8ff" points="1386.63,-217.78 1377.73,-223.54 1388.27,-224.59 1386.63,-217.78"/>
</g>
<!-- Node31&#45;&gt;Node35 -->
<g id="edge39" class="edge">
<title>Node31&#45;&gt;Node35</title>
<path fill="none" stroke="#63b8ff" d="M1387.53,-222.25C1440.67,-212.77 1541.79,-194.72 1601.67,-184.04"/>
<polygon fill="#63b8ff" stroke="#63b8ff" points="1386.8,-218.82 1377.57,-224.03 1388.03,-225.72 1386.8,-218.82"/>
</g>
<!-- Node31&#45;&gt;Node36 -->
<g id="edge40" class="edge">
<title>Node31&#45;&gt;Node36</title>
<path fill="none" stroke="#63b8ff" d="M1387.31,-219.38C1417.75,-211.1 1463,-198.07 1501.5,-184 1548.75,-166.74 1602.61,-141.93 1629.8,-129.02"/>
<polygon fill="#63b8ff" stroke="#63b8ff" points="1386.33,-216.02 1377.58,-222 1388.15,-222.78 1386.33,-216.02"/>
</g>
<!-- Node31&#45;&gt;Node37 -->
<g id="edge42" class="edge">
<title>Node31&#45;&gt;Node37</title>
<path fill="none" stroke="#63b8ff" d="M1387.84,-224.67C1451.77,-217.61 1590.8,-201.64 1707.5,-184 1710.51,-183.54 1713.63,-183.05 1716.76,-182.53"/>
<polygon fill="#63b8ff" stroke="#63b8ff" points="1387.08,-221.23 1377.52,-225.8 1387.85,-228.19 1387.08,-221.23"/>
</g>
<!-- Node38 -->
<g id="node38" class="node">
<title>Node38</title>
<g id="a_node38"><a xlink:href="a00068.xhtml" target="_top" xlink:title=" ">
<polygon fill="white" stroke="#666666" points="1468.5,-184 1396.5,-184 1396.5,-165 1468.5,-165 1468.5,-184"/>
<text text-anchor="middle" x="1432.5" y="-172" font-family="Helvetica,sans-Serif" font-size="10.00">ToolNmf.cpp</text>
</a>
</g>
</g>
<!-- Node31&#45;&gt;Node38 -->
<g id="edge45" class="edge">
<title>Node31&#45;&gt;Node38</title>
<path fill="none" stroke="#63b8ff" d="M1373.75,-214.42C1388.26,-204.81 1407.04,-192.37 1419.41,-184.17"/>
<polygon fill="#63b8ff" stroke="#63b8ff" points="1371.76,-211.54 1365.35,-219.98 1375.62,-217.38 1371.76,-211.54"/>
</g>
<!-- Node31&#45;&gt;Node39 -->
<g id="edge46" class="edge">
<title>Node31&#45;&gt;Node39</title>
<path fill="none" stroke="#63b8ff" d="M1387.52,-226.15C1463.52,-220.82 1649.2,-206.47 1803.5,-184 1806.12,-183.62 1808.82,-183.19 1811.53,-182.73"/>
<polygon fill="#63b8ff" stroke="#63b8ff" points="1387.27,-222.66 1377.53,-226.85 1387.75,-229.65 1387.27,-222.66"/>
</g>
<!-- Node31&#45;&gt;Node40 -->
<g id="edge47" class="edge">
<title>Node31&#45;&gt;Node40</title>
<path fill="none" stroke="#63b8ff" d="M1323.73,-215.9C1301.38,-206.11 1270.98,-192.79 1251.29,-184.17"/>
<polygon fill="#63b8ff" stroke="#63b8ff" points="1322.5,-219.18 1333.06,-219.98 1325.3,-212.77 1322.5,-219.18"/>
</g>
<!-- Node31&#45;&gt;Node44 -->
<g id="edge59" class="edge">
<title>Node31&#45;&gt;Node44</title>
<path fill="none" stroke="#63b8ff" d="M1387.61,-226.35C1473.77,-220.91 1702.5,-205.5 1892.5,-184 1895.28,-183.69 1898.12,-183.34 1901,-182.98"/>
<polygon fill="#63b8ff" stroke="#63b8ff" points="1387.35,-222.86 1377.58,-226.98 1387.78,-229.85 1387.35,-222.86"/>
</g>
<!-- Node31&#45;&gt;Node45 -->
<g id="edge60" class="edge">
<title>Node31&#45;&gt;Node45</title>
<path fill="none" stroke="#63b8ff" d="M1387.7,-226.83C1486.31,-222 1773.62,-206.88 2011.5,-184 2014.22,-183.74 2017.01,-183.45 2019.82,-183.16"/>
<polygon fill="#63b8ff" stroke="#63b8ff" points="1387.5,-223.34 1377.68,-227.32 1387.84,-230.33 1387.5,-223.34"/>
</g>
<!-- Node31&#45;&gt;Node46 -->
<g id="edge62" class="edge">
<title>Node31&#45;&gt;Node46</title>
<path fill="none" stroke="#63b8ff" d="M1387.72,-227.99C1499.44,-226.04 1855.75,-217.46 2148.5,-184 2151.25,-183.69 2154.07,-183.32 2156.91,-182.91"/>
<polygon fill="#63b8ff" stroke="#63b8ff" points="1387.62,-224.49 1377.68,-228.15 1387.74,-231.49 1387.62,-224.49"/>
</g>
<!-- Node40&#45;&gt;Node3 -->
<g id="edge49" class="edge">
<title>Node40&#45;&gt;Node3</title>
<path fill="none" stroke="#63b8ff" d="M1182.55,-164.87C1078.91,-147.77 1051.35,-145.41 951.5,-129 948.26,-128.47 944.91,-127.91 941.54,-127.34"/>
<polygon fill="#63b8ff" stroke="#63b8ff" points="1182.04,-168.34 1192.48,-166.52 1183.19,-161.43 1182.04,-168.34"/>
</g>
<!-- Node40&#45;&gt;Node7 -->
<g id="edge48" class="edge">
<title>Node40&#45;&gt;Node7</title>
<path fill="none" stroke="#63b8ff" d="M1197.47,-161.58C1173.93,-153.08 1142.01,-141.07 1114.5,-129 1097.21,-121.41 1094.65,-115.21 1076.5,-110 992.64,-85.95 722.05,-70.99 636.02,-66.75"/>
<polygon fill="#63b8ff" stroke="#63b8ff" points="1196.42,-164.92 1207.01,-165 1198.78,-158.33 1196.42,-164.92"/>
</g>
<!-- Node40&#45;&gt;Node27 -->
<g id="edge57" class="edge">
<title>Node40&#45;&gt;Node27</title>
<path fill="none" stroke="#63b8ff" d="M1186.52,-162.56C1145.69,-152.64 1086.3,-138.2 1048.8,-129.08"/>
<polygon fill="#63b8ff" stroke="#63b8ff" points="1185.93,-166.02 1196.47,-164.98 1187.58,-159.22 1185.93,-166.02"/>
</g>
<!-- Node40&#45;&gt;Node29 -->
<g id="edge56" class="edge">
<title>Node40&#45;&gt;Node29</title>
<path fill="none" stroke="#63b8ff" d="M1269.91,-161.97C1296.29,-153.69 1331.94,-141.76 1362.5,-129 1379.92,-121.72 1382.91,-116.87 1400.5,-110 1439.77,-94.66 1486.5,-81.89 1518.1,-74.02"/>
<polygon fill="#63b8ff" stroke="#63b8ff" points="1268.79,-158.65 1260.28,-164.96 1270.87,-165.34 1268.79,-158.65"/>
</g>
<!-- Node40&#45;&gt;Node32 -->
<g id="edge50" class="edge">
<title>Node40&#45;&gt;Node32</title>
<path fill="none" stroke="#63b8ff" d="M1274.71,-162.49C1314.92,-152.25 1373.79,-137.24 1409.21,-128.22"/>
<polygon fill="#63b8ff" stroke="#63b8ff" points="1273.74,-159.12 1264.92,-164.98 1275.47,-165.91 1273.74,-159.12"/>
</g>
<!-- Node40&#45;&gt;Node34 -->
<g id="edge54" class="edge">
<title>Node40&#45;&gt;Node34</title>
<path fill="none" stroke="#63b8ff" d="M1280.45,-164.88C1337.73,-154.79 1431.81,-138.23 1487.39,-128.44"/>
<polygon fill="#63b8ff" stroke="#63b8ff" points="1279.78,-161.44 1270.54,-166.63 1281,-168.34 1279.78,-161.44"/>
</g>
<!-- Node40&#45;&gt;Node36 -->
<g id="edge55" class="edge">
<title>Node40&#45;&gt;Node36</title>
<path fill="none" stroke="#63b8ff" d="M1280.74,-167.55C1349.3,-159.2 1477.41,-143.44 1586.5,-129 1589.57,-128.59 1592.73,-128.17 1595.92,-127.74"/>
<polygon fill="#63b8ff" stroke="#63b8ff" points="1280.16,-164.09 1270.66,-168.77 1281.01,-171.04 1280.16,-164.09"/>
</g>
<!-- Node41 -->
<g id="node41" class="node">
<title>Node41</title>
<g id="a_node41"><a xlink:href="a00047.xhtml" target="_top" xlink:title=" ">
<polygon fill="white" stroke="#666666" points="1191.5,-129 1123.5,-129 1123.5,-110 1191.5,-110 1191.5,-129"/>
<text text-anchor="middle" x="1157.5" y="-117" font-family="Helvetica,sans-Serif" font-size="10.00">Feature.cpp</text>
</a>
</g>
</g>
<!-- Node40&#45;&gt;Node41 -->
<g id="edge51" class="edge">
<title>Node40&#45;&gt;Node41</title>
<path fill="none" stroke="#63b8ff" d="M1211.47,-159.15C1198.09,-149.57 1180.94,-137.29 1169.61,-129.17"/>
<polygon fill="#63b8ff" stroke="#63b8ff" points="1209.44,-162.01 1219.61,-164.98 1213.52,-156.32 1209.44,-162.01"/>
</g>
<!-- Node42 -->
<g id="node42" class="node">
<title>Node42</title>
<g id="a_node42"><a xlink:href="a00113.xhtml" target="_top" xlink:title=" ">
<polygon fill="white" stroke="#666666" points="1277.5,-129 1209.5,-129 1209.5,-110 1277.5,-110 1277.5,-129"/>
<text text-anchor="middle" x="1243.5" y="-117" font-family="Helvetica,sans-Serif" font-size="10.00">Novelty.cpp</text>
</a>
</g>
</g>
<!-- Node40&#45;&gt;Node42 -->
<g id="edge52" class="edge">
<title>Node40&#45;&gt;Node42</title>
<path fill="none" stroke="#63b8ff" d="M1235.7,-154.95C1237.69,-146.15 1239.98,-136.06 1241.56,-129.09"/>
<polygon fill="#63b8ff" stroke="#63b8ff" points="1232.28,-154.22 1233.48,-164.75 1239.1,-155.77 1232.28,-154.22"/>
</g>
<!-- Node43 -->
<g id="node43" class="node">
<title>Node43</title>
<g id="a_node43"><a xlink:href="a00065.xhtml" target="_top" xlink:title=" ">
<polygon fill="white" stroke="#666666" points="1353,-129 1296,-129 1296,-110 1353,-110 1353,-129"/>
<text text-anchor="middle" x="1324.5" y="-117" font-family="Helvetica,sans-Serif" font-size="10.00">Pitch.cpp</text>
</a>
</g>
</g>
<!-- Node40&#45;&gt;Node43 -->
<g id="edge53" class="edge">
<title>Node40&#45;&gt;Node43</title>
<path fill="none" stroke="#63b8ff" d="M1255.25,-159.97C1272.25,-150.28 1294.63,-137.52 1309.29,-129.17"/>
<polygon fill="#63b8ff" stroke="#63b8ff" points="1253.4,-156.99 1246.44,-164.98 1256.86,-163.07 1253.4,-156.99"/>
</g>
<!-- Node49&#45;&gt;Node7 -->
<g id="edge72" class="edge">
<title>Node49&#45;&gt;Node7</title>
<path fill="none" stroke="#63b8ff" d="M648.46,-209.83C638.97,-174.67 618.79,-99.9 611.88,-74.31"/>
<polygon fill="#63b8ff" stroke="#63b8ff" points="645.15,-210.99 651.13,-219.74 651.91,-209.17 645.15,-210.99"/>
</g>
</g>
</svg>
