<?xml version="1.0" encoding="UTF-8" standalone="no"?>
<!DOCTYPE svg PUBLIC "-//W3C//DTD SVG 1.1//EN"
 "http://www.w3.org/Graphics/SVG/1.1/DTD/svg11.dtd">
<!-- Generated by graphviz version 6.0.1 (20220911.1526)
 -->
<!-- Title: FeatureFromBlock.h Pages: 1 -->
<svg width="253pt" height="137pt"
 viewBox="0.00 0.00 253.00 137.00" xmlns="http://www.w3.org/2000/svg" xmlns:xlink="http://www.w3.org/1999/xlink">
<g id="graph0" class="graph" transform="scale(1 1) rotate(0) translate(4 133)">
<title>FeatureFromBlock.h</title>
<!-- Node1 -->
<g id="node1" class="node">
<title>Node1</title>
<g id="a_node1"><a xlink:title=" ">
<polygon fill="#999999" stroke="#666666" points="172.5,-129 68.5,-129 68.5,-110 172.5,-110 172.5,-129"/>
<text text-anchor="middle" x="120.5" y="-117" font-family="Helvetica,sans-Serif" font-size="10.00">FeatureFromBlock.h</text>
</a>
</g>
</g>
<!-- Node2 -->
<g id="node2" class="node">
<title>Node2</title>
<g id="a_node2"><a xlink:title=" ">
<polygon fill="#e0e0e0" stroke="#999999" points="35,-74 0,-74 0,-55 35,-55 35,-74"/>
<text text-anchor="middle" x="17.5" y="-62" font-family="Helvetica,sans-Serif" font-size="10.00">map</text>
</a>
</g>
</g>
<!-- Node1&#45;&gt;Node2 -->
<g id="edge1" class="edge">
<title>Node1&#45;&gt;Node2</title>
<path fill="none" stroke="#63b8ff" d="M103.95,-109.98C87.61,-101.57 62.37,-88.59 43.37,-78.81"/>
<polygon fill="#63b8ff" stroke="#63b8ff" points="44.84,-75.63 34.35,-74.17 41.64,-81.86 44.84,-75.63"/>
</g>
<!-- Node3 -->
<g id="node3" class="node">
<title>Node3</title>
<g id="a_node3"><a xlink:title=" ">
<polygon fill="#e0e0e0" stroke="#999999" points="112,-74 53,-74 53,-55 112,-55 112,-74"/>
<text text-anchor="middle" x="82.5" y="-62" font-family="Helvetica,sans-Serif" font-size="10.00">functional</text>
</a>
</g>
</g>
<!-- Node1&#45;&gt;Node3 -->
<g id="edge2" class="edge">
<title>Node1&#45;&gt;Node3</title>
<path fill="none" stroke="#63b8ff" d="M114.23,-109.75C108.91,-102.34 101.14,-91.5 94.62,-82.41"/>
<polygon fill="#63b8ff" stroke="#63b8ff" points="97.33,-80.18 88.66,-74.09 91.64,-84.26 97.33,-80.18"/>
</g>
<!-- Node4 -->
<g id="node4" class="node">
<title>Node4</title>
<g id="a_node4"><a xlink:href="a00203.xhtml" target="_top" xlink:title=" ">
<polygon fill="white" stroke="#666666" points="187,-74 130,-74 130,-55 187,-55 187,-74"/>
<text text-anchor="middle" x="158.5" y="-62" font-family="Helvetica,sans-Serif" font-size="10.00">Feature.h</text>
</a>
</g>
</g>
<!-- Node1&#45;&gt;Node4 -->
<g id="edge3" class="edge">
<title>Node1&#45;&gt;Node4</title>
<path fill="none" stroke="#63b8ff" d="M126.77,-109.75C132.09,-102.34 139.86,-91.5 146.38,-82.41"/>
<polygon fill="#63b8ff" stroke="#63b8ff" points="149.36,-84.26 152.34,-74.09 143.67,-80.18 149.36,-84.26"/>
</g>
<!-- Node6 -->
<g id="node6" class="node">
<title>Node6</title>
<g id="a_node6"><a xlink:href="a00158.xhtml" target="_top" xlink:title=" ">
<polygon fill="white" stroke="#666666" points="245,-19 186,-19 186,0 245,0 245,-19"/>
<text text-anchor="middle" x="215.5" y="-7" font-family="Helvetica,sans-Serif" font-size="10.00">ErrorDef.h</text>
</a>
</g>
</g>
<!-- Node1&#45;&gt;Node6 -->
<g id="edge6" class="edge">
<title>Node1&#45;&gt;Node6</title>
<path fill="none" stroke="#63b8ff" d="M144.67,-109.89C161.48,-102.73 183.18,-90.95 196.5,-74 206.61,-61.13 211.35,-42.97 213.57,-29.36"/>
<polygon fill="#63b8ff" stroke="#63b8ff" points="217.07,-29.59 214.9,-19.22 210.13,-28.68 217.07,-29.59"/>
</g>
<!-- Node5 -->
<g id="node5" class="node">
<title>Node5</title>
<g id="a_node5"><a xlink:title=" ">
<polygon fill="#e0e0e0" stroke="#999999" points="168,-19 127,-19 127,0 168,0 168,-19"/>
<text text-anchor="middle" x="147.5" y="-7" font-family="Helvetica,sans-Serif" font-size="10.00">string</text>
</a>
</g>
</g>
<!-- Node4&#45;&gt;Node5 -->
<g id="edge4" class="edge">
<title>Node4&#45;&gt;Node5</title>
<path fill="none" stroke="#63b8ff" d="M156.68,-54.75C155.24,-47.8 153.18,-37.85 151.37,-29.13"/>
<polygon fill="#63b8ff" stroke="#63b8ff" points="154.74,-28.17 149.28,-19.09 147.89,-29.59 154.74,-28.17"/>
</g>
<!-- Node4&#45;&gt;Node6 -->
<g id="edge5" class="edge">
<title>Node4&#45;&gt;Node6</title>
<path fill="none" stroke="#63b8ff" d="M167.66,-54.98C176,-47.23 188.53,-35.58 198.68,-26.14"/>
<polygon fill="#63b8ff" stroke="#63b8ff" points="201.24,-28.54 206.18,-19.17 196.47,-23.42 201.24,-28.54"/>
</g>
</g>
</svg>
