<?xml version="1.0" encoding="UTF-8" standalone="no"?>
<!DOCTYPE svg PUBLIC "-//W3C//DTD SVG 1.1//EN"
 "http://www.w3.org/Graphics/SVG/1.1/DTD/svg11.dtd">
<!-- Generated by graphviz version 4.0.0 (20220602.1335)
 -->
<!-- Title: Synthesis.h Pages: 1 -->
<!--zoomable 364 -->
<svg id="main" version="1.1" xmlns="http://www.w3.org/2000/svg" xmlns:xlink="http://www.w3.org/1999/xlink" xml:space="preserve" onload="init(evt)">
<style type="text/css"><![CDATA[
.edge:hover path { stroke: red; }
.edge:hover polygon { stroke: red; fill: red; }
]]></style>
<script type="text/javascript"><![CDATA[
var edges = document.getElementsByTagName('g');
if (edges && edges.length) {
  for (var i=0;i<edges.length;i++) {
    if (edges[i].id.substr(0,4)=='edge') {
      edges[i].setAttribute('class','edge');
    }
  }
}
]]></script>
        <defs>
                <circle id="rim" cx="0" cy="0" r="7"/>
                <circle id="rim2" cx="0" cy="0" r="3.5"/>
                <g id="zoomPlus">
                        <use xlink:href="#rim" fill="#404040">
                                <set attributeName="fill" to="#808080" begin="zoomplus.mouseover" end="zoomplus.mouseout"/>
                        </use>
                        <path d="M-4,0h8M0,-4v8" fill="none" stroke="white" stroke-width="1.5" pointer-events="none"/>
                </g>
                <g id="zoomMin">
                        <use xlink:href="#rim" fill="#404040">
                                <set attributeName="fill" to="#808080" begin="zoomminus.mouseover" end="zoomminus.mouseout"/>
                        </use>
                        <path d="M-4,0h8" fill="none" stroke="white" stroke-width="1.5" pointer-events="none"/>
                </g>
                <g id="dirArrow">
                        <path fill="none" stroke="white" stroke-width="1.5" d="M0,-3.0v7 M-2.5,-0.5L0,-3.0L2.5,-0.5"/>
                </g>
               <g id="resetDef">
                       <use xlink:href="#rim2" fill="#404040">
                               <set attributeName="fill" to="#808080" begin="reset.mouseover" end="reset.mouseout"/>
                       </use>
               </g>
        </defs>

<script type="text/javascript">
var viewWidth = 2032;
var viewHeight = 364;
var sectionId = 'dynsection-1';
</script>
<script xlink:href="svgpan.js"/>
<svg id="graph" class="graph">
<g id="viewport">
<title>Synthesis.h</title>
<polygon fill="white" stroke="transparent" points="-4,4 -4,-360 2028,-360 2028,4 -4,4"/>
<!-- Node1 -->
<g id="node1" class="node">
<title>Node1</title>
<g id="a_node1"><a xlink:title=" ">
<polygon fill="#bfbfbf" stroke="black" points="416,-336.5 416,-355.5 483,-355.5 483,-336.5 416,-336.5"/>
<text text-anchor="middle" x="449.5" y="-343.5" font-family="Helvetica,sans-Serif" font-size="10.00">Synthesis.h</text>
</a>
</g>
</g>
<!-- Node2 -->
<g id="node2" class="node">
<title>Node2</title>
<g id="a_node2"><a xlink:href="a00041.xhtml" target="_top" xlink:title=" ">
<polygon fill="white" stroke="black" points="0,-168.5 0,-187.5 119,-187.5 119,-168.5 0,-168.5"/>
<text text-anchor="middle" x="59.5" y="-175.5" font-family="Helvetica,sans-Serif" font-size="10.00">ToolSimpleKmeans.cpp</text>
</a>
</g>
</g>
<!-- Node1&#45;&gt;Node2 -->
<g id="edge1" class="edge">
<title>Node1&#45;&gt;Node2</title>
<path fill="none" stroke="midnightblue" d="M405.9,-338.75C317.78,-325.26 122.9,-290.8 76.5,-244 61.39,-228.76 59.22,-201.85 59.19,-187.92"/>
<polygon fill="midnightblue" stroke="midnightblue" points="405.44,-342.22 415.85,-340.25 406.48,-335.3 405.44,-342.22"/>
</g>
<!-- Node3 -->
<g id="node3" class="node">
<title>Node3</title>
<g id="a_node3"><a xlink:href="a00143.xhtml" target="_top" xlink:title=" ">
<polygon fill="white" stroke="black" points="882,-280.5 882,-299.5 935,-299.5 935,-280.5 882,-280.5"/>
<text text-anchor="middle" x="908.5" y="-287.5" font-family="Helvetica,sans-Serif" font-size="10.00">Vector.h</text>
</a>
</g>
</g>
<!-- Node1&#45;&gt;Node3 -->
<g id="edge2" class="edge">
<title>Node1&#45;&gt;Node3</title>
<path fill="none" stroke="midnightblue" d="M493.28,-339.85C587.2,-328.8 805.71,-303.09 881.8,-294.14"/>
<polygon fill="midnightblue" stroke="midnightblue" points="492.77,-336.38 483.25,-341.03 493.59,-343.34 492.77,-336.38"/>
</g>
<!-- Node3&#45;&gt;Node2 -->
<g id="edge58" class="edge">
<title>Node3&#45;&gt;Node2</title>
<path fill="none" stroke="midnightblue" d="M871.51,-288.92C722.03,-288.31 167.47,-283.4 100.5,-244 78.88,-231.28 66.9,-202.19 62.07,-187.63"/>
<polygon fill="midnightblue" stroke="midnightblue" points="871.94,-292.42 881.95,-288.95 871.97,-285.42 871.94,-292.42"/>
</g>
<!-- Node4 -->
<g id="node4" class="node">
<title>Node4</title>
<g id="a_node4"><a xlink:href="a00008.xhtml" target="_top" xlink:title=" ">
<polygon fill="white" stroke="black" points="110,-224.5 110,-243.5 185,-243.5 185,-224.5 110,-224.5"/>
<text text-anchor="middle" x="147.5" y="-231.5" font-family="Helvetica,sans-Serif" font-size="10.00">AudioFile.cpp</text>
</a>
</g>
</g>
<!-- Node3&#45;&gt;Node4 -->
<g id="edge3" class="edge">
<title>Node3&#45;&gt;Node4</title>
<path fill="none" stroke="midnightblue" d="M871.59,-288.37C765.66,-286.21 451.71,-277.24 193.5,-244 190.76,-243.65 187.93,-243.23 185.09,-242.77"/>
<polygon fill="midnightblue" stroke="midnightblue" points="871.69,-291.88 881.76,-288.57 871.83,-284.88 871.69,-291.88"/>
</g>
<!-- Node5 -->
<g id="node5" class="node">
<title>Node5</title>
<g id="a_node5"><a xlink:href="a00080.xhtml" target="_top" xlink:title=" ">
<polygon fill="white" stroke="black" points="1555.5,-168.5 1555.5,-187.5 1633.5,-187.5 1633.5,-168.5 1555.5,-168.5"/>
<text text-anchor="middle" x="1594.5" y="-175.5" font-family="Helvetica,sans-Serif" font-size="10.00">BeatHisto.cpp</text>
</a>
</g>
</g>
<!-- Node3&#45;&gt;Node5 -->
<g id="edge4" class="edge">
<title>Node3&#45;&gt;Node5</title>
<path fill="none" stroke="midnightblue" d="M945.27,-283.55C1043.19,-268.96 1318.33,-227.44 1546.5,-188 1549.42,-187.49 1552.45,-186.96 1555.48,-186.41"/>
<polygon fill="midnightblue" stroke="midnightblue" points="944.66,-280.1 935.29,-285.04 945.69,-287.03 944.66,-280.1"/>
</g>
<!-- Node6 -->
<g id="node6" class="node">
<title>Node6</title>
<g id="a_node6"><a xlink:href="a00056.xhtml" target="_top" xlink:title=" ">
<polygon fill="white" stroke="black" points="409,-168.5 409,-187.5 516,-187.5 516,-168.5 409,-168.5"/>
<text text-anchor="middle" x="462.5" y="-175.5" font-family="Helvetica,sans-Serif" font-size="10.00">ChordFromBlock.cpp</text>
</a>
</g>
</g>
<!-- Node3&#45;&gt;Node6 -->
<g id="edge5" class="edge">
<title>Node3&#45;&gt;Node6</title>
<path fill="none" stroke="midnightblue" d="M872.12,-280.77C833.27,-271.93 769.95,-257.34 715.5,-244 635.99,-224.52 542.83,-200.2 494.79,-187.54"/>
<polygon fill="midnightblue" stroke="midnightblue" points="871.39,-284.2 881.92,-283 872.94,-277.37 871.39,-284.2"/>
</g>
<!-- Node7 -->
<g id="node7" class="node">
<title>Node7</title>
<g id="a_node7"><a xlink:href="a00038.xhtml" target="_top" xlink:title=" ">
<polygon fill="white" stroke="black" points="534,-168.5 534,-187.5 649,-187.5 649,-168.5 534,-168.5"/>
<text text-anchor="middle" x="591.5" y="-175.5" font-family="Helvetica,sans-Serif" font-size="10.00">FeatureFromBlock.cpp</text>
</a>
</g>
</g>
<!-- Node3&#45;&gt;Node7 -->
<g id="edge6" class="edge">
<title>Node3&#45;&gt;Node7</title>
<path fill="none" stroke="midnightblue" d="M872.73,-277.17C845.7,-268.19 807.72,-255.48 774.5,-244 717.14,-224.18 649.97,-200.1 615.14,-187.55"/>
<polygon fill="midnightblue" stroke="midnightblue" points="871.92,-280.59 882.52,-280.42 874.13,-273.95 871.92,-280.59"/>
</g>
<!-- Node8 -->
<g id="node8" class="node">
<title>Node8</title>
<g id="a_node8"><a xlink:href="a00068.xhtml" target="_top" xlink:title=" ">
<polygon fill="white" stroke="black" points="1565,-224.5 1565,-243.5 1612,-243.5 1612,-224.5 1565,-224.5"/>
<text text-anchor="middle" x="1588.5" y="-231.5" font-family="Helvetica,sans-Serif" font-size="10.00">Fft.cpp</text>
</a>
</g>
</g>
<!-- Node3&#45;&gt;Node8 -->
<g id="edge7" class="edge">
<title>Node3&#45;&gt;Node8</title>
<path fill="none" stroke="midnightblue" d="M945.34,-288.96C1044.62,-288.33 1325.74,-282.93 1555.5,-244 1558.54,-243.48 1561.71,-242.81 1564.83,-242.05"/>
<polygon fill="midnightblue" stroke="midnightblue" points="945.2,-285.46 935.22,-289.02 945.24,-292.46 945.2,-285.46"/>
</g>
<!-- Node9 -->
<g id="node9" class="node">
<title>Node9</title>
<g id="a_node9"><a xlink:href="a00140.xhtml" target="_top" xlink:title=" ">
<polygon fill="white" stroke="black" points="756.5,-168.5 756.5,-187.5 802.5,-187.5 802.5,-168.5 756.5,-168.5"/>
<text text-anchor="middle" x="779.5" y="-175.5" font-family="Helvetica,sans-Serif" font-size="10.00">Filter.h</text>
</a>
</g>
</g>
<!-- Node3&#45;&gt;Node9 -->
<g id="edge8" class="edge">
<title>Node3&#45;&gt;Node9</title>
<path fill="none" stroke="midnightblue" d="M882.3,-275.45C867.78,-267.32 849.81,-256.2 835.5,-244 814.87,-226.41 795.27,-200.98 785.66,-187.74"/>
<polygon fill="midnightblue" stroke="midnightblue" points="880.82,-278.63 891.28,-280.35 884.17,-272.49 880.82,-278.63"/>
</g>
<!-- Node10 -->
<g id="node10" class="node">
<title>Node10</title>
<g id="a_node10"><a xlink:href="a00092.xhtml" target="_top" xlink:title=" ">
<polygon fill="white" stroke="black" points="493.5,-112.5 493.5,-131.5 597.5,-131.5 597.5,-112.5 493.5,-112.5"/>
<text text-anchor="middle" x="545.5" y="-119.5" font-family="Helvetica,sans-Serif" font-size="10.00">PitchFromBlock.cpp</text>
</a>
</g>
</g>
<!-- Node3&#45;&gt;Node10 -->
<g id="edge41" class="edge">
<title>Node3&#45;&gt;Node10</title>
<path fill="none" stroke="midnightblue" d="M871.49,-288.48C755.09,-285.97 400.05,-271.49 330.5,-188 284.51,-132.8 416.09,-123.39 493.46,-122.45"/>
<polygon fill="midnightblue" stroke="midnightblue" points="871.61,-291.98 881.68,-288.68 871.75,-284.98 871.61,-291.98"/>
</g>
<!-- Node23 -->
<g id="node23" class="node">
<title>Node23</title>
<g id="a_node23"><a xlink:href="a00125.xhtml" target="_top" xlink:title=" ">
<polygon fill="white" stroke="black" points="203,-224.5 203,-243.5 300,-243.5 300,-224.5 203,-224.5"/>
<text text-anchor="middle" x="251.5" y="-231.5" font-family="Helvetica,sans-Serif" font-size="10.00">KeyFromChroma.h</text>
</a>
</g>
</g>
<!-- Node3&#45;&gt;Node23 -->
<g id="edge22" class="edge">
<title>Node3&#45;&gt;Node23</title>
<path fill="none" stroke="midnightblue" d="M871.74,-287.06C778.42,-281.97 524.86,-266.97 314.5,-244 309.89,-243.5 305.09,-242.92 300.3,-242.3"/>
<polygon fill="midnightblue" stroke="midnightblue" points="871.63,-290.56 881.8,-287.61 872,-283.57 871.63,-290.56"/>
</g>
<!-- Node26 -->
<g id="node26" class="node">
<title>Node26</title>
<g id="a_node26"><a xlink:href="a00137.xhtml" target="_top" xlink:title=" ">
<polygon fill="white" stroke="black" points="844.5,-224.5 844.5,-243.5 894.5,-243.5 894.5,-224.5 844.5,-224.5"/>
<text text-anchor="middle" x="869.5" y="-231.5" font-family="Helvetica,sans-Serif" font-size="10.00">Matrix.h</text>
</a>
</g>
</g>
<!-- Node3&#45;&gt;Node26 -->
<g id="edge26" class="edge">
<title>Node3&#45;&gt;Node26</title>
<path fill="none" stroke="midnightblue" d="M896.12,-271.86C889.36,-262.5 881.29,-251.33 875.82,-243.75"/>
<polygon fill="midnightblue" stroke="midnightblue" points="893.37,-274.03 902.06,-280.08 899.04,-269.93 893.37,-274.03"/>
</g>
<!-- Node29 -->
<g id="node29" class="node">
<title>Node29</title>
<g id="a_node29"><a xlink:href="a00074.xhtml" target="_top" xlink:title=" ">
<polygon fill="white" stroke="black" points="1248,-168.5 1248,-187.5 1351,-187.5 1351,-168.5 1248,-168.5"/>
<text text-anchor="middle" x="1299.5" y="-175.5" font-family="Helvetica,sans-Serif" font-size="10.00">ToolBlockAudio.cpp</text>
</a>
</g>
</g>
<!-- Node3&#45;&gt;Node29 -->
<g id="edge42" class="edge">
<title>Node3&#45;&gt;Node29</title>
<path fill="none" stroke="midnightblue" d="M944.75,-278.8C1021.29,-257.27 1198.16,-207.51 1269.18,-187.53"/>
<polygon fill="midnightblue" stroke="midnightblue" points="943.75,-275.45 935.07,-281.53 945.64,-282.19 943.75,-275.45"/>
</g>
<!-- Node31 -->
<g id="node31" class="node">
<title>Node31</title>
<g id="a_node31"><a xlink:href="a00059.xhtml" target="_top" xlink:title=" ">
<polygon fill="white" stroke="black" points="667,-168.5 667,-187.5 738,-187.5 738,-168.5 667,-168.5"/>
<text text-anchor="middle" x="702.5" y="-175.5" font-family="Helvetica,sans-Serif" font-size="10.00">ToolPca.cpp</text>
</a>
</g>
</g>
<!-- Node3&#45;&gt;Node31 -->
<g id="edge46" class="edge">
<title>Node3&#45;&gt;Node31</title>
<path fill="none" stroke="midnightblue" d="M879.26,-276.38C859.81,-267.76 833.83,-255.8 811.5,-244 776.24,-225.37 736.35,-200.59 716.01,-187.67"/>
<polygon fill="midnightblue" stroke="midnightblue" points="877.95,-279.63 888.52,-280.45 880.77,-273.22 877.95,-279.63"/>
</g>
<!-- Node32 -->
<g id="node32" class="node">
<title>Node32</title>
<g id="a_node32"><a xlink:href="a00062.xhtml" target="_top" xlink:title=" ">
<polygon fill="white" stroke="black" points="911,-168.5 911,-187.5 1012,-187.5 1012,-168.5 911,-168.5"/>
<text text-anchor="middle" x="961.5" y="-175.5" font-family="Helvetica,sans-Serif" font-size="10.00">ToolSimpleDtw.cpp</text>
</a>
</g>
</g>
<!-- Node3&#45;&gt;Node32 -->
<g id="edge57" class="edge">
<title>Node3&#45;&gt;Node32</title>
<path fill="none" stroke="midnightblue" d="M917.02,-271.32C928.56,-247.37 948.71,-205.55 957.36,-187.59"/>
<polygon fill="midnightblue" stroke="midnightblue" points="913.85,-269.84 912.66,-280.37 920.15,-272.88 913.85,-269.84"/>
</g>
<!-- Node33 -->
<g id="node33" class="node">
<title>Node33</title>
<g id="a_node33"><a xlink:href="a00044.xhtml" target="_top" xlink:title=" ">
<polygon fill="white" stroke="black" points="1030,-168.5 1030,-187.5 1131,-187.5 1131,-168.5 1030,-168.5"/>
<text text-anchor="middle" x="1080.5" y="-175.5" font-family="Helvetica,sans-Serif" font-size="10.00">ToolSimpleKnn.cpp</text>
</a>
</g>
</g>
<!-- Node3&#45;&gt;Node33 -->
<g id="edge59" class="edge">
<title>Node3&#45;&gt;Node33</title>
<path fill="none" stroke="midnightblue" d="M930.84,-274.71C967.08,-251.53 1037.61,-206.43 1067.07,-187.59"/>
<polygon fill="midnightblue" stroke="midnightblue" points="928.54,-272.03 922,-280.37 932.31,-277.93 928.54,-272.03"/>
</g>
<!-- Node34 -->
<g id="node34" class="node">
<title>Node34</title>
<g id="a_node34"><a xlink:href="a00077.xhtml" target="_top" xlink:title=" ">
<polygon fill="white" stroke="black" points="1149,-168.5 1149,-187.5 1230,-187.5 1230,-168.5 1149,-168.5"/>
<text text-anchor="middle" x="1189.5" y="-175.5" font-family="Helvetica,sans-Serif" font-size="10.00">ToolViterbi.cpp</text>
</a>
</g>
</g>
<!-- Node3&#45;&gt;Node34 -->
<g id="edge60" class="edge">
<title>Node3&#45;&gt;Node34</title>
<path fill="none" stroke="midnightblue" d="M940.21,-276.59C997.78,-254.05 1118.1,-206.95 1167.55,-187.59"/>
<polygon fill="midnightblue" stroke="midnightblue" points="938.59,-273.46 930.55,-280.37 941.14,-279.98 938.59,-273.46"/>
</g>
<!-- Node35 -->
<g id="node35" class="node">
<title>Node35</title>
<g id="a_node35"><a xlink:href="a00065.xhtml" target="_top" xlink:title=" ">
<polygon fill="white" stroke="black" points="1630,-224.5 1630,-243.5 1745,-243.5 1745,-224.5 1630,-224.5"/>
<text text-anchor="middle" x="1687.5" y="-231.5" font-family="Helvetica,sans-Serif" font-size="10.00">NoveltyFromBlock.cpp</text>
</a>
</g>
</g>
<!-- Node3&#45;&gt;Node35 -->
<g id="edge40" class="edge">
<title>Node3&#45;&gt;Node35</title>
<path fill="none" stroke="midnightblue" d="M945.22,-287.62C1050.63,-283.47 1363.17,-269.73 1621.5,-244 1624.26,-243.72 1627.09,-243.42 1629.94,-243.1"/>
<polygon fill="midnightblue" stroke="midnightblue" points="944.96,-284.13 935.1,-288.02 945.23,-291.13 944.96,-284.13"/>
</g>
<!-- Node36 -->
<g id="node36" class="node">
<title>Node36</title>
<g id="a_node36"><a xlink:href="a00095.xhtml" target="_top" xlink:title=" ">
<polygon fill="white" stroke="black" points="1763.5,-224.5 1763.5,-243.5 1831.5,-243.5 1831.5,-224.5 1763.5,-224.5"/>
<text text-anchor="middle" x="1797.5" y="-231.5" font-family="Helvetica,sans-Serif" font-size="10.00">ToolCcf.cpp</text>
</a>
</g>
</g>
<!-- Node3&#45;&gt;Node36 -->
<g id="edge43" class="edge">
<title>Node3&#45;&gt;Node36</title>
<path fill="none" stroke="midnightblue" d="M945.63,-289.05C1064.13,-288.77 1443.7,-284.55 1754.5,-244 1757.37,-243.63 1760.34,-243.16 1763.31,-242.65"/>
<polygon fill="midnightblue" stroke="midnightblue" points="945.3,-285.55 935.31,-289.06 945.31,-292.55 945.3,-285.55"/>
</g>
<!-- Node37 -->
<g id="node37" class="node">
<title>Node37</title>
<g id="a_node37"><a xlink:href="a00182.xhtml" target="_top" xlink:title=" ">
<polygon fill="white" stroke="black" points="1818,-112.5 1818,-131.5 1897,-131.5 1897,-112.5 1818,-112.5"/>
<text text-anchor="middle" x="1857.5" y="-119.5" font-family="Helvetica,sans-Serif" font-size="10.00">ToolInstFreq.h</text>
</a>
</g>
</g>
<!-- Node3&#45;&gt;Node37 -->
<g id="edge44" class="edge">
<title>Node3&#45;&gt;Node37</title>
<path fill="none" stroke="midnightblue" d="M945.34,-289.03C1096.06,-288.86 1666,-285.45 1840.5,-244 1900.12,-229.84 1933.11,-239.38 1966.5,-188 1986.19,-157.7 1935.92,-139.55 1897.24,-130.41"/>
<polygon fill="midnightblue" stroke="midnightblue" points="945.22,-285.53 935.22,-289.03 945.23,-292.53 945.22,-285.53"/>
</g>
<!-- Node38 -->
<g id="node38" class="node">
<title>Node38</title>
<g id="a_node38"><a xlink:href="a00122.xhtml" target="_top" xlink:title=" ">
<polygon fill="white" stroke="black" points="1468.5,-224.5 1468.5,-243.5 1546.5,-243.5 1546.5,-224.5 1468.5,-224.5"/>
<text text-anchor="middle" x="1507.5" y="-231.5" font-family="Helvetica,sans-Serif" font-size="10.00">ToolPreProc.h</text>
</a>
</g>
</g>
<!-- Node3&#45;&gt;Node38 -->
<g id="edge47" class="edge">
<title>Node3&#45;&gt;Node38</title>
<path fill="none" stroke="midnightblue" d="M945.24,-285.69C1051.57,-276.1 1358.95,-248.39 1468.31,-238.53"/>
<polygon fill="midnightblue" stroke="midnightblue" points="944.66,-282.23 935.01,-286.61 945.29,-289.2 944.66,-282.23"/>
</g>
<!-- Node9&#45;&gt;Node10 -->
<g id="edge9" class="edge">
<title>Node9&#45;&gt;Node10</title>
<path fill="none" stroke="midnightblue" d="M746.8,-168.08C746.7,-168.05 746.6,-168.03 746.5,-168 691.14,-154.26 626.74,-140.17 586.05,-131.51"/>
<polygon fill="midnightblue" stroke="midnightblue" points="745.9,-171.46 756.46,-170.57 747.65,-164.68 745.9,-171.46"/>
</g>
<!-- Node11 -->
<g id="node11" class="node">
<title>Node11</title>
<g id="a_node11"><a xlink:href="a00098.xhtml" target="_top" xlink:title=" ">
<polygon fill="white" stroke="black" points="1354,-112.5 1354,-131.5 1461,-131.5 1461,-112.5 1354,-112.5"/>
<text text-anchor="middle" x="1407.5" y="-119.5" font-family="Helvetica,sans-Serif" font-size="10.00">ToolGammatone.cpp</text>
</a>
</g>
</g>
<!-- Node9&#45;&gt;Node11 -->
<g id="edge10" class="edge">
<title>Node9&#45;&gt;Node11</title>
<path fill="none" stroke="midnightblue" d="M812.8,-168.11C1016.91,-132.84 1250.25,-125.22 1353.63,-123.49"/>
<polygon fill="midnightblue" stroke="midnightblue" points="812.04,-164.69 802.79,-169.87 813.25,-171.59 812.04,-164.69"/>
</g>
<!-- Node12 -->
<g id="node12" class="node">
<title>Node12</title>
<g id="a_node12"><a xlink:href="a00194.xhtml" target="_top" xlink:title=" ">
<polygon fill="white" stroke="black" points="907.5,-112.5 907.5,-131.5 993.5,-131.5 993.5,-112.5 907.5,-112.5"/>
<text text-anchor="middle" x="950.5" y="-119.5" font-family="Helvetica,sans-Serif" font-size="10.00">ToolResample.h</text>
</a>
</g>
</g>
<!-- Node9&#45;&gt;Node12 -->
<g id="edge11" class="edge">
<title>Node9&#45;&gt;Node12</title>
<path fill="none" stroke="midnightblue" d="M812.41,-166.61C844.64,-156.43 893.18,-141.1 923.3,-131.59"/>
<polygon fill="midnightblue" stroke="midnightblue" points="811.04,-163.37 802.56,-169.72 813.15,-170.04 811.04,-163.37"/>
</g>
<!-- Node13 -->
<g id="node13" class="node">
<title>Node13</title>
<g id="a_node13"><a xlink:href="a00197.xhtml" target="_top" xlink:title=" ">
<polygon fill="white" stroke="black" points="1365,-56.5 1365,-75.5 1418,-75.5 1418,-56.5 1365,-56.5"/>
<text text-anchor="middle" x="1391.5" y="-63.5" font-family="Helvetica,sans-Serif" font-size="10.00">AcaAll.h</text>
</a>
</g>
</g>
<!-- Node12&#45;&gt;Node13 -->
<g id="edge12" class="edge">
<title>Node12&#45;&gt;Node13</title>
<path fill="none" stroke="midnightblue" d="M1003.54,-114.51C1098.36,-102.89 1293.67,-78.98 1364.82,-70.27"/>
<polygon fill="midnightblue" stroke="midnightblue" points="1003.09,-111.03 993.59,-115.72 1003.94,-117.98 1003.09,-111.03"/>
</g>
<!-- Node14 -->
<g id="node14" class="node">
<title>Node14</title>
<g id="a_node14"><a xlink:href="a00035.xhtml" target="_top" xlink:title=" ">
<polygon fill="white" stroke="black" points="882,-0.5 882,-19.5 945,-19.5 945,-0.5 882,-0.5"/>
<text text-anchor="middle" x="913.5" y="-7.5" font-family="Helvetica,sans-Serif" font-size="10.00">AcaAll.cpp</text>
</a>
</g>
</g>
<!-- Node13&#45;&gt;Node14 -->
<g id="edge13" class="edge">
<title>Node13&#45;&gt;Node14</title>
<path fill="none" stroke="midnightblue" d="M1354.36,-62.6C1278.74,-57.41 1101.63,-43.65 954.5,-20 951.48,-19.51 948.34,-18.95 945.22,-18.33"/>
<polygon fill="midnightblue" stroke="midnightblue" points="1354.55,-66.12 1364.76,-63.31 1355.02,-59.14 1354.55,-66.12"/>
</g>
<!-- Node15 -->
<g id="node15" class="node">
<title>Node15</title>
<g id="a_node15"><a xlink:href="a00017.xhtml" target="_top" xlink:title=" ">
<polygon fill="white" stroke="black" points="963,-0.5 963,-19.5 1080,-19.5 1080,-0.5 963,-0.5"/>
<text text-anchor="middle" x="1021.5" y="-7.5" font-family="Helvetica,sans-Serif" font-size="10.00">ComputeBeatHisto.cpp</text>
</a>
</g>
</g>
<!-- Node13&#45;&gt;Node15 -->
<g id="edge14" class="edge">
<title>Node13&#45;&gt;Node15</title>
<path fill="none" stroke="midnightblue" d="M1354.82,-59.65C1290.53,-50.26 1157.03,-30.78 1079.91,-19.52"/>
<polygon fill="midnightblue" stroke="midnightblue" points="1354.49,-63.14 1364.89,-61.12 1355.5,-56.21 1354.49,-63.14"/>
</g>
<!-- Node16 -->
<g id="node16" class="node">
<title>Node16</title>
<g id="a_node16"><a xlink:href="a00023.xhtml" target="_top" xlink:title=" ">
<polygon fill="white" stroke="black" points="1098.5,-0.5 1098.5,-19.5 1202.5,-19.5 1202.5,-0.5 1098.5,-0.5"/>
<text text-anchor="middle" x="1150.5" y="-7.5" font-family="Helvetica,sans-Serif" font-size="10.00">ComputeChords.cpp</text>
</a>
</g>
</g>
<!-- Node13&#45;&gt;Node16 -->
<g id="edge15" class="edge">
<title>Node13&#45;&gt;Node16</title>
<path fill="none" stroke="midnightblue" d="M1354.9,-56.8C1310.05,-46.75 1234.44,-29.81 1188.82,-19.59"/>
<polygon fill="midnightblue" stroke="midnightblue" points="1354.26,-60.24 1364.79,-59.01 1355.8,-53.41 1354.26,-60.24"/>
</g>
<!-- Node17 -->
<g id="node17" class="node">
<title>Node17</title>
<g id="a_node17"><a xlink:href="a00002.xhtml" target="_top" xlink:title=" ">
<polygon fill="white" stroke="black" points="1221,-0.5 1221,-19.5 1328,-19.5 1328,-0.5 1221,-0.5"/>
<text text-anchor="middle" x="1274.5" y="-7.5" font-family="Helvetica,sans-Serif" font-size="10.00">ComputeFeature.cpp</text>
</a>
</g>
</g>
<!-- Node13&#45;&gt;Node17 -->
<g id="edge16" class="edge">
<title>Node13&#45;&gt;Node17</title>
<path fill="none" stroke="midnightblue" d="M1363.84,-52.23C1341.95,-42.13 1312,-28.31 1292.95,-19.52"/>
<polygon fill="midnightblue" stroke="midnightblue" points="1362.41,-55.43 1372.96,-56.44 1365.35,-49.08 1362.41,-55.43"/>
</g>
<!-- Node18 -->
<g id="node18" class="node">
<title>Node18</title>
<g id="a_node18"><a xlink:href="a00026.xhtml" target="_top" xlink:title=" ">
<polygon fill="white" stroke="black" points="1346.5,-0.5 1346.5,-19.5 1436.5,-19.5 1436.5,-0.5 1346.5,-0.5"/>
<text text-anchor="middle" x="1391.5" y="-7.5" font-family="Helvetica,sans-Serif" font-size="10.00">ComputeKey.cpp</text>
</a>
</g>
</g>
<!-- Node13&#45;&gt;Node18 -->
<g id="edge17" class="edge">
<title>Node13&#45;&gt;Node18</title>
<path fill="none" stroke="midnightblue" d="M1391.5,-45.8C1391.5,-36.91 1391.5,-26.78 1391.5,-19.75"/>
<polygon fill="midnightblue" stroke="midnightblue" points="1388,-46.08 1391.5,-56.08 1395,-46.08 1388,-46.08"/>
</g>
<!-- Node19 -->
<g id="node19" class="node">
<title>Node19</title>
<g id="a_node19"><a xlink:href="a00104.xhtml" target="_top" xlink:title=" ">
<polygon fill="white" stroke="black" points="1455,-0.5 1455,-19.5 1600,-19.5 1600,-0.5 1455,-0.5"/>
<text text-anchor="middle" x="1527.5" y="-7.5" font-family="Helvetica,sans-Serif" font-size="10.00">ComputeMelSpectrogram.cpp</text>
</a>
</g>
</g>
<!-- Node13&#45;&gt;Node19 -->
<g id="edge18" class="edge">
<title>Node13&#45;&gt;Node19</title>
<path fill="none" stroke="midnightblue" d="M1422.63,-52.64C1448.16,-42.5 1483.61,-28.43 1506.05,-19.52"/>
<polygon fill="midnightblue" stroke="midnightblue" points="1421.05,-49.5 1413.05,-56.44 1423.64,-56.01 1421.05,-49.5"/>
</g>
<!-- Node20 -->
<g id="node20" class="node">
<title>Node20</title>
<g id="a_node20"><a xlink:href="a00029.xhtml" target="_top" xlink:title=" ">
<polygon fill="white" stroke="black" points="1618.5,-0.5 1618.5,-19.5 1762.5,-19.5 1762.5,-0.5 1618.5,-0.5"/>
<text text-anchor="middle" x="1690.5" y="-7.5" font-family="Helvetica,sans-Serif" font-size="10.00">ComputeNoveltyFunction.cpp</text>
</a>
</g>
</g>
<!-- Node13&#45;&gt;Node20 -->
<g id="edge19" class="edge">
<title>Node13&#45;&gt;Node20</title>
<path fill="none" stroke="midnightblue" d="M1427.88,-58.43C1481.98,-48.66 1583.67,-30.29 1643.4,-19.51"/>
<polygon fill="midnightblue" stroke="midnightblue" points="1427.25,-54.99 1418.03,-60.21 1428.5,-61.87 1427.25,-54.99"/>
</g>
<!-- Node21 -->
<g id="node21" class="node">
<title>Node21</title>
<g id="a_node21"><a xlink:href="a00107.xhtml" target="_top" xlink:title=" ">
<polygon fill="white" stroke="black" points="1780.5,-0.5 1780.5,-19.5 1876.5,-19.5 1876.5,-0.5 1780.5,-0.5"/>
<text text-anchor="middle" x="1828.5" y="-7.5" font-family="Helvetica,sans-Serif" font-size="10.00">ComputePitch.cpp</text>
</a>
</g>
</g>
<!-- Node13&#45;&gt;Node21 -->
<g id="edge20" class="edge">
<title>Node13&#45;&gt;Node21</title>
<path fill="none" stroke="midnightblue" d="M1428.46,-61.1C1496.47,-53.83 1645.94,-37.34 1771.5,-20 1774.38,-19.6 1777.34,-19.18 1780.32,-18.74"/>
<polygon fill="midnightblue" stroke="midnightblue" points="1427.84,-57.65 1418.27,-62.19 1428.58,-64.61 1427.84,-57.65"/>
</g>
<!-- Node22 -->
<g id="node22" class="node">
<title>Node22</title>
<g id="a_node22"><a xlink:href="a00014.xhtml" target="_top" xlink:title=" ">
<polygon fill="white" stroke="black" points="1895,-0.5 1895,-19.5 2024,-19.5 2024,-0.5 1895,-0.5"/>
<text text-anchor="middle" x="1959.5" y="-7.5" font-family="Helvetica,sans-Serif" font-size="10.00">ComputeSpectrogram.cpp</text>
</a>
</g>
</g>
<!-- Node13&#45;&gt;Node22 -->
<g id="edge21" class="edge">
<title>Node13&#45;&gt;Node22</title>
<path fill="none" stroke="midnightblue" d="M1428.09,-62.05C1510.07,-55.35 1714.65,-38.17 1885.5,-20 1888.59,-19.67 1891.75,-19.33 1894.94,-18.97"/>
<polygon fill="midnightblue" stroke="midnightblue" points="1427.72,-58.57 1418.04,-62.87 1428.29,-65.54 1427.72,-58.57"/>
</g>
<!-- Node23&#45;&gt;Node13 -->
<g id="edge23" class="edge">
<title>Node23&#45;&gt;Node13</title>
<path fill="none" stroke="midnightblue" d="M213.46,-220.87C182.94,-209.17 148.02,-190.02 166.5,-168 246.32,-72.89 1193.59,-67.24 1365,-66.99"/>
<polygon fill="midnightblue" stroke="midnightblue" points="212.54,-224.27 223.14,-224.41 214.94,-217.69 212.54,-224.27"/>
</g>
<!-- Node24 -->
<g id="node24" class="node">
<title>Node24</title>
<g id="a_node24"><a xlink:href="a00032.xhtml" target="_top" xlink:title=" ">
<polygon fill="white" stroke="black" points="340,-168.5 340,-187.5 391,-187.5 391,-168.5 340,-168.5"/>
<text text-anchor="middle" x="365.5" y="-175.5" font-family="Helvetica,sans-Serif" font-size="10.00">Key.cpp</text>
</a>
</g>
</g>
<!-- Node23&#45;&gt;Node24 -->
<g id="edge24" class="edge">
<title>Node23&#45;&gt;Node24</title>
<path fill="none" stroke="midnightblue" d="M278.74,-220.1C300.04,-210.01 329.04,-196.27 347.52,-187.52"/>
<polygon fill="midnightblue" stroke="midnightblue" points="277.1,-217 269.56,-224.44 280.1,-223.33 277.1,-217"/>
</g>
<!-- Node25 -->
<g id="node25" class="node">
<title>Node25</title>
<g id="a_node25"><a xlink:href="a00089.xhtml" target="_top" xlink:title=" ">
<polygon fill="white" stroke="black" points="176,-168.5 176,-187.5 283,-187.5 283,-168.5 176,-168.5"/>
<text text-anchor="middle" x="229.5" y="-175.5" font-family="Helvetica,sans-Serif" font-size="10.00">KeyFromChroma.cpp</text>
</a>
</g>
</g>
<!-- Node23&#45;&gt;Node25 -->
<g id="edge25" class="edge">
<title>Node23&#45;&gt;Node25</title>
<path fill="none" stroke="midnightblue" d="M244.04,-214.69C240.33,-205.59 236.02,-195.01 233.07,-187.75"/>
<polygon fill="midnightblue" stroke="midnightblue" points="240.85,-216.14 247.87,-224.08 247.34,-213.5 240.85,-216.14"/>
</g>
<!-- Node26&#45;&gt;Node2 -->
<g id="edge37" class="edge">
<title>Node26&#45;&gt;Node2</title>
<path fill="none" stroke="midnightblue" d="M834.11,-230.99C731.09,-225.07 422.41,-206.95 166.5,-188 151.16,-186.86 134.6,-185.53 119.19,-184.23"/>
<polygon fill="midnightblue" stroke="midnightblue" points="834.08,-234.49 844.27,-231.57 834.48,-227.5 834.08,-234.49"/>
</g>
<!-- Node26&#45;&gt;Node6 -->
<g id="edge28" class="edge">
<title>Node26&#45;&gt;Node6</title>
<path fill="none" stroke="midnightblue" d="M834.28,-228.58C771.83,-220.7 637.63,-203.59 524.5,-188 521.81,-187.63 519.05,-187.24 516.26,-186.85"/>
<polygon fill="midnightblue" stroke="midnightblue" points="834.02,-232.07 844.38,-229.85 834.89,-225.13 834.02,-232.07"/>
</g>
<!-- Node26&#45;&gt;Node7 -->
<g id="edge29" class="edge">
<title>Node26&#45;&gt;Node7</title>
<path fill="none" stroke="midnightblue" d="M834.21,-226.14C783.57,-216.31 690.36,-198.2 635.36,-187.52"/>
<polygon fill="midnightblue" stroke="midnightblue" points="833.86,-229.64 844.34,-228.11 835.19,-222.77 833.86,-229.64"/>
</g>
<!-- Node26&#45;&gt;Node9 -->
<g id="edge30" class="edge">
<title>Node26&#45;&gt;Node9</title>
<path fill="none" stroke="midnightblue" d="M846.46,-219.18C829.9,-209.24 808.08,-196.15 793.92,-187.65"/>
<polygon fill="midnightblue" stroke="midnightblue" points="844.66,-222.18 855.04,-224.32 848.27,-216.18 844.66,-222.18"/>
</g>
<!-- Node26&#45;&gt;Node24 -->
<g id="edge31" class="edge">
<title>Node26&#45;&gt;Node24</title>
<path fill="none" stroke="midnightblue" d="M834.01,-231.58C755.27,-228.01 560.18,-216.76 399.5,-188 396.74,-187.51 393.87,-186.9 391.02,-186.23"/>
<polygon fill="midnightblue" stroke="midnightblue" points="834.19,-235.09 844.34,-232.04 834.5,-228.1 834.19,-235.09"/>
</g>
<!-- Node27 -->
<g id="node27" class="node">
<title>Node27</title>
<g id="a_node27"><a xlink:href="a00101.xhtml" target="_top" xlink:title=" ">
<polygon fill="white" stroke="black" points="1477.5,-168.5 1477.5,-187.5 1537.5,-187.5 1537.5,-168.5 1477.5,-168.5"/>
<text text-anchor="middle" x="1507.5" y="-175.5" font-family="Helvetica,sans-Serif" font-size="10.00">Chord.cpp</text>
</a>
</g>
</g>
<!-- Node26&#45;&gt;Node27 -->
<g id="edge27" class="edge">
<title>Node26&#45;&gt;Node27</title>
<path fill="none" stroke="midnightblue" d="M905.02,-232.21C998.05,-229.74 1256.27,-220.27 1468.5,-188 1471.39,-187.56 1474.37,-187.02 1477.35,-186.43"/>
<polygon fill="midnightblue" stroke="midnightblue" points="904.67,-228.72 894.76,-232.47 904.85,-235.72 904.67,-228.72"/>
</g>
<!-- Node28 -->
<g id="node28" class="node">
<title>Node28</title>
<g id="a_node28"><a xlink:href="a00083.xhtml" target="_top" xlink:title=" ">
<polygon fill="white" stroke="black" points="1369.5,-168.5 1369.5,-187.5 1459.5,-187.5 1459.5,-168.5 1369.5,-168.5"/>
<text text-anchor="middle" x="1414.5" y="-175.5" font-family="Helvetica,sans-Serif" font-size="10.00">Spectrogram.cpp</text>
</a>
</g>
</g>
<!-- Node26&#45;&gt;Node28 -->
<g id="edge32" class="edge">
<title>Node26&#45;&gt;Node28</title>
<path fill="none" stroke="midnightblue" d="M904.73,-230.67C985.52,-225.12 1190.28,-209.95 1360.5,-188 1363.42,-187.62 1366.43,-187.21 1369.46,-186.76"/>
<polygon fill="midnightblue" stroke="midnightblue" points="904.35,-227.19 894.61,-231.36 904.82,-234.17 904.35,-227.19"/>
</g>
<!-- Node26&#45;&gt;Node29 -->
<g id="edge33" class="edge">
<title>Node26&#45;&gt;Node29</title>
<path fill="none" stroke="midnightblue" d="M904.9,-229.03C970.81,-221.56 1116.81,-204.66 1239.5,-188 1242.21,-187.63 1245,-187.25 1247.8,-186.85"/>
<polygon fill="midnightblue" stroke="midnightblue" points="904.2,-225.58 894.65,-230.19 904.98,-232.54 904.2,-225.58"/>
</g>
<!-- Node30 -->
<g id="node30" class="node">
<title>Node30</title>
<g id="a_node30"><a xlink:href="a00053.xhtml" target="_top" xlink:title=" ">
<polygon fill="white" stroke="black" points="820.5,-168.5 820.5,-187.5 892.5,-187.5 892.5,-168.5 820.5,-168.5"/>
<text text-anchor="middle" x="856.5" y="-175.5" font-family="Helvetica,sans-Serif" font-size="10.00">ToolNmf.cpp</text>
</a>
</g>
</g>
<!-- Node26&#45;&gt;Node30 -->
<g id="edge34" class="edge">
<title>Node26&#45;&gt;Node30</title>
<path fill="none" stroke="midnightblue" d="M864.95,-214.1C862.79,-205.14 860.32,-194.86 858.61,-187.75"/>
<polygon fill="midnightblue" stroke="midnightblue" points="861.61,-215.18 867.35,-224.08 868.42,-213.54 861.61,-215.18"/>
</g>
<!-- Node26&#45;&gt;Node31 -->
<g id="edge35" class="edge">
<title>Node26&#45;&gt;Node31</title>
<path fill="none" stroke="midnightblue" d="M834.83,-221.79C803.38,-211.62 757.69,-196.84 729.05,-187.59"/>
<polygon fill="midnightblue" stroke="midnightblue" points="833.91,-225.17 844.5,-224.92 836.06,-218.51 833.91,-225.17"/>
</g>
<!-- Node26&#45;&gt;Node32 -->
<g id="edge36" class="edge">
<title>Node26&#45;&gt;Node32</title>
<path fill="none" stroke="midnightblue" d="M893.05,-219.18C909.98,-209.24 932.28,-196.15 946.76,-187.65"/>
<polygon fill="midnightblue" stroke="midnightblue" points="891.13,-216.24 884.28,-224.32 894.68,-222.28 891.13,-216.24"/>
</g>
<!-- Node26&#45;&gt;Node33 -->
<g id="edge38" class="edge">
<title>Node26&#45;&gt;Node33</title>
<path fill="none" stroke="midnightblue" d="M904.29,-224.1C943.9,-213.96 1008.18,-197.51 1047.18,-187.53"/>
<polygon fill="midnightblue" stroke="midnightblue" points="903.35,-220.72 894.53,-226.59 905.09,-227.5 903.35,-220.72"/>
</g>
<!-- Node26&#45;&gt;Node34 -->
<g id="edge39" class="edge">
<title>Node26&#45;&gt;Node34</title>
<path fill="none" stroke="midnightblue" d="M904.53,-227.38C956.21,-219.04 1055.89,-202.79 1140.5,-188 1143.23,-187.52 1146.04,-187.03 1148.87,-186.52"/>
<polygon fill="midnightblue" stroke="midnightblue" points="903.87,-223.94 894.56,-228.99 904.99,-230.85 903.87,-223.94"/>
</g>
<!-- Node37&#45;&gt;Node13 -->
<g id="edge45" class="edge">
<title>Node37&#45;&gt;Node13</title>
<path fill="none" stroke="midnightblue" d="M1807.79,-115.24C1709.52,-103.85 1493.41,-78.81 1418.05,-70.08"/>
<polygon fill="midnightblue" stroke="midnightblue" points="1807.43,-118.72 1817.77,-116.4 1808.24,-111.77 1807.43,-118.72"/>
</g>
<!-- Node38&#45;&gt;Node5 -->
<g id="edge49" class="edge">
<title>Node38&#45;&gt;Node5</title>
<path fill="none" stroke="midnightblue" d="M1530.22,-218.9C1546.17,-209 1567,-196.07 1580.56,-187.65"/>
<polygon fill="midnightblue" stroke="midnightblue" points="1528.13,-216.08 1521.48,-224.32 1531.82,-222.02 1528.13,-216.08"/>
</g>
<!-- Node38&#45;&gt;Node11 -->
<g id="edge56" class="edge">
<title>Node38&#45;&gt;Node11</title>
<path fill="none" stroke="midnightblue" d="M1556.2,-224.06C1556.3,-224.04 1556.4,-224.02 1556.5,-224 1647.32,-207.49 1817.46,-237.32 1756.5,-168 1737.34,-146.21 1554.38,-131.98 1461.31,-126.09"/>
<polygon fill="midnightblue" stroke="midnightblue" points="1555.76,-220.58 1546.55,-225.82 1557.01,-227.46 1555.76,-220.58"/>
</g>
<!-- Node38&#45;&gt;Node13 -->
<g id="edge48" class="edge">
<title>Node38&#45;&gt;Node13</title>
<path fill="none" stroke="midnightblue" d="M1556.58,-222.95C1590.8,-214.83 1632.11,-202.41 1642.5,-188 1647.7,-180.79 1647.48,-175.37 1642.5,-168 1591.1,-91.91 1471.82,-73.13 1418.32,-68.51"/>
<polygon fill="midnightblue" stroke="midnightblue" points="1555.65,-219.57 1546.69,-225.23 1557.22,-226.39 1555.65,-219.57"/>
</g>
<!-- Node38&#45;&gt;Node27 -->
<g id="edge50" class="edge">
<title>Node38&#45;&gt;Node27</title>
<path fill="none" stroke="midnightblue" d="M1507.5,-213.8C1507.5,-204.91 1507.5,-194.78 1507.5,-187.75"/>
<polygon fill="midnightblue" stroke="midnightblue" points="1504,-214.08 1507.5,-224.08 1511,-214.08 1504,-214.08"/>
</g>
<!-- Node38&#45;&gt;Node28 -->
<g id="edge54" class="edge">
<title>Node38&#45;&gt;Node28</title>
<path fill="none" stroke="midnightblue" d="M1483.69,-219.18C1466.58,-209.24 1444.03,-196.15 1429.4,-187.65"/>
<polygon fill="midnightblue" stroke="midnightblue" points="1482.15,-222.33 1492.56,-224.32 1485.67,-216.28 1482.15,-222.33"/>
</g>
<!-- Node38&#45;&gt;Node29 -->
<g id="edge55" class="edge">
<title>Node38&#45;&gt;Node29</title>
<path fill="none" stroke="midnightblue" d="M1464.72,-221.89C1425.44,-211.7 1368.07,-196.8 1332.3,-187.52"/>
<polygon fill="midnightblue" stroke="midnightblue" points="1463.98,-225.32 1474.54,-224.44 1465.74,-218.54 1463.98,-225.32"/>
</g>
<!-- Node39 -->
<g id="node39" class="node">
<title>Node39</title>
<g id="a_node39"><a xlink:href="a00050.xhtml" target="_top" xlink:title=" ">
<polygon fill="white" stroke="black" points="1803.5,-168.5 1803.5,-187.5 1871.5,-187.5 1871.5,-168.5 1803.5,-168.5"/>
<text text-anchor="middle" x="1837.5" y="-175.5" font-family="Helvetica,sans-Serif" font-size="10.00">Feature.cpp</text>
</a>
</g>
</g>
<!-- Node38&#45;&gt;Node39 -->
<g id="edge51" class="edge">
<title>Node38&#45;&gt;Node39</title>
<path fill="none" stroke="midnightblue" d="M1556.2,-224.05C1556.3,-224.03 1556.4,-224.02 1556.5,-224 1659.82,-206.53 1686.21,-205.66 1789.5,-188 1794.01,-187.23 1798.76,-186.38 1803.44,-185.53"/>
<polygon fill="midnightblue" stroke="midnightblue" points="1555.79,-220.57 1546.53,-225.73 1556.98,-227.47 1555.79,-220.57"/>
</g>
<!-- Node40 -->
<g id="node40" class="node">
<title>Node40</title>
<g id="a_node40"><a xlink:href="a00086.xhtml" target="_top" xlink:title=" ">
<polygon fill="white" stroke="black" points="1889.5,-168.5 1889.5,-187.5 1957.5,-187.5 1957.5,-168.5 1889.5,-168.5"/>
<text text-anchor="middle" x="1923.5" y="-175.5" font-family="Helvetica,sans-Serif" font-size="10.00">Novelty.cpp</text>
</a>
</g>
</g>
<!-- Node38&#45;&gt;Node40 -->
<g id="edge52" class="edge">
<title>Node38&#45;&gt;Node40</title>
<path fill="none" stroke="midnightblue" d="M1556.19,-224.05C1556.3,-224.03 1556.4,-224.01 1556.5,-224 1699.84,-202.9 1737.43,-210.87 1880.5,-188 1883.36,-187.54 1886.32,-187.02 1889.29,-186.47"/>
<polygon fill="midnightblue" stroke="midnightblue" points="1555.84,-220.56 1546.51,-225.58 1556.93,-227.47 1555.84,-220.56"/>
</g>
<!-- Node41 -->
<g id="node41" class="node">
<title>Node41</title>
<g id="a_node41"><a xlink:href="a00071.xhtml" target="_top" xlink:title=" ">
<polygon fill="white" stroke="black" points="1690,-168.5 1690,-187.5 1747,-187.5 1747,-168.5 1690,-168.5"/>
<text text-anchor="middle" x="1718.5" y="-175.5" font-family="Helvetica,sans-Serif" font-size="10.00">Pitch.cpp</text>
</a>
</g>
</g>
<!-- Node38&#45;&gt;Node41 -->
<g id="edge53" class="edge">
<title>Node38&#45;&gt;Node41</title>
<path fill="none" stroke="midnightblue" d="M1550.8,-221.92C1592.43,-211.27 1654.16,-195.47 1689.96,-186.3"/>
<polygon fill="midnightblue" stroke="midnightblue" points="1549.75,-218.57 1540.93,-224.44 1551.49,-225.35 1549.75,-218.57"/>
</g>
</g>
</svg>
        <g id="navigator" transform="translate(0 0)" fill="#404254">
                <rect fill="#f2f5e9" fill-opacity="0.5" stroke="#606060" stroke-width=".5" x="0" y="0" width="60" height="60"/>
                <use id="zoomplus" xlink:href="#zoomPlus" x="17" y="9" onmousedown="handleZoom(evt,'in')"/>
                <use id="zoomminus" xlink:href="#zoomMin" x="42" y="9" onmousedown="handleZoom(evt,'out')"/>
                <use id="reset" xlink:href="#resetDef" x="30" y="36" onmousedown="handleReset()"/>
                <g id="arrowUp" xlink:href="#dirArrow" transform="translate(30 24)" onmousedown="handlePan(0,-1)">
                  <use xlink:href="#rim" fill="#404040">
                        <set attributeName="fill" to="#808080" begin="arrowUp.mouseover" end="arrowUp.mouseout"/>
                  </use>
                  <path fill="none" stroke="white" stroke-width="1.5" d="M0,-3.0v7 M-2.5,-0.5L0,-3.0L2.5,-0.5"/>
                </g>
                <g id="arrowRight" xlink:href="#dirArrow" transform="rotate(90) translate(36 -43)" onmousedown="handlePan(1,0)">
                  <use xlink:href="#rim" fill="#404040">
                        <set attributeName="fill" to="#808080" begin="arrowRight.mouseover" end="arrowRight.mouseout"/>
                  </use>
                  <path fill="none" stroke="white" stroke-width="1.5" d="M0,-3.0v7 M-2.5,-0.5L0,-3.0L2.5,-0.5"/>
                </g>
                <g id="arrowDown" xlink:href="#dirArrow" transform="rotate(180) translate(-30 -48)" onmousedown="handlePan(0,1)">
                  <use xlink:href="#rim" fill="#404040">
                        <set attributeName="fill" to="#808080" begin="arrowDown.mouseover" end="arrowDown.mouseout"/>
                  </use>
                  <path fill="none" stroke="white" stroke-width="1.5" d="M0,-3.0v7 M-2.5,-0.5L0,-3.0L2.5,-0.5"/>
                </g>
                <g id="arrowLeft" xlink:href="#dirArrow" transform="rotate(270) translate(-36 17)" onmousedown="handlePan(-1,0)">
                  <use xlink:href="#rim" fill="#404040">
                        <set attributeName="fill" to="#808080" begin="arrowLeft.mouseover" end="arrowLeft.mouseout"/>
                  </use>
                  <path fill="none" stroke="white" stroke-width="1.5" d="M0,-3.0v7 M-2.5,-0.5L0,-3.0L2.5,-0.5"/>
                </g>
        </g>
        <svg viewBox="0 0 15 15" width="100%" height="30px" preserveAspectRatio="xMaxYMin meet">
         <g id="arrow_out" transform="scale(0.3 0.3)">
          <a xlink:href="a00148_org.svg" target="_base">
           <rect id="button" ry="5" rx="5" y="6" x="6" height="38" width="38"
                fill="#f2f5e9" fill-opacity="0.5" stroke="#606060" stroke-width="1.0"/>
           <path id="arrow"
             d="M 11.500037,31.436501 C 11.940474,20.09759 22.043105,11.32322 32.158766,21.979434 L 37.068811,17.246167 C 37.068811,17.246167 37.088388,32 37.088388,32 L 22.160133,31.978069 C 22.160133,31.978069 26.997745,27.140456 26.997745,27.140456 C 18.528582,18.264221 13.291696,25.230495 11.500037,31.436501 z"
             style="fill:#404040;"/>
          </a>
         </g>
        </svg>
</svg>
