<?xml version="1.0" encoding="UTF-8" standalone="no"?>
<!DOCTYPE svg PUBLIC "-//W3C//DTD SVG 1.1//EN"
 "http://www.w3.org/Graphics/SVG/1.1/DTD/svg11.dtd">
<!-- Generated by graphviz version 6.0.1 (20220911.1526)
 -->
<!-- Title: ToolGmmClassifier.h Pages: 1 -->
<svg width="357pt" height="302pt"
 viewBox="0.00 0.00 356.50 302.00" xmlns="http://www.w3.org/2000/svg" xmlns:xlink="http://www.w3.org/1999/xlink">
<g id="graph0" class="graph" transform="scale(1 1) rotate(0) translate(4 298)">
<title>ToolGmmClassifier.h</title>
<!-- Node1 -->
<g id="node1" class="node">
<title>Node1</title>
<g id="a_node1"><a xlink:title=" ">
<polygon fill="#999999" stroke="#666666" points="166,-294 59,-294 59,-275 166,-275 166,-294"/>
<text text-anchor="middle" x="112.5" y="-282" font-family="Helvetica,sans-Serif" font-size="10.00">ToolGmmClassifier.h</text>
</a>
</g>
</g>
<!-- Node2 -->
<g id="node2" class="node">
<title>Node2</title>
<g id="a_node2"><a xlink:href="a00158.xhtml" target="_top" xlink:title=" ">
<polygon fill="white" stroke="#666666" points="59,-74 0,-74 0,-55 59,-55 59,-74"/>
<text text-anchor="middle" x="29.5" y="-62" font-family="Helvetica,sans-Serif" font-size="10.00">ErrorDef.h</text>
</a>
</g>
</g>
<!-- Node1&#45;&gt;Node2 -->
<g id="edge1" class="edge">
<title>Node1&#45;&gt;Node2</title>
<path fill="none" stroke="#63b8ff" d="M109.25,-274.95C97.01,-242.81 53.57,-128.72 36.48,-83.83"/>
<polygon fill="#63b8ff" stroke="#63b8ff" points="39.65,-82.32 32.82,-74.22 33.11,-84.81 39.65,-82.32"/>
</g>
<!-- Node3 -->
<g id="node3" class="node">
<title>Node3</title>
<g id="a_node3"><a xlink:href="a00155.xhtml" target="_top" xlink:title=" ">
<polygon fill="white" stroke="#666666" points="228.5,-239 142.5,-239 142.5,-220 228.5,-220 228.5,-239"/>
<text text-anchor="middle" x="185.5" y="-227" font-family="Helvetica,sans-Serif" font-size="10.00">ClassifierBase.h</text>
</a>
</g>
</g>
<!-- Node1&#45;&gt;Node3 -->
<g id="edge2" class="edge">
<title>Node1&#45;&gt;Node3</title>
<path fill="none" stroke="#63b8ff" d="M124.23,-274.98C135.23,-267 151.92,-254.88 165.1,-245.31"/>
<polygon fill="#63b8ff" stroke="#63b8ff" points="167.52,-247.88 173.56,-239.17 163.41,-242.21 167.52,-247.88"/>
</g>
<!-- Node4 -->
<g id="node4" class="node">
<title>Node4</title>
<g id="a_node4"><a xlink:href="a00194.xhtml" target="_top" xlink:title=" ">
<polygon fill="white" stroke="#666666" points="254,-184 201,-184 201,-165 254,-165 254,-184"/>
<text text-anchor="middle" x="227.5" y="-172" font-family="Helvetica,sans-Serif" font-size="10.00">Vector.h</text>
</a>
</g>
</g>
<!-- Node3&#45;&gt;Node4 -->
<g id="edge3" class="edge">
<title>Node3&#45;&gt;Node4</title>
<path fill="none" stroke="#63b8ff" d="M192.44,-219.75C198.37,-212.26 207.07,-201.28 214.32,-192.13"/>
<polygon fill="#63b8ff" stroke="#63b8ff" points="217.23,-194.1 220.69,-184.09 211.74,-189.75 217.23,-194.1"/>
</g>
<!-- Node5 -->
<g id="node5" class="node">
<title>Node5</title>
<g id="a_node5"><a xlink:title=" ">
<polygon fill="#e0e0e0" stroke="#999999" points="243,-19 194,-19 194,0 243,0 243,-19"/>
<text text-anchor="middle" x="218.5" y="-7" font-family="Helvetica,sans-Serif" font-size="10.00">cassert</text>
</a>
</g>
</g>
<!-- Node4&#45;&gt;Node5 -->
<g id="edge4" class="edge">
<title>Node4&#45;&gt;Node5</title>
<path fill="none" stroke="#63b8ff" d="M238.33,-164.8C261.5,-145.1 311.99,-95.63 289.5,-55 281.54,-40.63 266.79,-30.27 252.78,-23.19"/>
<polygon fill="#63b8ff" stroke="#63b8ff" points="253.84,-19.83 243.3,-18.8 250.9,-26.18 253.84,-19.83"/>
</g>
<!-- Node6 -->
<g id="node6" class="node">
<title>Node6</title>
<g id="a_node6"><a xlink:title=" ">
<polygon fill="#e0e0e0" stroke="#999999" points="348.5,-19 302.5,-19 302.5,0 348.5,0 348.5,-19"/>
<text text-anchor="middle" x="325.5" y="-7" font-family="Helvetica,sans-Serif" font-size="10.00">cstring</text>
</a>
</g>
</g>
<!-- Node4&#45;&gt;Node6 -->
<g id="edge5" class="edge">
<title>Node4&#45;&gt;Node6</title>
<path fill="none" stroke="#63b8ff" d="M247.39,-164.85C262.22,-157.41 281.85,-145.3 293.5,-129 315.22,-98.62 322.2,-54.3 324.44,-29.37"/>
<polygon fill="#63b8ff" stroke="#63b8ff" points="327.95,-29.34 325.19,-19.11 320.97,-28.83 327.95,-29.34"/>
</g>
<!-- Node7 -->
<g id="node7" class="node">
<title>Node7</title>
<g id="a_node7"><a xlink:title=" ">
<polygon fill="#e0e0e0" stroke="#999999" points="151.5,-19 111.5,-19 111.5,0 151.5,0 151.5,-19"/>
<text text-anchor="middle" x="131.5" y="-7" font-family="Helvetica,sans-Serif" font-size="10.00">limits</text>
</a>
</g>
</g>
<!-- Node4&#45;&gt;Node7 -->
<g id="edge6" class="edge">
<title>Node4&#45;&gt;Node7</title>
<path fill="none" stroke="#63b8ff" d="M206.82,-164.78C176.97,-150.8 123.54,-120.18 106.5,-74 100.62,-58.08 109.15,-40.1 117.8,-27.34"/>
<polygon fill="#63b8ff" stroke="#63b8ff" points="120.78,-29.2 123.92,-19.08 115.15,-25.03 120.78,-29.2"/>
</g>
<!-- Node8 -->
<g id="node8" class="node">
<title>Node8</title>
<g id="a_node8"><a xlink:title=" ">
<polygon fill="#e0e0e0" stroke="#999999" points="280.5,-74 236.5,-74 236.5,-55 280.5,-55 280.5,-74"/>
<text text-anchor="middle" x="258.5" y="-62" font-family="Helvetica,sans-Serif" font-size="10.00">cmath</text>
</a>
</g>
</g>
<!-- Node4&#45;&gt;Node8 -->
<g id="edge7" class="edge">
<title>Node4&#45;&gt;Node8</title>
<path fill="none" stroke="#63b8ff" d="M230.04,-164.66C235.08,-147.09 246.46,-107.45 253.2,-83.95"/>
<polygon fill="#63b8ff" stroke="#63b8ff" points="256.62,-84.74 256.01,-74.16 249.89,-82.8 256.62,-84.74"/>
</g>
<!-- Node9 -->
<g id="node9" class="node">
<title>Node9</title>
<g id="a_node9"><a xlink:href="a00188.xhtml" target="_top" xlink:title=" ">
<polygon fill="white" stroke="#666666" points="230,-129 163,-129 163,-110 230,-110 230,-129"/>
<text text-anchor="middle" x="196.5" y="-117" font-family="Helvetica,sans-Serif" font-size="10.00">Synthesis.h</text>
</a>
</g>
</g>
<!-- Node4&#45;&gt;Node9 -->
<g id="edge8" class="edge">
<title>Node4&#45;&gt;Node9</title>
<path fill="none" stroke="#63b8ff" d="M222.38,-164.75C218.14,-157.49 211.97,-146.95 206.72,-137.98"/>
<polygon fill="#63b8ff" stroke="#63b8ff" points="209.59,-135.95 201.52,-129.09 203.55,-139.49 209.59,-135.95"/>
</g>
<!-- Node9&#45;&gt;Node2 -->
<g id="edge11" class="edge">
<title>Node9&#45;&gt;Node2</title>
<path fill="none" stroke="#63b8ff" d="M169.67,-109.98C141.63,-101.09 97.45,-87.07 66.2,-77.15"/>
<polygon fill="#63b8ff" stroke="#63b8ff" points="67.13,-73.77 56.54,-74.08 65.01,-80.44 67.13,-73.77"/>
</g>
<!-- Node9&#45;&gt;Node8 -->
<g id="edge9" class="edge">
<title>Node9&#45;&gt;Node8</title>
<path fill="none" stroke="#63b8ff" d="M206.46,-109.98C215.63,-102.15 229.44,-90.34 240.53,-80.86"/>
<polygon fill="#63b8ff" stroke="#63b8ff" points="243.03,-83.33 248.36,-74.17 238.48,-78.01 243.03,-83.33"/>
</g>
<!-- Node10 -->
<g id="node10" class="node">
<title>Node10</title>
<g id="a_node10"><a xlink:title=" ">
<polygon fill="#e0e0e0" stroke="#999999" points="161,-74 116,-74 116,-55 161,-55 161,-74"/>
<text text-anchor="middle" x="138.5" y="-62" font-family="Helvetica,sans-Serif" font-size="10.00">cstdlib</text>
</a>
</g>
</g>
<!-- Node9&#45;&gt;Node10 -->
<g id="edge10" class="edge">
<title>Node9&#45;&gt;Node10</title>
<path fill="none" stroke="#63b8ff" d="M187.18,-109.98C178.69,-102.23 165.94,-90.58 155.62,-81.14"/>
<polygon fill="#63b8ff" stroke="#63b8ff" points="157.73,-78.33 147.99,-74.17 153.01,-83.5 157.73,-78.33"/>
</g>
<!-- Node11 -->
<g id="node11" class="node">
<title>Node11</title>
<g id="a_node11"><a xlink:href="a00185.xhtml" target="_top" xlink:title=" ">
<polygon fill="white" stroke="#666666" points="218,-74 179,-74 179,-55 218,-55 218,-74"/>
<text text-anchor="middle" x="198.5" y="-62" font-family="Helvetica,sans-Serif" font-size="10.00">Util.h</text>
</a>
</g>
</g>
<!-- Node9&#45;&gt;Node11 -->
<g id="edge12" class="edge">
<title>Node9&#45;&gt;Node11</title>
<path fill="none" stroke="#63b8ff" d="M196.83,-109.75C197.09,-102.8 197.47,-92.85 197.8,-84.13"/>
<polygon fill="#63b8ff" stroke="#63b8ff" points="201.3,-84.21 198.18,-74.09 194.3,-83.95 201.3,-84.21"/>
</g>
<!-- Node11&#45;&gt;Node5 -->
<g id="edge13" class="edge">
<title>Node11&#45;&gt;Node5</title>
<path fill="none" stroke="#63b8ff" d="M201.8,-54.75C204.48,-47.65 208.35,-37.4 211.69,-28.56"/>
<polygon fill="#63b8ff" stroke="#63b8ff" points="215,-29.68 215.26,-19.09 208.45,-27.21 215,-29.68"/>
</g>
<!-- Node11&#45;&gt;Node6 -->
<g id="edge14" class="edge">
<title>Node11&#45;&gt;Node6</title>
<path fill="none" stroke="#63b8ff" d="M218.07,-55.33C238.74,-46.71 271.59,-33 295.53,-23.01"/>
<polygon fill="#63b8ff" stroke="#63b8ff" points="296.98,-26.2 304.86,-19.11 294.28,-19.74 296.98,-26.2"/>
</g>
<!-- Node11&#45;&gt;Node7 -->
<g id="edge15" class="edge">
<title>Node11&#45;&gt;Node7</title>
<path fill="none" stroke="#63b8ff" d="M187.74,-54.98C177.73,-47.07 162.61,-35.11 150.57,-25.58"/>
<polygon fill="#63b8ff" stroke="#63b8ff" points="152.47,-22.63 142.46,-19.17 148.13,-28.12 152.47,-22.63"/>
</g>
</g>
</svg>
