<?xml version="1.0" encoding="UTF-8" standalone="no"?>
<!DOCTYPE svg PUBLIC "-//W3C//DTD SVG 1.1//EN"
 "http://www.w3.org/Graphics/SVG/1.1/DTD/svg11.dtd">
<!-- Generated by graphviz version 12.2.1 (20241206.2353)
 -->
<!-- Title: ToolSimpleKmeans.cpp Pages: 1 -->
<svg width="498pt" height="304pt"
 viewBox="0.00 0.00 498.00 303.50" xmlns="http://www.w3.org/2000/svg" xmlns:xlink="http://www.w3.org/1999/xlink">

<svg id="main" version="1.1" xmlns="http://www.w3.org/2000/svg" xmlns:xlink="http://www.w3.org/1999/xlink" xml:space="preserve">

<style type="text/css"><![CDATA[
.node, .edge {opacity: 0.7;}
.node.selected, .edge.selected {opacity: 1;}
.edge:hover path { stroke: red; }
.edge:hover polygon { stroke: red; fill: red; }
]]></style>
<script type="application/ecmascript" xlink:href="svg.min.js"/>
<svg id="graph" class="graph">
<g id="graph0" class="graph" transform="scale(1 1) rotate(0) translate(4 299.5)">
<title>ToolSimpleKmeans.cpp</title>
<!-- Node1 -->
<g id="Node000001" class="node">
<title>Node1</title>
<g id="a_Node000001"><a xlink:title=" ">
<polygon fill="#999999" stroke="#666666" points="320.25,-295.5 201.5,-295.5 201.5,-276.25 320.25,-276.25 320.25,-295.5"/>
<text text-anchor="middle" x="260.88" y="-282" font-family="Helvetica,sans-Serif" font-size="10.00">ToolSimpleKmeans.cpp</text>
</a>
</g>
</g>
<!-- Node2 -->
<g id="Node000002" class="node">
<title>Node2</title>
<g id="a_Node000002"><a xlink:href="a00188.xhtml" target="_top" xlink:title=" ">
<polygon fill="white" stroke="#666666" points="169.75,-240.25 120,-240.25 120,-221 169.75,-221 169.75,-240.25"/>
<text text-anchor="middle" x="144.88" y="-226.75" font-family="Helvetica,sans-Serif" font-size="10.00">Matrix.h</text>
</a>
</g>
</g>
<!-- Node1&#45;&gt;Node2 -->
<g id="edge1_Node000001_Node000002" class="edge">
<title>Node1&#45;&gt;Node2</title>
<g id="a_edge1_Node000001_Node000002"><a xlink:title=" ">
<path fill="none" stroke="#63b8ff" d="M241.2,-275.84C223.03,-267.5 195.79,-255 174.91,-245.41"/>
<polygon fill="#63b8ff" stroke="#63b8ff" points="176.57,-242.33 166.02,-241.33 173.65,-248.69 176.57,-242.33"/>
</a>
</g>
</g>
<!-- Node5 -->
<g id="Node000005" class="node">
<title>Node5</title>
<g id="a_Node000005"><a xlink:href="a00185.xhtml" target="_top" xlink:title=" ">
<polygon fill="white" stroke="#666666" points="235.88,-185 183.88,-185 183.88,-165.75 235.88,-165.75 235.88,-185"/>
<text text-anchor="middle" x="209.88" y="-171.5" font-family="Helvetica,sans-Serif" font-size="10.00">Vector.h</text>
</a>
</g>
</g>
<!-- Node1&#45;&gt;Node5 -->
<g id="edge17_Node000001_Node000005" class="edge">
<title>Node1&#45;&gt;Node5</title>
<g id="a_edge17_Node000001_Node000005"><a xlink:title=" ">
<path fill="none" stroke="#63b8ff" d="M256.7,-276C248.48,-258.51 230.04,-219.27 218.91,-195.59"/>
<polygon fill="#63b8ff" stroke="#63b8ff" points="222.17,-194.31 214.75,-186.75 215.84,-197.29 222.17,-194.31"/>
</a>
</g>
</g>
<!-- Node9 -->
<g id="Node000009" class="node">
<title>Node9</title>
<g id="a_Node000009"><a xlink:href="a00194.xhtml" target="_top" xlink:title=" ">
<polygon fill="white" stroke="#666666" points="364,-129.75 297.75,-129.75 297.75,-110.5 364,-110.5 364,-129.75"/>
<text text-anchor="middle" x="330.88" y="-116.25" font-family="Helvetica,sans-Serif" font-size="10.00">Synthesis.h</text>
</a>
</g>
</g>
<!-- Node1&#45;&gt;Node9 -->
<g id="edge18_Node000001_Node000009" class="edge">
<title>Node1&#45;&gt;Node9</title>
<g id="a_edge18_Node000001_Node000009"><a xlink:title=" ">
<path fill="none" stroke="#63b8ff" d="M264.64,-276.07C275.56,-250.53 307.44,-175.95 322.63,-140.4"/>
<polygon fill="#63b8ff" stroke="#63b8ff" points="325.79,-141.94 326.5,-131.36 319.35,-139.18 325.79,-141.94"/>
</a>
</g>
</g>
<!-- Node13 -->
<g id="Node000013" class="node">
<title>Node13</title>
<g id="a_Node000013"><a xlink:href="a00161.xhtml" target="_top" xlink:title=" ">
<polygon fill="white" stroke="#666666" points="490,-129.75 381.75,-129.75 381.75,-110.5 490,-110.5 490,-129.75"/>
<text text-anchor="middle" x="435.88" y="-116.25" font-family="Helvetica,sans-Serif" font-size="10.00">ToolSimpleKmeans.h</text>
</a>
</g>
</g>
<!-- Node1&#45;&gt;Node13 -->
<g id="edge19_Node000001_Node000013" class="edge">
<title>Node1&#45;&gt;Node13</title>
<g id="a_edge19_Node000001_Node000013"><a xlink:title=" ">
<path fill="none" stroke="#63b8ff" d="M270.53,-275.84C298.8,-249.38 381.69,-171.82 418.23,-137.63"/>
<polygon fill="#63b8ff" stroke="#63b8ff" points="420.44,-140.36 425.36,-130.97 415.66,-135.25 420.44,-140.36"/>
</a>
</g>
</g>
<!-- Node3 -->
<g id="Node000003" class="node">
<title>Node3</title>
<g id="a_Node000003"><a xlink:title=" ">
<polygon fill="#e0e0e0" stroke="#999999" points="146,-19.25 97.75,-19.25 97.75,0 146,0 146,-19.25"/>
<text text-anchor="middle" x="121.88" y="-5.75" font-family="Helvetica,sans-Serif" font-size="10.00">cassert</text>
</a>
</g>
</g>
<!-- Node2&#45;&gt;Node3 -->
<g id="edge2_Node000002_Node000003" class="edge">
<title>Node2&#45;&gt;Node3</title>
<g id="a_edge2_Node000002_Node000003"><a xlink:title=" ">
<path fill="none" stroke="#63b8ff" d="M143.94,-220.77C140.56,-188.51 128.82,-76.76 123.98,-30.71"/>
<polygon fill="#63b8ff" stroke="#63b8ff" points="127.48,-30.44 122.95,-20.86 120.51,-31.17 127.48,-30.44"/>
</a>
</g>
</g>
<!-- Node4 -->
<g id="Node000004" class="node">
<title>Node4</title>
<g id="a_Node000004"><a xlink:title=" ">
<polygon fill="#e0e0e0" stroke="#999999" points="55.75,-185 0,-185 0,-165.75 55.75,-165.75 55.75,-185"/>
<text text-anchor="middle" x="27.88" y="-171.5" font-family="Helvetica,sans-Serif" font-size="10.00">algorithm</text>
</a>
</g>
</g>
<!-- Node2&#45;&gt;Node4 -->
<g id="edge3_Node000002_Node000004" class="edge">
<title>Node2&#45;&gt;Node4</title>
<g id="a_edge3_Node000002_Node000004"><a xlink:title=" ">
<path fill="none" stroke="#63b8ff" d="M125.03,-220.59C106.71,-212.25 79.23,-199.75 58.17,-190.16"/>
<polygon fill="#63b8ff" stroke="#63b8ff" points="59.75,-187.04 49.2,-186.08 56.85,-193.41 59.75,-187.04"/>
</a>
</g>
</g>
<!-- Node2&#45;&gt;Node5 -->
<g id="edge4_Node000002_Node000005" class="edge">
<title>Node2&#45;&gt;Node5</title>
<g id="a_edge4_Node000002_Node000005"><a xlink:title=" ">
<path fill="none" stroke="#63b8ff" d="M155.9,-220.59C165.3,-212.9 179.02,-201.65 190.28,-192.43"/>
<polygon fill="#63b8ff" stroke="#63b8ff" points="192.32,-195.28 197.84,-186.23 187.89,-189.86 192.32,-195.28"/>
</a>
</g>
</g>
<!-- Node5&#45;&gt;Node3 -->
<g id="edge5_Node000005_Node000003" class="edge">
<title>Node5&#45;&gt;Node3</title>
<g id="a_edge5_Node000005_Node000003"><a xlink:title=" ">
<path fill="none" stroke="#63b8ff" d="M202.21,-165.57C194.87,-156.86 183.77,-142.96 175.88,-129.75 155.96,-96.39 138.54,-54.41 129.18,-30.24"/>
<polygon fill="#63b8ff" stroke="#63b8ff" points="132.51,-29.15 125.69,-21.05 125.97,-31.64 132.51,-29.15"/>
</a>
</g>
</g>
<!-- Node6 -->
<g id="Node000006" class="node">
<title>Node6</title>
<g id="a_Node000006"><a xlink:title=" ">
<polygon fill="#e0e0e0" stroke="#999999" points="243.5,-19.25 198.25,-19.25 198.25,0 243.5,0 243.5,-19.25"/>
<text text-anchor="middle" x="220.88" y="-5.75" font-family="Helvetica,sans-Serif" font-size="10.00">cstring</text>
</a>
</g>
</g>
<!-- Node5&#45;&gt;Node6 -->
<g id="edge6_Node000005_Node000006" class="edge">
<title>Node5&#45;&gt;Node6</title>
<g id="a_edge6_Node000005_Node000006"><a xlink:title=" ">
<path fill="none" stroke="#63b8ff" d="M203.97,-165.47C191.41,-145.35 164.39,-94.99 179.88,-55.25 184.04,-44.57 192.09,-34.89 199.96,-27.3"/>
<polygon fill="#63b8ff" stroke="#63b8ff" points="202.26,-29.94 207.42,-20.68 197.62,-24.7 202.26,-29.94"/>
</a>
</g>
</g>
<!-- Node7 -->
<g id="Node000007" class="node">
<title>Node7</title>
<g id="a_Node000007"><a xlink:title=" ">
<polygon fill="#e0e0e0" stroke="#999999" points="311.5,-19.25 272.25,-19.25 272.25,0 311.5,0 311.5,-19.25"/>
<text text-anchor="middle" x="291.88" y="-5.75" font-family="Helvetica,sans-Serif" font-size="10.00">limits</text>
</a>
</g>
</g>
<!-- Node5&#45;&gt;Node7 -->
<g id="edge7_Node000005_Node000007" class="edge">
<title>Node5&#45;&gt;Node7</title>
<g id="a_edge7_Node000005_Node000007"><a xlink:title=" ">
<path fill="none" stroke="#63b8ff" d="M222.14,-165.3C242.32,-149.5 281.79,-114.77 296.88,-74.5 302.14,-60.45 300.47,-43.47 297.71,-30.55"/>
<polygon fill="#63b8ff" stroke="#63b8ff" points="301.16,-29.93 295.29,-21.1 294.38,-31.66 301.16,-29.93"/>
</a>
</g>
</g>
<!-- Node8 -->
<g id="Node000008" class="node">
<title>Node8</title>
<g id="a_Node000008"><a xlink:title=" ">
<polygon fill="#e0e0e0" stroke="#999999" points="231.38,-74.5 188.38,-74.5 188.38,-55.25 231.38,-55.25 231.38,-74.5"/>
<text text-anchor="middle" x="209.88" y="-61" font-family="Helvetica,sans-Serif" font-size="10.00">cmath</text>
</a>
</g>
</g>
<!-- Node5&#45;&gt;Node8 -->
<g id="edge8_Node000005_Node000008" class="edge">
<title>Node5&#45;&gt;Node8</title>
<g id="a_edge8_Node000005_Node000008"><a xlink:title=" ">
<path fill="none" stroke="#63b8ff" d="M209.88,-165.5C209.88,-148.25 209.88,-109.83 209.88,-86.06"/>
<polygon fill="#63b8ff" stroke="#63b8ff" points="213.38,-86.39 209.88,-76.39 206.38,-86.39 213.38,-86.39"/>
</a>
</g>
</g>
<!-- Node5&#45;&gt;Node9 -->
<g id="edge9_Node000005_Node000009" class="edge">
<title>Node5&#45;&gt;Node9</title>
<g id="a_edge9_Node000005_Node000009"><a xlink:title=" ">
<path fill="none" stroke="#63b8ff" d="M230.4,-165.34C249.44,-156.97 278.03,-144.38 299.85,-134.78"/>
<polygon fill="#63b8ff" stroke="#63b8ff" points="301.12,-138.04 308.86,-130.81 298.3,-131.64 301.12,-138.04"/>
</a>
</g>
</g>
<!-- Node9&#45;&gt;Node8 -->
<g id="edge10_Node000009_Node000008" class="edge">
<title>Node9&#45;&gt;Node8</title>
<g id="a_edge10_Node000009_Node000008"><a xlink:title=" ">
<path fill="none" stroke="#63b8ff" d="M310.35,-110.09C291.31,-101.72 262.72,-89.13 240.9,-79.53"/>
<polygon fill="#63b8ff" stroke="#63b8ff" points="242.45,-76.39 231.89,-75.56 239.63,-82.79 242.45,-76.39"/>
</a>
</g>
</g>
<!-- Node10 -->
<g id="Node000010" class="node">
<title>Node10</title>
<g id="a_Node000010"><a xlink:title=" ">
<polygon fill="#e0e0e0" stroke="#999999" points="388.12,-74.5 343.62,-74.5 343.62,-55.25 388.12,-55.25 388.12,-74.5"/>
<text text-anchor="middle" x="365.88" y="-61" font-family="Helvetica,sans-Serif" font-size="10.00">cstdlib</text>
</a>
</g>
</g>
<!-- Node9&#45;&gt;Node10 -->
<g id="edge11_Node000009_Node000010" class="edge">
<title>Node9&#45;&gt;Node10</title>
<g id="a_edge11_Node000009_Node000010"><a xlink:title=" ">
<path fill="none" stroke="#63b8ff" d="M336.65,-110.33C341.29,-103.28 347.95,-93.15 353.74,-84.33"/>
<polygon fill="#63b8ff" stroke="#63b8ff" points="356.57,-86.4 359.14,-76.12 350.72,-82.56 356.57,-86.4"/>
</a>
</g>
</g>
<!-- Node11 -->
<g id="Node000011" class="node">
<title>Node11</title>
<g id="a_Node000011"><a xlink:href="a00167.xhtml" target="_top" xlink:title=" ">
<polygon fill="white" stroke="#666666" points="465.25,-74.5 406.5,-74.5 406.5,-55.25 465.25,-55.25 465.25,-74.5"/>
<text text-anchor="middle" x="435.88" y="-61" font-family="Helvetica,sans-Serif" font-size="10.00">ErrorDef.h</text>
</a>
</g>
</g>
<!-- Node9&#45;&gt;Node11 -->
<g id="edge12_Node000009_Node000011" class="edge">
<title>Node9&#45;&gt;Node11</title>
<g id="a_edge12_Node000009_Node000011"><a xlink:title=" ">
<path fill="none" stroke="#63b8ff" d="M348.69,-110.09C364.9,-101.87 389.11,-89.59 407.91,-80.06"/>
<polygon fill="#63b8ff" stroke="#63b8ff" points="409.29,-83.28 416.63,-75.64 406.12,-77.04 409.29,-83.28"/>
</a>
</g>
</g>
<!-- Node12 -->
<g id="Node000012" class="node">
<title>Node12</title>
<g id="a_Node000012"><a xlink:href="a00191.xhtml" target="_top" xlink:title=" ">
<polygon fill="white" stroke="#666666" points="288.12,-74.5 249.62,-74.5 249.62,-55.25 288.12,-55.25 288.12,-74.5"/>
<text text-anchor="middle" x="268.88" y="-61" font-family="Helvetica,sans-Serif" font-size="10.00">Util.h</text>
</a>
</g>
</g>
<!-- Node9&#45;&gt;Node12 -->
<g id="edge13_Node000009_Node000012" class="edge">
<title>Node9&#45;&gt;Node12</title>
<g id="a_edge13_Node000009_Node000012"><a xlink:title=" ">
<path fill="none" stroke="#63b8ff" d="M320.36,-110.09C311.49,-102.47 298.56,-91.37 287.89,-82.2"/>
<polygon fill="#63b8ff" stroke="#63b8ff" points="290.25,-79.62 280.39,-75.76 285.69,-84.93 290.25,-79.62"/>
</a>
</g>
</g>
<!-- Node12&#45;&gt;Node3 -->
<g id="edge14_Node000012_Node000003" class="edge">
<title>Node12&#45;&gt;Node3</title>
<g id="a_edge14_Node000012_Node000003"><a xlink:title=" ">
<path fill="none" stroke="#63b8ff" d="M249.35,-56.8C225.81,-48.27 185.79,-33.78 156.86,-23.3"/>
<polygon fill="#63b8ff" stroke="#63b8ff" points="158.4,-20.13 147.8,-20.02 156.01,-26.71 158.4,-20.13"/>
</a>
</g>
</g>
<!-- Node12&#45;&gt;Node6 -->
<g id="edge15_Node000012_Node000006" class="edge">
<title>Node12&#45;&gt;Node6</title>
<g id="a_edge15_Node000012_Node000006"><a xlink:title=" ">
<path fill="none" stroke="#63b8ff" d="M260.95,-55.08C254.32,-47.73 244.66,-37.01 236.49,-27.94"/>
<polygon fill="#63b8ff" stroke="#63b8ff" points="239.28,-25.82 229.99,-20.73 234.08,-30.5 239.28,-25.82"/>
</a>
</g>
</g>
<!-- Node12&#45;&gt;Node7 -->
<g id="edge16_Node000012_Node000007" class="edge">
<title>Node12&#45;&gt;Node7</title>
<g id="a_edge16_Node000012_Node000007"><a xlink:title=" ">
<path fill="none" stroke="#63b8ff" d="M272.67,-55.08C275.62,-48.26 279.81,-38.56 283.53,-29.95"/>
<polygon fill="#63b8ff" stroke="#63b8ff" points="286.64,-31.57 287.39,-21 280.22,-28.79 286.64,-31.57"/>
</a>
</g>
</g>
<!-- Node13&#45;&gt;Node11 -->
<g id="edge20_Node000013_Node000011" class="edge">
<title>Node13&#45;&gt;Node11</title>
<g id="a_edge20_Node000013_Node000011"><a xlink:title=" ">
<path fill="none" stroke="#63b8ff" d="M435.88,-110.33C435.88,-103.82 435.88,-94.67 435.88,-86.37"/>
<polygon fill="#63b8ff" stroke="#63b8ff" points="439.38,-86.37 435.88,-76.37 432.38,-86.37 439.38,-86.37"/>
</a>
</g>
</g>
</g>
</svg>
</svg>

<style type='text/css'>
<![CDATA[
[data-mouse-over-selected='false'] { opacity: 0.7; }
[data-mouse-over-selected='true']  { opacity: 1.0; }
]]>
</style>
<script type="application/ecmascript"><![CDATA[
document.addEventListener('DOMContentLoaded', (event) => {
  highlightEdges();
  highlightAdjacentNodes();
});
]]></script>
</svg>
