<?xml version="1.0" encoding="UTF-8" standalone="no"?>
<!DOCTYPE svg PUBLIC "-//W3C//DTD SVG 1.1//EN"
 "http://www.w3.org/Graphics/SVG/1.1/DTD/svg11.dtd">
<!-- Generated by graphviz version 4.0.0 (20220602.1335)
 -->
<!-- Title: Fft.h Pages: 1 -->
<svg width="1542pt" height="196pt"
 viewBox="0.00 0.00 1541.50 196.00" xmlns="http://www.w3.org/2000/svg" xmlns:xlink="http://www.w3.org/1999/xlink">
<g id="graph0" class="graph" transform="scale(1 1) rotate(0) translate(4 192)">
<title>Fft.h</title>
<polygon fill="white" stroke="transparent" points="-4,4 -4,-192 1537.5,-192 1537.5,4 -4,4"/>
<!-- Node1 -->
<g id="node1" class="node">
<title>Node1</title>
<g id="a_node1"><a xlink:title=" ">
<polygon fill="#bfbfbf" stroke="black" points="382,-168.5 382,-187.5 418,-187.5 418,-168.5 382,-168.5"/>
<text text-anchor="middle" x="400" y="-175.5" font-family="Helvetica,sans-Serif" font-size="10.00">Fft.h</text>
</a>
</g>
</g>
<!-- Node2 -->
<g id="node2" class="node">
<title>Node2</title>
<g id="a_node2"><a xlink:href="a00086.xhtml" target="_top" xlink:title=" ">
<polygon fill="white" stroke="black" points="0,-112.5 0,-131.5 78,-131.5 78,-112.5 0,-112.5"/>
<text text-anchor="middle" x="39" y="-119.5" font-family="Helvetica,sans-Serif" font-size="10.00">BeatHisto.cpp</text>
</a>
</g>
</g>
<!-- Node1&#45;&gt;Node2 -->
<g id="edge1" class="edge">
<title>Node1&#45;&gt;Node2</title>
<path fill="none" stroke="midnightblue" d="M371.96,-173.38C317.12,-166.2 191.85,-149.36 87,-132 84.07,-131.52 81.05,-130.99 78.01,-130.46"/>
<polygon fill="midnightblue" stroke="midnightblue" points="371.59,-176.86 381.96,-174.68 372.5,-169.92 371.59,-176.86"/>
</g>
<!-- Node3 -->
<g id="node3" class="node">
<title>Node3</title>
<g id="a_node3"><a xlink:href="a00113.xhtml" target="_top" xlink:title=" ">
<polygon fill="white" stroke="black" points="96,-112.5 96,-131.5 156,-131.5 156,-112.5 96,-112.5"/>
<text text-anchor="middle" x="126" y="-119.5" font-family="Helvetica,sans-Serif" font-size="10.00">Chord.cpp</text>
</a>
</g>
</g>
<!-- Node1&#45;&gt;Node3 -->
<g id="edge2" class="edge">
<title>Node1&#45;&gt;Node3</title>
<path fill="none" stroke="midnightblue" d="M371.99,-171.99C327.87,-164.02 239.53,-147.73 165,-132 162.14,-131.4 159.18,-130.75 156.21,-130.09"/>
<polygon fill="midnightblue" stroke="midnightblue" points="371.51,-175.46 381.97,-173.79 372.75,-168.57 371.51,-175.46"/>
</g>
<!-- Node4 -->
<g id="node4" class="node">
<title>Node4</title>
<g id="a_node4"><a xlink:href="a00053.xhtml" target="_top" xlink:title=" ">
<polygon fill="white" stroke="black" points="174,-112.5 174,-131.5 242,-131.5 242,-112.5 174,-112.5"/>
<text text-anchor="middle" x="208" y="-119.5" font-family="Helvetica,sans-Serif" font-size="10.00">Feature.cpp</text>
</a>
</g>
</g>
<!-- Node1&#45;&gt;Node4 -->
<g id="edge3" class="edge">
<title>Node1&#45;&gt;Node4</title>
<path fill="none" stroke="midnightblue" d="M372.2,-169.18C336.61,-159.17 275.16,-141.89 238.37,-131.54"/>
<polygon fill="midnightblue" stroke="midnightblue" points="371.36,-172.58 381.94,-171.92 373.26,-165.84 371.36,-172.58"/>
</g>
<!-- Node5 -->
<g id="node5" class="node">
<title>Node5</title>
<g id="a_node5"><a xlink:href="a00074.xhtml" target="_top" xlink:title=" ">
<polygon fill="white" stroke="black" points="260.5,-112.5 260.5,-131.5 307.5,-131.5 307.5,-112.5 260.5,-112.5"/>
<text text-anchor="middle" x="284" y="-119.5" font-family="Helvetica,sans-Serif" font-size="10.00">Fft.cpp</text>
</a>
</g>
</g>
<!-- Node1&#45;&gt;Node5 -->
<g id="edge4" class="edge">
<title>Node1&#45;&gt;Node5</title>
<path fill="none" stroke="midnightblue" d="M372.55,-164.22C350.89,-154.14 321.27,-140.35 302.38,-131.56"/>
<polygon fill="midnightblue" stroke="midnightblue" points="371.33,-167.52 381.88,-168.56 374.29,-161.17 371.33,-167.52"/>
</g>
<!-- Node6 -->
<g id="node6" class="node">
<title>Node6</title>
<g id="a_node6"><a xlink:href="a00095.xhtml" target="_top" xlink:title=" ">
<polygon fill="white" stroke="black" points="326,-112.5 326,-131.5 394,-131.5 394,-112.5 326,-112.5"/>
<text text-anchor="middle" x="360" y="-119.5" font-family="Helvetica,sans-Serif" font-size="10.00">Novelty.cpp</text>
</a>
</g>
</g>
<!-- Node1&#45;&gt;Node6 -->
<g id="edge5" class="edge">
<title>Node1&#45;&gt;Node6</title>
<path fill="none" stroke="midnightblue" d="M387.3,-159.86C380.37,-150.5 372.09,-139.33 366.48,-131.75"/>
<polygon fill="midnightblue" stroke="midnightblue" points="384.63,-162.13 393.39,-168.08 390.25,-157.96 384.63,-162.13"/>
</g>
<!-- Node7 -->
<g id="node7" class="node">
<title>Node7</title>
<g id="a_node7"><a xlink:href="a00077.xhtml" target="_top" xlink:title=" ">
<polygon fill="white" stroke="black" points="412.5,-112.5 412.5,-131.5 469.5,-131.5 469.5,-112.5 412.5,-112.5"/>
<text text-anchor="middle" x="441" y="-119.5" font-family="Helvetica,sans-Serif" font-size="10.00">Pitch.cpp</text>
</a>
</g>
</g>
<!-- Node1&#45;&gt;Node7 -->
<g id="edge6" class="edge">
<title>Node1&#45;&gt;Node7</title>
<path fill="none" stroke="midnightblue" d="M413.02,-159.86C420.12,-150.5 428.6,-139.33 434.36,-131.75"/>
<polygon fill="midnightblue" stroke="midnightblue" points="410.03,-158 406.77,-168.08 415.61,-162.24 410.03,-158"/>
</g>
<!-- Node8 -->
<g id="node8" class="node">
<title>Node8</title>
<g id="a_node8"><a xlink:href="a00089.xhtml" target="_top" xlink:title=" ">
<polygon fill="white" stroke="black" points="488,-112.5 488,-131.5 578,-131.5 578,-112.5 488,-112.5"/>
<text text-anchor="middle" x="533" y="-119.5" font-family="Helvetica,sans-Serif" font-size="10.00">Spectrogram.cpp</text>
</a>
</g>
</g>
<!-- Node1&#45;&gt;Node8 -->
<g id="edge7" class="edge">
<title>Node1&#45;&gt;Node8</title>
<path fill="none" stroke="midnightblue" d="M427.54,-165.82C452.62,-155.64 489.12,-140.82 511.94,-131.55"/>
<polygon fill="midnightblue" stroke="midnightblue" points="426.16,-162.6 418.21,-169.6 428.8,-169.09 426.16,-162.6"/>
</g>
<!-- Node9 -->
<g id="node9" class="node">
<title>Node9</title>
<g id="a_node9"><a xlink:href="a00107.xhtml" target="_top" xlink:title=" ">
<polygon fill="white" stroke="black" points="596,-112.5 596,-131.5 664,-131.5 664,-112.5 596,-112.5"/>
<text text-anchor="middle" x="630" y="-119.5" font-family="Helvetica,sans-Serif" font-size="10.00">ToolCcf.cpp</text>
</a>
</g>
</g>
<!-- Node1&#45;&gt;Node9 -->
<g id="edge8" class="edge">
<title>Node1&#45;&gt;Node9</title>
<path fill="none" stroke="midnightblue" d="M427.94,-170.44C470.21,-160.52 550.33,-141.71 595.95,-130.99"/>
<polygon fill="midnightblue" stroke="midnightblue" points="426.98,-167.07 418.05,-172.76 428.58,-173.88 426.98,-167.07"/>
</g>
<!-- Node10 -->
<g id="node10" class="node">
<title>Node10</title>
<g id="a_node10"><a xlink:href="a00071.xhtml" target="_top" xlink:title=" ">
<polygon fill="white" stroke="black" points="682.5,-112.5 682.5,-131.5 781.5,-131.5 781.5,-112.5 682.5,-112.5"/>
<text text-anchor="middle" x="732" y="-119.5" font-family="Helvetica,sans-Serif" font-size="10.00">ToolFingerprint.cpp</text>
</a>
</g>
</g>
<!-- Node1&#45;&gt;Node10 -->
<g id="edge9" class="edge">
<title>Node1&#45;&gt;Node10</title>
<path fill="none" stroke="midnightblue" d="M428.32,-172.39C484.77,-163.21 611.91,-142.53 682.47,-131.06"/>
<polygon fill="midnightblue" stroke="midnightblue" points="427.63,-168.96 418.32,-174.02 428.75,-175.87 427.63,-168.96"/>
</g>
<!-- Node11 -->
<g id="node11" class="node">
<title>Node11</title>
<g id="a_node11"><a xlink:href="a00203.xhtml" target="_top" xlink:title=" ">
<polygon fill="white" stroke="black" points="799.5,-112.5 799.5,-131.5 878.5,-131.5 878.5,-112.5 799.5,-112.5"/>
<text text-anchor="middle" x="839" y="-119.5" font-family="Helvetica,sans-Serif" font-size="10.00">ToolInstFreq.h</text>
</a>
</g>
</g>
<!-- Node1&#45;&gt;Node11 -->
<g id="edge10" class="edge">
<title>Node1&#45;&gt;Node11</title>
<path fill="none" stroke="midnightblue" d="M428.61,-174.41C493.34,-168.39 655.92,-152.41 791,-132 793.77,-131.58 796.62,-131.12 799.48,-130.64"/>
<polygon fill="midnightblue" stroke="midnightblue" points="428.02,-170.95 418.38,-175.35 428.66,-177.92 428.02,-170.95"/>
</g>
<!-- Node12 -->
<g id="node12" class="node">
<title>Node12</title>
<g id="a_node12"><a xlink:href="a00218.xhtml" target="_top" xlink:title=" ">
<polygon fill="white" stroke="black" points="812.5,-56.5 812.5,-75.5 865.5,-75.5 865.5,-56.5 812.5,-56.5"/>
<text text-anchor="middle" x="839" y="-63.5" font-family="Helvetica,sans-Serif" font-size="10.00">AcaAll.h</text>
</a>
</g>
</g>
<!-- Node11&#45;&gt;Node12 -->
<g id="edge11" class="edge">
<title>Node11&#45;&gt;Node12</title>
<path fill="none" stroke="midnightblue" d="M839,-101.8C839,-92.91 839,-82.78 839,-75.75"/>
<polygon fill="midnightblue" stroke="midnightblue" points="835.5,-102.08 839,-112.08 842.5,-102.08 835.5,-102.08"/>
</g>
<!-- Node13 -->
<g id="node13" class="node">
<title>Node13</title>
<g id="a_node13"><a xlink:href="a00035.xhtml" target="_top" xlink:title=" ">
<polygon fill="white" stroke="black" points="254.5,-0.5 254.5,-19.5 317.5,-19.5 317.5,-0.5 254.5,-0.5"/>
<text text-anchor="middle" x="286" y="-7.5" font-family="Helvetica,sans-Serif" font-size="10.00">AcaAll.cpp</text>
</a>
</g>
</g>
<!-- Node12&#45;&gt;Node13 -->
<g id="edge12" class="edge">
<title>Node12&#45;&gt;Node13</title>
<path fill="none" stroke="midnightblue" d="M802.39,-63.4C718.1,-59.36 504,-47.09 327,-20 323.97,-19.54 320.84,-18.98 317.71,-18.38"/>
<polygon fill="midnightblue" stroke="midnightblue" points="802.32,-66.9 812.48,-63.87 802.65,-59.91 802.32,-66.9"/>
</g>
<!-- Node14 -->
<g id="node14" class="node">
<title>Node14</title>
<g id="a_node14"><a xlink:href="a00017.xhtml" target="_top" xlink:title=" ">
<polygon fill="white" stroke="black" points="335.5,-0.5 335.5,-19.5 452.5,-19.5 452.5,-0.5 335.5,-0.5"/>
<text text-anchor="middle" x="394" y="-7.5" font-family="Helvetica,sans-Serif" font-size="10.00">ComputeBeatHisto.cpp</text>
</a>
</g>
</g>
<!-- Node12&#45;&gt;Node14 -->
<g id="edge13" class="edge">
<title>Node12&#45;&gt;Node14</title>
<path fill="none" stroke="midnightblue" d="M802.37,-60.79C734.97,-53 586.78,-35.7 462,-20 458.93,-19.61 455.78,-19.21 452.6,-18.8"/>
<polygon fill="midnightblue" stroke="midnightblue" points="802.14,-64.28 812.48,-61.95 802.94,-57.33 802.14,-64.28"/>
</g>
<!-- Node15 -->
<g id="node15" class="node">
<title>Node15</title>
<g id="a_node15"><a xlink:href="a00023.xhtml" target="_top" xlink:title=" ">
<polygon fill="white" stroke="black" points="471,-0.5 471,-19.5 575,-19.5 575,-0.5 471,-0.5"/>
<text text-anchor="middle" x="523" y="-7.5" font-family="Helvetica,sans-Serif" font-size="10.00">ComputeChords.cpp</text>
</a>
</g>
</g>
<!-- Node12&#45;&gt;Node15 -->
<g id="edge14" class="edge">
<title>Node12&#45;&gt;Node15</title>
<path fill="none" stroke="midnightblue" d="M802.38,-58.74C745.67,-49.05 636.54,-30.4 572.74,-19.5"/>
<polygon fill="midnightblue" stroke="midnightblue" points="801.88,-62.21 812.33,-60.44 803.06,-55.31 801.88,-62.21"/>
</g>
<!-- Node16 -->
<g id="node16" class="node">
<title>Node16</title>
<g id="a_node16"><a xlink:href="a00002.xhtml" target="_top" xlink:title=" ">
<polygon fill="white" stroke="black" points="593.5,-0.5 593.5,-19.5 700.5,-19.5 700.5,-0.5 593.5,-0.5"/>
<text text-anchor="middle" x="647" y="-7.5" font-family="Helvetica,sans-Serif" font-size="10.00">ComputeFeature.cpp</text>
</a>
</g>
</g>
<!-- Node12&#45;&gt;Node16 -->
<g id="edge15" class="edge">
<title>Node12&#45;&gt;Node16</title>
<path fill="none" stroke="midnightblue" d="M802.6,-54.76C766.31,-44.56 711.23,-29.06 677.26,-19.51"/>
<polygon fill="midnightblue" stroke="midnightblue" points="801.73,-58.15 812.3,-57.49 803.62,-51.41 801.73,-58.15"/>
</g>
<!-- Node17 -->
<g id="node17" class="node">
<title>Node17</title>
<g id="a_node17"><a xlink:href="a00020.xhtml" target="_top" xlink:title=" ">
<polygon fill="white" stroke="black" points="718.5,-0.5 718.5,-19.5 837.5,-19.5 837.5,-0.5 718.5,-0.5"/>
<text text-anchor="middle" x="778" y="-7.5" font-family="Helvetica,sans-Serif" font-size="10.00">ComputeFingerprint.cpp</text>
</a>
</g>
</g>
<!-- Node12&#45;&gt;Node17 -->
<g id="edge16" class="edge">
<title>Node12&#45;&gt;Node17</title>
<path fill="none" stroke="midnightblue" d="M821.53,-49.54C810.66,-39.91 797.06,-27.87 787.98,-19.83"/>
<polygon fill="midnightblue" stroke="midnightblue" points="819.39,-52.32 829.2,-56.32 824.03,-47.07 819.39,-52.32"/>
</g>
<!-- Node18 -->
<g id="node18" class="node">
<title>Node18</title>
<g id="a_node18"><a xlink:href="a00026.xhtml" target="_top" xlink:title=" ">
<polygon fill="white" stroke="black" points="856,-0.5 856,-19.5 946,-19.5 946,-0.5 856,-0.5"/>
<text text-anchor="middle" x="901" y="-7.5" font-family="Helvetica,sans-Serif" font-size="10.00">ComputeKey.cpp</text>
</a>
</g>
</g>
<!-- Node12&#45;&gt;Node18 -->
<g id="edge17" class="edge">
<title>Node12&#45;&gt;Node18</title>
<path fill="none" stroke="midnightblue" d="M856.75,-49.54C867.81,-39.91 881.63,-27.87 890.86,-19.83"/>
<polygon fill="midnightblue" stroke="midnightblue" points="854.2,-47.12 848.96,-56.32 858.8,-52.4 854.2,-47.12"/>
</g>
<!-- Node19 -->
<g id="node19" class="node">
<title>Node19</title>
<g id="a_node19"><a xlink:href="a00116.xhtml" target="_top" xlink:title=" ">
<polygon fill="white" stroke="black" points="964.5,-0.5 964.5,-19.5 1109.5,-19.5 1109.5,-0.5 964.5,-0.5"/>
<text text-anchor="middle" x="1037" y="-7.5" font-family="Helvetica,sans-Serif" font-size="10.00">ComputeMelSpectrogram.cpp</text>
</a>
</g>
</g>
<!-- Node12&#45;&gt;Node19 -->
<g id="edge18" class="edge">
<title>Node12&#45;&gt;Node19</title>
<path fill="none" stroke="midnightblue" d="M875.66,-55C912.97,-44.83 970.18,-29.22 1005.5,-19.59"/>
<polygon fill="midnightblue" stroke="midnightblue" points="874.43,-51.71 865.7,-57.72 876.27,-58.46 874.43,-51.71"/>
</g>
<!-- Node20 -->
<g id="node20" class="node">
<title>Node20</title>
<g id="a_node20"><a xlink:href="a00029.xhtml" target="_top" xlink:title=" ">
<polygon fill="white" stroke="black" points="1128,-0.5 1128,-19.5 1272,-19.5 1272,-0.5 1128,-0.5"/>
<text text-anchor="middle" x="1200" y="-7.5" font-family="Helvetica,sans-Serif" font-size="10.00">ComputeNoveltyFunction.cpp</text>
</a>
</g>
</g>
<!-- Node12&#45;&gt;Node20 -->
<g id="edge19" class="edge">
<title>Node12&#45;&gt;Node20</title>
<path fill="none" stroke="midnightblue" d="M875.81,-59.49C938.89,-50.06 1068.07,-30.74 1142.92,-19.54"/>
<polygon fill="midnightblue" stroke="midnightblue" points="874.92,-56.09 865.55,-61.03 875.95,-63.01 874.92,-56.09"/>
</g>
<!-- Node21 -->
<g id="node21" class="node">
<title>Node21</title>
<g id="a_node21"><a xlink:href="a00119.xhtml" target="_top" xlink:title=" ">
<polygon fill="white" stroke="black" points="1290,-0.5 1290,-19.5 1386,-19.5 1386,-0.5 1290,-0.5"/>
<text text-anchor="middle" x="1338" y="-7.5" font-family="Helvetica,sans-Serif" font-size="10.00">ComputePitch.cpp</text>
</a>
</g>
</g>
<!-- Node12&#45;&gt;Node21 -->
<g id="edge20" class="edge">
<title>Node12&#45;&gt;Node21</title>
<path fill="none" stroke="midnightblue" d="M875.72,-61.95C951.58,-55.5 1131.05,-39.46 1281,-20 1283.88,-19.63 1286.84,-19.22 1289.82,-18.8"/>
<polygon fill="midnightblue" stroke="midnightblue" points="875.38,-58.47 865.71,-62.8 875.97,-65.44 875.38,-58.47"/>
</g>
<!-- Node22 -->
<g id="node22" class="node">
<title>Node22</title>
<g id="a_node22"><a xlink:href="a00014.xhtml" target="_top" xlink:title=" ">
<polygon fill="white" stroke="black" points="1404.5,-0.5 1404.5,-19.5 1533.5,-19.5 1533.5,-0.5 1404.5,-0.5"/>
<text text-anchor="middle" x="1469" y="-7.5" font-family="Helvetica,sans-Serif" font-size="10.00">ComputeSpectrogram.cpp</text>
</a>
</g>
</g>
<!-- Node12&#45;&gt;Node22 -->
<g id="edge21" class="edge">
<title>Node12&#45;&gt;Node22</title>
<path fill="none" stroke="midnightblue" d="M875.79,-62.54C964.96,-56.46 1199.64,-39.78 1395,-20 1398.09,-19.69 1401.25,-19.35 1404.44,-19.01"/>
<polygon fill="midnightblue" stroke="midnightblue" points="875.39,-59.06 865.65,-63.23 875.87,-66.04 875.39,-59.06"/>
</g>
</g>
</svg>
