<?xml version="1.0" encoding="UTF-8" standalone="no"?>
<!DOCTYPE svg PUBLIC "-//W3C//DTD SVG 1.1//EN"
 "http://www.w3.org/Graphics/SVG/1.1/DTD/svg11.dtd">
<!-- Generated by graphviz version 4.0.0 (20220602.1335)
 -->
<!-- Title: Vector.h Pages: 1 -->
<svg width="2098pt" height="308pt"
 viewBox="0.00 0.00 2097.50 308.00" xmlns="http://www.w3.org/2000/svg" xmlns:xlink="http://www.w3.org/1999/xlink">
<g id="graph0" class="graph" transform="scale(1 1) rotate(0) translate(4 304)">
<title>Vector.h</title>
<polygon fill="white" stroke="transparent" points="-4,4 -4,-304 2093.5,-304 2093.5,4 -4,4"/>
<!-- Node1 -->
<g id="node1" class="node">
<title>Node1</title>
<g id="a_node1"><a xlink:title=" ">
<polygon fill="#bfbfbf" stroke="black" points="875,-280.5 875,-299.5 928,-299.5 928,-280.5 875,-280.5"/>
<text text-anchor="middle" x="901.5" y="-287.5" font-family="Helvetica,sans-Serif" font-size="10.00">Vector.h</text>
</a>
</g>
</g>
<!-- Node2 -->
<g id="node2" class="node">
<title>Node2</title>
<g id="a_node2"><a xlink:href="a00008.xhtml" target="_top" xlink:title=" ">
<polygon fill="white" stroke="black" points="0,-224.5 0,-243.5 75,-243.5 75,-224.5 0,-224.5"/>
<text text-anchor="middle" x="37.5" y="-231.5" font-family="Helvetica,sans-Serif" font-size="10.00">AudioFile.cpp</text>
</a>
</g>
</g>
<!-- Node1&#45;&gt;Node2 -->
<g id="edge1" class="edge">
<title>Node1&#45;&gt;Node2</title>
<path fill="none" stroke="midnightblue" d="M864.74,-288.48C749.86,-286.53 387.42,-277.92 89.5,-244 84.86,-243.47 80,-242.8 75.2,-242.05"/>
<polygon fill="midnightblue" stroke="midnightblue" points="864.71,-291.98 874.77,-288.64 864.83,-284.98 864.71,-291.98"/>
</g>
<!-- Node3 -->
<g id="node3" class="node">
<title>Node3</title>
<g id="a_node3"><a xlink:href="a00080.xhtml" target="_top" xlink:title=" ">
<polygon fill="white" stroke="black" points="2011.5,-168.5 2011.5,-187.5 2089.5,-187.5 2089.5,-168.5 2011.5,-168.5"/>
<text text-anchor="middle" x="2050.5" y="-175.5" font-family="Helvetica,sans-Serif" font-size="10.00">BeatHisto.cpp</text>
</a>
</g>
</g>
<!-- Node1&#45;&gt;Node3 -->
<g id="edge2" class="edge">
<title>Node1&#45;&gt;Node3</title>
<path fill="none" stroke="midnightblue" d="M938.34,-289.49C1059.18,-290.58 1454.21,-290.13 1776.5,-244 1867.49,-230.98 1972.61,-202.03 2022.03,-187.57"/>
<polygon fill="midnightblue" stroke="midnightblue" points="938.19,-285.99 928.16,-289.39 938.12,-292.99 938.19,-285.99"/>
</g>
<!-- Node4 -->
<g id="node4" class="node">
<title>Node4</title>
<g id="a_node4"><a xlink:href="a00056.xhtml" target="_top" xlink:title=" ">
<polygon fill="white" stroke="black" points="403,-168.5 403,-187.5 510,-187.5 510,-168.5 403,-168.5"/>
<text text-anchor="middle" x="456.5" y="-175.5" font-family="Helvetica,sans-Serif" font-size="10.00">ChordFromBlock.cpp</text>
</a>
</g>
</g>
<!-- Node1&#45;&gt;Node4 -->
<g id="edge3" class="edge">
<title>Node1&#45;&gt;Node4</title>
<path fill="none" stroke="midnightblue" d="M865.05,-279.45C836.76,-271.49 796.85,-259.03 763.5,-244 747.52,-236.8 745.98,-229.97 729.5,-224 719.27,-220.29 586.68,-199.28 510.12,-187.32"/>
<polygon fill="midnightblue" stroke="midnightblue" points="864.35,-282.89 874.92,-282.18 866.22,-276.14 864.35,-282.89"/>
</g>
<!-- Node5 -->
<g id="node5" class="node">
<title>Node5</title>
<g id="a_node5"><a xlink:href="a00038.xhtml" target="_top" xlink:title=" ">
<polygon fill="white" stroke="black" points="528,-168.5 528,-187.5 643,-187.5 643,-168.5 528,-168.5"/>
<text text-anchor="middle" x="585.5" y="-175.5" font-family="Helvetica,sans-Serif" font-size="10.00">FeatureFromBlock.cpp</text>
</a>
</g>
</g>
<!-- Node1&#45;&gt;Node5 -->
<g id="edge4" class="edge">
<title>Node1&#45;&gt;Node5</title>
<path fill="none" stroke="midnightblue" d="M872.18,-276.37C852.13,-267.6 825.03,-255.47 801.5,-244 784.35,-235.64 781.32,-230.83 763.5,-224 720.05,-207.34 668.26,-195.05 631.78,-187.56"/>
<polygon fill="midnightblue" stroke="midnightblue" points="870.84,-279.61 881.41,-280.39 873.64,-273.19 870.84,-279.61"/>
</g>
<!-- Node6 -->
<g id="node6" class="node">
<title>Node6</title>
<g id="a_node6"><a xlink:href="a00068.xhtml" target="_top" xlink:title=" ">
<polygon fill="white" stroke="black" points="674,-224.5 674,-243.5 721,-243.5 721,-224.5 674,-224.5"/>
<text text-anchor="middle" x="697.5" y="-231.5" font-family="Helvetica,sans-Serif" font-size="10.00">Fft.cpp</text>
</a>
</g>
</g>
<!-- Node1&#45;&gt;Node6 -->
<g id="edge5" class="edge">
<title>Node1&#45;&gt;Node6</title>
<path fill="none" stroke="midnightblue" d="M865.07,-279.36C823.38,-268.32 756.34,-250.57 721.01,-241.22"/>
<polygon fill="midnightblue" stroke="midnightblue" points="864.27,-282.76 874.83,-281.94 866.06,-276 864.27,-282.76"/>
</g>
<!-- Node7 -->
<g id="node7" class="node">
<title>Node7</title>
<g id="a_node7"><a xlink:href="a00140.xhtml" target="_top" xlink:title=" ">
<polygon fill="white" stroke="black" points="1315.5,-168.5 1315.5,-187.5 1361.5,-187.5 1361.5,-168.5 1315.5,-168.5"/>
<text text-anchor="middle" x="1338.5" y="-175.5" font-family="Helvetica,sans-Serif" font-size="10.00">Filter.h</text>
</a>
</g>
</g>
<!-- Node1&#45;&gt;Node7 -->
<g id="edge6" class="edge">
<title>Node1&#45;&gt;Node7</title>
<path fill="none" stroke="midnightblue" d="M938.2,-280.19C970.92,-271.98 1019.92,-258.81 1061.5,-244 1082.5,-236.52 1086.17,-230.47 1107.5,-224 1193.51,-197.91 1218.92,-208.19 1306.5,-188 1309.42,-187.33 1312.48,-186.55 1315.5,-185.75"/>
<polygon fill="midnightblue" stroke="midnightblue" points="937.04,-276.87 928.18,-282.68 938.72,-283.67 937.04,-276.87"/>
</g>
<!-- Node8 -->
<g id="node8" class="node">
<title>Node8</title>
<g id="a_node8"><a xlink:href="a00092.xhtml" target="_top" xlink:title=" ">
<polygon fill="white" stroke="black" points="644.5,-112.5 644.5,-131.5 748.5,-131.5 748.5,-112.5 644.5,-112.5"/>
<text text-anchor="middle" x="696.5" y="-119.5" font-family="Helvetica,sans-Serif" font-size="10.00">PitchFromBlock.cpp</text>
</a>
</g>
</g>
<!-- Node1&#45;&gt;Node8 -->
<g id="edge39" class="edge">
<title>Node1&#45;&gt;Node8</title>
<path fill="none" stroke="midnightblue" d="M864.39,-287.5C757.57,-282.33 453.2,-261.3 393.5,-188 387.89,-181.11 387.69,-174.73 393.5,-168 425.28,-131.15 566.46,-123.99 644.39,-122.9"/>
<polygon fill="midnightblue" stroke="midnightblue" points="864.53,-291.01 874.68,-287.98 864.85,-284.02 864.53,-291.01"/>
</g>
<!-- Node21 -->
<g id="node21" class="node">
<title>Node21</title>
<g id="a_node21"><a xlink:href="a00125.xhtml" target="_top" xlink:title=" ">
<polygon fill="white" stroke="black" points="212,-224.5 212,-243.5 309,-243.5 309,-224.5 212,-224.5"/>
<text text-anchor="middle" x="260.5" y="-231.5" font-family="Helvetica,sans-Serif" font-size="10.00">KeyFromChroma.h</text>
</a>
</g>
</g>
<!-- Node1&#45;&gt;Node21 -->
<g id="edge20" class="edge">
<title>Node1&#45;&gt;Node21</title>
<path fill="none" stroke="midnightblue" d="M864.54,-286.01C776.98,-278.92 550.01,-260.41 360.5,-244 343.74,-242.55 325.41,-240.91 309.07,-239.44"/>
<polygon fill="midnightblue" stroke="midnightblue" points="864.51,-289.52 874.76,-286.84 865.07,-282.54 864.51,-289.52"/>
</g>
<!-- Node24 -->
<g id="node24" class="node">
<title>Node24</title>
<g id="a_node24"><a xlink:href="a00137.xhtml" target="_top" xlink:title=" ">
<polygon fill="white" stroke="black" points="929.5,-224.5 929.5,-243.5 979.5,-243.5 979.5,-224.5 929.5,-224.5"/>
<text text-anchor="middle" x="954.5" y="-231.5" font-family="Helvetica,sans-Serif" font-size="10.00">Matrix.h</text>
</a>
</g>
</g>
<!-- Node1&#45;&gt;Node24 -->
<g id="edge24" class="edge">
<title>Node1&#45;&gt;Node24</title>
<path fill="none" stroke="midnightblue" d="M917.48,-272.72C926.82,-263.2 938.25,-251.56 945.91,-243.75"/>
<polygon fill="midnightblue" stroke="midnightblue" points="914.76,-270.49 910.25,-280.08 919.75,-275.4 914.76,-270.49"/>
</g>
<!-- Node27 -->
<g id="node27" class="node">
<title>Node27</title>
<g id="a_node27"><a xlink:href="a00074.xhtml" target="_top" xlink:title=" ">
<polygon fill="white" stroke="black" points="1566,-168.5 1566,-187.5 1669,-187.5 1669,-168.5 1566,-168.5"/>
<text text-anchor="middle" x="1617.5" y="-175.5" font-family="Helvetica,sans-Serif" font-size="10.00">ToolBlockAudio.cpp</text>
</a>
</g>
</g>
<!-- Node1&#45;&gt;Node27 -->
<g id="edge40" class="edge">
<title>Node1&#45;&gt;Node27</title>
<path fill="none" stroke="midnightblue" d="M938.22,-283.01C978.28,-275.92 1043.96,-262.68 1098.5,-244 1118.44,-237.17 1121.14,-229.44 1141.5,-224 1320.37,-176.24 1372.62,-209.52 1556.5,-188 1559.58,-187.64 1562.75,-187.24 1565.94,-186.83"/>
<polygon fill="midnightblue" stroke="midnightblue" points="937.38,-279.6 928.12,-284.76 938.57,-286.5 937.38,-279.6"/>
</g>
<!-- Node29 -->
<g id="node29" class="node">
<title>Node29</title>
<g id="a_node29"><a xlink:href="a00059.xhtml" target="_top" xlink:title=" ">
<polygon fill="white" stroke="black" points="661,-168.5 661,-187.5 732,-187.5 732,-168.5 661,-168.5"/>
<text text-anchor="middle" x="696.5" y="-175.5" font-family="Helvetica,sans-Serif" font-size="10.00">ToolPca.cpp</text>
</a>
</g>
</g>
<!-- Node1&#45;&gt;Node29 -->
<g id="edge44" class="edge">
<title>Node1&#45;&gt;Node29</title>
<path fill="none" stroke="midnightblue" d="M881.38,-274.45C861.62,-260.52 830.33,-239.4 801.5,-224 774.21,-209.42 741.19,-195.9 719.56,-187.56"/>
<polygon fill="midnightblue" stroke="midnightblue" points="879.42,-277.35 889.6,-280.3 883.48,-271.65 879.42,-277.35"/>
</g>
<!-- Node30 -->
<g id="node30" class="node">
<title>Node30</title>
<g id="a_node30"><a xlink:href="a00062.xhtml" target="_top" xlink:title=" ">
<polygon fill="white" stroke="black" points="750,-168.5 750,-187.5 851,-187.5 851,-168.5 750,-168.5"/>
<text text-anchor="middle" x="800.5" y="-175.5" font-family="Helvetica,sans-Serif" font-size="10.00">ToolSimpleDtw.cpp</text>
</a>
</g>
</g>
<!-- Node1&#45;&gt;Node30 -->
<g id="edge55" class="edge">
<title>Node1&#45;&gt;Node30</title>
<path fill="none" stroke="midnightblue" d="M886.71,-272.9C865,-249.25 825.24,-205.95 808.39,-187.59"/>
<polygon fill="midnightblue" stroke="midnightblue" points="884.23,-275.37 893.57,-280.37 889.39,-270.64 884.23,-275.37"/>
</g>
<!-- Node31 -->
<g id="node31" class="node">
<title>Node31</title>
<g id="a_node31"><a xlink:href="a00041.xhtml" target="_top" xlink:title=" ">
<polygon fill="white" stroke="black" points="869,-168.5 869,-187.5 988,-187.5 988,-168.5 869,-168.5"/>
<text text-anchor="middle" x="928.5" y="-175.5" font-family="Helvetica,sans-Serif" font-size="10.00">ToolSimpleKmeans.cpp</text>
</a>
</g>
</g>
<!-- Node1&#45;&gt;Node31 -->
<g id="edge56" class="edge">
<title>Node1&#45;&gt;Node31</title>
<path fill="none" stroke="midnightblue" d="M906.08,-270.35C911.99,-246.25 922.04,-205.31 926.39,-187.59"/>
<polygon fill="midnightblue" stroke="midnightblue" points="902.6,-269.82 903.62,-280.37 909.4,-271.49 902.6,-269.82"/>
</g>
<!-- Node32 -->
<g id="node32" class="node">
<title>Node32</title>
<g id="a_node32"><a xlink:href="a00044.xhtml" target="_top" xlink:title=" ">
<polygon fill="white" stroke="black" points="1097,-168.5 1097,-187.5 1198,-187.5 1198,-168.5 1097,-168.5"/>
<text text-anchor="middle" x="1147.5" y="-175.5" font-family="Helvetica,sans-Serif" font-size="10.00">ToolSimpleKnn.cpp</text>
</a>
</g>
</g>
<!-- Node1&#45;&gt;Node32 -->
<g id="edge57" class="edge">
<title>Node1&#45;&gt;Node32</title>
<path fill="none" stroke="midnightblue" d="M926.82,-275.46C952.77,-261.78 994.47,-240.4 1031.5,-224 1062.71,-210.18 1099.58,-196.28 1123.24,-187.66"/>
<polygon fill="midnightblue" stroke="midnightblue" points="924.88,-272.52 917.68,-280.29 928.16,-278.71 924.88,-272.52"/>
</g>
<!-- Node33 -->
<g id="node33" class="node">
<title>Node33</title>
<g id="a_node33"><a xlink:href="a00077.xhtml" target="_top" xlink:title=" ">
<polygon fill="white" stroke="black" points="1216,-168.5 1216,-187.5 1297,-187.5 1297,-168.5 1216,-168.5"/>
<text text-anchor="middle" x="1256.5" y="-175.5" font-family="Helvetica,sans-Serif" font-size="10.00">ToolViterbi.cpp</text>
</a>
</g>
</g>
<!-- Node1&#45;&gt;Node33 -->
<g id="edge58" class="edge">
<title>Node1&#45;&gt;Node33</title>
<path fill="none" stroke="midnightblue" d="M936.66,-277.07C961.64,-268.39 995.87,-256.09 1025.5,-244 1045.39,-235.89 1049.19,-230.99 1069.5,-224 1118.76,-207.05 1177.42,-194.05 1215.74,-186.48"/>
<polygon fill="midnightblue" stroke="midnightblue" points="935.21,-273.87 926.9,-280.44 937.49,-280.48 935.21,-273.87"/>
</g>
<!-- Node34 -->
<g id="node34" class="node">
<title>Node34</title>
<g id="a_node34"><a xlink:href="a00065.xhtml" target="_top" xlink:title=" ">
<polygon fill="white" stroke="black" points="1150,-224.5 1150,-243.5 1265,-243.5 1265,-224.5 1150,-224.5"/>
<text text-anchor="middle" x="1207.5" y="-231.5" font-family="Helvetica,sans-Serif" font-size="10.00">NoveltyFromBlock.cpp</text>
</a>
</g>
</g>
<!-- Node1&#45;&gt;Node34 -->
<g id="edge38" class="edge">
<title>Node1&#45;&gt;Node34</title>
<path fill="none" stroke="midnightblue" d="M938.15,-282.53C993.3,-272.8 1097.72,-254.37 1159.09,-243.54"/>
<polygon fill="midnightblue" stroke="midnightblue" points="937.36,-279.12 928.12,-284.3 938.58,-286.01 937.36,-279.12"/>
</g>
<!-- Node35 -->
<g id="node35" class="node">
<title>Node35</title>
<g id="a_node35"><a xlink:href="a00095.xhtml" target="_top" xlink:title=" ">
<polygon fill="white" stroke="black" points="1283.5,-224.5 1283.5,-243.5 1351.5,-243.5 1351.5,-224.5 1283.5,-224.5"/>
<text text-anchor="middle" x="1317.5" y="-231.5" font-family="Helvetica,sans-Serif" font-size="10.00">ToolCcf.cpp</text>
</a>
</g>
</g>
<!-- Node1&#45;&gt;Node35 -->
<g id="edge41" class="edge">
<title>Node1&#45;&gt;Node35</title>
<path fill="none" stroke="midnightblue" d="M938.37,-285.62C1005.49,-279.22 1152.01,-264.17 1274.5,-244 1277.36,-243.53 1280.32,-243 1283.28,-242.44"/>
<polygon fill="midnightblue" stroke="midnightblue" points="937.92,-282.14 928.3,-286.57 938.58,-289.11 937.92,-282.14"/>
</g>
<!-- Node36 -->
<g id="node36" class="node">
<title>Node36</title>
<g id="a_node36"><a xlink:href="a00182.xhtml" target="_top" xlink:title=" ">
<polygon fill="white" stroke="black" points="34,-112.5 34,-131.5 113,-131.5 113,-112.5 34,-112.5"/>
<text text-anchor="middle" x="73.5" y="-119.5" font-family="Helvetica,sans-Serif" font-size="10.00">ToolInstFreq.h</text>
</a>
</g>
</g>
<!-- Node1&#45;&gt;Node36 -->
<g id="edge42" class="edge">
<title>Node1&#45;&gt;Node36</title>
<path fill="none" stroke="midnightblue" d="M864.52,-288.08C728.88,-284.5 263.41,-270.39 202.5,-244 144.18,-218.73 95.83,-155.21 79.46,-131.82"/>
<polygon fill="midnightblue" stroke="midnightblue" points="864.71,-291.58 874.8,-288.35 864.89,-284.59 864.71,-291.58"/>
</g>
<!-- Node37 -->
<g id="node37" class="node">
<title>Node37</title>
<g id="a_node37"><a xlink:href="a00122.xhtml" target="_top" xlink:title=" ">
<polygon fill="white" stroke="black" points="1689.5,-224.5 1689.5,-243.5 1767.5,-243.5 1767.5,-224.5 1689.5,-224.5"/>
<text text-anchor="middle" x="1728.5" y="-231.5" font-family="Helvetica,sans-Serif" font-size="10.00">ToolPreProc.h</text>
</a>
</g>
</g>
<!-- Node1&#45;&gt;Node37 -->
<g id="edge45" class="edge">
<title>Node1&#45;&gt;Node37</title>
<path fill="none" stroke="midnightblue" d="M938.4,-286.59C1074.71,-277.69 1549.23,-246.71 1689.29,-237.56"/>
<polygon fill="midnightblue" stroke="midnightblue" points="937.83,-283.12 928.08,-287.26 938.29,-290.11 937.83,-283.12"/>
</g>
<!-- Node7&#45;&gt;Node8 -->
<g id="edge7" class="edge">
<title>Node7&#45;&gt;Node8</title>
<path fill="none" stroke="midnightblue" d="M1305.2,-168.12C1094.59,-131.9 853.08,-124.77 748.75,-123.34"/>
<polygon fill="midnightblue" stroke="midnightblue" points="1304.75,-171.59 1315.21,-169.87 1305.96,-164.7 1304.75,-171.59"/>
</g>
<!-- Node9 -->
<g id="node9" class="node">
<title>Node9</title>
<g id="a_node9"><a xlink:href="a00098.xhtml" target="_top" xlink:title=" ">
<polygon fill="white" stroke="black" points="1464,-112.5 1464,-131.5 1571,-131.5 1571,-112.5 1464,-112.5"/>
<text text-anchor="middle" x="1517.5" y="-119.5" font-family="Helvetica,sans-Serif" font-size="10.00">ToolGammatone.cpp</text>
</a>
</g>
</g>
<!-- Node7&#45;&gt;Node9 -->
<g id="edge8" class="edge">
<title>Node7&#45;&gt;Node9</title>
<path fill="none" stroke="midnightblue" d="M1371.39,-167.08C1405.19,-156.88 1457.26,-141.17 1489.25,-131.52"/>
<polygon fill="midnightblue" stroke="midnightblue" points="1370.1,-163.81 1361.53,-170.05 1372.12,-170.51 1370.1,-163.81"/>
</g>
<!-- Node10 -->
<g id="node10" class="node">
<title>Node10</title>
<g id="a_node10"><a xlink:href="a00194.xhtml" target="_top" xlink:title=" ">
<polygon fill="white" stroke="black" points="1089.5,-112.5 1089.5,-131.5 1175.5,-131.5 1175.5,-112.5 1089.5,-112.5"/>
<text text-anchor="middle" x="1132.5" y="-119.5" font-family="Helvetica,sans-Serif" font-size="10.00">ToolResample.h</text>
</a>
</g>
</g>
<!-- Node7&#45;&gt;Node10 -->
<g id="edge9" class="edge">
<title>Node7&#45;&gt;Node10</title>
<path fill="none" stroke="midnightblue" d="M1305.67,-167.82C1251.52,-153.25 1199.35,-139.89 1166.24,-131.5"/>
<polygon fill="midnightblue" stroke="midnightblue" points="1304.88,-171.23 1315.44,-170.45 1306.7,-164.47 1304.88,-171.23"/>
</g>
<!-- Node11 -->
<g id="node11" class="node">
<title>Node11</title>
<g id="a_node11"><a xlink:href="a00197.xhtml" target="_top" xlink:title=" ">
<polygon fill="white" stroke="black" points="656,-56.5 656,-75.5 709,-75.5 709,-56.5 656,-56.5"/>
<text text-anchor="middle" x="682.5" y="-63.5" font-family="Helvetica,sans-Serif" font-size="10.00">AcaAll.h</text>
</a>
</g>
</g>
<!-- Node10&#45;&gt;Node11 -->
<g id="edge10" class="edge">
<title>Node10&#45;&gt;Node11</title>
<path fill="none" stroke="midnightblue" d="M1079.2,-114.6C982.46,-102.99 781.27,-78.85 709.04,-70.18"/>
<polygon fill="midnightblue" stroke="midnightblue" points="1079.01,-118.11 1089.35,-115.82 1079.84,-111.16 1079.01,-118.11"/>
</g>
<!-- Node12 -->
<g id="node12" class="node">
<title>Node12</title>
<g id="a_node12"><a xlink:href="a00035.xhtml" target="_top" xlink:title=" ">
<polygon fill="white" stroke="black" points="173,-0.5 173,-19.5 236,-19.5 236,-0.5 173,-0.5"/>
<text text-anchor="middle" x="204.5" y="-7.5" font-family="Helvetica,sans-Serif" font-size="10.00">AcaAll.cpp</text>
</a>
</g>
</g>
<!-- Node11&#45;&gt;Node12 -->
<g id="edge11" class="edge">
<title>Node11&#45;&gt;Node12</title>
<path fill="none" stroke="midnightblue" d="M645.54,-62.69C569.89,-57.64 392.09,-44.1 244.5,-20 241.83,-19.56 239.07,-19.06 236.31,-18.52"/>
<polygon fill="midnightblue" stroke="midnightblue" points="645.73,-66.21 655.94,-63.38 646.19,-59.23 645.73,-66.21"/>
</g>
<!-- Node13 -->
<g id="node13" class="node">
<title>Node13</title>
<g id="a_node13"><a xlink:href="a00017.xhtml" target="_top" xlink:title=" ">
<polygon fill="white" stroke="black" points="254,-0.5 254,-19.5 371,-19.5 371,-0.5 254,-0.5"/>
<text text-anchor="middle" x="312.5" y="-7.5" font-family="Helvetica,sans-Serif" font-size="10.00">ComputeBeatHisto.cpp</text>
</a>
</g>
</g>
<!-- Node11&#45;&gt;Node13 -->
<g id="edge12" class="edge">
<title>Node11&#45;&gt;Node13</title>
<path fill="none" stroke="midnightblue" d="M645.82,-59.65C581.53,-50.26 448.03,-30.78 370.91,-19.52"/>
<polygon fill="midnightblue" stroke="midnightblue" points="645.49,-63.14 655.89,-61.12 646.5,-56.21 645.49,-63.14"/>
</g>
<!-- Node14 -->
<g id="node14" class="node">
<title>Node14</title>
<g id="a_node14"><a xlink:href="a00023.xhtml" target="_top" xlink:title=" ">
<polygon fill="white" stroke="black" points="389.5,-0.5 389.5,-19.5 493.5,-19.5 493.5,-0.5 389.5,-0.5"/>
<text text-anchor="middle" x="441.5" y="-7.5" font-family="Helvetica,sans-Serif" font-size="10.00">ComputeChords.cpp</text>
</a>
</g>
</g>
<!-- Node11&#45;&gt;Node14 -->
<g id="edge13" class="edge">
<title>Node11&#45;&gt;Node14</title>
<path fill="none" stroke="midnightblue" d="M645.9,-56.8C601.05,-46.75 525.44,-29.81 479.82,-19.59"/>
<polygon fill="midnightblue" stroke="midnightblue" points="645.26,-60.24 655.79,-59.01 646.8,-53.41 645.26,-60.24"/>
</g>
<!-- Node15 -->
<g id="node15" class="node">
<title>Node15</title>
<g id="a_node15"><a xlink:href="a00002.xhtml" target="_top" xlink:title=" ">
<polygon fill="white" stroke="black" points="512,-0.5 512,-19.5 619,-19.5 619,-0.5 512,-0.5"/>
<text text-anchor="middle" x="565.5" y="-7.5" font-family="Helvetica,sans-Serif" font-size="10.00">ComputeFeature.cpp</text>
</a>
</g>
</g>
<!-- Node11&#45;&gt;Node15 -->
<g id="edge14" class="edge">
<title>Node11&#45;&gt;Node15</title>
<path fill="none" stroke="midnightblue" d="M654.84,-52.23C632.95,-42.13 603,-28.31 583.95,-19.52"/>
<polygon fill="midnightblue" stroke="midnightblue" points="653.41,-55.43 663.96,-56.44 656.35,-49.08 653.41,-55.43"/>
</g>
<!-- Node16 -->
<g id="node16" class="node">
<title>Node16</title>
<g id="a_node16"><a xlink:href="a00026.xhtml" target="_top" xlink:title=" ">
<polygon fill="white" stroke="black" points="637.5,-0.5 637.5,-19.5 727.5,-19.5 727.5,-0.5 637.5,-0.5"/>
<text text-anchor="middle" x="682.5" y="-7.5" font-family="Helvetica,sans-Serif" font-size="10.00">ComputeKey.cpp</text>
</a>
</g>
</g>
<!-- Node11&#45;&gt;Node16 -->
<g id="edge15" class="edge">
<title>Node11&#45;&gt;Node16</title>
<path fill="none" stroke="midnightblue" d="M682.5,-45.8C682.5,-36.91 682.5,-26.78 682.5,-19.75"/>
<polygon fill="midnightblue" stroke="midnightblue" points="679,-46.08 682.5,-56.08 686,-46.08 679,-46.08"/>
</g>
<!-- Node17 -->
<g id="node17" class="node">
<title>Node17</title>
<g id="a_node17"><a xlink:href="a00104.xhtml" target="_top" xlink:title=" ">
<polygon fill="white" stroke="black" points="746,-0.5 746,-19.5 891,-19.5 891,-0.5 746,-0.5"/>
<text text-anchor="middle" x="818.5" y="-7.5" font-family="Helvetica,sans-Serif" font-size="10.00">ComputeMelSpectrogram.cpp</text>
</a>
</g>
</g>
<!-- Node11&#45;&gt;Node17 -->
<g id="edge16" class="edge">
<title>Node11&#45;&gt;Node17</title>
<path fill="none" stroke="midnightblue" d="M713.63,-52.64C739.16,-42.5 774.61,-28.43 797.05,-19.52"/>
<polygon fill="midnightblue" stroke="midnightblue" points="712.05,-49.5 704.05,-56.44 714.64,-56.01 712.05,-49.5"/>
</g>
<!-- Node18 -->
<g id="node18" class="node">
<title>Node18</title>
<g id="a_node18"><a xlink:href="a00029.xhtml" target="_top" xlink:title=" ">
<polygon fill="white" stroke="black" points="909.5,-0.5 909.5,-19.5 1053.5,-19.5 1053.5,-0.5 909.5,-0.5"/>
<text text-anchor="middle" x="981.5" y="-7.5" font-family="Helvetica,sans-Serif" font-size="10.00">ComputeNoveltyFunction.cpp</text>
</a>
</g>
</g>
<!-- Node11&#45;&gt;Node18 -->
<g id="edge17" class="edge">
<title>Node11&#45;&gt;Node18</title>
<path fill="none" stroke="midnightblue" d="M718.88,-58.43C772.98,-48.66 874.67,-30.29 934.4,-19.51"/>
<polygon fill="midnightblue" stroke="midnightblue" points="718.25,-54.99 709.03,-60.21 719.5,-61.87 718.25,-54.99"/>
</g>
<!-- Node19 -->
<g id="node19" class="node">
<title>Node19</title>
<g id="a_node19"><a xlink:href="a00107.xhtml" target="_top" xlink:title=" ">
<polygon fill="white" stroke="black" points="1071.5,-0.5 1071.5,-19.5 1167.5,-19.5 1167.5,-0.5 1071.5,-0.5"/>
<text text-anchor="middle" x="1119.5" y="-7.5" font-family="Helvetica,sans-Serif" font-size="10.00">ComputePitch.cpp</text>
</a>
</g>
</g>
<!-- Node11&#45;&gt;Node19 -->
<g id="edge18" class="edge">
<title>Node11&#45;&gt;Node19</title>
<path fill="none" stroke="midnightblue" d="M719.46,-61.1C787.47,-53.83 936.94,-37.34 1062.5,-20 1065.38,-19.6 1068.34,-19.18 1071.32,-18.74"/>
<polygon fill="midnightblue" stroke="midnightblue" points="718.84,-57.65 709.27,-62.19 719.58,-64.61 718.84,-57.65"/>
</g>
<!-- Node20 -->
<g id="node20" class="node">
<title>Node20</title>
<g id="a_node20"><a xlink:href="a00014.xhtml" target="_top" xlink:title=" ">
<polygon fill="white" stroke="black" points="1186,-0.5 1186,-19.5 1315,-19.5 1315,-0.5 1186,-0.5"/>
<text text-anchor="middle" x="1250.5" y="-7.5" font-family="Helvetica,sans-Serif" font-size="10.00">ComputeSpectrogram.cpp</text>
</a>
</g>
</g>
<!-- Node11&#45;&gt;Node20 -->
<g id="edge19" class="edge">
<title>Node11&#45;&gt;Node20</title>
<path fill="none" stroke="midnightblue" d="M719.09,-62.05C801.07,-55.35 1005.65,-38.17 1176.5,-20 1179.59,-19.67 1182.75,-19.33 1185.94,-18.97"/>
<polygon fill="midnightblue" stroke="midnightblue" points="718.72,-58.57 709.04,-62.87 719.29,-65.54 718.72,-58.57"/>
</g>
<!-- Node21&#45;&gt;Node11 -->
<g id="edge21" class="edge">
<title>Node21&#45;&gt;Node11</title>
<path fill="none" stroke="midnightblue" d="M214.61,-221.59C179.58,-210.69 140.44,-192.31 160.5,-168 224.6,-90.3 558.81,-71.68 655.98,-67.87"/>
<polygon fill="midnightblue" stroke="midnightblue" points="213.75,-224.99 224.33,-224.47 215.74,-218.28 213.75,-224.99"/>
</g>
<!-- Node22 -->
<g id="node22" class="node">
<title>Node22</title>
<g id="a_node22"><a xlink:href="a00032.xhtml" target="_top" xlink:title=" ">
<polygon fill="white" stroke="black" points="295,-168.5 295,-187.5 346,-187.5 346,-168.5 295,-168.5"/>
<text text-anchor="middle" x="320.5" y="-175.5" font-family="Helvetica,sans-Serif" font-size="10.00">Key.cpp</text>
</a>
</g>
</g>
<!-- Node21&#45;&gt;Node22 -->
<g id="edge22" class="edge">
<title>Node21&#45;&gt;Node22</title>
<path fill="none" stroke="midnightblue" d="M277.68,-217.54C288.38,-207.91 301.76,-195.87 310.68,-187.83"/>
<polygon fill="midnightblue" stroke="midnightblue" points="275.23,-215.03 270.14,-224.32 279.91,-220.24 275.23,-215.03"/>
</g>
<!-- Node23 -->
<g id="node23" class="node">
<title>Node23</title>
<g id="a_node23"><a xlink:href="a00089.xhtml" target="_top" xlink:title=" ">
<polygon fill="white" stroke="black" points="170,-168.5 170,-187.5 277,-187.5 277,-168.5 170,-168.5"/>
<text text-anchor="middle" x="223.5" y="-175.5" font-family="Helvetica,sans-Serif" font-size="10.00">KeyFromChroma.cpp</text>
</a>
</g>
</g>
<!-- Node21&#45;&gt;Node23 -->
<g id="edge23" class="edge">
<title>Node21&#45;&gt;Node23</title>
<path fill="none" stroke="midnightblue" d="M248.55,-215.57C242.19,-206.27 234.63,-195.25 229.5,-187.75"/>
<polygon fill="midnightblue" stroke="midnightblue" points="245.85,-217.81 254.39,-224.08 251.63,-213.86 245.85,-217.81"/>
</g>
<!-- Node24&#45;&gt;Node4 -->
<g id="edge26" class="edge">
<title>Node24&#45;&gt;Node4</title>
<path fill="none" stroke="midnightblue" d="M919.2,-229.86C844.94,-223.13 667.13,-206.45 518.5,-188 515.8,-187.67 513.04,-187.31 510.25,-186.94"/>
<polygon fill="midnightblue" stroke="midnightblue" points="919.12,-233.36 929.39,-230.77 919.75,-226.39 919.12,-233.36"/>
</g>
<!-- Node24&#45;&gt;Node5 -->
<g id="edge27" class="edge">
<title>Node24&#45;&gt;Node5</title>
<path fill="none" stroke="midnightblue" d="M919.49,-227.88C855.89,-218.57 720.82,-198.8 643.34,-187.46"/>
<polygon fill="midnightblue" stroke="midnightblue" points="919.03,-231.35 929.43,-229.33 920.04,-224.42 919.03,-231.35"/>
</g>
<!-- Node24&#45;&gt;Node7 -->
<g id="edge28" class="edge">
<title>Node24&#45;&gt;Node7</title>
<path fill="none" stroke="midnightblue" d="M990.22,-230.18C1054.13,-224.75 1192.07,-211.27 1306.5,-188 1309.33,-187.42 1312.27,-186.73 1315.18,-185.99"/>
<polygon fill="midnightblue" stroke="midnightblue" points="989.57,-226.72 979.89,-231.04 990.15,-233.7 989.57,-226.72"/>
</g>
<!-- Node24&#45;&gt;Node22 -->
<g id="edge29" class="edge">
<title>Node24&#45;&gt;Node22</title>
<path fill="none" stroke="midnightblue" d="M919.27,-230.7C830.77,-224.8 592,-208.19 393.5,-188 377.75,-186.4 360.13,-184.24 346.15,-182.43"/>
<polygon fill="midnightblue" stroke="midnightblue" points="919.09,-234.19 929.3,-231.36 919.56,-227.21 919.09,-234.19"/>
</g>
<!-- Node25 -->
<g id="node25" class="node">
<title>Node25</title>
<g id="a_node25"><a xlink:href="a00101.xhtml" target="_top" xlink:title=" ">
<polygon fill="white" stroke="black" points="1487.5,-168.5 1487.5,-187.5 1547.5,-187.5 1547.5,-168.5 1487.5,-168.5"/>
<text text-anchor="middle" x="1517.5" y="-175.5" font-family="Helvetica,sans-Serif" font-size="10.00">Chord.cpp</text>
</a>
</g>
</g>
<!-- Node24&#45;&gt;Node25 -->
<g id="edge25" class="edge">
<title>Node24&#45;&gt;Node25</title>
<path fill="none" stroke="midnightblue" d="M989.56,-230.64C1091,-223.7 1383.66,-202.94 1478.5,-188 1481.38,-187.55 1484.37,-187 1487.35,-186.4"/>
<polygon fill="midnightblue" stroke="midnightblue" points="989.26,-227.15 979.52,-231.32 989.74,-234.13 989.26,-227.15"/>
</g>
<!-- Node26 -->
<g id="node26" class="node">
<title>Node26</title>
<g id="a_node26"><a xlink:href="a00083.xhtml" target="_top" xlink:title=" ">
<polygon fill="white" stroke="black" points="1379.5,-168.5 1379.5,-187.5 1469.5,-187.5 1469.5,-168.5 1379.5,-168.5"/>
<text text-anchor="middle" x="1424.5" y="-175.5" font-family="Helvetica,sans-Serif" font-size="10.00">Spectrogram.cpp</text>
</a>
</g>
</g>
<!-- Node24&#45;&gt;Node26 -->
<g id="edge30" class="edge">
<title>Node24&#45;&gt;Node26</title>
<path fill="none" stroke="midnightblue" d="M990.21,-229.83C1062.27,-223.29 1230.17,-207.27 1370.5,-188 1373.42,-187.6 1376.42,-187.16 1379.45,-186.71"/>
<polygon fill="midnightblue" stroke="midnightblue" points="989.53,-226.38 979.89,-230.77 990.16,-233.35 989.53,-226.38"/>
</g>
<!-- Node24&#45;&gt;Node27 -->
<g id="edge31" class="edge">
<title>Node24&#45;&gt;Node27</title>
<path fill="none" stroke="midnightblue" d="M989.78,-230.7C1101.3,-223.37 1445.37,-200.34 1556.5,-188 1559.59,-187.66 1562.75,-187.28 1565.95,-186.87"/>
<polygon fill="midnightblue" stroke="midnightblue" points="989.48,-227.21 979.73,-231.36 989.94,-234.2 989.48,-227.21"/>
</g>
<!-- Node28 -->
<g id="node28" class="node">
<title>Node28</title>
<g id="a_node28"><a xlink:href="a00053.xhtml" target="_top" xlink:title=" ">
<polygon fill="white" stroke="black" points="1006.5,-168.5 1006.5,-187.5 1078.5,-187.5 1078.5,-168.5 1006.5,-168.5"/>
<text text-anchor="middle" x="1042.5" y="-175.5" font-family="Helvetica,sans-Serif" font-size="10.00">ToolNmf.cpp</text>
</a>
</g>
</g>
<!-- Node24&#45;&gt;Node28 -->
<g id="edge32" class="edge">
<title>Node24&#45;&gt;Node28</title>
<path fill="none" stroke="midnightblue" d="M977.48,-218.9C993.61,-209 1014.68,-196.07 1028.4,-187.65"/>
<polygon fill="midnightblue" stroke="midnightblue" points="975.33,-216.11 968.64,-224.32 978.99,-222.08 975.33,-216.11"/>
</g>
<!-- Node24&#45;&gt;Node29 -->
<g id="edge33" class="edge">
<title>Node24&#45;&gt;Node29</title>
<path fill="none" stroke="midnightblue" d="M919.44,-225.66C870.3,-215.38 781.44,-196.78 732.04,-186.44"/>
<polygon fill="midnightblue" stroke="midnightblue" points="918.79,-229.1 929.29,-227.72 920.22,-222.25 918.79,-229.1"/>
</g>
<!-- Node24&#45;&gt;Node30 -->
<g id="edge34" class="edge">
<title>Node24&#45;&gt;Node30</title>
<path fill="none" stroke="midnightblue" d="M920.39,-221.04C891.41,-210.88 850.54,-196.55 824.79,-187.52"/>
<polygon fill="midnightblue" stroke="midnightblue" points="919.5,-224.44 930.1,-224.44 921.82,-217.83 919.5,-224.44"/>
</g>
<!-- Node24&#45;&gt;Node31 -->
<g id="edge35" class="edge">
<title>Node24&#45;&gt;Node31</title>
<path fill="none" stroke="midnightblue" d="M945.83,-214.98C941.41,-205.82 936.25,-195.09 932.71,-187.75"/>
<polygon fill="midnightblue" stroke="midnightblue" points="942.71,-216.59 950.21,-224.08 949.02,-213.55 942.71,-216.59"/>
</g>
<!-- Node24&#45;&gt;Node32 -->
<g id="edge36" class="edge">
<title>Node24&#45;&gt;Node32</title>
<path fill="none" stroke="midnightblue" d="M989.42,-223.23C1025.78,-213.06 1082.16,-197.28 1116.85,-187.58"/>
<polygon fill="midnightblue" stroke="midnightblue" points="988.42,-219.88 979.73,-225.94 990.3,-226.62 988.42,-219.88"/>
</g>
<!-- Node24&#45;&gt;Node33 -->
<g id="edge37" class="edge">
<title>Node24&#45;&gt;Node33</title>
<path fill="none" stroke="midnightblue" d="M989.7,-226.8C1038.58,-218.18 1129.79,-202.05 1207.5,-188 1210.22,-187.51 1213.03,-187 1215.86,-186.48"/>
<polygon fill="midnightblue" stroke="midnightblue" points="988.89,-223.39 979.65,-228.58 990.1,-230.29 988.89,-223.39"/>
</g>
<!-- Node36&#45;&gt;Node11 -->
<g id="edge43" class="edge">
<title>Node36&#45;&gt;Node11</title>
<path fill="none" stroke="midnightblue" d="M123.56,-112.51C124.88,-112.33 126.2,-112.16 127.5,-112 329.93,-86.97 575.7,-72.63 655.85,-68.36"/>
<polygon fill="midnightblue" stroke="midnightblue" points="122.66,-109.1 113.26,-113.98 123.65,-116.03 122.66,-109.1"/>
</g>
<!-- Node37&#45;&gt;Node3 -->
<g id="edge47" class="edge">
<title>Node37&#45;&gt;Node3</title>
<path fill="none" stroke="midnightblue" d="M1777.71,-225.26C1832.6,-216.55 1924,-201.8 2002.5,-188 2005.42,-187.49 2008.44,-186.94 2011.48,-186.39"/>
<polygon fill="midnightblue" stroke="midnightblue" points="1776.9,-221.85 1767.57,-226.87 1777.99,-228.76 1776.9,-221.85"/>
</g>
<!-- Node37&#45;&gt;Node9 -->
<g id="edge54" class="edge">
<title>Node37&#45;&gt;Node9</title>
<path fill="none" stroke="midnightblue" d="M1719.18,-215.27C1710.54,-200.52 1696.33,-180.04 1678.5,-168 1646.51,-146.4 1604.3,-135.1 1571.13,-129.22"/>
<polygon fill="midnightblue" stroke="midnightblue" points="1716.34,-217.36 1724.25,-224.4 1722.45,-213.96 1716.34,-217.36"/>
</g>
<!-- Node37&#45;&gt;Node11 -->
<g id="edge46" class="edge">
<title>Node37&#45;&gt;Node11</title>
<path fill="none" stroke="midnightblue" d="M1774.55,-222.11C1816.24,-211.8 1872.08,-196.63 1878.5,-188 1883.81,-180.87 1884.18,-174.84 1878.5,-168 1801.21,-74.83 878.79,-67.59 709.2,-67.04"/>
<polygon fill="midnightblue" stroke="midnightblue" points="1773.71,-218.72 1764.83,-224.5 1775.38,-225.51 1773.71,-218.72"/>
</g>
<!-- Node37&#45;&gt;Node25 -->
<g id="edge48" class="edge">
<title>Node37&#45;&gt;Node25</title>
<path fill="none" stroke="midnightblue" d="M1685.35,-221.96C1644.35,-211.46 1583.77,-195.96 1547.7,-186.73"/>
<polygon fill="midnightblue" stroke="midnightblue" points="1684.51,-225.35 1695.07,-224.44 1686.25,-218.57 1684.51,-225.35"/>
</g>
<!-- Node37&#45;&gt;Node26 -->
<g id="edge52" class="edge">
<title>Node37&#45;&gt;Node26</title>
<path fill="none" stroke="midnightblue" d="M1679.36,-224.27C1621.39,-213.97 1525.83,-197 1469.65,-187.02"/>
<polygon fill="midnightblue" stroke="midnightblue" points="1678.92,-227.75 1689.38,-226.05 1680.15,-220.86 1678.92,-227.75"/>
</g>
<!-- Node37&#45;&gt;Node27 -->
<g id="edge53" class="edge">
<title>Node37&#45;&gt;Node27</title>
<path fill="none" stroke="midnightblue" d="M1701.49,-219.86C1680.91,-209.85 1653.16,-196.35 1635.29,-187.65"/>
<polygon fill="midnightblue" stroke="midnightblue" points="1700.14,-223.1 1710.67,-224.32 1703.2,-216.8 1700.14,-223.1"/>
</g>
<!-- Node38 -->
<g id="node38" class="node">
<title>Node38</title>
<g id="a_node38"><a xlink:href="a00050.xhtml" target="_top" xlink:title=" ">
<polygon fill="white" stroke="black" points="1925.5,-168.5 1925.5,-187.5 1993.5,-187.5 1993.5,-168.5 1925.5,-168.5"/>
<text text-anchor="middle" x="1959.5" y="-175.5" font-family="Helvetica,sans-Serif" font-size="10.00">Feature.cpp</text>
</a>
</g>
</g>
<!-- Node37&#45;&gt;Node38 -->
<g id="edge49" class="edge">
<title>Node37&#45;&gt;Node38</title>
<path fill="none" stroke="midnightblue" d="M1775.08,-222.11C1819.56,-211.71 1885.52,-196.29 1925.33,-186.99"/>
<polygon fill="midnightblue" stroke="midnightblue" points="1774.04,-218.76 1765.1,-224.44 1775.64,-225.58 1774.04,-218.76"/>
</g>
<!-- Node39 -->
<g id="node39" class="node">
<title>Node39</title>
<g id="a_node39"><a xlink:href="a00086.xhtml" target="_top" xlink:title=" ">
<polygon fill="white" stroke="black" points="1725.5,-168.5 1725.5,-187.5 1793.5,-187.5 1793.5,-168.5 1725.5,-168.5"/>
<text text-anchor="middle" x="1759.5" y="-175.5" font-family="Helvetica,sans-Serif" font-size="10.00">Novelty.cpp</text>
</a>
</g>
</g>
<!-- Node37&#45;&gt;Node39 -->
<g id="edge50" class="edge">
<title>Node37&#45;&gt;Node39</title>
<path fill="none" stroke="midnightblue" d="M1738.68,-215.27C1743.97,-206.05 1750.22,-195.17 1754.48,-187.75"/>
<polygon fill="midnightblue" stroke="midnightblue" points="1735.56,-213.67 1733.62,-224.08 1741.63,-217.15 1735.56,-213.67"/>
</g>
<!-- Node40 -->
<g id="node40" class="node">
<title>Node40</title>
<g id="a_node40"><a xlink:href="a00071.xhtml" target="_top" xlink:title=" ">
<polygon fill="white" stroke="black" points="1812,-168.5 1812,-187.5 1869,-187.5 1869,-168.5 1812,-168.5"/>
<text text-anchor="middle" x="1840.5" y="-175.5" font-family="Helvetica,sans-Serif" font-size="10.00">Pitch.cpp</text>
</a>
</g>
</g>
<!-- Node37&#45;&gt;Node40 -->
<g id="edge51" class="edge">
<title>Node37&#45;&gt;Node40</title>
<path fill="none" stroke="midnightblue" d="M1755.75,-219.86C1776.52,-209.85 1804.52,-196.35 1822.55,-187.65"/>
<polygon fill="midnightblue" stroke="midnightblue" points="1753.98,-216.83 1746.49,-224.32 1757.02,-223.13 1753.98,-216.83"/>
</g>
</g>
</svg>
