<?xml version="1.0" encoding="UTF-8" standalone="no"?>
<!DOCTYPE svg PUBLIC "-//W3C//DTD SVG 1.1//EN"
 "http://www.w3.org/Graphics/SVG/1.1/DTD/svg11.dtd">
<!-- Generated by graphviz version 6.0.1 (20220911.1526)
 -->
<!-- Title: main Pages: 1 -->
<svg width="889pt" height="520pt"
 viewBox="0.00 0.00 889.00 520.00" xmlns="http://www.w3.org/2000/svg" xmlns:xlink="http://www.w3.org/1999/xlink">
<g id="graph0" class="graph" transform="scale(1 1) rotate(0) translate(4 516)">
<title>main</title>
<!-- Node1 -->
<g id="node1" class="node">
<title>Node1</title>
<g id="a_node1"><a xlink:title=" ">
<polygon fill="#999999" stroke="#666666" points="38,-130 0,-130 0,-111 38,-111 38,-130"/>
<text text-anchor="middle" x="19" y="-118" font-family="Helvetica,sans-Serif" font-size="10.00">main</text>
</a>
</g>
</g>
<!-- Node2 -->
<g id="node2" class="node">
<title>Node2</title>
<g id="a_node2"><a xlink:href="a00530.xhtml#ae89af275cdd54029bbf7f0f25ddf7945" target="_top" xlink:title=" ">
<polygon fill="white" stroke="#666666" points="259,-216 74,-216 74,-197 259,-197 259,-216"/>
<text text-anchor="middle" x="166.5" y="-204" font-family="Helvetica,sans-Serif" font-size="10.00">CSpectrogramIf::compMelSpectrogram</text>
</a>
</g>
</g>
<!-- Node1&#45;&gt;Node2 -->
<g id="edge1" class="edge">
<title>Node1&#45;&gt;Node2</title>
<path fill="none" stroke="#63b8ff" d="M24.85,-130.02C32.91,-144.82 50.54,-173.17 74,-187.5 77.58,-189.69 81.37,-191.63 85.3,-193.35"/>
<polygon fill="#63b8ff" stroke="#63b8ff" points="84.07,-196.63 94.66,-196.98 86.6,-190.1 84.07,-196.63"/>
</g>
<!-- Node26 -->
<g id="node26" class="node">
<title>Node26</title>
<g id="a_node26"><a xlink:href="a00530.xhtml#acd73d8c1aaaed8b188de6b8bf2103139" target="_top" xlink:title=" ">
<polygon fill="white" stroke="#666666" points="224.5,-93 108.5,-93 108.5,-74 224.5,-74 224.5,-93"/>
<text text-anchor="middle" x="166.5" y="-81" font-family="Helvetica,sans-Serif" font-size="10.00">CSpectrogramIf::create</text>
</a>
</g>
</g>
<!-- Node1&#45;&gt;Node26 -->
<g id="edge29" class="edge">
<title>Node1&#45;&gt;Node26</title>
<path fill="none" stroke="#63b8ff" d="M38.33,-113.8C48.71,-110.15 61.98,-105.74 74,-102.5 83.75,-99.87 94.17,-97.4 104.36,-95.16"/>
<polygon fill="#63b8ff" stroke="#63b8ff" points="105.39,-98.52 114.43,-93 103.92,-91.67 105.39,-98.52"/>
</g>
<!-- Node28 -->
<g id="node28" class="node">
<title>Node28</title>
<g id="a_node28"><a xlink:href="a00530.xhtml#a6511fc72ef04be91a712ee5ef479bd7e" target="_top" xlink:title=" ">
<polygon fill="white" stroke="#666666" points="227,-130 106,-130 106,-111 227,-111 227,-130"/>
<text text-anchor="middle" x="166.5" y="-118" font-family="Helvetica,sans-Serif" font-size="10.00">CSpectrogramIf::destroy</text>
</a>
</g>
</g>
<!-- Node1&#45;&gt;Node28 -->
<g id="edge31" class="edge">
<title>Node1&#45;&gt;Node28</title>
<path fill="none" stroke="#63b8ff" d="M38.13,-120.5C52.8,-120.5 74.44,-120.5 95.74,-120.5"/>
<polygon fill="#63b8ff" stroke="#63b8ff" points="95.81,-124 105.81,-120.5 95.81,-117 95.81,-124"/>
</g>
<!-- Node29 -->
<g id="node29" class="node">
<title>Node29</title>
<g id="a_node29"><a xlink:href="a00530.xhtml#af50a3669266ad696a1159b1bb80b1c8a" target="_top" xlink:title=" ">
<polygon fill="white" stroke="#666666" points="253.5,-178.5 79.5,-178.5 79.5,-148.5 253.5,-148.5 253.5,-178.5"/>
<text text-anchor="start" x="87.5" y="-166.5" font-family="Helvetica,sans-Serif" font-size="10.00">CSpectrogramIf::getMelSpectrogram</text>
<text text-anchor="middle" x="166.5" y="-155.5" font-family="Helvetica,sans-Serif" font-size="10.00">Dimensions</text>
</a>
</g>
</g>
<!-- Node1&#45;&gt;Node29 -->
<g id="edge32" class="edge">
<title>Node1&#45;&gt;Node29</title>
<path fill="none" stroke="#63b8ff" d="M38.37,-127.38C48.76,-131.17 62.03,-135.83 74,-139.5 80.91,-141.62 88.15,-143.72 95.39,-145.74"/>
<polygon fill="#63b8ff" stroke="#63b8ff" points="94.68,-149.17 105.25,-148.45 96.54,-142.42 94.68,-149.17"/>
</g>
<!-- Node30 -->
<g id="node30" class="node">
<title>Node30</title>
<g id="a_node30"><a xlink:href="a00119.xhtml#a2d0a5ce28a4b0030ec0353c6f7a0fd64" target="_top" xlink:title=" ">
<polygon fill="white" stroke="#666666" points="199,-56 134,-56 134,-37 199,-37 199,-56"/>
<text text-anchor="middle" x="166.5" y="-44" font-family="Helvetica,sans-Serif" font-size="10.00">showClInfo</text>
</a>
</g>
</g>
<!-- Node1&#45;&gt;Node30 -->
<g id="edge34" class="edge">
<title>Node1&#45;&gt;Node30</title>
<path fill="none" stroke="#63b8ff" d="M26.41,-110.84C35.43,-98.08 53.13,-75.87 74,-64.5 89.04,-56.3 107.28,-51.81 123.51,-49.35"/>
<polygon fill="#63b8ff" stroke="#63b8ff" points="124.36,-52.77 133.83,-48.02 123.46,-45.83 124.36,-52.77"/>
</g>
<!-- Node3 -->
<g id="node3" class="node">
<title>Node3</title>
<g id="a_node3"><a xlink:href="a00530.xhtml#abe25089ec6ef77b0b9952c33a7a8d739" target="_top" xlink:title=" ">
<polygon fill="white" stroke="#666666" points="444.5,-178.5 298.5,-178.5 298.5,-148.5 444.5,-148.5 444.5,-178.5"/>
<text text-anchor="start" x="306.5" y="-166.5" font-family="Helvetica,sans-Serif" font-size="10.00">CSpectrogramIf::computeMag</text>
<text text-anchor="middle" x="371.5" y="-155.5" font-family="Helvetica,sans-Serif" font-size="10.00">Spectrum_</text>
</a>
</g>
</g>
<!-- Node2&#45;&gt;Node3 -->
<g id="edge2" class="edge">
<title>Node2&#45;&gt;Node3</title>
<path fill="none" stroke="#63b8ff" d="M213.59,-197C228.13,-193.98 244.24,-190.62 259,-187.5 269.38,-185.3 280.3,-182.98 291.09,-180.67"/>
<polygon fill="#63b8ff" stroke="#63b8ff" points="291.88,-184.08 300.93,-178.56 290.42,-177.23 291.88,-184.08"/>
</g>
<!-- Node13 -->
<g id="node13" class="node">
<title>Node13</title>
<g id="a_node13"><a xlink:href="a00530.xhtml#a00140b0dd45e87aef4561aed8ebc779a" target="_top" xlink:title=" ">
<polygon fill="white" stroke="#666666" points="448,-458 295,-458 295,-439 448,-439 448,-458"/>
<text text-anchor="middle" x="371.5" y="-446" font-family="Helvetica,sans-Serif" font-size="10.00">CSpectrogramIf::destroyMelFb_</text>
</a>
</g>
</g>
<!-- Node2&#45;&gt;Node13 -->
<g id="edge13" class="edge">
<title>Node2&#45;&gt;Node13</title>
<path fill="none" stroke="#63b8ff" d="M175.71,-216.29C206.57,-253.08 315.93,-383.44 355.81,-430.98"/>
<polygon fill="#63b8ff" stroke="#63b8ff" points="353.3,-433.44 362.41,-438.86 358.67,-428.95 353.3,-433.44"/>
</g>
<!-- Node16 -->
<g id="node16" class="node">
<title>Node16</title>
<g id="a_node16"><a xlink:href="a00530.xhtml#a04d8f71d4562f2a4efc8a8537826d8c3" target="_top" xlink:title=" ">
<polygon fill="white" stroke="#666666" points="435,-348.5 308,-348.5 308,-318.5 435,-318.5 435,-348.5"/>
<text text-anchor="start" x="316" y="-336.5" font-family="Helvetica,sans-Serif" font-size="10.00">CSpectrogramIf::generate</text>
<text text-anchor="middle" x="371.5" y="-325.5" font-family="Helvetica,sans-Serif" font-size="10.00">MelFb_</text>
</a>
</g>
</g>
<!-- Node2&#45;&gt;Node16 -->
<g id="edge16" class="edge">
<title>Node2&#45;&gt;Node16</title>
<path fill="none" stroke="#63b8ff" d="M182.76,-216.05C215.54,-236.55 293.31,-285.21 337.79,-313.04"/>
<polygon fill="#63b8ff" stroke="#63b8ff" points="336.15,-316.14 346.48,-318.48 339.86,-310.2 336.15,-316.14"/>
</g>
<!-- Node23 -->
<g id="node23" class="node">
<title>Node23</title>
<g id="a_node23"><a xlink:href="a00474.xhtml#a9cb162394031e8b496f7a39b51c31d20" target="_top" xlink:title=" ">
<polygon fill="white" stroke="#666666" points="600,-251 517,-251 517,-232 600,-232 600,-251"/>
<text text-anchor="middle" x="558.5" y="-239" font-family="Helvetica,sans-Serif" font-size="10.00">CFft::getLength</text>
</a>
</g>
</g>
<!-- Node2&#45;&gt;Node23 -->
<g id="edge26" class="edge">
<title>Node2&#45;&gt;Node23</title>
<path fill="none" stroke="#63b8ff" d="M224.17,-216.03C246.22,-219.45 271.74,-223.06 295,-225.5 368.43,-233.19 453.84,-237.55 506.79,-239.72"/>
<polygon fill="#63b8ff" stroke="#63b8ff" points="506.81,-243.22 516.94,-240.12 507.08,-236.23 506.81,-243.22"/>
</g>
<!-- Node24 -->
<g id="node24" class="node">
<title>Node24</title>
<g id="a_node24"><a xlink:href="a00542.xhtml#a595b3a391e2540a1dc9e53edf8634494" target="_top" xlink:title=" ">
<polygon fill="white" stroke="#666666" points="445.5,-130 297.5,-130 297.5,-111 445.5,-111 445.5,-130"/>
<text text-anchor="middle" x="371.5" y="-118" font-family="Helvetica,sans-Serif" font-size="10.00">CBlockAudioIf::getNumBlocks</text>
</a>
</g>
</g>
<!-- Node2&#45;&gt;Node24 -->
<g id="edge27" class="edge">
<title>Node2&#45;&gt;Node24</title>
<path fill="none" stroke="#63b8ff" d="M239.42,-196.87C246.32,-194.4 252.97,-191.33 259,-187.5 281.51,-173.2 272.8,-154.27 295,-139.5 298.11,-137.43 301.43,-135.59 304.87,-133.95"/>
<polygon fill="#63b8ff" stroke="#63b8ff" points="306.34,-137.13 314.23,-130.05 303.65,-130.66 306.34,-137.13"/>
</g>
<!-- Node25 -->
<g id="node25" class="node">
<title>Node25</title>
<g id="a_node25"><a xlink:href="a00502.xhtml#a269d316eeb6000aac4f57ade32c83127" target="_top" xlink:title=" ">
<polygon fill="white" stroke="#666666" points="421.5,-216 321.5,-216 321.5,-197 421.5,-197 421.5,-216"/>
<text text-anchor="middle" x="371.5" y="-204" font-family="Helvetica,sans-Serif" font-size="10.00">CVector::mulScalar</text>
</a>
</g>
</g>
<!-- Node2&#45;&gt;Node25 -->
<g id="edge28" class="edge">
<title>Node2&#45;&gt;Node25</title>
<path fill="none" stroke="#63b8ff" d="M259.2,-206.5C276.78,-206.5 294.76,-206.5 311,-206.5"/>
<polygon fill="#63b8ff" stroke="#63b8ff" points="311.4,-210 321.4,-206.5 311.4,-203 311.4,-210"/>
</g>
<!-- Node4 -->
<g id="node4" class="node">
<title>Node4</title>
<g id="a_node4"><a xlink:href="a00474.xhtml#ab5c17fe5c368048a3393818735dc9b8a" target="_top" xlink:title=" ">
<polygon fill="white" stroke="#666666" points="596.5,-214 520.5,-214 520.5,-195 596.5,-195 596.5,-214"/>
<text text-anchor="middle" x="558.5" y="-202" font-family="Helvetica,sans-Serif" font-size="10.00">CFft::compFft</text>
</a>
</g>
</g>
<!-- Node3&#45;&gt;Node4 -->
<g id="edge3" class="edge">
<title>Node3&#45;&gt;Node4</title>
<path fill="none" stroke="#63b8ff" d="M440.34,-178.53C463.66,-183.7 489.24,-189.37 510.53,-194.09"/>
<polygon fill="#63b8ff" stroke="#63b8ff" points="509.78,-197.51 520.3,-196.26 511.3,-190.68 509.78,-197.51"/>
</g>
<!-- Node9 -->
<g id="node9" class="node">
<title>Node9</title>
<g id="a_node9"><a xlink:href="a00474.xhtml#a48428f0ac37a3c112c9598c784771d4a" target="_top" xlink:title=" ">
<polygon fill="white" stroke="#666666" points="607.5,-177 509.5,-177 509.5,-158 607.5,-158 607.5,-177"/>
<text text-anchor="middle" x="558.5" y="-165" font-family="Helvetica,sans-Serif" font-size="10.00">CFft::getMagnitude</text>
</a>
</g>
</g>
<!-- Node3&#45;&gt;Node9 -->
<g id="edge8" class="edge">
<title>Node3&#45;&gt;Node9</title>
<path fill="none" stroke="#63b8ff" d="M444.56,-165.06C462.54,-165.45 481.6,-165.86 498.84,-166.23"/>
<polygon fill="#63b8ff" stroke="#63b8ff" points="499.25,-169.74 509.32,-166.46 499.4,-162.74 499.25,-169.74"/>
</g>
<!-- Node10 -->
<g id="node10" class="node">
<title>Node10</title>
<g id="a_node10"><a xlink:href="a00542.xhtml#a531920b36b04ecdb562bfbb09dd2e856" target="_top" xlink:title=" ">
<polygon fill="white" stroke="#666666" points="629.5,-140 487.5,-140 487.5,-121 629.5,-121 629.5,-140"/>
<text text-anchor="middle" x="558.5" y="-128" font-family="Helvetica,sans-Serif" font-size="10.00">CBlockAudioIf::getNextBlock</text>
</a>
</g>
</g>
<!-- Node3&#45;&gt;Node10 -->
<g id="edge9" class="edge">
<title>Node3&#45;&gt;Node10</title>
<path fill="none" stroke="#63b8ff" d="M444.56,-150.65C460.78,-147.75 477.9,-144.7 493.76,-141.87"/>
<polygon fill="#63b8ff" stroke="#63b8ff" points="494.75,-145.25 503.98,-140.05 493.52,-138.36 494.75,-145.25"/>
</g>
<!-- Node11 -->
<g id="node11" class="node">
<title>Node11</title>
<g id="a_node11"><a xlink:href="a00502.xhtml#a9811f50434dd058d201290b2dc98bfcd" target="_top" xlink:title=" ">
<polygon fill="white" stroke="#666666" points="756,-76 669,-76 669,-57 756,-57 756,-76"/>
<text text-anchor="middle" x="712.5" y="-64" font-family="Helvetica,sans-Serif" font-size="10.00">CVector::mulC_I</text>
</a>
</g>
</g>
<!-- Node3&#45;&gt;Node11 -->
<g id="edge10" class="edge">
<title>Node3&#45;&gt;Node11</title>
<path fill="none" stroke="#63b8ff" d="M434.94,-148.41C439.63,-145.89 444.06,-142.94 448,-139.5 476.15,-114.91 452.42,-83.49 484,-63.5 541.65,-27.02 625.06,-41.13 673.24,-54.17"/>
<polygon fill="#63b8ff" stroke="#63b8ff" points="672.38,-57.57 682.96,-56.92 674.29,-50.83 672.38,-57.57"/>
</g>
<!-- Node12 -->
<g id="node12" class="node">
<title>Node12</title>
<g id="a_node12"><a xlink:href="a00606.xhtml#aa8a561b4133585586c5b595116a9217f" target="_top" xlink:title=" ">
<polygon fill="white" stroke="#666666" points="627,-102.5 490,-102.5 490,-72.5 627,-72.5 627,-102.5"/>
<text text-anchor="start" x="498" y="-90.5" font-family="Helvetica,sans-Serif" font-size="10.00">CNormalizeAudio::normalize</text>
<text text-anchor="middle" x="558.5" y="-79.5" font-family="Helvetica,sans-Serif" font-size="10.00">Block</text>
</a>
</g>
</g>
<!-- Node3&#45;&gt;Node12 -->
<g id="edge11" class="edge">
<title>Node3&#45;&gt;Node12</title>
<path fill="none" stroke="#63b8ff" d="M427.41,-148.46C434.49,-145.82 441.52,-142.84 448,-139.5 465.78,-130.34 466.31,-121.84 484,-112.5 488.18,-110.3 492.58,-108.23 497.09,-106.3"/>
<polygon fill="#63b8ff" stroke="#63b8ff" points="498.44,-109.52 506.41,-102.53 495.82,-103.03 498.44,-109.52"/>
</g>
<!-- Node5 -->
<g id="node5" class="node">
<title>Node5</title>
<g id="a_node5"><a xlink:href="a00502.xhtml#ad7c5cba73e439adac77778f61c9418f0" target="_top" xlink:title=" ">
<polygon fill="white" stroke="#666666" points="751,-251 674,-251 674,-232 751,-232 751,-251"/>
<text text-anchor="middle" x="712.5" y="-239" font-family="Helvetica,sans-Serif" font-size="10.00">CVector::copy</text>
</a>
</g>
</g>
<!-- Node4&#45;&gt;Node5 -->
<g id="edge4" class="edge">
<title>Node4&#45;&gt;Node5</title>
<path fill="none" stroke="#63b8ff" d="M596.68,-213.55C616.94,-218.48 642.23,-224.64 663.91,-229.92"/>
<polygon fill="#63b8ff" stroke="#63b8ff" points="663.37,-233.39 673.91,-232.35 665.02,-226.58 663.37,-233.39"/>
</g>
<!-- Node6 -->
<g id="node6" class="node">
<title>Node6</title>
<g id="a_node6"><a xlink:href="a00502.xhtml#a5fb59528a3f5d3968f988d550b270898" target="_top" xlink:title=" ">
<polygon fill="white" stroke="#666666" points="752.5,-214 672.5,-214 672.5,-195 752.5,-195 752.5,-214"/>
<text text-anchor="middle" x="712.5" y="-202" font-family="Helvetica,sans-Serif" font-size="10.00">CVector::mul_I</text>
</a>
</g>
</g>
<!-- Node4&#45;&gt;Node6 -->
<g id="edge5" class="edge">
<title>Node4&#45;&gt;Node6</title>
<path fill="none" stroke="#63b8ff" d="M596.68,-204.5C616.4,-204.5 640.87,-204.5 662.16,-204.5"/>
<polygon fill="#63b8ff" stroke="#63b8ff" points="662.31,-208 672.31,-204.5 662.31,-201 662.31,-208"/>
</g>
<!-- Node7 -->
<g id="node7" class="node">
<title>Node7</title>
<g id="a_node7"><a xlink:href="a00305.xhtml#a32fc71031e721d003fd1dc07f771351d" target="_top" xlink:title=" ">
<polygon fill="white" stroke="#666666" points="755.5,-176.5 669.5,-176.5 669.5,-146.5 755.5,-146.5 755.5,-176.5"/>
<text text-anchor="start" x="677.5" y="-164.5" font-family="Helvetica,sans-Serif" font-size="10.00">LaszloFft::realfft</text>
<text text-anchor="middle" x="712.5" y="-153.5" font-family="Helvetica,sans-Serif" font-size="10.00">_split</text>
</a>
</g>
</g>
<!-- Node4&#45;&gt;Node7 -->
<g id="edge6" class="edge">
<title>Node4&#45;&gt;Node7</title>
<path fill="none" stroke="#63b8ff" d="M596.64,-195.92C608.32,-193.09 621.24,-189.81 633,-186.5 641.6,-184.08 650.68,-181.35 659.49,-178.61"/>
<polygon fill="#63b8ff" stroke="#63b8ff" points="660.8,-181.87 669.29,-175.52 658.7,-175.19 660.8,-181.87"/>
</g>
<!-- Node8 -->
<g id="node8" class="node">
<title>Node8</title>
<g id="a_node8"><a xlink:href="a00502.xhtml#a6dbb3f9f480568b60f7fe50090d20003" target="_top" xlink:title=" ">
<polygon fill="white" stroke="#666666" points="881,-363 792,-363 792,-344 881,-344 881,-363"/>
<text text-anchor="middle" x="836.5" y="-351" font-family="Helvetica,sans-Serif" font-size="10.00">CVector::setZero</text>
</a>
</g>
</g>
<!-- Node4&#45;&gt;Node8 -->
<g id="edge7" class="edge">
<title>Node4&#45;&gt;Node8</title>
<path fill="none" stroke="#63b8ff" d="M596.54,-209.95C608.71,-212.8 621.94,-217.08 633,-223.5 652.84,-235.02 650.79,-246.54 669,-260.5 712.83,-294.11 770.24,-323.41 804.92,-339.74"/>
<polygon fill="#63b8ff" stroke="#63b8ff" points="803.52,-342.95 814.06,-344 806.47,-336.61 803.52,-342.95"/>
</g>
<!-- Node12&#45;&gt;Node11 -->
<g id="edge12" class="edge">
<title>Node12&#45;&gt;Node11</title>
<path fill="none" stroke="#63b8ff" d="M627.05,-78.17C637.64,-76.7 648.45,-75.21 658.64,-73.8"/>
<polygon fill="#63b8ff" stroke="#63b8ff" points="659.17,-77.26 668.6,-72.43 658.21,-70.33 659.17,-77.26"/>
</g>
<!-- Node14 -->
<g id="node14" class="node">
<title>Node14</title>
<g id="a_node14"><a xlink:href="a00486.xhtml#a591097c6b1935c4d6273b3445f8f552b" target="_top" xlink:title=" ">
<polygon fill="white" stroke="#666666" points="594,-512 523,-512 523,-493 594,-493 594,-512"/>
<text text-anchor="middle" x="558.5" y="-500" font-family="Helvetica,sans-Serif" font-size="10.00">CMatrix::free</text>
</a>
</g>
</g>
<!-- Node13&#45;&gt;Node14 -->
<g id="edge14" class="edge">
<title>Node13&#45;&gt;Node14</title>
<path fill="none" stroke="#63b8ff" d="M400.28,-458.09C422.74,-465.68 455.23,-476.34 484,-484.5 493.38,-487.16 503.5,-489.79 513.14,-492.18"/>
<polygon fill="#63b8ff" stroke="#63b8ff" points="512.42,-495.61 522.96,-494.59 514.08,-488.81 512.42,-495.61"/>
</g>
<!-- Node15 -->
<g id="node15" class="node">
<title>Node15</title>
<g id="a_node15"><a xlink:href="a00502.xhtml#aa86bdb0c663d4d52f2765793756f8737" target="_top" xlink:title=" ">
<polygon fill="white" stroke="#666666" points="749,-512 676,-512 676,-493 749,-493 749,-512"/>
<text text-anchor="middle" x="712.5" y="-500" font-family="Helvetica,sans-Serif" font-size="10.00">CVector::free</text>
</a>
</g>
</g>
<!-- Node14&#45;&gt;Node15 -->
<g id="edge15" class="edge">
<title>Node14&#45;&gt;Node15</title>
<path fill="none" stroke="#63b8ff" d="M594.37,-502.5C615.58,-502.5 642.9,-502.5 665.82,-502.5"/>
<polygon fill="#63b8ff" stroke="#63b8ff" points="666,-506 676,-502.5 666,-499 666,-506"/>
</g>
<!-- Node17 -->
<g id="node17" class="node">
<title>Node17</title>
<g id="a_node17"><a xlink:href="a00502.xhtml#abaadac98b1cad18b7b568852bc951696" target="_top" xlink:title=" ">
<polygon fill="white" stroke="#666666" points="751,-400 674,-400 674,-381 751,-381 751,-400"/>
<text text-anchor="middle" x="712.5" y="-388" font-family="Helvetica,sans-Serif" font-size="10.00">CVector::alloc</text>
</a>
</g>
</g>
<!-- Node16&#45;&gt;Node17 -->
<g id="edge17" class="edge">
<title>Node16&#45;&gt;Node17</title>
<path fill="none" stroke="#63b8ff" d="M409.28,-348.58C430.72,-356.72 458.48,-366.17 484,-371.5 545.14,-384.27 617.21,-388.52 663.59,-389.9"/>
<polygon fill="#63b8ff" stroke="#63b8ff" points="663.57,-393.4 673.66,-390.16 663.75,-386.4 663.57,-393.4"/>
</g>
<!-- Node18 -->
<g id="node18" class="node">
<title>Node18</title>
<g id="a_node18"><a xlink:href="a00486.xhtml#a6501b78d76c912d49eee88c8f7242923" target="_top" xlink:title=" ">
<polygon fill="white" stroke="#666666" points="595.5,-438 521.5,-438 521.5,-419 595.5,-419 595.5,-438"/>
<text text-anchor="middle" x="558.5" y="-426" font-family="Helvetica,sans-Serif" font-size="10.00">CMatrix::alloc</text>
</a>
</g>
</g>
<!-- Node16&#45;&gt;Node18 -->
<g id="edge19" class="edge">
<title>Node16&#45;&gt;Node18</title>
<path fill="none" stroke="#63b8ff" d="M392.96,-348.77C414.66,-364.41 450.38,-388.62 484,-404.5 492.92,-408.71 502.77,-412.48 512.29,-415.72"/>
<polygon fill="#63b8ff" stroke="#63b8ff" points="511.44,-419.13 522.03,-418.9 513.61,-412.47 511.44,-419.13"/>
</g>
<!-- Node19 -->
<g id="node19" class="node">
<title>Node19</title>
<g id="a_node19"><a xlink:href="a00550.xhtml#aebe59f905b1dd02058cccbb062de6507" target="_top" xlink:title=" ">
<polygon fill="white" stroke="#666666" points="632.5,-362 484.5,-362 484.5,-343 632.5,-343 632.5,-362"/>
<text text-anchor="middle" x="558.5" y="-350" font-family="Helvetica,sans-Serif" font-size="10.00">CConversion::convertBin2Freq</text>
</a>
</g>
</g>
<!-- Node16&#45;&gt;Node19 -->
<g id="edge21" class="edge">
<title>Node16&#45;&gt;Node19</title>
<path fill="none" stroke="#63b8ff" d="M435.13,-339.93C447.75,-341.23 461.19,-342.61 474.38,-343.96"/>
<polygon fill="#63b8ff" stroke="#63b8ff" points="474.09,-347.45 484.39,-344.99 474.8,-340.49 474.09,-347.45"/>
</g>
<!-- Node20 -->
<g id="node20" class="node">
<title>Node20</title>
<g id="a_node20"><a xlink:href="a00550.xhtml#ad0d26c7c6a5edaa81527e68fe0c0c46f" target="_top" xlink:title=" ">
<polygon fill="white" stroke="#666666" points="633,-325 484,-325 484,-306 633,-306 633,-325"/>
<text text-anchor="middle" x="558.5" y="-313" font-family="Helvetica,sans-Serif" font-size="10.00">CConversion::convertFreq2Mel</text>
</a>
</g>
</g>
<!-- Node16&#45;&gt;Node20 -->
<g id="edge22" class="edge">
<title>Node16&#45;&gt;Node20</title>
<path fill="none" stroke="#63b8ff" d="M435.13,-327.41C447.46,-326.21 460.57,-324.93 473.47,-323.68"/>
<polygon fill="#63b8ff" stroke="#63b8ff" points="474.13,-327.13 483.74,-322.68 473.45,-320.16 474.13,-327.13"/>
</g>
<!-- Node21 -->
<g id="node21" class="node">
<title>Node21</title>
<g id="a_node21"><a xlink:href="a00550.xhtml#adbcadd75a3a33ca9e9453a17a9336318" target="_top" xlink:title=" ">
<polygon fill="white" stroke="#666666" points="633,-288 484,-288 484,-269 633,-269 633,-288"/>
<text text-anchor="middle" x="558.5" y="-276" font-family="Helvetica,sans-Serif" font-size="10.00">CConversion::convertMel2Freq</text>
</a>
</g>
</g>
<!-- Node16&#45;&gt;Node21 -->
<g id="edge23" class="edge">
<title>Node16&#45;&gt;Node21</title>
<path fill="none" stroke="#63b8ff" d="M417.07,-318.44C437.4,-311.74 461.83,-303.94 484,-297.5 492.1,-295.15 500.74,-292.79 509.14,-290.56"/>
<polygon fill="#63b8ff" stroke="#63b8ff" points="510.06,-293.94 518.85,-288.03 508.3,-287.17 510.06,-293.94"/>
</g>
<!-- Node22 -->
<g id="node22" class="node">
<title>Node22</title>
<g id="a_node22"><a xlink:href="a00474.xhtml#a22af988b424911d7750a0f9f381aa443" target="_top" xlink:title=" ">
<polygon fill="white" stroke="#666666" points="595.5,-475 521.5,-475 521.5,-456 595.5,-456 595.5,-475"/>
<text text-anchor="middle" x="558.5" y="-463" font-family="Helvetica,sans-Serif" font-size="10.00">CFft::freq2bin</text>
</a>
</g>
</g>
<!-- Node16&#45;&gt;Node22 -->
<g id="edge24" class="edge">
<title>Node16&#45;&gt;Node22</title>
<path fill="none" stroke="#63b8ff" d="M382.92,-348.69C400.68,-373.37 439.27,-421.99 484,-447.5 492.39,-452.28 502.01,-455.8 511.48,-458.39"/>
<polygon fill="#63b8ff" stroke="#63b8ff" points="510.68,-461.8 521.22,-460.76 512.33,-455 510.68,-461.8"/>
</g>
<!-- Node16&#45;&gt;Node23 -->
<g id="edge25" class="edge">
<title>Node16&#45;&gt;Node23</title>
<path fill="none" stroke="#63b8ff" d="M391.51,-318.24C412.86,-301.8 449.08,-275.94 484,-260.5 491.2,-257.31 499.05,-254.58 506.85,-252.26"/>
<polygon fill="#63b8ff" stroke="#63b8ff" points="507.94,-255.59 516.64,-249.54 506.07,-248.84 507.94,-255.59"/>
</g>
<!-- Node17&#45;&gt;Node8 -->
<g id="edge18" class="edge">
<title>Node17&#45;&gt;Node8</title>
<path fill="none" stroke="#63b8ff" d="M744.92,-380.97C759.89,-376.43 777.99,-370.94 794.06,-366.07"/>
<polygon fill="#63b8ff" stroke="#63b8ff" points="795.21,-369.38 803.76,-363.12 793.18,-362.68 795.21,-369.38"/>
</g>
<!-- Node18&#45;&gt;Node17 -->
<g id="edge20" class="edge">
<title>Node18&#45;&gt;Node17</title>
<path fill="none" stroke="#63b8ff" d="M595.52,-419.49C616,-414.37 641.89,-407.9 664.02,-402.37"/>
<polygon fill="#63b8ff" stroke="#63b8ff" points="665.03,-405.73 673.88,-399.9 663.33,-398.93 665.03,-405.73"/>
</g>
<!-- Node27 -->
<g id="node27" class="node">
<title>Node27</title>
<g id="a_node27"><a xlink:href="a00498.xhtml#a6d0e75b0bcbbb243b7141cfc0126e443" target="_top" xlink:title=" ">
<polygon fill="white" stroke="#666666" points="414.5,-93 328.5,-93 328.5,-74 414.5,-74 414.5,-93"/>
<text text-anchor="middle" x="371.5" y="-81" font-family="Helvetica,sans-Serif" font-size="10.00">CUtil::isPowOf2</text>
</a>
</g>
</g>
<!-- Node26&#45;&gt;Node27 -->
<g id="edge30" class="edge">
<title>Node26&#45;&gt;Node27</title>
<path fill="none" stroke="#63b8ff" d="M224.59,-83.5C253.94,-83.5 289.46,-83.5 318.1,-83.5"/>
<polygon fill="#63b8ff" stroke="#63b8ff" points="318.32,-87 328.32,-83.5 318.32,-80 318.32,-87"/>
</g>
<!-- Node29&#45;&gt;Node24 -->
<g id="edge33" class="edge">
<title>Node29&#45;&gt;Node24</title>
<path fill="none" stroke="#63b8ff" d="M238.5,-148.46C263.81,-143.1 291.91,-137.15 315.66,-132.12"/>
<polygon fill="#63b8ff" stroke="#63b8ff" points="316.49,-135.52 325.55,-130.02 315.04,-128.67 316.49,-135.52"/>
</g>
<!-- Node31 -->
<g id="node31" class="node">
<title>Node31</title>
<g id="a_node31"><a xlink:href="a00053.xhtml#a352c17bde18dd0d9c3989f6050b060b0" target="_top" xlink:title=" ">
<polygon fill="white" stroke="#666666" points="416,-19 327,-19 327,0 416,0 416,-19"/>
<text text-anchor="middle" x="371.5" y="-7" font-family="Helvetica,sans-Serif" font-size="10.00">getAcaBuildDate</text>
</a>
</g>
</g>
<!-- Node30&#45;&gt;Node31 -->
<g id="edge35" class="edge">
<title>Node30&#45;&gt;Node31</title>
<path fill="none" stroke="#63b8ff" d="M199.22,-40.72C230.61,-35 279.27,-26.13 316.71,-19.3"/>
<polygon fill="#63b8ff" stroke="#63b8ff" points="317.74,-22.67 326.95,-17.44 316.49,-15.79 317.74,-22.67"/>
</g>
<!-- Node32 -->
<g id="node32" class="node">
<title>Node32</title>
<g id="a_node32"><a xlink:href="a00053.xhtml#aeca12b465ae15d8b8e775e1b0cfec9f3" target="_top" xlink:title=" ">
<polygon fill="white" stroke="#666666" points="411.5,-56 331.5,-56 331.5,-37 411.5,-37 411.5,-56"/>
<text text-anchor="middle" x="371.5" y="-44" font-family="Helvetica,sans-Serif" font-size="10.00">getAcaVersion</text>
</a>
</g>
</g>
<!-- Node30&#45;&gt;Node32 -->
<g id="edge36" class="edge">
<title>Node30&#45;&gt;Node32</title>
<path fill="none" stroke="#63b8ff" d="M199.22,-46.5C231.84,-46.5 283.09,-46.5 321.04,-46.5"/>
<polygon fill="#63b8ff" stroke="#63b8ff" points="321.36,-50 331.36,-46.5 321.36,-43 321.36,-50"/>
</g>
</g>
</svg>
