<?xml version="1.0" encoding="UTF-8" standalone="no"?>
<!DOCTYPE svg PUBLIC "-//W3C//DTD SVG 1.1//EN"
 "http://www.w3.org/Graphics/SVG/1.1/DTD/svg11.dtd">
<!-- Generated by graphviz version 6.0.1 (20220911.1526)
 -->
<!-- Title: Spectrogram.h Pages: 1 -->
<svg width="1287pt" height="137pt"
 viewBox="0.00 0.00 1286.50 137.00" xmlns="http://www.w3.org/2000/svg" xmlns:xlink="http://www.w3.org/1999/xlink">
<g id="graph0" class="graph" transform="scale(1 1) rotate(0) translate(4 133)">
<title>Spectrogram.h</title>
<!-- Node1 -->
<g id="node1" class="node">
<title>Node1</title>
<g id="a_node1"><a xlink:title=" ">
<polygon fill="#999999" stroke="#666666" points="1118,-129 1038,-129 1038,-110 1118,-110 1118,-129"/>
<text text-anchor="middle" x="1078" y="-117" font-family="Helvetica,sans-Serif" font-size="10.00">Spectrogram.h</text>
</a>
</g>
</g>
<!-- Node2 -->
<g id="node2" class="node">
<title>Node2</title>
<g id="a_node2"><a xlink:href="a00128.xhtml" target="_top" xlink:title=" ">
<polygon fill="white" stroke="#666666" points="695.5,-74 642.5,-74 642.5,-55 695.5,-55 695.5,-74"/>
<text text-anchor="middle" x="669" y="-62" font-family="Helvetica,sans-Serif" font-size="10.00">AcaAll.h</text>
</a>
</g>
</g>
<!-- Node1&#45;&gt;Node2 -->
<g id="edge1" class="edge">
<title>Node1&#45;&gt;Node2</title>
<path fill="none" stroke="#63b8ff" d="M1027.71,-111.98C940.22,-100.65 762.94,-77.67 695.68,-68.96"/>
<polygon fill="#63b8ff" stroke="#63b8ff" points="1027.3,-115.46 1037.66,-113.27 1028.2,-108.52 1027.3,-115.46"/>
</g>
<!-- Node9 -->
<g id="node9" class="node">
<title>Node9</title>
<g id="a_node9"><a xlink:href="a00119.xhtml" target="_top" xlink:title=" ">
<polygon fill="white" stroke="#666666" points="1131.5,-19 986.5,-19 986.5,0 1131.5,0 1131.5,-19"/>
<text text-anchor="middle" x="1059" y="-7" font-family="Helvetica,sans-Serif" font-size="10.00">ComputeMelSpectrogram.cpp</text>
</a>
</g>
</g>
<!-- Node1&#45;&gt;Node9 -->
<g id="edge12" class="edge">
<title>Node1&#45;&gt;Node9</title>
<path fill="none" stroke="#63b8ff" d="M1074.71,-99.8C1070.56,-76.2 1063.59,-36.58 1060.52,-19.16"/>
<polygon fill="#63b8ff" stroke="#63b8ff" points="1071.27,-100.42 1076.45,-109.66 1078.16,-99.21 1071.27,-100.42"/>
</g>
<!-- Node12 -->
<g id="node12" class="node">
<title>Node12</title>
<g id="a_node12"><a xlink:href="a00008.xhtml" target="_top" xlink:title=" ">
<polygon fill="white" stroke="#666666" points="1278.5,-19 1149.5,-19 1149.5,0 1278.5,0 1278.5,-19"/>
<text text-anchor="middle" x="1214" y="-7" font-family="Helvetica,sans-Serif" font-size="10.00">ComputeSpectrogram.cpp</text>
</a>
</g>
</g>
<!-- Node1&#45;&gt;Node12 -->
<g id="edge13" class="edge">
<title>Node1&#45;&gt;Node12</title>
<path fill="none" stroke="#63b8ff" d="M1085.19,-100.5C1091.53,-86.55 1101.95,-67.55 1116,-55 1135.37,-37.7 1162.6,-26.07 1183.44,-19.05"/>
<polygon fill="#63b8ff" stroke="#63b8ff" points="1081.84,-99.42 1081.14,-109.99 1088.28,-102.17 1081.84,-99.42"/>
</g>
<!-- Node13 -->
<g id="node13" class="node">
<title>Node13</title>
<g id="a_node13"><a xlink:href="a00038.xhtml" target="_top" xlink:title=" ">
<polygon fill="white" stroke="#666666" points="1215,-74 1125,-74 1125,-55 1215,-55 1215,-74"/>
<text text-anchor="middle" x="1170" y="-62" font-family="Helvetica,sans-Serif" font-size="10.00">Spectrogram.cpp</text>
</a>
</g>
</g>
<!-- Node1&#45;&gt;Node13 -->
<g id="edge14" class="edge">
<title>Node1&#45;&gt;Node13</title>
<path fill="none" stroke="#63b8ff" d="M1101.49,-104.97C1118.31,-95.28 1140.45,-82.52 1154.95,-74.17"/>
<polygon fill="#63b8ff" stroke="#63b8ff" points="1099.7,-101.96 1092.78,-109.98 1103.19,-108.03 1099.7,-101.96"/>
</g>
<!-- Node3 -->
<g id="node3" class="node">
<title>Node3</title>
<g id="a_node3"><a xlink:href="a00053.xhtml" target="_top" xlink:title=" ">
<polygon fill="white" stroke="#666666" points="339.5,-19 276.5,-19 276.5,0 339.5,0 339.5,-19"/>
<text text-anchor="middle" x="308" y="-7" font-family="Helvetica,sans-Serif" font-size="10.00">AcaAll.cpp</text>
</a>
</g>
</g>
<!-- Node2&#45;&gt;Node3 -->
<g id="edge2" class="edge">
<title>Node2&#45;&gt;Node3</title>
<path fill="none" stroke="#63b8ff" d="M632.18,-59.27C572.37,-52.19 450.46,-36.97 348,-19 345.34,-18.53 342.59,-18.02 339.84,-17.48"/>
<polygon fill="#63b8ff" stroke="#63b8ff" points="631.93,-62.76 642.27,-60.45 632.74,-55.81 631.93,-62.76"/>
</g>
<!-- Node4 -->
<g id="node4" class="node">
<title>Node4</title>
<g id="a_node4"><a xlink:href="a00011.xhtml" target="_top" xlink:title=" ">
<polygon fill="white" stroke="#666666" points="474.5,-19 357.5,-19 357.5,0 474.5,0 474.5,-19"/>
<text text-anchor="middle" x="416" y="-7" font-family="Helvetica,sans-Serif" font-size="10.00">ComputeBeatHisto.cpp</text>
</a>
</g>
</g>
<!-- Node2&#45;&gt;Node4 -->
<g id="edge3" class="edge">
<title>Node2&#45;&gt;Node4</title>
<path fill="none" stroke="#63b8ff" d="M632.43,-55.84C585.78,-46.07 505.34,-29.22 456.77,-19.04"/>
<polygon fill="#63b8ff" stroke="#63b8ff" points="631.9,-59.3 642.4,-57.93 633.33,-52.45 631.9,-59.3"/>
</g>
<!-- Node5 -->
<g id="node5" class="node">
<title>Node5</title>
<g id="a_node5"><a xlink:href="a00005.xhtml" target="_top" xlink:title=" ">
<polygon fill="white" stroke="#666666" points="597,-19 493,-19 493,0 597,0 597,-19"/>
<text text-anchor="middle" x="545" y="-7" font-family="Helvetica,sans-Serif" font-size="10.00">ComputeChords.cpp</text>
</a>
</g>
</g>
<!-- Node2&#45;&gt;Node5 -->
<g id="edge4" class="edge">
<title>Node2&#45;&gt;Node5</title>
<path fill="none" stroke="#63b8ff" d="M639.82,-51.03C616.89,-41.23 585.55,-27.83 565.29,-19.17"/>
<polygon fill="#63b8ff" stroke="#63b8ff" points="638.51,-54.27 649.08,-54.98 641.26,-47.84 638.51,-54.27"/>
</g>
<!-- Node6 -->
<g id="node6" class="node">
<title>Node6</title>
<g id="a_node6"><a xlink:href="a00002.xhtml" target="_top" xlink:title=" ">
<polygon fill="white" stroke="#666666" points="722.5,-19 615.5,-19 615.5,0 722.5,0 722.5,-19"/>
<text text-anchor="middle" x="669" y="-7" font-family="Helvetica,sans-Serif" font-size="10.00">ComputeFeature.cpp</text>
</a>
</g>
</g>
<!-- Node2&#45;&gt;Node6 -->
<g id="edge5" class="edge">
<title>Node2&#45;&gt;Node6</title>
<path fill="none" stroke="#63b8ff" d="M669,-44.66C669,-35.93 669,-25.99 669,-19.09"/>
<polygon fill="#63b8ff" stroke="#63b8ff" points="665.5,-44.75 669,-54.75 672.5,-44.75 665.5,-44.75"/>
</g>
<!-- Node7 -->
<g id="node7" class="node">
<title>Node7</title>
<g id="a_node7"><a xlink:href="a00116.xhtml" target="_top" xlink:title=" ">
<polygon fill="white" stroke="#666666" points="859.5,-19 740.5,-19 740.5,0 859.5,0 859.5,-19"/>
<text text-anchor="middle" x="800" y="-7" font-family="Helvetica,sans-Serif" font-size="10.00">ComputeFingerprint.cpp</text>
</a>
</g>
</g>
<!-- Node2&#45;&gt;Node7 -->
<g id="edge6" class="edge">
<title>Node2&#45;&gt;Node7</title>
<path fill="none" stroke="#63b8ff" d="M699.5,-51.16C723.75,-41.35 757.07,-27.87 778.57,-19.17"/>
<polygon fill="#63b8ff" stroke="#63b8ff" points="698,-47.99 690.05,-54.98 700.63,-54.48 698,-47.99"/>
</g>
<!-- Node8 -->
<g id="node8" class="node">
<title>Node8</title>
<g id="a_node8"><a xlink:href="a00122.xhtml" target="_top" xlink:title=" ">
<polygon fill="white" stroke="#666666" points="968,-19 878,-19 878,0 968,0 968,-19"/>
<text text-anchor="middle" x="923" y="-7" font-family="Helvetica,sans-Serif" font-size="10.00">ComputeKey.cpp</text>
</a>
</g>
</g>
<!-- Node2&#45;&gt;Node8 -->
<g id="edge7" class="edge">
<title>Node2&#45;&gt;Node8</title>
<path fill="none" stroke="#63b8ff" d="M705.72,-55.84C752.55,-46.07 833.3,-29.22 882.07,-19.04"/>
<polygon fill="#63b8ff" stroke="#63b8ff" points="704.78,-52.46 695.7,-57.93 706.21,-59.31 704.78,-52.46"/>
</g>
<!-- Node2&#45;&gt;Node9 -->
<g id="edge8" class="edge">
<title>Node2&#45;&gt;Node9</title>
<path fill="none" stroke="#63b8ff" d="M705.85,-58.49C772.55,-49.43 913.98,-30.21 996.19,-19.04"/>
<polygon fill="#63b8ff" stroke="#63b8ff" points="705.24,-55.04 695.81,-59.86 706.19,-61.98 705.24,-55.04"/>
</g>
<!-- Node10 -->
<g id="node10" class="node">
<title>Node10</title>
<g id="a_node10"><a xlink:href="a00023.xhtml" target="_top" xlink:title=" ">
<polygon fill="white" stroke="#666666" points="144,-19 0,-19 0,0 144,0 144,-19"/>
<text text-anchor="middle" x="72" y="-7" font-family="Helvetica,sans-Serif" font-size="10.00">ComputeNoveltyFunction.cpp</text>
</a>
</g>
</g>
<!-- Node2&#45;&gt;Node10 -->
<g id="edge9" class="edge">
<title>Node2&#45;&gt;Node10</title>
<path fill="none" stroke="#63b8ff" d="M632.28,-60.57C547.69,-53.76 332.61,-36.17 153,-19 150.18,-18.73 147.32,-18.45 144.42,-18.17"/>
<polygon fill="#63b8ff" stroke="#63b8ff" points="632.15,-64.07 642.4,-61.38 632.71,-57.09 632.15,-64.07"/>
</g>
<!-- Node11 -->
<g id="node11" class="node">
<title>Node11</title>
<g id="a_node11"><a xlink:href="a00125.xhtml" target="_top" xlink:title=" ">
<polygon fill="white" stroke="#666666" points="258,-19 162,-19 162,0 258,0 258,-19"/>
<text text-anchor="middle" x="210" y="-7" font-family="Helvetica,sans-Serif" font-size="10.00">ComputePitch.cpp</text>
</a>
</g>
</g>
<!-- Node2&#45;&gt;Node11 -->
<g id="edge10" class="edge">
<title>Node2&#45;&gt;Node11</title>
<path fill="none" stroke="#63b8ff" d="M631.93,-59.87C560.99,-52.82 401.12,-36.42 267,-19 264.12,-18.63 261.17,-18.23 258.18,-17.82"/>
<polygon fill="#63b8ff" stroke="#63b8ff" points="631.85,-63.38 642.14,-60.88 632.54,-56.41 631.85,-63.38"/>
</g>
<!-- Node2&#45;&gt;Node12 -->
<g id="edge11" class="edge">
<title>Node2&#45;&gt;Node12</title>
<path fill="none" stroke="#63b8ff" d="M705.62,-60.32C785,-53.38 978.84,-36.08 1141,-19 1143.66,-18.72 1146.38,-18.43 1149.13,-18.13"/>
<polygon fill="#63b8ff" stroke="#63b8ff" points="705.29,-56.84 695.63,-61.2 705.9,-63.81 705.29,-56.84"/>
</g>
</g>
</svg>
