<?xml version="1.0" encoding="UTF-8" standalone="no"?>
<!DOCTYPE svg PUBLIC "-//W3C//DTD SVG 1.1//EN"
 "http://www.w3.org/Graphics/SVG/1.1/DTD/svg11.dtd">
<!-- Generated by graphviz version 4.0.0 (20220602.1335)
 -->
<!-- Title: Catch::Detail::convertUnstreamable Pages: 1 -->
<svg width="508pt" height="106pt"
 viewBox="0.00 0.00 508.00 106.00" xmlns="http://www.w3.org/2000/svg" xmlns:xlink="http://www.w3.org/1999/xlink">
<g id="graph0" class="graph" transform="scale(1 1) rotate(0) translate(4 102)">
<title>Catch::Detail::convertUnstreamable</title>
<polygon fill="white" stroke="transparent" points="-4,4 -4,-102 504,-102 504,4 -4,4"/>
<!-- Node1 -->
<g id="node1" class="node">
<title>Node1</title>
<g id="a_node1"><a xlink:title=" ">
<polygon fill="#bfbfbf" stroke="black" points="0,-39 0,-58 169,-58 169,-39 0,-39"/>
<text text-anchor="middle" x="84.5" y="-46" font-family="Helvetica,sans-Serif" font-size="10.00">Catch::Detail::convertUnstreamable</text>
</a>
</g>
</g>
<!-- Node2 -->
<g id="node2" class="node">
<title>Node2</title>
<g id="a_node2"><a xlink:href="a00289.xhtml#a242396de537c5176710d680cc9ca6b93" target="_top" xlink:title=" ">
<polygon fill="white" stroke="black" points="205,-67.5 205,-97.5 354,-97.5 354,-67.5 205,-67.5"/>
<text text-anchor="start" x="213" y="-85.5" font-family="Helvetica,sans-Serif" font-size="10.00">Catch::Detail::convertUnknown</text>
<text text-anchor="middle" x="279.5" y="-74.5" font-family="Helvetica,sans-Serif" font-size="10.00">EnumToString</text>
</a>
</g>
</g>
<!-- Node1&#45;&gt;Node2 -->
<g id="edge1" class="edge">
<title>Node1&#45;&gt;Node2</title>
<path fill="none" stroke="midnightblue" d="M139.52,-58.02C156.63,-61.03 175.96,-64.44 194.65,-67.73"/>
<polygon fill="midnightblue" stroke="midnightblue" points="194.2,-71.2 204.65,-69.49 195.41,-64.31 194.2,-71.2"/>
</g>
<!-- Node4 -->
<g id="node4" class="node">
<title>Node4</title>
<g id="a_node4"><a xlink:href="a00300.xhtml#a3b2efc97978cf37951b75394aae1a3fb" target="_top" xlink:title=" ">
<polygon fill="white" stroke="black" points="230,-0.5 230,-30.5 329,-30.5 329,-0.5 230,-0.5"/>
<text text-anchor="start" x="238" y="-18.5" font-family="Helvetica,sans-Serif" font-size="10.00">Catch::Generators::</text>
<text text-anchor="middle" x="279.5" y="-7.5" font-family="Helvetica,sans-Serif" font-size="10.00">value</text>
</a>
</g>
</g>
<!-- Node1&#45;&gt;Node4 -->
<g id="edge3" class="edge">
<title>Node1&#45;&gt;Node4</title>
<path fill="none" stroke="midnightblue" d="M141.06,-39C165.73,-34.78 194.77,-29.82 219.79,-25.54"/>
<polygon fill="midnightblue" stroke="midnightblue" points="220.61,-28.95 229.88,-23.81 219.43,-22.05 220.61,-28.95"/>
</g>
<!-- Node3 -->
<g id="node3" class="node">
<title>Node3</title>
<g id="a_node3"><a xlink:href="a00289.xhtml#af0ad48344ffd3f92f3568465248a9880" target="_top" xlink:title=" ">
<polygon fill="white" stroke="black" points="390,-73 390,-92 500,-92 500,-73 390,-73"/>
<text text-anchor="middle" x="445" y="-80" font-family="Helvetica,sans-Serif" font-size="10.00">Catch::Detail::stringify</text>
</a>
</g>
</g>
<!-- Node2&#45;&gt;Node3 -->
<g id="edge2" class="edge">
<title>Node2&#45;&gt;Node3</title>
<path fill="none" stroke="midnightblue" d="M354.12,-82.5C362.68,-82.5 371.35,-82.5 379.77,-82.5"/>
<polygon fill="midnightblue" stroke="midnightblue" points="379.88,-86 389.88,-82.5 379.88,-79 379.88,-86"/>
</g>
<!-- Node4&#45;&gt;Node4 -->
<g id="edge5" class="edge">
<title>Node4&#45;&gt;Node4</title>
<path fill="none" stroke="midnightblue" d="M250.92,-30.66C244.03,-40.06 253.55,-49 279.5,-49 295.31,-49 305.02,-45.68 308.64,-40.96"/>
<polygon fill="midnightblue" stroke="midnightblue" points="312.12,-40.45 308.08,-30.66 305.13,-40.83 312.12,-40.45"/>
</g>
<!-- Node5 -->
<g id="node5" class="node">
<title>Node5</title>
<g id="a_node5"><a xlink:href="a00301.xhtml#a015e8fcef2972da878a07023e40d46d8" target="_top" xlink:title=" ">
<polygon fill="white" stroke="black" points="395.5,-0.5 395.5,-30.5 494.5,-30.5 494.5,-0.5 395.5,-0.5"/>
<text text-anchor="start" x="403.5" y="-18.5" font-family="Helvetica,sans-Serif" font-size="10.00">Catch::Generators::</text>
<text text-anchor="middle" x="445" y="-7.5" font-family="Helvetica,sans-Serif" font-size="10.00">pf::make_unique</text>
</a>
</g>
</g>
<!-- Node4&#45;&gt;Node5 -->
<g id="edge4" class="edge">
<title>Node4&#45;&gt;Node5</title>
<path fill="none" stroke="midnightblue" d="M329.11,-15.5C346.74,-15.5 366.85,-15.5 385.26,-15.5"/>
<polygon fill="midnightblue" stroke="midnightblue" points="385.29,-19 395.29,-15.5 385.29,-12 385.29,-19"/>
</g>
</g>
</svg>
