<?xml version="1.0" encoding="UTF-8" standalone="no"?>
<!DOCTYPE svg PUBLIC "-//W3C//DTD SVG 1.1//EN"
 "http://www.w3.org/Graphics/SVG/1.1/DTD/svg11.dtd">
<!-- Generated by graphviz version 12.2.1 (20241206.2353)
 -->
<!-- Title: sndlib.h Pages: 1 -->
<svg width="212pt" height="83pt"
 viewBox="0.00 0.00 211.88 82.50" xmlns="http://www.w3.org/2000/svg" xmlns:xlink="http://www.w3.org/1999/xlink">
<g id="graph0" class="graph" transform="scale(1 1) rotate(0) translate(4 78.5)">
<title>sndlib.h</title>
<!-- Node1 -->
<g id="Node000001" class="node">
<title>Node1</title>
<g id="a_Node000001"><a xlink:title=" ">
<polygon fill="#999999" stroke="#666666" points="143.75,-74.5 94.75,-74.5 94.75,-55.25 143.75,-55.25 143.75,-74.5"/>
<text text-anchor="middle" x="119.25" y="-61" font-family="Helvetica,sans-Serif" font-size="10.00">sndlib.h</text>
</a>
</g>
</g>
<!-- Node2 -->
<g id="Node000002" class="node">
<title>Node2</title>
<g id="a_Node000002"><a xlink:href="a00017.xhtml" target="_top" xlink:title=" ">
<polygon fill="white" stroke="#666666" points="74.5,-19.25 0,-19.25 0,0 74.5,0 74.5,-19.25"/>
<text text-anchor="middle" x="37.25" y="-5.75" font-family="Helvetica,sans-Serif" font-size="10.00">AudioFile.cpp</text>
</a>
</g>
</g>
<!-- Node1&#45;&gt;Node2 -->
<g id="edge1_Node000001_Node000002" class="edge">
<title>Node1&#45;&gt;Node2</title>
<g id="a_edge1_Node000001_Node000002"><a xlink:title=" ">
<path fill="none" stroke="#63b8ff" d="M96.04,-48.8C81.6,-39.42 63.5,-27.67 51.23,-19.7"/>
<polygon fill="#63b8ff" stroke="#63b8ff" points="93.78,-51.51 104.07,-54.02 97.59,-45.64 93.78,-51.51"/>
</a>
</g>
</g>
<!-- Node3 -->
<g id="Node000003" class="node">
<title>Node3</title>
<g id="a_Node000003"><a xlink:href="a00269.xhtml" target="_top" xlink:title=" ">
<polygon fill="white" stroke="#666666" points="146.38,-19.25 92.12,-19.25 92.12,0 146.38,0 146.38,-19.25"/>
<text text-anchor="middle" x="119.25" y="-5.75" font-family="Helvetica,sans-Serif" font-size="10.00">_sndlib.h</text>
</a>
</g>
</g>
<!-- Node1&#45;&gt;Node3 -->
<g id="edge2_Node000001_Node000003" class="edge">
<title>Node1&#45;&gt;Node3</title>
<g id="a_edge2_Node000001_Node000003"><a xlink:title=" ">
<path fill="none" stroke="#63b8ff" d="M119.25,-43.63C119.25,-35.34 119.25,-26.17 119.25,-19.61"/>
<polygon fill="#63b8ff" stroke="#63b8ff" points="115.75,-43.57 119.25,-53.57 122.75,-43.57 115.75,-43.57"/>
</a>
</g>
</g>
<!-- Node4 -->
<g id="Node000004" class="node">
<title>Node4</title>
<g id="a_Node000004"><a xlink:href="a00293.xhtml" target="_top" xlink:title=" ">
<polygon fill="white" stroke="#666666" points="203.88,-19.25 164.62,-19.25 164.62,0 203.88,0 203.88,-19.25"/>
<text text-anchor="middle" x="184.25" y="-5.75" font-family="Helvetica,sans-Serif" font-size="10.00">clm.h</text>
</a>
</g>
</g>
<!-- Node1&#45;&gt;Node4 -->
<g id="edge3_Node000001_Node000004" class="edge">
<title>Node1&#45;&gt;Node4</title>
<g id="a_edge3_Node000001_Node000004"><a xlink:title=" ">
<path fill="none" stroke="#63b8ff" d="M139.04,-47.66C150.33,-38.42 164.04,-27.18 173.39,-19.52"/>
<polygon fill="#63b8ff" stroke="#63b8ff" points="136.96,-44.84 131.45,-53.88 141.4,-50.25 136.96,-44.84"/>
</a>
</g>
</g>
</g>
</svg>
