<?xml version="1.0" encoding="UTF-8" standalone="no"?>
<!DOCTYPE svg PUBLIC "-//W3C//DTD SVG 1.1//EN"
 "http://www.w3.org/Graphics/SVG/1.1/DTD/svg11.dtd">
<!-- Generated by graphviz version 4.0.0 (20220602.1335)
 -->
<!-- Title: AcaAll.h Pages: 1 -->
<svg width="1287pt" height="84pt"
 viewBox="0.00 0.00 1287.00 84.00" xmlns="http://www.w3.org/2000/svg" xmlns:xlink="http://www.w3.org/1999/xlink">
<g id="graph0" class="graph" transform="scale(1 1) rotate(0) translate(4 80)">
<title>AcaAll.h</title>
<polygon fill="white" stroke="transparent" points="-4,4 -4,-80 1283,-80 1283,4 -4,4"/>
<!-- Node1 -->
<g id="node1" class="node">
<title>Node1</title>
<g id="a_node1"><a xlink:title=" ">
<polygon fill="#bfbfbf" stroke="black" points="558,-56.5 558,-75.5 611,-75.5 611,-56.5 558,-56.5"/>
<text text-anchor="middle" x="584.5" y="-63.5" font-family="Helvetica,sans-Serif" font-size="10.00">AcaAll.h</text>
</a>
</g>
</g>
<!-- Node2 -->
<g id="node2" class="node">
<title>Node2</title>
<g id="a_node2"><a xlink:href="a00035.xhtml" target="_top" xlink:title=" ">
<polygon fill="white" stroke="black" points="0,-0.5 0,-19.5 63,-19.5 63,-0.5 0,-0.5"/>
<text text-anchor="middle" x="31.5" y="-7.5" font-family="Helvetica,sans-Serif" font-size="10.00">AcaAll.cpp</text>
</a>
</g>
</g>
<!-- Node1&#45;&gt;Node2 -->
<g id="edge1" class="edge">
<title>Node1&#45;&gt;Node2</title>
<path fill="none" stroke="midnightblue" d="M547.81,-63.47C463.34,-59.58 248.77,-47.59 71.5,-20 68.83,-19.58 66.07,-19.09 63.3,-18.56"/>
<polygon fill="midnightblue" stroke="midnightblue" points="547.77,-66.97 557.92,-63.92 548.09,-59.98 547.77,-66.97"/>
</g>
<!-- Node3 -->
<g id="node3" class="node">
<title>Node3</title>
<g id="a_node3"><a xlink:href="a00017.xhtml" target="_top" xlink:title=" ">
<polygon fill="white" stroke="black" points="81,-0.5 81,-19.5 198,-19.5 198,-0.5 81,-0.5"/>
<text text-anchor="middle" x="139.5" y="-7.5" font-family="Helvetica,sans-Serif" font-size="10.00">ComputeBeatHisto.cpp</text>
</a>
</g>
</g>
<!-- Node1&#45;&gt;Node3 -->
<g id="edge2" class="edge">
<title>Node1&#45;&gt;Node3</title>
<path fill="none" stroke="midnightblue" d="M547.87,-60.79C480.47,-53 332.28,-35.7 207.5,-20 204.43,-19.61 201.28,-19.21 198.1,-18.8"/>
<polygon fill="midnightblue" stroke="midnightblue" points="547.64,-64.28 557.98,-61.95 548.44,-57.33 547.64,-64.28"/>
</g>
<!-- Node4 -->
<g id="node4" class="node">
<title>Node4</title>
<g id="a_node4"><a xlink:href="a00023.xhtml" target="_top" xlink:title=" ">
<polygon fill="white" stroke="black" points="216.5,-0.5 216.5,-19.5 320.5,-19.5 320.5,-0.5 216.5,-0.5"/>
<text text-anchor="middle" x="268.5" y="-7.5" font-family="Helvetica,sans-Serif" font-size="10.00">ComputeChords.cpp</text>
</a>
</g>
</g>
<!-- Node1&#45;&gt;Node4 -->
<g id="edge3" class="edge">
<title>Node1&#45;&gt;Node4</title>
<path fill="none" stroke="midnightblue" d="M547.88,-58.74C491.17,-49.05 382.04,-30.4 318.24,-19.5"/>
<polygon fill="midnightblue" stroke="midnightblue" points="547.38,-62.21 557.83,-60.44 548.56,-55.31 547.38,-62.21"/>
</g>
<!-- Node5 -->
<g id="node5" class="node">
<title>Node5</title>
<g id="a_node5"><a xlink:href="a00002.xhtml" target="_top" xlink:title=" ">
<polygon fill="white" stroke="black" points="339,-0.5 339,-19.5 446,-19.5 446,-0.5 339,-0.5"/>
<text text-anchor="middle" x="392.5" y="-7.5" font-family="Helvetica,sans-Serif" font-size="10.00">ComputeFeature.cpp</text>
</a>
</g>
</g>
<!-- Node1&#45;&gt;Node5 -->
<g id="edge4" class="edge">
<title>Node1&#45;&gt;Node5</title>
<path fill="none" stroke="midnightblue" d="M548.1,-54.76C511.81,-44.56 456.73,-29.06 422.76,-19.51"/>
<polygon fill="midnightblue" stroke="midnightblue" points="547.23,-58.15 557.8,-57.49 549.12,-51.41 547.23,-58.15"/>
</g>
<!-- Node6 -->
<g id="node6" class="node">
<title>Node6</title>
<g id="a_node6"><a xlink:href="a00020.xhtml" target="_top" xlink:title=" ">
<polygon fill="white" stroke="black" points="464,-0.5 464,-19.5 583,-19.5 583,-0.5 464,-0.5"/>
<text text-anchor="middle" x="523.5" y="-7.5" font-family="Helvetica,sans-Serif" font-size="10.00">ComputeFingerprint.cpp</text>
</a>
</g>
</g>
<!-- Node1&#45;&gt;Node6 -->
<g id="edge5" class="edge">
<title>Node1&#45;&gt;Node6</title>
<path fill="none" stroke="midnightblue" d="M567.03,-49.54C556.16,-39.91 542.56,-27.87 533.48,-19.83"/>
<polygon fill="midnightblue" stroke="midnightblue" points="564.89,-52.32 574.7,-56.32 569.53,-47.07 564.89,-52.32"/>
</g>
<!-- Node7 -->
<g id="node7" class="node">
<title>Node7</title>
<g id="a_node7"><a xlink:href="a00026.xhtml" target="_top" xlink:title=" ">
<polygon fill="white" stroke="black" points="601.5,-0.5 601.5,-19.5 691.5,-19.5 691.5,-0.5 601.5,-0.5"/>
<text text-anchor="middle" x="646.5" y="-7.5" font-family="Helvetica,sans-Serif" font-size="10.00">ComputeKey.cpp</text>
</a>
</g>
</g>
<!-- Node1&#45;&gt;Node7 -->
<g id="edge6" class="edge">
<title>Node1&#45;&gt;Node7</title>
<path fill="none" stroke="midnightblue" d="M602.25,-49.54C613.31,-39.91 627.13,-27.87 636.36,-19.83"/>
<polygon fill="midnightblue" stroke="midnightblue" points="599.7,-47.12 594.46,-56.32 604.3,-52.4 599.7,-47.12"/>
</g>
<!-- Node8 -->
<g id="node8" class="node">
<title>Node8</title>
<g id="a_node8"><a xlink:href="a00119.xhtml" target="_top" xlink:title=" ">
<polygon fill="white" stroke="black" points="710,-0.5 710,-19.5 855,-19.5 855,-0.5 710,-0.5"/>
<text text-anchor="middle" x="782.5" y="-7.5" font-family="Helvetica,sans-Serif" font-size="10.00">ComputeMelSpectrogram.cpp</text>
</a>
</g>
</g>
<!-- Node1&#45;&gt;Node8 -->
<g id="edge7" class="edge">
<title>Node1&#45;&gt;Node8</title>
<path fill="none" stroke="midnightblue" d="M621.16,-55C658.47,-44.83 715.68,-29.22 751,-19.59"/>
<polygon fill="midnightblue" stroke="midnightblue" points="619.93,-51.71 611.2,-57.72 621.77,-58.46 619.93,-51.71"/>
</g>
<!-- Node9 -->
<g id="node9" class="node">
<title>Node9</title>
<g id="a_node9"><a xlink:href="a00029.xhtml" target="_top" xlink:title=" ">
<polygon fill="white" stroke="black" points="873.5,-0.5 873.5,-19.5 1017.5,-19.5 1017.5,-0.5 873.5,-0.5"/>
<text text-anchor="middle" x="945.5" y="-7.5" font-family="Helvetica,sans-Serif" font-size="10.00">ComputeNoveltyFunction.cpp</text>
</a>
</g>
</g>
<!-- Node1&#45;&gt;Node9 -->
<g id="edge8" class="edge">
<title>Node1&#45;&gt;Node9</title>
<path fill="none" stroke="midnightblue" d="M621.31,-59.49C684.39,-50.06 813.57,-30.74 888.42,-19.54"/>
<polygon fill="midnightblue" stroke="midnightblue" points="620.42,-56.09 611.05,-61.03 621.45,-63.01 620.42,-56.09"/>
</g>
<!-- Node10 -->
<g id="node10" class="node">
<title>Node10</title>
<g id="a_node10"><a xlink:href="a00122.xhtml" target="_top" xlink:title=" ">
<polygon fill="white" stroke="black" points="1035.5,-0.5 1035.5,-19.5 1131.5,-19.5 1131.5,-0.5 1035.5,-0.5"/>
<text text-anchor="middle" x="1083.5" y="-7.5" font-family="Helvetica,sans-Serif" font-size="10.00">ComputePitch.cpp</text>
</a>
</g>
</g>
<!-- Node1&#45;&gt;Node10 -->
<g id="edge9" class="edge">
<title>Node1&#45;&gt;Node10</title>
<path fill="none" stroke="midnightblue" d="M621.22,-61.95C697.08,-55.5 876.55,-39.46 1026.5,-20 1029.38,-19.63 1032.34,-19.22 1035.32,-18.8"/>
<polygon fill="midnightblue" stroke="midnightblue" points="620.88,-58.47 611.21,-62.8 621.47,-65.44 620.88,-58.47"/>
</g>
<!-- Node11 -->
<g id="node11" class="node">
<title>Node11</title>
<g id="a_node11"><a xlink:href="a00014.xhtml" target="_top" xlink:title=" ">
<polygon fill="white" stroke="black" points="1150,-0.5 1150,-19.5 1279,-19.5 1279,-0.5 1150,-0.5"/>
<text text-anchor="middle" x="1214.5" y="-7.5" font-family="Helvetica,sans-Serif" font-size="10.00">ComputeSpectrogram.cpp</text>
</a>
</g>
</g>
<!-- Node1&#45;&gt;Node11 -->
<g id="edge10" class="edge">
<title>Node1&#45;&gt;Node11</title>
<path fill="none" stroke="midnightblue" d="M621.29,-62.54C710.46,-56.46 945.14,-39.78 1140.5,-20 1143.59,-19.69 1146.75,-19.35 1149.94,-19.01"/>
<polygon fill="midnightblue" stroke="midnightblue" points="620.89,-59.06 611.15,-63.23 621.37,-66.04 620.89,-59.06"/>
</g>
</g>
</svg>
