<?xml version="1.0" encoding="UTF-8" standalone="no"?>
<!DOCTYPE svg PUBLIC "-//W3C//DTD SVG 1.1//EN"
 "http://www.w3.org/Graphics/SVG/1.1/DTD/svg11.dtd">
<!-- Generated by graphviz version 4.0.0 (20220602.1335)
 -->
<!-- Title: Catch::Detail::rawMemoryToString Pages: 1 -->
<svg width="269pt" height="88pt"
 viewBox="0.00 0.00 269.00 88.00" xmlns="http://www.w3.org/2000/svg" xmlns:xlink="http://www.w3.org/1999/xlink">
<g id="graph0" class="graph" transform="scale(1 1) rotate(0) translate(4 84)">
<title>Catch::Detail::rawMemoryToString</title>
<polygon fill="white" stroke="transparent" points="-4,4 -4,-84 265,-84 265,4 -4,4"/>
<!-- Node1 -->
<g id="node1" class="node">
<title>Node1</title>
<g id="a_node1"><a xlink:title=" ">
<polygon fill="#bfbfbf" stroke="black" points="135,-24.5 135,-54.5 261,-54.5 261,-24.5 135,-24.5"/>
<text text-anchor="start" x="143" y="-42.5" font-family="Helvetica,sans-Serif" font-size="10.00">Catch::Detail::rawMemory</text>
<text text-anchor="middle" x="198" y="-31.5" font-family="Helvetica,sans-Serif" font-size="10.00">ToString</text>
</a>
</g>
</g>
<!-- Node2 -->
<g id="node2" class="node">
<title>Node2</title>
<g id="a_node2"><a xlink:href="a00828.xhtml#af69c15e0b406e945777137fe4a333731" target="_top" xlink:title=" ">
<polygon fill="white" stroke="black" points="0,-49.5 0,-79.5 99,-79.5 99,-49.5 0,-49.5"/>
<text text-anchor="start" x="8" y="-67.5" font-family="Helvetica,sans-Serif" font-size="10.00">Catch::StringMaker</text>
<text text-anchor="middle" x="49.5" y="-56.5" font-family="Helvetica,sans-Serif" font-size="10.00">&lt; R C::* &gt;::convert</text>
</a>
</g>
</g>
<!-- Node1&#45;&gt;Node2 -->
<g id="edge1" class="edge">
<title>Node1&#45;&gt;Node2</title>
<path fill="none" stroke="midnightblue" d="M124.8,-51.82C116.2,-53.29 107.57,-54.76 99.4,-56.16"/>
<polygon fill="midnightblue" stroke="midnightblue" points="125.6,-55.23 134.87,-50.1 124.42,-48.33 125.6,-55.23"/>
</g>
<!-- Node3 -->
<g id="node3" class="node">
<title>Node3</title>
<g id="a_node3"><a xlink:href="a00824.xhtml#a2adbc75c99d71b8323f4052bcb0815c9" target="_top" xlink:title=" ">
<polygon fill="white" stroke="black" points="0,-0.5 0,-30.5 99,-30.5 99,-0.5 0,-0.5"/>
<text text-anchor="start" x="8" y="-18.5" font-family="Helvetica,sans-Serif" font-size="10.00">Catch::StringMaker</text>
<text text-anchor="middle" x="49.5" y="-7.5" font-family="Helvetica,sans-Serif" font-size="10.00">&lt; T * &gt;::convert</text>
</a>
</g>
</g>
<!-- Node1&#45;&gt;Node3 -->
<g id="edge2" class="edge">
<title>Node1&#45;&gt;Node3</title>
<path fill="none" stroke="midnightblue" d="M124.8,-27.67C116.2,-26.26 107.57,-24.85 99.4,-23.51"/>
<polygon fill="midnightblue" stroke="midnightblue" points="124.44,-31.16 134.87,-29.32 125.57,-24.25 124.44,-31.16"/>
</g>
</g>
</svg>
