<?xml version="1.0" encoding="UTF-8" standalone="no"?>
<!DOCTYPE svg PUBLIC "-//W3C//DTD SVG 1.1//EN"
 "http://www.w3.org/Graphics/SVG/1.1/DTD/svg11.dtd">
<!-- Generated by graphviz version 4.0.0 (20220602.1335)
 -->
<!-- Title: LaszloFft::inverse_dit_butterfly Pages: 1 -->
<svg width="225pt" height="78pt"
 viewBox="0.00 0.00 225.00 77.50" xmlns="http://www.w3.org/2000/svg" xmlns:xlink="http://www.w3.org/1999/xlink">
<g id="graph0" class="graph" transform="scale(1 1) rotate(0) translate(4 73.5)">
<title>LaszloFft::inverse_dit_butterfly</title>
<polygon fill="white" stroke="transparent" points="-4,4 -4,-73.5 221,-73.5 221,4 -4,4"/>
<!-- Node1 -->
<g id="node1" class="node">
<title>Node1</title>
<g id="a_node1"><a xlink:title=" ">
<polygon fill="#bfbfbf" stroke="black" points="124,-22.5 124,-52.5 217,-52.5 217,-22.5 124,-22.5"/>
<text text-anchor="start" x="132" y="-40.5" font-family="Helvetica,sans-Serif" font-size="10.00">LaszloFft::inverse</text>
<text text-anchor="middle" x="170.5" y="-29.5" font-family="Helvetica,sans-Serif" font-size="10.00">_dit_butterfly</text>
</a>
</g>
</g>
<!-- Node2 -->
<g id="node2" class="node">
<title>Node2</title>
<g id="a_node2"><a xlink:href="a00296.xhtml#a4e4b95c769a0dbc06941a2c06b0cc889" target="_top" xlink:title=" ">
<polygon fill="white" stroke="black" points="8,-50 8,-69 80,-69 80,-50 8,-50"/>
<text text-anchor="middle" x="44" y="-57" font-family="Helvetica,sans-Serif" font-size="10.00">LaszloFft::ifft</text>
</a>
</g>
</g>
<!-- Node1&#45;&gt;Node2 -->
<g id="edge1" class="edge">
<title>Node1&#45;&gt;Node2</title>
<path fill="none" stroke="midnightblue" d="M113.88,-47.33C102.4,-49.36 90.62,-51.44 80.12,-53.29"/>
<polygon fill="midnightblue" stroke="midnightblue" points="114.61,-50.75 123.85,-45.57 113.39,-43.86 114.61,-50.75"/>
</g>
<!-- Node3 -->
<g id="node3" class="node">
<title>Node3</title>
<g id="a_node3"><a xlink:href="a00296.xhtml#a2d3be8653b958c0d6123158ebf2da37b" target="_top" xlink:title=" ">
<polygon fill="white" stroke="black" points="0,-0.5 0,-30.5 88,-30.5 88,-0.5 0,-0.5"/>
<text text-anchor="start" x="8" y="-18.5" font-family="Helvetica,sans-Serif" font-size="10.00">LaszloFft::irealfft</text>
<text text-anchor="middle" x="44" y="-7.5" font-family="Helvetica,sans-Serif" font-size="10.00">_packed</text>
</a>
</g>
</g>
<!-- Node1&#45;&gt;Node3 -->
<g id="edge2" class="edge">
<title>Node1&#45;&gt;Node3</title>
<path fill="none" stroke="midnightblue" d="M113.85,-27.67C105.24,-26.14 96.45,-24.59 88.16,-23.13"/>
<polygon fill="midnightblue" stroke="midnightblue" points="113.39,-31.14 123.85,-29.43 114.61,-24.25 113.39,-31.14"/>
</g>
</g>
</svg>
