<?xml version="1.0" encoding="UTF-8" standalone="no"?>
<!DOCTYPE svg PUBLIC "-//W3C//DTD SVG 1.1//EN"
 "http://www.w3.org/Graphics/SVG/1.1/DTD/svg11.dtd">
<!-- Generated by graphviz version 4.0.0 (20220602.1335)
 -->
<!-- Title: BeatHisto.h Pages: 1 -->
<!--zoomable 140 -->
<svg id="main" version="1.1" xmlns="http://www.w3.org/2000/svg" xmlns:xlink="http://www.w3.org/1999/xlink" xml:space="preserve" onload="init(evt)">
<style type="text/css"><![CDATA[
.edge:hover path { stroke: red; }
.edge:hover polygon { stroke: red; fill: red; }
]]></style>
<script type="text/javascript"><![CDATA[
var edges = document.getElementsByTagName('g');
if (edges && edges.length) {
  for (var i=0;i<edges.length;i++) {
    if (edges[i].id.substr(0,4)=='edge') {
      edges[i].setAttribute('class','edge');
    }
  }
}
]]></script>
        <defs>
                <circle id="rim" cx="0" cy="0" r="7"/>
                <circle id="rim2" cx="0" cy="0" r="3.5"/>
                <g id="zoomPlus">
                        <use xlink:href="#rim" fill="#404040">
                                <set attributeName="fill" to="#808080" begin="zoomplus.mouseover" end="zoomplus.mouseout"/>
                        </use>
                        <path d="M-4,0h8M0,-4v8" fill="none" stroke="white" stroke-width="1.5" pointer-events="none"/>
                </g>
                <g id="zoomMin">
                        <use xlink:href="#rim" fill="#404040">
                                <set attributeName="fill" to="#808080" begin="zoomminus.mouseover" end="zoomminus.mouseout"/>
                        </use>
                        <path d="M-4,0h8" fill="none" stroke="white" stroke-width="1.5" pointer-events="none"/>
                </g>
                <g id="dirArrow">
                        <path fill="none" stroke="white" stroke-width="1.5" d="M0,-3.0v7 M-2.5,-0.5L0,-3.0L2.5,-0.5"/>
                </g>
               <g id="resetDef">
                       <use xlink:href="#rim2" fill="#404040">
                               <set attributeName="fill" to="#808080" begin="reset.mouseover" end="reset.mouseout"/>
                       </use>
               </g>
        </defs>

<script type="text/javascript">
var viewWidth = 1287;
var viewHeight = 140;
var sectionId = 'dynsection-1';
</script>
<script xlink:href="svgpan.js"/>
<svg id="graph" class="graph">
<g id="viewport">
<title>BeatHisto.h</title>
<polygon fill="white" stroke="transparent" points="-4,4 -4,-136 1283,-136 1283,4 -4,4"/>
<!-- Node1 -->
<g id="node1" class="node">
<title>Node1</title>
<g id="a_node1"><a xlink:title=" ">
<polygon fill="#bfbfbf" stroke="black" points="489.5,-112.5 489.5,-131.5 557.5,-131.5 557.5,-112.5 489.5,-112.5"/>
<text text-anchor="middle" x="523.5" y="-119.5" font-family="Helvetica,sans-Serif" font-size="10.00">BeatHisto.h</text>
</a>
</g>
</g>
<!-- Node2 -->
<g id="node2" class="node">
<title>Node2</title>
<g id="a_node2"><a xlink:href="a00215.xhtml" target="_top" xlink:title=" ">
<polygon fill="white" stroke="black" points="497,-56.5 497,-75.5 550,-75.5 550,-56.5 497,-56.5"/>
<text text-anchor="middle" x="523.5" y="-63.5" font-family="Helvetica,sans-Serif" font-size="10.00">AcaAll.h</text>
</a>
</g>
</g>
<!-- Node1&#45;&gt;Node2 -->
<g id="edge1" class="edge">
<title>Node1&#45;&gt;Node2</title>
<path fill="none" stroke="midnightblue" d="M523.5,-101.8C523.5,-92.91 523.5,-82.78 523.5,-75.75"/>
<polygon fill="midnightblue" stroke="midnightblue" points="520,-102.08 523.5,-112.08 527,-102.08 520,-102.08"/>
</g>
<!-- Node4 -->
<g id="node4" class="node">
<title>Node4</title>
<g id="a_node4"><a xlink:href="a00017.xhtml" target="_top" xlink:title=" ">
<polygon fill="white" stroke="black" points="0,-0.5 0,-19.5 117,-19.5 117,-0.5 0,-0.5"/>
<text text-anchor="middle" x="58.5" y="-7.5" font-family="Helvetica,sans-Serif" font-size="10.00">ComputeBeatHisto.cpp</text>
</a>
</g>
</g>
<!-- Node1&#45;&gt;Node4 -->
<g id="edge13" class="edge">
<title>Node1&#45;&gt;Node4</title>
<path fill="none" stroke="midnightblue" d="M479.53,-110.6C388.09,-88.97 178.91,-39.48 94.65,-19.55"/>
<polygon fill="midnightblue" stroke="midnightblue" points="478.77,-114.02 489.31,-112.91 480.38,-107.2 478.77,-114.02"/>
</g>
<!-- Node13 -->
<g id="node13" class="node">
<title>Node13</title>
<g id="a_node13"><a xlink:href="a00083.xhtml" target="_top" xlink:title=" ">
<polygon fill="white" stroke="black" points="568.5,-56.5 568.5,-75.5 646.5,-75.5 646.5,-56.5 568.5,-56.5"/>
<text text-anchor="middle" x="607.5" y="-63.5" font-family="Helvetica,sans-Serif" font-size="10.00">BeatHisto.cpp</text>
</a>
</g>
</g>
<!-- Node1&#45;&gt;Node13 -->
<g id="edge12" class="edge">
<title>Node1&#45;&gt;Node13</title>
<path fill="none" stroke="midnightblue" d="M545.43,-106.9C560.84,-97 580.95,-84.07 594.04,-75.65"/>
<polygon fill="midnightblue" stroke="midnightblue" points="543.52,-103.97 537,-112.32 547.3,-109.86 543.52,-103.97"/>
</g>
<!-- Node3 -->
<g id="node3" class="node">
<title>Node3</title>
<g id="a_node3"><a xlink:href="a00035.xhtml" target="_top" xlink:title=" ">
<polygon fill="white" stroke="black" points="135,-0.5 135,-19.5 198,-19.5 198,-0.5 135,-0.5"/>
<text text-anchor="middle" x="166.5" y="-7.5" font-family="Helvetica,sans-Serif" font-size="10.00">AcaAll.cpp</text>
</a>
</g>
</g>
<!-- Node2&#45;&gt;Node3 -->
<g id="edge2" class="edge">
<title>Node2&#45;&gt;Node3</title>
<path fill="none" stroke="midnightblue" d="M486.79,-60.68C427.74,-53.52 308.07,-38.17 207.5,-20 204.49,-19.46 201.36,-18.85 198.24,-18.21"/>
<polygon fill="midnightblue" stroke="midnightblue" points="486.41,-64.16 496.76,-61.88 487.25,-57.21 486.41,-64.16"/>
</g>
<!-- Node2&#45;&gt;Node4 -->
<g id="edge3" class="edge">
<title>Node2&#45;&gt;Node4</title>
<path fill="none" stroke="midnightblue" d="M486.92,-61.09C416.91,-53.54 259.11,-36.29 126.5,-20 123.43,-19.62 120.28,-19.23 117.1,-18.83"/>
<polygon fill="midnightblue" stroke="midnightblue" points="486.68,-64.58 497,-62.17 487.43,-57.62 486.68,-64.58"/>
</g>
<!-- Node5 -->
<g id="node5" class="node">
<title>Node5</title>
<g id="a_node5"><a xlink:href="a00023.xhtml" target="_top" xlink:title=" ">
<polygon fill="white" stroke="black" points="216.5,-0.5 216.5,-19.5 320.5,-19.5 320.5,-0.5 216.5,-0.5"/>
<text text-anchor="middle" x="268.5" y="-7.5" font-family="Helvetica,sans-Serif" font-size="10.00">ComputeChords.cpp</text>
</a>
</g>
</g>
<!-- Node2&#45;&gt;Node5 -->
<g id="edge4" class="edge">
<title>Node2&#45;&gt;Node5</title>
<path fill="none" stroke="midnightblue" d="M486.87,-57.24C439.6,-47.23 357.63,-29.87 308.69,-19.51"/>
<polygon fill="midnightblue" stroke="midnightblue" points="486.18,-60.68 496.69,-59.32 487.63,-53.83 486.18,-60.68"/>
</g>
<!-- Node6 -->
<g id="node6" class="node">
<title>Node6</title>
<g id="a_node6"><a xlink:href="a00002.xhtml" target="_top" xlink:title=" ">
<polygon fill="white" stroke="black" points="339,-0.5 339,-19.5 446,-19.5 446,-0.5 339,-0.5"/>
<text text-anchor="middle" x="392.5" y="-7.5" font-family="Helvetica,sans-Serif" font-size="10.00">ComputeFeature.cpp</text>
</a>
</g>
</g>
<!-- Node2&#45;&gt;Node6 -->
<g id="edge5" class="edge">
<title>Node2&#45;&gt;Node6</title>
<path fill="none" stroke="midnightblue" d="M493.18,-52.5C468.62,-42.38 434.68,-28.39 413.16,-19.52"/>
<polygon fill="midnightblue" stroke="midnightblue" points="492.16,-55.87 502.74,-56.44 494.83,-49.4 492.16,-55.87"/>
</g>
<!-- Node7 -->
<g id="node7" class="node">
<title>Node7</title>
<g id="a_node7"><a xlink:href="a00020.xhtml" target="_top" xlink:title=" ">
<polygon fill="white" stroke="black" points="464,-0.5 464,-19.5 583,-19.5 583,-0.5 464,-0.5"/>
<text text-anchor="middle" x="523.5" y="-7.5" font-family="Helvetica,sans-Serif" font-size="10.00">ComputeFingerprint.cpp</text>
</a>
</g>
</g>
<!-- Node2&#45;&gt;Node7 -->
<g id="edge6" class="edge">
<title>Node2&#45;&gt;Node7</title>
<path fill="none" stroke="midnightblue" d="M523.5,-45.8C523.5,-36.91 523.5,-26.78 523.5,-19.75"/>
<polygon fill="midnightblue" stroke="midnightblue" points="520,-46.08 523.5,-56.08 527,-46.08 520,-46.08"/>
</g>
<!-- Node8 -->
<g id="node8" class="node">
<title>Node8</title>
<g id="a_node8"><a xlink:href="a00026.xhtml" target="_top" xlink:title=" ">
<polygon fill="white" stroke="black" points="601.5,-0.5 601.5,-19.5 691.5,-19.5 691.5,-0.5 601.5,-0.5"/>
<text text-anchor="middle" x="646.5" y="-7.5" font-family="Helvetica,sans-Serif" font-size="10.00">ComputeKey.cpp</text>
</a>
</g>
</g>
<!-- Node2&#45;&gt;Node8 -->
<g id="edge7" class="edge">
<title>Node2&#45;&gt;Node8</title>
<path fill="none" stroke="midnightblue" d="M552.27,-52.37C575.31,-42.26 606.98,-28.35 627.1,-19.52"/>
<polygon fill="midnightblue" stroke="midnightblue" points="550.74,-49.22 542.99,-56.44 553.55,-55.63 550.74,-49.22"/>
</g>
<!-- Node9 -->
<g id="node9" class="node">
<title>Node9</title>
<g id="a_node9"><a xlink:href="a00113.xhtml" target="_top" xlink:title=" ">
<polygon fill="white" stroke="black" points="710,-0.5 710,-19.5 855,-19.5 855,-0.5 710,-0.5"/>
<text text-anchor="middle" x="782.5" y="-7.5" font-family="Helvetica,sans-Serif" font-size="10.00">ComputeMelSpectrogram.cpp</text>
</a>
</g>
</g>
<!-- Node2&#45;&gt;Node9 -->
<g id="edge8" class="edge">
<title>Node2&#45;&gt;Node9</title>
<path fill="none" stroke="midnightblue" d="M560.13,-55.94C627.37,-40.87 694.06,-27.76 737.1,-19.53"/>
<polygon fill="midnightblue" stroke="midnightblue" points="559.19,-52.57 550.2,-58.18 560.73,-59.39 559.19,-52.57"/>
</g>
<!-- Node10 -->
<g id="node10" class="node">
<title>Node10</title>
<g id="a_node10"><a xlink:href="a00029.xhtml" target="_top" xlink:title=" ">
<polygon fill="white" stroke="black" points="873.5,-0.5 873.5,-19.5 1017.5,-19.5 1017.5,-0.5 873.5,-0.5"/>
<text text-anchor="middle" x="945.5" y="-7.5" font-family="Helvetica,sans-Serif" font-size="10.00">ComputeNoveltyFunction.cpp</text>
</a>
</g>
</g>
<!-- Node2&#45;&gt;Node10 -->
<g id="edge9" class="edge">
<title>Node2&#45;&gt;Node10</title>
<path fill="none" stroke="midnightblue" d="M560.32,-56.31C607.67,-49.46 775.37,-30.29 873.38,-19.16"/>
<polygon fill="midnightblue" stroke="midnightblue" points="559.48,-52.9 550.15,-57.93 560.58,-59.81 559.48,-52.9"/>
</g>
<!-- Node11 -->
<g id="node11" class="node">
<title>Node11</title>
<g id="a_node11"><a xlink:href="a00116.xhtml" target="_top" xlink:title=" ">
<polygon fill="white" stroke="black" points="1035.5,-0.5 1035.5,-19.5 1131.5,-19.5 1131.5,-0.5 1035.5,-0.5"/>
<text text-anchor="middle" x="1083.5" y="-7.5" font-family="Helvetica,sans-Serif" font-size="10.00">ComputePitch.cpp</text>
</a>
</g>
</g>
<!-- Node2&#45;&gt;Node11 -->
<g id="edge10" class="edge">
<title>Node2&#45;&gt;Node11</title>
<path fill="none" stroke="midnightblue" d="M560.09,-56.2C766.73,-23.3 822.98,-43.87 1026.5,-20 1029.39,-19.66 1032.35,-19.28 1035.34,-18.88"/>
<polygon fill="midnightblue" stroke="midnightblue" points="559.45,-52.76 550.13,-57.81 560.56,-59.67 559.45,-52.76"/>
</g>
<!-- Node12 -->
<g id="node12" class="node">
<title>Node12</title>
<g id="a_node12"><a xlink:href="a00014.xhtml" target="_top" xlink:title=" ">
<polygon fill="white" stroke="black" points="1150,-0.5 1150,-19.5 1279,-19.5 1279,-0.5 1150,-0.5"/>
<text text-anchor="middle" x="1214.5" y="-7.5" font-family="Helvetica,sans-Serif" font-size="10.00">ComputeSpectrogram.cpp</text>
</a>
</g>
</g>
<!-- Node2&#45;&gt;Node12 -->
<g id="edge11" class="edge">
<title>Node2&#45;&gt;Node12</title>
<path fill="none" stroke="midnightblue" d="M560.13,-56.23C816.93,-17.14 886.13,-43.33 1140.5,-20 1143.59,-19.72 1146.76,-19.41 1149.95,-19.08"/>
<polygon fill="midnightblue" stroke="midnightblue" points="559.48,-52.78 550.13,-57.77 560.54,-59.7 559.48,-52.78"/>
</g>
</g>
</svg>
        <g id="navigator" transform="translate(0 0)" fill="#404254">
                <rect fill="#f2f5e9" fill-opacity="0.5" stroke="#606060" stroke-width=".5" x="0" y="0" width="60" height="60"/>
                <use id="zoomplus" xlink:href="#zoomPlus" x="17" y="9" onmousedown="handleZoom(evt,'in')"/>
                <use id="zoomminus" xlink:href="#zoomMin" x="42" y="9" onmousedown="handleZoom(evt,'out')"/>
                <use id="reset" xlink:href="#resetDef" x="30" y="36" onmousedown="handleReset()"/>
                <g id="arrowUp" xlink:href="#dirArrow" transform="translate(30 24)" onmousedown="handlePan(0,-1)">
                  <use xlink:href="#rim" fill="#404040">
                        <set attributeName="fill" to="#808080" begin="arrowUp.mouseover" end="arrowUp.mouseout"/>
                  </use>
                  <path fill="none" stroke="white" stroke-width="1.5" d="M0,-3.0v7 M-2.5,-0.5L0,-3.0L2.5,-0.5"/>
                </g>
                <g id="arrowRight" xlink:href="#dirArrow" transform="rotate(90) translate(36 -43)" onmousedown="handlePan(1,0)">
                  <use xlink:href="#rim" fill="#404040">
                        <set attributeName="fill" to="#808080" begin="arrowRight.mouseover" end="arrowRight.mouseout"/>
                  </use>
                  <path fill="none" stroke="white" stroke-width="1.5" d="M0,-3.0v7 M-2.5,-0.5L0,-3.0L2.5,-0.5"/>
                </g>
                <g id="arrowDown" xlink:href="#dirArrow" transform="rotate(180) translate(-30 -48)" onmousedown="handlePan(0,1)">
                  <use xlink:href="#rim" fill="#404040">
                        <set attributeName="fill" to="#808080" begin="arrowDown.mouseover" end="arrowDown.mouseout"/>
                  </use>
                  <path fill="none" stroke="white" stroke-width="1.5" d="M0,-3.0v7 M-2.5,-0.5L0,-3.0L2.5,-0.5"/>
                </g>
                <g id="arrowLeft" xlink:href="#dirArrow" transform="rotate(270) translate(-36 17)" onmousedown="handlePan(-1,0)">
                  <use xlink:href="#rim" fill="#404040">
                        <set attributeName="fill" to="#808080" begin="arrowLeft.mouseover" end="arrowLeft.mouseout"/>
                  </use>
                  <path fill="none" stroke="white" stroke-width="1.5" d="M0,-3.0v7 M-2.5,-0.5L0,-3.0L2.5,-0.5"/>
                </g>
        </g>
        <svg viewBox="0 0 15 15" width="100%" height="30px" preserveAspectRatio="xMaxYMin meet">
         <g id="arrow_out" transform="scale(0.3 0.3)">
          <a xlink:href="a00229_org.svg" target="_base">
           <rect id="button" ry="5" rx="5" y="6" x="6" height="38" width="38"
                fill="#f2f5e9" fill-opacity="0.5" stroke="#606060" stroke-width="1.0"/>
           <path id="arrow"
             d="M 11.500037,31.436501 C 11.940474,20.09759 22.043105,11.32322 32.158766,21.979434 L 37.068811,17.246167 C 37.068811,17.246167 37.088388,32 37.088388,32 L 22.160133,31.978069 C 22.160133,31.978069 26.997745,27.140456 26.997745,27.140456 C 18.528582,18.264221 13.291696,25.230495 11.500037,31.436501 z"
             style="fill:#404040;"/>
          </a>
         </g>
        </svg>
</svg>
