<?xml version="1.0" encoding="UTF-8" standalone="no"?>
<!DOCTYPE svg PUBLIC "-//W3C//DTD SVG 1.1//EN"
 "http://www.w3.org/Graphics/SVG/1.1/DTD/svg11.dtd">
<!-- Generated by graphviz version 6.0.1 (20220911.1526)
 -->
<!-- Title: Key.h Pages: 1 -->
<!--zoomable 137 -->
<svg id="main" version="1.1" xmlns="http://www.w3.org/2000/svg" xmlns:xlink="http://www.w3.org/1999/xlink" xml:space="preserve" onload="init(evt)">
<style type="text/css"><![CDATA[
.edge:hover path { stroke: red; }
.edge:hover polygon { stroke: red; fill: red; }
]]></style>
<script type="text/javascript"><![CDATA[
var edges = document.getElementsByTagName('g');
if (edges && edges.length) {
  for (var i=0;i<edges.length;i++) {
    if (edges[i].id.substr(0,4)=='edge') {
      edges[i].setAttribute('class','edge');
    }
  }
}
]]></script>
        <defs>
                <circle id="rim" cx="0" cy="0" r="7"/>
                <circle id="rim2" cx="0" cy="0" r="3.5"/>
                <g id="zoomPlus">
                        <use xlink:href="#rim" fill="#404040">
                                <set attributeName="fill" to="#808080" begin="zoomplus.mouseover" end="zoomplus.mouseout"/>
                        </use>
                        <path d="M-4,0h8M0,-4v8" fill="none" stroke="white" stroke-width="1.5" pointer-events="none"/>
                </g>
                <g id="zoomMin">
                        <use xlink:href="#rim" fill="#404040">
                                <set attributeName="fill" to="#808080" begin="zoomminus.mouseover" end="zoomminus.mouseout"/>
                        </use>
                        <path d="M-4,0h8" fill="none" stroke="white" stroke-width="1.5" pointer-events="none"/>
                </g>
                <g id="dirArrow">
                        <path fill="none" stroke="white" stroke-width="1.5" d="M0,-3.0v7 M-2.5,-0.5L0,-3.0L2.5,-0.5"/>
                </g>
               <g id="resetDef">
                       <use xlink:href="#rim2" fill="#404040">
                               <set attributeName="fill" to="#808080" begin="reset.mouseover" end="reset.mouseout"/>
                       </use>
               </g>
        </defs>

<script type="text/javascript">
var viewWidth = 1287;
var viewHeight = 137;
var sectionId = 'dynsection-1';
</script>
<script xlink:href="svgpan.js"/>
<svg id="graph" class="graph">
<g id="viewport">
<title>Key.h</title>
<!-- Node1 -->
<g id="node1" class="node">
<title>Node1</title>
<g id="a_node1"><a xlink:title=" ">
<polygon fill="#999999" stroke="#666666" points="1028,-129 987,-129 987,-110 1028,-110 1028,-129"/>
<text text-anchor="middle" x="1007.5" y="-117" font-family="Helvetica,sans-Serif" font-size="10.00">Key.h</text>
</a>
</g>
</g>
<!-- Node2 -->
<g id="node2" class="node">
<title>Node2</title>
<g id="a_node2"><a xlink:href="a00128.xhtml" target="_top" xlink:title=" ">
<polygon fill="white" stroke="#666666" points="700,-74 647,-74 647,-55 700,-55 700,-74"/>
<text text-anchor="middle" x="673.5" y="-62" font-family="Helvetica,sans-Serif" font-size="10.00">AcaAll.h</text>
</a>
</g>
</g>
<!-- Node1&#45;&gt;Node2 -->
<g id="edge1" class="edge">
<title>Node1&#45;&gt;Node2</title>
<path fill="none" stroke="#63b8ff" d="M976.85,-113.64C911.97,-103.34 761.69,-79.49 700.33,-69.76"/>
<polygon fill="#63b8ff" stroke="#63b8ff" points="976.43,-117.11 986.86,-115.22 977.53,-110.2 976.43,-117.11"/>
</g>
<!-- Node8 -->
<g id="node8" class="node">
<title>Node8</title>
<g id="a_node8"><a xlink:href="a00122.xhtml" target="_top" xlink:title=" ">
<polygon fill="white" stroke="#666666" points="1278.5,-19 1188.5,-19 1188.5,0 1278.5,0 1278.5,-19"/>
<text text-anchor="middle" x="1233.5" y="-7" font-family="Helvetica,sans-Serif" font-size="10.00">ComputeKey.cpp</text>
</a>
</g>
</g>
<!-- Node1&#45;&gt;Node8 -->
<g id="edge12" class="edge">
<title>Node1&#45;&gt;Node8</title>
<path fill="none" stroke="#63b8ff" d="M999.08,-100.49C993.94,-86.54 990.14,-67.53 1000.5,-55 1006.49,-47.76 1122.35,-28.23 1188.39,-17.61"/>
<polygon fill="#63b8ff" stroke="#63b8ff" points="995.97,-102.12 1003.06,-109.99 1002.42,-99.41 995.97,-102.12"/>
</g>
<!-- Node13 -->
<g id="node13" class="node">
<title>Node13</title>
<g id="a_node13"><a xlink:href="a00059.xhtml" target="_top" xlink:title=" ">
<polygon fill="white" stroke="#666666" points="1060,-74 1009,-74 1009,-55 1060,-55 1060,-74"/>
<text text-anchor="middle" x="1034.5" y="-62" font-family="Helvetica,sans-Serif" font-size="10.00">Key.cpp</text>
</a>
</g>
</g>
<!-- Node1&#45;&gt;Node13 -->
<g id="edge13" class="edge">
<title>Node1&#45;&gt;Node13</title>
<path fill="none" stroke="#63b8ff" d="M1016.51,-100.82C1021.09,-91.82 1026.45,-81.29 1030.12,-74.09"/>
<polygon fill="#63b8ff" stroke="#63b8ff" points="1013.38,-99.25 1011.96,-109.75 1019.62,-102.43 1013.38,-99.25"/>
</g>
<!-- Node14 -->
<g id="node14" class="node">
<title>Node14</title>
<g id="a_node14"><a xlink:href="a00083.xhtml" target="_top" xlink:title=" ">
<polygon fill="white" stroke="#666666" points="1185,-74 1078,-74 1078,-55 1185,-55 1185,-74"/>
<text text-anchor="middle" x="1131.5" y="-62" font-family="Helvetica,sans-Serif" font-size="10.00">KeyFromChroma.cpp</text>
</a>
</g>
</g>
<!-- Node1&#45;&gt;Node14 -->
<g id="edge14" class="edge">
<title>Node1&#45;&gt;Node14</title>
<path fill="none" stroke="#63b8ff" d="M1036.68,-106.03C1059.61,-96.23 1090.95,-82.83 1111.21,-74.17"/>
<polygon fill="#63b8ff" stroke="#63b8ff" points="1035.24,-102.84 1027.42,-109.98 1037.99,-109.27 1035.24,-102.84"/>
</g>
<!-- Node3 -->
<g id="node3" class="node">
<title>Node3</title>
<g id="a_node3"><a xlink:href="a00053.xhtml" target="_top" xlink:title=" ">
<polygon fill="white" stroke="#666666" points="63,-19 0,-19 0,0 63,0 63,-19"/>
<text text-anchor="middle" x="31.5" y="-7" font-family="Helvetica,sans-Serif" font-size="10.00">AcaAll.cpp</text>
</a>
</g>
</g>
<!-- Node2&#45;&gt;Node3 -->
<g id="edge2" class="edge">
<title>Node2&#45;&gt;Node3</title>
<path fill="none" stroke="#63b8ff" d="M636.8,-62.52C542.52,-59.62 284.29,-49.33 71.5,-19 68.83,-18.62 66.07,-18.16 63.31,-17.67"/>
<polygon fill="#63b8ff" stroke="#63b8ff" points="636.86,-66.02 646.96,-62.82 637.07,-59.03 636.86,-66.02"/>
</g>
<!-- Node4 -->
<g id="node4" class="node">
<title>Node4</title>
<g id="a_node4"><a xlink:href="a00011.xhtml" target="_top" xlink:title=" ">
<polygon fill="white" stroke="#666666" points="198,-19 81,-19 81,0 198,0 198,-19"/>
<text text-anchor="middle" x="139.5" y="-7" font-family="Helvetica,sans-Serif" font-size="10.00">ComputeBeatHisto.cpp</text>
</a>
</g>
</g>
<!-- Node2&#45;&gt;Node4 -->
<g id="edge3" class="edge">
<title>Node2&#45;&gt;Node4</title>
<path fill="none" stroke="#63b8ff" d="M636.57,-60.34C557.7,-53.52 367.01,-36.58 207.5,-19 204.43,-18.66 201.27,-18.3 198.09,-17.93"/>
<polygon fill="#63b8ff" stroke="#63b8ff" points="636.67,-63.86 646.94,-61.24 637.28,-56.89 636.67,-63.86"/>
</g>
<!-- Node5 -->
<g id="node5" class="node">
<title>Node5</title>
<g id="a_node5"><a xlink:href="a00005.xhtml" target="_top" xlink:title=" ">
<polygon fill="white" stroke="#666666" points="320.5,-19 216.5,-19 216.5,0 320.5,0 320.5,-19"/>
<text text-anchor="middle" x="268.5" y="-7" font-family="Helvetica,sans-Serif" font-size="10.00">ComputeChords.cpp</text>
</a>
</g>
</g>
<!-- Node2&#45;&gt;Node5 -->
<g id="edge4" class="edge">
<title>Node2&#45;&gt;Node5</title>
<path fill="none" stroke="#63b8ff" d="M636.5,-58.83C573.46,-50.86 441.21,-34.01 329.5,-19 326.64,-18.62 323.7,-18.22 320.74,-17.81"/>
<polygon fill="#63b8ff" stroke="#63b8ff" points="636.37,-62.35 646.73,-60.13 637.24,-55.4 636.37,-62.35"/>
</g>
<!-- Node6 -->
<g id="node6" class="node">
<title>Node6</title>
<g id="a_node6"><a xlink:href="a00002.xhtml" target="_top" xlink:title=" ">
<polygon fill="white" stroke="#666666" points="446,-19 339,-19 339,0 446,0 446,-19"/>
<text text-anchor="middle" x="392.5" y="-7" font-family="Helvetica,sans-Serif" font-size="10.00">ComputeFeature.cpp</text>
</a>
</g>
</g>
<!-- Node2&#45;&gt;Node6 -->
<g id="edge5" class="edge">
<title>Node2&#45;&gt;Node6</title>
<path fill="none" stroke="#63b8ff" d="M636.86,-56.59C585.7,-46.94 492.95,-29.45 437.61,-19.01"/>
<polygon fill="#63b8ff" stroke="#63b8ff" points="636.34,-60.05 646.81,-58.47 637.63,-53.17 636.34,-60.05"/>
</g>
<!-- Node7 -->
<g id="node7" class="node">
<title>Node7</title>
<g id="a_node7"><a xlink:href="a00116.xhtml" target="_top" xlink:title=" ">
<polygon fill="white" stroke="#666666" points="583,-19 464,-19 464,0 583,0 583,-19"/>
<text text-anchor="middle" x="523.5" y="-7" font-family="Helvetica,sans-Serif" font-size="10.00">ComputeFingerprint.cpp</text>
</a>
</g>
</g>
<!-- Node2&#45;&gt;Node7 -->
<g id="edge6" class="edge">
<title>Node2&#45;&gt;Node7</title>
<path fill="none" stroke="#63b8ff" d="M639.68,-51.55C611.82,-41.71 572.99,-27.98 548.04,-19.17"/>
<polygon fill="#63b8ff" stroke="#63b8ff" points="638.81,-54.95 649.4,-54.98 641.14,-48.35 638.81,-54.95"/>
</g>
<!-- Node2&#45;&gt;Node8 -->
<g id="edge7" class="edge">
<title>Node2&#45;&gt;Node8</title>
<path fill="none" stroke="#63b8ff" d="M710.18,-61.14C793.68,-55.57 1004.27,-40.47 1179.5,-19 1182.42,-18.64 1185.42,-18.25 1188.45,-17.83"/>
<polygon fill="#63b8ff" stroke="#63b8ff" points="709.92,-57.65 700.18,-61.8 710.38,-64.63 709.92,-57.65"/>
</g>
<!-- Node9 -->
<g id="node9" class="node">
<title>Node9</title>
<g id="a_node9"><a xlink:href="a00119.xhtml" target="_top" xlink:title=" ">
<polygon fill="white" stroke="#666666" points="746,-19 601,-19 601,0 746,0 746,-19"/>
<text text-anchor="middle" x="673.5" y="-7" font-family="Helvetica,sans-Serif" font-size="10.00">ComputeMelSpectrogram.cpp</text>
</a>
</g>
</g>
<!-- Node2&#45;&gt;Node9 -->
<g id="edge8" class="edge">
<title>Node2&#45;&gt;Node9</title>
<path fill="none" stroke="#63b8ff" d="M673.5,-44.66C673.5,-35.93 673.5,-25.99 673.5,-19.09"/>
<polygon fill="#63b8ff" stroke="#63b8ff" points="670,-44.75 673.5,-54.75 677,-44.75 670,-44.75"/>
</g>
<!-- Node10 -->
<g id="node10" class="node">
<title>Node10</title>
<g id="a_node10"><a xlink:href="a00023.xhtml" target="_top" xlink:title=" ">
<polygon fill="white" stroke="#666666" points="908.5,-19 764.5,-19 764.5,0 908.5,0 908.5,-19"/>
<text text-anchor="middle" x="836.5" y="-7" font-family="Helvetica,sans-Serif" font-size="10.00">ComputeNoveltyFunction.cpp</text>
</a>
</g>
</g>
<!-- Node2&#45;&gt;Node10 -->
<g id="edge9" class="edge">
<title>Node2&#45;&gt;Node10</title>
<path fill="none" stroke="#63b8ff" d="M709.49,-51.8C739.91,-41.91 782.78,-27.97 810.11,-19.08"/>
<polygon fill="#63b8ff" stroke="#63b8ff" points="708.12,-48.56 699.69,-54.98 710.28,-55.22 708.12,-48.56"/>
</g>
<!-- Node11 -->
<g id="node11" class="node">
<title>Node11</title>
<g id="a_node11"><a xlink:href="a00125.xhtml" target="_top" xlink:title=" ">
<polygon fill="white" stroke="#666666" points="1022.5,-19 926.5,-19 926.5,0 1022.5,0 1022.5,-19"/>
<text text-anchor="middle" x="974.5" y="-7" font-family="Helvetica,sans-Serif" font-size="10.00">ComputePitch.cpp</text>
</a>
</g>
</g>
<!-- Node2&#45;&gt;Node11 -->
<g id="edge10" class="edge">
<title>Node2&#45;&gt;Node11</title>
<path fill="none" stroke="#63b8ff" d="M710.08,-57.06C764.29,-47.51 866.02,-29.6 926.27,-18.99"/>
<polygon fill="#63b8ff" stroke="#63b8ff" points="709.45,-53.62 700.21,-58.8 710.67,-60.51 709.45,-53.62"/>
</g>
<!-- Node12 -->
<g id="node12" class="node">
<title>Node12</title>
<g id="a_node12"><a xlink:href="a00008.xhtml" target="_top" xlink:title=" ">
<polygon fill="white" stroke="#666666" points="1170,-19 1041,-19 1041,0 1170,0 1170,-19"/>
<text text-anchor="middle" x="1105.5" y="-7" font-family="Helvetica,sans-Serif" font-size="10.00">ComputeSpectrogram.cpp</text>
</a>
</g>
</g>
<!-- Node2&#45;&gt;Node12 -->
<g id="edge11" class="edge">
<title>Node2&#45;&gt;Node12</title>
<path fill="none" stroke="#63b8ff" d="M710.33,-58.98C783.67,-49.98 948.77,-29.73 1040.66,-18.45"/>
<polygon fill="#63b8ff" stroke="#63b8ff" points="709.7,-55.53 700.2,-60.22 710.55,-62.48 709.7,-55.53"/>
</g>
</g>
</svg>
        <g id="navigator" transform="translate(0 0)" fill="#404254">
                <rect fill="#f2f5e9" fill-opacity="0.5" stroke="#606060" stroke-width=".5" x="0" y="0" width="60" height="60"/>
                <use id="zoomplus" xlink:href="#zoomPlus" x="17" y="9" onmousedown="handleZoom(evt,'in')"/>
                <use id="zoomminus" xlink:href="#zoomMin" x="42" y="9" onmousedown="handleZoom(evt,'out')"/>
                <use id="reset" xlink:href="#resetDef" x="30" y="36" onmousedown="handleReset()"/>
                <g id="arrowUp" xlink:href="#dirArrow" transform="translate(30 24)" onmousedown="handlePan(0,-1)">
                  <use xlink:href="#rim" fill="#404040">
                        <set attributeName="fill" to="#808080" begin="arrowUp.mouseover" end="arrowUp.mouseout"/>
                  </use>
                  <path fill="none" stroke="white" stroke-width="1.5" d="M0,-3.0v7 M-2.5,-0.5L0,-3.0L2.5,-0.5"/>
                </g>
                <g id="arrowRight" xlink:href="#dirArrow" transform="rotate(90) translate(36 -43)" onmousedown="handlePan(1,0)">
                  <use xlink:href="#rim" fill="#404040">
                        <set attributeName="fill" to="#808080" begin="arrowRight.mouseover" end="arrowRight.mouseout"/>
                  </use>
                  <path fill="none" stroke="white" stroke-width="1.5" d="M0,-3.0v7 M-2.5,-0.5L0,-3.0L2.5,-0.5"/>
                </g>
                <g id="arrowDown" xlink:href="#dirArrow" transform="rotate(180) translate(-30 -48)" onmousedown="handlePan(0,1)">
                  <use xlink:href="#rim" fill="#404040">
                        <set attributeName="fill" to="#808080" begin="arrowDown.mouseover" end="arrowDown.mouseout"/>
                  </use>
                  <path fill="none" stroke="white" stroke-width="1.5" d="M0,-3.0v7 M-2.5,-0.5L0,-3.0L2.5,-0.5"/>
                </g>
                <g id="arrowLeft" xlink:href="#dirArrow" transform="rotate(270) translate(-36 17)" onmousedown="handlePan(-1,0)">
                  <use xlink:href="#rim" fill="#404040">
                        <set attributeName="fill" to="#808080" begin="arrowLeft.mouseover" end="arrowLeft.mouseout"/>
                  </use>
                  <path fill="none" stroke="white" stroke-width="1.5" d="M0,-3.0v7 M-2.5,-0.5L0,-3.0L2.5,-0.5"/>
                </g>
        </g>
        <svg viewBox="0 0 15 15" width="100%" height="30px" preserveAspectRatio="xMaxYMin meet">
         <g id="arrow_out" transform="scale(0.3 0.3)">
          <a xlink:href="a00238_org.svg" target="_base">
           <rect id="button" ry="5" rx="5" y="6" x="6" height="38" width="38"
                fill="#f2f5e9" fill-opacity="0.5" stroke="#606060" stroke-width="1.0"/>
           <path id="arrow"
             d="M 11.500037,31.436501 C 11.940474,20.09759 22.043105,11.32322 32.158766,21.979434 L 37.068811,17.246167 C 37.068811,17.246167 37.088388,32 37.088388,32 L 22.160133,31.978069 C 22.160133,31.978069 26.997745,27.140456 26.997745,27.140456 C 18.528582,18.264221 13.291696,25.230495 11.500037,31.436501 z"
             style="fill:#404040;"/>
          </a>
         </g>
        </svg>
</svg>
