<?xml version="1.0" encoding="UTF-8" standalone="no"?>
<!DOCTYPE svg PUBLIC "-//W3C//DTD SVG 1.1//EN"
 "http://www.w3.org/Graphics/SVG/1.1/DTD/svg11.dtd">
<!-- Generated by graphviz version 6.0.1 (20220911.1526)
 -->
<!-- Title: Feature.h Pages: 1 -->
<svg width="1287pt" height="192pt"
 viewBox="0.00 0.00 1286.50 192.00" xmlns="http://www.w3.org/2000/svg" xmlns:xlink="http://www.w3.org/1999/xlink">
<g id="graph0" class="graph" transform="scale(1 1) rotate(0) translate(4 188)">
<title>Feature.h</title>
<!-- Node1 -->
<g id="node1" class="node">
<title>Node1</title>
<g id="a_node1"><a xlink:title=" ">
<polygon fill="#999999" stroke="#666666" points="673,-184 616,-184 616,-165 673,-165 673,-184"/>
<text text-anchor="middle" x="644.5" y="-172" font-family="Helvetica,sans-Serif" font-size="10.00">Feature.h</text>
</a>
</g>
</g>
<!-- Node2 -->
<g id="node2" class="node">
<title>Node2</title>
<g id="a_node2"><a xlink:href="a00128.xhtml" target="_top" xlink:title=" ">
<polygon fill="white" stroke="#666666" points="633,-74 580,-74 580,-55 633,-55 633,-74"/>
<text text-anchor="middle" x="606.5" y="-62" font-family="Helvetica,sans-Serif" font-size="10.00">AcaAll.h</text>
</a>
</g>
</g>
<!-- Node1&#45;&gt;Node2 -->
<g id="edge1" class="edge">
<title>Node1&#45;&gt;Node2</title>
<path fill="none" stroke="#63b8ff" d="M638.03,-155.12C629.74,-131.56 615.7,-91.66 609.55,-74.16"/>
<polygon fill="#63b8ff" stroke="#63b8ff" points="634.77,-156.39 641.39,-164.66 641.37,-154.07 634.77,-156.39"/>
</g>
<!-- Node6 -->
<g id="node6" class="node">
<title>Node6</title>
<g id="a_node6"><a xlink:href="a00002.xhtml" target="_top" xlink:title=" ">
<polygon fill="white" stroke="#666666" points="107,-19 0,-19 0,0 107,0 107,-19"/>
<text text-anchor="middle" x="53.5" y="-7" font-family="Helvetica,sans-Serif" font-size="10.00">ComputeFeature.cpp</text>
</a>
</g>
</g>
<!-- Node1&#45;&gt;Node6 -->
<g id="edge12" class="edge">
<title>Node1&#45;&gt;Node6</title>
<path fill="none" stroke="#63b8ff" d="M606.04,-162.89C496.48,-132.68 184.27,-46.57 84.53,-19.06"/>
<polygon fill="#63b8ff" stroke="#63b8ff" points="605.42,-166.35 615.99,-165.64 607.29,-159.61 605.42,-166.35"/>
</g>
<!-- Node13 -->
<g id="node13" class="node">
<title>Node13</title>
<g id="a_node13"><a xlink:href="a00047.xhtml" target="_top" xlink:title=" ">
<polygon fill="white" stroke="#666666" points="719.5,-74 651.5,-74 651.5,-55 719.5,-55 719.5,-74"/>
<text text-anchor="middle" x="685.5" y="-62" font-family="Helvetica,sans-Serif" font-size="10.00">Feature.cpp</text>
</a>
</g>
</g>
<!-- Node1&#45;&gt;Node13 -->
<g id="edge13" class="edge">
<title>Node1&#45;&gt;Node13</title>
<path fill="none" stroke="#63b8ff" d="M649.21,-154.79C652.64,-141.99 657.7,-124.74 663.5,-110 668.55,-97.17 675.88,-82.99 680.67,-74.17"/>
<polygon fill="#63b8ff" stroke="#63b8ff" points="645.76,-154.16 646.63,-164.72 652.53,-155.92 645.76,-154.16"/>
</g>
<!-- Node14 -->
<g id="node14" class="node">
<title>Node14</title>
<g id="a_node14"><a xlink:href="a00167.xhtml" target="_top" xlink:title=" ">
<polygon fill="white" stroke="#666666" points="776.5,-129 672.5,-129 672.5,-110 776.5,-110 776.5,-129"/>
<text text-anchor="middle" x="724.5" y="-117" font-family="Helvetica,sans-Serif" font-size="10.00">FeatureFromBlock.h</text>
</a>
</g>
</g>
<!-- Node1&#45;&gt;Node14 -->
<g id="edge14" class="edge">
<title>Node1&#45;&gt;Node14</title>
<path fill="none" stroke="#63b8ff" d="M665.75,-159.42C680.26,-149.81 699.04,-137.37 711.41,-129.17"/>
<polygon fill="#63b8ff" stroke="#63b8ff" points="663.76,-156.54 657.35,-164.98 667.62,-162.38 663.76,-156.54"/>
</g>
<!-- Node17 -->
<g id="node17" class="node">
<title>Node17</title>
<g id="a_node17"><a xlink:href="a00059.xhtml" target="_top" xlink:title=" ">
<polygon fill="white" stroke="#666666" points="846,-129 795,-129 795,-110 846,-110 846,-129"/>
<text text-anchor="middle" x="820.5" y="-117" font-family="Helvetica,sans-Serif" font-size="10.00">Key.cpp</text>
</a>
</g>
</g>
<!-- Node1&#45;&gt;Node17 -->
<g id="edge19" class="edge">
<title>Node1&#45;&gt;Node17</title>
<path fill="none" stroke="#63b8ff" d="M682.37,-162.1C716.35,-151.86 765.28,-137.13 794.87,-128.22"/>
<polygon fill="#63b8ff" stroke="#63b8ff" points="681.34,-158.75 672.78,-164.98 683.36,-165.45 681.34,-158.75"/>
</g>
<!-- Node3 -->
<g id="node3" class="node">
<title>Node3</title>
<g id="a_node3"><a xlink:href="a00053.xhtml" target="_top" xlink:title=" ">
<polygon fill="white" stroke="#666666" points="1021,-19 958,-19 958,0 1021,0 1021,-19"/>
<text text-anchor="middle" x="989.5" y="-7" font-family="Helvetica,sans-Serif" font-size="10.00">AcaAll.cpp</text>
</a>
</g>
</g>
<!-- Node2&#45;&gt;Node3 -->
<g id="edge2" class="edge">
<title>Node2&#45;&gt;Node3</title>
<path fill="none" stroke="#63b8ff" d="M643.16,-55.1C779.55,-31.63 817.12,-40.78 949.5,-19 952.16,-18.56 954.92,-18.07 957.67,-17.54"/>
<polygon fill="#63b8ff" stroke="#63b8ff" points="642.41,-51.67 633.17,-56.84 643.62,-58.57 642.41,-51.67"/>
</g>
<!-- Node4 -->
<g id="node4" class="node">
<title>Node4</title>
<g id="a_node4"><a xlink:href="a00011.xhtml" target="_top" xlink:title=" ">
<polygon fill="white" stroke="#666666" points="1156,-19 1039,-19 1039,0 1156,0 1156,-19"/>
<text text-anchor="middle" x="1097.5" y="-7" font-family="Helvetica,sans-Serif" font-size="10.00">ComputeBeatHisto.cpp</text>
</a>
</g>
</g>
<!-- Node2&#45;&gt;Node4 -->
<g id="edge3" class="edge">
<title>Node2&#45;&gt;Node4</title>
<path fill="none" stroke="#63b8ff" d="M643.05,-55.16C815.12,-27.43 861.54,-37.55 1030.5,-19 1033.18,-18.71 1035.92,-18.4 1038.69,-18.08"/>
<polygon fill="#63b8ff" stroke="#63b8ff" points="642.46,-51.71 633.15,-56.77 643.59,-58.62 642.46,-51.71"/>
</g>
<!-- Node5 -->
<g id="node5" class="node">
<title>Node5</title>
<g id="a_node5"><a xlink:href="a00005.xhtml" target="_top" xlink:title=" ">
<polygon fill="white" stroke="#666666" points="1278.5,-19 1174.5,-19 1174.5,0 1278.5,0 1278.5,-19"/>
<text text-anchor="middle" x="1226.5" y="-7" font-family="Helvetica,sans-Serif" font-size="10.00">ComputeChords.cpp</text>
</a>
</g>
</g>
<!-- Node2&#45;&gt;Node5 -->
<g id="edge4" class="edge">
<title>Node2&#45;&gt;Node5</title>
<path fill="none" stroke="#63b8ff" d="M643.22,-55.18C874.63,-20.76 937.04,-42.75 1165.5,-19 1168.37,-18.7 1171.32,-18.37 1174.29,-18.02"/>
<polygon fill="#63b8ff" stroke="#63b8ff" points="642.51,-51.75 633.14,-56.7 643.55,-58.67 642.51,-51.75"/>
</g>
<!-- Node2&#45;&gt;Node6 -->
<g id="edge5" class="edge">
<title>Node2&#45;&gt;Node6</title>
<path fill="none" stroke="#63b8ff" d="M569.56,-60.73C487.68,-54.48 284.79,-38.27 115.5,-19 112.8,-18.69 110.04,-18.36 107.25,-18.02"/>
<polygon fill="#63b8ff" stroke="#63b8ff" points="569.61,-64.25 579.84,-61.52 570.14,-57.27 569.61,-64.25"/>
</g>
<!-- Node7 -->
<g id="node7" class="node">
<title>Node7</title>
<g id="a_node7"><a xlink:href="a00116.xhtml" target="_top" xlink:title=" ">
<polygon fill="white" stroke="#666666" points="244,-19 125,-19 125,0 244,0 244,-19"/>
<text text-anchor="middle" x="184.5" y="-7" font-family="Helvetica,sans-Serif" font-size="10.00">ComputeFingerprint.cpp</text>
</a>
</g>
</g>
<!-- Node2&#45;&gt;Node7 -->
<g id="edge6" class="edge">
<title>Node2&#45;&gt;Node7</title>
<path fill="none" stroke="#63b8ff" d="M569.68,-58.88C496.63,-49.7 332.76,-29.12 244.13,-17.99"/>
<polygon fill="#63b8ff" stroke="#63b8ff" points="569.42,-62.37 579.78,-60.14 570.3,-55.43 569.42,-62.37"/>
</g>
<!-- Node8 -->
<g id="node8" class="node">
<title>Node8</title>
<g id="a_node8"><a xlink:href="a00122.xhtml" target="_top" xlink:title=" ">
<polygon fill="white" stroke="#666666" points="352.5,-19 262.5,-19 262.5,0 352.5,0 352.5,-19"/>
<text text-anchor="middle" x="307.5" y="-7" font-family="Helvetica,sans-Serif" font-size="10.00">ComputeKey.cpp</text>
</a>
</g>
</g>
<!-- Node2&#45;&gt;Node8 -->
<g id="edge7" class="edge">
<title>Node2&#45;&gt;Node8</title>
<path fill="none" stroke="#63b8ff" d="M570.02,-57.03C515.32,-47.34 412.15,-29.05 352.73,-18.52"/>
<polygon fill="#63b8ff" stroke="#63b8ff" points="569.51,-60.5 579.97,-58.8 570.73,-53.6 569.51,-60.5"/>
</g>
<!-- Node9 -->
<g id="node9" class="node">
<title>Node9</title>
<g id="a_node9"><a xlink:href="a00119.xhtml" target="_top" xlink:title=" ">
<polygon fill="white" stroke="#666666" points="516,-19 371,-19 371,0 516,0 516,-19"/>
<text text-anchor="middle" x="443.5" y="-7" font-family="Helvetica,sans-Serif" font-size="10.00">ComputeMelSpectrogram.cpp</text>
</a>
</g>
</g>
<!-- Node2&#45;&gt;Node9 -->
<g id="edge8" class="edge">
<title>Node2&#45;&gt;Node9</title>
<path fill="none" stroke="#63b8ff" d="M570.51,-51.8C540.09,-41.91 497.22,-27.97 469.89,-19.08"/>
<polygon fill="#63b8ff" stroke="#63b8ff" points="569.72,-55.22 580.31,-54.98 571.88,-48.56 569.72,-55.22"/>
</g>
<!-- Node10 -->
<g id="node10" class="node">
<title>Node10</title>
<g id="a_node10"><a xlink:href="a00023.xhtml" target="_top" xlink:title=" ">
<polygon fill="white" stroke="#666666" points="678.5,-19 534.5,-19 534.5,0 678.5,0 678.5,-19"/>
<text text-anchor="middle" x="606.5" y="-7" font-family="Helvetica,sans-Serif" font-size="10.00">ComputeNoveltyFunction.cpp</text>
</a>
</g>
</g>
<!-- Node2&#45;&gt;Node10 -->
<g id="edge9" class="edge">
<title>Node2&#45;&gt;Node10</title>
<path fill="none" stroke="#63b8ff" d="M606.5,-44.66C606.5,-35.93 606.5,-25.99 606.5,-19.09"/>
<polygon fill="#63b8ff" stroke="#63b8ff" points="603,-44.75 606.5,-54.75 610,-44.75 603,-44.75"/>
</g>
<!-- Node11 -->
<g id="node11" class="node">
<title>Node11</title>
<g id="a_node11"><a xlink:href="a00125.xhtml" target="_top" xlink:title=" ">
<polygon fill="white" stroke="#666666" points="792.5,-19 696.5,-19 696.5,0 792.5,0 792.5,-19"/>
<text text-anchor="middle" x="744.5" y="-7" font-family="Helvetica,sans-Serif" font-size="10.00">ComputePitch.cpp</text>
</a>
</g>
</g>
<!-- Node2&#45;&gt;Node11 -->
<g id="edge10" class="edge">
<title>Node2&#45;&gt;Node11</title>
<path fill="none" stroke="#63b8ff" d="M638.29,-51.29C663.87,-41.47 699.17,-27.91 721.92,-19.17"/>
<polygon fill="#63b8ff" stroke="#63b8ff" points="636.75,-48.13 628.67,-54.98 639.26,-54.67 636.75,-48.13"/>
</g>
<!-- Node12 -->
<g id="node12" class="node">
<title>Node12</title>
<g id="a_node12"><a xlink:href="a00008.xhtml" target="_top" xlink:title=" ">
<polygon fill="white" stroke="#666666" points="940,-19 811,-19 811,0 940,0 940,-19"/>
<text text-anchor="middle" x="875.5" y="-7" font-family="Helvetica,sans-Serif" font-size="10.00">ComputeSpectrogram.cpp</text>
</a>
</g>
</g>
<!-- Node2&#45;&gt;Node12 -->
<g id="edge11" class="edge">
<title>Node2&#45;&gt;Node12</title>
<path fill="none" stroke="#63b8ff" d="M643.07,-54.96C712.94,-40.14 782.56,-27.18 827.63,-19.02"/>
<polygon fill="#63b8ff" stroke="#63b8ff" points="642.26,-51.55 633.21,-57.06 643.72,-58.4 642.26,-51.55"/>
</g>
<!-- Node14&#45;&gt;Node2 -->
<g id="edge15" class="edge">
<title>Node14&#45;&gt;Node2</title>
<path fill="none" stroke="#63b8ff" d="M696.15,-105.77C674.38,-95.99 644.91,-82.75 625.8,-74.17"/>
<polygon fill="#63b8ff" stroke="#63b8ff" points="694.99,-109.08 705.54,-109.98 697.85,-102.69 694.99,-109.08"/>
</g>
<!-- Node14&#45;&gt;Node13 -->
<g id="edge17" class="edge">
<title>Node14&#45;&gt;Node13</title>
<path fill="none" stroke="#63b8ff" d="M712.12,-101.67C705.36,-92.5 697.29,-81.52 691.82,-74.09"/>
<polygon fill="#63b8ff" stroke="#63b8ff" points="709.31,-103.77 718.06,-109.75 714.95,-99.62 709.31,-103.77"/>
</g>
<!-- Node15 -->
<g id="node15" class="node">
<title>Node15</title>
<g id="a_node15"><a xlink:href="a00062.xhtml" target="_top" xlink:title=" ">
<polygon fill="white" stroke="#666666" points="978,-74 871,-74 871,-55 978,-55 978,-74"/>
<text text-anchor="middle" x="924.5" y="-62" font-family="Helvetica,sans-Serif" font-size="10.00">ChordFromBlock.cpp</text>
</a>
</g>
</g>
<!-- Node14&#45;&gt;Node15 -->
<g id="edge16" class="edge">
<title>Node14&#45;&gt;Node15</title>
<path fill="none" stroke="#63b8ff" d="M766.72,-107.31C804.15,-97.39 858,-83.12 892.11,-74.08"/>
<polygon fill="#63b8ff" stroke="#63b8ff" points="765.4,-104.04 756.63,-109.98 767.2,-110.81 765.4,-104.04"/>
</g>
<!-- Node16 -->
<g id="node16" class="node">
<title>Node16</title>
<g id="a_node16"><a xlink:href="a00098.xhtml" target="_top" xlink:title=" ">
<polygon fill="white" stroke="#666666" points="853,-74 738,-74 738,-55 853,-55 853,-74"/>
<text text-anchor="middle" x="795.5" y="-62" font-family="Helvetica,sans-Serif" font-size="10.00">FeatureFromBlock.cpp</text>
</a>
</g>
</g>
<!-- Node14&#45;&gt;Node16 -->
<g id="edge18" class="edge">
<title>Node14&#45;&gt;Node16</title>
<path fill="none" stroke="#63b8ff" d="M744.09,-103.88C756.87,-94.34 773.11,-82.21 783.89,-74.17"/>
<polygon fill="#63b8ff" stroke="#63b8ff" points="741.83,-101.2 735.91,-109.98 746.01,-106.81 741.83,-101.2"/>
</g>
</g>
</svg>
