<?xml version="1.0" encoding="UTF-8" standalone="no"?>
<!DOCTYPE svg PUBLIC "-//W3C//DTD SVG 1.1//EN"
 "http://www.w3.org/Graphics/SVG/1.1/DTD/svg11.dtd">
<!-- Generated by graphviz version 12.2.1 (20241206.2353)
 -->
<!-- Title: ToolInstFreq.h Pages: 1 -->
<svg width="389pt" height="248pt"
 viewBox="0.00 0.00 388.63 248.25" xmlns="http://www.w3.org/2000/svg" xmlns:xlink="http://www.w3.org/1999/xlink">

<svg id="main" version="1.1" xmlns="http://www.w3.org/2000/svg" xmlns:xlink="http://www.w3.org/1999/xlink" xml:space="preserve">

<style type="text/css"><![CDATA[
.node, .edge {opacity: 0.7;}
.node.selected, .edge.selected {opacity: 1;}
.edge:hover path { stroke: red; }
.edge:hover polygon { stroke: red; fill: red; }
]]></style>
<script type="application/ecmascript" xlink:href="svg.min.js"/>
<svg id="graph" class="graph">
<g id="graph0" class="graph" transform="scale(1 1) rotate(0) translate(4 244.25)">
<title>ToolInstFreq.h</title>
<!-- Node1 -->
<g id="Node000001" class="node">
<title>Node1</title>
<g id="a_Node000001"><a xlink:title=" ">
<polygon fill="#999999" stroke="#666666" points="169,-240.25 90.75,-240.25 90.75,-221 169,-221 169,-240.25"/>
<text text-anchor="middle" x="129.88" y="-226.75" font-family="Helvetica,sans-Serif" font-size="10.00">ToolInstFreq.h</text>
</a>
</g>
</g>
<!-- Node2 -->
<g id="Node000002" class="node">
<title>Node2</title>
<g id="a_Node000002"><a xlink:title=" ">
<polygon fill="#e0e0e0" stroke="#999999" points="108,-19.25 59.75,-19.25 59.75,0 108,0 108,-19.25"/>
<text text-anchor="middle" x="83.88" y="-5.75" font-family="Helvetica,sans-Serif" font-size="10.00">cassert</text>
</a>
</g>
</g>
<!-- Node1&#45;&gt;Node2 -->
<g id="edge1_Node000001_Node000002" class="edge">
<title>Node1&#45;&gt;Node2</title>
<g id="a_edge1_Node000001_Node000002"><a xlink:title=" ">
<path fill="none" stroke="#63b8ff" d="M118.38,-220.7C91.66,-199.11 25.89,-140.93 2.88,-74.5 0.08,-66.42 -1.48,-62.62 2.88,-55.25 12.86,-38.35 31.77,-27.42 48.81,-20.61"/>
<polygon fill="#63b8ff" stroke="#63b8ff" points="49.99,-23.9 58.21,-17.22 47.61,-17.32 49.99,-23.9"/>
</a>
</g>
</g>
<!-- Node3 -->
<g id="Node000003" class="node">
<title>Node3</title>
<g id="a_Node000003"><a xlink:title=" ">
<polygon fill="#e0e0e0" stroke="#999999" points="55.38,-74.5 12.38,-74.5 12.38,-55.25 55.38,-55.25 55.38,-74.5"/>
<text text-anchor="middle" x="33.88" y="-61" font-family="Helvetica,sans-Serif" font-size="10.00">cmath</text>
</a>
</g>
</g>
<!-- Node1&#45;&gt;Node3 -->
<g id="edge2_Node000001_Node000003" class="edge">
<title>Node1&#45;&gt;Node3</title>
<g id="a_edge2_Node000001_Node000003"><a xlink:title=" ">
<path fill="none" stroke="#63b8ff" d="M124.71,-220.82C109.61,-195.05 65.26,-119.4 44.64,-84.24"/>
<polygon fill="#63b8ff" stroke="#63b8ff" points="47.91,-82.88 39.83,-76.03 41.87,-86.43 47.91,-82.88"/>
</a>
</g>
</g>
<!-- Node4 -->
<g id="Node000004" class="node">
<title>Node4</title>
<g id="a_Node000004"><a xlink:href="a00191.xhtml" target="_top" xlink:title=" ">
<polygon fill="white" stroke="#666666" points="150.13,-74.5 111.63,-74.5 111.63,-55.25 150.13,-55.25 150.13,-74.5"/>
<text text-anchor="middle" x="130.88" y="-61" font-family="Helvetica,sans-Serif" font-size="10.00">Util.h</text>
</a>
</g>
</g>
<!-- Node1&#45;&gt;Node4 -->
<g id="edge3_Node000001_Node000004" class="edge">
<title>Node1&#45;&gt;Node4</title>
<g id="a_edge3_Node000001_Node000004"><a xlink:title=" ">
<path fill="none" stroke="#63b8ff" d="M128.07,-220.78C126.34,-211.81 123.85,-197.51 122.88,-185 120.17,-150.3 124.46,-109.87 127.73,-86.16"/>
<polygon fill="#63b8ff" stroke="#63b8ff" points="131.18,-86.75 129.17,-76.34 124.25,-85.73 131.18,-86.75"/>
</a>
</g>
</g>
<!-- Node7 -->
<g id="Node000007" class="node">
<title>Node7</title>
<g id="a_Node000007"><a xlink:href="a00185.xhtml" target="_top" xlink:title=" ">
<polygon fill="white" stroke="#666666" points="183.88,-185 131.88,-185 131.88,-165.75 183.88,-165.75 183.88,-185"/>
<text text-anchor="middle" x="157.88" y="-171.5" font-family="Helvetica,sans-Serif" font-size="10.00">Vector.h</text>
</a>
</g>
</g>
<!-- Node1&#45;&gt;Node7 -->
<g id="edge7_Node000001_Node000007" class="edge">
<title>Node1&#45;&gt;Node7</title>
<g id="a_edge7_Node000001_Node000007"><a xlink:title=" ">
<path fill="none" stroke="#63b8ff" d="M134.5,-220.83C138.13,-213.94 143.3,-204.09 147.87,-195.41"/>
<polygon fill="#63b8ff" stroke="#63b8ff" points="150.89,-197.18 152.45,-186.7 144.7,-193.92 150.89,-197.18"/>
</a>
</g>
</g>
<!-- Node10 -->
<g id="Node000010" class="node">
<title>Node10</title>
<g id="a_Node000010"><a xlink:href="a00167.xhtml" target="_top" xlink:title=" ">
<polygon fill="white" stroke="#666666" points="365.25,-74.5 306.5,-74.5 306.5,-55.25 365.25,-55.25 365.25,-74.5"/>
<text text-anchor="middle" x="335.88" y="-61" font-family="Helvetica,sans-Serif" font-size="10.00">ErrorDef.h</text>
</a>
</g>
</g>
<!-- Node1&#45;&gt;Node10 -->
<g id="edge19_Node000001_Node000010" class="edge">
<title>Node1&#45;&gt;Node10</title>
<g id="a_edge19_Node000001_Node000010"><a xlink:title=" ">
<path fill="none" stroke="#63b8ff" d="M143.12,-220.69C156.02,-211.88 176.09,-197.91 192.88,-185 238.71,-149.77 290.32,-105.6 317.25,-82.19"/>
<polygon fill="#63b8ff" stroke="#63b8ff" points="319.32,-85.03 324.56,-75.82 314.72,-79.76 319.32,-85.03"/>
</a>
</g>
</g>
<!-- Node11 -->
<g id="Node000011" class="node">
<title>Node11</title>
<g id="a_Node000011"><a xlink:href="a00200.xhtml" target="_top" xlink:title=" ">
<polygon fill="white" stroke="#666666" points="380.63,-129.75 345.13,-129.75 345.13,-110.5 380.63,-110.5 380.63,-129.75"/>
<text text-anchor="middle" x="362.88" y="-116.25" font-family="Helvetica,sans-Serif" font-size="10.00">Fft.h</text>
</a>
</g>
</g>
<!-- Node1&#45;&gt;Node11 -->
<g id="edge17_Node000001_Node000011" class="edge">
<title>Node1&#45;&gt;Node11</title>
<g id="a_edge17_Node000001_Node000011"><a xlink:title=" ">
<path fill="none" stroke="#63b8ff" d="M169.19,-230.5C213.04,-229.47 283.95,-221.6 330.88,-185 344.93,-174.03 353.29,-155.24 357.92,-140.87"/>
<polygon fill="#63b8ff" stroke="#63b8ff" points="361.2,-142.14 360.56,-131.57 354.47,-140.23 361.2,-142.14"/>
</a>
</g>
</g>
<!-- Node4&#45;&gt;Node2 -->
<g id="edge4_Node000004_Node000002" class="edge">
<title>Node4&#45;&gt;Node2</title>
<g id="a_edge4_Node000004_Node000002"><a xlink:title=" ">
<path fill="none" stroke="#63b8ff" d="M123.11,-55.08C116.69,-47.8 107.36,-37.23 99.41,-28.23"/>
<polygon fill="#63b8ff" stroke="#63b8ff" points="102.05,-25.93 92.81,-20.74 96.8,-30.56 102.05,-25.93"/>
</a>
</g>
</g>
<!-- Node5 -->
<g id="Node000005" class="node">
<title>Node5</title>
<g id="a_Node000005"><a xlink:title=" ">
<polygon fill="#e0e0e0" stroke="#999999" points="206.5,-19.25 161.25,-19.25 161.25,0 206.5,0 206.5,-19.25"/>
<text text-anchor="middle" x="183.88" y="-5.75" font-family="Helvetica,sans-Serif" font-size="10.00">cstring</text>
</a>
</g>
</g>
<!-- Node4&#45;&gt;Node5 -->
<g id="edge5_Node000004_Node000005" class="edge">
<title>Node4&#45;&gt;Node5</title>
<g id="a_edge5_Node000004_Node000005"><a xlink:title=" ">
<path fill="none" stroke="#63b8ff" d="M139.63,-55.08C147.03,-47.65 157.84,-36.79 166.92,-27.66"/>
<polygon fill="#63b8ff" stroke="#63b8ff" points="169.29,-30.24 173.87,-20.68 164.33,-25.3 169.29,-30.24"/>
</a>
</g>
</g>
<!-- Node6 -->
<g id="Node000006" class="node">
<title>Node6</title>
<g id="a_Node000006"><a xlink:title=" ">
<polygon fill="#e0e0e0" stroke="#999999" points="280.5,-19.25 241.25,-19.25 241.25,0 280.5,0 280.5,-19.25"/>
<text text-anchor="middle" x="260.88" y="-5.75" font-family="Helvetica,sans-Serif" font-size="10.00">limits</text>
</a>
</g>
</g>
<!-- Node4&#45;&gt;Node6 -->
<g id="edge6_Node000004_Node000006" class="edge">
<title>Node4&#45;&gt;Node6</title>
<g id="a_edge6_Node000004_Node000006"><a xlink:title=" ">
<path fill="none" stroke="#63b8ff" d="M150.62,-55.79C171.81,-47.11 205.74,-33.21 230.36,-23.12"/>
<polygon fill="#63b8ff" stroke="#63b8ff" points="231.62,-26.39 239.55,-19.36 228.96,-19.91 231.62,-26.39"/>
</a>
</g>
</g>
<!-- Node7&#45;&gt;Node2 -->
<g id="edge8_Node000007_Node000002" class="edge">
<title>Node7&#45;&gt;Node2</title>
<g id="a_edge8_Node000007_Node000002"><a xlink:title=" ">
<path fill="none" stroke="#63b8ff" d="M152.03,-165.34C141.15,-148.21 117.54,-109.56 102.88,-74.5 96.85,-60.1 91.9,-43.14 88.57,-30.32"/>
<polygon fill="#63b8ff" stroke="#63b8ff" points="92.05,-29.84 86.24,-20.98 85.26,-31.53 92.05,-29.84"/>
</a>
</g>
</g>
<!-- Node7&#45;&gt;Node3 -->
<g id="edge11_Node000007_Node000003" class="edge">
<title>Node7&#45;&gt;Node3</title>
<g id="a_edge11_Node000007_Node000003"><a xlink:title=" ">
<path fill="none" stroke="#63b8ff" d="M147.23,-165.59C136.47,-156.66 119.39,-142.39 104.88,-129.75 86.61,-113.86 66.09,-95.31 51.82,-82.31"/>
<polygon fill="#63b8ff" stroke="#63b8ff" points="54.3,-79.83 44.55,-75.68 49.57,-85 54.3,-79.83"/>
</a>
</g>
</g>
<!-- Node7&#45;&gt;Node5 -->
<g id="edge9_Node000007_Node000005" class="edge">
<title>Node7&#45;&gt;Node5</title>
<g id="a_edge9_Node000007_Node000005"><a xlink:title=" ">
<path fill="none" stroke="#63b8ff" d="M180.3,-165.39C195.05,-158.16 213.17,-146.44 221.88,-129.75 237.19,-100.4 233.31,-86.32 221.88,-55.25 218.04,-44.82 210.55,-35.16 203.24,-27.52"/>
<polygon fill="#63b8ff" stroke="#63b8ff" points="205.67,-25.01 196.04,-20.6 200.82,-30.05 205.67,-25.01"/>
</a>
</g>
</g>
<!-- Node7&#45;&gt;Node6 -->
<g id="edge10_Node000007_Node000006" class="edge">
<title>Node7&#45;&gt;Node6</title>
<g id="a_edge10_Node000007_Node000006"><a xlink:title=" ">
<path fill="none" stroke="#63b8ff" d="M184.18,-166.82C202.68,-160.12 226.44,-148.44 239.88,-129.75 261.06,-100.29 263.22,-56.32 262.38,-30.86"/>
<polygon fill="#63b8ff" stroke="#63b8ff" points="265.89,-31 261.85,-21.2 258.9,-31.38 265.89,-31"/>
</a>
</g>
</g>
<!-- Node8 -->
<g id="Node000008" class="node">
<title>Node8</title>
<g id="a_Node000008"><a xlink:href="a00194.xhtml" target="_top" xlink:title=" ">
<polygon fill="white" stroke="#666666" points="213,-129.75 146.75,-129.75 146.75,-110.5 213,-110.5 213,-129.75"/>
<text text-anchor="middle" x="179.88" y="-116.25" font-family="Helvetica,sans-Serif" font-size="10.00">Synthesis.h</text>
</a>
</g>
</g>
<!-- Node7&#45;&gt;Node8 -->
<g id="edge12_Node000007_Node000008" class="edge">
<title>Node7&#45;&gt;Node8</title>
<g id="a_edge12_Node000007_Node000008"><a xlink:title=" ">
<path fill="none" stroke="#63b8ff" d="M161.51,-165.58C164.29,-158.84 168.25,-149.27 171.77,-140.74"/>
<polygon fill="#63b8ff" stroke="#63b8ff" points="175,-142.09 175.59,-131.51 168.53,-139.41 175,-142.09"/>
</a>
</g>
</g>
<!-- Node8&#45;&gt;Node3 -->
<g id="edge13_Node000008_Node000003" class="edge">
<title>Node8&#45;&gt;Node3</title>
<g id="a_edge13_Node000008_Node000003"><a xlink:title=" ">
<path fill="none" stroke="#63b8ff" d="M155.11,-110.09C130.62,-101.16 93.03,-87.45 66.2,-77.66"/>
<polygon fill="#63b8ff" stroke="#63b8ff" points="67.44,-74.39 56.85,-74.25 65.05,-80.97 67.44,-74.39"/>
</a>
</g>
</g>
<!-- Node8&#45;&gt;Node4 -->
<g id="edge16_Node000008_Node000004" class="edge">
<title>Node8&#45;&gt;Node4</title>
<g id="a_edge16_Node000008_Node000004"><a xlink:title=" ">
<path fill="none" stroke="#63b8ff" d="M171.78,-110.33C165.02,-102.98 155.16,-92.26 146.81,-83.19"/>
<polygon fill="#63b8ff" stroke="#63b8ff" points="149.51,-80.96 140.17,-75.97 144.36,-85.7 149.51,-80.96"/>
</a>
</g>
</g>
<!-- Node9 -->
<g id="Node000009" class="node">
<title>Node9</title>
<g id="a_Node000009"><a xlink:title=" ">
<polygon fill="#e0e0e0" stroke="#999999" points="213.13,-74.5 168.63,-74.5 168.63,-55.25 213.13,-55.25 213.13,-74.5"/>
<text text-anchor="middle" x="190.88" y="-61" font-family="Helvetica,sans-Serif" font-size="10.00">cstdlib</text>
</a>
</g>
</g>
<!-- Node8&#45;&gt;Node9 -->
<g id="edge14_Node000008_Node000009" class="edge">
<title>Node8&#45;&gt;Node9</title>
<g id="a_edge14_Node000008_Node000009"><a xlink:title=" ">
<path fill="none" stroke="#63b8ff" d="M181.69,-110.33C183.05,-103.74 184.97,-94.46 186.7,-86.07"/>
<polygon fill="#63b8ff" stroke="#63b8ff" points="190.12,-86.84 188.71,-76.34 183.26,-85.43 190.12,-86.84"/>
</a>
</g>
</g>
<!-- Node8&#45;&gt;Node10 -->
<g id="edge15_Node000008_Node000010" class="edge">
<title>Node8&#45;&gt;Node10</title>
<g id="a_edge15_Node000008_Node000010"><a xlink:title=" ">
<path fill="none" stroke="#63b8ff" d="M206.34,-110.09C231.66,-101.45 270.11,-88.32 298.54,-78.62"/>
<polygon fill="#63b8ff" stroke="#63b8ff" points="299.52,-81.98 307.85,-75.44 297.26,-75.36 299.52,-81.98"/>
</a>
</g>
</g>
<!-- Node11&#45;&gt;Node10 -->
<g id="edge18_Node000011_Node000010" class="edge">
<title>Node11&#45;&gt;Node10</title>
<g id="a_edge18_Node000011_Node000010"><a xlink:title=" ">
<path fill="none" stroke="#63b8ff" d="M358.42,-110.33C354.92,-103.44 349.93,-93.59 345.53,-84.91"/>
<polygon fill="#63b8ff" stroke="#63b8ff" points="348.76,-83.55 341.12,-76.21 342.52,-86.71 348.76,-83.55"/>
</a>
</g>
</g>
</g>
</svg>
</svg>

<style type='text/css'>
<![CDATA[
[data-mouse-over-selected='false'] { opacity: 0.7; }
[data-mouse-over-selected='true']  { opacity: 1.0; }
]]>
</style>
<script type="application/ecmascript"><![CDATA[
document.addEventListener('DOMContentLoaded', (event) => {
  highlightEdges();
  highlightAdjacentNodes();
});
]]></script>
</svg>
