<?xml version="1.0" encoding="UTF-8" standalone="no"?>
<!DOCTYPE svg PUBLIC "-//W3C//DTD SVG 1.1//EN"
 "http://www.w3.org/Graphics/SVG/1.1/DTD/svg11.dtd">
<!-- Generated by graphviz version 4.0.0 (20220602.1335)
 -->
<!-- Title: ToolFingerprint.h Pages: 1 -->
<svg width="1287pt" height="140pt"
 viewBox="0.00 0.00 1287.00 140.00" xmlns="http://www.w3.org/2000/svg" xmlns:xlink="http://www.w3.org/1999/xlink">
<g id="graph0" class="graph" transform="scale(1 1) rotate(0) translate(4 136)">
<title>ToolFingerprint.h</title>
<polygon fill="white" stroke="transparent" points="-4,4 -4,-136 1283,-136 1283,4 -4,4"/>
<!-- Node1 -->
<g id="node1" class="node">
<title>Node1</title>
<g id="a_node1"><a xlink:title=" ">
<polygon fill="#bfbfbf" stroke="black" points="485,-112.5 485,-131.5 574,-131.5 574,-112.5 485,-112.5"/>
<text text-anchor="middle" x="529.5" y="-119.5" font-family="Helvetica,sans-Serif" font-size="10.00">ToolFingerprint.h</text>
</a>
</g>
</g>
<!-- Node2 -->
<g id="node2" class="node">
<title>Node2</title>
<g id="a_node2"><a xlink:href="a00254.xhtml" target="_top" xlink:title=" ">
<polygon fill="white" stroke="black" points="503,-56.5 503,-75.5 556,-75.5 556,-56.5 503,-56.5"/>
<text text-anchor="middle" x="529.5" y="-63.5" font-family="Helvetica,sans-Serif" font-size="10.00">AcaAll.h</text>
</a>
</g>
</g>
<!-- Node1&#45;&gt;Node2 -->
<g id="edge1" class="edge">
<title>Node1&#45;&gt;Node2</title>
<path fill="none" stroke="midnightblue" d="M529.5,-101.8C529.5,-92.91 529.5,-82.78 529.5,-75.75"/>
<polygon fill="midnightblue" stroke="midnightblue" points="526,-102.08 529.5,-112.08 533,-102.08 526,-102.08"/>
</g>
<!-- Node7 -->
<g id="node7" class="node">
<title>Node7</title>
<g id="a_node7"><a xlink:href="a00026.xhtml" target="_top" xlink:title=" ">
<polygon fill="white" stroke="black" points="0,-0.5 0,-19.5 119,-19.5 119,-0.5 0,-0.5"/>
<text text-anchor="middle" x="59.5" y="-7.5" font-family="Helvetica,sans-Serif" font-size="10.00">ComputeFingerprint.cpp</text>
</a>
</g>
</g>
<!-- Node1&#45;&gt;Node7 -->
<g id="edge12" class="edge">
<title>Node1&#45;&gt;Node7</title>
<path fill="none" stroke="midnightblue" d="M482.99,-110.12C389.49,-88.23 180.45,-39.31 95.97,-19.53"/>
<polygon fill="midnightblue" stroke="midnightblue" points="482.48,-113.59 493.01,-112.46 484.07,-106.77 482.48,-113.59"/>
</g>
<!-- Node13 -->
<g id="node13" class="node">
<title>Node13</title>
<g id="a_node13"><a xlink:href="a00089.xhtml" target="_top" xlink:title=" ">
<polygon fill="white" stroke="black" points="574,-56.5 574,-75.5 673,-75.5 673,-56.5 574,-56.5"/>
<text text-anchor="middle" x="623.5" y="-63.5" font-family="Helvetica,sans-Serif" font-size="10.00">ToolFingerprint.cpp</text>
</a>
</g>
</g>
<!-- Node1&#45;&gt;Node13 -->
<g id="edge13" class="edge">
<title>Node1&#45;&gt;Node13</title>
<path fill="none" stroke="midnightblue" d="M553.56,-107.18C570.86,-97.24 593.65,-84.15 608.43,-75.65"/>
<polygon fill="midnightblue" stroke="midnightblue" points="551.53,-104.31 544.6,-112.32 555.02,-110.38 551.53,-104.31"/>
</g>
<!-- Node3 -->
<g id="node3" class="node">
<title>Node3</title>
<g id="a_node3"><a xlink:href="a00122.xhtml" target="_top" xlink:title=" ">
<polygon fill="white" stroke="black" points="137,-0.5 137,-19.5 200,-19.5 200,-0.5 137,-0.5"/>
<text text-anchor="middle" x="168.5" y="-7.5" font-family="Helvetica,sans-Serif" font-size="10.00">AcaAll.cpp</text>
</a>
</g>
</g>
<!-- Node2&#45;&gt;Node3 -->
<g id="edge2" class="edge">
<title>Node2&#45;&gt;Node3</title>
<path fill="none" stroke="midnightblue" d="M492.78,-60.76C433.14,-53.67 311.59,-38.36 209.5,-20 206.49,-19.46 203.36,-18.85 200.24,-18.22"/>
<polygon fill="midnightblue" stroke="midnightblue" points="492.5,-64.25 502.84,-61.95 493.32,-57.3 492.5,-64.25"/>
</g>
<!-- Node4 -->
<g id="node4" class="node">
<title>Node4</title>
<g id="a_node4"><a xlink:href="a00020.xhtml" target="_top" xlink:title=" ">
<polygon fill="white" stroke="black" points="218,-0.5 218,-19.5 335,-19.5 335,-0.5 218,-0.5"/>
<text text-anchor="middle" x="276.5" y="-7.5" font-family="Helvetica,sans-Serif" font-size="10.00">ComputeBeatHisto.cpp</text>
</a>
</g>
</g>
<!-- Node2&#45;&gt;Node4 -->
<g id="edge3" class="edge">
<title>Node2&#45;&gt;Node4</title>
<path fill="none" stroke="midnightblue" d="M492.87,-57.18C445.92,-47.16 364.83,-29.85 316.37,-19.51"/>
<polygon fill="midnightblue" stroke="midnightblue" points="492.39,-60.66 502.9,-59.32 493.85,-53.81 492.39,-60.66"/>
</g>
<!-- Node5 -->
<g id="node5" class="node">
<title>Node5</title>
<g id="a_node5"><a xlink:href="a00032.xhtml" target="_top" xlink:title=" ">
<polygon fill="white" stroke="black" points="353.5,-0.5 353.5,-19.5 457.5,-19.5 457.5,-0.5 353.5,-0.5"/>
<text text-anchor="middle" x="405.5" y="-7.5" font-family="Helvetica,sans-Serif" font-size="10.00">ComputeChords.cpp</text>
</a>
</g>
</g>
<!-- Node2&#45;&gt;Node5 -->
<g id="edge4" class="edge">
<title>Node2&#45;&gt;Node5</title>
<path fill="none" stroke="midnightblue" d="M500.49,-52.37C477.27,-42.26 445.34,-28.35 425.06,-19.52"/>
<polygon fill="midnightblue" stroke="midnightblue" points="499.29,-55.66 509.85,-56.44 502.08,-49.24 499.29,-55.66"/>
</g>
<!-- Node6 -->
<g id="node6" class="node">
<title>Node6</title>
<g id="a_node6"><a xlink:href="a00002.xhtml" target="_top" xlink:title=" ">
<polygon fill="white" stroke="black" points="476,-0.5 476,-19.5 583,-19.5 583,-0.5 476,-0.5"/>
<text text-anchor="middle" x="529.5" y="-7.5" font-family="Helvetica,sans-Serif" font-size="10.00">ComputeFeature.cpp</text>
</a>
</g>
</g>
<!-- Node2&#45;&gt;Node6 -->
<g id="edge5" class="edge">
<title>Node2&#45;&gt;Node6</title>
<path fill="none" stroke="midnightblue" d="M529.5,-45.8C529.5,-36.91 529.5,-26.78 529.5,-19.75"/>
<polygon fill="midnightblue" stroke="midnightblue" points="526,-46.08 529.5,-56.08 533,-46.08 526,-46.08"/>
</g>
<!-- Node2&#45;&gt;Node7 -->
<g id="edge6" class="edge">
<title>Node2&#45;&gt;Node7</title>
<path fill="none" stroke="midnightblue" d="M492.56,-61.08C421.84,-53.52 262.45,-36.25 128.5,-20 125.5,-19.64 122.43,-19.26 119.33,-18.87"/>
<polygon fill="midnightblue" stroke="midnightblue" points="492.42,-64.58 502.73,-62.16 493.16,-57.62 492.42,-64.58"/>
</g>
<!-- Node8 -->
<g id="node8" class="node">
<title>Node8</title>
<g id="a_node8"><a xlink:href="a00029.xhtml" target="_top" xlink:title=" ">
<polygon fill="white" stroke="black" points="601.5,-0.5 601.5,-19.5 691.5,-19.5 691.5,-0.5 601.5,-0.5"/>
<text text-anchor="middle" x="646.5" y="-7.5" font-family="Helvetica,sans-Serif" font-size="10.00">ComputeKey.cpp</text>
</a>
</g>
</g>
<!-- Node2&#45;&gt;Node8 -->
<g id="edge7" class="edge">
<title>Node2&#45;&gt;Node8</title>
<path fill="none" stroke="midnightblue" d="M557.16,-52.23C579.05,-42.13 609,-28.31 628.05,-19.52"/>
<polygon fill="midnightblue" stroke="midnightblue" points="555.65,-49.08 548.04,-56.44 558.59,-55.43 555.65,-49.08"/>
</g>
<!-- Node9 -->
<g id="node9" class="node">
<title>Node9</title>
<g id="a_node9"><a xlink:href="a00035.xhtml" target="_top" xlink:title=" ">
<polygon fill="white" stroke="black" points="710,-0.5 710,-19.5 855,-19.5 855,-0.5 710,-0.5"/>
<text text-anchor="middle" x="782.5" y="-7.5" font-family="Helvetica,sans-Serif" font-size="10.00">ComputeMelSpectrogram.cpp</text>
</a>
</g>
</g>
<!-- Node2&#45;&gt;Node9 -->
<g id="edge8" class="edge">
<title>Node2&#45;&gt;Node9</title>
<path fill="none" stroke="midnightblue" d="M566.33,-55.88C632.05,-40.96 696.98,-27.8 738.75,-19.53"/>
<polygon fill="midnightblue" stroke="midnightblue" points="565.18,-52.56 556.21,-58.2 566.74,-59.38 565.18,-52.56"/>
</g>
<!-- Node10 -->
<g id="node10" class="node">
<title>Node10</title>
<g id="a_node10"><a xlink:href="a00017.xhtml" target="_top" xlink:title=" ">
<polygon fill="white" stroke="black" points="873.5,-0.5 873.5,-19.5 1017.5,-19.5 1017.5,-0.5 873.5,-0.5"/>
<text text-anchor="middle" x="945.5" y="-7.5" font-family="Helvetica,sans-Serif" font-size="10.00">ComputeNoveltyFunction.cpp</text>
</a>
</g>
</g>
<!-- Node2&#45;&gt;Node10 -->
<g id="edge9" class="edge">
<title>Node2&#45;&gt;Node10</title>
<path fill="none" stroke="midnightblue" d="M566.3,-56.21C619.38,-47.81 778.47,-29.69 873.11,-19.07"/>
<polygon fill="midnightblue" stroke="midnightblue" points="565.42,-52.81 556.15,-57.94 566.6,-59.71 565.42,-52.81"/>
</g>
<!-- Node11 -->
<g id="node11" class="node">
<title>Node11</title>
<g id="a_node11"><a xlink:href="a00005.xhtml" target="_top" xlink:title=" ">
<polygon fill="white" stroke="black" points="1035.5,-0.5 1035.5,-19.5 1131.5,-19.5 1131.5,-0.5 1035.5,-0.5"/>
<text text-anchor="middle" x="1083.5" y="-7.5" font-family="Helvetica,sans-Serif" font-size="10.00">ComputePitch.cpp</text>
</a>
</g>
</g>
<!-- Node2&#45;&gt;Node11 -->
<g id="edge10" class="edge">
<title>Node2&#45;&gt;Node11</title>
<path fill="none" stroke="midnightblue" d="M566.27,-56.17C770.12,-23.63 825.69,-43.66 1026.5,-20 1029.39,-19.66 1032.35,-19.28 1035.33,-18.88"/>
<polygon fill="midnightblue" stroke="midnightblue" points="565.44,-52.76 556.13,-57.82 566.56,-59.67 565.44,-52.76"/>
</g>
<!-- Node12 -->
<g id="node12" class="node">
<title>Node12</title>
<g id="a_node12"><a xlink:href="a00023.xhtml" target="_top" xlink:title=" ">
<polygon fill="white" stroke="black" points="1150,-0.5 1150,-19.5 1279,-19.5 1279,-0.5 1150,-0.5"/>
<text text-anchor="middle" x="1214.5" y="-7.5" font-family="Helvetica,sans-Serif" font-size="10.00">ComputeSpectrogram.cpp</text>
</a>
</g>
</g>
<!-- Node2&#45;&gt;Node12 -->
<g id="edge11" class="edge">
<title>Node2&#45;&gt;Node12</title>
<path fill="none" stroke="midnightblue" d="M566.03,-56.24C820.27,-17.45 888.76,-43.17 1140.5,-20 1143.59,-19.72 1146.76,-19.4 1149.95,-19.08"/>
<polygon fill="midnightblue" stroke="midnightblue" points="565.47,-52.78 556.13,-57.77 566.54,-59.7 565.47,-52.78"/>
</g>
</g>
</svg>
