<?xml version="1.0" encoding="UTF-8" standalone="no"?>
<!DOCTYPE svg PUBLIC "-//W3C//DTD SVG 1.1//EN"
 "http://www.w3.org/Graphics/SVG/1.1/DTD/svg11.dtd">
<!-- Generated by graphviz version 4.0.0 (20220602.1335)
 -->
<!-- Title: LaszloFft::realfft_packed Pages: 1 -->
<svg width="241pt" height="104pt"
 viewBox="0.00 0.00 241.00 104.00" xmlns="http://www.w3.org/2000/svg" xmlns:xlink="http://www.w3.org/1999/xlink">
<g id="graph0" class="graph" transform="scale(1 1) rotate(0) translate(4 100)">
<title>LaszloFft::realfft_packed</title>
<polygon fill="white" stroke="transparent" points="-4,4 -4,-100 237,-100 237,4 -4,4"/>
<!-- Node1 -->
<g id="node1" class="node">
<title>Node1</title>
<g id="a_node1"><a xlink:title=" ">
<polygon fill="#bfbfbf" stroke="black" points="0,-33 0,-63 86,-63 86,-33 0,-33"/>
<text text-anchor="start" x="8" y="-51" font-family="Helvetica,sans-Serif" font-size="10.00">LaszloFft::realfft</text>
<text text-anchor="middle" x="43" y="-40" font-family="Helvetica,sans-Serif" font-size="10.00">_packed</text>
</a>
</g>
</g>
<!-- Node2 -->
<g id="node2" class="node">
<title>Node2</title>
<g id="a_node2"><a xlink:href="a00284.xhtml#a8982b38698e629094bb4c2b85e316a17" target="_top" xlink:title=" ">
<polygon fill="white" stroke="black" points="122,-76.5 122,-95.5 233,-95.5 233,-76.5 122,-76.5"/>
<text text-anchor="middle" x="177.5" y="-83.5" font-family="Helvetica,sans-Serif" font-size="10.00">LaszloFft::dif_butterfly</text>
</a>
</g>
</g>
<!-- Node1&#45;&gt;Node2 -->
<g id="edge1" class="edge">
<title>Node1&#45;&gt;Node2</title>
<path fill="none" stroke="midnightblue" d="M86.29,-60.13C101.32,-64.44 118.26,-69.3 133.37,-73.63"/>
<polygon fill="midnightblue" stroke="midnightblue" points="132.41,-77 142.99,-76.39 134.34,-70.27 132.41,-77"/>
</g>
<!-- Node3 -->
<g id="node3" class="node">
<title>Node3</title>
<g id="a_node3"><a xlink:href="a00284.xhtml#a07027dd91adb6e5c0446e87f6aee361c" target="_top" xlink:title=" ">
<polygon fill="white" stroke="black" points="133,-38.5 133,-57.5 222,-57.5 222,-38.5 133,-38.5"/>
<text text-anchor="middle" x="177.5" y="-45.5" font-family="Helvetica,sans-Serif" font-size="10.00">LaszloFft::realize</text>
</a>
</g>
</g>
<!-- Node1&#45;&gt;Node3 -->
<g id="edge2" class="edge">
<title>Node1&#45;&gt;Node3</title>
<path fill="none" stroke="midnightblue" d="M86.29,-48C97.89,-48 110.61,-48 122.76,-48"/>
<polygon fill="midnightblue" stroke="midnightblue" points="122.79,-51.5 132.79,-48 122.79,-44.5 122.79,-51.5"/>
</g>
<!-- Node4 -->
<g id="node4" class="node">
<title>Node4</title>
<g id="a_node4"><a xlink:href="a00284.xhtml#a0eef514123b7d48c625ea972d6f379b6" target="_top" xlink:title=" ">
<polygon fill="white" stroke="black" points="127.5,-0.5 127.5,-19.5 227.5,-19.5 227.5,-0.5 127.5,-0.5"/>
<text text-anchor="middle" x="177.5" y="-7.5" font-family="Helvetica,sans-Serif" font-size="10.00">LaszloFft::unshuffle</text>
</a>
</g>
</g>
<!-- Node1&#45;&gt;Node4 -->
<g id="edge3" class="edge">
<title>Node1&#45;&gt;Node4</title>
<path fill="none" stroke="midnightblue" d="M86.29,-35.87C101.32,-31.56 118.26,-26.7 133.37,-22.37"/>
<polygon fill="midnightblue" stroke="midnightblue" points="134.34,-25.73 142.99,-19.61 132.41,-19 134.34,-25.73"/>
</g>
</g>
</svg>
