<?xml version="1.0" encoding="UTF-8" standalone="no"?>
<!DOCTYPE svg PUBLIC "-//W3C//DTD SVG 1.1//EN"
 "http://www.w3.org/Graphics/SVG/1.1/DTD/svg11.dtd">
<!-- Generated by graphviz version 6.0.1 (20220911.1526)
 -->
<!-- Title: CFeatureTimeMaxAcf::compFeature Pages: 1 -->
<!--zoomable 299 -->
<svg id="main" version="1.1" xmlns="http://www.w3.org/2000/svg" xmlns:xlink="http://www.w3.org/1999/xlink" xml:space="preserve" onload="init(evt)">
<style type="text/css"><![CDATA[
.edge:hover path { stroke: red; }
.edge:hover polygon { stroke: red; fill: red; }
]]></style>
<script type="text/javascript"><![CDATA[
var edges = document.getElementsByTagName('g');
if (edges && edges.length) {
  for (var i=0;i<edges.length;i++) {
    if (edges[i].id.substr(0,4)=='edge') {
      edges[i].setAttribute('class','edge');
    }
  }
}
]]></script>
        <defs>
                <circle id="rim" cx="0" cy="0" r="7"/>
                <circle id="rim2" cx="0" cy="0" r="3.5"/>
                <g id="zoomPlus">
                        <use xlink:href="#rim" fill="#404040">
                                <set attributeName="fill" to="#808080" begin="zoomplus.mouseover" end="zoomplus.mouseout"/>
                        </use>
                        <path d="M-4,0h8M0,-4v8" fill="none" stroke="white" stroke-width="1.5" pointer-events="none"/>
                </g>
                <g id="zoomMin">
                        <use xlink:href="#rim" fill="#404040">
                                <set attributeName="fill" to="#808080" begin="zoomminus.mouseover" end="zoomminus.mouseout"/>
                        </use>
                        <path d="M-4,0h8" fill="none" stroke="white" stroke-width="1.5" pointer-events="none"/>
                </g>
                <g id="dirArrow">
                        <path fill="none" stroke="white" stroke-width="1.5" d="M0,-3.0v7 M-2.5,-0.5L0,-3.0L2.5,-0.5"/>
                </g>
               <g id="resetDef">
                       <use xlink:href="#rim2" fill="#404040">
                               <set attributeName="fill" to="#808080" begin="reset.mouseover" end="reset.mouseout"/>
                       </use>
               </g>
        </defs>

<script type="text/javascript">
var viewWidth = 504;
var viewHeight = 299;
var sectionId = 'dynsection-4';
</script>
<script xlink:href="svgpan.js"/>
<svg id="graph" class="graph">
<g id="viewport">
<title>CFeatureTimeMaxAcf::compFeature</title>
<!-- Node1 -->
<g id="node1" class="node">
<title>Node1</title>
<g id="a_node1"><a xlink:title=" ">
<polygon fill="#999999" stroke="#666666" points="111,-174.5 0,-174.5 0,-144.5 111,-144.5 111,-174.5"/>
<text text-anchor="start" x="8" y="-162.5" font-family="Helvetica,sans-Serif" font-size="10.00">CFeatureTimeMaxAcf</text>
<text text-anchor="middle" x="55.5" y="-151.5" font-family="Helvetica,sans-Serif" font-size="10.00">::compFeature</text>
</a>
</g>
</g>
<!-- Node2 -->
<g id="node2" class="node">
<title>Node2</title>
<g id="a_node2"><a xlink:href="a00546.xhtml#a63f5ef7a9ef502fb8dd393824265d967" target="_top" xlink:title=" ">
<polygon fill="white" stroke="#666666" points="232,-169 150,-169 150,-150 232,-150 232,-169"/>
<text text-anchor="middle" x="191" y="-157" font-family="Helvetica,sans-Serif" font-size="10.00">CCcf::compCcf</text>
</a>
</g>
</g>
<!-- Node1&#45;&gt;Node2 -->
<g id="edge1" class="edge">
<title>Node1&#45;&gt;Node2</title>
<path fill="none" stroke="#63b8ff" d="M111.18,-159.5C120.6,-159.5 130.35,-159.5 139.65,-159.5"/>
<polygon fill="#63b8ff" stroke="#63b8ff" points="139.91,-163 149.91,-159.5 139.91,-156 139.91,-163"/>
</g>
<!-- Node14 -->
<g id="node14" class="node">
<title>Node14</title>
<g id="a_node14"><a xlink:href="a00546.xhtml#a02c0e23cbcecab5af2fb20a25160321a" target="_top" xlink:title=" ">
<polygon fill="white" stroke="#666666" points="226.5,-262 155.5,-262 155.5,-243 226.5,-243 226.5,-262"/>
<text text-anchor="middle" x="191" y="-250" font-family="Helvetica,sans-Serif" font-size="10.00">CCcf::getCcf</text>
</a>
</g>
</g>
<!-- Node1&#45;&gt;Node14 -->
<g id="edge17" class="edge">
<title>Node1&#45;&gt;Node14</title>
<path fill="none" stroke="#63b8ff" d="M78.25,-174.65C102.86,-191.79 142.74,-219.58 167.62,-236.91"/>
<polygon fill="#63b8ff" stroke="#63b8ff" points="165.84,-239.93 176.04,-242.78 169.84,-234.19 165.84,-239.93"/>
</g>
<!-- Node15 -->
<g id="node15" class="node">
<title>Node15</title>
<g id="a_node15"><a xlink:href="a00502.xhtml#a9f5be871090bc5a64a7732cebfb4f8ec" target="_top" xlink:title=" ">
<polygon fill="white" stroke="#666666" points="235,-76 147,-76 147,-57 235,-57 235,-76"/>
<text text-anchor="middle" x="191" y="-64" font-family="Helvetica,sans-Serif" font-size="10.00">CVector::getMax</text>
</a>
</g>
</g>
<!-- Node1&#45;&gt;Node15 -->
<g id="edge19" class="edge">
<title>Node1&#45;&gt;Node15</title>
<path fill="none" stroke="#63b8ff" d="M78.25,-144.35C102.86,-127.21 142.74,-99.42 167.62,-82.09"/>
<polygon fill="#63b8ff" stroke="#63b8ff" points="169.84,-84.81 176.04,-76.22 165.84,-79.07 169.84,-84.81"/>
</g>
<!-- Node3 -->
<g id="node3" class="node">
<title>Node3</title>
<g id="a_node3"><a xlink:href="a00474.xhtml#ab5c17fe5c368048a3393818735dc9b8a" target="_top" xlink:title=" ">
<polygon fill="white" stroke="#666666" points="359,-169 283,-169 283,-150 359,-150 359,-169"/>
<text text-anchor="middle" x="321" y="-157" font-family="Helvetica,sans-Serif" font-size="10.00">CFft::compFft</text>
</a>
</g>
</g>
<!-- Node2&#45;&gt;Node3 -->
<g id="edge2" class="edge">
<title>Node2&#45;&gt;Node3</title>
<path fill="none" stroke="#63b8ff" d="M232.15,-159.5C244.88,-159.5 259.07,-159.5 272.28,-159.5"/>
<polygon fill="#63b8ff" stroke="#63b8ff" points="272.61,-163 282.61,-159.5 272.61,-156 272.61,-163"/>
</g>
<!-- Node4 -->
<g id="node4" class="node">
<title>Node4</title>
<g id="a_node4"><a xlink:href="a00502.xhtml#ad7c5cba73e439adac77778f61c9418f0" target="_top" xlink:title=" ">
<polygon fill="white" stroke="#666666" points="490,-273 413,-273 413,-254 490,-254 490,-273"/>
<text text-anchor="middle" x="451.5" y="-261" font-family="Helvetica,sans-Serif" font-size="10.00">CVector::copy</text>
</a>
</g>
</g>
<!-- Node2&#45;&gt;Node4 -->
<g id="edge13" class="edge">
<title>Node2&#45;&gt;Node4</title>
<path fill="none" stroke="#63b8ff" d="M196.71,-169.07C207.01,-188.82 233.68,-233.83 271,-252.5 311.96,-273 364.93,-273.61 402.68,-270.4"/>
<polygon fill="#63b8ff" stroke="#63b8ff" points="403.29,-273.86 412.91,-269.41 402.62,-266.89 403.29,-273.86"/>
</g>
<!-- Node8 -->
<g id="node8" class="node">
<title>Node8</title>
<g id="a_node8"><a xlink:href="a00474.xhtml#a5571d9bab4efdebd3bcf0875dffb847c" target="_top" xlink:title=" ">
<polygon fill="white" stroke="#666666" points="365.5,-132 276.5,-132 276.5,-113 365.5,-113 365.5,-132"/>
<text text-anchor="middle" x="321" y="-120" font-family="Helvetica,sans-Serif" font-size="10.00">CFft::compInvFft</text>
</a>
</g>
</g>
<!-- Node2&#45;&gt;Node8 -->
<g id="edge7" class="edge">
<title>Node2&#45;&gt;Node8</title>
<path fill="none" stroke="#63b8ff" d="M224.96,-149.97C240.81,-145.39 260.02,-139.84 277,-134.93"/>
<polygon fill="#63b8ff" stroke="#63b8ff" points="278.07,-138.26 286.7,-132.12 276.12,-131.54 278.07,-138.26"/>
</g>
<!-- Node10 -->
<g id="node10" class="node">
<title>Node10</title>
<g id="a_node10"><a xlink:href="a00474.xhtml#a7da3b328794cae1332d73357e6fa337d" target="_top" xlink:title=" ">
<polygon fill="white" stroke="#666666" points="366,-95 276,-95 276,-76 366,-76 366,-95"/>
<text text-anchor="middle" x="321" y="-83" font-family="Helvetica,sans-Serif" font-size="10.00">CFft::conjugate_I</text>
</a>
</g>
</g>
<!-- Node2&#45;&gt;Node10 -->
<g id="edge11" class="edge">
<title>Node2&#45;&gt;Node10</title>
<path fill="none" stroke="#63b8ff" d="M203.74,-149.98C218.69,-138.19 245.62,-118 271,-104.5 274.72,-102.52 278.68,-100.64 282.69,-98.89"/>
<polygon fill="#63b8ff" stroke="#63b8ff" points="284.11,-102.09 292.02,-95.03 281.44,-95.62 284.11,-102.09"/>
</g>
<!-- Node11 -->
<g id="node11" class="node">
<title>Node11</title>
<g id="a_node11"><a xlink:href="a00502.xhtml#a9811f50434dd058d201290b2dc98bfcd" target="_top" xlink:title=" ">
<polygon fill="white" stroke="#666666" points="495,-57 408,-57 408,-38 495,-38 495,-57"/>
<text text-anchor="middle" x="451.5" y="-45" font-family="Helvetica,sans-Serif" font-size="10.00">CVector::mulC_I</text>
</a>
</g>
</g>
<!-- Node2&#45;&gt;Node11 -->
<g id="edge14" class="edge">
<title>Node2&#45;&gt;Node11</title>
<path fill="none" stroke="#63b8ff" d="M196.97,-149.88C207.59,-130.47 234.52,-86.78 271,-67.5 309.9,-46.95 360.08,-42.91 397.49,-43.47"/>
<polygon fill="#63b8ff" stroke="#63b8ff" points="397.59,-46.97 407.68,-43.74 397.78,-39.97 397.59,-46.97"/>
</g>
<!-- Node12 -->
<g id="node12" class="node">
<title>Node12</title>
<g id="a_node12"><a xlink:href="a00502.xhtml#a269d316eeb6000aac4f57ade32c83127" target="_top" xlink:title=" ">
<polygon fill="white" stroke="#666666" points="371,-243 271,-243 271,-224 371,-224 371,-243"/>
<text text-anchor="middle" x="321" y="-231" font-family="Helvetica,sans-Serif" font-size="10.00">CVector::mulScalar</text>
</a>
</g>
</g>
<!-- Node2&#45;&gt;Node12 -->
<g id="edge15" class="edge">
<title>Node2&#45;&gt;Node12</title>
<path fill="none" stroke="#63b8ff" d="M203.41,-169.07C218.23,-181.14 245.26,-201.96 271,-215.5 274.1,-217.13 277.38,-218.68 280.72,-220.14"/>
<polygon fill="#63b8ff" stroke="#63b8ff" points="279.59,-223.45 290.17,-223.98 282.23,-216.97 279.59,-223.45"/>
</g>
<!-- Node13 -->
<g id="node13" class="node">
<title>Node13</title>
<g id="a_node13"><a xlink:href="a00474.xhtml#afc6ea03116da2bb95596839f8491e3d1" target="_top" xlink:title=" ">
<polygon fill="white" stroke="#666666" points="361.5,-206 280.5,-206 280.5,-187 361.5,-187 361.5,-206"/>
<text text-anchor="middle" x="321" y="-194" font-family="Helvetica,sans-Serif" font-size="10.00">CFft::multiply_I</text>
</a>
</g>
</g>
<!-- Node2&#45;&gt;Node13 -->
<g id="edge16" class="edge">
<title>Node2&#45;&gt;Node13</title>
<path fill="none" stroke="#63b8ff" d="M224.96,-169.03C240.81,-173.61 260.02,-179.16 277,-184.07"/>
<polygon fill="#63b8ff" stroke="#63b8ff" points="276.12,-187.46 286.7,-186.88 278.07,-180.74 276.12,-187.46"/>
</g>
<!-- Node3&#45;&gt;Node4 -->
<g id="edge3" class="edge">
<title>Node3&#45;&gt;Node4</title>
<path fill="none" stroke="#63b8ff" d="M355.53,-169.09C361.05,-171.6 366.45,-174.7 371,-178.5 394.57,-198.2 385.18,-215.88 407,-237.5 411.14,-241.6 416.05,-245.32 421.06,-248.58"/>
<polygon fill="#63b8ff" stroke="#63b8ff" points="419.64,-251.82 430.02,-253.94 423.23,-245.81 419.64,-251.82"/>
</g>
<!-- Node5 -->
<g id="node5" class="node">
<title>Node5</title>
<g id="a_node5"><a xlink:href="a00502.xhtml#a5fb59528a3f5d3968f988d550b270898" target="_top" xlink:title=" ">
<polygon fill="white" stroke="#666666" points="491.5,-143 411.5,-143 411.5,-124 491.5,-124 491.5,-143"/>
<text text-anchor="middle" x="451.5" y="-131" font-family="Helvetica,sans-Serif" font-size="10.00">CVector::mul_I</text>
</a>
</g>
</g>
<!-- Node3&#45;&gt;Node5 -->
<g id="edge4" class="edge">
<title>Node3&#45;&gt;Node5</title>
<path fill="none" stroke="#63b8ff" d="M359.17,-151.98C372.29,-149.32 387.26,-146.3 401.22,-143.47"/>
<polygon fill="#63b8ff" stroke="#63b8ff" points="402.07,-146.87 411.18,-141.46 400.68,-140.01 402.07,-146.87"/>
</g>
<!-- Node6 -->
<g id="node6" class="node">
<title>Node6</title>
<g id="a_node6"><a xlink:href="a00305.xhtml#a32fc71031e721d003fd1dc07f771351d" target="_top" xlink:title=" ">
<polygon fill="white" stroke="#666666" points="494.5,-228.5 408.5,-228.5 408.5,-198.5 494.5,-198.5 494.5,-228.5"/>
<text text-anchor="start" x="416.5" y="-216.5" font-family="Helvetica,sans-Serif" font-size="10.00">LaszloFft::realfft</text>
<text text-anchor="middle" x="451.5" y="-205.5" font-family="Helvetica,sans-Serif" font-size="10.00">_split</text>
</a>
</g>
</g>
<!-- Node3&#45;&gt;Node6 -->
<g id="edge5" class="edge">
<title>Node3&#45;&gt;Node6</title>
<path fill="none" stroke="#63b8ff" d="M347.27,-169.05C354.92,-172.01 363.33,-175.33 371,-178.5 382.98,-183.46 395.89,-189.04 407.74,-194.26"/>
<polygon fill="#63b8ff" stroke="#63b8ff" points="406.43,-197.5 416.99,-198.35 409.26,-191.1 406.43,-197.5"/>
</g>
<!-- Node7 -->
<g id="node7" class="node">
<title>Node7</title>
<g id="a_node7"><a xlink:href="a00502.xhtml#a6dbb3f9f480568b60f7fe50090d20003" target="_top" xlink:title=" ">
<polygon fill="white" stroke="#666666" points="496,-180 407,-180 407,-161 496,-161 496,-180"/>
<text text-anchor="middle" x="451.5" y="-168" font-family="Helvetica,sans-Serif" font-size="10.00">CVector::setZero</text>
</a>
</g>
</g>
<!-- Node3&#45;&gt;Node7 -->
<g id="edge6" class="edge">
<title>Node3&#45;&gt;Node7</title>
<path fill="none" stroke="#63b8ff" d="M359.17,-162.68C370.75,-163.67 383.77,-164.79 396.27,-165.86"/>
<polygon fill="#63b8ff" stroke="#63b8ff" points="396.34,-169.38 406.6,-166.74 396.94,-162.4 396.34,-169.38"/>
</g>
<!-- Node8&#45;&gt;Node4 -->
<g id="edge8" class="edge">
<title>Node8&#45;&gt;Node4</title>
<path fill="none" stroke="#63b8ff" d="M357.42,-132.01C362.41,-134.5 367.15,-137.61 371,-141.5 403.04,-173.9 377.8,-202.51 407,-237.5 410.44,-241.62 414.7,-245.25 419.2,-248.39"/>
<polygon fill="#63b8ff" stroke="#63b8ff" points="417.66,-251.55 428.01,-253.83 421.34,-245.59 417.66,-251.55"/>
</g>
<!-- Node8&#45;&gt;Node5 -->
<g id="edge10" class="edge">
<title>Node8&#45;&gt;Node5</title>
<path fill="none" stroke="#63b8ff" d="M365.5,-126.22C376.99,-127.21 389.47,-128.28 401.24,-129.28"/>
<polygon fill="#63b8ff" stroke="#63b8ff" points="401.09,-132.78 411.36,-130.15 401.69,-125.81 401.09,-132.78"/>
</g>
<!-- Node9 -->
<g id="node9" class="node">
<title>Node9</title>
<g id="a_node9"><a xlink:href="a00305.xhtml#a3597bc1b9aa8e068d7313a72c4e51eef" target="_top" xlink:title=" ">
<polygon fill="white" stroke="#666666" points="495.5,-105.5 407.5,-105.5 407.5,-75.5 495.5,-75.5 495.5,-105.5"/>
<text text-anchor="start" x="415.5" y="-93.5" font-family="Helvetica,sans-Serif" font-size="10.00">LaszloFft::irealfft</text>
<text text-anchor="middle" x="451.5" y="-82.5" font-family="Helvetica,sans-Serif" font-size="10.00">_split</text>
</a>
</g>
</g>
<!-- Node8&#45;&gt;Node9 -->
<g id="edge9" class="edge">
<title>Node8&#45;&gt;Node9</title>
<path fill="none" stroke="#63b8ff" d="M360.21,-112.99C371.88,-110.08 384.94,-106.83 397.41,-103.72"/>
<polygon fill="#63b8ff" stroke="#63b8ff" points="398.4,-107.08 407.26,-101.27 396.71,-100.29 398.4,-107.08"/>
</g>
<!-- Node10&#45;&gt;Node11 -->
<g id="edge12" class="edge">
<title>Node10&#45;&gt;Node11</title>
<path fill="none" stroke="#63b8ff" d="M354.43,-75.91C370.71,-71.1 390.64,-65.2 408.12,-60.03"/>
<polygon fill="#63b8ff" stroke="#63b8ff" points="409.49,-63.28 418.08,-57.09 407.5,-56.57 409.49,-63.28"/>
</g>
<!-- Node14&#45;&gt;Node4 -->
<g id="edge18" class="edge">
<title>Node14&#45;&gt;Node4</title>
<path fill="none" stroke="#63b8ff" d="M209.25,-262.06C224.84,-270.12 248.7,-281.03 271,-285.5 314.58,-294.24 326.96,-291.48 371,-285.5 385.02,-283.6 400.06,-279.88 413.25,-276.04"/>
<polygon fill="#63b8ff" stroke="#63b8ff" points="414.37,-279.36 422.92,-273.11 412.34,-272.66 414.37,-279.36"/>
</g>
<!-- Node16 -->
<g id="node16" class="node">
<title>Node16</title>
<g id="a_node16"><a xlink:href="a00502.xhtml#a34a5c0abd80cd982df8a8bae7cbcea19" target="_top" xlink:title=" ">
<polygon fill="white" stroke="#666666" points="365.5,-19 276.5,-19 276.5,0 365.5,0 365.5,-19"/>
<text text-anchor="middle" x="321" y="-7" font-family="Helvetica,sans-Serif" font-size="10.00">CVector::findMax</text>
</a>
</g>
</g>
<!-- Node15&#45;&gt;Node16 -->
<g id="edge20" class="edge">
<title>Node15&#45;&gt;Node16</title>
<path fill="none" stroke="#63b8ff" d="M213.42,-56.96C234.19,-47.71 265.9,-33.59 289.34,-23.15"/>
<polygon fill="#63b8ff" stroke="#63b8ff" points="290.79,-26.34 298.51,-19.07 287.95,-19.94 290.79,-26.34"/>
</g>
</g>
</svg>
        <g id="navigator" transform="translate(0 0)" fill="#404254">
                <rect fill="#f2f5e9" fill-opacity="0.5" stroke="#606060" stroke-width=".5" x="0" y="0" width="60" height="60"/>
                <use id="zoomplus" xlink:href="#zoomPlus" x="17" y="9" onmousedown="handleZoom(evt,'in')"/>
                <use id="zoomminus" xlink:href="#zoomMin" x="42" y="9" onmousedown="handleZoom(evt,'out')"/>
                <use id="reset" xlink:href="#resetDef" x="30" y="36" onmousedown="handleReset()"/>
                <g id="arrowUp" xlink:href="#dirArrow" transform="translate(30 24)" onmousedown="handlePan(0,-1)">
                  <use xlink:href="#rim" fill="#404040">
                        <set attributeName="fill" to="#808080" begin="arrowUp.mouseover" end="arrowUp.mouseout"/>
                  </use>
                  <path fill="none" stroke="white" stroke-width="1.5" d="M0,-3.0v7 M-2.5,-0.5L0,-3.0L2.5,-0.5"/>
                </g>
                <g id="arrowRight" xlink:href="#dirArrow" transform="rotate(90) translate(36 -43)" onmousedown="handlePan(1,0)">
                  <use xlink:href="#rim" fill="#404040">
                        <set attributeName="fill" to="#808080" begin="arrowRight.mouseover" end="arrowRight.mouseout"/>
                  </use>
                  <path fill="none" stroke="white" stroke-width="1.5" d="M0,-3.0v7 M-2.5,-0.5L0,-3.0L2.5,-0.5"/>
                </g>
                <g id="arrowDown" xlink:href="#dirArrow" transform="rotate(180) translate(-30 -48)" onmousedown="handlePan(0,1)">
                  <use xlink:href="#rim" fill="#404040">
                        <set attributeName="fill" to="#808080" begin="arrowDown.mouseover" end="arrowDown.mouseout"/>
                  </use>
                  <path fill="none" stroke="white" stroke-width="1.5" d="M0,-3.0v7 M-2.5,-0.5L0,-3.0L2.5,-0.5"/>
                </g>
                <g id="arrowLeft" xlink:href="#dirArrow" transform="rotate(270) translate(-36 17)" onmousedown="handlePan(-1,0)">
                  <use xlink:href="#rim" fill="#404040">
                        <set attributeName="fill" to="#808080" begin="arrowLeft.mouseover" end="arrowLeft.mouseout"/>
                  </use>
                  <path fill="none" stroke="white" stroke-width="1.5" d="M0,-3.0v7 M-2.5,-0.5L0,-3.0L2.5,-0.5"/>
                </g>
        </g>
        <svg viewBox="0 0 15 15" width="100%" height="30px" preserveAspectRatio="xMaxYMin meet">
         <g id="arrow_out" transform="scale(0.3 0.3)">
          <a xlink:href="a00350_a9edc446602d49a15cf4c978289e2094a_cgraph_org.svg" target="_base">
           <rect id="button" ry="5" rx="5" y="6" x="6" height="38" width="38"
                fill="#f2f5e9" fill-opacity="0.5" stroke="#606060" stroke-width="1.0"/>
           <path id="arrow"
             d="M 11.500037,31.436501 C 11.940474,20.09759 22.043105,11.32322 32.158766,21.979434 L 37.068811,17.246167 C 37.068811,17.246167 37.088388,32 37.088388,32 L 22.160133,31.978069 C 22.160133,31.978069 26.997745,27.140456 26.997745,27.140456 C 18.528582,18.264221 13.291696,25.230495 11.500037,31.436501 z"
             style="fill:#404040;"/>
          </a>
         </g>
        </svg>
</svg>
