<?xml version="1.0" encoding="UTF-8" standalone="no"?>
<!DOCTYPE svg PUBLIC "-//W3C//DTD SVG 1.1//EN"
 "http://www.w3.org/Graphics/SVG/1.1/DTD/svg11.dtd">
<!-- Generated by graphviz version 4.0.0 (20220602.1335)
 -->
<!-- Title: CFeatureSpectralMfccs::deleteDctMat_ Pages: 1 -->
<svg width="607pt" height="113pt"
 viewBox="0.00 0.00 607.00 113.00" xmlns="http://www.w3.org/2000/svg" xmlns:xlink="http://www.w3.org/1999/xlink">
<g id="graph0" class="graph" transform="scale(1 1) rotate(0) translate(4 109)">
<title>CFeatureSpectralMfccs::deleteDctMat_</title>
<polygon fill="white" stroke="transparent" points="-4,4 -4,-109 603,-109 603,4 -4,4"/>
<!-- Node1 -->
<g id="node1" class="node">
<title>Node1</title>
<g id="a_node1"><a xlink:title=" ">
<polygon fill="#bfbfbf" stroke="black" points="480,-24.5 480,-54.5 599,-54.5 599,-24.5 480,-24.5"/>
<text text-anchor="start" x="488" y="-42.5" font-family="Helvetica,sans-Serif" font-size="10.00">CFeatureSpectralMfccs</text>
<text text-anchor="middle" x="539.5" y="-31.5" font-family="Helvetica,sans-Serif" font-size="10.00">::deleteDctMat_</text>
</a>
</g>
</g>
<!-- Node2 -->
<g id="node2" class="node">
<title>Node2</title>
<g id="a_node2"><a xlink:href="a00342.xhtml#a939a14f9a0c6b6a7ac974b2899b57e95" target="_top" xlink:title=" ">
<polygon fill="white" stroke="black" points="320,-49.5 320,-79.5 439,-79.5 439,-49.5 320,-49.5"/>
<text text-anchor="start" x="328" y="-67.5" font-family="Helvetica,sans-Serif" font-size="10.00">CFeatureSpectralMfccs</text>
<text text-anchor="middle" x="379.5" y="-56.5" font-family="Helvetica,sans-Serif" font-size="10.00">::allocDctMat_</text>
</a>
</g>
</g>
<!-- Node1&#45;&gt;Node2 -->
<g id="edge1" class="edge">
<title>Node1&#45;&gt;Node2</title>
<path fill="none" stroke="midnightblue" d="M469.6,-50.4C459.44,-52.01 449.05,-53.65 439.12,-55.22"/>
<polygon fill="midnightblue" stroke="midnightblue" points="470.34,-53.83 479.67,-48.81 469.24,-46.92 470.34,-53.83"/>
</g>
<!-- Node6 -->
<g id="node6" class="node">
<title>Node6</title>
<g id="a_node6"><a xlink:href="a00342.xhtml#abc120e956529cb5d1f6bf881d151bf19" target="_top" xlink:title=" ">
<polygon fill="white" stroke="black" points="315,-0.5 315,-30.5 444,-30.5 444,-0.5 315,-0.5"/>
<text text-anchor="start" x="323" y="-18.5" font-family="Helvetica,sans-Serif" font-size="10.00">CFeatureSpectralMfccs</text>
<text text-anchor="middle" x="379.5" y="-7.5" font-family="Helvetica,sans-Serif" font-size="10.00">::~CFeatureSpectralMfccs</text>
</a>
</g>
</g>
<!-- Node1&#45;&gt;Node6 -->
<g id="edge5" class="edge">
<title>Node1&#45;&gt;Node6</title>
<path fill="none" stroke="midnightblue" d="M469.77,-29.06C461.26,-27.77 452.58,-26.45 444.15,-25.17"/>
<polygon fill="midnightblue" stroke="midnightblue" points="469.25,-32.52 479.67,-30.56 470.31,-25.6 469.25,-32.52"/>
</g>
<!-- Node3 -->
<g id="node3" class="node">
<title>Node3</title>
<g id="a_node3"><a xlink:href="a00342.xhtml#a4fd7b7171c56ba1be8191ca660f6fbcc" target="_top" xlink:title=" ">
<polygon fill="white" stroke="black" points="160,-49.5 160,-79.5 279,-79.5 279,-49.5 160,-49.5"/>
<text text-anchor="start" x="168" y="-67.5" font-family="Helvetica,sans-Serif" font-size="10.00">CFeatureSpectralMfccs</text>
<text text-anchor="middle" x="219.5" y="-56.5" font-family="Helvetica,sans-Serif" font-size="10.00">::genDctMat_</text>
</a>
</g>
</g>
<!-- Node2&#45;&gt;Node3 -->
<g id="edge2" class="edge">
<title>Node2&#45;&gt;Node3</title>
<path fill="none" stroke="midnightblue" d="M309.6,-64.5C299.44,-64.5 289.05,-64.5 279.12,-64.5"/>
<polygon fill="midnightblue" stroke="midnightblue" points="309.67,-68 319.67,-64.5 309.67,-61 309.67,-68"/>
</g>
<!-- Node4 -->
<g id="node4" class="node">
<title>Node4</title>
<g id="a_node4"><a xlink:href="a00342.xhtml#a4ffe272900bf3ba5bbab219262506455" target="_top" xlink:title=" ">
<polygon fill="white" stroke="black" points="0,-74.5 0,-104.5 124,-104.5 124,-74.5 0,-74.5"/>
<text text-anchor="start" x="8" y="-92.5" font-family="Helvetica,sans-Serif" font-size="10.00">CFeatureSpectralMfccs</text>
<text text-anchor="middle" x="62" y="-81.5" font-family="Helvetica,sans-Serif" font-size="10.00">::CFeatureSpectralMfccs</text>
</a>
</g>
</g>
<!-- Node3&#45;&gt;Node4 -->
<g id="edge3" class="edge">
<title>Node3&#45;&gt;Node4</title>
<path fill="none" stroke="midnightblue" d="M149.8,-75.55C141.27,-76.92 132.6,-78.31 124.2,-79.66"/>
<polygon fill="midnightblue" stroke="midnightblue" points="150.39,-78.99 159.71,-73.95 149.28,-72.08 150.39,-78.99"/>
</g>
<!-- Node5 -->
<g id="node5" class="node">
<title>Node5</title>
<g id="a_node5"><a xlink:href="a00342.xhtml#a6ffd2585db71bf5b44aedc15223525e6" target="_top" xlink:title=" ">
<polygon fill="white" stroke="black" points="2.5,-25.5 2.5,-55.5 121.5,-55.5 121.5,-25.5 2.5,-25.5"/>
<text text-anchor="start" x="10.5" y="-43.5" font-family="Helvetica,sans-Serif" font-size="10.00">CFeatureSpectralMfccs</text>
<text text-anchor="middle" x="62" y="-32.5" font-family="Helvetica,sans-Serif" font-size="10.00">::setAdditionalParam</text>
</a>
</g>
</g>
<!-- Node3&#45;&gt;Node5 -->
<g id="edge4" class="edge">
<title>Node3&#45;&gt;Node5</title>
<path fill="none" stroke="midnightblue" d="M149.65,-53.87C140.3,-52.43 130.77,-50.96 121.61,-49.55"/>
<polygon fill="midnightblue" stroke="midnightblue" points="149.3,-57.36 159.71,-55.43 150.36,-50.44 149.3,-57.36"/>
</g>
</g>
</svg>
