<?xml version="1.0" encoding="UTF-8" standalone="no"?>
<!DOCTYPE svg PUBLIC "-//W3C//DTD SVG 1.1//EN"
 "http://www.w3.org/Graphics/SVG/1.1/DTD/svg11.dtd">
<!-- Generated by graphviz version 6.0.1 (20220911.1526)
 -->
<!-- Title: CFeatureSpectralMfccs::~CFeatureSpectralMfccs Pages: 1 -->
<svg width="508pt" height="95pt"
 viewBox="0.00 0.00 508.00 94.50" xmlns="http://www.w3.org/2000/svg" xmlns:xlink="http://www.w3.org/1999/xlink">
<g id="graph0" class="graph" transform="scale(1 1) rotate(0) translate(4 90.5)">
<title>CFeatureSpectralMfccs::~CFeatureSpectralMfccs</title>
<!-- Node1 -->
<g id="node1" class="node">
<title>Node1</title>
<g id="a_node1"><a xlink:title=" ">
<polygon fill="#999999" stroke="#666666" points="129,-43.5 0,-43.5 0,-13.5 129,-13.5 129,-43.5"/>
<text text-anchor="start" x="8" y="-31.5" font-family="Helvetica,sans-Serif" font-size="10.00">CFeatureSpectralMfccs</text>
<text text-anchor="middle" x="64.5" y="-20.5" font-family="Helvetica,sans-Serif" font-size="10.00">::~CFeatureSpectralMfccs</text>
</a>
</g>
</g>
<!-- Node2 -->
<g id="node2" class="node">
<title>Node2</title>
<g id="a_node2"><a xlink:href="a00330.xhtml#a9ad8bb5ff88bbbfe48231eab00e5e1d4" target="_top" xlink:title=" ">
<polygon fill="white" stroke="#666666" points="284,-86.5 165,-86.5 165,-56.5 284,-56.5 284,-86.5"/>
<text text-anchor="start" x="173" y="-74.5" font-family="Helvetica,sans-Serif" font-size="10.00">CFeatureSpectralMfccs</text>
<text text-anchor="middle" x="224.5" y="-63.5" font-family="Helvetica,sans-Serif" font-size="10.00">::deleteDctMat_</text>
</a>
</g>
</g>
<!-- Node1&#45;&gt;Node2 -->
<g id="edge1" class="edge">
<title>Node1&#45;&gt;Node2</title>
<path fill="none" stroke="#63b8ff" d="M120.76,-43.54C132.91,-46.85 145.88,-50.38 158.38,-53.78"/>
<polygon fill="#63b8ff" stroke="#63b8ff" points="157.7,-57.22 168.27,-56.47 159.54,-50.47 157.7,-57.22"/>
</g>
<!-- Node3 -->
<g id="node3" class="node">
<title>Node3</title>
<g id="a_node3"><a xlink:href="a00486.xhtml#a591097c6b1935c4d6273b3445f8f552b" target="_top" xlink:title=" ">
<polygon fill="white" stroke="#666666" points="391,-38 320,-38 320,-19 391,-19 391,-38"/>
<text text-anchor="middle" x="355.5" y="-26" font-family="Helvetica,sans-Serif" font-size="10.00">CMatrix::free</text>
</a>
</g>
</g>
<!-- Node1&#45;&gt;Node3 -->
<g id="edge5" class="edge">
<title>Node1&#45;&gt;Node3</title>
<path fill="none" stroke="#63b8ff" d="M129.28,-28.5C183.95,-28.5 261.31,-28.5 309.65,-28.5"/>
<polygon fill="#63b8ff" stroke="#63b8ff" points="309.81,-32 319.81,-28.5 309.81,-25 309.81,-32"/>
</g>
<!-- Node4 -->
<g id="node4" class="node">
<title>Node4</title>
<g id="a_node4"><a xlink:href="a00502.xhtml#aa86bdb0c663d4d52f2765793756f8737" target="_top" xlink:title=" ">
<polygon fill="white" stroke="#666666" points="500,-19 427,-19 427,0 500,0 500,-19"/>
<text text-anchor="middle" x="463.5" y="-7" font-family="Helvetica,sans-Serif" font-size="10.00">CVector::free</text>
</a>
</g>
</g>
<!-- Node1&#45;&gt;Node4 -->
<g id="edge4" class="edge">
<title>Node1&#45;&gt;Node4</title>
<path fill="none" stroke="#63b8ff" d="M129.24,-22.86C180.68,-18.59 254.94,-13.03 320,-10.5 352.22,-9.25 388.58,-9.01 416.5,-9.08"/>
<polygon fill="#63b8ff" stroke="#63b8ff" points="416.75,-12.58 426.76,-9.12 416.78,-5.58 416.75,-12.58"/>
</g>
<!-- Node2&#45;&gt;Node3 -->
<g id="edge2" class="edge">
<title>Node2&#45;&gt;Node3</title>
<path fill="none" stroke="#63b8ff" d="M270.62,-56.46C285.49,-51.5 301.89,-46.04 316.2,-41.27"/>
<polygon fill="#63b8ff" stroke="#63b8ff" points="317.36,-44.57 325.74,-38.09 315.15,-37.93 317.36,-44.57"/>
</g>
<!-- Node3&#45;&gt;Node4 -->
<g id="edge3" class="edge">
<title>Node3&#45;&gt;Node4</title>
<path fill="none" stroke="#63b8ff" d="M391.21,-22.28C399.45,-20.8 408.37,-19.2 417.02,-17.65"/>
<polygon fill="#63b8ff" stroke="#63b8ff" points="417.76,-21.08 426.99,-15.87 416.53,-14.18 417.76,-21.08"/>
</g>
</g>
</svg>
