<?xml version="1.0" encoding="UTF-8" standalone="no"?>
<!DOCTYPE svg PUBLIC "-//W3C//DTD SVG 1.1//EN"
 "http://www.w3.org/Graphics/SVG/1.1/DTD/svg11.dtd">
<!-- Generated by graphviz version 6.0.1 (20220911.1526)
 -->
<!-- Title: CPitchTimeAuditory::CPitchTimeAuditory Pages: 1 -->
<svg width="832pt" height="494pt"
 viewBox="0.00 0.00 832.00 494.20" xmlns="http://www.w3.org/2000/svg" xmlns:xlink="http://www.w3.org/1999/xlink">
<g id="graph0" class="graph" transform="scale(1 1) rotate(0) translate(4 490.2)">
<title>CPitchTimeAuditory::CPitchTimeAuditory</title>
<!-- Node1 -->
<g id="node1" class="node">
<title>Node1</title>
<g id="a_node1"><a xlink:title=" ">
<polygon fill="#999999" stroke="#666666" points="107,-264.7 0,-264.7 0,-234.7 107,-234.7 107,-264.7"/>
<text text-anchor="start" x="8" y="-252.7" font-family="Helvetica,sans-Serif" font-size="10.00">CPitchTimeAuditory</text>
<text text-anchor="middle" x="53.5" y="-241.7" font-family="Helvetica,sans-Serif" font-size="10.00">::CPitchTimeAuditory</text>
</a>
</g>
</g>
<!-- Node2 -->
<g id="node2" class="node">
<title>Node2</title>
<g id="a_node2"><a xlink:href="a00502.xhtml#abaadac98b1cad18b7b568852bc951696" target="_top" xlink:title=" ">
<polygon fill="white" stroke="#666666" points="656.5,-222.2 579.5,-222.2 579.5,-203.2 656.5,-203.2 656.5,-222.2"/>
<text text-anchor="middle" x="618" y="-210.2" font-family="Helvetica,sans-Serif" font-size="10.00">CVector::alloc</text>
</a>
</g>
</g>
<!-- Node1&#45;&gt;Node2 -->
<g id="edge1" class="edge">
<title>Node1&#45;&gt;Node2</title>
<path fill="none" stroke="#63b8ff" d="M107.31,-258.85C197.13,-272.36 384.43,-291.61 534,-247.7 550.98,-242.71 553.73,-237.65 570,-230.7 573.69,-229.12 577.57,-227.53 581.45,-225.99"/>
<polygon fill="#63b8ff" stroke="#63b8ff" points="582.96,-229.15 591,-222.26 580.41,-222.63 582.96,-229.15"/>
</g>
<!-- Node4 -->
<g id="node4" class="node">
<title>Node4</title>
<g id="a_node4"><a xlink:href="a00486.xhtml#a6501b78d76c912d49eee88c8f7242923" target="_top" xlink:title=" ">
<polygon fill="white" stroke="#666666" points="381,-259.2 307,-259.2 307,-240.2 381,-240.2 381,-259.2"/>
<text text-anchor="middle" x="344" y="-247.2" font-family="Helvetica,sans-Serif" font-size="10.00">CMatrix::alloc</text>
</a>
</g>
</g>
<!-- Node1&#45;&gt;Node4 -->
<g id="edge3" class="edge">
<title>Node1&#45;&gt;Node4</title>
<path fill="none" stroke="#63b8ff" d="M107.08,-249.7C161.21,-249.7 244.75,-249.7 296.53,-249.7"/>
<polygon fill="#63b8ff" stroke="#63b8ff" points="296.76,-253.2 306.76,-249.7 296.76,-246.2 296.76,-253.2"/>
</g>
<!-- Node5 -->
<g id="node5" class="node">
<title>Node5</title>
<g id="a_node5"><a xlink:href="a00482.xhtml#a3878460603a6e6e1a64de6021b2bb73e" target="_top" xlink:title=" ">
<polygon fill="white" stroke="#666666" points="531,-373.2 420,-373.2 420,-354.2 531,-354.2 531,-373.2"/>
<text text-anchor="middle" x="475.5" y="-361.2" font-family="Helvetica,sans-Serif" font-size="10.00">CButterLp::calcCoeffs</text>
</a>
</g>
</g>
<!-- Node1&#45;&gt;Node5 -->
<g id="edge5" class="edge">
<title>Node1&#45;&gt;Node5</title>
<path fill="none" stroke="#63b8ff" d="M66.42,-264.79C81.9,-283.16 110.77,-313.49 143,-327.7 229.53,-365.86 340.62,-369.97 409.68,-367.96"/>
<polygon fill="#63b8ff" stroke="#63b8ff" points="410.11,-371.45 419.98,-367.6 409.87,-364.45 410.11,-371.45"/>
</g>
<!-- Node12 -->
<g id="node12" class="node">
<title>Node12</title>
<g id="a_node12"><a xlink:href="a00558.xhtml#a19cabc50a7c022f869871ae9602061cd" target="_top" xlink:title=" ">
<polygon fill="white" stroke="#666666" points="271,-165.2 143,-165.2 143,-146.2 271,-146.2 271,-165.2"/>
<text text-anchor="middle" x="207" y="-153.2" font-family="Helvetica,sans-Serif" font-size="10.00">CGammaToneFbIf::create</text>
</a>
</g>
</g>
<!-- Node1&#45;&gt;Node12 -->
<g id="edge14" class="edge">
<title>Node1&#45;&gt;Node12</title>
<path fill="none" stroke="#63b8ff" d="M68.06,-234.65C84.29,-217.52 113.04,-189.83 143,-173.7 146.3,-171.92 149.79,-170.31 153.37,-168.84"/>
<polygon fill="#63b8ff" stroke="#63b8ff" points="154.83,-172.03 162.99,-165.28 152.4,-165.47 154.83,-172.03"/>
</g>
<!-- Node13 -->
<g id="node13" class="node">
<title>Node13</title>
<g id="a_node13"><a xlink:href="a00546.xhtml#afe56cc1681b982d7d31b0830b3471b61" target="_top" xlink:title=" ">
<polygon fill="white" stroke="#666666" points="257.5,-128.2 156.5,-128.2 156.5,-109.2 257.5,-109.2 257.5,-128.2"/>
<text text-anchor="middle" x="207" y="-116.2" font-family="Helvetica,sans-Serif" font-size="10.00">CCcf::getCcfLength</text>
</a>
</g>
</g>
<!-- Node1&#45;&gt;Node13 -->
<g id="edge15" class="edge">
<title>Node1&#45;&gt;Node13</title>
<path fill="none" stroke="#63b8ff" d="M62.32,-234.38C75.57,-209.99 104.75,-162.44 143,-136.7 145.39,-135.09 147.92,-133.63 150.55,-132.29"/>
<polygon fill="#63b8ff" stroke="#63b8ff" points="152.01,-135.47 159.75,-128.23 149.18,-129.07 152.01,-135.47"/>
</g>
<!-- Node14 -->
<g id="node14" class="node">
<title>Node14</title>
<g id="a_node14"><a xlink:href="a00478.xhtml#add0db9a0cf605eb3f57c80b52d2bda0e" target="_top" xlink:title=" ">
<polygon fill="white" stroke="#666666" points="506.5,-335.2 444.5,-335.2 444.5,-316.2 506.5,-316.2 506.5,-335.2"/>
<text text-anchor="middle" x="475.5" y="-323.2" font-family="Helvetica,sans-Serif" font-size="10.00">CFilter::init</text>
</a>
</g>
</g>
<!-- Node1&#45;&gt;Node14 -->
<g id="edge16" class="edge">
<title>Node1&#45;&gt;Node14</title>
<path fill="none" stroke="#63b8ff" d="M73.98,-264.73C91.13,-277.05 117.31,-293.7 143,-301.7 244.25,-333.21 370.96,-331.85 434.4,-328.57"/>
<polygon fill="#63b8ff" stroke="#63b8ff" points="434.61,-332.07 444.39,-328.01 434.21,-325.08 434.61,-332.07"/>
</g>
<!-- Node16 -->
<g id="node16" class="node">
<title>Node16</title>
<g id="a_node16"><a xlink:href="a00546.xhtml#af683b1b5e37ca2039424af02f4bfb3c5" target="_top" xlink:title=" ">
<polygon fill="white" stroke="#666666" points="235,-202.2 179,-202.2 179,-183.2 235,-183.2 235,-202.2"/>
<text text-anchor="middle" x="207" y="-190.2" font-family="Helvetica,sans-Serif" font-size="10.00">CCcf::init</text>
</a>
</g>
</g>
<!-- Node1&#45;&gt;Node16 -->
<g id="edge23" class="edge">
<title>Node1&#45;&gt;Node16</title>
<path fill="none" stroke="#63b8ff" d="M94.7,-234.57C118.37,-225.67 148.04,-214.51 170.78,-205.95"/>
<polygon fill="#63b8ff" stroke="#63b8ff" points="172.26,-209.13 180.39,-202.34 169.8,-202.58 172.26,-209.13"/>
</g>
<!-- Node3 -->
<g id="node3" class="node">
<title>Node3</title>
<g id="a_node3"><a xlink:href="a00502.xhtml#a6dbb3f9f480568b60f7fe50090d20003" target="_top" xlink:title=" ">
<polygon fill="white" stroke="#666666" points="807.5,-278.2 718.5,-278.2 718.5,-259.2 807.5,-259.2 807.5,-278.2"/>
<text text-anchor="middle" x="763" y="-266.2" font-family="Helvetica,sans-Serif" font-size="10.00">CVector::setZero</text>
</a>
</g>
</g>
<!-- Node2&#45;&gt;Node3 -->
<g id="edge2" class="edge">
<title>Node2&#45;&gt;Node3</title>
<path fill="none" stroke="#63b8ff" d="M644.39,-222.36C651.4,-225.05 659,-227.97 666,-230.7 686.81,-238.8 710.11,-248.02 728.54,-255.35"/>
<polygon fill="#63b8ff" stroke="#63b8ff" points="727.38,-258.65 737.96,-259.1 729.97,-252.15 727.38,-258.65"/>
</g>
<!-- Node4&#45;&gt;Node2 -->
<g id="edge4" class="edge">
<title>Node4&#45;&gt;Node2</title>
<path fill="none" stroke="#63b8ff" d="M381.27,-245.41C419.35,-240.83 480.95,-233.22 534,-225.7 545.5,-224.07 557.89,-222.19 569.49,-220.38"/>
<polygon fill="#63b8ff" stroke="#63b8ff" points="570.1,-223.83 579.44,-218.82 569.01,-216.92 570.1,-223.83"/>
</g>
<!-- Node5&#45;&gt;Node2 -->
<g id="edge6" class="edge">
<title>Node5&#45;&gt;Node2</title>
<path fill="none" stroke="#63b8ff" d="M518.81,-354.2C524.43,-351.52 529.72,-348.09 534,-343.7 570.78,-305.94 533.81,-269.02 570,-230.7 570.91,-229.73 571.88,-228.82 572.9,-227.96"/>
<polygon fill="#63b8ff" stroke="#63b8ff" points="575.08,-230.7 581.44,-222.23 571.19,-224.89 575.08,-230.7"/>
</g>
<!-- Node5&#45;&gt;Node3 -->
<g id="edge13" class="edge">
<title>Node5&#45;&gt;Node3</title>
<path fill="none" stroke="#63b8ff" d="M502.7,-373.23C540.58,-385.39 612.04,-402.08 666,-377.7 707.16,-359.1 737.72,-313.17 752.36,-287.26"/>
<polygon fill="#63b8ff" stroke="#63b8ff" points="755.47,-288.86 757.18,-278.4 749.33,-285.51 755.47,-288.86"/>
</g>
<!-- Node6 -->
<g id="node6" class="node">
<title>Node6</title>
<g id="a_node6"><a xlink:href="a00482.xhtml#a4a70bdde7f075d2591fd03c52c16145c" target="_top" xlink:title=" ">
<polygon fill="white" stroke="#666666" points="663,-449.2 573,-449.2 573,-430.2 663,-430.2 663,-449.2"/>
<text text-anchor="middle" x="618" y="-437.2" font-family="Helvetica,sans-Serif" font-size="10.00">CButterLp::calcA</text>
</a>
</g>
</g>
<!-- Node5&#45;&gt;Node6 -->
<g id="edge7" class="edge">
<title>Node5&#45;&gt;Node6</title>
<path fill="none" stroke="#63b8ff" d="M493.29,-373.27C511.93,-383.85 542.96,-401.28 570,-415.7 575.94,-418.87 582.35,-422.2 588.46,-425.33"/>
<polygon fill="#63b8ff" stroke="#63b8ff" points="587.21,-428.62 597.71,-430.04 590.39,-422.39 587.21,-428.62"/>
</g>
<!-- Node8 -->
<g id="node8" class="node">
<title>Node8</title>
<g id="a_node8"><a xlink:href="a00482.xhtml#a9c08c0b6f891bb37fb4230088f94b0a0" target="_top" xlink:title=" ">
<polygon fill="white" stroke="#666666" points="663,-486.2 573,-486.2 573,-467.2 663,-467.2 663,-486.2"/>
<text text-anchor="middle" x="618" y="-474.2" font-family="Helvetica,sans-Serif" font-size="10.00">CButterLp::calcB</text>
</a>
</g>
</g>
<!-- Node5&#45;&gt;Node8 -->
<g id="edge9" class="edge">
<title>Node5&#45;&gt;Node8</title>
<path fill="none" stroke="#63b8ff" d="M483.69,-373.39C498.11,-392.23 532.44,-434.11 570,-458.7 572.25,-460.17 574.64,-461.55 577.11,-462.84"/>
<polygon fill="#63b8ff" stroke="#63b8ff" points="575.69,-466.04 586.23,-467.1 578.65,-459.7 575.69,-466.04"/>
</g>
<!-- Node10 -->
<g id="node10" class="node">
<title>Node10</title>
<g id="a_node10"><a xlink:href="a00502.xhtml#ad7c5cba73e439adac77778f61c9418f0" target="_top" xlink:title=" ">
<polygon fill="white" stroke="#666666" points="656.5,-335.2 579.5,-335.2 579.5,-316.2 656.5,-316.2 656.5,-335.2"/>
<text text-anchor="middle" x="618" y="-323.2" font-family="Helvetica,sans-Serif" font-size="10.00">CVector::copy</text>
</a>
</g>
</g>
<!-- Node5&#45;&gt;Node10 -->
<g id="edge11" class="edge">
<title>Node5&#45;&gt;Node10</title>
<path fill="none" stroke="#63b8ff" d="M511.95,-354.11C530.09,-349.21 552.37,-343.18 571.73,-337.94"/>
<polygon fill="#63b8ff" stroke="#63b8ff" points="572.82,-341.28 581.56,-335.29 570.99,-334.52 572.82,-341.28"/>
</g>
<!-- Node11 -->
<g id="node11" class="node">
<title>Node11</title>
<g id="a_node11"><a xlink:href="a00502.xhtml#aa86bdb0c663d4d52f2765793756f8737" target="_top" xlink:title=" ">
<polygon fill="white" stroke="#666666" points="799.5,-185.2 726.5,-185.2 726.5,-166.2 799.5,-166.2 799.5,-185.2"/>
<text text-anchor="middle" x="763" y="-173.2" font-family="Helvetica,sans-Serif" font-size="10.00">CVector::free</text>
</a>
</g>
</g>
<!-- Node5&#45;&gt;Node11 -->
<g id="edge12" class="edge">
<title>Node5&#45;&gt;Node11</title>
<path fill="none" stroke="#63b8ff" d="M531.03,-372.16C572.22,-375.46 627.96,-372.92 666,-343.7 701.48,-316.44 679.63,-288.44 702,-249.7 714.17,-228.62 732.16,-207.33 745.27,-193.03"/>
<polygon fill="#63b8ff" stroke="#63b8ff" points="748.07,-195.17 752.35,-185.48 742.96,-190.39 748.07,-195.17"/>
</g>
<!-- Node7 -->
<g id="node7" class="node">
<title>Node7</title>
<g id="a_node7"><a xlink:href="a00482.xhtml#ab4432f6b6d2f1bad850a13a0573615c4" target="_top" xlink:title=" ">
<polygon fill="white" stroke="#666666" points="824,-449.2 702,-449.2 702,-430.2 824,-430.2 824,-449.2"/>
<text text-anchor="middle" x="763" y="-437.2" font-family="Helvetica,sans-Serif" font-size="10.00">CButterLp::multBinomial</text>
</a>
</g>
</g>
<!-- Node6&#45;&gt;Node7 -->
<g id="edge8" class="edge">
<title>Node6&#45;&gt;Node7</title>
<path fill="none" stroke="#63b8ff" d="M663.07,-439.7C672.15,-439.7 681.92,-439.7 691.66,-439.7"/>
<polygon fill="#63b8ff" stroke="#63b8ff" points="691.77,-443.2 701.77,-439.7 691.77,-436.2 691.77,-443.2"/>
</g>
<!-- Node9 -->
<g id="node9" class="node">
<title>Node9</title>
<g id="a_node9"><a xlink:href="a00482.xhtml#a93b25bb8ef71fc7221ae53efe9212d67" target="_top" xlink:title=" ">
<polygon fill="white" stroke="#666666" points="817,-486.2 709,-486.2 709,-467.2 817,-467.2 817,-486.2"/>
<text text-anchor="middle" x="763" y="-474.2" font-family="Helvetica,sans-Serif" font-size="10.00">CButterLp::calcScale</text>
</a>
</g>
</g>
<!-- Node8&#45;&gt;Node9 -->
<g id="edge10" class="edge">
<title>Node8&#45;&gt;Node9</title>
<path fill="none" stroke="#63b8ff" d="M663.07,-476.7C674.36,-476.7 686.71,-476.7 698.75,-476.7"/>
<polygon fill="#63b8ff" stroke="#63b8ff" points="698.76,-480.2 708.76,-476.7 698.76,-473.2 698.76,-480.2"/>
</g>
<!-- Node14&#45;&gt;Node2 -->
<g id="edge17" class="edge">
<title>Node14&#45;&gt;Node2</title>
<path fill="none" stroke="#63b8ff" d="M506.59,-317.69C516.19,-314.02 526.31,-308.84 534,-301.7 559.92,-277.62 543.72,-254.39 570,-230.7 571.29,-229.53 572.67,-228.44 574.11,-227.41"/>
<polygon fill="#63b8ff" stroke="#63b8ff" points="576.05,-230.34 582.9,-222.26 572.5,-224.3 576.05,-230.34"/>
</g>
<!-- Node14&#45;&gt;Node3 -->
<g id="edge22" class="edge">
<title>Node14&#45;&gt;Node3</title>
<path fill="none" stroke="#63b8ff" d="M506.81,-319.5C525.11,-315.77 548.89,-310.93 570,-306.7 616.64,-297.35 669.68,-286.86 708.18,-279.27"/>
<polygon fill="#63b8ff" stroke="#63b8ff" points="709,-282.68 718.14,-277.31 707.65,-275.81 709,-282.68"/>
</g>
<!-- Node14&#45;&gt;Node10 -->
<g id="edge18" class="edge">
<title>Node14&#45;&gt;Node10</title>
<path fill="none" stroke="#63b8ff" d="M506.64,-325.7C524.85,-325.7 548.47,-325.7 569.18,-325.7"/>
<polygon fill="#63b8ff" stroke="#63b8ff" points="569.39,-329.2 579.39,-325.7 569.39,-322.2 569.39,-329.2"/>
</g>
<!-- Node15 -->
<g id="node15" class="node">
<title>Node15</title>
<g id="a_node15"><a xlink:href="a00478.xhtml#a8d6a8f20ea178eda7352a89bf7a4d200" target="_top" xlink:title=" ">
<polygon fill="white" stroke="#666666" points="653.5,-259.2 582.5,-259.2 582.5,-240.2 653.5,-240.2 653.5,-259.2"/>
<text text-anchor="middle" x="618" y="-247.2" font-family="Helvetica,sans-Serif" font-size="10.00">CFilter::reset</text>
</a>
</g>
</g>
<!-- Node14&#45;&gt;Node15 -->
<g id="edge19" class="edge">
<title>Node14&#45;&gt;Node15</title>
<path fill="none" stroke="#63b8ff" d="M503.54,-316.13C513.41,-312.2 524.47,-307.26 534,-301.7 551.51,-291.48 552.9,-284.58 570,-273.7 575.25,-270.36 581.02,-267.1 586.67,-264.12"/>
<polygon fill="#63b8ff" stroke="#63b8ff" points="588.62,-267.05 595.94,-259.39 585.44,-260.82 588.62,-267.05"/>
</g>
<!-- Node15&#45;&gt;Node3 -->
<g id="edge21" class="edge">
<title>Node15&#45;&gt;Node3</title>
<path fill="none" stroke="#63b8ff" d="M653.62,-254.3C670.08,-256.49 690.13,-259.15 708.48,-261.59"/>
<polygon fill="#63b8ff" stroke="#63b8ff" points="708.1,-265.07 718.48,-262.92 709.02,-258.13 708.1,-265.07"/>
</g>
<!-- Node15&#45;&gt;Node11 -->
<g id="edge20" class="edge">
<title>Node15&#45;&gt;Node11</title>
<path fill="none" stroke="#63b8ff" d="M644.64,-240.07C651.65,-237.24 659.19,-234.01 666,-230.7 691.24,-218.44 718.94,-202.26 738.07,-190.63"/>
<polygon fill="#63b8ff" stroke="#63b8ff" points="740.03,-193.53 746.72,-185.32 736.37,-187.56 740.03,-193.53"/>
</g>
<!-- Node16&#45;&gt;Node2 -->
<g id="edge24" class="edge">
<title>Node16&#45;&gt;Node2</title>
<path fill="none" stroke="#63b8ff" d="M235.31,-194.09C255.19,-195.11 282.76,-196.5 307,-197.7 399.84,-202.29 508.34,-207.51 569.22,-210.42"/>
<polygon fill="#63b8ff" stroke="#63b8ff" points="569.14,-213.92 579.3,-210.9 569.48,-206.93 569.14,-213.92"/>
</g>
<!-- Node17 -->
<g id="node17" class="node">
<title>Node17</title>
<g id="a_node17"><a xlink:href="a00474.xhtml#adea9b0cecccfdb5a3da3218da6f683dd" target="_top" xlink:title=" ">
<polygon fill="white" stroke="#666666" points="370.5,-137.2 317.5,-137.2 317.5,-118.2 370.5,-118.2 370.5,-137.2"/>
<text text-anchor="middle" x="344" y="-125.2" font-family="Helvetica,sans-Serif" font-size="10.00">CFft::init</text>
</a>
</g>
</g>
<!-- Node16&#45;&gt;Node17 -->
<g id="edge25" class="edge">
<title>Node16&#45;&gt;Node17</title>
<path fill="none" stroke="#63b8ff" d="M235.27,-186.24C246.58,-183.12 259.69,-178.9 271,-173.7 289.13,-165.37 308.09,-153.09 322,-143.31"/>
<polygon fill="#63b8ff" stroke="#63b8ff" points="324.27,-145.99 330.35,-137.32 320.19,-140.31 324.27,-145.99"/>
</g>
<!-- Node20 -->
<g id="node20" class="node">
<title>Node20</title>
<g id="a_node20"><a xlink:href="a00498.xhtml#a6d0e75b0bcbbb243b7141cfc0126e443" target="_top" xlink:title=" ">
<polygon fill="white" stroke="#666666" points="518.5,-183.2 432.5,-183.2 432.5,-164.2 518.5,-164.2 518.5,-183.2"/>
<text text-anchor="middle" x="475.5" y="-171.2" font-family="Helvetica,sans-Serif" font-size="10.00">CUtil::isPowOf2</text>
</a>
</g>
</g>
<!-- Node16&#45;&gt;Node20 -->
<g id="edge34" class="edge">
<title>Node16&#45;&gt;Node20</title>
<path fill="none" stroke="#63b8ff" d="M235.02,-190.77C278.75,-187.66 365.78,-181.45 422.01,-177.44"/>
<polygon fill="#63b8ff" stroke="#63b8ff" points="422.41,-180.92 432.13,-176.72 421.91,-173.94 422.41,-180.92"/>
</g>
<!-- Node21 -->
<g id="node21" class="node">
<title>Node21</title>
<g id="a_node21"><a xlink:href="a00498.xhtml#a0fd55429d52515a9efb2fe602ce8f9ed" target="_top" xlink:title=" ">
<polygon fill="white" stroke="#666666" points="523.5,-72.2 427.5,-72.2 427.5,-53.2 523.5,-53.2 523.5,-72.2"/>
<text text-anchor="middle" x="475.5" y="-60.2" font-family="Helvetica,sans-Serif" font-size="10.00">CUtil::nextPowOf2</text>
</a>
</g>
</g>
<!-- Node16&#45;&gt;Node21 -->
<g id="edge35" class="edge">
<title>Node16&#45;&gt;Node21</title>
<path fill="none" stroke="#63b8ff" d="M235.29,-189.2C247.26,-186.54 260.86,-181.88 271,-173.7 296.7,-152.96 281.04,-129.12 307,-108.7 338.5,-83.92 382.43,-72.48 417.39,-67.19"/>
<polygon fill="#63b8ff" stroke="#63b8ff" points="418.04,-70.64 427.47,-65.8 417.08,-63.7 418.04,-70.64"/>
</g>
<!-- Node24 -->
<g id="node24" class="node">
<title>Node24</title>
<g id="a_node24"><a xlink:href="a00546.xhtml#a6edce7be75bf0b89dcc4a20e491ad8d8" target="_top" xlink:title=" ">
<polygon fill="white" stroke="#666666" points="376.5,-35.2 311.5,-35.2 311.5,-16.2 376.5,-16.2 376.5,-35.2"/>
<text text-anchor="middle" x="344" y="-23.2" font-family="Helvetica,sans-Serif" font-size="10.00">CCcf::reset</text>
</a>
</g>
</g>
<!-- Node16&#45;&gt;Node24 -->
<g id="edge36" class="edge">
<title>Node16&#45;&gt;Node24</title>
<path fill="none" stroke="#63b8ff" d="M235.15,-190.29C247.52,-187.88 261.5,-183.1 271,-173.7 309.07,-136.03 278.27,-103.9 307,-58.7 310.91,-52.55 316.26,-46.8 321.63,-41.89"/>
<polygon fill="#63b8ff" stroke="#63b8ff" points="324,-44.47 329.37,-35.33 319.48,-39.13 324,-44.47"/>
</g>
<!-- Node18 -->
<g id="node18" class="node">
<title>Node18</title>
<g id="a_node18"><a xlink:href="a00474.xhtml#adf2bc81be5029515f69907765ecc2476" target="_top" xlink:title=" ">
<polygon fill="white" stroke="#666666" points="525.5,-146.2 425.5,-146.2 425.5,-127.2 525.5,-127.2 525.5,-146.2"/>
<text text-anchor="middle" x="475.5" y="-134.2" font-family="Helvetica,sans-Serif" font-size="10.00">CFft::allocMemory_</text>
</a>
</g>
</g>
<!-- Node17&#45;&gt;Node18 -->
<g id="edge26" class="edge">
<title>Node17&#45;&gt;Node18</title>
<path fill="none" stroke="#63b8ff" d="M370.59,-129.48C383.4,-130.37 399.5,-131.49 415.18,-132.58"/>
<polygon fill="#63b8ff" stroke="#63b8ff" points="415.16,-136.08 425.37,-133.29 415.64,-129.1 415.16,-136.08"/>
</g>
<!-- Node19 -->
<g id="node19" class="node">
<title>Node19</title>
<g id="a_node19"><a xlink:href="a00474.xhtml#aa5fffd68919cea17741c9fe69209bce6" target="_top" xlink:title=" ">
<polygon fill="white" stroke="#666666" points="534,-109.2 417,-109.2 417,-90.2 534,-90.2 534,-109.2"/>
<text text-anchor="middle" x="475.5" y="-97.2" font-family="Helvetica,sans-Serif" font-size="10.00">CFft::computeWindow_</text>
</a>
</g>
</g>
<!-- Node17&#45;&gt;Node19 -->
<g id="edge28" class="edge">
<title>Node17&#45;&gt;Node19</title>
<path fill="none" stroke="#63b8ff" d="M370.59,-122.17C384.82,-119.09 403.1,-115.14 420.34,-111.41"/>
<polygon fill="#63b8ff" stroke="#63b8ff" points="421.31,-114.78 430.34,-109.25 419.83,-107.94 421.31,-114.78"/>
</g>
<!-- Node17&#45;&gt;Node20 -->
<g id="edge29" class="edge">
<title>Node17&#45;&gt;Node20</title>
<path fill="none" stroke="#63b8ff" d="M369.9,-137.32C383.73,-142.58 401.26,-149.15 417,-154.7 422.92,-156.79 429.21,-158.93 435.37,-161"/>
<polygon fill="#63b8ff" stroke="#63b8ff" points="434.28,-164.33 444.88,-164.16 436.49,-157.68 434.28,-164.33"/>
</g>
<!-- Node17&#45;&gt;Node21 -->
<g id="edge30" class="edge">
<title>Node17&#45;&gt;Node21</title>
<path fill="none" stroke="#63b8ff" d="M357.38,-118.09C371.25,-107.7 394.72,-91.21 417,-80.7 420.83,-78.89 424.89,-77.21 429.01,-75.65"/>
<polygon fill="#63b8ff" stroke="#63b8ff" points="430.38,-78.88 438.64,-72.25 428.05,-72.27 430.38,-78.88"/>
</g>
<!-- Node22 -->
<g id="node22" class="node">
<title>Node22</title>
<g id="a_node22"><a xlink:href="a00474.xhtml#a0a0053b6ce93161553b573a16c77387a" target="_top" xlink:title=" ">
<polygon fill="white" stroke="#666666" points="506.5,-35.2 444.5,-35.2 444.5,-16.2 506.5,-16.2 506.5,-35.2"/>
<text text-anchor="middle" x="475.5" y="-23.2" font-family="Helvetica,sans-Serif" font-size="10.00">CFft::reset</text>
</a>
</g>
</g>
<!-- Node17&#45;&gt;Node22 -->
<g id="edge31" class="edge">
<title>Node17&#45;&gt;Node22</title>
<path fill="none" stroke="#63b8ff" d="M350.64,-118.11C361.37,-100.71 386.37,-63.89 417,-43.7 422.39,-40.15 428.52,-37.26 434.72,-34.93"/>
<polygon fill="#63b8ff" stroke="#63b8ff" points="436.04,-38.18 444.43,-31.7 433.83,-31.54 436.04,-38.18"/>
</g>
<!-- Node18&#45;&gt;Node2 -->
<g id="edge27" class="edge">
<title>Node18&#45;&gt;Node2</title>
<path fill="none" stroke="#63b8ff" d="M513.05,-146.28C520.15,-148.66 527.43,-151.47 534,-154.7 557.3,-166.15 581.33,-183.68 597.5,-196.48"/>
<polygon fill="#63b8ff" stroke="#63b8ff" points="595.64,-199.47 605.62,-203.03 600.04,-194.03 595.64,-199.47"/>
</g>
<!-- Node23 -->
<g id="node23" class="node">
<title>Node23</title>
<g id="a_node23"><a xlink:href="a00474.xhtml#af48c6112f4a0d28b5badd8f317f4d191" target="_top" xlink:title=" ">
<polygon fill="white" stroke="#666666" points="666,-110.2 570,-110.2 570,-91.2 666,-91.2 666,-110.2"/>
<text text-anchor="middle" x="618" y="-98.2" font-family="Helvetica,sans-Serif" font-size="10.00">CFft::freeMemory_</text>
</a>
</g>
</g>
<!-- Node22&#45;&gt;Node23 -->
<g id="edge32" class="edge">
<title>Node22&#45;&gt;Node23</title>
<path fill="none" stroke="#63b8ff" d="M506.7,-33.31C515.7,-36.06 525.44,-39.54 534,-43.7 557.08,-54.92 580.99,-72.02 597.18,-84.56"/>
<polygon fill="#63b8ff" stroke="#63b8ff" points="595.31,-87.55 605.33,-91 599.65,-82.05 595.31,-87.55"/>
</g>
<!-- Node23&#45;&gt;Node11 -->
<g id="edge33" class="edge">
<title>Node23&#45;&gt;Node11</title>
<path fill="none" stroke="#63b8ff" d="M637.4,-110.35C662.07,-123.29 706.06,-146.36 734.62,-161.34"/>
<polygon fill="#63b8ff" stroke="#63b8ff" points="733.19,-164.54 743.67,-166.09 736.44,-158.34 733.19,-164.54"/>
</g>
<!-- Node24&#45;&gt;Node11 -->
<g id="edge37" class="edge">
<title>Node24&#45;&gt;Node11</title>
<path fill="none" stroke="#63b8ff" d="M375.31,-16.13C413.08,-5.69 479.32,7.75 534,-6.7 629.22,-31.86 714.74,-120.76 747.66,-158.52"/>
<polygon fill="#63b8ff" stroke="#63b8ff" points="745.05,-160.85 754.21,-166.17 750.36,-156.3 745.05,-160.85"/>
</g>
<!-- Node24&#45;&gt;Node22 -->
<g id="edge38" class="edge">
<title>Node24&#45;&gt;Node22</title>
<path fill="none" stroke="#63b8ff" d="M376.68,-25.7C394.04,-25.7 415.73,-25.7 434.27,-25.7"/>
<polygon fill="#63b8ff" stroke="#63b8ff" points="434.48,-29.2 444.48,-25.7 434.48,-22.2 434.48,-29.2"/>
</g>
</g>
</svg>
