<?xml version="1.0" encoding="UTF-8" standalone="no"?>
<!DOCTYPE svg PUBLIC "-//W3C//DTD SVG 1.1//EN"
 "http://www.w3.org/Graphics/SVG/1.1/DTD/svg11.dtd">
<!-- Generated by graphviz version 4.0.0 (20220602.1335)
 -->
<!-- Title: LaszloFft::unshuffle Pages: 1 -->
<svg width="232pt" height="165pt"
 viewBox="0.00 0.00 232.00 164.50" xmlns="http://www.w3.org/2000/svg" xmlns:xlink="http://www.w3.org/1999/xlink">
<g id="graph0" class="graph" transform="scale(1 1) rotate(0) translate(4 160.5)">
<title>LaszloFft::unshuffle</title>
<polygon fill="white" stroke="transparent" points="-4,4 -4,-160.5 228,-160.5 228,4 -4,4"/>
<!-- Node1 -->
<g id="node1" class="node">
<title>Node1</title>
<g id="a_node1"><a xlink:title=" ">
<polygon fill="#bfbfbf" stroke="black" points="124,-77 124,-96 224,-96 224,-77 124,-77"/>
<text text-anchor="middle" x="174" y="-84" font-family="Helvetica,sans-Serif" font-size="10.00">LaszloFft::unshuffle</text>
</a>
</g>
</g>
<!-- Node2 -->
<g id="node2" class="node">
<title>Node2</title>
<g id="a_node2"><a xlink:href="a00302.xhtml#a7b426d9d09321e6e1790704eed9c8e46" target="_top" xlink:title=" ">
<polygon fill="white" stroke="black" points="9,-137 9,-156 79,-156 79,-137 9,-137"/>
<text text-anchor="middle" x="44" y="-144" font-family="Helvetica,sans-Serif" font-size="10.00">LaszloFft::fft</text>
</a>
</g>
</g>
<!-- Node1&#45;&gt;Node2 -->
<g id="edge1" class="edge">
<title>Node1&#45;&gt;Node2</title>
<path fill="none" stroke="midnightblue" d="M144.42,-100.58C127.98,-108.61 106.9,-118.77 88,-127.5 81.18,-130.65 73.71,-133.99 66.94,-136.97"/>
<polygon fill="midnightblue" stroke="midnightblue" points="146.06,-103.67 153.51,-96.13 142.99,-97.38 146.06,-103.67"/>
</g>
<!-- Node3 -->
<g id="node3" class="node">
<title>Node3</title>
<g id="a_node3"><a xlink:href="a00302.xhtml#a4e4b95c769a0dbc06941a2c06b0cc889" target="_top" xlink:title=" ">
<polygon fill="white" stroke="black" points="8,-99 8,-118 80,-118 80,-99 8,-99"/>
<text text-anchor="middle" x="44" y="-106" font-family="Helvetica,sans-Serif" font-size="10.00">LaszloFft::ifft</text>
</a>
</g>
</g>
<!-- Node1&#45;&gt;Node3 -->
<g id="edge2" class="edge">
<title>Node1&#45;&gt;Node3</title>
<path fill="none" stroke="midnightblue" d="M113.88,-96.66C102.39,-98.64 90.7,-100.65 80.28,-102.44"/>
<polygon fill="midnightblue" stroke="midnightblue" points="114.62,-100.09 123.88,-94.94 113.43,-93.19 114.62,-100.09"/>
</g>
<!-- Node4 -->
<g id="node4" class="node">
<title>Node4</title>
<g id="a_node4"><a xlink:href="a00302.xhtml#a2d3be8653b958c0d6123158ebf2da37b" target="_top" xlink:title=" ">
<polygon fill="white" stroke="black" points="0,-49.5 0,-79.5 88,-79.5 88,-49.5 0,-49.5"/>
<text text-anchor="start" x="8" y="-67.5" font-family="Helvetica,sans-Serif" font-size="10.00">LaszloFft::irealfft</text>
<text text-anchor="middle" x="44" y="-56.5" font-family="Helvetica,sans-Serif" font-size="10.00">_packed</text>
</a>
</g>
</g>
<!-- Node1&#45;&gt;Node4 -->
<g id="edge3" class="edge">
<title>Node1&#45;&gt;Node4</title>
<path fill="none" stroke="midnightblue" d="M113.87,-76.34C105.27,-74.86 96.56,-73.36 88.35,-71.95"/>
<polygon fill="midnightblue" stroke="midnightblue" points="113.43,-79.81 123.88,-78.06 114.62,-72.91 113.43,-79.81"/>
</g>
<!-- Node5 -->
<g id="node5" class="node">
<title>Node5</title>
<g id="a_node5"><a xlink:href="a00302.xhtml#ad5539e1657289937c1e0feb2d7f86075" target="_top" xlink:title=" ">
<polygon fill="white" stroke="black" points="1,-0.5 1,-30.5 87,-30.5 87,-0.5 1,-0.5"/>
<text text-anchor="start" x="9" y="-18.5" font-family="Helvetica,sans-Serif" font-size="10.00">LaszloFft::realfft</text>
<text text-anchor="middle" x="44" y="-7.5" font-family="Helvetica,sans-Serif" font-size="10.00">_packed</text>
</a>
</g>
</g>
<!-- Node1&#45;&gt;Node5 -->
<g id="edge4" class="edge">
<title>Node1&#45;&gt;Node5</title>
<path fill="none" stroke="midnightblue" d="M146.74,-71.94C125.02,-59.88 94.26,-42.82 72.26,-30.62"/>
<polygon fill="midnightblue" stroke="midnightblue" points="145.29,-75.13 155.74,-76.92 148.69,-69.01 145.29,-75.13"/>
</g>
</g>
</svg>
