<?xml version="1.0" encoding="UTF-8" standalone="no"?>
<!DOCTYPE svg PUBLIC "-//W3C//DTD SVG 1.1//EN"
 "http://www.w3.org/Graphics/SVG/1.1/DTD/svg11.dtd">
<!-- Generated by graphviz version 6.0.1 (20220911.1526)
 -->
<!-- Title: CFeatureSpectralMfccs::genDctMat_ Pages: 1 -->
<svg width="675pt" height="91pt"
 viewBox="0.00 0.00 675.00 91.00" xmlns="http://www.w3.org/2000/svg" xmlns:xlink="http://www.w3.org/1999/xlink">
<g id="graph0" class="graph" transform="scale(1 1) rotate(0) translate(4 87)">
<title>CFeatureSpectralMfccs::genDctMat_</title>
<!-- Node1 -->
<g id="node1" class="node">
<title>Node1</title>
<g id="a_node1"><a xlink:title=" ">
<polygon fill="#999999" stroke="#666666" points="119,-45.5 0,-45.5 0,-15.5 119,-15.5 119,-45.5"/>
<text text-anchor="start" x="8" y="-33.5" font-family="Helvetica,sans-Serif" font-size="10.00">CFeatureSpectralMfccs</text>
<text text-anchor="middle" x="59.5" y="-22.5" font-family="Helvetica,sans-Serif" font-size="10.00">::genDctMat_</text>
</a>
</g>
</g>
<!-- Node2 -->
<g id="node2" class="node">
<title>Node2</title>
<g id="a_node2"><a xlink:href="a00330.xhtml#a939a14f9a0c6b6a7ac974b2899b57e95" target="_top" xlink:title=" ">
<polygon fill="white" stroke="#666666" points="274,-67.5 155,-67.5 155,-37.5 274,-37.5 274,-67.5"/>
<text text-anchor="start" x="163" y="-55.5" font-family="Helvetica,sans-Serif" font-size="10.00">CFeatureSpectralMfccs</text>
<text text-anchor="middle" x="214.5" y="-44.5" font-family="Helvetica,sans-Serif" font-size="10.00">::allocDctMat_</text>
</a>
</g>
</g>
<!-- Node1&#45;&gt;Node2 -->
<g id="edge1" class="edge">
<title>Node1&#45;&gt;Node2</title>
<path fill="none" stroke="#63b8ff" d="M119.22,-38.94C127.64,-40.15 136.36,-41.41 144.95,-42.64"/>
<polygon fill="#63b8ff" stroke="#63b8ff" points="144.54,-46.12 154.94,-44.08 145.54,-39.19 144.54,-46.12"/>
</g>
<!-- Node9 -->
<g id="node9" class="node">
<title>Node9</title>
<g id="a_node9"><a xlink:href="a00502.xhtml#a9811f50434dd058d201290b2dc98bfcd" target="_top" xlink:title=" ">
<polygon fill="white" stroke="#666666" points="258,-19 171,-19 171,0 258,0 258,-19"/>
<text text-anchor="middle" x="214.5" y="-7" font-family="Helvetica,sans-Serif" font-size="10.00">CVector::mulC_I</text>
</a>
</g>
</g>
<!-- Node1&#45;&gt;Node9 -->
<g id="edge8" class="edge">
<title>Node1&#45;&gt;Node9</title>
<path fill="none" stroke="#63b8ff" d="M119.22,-22.44C132.92,-20.56 147.42,-18.57 160.84,-16.73"/>
<polygon fill="#63b8ff" stroke="#63b8ff" points="161.42,-20.18 170.86,-15.35 160.47,-13.25 161.42,-20.18"/>
</g>
<!-- Node3 -->
<g id="node3" class="node">
<title>Node3</title>
<g id="a_node3"><a xlink:href="a00486.xhtml#a6501b78d76c912d49eee88c8f7242923" target="_top" xlink:title=" ">
<polygon fill="white" stroke="#666666" points="406.5,-83 332.5,-83 332.5,-64 406.5,-64 406.5,-83"/>
<text text-anchor="middle" x="369.5" y="-71" font-family="Helvetica,sans-Serif" font-size="10.00">CMatrix::alloc</text>
</a>
</g>
</g>
<!-- Node2&#45;&gt;Node3 -->
<g id="edge2" class="edge">
<title>Node2&#45;&gt;Node3</title>
<path fill="none" stroke="#63b8ff" d="M274.22,-60.56C290.1,-62.74 307.07,-65.07 322.17,-67.14"/>
<polygon fill="#63b8ff" stroke="#63b8ff" points="321.91,-70.64 332.29,-68.53 322.86,-63.7 321.91,-70.64"/>
</g>
<!-- Node6 -->
<g id="node6" class="node">
<title>Node6</title>
<g id="a_node6"><a xlink:href="a00330.xhtml#a9ad8bb5ff88bbbfe48231eab00e5e1d4" target="_top" xlink:title=" ">
<polygon fill="white" stroke="#666666" points="429,-45.5 310,-45.5 310,-15.5 429,-15.5 429,-45.5"/>
<text text-anchor="start" x="318" y="-33.5" font-family="Helvetica,sans-Serif" font-size="10.00">CFeatureSpectralMfccs</text>
<text text-anchor="middle" x="369.5" y="-22.5" font-family="Helvetica,sans-Serif" font-size="10.00">::deleteDctMat_</text>
</a>
</g>
</g>
<!-- Node2&#45;&gt;Node6 -->
<g id="edge5" class="edge">
<title>Node2&#45;&gt;Node6</title>
<path fill="none" stroke="#63b8ff" d="M274.22,-44.06C282.64,-42.85 291.36,-41.59 299.95,-40.36"/>
<polygon fill="#63b8ff" stroke="#63b8ff" points="300.54,-43.81 309.94,-38.92 299.54,-36.88 300.54,-43.81"/>
</g>
<!-- Node4 -->
<g id="node4" class="node">
<title>Node4</title>
<g id="a_node4"><a xlink:href="a00502.xhtml#abaadac98b1cad18b7b568852bc951696" target="_top" xlink:title=" ">
<polygon fill="white" stroke="#666666" points="542,-83 465,-83 465,-64 542,-64 542,-83"/>
<text text-anchor="middle" x="503.5" y="-71" font-family="Helvetica,sans-Serif" font-size="10.00">CVector::alloc</text>
</a>
</g>
</g>
<!-- Node3&#45;&gt;Node4 -->
<g id="edge3" class="edge">
<title>Node3&#45;&gt;Node4</title>
<path fill="none" stroke="#63b8ff" d="M406.57,-73.5C421.35,-73.5 438.66,-73.5 454.49,-73.5"/>
<polygon fill="#63b8ff" stroke="#63b8ff" points="454.63,-77 464.63,-73.5 454.63,-70 454.63,-77"/>
</g>
<!-- Node5 -->
<g id="node5" class="node">
<title>Node5</title>
<g id="a_node5"><a xlink:href="a00502.xhtml#a6dbb3f9f480568b60f7fe50090d20003" target="_top" xlink:title=" ">
<polygon fill="white" stroke="#666666" points="667,-83 578,-83 578,-64 667,-64 667,-83"/>
<text text-anchor="middle" x="622.5" y="-71" font-family="Helvetica,sans-Serif" font-size="10.00">CVector::setZero</text>
</a>
</g>
</g>
<!-- Node4&#45;&gt;Node5 -->
<g id="edge4" class="edge">
<title>Node4&#45;&gt;Node5</title>
<path fill="none" stroke="#63b8ff" d="M542.16,-73.5C550.33,-73.5 559.11,-73.5 567.76,-73.5"/>
<polygon fill="#63b8ff" stroke="#63b8ff" points="567.8,-77 577.8,-73.5 567.8,-70 567.8,-77"/>
</g>
<!-- Node7 -->
<g id="node7" class="node">
<title>Node7</title>
<g id="a_node7"><a xlink:href="a00486.xhtml#a591097c6b1935c4d6273b3445f8f552b" target="_top" xlink:title=" ">
<polygon fill="white" stroke="#666666" points="539,-40 468,-40 468,-21 539,-21 539,-40"/>
<text text-anchor="middle" x="503.5" y="-28" font-family="Helvetica,sans-Serif" font-size="10.00">CMatrix::free</text>
</a>
</g>
</g>
<!-- Node6&#45;&gt;Node7 -->
<g id="edge6" class="edge">
<title>Node6&#45;&gt;Node7</title>
<path fill="none" stroke="#63b8ff" d="M429.17,-30.5C438.77,-30.5 448.59,-30.5 457.78,-30.5"/>
<polygon fill="#63b8ff" stroke="#63b8ff" points="457.86,-34 467.86,-30.5 457.86,-27 457.86,-34"/>
</g>
<!-- Node8 -->
<g id="node8" class="node">
<title>Node8</title>
<g id="a_node8"><a xlink:href="a00502.xhtml#aa86bdb0c663d4d52f2765793756f8737" target="_top" xlink:title=" ">
<polygon fill="white" stroke="#666666" points="659,-40 586,-40 586,-21 659,-21 659,-40"/>
<text text-anchor="middle" x="622.5" y="-28" font-family="Helvetica,sans-Serif" font-size="10.00">CVector::free</text>
</a>
</g>
</g>
<!-- Node7&#45;&gt;Node8 -->
<g id="edge7" class="edge">
<title>Node7&#45;&gt;Node8</title>
<path fill="none" stroke="#63b8ff" d="M539.29,-30.5C550.64,-30.5 563.44,-30.5 575.49,-30.5"/>
<polygon fill="#63b8ff" stroke="#63b8ff" points="575.83,-34 585.83,-30.5 575.83,-27 575.83,-34"/>
</g>
</g>
</svg>
