<?xml version="1.0" encoding="UTF-8" standalone="no"?>
<!DOCTYPE svg PUBLIC "-//W3C//DTD SVG 1.1//EN"
 "http://www.w3.org/Graphics/SVG/1.1/DTD/svg11.dtd">
<!-- Generated by graphviz version 4.0.0 (20220602.1335)
 -->
<!-- Title: CFeatureSpectralMfccs::genDctMat_ Pages: 1 -->
<svg width="287pt" height="88pt"
 viewBox="0.00 0.00 287.00 88.00" xmlns="http://www.w3.org/2000/svg" xmlns:xlink="http://www.w3.org/1999/xlink">
<g id="graph0" class="graph" transform="scale(1 1) rotate(0) translate(4 84)">
<title>CFeatureSpectralMfccs::genDctMat_</title>
<polygon fill="white" stroke="transparent" points="-4,4 -4,-84 283,-84 283,4 -4,4"/>
<!-- Node1 -->
<g id="node1" class="node">
<title>Node1</title>
<g id="a_node1"><a xlink:title=" ">
<polygon fill="#bfbfbf" stroke="black" points="160,-24.5 160,-54.5 279,-54.5 279,-24.5 160,-24.5"/>
<text text-anchor="start" x="168" y="-42.5" font-family="Helvetica,sans-Serif" font-size="10.00">CFeatureSpectralMfccs</text>
<text text-anchor="middle" x="219.5" y="-31.5" font-family="Helvetica,sans-Serif" font-size="10.00">::genDctMat_</text>
</a>
</g>
</g>
<!-- Node2 -->
<g id="node2" class="node">
<title>Node2</title>
<g id="a_node2"><a xlink:href="a00342.xhtml#a4ffe272900bf3ba5bbab219262506455" target="_top" xlink:title=" ">
<polygon fill="white" stroke="black" points="0,-49.5 0,-79.5 124,-79.5 124,-49.5 0,-49.5"/>
<text text-anchor="start" x="8" y="-67.5" font-family="Helvetica,sans-Serif" font-size="10.00">CFeatureSpectralMfccs</text>
<text text-anchor="middle" x="62" y="-56.5" font-family="Helvetica,sans-Serif" font-size="10.00">::CFeatureSpectralMfccs</text>
</a>
</g>
</g>
<!-- Node1&#45;&gt;Node2 -->
<g id="edge1" class="edge">
<title>Node1&#45;&gt;Node2</title>
<path fill="none" stroke="midnightblue" d="M149.8,-50.55C141.27,-51.92 132.6,-53.31 124.2,-54.66"/>
<polygon fill="midnightblue" stroke="midnightblue" points="150.39,-53.99 159.71,-48.95 149.28,-47.08 150.39,-53.99"/>
</g>
<!-- Node3 -->
<g id="node3" class="node">
<title>Node3</title>
<g id="a_node3"><a xlink:href="a00342.xhtml#a6ffd2585db71bf5b44aedc15223525e6" target="_top" xlink:title=" ">
<polygon fill="white" stroke="black" points="2.5,-0.5 2.5,-30.5 121.5,-30.5 121.5,-0.5 2.5,-0.5"/>
<text text-anchor="start" x="10.5" y="-18.5" font-family="Helvetica,sans-Serif" font-size="10.00">CFeatureSpectralMfccs</text>
<text text-anchor="middle" x="62" y="-7.5" font-family="Helvetica,sans-Serif" font-size="10.00">::setAdditionalParam</text>
</a>
</g>
</g>
<!-- Node1&#45;&gt;Node3 -->
<g id="edge2" class="edge">
<title>Node1&#45;&gt;Node3</title>
<path fill="none" stroke="midnightblue" d="M149.65,-28.87C140.3,-27.43 130.77,-25.96 121.61,-24.55"/>
<polygon fill="midnightblue" stroke="midnightblue" points="149.3,-32.36 159.71,-30.43 150.36,-25.44 149.3,-32.36"/>
</g>
</g>
</svg>
