<?xml version="1.0" encoding="UTF-8" standalone="no"?>
<!DOCTYPE svg PUBLIC "-//W3C//DTD SVG 1.1//EN"
 "http://www.w3.org/Graphics/SVG/1.1/DTD/svg11.dtd">
<!-- Generated by graphviz version 6.0.1 (20220911.1526)
 -->
<!-- Title: CChordFromFile::~CChordFromFile Pages: 1 -->
<svg width="324pt" height="101pt"
 viewBox="0.00 0.00 324.00 101.00" xmlns="http://www.w3.org/2000/svg" xmlns:xlink="http://www.w3.org/1999/xlink">
<g id="graph0" class="graph" transform="scale(1 1) rotate(0) translate(4 97)">
<title>CChordFromFile::~CChordFromFile</title>
<!-- Node1 -->
<g id="node1" class="node">
<title>Node1</title>
<g id="a_node1"><a xlink:title=" ">
<polygon fill="#999999" stroke="#666666" points="167,-56 0,-56 0,-37 167,-37 167,-56"/>
<text text-anchor="middle" x="83.5" y="-44" font-family="Helvetica,sans-Serif" font-size="10.00">CChordFromFile::~CChordFromFile</text>
</a>
</g>
</g>
<!-- Node2 -->
<g id="node2" class="node">
<title>Node2</title>
<g id="a_node2"><a xlink:href="a00442.xhtml#a9b8022f870f94a4b8c5a1f25cf24d2f9" target="_top" xlink:title=" ">
<polygon fill="white" stroke="#666666" points="316,-93 203,-93 203,-74 316,-74 316,-93"/>
<text text-anchor="middle" x="259.5" y="-81" font-family="Helvetica,sans-Serif" font-size="10.00">CAudioFileIf::closeFile</text>
</a>
</g>
</g>
<!-- Node1&#45;&gt;Node2 -->
<g id="edge1" class="edge">
<title>Node1&#45;&gt;Node2</title>
<path fill="none" stroke="#63b8ff" d="M129.31,-56.03C151.95,-60.84 179.63,-66.73 203.55,-71.81"/>
<polygon fill="#63b8ff" stroke="#63b8ff" points="203.03,-75.28 213.54,-73.94 204.49,-68.44 203.03,-75.28"/>
</g>
<!-- Node3 -->
<g id="node3" class="node">
<title>Node3</title>
<g id="a_node3"><a xlink:href="a00442.xhtml#ab490b9d06c7efa0e4da3596cf4e7bec4" target="_top" xlink:title=" ">
<polygon fill="white" stroke="#666666" points="312.5,-56 206.5,-56 206.5,-37 312.5,-37 312.5,-56"/>
<text text-anchor="middle" x="259.5" y="-44" font-family="Helvetica,sans-Serif" font-size="10.00">CAudioFileIf::destroy</text>
</a>
</g>
</g>
<!-- Node1&#45;&gt;Node3 -->
<g id="edge2" class="edge">
<title>Node1&#45;&gt;Node3</title>
<path fill="none" stroke="#63b8ff" d="M167.17,-46.5C176.96,-46.5 186.82,-46.5 196.25,-46.5"/>
<polygon fill="#63b8ff" stroke="#63b8ff" points="196.31,-50 206.31,-46.5 196.31,-43 196.31,-50"/>
</g>
<!-- Node4 -->
<g id="node4" class="node">
<title>Node4</title>
<g id="a_node4"><a xlink:href="a00502.xhtml#aa86bdb0c663d4d52f2765793756f8737" target="_top" xlink:title=" ">
<polygon fill="white" stroke="#666666" points="296,-19 223,-19 223,0 296,0 296,-19"/>
<text text-anchor="middle" x="259.5" y="-7" font-family="Helvetica,sans-Serif" font-size="10.00">CVector::free</text>
</a>
</g>
</g>
<!-- Node1&#45;&gt;Node4 -->
<g id="edge3" class="edge">
<title>Node1&#45;&gt;Node4</title>
<path fill="none" stroke="#63b8ff" d="M129.31,-36.97C155,-31.51 187.17,-24.67 212.97,-19.18"/>
<polygon fill="#63b8ff" stroke="#63b8ff" points="213.83,-22.58 222.89,-17.07 212.38,-15.73 213.83,-22.58"/>
</g>
</g>
</svg>
