<?xml version="1.0" encoding="UTF-8" standalone="no"?>
<!DOCTYPE svg PUBLIC "-//W3C//DTD SVG 1.1//EN"
 "http://www.w3.org/Graphics/SVG/1.1/DTD/svg11.dtd">
<!-- Generated by graphviz version 12.2.1 (20241206.2353)
 -->
<!-- Title: CFeatureTimeRms::CFeatureTimeRms Pages: 1 -->
<svg width="674pt" height="125pt"
 viewBox="0.00 0.00 674.25 124.88" xmlns="http://www.w3.org/2000/svg" xmlns:xlink="http://www.w3.org/1999/xlink">
<g id="graph0" class="graph" transform="scale(1 1) rotate(0) translate(4 120.88)">
<title>CFeatureTimeRms::CFeatureTimeRms</title>
<!-- Node1 -->
<g id="Node000001" class="node">
<title>Node1</title>
<g id="a_Node000001"><a xlink:title="disallow copy construction">
<polygon fill="#999999" stroke="#666666" points="142,-67.88 0,-67.88 0,-37.38 142,-37.38 142,-67.88"/>
<text text-anchor="start" x="8" y="-54.38" font-family="Helvetica,sans-Serif" font-size="10.00">CFeatureTimeRms::CFeature</text>
<text text-anchor="middle" x="71" y="-43.12" font-family="Helvetica,sans-Serif" font-size="10.00">TimeRms</text>
</a>
</g>
</g>
<!-- Node2 -->
<g id="Node000002" class="node">
<title>Node2</title>
<g id="a_Node000002"><a xlink:href="a00361.xhtml#a84b694f264292580080e3604e30b3409" target="_top" xlink:title=" ">
<polygon fill="white" stroke="#666666" points="320,-67.88 178,-67.88 178,-37.38 320,-37.38 320,-67.88"/>
<text text-anchor="start" x="186" y="-54.38" font-family="Helvetica,sans-Serif" font-size="10.00">CFeatureTimeRms::CFeature</text>
<text text-anchor="middle" x="249" y="-43.12" font-family="Helvetica,sans-Serif" font-size="10.00">TimeRms</text>
</a>
</g>
</g>
<!-- Node1&#45;&gt;Node2 -->
<g id="edge1_Node000001_Node000002" class="edge">
<title>Node1&#45;&gt;Node2</title>
<g id="a_edge1_Node000001_Node000002"><a xlink:title=" ">
<path fill="none" stroke="#63b8ff" d="M142.32,-52.62C150.19,-52.62 158.26,-52.62 166.27,-52.62"/>
<polygon fill="#63b8ff" stroke="#63b8ff" points="165.99,-56.13 175.99,-52.63 165.99,-49.13 165.99,-56.13"/>
</a>
</g>
</g>
<!-- Node3 -->
<g id="Node000003" class="node">
<title>Node3</title>
<g id="a_Node000003"><a xlink:href="a00585.xhtml#afedab0de8491f604e797ada1fb0e5899" target="_top" xlink:title=" ">
<polygon fill="white" stroke="#666666" points="480.75,-116.88 356,-116.88 356,-86.38 480.75,-86.38 480.75,-116.88"/>
<text text-anchor="start" x="364" y="-103.38" font-family="Helvetica,sans-Serif" font-size="10.00">CSinglePoleLp::calcFilter</text>
<text text-anchor="middle" x="418.38" y="-92.12" font-family="Helvetica,sans-Serif" font-size="10.00">Param</text>
</a>
</g>
</g>
<!-- Node2&#45;&gt;Node3 -->
<g id="edge2_Node000002_Node000003" class="edge">
<title>Node2&#45;&gt;Node3</title>
<g id="a_edge2_Node000002_Node000003"><a xlink:title=" ">
<path fill="none" stroke="#63b8ff" d="M303.42,-68.26C319.19,-72.88 336.63,-77.99 353.01,-82.78"/>
<polygon fill="#63b8ff" stroke="#63b8ff" points="351.57,-86.01 362.15,-85.46 353.54,-79.29 351.57,-86.01"/>
</a>
</g>
</g>
<!-- Node4 -->
<g id="Node000004" class="node">
<title>Node4</title>
<g id="a_Node000004"><a xlink:href="a00473.xhtml#a483bca508e2817799a3173a6180d245e" target="_top" xlink:title=" ">
<polygon fill="white" stroke="#666666" points="475.12,-67.88 361.62,-67.88 361.62,-37.38 475.12,-37.38 475.12,-67.88"/>
<text text-anchor="start" x="369.62" y="-54.38" font-family="Helvetica,sans-Serif" font-size="10.00">CFeatureFromBlockIf</text>
<text text-anchor="middle" x="418.38" y="-43.12" font-family="Helvetica,sans-Serif" font-size="10.00">::CFeatureFromBlockIf</text>
</a>
</g>
</g>
<!-- Node2&#45;&gt;Node4 -->
<g id="edge3_Node000002_Node000004" class="edge">
<title>Node2&#45;&gt;Node4</title>
<g id="a_edge3_Node000002_Node000004"><a xlink:title=" ">
<path fill="none" stroke="#63b8ff" d="M320.5,-52.62C330.26,-52.62 340.26,-52.62 349.97,-52.62"/>
<polygon fill="#63b8ff" stroke="#63b8ff" points="349.67,-56.13 359.67,-52.63 349.67,-49.13 349.67,-56.13"/>
</a>
</g>
</g>
<!-- Node5 -->
<g id="Node000005" class="node">
<title>Node5</title>
<g id="a_Node000005"><a xlink:href="a00585.xhtml#a36c98d6494cc1ac1e7bf35bec6891b3c" target="_top" xlink:title=" ">
<polygon fill="white" stroke="#666666" points="474.38,-19.25 362.38,-19.25 362.38,0 474.38,0 474.38,-19.25"/>
<text text-anchor="middle" x="418.38" y="-5.75" font-family="Helvetica,sans-Serif" font-size="10.00">CSinglePoleLp::create</text>
</a>
</g>
</g>
<!-- Node2&#45;&gt;Node5 -->
<g id="edge4_Node000002_Node000005" class="edge">
<title>Node2&#45;&gt;Node5</title>
<g id="a_edge4_Node000002_Node000005"><a xlink:title=" ">
<path fill="none" stroke="#63b8ff" d="M310.9,-36.98C329.39,-32.23 349.49,-27.07 367.19,-22.52"/>
<polygon fill="#63b8ff" stroke="#63b8ff" points="367.87,-25.96 376.68,-20.08 366.12,-19.18 367.87,-25.96"/>
</a>
</g>
</g>
<!-- Node6 -->
<g id="Node000006" class="node">
<title>Node6</title>
<g id="a_Node000006"><a xlink:href="a00585.xhtml#ad3db5d691d9dcf0a329e1381349839ee" target="_top" xlink:title=" ">
<polygon fill="white" stroke="#666666" points="666.25,-19.25 516.75,-19.25 516.75,0 666.25,0 666.25,-19.25"/>
<text text-anchor="middle" x="591.5" y="-5.75" font-family="Helvetica,sans-Serif" font-size="10.00">CSinglePoleLp::CSinglePoleLp</text>
</a>
</g>
</g>
<!-- Node5&#45;&gt;Node6 -->
<g id="edge5_Node000005_Node000006" class="edge">
<title>Node5&#45;&gt;Node6</title>
<g id="a_edge5_Node000005_Node000006"><a xlink:title=" ">
<path fill="none" stroke="#63b8ff" d="M474.46,-9.62C484.29,-9.62 494.74,-9.62 505.18,-9.62"/>
<polygon fill="#63b8ff" stroke="#63b8ff" points="504.97,-13.13 514.97,-9.63 504.97,-6.13 504.97,-13.13"/>
</a>
</g>
</g>
</g>
</svg>
