<?xml version="1.0" encoding="UTF-8" standalone="no"?>
<!DOCTYPE svg PUBLIC "-//W3C//DTD SVG 1.1//EN"
 "http://www.w3.org/Graphics/SVG/1.1/DTD/svg11.dtd">
<!-- Generated by graphviz version 12.2.1 (20241206.2353)
 -->
<!-- Title: CFeatureSpectralFlux::operator= Pages: 1 -->
<svg width="542pt" height="114pt"
 viewBox="0.00 0.00 542.25 113.88" xmlns="http://www.w3.org/2000/svg" xmlns:xlink="http://www.w3.org/1999/xlink">
<g id="graph0" class="graph" transform="scale(1 1) rotate(0) translate(4 109.88)">
<title>CFeatureSpectralFlux::operator=</title>
<!-- Node1 -->
<g id="Node000001" class="node">
<title>Node1</title>
<g id="a_Node000001"><a xlink:title=" ">
<polygon fill="#999999" stroke="#666666" points="109.75,-73.5 0,-73.5 0,-43 109.75,-43 109.75,-73.5"/>
<text text-anchor="start" x="8" y="-60" font-family="Helvetica,sans-Serif" font-size="10.00">CFeatureSpectralFlux</text>
<text text-anchor="middle" x="54.88" y="-48.75" font-family="Helvetica,sans-Serif" font-size="10.00">::operator=</text>
</a>
</g>
</g>
<!-- Node2 -->
<g id="Node000002" class="node">
<title>Node2</title>
<g id="a_Node000002"><a xlink:href="a00329.xhtml#a1a45f132f54b2f2f3d63f0827dc8300f" target="_top" xlink:title=" ">
<polygon fill="white" stroke="#666666" points="260,-73.5 145.75,-73.5 145.75,-43 260,-43 260,-73.5"/>
<text text-anchor="start" x="153.75" y="-60" font-family="Helvetica,sans-Serif" font-size="10.00">CFeatureSpectralFlux</text>
<text text-anchor="middle" x="202.88" y="-48.75" font-family="Helvetica,sans-Serif" font-size="10.00">::CFeatureSpectralFlux</text>
</a>
</g>
</g>
<!-- Node1&#45;&gt;Node2 -->
<g id="edge1_Node000001_Node000002" class="edge">
<title>Node1&#45;&gt;Node2</title>
<g id="a_edge1_Node000001_Node000002"><a xlink:title=" ">
<path fill="none" stroke="#63b8ff" d="M110.24,-58.25C118.06,-58.25 126.2,-58.25 134.24,-58.25"/>
<polygon fill="#63b8ff" stroke="#63b8ff" points="134,-61.75 144,-58.25 134,-54.75 134,-61.75"/>
</a>
</g>
</g>
<!-- Node3 -->
<g id="Node000003" class="node">
<title>Node3</title>
<g id="a_Node000003"><a xlink:href="a00505.xhtml#abaadac98b1cad18b7b568852bc951696" target="_top" xlink:title=" ">
<polygon fill="white" stroke="#666666" points="390.75,-105.88 314.75,-105.88 314.75,-86.62 390.75,-86.62 390.75,-105.88"/>
<text text-anchor="middle" x="352.75" y="-92.38" font-family="Helvetica,sans-Serif" font-size="10.00">CVector::alloc</text>
</a>
</g>
</g>
<!-- Node2&#45;&gt;Node3 -->
<g id="edge2_Node000002_Node000003" class="edge">
<title>Node2&#45;&gt;Node3</title>
<g id="a_edge2_Node000002_Node000003"><a xlink:title=" ">
<path fill="none" stroke="#63b8ff" d="M260.2,-72.72C274.5,-76.4 289.73,-80.31 303.58,-83.87"/>
<polygon fill="#63b8ff" stroke="#63b8ff" points="302.33,-87.16 312.88,-86.26 304.07,-80.38 302.33,-87.16"/>
</a>
</g>
</g>
<!-- Node4 -->
<g id="Node000004" class="node">
<title>Node4</title>
<g id="a_Node000004"><a xlink:href="a00505.xhtml#a6dbb3f9f480568b60f7fe50090d20003" target="_top" xlink:title=" ">
<polygon fill="white" stroke="#666666" points="534.25,-86.88 445.5,-86.88 445.5,-67.62 534.25,-67.62 534.25,-86.88"/>
<text text-anchor="middle" x="489.88" y="-73.38" font-family="Helvetica,sans-Serif" font-size="10.00">CVector::setZero</text>
</a>
</g>
</g>
<!-- Node2&#45;&gt;Node4 -->
<g id="edge5_Node000002_Node000004" class="edge">
<title>Node2&#45;&gt;Node4</title>
<g id="a_edge5_Node000002_Node000004"><a xlink:title=" ">
<path fill="none" stroke="#63b8ff" d="M260.18,-62C310.6,-65.36 384.07,-70.26 434.04,-73.59"/>
<polygon fill="#63b8ff" stroke="#63b8ff" points="433.54,-77.07 443.75,-74.24 434.01,-70.08 433.54,-77.07"/>
</a>
</g>
</g>
<!-- Node5 -->
<g id="Node000005" class="node">
<title>Node5</title>
<g id="a_Node000005"><a xlink:href="a00473.xhtml#a483bca508e2817799a3173a6180d245e" target="_top" xlink:title=" ">
<polygon fill="white" stroke="#666666" points="409.5,-30.5 296,-30.5 296,0 409.5,0 409.5,-30.5"/>
<text text-anchor="start" x="304" y="-17" font-family="Helvetica,sans-Serif" font-size="10.00">CFeatureFromBlockIf</text>
<text text-anchor="middle" x="352.75" y="-5.75" font-family="Helvetica,sans-Serif" font-size="10.00">::CFeatureFromBlockIf</text>
</a>
</g>
</g>
<!-- Node2&#45;&gt;Node5 -->
<g id="edge4_Node000002_Node000005" class="edge">
<title>Node2&#45;&gt;Node5</title>
<g id="a_edge4_Node000002_Node000005"><a xlink:title=" ">
<path fill="none" stroke="#63b8ff" d="M257.68,-42.6C267.16,-39.85 277.12,-36.95 286.86,-34.12"/>
<polygon fill="#63b8ff" stroke="#63b8ff" points="287.66,-37.53 296.28,-31.38 285.7,-30.81 287.66,-37.53"/>
</a>
</g>
</g>
<!-- Node3&#45;&gt;Node4 -->
<g id="edge3_Node000003_Node000004" class="edge">
<title>Node3&#45;&gt;Node4</title>
<g id="a_edge3_Node000003_Node000004"><a xlink:title=" ">
<path fill="none" stroke="#63b8ff" d="M391.03,-91.01C404.22,-89.15 419.35,-87.03 433.71,-85.01"/>
<polygon fill="#63b8ff" stroke="#63b8ff" points="434.1,-88.49 443.51,-83.63 433.12,-81.56 434.1,-88.49"/>
</a>
</g>
</g>
</g>
</svg>
