<?xml version="1.0" encoding="UTF-8" standalone="no"?>
<!DOCTYPE svg PUBLIC "-//W3C//DTD SVG 1.1//EN"
 "http://www.w3.org/Graphics/SVG/1.1/DTD/svg11.dtd">
<!-- Generated by graphviz version 4.0.0 (20220602.1335)
 -->
<!-- Title: CFeatureTimeMaxAcf::compFeature Pages: 1 -->
<!--zoomable 304 -->
<svg id="main" version="1.1" xmlns="http://www.w3.org/2000/svg" xmlns:xlink="http://www.w3.org/1999/xlink" xml:space="preserve" onload="init(evt)">
<style type="text/css"><![CDATA[
.edge:hover path { stroke: red; }
.edge:hover polygon { stroke: red; fill: red; }
]]></style>
<script type="text/javascript"><![CDATA[
var edges = document.getElementsByTagName('g');
if (edges && edges.length) {
  for (var i=0;i<edges.length;i++) {
    if (edges[i].id.substr(0,4)=='edge') {
      edges[i].setAttribute('class','edge');
    }
  }
}
]]></script>
        <defs>
                <circle id="rim" cx="0" cy="0" r="7"/>
                <circle id="rim2" cx="0" cy="0" r="3.5"/>
                <g id="zoomPlus">
                        <use xlink:href="#rim" fill="#404040">
                                <set attributeName="fill" to="#808080" begin="zoomplus.mouseover" end="zoomplus.mouseout"/>
                        </use>
                        <path d="M-4,0h8M0,-4v8" fill="none" stroke="white" stroke-width="1.5" pointer-events="none"/>
                </g>
                <g id="zoomMin">
                        <use xlink:href="#rim" fill="#404040">
                                <set attributeName="fill" to="#808080" begin="zoomminus.mouseover" end="zoomminus.mouseout"/>
                        </use>
                        <path d="M-4,0h8" fill="none" stroke="white" stroke-width="1.5" pointer-events="none"/>
                </g>
                <g id="dirArrow">
                        <path fill="none" stroke="white" stroke-width="1.5" d="M0,-3.0v7 M-2.5,-0.5L0,-3.0L2.5,-0.5"/>
                </g>
               <g id="resetDef">
                       <use xlink:href="#rim2" fill="#404040">
                               <set attributeName="fill" to="#808080" begin="reset.mouseover" end="reset.mouseout"/>
                       </use>
               </g>
        </defs>

<script type="text/javascript">
var viewWidth = 504;
var viewHeight = 304;
var sectionId = 'dynsection-4';
</script>
<script xlink:href="svgpan.js"/>
<svg id="graph" class="graph">
<g id="viewport">
<title>CFeatureTimeMaxAcf::compFeature</title>
<polygon fill="white" stroke="transparent" points="-4,4 -4,-299.8 500,-299.8 500,4 -4,4"/>
<!-- Node1 -->
<g id="node1" class="node">
<title>Node1</title>
<g id="a_node1"><a xlink:title=" ">
<polygon fill="#bfbfbf" stroke="black" points="0,-147 0,-177 111,-177 111,-147 0,-147"/>
<text text-anchor="start" x="8" y="-165" font-family="Helvetica,sans-Serif" font-size="10.00">CFeatureTimeMaxAcf</text>
<text text-anchor="middle" x="55.5" y="-154" font-family="Helvetica,sans-Serif" font-size="10.00">::compFeature</text>
</a>
</g>
</g>
<!-- Node2 -->
<g id="node2" class="node">
<title>Node2</title>
<g id="a_node2"><a xlink:href="a00517.xhtml#a4d7d19dd39b24147d9a1fab5d7e05257" target="_top" xlink:title=" ">
<polygon fill="white" stroke="black" points="150,-152.5 150,-171.5 232,-171.5 232,-152.5 150,-152.5"/>
<text text-anchor="middle" x="191" y="-159.5" font-family="Helvetica,sans-Serif" font-size="10.00">CCcf::compCcf</text>
</a>
</g>
</g>
<!-- Node1&#45;&gt;Node2 -->
<g id="edge1" class="edge">
<title>Node1&#45;&gt;Node2</title>
<path fill="none" stroke="midnightblue" d="M111.18,-162C120.6,-162 130.35,-162 139.65,-162"/>
<polygon fill="midnightblue" stroke="midnightblue" points="139.91,-165.5 149.91,-162 139.91,-158.5 139.91,-165.5"/>
</g>
<!-- Node14 -->
<g id="node14" class="node">
<title>Node14</title>
<g id="a_node14"><a xlink:href="a00517.xhtml#a02c0e23cbcecab5af2fb20a25160321a" target="_top" xlink:title=" ">
<polygon fill="white" stroke="black" points="155.5,-247.5 155.5,-266.5 226.5,-266.5 226.5,-247.5 155.5,-247.5"/>
<text text-anchor="middle" x="191" y="-254.5" font-family="Helvetica,sans-Serif" font-size="10.00">CCcf::getCcf</text>
</a>
</g>
</g>
<!-- Node1&#45;&gt;Node14 -->
<g id="edge17" class="edge">
<title>Node1&#45;&gt;Node14</title>
<path fill="none" stroke="midnightblue" d="M77.65,-177.05C102.27,-194.57 142.75,-223.38 167.81,-241.21"/>
<polygon fill="midnightblue" stroke="midnightblue" points="166.11,-244.29 176.28,-247.24 170.16,-238.59 166.11,-244.29"/>
</g>
<!-- Node15 -->
<g id="node15" class="node">
<title>Node15</title>
<g id="a_node15"><a xlink:href="a00477.xhtml#a9f5be871090bc5a64a7732cebfb4f8ec" target="_top" xlink:title=" ">
<polygon fill="white" stroke="black" points="147,-57.5 147,-76.5 235,-76.5 235,-57.5 147,-57.5"/>
<text text-anchor="middle" x="191" y="-64.5" font-family="Helvetica,sans-Serif" font-size="10.00">CVector::getMax</text>
</a>
</g>
</g>
<!-- Node1&#45;&gt;Node15 -->
<g id="edge19" class="edge">
<title>Node1&#45;&gt;Node15</title>
<path fill="none" stroke="midnightblue" d="M77.65,-146.95C102.27,-129.43 142.75,-100.62 167.81,-82.79"/>
<polygon fill="midnightblue" stroke="midnightblue" points="170.16,-85.41 176.28,-76.76 166.11,-79.71 170.16,-85.41"/>
</g>
<!-- Node3 -->
<g id="node3" class="node">
<title>Node3</title>
<g id="a_node3"><a xlink:href="a00449.xhtml#a3cae73896785c2f12ba979e15de48087" target="_top" xlink:title=" ">
<polygon fill="white" stroke="black" points="283,-152.5 283,-171.5 359,-171.5 359,-152.5 283,-152.5"/>
<text text-anchor="middle" x="321" y="-159.5" font-family="Helvetica,sans-Serif" font-size="10.00">CFft::compFft</text>
</a>
</g>
</g>
<!-- Node2&#45;&gt;Node3 -->
<g id="edge2" class="edge">
<title>Node2&#45;&gt;Node3</title>
<path fill="none" stroke="midnightblue" d="M232.15,-162C244.88,-162 259.07,-162 272.28,-162"/>
<polygon fill="midnightblue" stroke="midnightblue" points="272.61,-165.5 282.61,-162 272.61,-158.5 272.61,-165.5"/>
</g>
<!-- Node4 -->
<g id="node4" class="node">
<title>Node4</title>
<g id="a_node4"><a xlink:href="a00477.xhtml#ad7c5cba73e439adac77778f61c9418f0" target="_top" xlink:title=" ">
<polygon fill="white" stroke="black" points="413,-259.5 413,-278.5 490,-278.5 490,-259.5 413,-259.5"/>
<text text-anchor="middle" x="451.5" y="-266.5" font-family="Helvetica,sans-Serif" font-size="10.00">CVector::copy</text>
</a>
</g>
</g>
<!-- Node2&#45;&gt;Node4 -->
<g id="edge13" class="edge">
<title>Node2&#45;&gt;Node4</title>
<path fill="none" stroke="midnightblue" d="M196.66,-171.75C206.87,-191.89 233.36,-237.79 271,-257 311.81,-277.83 364.8,-278.73 402.6,-275.7"/>
<polygon fill="midnightblue" stroke="midnightblue" points="403.2,-279.16 412.84,-274.75 402.56,-272.18 403.2,-279.16"/>
</g>
<!-- Node8 -->
<g id="node8" class="node">
<title>Node8</title>
<g id="a_node8"><a xlink:href="a00449.xhtml#a2d2fa880b32c7087973ed25628002129" target="_top" xlink:title=" ">
<polygon fill="white" stroke="black" points="276.5,-114.5 276.5,-133.5 365.5,-133.5 365.5,-114.5 276.5,-114.5"/>
<text text-anchor="middle" x="321" y="-121.5" font-family="Helvetica,sans-Serif" font-size="10.00">CFft::compInvFft</text>
</a>
</g>
</g>
<!-- Node2&#45;&gt;Node8 -->
<g id="edge7" class="edge">
<title>Node2&#45;&gt;Node8</title>
<path fill="none" stroke="midnightblue" d="M224.3,-152.41C240.52,-147.6 260.38,-141.7 277.79,-136.53"/>
<polygon fill="midnightblue" stroke="midnightblue" points="279.12,-139.79 287.71,-133.59 277.13,-133.08 279.12,-139.79"/>
</g>
<!-- Node10 -->
<g id="node10" class="node">
<title>Node10</title>
<g id="a_node10"><a xlink:href="a00449.xhtml#ab6245bc0fdabc5e62ab910414eb4b923" target="_top" xlink:title=" ">
<polygon fill="white" stroke="black" points="276,-76.5 276,-95.5 366,-95.5 366,-76.5 276,-76.5"/>
<text text-anchor="middle" x="321" y="-83.5" font-family="Helvetica,sans-Serif" font-size="10.00">CFft::conjugate_I</text>
</a>
</g>
</g>
<!-- Node2&#45;&gt;Node10 -->
<g id="edge11" class="edge">
<title>Node2&#45;&gt;Node10</title>
<path fill="none" stroke="midnightblue" d="M203.42,-152.31C218.25,-140.08 245.29,-118.96 271,-105 274.55,-103.07 278.34,-101.24 282.18,-99.53"/>
<polygon fill="midnightblue" stroke="midnightblue" points="283.84,-102.63 291.72,-95.55 281.14,-96.17 283.84,-102.63"/>
</g>
<!-- Node11 -->
<g id="node11" class="node">
<title>Node11</title>
<g id="a_node11"><a xlink:href="a00477.xhtml#a9811f50434dd058d201290b2dc98bfcd" target="_top" xlink:title=" ">
<polygon fill="white" stroke="black" points="408,-38.5 408,-57.5 495,-57.5 495,-38.5 408,-38.5"/>
<text text-anchor="middle" x="451.5" y="-45.5" font-family="Helvetica,sans-Serif" font-size="10.00">CVector::mulC_I</text>
</a>
</g>
</g>
<!-- Node2&#45;&gt;Node11 -->
<g id="edge14" class="edge">
<title>Node2&#45;&gt;Node11</title>
<path fill="none" stroke="midnightblue" d="M196.72,-152.36C207.04,-132.45 233.74,-86.94 271,-67 309.9,-46.19 360.29,-42.52 397.77,-43.43"/>
<polygon fill="midnightblue" stroke="midnightblue" points="397.87,-46.94 407.99,-43.8 398.12,-39.94 397.87,-46.94"/>
</g>
<!-- Node12 -->
<g id="node12" class="node">
<title>Node12</title>
<g id="a_node12"><a xlink:href="a00477.xhtml#a269d316eeb6000aac4f57ade32c83127" target="_top" xlink:title=" ">
<polygon fill="white" stroke="black" points="271,-228.5 271,-247.5 371,-247.5 371,-228.5 271,-228.5"/>
<text text-anchor="middle" x="321" y="-235.5" font-family="Helvetica,sans-Serif" font-size="10.00">CVector::mulScalar</text>
</a>
</g>
</g>
<!-- Node2&#45;&gt;Node12 -->
<g id="edge15" class="edge">
<title>Node2&#45;&gt;Node12</title>
<path fill="none" stroke="midnightblue" d="M203.42,-171.69C218.25,-183.92 245.29,-205.04 271,-219 274.55,-220.93 278.34,-222.76 282.18,-224.47"/>
<polygon fill="midnightblue" stroke="midnightblue" points="281.14,-227.83 291.72,-228.45 283.84,-221.37 281.14,-227.83"/>
</g>
<!-- Node13 -->
<g id="node13" class="node">
<title>Node13</title>
<g id="a_node13"><a xlink:href="a00449.xhtml#a1d114960d5fc8ff4c328732adf638885" target="_top" xlink:title=" ">
<polygon fill="white" stroke="black" points="280.5,-190.5 280.5,-209.5 361.5,-209.5 361.5,-190.5 280.5,-190.5"/>
<text text-anchor="middle" x="321" y="-197.5" font-family="Helvetica,sans-Serif" font-size="10.00">CFft::multiply_I</text>
</a>
</g>
</g>
<!-- Node2&#45;&gt;Node13 -->
<g id="edge16" class="edge">
<title>Node2&#45;&gt;Node13</title>
<path fill="none" stroke="midnightblue" d="M224.3,-171.59C240.52,-176.4 260.38,-182.3 277.79,-187.47"/>
<polygon fill="midnightblue" stroke="midnightblue" points="277.13,-190.92 287.71,-190.41 279.12,-184.21 277.13,-190.92"/>
</g>
<!-- Node3&#45;&gt;Node4 -->
<g id="edge3" class="edge">
<title>Node3&#45;&gt;Node4</title>
<path fill="none" stroke="midnightblue" d="M355.6,-171.51C361.11,-174.02 366.49,-177.15 371,-181 395.22,-201.71 384.61,-220.33 407,-243 411.02,-247.07 415.8,-250.75 420.7,-253.97"/>
<polygon fill="midnightblue" stroke="midnightblue" points="419.13,-257.11 429.5,-259.27 422.74,-251.12 419.13,-257.11"/>
</g>
<!-- Node5 -->
<g id="node5" class="node">
<title>Node5</title>
<g id="a_node5"><a xlink:href="a00477.xhtml#a5fb59528a3f5d3968f988d550b270898" target="_top" xlink:title=" ">
<polygon fill="white" stroke="black" points="411.5,-126.5 411.5,-145.5 491.5,-145.5 491.5,-126.5 411.5,-126.5"/>
<text text-anchor="middle" x="451.5" y="-133.5" font-family="Helvetica,sans-Serif" font-size="10.00">CVector::mul_I</text>
</a>
</g>
</g>
<!-- Node3&#45;&gt;Node5 -->
<g id="edge4" class="edge">
<title>Node3&#45;&gt;Node5</title>
<path fill="none" stroke="midnightblue" d="M359.17,-154.48C372.29,-151.82 387.26,-148.8 401.22,-145.97"/>
<polygon fill="midnightblue" stroke="midnightblue" points="402.07,-149.37 411.18,-143.96 400.68,-142.51 402.07,-149.37"/>
</g>
<!-- Node6 -->
<g id="node6" class="node">
<title>Node6</title>
<g id="a_node6"><a xlink:href="a00284.xhtml#a32fc71031e721d003fd1dc07f771351d" target="_top" xlink:title=" ">
<polygon fill="white" stroke="black" points="408.5,-203 408.5,-233 494.5,-233 494.5,-203 408.5,-203"/>
<text text-anchor="start" x="416.5" y="-221" font-family="Helvetica,sans-Serif" font-size="10.00">LaszloFft::realfft</text>
<text text-anchor="middle" x="451.5" y="-210" font-family="Helvetica,sans-Serif" font-size="10.00">_split</text>
</a>
</g>
</g>
<!-- Node3&#45;&gt;Node6 -->
<g id="edge5" class="edge">
<title>Node3&#45;&gt;Node6</title>
<path fill="none" stroke="midnightblue" d="M347.56,-171.55C355.15,-174.48 363.45,-177.78 371,-181 383.83,-186.47 397.67,-192.76 410.14,-198.59"/>
<polygon fill="midnightblue" stroke="midnightblue" points="408.83,-201.85 419.37,-202.94 411.82,-195.51 408.83,-201.85"/>
</g>
<!-- Node7 -->
<g id="node7" class="node">
<title>Node7</title>
<g id="a_node7"><a xlink:href="a00477.xhtml#a6dbb3f9f480568b60f7fe50090d20003" target="_top" xlink:title=" ">
<polygon fill="white" stroke="black" points="407,-164.5 407,-183.5 496,-183.5 496,-164.5 407,-164.5"/>
<text text-anchor="middle" x="451.5" y="-171.5" font-family="Helvetica,sans-Serif" font-size="10.00">CVector::setZero</text>
</a>
</g>
</g>
<!-- Node3&#45;&gt;Node7 -->
<g id="edge6" class="edge">
<title>Node3&#45;&gt;Node7</title>
<path fill="none" stroke="midnightblue" d="M359.17,-165.47C370.87,-166.56 384.03,-167.79 396.64,-168.97"/>
<polygon fill="midnightblue" stroke="midnightblue" points="396.32,-172.46 406.6,-169.9 396.97,-165.49 396.32,-172.46"/>
</g>
<!-- Node8&#45;&gt;Node4 -->
<g id="edge8" class="edge">
<title>Node8&#45;&gt;Node4</title>
<path fill="none" stroke="midnightblue" d="M357.96,-133.72C362.77,-136.17 367.3,-139.21 371,-143 403.99,-176.81 376.98,-206.53 407,-243 410.41,-247.14 414.66,-250.78 419.16,-253.93"/>
<polygon fill="midnightblue" stroke="midnightblue" points="417.61,-257.09 427.96,-259.37 421.29,-251.13 417.61,-257.09"/>
</g>
<!-- Node8&#45;&gt;Node5 -->
<g id="edge10" class="edge">
<title>Node8&#45;&gt;Node5</title>
<path fill="none" stroke="midnightblue" d="M365.5,-128.06C376.99,-129.14 389.47,-130.3 401.24,-131.4"/>
<polygon fill="midnightblue" stroke="midnightblue" points="401.07,-134.9 411.36,-132.34 401.73,-127.93 401.07,-134.9"/>
</g>
<!-- Node9 -->
<g id="node9" class="node">
<title>Node9</title>
<g id="a_node9"><a xlink:href="a00284.xhtml#a3597bc1b9aa8e068d7313a72c4e51eef" target="_top" xlink:title=" ">
<polygon fill="white" stroke="black" points="407.5,-77 407.5,-107 495.5,-107 495.5,-77 407.5,-77"/>
<text text-anchor="start" x="415.5" y="-95" font-family="Helvetica,sans-Serif" font-size="10.00">LaszloFft::irealfft</text>
<text text-anchor="middle" x="451.5" y="-84" font-family="Helvetica,sans-Serif" font-size="10.00">_split</text>
</a>
</g>
</g>
<!-- Node8&#45;&gt;Node9 -->
<g id="edge9" class="edge">
<title>Node8&#45;&gt;Node9</title>
<path fill="none" stroke="midnightblue" d="M360.21,-114.49C371.88,-111.58 384.94,-108.33 397.41,-105.22"/>
<polygon fill="midnightblue" stroke="midnightblue" points="398.4,-108.58 407.26,-102.77 396.71,-101.79 398.4,-108.58"/>
</g>
<!-- Node10&#45;&gt;Node11 -->
<g id="edge12" class="edge">
<title>Node10&#45;&gt;Node11</title>
<path fill="none" stroke="midnightblue" d="M354.43,-76.41C370.71,-71.6 390.64,-65.7 408.12,-60.53"/>
<polygon fill="midnightblue" stroke="midnightblue" points="409.49,-63.78 418.08,-57.59 407.5,-57.07 409.49,-63.78"/>
</g>
<!-- Node14&#45;&gt;Node4 -->
<g id="edge18" class="edge">
<title>Node14&#45;&gt;Node4</title>
<path fill="none" stroke="midnightblue" d="M209.25,-266.56C224.84,-274.62 248.7,-285.53 271,-290 314.58,-298.74 326.93,-295.72 371,-290 384.52,-288.24 399.01,-284.88 411.87,-281.35"/>
<polygon fill="midnightblue" stroke="midnightblue" points="413.13,-284.62 421.78,-278.5 411.21,-277.89 413.13,-284.62"/>
</g>
<!-- Node16 -->
<g id="node16" class="node">
<title>Node16</title>
<g id="a_node16"><a xlink:href="a00477.xhtml#a34a5c0abd80cd982df8a8bae7cbcea19" target="_top" xlink:title=" ">
<polygon fill="white" stroke="black" points="276.5,-0.5 276.5,-19.5 365.5,-19.5 365.5,-0.5 276.5,-0.5"/>
<text text-anchor="middle" x="321" y="-7.5" font-family="Helvetica,sans-Serif" font-size="10.00">CVector::findMax</text>
</a>
</g>
</g>
<!-- Node15&#45;&gt;Node16 -->
<g id="edge20" class="edge">
<title>Node15&#45;&gt;Node16</title>
<path fill="none" stroke="midnightblue" d="M213.42,-57.46C234.19,-48.21 265.9,-34.09 289.34,-23.65"/>
<polygon fill="midnightblue" stroke="midnightblue" points="290.79,-26.84 298.51,-19.57 287.95,-20.44 290.79,-26.84"/>
</g>
</g>
</svg>
        <g id="navigator" transform="translate(0 0)" fill="#404254">
                <rect fill="#f2f5e9" fill-opacity="0.5" stroke="#606060" stroke-width=".5" x="0" y="0" width="60" height="60"/>
                <use id="zoomplus" xlink:href="#zoomPlus" x="17" y="9" onmousedown="handleZoom(evt,'in')"/>
                <use id="zoomminus" xlink:href="#zoomMin" x="42" y="9" onmousedown="handleZoom(evt,'out')"/>
                <use id="reset" xlink:href="#resetDef" x="30" y="36" onmousedown="handleReset()"/>
                <g id="arrowUp" xlink:href="#dirArrow" transform="translate(30 24)" onmousedown="handlePan(0,-1)">
                  <use xlink:href="#rim" fill="#404040">
                        <set attributeName="fill" to="#808080" begin="arrowUp.mouseover" end="arrowUp.mouseout"/>
                  </use>
                  <path fill="none" stroke="white" stroke-width="1.5" d="M0,-3.0v7 M-2.5,-0.5L0,-3.0L2.5,-0.5"/>
                </g>
                <g id="arrowRight" xlink:href="#dirArrow" transform="rotate(90) translate(36 -43)" onmousedown="handlePan(1,0)">
                  <use xlink:href="#rim" fill="#404040">
                        <set attributeName="fill" to="#808080" begin="arrowRight.mouseover" end="arrowRight.mouseout"/>
                  </use>
                  <path fill="none" stroke="white" stroke-width="1.5" d="M0,-3.0v7 M-2.5,-0.5L0,-3.0L2.5,-0.5"/>
                </g>
                <g id="arrowDown" xlink:href="#dirArrow" transform="rotate(180) translate(-30 -48)" onmousedown="handlePan(0,1)">
                  <use xlink:href="#rim" fill="#404040">
                        <set attributeName="fill" to="#808080" begin="arrowDown.mouseover" end="arrowDown.mouseout"/>
                  </use>
                  <path fill="none" stroke="white" stroke-width="1.5" d="M0,-3.0v7 M-2.5,-0.5L0,-3.0L2.5,-0.5"/>
                </g>
                <g id="arrowLeft" xlink:href="#dirArrow" transform="rotate(270) translate(-36 17)" onmousedown="handlePan(-1,0)">
                  <use xlink:href="#rim" fill="#404040">
                        <set attributeName="fill" to="#808080" begin="arrowLeft.mouseover" end="arrowLeft.mouseout"/>
                  </use>
                  <path fill="none" stroke="white" stroke-width="1.5" d="M0,-3.0v7 M-2.5,-0.5L0,-3.0L2.5,-0.5"/>
                </g>
        </g>
        <svg viewBox="0 0 15 15" width="100%" height="30px" preserveAspectRatio="xMaxYMin meet">
         <g id="arrow_out" transform="scale(0.3 0.3)">
          <a xlink:href="a00329_af20724e23d18c1126e2edf4186cc8005_cgraph_org.svg" target="_base">
           <rect id="button" ry="5" rx="5" y="6" x="6" height="38" width="38"
                fill="#f2f5e9" fill-opacity="0.5" stroke="#606060" stroke-width="1.0"/>
           <path id="arrow"
             d="M 11.500037,31.436501 C 11.940474,20.09759 22.043105,11.32322 32.158766,21.979434 L 37.068811,17.246167 C 37.068811,17.246167 37.088388,32 37.088388,32 L 22.160133,31.978069 C 22.160133,31.978069 26.997745,27.140456 26.997745,27.140456 C 18.528582,18.264221 13.291696,25.230495 11.500037,31.436501 z"
             style="fill:#404040;"/>
          </a>
         </g>
        </svg>
</svg>
