<?xml version="1.0" encoding="UTF-8" standalone="no"?>
<!DOCTYPE svg PUBLIC "-//W3C//DTD SVG 1.1//EN"
 "http://www.w3.org/Graphics/SVG/1.1/DTD/svg11.dtd">
<!-- Generated by graphviz version 12.2.1 (20241206.2353)
 -->
<!-- Title: CFeatureSpectralFlux::CFeatureSpectralFlux Pages: 1 -->
<svg width="547pt" height="114pt"
 viewBox="0.00 0.00 546.75 113.88" xmlns="http://www.w3.org/2000/svg" xmlns:xlink="http://www.w3.org/1999/xlink">
<g id="graph0" class="graph" transform="scale(1 1) rotate(0) translate(4 109.88)">
<title>CFeatureSpectralFlux::CFeatureSpectralFlux</title>
<!-- Node1 -->
<g id="Node000001" class="node">
<title>Node1</title>
<g id="a_Node000001"><a xlink:title="disallow copy construction">
<polygon fill="#999999" stroke="#666666" points="114.25,-73.5 0,-73.5 0,-43 114.25,-43 114.25,-73.5"/>
<text text-anchor="start" x="8" y="-60" font-family="Helvetica,sans-Serif" font-size="10.00">CFeatureSpectralFlux</text>
<text text-anchor="middle" x="57.12" y="-48.75" font-family="Helvetica,sans-Serif" font-size="10.00">::CFeatureSpectralFlux</text>
</a>
</g>
</g>
<!-- Node2 -->
<g id="Node000002" class="node">
<title>Node2</title>
<g id="a_Node000002"><a xlink:href="a00329.xhtml#a1a45f132f54b2f2f3d63f0827dc8300f" target="_top" xlink:title=" ">
<polygon fill="white" stroke="#666666" points="264.5,-73.5 150.25,-73.5 150.25,-43 264.5,-43 264.5,-73.5"/>
<text text-anchor="start" x="158.25" y="-60" font-family="Helvetica,sans-Serif" font-size="10.00">CFeatureSpectralFlux</text>
<text text-anchor="middle" x="207.38" y="-48.75" font-family="Helvetica,sans-Serif" font-size="10.00">::CFeatureSpectralFlux</text>
</a>
</g>
</g>
<!-- Node1&#45;&gt;Node2 -->
<g id="edge1_Node000001_Node000002" class="edge">
<title>Node1&#45;&gt;Node2</title>
<g id="a_edge1_Node000001_Node000002"><a xlink:title=" ">
<path fill="none" stroke="#63b8ff" d="M114.59,-58.25C122.49,-58.25 130.67,-58.25 138.75,-58.25"/>
<polygon fill="#63b8ff" stroke="#63b8ff" points="138.55,-61.75 148.55,-58.25 138.55,-54.75 138.55,-61.75"/>
</a>
</g>
</g>
<!-- Node3 -->
<g id="Node000003" class="node">
<title>Node3</title>
<g id="a_Node000003"><a xlink:href="a00505.xhtml#abaadac98b1cad18b7b568852bc951696" target="_top" xlink:title=" ">
<polygon fill="white" stroke="#666666" points="395.25,-105.88 319.25,-105.88 319.25,-86.62 395.25,-86.62 395.25,-105.88"/>
<text text-anchor="middle" x="357.25" y="-92.38" font-family="Helvetica,sans-Serif" font-size="10.00">CVector::alloc</text>
</a>
</g>
</g>
<!-- Node2&#45;&gt;Node3 -->
<g id="edge2_Node000002_Node000003" class="edge">
<title>Node2&#45;&gt;Node3</title>
<g id="a_edge2_Node000002_Node000003"><a xlink:title=" ">
<path fill="none" stroke="#63b8ff" d="M264.7,-72.72C279,-76.4 294.23,-80.31 308.08,-83.87"/>
<polygon fill="#63b8ff" stroke="#63b8ff" points="306.83,-87.16 317.38,-86.26 308.57,-80.38 306.83,-87.16"/>
</a>
</g>
</g>
<!-- Node4 -->
<g id="Node000004" class="node">
<title>Node4</title>
<g id="a_Node000004"><a xlink:href="a00505.xhtml#a6dbb3f9f480568b60f7fe50090d20003" target="_top" xlink:title=" ">
<polygon fill="white" stroke="#666666" points="538.75,-86.88 450,-86.88 450,-67.62 538.75,-67.62 538.75,-86.88"/>
<text text-anchor="middle" x="494.38" y="-73.38" font-family="Helvetica,sans-Serif" font-size="10.00">CVector::setZero</text>
</a>
</g>
</g>
<!-- Node2&#45;&gt;Node4 -->
<g id="edge5_Node000002_Node000004" class="edge">
<title>Node2&#45;&gt;Node4</title>
<g id="a_edge5_Node000002_Node000004"><a xlink:title=" ">
<path fill="none" stroke="#63b8ff" d="M264.68,-62C315.1,-65.36 388.57,-70.26 438.54,-73.59"/>
<polygon fill="#63b8ff" stroke="#63b8ff" points="438.04,-77.07 448.25,-74.24 438.51,-70.08 438.04,-77.07"/>
</a>
</g>
</g>
<!-- Node5 -->
<g id="Node000005" class="node">
<title>Node5</title>
<g id="a_Node000005"><a xlink:href="a00473.xhtml#a483bca508e2817799a3173a6180d245e" target="_top" xlink:title=" ">
<polygon fill="white" stroke="#666666" points="414,-30.5 300.5,-30.5 300.5,0 414,0 414,-30.5"/>
<text text-anchor="start" x="308.5" y="-17" font-family="Helvetica,sans-Serif" font-size="10.00">CFeatureFromBlockIf</text>
<text text-anchor="middle" x="357.25" y="-5.75" font-family="Helvetica,sans-Serif" font-size="10.00">::CFeatureFromBlockIf</text>
</a>
</g>
</g>
<!-- Node2&#45;&gt;Node5 -->
<g id="edge4_Node000002_Node000005" class="edge">
<title>Node2&#45;&gt;Node5</title>
<g id="a_edge4_Node000002_Node000005"><a xlink:title=" ">
<path fill="none" stroke="#63b8ff" d="M262.18,-42.6C271.66,-39.85 281.62,-36.95 291.36,-34.12"/>
<polygon fill="#63b8ff" stroke="#63b8ff" points="292.16,-37.53 300.78,-31.38 290.2,-30.81 292.16,-37.53"/>
</a>
</g>
</g>
<!-- Node3&#45;&gt;Node4 -->
<g id="edge3_Node000003_Node000004" class="edge">
<title>Node3&#45;&gt;Node4</title>
<g id="a_edge3_Node000003_Node000004"><a xlink:title=" ">
<path fill="none" stroke="#63b8ff" d="M395.53,-91.01C408.72,-89.15 423.85,-87.03 438.21,-85.01"/>
<polygon fill="#63b8ff" stroke="#63b8ff" points="438.6,-88.49 448.01,-83.63 437.62,-81.56 438.6,-88.49"/>
</a>
</g>
</g>
</g>
</svg>
