<?xml version="1.0" encoding="UTF-8" standalone="no"?>
<!DOCTYPE svg PUBLIC "-//W3C//DTD SVG 1.1//EN"
 "http://www.w3.org/Graphics/SVG/1.1/DTD/svg11.dtd">
<!-- Generated by graphviz version 12.2.1 (20241206.2353)
 -->
<!-- Title: CFeatureTimeMaxAcf::CFeatureTimeMaxAcf Pages: 1 -->
<svg width="548pt" height="76pt"
 viewBox="0.00 0.00 548.25 75.88" xmlns="http://www.w3.org/2000/svg" xmlns:xlink="http://www.w3.org/1999/xlink">
<g id="graph0" class="graph" transform="scale(1 1) rotate(0) translate(4 71.88)">
<title>CFeatureTimeMaxAcf::CFeatureTimeMaxAcf</title>
<!-- Node1 -->
<g id="Node000001" class="node">
<title>Node1</title>
<g id="a_Node000001"><a xlink:title="disallow copy construction">
<polygon fill="#999999" stroke="#666666" points="115,-51.5 0,-51.5 0,-21 115,-21 115,-51.5"/>
<text text-anchor="start" x="8" y="-38" font-family="Helvetica,sans-Serif" font-size="10.00">CFeatureTimeMaxAcf</text>
<text text-anchor="middle" x="57.5" y="-26.75" font-family="Helvetica,sans-Serif" font-size="10.00">::CFeatureTimeMaxAcf</text>
</a>
</g>
</g>
<!-- Node2 -->
<g id="Node000002" class="node">
<title>Node2</title>
<g id="a_Node000002"><a xlink:href="a00353.xhtml#a541f40820696e37cc302fc780b8313ee" target="_top" xlink:title=" ">
<polygon fill="white" stroke="#666666" points="266,-51.5 151,-51.5 151,-21 266,-21 266,-51.5"/>
<text text-anchor="start" x="159" y="-38" font-family="Helvetica,sans-Serif" font-size="10.00">CFeatureTimeMaxAcf</text>
<text text-anchor="middle" x="208.5" y="-26.75" font-family="Helvetica,sans-Serif" font-size="10.00">::CFeatureTimeMaxAcf</text>
</a>
</g>
</g>
<!-- Node1&#45;&gt;Node2 -->
<g id="edge1_Node000001_Node000002" class="edge">
<title>Node1&#45;&gt;Node2</title>
<g id="a_edge1_Node000001_Node000002"><a xlink:title=" ">
<path fill="none" stroke="#63b8ff" d="M115.26,-36.25C123.19,-36.25 131.42,-36.25 139.53,-36.25"/>
<polygon fill="#63b8ff" stroke="#63b8ff" points="139.39,-39.75 149.39,-36.25 139.39,-32.75 139.39,-39.75"/>
</a>
</g>
</g>
<!-- Node3 -->
<g id="Node000003" class="node">
<title>Node3</title>
<g id="a_Node000003"><a xlink:href="a00505.xhtml#abaadac98b1cad18b7b568852bc951696" target="_top" xlink:title=" ">
<polygon fill="white" stroke="#666666" points="396.75,-67.88 320.75,-67.88 320.75,-48.62 396.75,-48.62 396.75,-67.88"/>
<text text-anchor="middle" x="358.75" y="-54.38" font-family="Helvetica,sans-Serif" font-size="10.00">CVector::alloc</text>
</a>
</g>
</g>
<!-- Node2&#45;&gt;Node3 -->
<g id="edge2_Node000002_Node000003" class="edge">
<title>Node2&#45;&gt;Node3</title>
<g id="a_edge2_Node000002_Node000003"><a xlink:title=" ">
<path fill="none" stroke="#63b8ff" d="M266.39,-44.69C280.56,-46.79 295.61,-49.03 309.32,-51.06"/>
<polygon fill="#63b8ff" stroke="#63b8ff" points="308.57,-54.49 318.97,-52.5 309.6,-47.57 308.57,-54.49"/>
</a>
</g>
</g>
<!-- Node5 -->
<g id="Node000005" class="node">
<title>Node5</title>
<g id="a_Node000005"><a xlink:href="a00473.xhtml#a483bca508e2817799a3173a6180d245e" target="_top" xlink:title=" ">
<polygon fill="white" stroke="#666666" points="415.5,-30.5 302,-30.5 302,0 415.5,0 415.5,-30.5"/>
<text text-anchor="start" x="310" y="-17" font-family="Helvetica,sans-Serif" font-size="10.00">CFeatureFromBlockIf</text>
<text text-anchor="middle" x="358.75" y="-5.75" font-family="Helvetica,sans-Serif" font-size="10.00">::CFeatureFromBlockIf</text>
</a>
</g>
</g>
<!-- Node2&#45;&gt;Node5 -->
<g id="edge4_Node000002_Node000005" class="edge">
<title>Node2&#45;&gt;Node5</title>
<g id="a_edge4_Node000002_Node000005"><a xlink:title=" ">
<path fill="none" stroke="#63b8ff" d="M266.39,-28.19C274.27,-27.07 282.43,-25.92 290.48,-24.78"/>
<polygon fill="#63b8ff" stroke="#63b8ff" points="290.83,-28.26 300.24,-23.4 289.85,-21.33 290.83,-28.26"/>
</a>
</g>
</g>
<!-- Node4 -->
<g id="Node000004" class="node">
<title>Node4</title>
<g id="a_Node000004"><a xlink:href="a00505.xhtml#a6dbb3f9f480568b60f7fe50090d20003" target="_top" xlink:title=" ">
<polygon fill="white" stroke="#666666" points="540.25,-67.88 451.5,-67.88 451.5,-48.62 540.25,-48.62 540.25,-67.88"/>
<text text-anchor="middle" x="495.88" y="-54.38" font-family="Helvetica,sans-Serif" font-size="10.00">CVector::setZero</text>
</a>
</g>
</g>
<!-- Node3&#45;&gt;Node4 -->
<g id="edge3_Node000003_Node000004" class="edge">
<title>Node3&#45;&gt;Node4</title>
<g id="a_edge3_Node000003_Node000004"><a xlink:title=" ">
<path fill="none" stroke="#63b8ff" d="M397.03,-58.25C410.22,-58.25 425.35,-58.25 439.71,-58.25"/>
<polygon fill="#63b8ff" stroke="#63b8ff" points="439.5,-61.75 449.5,-58.25 439.5,-54.75 439.5,-61.75"/>
</a>
</g>
</g>
</g>
</svg>
