<?xml version="1.0" encoding="UTF-8" standalone="no"?>
<!DOCTYPE svg PUBLIC "-//W3C//DTD SVG 1.1//EN"
 "http://www.w3.org/Graphics/SVG/1.1/DTD/svg11.dtd">
<!-- Generated by graphviz version 4.0.0 (20220602.1335)
 -->
<!-- Title: CPitchSpectralAcf::compF0 Pages: 1 -->
<svg width="554pt" height="380pt"
 viewBox="0.00 0.00 554.00 379.75" xmlns="http://www.w3.org/2000/svg" xmlns:xlink="http://www.w3.org/1999/xlink">
<g id="graph0" class="graph" transform="scale(1 1) rotate(0) translate(4 375.75)">
<title>CPitchSpectralAcf::compF0</title>
<polygon fill="white" stroke="transparent" points="-4,4 -4,-375.75 550,-375.75 550,4 -4,4"/>
<!-- Node1 -->
<g id="node1" class="node">
<title>Node1</title>
<g id="a_node1"><a xlink:title=" ">
<polygon fill="#bfbfbf" stroke="black" points="0,-128 0,-158 101,-158 101,-128 0,-128"/>
<text text-anchor="start" x="8" y="-146" font-family="Helvetica,sans-Serif" font-size="10.00">CPitchSpectralAcf::</text>
<text text-anchor="middle" x="50.5" y="-135" font-family="Helvetica,sans-Serif" font-size="10.00">compF0</text>
</a>
</g>
</g>
<!-- Node2 -->
<g id="node2" class="node">
<title>Node2</title>
<g id="a_node2"><a xlink:href="a00517.xhtml#a4d7d19dd39b24147d9a1fab5d7e05257" target="_top" xlink:title=" ">
<polygon fill="white" stroke="black" points="170,-190.5 170,-209.5 252,-209.5 252,-190.5 170,-190.5"/>
<text text-anchor="middle" x="211" y="-197.5" font-family="Helvetica,sans-Serif" font-size="10.00">CCcf::compCcf</text>
</a>
</g>
</g>
<!-- Node1&#45;&gt;Node2 -->
<g id="edge1" class="edge">
<title>Node1&#45;&gt;Node2</title>
<path fill="none" stroke="midnightblue" d="M82.27,-158.14C98.33,-165.67 118.45,-174.51 137,-181 144.39,-183.58 152.31,-186 160.1,-188.18"/>
<polygon fill="midnightblue" stroke="midnightblue" points="159.3,-191.59 169.86,-190.81 161.12,-184.83 159.3,-191.59"/>
</g>
<!-- Node4 -->
<g id="node4" class="node">
<title>Node4</title>
<g id="a_node4"><a xlink:href="a00477.xhtml#ad7c5cba73e439adac77778f61c9418f0" target="_top" xlink:title=" ">
<polygon fill="white" stroke="black" points="463,-345.5 463,-364.5 540,-364.5 540,-345.5 463,-345.5"/>
<text text-anchor="middle" x="501.5" y="-352.5" font-family="Helvetica,sans-Serif" font-size="10.00">CVector::copy</text>
</a>
</g>
</g>
<!-- Node1&#45;&gt;Node4 -->
<g id="edge19" class="edge">
<title>Node1&#45;&gt;Node4</title>
<path fill="none" stroke="midnightblue" d="M54.4,-158.2C61.7,-192.05 84.16,-273.82 137,-314 230.06,-384.77 377.25,-374.96 452.6,-363.86"/>
<polygon fill="midnightblue" stroke="midnightblue" points="453.39,-367.28 462.74,-362.3 452.32,-360.37 453.39,-367.28"/>
</g>
<!-- Node14 -->
<g id="node14" class="node">
<title>Node14</title>
<g id="a_node14"><a xlink:href="a00521.xhtml#aebe59f905b1dd02058cccbb062de6507" target="_top" xlink:title=" ">
<polygon fill="white" stroke="black" points="137,-152.5 137,-171.5 285,-171.5 285,-152.5 137,-152.5"/>
<text text-anchor="middle" x="211" y="-159.5" font-family="Helvetica,sans-Serif" font-size="10.00">CConversion::convertBin2Freq</text>
</a>
</g>
</g>
<!-- Node1&#45;&gt;Node14 -->
<g id="edge17" class="edge">
<title>Node1&#45;&gt;Node14</title>
<path fill="none" stroke="midnightblue" d="M101.22,-148.96C109.46,-149.95 118.2,-151 127.01,-152.05"/>
<polygon fill="midnightblue" stroke="midnightblue" points="126.61,-155.53 136.95,-153.24 127.44,-148.58 126.61,-155.53"/>
</g>
<!-- Node15 -->
<g id="node15" class="node">
<title>Node15</title>
<g id="a_node15"><a xlink:href="a00521.xhtml#ada82d84a69f4c77266835f1f06ca2ecb" target="_top" xlink:title=" ">
<polygon fill="white" stroke="black" points="137,-114.5 137,-133.5 285,-133.5 285,-114.5 137,-114.5"/>
<text text-anchor="middle" x="211" y="-121.5" font-family="Helvetica,sans-Serif" font-size="10.00">CConversion::convertFreq2Bin</text>
</a>
</g>
</g>
<!-- Node1&#45;&gt;Node15 -->
<g id="edge18" class="edge">
<title>Node1&#45;&gt;Node15</title>
<path fill="none" stroke="midnightblue" d="M101.22,-137.04C109.46,-136.05 118.2,-135 127.01,-133.95"/>
<polygon fill="midnightblue" stroke="midnightblue" points="127.44,-137.42 136.95,-132.76 126.61,-130.47 127.44,-137.42"/>
</g>
<!-- Node16 -->
<g id="node16" class="node">
<title>Node16</title>
<g id="a_node16"><a xlink:href="a00477.xhtml#a34a5c0abd80cd982df8a8bae7cbcea19" target="_top" xlink:title=" ">
<polygon fill="white" stroke="black" points="326.5,-38.5 326.5,-57.5 415.5,-57.5 415.5,-38.5 326.5,-38.5"/>
<text text-anchor="middle" x="371" y="-45.5" font-family="Helvetica,sans-Serif" font-size="10.00">CVector::findMax</text>
</a>
</g>
</g>
<!-- Node1&#45;&gt;Node16 -->
<g id="edge20" class="edge">
<title>Node1&#45;&gt;Node16</title>
<path fill="none" stroke="midnightblue" d="M81.84,-127.93C97.95,-120.33 118.25,-111.4 137,-105 169.9,-93.76 259.01,-72.94 317,-59.81"/>
<polygon fill="midnightblue" stroke="midnightblue" points="318.11,-63.15 327.09,-57.53 316.57,-56.32 318.11,-63.15"/>
</g>
<!-- Node17 -->
<g id="node17" class="node">
<title>Node17</title>
<g id="a_node17"><a xlink:href="a00477.xhtml#a16455e414da1bc89417716b46b212ab9" target="_top" xlink:title=" ">
<polygon fill="white" stroke="black" points="172.5,-0.5 172.5,-19.5 249.5,-19.5 249.5,-0.5 172.5,-0.5"/>
<text text-anchor="middle" x="211" y="-7.5" font-family="Helvetica,sans-Serif" font-size="10.00">CVector::flip_I</text>
</a>
</g>
</g>
<!-- Node1&#45;&gt;Node17 -->
<g id="edge21" class="edge">
<title>Node1&#45;&gt;Node17</title>
<path fill="none" stroke="midnightblue" d="M58.61,-127.84C70.97,-103.2 98.79,-54.64 137,-29 144.67,-23.86 153.65,-20.1 162.64,-17.37"/>
<polygon fill="midnightblue" stroke="midnightblue" points="163.57,-20.74 172.33,-14.78 161.77,-13.98 163.57,-20.74"/>
</g>
<!-- Node18 -->
<g id="node18" class="node">
<title>Node18</title>
<g id="a_node18"><a xlink:href="a00517.xhtml#a02c0e23cbcecab5af2fb20a25160321a" target="_top" xlink:title=" ">
<polygon fill="white" stroke="black" points="175.5,-285.5 175.5,-304.5 246.5,-304.5 246.5,-285.5 175.5,-285.5"/>
<text text-anchor="middle" x="211" y="-292.5" font-family="Helvetica,sans-Serif" font-size="10.00">CCcf::getCcf</text>
</a>
</g>
</g>
<!-- Node1&#45;&gt;Node18 -->
<g id="edge22" class="edge">
<title>Node1&#45;&gt;Node18</title>
<path fill="none" stroke="midnightblue" d="M67.28,-158.13C97.03,-186.67 161.25,-248.25 192.37,-278.1"/>
<polygon fill="midnightblue" stroke="midnightblue" points="190.24,-280.9 199.88,-285.29 195.08,-275.85 190.24,-280.9"/>
</g>
<!-- Node19 -->
<g id="node19" class="node">
<title>Node19</title>
<g id="a_node19"><a xlink:href="a00477.xhtml#a9f5be871090bc5a64a7732cebfb4f8ec" target="_top" xlink:title=" ">
<polygon fill="white" stroke="black" points="167,-38.5 167,-57.5 255,-57.5 255,-38.5 167,-38.5"/>
<text text-anchor="middle" x="211" y="-45.5" font-family="Helvetica,sans-Serif" font-size="10.00">CVector::getMax</text>
</a>
</g>
</g>
<!-- Node1&#45;&gt;Node19 -->
<g id="edge24" class="edge">
<title>Node1&#45;&gt;Node19</title>
<path fill="none" stroke="midnightblue" d="M66.26,-127.73C82.34,-111.85 109.48,-87.22 137,-72 144.8,-67.68 153.51,-63.98 162.11,-60.88"/>
<polygon fill="midnightblue" stroke="midnightblue" points="163.38,-64.14 171.73,-57.61 161.14,-57.51 163.38,-64.14"/>
</g>
<!-- Node3 -->
<g id="node3" class="node">
<title>Node3</title>
<g id="a_node3"><a xlink:href="a00449.xhtml#a3cae73896785c2f12ba979e15de48087" target="_top" xlink:title=" ">
<polygon fill="white" stroke="black" points="333,-266.5 333,-285.5 409,-285.5 409,-266.5 333,-266.5"/>
<text text-anchor="middle" x="371" y="-273.5" font-family="Helvetica,sans-Serif" font-size="10.00">CFft::compFft</text>
</a>
</g>
</g>
<!-- Node2&#45;&gt;Node3 -->
<g id="edge2" class="edge">
<title>Node2&#45;&gt;Node3</title>
<path fill="none" stroke="midnightblue" d="M229.07,-209.69C250.28,-221.55 287.74,-241.91 321,-257 325.23,-258.92 329.71,-260.82 334.18,-262.65"/>
<polygon fill="midnightblue" stroke="midnightblue" points="333.25,-266.04 343.84,-266.48 335.83,-259.54 333.25,-266.04"/>
</g>
<!-- Node2&#45;&gt;Node4 -->
<g id="edge13" class="edge">
<title>Node2&#45;&gt;Node4</title>
<path fill="none" stroke="midnightblue" d="M220.64,-209.78C237.91,-228.77 278.69,-270.9 321,-295 361.67,-318.17 376.62,-313.14 421,-328 434.66,-332.57 449.62,-337.64 462.84,-342.13"/>
<polygon fill="midnightblue" stroke="midnightblue" points="461.96,-345.53 472.56,-345.44 464.22,-338.91 461.96,-345.53"/>
</g>
<!-- Node8 -->
<g id="node8" class="node">
<title>Node8</title>
<g id="a_node8"><a xlink:href="a00449.xhtml#a2d2fa880b32c7087973ed25628002129" target="_top" xlink:title=" ">
<polygon fill="white" stroke="black" points="326.5,-228.5 326.5,-247.5 415.5,-247.5 415.5,-228.5 326.5,-228.5"/>
<text text-anchor="middle" x="371" y="-235.5" font-family="Helvetica,sans-Serif" font-size="10.00">CFft::compInvFft</text>
</a>
</g>
</g>
<!-- Node2&#45;&gt;Node8 -->
<g id="edge7" class="edge">
<title>Node2&#45;&gt;Node8</title>
<path fill="none" stroke="midnightblue" d="M251.87,-209.59C272.72,-214.6 298.43,-220.79 320.54,-226.11"/>
<polygon fill="midnightblue" stroke="midnightblue" points="319.88,-229.54 330.42,-228.48 321.51,-222.74 319.88,-229.54"/>
</g>
<!-- Node10 -->
<g id="node10" class="node">
<title>Node10</title>
<g id="a_node10"><a xlink:href="a00449.xhtml#ab6245bc0fdabc5e62ab910414eb4b923" target="_top" xlink:title=" ">
<polygon fill="white" stroke="black" points="326,-190.5 326,-209.5 416,-209.5 416,-190.5 326,-190.5"/>
<text text-anchor="middle" x="371" y="-197.5" font-family="Helvetica,sans-Serif" font-size="10.00">CFft::conjugate_I</text>
</a>
</g>
</g>
<!-- Node2&#45;&gt;Node10 -->
<g id="edge11" class="edge">
<title>Node2&#45;&gt;Node10</title>
<path fill="none" stroke="midnightblue" d="M252.28,-200C271.61,-200 295.04,-200 315.9,-200"/>
<polygon fill="midnightblue" stroke="midnightblue" points="315.9,-203.5 325.9,-200 315.9,-196.5 315.9,-203.5"/>
</g>
<!-- Node11 -->
<g id="node11" class="node">
<title>Node11</title>
<g id="a_node11"><a xlink:href="a00477.xhtml#a9811f50434dd058d201290b2dc98bfcd" target="_top" xlink:title=" ">
<polygon fill="white" stroke="black" points="458,-105.5 458,-124.5 545,-124.5 545,-105.5 458,-105.5"/>
<text text-anchor="middle" x="501.5" y="-112.5" font-family="Helvetica,sans-Serif" font-size="10.00">CVector::mulC_I</text>
</a>
</g>
</g>
<!-- Node2&#45;&gt;Node11 -->
<g id="edge14" class="edge">
<title>Node2&#45;&gt;Node11</title>
<path fill="none" stroke="midnightblue" d="M252.07,-196.06C263.68,-193.3 275.72,-188.68 285,-181 313.79,-157.17 289.42,-124.99 321,-105 365.18,-77.04 428.41,-89.96 466.83,-102.22"/>
<polygon fill="midnightblue" stroke="midnightblue" points="465.92,-105.61 476.51,-105.47 468.14,-98.97 465.92,-105.61"/>
</g>
<!-- Node12 -->
<g id="node12" class="node">
<title>Node12</title>
<g id="a_node12"><a xlink:href="a00477.xhtml#a269d316eeb6000aac4f57ade32c83127" target="_top" xlink:title=" ">
<polygon fill="white" stroke="black" points="321,-152.5 321,-171.5 421,-171.5 421,-152.5 321,-152.5"/>
<text text-anchor="middle" x="371" y="-159.5" font-family="Helvetica,sans-Serif" font-size="10.00">CVector::mulScalar</text>
</a>
</g>
</g>
<!-- Node2&#45;&gt;Node12 -->
<g id="edge15" class="edge">
<title>Node2&#45;&gt;Node12</title>
<path fill="none" stroke="midnightblue" d="M251.87,-190.41C272.72,-185.4 298.43,-179.21 320.54,-173.89"/>
<polygon fill="midnightblue" stroke="midnightblue" points="321.51,-177.26 330.42,-171.52 319.88,-170.46 321.51,-177.26"/>
</g>
<!-- Node13 -->
<g id="node13" class="node">
<title>Node13</title>
<g id="a_node13"><a xlink:href="a00449.xhtml#a1d114960d5fc8ff4c328732adf638885" target="_top" xlink:title=" ">
<polygon fill="white" stroke="black" points="330.5,-114.5 330.5,-133.5 411.5,-133.5 411.5,-114.5 330.5,-114.5"/>
<text text-anchor="middle" x="371" y="-121.5" font-family="Helvetica,sans-Serif" font-size="10.00">CFft::multiply_I</text>
</a>
</g>
</g>
<!-- Node2&#45;&gt;Node13 -->
<g id="edge16" class="edge">
<title>Node2&#45;&gt;Node13</title>
<path fill="none" stroke="midnightblue" d="M252.23,-193.76C263.35,-190.94 275.08,-186.86 285,-181 305.03,-169.17 301.68,-155.97 321,-143 323.77,-141.14 326.74,-139.43 329.8,-137.86"/>
<polygon fill="midnightblue" stroke="midnightblue" points="331.54,-140.91 339.16,-133.56 328.61,-134.55 331.54,-140.91"/>
</g>
<!-- Node3&#45;&gt;Node4 -->
<g id="edge3" class="edge">
<title>Node3&#45;&gt;Node4</title>
<path fill="none" stroke="midnightblue" d="M395.33,-285.51C403.76,-289.43 413.14,-294.38 421,-300 439.41,-313.16 438.31,-323.25 457,-336 459.57,-337.75 462.33,-339.4 465.17,-340.94"/>
<polygon fill="midnightblue" stroke="midnightblue" points="463.84,-344.19 474.36,-345.47 466.93,-337.91 463.84,-344.19"/>
</g>
<!-- Node5 -->
<g id="node5" class="node">
<title>Node5</title>
<g id="a_node5"><a xlink:href="a00477.xhtml#a5fb59528a3f5d3968f988d550b270898" target="_top" xlink:title=" ">
<polygon fill="white" stroke="black" points="461.5,-219.5 461.5,-238.5 541.5,-238.5 541.5,-219.5 461.5,-219.5"/>
<text text-anchor="middle" x="501.5" y="-226.5" font-family="Helvetica,sans-Serif" font-size="10.00">CVector::mul_I</text>
</a>
</g>
</g>
<!-- Node3&#45;&gt;Node5 -->
<g id="edge4" class="edge">
<title>Node3&#45;&gt;Node5</title>
<path fill="none" stroke="midnightblue" d="M398,-266.49C417.12,-259.5 443.35,-249.9 464.48,-242.17"/>
<polygon fill="midnightblue" stroke="midnightblue" points="465.9,-245.38 474.09,-238.66 463.5,-238.81 465.9,-245.38"/>
</g>
<!-- Node6 -->
<g id="node6" class="node">
<title>Node6</title>
<g id="a_node6"><a xlink:href="a00284.xhtml#a32fc71031e721d003fd1dc07f771351d" target="_top" xlink:title=" ">
<polygon fill="white" stroke="black" points="458.5,-258 458.5,-288 544.5,-288 544.5,-258 458.5,-258"/>
<text text-anchor="start" x="466.5" y="-276" font-family="Helvetica,sans-Serif" font-size="10.00">LaszloFft::realfft</text>
<text text-anchor="middle" x="501.5" y="-265" font-family="Helvetica,sans-Serif" font-size="10.00">_split</text>
</a>
</g>
</g>
<!-- Node3&#45;&gt;Node6 -->
<g id="edge5" class="edge">
<title>Node3&#45;&gt;Node6</title>
<path fill="none" stroke="midnightblue" d="M409.17,-275.13C421.33,-274.85 435.08,-274.53 448.15,-274.22"/>
<polygon fill="midnightblue" stroke="midnightblue" points="448.53,-277.71 458.45,-273.98 448.37,-270.72 448.53,-277.71"/>
</g>
<!-- Node7 -->
<g id="node7" class="node">
<title>Node7</title>
<g id="a_node7"><a xlink:href="a00477.xhtml#a6dbb3f9f480568b60f7fe50090d20003" target="_top" xlink:title=" ">
<polygon fill="white" stroke="black" points="457,-307.5 457,-326.5 546,-326.5 546,-307.5 457,-307.5"/>
<text text-anchor="middle" x="501.5" y="-314.5" font-family="Helvetica,sans-Serif" font-size="10.00">CVector::setZero</text>
</a>
</g>
</g>
<!-- Node3&#45;&gt;Node7 -->
<g id="edge6" class="edge">
<title>Node3&#45;&gt;Node7</title>
<path fill="none" stroke="midnightblue" d="M401.8,-285.51C419.36,-291.11 441.78,-298.26 460.81,-304.34"/>
<polygon fill="midnightblue" stroke="midnightblue" points="459.82,-307.69 470.41,-307.4 461.95,-301.03 459.82,-307.69"/>
</g>
<!-- Node8&#45;&gt;Node4 -->
<g id="edge8" class="edge">
<title>Node8&#45;&gt;Node4</title>
<path fill="none" stroke="midnightblue" d="M406.68,-247.51C411.89,-250 416.89,-253.12 421,-257 449.06,-283.49 429.5,-308.93 457,-336 458.45,-337.43 460.03,-338.76 461.7,-340"/>
<polygon fill="midnightblue" stroke="midnightblue" points="460.23,-343.21 470.59,-345.44 463.89,-337.24 460.23,-343.21"/>
</g>
<!-- Node8&#45;&gt;Node5 -->
<g id="edge10" class="edge">
<title>Node8&#45;&gt;Node5</title>
<path fill="none" stroke="midnightblue" d="M415.5,-234.95C426.99,-234.15 439.47,-233.27 451.24,-232.45"/>
<polygon fill="midnightblue" stroke="midnightblue" points="451.63,-235.93 461.36,-231.74 451.14,-228.95 451.63,-235.93"/>
</g>
<!-- Node9 -->
<g id="node9" class="node">
<title>Node9</title>
<g id="a_node9"><a xlink:href="a00284.xhtml#a3597bc1b9aa8e068d7313a72c4e51eef" target="_top" xlink:title=" ">
<polygon fill="white" stroke="black" points="457.5,-170 457.5,-200 545.5,-200 545.5,-170 457.5,-170"/>
<text text-anchor="start" x="465.5" y="-188" font-family="Helvetica,sans-Serif" font-size="10.00">LaszloFft::irealfft</text>
<text text-anchor="middle" x="501.5" y="-177" font-family="Helvetica,sans-Serif" font-size="10.00">_split</text>
</a>
</g>
</g>
<!-- Node8&#45;&gt;Node9 -->
<g id="edge9" class="edge">
<title>Node8&#45;&gt;Node9</title>
<path fill="none" stroke="midnightblue" d="M396.99,-228.5C404.71,-225.51 413.23,-222.17 421,-219 432.51,-214.31 444.89,-209.09 456.38,-204.19"/>
<polygon fill="midnightblue" stroke="midnightblue" points="457.97,-207.31 465.78,-200.15 455.21,-200.88 457.97,-207.31"/>
</g>
<!-- Node10&#45;&gt;Node11 -->
<g id="edge12" class="edge">
<title>Node10&#45;&gt;Node11</title>
<path fill="none" stroke="midnightblue" d="M401.23,-190.45C407.92,-187.78 414.86,-184.61 421,-181 444.49,-167.19 468.09,-146.54 483.4,-132.02"/>
<polygon fill="midnightblue" stroke="midnightblue" points="486.25,-134.14 491,-124.67 481.38,-129.11 486.25,-134.14"/>
</g>
<!-- Node18&#45;&gt;Node4 -->
<g id="edge23" class="edge">
<title>Node18&#45;&gt;Node4</title>
<path fill="none" stroke="midnightblue" d="M239.48,-304.53C261.35,-311.81 292.84,-321.65 321,-328 365.07,-337.93 416.07,-345.21 452.42,-349.69"/>
<polygon fill="midnightblue" stroke="midnightblue" points="452.39,-353.21 462.73,-350.93 453.22,-346.26 452.39,-353.21"/>
</g>
<!-- Node19&#45;&gt;Node16 -->
<g id="edge25" class="edge">
<title>Node19&#45;&gt;Node16</title>
<path fill="none" stroke="midnightblue" d="M255.17,-48C274,-48 296.28,-48 316.17,-48"/>
<polygon fill="midnightblue" stroke="midnightblue" points="316.33,-51.5 326.33,-48 316.33,-44.5 316.33,-51.5"/>
</g>
</g>
</svg>
