<?xml version="1.0" encoding="UTF-8" standalone="no"?>
<!DOCTYPE svg PUBLIC "-//W3C//DTD SVG 1.1//EN"
 "http://www.w3.org/Graphics/SVG/1.1/DTD/svg11.dtd">
<!-- Generated by graphviz version 6.0.1 (20220911.1526)
 -->
<!-- Title: CFeatureSpectralFlux::CFeatureSpectralFlux Pages: 1 -->
<svg width="361pt" height="52pt"
 viewBox="0.00 0.00 361.00 51.50" xmlns="http://www.w3.org/2000/svg" xmlns:xlink="http://www.w3.org/1999/xlink">
<g id="graph0" class="graph" transform="scale(1 1) rotate(0) translate(4 47.5)">
<title>CFeatureSpectralFlux::CFeatureSpectralFlux</title>
<!-- Node1 -->
<g id="node1" class="node">
<title>Node1</title>
<g id="a_node1"><a xlink:title=" ">
<polygon fill="#999999" stroke="#666666" points="115,-30 0,-30 0,0 115,0 115,-30"/>
<text text-anchor="start" x="8" y="-18" font-family="Helvetica,sans-Serif" font-size="10.00">CFeatureSpectralFlux</text>
<text text-anchor="middle" x="57.5" y="-7" font-family="Helvetica,sans-Serif" font-size="10.00">::CFeatureSpectralFlux</text>
</a>
</g>
</g>
<!-- Node2 -->
<g id="node2" class="node">
<title>Node2</title>
<g id="a_node2"><a xlink:href="a00502.xhtml#abaadac98b1cad18b7b568852bc951696" target="_top" xlink:title=" ">
<polygon fill="white" stroke="#666666" points="228,-43.5 151,-43.5 151,-24.5 228,-24.5 228,-43.5"/>
<text text-anchor="middle" x="189.5" y="-31.5" font-family="Helvetica,sans-Serif" font-size="10.00">CVector::alloc</text>
</a>
</g>
</g>
<!-- Node1&#45;&gt;Node2 -->
<g id="edge1" class="edge">
<title>Node1&#45;&gt;Node2</title>
<path fill="none" stroke="#63b8ff" d="M115.14,-23.28C123.7,-24.53 132.46,-25.81 140.81,-27.03"/>
<polygon fill="#63b8ff" stroke="#63b8ff" points="140.34,-30.5 150.75,-28.48 141.36,-23.57 140.34,-30.5"/>
</g>
<!-- Node3 -->
<g id="node3" class="node">
<title>Node3</title>
<g id="a_node3"><a xlink:href="a00502.xhtml#a6dbb3f9f480568b60f7fe50090d20003" target="_top" xlink:title=" ">
<polygon fill="white" stroke="#666666" points="353,-24.5 264,-24.5 264,-5.5 353,-5.5 353,-24.5"/>
<text text-anchor="middle" x="308.5" y="-12.5" font-family="Helvetica,sans-Serif" font-size="10.00">CVector::setZero</text>
</a>
</g>
</g>
<!-- Node1&#45;&gt;Node3 -->
<g id="edge3" class="edge">
<title>Node1&#45;&gt;Node3</title>
<path fill="none" stroke="#63b8ff" d="M115,-15C156.54,-15 212.64,-15 253.56,-15"/>
<polygon fill="#63b8ff" stroke="#63b8ff" points="253.62,-18.5 263.62,-15 253.62,-11.5 253.62,-18.5"/>
</g>
<!-- Node2&#45;&gt;Node3 -->
<g id="edge2" class="edge">
<title>Node2&#45;&gt;Node3</title>
<path fill="none" stroke="#63b8ff" d="M228.16,-27.88C236.33,-26.56 245.11,-25.13 253.76,-23.73"/>
<polygon fill="#63b8ff" stroke="#63b8ff" points="254.49,-27.16 263.8,-22.1 253.36,-20.25 254.49,-27.16"/>
</g>
</g>
</svg>
