<?xml version="1.0" encoding="UTF-8" standalone="no"?>
<!DOCTYPE svg PUBLIC "-//W3C//DTD SVG 1.1//EN"
 "http://www.w3.org/Graphics/SVG/1.1/DTD/svg11.dtd">
<!-- Generated by graphviz version 6.0.1 (20220911.1526)
 -->
<!-- Title: CFeatureSpectralPitchChroma::CFeatureSpectralPitchChroma Pages: 1 -->
<svg width="659pt" height="138pt"
 viewBox="0.00 0.00 659.00 138.00" xmlns="http://www.w3.org/2000/svg" xmlns:xlink="http://www.w3.org/1999/xlink">
<g id="graph0" class="graph" transform="scale(1 1) rotate(0) translate(4 134)">
<title>CFeatureSpectralPitchChroma::CFeatureSpectralPitchChroma</title>
<!-- Node1 -->
<g id="node1" class="node">
<title>Node1</title>
<g id="a_node1"><a xlink:title=" ">
<polygon fill="#999999" stroke="#666666" points="153,-97.5 0,-97.5 0,-67.5 153,-67.5 153,-97.5"/>
<text text-anchor="start" x="8" y="-85.5" font-family="Helvetica,sans-Serif" font-size="10.00">CFeatureSpectralPitchChroma</text>
<text text-anchor="middle" x="76.5" y="-74.5" font-family="Helvetica,sans-Serif" font-size="10.00">::CFeatureSpectralPitchChroma</text>
</a>
</g>
</g>
<!-- Node2 -->
<g id="node2" class="node">
<title>Node2</title>
<g id="a_node2"><a xlink:href="a00486.xhtml#a6501b78d76c912d49eee88c8f7242923" target="_top" xlink:title=" ">
<polygon fill="white" stroke="#666666" points="300.5,-122 226.5,-122 226.5,-103 300.5,-103 300.5,-122"/>
<text text-anchor="middle" x="263.5" y="-110" font-family="Helvetica,sans-Serif" font-size="10.00">CMatrix::alloc</text>
</a>
</g>
</g>
<!-- Node1&#45;&gt;Node2 -->
<g id="edge1" class="edge">
<title>Node1&#45;&gt;Node2</title>
<path fill="none" stroke="#63b8ff" d="M153.01,-94.75C174.52,-98.23 197.31,-101.93 216.48,-105.04"/>
<polygon fill="#63b8ff" stroke="#63b8ff" points="216.02,-108.51 226.45,-106.65 217.14,-101.6 216.02,-108.51"/>
</g>
<!-- Node5 -->
<g id="node5" class="node">
<title>Node5</title>
<g id="a_node5"><a xlink:href="a00334.xhtml#a88b4352ab8251a177a5351c638ad5b3c" target="_top" xlink:title=" ">
<polygon fill="white" stroke="#666666" points="338,-76.5 189,-76.5 189,-46.5 338,-46.5 338,-76.5"/>
<text text-anchor="start" x="197" y="-64.5" font-family="Helvetica,sans-Serif" font-size="10.00">CFeatureSpectralPitchChroma</text>
<text text-anchor="middle" x="263.5" y="-53.5" font-family="Helvetica,sans-Serif" font-size="10.00">::genPcFilters_</text>
</a>
</g>
</g>
<!-- Node1&#45;&gt;Node5 -->
<g id="edge4" class="edge">
<title>Node1&#45;&gt;Node5</title>
<path fill="none" stroke="#63b8ff" d="M153.01,-73.93C161.49,-72.97 170.16,-71.98 178.73,-71.01"/>
<polygon fill="#63b8ff" stroke="#63b8ff" points="179.18,-74.48 188.72,-69.87 178.39,-67.52 179.18,-74.48"/>
</g>
<!-- Node3 -->
<g id="node3" class="node">
<title>Node3</title>
<g id="a_node3"><a xlink:href="a00502.xhtml#abaadac98b1cad18b7b568852bc951696" target="_top" xlink:title=" ">
<polygon fill="white" stroke="#666666" points="488.5,-130 411.5,-130 411.5,-111 488.5,-111 488.5,-130"/>
<text text-anchor="middle" x="450" y="-118" font-family="Helvetica,sans-Serif" font-size="10.00">CVector::alloc</text>
</a>
</g>
</g>
<!-- Node2&#45;&gt;Node3 -->
<g id="edge2" class="edge">
<title>Node2&#45;&gt;Node3</title>
<path fill="none" stroke="#63b8ff" d="M300.51,-114.06C329.25,-115.31 369.76,-117.06 401.21,-118.43"/>
<polygon fill="#63b8ff" stroke="#63b8ff" points="401.35,-121.94 411.5,-118.87 401.66,-114.94 401.35,-121.94"/>
</g>
<!-- Node4 -->
<g id="node4" class="node">
<title>Node4</title>
<g id="a_node4"><a xlink:href="a00502.xhtml#a6dbb3f9f480568b60f7fe50090d20003" target="_top" xlink:title=" ">
<polygon fill="white" stroke="#666666" points="651,-130 562,-130 562,-111 651,-111 651,-130"/>
<text text-anchor="middle" x="606.5" y="-118" font-family="Helvetica,sans-Serif" font-size="10.00">CVector::setZero</text>
</a>
</g>
</g>
<!-- Node3&#45;&gt;Node4 -->
<g id="edge3" class="edge">
<title>Node3&#45;&gt;Node4</title>
<path fill="none" stroke="#63b8ff" d="M488.79,-120.5C507.67,-120.5 530.84,-120.5 551.55,-120.5"/>
<polygon fill="#63b8ff" stroke="#63b8ff" points="551.8,-124 561.8,-120.5 551.8,-117 551.8,-124"/>
</g>
<!-- Node6 -->
<g id="node6" class="node">
<title>Node6</title>
<g id="a_node6"><a xlink:href="a00550.xhtml#ada82d84a69f4c77266835f1f06ca2ecb" target="_top" xlink:title=" ">
<polygon fill="white" stroke="#666666" points="524,-93 376,-93 376,-74 524,-74 524,-93"/>
<text text-anchor="middle" x="450" y="-81" font-family="Helvetica,sans-Serif" font-size="10.00">CConversion::convertFreq2Bin</text>
</a>
</g>
</g>
<!-- Node5&#45;&gt;Node6 -->
<g id="edge5" class="edge">
<title>Node5&#45;&gt;Node6</title>
<path fill="none" stroke="#63b8ff" d="M338.21,-70.29C347.18,-71.36 356.4,-72.46 365.5,-73.54"/>
<polygon fill="#63b8ff" stroke="#63b8ff" points="365.36,-77.05 375.7,-74.76 366.19,-70.1 365.36,-77.05"/>
</g>
<!-- Node7 -->
<g id="node7" class="node">
<title>Node7</title>
<g id="a_node7"><a xlink:href="a00550.xhtml#a3461898be6be7ae7059904860f5231e1" target="_top" xlink:title=" ">
<polygon fill="white" stroke="#666666" points="526,-56 374,-56 374,-37 526,-37 526,-56"/>
<text text-anchor="middle" x="450" y="-44" font-family="Helvetica,sans-Serif" font-size="10.00">CConversion::convertMidi2Freq</text>
</a>
</g>
</g>
<!-- Node5&#45;&gt;Node7 -->
<g id="edge6" class="edge">
<title>Node5&#45;&gt;Node7</title>
<path fill="none" stroke="#63b8ff" d="M338.21,-55.51C346.66,-54.82 355.31,-54.12 363.89,-53.42"/>
<polygon fill="#63b8ff" stroke="#63b8ff" points="364.21,-56.91 373.89,-52.61 363.64,-49.93 364.21,-56.91"/>
</g>
<!-- Node8 -->
<g id="node8" class="node">
<title>Node8</title>
<g id="a_node8"><a xlink:href="a00502.xhtml#a4cf9544dd96801e3ee47fd1ef2049a1b" target="_top" xlink:title=" ">
<polygon fill="white" stroke="#666666" points="497.5,-19 402.5,-19 402.5,0 497.5,0 497.5,-19"/>
<text text-anchor="middle" x="450" y="-7" font-family="Helvetica,sans-Serif" font-size="10.00">CVector::setValue</text>
</a>
</g>
</g>
<!-- Node5&#45;&gt;Node8 -->
<g id="edge7" class="edge">
<title>Node5&#45;&gt;Node8</title>
<path fill="none" stroke="#63b8ff" d="M310.66,-46.43C330.12,-40.27 353.08,-33.25 374,-27.5 381.54,-25.43 389.53,-23.37 397.39,-21.42"/>
<polygon fill="#63b8ff" stroke="#63b8ff" points="398.34,-24.79 407.22,-19.01 396.68,-17.99 398.34,-24.79"/>
</g>
</g>
</svg>
