<?xml version="1.0" encoding="UTF-8" standalone="no"?>
<!DOCTYPE svg PUBLIC "-//W3C//DTD SVG 1.1//EN"
 "http://www.w3.org/Graphics/SVG/1.1/DTD/svg11.dtd">
<!-- Generated by graphviz version 12.2.1 (20241206.2353)
 -->
<!-- Title: CNoveltyFromFile::CNoveltyFromFile Pages: 1 -->
<svg width="829pt" height="378pt"
 viewBox="0.00 0.00 829.00 377.88" xmlns="http://www.w3.org/2000/svg" xmlns:xlink="http://www.w3.org/1999/xlink">
<g id="graph0" class="graph" transform="scale(1 1) rotate(0) translate(4 373.88)">
<title>CNoveltyFromFile::CNoveltyFromFile</title>
<!-- Node1 -->
<g id="Node000001" class="node">
<title>Node1</title>
<g id="a_Node000001"><a xlink:title=" ">
<polygon fill="#999999" stroke="#666666" points="138.25,-166.88 0,-166.88 0,-136.38 138.25,-136.38 138.25,-166.88"/>
<text text-anchor="start" x="8" y="-153.38" font-family="Helvetica,sans-Serif" font-size="10.00">CNoveltyFromFile::CNovelty</text>
<text text-anchor="middle" x="69.12" y="-142.12" font-family="Helvetica,sans-Serif" font-size="10.00">FromFile</text>
</a>
</g>
</g>
<!-- Node2 -->
<g id="Node000002" class="node">
<title>Node2</title>
<g id="a_Node000002"><a xlink:href="a00445.xhtml#aab987b1a4ec96a8fc835b1733a1ee0c3" target="_top" xlink:title=" ">
<polygon fill="white" stroke="#666666" points="279.5,-301.25 178.75,-301.25 178.75,-282 279.5,-282 279.5,-301.25"/>
<text text-anchor="middle" x="229.12" y="-287.75" font-family="Helvetica,sans-Serif" font-size="10.00">CAudioFileIf::create</text>
</a>
</g>
</g>
<!-- Node1&#45;&gt;Node2 -->
<g id="edge1_Node000001_Node000002" class="edge">
<title>Node1&#45;&gt;Node2</title>
<g id="a_edge1_Node000001_Node000002"><a xlink:title=" ">
<path fill="none" stroke="#63b8ff" d="M87.64,-167.14C117.33,-193.45 177.34,-246.63 208.44,-274.18"/>
<polygon fill="#63b8ff" stroke="#63b8ff" points="205.81,-276.53 215.62,-280.54 210.45,-271.29 205.81,-276.53"/>
</a>
</g>
</g>
<!-- Node8 -->
<g id="Node000008" class="node">
<title>Node8</title>
<g id="a_Node000008"><a xlink:href="a00545.xhtml#a84f0c2bf28007ef7749ab0e90c8011d2" target="_top" xlink:title=" ">
<polygon fill="white" stroke="#666666" points="284,-41.25 174.25,-41.25 174.25,-22 284,-22 284,-41.25"/>
<text text-anchor="middle" x="229.12" y="-27.75" font-family="Helvetica,sans-Serif" font-size="10.00">CBlockAudioIf::create</text>
</a>
</g>
</g>
<!-- Node1&#45;&gt;Node8 -->
<g id="edge7_Node000001_Node000008" class="edge">
<title>Node1&#45;&gt;Node8</title>
<g id="a_edge7_Node000001_Node000008"><a xlink:title=" ">
<path fill="none" stroke="#63b8ff" d="M90.78,-135.94C120.52,-113.35 175.18,-71.84 205.81,-48.57"/>
<polygon fill="#63b8ff" stroke="#63b8ff" points="207.8,-51.46 213.65,-42.62 203.57,-45.88 207.8,-51.46"/>
</a>
</g>
</g>
<!-- Node10 -->
<g id="Node000010" class="node">
<title>Node10</title>
<g id="a_Node000010"><a xlink:href="a00517.xhtml#a4beb226d8e7dd927c253667647e837ec" target="_top" xlink:title="init configuration">
<polygon fill="white" stroke="#666666" points="271.25,-224.25 187,-224.25 187,-205 271.25,-205 271.25,-224.25"/>
<text text-anchor="middle" x="229.12" y="-210.75" font-family="Helvetica,sans-Serif" font-size="10.00">CNoveltyIf::init_</text>
</a>
</g>
</g>
<!-- Node1&#45;&gt;Node10 -->
<g id="edge9_Node000001_Node000010" class="edge">
<title>Node1&#45;&gt;Node10</title>
<g id="a_edge9_Node000001_Node000010"><a xlink:title=" ">
<path fill="none" stroke="#63b8ff" d="M109.59,-167.36C134.95,-177.47 167.64,-190.51 192.27,-200.33"/>
<polygon fill="#63b8ff" stroke="#63b8ff" points="190.97,-203.58 201.55,-204.03 193.56,-197.07 190.97,-203.58"/>
</a>
</g>
</g>
<!-- Node18 -->
<g id="Node000018" class="node">
<title>Node18</title>
<g id="a_Node000018"><a xlink:href="a00517.xhtml#a119fc32e085bb978525ea9596ee2e9c1" target="_top" xlink:title="reset configuration">
<polygon fill="white" stroke="#666666" points="275.75,-118.25 182.5,-118.25 182.5,-99 275.75,-99 275.75,-118.25"/>
<text text-anchor="middle" x="229.12" y="-104.75" font-family="Helvetica,sans-Serif" font-size="10.00">CNoveltyIf::reset_</text>
</a>
</g>
</g>
<!-- Node1&#45;&gt;Node18 -->
<g id="edge17_Node000001_Node000018" class="edge">
<title>Node1&#45;&gt;Node18</title>
<g id="a_edge17_Node000001_Node000018"><a xlink:title=" ">
<path fill="none" stroke="#63b8ff" d="M127.61,-135.98C144.82,-131.3 163.5,-126.21 180.03,-121.71"/>
<polygon fill="#63b8ff" stroke="#63b8ff" points="180.9,-125.1 189.63,-119.1 179.06,-118.35 180.9,-125.1"/>
</a>
</g>
</g>
<!-- Node3 -->
<g id="Node000003" class="node">
<title>Node3</title>
<g id="a_Node000003"><a xlink:href="a00445.xhtml#a303a350a95e8af4cfbaaf61c1274b790" target="_top" xlink:title=" ">
<polygon fill="white" stroke="#666666" points="447,-321.25 320,-321.25 320,-302 447,-302 447,-321.25"/>
<text text-anchor="middle" x="383.5" y="-307.75" font-family="Helvetica,sans-Serif" font-size="10.00">CAudioFileIf::CAudioFileIf</text>
</a>
</g>
</g>
<!-- Node2&#45;&gt;Node3 -->
<g id="edge2_Node000002_Node000003" class="edge">
<title>Node2&#45;&gt;Node3</title>
<g id="a_edge2_Node000002_Node000003"><a xlink:title=" ">
<path fill="none" stroke="#63b8ff" d="M279.6,-298.12C288.78,-299.32 298.55,-300.61 308.28,-301.88"/>
<polygon fill="#63b8ff" stroke="#63b8ff" points="307.78,-305.35 318.15,-303.18 308.69,-298.41 307.78,-305.35"/>
</a>
</g>
</g>
<!-- Node4 -->
<g id="Node000004" class="node">
<title>Node4</title>
<g id="a_Node000004"><a xlink:href="a00445.xhtml#a9fcdd386ee5292b5a971c7077858274c" target="_top" xlink:title=" ">
<polygon fill="white" stroke="#666666" points="631.38,-321.25 503.62,-321.25 503.62,-302 631.38,-302 631.38,-321.25"/>
<text text-anchor="middle" x="567.5" y="-307.75" font-family="Helvetica,sans-Serif" font-size="10.00">CAudioFileIf::initDefaults_</text>
</a>
</g>
</g>
<!-- Node3&#45;&gt;Node4 -->
<g id="edge3_Node000003_Node000004" class="edge">
<title>Node3&#45;&gt;Node4</title>
<g id="a_edge3_Node000003_Node000004"><a xlink:title=" ">
<path fill="none" stroke="#63b8ff" d="M447.39,-311.62C461.8,-311.62 477.25,-311.62 492.1,-311.62"/>
<polygon fill="#63b8ff" stroke="#63b8ff" points="491.79,-315.13 501.79,-311.63 491.79,-308.13 491.79,-315.13"/>
</a>
</g>
</g>
<!-- Node5 -->
<g id="Node000005" class="node">
<title>Node5</title>
<g id="a_Node000005"><a xlink:href="a00445.xhtml#a5a74fd1730a2f0f7339b6507ca7abc23" target="_top" xlink:title=" ">
<polygon fill="white" stroke="#666666" points="815.38,-369.88 693.62,-369.88 693.62,-339.38 815.38,-339.38 815.38,-369.88"/>
<text text-anchor="start" x="701.62" y="-356.38" font-family="Helvetica,sans-Serif" font-size="10.00">CAudioFileIf::setClipping</text>
<text text-anchor="middle" x="754.5" y="-345.12" font-family="Helvetica,sans-Serif" font-size="10.00">Enabled</text>
</a>
</g>
</g>
<!-- Node4&#45;&gt;Node5 -->
<g id="edge4_Node000004_Node000005" class="edge">
<title>Node4&#45;&gt;Node5</title>
<g id="a_edge4_Node000004_Node000005"><a xlink:title=" ">
<path fill="none" stroke="#63b8ff" d="M611.87,-321.71C632.8,-326.57 658.46,-332.53 682.16,-338.04"/>
<polygon fill="#63b8ff" stroke="#63b8ff" points="681.23,-341.42 691.77,-340.28 682.82,-334.6 681.23,-341.42"/>
</a>
</g>
</g>
<!-- Node6 -->
<g id="Node000006" class="node">
<title>Node6</title>
<g id="a_Node000006"><a xlink:href="a00445.xhtml#ada0ab1ffd0666fdc0db872ca7f8a309f" target="_top" xlink:title=" ">
<polygon fill="white" stroke="#666666" points="821,-321.25 688,-321.25 688,-302 821,-302 821,-321.25"/>
<text text-anchor="middle" x="754.5" y="-307.75" font-family="Helvetica,sans-Serif" font-size="10.00">CAudioFileIf::setInitialized_</text>
</a>
</g>
</g>
<!-- Node4&#45;&gt;Node6 -->
<g id="edge5_Node000004_Node000006" class="edge">
<title>Node4&#45;&gt;Node6</title>
<g id="a_edge5_Node000004_Node000006"><a xlink:title=" ">
<path fill="none" stroke="#63b8ff" d="M631.65,-311.62C646.08,-311.62 661.57,-311.62 676.51,-311.62"/>
<polygon fill="#63b8ff" stroke="#63b8ff" points="676.29,-315.13 686.29,-311.63 676.29,-308.13 676.29,-315.13"/>
</a>
</g>
</g>
<!-- Node7 -->
<g id="Node000007" class="node">
<title>Node7</title>
<g id="a_Node000007"><a xlink:href="a00445.xhtml#a6ccc53d8d2c5113b5b2cba604e8a4510" target="_top" xlink:title=" ">
<polygon fill="white" stroke="#666666" points="815.38,-284.25 693.62,-284.25 693.62,-265 815.38,-265 815.38,-284.25"/>
<text text-anchor="middle" x="754.5" y="-270.75" font-family="Helvetica,sans-Serif" font-size="10.00">CAudioFileIf::setIoType_</text>
</a>
</g>
</g>
<!-- Node4&#45;&gt;Node7 -->
<g id="edge6_Node000004_Node000007" class="edge">
<title>Node4&#45;&gt;Node7</title>
<g id="a_edge6_Node000004_Node000007"><a xlink:title=" ">
<path fill="none" stroke="#63b8ff" d="M619.05,-301.51C641.59,-297.01 668.34,-291.66 692.02,-286.92"/>
<polygon fill="#63b8ff" stroke="#63b8ff" points="692.41,-290.41 701.52,-285.02 691.03,-283.55 692.41,-290.41"/>
</a>
</g>
</g>
<!-- Node9 -->
<g id="Node000009" class="node">
<title>Node9</title>
<g id="a_Node000009"><a xlink:href="a00545.xhtml#a25b4acfbc219a671933702aaf97229fd" target="_top" xlink:title=" ">
<polygon fill="white" stroke="#666666" points="640,-19.25 495,-19.25 495,0 640,0 640,-19.25"/>
<text text-anchor="middle" x="567.5" y="-5.75" font-family="Helvetica,sans-Serif" font-size="10.00">CBlockAudioIf::CBlockAudioIf</text>
</a>
</g>
</g>
<!-- Node8&#45;&gt;Node9 -->
<g id="edge8_Node000008_Node000009" class="edge">
<title>Node8&#45;&gt;Node9</title>
<g id="a_edge8_Node000008_Node000009"><a xlink:title=" ">
<path fill="none" stroke="#63b8ff" d="M263.07,-21.55C279.92,-16.91 300.86,-11.93 320,-9.62 374.18,-3.09 435.55,-3.07 483.5,-4.69"/>
<polygon fill="#63b8ff" stroke="#63b8ff" points="483.13,-8.18 493.25,-5.05 483.39,-1.18 483.13,-8.18"/>
</a>
</g>
</g>
<!-- Node11 -->
<g id="Node000011" class="node">
<title>Node11</title>
<g id="a_Node000011"><a xlink:href="a00505.xhtml#abaadac98b1cad18b7b568852bc951696" target="_top" xlink:title=" ">
<polygon fill="white" stroke="#666666" points="421.5,-284.25 345.5,-284.25 345.5,-265 421.5,-265 421.5,-284.25"/>
<text text-anchor="middle" x="383.5" y="-270.75" font-family="Helvetica,sans-Serif" font-size="10.00">CVector::alloc</text>
</a>
</g>
</g>
<!-- Node10&#45;&gt;Node11 -->
<g id="edge10_Node000010_Node000011" class="edge">
<title>Node10&#45;&gt;Node11</title>
<g id="a_edge10_Node000010_Node000011"><a xlink:title=" ">
<path fill="none" stroke="#63b8ff" d="M249.38,-224.7C267.33,-233.83 295,-247.25 320,-256.62 324.65,-258.37 329.54,-260.04 334.45,-261.62"/>
<polygon fill="#63b8ff" stroke="#63b8ff" points="333.14,-264.88 343.73,-264.47 335.19,-258.19 333.14,-264.88"/>
</a>
</g>
</g>
<!-- Node13 -->
<g id="Node000013" class="node">
<title>Node13</title>
<g id="a_Node000013"><a xlink:href="a00589.xhtml#a9008feaaece203a6bf1220ab81e1b983" target="_top" xlink:title=" ">
<polygon fill="white" stroke="#666666" points="444.38,-247.25 322.62,-247.25 322.62,-228 444.38,-228 444.38,-247.25"/>
<text text-anchor="middle" x="383.5" y="-233.75" font-family="Helvetica,sans-Serif" font-size="10.00">CMovingAverage::create</text>
</a>
</g>
</g>
<!-- Node10&#45;&gt;Node13 -->
<g id="edge12_Node000010_Node000013" class="edge">
<title>Node10&#45;&gt;Node13</title>
<g id="a_edge12_Node000010_Node000013"><a xlink:title=" ">
<path fill="none" stroke="#63b8ff" d="M271.36,-220.85C283.62,-222.7 297.41,-224.78 311.01,-226.83"/>
<polygon fill="#63b8ff" stroke="#63b8ff" points="310.44,-230.29 320.85,-228.32 311.49,-223.37 310.44,-230.29"/>
</a>
</g>
</g>
<!-- Node16 -->
<g id="Node000016" class="node">
<title>Node16</title>
<g id="a_Node000016"><a xlink:href="a00521.xhtml#ad4c0e04f9ae0eaa7ccf48509125cab1a" target="_top" xlink:title=" ">
<polygon fill="white" stroke="#666666" points="438,-209.88 329,-209.88 329,-179.38 438,-179.38 438,-209.88"/>
<text text-anchor="start" x="337" y="-196.38" font-family="Helvetica,sans-Serif" font-size="10.00">CNoveltyFromBlockIf</text>
<text text-anchor="middle" x="383.5" y="-185.12" font-family="Helvetica,sans-Serif" font-size="10.00">::create</text>
</a>
</g>
</g>
<!-- Node10&#45;&gt;Node16 -->
<g id="edge15_Node000010_Node000016" class="edge">
<title>Node10&#45;&gt;Node16</title>
<g id="a_edge15_Node000010_Node000016"><a xlink:title=" ">
<path fill="none" stroke="#63b8ff" d="M271.36,-209.21C285.54,-207.35 301.79,-205.22 317.41,-203.17"/>
<polygon fill="#63b8ff" stroke="#63b8ff" points="317.66,-206.67 327.12,-201.89 316.75,-199.72 317.66,-206.67"/>
</a>
</g>
</g>
<!-- Node12 -->
<g id="Node000012" class="node">
<title>Node12</title>
<g id="a_Node000012"><a xlink:href="a00505.xhtml#a6dbb3f9f480568b60f7fe50090d20003" target="_top" xlink:title=" ">
<polygon fill="white" stroke="#666666" points="611.88,-284.25 523.12,-284.25 523.12,-265 611.88,-265 611.88,-284.25"/>
<text text-anchor="middle" x="567.5" y="-270.75" font-family="Helvetica,sans-Serif" font-size="10.00">CVector::setZero</text>
</a>
</g>
</g>
<!-- Node11&#45;&gt;Node12 -->
<g id="edge11_Node000011_Node000012" class="edge">
<title>Node11&#45;&gt;Node12</title>
<g id="a_edge11_Node000011_Node000012"><a xlink:title=" ">
<path fill="none" stroke="#63b8ff" d="M421.77,-274.62C447.66,-274.62 482.59,-274.62 511.65,-274.62"/>
<polygon fill="#63b8ff" stroke="#63b8ff" points="511.36,-278.13 521.36,-274.63 511.36,-271.13 511.36,-278.13"/>
</a>
</g>
</g>
<!-- Node14 -->
<g id="Node000014" class="node">
<title>Node14</title>
<g id="a_Node000014"><a xlink:href="a00589.xhtml#aa02ee977828ff103f3e2c25889131122" target="_top" xlink:title=" ">
<polygon fill="white" stroke="#666666" points="652,-204.25 483,-204.25 483,-185 652,-185 652,-204.25"/>
<text text-anchor="middle" x="567.5" y="-190.75" font-family="Helvetica,sans-Serif" font-size="10.00">CMovingAverage::CMovingAverage</text>
</a>
</g>
</g>
<!-- Node13&#45;&gt;Node14 -->
<g id="edge13_Node000013_Node000014" class="edge">
<title>Node13&#45;&gt;Node14</title>
<g id="a_edge13_Node000013_Node000014"><a xlink:title=" ">
<path fill="none" stroke="#63b8ff" d="M427.17,-227.54C452.75,-221.5 485.51,-213.76 512.83,-207.31"/>
<polygon fill="#63b8ff" stroke="#63b8ff" points="513.38,-210.77 522.31,-205.07 511.77,-203.96 513.38,-210.77"/>
</a>
</g>
</g>
<!-- Node15 -->
<g id="Node000015" class="node">
<title>Node15</title>
<g id="a_Node000015"><a xlink:href="a00589.xhtml#a9681799055b5a4622d25a70901a65af3" target="_top" xlink:title=" ">
<polygon fill="white" stroke="#666666" points="812.75,-204.25 696.25,-204.25 696.25,-185 812.75,-185 812.75,-204.25"/>
<text text-anchor="middle" x="754.5" y="-190.75" font-family="Helvetica,sans-Serif" font-size="10.00">CMovingAverage::reset</text>
</a>
</g>
</g>
<!-- Node14&#45;&gt;Node15 -->
<g id="edge14_Node000014_Node000015" class="edge">
<title>Node14&#45;&gt;Node15</title>
<g id="a_edge14_Node000014_Node000015"><a xlink:title=" ">
<path fill="none" stroke="#63b8ff" d="M652.34,-194.62C663.15,-194.62 674.12,-194.62 684.66,-194.62"/>
<polygon fill="#63b8ff" stroke="#63b8ff" points="684.37,-198.13 694.37,-194.63 684.37,-191.13 684.37,-198.13"/>
</a>
</g>
</g>
<!-- Node17 -->
<g id="Node000017" class="node">
<title>Node17</title>
<g id="a_Node000017"><a xlink:href="a00521.xhtml#a55adbc3ecfeffbeb621875bb56f3bf7f" target="_top" xlink:title=" ">
<polygon fill="white" stroke="#666666" points="624.25,-123.88 510.75,-123.88 510.75,-93.38 624.25,-93.38 624.25,-123.88"/>
<text text-anchor="start" x="518.75" y="-110.38" font-family="Helvetica,sans-Serif" font-size="10.00">CNoveltyFromBlockIf</text>
<text text-anchor="middle" x="567.5" y="-99.12" font-family="Helvetica,sans-Serif" font-size="10.00">::CNoveltyFromBlockIf</text>
</a>
</g>
</g>
<!-- Node16&#45;&gt;Node17 -->
<g id="edge16_Node000016_Node000017" class="edge">
<title>Node16&#45;&gt;Node17</title>
<g id="a_edge16_Node000016_Node000017"><a xlink:title=" ">
<path fill="none" stroke="#63b8ff" d="M427.12,-178.99C433.83,-176.32 440.64,-173.49 447,-170.62 474.85,-158.1 505.4,-142.21 528.64,-129.65"/>
<polygon fill="#63b8ff" stroke="#63b8ff" points="530.01,-132.89 537.12,-125.04 526.66,-126.74 530.01,-132.89"/>
</a>
</g>
</g>
<!-- Node19 -->
<g id="Node000019" class="node">
<title>Node19</title>
<g id="a_Node000019"><a xlink:href="a00545.xhtml#a13d2bd6e36210dde0c64d188c1266b88" target="_top" xlink:title=" ">
<polygon fill="white" stroke="#666666" points="440.62,-38.25 326.38,-38.25 326.38,-19 440.62,-19 440.62,-38.25"/>
<text text-anchor="middle" x="383.5" y="-24.75" font-family="Helvetica,sans-Serif" font-size="10.00">CBlockAudioIf::destroy</text>
</a>
</g>
</g>
<!-- Node18&#45;&gt;Node19 -->
<g id="edge18_Node000018_Node000019" class="edge">
<title>Node18&#45;&gt;Node19</title>
<g id="a_edge18_Node000018_Node000019"><a xlink:title=" ">
<path fill="none" stroke="#63b8ff" d="M241.86,-98.66C258.32,-85.12 289.67,-60.98 320,-46.62 323.11,-45.15 326.37,-43.77 329.7,-42.49"/>
<polygon fill="#63b8ff" stroke="#63b8ff" points="330.76,-45.83 339.03,-39.2 328.43,-39.22 330.76,-45.83"/>
</a>
</g>
</g>
<!-- Node20 -->
<g id="Node000020" class="node">
<title>Node20</title>
<g id="a_Node000020"><a xlink:href="a00589.xhtml#a5a6b1921f58c43d9daa618a97e62754f" target="_top" xlink:title=" ">
<polygon fill="white" stroke="#666666" points="446.62,-161.25 320.38,-161.25 320.38,-142 446.62,-142 446.62,-161.25"/>
<text text-anchor="middle" x="383.5" y="-147.75" font-family="Helvetica,sans-Serif" font-size="10.00">CMovingAverage::destroy</text>
</a>
</g>
</g>
<!-- Node18&#45;&gt;Node20 -->
<g id="edge20_Node000018_Node000020" class="edge">
<title>Node18&#45;&gt;Node20</title>
<g id="a_edge20_Node000018_Node000020"><a xlink:title=" ">
<path fill="none" stroke="#63b8ff" d="M265.85,-118.71C286.69,-124.59 313.23,-132.08 335.73,-138.43"/>
<polygon fill="#63b8ff" stroke="#63b8ff" points="334.7,-141.77 345.28,-141.12 336.6,-135.04 334.7,-141.77"/>
</a>
</g>
</g>
<!-- Node21 -->
<g id="Node000021" class="node">
<title>Node21</title>
<g id="a_Node000021"><a xlink:href="a00521.xhtml#a2066599bb659fd90d13bc8a57dec005e" target="_top" xlink:title=" ">
<polygon fill="white" stroke="#666666" points="438,-123.88 329,-123.88 329,-93.38 438,-93.38 438,-123.88"/>
<text text-anchor="start" x="337" y="-110.38" font-family="Helvetica,sans-Serif" font-size="10.00">CNoveltyFromBlockIf</text>
<text text-anchor="middle" x="383.5" y="-99.12" font-family="Helvetica,sans-Serif" font-size="10.00">::destroy</text>
</a>
</g>
</g>
<!-- Node18&#45;&gt;Node21 -->
<g id="edge22_Node000018_Node000021" class="edge">
<title>Node18&#45;&gt;Node21</title>
<g id="a_edge22_Node000018_Node000021"><a xlink:title=" ">
<path fill="none" stroke="#63b8ff" d="M275.84,-108.62C288.98,-108.62 303.58,-108.62 317.64,-108.62"/>
<polygon fill="#63b8ff" stroke="#63b8ff" points="317.25,-112.13 327.25,-108.63 317.25,-105.13 317.25,-112.13"/>
</a>
</g>
</g>
<!-- Node22 -->
<g id="Node000022" class="node">
<title>Node22</title>
<g id="a_Node000022"><a xlink:href="a00505.xhtml#aa86bdb0c663d4d52f2765793756f8737" target="_top" xlink:title=" ">
<polygon fill="white" stroke="#666666" points="419.62,-75.25 347.38,-75.25 347.38,-56 419.62,-56 419.62,-75.25"/>
<text text-anchor="middle" x="383.5" y="-61.75" font-family="Helvetica,sans-Serif" font-size="10.00">CVector::free</text>
</a>
</g>
</g>
<!-- Node18&#45;&gt;Node22 -->
<g id="edge24_Node000018_Node000022" class="edge">
<title>Node18&#45;&gt;Node22</title>
<g id="a_edge24_Node000018_Node000022"><a xlink:title=" ">
<path fill="none" stroke="#63b8ff" d="M265.85,-98.54C286.77,-92.64 313.42,-85.12 335.97,-78.76"/>
<polygon fill="#63b8ff" stroke="#63b8ff" points="336.87,-82.14 345.54,-76.05 334.97,-75.4 336.87,-82.14"/>
</a>
</g>
</g>
<!-- Node19&#45;&gt;Node9 -->
<g id="edge19_Node000019_Node000009" class="edge">
<title>Node19&#45;&gt;Node9</title>
<g id="a_edge19_Node000019_Node000009"><a xlink:title=" ">
<path fill="none" stroke="#63b8ff" d="M441.09,-22.72C454.43,-21.32 468.92,-19.81 483.17,-18.32"/>
<polygon fill="#63b8ff" stroke="#63b8ff" points="483.42,-21.82 493,-17.3 482.69,-14.86 483.42,-21.82"/>
</a>
</g>
</g>
<!-- Node20&#45;&gt;Node14 -->
<g id="edge21_Node000020_Node000014" class="edge">
<title>Node20&#45;&gt;Node14</title>
<g id="a_edge21_Node000020_Node000014"><a xlink:title=" ">
<path fill="none" stroke="#63b8ff" d="M427.17,-161.71C452.75,-167.75 485.51,-175.49 512.83,-181.94"/>
<polygon fill="#63b8ff" stroke="#63b8ff" points="511.77,-185.29 522.31,-184.18 513.38,-178.48 511.77,-185.29"/>
</a>
</g>
</g>
<!-- Node21&#45;&gt;Node17 -->
<g id="edge23_Node000021_Node000017" class="edge">
<title>Node21&#45;&gt;Node17</title>
<g id="a_edge23_Node000021_Node000017"><a xlink:title=" ">
<path fill="none" stroke="#63b8ff" d="M438.12,-108.62C457.23,-108.62 479,-108.62 499.12,-108.62"/>
<polygon fill="#63b8ff" stroke="#63b8ff" points="498.9,-112.13 508.9,-108.63 498.9,-105.13 498.9,-112.13"/>
</a>
</g>
</g>
</g>
</svg>
