<?xml version="1.0" encoding="UTF-8" standalone="no"?>
<!DOCTYPE svg PUBLIC "-//W3C//DTD SVG 1.1//EN"
 "http://www.w3.org/Graphics/SVG/1.1/DTD/svg11.dtd">
<!-- Generated by graphviz version 4.0.0 (20220602.1335)
 -->
<!-- Title: CChordFromFile::CChordFromFile Pages: 1 -->
<!--zoomable 887 -->
<svg id="main" version="1.1" xmlns="http://www.w3.org/2000/svg" xmlns:xlink="http://www.w3.org/1999/xlink" xml:space="preserve" onload="init(evt)">
<style type="text/css"><![CDATA[
.edge:hover path { stroke: red; }
.edge:hover polygon { stroke: red; fill: red; }
]]></style>
<script type="text/javascript"><![CDATA[
var edges = document.getElementsByTagName('g');
if (edges && edges.length) {
  for (var i=0;i<edges.length;i++) {
    if (edges[i].id.substr(0,4)=='edge') {
      edges[i].setAttribute('class','edge');
    }
  }
}
]]></script>
        <defs>
                <circle id="rim" cx="0" cy="0" r="7"/>
                <circle id="rim2" cx="0" cy="0" r="3.5"/>
                <g id="zoomPlus">
                        <use xlink:href="#rim" fill="#404040">
                                <set attributeName="fill" to="#808080" begin="zoomplus.mouseover" end="zoomplus.mouseout"/>
                        </use>
                        <path d="M-4,0h8M0,-4v8" fill="none" stroke="white" stroke-width="1.5" pointer-events="none"/>
                </g>
                <g id="zoomMin">
                        <use xlink:href="#rim" fill="#404040">
                                <set attributeName="fill" to="#808080" begin="zoomminus.mouseover" end="zoomminus.mouseout"/>
                        </use>
                        <path d="M-4,0h8" fill="none" stroke="white" stroke-width="1.5" pointer-events="none"/>
                </g>
                <g id="dirArrow">
                        <path fill="none" stroke="white" stroke-width="1.5" d="M0,-3.0v7 M-2.5,-0.5L0,-3.0L2.5,-0.5"/>
                </g>
               <g id="resetDef">
                       <use xlink:href="#rim2" fill="#404040">
                               <set attributeName="fill" to="#808080" begin="reset.mouseover" end="reset.mouseout"/>
                       </use>
               </g>
        </defs>

<script type="text/javascript">
var viewWidth = 1088;
var viewHeight = 887;
var sectionId = 'dynsection-2';
</script>
<script xlink:href="svgpan.js"/>
<svg id="graph" class="graph">
<g id="viewport">
<title>CChordFromFile::CChordFromFile</title>
<polygon fill="white" stroke="transparent" points="-4,4 -4,-883 1084,-883 1084,4 -4,4"/>
<!-- Node1 -->
<g id="node1" class="node">
<title>Node1</title>
<g id="a_node1"><a xlink:title=" ">
<polygon fill="#bfbfbf" stroke="black" points="0,-764.5 0,-783.5 162,-783.5 162,-764.5 0,-764.5"/>
<text text-anchor="middle" x="81" y="-771.5" font-family="Helvetica,sans-Serif" font-size="10.00">CChordFromFile::CChordFromFile</text>
</a>
</g>
</g>
<!-- Node2 -->
<g id="node2" class="node">
<title>Node2</title>
<g id="a_node2"><a xlink:href="a00439.xhtml#aab987b1a4ec96a8fc835b1733a1ee0c3" target="_top" xlink:title=" ">
<polygon fill="white" stroke="black" points="210.5,-859.5 210.5,-878.5 311.5,-878.5 311.5,-859.5 210.5,-859.5"/>
<text text-anchor="middle" x="261" y="-866.5" font-family="Helvetica,sans-Serif" font-size="10.00">CAudioFileIf::create</text>
</a>
</g>
</g>
<!-- Node1&#45;&gt;Node2 -->
<g id="edge1" class="edge">
<title>Node1&#45;&gt;Node2</title>
<path fill="none" stroke="midnightblue" d="M94.18,-783.67C114.59,-799.48 157.46,-830.98 198,-850 202.72,-852.21 207.76,-854.25 212.85,-856.1"/>
<polygon fill="midnightblue" stroke="midnightblue" points="212.04,-859.52 222.64,-859.42 214.29,-852.89 212.04,-859.52"/>
</g>
<!-- Node3 -->
<g id="node3" class="node">
<title>Node3</title>
<g id="a_node3"><a xlink:href="a00535.xhtml#a84f0c2bf28007ef7749ab0e90c8011d2" target="_top" xlink:title=" ">
<polygon fill="white" stroke="black" points="206,-821.5 206,-840.5 316,-840.5 316,-821.5 206,-821.5"/>
<text text-anchor="middle" x="261" y="-828.5" font-family="Helvetica,sans-Serif" font-size="10.00">CBlockAudioIf::create</text>
</a>
</g>
</g>
<!-- Node1&#45;&gt;Node3 -->
<g id="edge2" class="edge">
<title>Node1&#45;&gt;Node3</title>
<path fill="none" stroke="midnightblue" d="M110.55,-783.52C134,-791.3 168.1,-802.52 198,-812 204.63,-814.1 211.68,-816.3 218.55,-818.42"/>
<polygon fill="midnightblue" stroke="midnightblue" points="217.84,-821.86 228.42,-821.45 219.89,-815.17 217.84,-821.86"/>
</g>
<!-- Node4 -->
<g id="node4" class="node">
<title>Node4</title>
<g id="a_node4"><a xlink:href="a00439.xhtml#a7ddbbf5f828e61db7fd75dbf47a33832" target="_top" xlink:title=" ">
<polygon fill="white" stroke="black" points="198,-783.5 198,-802.5 324,-802.5 324,-783.5 198,-783.5"/>
<text text-anchor="middle" x="261" y="-790.5" font-family="Helvetica,sans-Serif" font-size="10.00">CAudioFileIf::getFileSpec</text>
</a>
</g>
</g>
<!-- Node1&#45;&gt;Node4 -->
<g id="edge3" class="edge">
<title>Node1&#45;&gt;Node4</title>
<path fill="none" stroke="midnightblue" d="M162.15,-782.56C170.68,-783.47 179.31,-784.39 187.74,-785.29"/>
<polygon fill="midnightblue" stroke="midnightblue" points="187.59,-788.79 197.9,-786.37 188.33,-781.83 187.59,-788.79"/>
</g>
<!-- Node5 -->
<g id="node5" class="node">
<title>Node5</title>
<g id="a_node5"><a xlink:href="a00451.xhtml#ad48a5bd574f16b7491b70efb9998935f" target="_top" xlink:title="init configuration">
<polygon fill="white" stroke="black" points="222.5,-349.5 222.5,-368.5 299.5,-368.5 299.5,-349.5 222.5,-349.5"/>
<text text-anchor="middle" x="261" y="-356.5" font-family="Helvetica,sans-Serif" font-size="10.00">CChordIf::init_</text>
</a>
</g>
</g>
<!-- Node1&#45;&gt;Node5 -->
<g id="edge4" class="edge">
<title>Node1&#45;&gt;Node5</title>
<path fill="none" stroke="midnightblue" d="M86.22,-764.15C109.36,-710.22 220.77,-450.47 251.9,-377.88"/>
<polygon fill="midnightblue" stroke="midnightblue" points="255.17,-379.14 255.89,-368.57 248.73,-376.39 255.17,-379.14"/>
</g>
<!-- Node40 -->
<g id="node40" class="node">
<title>Node40</title>
<g id="a_node40"><a xlink:href="a00439.xhtml#ac845c2e45bc7bab904b73d432b00a05b" target="_top" xlink:title=" ">
<polygon fill="white" stroke="black" points="205.5,-707.5 205.5,-726.5 316.5,-726.5 316.5,-707.5 205.5,-707.5"/>
<text text-anchor="middle" x="261" y="-714.5" font-family="Helvetica,sans-Serif" font-size="10.00">CAudioFileIf::openFile</text>
</a>
</g>
</g>
<!-- Node1&#45;&gt;Node40 -->
<g id="edge53" class="edge">
<title>Node1&#45;&gt;Node40</title>
<path fill="none" stroke="midnightblue" d="M111.79,-764.46C141.57,-754.92 187.53,-740.21 220.37,-729.69"/>
<polygon fill="midnightblue" stroke="midnightblue" points="221.65,-732.95 230.11,-726.57 219.52,-726.29 221.65,-732.95"/>
</g>
<!-- Node41 -->
<g id="node41" class="node">
<title>Node41</title>
<g id="a_node41"><a xlink:href="a00451.xhtml#a333842dc3ecbbf719eee742f1a4b1845" target="_top" xlink:title="reset configuration">
<polygon fill="white" stroke="black" points="702.5,-719.5 702.5,-738.5 788.5,-738.5 788.5,-719.5 702.5,-719.5"/>
<text text-anchor="middle" x="745.5" y="-726.5" font-family="Helvetica,sans-Serif" font-size="10.00">CChordIf::reset_</text>
</a>
</g>
</g>
<!-- Node1&#45;&gt;Node41 -->
<g id="edge54" class="edge">
<title>Node1&#45;&gt;Node41</title>
<path fill="none" stroke="midnightblue" d="M162.11,-768.85C272.27,-761.73 476.69,-748.35 651,-736 664.33,-735.06 678.72,-734 692.13,-733"/>
<polygon fill="midnightblue" stroke="midnightblue" points="692.44,-736.48 702.15,-732.24 691.92,-729.5 692.44,-736.48"/>
</g>
<!-- Node6 -->
<g id="node6" class="node">
<title>Node6</title>
<g id="a_node6"><a xlink:href="a00495.xhtml#abaadac98b1cad18b7b568852bc951696" target="_top" xlink:title=" ">
<polygon fill="white" stroke="black" points="859,-228.5 859,-247.5 936,-247.5 936,-228.5 859,-228.5"/>
<text text-anchor="middle" x="897.5" y="-235.5" font-family="Helvetica,sans-Serif" font-size="10.00">CVector::alloc</text>
</a>
</g>
</g>
<!-- Node5&#45;&gt;Node6 -->
<g id="edge5" class="edge">
<title>Node5&#45;&gt;Node6</title>
<path fill="none" stroke="midnightblue" d="M274.05,-349.21C307.66,-322.68 406.35,-250.05 503,-230 625.53,-204.58 774.13,-219.62 848.79,-230.25"/>
<polygon fill="midnightblue" stroke="midnightblue" points="848.42,-233.73 858.83,-231.71 849.44,-226.8 848.42,-233.73"/>
</g>
<!-- Node8 -->
<g id="node8" class="node">
<title>Node8</title>
<g id="a_node8"><a xlink:href="a00479.xhtml#a6501b78d76c912d49eee88c8f7242923" target="_top" xlink:title=" ">
<polygon fill="white" stroke="black" points="708.5,-365.5 708.5,-384.5 782.5,-384.5 782.5,-365.5 708.5,-365.5"/>
<text text-anchor="middle" x="745.5" y="-372.5" font-family="Helvetica,sans-Serif" font-size="10.00">CMatrix::alloc</text>
</a>
</g>
</g>
<!-- Node5&#45;&gt;Node8 -->
<g id="edge7" class="edge">
<title>Node5&#45;&gt;Node8</title>
<path fill="none" stroke="midnightblue" d="M279.04,-349.41C298.08,-339.29 330.16,-323.99 360,-318 486.8,-292.54 531.85,-267.69 651,-318 672.14,-326.93 667.65,-342.68 687,-355 690.81,-357.43 694.96,-359.6 699.22,-361.54"/>
<polygon fill="midnightblue" stroke="midnightblue" points="698.06,-364.85 708.64,-365.42 700.72,-358.38 698.06,-364.85"/>
</g>
<!-- Node9 -->
<g id="node9" class="node">
<title>Node9</title>
<g id="a_node9"><a xlink:href="a00455.xhtml#ac51d13fa2b36cafa4962cb3592ebfcb7" target="_top" xlink:title=" ">
<polygon fill="white" stroke="black" points="360,-366 360,-396 467,-396 467,-366 360,-366"/>
<text text-anchor="start" x="368" y="-384" font-family="Helvetica,sans-Serif" font-size="10.00">CChordFromBlockIf::</text>
<text text-anchor="middle" x="413.5" y="-373" font-family="Helvetica,sans-Serif" font-size="10.00">create</text>
</a>
</g>
</g>
<!-- Node5&#45;&gt;Node9 -->
<g id="edge9" class="edge">
<title>Node5&#45;&gt;Node9</title>
<path fill="none" stroke="midnightblue" d="M299.59,-364.49C314.8,-366.72 332.78,-369.35 349.86,-371.84"/>
<polygon fill="midnightblue" stroke="midnightblue" points="349.39,-375.31 359.79,-373.29 350.4,-368.39 349.39,-375.31"/>
</g>
<!-- Node15 -->
<g id="node15" class="node">
<title>Node15</title>
<g id="a_node15"><a xlink:href="a00467.xhtml#a9cb162394031e8b496f7a39b51c31d20" target="_top" xlink:title=" ">
<polygon fill="white" stroke="black" points="372,-327.5 372,-346.5 455,-346.5 455,-327.5 372,-327.5"/>
<text text-anchor="middle" x="413.5" y="-334.5" font-family="Helvetica,sans-Serif" font-size="10.00">CFft::getLength</text>
</a>
</g>
</g>
<!-- Node5&#45;&gt;Node15 -->
<g id="edge17" class="edge">
<title>Node5&#45;&gt;Node15</title>
<path fill="none" stroke="midnightblue" d="M299.59,-353.51C318.43,-350.75 341.52,-347.38 361.9,-344.4"/>
<polygon fill="midnightblue" stroke="midnightblue" points="362.57,-347.84 371.96,-342.93 361.56,-340.91 362.57,-347.84"/>
</g>
<!-- Node16 -->
<g id="node16" class="node">
<title>Node16</title>
<g id="a_node16"><a xlink:href="a00535.xhtml#a595b3a391e2540a1dc9e53edf8634494" target="_top" xlink:title=" ">
<polygon fill="white" stroke="black" points="503,-327.5 503,-346.5 651,-346.5 651,-327.5 503,-327.5"/>
<text text-anchor="middle" x="577" y="-334.5" font-family="Helvetica,sans-Serif" font-size="10.00">CBlockAudioIf::getNumBlocks</text>
</a>
</g>
</g>
<!-- Node5&#45;&gt;Node16 -->
<g id="edge18" class="edge">
<title>Node5&#45;&gt;Node16</title>
<path fill="none" stroke="midnightblue" d="M276.89,-368.65C311.71,-389.9 400.58,-436.47 467,-405 489.83,-394.18 482.17,-375.29 503,-361 509.2,-356.74 516.21,-353.2 523.37,-350.26"/>
<polygon fill="midnightblue" stroke="midnightblue" points="525.02,-353.38 533.17,-346.61 522.58,-346.82 525.02,-353.38"/>
</g>
<!-- Node17 -->
<g id="node17" class="node">
<title>Node17</title>
<g id="a_node17"><a xlink:href="a00467.xhtml#adea9b0cecccfdb5a3da3218da6f683dd" target="_top" xlink:title=" ">
<polygon fill="white" stroke="black" points="550.5,-95.5 550.5,-114.5 603.5,-114.5 603.5,-95.5 550.5,-95.5"/>
<text text-anchor="middle" x="577" y="-102.5" font-family="Helvetica,sans-Serif" font-size="10.00">CFft::init</text>
</a>
</g>
</g>
<!-- Node5&#45;&gt;Node17 -->
<g id="edge19" class="edge">
<title>Node5&#45;&gt;Node17</title>
<path fill="none" stroke="midnightblue" d="M264.89,-349.23C273.96,-320.16 304.63,-233.31 360,-186 413.22,-140.53 494.45,-119.39 540.64,-110.55"/>
<polygon fill="midnightblue" stroke="midnightblue" points="541.28,-114 550.49,-108.76 540.03,-107.11 541.28,-114"/>
</g>
<!-- Node25 -->
<g id="node25" class="node">
<title>Node25</title>
<g id="a_node25"><a xlink:href="a00451.xhtml#a2dc9b2b2e4912e45835c5727d550aee7" target="_top" xlink:title=" ">
<polygon fill="white" stroke="black" points="361,-498.5 361,-517.5 466,-517.5 466,-498.5 361,-498.5"/>
<text text-anchor="middle" x="413.5" y="-505.5" font-family="Helvetica,sans-Serif" font-size="10.00">CChordIf::initViterbi_</text>
</a>
</g>
</g>
<!-- Node5&#45;&gt;Node25 -->
<g id="edge28" class="edge">
<title>Node5&#45;&gt;Node25</title>
<path fill="none" stroke="midnightblue" d="M271.87,-368.78C297.07,-393.72 364,-459.98 395.57,-491.24"/>
<polygon fill="midnightblue" stroke="midnightblue" points="393.22,-493.83 402.78,-498.38 398.14,-488.86 393.22,-493.83"/>
</g>
<!-- Node7 -->
<g id="node7" class="node">
<title>Node7</title>
<g id="a_node7"><a xlink:href="a00495.xhtml#a6dbb3f9f480568b60f7fe50090d20003" target="_top" xlink:title=" ">
<polygon fill="white" stroke="black" points="991,-228.5 991,-247.5 1080,-247.5 1080,-228.5 991,-228.5"/>
<text text-anchor="middle" x="1035.5" y="-235.5" font-family="Helvetica,sans-Serif" font-size="10.00">CVector::setZero</text>
</a>
</g>
</g>
<!-- Node6&#45;&gt;Node7 -->
<g id="edge6" class="edge">
<title>Node6&#45;&gt;Node7</title>
<path fill="none" stroke="midnightblue" d="M936.02,-238C949.82,-238 965.73,-238 980.68,-238"/>
<polygon fill="midnightblue" stroke="midnightblue" points="980.84,-241.5 990.84,-238 980.84,-234.5 980.84,-241.5"/>
</g>
<!-- Node8&#45;&gt;Node6 -->
<g id="edge8" class="edge">
<title>Node8&#45;&gt;Node6</title>
<path fill="none" stroke="midnightblue" d="M782.71,-367.82C790.49,-364.89 798.12,-360.78 804,-355 837.09,-322.47 806.74,-289.35 840,-257 842.88,-254.2 846.19,-251.81 849.72,-249.77"/>
<polygon fill="midnightblue" stroke="midnightblue" points="851.36,-252.87 858.88,-245.4 848.35,-246.55 851.36,-252.87"/>
</g>
<!-- Node10 -->
<g id="node10" class="node">
<title>Node10</title>
<g id="a_node10"><a xlink:href="a00455.xhtml#a2e221ac492231e16a62781a573921a9c" target="_top" xlink:title=" ">
<polygon fill="white" stroke="black" points="523.5,-240 523.5,-270 630.5,-270 630.5,-240 523.5,-240"/>
<text text-anchor="start" x="531.5" y="-258" font-family="Helvetica,sans-Serif" font-size="10.00">CChordFromBlockIf::</text>
<text text-anchor="middle" x="577" y="-247" font-family="Helvetica,sans-Serif" font-size="10.00">CChordFromBlockIf</text>
</a>
</g>
</g>
<!-- Node9&#45;&gt;Node10 -->
<g id="edge10" class="edge">
<title>Node9&#45;&gt;Node10</title>
<path fill="none" stroke="midnightblue" d="M450.81,-365.88C456.43,-362.93 462.02,-359.62 467,-356 485.82,-342.32 486.17,-334.06 503,-318 517.98,-303.7 535.53,-288.51 549.67,-276.62"/>
<polygon fill="midnightblue" stroke="midnightblue" points="552.12,-279.14 557.55,-270.04 547.63,-273.76 552.12,-279.14"/>
</g>
<!-- Node10&#45;&gt;Node6 -->
<g id="edge11" class="edge">
<title>Node10&#45;&gt;Node6</title>
<path fill="none" stroke="midnightblue" d="M630.59,-252.19C691.26,-248.95 790.16,-243.68 848.72,-240.55"/>
<polygon fill="midnightblue" stroke="midnightblue" points="849.01,-244.04 858.81,-240.01 848.64,-237.05 849.01,-244.04"/>
</g>
<!-- Node10&#45;&gt;Node8 -->
<g id="edge12" class="edge">
<title>Node10&#45;&gt;Node8</title>
<path fill="none" stroke="midnightblue" d="M628.32,-270.12C636.51,-274.08 644.44,-278.98 651,-285 676.77,-308.66 660.59,-332.06 687,-355 690.65,-358.17 694.83,-360.84 699.23,-363.1"/>
<polygon fill="midnightblue" stroke="midnightblue" points="697.92,-366.35 708.49,-367.17 700.74,-359.94 697.92,-366.35"/>
</g>
<!-- Node11 -->
<g id="node11" class="node">
<title>Node11</title>
<g id="a_node11"><a xlink:href="a00463.xhtml#a6d3ca4f66582ae352e3addfd7f99a752" target="_top" xlink:title=" ">
<polygon fill="white" stroke="black" points="690.5,-267 690.5,-297 800.5,-297 800.5,-267 690.5,-267"/>
<text text-anchor="start" x="698.5" y="-285" font-family="Helvetica,sans-Serif" font-size="10.00">CFeatureFromBlockIf</text>
<text text-anchor="middle" x="745.5" y="-274" font-family="Helvetica,sans-Serif" font-size="10.00">::create</text>
</a>
</g>
</g>
<!-- Node10&#45;&gt;Node11 -->
<g id="edge13" class="edge">
<title>Node10&#45;&gt;Node11</title>
<path fill="none" stroke="midnightblue" d="M630.68,-263.54C646.46,-266.1 663.94,-268.94 680.37,-271.6"/>
<polygon fill="midnightblue" stroke="midnightblue" points="680.01,-275.09 690.44,-273.23 681.13,-268.18 680.01,-275.09"/>
</g>
<!-- Node13 -->
<g id="node13" class="node">
<title>Node13</title>
<g id="a_node13"><a xlink:href="a00455.xhtml#ab2c2fed87717cbeca6d10d0438a12c47" target="_top" xlink:title=" ">
<polygon fill="white" stroke="black" points="692,-316 692,-346 799,-346 799,-316 692,-316"/>
<text text-anchor="start" x="700" y="-334" font-family="Helvetica,sans-Serif" font-size="10.00">CChordFromBlockIf::</text>
<text text-anchor="middle" x="745.5" y="-323" font-family="Helvetica,sans-Serif" font-size="10.00">genTemplateMatrix_</text>
</a>
</g>
</g>
<!-- Node10&#45;&gt;Node13 -->
<g id="edge15" class="edge">
<title>Node10&#45;&gt;Node13</title>
<path fill="none" stroke="midnightblue" d="M617.46,-270.06C628.46,-274.56 640.31,-279.72 651,-285 667.61,-293.21 670.48,-297.63 687,-306 690.77,-307.91 694.72,-309.82 698.7,-311.67"/>
<polygon fill="midnightblue" stroke="midnightblue" points="697.45,-314.95 708,-315.9 700.35,-308.58 697.45,-314.95"/>
</g>
<!-- Node12 -->
<g id="node12" class="node">
<title>Node12</title>
<g id="a_node12"><a xlink:href="a00463.xhtml#a483bca508e2817799a3173a6180d245e" target="_top" xlink:title=" ">
<polygon fill="white" stroke="black" points="840.5,-267 840.5,-297 954.5,-297 954.5,-267 840.5,-267"/>
<text text-anchor="start" x="848.5" y="-285" font-family="Helvetica,sans-Serif" font-size="10.00">CFeatureFromBlockIf</text>
<text text-anchor="middle" x="897.5" y="-274" font-family="Helvetica,sans-Serif" font-size="10.00">::CFeatureFromBlockIf</text>
</a>
</g>
</g>
<!-- Node11&#45;&gt;Node12 -->
<g id="edge14" class="edge">
<title>Node11&#45;&gt;Node12</title>
<path fill="none" stroke="midnightblue" d="M800.65,-282C810.24,-282 820.33,-282 830.21,-282"/>
<polygon fill="midnightblue" stroke="midnightblue" points="830.41,-285.5 840.41,-282 830.41,-278.5 830.41,-285.5"/>
</g>
<!-- Node14 -->
<g id="node14" class="node">
<title>Node14</title>
<g id="a_node14"><a xlink:href="a00495.xhtml#a22ff86e4fc2f8d5042159d9c84a7ff14" target="_top" xlink:title=" ">
<polygon fill="white" stroke="black" points="854,-362.5 854,-381.5 941,-381.5 941,-362.5 854,-362.5"/>
<text text-anchor="middle" x="897.5" y="-369.5" font-family="Helvetica,sans-Serif" font-size="10.00">CVector::addC_I</text>
</a>
</g>
</g>
<!-- Node13&#45;&gt;Node14 -->
<g id="edge16" class="edge">
<title>Node13&#45;&gt;Node14</title>
<path fill="none" stroke="midnightblue" d="M799.38,-345.46C816.43,-350.11 835.14,-355.23 851.56,-359.72"/>
<polygon fill="midnightblue" stroke="midnightblue" points="850.88,-363.16 861.45,-362.42 852.72,-356.41 850.88,-363.16"/>
</g>
<!-- Node18 -->
<g id="node18" class="node">
<title>Node18</title>
<g id="a_node18"><a xlink:href="a00467.xhtml#adf2bc81be5029515f69907765ecc2476" target="_top" xlink:title=" ">
<polygon fill="white" stroke="black" points="695.5,-0.5 695.5,-19.5 795.5,-19.5 795.5,-0.5 695.5,-0.5"/>
<text text-anchor="middle" x="745.5" y="-7.5" font-family="Helvetica,sans-Serif" font-size="10.00">CFft::allocMemory_</text>
</a>
</g>
</g>
<!-- Node17&#45;&gt;Node18 -->
<g id="edge20" class="edge">
<title>Node17&#45;&gt;Node18</title>
<path fill="none" stroke="midnightblue" d="M589.39,-95.37C608.47,-79.62 648.63,-48.2 687,-29 691.3,-26.85 695.9,-24.86 700.55,-23.04"/>
<polygon fill="midnightblue" stroke="midnightblue" points="701.9,-26.28 710.09,-19.56 699.5,-19.7 701.9,-26.28"/>
</g>
<!-- Node19 -->
<g id="node19" class="node">
<title>Node19</title>
<g id="a_node19"><a xlink:href="a00467.xhtml#aa5fffd68919cea17741c9fe69209bce6" target="_top" xlink:title=" ">
<polygon fill="white" stroke="black" points="687,-114.5 687,-133.5 804,-133.5 804,-114.5 687,-114.5"/>
<text text-anchor="middle" x="745.5" y="-121.5" font-family="Helvetica,sans-Serif" font-size="10.00">CFft::computeWindow_</text>
</a>
</g>
</g>
<!-- Node17&#45;&gt;Node19 -->
<g id="edge22" class="edge">
<title>Node17&#45;&gt;Node19</title>
<path fill="none" stroke="midnightblue" d="M603.65,-107.93C623.14,-110.15 650.89,-113.32 676.61,-116.25"/>
<polygon fill="midnightblue" stroke="midnightblue" points="676.39,-119.75 686.72,-117.41 677.18,-112.8 676.39,-119.75"/>
</g>
<!-- Node20 -->
<g id="node20" class="node">
<title>Node20</title>
<g id="a_node20"><a xlink:href="a00491.xhtml#a6d0e75b0bcbbb243b7141cfc0126e443" target="_top" xlink:title=" ">
<polygon fill="white" stroke="black" points="702.5,-76.5 702.5,-95.5 788.5,-95.5 788.5,-76.5 702.5,-76.5"/>
<text text-anchor="middle" x="745.5" y="-83.5" font-family="Helvetica,sans-Serif" font-size="10.00">CUtil::isPowOf2</text>
</a>
</g>
</g>
<!-- Node17&#45;&gt;Node20 -->
<g id="edge23" class="edge">
<title>Node17&#45;&gt;Node20</title>
<path fill="none" stroke="midnightblue" d="M603.65,-102.07C627.15,-99.39 662.66,-95.34 692.15,-91.97"/>
<polygon fill="midnightblue" stroke="midnightblue" points="692.76,-95.43 702.3,-90.82 691.96,-88.47 692.76,-95.43"/>
</g>
<!-- Node21 -->
<g id="node21" class="node">
<title>Node21</title>
<g id="a_node21"><a xlink:href="a00491.xhtml#a0fd55429d52515a9efb2fe602ce8f9ed" target="_top" xlink:title=" ">
<polygon fill="white" stroke="black" points="697.5,-38.5 697.5,-57.5 793.5,-57.5 793.5,-38.5 697.5,-38.5"/>
<text text-anchor="middle" x="745.5" y="-45.5" font-family="Helvetica,sans-Serif" font-size="10.00">CUtil::nextPowOf2</text>
</a>
</g>
</g>
<!-- Node17&#45;&gt;Node21 -->
<g id="edge24" class="edge">
<title>Node17&#45;&gt;Node21</title>
<path fill="none" stroke="midnightblue" d="M603.51,-95.98C625.57,-88.2 658.35,-76.73 687,-67 693.01,-64.96 699.38,-62.82 705.62,-60.75"/>
<polygon fill="midnightblue" stroke="midnightblue" points="706.82,-64.04 715.22,-57.57 704.62,-57.39 706.82,-64.04"/>
</g>
<!-- Node22 -->
<g id="node22" class="node">
<title>Node22</title>
<g id="a_node22"><a xlink:href="a00467.xhtml#a0a0053b6ce93161553b573a16c77387a" target="_top" xlink:title=" ">
<polygon fill="white" stroke="black" points="714.5,-152.5 714.5,-171.5 776.5,-171.5 776.5,-152.5 714.5,-152.5"/>
<text text-anchor="middle" x="745.5" y="-159.5" font-family="Helvetica,sans-Serif" font-size="10.00">CFft::reset</text>
</a>
</g>
</g>
<!-- Node17&#45;&gt;Node22 -->
<g id="edge25" class="edge">
<title>Node17&#45;&gt;Node22</title>
<path fill="none" stroke="midnightblue" d="M603.51,-114.02C625.57,-121.8 658.35,-133.27 687,-143 693.01,-145.04 699.38,-147.18 705.62,-149.25"/>
<polygon fill="midnightblue" stroke="midnightblue" points="704.62,-152.61 715.22,-152.43 706.82,-145.96 704.62,-152.61"/>
</g>
<!-- Node18&#45;&gt;Node6 -->
<g id="edge21" class="edge">
<title>Node18&#45;&gt;Node6</title>
<path fill="none" stroke="midnightblue" d="M791.75,-19.65C796.34,-22.09 800.57,-25.16 804,-29 855.77,-86.9 796.59,-135.6 840,-200 846.48,-209.61 856.27,-217.43 865.9,-223.42"/>
<polygon fill="midnightblue" stroke="midnightblue" points="864.18,-226.47 874.59,-228.41 867.66,-220.4 864.18,-226.47"/>
</g>
<!-- Node23 -->
<g id="node23" class="node">
<title>Node23</title>
<g id="a_node23"><a xlink:href="a00467.xhtml#af48c6112f4a0d28b5badd8f317f4d191" target="_top" xlink:title=" ">
<polygon fill="white" stroke="black" points="849.5,-171.5 849.5,-190.5 945.5,-190.5 945.5,-171.5 849.5,-171.5"/>
<text text-anchor="middle" x="897.5" y="-178.5" font-family="Helvetica,sans-Serif" font-size="10.00">CFft::freeMemory_</text>
</a>
</g>
</g>
<!-- Node22&#45;&gt;Node23 -->
<g id="edge26" class="edge">
<title>Node22&#45;&gt;Node23</title>
<path fill="none" stroke="midnightblue" d="M776.85,-165.84C794.81,-168.12 818.14,-171.07 839.42,-173.77"/>
<polygon fill="midnightblue" stroke="midnightblue" points="838.99,-177.24 849.35,-175.03 839.87,-170.3 838.99,-177.24"/>
</g>
<!-- Node24 -->
<g id="node24" class="node">
<title>Node24</title>
<g id="a_node24"><a xlink:href="a00495.xhtml#aa86bdb0c663d4d52f2765793756f8737" target="_top" xlink:title=" ">
<polygon fill="white" stroke="black" points="999,-593.5 999,-612.5 1072,-612.5 1072,-593.5 999,-593.5"/>
<text text-anchor="middle" x="1035.5" y="-600.5" font-family="Helvetica,sans-Serif" font-size="10.00">CVector::free</text>
</a>
</g>
</g>
<!-- Node23&#45;&gt;Node24 -->
<g id="edge27" class="edge">
<title>Node23&#45;&gt;Node24</title>
<path fill="none" stroke="midnightblue" d="M920.42,-190.58C932.44,-196.94 946.56,-206.44 955,-219 996.17,-280.3 1024.65,-513.43 1032.39,-583.18"/>
<polygon fill="midnightblue" stroke="midnightblue" points="1028.92,-583.68 1033.48,-593.25 1035.88,-582.93 1028.92,-583.68"/>
</g>
<!-- Node25&#45;&gt;Node8 -->
<g id="edge31" class="edge">
<title>Node25&#45;&gt;Node8</title>
<path fill="none" stroke="midnightblue" d="M420.48,-498.42C436.4,-473.25 480.18,-406.31 503,-394 564.3,-360.94 647.34,-362.7 698.35,-368.07"/>
<polygon fill="midnightblue" stroke="midnightblue" points="698.09,-371.56 708.42,-369.22 698.88,-364.6 698.09,-371.56"/>
</g>
<!-- Node25&#45;&gt;Node16 -->
<g id="edge37" class="edge">
<title>Node25&#45;&gt;Node16</title>
<path fill="none" stroke="midnightblue" d="M423.05,-498.21C434.1,-485.26 453.5,-461.45 467,-439 486.68,-406.28 474.5,-386.41 503,-361 507.53,-356.96 512.75,-353.6 518.28,-350.81"/>
<polygon fill="midnightblue" stroke="midnightblue" points="520.07,-353.84 527.81,-346.61 517.25,-347.44 520.07,-353.84"/>
</g>
<!-- Node26 -->
<g id="node26" class="node">
<title>Node26</title>
<g id="a_node26"><a xlink:href="a00479.xhtml#aa64e16e783bd3a28cb66efc96dc6b531" target="_top" xlink:title=" ">
<polygon fill="white" stroke="black" points="534.5,-403.5 534.5,-422.5 619.5,-422.5 619.5,-403.5 534.5,-403.5"/>
<text text-anchor="middle" x="577" y="-410.5" font-family="Helvetica,sans-Serif" font-size="10.00">CMatrix::addC_I</text>
</a>
</g>
</g>
<!-- Node25&#45;&gt;Node26 -->
<g id="edge29" class="edge">
<title>Node25&#45;&gt;Node26</title>
<path fill="none" stroke="midnightblue" d="M422.77,-498.5C437.35,-482.37 469.26,-449.65 503,-432 509.7,-428.5 517.08,-425.61 524.51,-423.23"/>
<polygon fill="midnightblue" stroke="midnightblue" points="525.62,-426.55 534.24,-420.4 523.66,-419.83 525.62,-426.55"/>
</g>
<!-- Node27 -->
<g id="node27" class="node">
<title>Node27</title>
<g id="a_node27"><a xlink:href="a00479.xhtml#a591097c6b1935c4d6273b3445f8f552b" target="_top" xlink:title=" ">
<polygon fill="white" stroke="black" points="862,-631.5 862,-650.5 933,-650.5 933,-631.5 862,-631.5"/>
<text text-anchor="middle" x="897.5" y="-638.5" font-family="Helvetica,sans-Serif" font-size="10.00">CMatrix::free</text>
</a>
</g>
</g>
<!-- Node25&#45;&gt;Node27 -->
<g id="edge32" class="edge">
<title>Node25&#45;&gt;Node27</title>
<path fill="none" stroke="midnightblue" d="M417.04,-517.56C424.71,-544.31 450.44,-620.01 503,-651 618.26,-718.96 787.39,-677.12 860.57,-653.68"/>
<polygon fill="midnightblue" stroke="midnightblue" points="861.83,-656.95 870.24,-650.5 859.65,-650.29 861.83,-656.95"/>
</g>
<!-- Node28 -->
<g id="node28" class="node">
<title>Node28</title>
<g id="a_node28"><a xlink:href="a00479.xhtml#ae05c266fa6761a9b1070e33f42e39d17" target="_top" xlink:title=" ">
<polygon fill="white" stroke="black" points="534,-479.5 534,-498.5 620,-498.5 620,-479.5 534,-479.5"/>
<text text-anchor="middle" x="577" y="-486.5" font-family="Helvetica,sans-Serif" font-size="10.00">CMatrix::getMax</text>
</a>
</g>
</g>
<!-- Node25&#45;&gt;Node28 -->
<g id="edge34" class="edge">
<title>Node25&#45;&gt;Node28</title>
<path fill="none" stroke="midnightblue" d="M466.04,-501.94C484.5,-499.76 505.32,-497.32 523.83,-495.14"/>
<polygon fill="midnightblue" stroke="midnightblue" points="524.32,-498.6 533.85,-493.96 523.51,-491.65 524.32,-498.6"/>
</g>
<!-- Node31 -->
<g id="node31" class="node">
<title>Node31</title>
<g id="a_node31"><a xlink:href="a00495.xhtml#abdbcc3898121387f3694f74491b7331e" target="_top" xlink:title=" ">
<polygon fill="white" stroke="black" points="532,-707.5 532,-726.5 622,-726.5 622,-707.5 532,-707.5"/>
<text text-anchor="middle" x="577" y="-714.5" font-family="Helvetica,sans-Serif" font-size="10.00">CVector::getSum</text>
</a>
</g>
</g>
<!-- Node25&#45;&gt;Node31 -->
<g id="edge38" class="edge">
<title>Node25&#45;&gt;Node31</title>
<path fill="none" stroke="midnightblue" d="M416.33,-517.67C422.6,-548.11 446.04,-642.93 503,-693 508.58,-697.9 515.19,-701.81 522.11,-704.92"/>
<polygon fill="midnightblue" stroke="midnightblue" points="521.09,-708.28 531.68,-708.69 523.66,-701.77 521.09,-708.28"/>
</g>
<!-- Node32 -->
<g id="node32" class="node">
<title>Node32</title>
<g id="a_node32"><a xlink:href="a00615.xhtml#a650535a050fd47b41632c2fc43e19a8d" target="_top" xlink:title=" ">
<polygon fill="white" stroke="black" points="543,-441.5 543,-460.5 611,-460.5 611,-441.5 543,-441.5"/>
<text text-anchor="middle" x="577" y="-448.5" font-family="Helvetica,sans-Serif" font-size="10.00">CViterbi::init</text>
</a>
</g>
</g>
<!-- Node25&#45;&gt;Node32 -->
<g id="edge39" class="edge">
<title>Node25&#45;&gt;Node32</title>
<path fill="none" stroke="midnightblue" d="M434.55,-498.36C452.26,-490.09 478.96,-478.24 503,-470 512.66,-466.69 523.21,-463.63 533.22,-460.98"/>
<polygon fill="midnightblue" stroke="midnightblue" points="534.17,-464.35 542.98,-458.47 532.42,-457.57 534.17,-464.35"/>
</g>
<!-- Node36 -->
<g id="node36" class="node">
<title>Node36</title>
<g id="a_node36"><a xlink:href="a00479.xhtml#a46d2ac8bc93f5d296b3f8d7ad5ebe28b" target="_top" xlink:title=" ">
<polygon fill="white" stroke="black" points="534.5,-593.5 534.5,-612.5 619.5,-612.5 619.5,-593.5 534.5,-593.5"/>
<text text-anchor="middle" x="577" y="-600.5" font-family="Helvetica,sans-Serif" font-size="10.00">CMatrix::mulC_I</text>
</a>
</g>
</g>
<!-- Node25&#45;&gt;Node36 -->
<g id="edge48" class="edge">
<title>Node25&#45;&gt;Node36</title>
<path fill="none" stroke="midnightblue" d="M422.77,-517.5C437.35,-533.63 469.26,-566.35 503,-584 509.7,-587.5 517.08,-590.39 524.51,-592.77"/>
<polygon fill="midnightblue" stroke="midnightblue" points="523.66,-596.17 534.24,-595.6 525.62,-589.45 523.66,-596.17"/>
</g>
<!-- Node37 -->
<g id="node37" class="node">
<title>Node37</title>
<g id="a_node37"><a xlink:href="a00495.xhtml#a9811f50434dd058d201290b2dc98bfcd" target="_top" xlink:title=" ">
<polygon fill="white" stroke="black" points="702,-631.5 702,-650.5 789,-650.5 789,-631.5 702,-631.5"/>
<text text-anchor="middle" x="745.5" y="-638.5" font-family="Helvetica,sans-Serif" font-size="10.00">CVector::mulC_I</text>
</a>
</g>
</g>
<!-- Node25&#45;&gt;Node37 -->
<g id="edge50" class="edge">
<title>Node25&#45;&gt;Node37</title>
<path fill="none" stroke="midnightblue" d="M418.55,-517.53C428.81,-540.32 458.23,-597.86 503,-622 561.7,-653.66 640.34,-653.38 691.7,-648.59"/>
<polygon fill="midnightblue" stroke="midnightblue" points="692.32,-652.05 701.91,-647.55 691.6,-645.08 692.32,-652.05"/>
</g>
<!-- Node38 -->
<g id="node38" class="node">
<title>Node38</title>
<g id="a_node38"><a xlink:href="a00479.xhtml#a989372fd225413baed0cc7902c4af03d" target="_top" xlink:title=" ">
<polygon fill="white" stroke="black" points="536,-555.5 536,-574.5 618,-574.5 618,-555.5 536,-555.5"/>
<text text-anchor="middle" x="577" y="-562.5" font-family="Helvetica,sans-Serif" font-size="10.00">CMatrix::setCol</text>
</a>
</g>
</g>
<!-- Node25&#45;&gt;Node38 -->
<g id="edge51" class="edge">
<title>Node25&#45;&gt;Node38</title>
<path fill="none" stroke="midnightblue" d="M434.55,-517.64C452.26,-525.91 478.96,-537.76 503,-546 510.4,-548.54 518.33,-550.92 526.13,-553.1"/>
<polygon fill="midnightblue" stroke="midnightblue" points="525.33,-556.5 535.89,-555.72 527.15,-549.74 525.33,-556.5"/>
</g>
<!-- Node39 -->
<g id="node39" class="node">
<title>Node39</title>
<g id="a_node39"><a xlink:href="a00495.xhtml#a4cf9544dd96801e3ee47fd1ef2049a1b" target="_top" xlink:title=" ">
<polygon fill="white" stroke="black" points="529.5,-517.5 529.5,-536.5 624.5,-536.5 624.5,-517.5 529.5,-517.5"/>
<text text-anchor="middle" x="577" y="-524.5" font-family="Helvetica,sans-Serif" font-size="10.00">CVector::setValue</text>
</a>
</g>
</g>
<!-- Node25&#45;&gt;Node39 -->
<g id="edge52" class="edge">
<title>Node25&#45;&gt;Node39</title>
<path fill="none" stroke="midnightblue" d="M466.04,-514.06C483.02,-516.06 501.99,-518.29 519.33,-520.33"/>
<polygon fill="midnightblue" stroke="midnightblue" points="518.98,-523.82 529.32,-521.51 519.8,-516.86 518.98,-523.82"/>
</g>
<!-- Node26&#45;&gt;Node14 -->
<g id="edge30" class="edge">
<title>Node26&#45;&gt;Node14</title>
<path fill="none" stroke="midnightblue" d="M619.88,-411.36C665.42,-409.13 740.24,-404.2 804,-394 819.63,-391.5 836.52,-387.79 851.55,-384.12"/>
<polygon fill="midnightblue" stroke="midnightblue" points="852.76,-387.42 861.61,-381.6 851.06,-380.63 852.76,-387.42"/>
</g>
<!-- Node27&#45;&gt;Node24 -->
<g id="edge33" class="edge">
<title>Node27&#45;&gt;Node24</title>
<path fill="none" stroke="midnightblue" d="M932.82,-631.41C950.29,-626.53 971.74,-620.54 990.43,-615.32"/>
<polygon fill="midnightblue" stroke="midnightblue" points="991.5,-618.65 1000.19,-612.59 989.62,-611.91 991.5,-618.65"/>
</g>
<!-- Node29 -->
<g id="node29" class="node">
<title>Node29</title>
<g id="a_node29"><a xlink:href="a00495.xhtml#a9f5be871090bc5a64a7732cebfb4f8ec" target="_top" xlink:title=" ">
<polygon fill="white" stroke="black" points="701.5,-593.5 701.5,-612.5 789.5,-612.5 789.5,-593.5 701.5,-593.5"/>
<text text-anchor="middle" x="745.5" y="-600.5" font-family="Helvetica,sans-Serif" font-size="10.00">CVector::getMax</text>
</a>
</g>
</g>
<!-- Node28&#45;&gt;Node29 -->
<g id="edge35" class="edge">
<title>Node28&#45;&gt;Node29</title>
<path fill="none" stroke="midnightblue" d="M620.34,-493.51C631.24,-496.32 642.32,-500.82 651,-508 679.79,-531.83 658.99,-559.25 687,-584 688.93,-585.71 691.02,-587.26 693.21,-588.67"/>
<polygon fill="midnightblue" stroke="midnightblue" points="691.66,-591.81 702.13,-593.47 694.98,-585.65 691.66,-591.81"/>
</g>
<!-- Node30 -->
<g id="node30" class="node">
<title>Node30</title>
<g id="a_node30"><a xlink:href="a00495.xhtml#a34a5c0abd80cd982df8a8bae7cbcea19" target="_top" xlink:title=" ">
<polygon fill="white" stroke="black" points="853,-593.5 853,-612.5 942,-612.5 942,-593.5 853,-593.5"/>
<text text-anchor="middle" x="897.5" y="-600.5" font-family="Helvetica,sans-Serif" font-size="10.00">CVector::findMax</text>
</a>
</g>
</g>
<!-- Node29&#45;&gt;Node30 -->
<g id="edge36" class="edge">
<title>Node29&#45;&gt;Node30</title>
<path fill="none" stroke="midnightblue" d="M789.89,-603C806.45,-603 825.53,-603 842.93,-603"/>
<polygon fill="midnightblue" stroke="midnightblue" points="842.95,-606.5 852.95,-603 842.95,-599.5 842.95,-606.5"/>
</g>
<!-- Node32&#45;&gt;Node6 -->
<g id="edge40" class="edge">
<title>Node32&#45;&gt;Node6</title>
<path fill="none" stroke="midnightblue" d="M611.02,-452.46C660.02,-452.73 751.81,-445.67 804,-394 848.74,-349.7 797.01,-302.99 840,-257 842.78,-254.02 846.05,-251.51 849.58,-249.4"/>
<polygon fill="midnightblue" stroke="midnightblue" points="851.33,-252.43 858.78,-244.9 848.26,-246.14 851.33,-252.43"/>
</g>
<!-- Node32&#45;&gt;Node8 -->
<g id="edge41" class="edge">
<title>Node32&#45;&gt;Node8</title>
<path fill="none" stroke="midnightblue" d="M611.02,-444.57C623.79,-441.53 638.34,-437.37 651,-432 677.32,-420.84 704.99,-403.12 723.33,-390.4"/>
<polygon fill="midnightblue" stroke="midnightblue" points="725.39,-393.23 731.54,-384.61 721.35,-387.51 725.39,-393.23"/>
</g>
<!-- Node33 -->
<g id="node33" class="node">
<title>Node33</title>
<g id="a_node33"><a xlink:href="a00479.xhtml#a9f723a71e61f425d0ee9a51aa2162bf3" target="_top" xlink:title=" ">
<polygon fill="white" stroke="black" points="708.5,-479.5 708.5,-498.5 782.5,-498.5 782.5,-479.5 708.5,-479.5"/>
<text text-anchor="middle" x="745.5" y="-486.5" font-family="Helvetica,sans-Serif" font-size="10.00">CMatrix::copy</text>
</a>
</g>
</g>
<!-- Node32&#45;&gt;Node33 -->
<g id="edge42" class="edge">
<title>Node32&#45;&gt;Node33</title>
<path fill="none" stroke="midnightblue" d="M611.29,-458.6C636.31,-464.31 670.88,-472.2 698.53,-478.51"/>
<polygon fill="midnightblue" stroke="midnightblue" points="697.85,-481.94 708.38,-480.76 699.41,-475.12 697.85,-481.94"/>
</g>
<!-- Node34 -->
<g id="node34" class="node">
<title>Node34</title>
<g id="a_node34"><a xlink:href="a00495.xhtml#ad7c5cba73e439adac77778f61c9418f0" target="_top" xlink:title=" ">
<polygon fill="white" stroke="black" points="859,-498.5 859,-517.5 936,-517.5 936,-498.5 859,-498.5"/>
<text text-anchor="middle" x="897.5" y="-505.5" font-family="Helvetica,sans-Serif" font-size="10.00">CVector::copy</text>
</a>
</g>
</g>
<!-- Node32&#45;&gt;Node34 -->
<g id="edge44" class="edge">
<title>Node32&#45;&gt;Node34</title>
<path fill="none" stroke="midnightblue" d="M611.14,-455.57C624.2,-458.39 638.93,-462.87 651,-470 671.03,-481.83 665.63,-498.81 687,-508 738.81,-530.29 804.72,-525.57 848.64,-518.39"/>
<polygon fill="midnightblue" stroke="midnightblue" points="849.51,-521.79 858.76,-516.63 848.31,-514.9 849.51,-521.79"/>
</g>
<!-- Node35 -->
<g id="node35" class="node">
<title>Node35</title>
<g id="a_node35"><a xlink:href="a00615.xhtml#acae19af3a95069496771f05336e4f94f" target="_top" xlink:title=" ">
<polygon fill="white" stroke="black" points="707,-555.5 707,-574.5 784,-574.5 784,-555.5 707,-555.5"/>
<text text-anchor="middle" x="745.5" y="-562.5" font-family="Helvetica,sans-Serif" font-size="10.00">CViterbi::reset</text>
</a>
</g>
</g>
<!-- Node32&#45;&gt;Node35 -->
<g id="edge45" class="edge">
<title>Node32&#45;&gt;Node35</title>
<path fill="none" stroke="midnightblue" d="M611.2,-453.67C624.73,-456.18 639.78,-460.96 651,-470 678.55,-492.19 661.08,-516.92 687,-541 691.16,-544.86 696.03,-548.15 701.15,-550.94"/>
<polygon fill="midnightblue" stroke="midnightblue" points="700,-554.27 710.53,-555.43 703.02,-547.95 700,-554.27"/>
</g>
<!-- Node33&#45;&gt;Node34 -->
<g id="edge43" class="edge">
<title>Node33&#45;&gt;Node34</title>
<path fill="none" stroke="midnightblue" d="M782.81,-493.6C802.63,-496.11 827.42,-499.25 848.78,-501.96"/>
<polygon fill="midnightblue" stroke="midnightblue" points="848.6,-505.46 858.96,-503.24 849.48,-498.52 848.6,-505.46"/>
</g>
<!-- Node35&#45;&gt;Node24 -->
<g id="edge46" class="edge">
<title>Node35&#45;&gt;Node24</title>
<path fill="none" stroke="midnightblue" d="M784.37,-566.81C826.31,-569.2 895.82,-574.28 955,-584 966.26,-585.85 978.28,-588.41 989.49,-591.05"/>
<polygon fill="midnightblue" stroke="midnightblue" points="988.95,-594.53 999.5,-593.49 990.61,-587.72 988.95,-594.53"/>
</g>
<!-- Node35&#45;&gt;Node27 -->
<g id="edge47" class="edge">
<title>Node35&#45;&gt;Node27</title>
<path fill="none" stroke="midnightblue" d="M784.22,-574.49C791.08,-577.03 797.96,-580.17 804,-584 823.64,-596.47 820.39,-609.48 840,-622 843.83,-624.45 848.01,-626.61 852.31,-628.53"/>
<polygon fill="midnightblue" stroke="midnightblue" points="851.23,-631.86 861.81,-632.31 853.82,-625.36 851.23,-631.86"/>
</g>
<!-- Node36&#45;&gt;Node37 -->
<g id="edge49" class="edge">
<title>Node36&#45;&gt;Node37</title>
<path fill="none" stroke="midnightblue" d="M619.59,-612.49C641.84,-617.57 669.44,-623.87 693.03,-629.25"/>
<polygon fill="midnightblue" stroke="midnightblue" points="692.34,-632.69 702.87,-631.5 693.9,-625.86 692.34,-632.69"/>
</g>
<!-- Node41&#45;&gt;Node24 -->
<g id="edge57" class="edge">
<title>Node41&#45;&gt;Node24</title>
<path fill="none" stroke="midnightblue" d="M767.51,-738.51C807.24,-754.94 894.79,-783.65 955,-748 1001.39,-720.53 1022.5,-655.35 1030.45,-622.55"/>
<polygon fill="midnightblue" stroke="midnightblue" points="1033.87,-623.3 1032.67,-612.78 1027.05,-621.76 1033.87,-623.3"/>
</g>
<!-- Node41&#45;&gt;Node27 -->
<g id="edge58" class="edge">
<title>Node41&#45;&gt;Node27</title>
<path fill="none" stroke="midnightblue" d="M763.34,-719.47C775.07,-712.59 790.9,-702.82 804,-693 821.13,-680.16 821.57,-671.89 840,-661 844.15,-658.55 848.65,-656.33 853.23,-654.34"/>
<polygon fill="midnightblue" stroke="midnightblue" points="854.68,-657.53 862.68,-650.58 852.09,-651.03 854.68,-657.53"/>
</g>
<!-- Node42 -->
<g id="node42" class="node">
<title>Node42</title>
<g id="a_node42"><a xlink:href="a00535.xhtml#a13d2bd6e36210dde0c64d188c1266b88" target="_top" xlink:title=" ">
<polygon fill="white" stroke="black" points="840,-719.5 840,-738.5 955,-738.5 955,-719.5 840,-719.5"/>
<text text-anchor="middle" x="897.5" y="-726.5" font-family="Helvetica,sans-Serif" font-size="10.00">CBlockAudioIf::destroy</text>
</a>
</g>
</g>
<!-- Node41&#45;&gt;Node42 -->
<g id="edge55" class="edge">
<title>Node41&#45;&gt;Node42</title>
<path fill="none" stroke="midnightblue" d="M788.68,-729C801.44,-729 815.78,-729 829.74,-729"/>
<polygon fill="midnightblue" stroke="midnightblue" points="829.8,-732.5 839.8,-729 829.8,-725.5 829.8,-732.5"/>
</g>
<!-- Node43 -->
<g id="node43" class="node">
<title>Node43</title>
<g id="a_node43"><a xlink:href="a00455.xhtml#afa15c2f57c2552592541337926473a3d" target="_top" xlink:title=" ">
<polygon fill="white" stroke="black" points="844,-670 844,-700 951,-700 951,-670 844,-670"/>
<text text-anchor="start" x="852" y="-688" font-family="Helvetica,sans-Serif" font-size="10.00">CChordFromBlockIf::</text>
<text text-anchor="middle" x="897.5" y="-677" font-family="Helvetica,sans-Serif" font-size="10.00">destroy</text>
</a>
</g>
</g>
<!-- Node41&#45;&gt;Node43 -->
<g id="edge56" class="edge">
<title>Node41&#45;&gt;Node43</title>
<path fill="none" stroke="midnightblue" d="M779.05,-719.45C795.56,-714.61 816.16,-708.57 835.48,-702.9"/>
<polygon fill="midnightblue" stroke="midnightblue" points="836.53,-706.24 845.14,-700.07 834.56,-699.52 836.53,-706.24"/>
</g>
</g>
</svg>
        <g id="navigator" transform="translate(0 0)" fill="#404254">
                <rect fill="#f2f5e9" fill-opacity="0.5" stroke="#606060" stroke-width=".5" x="0" y="0" width="60" height="60"/>
                <use id="zoomplus" xlink:href="#zoomPlus" x="17" y="9" onmousedown="handleZoom(evt,'in')"/>
                <use id="zoomminus" xlink:href="#zoomMin" x="42" y="9" onmousedown="handleZoom(evt,'out')"/>
                <use id="reset" xlink:href="#resetDef" x="30" y="36" onmousedown="handleReset()"/>
                <g id="arrowUp" xlink:href="#dirArrow" transform="translate(30 24)" onmousedown="handlePan(0,-1)">
                  <use xlink:href="#rim" fill="#404040">
                        <set attributeName="fill" to="#808080" begin="arrowUp.mouseover" end="arrowUp.mouseout"/>
                  </use>
                  <path fill="none" stroke="white" stroke-width="1.5" d="M0,-3.0v7 M-2.5,-0.5L0,-3.0L2.5,-0.5"/>
                </g>
                <g id="arrowRight" xlink:href="#dirArrow" transform="rotate(90) translate(36 -43)" onmousedown="handlePan(1,0)">
                  <use xlink:href="#rim" fill="#404040">
                        <set attributeName="fill" to="#808080" begin="arrowRight.mouseover" end="arrowRight.mouseout"/>
                  </use>
                  <path fill="none" stroke="white" stroke-width="1.5" d="M0,-3.0v7 M-2.5,-0.5L0,-3.0L2.5,-0.5"/>
                </g>
                <g id="arrowDown" xlink:href="#dirArrow" transform="rotate(180) translate(-30 -48)" onmousedown="handlePan(0,1)">
                  <use xlink:href="#rim" fill="#404040">
                        <set attributeName="fill" to="#808080" begin="arrowDown.mouseover" end="arrowDown.mouseout"/>
                  </use>
                  <path fill="none" stroke="white" stroke-width="1.5" d="M0,-3.0v7 M-2.5,-0.5L0,-3.0L2.5,-0.5"/>
                </g>
                <g id="arrowLeft" xlink:href="#dirArrow" transform="rotate(270) translate(-36 17)" onmousedown="handlePan(-1,0)">
                  <use xlink:href="#rim" fill="#404040">
                        <set attributeName="fill" to="#808080" begin="arrowLeft.mouseover" end="arrowLeft.mouseout"/>
                  </use>
                  <path fill="none" stroke="white" stroke-width="1.5" d="M0,-3.0v7 M-2.5,-0.5L0,-3.0L2.5,-0.5"/>
                </g>
        </g>
        <svg viewBox="0 0 15 15" width="100%" height="30px" preserveAspectRatio="xMaxYMin meet">
         <g id="arrow_out" transform="scale(0.3 0.3)">
          <a xlink:href="a00307_a6df404d2eb3d4c8f9dc2071930fc9e7e_cgraph_org.svg" target="_base">
           <rect id="button" ry="5" rx="5" y="6" x="6" height="38" width="38"
                fill="#f2f5e9" fill-opacity="0.5" stroke="#606060" stroke-width="1.0"/>
           <path id="arrow"
             d="M 11.500037,31.436501 C 11.940474,20.09759 22.043105,11.32322 32.158766,21.979434 L 37.068811,17.246167 C 37.068811,17.246167 37.088388,32 37.088388,32 L 22.160133,31.978069 C 22.160133,31.978069 26.997745,27.140456 26.997745,27.140456 C 18.528582,18.264221 13.291696,25.230495 11.500037,31.436501 z"
             style="fill:#404040;"/>
          </a>
         </g>
        </svg>
</svg>
