<?xml version="1.0" encoding="UTF-8" standalone="no"?>
<!DOCTYPE svg PUBLIC "-//W3C//DTD SVG 1.1//EN"
 "http://www.w3.org/Graphics/SVG/1.1/DTD/svg11.dtd">
<!-- Generated by graphviz version 4.0.0 (20220602.1335)
 -->
<!-- Title: Catch::Generators::makeGenerators Pages: 1 -->
<svg width="512pt" height="79pt"
 viewBox="0.00 0.00 512.00 79.00" xmlns="http://www.w3.org/2000/svg" xmlns:xlink="http://www.w3.org/1999/xlink">
<g id="graph0" class="graph" transform="scale(1 1) rotate(0) translate(4 75)">
<title>Catch::Generators::makeGenerators</title>
<polygon fill="white" stroke="transparent" points="-4,4 -4,-75 508,-75 508,4 -4,4"/>
<!-- Node1 -->
<g id="node1" class="node">
<title>Node1</title>
<g id="a_node1"><a xlink:title=" ">
<polygon fill="#bfbfbf" stroke="black" points="0,-0.5 0,-30.5 99,-30.5 99,-0.5 0,-0.5"/>
<text text-anchor="start" x="8" y="-18.5" font-family="Helvetica,sans-Serif" font-size="10.00">Catch::Generators::</text>
<text text-anchor="middle" x="49.5" y="-7.5" font-family="Helvetica,sans-Serif" font-size="10.00">makeGenerators</text>
</a>
</g>
</g>
<!-- Node2 -->
<g id="node2" class="node">
<title>Node2</title>
<g id="a_node2"><a xlink:href="a00309.xhtml#aac8c5682b95d3467b013de492f21e7e2" target="_top" xlink:title=" ">
<polygon fill="white" stroke="black" points="135,-22.5 135,-52.5 234,-52.5 234,-22.5 135,-22.5"/>
<text text-anchor="start" x="143" y="-40.5" font-family="Helvetica,sans-Serif" font-size="10.00">Catch::Generators::</text>
<text text-anchor="middle" x="184.5" y="-29.5" font-family="Helvetica,sans-Serif" font-size="10.00">makeGenerators</text>
</a>
</g>
</g>
<!-- Node1&#45;&gt;Node2 -->
<g id="edge1" class="edge">
<title>Node1&#45;&gt;Node2</title>
<path fill="none" stroke="midnightblue" d="M99.27,-23.57C107.58,-24.94 116.29,-26.38 124.83,-27.8"/>
<polygon fill="midnightblue" stroke="midnightblue" points="124.3,-31.25 134.74,-29.43 125.44,-24.35 124.3,-31.25"/>
</g>
<!-- Node3 -->
<g id="node3" class="node">
<title>Node3</title>
<g id="a_node3"><a xlink:href="a00309.xhtml#a3b2efc97978cf37951b75394aae1a3fb" target="_top" xlink:title=" ">
<polygon fill="white" stroke="black" points="270,-0.5 270,-30.5 369,-30.5 369,-0.5 270,-0.5"/>
<text text-anchor="start" x="278" y="-18.5" font-family="Helvetica,sans-Serif" font-size="10.00">Catch::Generators::</text>
<text text-anchor="middle" x="319.5" y="-7.5" font-family="Helvetica,sans-Serif" font-size="10.00">value</text>
</a>
</g>
</g>
<!-- Node1&#45;&gt;Node3 -->
<g id="edge6" class="edge">
<title>Node1&#45;&gt;Node3</title>
<path fill="none" stroke="midnightblue" d="M99.2,-14.15C110.92,-13.88 123.41,-13.64 135,-13.5 179,-12.98 190,-12.98 234,-13.5 242.33,-13.6 251.12,-13.75 259.76,-13.93"/>
<polygon fill="midnightblue" stroke="midnightblue" points="259.72,-17.43 269.8,-14.15 259.88,-10.43 259.72,-17.43"/>
</g>
<!-- Node2&#45;&gt;Node2 -->
<g id="edge2" class="edge">
<title>Node2&#45;&gt;Node2</title>
<path fill="none" stroke="midnightblue" d="M161.15,-52.66C155.52,-62.06 163.3,-71 184.5,-71 197.42,-71 205.36,-67.68 208.31,-62.96"/>
<polygon fill="midnightblue" stroke="midnightblue" points="211.79,-62.49 207.85,-52.66 204.8,-62.8 211.79,-62.49"/>
</g>
<!-- Node2&#45;&gt;Node3 -->
<g id="edge3" class="edge">
<title>Node2&#45;&gt;Node3</title>
<path fill="none" stroke="midnightblue" d="M234.27,-29.43C242.58,-28.06 251.29,-26.62 259.83,-25.2"/>
<polygon fill="midnightblue" stroke="midnightblue" points="260.44,-28.65 269.74,-23.57 259.3,-21.75 260.44,-28.65"/>
</g>
<!-- Node3&#45;&gt;Node3 -->
<g id="edge5" class="edge">
<title>Node3&#45;&gt;Node3</title>
<path fill="none" stroke="midnightblue" d="M296.15,-30.66C290.52,-40.06 298.3,-49 319.5,-49 332.42,-49 340.36,-45.68 343.31,-40.96"/>
<polygon fill="midnightblue" stroke="midnightblue" points="346.79,-40.49 342.85,-30.66 339.8,-40.8 346.79,-40.49"/>
</g>
<!-- Node4 -->
<g id="node4" class="node">
<title>Node4</title>
<g id="a_node4"><a xlink:href="a00310.xhtml#a015e8fcef2972da878a07023e40d46d8" target="_top" xlink:title=" ">
<polygon fill="white" stroke="black" points="405,-0.5 405,-30.5 504,-30.5 504,-0.5 405,-0.5"/>
<text text-anchor="start" x="413" y="-18.5" font-family="Helvetica,sans-Serif" font-size="10.00">Catch::Generators::</text>
<text text-anchor="middle" x="454.5" y="-7.5" font-family="Helvetica,sans-Serif" font-size="10.00">pf::make_unique</text>
</a>
</g>
</g>
<!-- Node3&#45;&gt;Node4 -->
<g id="edge4" class="edge">
<title>Node3&#45;&gt;Node4</title>
<path fill="none" stroke="midnightblue" d="M369.27,-15.5C377.49,-15.5 386.1,-15.5 394.55,-15.5"/>
<polygon fill="midnightblue" stroke="midnightblue" points="394.74,-19 404.74,-15.5 394.74,-12 394.74,-19"/>
</g>
</g>
</svg>
