<?xml version="1.0" encoding="UTF-8" standalone="no"?>
<!DOCTYPE svg PUBLIC "-//W3C//DTD SVG 1.1//EN"
 "http://www.w3.org/Graphics/SVG/1.1/DTD/svg11.dtd">
<!-- Generated by graphviz version 12.2.1 (20241206.2353)
 -->
<!-- Title: CPitchFromFile::~CPitchFromFile Pages: 1 -->
<svg width="806pt" height="113pt"
 viewBox="0.00 0.00 805.75 112.88" xmlns="http://www.w3.org/2000/svg" xmlns:xlink="http://www.w3.org/1999/xlink">
<g id="graph0" class="graph" transform="scale(1 1) rotate(0) translate(4 108.88)">
<title>CPitchFromFile::~CPitchFromFile</title>
<!-- Node1 -->
<g id="Node000001" class="node">
<title>Node1</title>
<g id="a_Node000001"><a xlink:title=" ">
<polygon fill="#999999" stroke="#666666" points="160.75,-37.25 0,-37.25 0,-18 160.75,-18 160.75,-37.25"/>
<text text-anchor="middle" x="80.38" y="-23.75" font-family="Helvetica,sans-Serif" font-size="10.00">CPitchFromFile::~CPitchFromFile</text>
</a>
</g>
</g>
<!-- Node2 -->
<g id="Node000002" class="node">
<title>Node2</title>
<g id="a_Node000002"><a xlink:href="a00445.xhtml#ab490b9d06c7efa0e4da3596cf4e7bec4" target="_top" xlink:title=" ">
<polygon fill="white" stroke="#666666" points="302,-56.25 196.75,-56.25 196.75,-37 302,-37 302,-56.25"/>
<text text-anchor="middle" x="249.38" y="-42.75" font-family="Helvetica,sans-Serif" font-size="10.00">CAudioFileIf::destroy</text>
</a>
</g>
</g>
<!-- Node1&#45;&gt;Node2 -->
<g id="edge1_Node000001_Node000002" class="edge">
<title>Node1&#45;&gt;Node2</title>
<g id="a_edge1_Node000001_Node000002"><a xlink:title=" ">
<path fill="none" stroke="#63b8ff" d="M160.96,-36.68C169.09,-37.6 177.27,-38.53 185.19,-39.44"/>
<polygon fill="#63b8ff" stroke="#63b8ff" points="184.73,-42.91 195.06,-40.56 185.52,-35.95 184.73,-42.91"/>
</a>
</g>
</g>
<!-- Node8 -->
<g id="Node000008" class="node">
<title>Node8</title>
<g id="a_Node000008"><a xlink:href="a00505.xhtml#aa86bdb0c663d4d52f2765793756f8737" target="_top" xlink:title=" ">
<polygon fill="white" stroke="#666666" points="285.5,-19.25 213.25,-19.25 213.25,0 285.5,0 285.5,-19.25"/>
<text text-anchor="middle" x="249.38" y="-5.75" font-family="Helvetica,sans-Serif" font-size="10.00">CVector::free</text>
</a>
</g>
</g>
<!-- Node1&#45;&gt;Node8 -->
<g id="edge7_Node000001_Node000008" class="edge">
<title>Node1&#45;&gt;Node8</title>
<g id="a_edge7_Node000001_Node000008"><a xlink:title=" ">
<path fill="none" stroke="#63b8ff" d="M160.96,-19.05C174.98,-17.54 189.15,-16.01 201.88,-14.64"/>
<polygon fill="#63b8ff" stroke="#63b8ff" points="202.05,-18.14 211.62,-13.59 201.3,-11.18 202.05,-18.14"/>
</a>
</g>
</g>
<!-- Node3 -->
<g id="Node000003" class="node">
<title>Node3</title>
<g id="a_Node000003"><a xlink:href="a00445.xhtml#a303a350a95e8af4cfbaaf61c1274b790" target="_top" xlink:title=" ">
<polygon fill="white" stroke="#666666" points="465,-56.25 338,-56.25 338,-37 465,-37 465,-56.25"/>
<text text-anchor="middle" x="401.5" y="-42.75" font-family="Helvetica,sans-Serif" font-size="10.00">CAudioFileIf::CAudioFileIf</text>
</a>
</g>
</g>
<!-- Node2&#45;&gt;Node3 -->
<g id="edge2_Node000002_Node000003" class="edge">
<title>Node2&#45;&gt;Node3</title>
<g id="a_edge2_Node000002_Node000003"><a xlink:title=" ">
<path fill="none" stroke="#63b8ff" d="M302.46,-46.62C310.17,-46.62 318.24,-46.62 326.3,-46.62"/>
<polygon fill="#63b8ff" stroke="#63b8ff" points="326.13,-50.13 336.13,-46.63 326.13,-43.13 326.13,-50.13"/>
</a>
</g>
</g>
<!-- Node4 -->
<g id="Node000004" class="node">
<title>Node4</title>
<g id="a_Node000004"><a xlink:href="a00445.xhtml#a9fcdd386ee5292b5a971c7077858274c" target="_top" xlink:title=" ">
<polygon fill="white" stroke="#666666" points="628.75,-56.25 501,-56.25 501,-37 628.75,-37 628.75,-56.25"/>
<text text-anchor="middle" x="564.88" y="-42.75" font-family="Helvetica,sans-Serif" font-size="10.00">CAudioFileIf::initDefaults_</text>
</a>
</g>
</g>
<!-- Node3&#45;&gt;Node4 -->
<g id="edge3_Node000003_Node000004" class="edge">
<title>Node3&#45;&gt;Node4</title>
<g id="a_edge3_Node000003_Node000004"><a xlink:title=" ">
<path fill="none" stroke="#63b8ff" d="M465.35,-46.62C473.23,-46.62 481.35,-46.62 489.39,-46.62"/>
<polygon fill="#63b8ff" stroke="#63b8ff" points="489.15,-50.13 499.15,-46.63 489.15,-43.13 489.15,-50.13"/>
</a>
</g>
</g>
<!-- Node5 -->
<g id="Node000005" class="node">
<title>Node5</title>
<g id="a_Node000005"><a xlink:href="a00445.xhtml#a5a74fd1730a2f0f7339b6507ca7abc23" target="_top" xlink:title=" ">
<polygon fill="white" stroke="#666666" points="792.12,-104.88 670.38,-104.88 670.38,-74.38 792.12,-74.38 792.12,-104.88"/>
<text text-anchor="start" x="678.38" y="-91.38" font-family="Helvetica,sans-Serif" font-size="10.00">CAudioFileIf::setClipping</text>
<text text-anchor="middle" x="731.25" y="-80.12" font-family="Helvetica,sans-Serif" font-size="10.00">Enabled</text>
</a>
</g>
</g>
<!-- Node4&#45;&gt;Node5 -->
<g id="edge4_Node000004_Node000005" class="edge">
<title>Node4&#45;&gt;Node5</title>
<g id="a_edge4_Node000004_Node000005"><a xlink:title=" ">
<path fill="none" stroke="#63b8ff" d="M604.41,-56.71C620.75,-60.98 640.34,-66.1 659.13,-71.02"/>
<polygon fill="#63b8ff" stroke="#63b8ff" points="658.06,-74.36 668.62,-73.5 659.83,-67.58 658.06,-74.36"/>
</a>
</g>
</g>
<!-- Node6 -->
<g id="Node000006" class="node">
<title>Node6</title>
<g id="a_Node000006"><a xlink:href="a00445.xhtml#ada0ab1ffd0666fdc0db872ca7f8a309f" target="_top" xlink:title=" ">
<polygon fill="white" stroke="#666666" points="797.75,-56.25 664.75,-56.25 664.75,-37 797.75,-37 797.75,-56.25"/>
<text text-anchor="middle" x="731.25" y="-42.75" font-family="Helvetica,sans-Serif" font-size="10.00">CAudioFileIf::setInitialized_</text>
</a>
</g>
</g>
<!-- Node4&#45;&gt;Node6 -->
<g id="edge5_Node000004_Node000006" class="edge">
<title>Node4&#45;&gt;Node6</title>
<g id="a_edge5_Node000004_Node000006"><a xlink:title=" ">
<path fill="none" stroke="#63b8ff" d="M628.96,-46.62C636.83,-46.62 644.96,-46.62 653.02,-46.62"/>
<polygon fill="#63b8ff" stroke="#63b8ff" points="652.83,-50.13 662.83,-46.63 652.83,-43.13 652.83,-50.13"/>
</a>
</g>
</g>
<!-- Node7 -->
<g id="Node000007" class="node">
<title>Node7</title>
<g id="a_Node000007"><a xlink:href="a00445.xhtml#a6ccc53d8d2c5113b5b2cba604e8a4510" target="_top" xlink:title=" ">
<polygon fill="white" stroke="#666666" points="792.12,-19.25 670.38,-19.25 670.38,0 792.12,0 792.12,-19.25"/>
<text text-anchor="middle" x="731.25" y="-5.75" font-family="Helvetica,sans-Serif" font-size="10.00">CAudioFileIf::setIoType_</text>
</a>
</g>
</g>
<!-- Node4&#45;&gt;Node7 -->
<g id="edge6_Node000004_Node000007" class="edge">
<title>Node4&#45;&gt;Node7</title>
<g id="a_edge6_Node000004_Node000007"><a xlink:title=" ">
<path fill="none" stroke="#63b8ff" d="M610.79,-36.51C630.36,-32.11 653.51,-26.9 674.19,-22.24"/>
<polygon fill="#63b8ff" stroke="#63b8ff" points="674.92,-25.67 683.91,-20.06 673.39,-18.84 674.92,-25.67"/>
</a>
</g>
</g>
</g>
</svg>
