<?xml version="1.0" encoding="UTF-8" standalone="no"?>
<!DOCTYPE svg PUBLIC "-//W3C//DTD SVG 1.1//EN"
 "http://www.w3.org/Graphics/SVG/1.1/DTD/svg11.dtd">
<!-- Generated by graphviz version 12.2.1 (20241206.2353)
 -->
<!-- Title: CPitchSpectralAcf::CPitchSpectralAcf Pages: 1 -->
<!--zoomable 76 -->

<svg id="main" version="1.1" xmlns="http://www.w3.org/2000/svg" xmlns:xlink="http://www.w3.org/1999/xlink" xml:space="preserve" onload="init(evt)">

<style type="text/css"><![CDATA[
.node, .edge {opacity: 0.7;}
.node.selected, .edge.selected {opacity: 1;}
.edge:hover path { stroke: red; }
.edge:hover polygon { stroke: red; fill: red; }
]]></style>

<defs>
  <circle id="rim" cx="0" cy="0" r="7"/>
  <circle id="rim2" cx="0" cy="0" r="3.5"/>
  <g id="zoomPlus">
    <use xlink:href="#rim" fill="#404040"><set attributeName="fill" to="#808080" begin="zoomplus.mouseover" end="zoomplus.mouseout"/></use>
    <path d="M-4,0h8M0,-4v8" fill="none" stroke="white" stroke-width="1.5" pointer-events="none"/>
  </g>
  <g id="zoomMin">
    <use xlink:href="#rim" fill="#404040"><set attributeName="fill" to="#808080" begin="zoomminus.mouseover" end="zoomminus.mouseout"/></use>
    <path d="M-4,0h8" fill="none" stroke="white" stroke-width="1.5" pointer-events="none"/>
  </g>
  <g id="arrowUp" transform="translate(30 24)">
    <use xlink:href="#rim"/>
    <path pointer-events="none" fill="none" stroke="white" stroke-width="1.5" d="M0,-3.0v7 M-2.5,-0.5L0,-3.0L2.5,-0.5"/>
  </g>
  <g id="arrowRight" transform="rotate(90) translate(36 -43)">
    <use xlink:href="#rim"/>
    <path pointer-events="none" fill="none" stroke="white" stroke-width="1.5" d="M0,-3.0v7 M-2.5,-0.5L0,-3.0L2.5,-0.5"/>
  </g>
  <g id="arrowDown" transform="rotate(180) translate(-30 -48)">
    <use xlink:href="#rim"/>
    <path pointer-events="none" fill="none" stroke="white" stroke-width="1.5" d="M0,-3.0v7 M-2.5,-0.5L0,-3.0L2.5,-0.5"/>
  </g>
  <g id="arrowLeft" transform="rotate(270) translate(-36 17)">
    <use xlink:href="#rim"/>
    <path pointer-events="none" fill="none" stroke="white" stroke-width="1.5" d="M0,-3.0v7 M-2.5,-0.5L0,-3.0L2.5,-0.5"/>
  </g>
  <g id="resetDef">
    <use xlink:href="#rim2" fill="#404040"><set attributeName="fill" to="#808080" begin="reset.mouseover" end="reset.mouseout"/></use>
  </g>
</defs>
<script type="application/ecmascript">
var viewWidth = 509;
var viewHeight = 76;
var sectionId = 'dynsection-5';
</script>
<script type="application/ecmascript" xlink:href="svg.min.js"/>
<svg id="graph" class="graph">
<g id="viewport">
<title>CPitchSpectralAcf::CPitchSpectralAcf</title>
<!-- Node1 -->
<g id="Node000001" class="node">
<title>Node1</title>
<g id="a_Node000001"><a xlink:title="disallow copy construction">
<polygon fill="#999999" stroke="#666666" points="100.75,-51.5 0,-51.5 0,-21 100.75,-21 100.75,-51.5"/>
<text text-anchor="start" x="8" y="-38" font-family="Helvetica,sans-Serif" font-size="10.00">CPitchSpectralAcf::</text>
<text text-anchor="middle" x="50.38" y="-26.75" font-family="Helvetica,sans-Serif" font-size="10.00">CPitchSpectralAcf</text>
</a>
</g>
</g>
<!-- Node2 -->
<g id="Node000002" class="node">
<title>Node2</title>
<g id="a_Node000002"><a xlink:href="a00381.xhtml#ad7f64995a5d0ca75139e400172a9ab42" target="_top" xlink:title=" ">
<polygon fill="white" stroke="#666666" points="237.5,-51.5 136.75,-51.5 136.75,-21 237.5,-21 237.5,-51.5"/>
<text text-anchor="start" x="144.75" y="-38" font-family="Helvetica,sans-Serif" font-size="10.00">CPitchSpectralAcf::</text>
<text text-anchor="middle" x="187.12" y="-26.75" font-family="Helvetica,sans-Serif" font-size="10.00">CPitchSpectralAcf</text>
</a>
</g>
</g>
<!-- Node1&#45;&gt;Node2 -->
<g id="edge1_Node000001_Node000002" class="edge">
<title>Node1&#45;&gt;Node2</title>
<g id="a_edge1_Node000001_Node000002"><a xlink:title=" ">
<path fill="none" stroke="#63b8ff" d="M101.17,-36.25C109.02,-36.25 117.2,-36.25 125.27,-36.25"/>
<polygon fill="#63b8ff" stroke="#63b8ff" points="125.02,-39.75 135.02,-36.25 125.02,-32.75 125.02,-39.75"/>
</a>
</g>
</g>
<!-- Node3 -->
<g id="Node000003" class="node">
<title>Node3</title>
<g id="a_Node000003"><a xlink:href="a00505.xhtml#abaadac98b1cad18b7b568852bc951696" target="_top" xlink:title=" ">
<polygon fill="white" stroke="#666666" points="363,-67.88 287,-67.88 287,-48.62 363,-48.62 363,-67.88"/>
<text text-anchor="middle" x="325" y="-54.38" font-family="Helvetica,sans-Serif" font-size="10.00">CVector::alloc</text>
</a>
</g>
</g>
<!-- Node2&#45;&gt;Node3 -->
<g id="edge2_Node000002_Node000003" class="edge">
<title>Node2&#45;&gt;Node3</title>
<g id="a_edge2_Node000002_Node000003"><a xlink:title=" ">
<path fill="none" stroke="#63b8ff" d="M237.95,-44.32C250.12,-46.29 263.12,-48.39 275.24,-50.35"/>
<polygon fill="#63b8ff" stroke="#63b8ff" points="274.6,-53.8 285.03,-51.94 275.72,-46.89 274.6,-53.8"/>
</a>
</g>
</g>
<!-- Node5 -->
<g id="Node000005" class="node">
<title>Node5</title>
<g id="a_Node000005"><a xlink:href="a00529.xhtml#a8d454d951956c464b883888196a0fe23" target="_top" xlink:title=" ">
<polygon fill="white" stroke="#666666" points="376.5,-30.5 273.5,-30.5 273.5,0 376.5,0 376.5,-30.5"/>
<text text-anchor="start" x="281.5" y="-17" font-family="Helvetica,sans-Serif" font-size="10.00">CPitchFromBlockIf::</text>
<text text-anchor="middle" x="325" y="-5.75" font-family="Helvetica,sans-Serif" font-size="10.00">CPitchFromBlockIf</text>
</a>
</g>
</g>
<!-- Node2&#45;&gt;Node5 -->
<g id="edge4_Node000002_Node000005" class="edge">
<title>Node2&#45;&gt;Node5</title>
<g id="a_edge4_Node000002_Node000005"><a xlink:title=" ">
<path fill="none" stroke="#63b8ff" d="M237.95,-28.55C245.77,-27.34 253.94,-26.08 262,-24.83"/>
<polygon fill="#63b8ff" stroke="#63b8ff" points="262.43,-28.31 271.78,-23.32 261.36,-21.39 262.43,-28.31"/>
</a>
</g>
</g>
<!-- Node4 -->
<g id="Node000004" class="node">
<title>Node4</title>
<g id="a_Node000004"><a xlink:href="a00505.xhtml#a6dbb3f9f480568b60f7fe50090d20003" target="_top" xlink:title=" ">
<polygon fill="white" stroke="#666666" points="501.25,-67.88 412.5,-67.88 412.5,-48.62 501.25,-48.62 501.25,-67.88"/>
<text text-anchor="middle" x="456.88" y="-54.38" font-family="Helvetica,sans-Serif" font-size="10.00">CVector::setZero</text>
</a>
</g>
</g>
<!-- Node3&#45;&gt;Node4 -->
<g id="edge3_Node000003_Node000004" class="edge">
<title>Node3&#45;&gt;Node4</title>
<g id="a_edge3_Node000003_Node000004"><a xlink:title=" ">
<path fill="none" stroke="#63b8ff" d="M363.22,-58.25C374.92,-58.25 388.11,-58.25 400.79,-58.25"/>
<polygon fill="#63b8ff" stroke="#63b8ff" points="400.71,-61.75 410.71,-58.25 400.71,-54.75 400.71,-61.75"/>
</a>
</g>
</g>
</g>
</svg>

<g id="navigator" transform="translate(0 0)" fill="#404254">
  <rect fill="#f2f5e9" fill-opacity="0.5" stroke="#606060" stroke-width=".5" x="0" y="0" width="60" height="60"/>
  <use id="zoomplus" xlink:href="#zoomPlus" x="17" y="9" onmousedown="handleZoom(evt,'in')"/>
  <use id="zoomminus" xlink:href="#zoomMin" x="42" y="9" onmousedown="handleZoom(evt,'out')"/>
  <use id="reset" xlink:href="#resetDef" x="30" y="36" onmousedown="handleReset()"/>
   <use id="arrowup" xlink:href="#arrowUp" x="0" y="0" onmousedown="handlePan(0,-1)"/>
  <use id="arrowright" xlink:href="#arrowRight" x="0" y="0" onmousedown="handlePan(1,0)"/>
  <use id="arrowdown" xlink:href="#arrowDown" x="0" y="0" onmousedown="handlePan(0,1)"/>
  <use id="arrowleft" xlink:href="#arrowLeft" x="0" y="0" onmousedown="handlePan(-1,0)"/>
</g>
<svg viewBox="0 0 15 15" width="100%" height="30px" preserveAspectRatio="xMaxYMin meet">
 <g id="arrow_out" transform="scale(0.3 0.3)">
  <a xlink:href="a00381_aa287258ccabe0c81675836fa5e5ac94e_cgraph_org.svg" target="_base">
   <rect id="button" ry="5" rx="5" y="6" x="6" height="38" width="38"
        fill="#f2f5e9" fill-opacity="0.5" stroke="#606060" stroke-width="1.0"/>
   <path id="arrow"
     d="M 11.500037,31.436501 C 11.940474,20.09759 22.043105,11.32322 32.158766,21.979434 L 37.068811,17.246167 C 37.068811,17.246167 37.088388,32 37.088388,32 L 22.160133,31.978069 C 22.160133,31.978069 26.997745,27.140456 26.997745,27.140456 C 18.528582,18.264221 13.291696,25.230495 11.500037,31.436501 z"
     style="fill:#404040;"/>
  </a>
 </g>
</svg>

<style type='text/css'>
<![CDATA[
[data-mouse-over-selected='false'] { opacity: 0.7; }
[data-mouse-over-selected='true']  { opacity: 1.0; }
]]>
</style>
<script type="application/ecmascript"><![CDATA[
document.addEventListener('DOMContentLoaded', (event) => {
  highlightEdges();
  highlightAdjacentNodes();
});
]]></script>
</svg>
