<?xml version="1.0" encoding="UTF-8" standalone="no"?>
<!DOCTYPE svg PUBLIC "-//W3C//DTD SVG 1.1//EN"
 "http://www.w3.org/Graphics/SVG/1.1/DTD/svg11.dtd">
<!-- Generated by graphviz version 12.2.1 (20241206.2353)
 -->
<!-- Title: CChordFromFile::~CChordFromFile Pages: 1 -->
<svg width="812pt" height="113pt"
 viewBox="0.00 0.00 811.75 112.88" xmlns="http://www.w3.org/2000/svg" xmlns:xlink="http://www.w3.org/1999/xlink">
<g id="graph0" class="graph" transform="scale(1 1) rotate(0) translate(4 108.88)">
<title>CChordFromFile::~CChordFromFile</title>
<!-- Node1 -->
<g id="Node000001" class="node">
<title>Node1</title>
<g id="a_Node000001"><a xlink:title=" ">
<polygon fill="#999999" stroke="#666666" points="166.75,-37.25 0,-37.25 0,-18 166.75,-18 166.75,-37.25"/>
<text text-anchor="middle" x="83.38" y="-23.75" font-family="Helvetica,sans-Serif" font-size="10.00">CChordFromFile::~CChordFromFile</text>
</a>
</g>
</g>
<!-- Node2 -->
<g id="Node000002" class="node">
<title>Node2</title>
<g id="a_Node000002"><a xlink:href="a00445.xhtml#ab490b9d06c7efa0e4da3596cf4e7bec4" target="_top" xlink:title=" ">
<polygon fill="white" stroke="#666666" points="308,-56.25 202.75,-56.25 202.75,-37 308,-37 308,-56.25"/>
<text text-anchor="middle" x="255.38" y="-42.75" font-family="Helvetica,sans-Serif" font-size="10.00">CAudioFileIf::destroy</text>
</a>
</g>
</g>
<!-- Node1&#45;&gt;Node2 -->
<g id="edge1_Node000001_Node000002" class="edge">
<title>Node1&#45;&gt;Node2</title>
<g id="a_edge1_Node000001_Node000002"><a xlink:title=" ">
<path fill="none" stroke="#63b8ff" d="M166.89,-36.85C175.07,-37.76 183.29,-38.68 191.23,-39.57"/>
<polygon fill="#63b8ff" stroke="#63b8ff" points="190.8,-43.04 201.13,-40.67 191.58,-36.08 190.8,-43.04"/>
</a>
</g>
</g>
<!-- Node8 -->
<g id="Node000008" class="node">
<title>Node8</title>
<g id="a_Node000008"><a xlink:href="a00505.xhtml#aa86bdb0c663d4d52f2765793756f8737" target="_top" xlink:title=" ">
<polygon fill="white" stroke="#666666" points="291.5,-19.25 219.25,-19.25 219.25,0 291.5,0 291.5,-19.25"/>
<text text-anchor="middle" x="255.38" y="-5.75" font-family="Helvetica,sans-Serif" font-size="10.00">CVector::free</text>
</a>
</g>
</g>
<!-- Node1&#45;&gt;Node8 -->
<g id="edge7_Node000001_Node000008" class="edge">
<title>Node1&#45;&gt;Node8</title>
<g id="a_edge7_Node000001_Node000008"><a xlink:title=" ">
<path fill="none" stroke="#63b8ff" d="M166.89,-18.89C180.88,-17.41 194.96,-15.92 207.61,-14.58"/>
<polygon fill="#63b8ff" stroke="#63b8ff" points="207.7,-18.09 217.28,-13.55 206.96,-11.13 207.7,-18.09"/>
</a>
</g>
</g>
<!-- Node3 -->
<g id="Node000003" class="node">
<title>Node3</title>
<g id="a_Node000003"><a xlink:href="a00445.xhtml#a303a350a95e8af4cfbaaf61c1274b790" target="_top" xlink:title=" ">
<polygon fill="white" stroke="#666666" points="471,-56.25 344,-56.25 344,-37 471,-37 471,-56.25"/>
<text text-anchor="middle" x="407.5" y="-42.75" font-family="Helvetica,sans-Serif" font-size="10.00">CAudioFileIf::CAudioFileIf</text>
</a>
</g>
</g>
<!-- Node2&#45;&gt;Node3 -->
<g id="edge2_Node000002_Node000003" class="edge">
<title>Node2&#45;&gt;Node3</title>
<g id="a_edge2_Node000002_Node000003"><a xlink:title=" ">
<path fill="none" stroke="#63b8ff" d="M308.46,-46.62C316.17,-46.62 324.24,-46.62 332.3,-46.62"/>
<polygon fill="#63b8ff" stroke="#63b8ff" points="332.13,-50.13 342.13,-46.63 332.13,-43.13 332.13,-50.13"/>
</a>
</g>
</g>
<!-- Node4 -->
<g id="Node000004" class="node">
<title>Node4</title>
<g id="a_Node000004"><a xlink:href="a00445.xhtml#a9fcdd386ee5292b5a971c7077858274c" target="_top" xlink:title=" ">
<polygon fill="white" stroke="#666666" points="634.75,-56.25 507,-56.25 507,-37 634.75,-37 634.75,-56.25"/>
<text text-anchor="middle" x="570.88" y="-42.75" font-family="Helvetica,sans-Serif" font-size="10.00">CAudioFileIf::initDefaults_</text>
</a>
</g>
</g>
<!-- Node3&#45;&gt;Node4 -->
<g id="edge3_Node000003_Node000004" class="edge">
<title>Node3&#45;&gt;Node4</title>
<g id="a_edge3_Node000003_Node000004"><a xlink:title=" ">
<path fill="none" stroke="#63b8ff" d="M471.35,-46.62C479.23,-46.62 487.35,-46.62 495.39,-46.62"/>
<polygon fill="#63b8ff" stroke="#63b8ff" points="495.15,-50.13 505.15,-46.63 495.15,-43.13 495.15,-50.13"/>
</a>
</g>
</g>
<!-- Node5 -->
<g id="Node000005" class="node">
<title>Node5</title>
<g id="a_Node000005"><a xlink:href="a00445.xhtml#a5a74fd1730a2f0f7339b6507ca7abc23" target="_top" xlink:title=" ">
<polygon fill="white" stroke="#666666" points="798.12,-104.88 676.38,-104.88 676.38,-74.38 798.12,-74.38 798.12,-104.88"/>
<text text-anchor="start" x="684.38" y="-91.38" font-family="Helvetica,sans-Serif" font-size="10.00">CAudioFileIf::setClipping</text>
<text text-anchor="middle" x="737.25" y="-80.12" font-family="Helvetica,sans-Serif" font-size="10.00">Enabled</text>
</a>
</g>
</g>
<!-- Node4&#45;&gt;Node5 -->
<g id="edge4_Node000004_Node000005" class="edge">
<title>Node4&#45;&gt;Node5</title>
<g id="a_edge4_Node000004_Node000005"><a xlink:title=" ">
<path fill="none" stroke="#63b8ff" d="M610.41,-56.71C626.75,-60.98 646.34,-66.1 665.13,-71.02"/>
<polygon fill="#63b8ff" stroke="#63b8ff" points="664.06,-74.36 674.62,-73.5 665.83,-67.58 664.06,-74.36"/>
</a>
</g>
</g>
<!-- Node6 -->
<g id="Node000006" class="node">
<title>Node6</title>
<g id="a_Node000006"><a xlink:href="a00445.xhtml#ada0ab1ffd0666fdc0db872ca7f8a309f" target="_top" xlink:title=" ">
<polygon fill="white" stroke="#666666" points="803.75,-56.25 670.75,-56.25 670.75,-37 803.75,-37 803.75,-56.25"/>
<text text-anchor="middle" x="737.25" y="-42.75" font-family="Helvetica,sans-Serif" font-size="10.00">CAudioFileIf::setInitialized_</text>
</a>
</g>
</g>
<!-- Node4&#45;&gt;Node6 -->
<g id="edge5_Node000004_Node000006" class="edge">
<title>Node4&#45;&gt;Node6</title>
<g id="a_edge5_Node000004_Node000006"><a xlink:title=" ">
<path fill="none" stroke="#63b8ff" d="M634.96,-46.62C642.83,-46.62 650.96,-46.62 659.02,-46.62"/>
<polygon fill="#63b8ff" stroke="#63b8ff" points="658.83,-50.13 668.83,-46.63 658.83,-43.13 658.83,-50.13"/>
</a>
</g>
</g>
<!-- Node7 -->
<g id="Node000007" class="node">
<title>Node7</title>
<g id="a_Node000007"><a xlink:href="a00445.xhtml#a6ccc53d8d2c5113b5b2cba604e8a4510" target="_top" xlink:title=" ">
<polygon fill="white" stroke="#666666" points="798.12,-19.25 676.38,-19.25 676.38,0 798.12,0 798.12,-19.25"/>
<text text-anchor="middle" x="737.25" y="-5.75" font-family="Helvetica,sans-Serif" font-size="10.00">CAudioFileIf::setIoType_</text>
</a>
</g>
</g>
<!-- Node4&#45;&gt;Node7 -->
<g id="edge6_Node000004_Node000007" class="edge">
<title>Node4&#45;&gt;Node7</title>
<g id="a_edge6_Node000004_Node000007"><a xlink:title=" ">
<path fill="none" stroke="#63b8ff" d="M616.79,-36.51C636.36,-32.11 659.51,-26.9 680.19,-22.24"/>
<polygon fill="#63b8ff" stroke="#63b8ff" points="680.92,-25.67 689.91,-20.06 679.39,-18.84 680.92,-25.67"/>
</a>
</g>
</g>
</g>
</svg>
