<?xml version="1.0" encoding="UTF-8" standalone="no"?>
<!DOCTYPE svg PUBLIC "-//W3C//DTD SVG 1.1//EN"
 "http://www.w3.org/Graphics/SVG/1.1/DTD/svg11.dtd">
<!-- Generated by graphviz version 6.0.1 (20220911.1526)
 -->
<!-- Title: LaszloFft::unshuffle Pages: 1 -->
<svg width="232pt" height="161pt"
 viewBox="0.00 0.00 232.00 160.50" xmlns="http://www.w3.org/2000/svg" xmlns:xlink="http://www.w3.org/1999/xlink">
<g id="graph0" class="graph" transform="scale(1 1) rotate(0) translate(4 156.5)">
<title>LaszloFft::unshuffle</title>
<!-- Node1 -->
<g id="node1" class="node">
<title>Node1</title>
<g id="a_node1"><a xlink:title=" ">
<polygon fill="#999999" stroke="#666666" points="224,-93.5 124,-93.5 124,-74.5 224,-74.5 224,-93.5"/>
<text text-anchor="middle" x="174" y="-81.5" font-family="Helvetica,sans-Serif" font-size="10.00">LaszloFft::unshuffle</text>
</a>
</g>
</g>
<!-- Node2 -->
<g id="node2" class="node">
<title>Node2</title>
<g id="a_node2"><a xlink:href="a00305.xhtml#a7b426d9d09321e6e1790704eed9c8e46" target="_top" xlink:title=" ">
<polygon fill="white" stroke="#666666" points="79,-152.5 9,-152.5 9,-133.5 79,-133.5 79,-152.5"/>
<text text-anchor="middle" x="44" y="-140.5" font-family="Helvetica,sans-Serif" font-size="10.00">LaszloFft::fft</text>
</a>
</g>
</g>
<!-- Node1&#45;&gt;Node2 -->
<g id="edge1" class="edge">
<title>Node1&#45;&gt;Node2</title>
<path fill="none" stroke="#63b8ff" d="M144.8,-98.06C128.34,-106.16 107.11,-116.4 88,-125 81.8,-127.79 75.04,-130.69 68.75,-133.32"/>
<polygon fill="#63b8ff" stroke="#63b8ff" points="146.48,-101.14 153.89,-93.57 143.38,-94.86 146.48,-101.14"/>
</g>
<!-- Node3 -->
<g id="node3" class="node">
<title>Node3</title>
<g id="a_node3"><a xlink:href="a00305.xhtml#a4e4b95c769a0dbc06941a2c06b0cc889" target="_top" xlink:title=" ">
<polygon fill="white" stroke="#666666" points="80,-115.5 8,-115.5 8,-96.5 80,-96.5 80,-115.5"/>
<text text-anchor="middle" x="44" y="-103.5" font-family="Helvetica,sans-Serif" font-size="10.00">LaszloFft::ifft</text>
</a>
</g>
</g>
<!-- Node1&#45;&gt;Node3 -->
<g id="edge2" class="edge">
<title>Node1&#45;&gt;Node3</title>
<path fill="none" stroke="#63b8ff" d="M113.88,-94.16C102.39,-96.14 90.7,-98.15 80.28,-99.94"/>
<polygon fill="#63b8ff" stroke="#63b8ff" points="114.62,-97.59 123.88,-92.44 113.43,-90.69 114.62,-97.59"/>
</g>
<!-- Node4 -->
<g id="node4" class="node">
<title>Node4</title>
<g id="a_node4"><a xlink:href="a00305.xhtml#a2d3be8653b958c0d6123158ebf2da37b" target="_top" xlink:title=" ">
<polygon fill="white" stroke="#666666" points="88,-78 0,-78 0,-48 88,-48 88,-78"/>
<text text-anchor="start" x="8" y="-66" font-family="Helvetica,sans-Serif" font-size="10.00">LaszloFft::irealfft</text>
<text text-anchor="middle" x="44" y="-55" font-family="Helvetica,sans-Serif" font-size="10.00">_packed</text>
</a>
</g>
</g>
<!-- Node1&#45;&gt;Node4 -->
<g id="edge3" class="edge">
<title>Node1&#45;&gt;Node4</title>
<path fill="none" stroke="#63b8ff" d="M113.87,-74.3C105.27,-72.89 96.56,-71.46 88.35,-70.11"/>
<polygon fill="#63b8ff" stroke="#63b8ff" points="113.44,-77.78 123.88,-75.94 114.58,-70.87 113.44,-77.78"/>
</g>
<!-- Node5 -->
<g id="node5" class="node">
<title>Node5</title>
<g id="a_node5"><a xlink:href="a00305.xhtml#ad5539e1657289937c1e0feb2d7f86075" target="_top" xlink:title=" ">
<polygon fill="white" stroke="#666666" points="87,-30 1,-30 1,0 87,0 87,-30"/>
<text text-anchor="start" x="9" y="-18" font-family="Helvetica,sans-Serif" font-size="10.00">LaszloFft::realfft</text>
<text text-anchor="middle" x="44" y="-7" font-family="Helvetica,sans-Serif" font-size="10.00">_packed</text>
</a>
</g>
</g>
<!-- Node1&#45;&gt;Node5 -->
<g id="edge4" class="edge">
<title>Node1&#45;&gt;Node5</title>
<path fill="none" stroke="#63b8ff" d="M146.29,-69.6C124.83,-58.03 94.77,-41.83 72.98,-30.08"/>
<polygon fill="#63b8ff" stroke="#63b8ff" points="144.74,-72.74 155.2,-74.41 148.06,-66.58 144.74,-72.74"/>
</g>
</g>
</svg>
