<?xml version="1.0" encoding="UTF-8" standalone="no"?>
<!DOCTYPE svg PUBLIC "-//W3C//DTD SVG 1.1//EN"
 "http://www.w3.org/Graphics/SVG/1.1/DTD/svg11.dtd">
<!-- Generated by graphviz version 12.2.1 (20241206.2353)
 -->
<!-- Title: CPitchTimeAcf::operator= Pages: 1 -->
<svg width="588pt" height="76pt"
 viewBox="0.00 0.00 588.00 75.88" xmlns="http://www.w3.org/2000/svg" xmlns:xlink="http://www.w3.org/1999/xlink">
<g id="graph0" class="graph" transform="scale(1 1) rotate(0) translate(4 71.88)">
<title>CPitchTimeAcf::operator=</title>
<!-- Node1 -->
<g id="Node000001" class="node">
<title>Node1</title>
<g id="a_Node000001"><a xlink:title=" ">
<polygon fill="#999999" stroke="#666666" points="127.75,-45.88 0,-45.88 0,-26.62 127.75,-26.62 127.75,-45.88"/>
<text text-anchor="middle" x="63.88" y="-32.38" font-family="Helvetica,sans-Serif" font-size="10.00">CPitchTimeAcf::operator=</text>
</a>
</g>
</g>
<!-- Node2 -->
<g id="Node000002" class="node">
<title>Node2</title>
<g id="a_Node000002"><a xlink:href="a00389.xhtml#acd4920798f76cfa56accd9ba28dad6ae" target="_top" xlink:title=" ">
<polygon fill="white" stroke="#666666" points="316.25,-45.88 163.75,-45.88 163.75,-26.62 316.25,-26.62 316.25,-45.88"/>
<text text-anchor="middle" x="240" y="-32.38" font-family="Helvetica,sans-Serif" font-size="10.00">CPitchTimeAcf::CPitchTimeAcf</text>
</a>
</g>
</g>
<!-- Node1&#45;&gt;Node2 -->
<g id="edge1_Node000001_Node000002" class="edge">
<title>Node1&#45;&gt;Node2</title>
<g id="a_edge1_Node000001_Node000002"><a xlink:title=" ">
<path fill="none" stroke="#63b8ff" d="M128.23,-36.25C135.96,-36.25 143.97,-36.25 151.97,-36.25"/>
<polygon fill="#63b8ff" stroke="#63b8ff" points="151.74,-39.75 161.74,-36.25 151.74,-32.75 151.74,-39.75"/>
</a>
</g>
</g>
<!-- Node3 -->
<g id="Node000003" class="node">
<title>Node3</title>
<g id="a_Node000003"><a xlink:href="a00505.xhtml#abaadac98b1cad18b7b568852bc951696" target="_top" xlink:title=" ">
<polygon fill="white" stroke="#666666" points="441.75,-67.88 365.75,-67.88 365.75,-48.62 441.75,-48.62 441.75,-67.88"/>
<text text-anchor="middle" x="403.75" y="-54.38" font-family="Helvetica,sans-Serif" font-size="10.00">CVector::alloc</text>
</a>
</g>
</g>
<!-- Node2&#45;&gt;Node3 -->
<g id="edge2_Node000002_Node000003" class="edge">
<title>Node2&#45;&gt;Node3</title>
<g id="a_edge2_Node000002_Node000003"><a xlink:title=" ">
<path fill="none" stroke="#63b8ff" d="M315.25,-46.35C328.46,-48.15 341.92,-49.98 354.19,-51.64"/>
<polygon fill="#63b8ff" stroke="#63b8ff" points="353.66,-55.1 364.04,-52.98 354.6,-48.17 353.66,-55.1"/>
</a>
</g>
</g>
<!-- Node5 -->
<g id="Node000005" class="node">
<title>Node5</title>
<g id="a_Node000005"><a xlink:href="a00529.xhtml#a8d454d951956c464b883888196a0fe23" target="_top" xlink:title=" ">
<polygon fill="white" stroke="#666666" points="455.25,-30.5 352.25,-30.5 352.25,0 455.25,0 455.25,-30.5"/>
<text text-anchor="start" x="360.25" y="-17" font-family="Helvetica,sans-Serif" font-size="10.00">CPitchFromBlockIf::</text>
<text text-anchor="middle" x="403.75" y="-5.75" font-family="Helvetica,sans-Serif" font-size="10.00">CPitchFromBlockIf</text>
</a>
</g>
</g>
<!-- Node2&#45;&gt;Node5 -->
<g id="edge4_Node000002_Node000005" class="edge">
<title>Node2&#45;&gt;Node5</title>
<g id="a_edge4_Node000002_Node000005"><a xlink:title=" ">
<path fill="none" stroke="#63b8ff" d="M316.67,-26.43C324.73,-25.38 332.87,-24.32 340.75,-23.3"/>
<polygon fill="#63b8ff" stroke="#63b8ff" points="341.11,-26.78 350.57,-22.02 340.21,-19.84 341.11,-26.78"/>
</a>
</g>
</g>
<!-- Node4 -->
<g id="Node000004" class="node">
<title>Node4</title>
<g id="a_Node000004"><a xlink:href="a00505.xhtml#a6dbb3f9f480568b60f7fe50090d20003" target="_top" xlink:title=" ">
<polygon fill="white" stroke="#666666" points="580,-67.88 491.25,-67.88 491.25,-48.62 580,-48.62 580,-67.88"/>
<text text-anchor="middle" x="535.62" y="-54.38" font-family="Helvetica,sans-Serif" font-size="10.00">CVector::setZero</text>
</a>
</g>
</g>
<!-- Node3&#45;&gt;Node4 -->
<g id="edge3_Node000003_Node000004" class="edge">
<title>Node3&#45;&gt;Node4</title>
<g id="a_edge3_Node000003_Node000004"><a xlink:title=" ">
<path fill="none" stroke="#63b8ff" d="M441.97,-58.25C453.67,-58.25 466.86,-58.25 479.54,-58.25"/>
<polygon fill="#63b8ff" stroke="#63b8ff" points="479.46,-61.75 489.46,-58.25 479.46,-54.75 479.46,-61.75"/>
</a>
</g>
</g>
</g>
</svg>
