<?xml version="1.0" encoding="UTF-8" standalone="no"?>
<!DOCTYPE svg PUBLIC "-//W3C//DTD SVG 1.1//EN"
 "http://www.w3.org/Graphics/SVG/1.1/DTD/svg11.dtd">
<!-- Generated by graphviz version 12.2.1 (20241206.2353)
 -->
<!-- Title: CPitchSpectralAcf::CPitchSpectralAcf Pages: 1 -->
<svg width="246pt" height="88pt"
 viewBox="0.00 0.00 245.50 87.50" xmlns="http://www.w3.org/2000/svg" xmlns:xlink="http://www.w3.org/1999/xlink">
<g id="graph0" class="graph" transform="scale(1 1) rotate(0) translate(4 83.5)">
<title>CPitchSpectralAcf::CPitchSpectralAcf</title>
<!-- Node1 -->
<g id="Node000001" class="node">
<title>Node1</title>
<g id="a_Node000001"><a xlink:title=" ">
<polygon fill="#999999" stroke="#666666" points="237.5,-54.5 136.75,-54.5 136.75,-24 237.5,-24 237.5,-54.5"/>
<text text-anchor="start" x="144.75" y="-41" font-family="Helvetica,sans-Serif" font-size="10.00">CPitchSpectralAcf::</text>
<text text-anchor="middle" x="187.12" y="-29.75" font-family="Helvetica,sans-Serif" font-size="10.00">CPitchSpectralAcf</text>
</a>
</g>
</g>
<!-- Node2 -->
<g id="Node000002" class="node">
<title>Node2</title>
<g id="a_Node000002"><a xlink:href="a00381.xhtml#aa287258ccabe0c81675836fa5e5ac94e" target="_top" xlink:title="disallow copy construction">
<polygon fill="white" stroke="#666666" points="100.75,-79.5 0,-79.5 0,-49 100.75,-49 100.75,-79.5"/>
<text text-anchor="start" x="8" y="-66" font-family="Helvetica,sans-Serif" font-size="10.00">CPitchSpectralAcf::</text>
<text text-anchor="middle" x="50.38" y="-54.75" font-family="Helvetica,sans-Serif" font-size="10.00">CPitchSpectralAcf</text>
</a>
</g>
</g>
<!-- Node1&#45;&gt;Node2 -->
<g id="edge1_Node000001_Node000002" class="edge">
<title>Node1&#45;&gt;Node2</title>
<g id="a_edge1_Node000001_Node000002"><a xlink:title=" ">
<path fill="none" stroke="#63b8ff" d="M125.06,-50.58C116.99,-52.08 108.8,-53.6 100.96,-55.05"/>
<polygon fill="#63b8ff" stroke="#63b8ff" points="125.65,-54.03 134.84,-48.76 124.37,-47.15 125.65,-54.03"/>
</a>
</g>
</g>
<!-- Node3 -->
<g id="Node000003" class="node">
<title>Node3</title>
<g id="a_Node000003"><a xlink:href="a00381.xhtml#a7788ddebf971ad4e2da70e14eaf851dd" target="_top" xlink:title=" ">
<polygon fill="white" stroke="#666666" points="100.75,-30.5 0,-30.5 0,0 100.75,0 100.75,-30.5"/>
<text text-anchor="start" x="8" y="-17" font-family="Helvetica,sans-Serif" font-size="10.00">CPitchSpectralAcf::</text>
<text text-anchor="middle" x="50.38" y="-5.75" font-family="Helvetica,sans-Serif" font-size="10.00">operator=</text>
</a>
</g>
</g>
<!-- Node1&#45;&gt;Node3 -->
<g id="edge2_Node000001_Node000003" class="edge">
<title>Node1&#45;&gt;Node3</title>
<g id="a_edge2_Node000001_Node000003"><a xlink:title=" ">
<path fill="none" stroke="#63b8ff" d="M125.06,-28.37C116.99,-26.94 108.8,-25.48 100.96,-24.08"/>
<polygon fill="#63b8ff" stroke="#63b8ff" points="124.38,-31.81 134.84,-30.12 125.61,-24.92 124.38,-31.81"/>
</a>
</g>
</g>
</g>
</svg>
