<?xml version="1.0" encoding="UTF-8" standalone="no"?>
<!DOCTYPE svg PUBLIC "-//W3C//DTD SVG 1.1//EN"
 "http://www.w3.org/Graphics/SVG/1.1/DTD/svg11.dtd">
<!-- Generated by graphviz version 12.2.1 (20241206.2353)
 -->
<!-- Title: CFeatureSpectralPitchChroma::CFeatureSpectralPitchChroma Pages: 1 -->
<svg width="656pt" height="156pt"
 viewBox="0.00 0.00 656.25 156.25" xmlns="http://www.w3.org/2000/svg" xmlns:xlink="http://www.w3.org/1999/xlink">
<g id="graph0" class="graph" transform="scale(1 1) rotate(0) translate(4 152.25)">
<title>CFeatureSpectralPitchChroma::CFeatureSpectralPitchChroma</title>
<!-- Node1 -->
<g id="Node000001" class="node">
<title>Node1</title>
<g id="a_Node000001"><a xlink:title=" ">
<polygon fill="#999999" stroke="#666666" points="152.5,-110.88 0,-110.88 0,-80.38 152.5,-80.38 152.5,-110.88"/>
<text text-anchor="start" x="8" y="-97.38" font-family="Helvetica,sans-Serif" font-size="10.00">CFeatureSpectralPitchChroma</text>
<text text-anchor="middle" x="76.25" y="-86.12" font-family="Helvetica,sans-Serif" font-size="10.00">::CFeatureSpectralPitchChroma</text>
</a>
</g>
</g>
<!-- Node2 -->
<g id="Node000002" class="node">
<title>Node2</title>
<g id="a_Node000002"><a xlink:href="a00489.xhtml#a6501b78d76c912d49eee88c8f7242923" target="_top" xlink:title=" ">
<polygon fill="white" stroke="#666666" points="299.38,-148.25 225.62,-148.25 225.62,-129 299.38,-129 299.38,-148.25"/>
<text text-anchor="middle" x="262.5" y="-134.75" font-family="Helvetica,sans-Serif" font-size="10.00">CMatrix::alloc</text>
</a>
</g>
</g>
<!-- Node1&#45;&gt;Node2 -->
<g id="edge1_Node000001_Node000002" class="edge">
<title>Node1&#45;&gt;Node2</title>
<g id="a_edge1_Node000001_Node000002"><a xlink:title=" ">
<path fill="none" stroke="#63b8ff" d="M144.55,-111.33C167.64,-116.72 192.98,-122.63 214.15,-127.58"/>
<polygon fill="#63b8ff" stroke="#63b8ff" points="213.12,-130.93 223.65,-129.79 214.71,-124.11 213.12,-130.93"/>
</a>
</g>
</g>
<!-- Node5 -->
<g id="Node000005" class="node">
<title>Node5</title>
<g id="a_Node000005"><a xlink:href="a00473.xhtml#a483bca508e2817799a3173a6180d245e" target="_top" xlink:title=" ">
<polygon fill="white" stroke="#666666" points="319.25,-110.88 205.75,-110.88 205.75,-80.38 319.25,-80.38 319.25,-110.88"/>
<text text-anchor="start" x="213.75" y="-97.38" font-family="Helvetica,sans-Serif" font-size="10.00">CFeatureFromBlockIf</text>
<text text-anchor="middle" x="262.5" y="-86.12" font-family="Helvetica,sans-Serif" font-size="10.00">::CFeatureFromBlockIf</text>
</a>
</g>
</g>
<!-- Node1&#45;&gt;Node5 -->
<g id="edge4_Node000001_Node000005" class="edge">
<title>Node1&#45;&gt;Node5</title>
<g id="a_edge4_Node000001_Node000005"><a xlink:title=" ">
<path fill="none" stroke="#63b8ff" d="M152.99,-95.62C166.58,-95.62 180.66,-95.62 193.99,-95.62"/>
<polygon fill="#63b8ff" stroke="#63b8ff" points="193.98,-99.13 203.98,-95.63 193.98,-92.13 193.98,-99.13"/>
</a>
</g>
</g>
<!-- Node6 -->
<g id="Node000006" class="node">
<title>Node6</title>
<g id="a_Node000006"><a xlink:href="a00337.xhtml#a88b4352ab8251a177a5351c638ad5b3c" target="_top" xlink:title=" ">
<polygon fill="white" stroke="#666666" points="336.5,-61.88 188.5,-61.88 188.5,-31.38 336.5,-31.38 336.5,-61.88"/>
<text text-anchor="start" x="196.5" y="-48.38" font-family="Helvetica,sans-Serif" font-size="10.00">CFeatureSpectralPitchChroma</text>
<text text-anchor="middle" x="262.5" y="-37.12" font-family="Helvetica,sans-Serif" font-size="10.00">::genPcFilters_</text>
</a>
</g>
</g>
<!-- Node1&#45;&gt;Node6 -->
<g id="edge5_Node000001_Node000006" class="edge">
<title>Node1&#45;&gt;Node6</title>
<g id="a_edge5_Node000001_Node000006"><a xlink:title=" ">
<path fill="none" stroke="#63b8ff" d="M136.31,-79.92C153.83,-75.26 173.19,-70.11 191.34,-65.28"/>
<polygon fill="#63b8ff" stroke="#63b8ff" points="192.23,-68.67 201,-62.72 190.43,-61.9 192.23,-68.67"/>
</a>
</g>
</g>
<!-- Node3 -->
<g id="Node000003" class="node">
<title>Node3</title>
<g id="a_Node000003"><a xlink:href="a00505.xhtml#abaadac98b1cad18b7b568852bc951696" target="_top" xlink:title=" ">
<polygon fill="white" stroke="#666666" points="486,-148.25 410,-148.25 410,-129 486,-129 486,-148.25"/>
<text text-anchor="middle" x="448" y="-134.75" font-family="Helvetica,sans-Serif" font-size="10.00">CVector::alloc</text>
</a>
</g>
</g>
<!-- Node2&#45;&gt;Node3 -->
<g id="edge2_Node000002_Node000003" class="edge">
<title>Node2&#45;&gt;Node3</title>
<g id="a_edge2_Node000002_Node000003"><a xlink:title=" ">
<path fill="none" stroke="#63b8ff" d="M299.75,-138.62C327.91,-138.62 367.23,-138.62 398.16,-138.62"/>
<polygon fill="#63b8ff" stroke="#63b8ff" points="398.05,-142.13 408.05,-138.63 398.05,-135.13 398.05,-142.13"/>
</a>
</g>
</g>
<!-- Node4 -->
<g id="Node000004" class="node">
<title>Node4</title>
<g id="a_Node000004"><a xlink:href="a00505.xhtml#a6dbb3f9f480568b60f7fe50090d20003" target="_top" xlink:title=" ">
<polygon fill="white" stroke="#666666" points="648.25,-148.25 559.5,-148.25 559.5,-129 648.25,-129 648.25,-148.25"/>
<text text-anchor="middle" x="603.88" y="-134.75" font-family="Helvetica,sans-Serif" font-size="10.00">CVector::setZero</text>
</a>
</g>
</g>
<!-- Node3&#45;&gt;Node4 -->
<g id="edge3_Node000003_Node000004" class="edge">
<title>Node3&#45;&gt;Node4</title>
<g id="a_edge3_Node000003_Node000004"><a xlink:title=" ">
<path fill="none" stroke="#63b8ff" d="M486.25,-138.62C504.7,-138.62 527.34,-138.62 547.76,-138.62"/>
<polygon fill="#63b8ff" stroke="#63b8ff" points="547.63,-142.13 557.63,-138.63 547.63,-135.13 547.63,-142.13"/>
</a>
</g>
</g>
<!-- Node7 -->
<g id="Node000007" class="node">
<title>Node7</title>
<g id="a_Node000007"><a xlink:href="a00553.xhtml#ada82d84a69f4c77266835f1f06ca2ecb" target="_top" xlink:title=" ">
<polygon fill="white" stroke="#666666" points="521.62,-93.25 374.38,-93.25 374.38,-74 521.62,-74 521.62,-93.25"/>
<text text-anchor="middle" x="448" y="-79.75" font-family="Helvetica,sans-Serif" font-size="10.00">CConversion::convertFreq2Bin</text>
</a>
</g>
</g>
<!-- Node6&#45;&gt;Node7 -->
<g id="edge6_Node000006_Node000007" class="edge">
<title>Node6&#45;&gt;Node7</title>
<g id="a_edge6_Node000006_Node000007"><a xlink:title=" ">
<path fill="none" stroke="#63b8ff" d="M336.82,-61.41C353.04,-64.68 370.07,-68.11 385.76,-71.28"/>
<polygon fill="#63b8ff" stroke="#63b8ff" points="384.93,-74.68 395.43,-73.23 386.32,-67.82 384.93,-74.68"/>
</a>
</g>
</g>
<!-- Node8 -->
<g id="Node000008" class="node">
<title>Node8</title>
<g id="a_Node000008"><a xlink:href="a00553.xhtml#a3461898be6be7ae7059904860f5231e1" target="_top" xlink:title=" ">
<polygon fill="white" stroke="#666666" points="523.5,-56.25 372.5,-56.25 372.5,-37 523.5,-37 523.5,-56.25"/>
<text text-anchor="middle" x="448" y="-42.75" font-family="Helvetica,sans-Serif" font-size="10.00">CConversion::convertMidi2Freq</text>
</a>
</g>
</g>
<!-- Node6&#45;&gt;Node8 -->
<g id="edge7_Node000006_Node000008" class="edge">
<title>Node6&#45;&gt;Node8</title>
<g id="a_edge7_Node000006_Node000008"><a xlink:title=" ">
<path fill="none" stroke="#63b8ff" d="M336.82,-46.62C344.69,-46.62 352.75,-46.62 360.75,-46.62"/>
<polygon fill="#63b8ff" stroke="#63b8ff" points="360.49,-50.13 370.49,-46.63 360.49,-43.13 360.49,-50.13"/>
</a>
</g>
</g>
<!-- Node9 -->
<g id="Node000009" class="node">
<title>Node9</title>
<g id="a_Node000009"><a xlink:href="a00505.xhtml#a4cf9544dd96801e3ee47fd1ef2049a1b" target="_top" xlink:title=" ">
<polygon fill="white" stroke="#666666" points="495,-19.25 401,-19.25 401,0 495,0 495,-19.25"/>
<text text-anchor="middle" x="448" y="-5.75" font-family="Helvetica,sans-Serif" font-size="10.00">CVector::setValue</text>
</a>
</g>
</g>
<!-- Node6&#45;&gt;Node9 -->
<g id="edge8_Node000006_Node000009" class="edge">
<title>Node6&#45;&gt;Node9</title>
<g id="a_edge8_Node000006_Node000009"><a xlink:title=" ">
<path fill="none" stroke="#63b8ff" d="M336.82,-31.84C354.33,-28.31 372.79,-24.59 389.48,-21.22"/>
<polygon fill="#63b8ff" stroke="#63b8ff" points="390.13,-24.66 399.24,-19.26 388.74,-17.8 390.13,-24.66"/>
</a>
</g>
</g>
</g>
</svg>
