<?xml version="1.0" encoding="UTF-8" standalone="no"?>
<!DOCTYPE svg PUBLIC "-//W3C//DTD SVG 1.1//EN"
 "http://www.w3.org/Graphics/SVG/1.1/DTD/svg11.dtd">
<!-- Generated by graphviz version 12.2.1 (20241206.2353)
 -->
<!-- Title: CPitchTimeAcf::CPitchTimeAcf Pages: 1 -->
<svg width="349pt" height="64pt"
 viewBox="0.00 0.00 349.00 64.25" xmlns="http://www.w3.org/2000/svg" xmlns:xlink="http://www.w3.org/1999/xlink">
<g id="graph0" class="graph" transform="scale(1 1) rotate(0) translate(4 60.25)">
<title>CPitchTimeAcf::CPitchTimeAcf</title>
<!-- Node1 -->
<g id="Node000001" class="node">
<title>Node1</title>
<g id="a_Node000001"><a xlink:title=" ">
<polygon fill="#999999" stroke="#666666" points="341,-37.25 188.5,-37.25 188.5,-18 341,-18 341,-37.25"/>
<text text-anchor="middle" x="264.75" y="-23.75" font-family="Helvetica,sans-Serif" font-size="10.00">CPitchTimeAcf::CPitchTimeAcf</text>
</a>
</g>
</g>
<!-- Node2 -->
<g id="Node000002" class="node">
<title>Node2</title>
<g id="a_Node000002"><a xlink:href="a00389.xhtml#a58e2df14aeed930a1e41749d40e65c35" target="_top" xlink:title="disallow copy construction">
<polygon fill="white" stroke="#666666" points="152.5,-56.25 0,-56.25 0,-37 152.5,-37 152.5,-56.25"/>
<text text-anchor="middle" x="76.25" y="-42.75" font-family="Helvetica,sans-Serif" font-size="10.00">CPitchTimeAcf::CPitchTimeAcf</text>
</a>
</g>
</g>
<!-- Node1&#45;&gt;Node2 -->
<g id="edge1_Node000001_Node000002" class="edge">
<title>Node1&#45;&gt;Node2</title>
<g id="a_edge1_Node000001_Node000002"><a xlink:title=" ">
<path fill="none" stroke="#63b8ff" d="M176.91,-36.47C168.91,-37.29 160.84,-38.11 152.95,-38.91"/>
<polygon fill="#63b8ff" stroke="#63b8ff" points="177.06,-39.97 186.66,-35.48 176.35,-33.01 177.06,-39.97"/>
</a>
</g>
</g>
<!-- Node3 -->
<g id="Node000003" class="node">
<title>Node3</title>
<g id="a_Node000003"><a xlink:href="a00389.xhtml#a9bc50b93b2afdc1782d8534fa7ed6c80" target="_top" xlink:title=" ">
<polygon fill="white" stroke="#666666" points="140.12,-19.25 12.38,-19.25 12.38,0 140.12,0 140.12,-19.25"/>
<text text-anchor="middle" x="76.25" y="-5.75" font-family="Helvetica,sans-Serif" font-size="10.00">CPitchTimeAcf::operator=</text>
</a>
</g>
</g>
<!-- Node1&#45;&gt;Node3 -->
<g id="edge2_Node000001_Node000003" class="edge">
<title>Node1&#45;&gt;Node3</title>
<g id="a_edge2_Node000001_Node000003"><a xlink:title=" ">
<path fill="none" stroke="#63b8ff" d="M176.92,-19.25C164.61,-18.06 152.15,-16.85 140.41,-15.72"/>
<polygon fill="#63b8ff" stroke="#63b8ff" points="176.37,-22.71 186.66,-20.18 177.04,-15.74 176.37,-22.71"/>
</a>
</g>
</g>
</g>
</svg>
