<?xml version="1.0" encoding="UTF-8" standalone="no"?>
<!DOCTYPE svg PUBLIC "-//W3C//DTD SVG 1.1//EN"
 "http://www.w3.org/Graphics/SVG/1.1/DTD/svg11.dtd">
<!-- Generated by graphviz version 6.0.1 (20220911.1526)
 -->
<!-- Title: CFeatureSpectralMfccs::allocDctMat_ Pages: 1 -->
<svg width="442pt" height="86pt"
 viewBox="0.00 0.00 442.00 86.00" xmlns="http://www.w3.org/2000/svg" xmlns:xlink="http://www.w3.org/1999/xlink">
<g id="graph0" class="graph" transform="scale(1 1) rotate(0) translate(4 82)">
<title>CFeatureSpectralMfccs::allocDctMat_</title>
<!-- Node1 -->
<g id="node1" class="node">
<title>Node1</title>
<g id="a_node1"><a xlink:title=" ">
<polygon fill="#999999" stroke="#666666" points="434,-54 315,-54 315,-24 434,-24 434,-54"/>
<text text-anchor="start" x="323" y="-42" font-family="Helvetica,sans-Serif" font-size="10.00">CFeatureSpectralMfccs</text>
<text text-anchor="middle" x="374.5" y="-31" font-family="Helvetica,sans-Serif" font-size="10.00">::allocDctMat_</text>
</a>
</g>
</g>
<!-- Node2 -->
<g id="node2" class="node">
<title>Node2</title>
<g id="a_node2"><a xlink:href="a00330.xhtml#a4fd7b7171c56ba1be8191ca660f6fbcc" target="_top" xlink:title=" ">
<polygon fill="white" stroke="#666666" points="279,-54 160,-54 160,-24 279,-24 279,-54"/>
<text text-anchor="start" x="168" y="-42" font-family="Helvetica,sans-Serif" font-size="10.00">CFeatureSpectralMfccs</text>
<text text-anchor="middle" x="219.5" y="-31" font-family="Helvetica,sans-Serif" font-size="10.00">::genDctMat_</text>
</a>
</g>
</g>
<!-- Node1&#45;&gt;Node2 -->
<g id="edge1" class="edge">
<title>Node1&#45;&gt;Node2</title>
<path fill="none" stroke="#63b8ff" d="M304.51,-39C296.01,-39 287.38,-39 279.06,-39"/>
<polygon fill="#63b8ff" stroke="#63b8ff" points="304.78,-42.5 314.78,-39 304.78,-35.5 304.78,-42.5"/>
</g>
<!-- Node3 -->
<g id="node3" class="node">
<title>Node3</title>
<g id="a_node3"><a xlink:href="a00330.xhtml#a4ffe272900bf3ba5bbab219262506455" target="_top" xlink:title=" ">
<polygon fill="white" stroke="#666666" points="124,-78 0,-78 0,-48 124,-48 124,-78"/>
<text text-anchor="start" x="8" y="-66" font-family="Helvetica,sans-Serif" font-size="10.00">CFeatureSpectralMfccs</text>
<text text-anchor="middle" x="62" y="-55" font-family="Helvetica,sans-Serif" font-size="10.00">::CFeatureSpectralMfccs</text>
</a>
</g>
</g>
<!-- Node2&#45;&gt;Node3 -->
<g id="edge2" class="edge">
<title>Node2&#45;&gt;Node3</title>
<path fill="none" stroke="#63b8ff" d="M149.8,-49.6C141.27,-50.92 132.6,-52.26 124.2,-53.55"/>
<polygon fill="#63b8ff" stroke="#63b8ff" points="150.36,-53.06 159.71,-48.07 149.3,-46.14 150.36,-53.06"/>
</g>
<!-- Node4 -->
<g id="node4" class="node">
<title>Node4</title>
<g id="a_node4"><a xlink:href="a00330.xhtml#a6ffd2585db71bf5b44aedc15223525e6" target="_top" xlink:title=" ">
<polygon fill="white" stroke="#666666" points="121.5,-30 2.5,-30 2.5,0 121.5,0 121.5,-30"/>
<text text-anchor="start" x="10.5" y="-18" font-family="Helvetica,sans-Serif" font-size="10.00">CFeatureSpectralMfccs</text>
<text text-anchor="middle" x="62" y="-7" font-family="Helvetica,sans-Serif" font-size="10.00">::setAdditionalParam</text>
</a>
</g>
</g>
<!-- Node2&#45;&gt;Node4 -->
<g id="edge3" class="edge">
<title>Node2&#45;&gt;Node4</title>
<path fill="none" stroke="#63b8ff" d="M149.65,-28.37C140.3,-26.93 130.77,-25.46 121.61,-24.05"/>
<polygon fill="#63b8ff" stroke="#63b8ff" points="149.3,-31.86 159.71,-29.93 150.36,-24.94 149.3,-31.86"/>
</g>
</g>
</svg>
