<?xml version="1.0" encoding="UTF-8" standalone="no"?>
<!DOCTYPE svg PUBLIC "-//W3C//DTD SVG 1.1//EN"
 "http://www.w3.org/Graphics/SVG/1.1/DTD/svg11.dtd">
<!-- Generated by graphviz version 12.2.1 (20241206.2353)
 -->
<!-- Title: CFeatureFromFile::CFeatureFromFile Pages: 1 -->
<svg width="826pt" height="361pt"
 viewBox="0.00 0.00 826.00 360.88" xmlns="http://www.w3.org/2000/svg" xmlns:xlink="http://www.w3.org/1999/xlink">
<g id="graph0" class="graph" transform="scale(1 1) rotate(0) translate(4 356.88)">
<title>CFeatureFromFile::CFeatureFromFile</title>
<!-- Node1 -->
<g id="Node000001" class="node">
<title>Node1</title>
<g id="a_Node000001"><a xlink:title=" ">
<polygon fill="#999999" stroke="#666666" points="138.25,-214.88 0,-214.88 0,-184.38 138.25,-184.38 138.25,-214.88"/>
<text text-anchor="start" x="8" y="-201.38" font-family="Helvetica,sans-Serif" font-size="10.00">CFeatureFromFile::CFeature</text>
<text text-anchor="middle" x="69.12" y="-190.12" font-family="Helvetica,sans-Serif" font-size="10.00">FromFile</text>
</a>
</g>
</g>
<!-- Node2 -->
<g id="Node000002" class="node">
<title>Node2</title>
<g id="a_Node000002"><a xlink:href="a00445.xhtml#aab987b1a4ec96a8fc835b1733a1ee0c3" target="_top" xlink:title=" ">
<polygon fill="white" stroke="#666666" points="279.5,-298.25 178.75,-298.25 178.75,-279 279.5,-279 279.5,-298.25"/>
<text text-anchor="middle" x="229.12" y="-284.75" font-family="Helvetica,sans-Serif" font-size="10.00">CAudioFileIf::create</text>
</a>
</g>
</g>
<!-- Node1&#45;&gt;Node2 -->
<g id="edge1_Node000001_Node000002" class="edge">
<title>Node1&#45;&gt;Node2</title>
<g id="a_edge1_Node000001_Node000002"><a xlink:title=" ">
<path fill="none" stroke="#63b8ff" d="M96.54,-215.13C117.51,-227.37 147.64,-244.8 174.25,-259.62 182.25,-264.08 190.97,-268.83 199.02,-273.16"/>
<polygon fill="#63b8ff" stroke="#63b8ff" points="197.3,-276.21 207.77,-277.84 200.61,-270.04 197.3,-276.21"/>
</a>
</g>
</g>
<!-- Node8 -->
<g id="Node000008" class="node">
<title>Node8</title>
<g id="a_Node000008"><a xlink:href="a00545.xhtml#a84f0c2bf28007ef7749ab0e90c8011d2" target="_top" xlink:title=" ">
<polygon fill="white" stroke="#666666" points="284,-250.25 174.25,-250.25 174.25,-231 284,-231 284,-250.25"/>
<text text-anchor="middle" x="229.12" y="-236.75" font-family="Helvetica,sans-Serif" font-size="10.00">CBlockAudioIf::create</text>
</a>
</g>
</g>
<!-- Node1&#45;&gt;Node8 -->
<g id="edge7_Node000001_Node000008" class="edge">
<title>Node1&#45;&gt;Node8</title>
<g id="a_edge7_Node000001_Node000008"><a xlink:title=" ">
<path fill="none" stroke="#63b8ff" d="M130.76,-215.36C146.59,-219.47 163.45,-223.84 178.63,-227.78"/>
<polygon fill="#63b8ff" stroke="#63b8ff" points="177.31,-231.05 187.87,-230.18 179.07,-224.28 177.31,-231.05"/>
</a>
</g>
</g>
<!-- Node10 -->
<g id="Node000010" class="node">
<title>Node10</title>
<g id="a_Node000010"><a xlink:href="a00469.xhtml#ab38ca831ee8ae42a8a95e33af4f756ba" target="_top" xlink:title="init configuration">
<polygon fill="white" stroke="#666666" points="271.25,-78.25 187,-78.25 187,-59 271.25,-59 271.25,-78.25"/>
<text text-anchor="middle" x="229.12" y="-64.75" font-family="Helvetica,sans-Serif" font-size="10.00">CFeatureIf::init_</text>
</a>
</g>
</g>
<!-- Node1&#45;&gt;Node10 -->
<g id="edge9_Node000001_Node000010" class="edge">
<title>Node1&#45;&gt;Node10</title>
<g id="a_edge9_Node000001_Node000010"><a xlink:title=" ">
<path fill="none" stroke="#63b8ff" d="M88.87,-184.08C118.65,-159.39 176.56,-111.38 207.48,-85.74"/>
<polygon fill="#63b8ff" stroke="#63b8ff" points="209.52,-88.59 214.99,-79.52 205.06,-83.2 209.52,-88.59"/>
</a>
</g>
</g>
<!-- Node16 -->
<g id="Node000016" class="node">
<title>Node16</title>
<g id="a_Node000016"><a xlink:href="a00469.xhtml#a7b77edaf405fefd82329d8987b16d1f2" target="_top" xlink:title="reset configuration">
<polygon fill="white" stroke="#666666" points="275.75,-191.25 182.5,-191.25 182.5,-172 275.75,-172 275.75,-191.25"/>
<text text-anchor="middle" x="229.12" y="-177.75" font-family="Helvetica,sans-Serif" font-size="10.00">CFeatureIf::reset_</text>
</a>
</g>
</g>
<!-- Node1&#45;&gt;Node16 -->
<g id="edge15_Node000001_Node000016" class="edge">
<title>Node1&#45;&gt;Node16</title>
<g id="a_edge15_Node000001_Node000016"><a xlink:title=" ">
<path fill="none" stroke="#63b8ff" d="M138.51,-191.83C149.41,-190.59 160.59,-189.32 171.19,-188.11"/>
<polygon fill="#63b8ff" stroke="#63b8ff" points="171.38,-191.61 180.92,-187 170.59,-184.66 171.38,-191.61"/>
</a>
</g>
</g>
<!-- Node3 -->
<g id="Node000003" class="node">
<title>Node3</title>
<g id="a_Node000003"><a xlink:href="a00445.xhtml#a303a350a95e8af4cfbaaf61c1274b790" target="_top" xlink:title=" ">
<polygon fill="white" stroke="#666666" points="457.5,-304.25 330.5,-304.25 330.5,-285 457.5,-285 457.5,-304.25"/>
<text text-anchor="middle" x="394" y="-290.75" font-family="Helvetica,sans-Serif" font-size="10.00">CAudioFileIf::CAudioFileIf</text>
</a>
</g>
</g>
<!-- Node2&#45;&gt;Node3 -->
<g id="edge2_Node000002_Node000003" class="edge">
<title>Node2&#45;&gt;Node3</title>
<g id="a_edge2_Node000002_Node000003"><a xlink:title=" ">
<path fill="none" stroke="#63b8ff" d="M279.88,-290.46C292.11,-290.91 305.46,-291.4 318.58,-291.88"/>
<polygon fill="#63b8ff" stroke="#63b8ff" points="318.37,-295.38 328.49,-292.25 318.63,-288.38 318.37,-295.38"/>
</a>
</g>
</g>
<!-- Node4 -->
<g id="Node000004" class="node">
<title>Node4</title>
<g id="a_Node000004"><a xlink:href="a00445.xhtml#a9fcdd386ee5292b5a971c7077858274c" target="_top" xlink:title=" ">
<polygon fill="white" stroke="#666666" points="640.38,-304.25 512.62,-304.25 512.62,-285 640.38,-285 640.38,-304.25"/>
<text text-anchor="middle" x="576.5" y="-290.75" font-family="Helvetica,sans-Serif" font-size="10.00">CAudioFileIf::initDefaults_</text>
</a>
</g>
</g>
<!-- Node3&#45;&gt;Node4 -->
<g id="edge3_Node000003_Node000004" class="edge">
<title>Node3&#45;&gt;Node4</title>
<g id="a_edge3_Node000003_Node000004"><a xlink:title=" ">
<path fill="none" stroke="#63b8ff" d="M457.88,-294.62C471.77,-294.62 486.61,-294.62 500.91,-294.62"/>
<polygon fill="#63b8ff" stroke="#63b8ff" points="500.72,-298.13 510.72,-294.63 500.72,-291.13 500.72,-298.13"/>
</a>
</g>
</g>
<!-- Node5 -->
<g id="Node000005" class="node">
<title>Node5</title>
<g id="a_Node000005"><a xlink:href="a00445.xhtml#a5a74fd1730a2f0f7339b6507ca7abc23" target="_top" xlink:title=" ">
<polygon fill="white" stroke="#666666" points="812.38,-352.88 690.62,-352.88 690.62,-322.38 812.38,-322.38 812.38,-352.88"/>
<text text-anchor="start" x="698.62" y="-339.38" font-family="Helvetica,sans-Serif" font-size="10.00">CAudioFileIf::setClipping</text>
<text text-anchor="middle" x="751.5" y="-328.12" font-family="Helvetica,sans-Serif" font-size="10.00">Enabled</text>
</a>
</g>
</g>
<!-- Node4&#45;&gt;Node5 -->
<g id="edge4_Node000004_Node000005" class="edge">
<title>Node4&#45;&gt;Node5</title>
<g id="a_edge4_Node000004_Node000005"><a xlink:title=" ">
<path fill="none" stroke="#63b8ff" d="M618.06,-304.71C636.26,-309.23 658.29,-314.7 679.1,-319.88"/>
<polygon fill="#63b8ff" stroke="#63b8ff" points="678.17,-323.25 688.71,-322.27 679.85,-316.46 678.17,-323.25"/>
</a>
</g>
</g>
<!-- Node6 -->
<g id="Node000006" class="node">
<title>Node6</title>
<g id="a_Node000006"><a xlink:href="a00445.xhtml#ada0ab1ffd0666fdc0db872ca7f8a309f" target="_top" xlink:title=" ">
<polygon fill="white" stroke="#666666" points="818,-304.25 685,-304.25 685,-285 818,-285 818,-304.25"/>
<text text-anchor="middle" x="751.5" y="-290.75" font-family="Helvetica,sans-Serif" font-size="10.00">CAudioFileIf::setInitialized_</text>
</a>
</g>
</g>
<!-- Node4&#45;&gt;Node6 -->
<g id="edge5_Node000004_Node000006" class="edge">
<title>Node4&#45;&gt;Node6</title>
<g id="a_edge5_Node000004_Node000006"><a xlink:title=" ">
<path fill="none" stroke="#63b8ff" d="M640.45,-294.62C651.13,-294.62 662.33,-294.62 673.33,-294.62"/>
<polygon fill="#63b8ff" stroke="#63b8ff" points="673.18,-298.13 683.18,-294.63 673.18,-291.13 673.18,-298.13"/>
</a>
</g>
</g>
<!-- Node7 -->
<g id="Node000007" class="node">
<title>Node7</title>
<g id="a_Node000007"><a xlink:href="a00445.xhtml#a6ccc53d8d2c5113b5b2cba604e8a4510" target="_top" xlink:title=" ">
<polygon fill="white" stroke="#666666" points="812.38,-267.25 690.62,-267.25 690.62,-248 812.38,-248 812.38,-267.25"/>
<text text-anchor="middle" x="751.5" y="-253.75" font-family="Helvetica,sans-Serif" font-size="10.00">CAudioFileIf::setIoType_</text>
</a>
</g>
</g>
<!-- Node4&#45;&gt;Node7 -->
<g id="edge6_Node000004_Node000007" class="edge">
<title>Node4&#45;&gt;Node7</title>
<g id="a_edge6_Node000004_Node000007"><a xlink:title=" ">
<path fill="none" stroke="#63b8ff" d="M624.77,-284.51C645.56,-280.07 670.18,-274.8 692.1,-270.11"/>
<polygon fill="#63b8ff" stroke="#63b8ff" points="692.76,-273.55 701.8,-268.04 691.29,-266.71 692.76,-273.55"/>
</a>
</g>
</g>
<!-- Node9 -->
<g id="Node000009" class="node">
<title>Node9</title>
<g id="a_Node000009"><a xlink:href="a00545.xhtml#a25b4acfbc219a671933702aaf97229fd" target="_top" xlink:title=" ">
<polygon fill="white" stroke="#666666" points="649,-247.25 504,-247.25 504,-228 649,-228 649,-247.25"/>
<text text-anchor="middle" x="576.5" y="-233.75" font-family="Helvetica,sans-Serif" font-size="10.00">CBlockAudioIf::CBlockAudioIf</text>
</a>
</g>
</g>
<!-- Node8&#45;&gt;Node9 -->
<g id="edge8_Node000008_Node000009" class="edge">
<title>Node8&#45;&gt;Node9</title>
<g id="a_edge8_Node000008_Node000009"><a xlink:title=" ">
<path fill="none" stroke="#63b8ff" d="M284.47,-240.15C340.29,-239.67 427.9,-238.91 492.43,-238.35"/>
<polygon fill="#63b8ff" stroke="#63b8ff" points="492.31,-241.85 502.27,-238.26 492.24,-234.85 492.31,-241.85"/>
</a>
</g>
</g>
<!-- Node11 -->
<g id="Node000011" class="node">
<title>Node11</title>
<g id="a_Node000011"><a xlink:href="a00505.xhtml#abaadac98b1cad18b7b568852bc951696" target="_top" xlink:title=" ">
<polygon fill="white" stroke="#666666" points="432,-56.25 356,-56.25 356,-37 432,-37 432,-56.25"/>
<text text-anchor="middle" x="394" y="-42.75" font-family="Helvetica,sans-Serif" font-size="10.00">CVector::alloc</text>
</a>
</g>
</g>
<!-- Node10&#45;&gt;Node11 -->
<g id="edge10_Node000010_Node000011" class="edge">
<title>Node10&#45;&gt;Node11</title>
<g id="a_edge10_Node000010_Node000011"><a xlink:title=" ">
<path fill="none" stroke="#63b8ff" d="M271.65,-63.02C293.82,-60.02 321.24,-56.32 344.4,-53.19"/>
<polygon fill="#63b8ff" stroke="#63b8ff" points="344.79,-56.67 354.23,-51.86 343.85,-49.73 344.79,-56.67"/>
</a>
</g>
</g>
<!-- Node13 -->
<g id="Node000013" class="node">
<title>Node13</title>
<g id="a_Node000013"><a xlink:href="a00473.xhtml#a6d3ca4f66582ae352e3addfd7f99a752" target="_top" xlink:title=" ">
<polygon fill="white" stroke="#666666" points="448.5,-104.88 339.5,-104.88 339.5,-74.38 448.5,-74.38 448.5,-104.88"/>
<text text-anchor="start" x="347.5" y="-91.38" font-family="Helvetica,sans-Serif" font-size="10.00">CFeatureFromBlockIf</text>
<text text-anchor="middle" x="394" y="-80.12" font-family="Helvetica,sans-Serif" font-size="10.00">::create</text>
</a>
</g>
</g>
<!-- Node10&#45;&gt;Node13 -->
<g id="edge12_Node000010_Node000013" class="edge">
<title>Node10&#45;&gt;Node13</title>
<g id="a_edge12_Node000010_Node000013"><a xlink:title=" ">
<path fill="none" stroke="#63b8ff" d="M271.65,-73.98C288.74,-76.18 308.95,-78.79 327.93,-81.24"/>
<polygon fill="#63b8ff" stroke="#63b8ff" points="327.37,-84.69 337.74,-82.5 328.27,-77.75 327.37,-84.69"/>
</a>
</g>
</g>
<!-- Node15 -->
<g id="Node000015" class="node">
<title>Node15</title>
<g id="a_Node000015"><a xlink:href="a00469.xhtml#a2aac3d25c179044493ad1c96fa877709" target="_top" xlink:title="bool differentiating between time and spectral features">
<polygon fill="white" stroke="#666666" points="468,-19.25 320,-19.25 320,0 468,0 468,-19.25"/>
<text text-anchor="middle" x="394" y="-5.75" font-family="Helvetica,sans-Serif" font-size="10.00">CFeatureIf::isFeatureSpectral_</text>
</a>
</g>
</g>
<!-- Node10&#45;&gt;Node15 -->
<g id="edge14_Node000010_Node000015" class="edge">
<title>Node10&#45;&gt;Node15</title>
<g id="a_edge14_Node000010_Node000015"><a xlink:title=" ">
<path fill="none" stroke="#63b8ff" d="M249.33,-58.59C267.24,-49.55 294.89,-36.36 320,-27.62 325.05,-25.87 330.35,-24.21 335.7,-22.67"/>
<polygon fill="#63b8ff" stroke="#63b8ff" points="336.49,-26.08 345.21,-20.07 334.64,-19.33 336.49,-26.08"/>
</a>
</g>
</g>
<!-- Node12 -->
<g id="Node000012" class="node">
<title>Node12</title>
<g id="a_Node000012"><a xlink:href="a00505.xhtml#a6dbb3f9f480568b60f7fe50090d20003" target="_top" xlink:title=" ">
<polygon fill="white" stroke="#666666" points="620.88,-56.25 532.12,-56.25 532.12,-37 620.88,-37 620.88,-56.25"/>
<text text-anchor="middle" x="576.5" y="-42.75" font-family="Helvetica,sans-Serif" font-size="10.00">CVector::setZero</text>
</a>
</g>
</g>
<!-- Node11&#45;&gt;Node12 -->
<g id="edge11_Node000011_Node000012" class="edge">
<title>Node11&#45;&gt;Node12</title>
<g id="a_edge11_Node000011_Node000012"><a xlink:title=" ">
<path fill="none" stroke="#63b8ff" d="M432.4,-46.62C457.81,-46.62 491.85,-46.62 520.36,-46.62"/>
<polygon fill="#63b8ff" stroke="#63b8ff" points="520.28,-50.13 530.28,-46.63 520.28,-43.13 520.28,-50.13"/>
</a>
</g>
</g>
<!-- Node14 -->
<g id="Node000014" class="node">
<title>Node14</title>
<g id="a_Node000014"><a xlink:href="a00473.xhtml#a483bca508e2817799a3173a6180d245e" target="_top" xlink:title=" ">
<polygon fill="white" stroke="#666666" points="633.25,-147.88 519.75,-147.88 519.75,-117.38 633.25,-117.38 633.25,-147.88"/>
<text text-anchor="start" x="527.75" y="-134.38" font-family="Helvetica,sans-Serif" font-size="10.00">CFeatureFromBlockIf</text>
<text text-anchor="middle" x="576.5" y="-123.12" font-family="Helvetica,sans-Serif" font-size="10.00">::CFeatureFromBlockIf</text>
</a>
</g>
</g>
<!-- Node13&#45;&gt;Node14 -->
<g id="edge13_Node000013_Node000014" class="edge">
<title>Node13&#45;&gt;Node14</title>
<g id="a_edge13_Node000013_Node000014"><a xlink:title=" ">
<path fill="none" stroke="#63b8ff" d="M448.67,-102.41C467.43,-106.88 488.74,-111.96 508.45,-116.65"/>
<polygon fill="#63b8ff" stroke="#63b8ff" points="507.52,-120.03 518.06,-118.94 509.14,-113.22 507.52,-120.03"/>
</a>
</g>
</g>
<!-- Node17 -->
<g id="Node000017" class="node">
<title>Node17</title>
<g id="a_Node000017"><a xlink:href="a00545.xhtml#a13d2bd6e36210dde0c64d188c1266b88" target="_top" xlink:title=" ">
<polygon fill="white" stroke="#666666" points="451.12,-228.25 336.88,-228.25 336.88,-209 451.12,-209 451.12,-228.25"/>
<text text-anchor="middle" x="394" y="-214.75" font-family="Helvetica,sans-Serif" font-size="10.00">CBlockAudioIf::destroy</text>
</a>
</g>
</g>
<!-- Node16&#45;&gt;Node17 -->
<g id="edge16_Node000016_Node000017" class="edge">
<title>Node16&#45;&gt;Node17</title>
<g id="a_edge16_Node000016_Node000017"><a xlink:title=" ">
<path fill="none" stroke="#63b8ff" d="M274.63,-191.74C294.02,-196.14 316.96,-201.35 337.45,-206.01"/>
<polygon fill="#63b8ff" stroke="#63b8ff" points="336.54,-209.39 347.07,-208.19 338.1,-202.56 336.54,-209.39"/>
</a>
</g>
</g>
<!-- Node18 -->
<g id="Node000018" class="node">
<title>Node18</title>
<g id="a_Node000018"><a xlink:href="a00473.xhtml#a300e7b2134b2bd0faaa24cfecbd9cb51" target="_top" xlink:title=" ">
<polygon fill="white" stroke="#666666" points="448.5,-190.88 339.5,-190.88 339.5,-160.38 448.5,-160.38 448.5,-190.88"/>
<text text-anchor="start" x="347.5" y="-177.38" font-family="Helvetica,sans-Serif" font-size="10.00">CFeatureFromBlockIf</text>
<text text-anchor="middle" x="394" y="-166.12" font-family="Helvetica,sans-Serif" font-size="10.00">::destroy</text>
</a>
</g>
</g>
<!-- Node16&#45;&gt;Node18 -->
<g id="edge18_Node000016_Node000018" class="edge">
<title>Node16&#45;&gt;Node18</title>
<g id="a_edge18_Node000016_Node000018"><a xlink:title=" ">
<path fill="none" stroke="#63b8ff" d="M275.93,-179.94C292.06,-179.34 310.51,-178.66 327.93,-178.02"/>
<polygon fill="#63b8ff" stroke="#63b8ff" points="327.81,-181.53 337.67,-177.66 327.55,-174.53 327.81,-181.53"/>
</a>
</g>
</g>
<!-- Node19 -->
<g id="Node000019" class="node">
<title>Node19</title>
<g id="a_Node000019"><a xlink:href="a00505.xhtml#aa86bdb0c663d4d52f2765793756f8737" target="_top" xlink:title=" ">
<polygon fill="white" stroke="#666666" points="430.12,-142.25 357.88,-142.25 357.88,-123 430.12,-123 430.12,-142.25"/>
<text text-anchor="middle" x="394" y="-128.75" font-family="Helvetica,sans-Serif" font-size="10.00">CVector::free</text>
</a>
</g>
</g>
<!-- Node16&#45;&gt;Node19 -->
<g id="edge20_Node000016_Node000019" class="edge">
<title>Node16&#45;&gt;Node19</title>
<g id="a_edge20_Node000016_Node000019"><a xlink:title=" ">
<path fill="none" stroke="#63b8ff" d="M258.71,-171.54C276.29,-165.47 299.34,-157.75 320,-151.62 328.56,-149.08 337.74,-146.55 346.61,-144.2"/>
<polygon fill="#63b8ff" stroke="#63b8ff" points="347.34,-147.62 356.13,-141.71 345.57,-140.85 347.34,-147.62"/>
</a>
</g>
</g>
<!-- Node17&#45;&gt;Node9 -->
<g id="edge17_Node000017_Node000009" class="edge">
<title>Node17&#45;&gt;Node9</title>
<g id="a_edge17_Node000017_Node000009"><a xlink:title=" ">
<path fill="none" stroke="#63b8ff" d="M451.62,-224.58C464.67,-225.96 478.82,-227.45 492.73,-228.91"/>
<polygon fill="#63b8ff" stroke="#63b8ff" points="491.99,-232.35 502.3,-229.92 492.72,-225.39 491.99,-232.35"/>
</a>
</g>
</g>
<!-- Node18&#45;&gt;Node14 -->
<g id="edge19_Node000018_Node000014" class="edge">
<title>Node18&#45;&gt;Node14</title>
<g id="a_edge19_Node000018_Node000014"><a xlink:title=" ">
<path fill="none" stroke="#63b8ff" d="M448.67,-162.84C467.43,-158.37 488.74,-153.29 508.45,-148.6"/>
<polygon fill="#63b8ff" stroke="#63b8ff" points="509.14,-152.03 518.06,-146.31 507.52,-145.22 509.14,-152.03"/>
</a>
</g>
</g>
</g>
</svg>
