<?xml version="1.0" encoding="UTF-8" standalone="no"?>
<!DOCTYPE svg PUBLIC "-//W3C//DTD SVG 1.1//EN"
 "http://www.w3.org/Graphics/SVG/1.1/DTD/svg11.dtd">
<!-- Generated by graphviz version 4.0.0 (20220602.1335)
 -->
<!-- Title: CAudioFileRaw::closeFile Pages: 1 -->
<svg width="482pt" height="66pt"
 viewBox="0.00 0.00 482.00 66.00" xmlns="http://www.w3.org/2000/svg" xmlns:xlink="http://www.w3.org/1999/xlink">
<g id="graph0" class="graph" transform="scale(1 1) rotate(0) translate(4 62)">
<title>CAudioFileRaw::closeFile</title>
<polygon fill="white" stroke="transparent" points="-4,4 -4,-62 478,-62 478,4 -4,4"/>
<!-- Node1 -->
<g id="node1" class="node">
<title>Node1</title>
<g id="a_node1"><a xlink:title=" ">
<polygon fill="#bfbfbf" stroke="black" points="0,-19.5 0,-38.5 127,-38.5 127,-19.5 0,-19.5"/>
<text text-anchor="middle" x="63.5" y="-26.5" font-family="Helvetica,sans-Serif" font-size="10.00">CAudioFileRaw::closeFile</text>
</a>
</g>
</g>
<!-- Node2 -->
<g id="node2" class="node">
<title>Node2</title>
<g id="a_node2"><a xlink:href="a00434.xhtml#afec2baaa8b5c5ca228a9aee3dd5b9838" target="_top" xlink:title=" ">
<polygon fill="white" stroke="black" points="163,-38.5 163,-57.5 307,-57.5 307,-38.5 163,-38.5"/>
<text text-anchor="middle" x="235" y="-45.5" font-family="Helvetica,sans-Serif" font-size="10.00">CAudioFileRaw::freeMemory_</text>
</a>
</g>
</g>
<!-- Node1&#45;&gt;Node2 -->
<g id="edge1" class="edge">
<title>Node1&#45;&gt;Node2</title>
<path fill="none" stroke="midnightblue" d="M127.13,-36.02C135.47,-36.96 144.12,-37.92 152.71,-38.89"/>
<polygon fill="midnightblue" stroke="midnightblue" points="152.43,-42.38 162.76,-40.01 153.21,-35.42 152.43,-42.38"/>
</g>
<!-- Node4 -->
<g id="node4" class="node">
<title>Node4</title>
<g id="a_node4"><a xlink:href="a00434.xhtml#ad37de78b503da0145f73767c142f5c18" target="_top" xlink:title=" ">
<polygon fill="white" stroke="black" points="175.5,-0.5 175.5,-19.5 294.5,-19.5 294.5,-0.5 175.5,-0.5"/>
<text text-anchor="middle" x="235" y="-7.5" font-family="Helvetica,sans-Serif" font-size="10.00">CAudioFileRaw::isOpen</text>
</a>
</g>
</g>
<!-- Node1&#45;&gt;Node4 -->
<g id="edge3" class="edge">
<title>Node1&#45;&gt;Node4</title>
<path fill="none" stroke="midnightblue" d="M127.13,-21.98C139.56,-20.59 152.67,-19.12 165.29,-17.7"/>
<polygon fill="midnightblue" stroke="midnightblue" points="165.73,-21.17 175.28,-16.58 164.95,-14.22 165.73,-21.17"/>
</g>
<!-- Node3 -->
<g id="node3" class="node">
<title>Node3</title>
<g id="a_node3"><a xlink:href="a00442.xhtml#aec3ce9851e3b2876ff4978a0cbff7a2b" target="_top" xlink:title=" ">
<polygon fill="white" stroke="black" points="343,-38.5 343,-57.5 474,-57.5 474,-38.5 343,-38.5"/>
<text text-anchor="middle" x="408.5" y="-45.5" font-family="Helvetica,sans-Serif" font-size="10.00">CAudioFileIf::freeMemory_</text>
</a>
</g>
</g>
<!-- Node2&#45;&gt;Node3 -->
<g id="edge2" class="edge">
<title>Node2&#45;&gt;Node3</title>
<path fill="none" stroke="midnightblue" d="M307.24,-48C315.62,-48 324.18,-48 332.6,-48"/>
<polygon fill="midnightblue" stroke="midnightblue" points="332.79,-51.5 342.79,-48 332.79,-44.5 332.79,-51.5"/>
</g>
</g>
</svg>
