<?xml version="1.0" encoding="UTF-8" standalone="no"?>
<!DOCTYPE svg PUBLIC "-//W3C//DTD SVG 1.1//EN"
 "http://www.w3.org/Graphics/SVG/1.1/DTD/svg11.dtd">
<!-- Generated by graphviz version 12.2.1 (20241206.2353)
 -->
<!-- Title: CAudioFileIf::closeFile Pages: 1 -->
<!--zoomable 236 -->

<svg id="main" version="1.1" xmlns="http://www.w3.org/2000/svg" xmlns:xlink="http://www.w3.org/1999/xlink" xml:space="preserve" onload="init(evt)">

<style type="text/css"><![CDATA[
.node, .edge {opacity: 0.7;}
.node.selected, .edge.selected {opacity: 1;}
.edge:hover path { stroke: red; }
.edge:hover polygon { stroke: red; fill: red; }
]]></style>

<defs>
  <circle id="rim" cx="0" cy="0" r="7"/>
  <circle id="rim2" cx="0" cy="0" r="3.5"/>
  <g id="zoomPlus">
    <use xlink:href="#rim" fill="#404040"><set attributeName="fill" to="#808080" begin="zoomplus.mouseover" end="zoomplus.mouseout"/></use>
    <path d="M-4,0h8M0,-4v8" fill="none" stroke="white" stroke-width="1.5" pointer-events="none"/>
  </g>
  <g id="zoomMin">
    <use xlink:href="#rim" fill="#404040"><set attributeName="fill" to="#808080" begin="zoomminus.mouseover" end="zoomminus.mouseout"/></use>
    <path d="M-4,0h8" fill="none" stroke="white" stroke-width="1.5" pointer-events="none"/>
  </g>
  <g id="arrowUp" transform="translate(30 24)">
    <use xlink:href="#rim"/>
    <path pointer-events="none" fill="none" stroke="white" stroke-width="1.5" d="M0,-3.0v7 M-2.5,-0.5L0,-3.0L2.5,-0.5"/>
  </g>
  <g id="arrowRight" transform="rotate(90) translate(36 -43)">
    <use xlink:href="#rim"/>
    <path pointer-events="none" fill="none" stroke="white" stroke-width="1.5" d="M0,-3.0v7 M-2.5,-0.5L0,-3.0L2.5,-0.5"/>
  </g>
  <g id="arrowDown" transform="rotate(180) translate(-30 -48)">
    <use xlink:href="#rim"/>
    <path pointer-events="none" fill="none" stroke="white" stroke-width="1.5" d="M0,-3.0v7 M-2.5,-0.5L0,-3.0L2.5,-0.5"/>
  </g>
  <g id="arrowLeft" transform="rotate(270) translate(-36 17)">
    <use xlink:href="#rim"/>
    <path pointer-events="none" fill="none" stroke="white" stroke-width="1.5" d="M0,-3.0v7 M-2.5,-0.5L0,-3.0L2.5,-0.5"/>
  </g>
  <g id="resetDef">
    <use xlink:href="#rim2" fill="#404040"><set attributeName="fill" to="#808080" begin="reset.mouseover" end="reset.mouseout"/></use>
  </g>
</defs>
<script type="application/ecmascript">
var viewWidth = 638;
var viewHeight = 236;
var sectionId = 'dynsection-7';
</script>
<script type="application/ecmascript" xlink:href="svg.min.js"/>
<svg id="graph" class="graph">
<g id="viewport">
<title>CAudioFileIf::closeFile</title>
<!-- Node1 -->
<g id="Node000001" class="node">
<title>Node1</title>
<g id="a_Node000001"><a xlink:title=" ">
<polygon fill="#999999" stroke="#666666" points="629.5,-122.88 516.75,-122.88 516.75,-103.62 629.5,-103.62 629.5,-122.88"/>
<text text-anchor="middle" x="573.12" y="-109.38" font-family="Helvetica,sans-Serif" font-size="10.00">CAudioFileIf::closeFile</text>
</a>
</g>
</g>
<!-- Node2 -->
<g id="Node000002" class="node">
<title>Node2</title>
<g id="a_Node000002"><a xlink:href="a00445.xhtml#afd69456f1bc1e58632348f8ac9b70aa1" target="_top" xlink:title=" ">
<polygon fill="white" stroke="#666666" points="480.75,-122.88 385.25,-122.88 385.25,-103.62 480.75,-103.62 480.75,-122.88"/>
<text text-anchor="middle" x="433" y="-109.38" font-family="Helvetica,sans-Serif" font-size="10.00">CAudioFileIf::reset</text>
</a>
</g>
</g>
<!-- Node1&#45;&gt;Node2 -->
<g id="edge1_Node000001_Node000002" class="edge">
<title>Node1&#45;&gt;Node2</title>
<g id="a_edge1_Node000001_Node000002"><a xlink:title=" ">
<path fill="none" stroke="#63b8ff" d="M505,-113.25C496.93,-113.25 488.83,-113.25 481.13,-113.25"/>
<polygon fill="#63b8ff" stroke="#63b8ff" points="504.83,-116.75 514.83,-113.25 504.83,-109.75 504.83,-116.75"/>
</a>
</g>
</g>
<!-- Node3 -->
<g id="Node000003" class="node">
<title>Node3</title>
<g id="a_Node000003"><a xlink:href="a00437.xhtml#a0ebcef6b814032ce6548b06fa4ed3cd4" target="_top" xlink:title=" ">
<polygon fill="white" stroke="#666666" points="346.62,-227.88 192.62,-227.88 192.62,-208.62 346.62,-208.62 346.62,-227.88"/>
<text text-anchor="middle" x="269.62" y="-214.38" font-family="Helvetica,sans-Serif" font-size="10.00">CAudioFileRaw::CAudioFileRaw</text>
</a>
</g>
</g>
<!-- Node2&#45;&gt;Node3 -->
<g id="edge2_Node000002_Node000003" class="edge">
<title>Node2&#45;&gt;Node3</title>
<g id="a_edge2_Node000002_Node000003"><a xlink:title=" ">
<path fill="none" stroke="#63b8ff" d="M418.68,-132.53C403.97,-152.3 378.48,-182.48 349.25,-199.25 342.92,-202.88 335.91,-205.83 328.77,-208.21"/>
<polygon fill="#63b8ff" stroke="#63b8ff" points="421.46,-134.65 424.46,-124.49 415.78,-130.56 421.46,-134.65"/>
</a>
</g>
</g>
<!-- Node5 -->
<g id="Node000005" class="node">
<title>Node5</title>
<g id="a_Node000005"><a xlink:href="a00441.xhtml#a19d560f47dbefd7e32ace506f62667ed" target="_top" xlink:title=" ">
<polygon fill="white" stroke="#666666" points="334.62,-190.5 204.62,-190.5 204.62,-160 334.62,-160 334.62,-190.5"/>
<text text-anchor="start" x="212.62" y="-177" font-family="Helvetica,sans-Serif" font-size="10.00">CAudioFileSndLib::CAudio</text>
<text text-anchor="middle" x="269.62" y="-165.75" font-family="Helvetica,sans-Serif" font-size="10.00">FileSndLib</text>
</a>
</g>
</g>
<!-- Node2&#45;&gt;Node5 -->
<g id="edge4_Node000002_Node000005" class="edge">
<title>Node2&#45;&gt;Node5</title>
<g id="a_edge4_Node000002_Node000005"><a xlink:title=" ">
<path fill="none" stroke="#63b8ff" d="M402.17,-128.12C386.61,-135.58 367.14,-144.45 349.25,-151.25 341.65,-154.14 333.53,-156.94 325.51,-159.53"/>
<polygon fill="#63b8ff" stroke="#63b8ff" points="403.43,-131.41 410.89,-123.89 400.37,-125.11 403.43,-131.41"/>
</a>
</g>
</g>
<!-- Node7 -->
<g id="Node000007" class="node">
<title>Node7</title>
<g id="a_Node000007"><a xlink:href="a00437.xhtml#a3e0ef78b8e6ff49a3138d0a153906253" target="_top" xlink:title=" ">
<polygon fill="white" stroke="#666666" points="331.62,-141.88 207.62,-141.88 207.62,-122.62 331.62,-122.62 331.62,-141.88"/>
<text text-anchor="middle" x="269.62" y="-128.38" font-family="Helvetica,sans-Serif" font-size="10.00">CAudioFileRaw::openFile</text>
</a>
</g>
</g>
<!-- Node2&#45;&gt;Node7 -->
<g id="edge6_Node000002_Node000007" class="edge">
<title>Node2&#45;&gt;Node7</title>
<g id="a_edge6_Node000002_Node000007"><a xlink:title=" ">
<path fill="none" stroke="#63b8ff" d="M373.73,-120.11C360.14,-121.71 345.63,-123.42 331.92,-125.03"/>
<polygon fill="#63b8ff" stroke="#63b8ff" points="373.86,-123.62 383.39,-118.97 373.05,-116.67 373.86,-123.62"/>
</a>
</g>
</g>
<!-- Node8 -->
<g id="Node000008" class="node">
<title>Node8</title>
<g id="a_Node000008"><a xlink:href="a00441.xhtml#a0eed1ac1b3dd498717add1dfa56b3148" target="_top" xlink:title=" ">
<polygon fill="white" stroke="#666666" points="337.25,-104.88 202,-104.88 202,-85.62 337.25,-85.62 337.25,-104.88"/>
<text text-anchor="middle" x="269.62" y="-91.38" font-family="Helvetica,sans-Serif" font-size="10.00">CAudioFileSndLib::openFile</text>
</a>
</g>
</g>
<!-- Node2&#45;&gt;Node8 -->
<g id="edge7_Node000002_Node000008" class="edge">
<title>Node2&#45;&gt;Node8</title>
<g id="a_edge7_Node000002_Node000008"><a xlink:title=" ">
<path fill="none" stroke="#63b8ff" d="M373.49,-106.72C361.83,-105.42 349.5,-104.05 337.58,-102.72"/>
<polygon fill="#63b8ff" stroke="#63b8ff" points="373.06,-110.2 383.39,-107.83 373.84,-103.24 373.06,-110.2"/>
</a>
</g>
</g>
<!-- Node9 -->
<g id="Node000009" class="node">
<title>Node9</title>
<g id="a_Node000009"><a xlink:href="a00437.xhtml#a364e7c7ea00669a797e2b537eb2671f3" target="_top" xlink:title=" ">
<polygon fill="white" stroke="#666666" points="349.25,-67.88 190,-67.88 190,-48.62 349.25,-48.62 349.25,-67.88"/>
<text text-anchor="middle" x="269.62" y="-54.38" font-family="Helvetica,sans-Serif" font-size="10.00">CAudioFileRaw::~CAudioFileRaw</text>
</a>
</g>
</g>
<!-- Node2&#45;&gt;Node9 -->
<g id="edge8_Node000002_Node000009" class="edge">
<title>Node2&#45;&gt;Node9</title>
<g id="a_edge8_Node000002_Node000009"><a xlink:title=" ">
<path fill="none" stroke="#63b8ff" d="M402.32,-98.28C386.8,-90.89 367.32,-82.29 349.25,-76.25 340.35,-73.27 330.73,-70.62 321.36,-68.33"/>
<polygon fill="#63b8ff" stroke="#63b8ff" points="400.48,-101.28 411.01,-102.5 403.54,-94.98 400.48,-101.28"/>
</a>
</g>
</g>
<!-- Node10 -->
<g id="Node000010" class="node">
<title>Node10</title>
<g id="a_Node000010"><a xlink:href="a00441.xhtml#a76a7d86e45b95f261d505fddb522f9f6" target="_top" xlink:title=" ">
<polygon fill="white" stroke="#666666" points="319.25,-30.5 220,-30.5 220,0 319.25,0 319.25,-30.5"/>
<text text-anchor="start" x="228" y="-17" font-family="Helvetica,sans-Serif" font-size="10.00">CAudioFileSndLib::</text>
<text text-anchor="middle" x="269.62" y="-5.75" font-family="Helvetica,sans-Serif" font-size="10.00">~CAudioFileSndLib</text>
</a>
</g>
</g>
<!-- Node2&#45;&gt;Node10 -->
<g id="edge9_Node000002_Node000010" class="edge">
<title>Node2&#45;&gt;Node10</title>
<g id="a_edge9_Node000002_Node000010"><a xlink:title=" ">
<path fill="none" stroke="#63b8ff" d="M416,-94.98C400.47,-78.29 375.46,-54.01 349.25,-39.25 340.05,-34.07 329.6,-29.88 319.39,-26.53"/>
<polygon fill="#63b8ff" stroke="#63b8ff" points="413.28,-97.19 422.59,-102.25 418.47,-92.49 413.28,-97.19"/>
</a>
</g>
</g>
<!-- Node4 -->
<g id="Node000004" class="node">
<title>Node4</title>
<g id="a_Node000004"><a xlink:href="a00437.xhtml#a47a3f1072e430179e1479fbb52826694" target="_top" xlink:title=" ">
<polygon fill="white" stroke="#666666" points="154,-227.88 0,-227.88 0,-208.62 154,-208.62 154,-227.88"/>
<text text-anchor="middle" x="77" y="-214.38" font-family="Helvetica,sans-Serif" font-size="10.00">CAudioFileRaw::CAudioFileRaw</text>
</a>
</g>
</g>
<!-- Node3&#45;&gt;Node4 -->
<g id="edge3_Node000003_Node000004" class="edge">
<title>Node3&#45;&gt;Node4</title>
<g id="a_edge3_Node000003_Node000004"><a xlink:title=" ">
<path fill="none" stroke="#63b8ff" d="M180.73,-218.25C171.95,-218.25 163.1,-218.25 154.45,-218.25"/>
<polygon fill="#63b8ff" stroke="#63b8ff" points="180.68,-221.75 190.68,-218.25 180.68,-214.75 180.68,-221.75"/>
</a>
</g>
</g>
<!-- Node6 -->
<g id="Node000006" class="node">
<title>Node6</title>
<g id="a_Node000006"><a xlink:href="a00441.xhtml#a174aef5a852d00756f6d2ced014beca2" target="_top" xlink:title=" ">
<polygon fill="white" stroke="#666666" points="142,-190.5 12,-190.5 12,-160 142,-160 142,-190.5"/>
<text text-anchor="start" x="20" y="-177" font-family="Helvetica,sans-Serif" font-size="10.00">CAudioFileSndLib::CAudio</text>
<text text-anchor="middle" x="77" y="-165.75" font-family="Helvetica,sans-Serif" font-size="10.00">FileSndLib</text>
</a>
</g>
</g>
<!-- Node5&#45;&gt;Node6 -->
<g id="edge5_Node000005_Node000006" class="edge">
<title>Node5&#45;&gt;Node6</title>
<g id="a_edge5_Node000005_Node000006"><a xlink:title=" ">
<path fill="none" stroke="#63b8ff" d="M192.92,-175.25C176.16,-175.25 158.57,-175.25 142.32,-175.25"/>
<polygon fill="#63b8ff" stroke="#63b8ff" points="192.84,-178.75 202.84,-175.25 192.84,-171.75 192.84,-178.75"/>
</a>
</g>
</g>
</g>
</svg>

<g id="navigator" transform="translate(0 0)" fill="#404254">
  <rect fill="#f2f5e9" fill-opacity="0.5" stroke="#606060" stroke-width=".5" x="0" y="0" width="60" height="60"/>
  <use id="zoomplus" xlink:href="#zoomPlus" x="17" y="9" onmousedown="handleZoom(evt,'in')"/>
  <use id="zoomminus" xlink:href="#zoomMin" x="42" y="9" onmousedown="handleZoom(evt,'out')"/>
  <use id="reset" xlink:href="#resetDef" x="30" y="36" onmousedown="handleReset()"/>
   <use id="arrowup" xlink:href="#arrowUp" x="0" y="0" onmousedown="handlePan(0,-1)"/>
  <use id="arrowright" xlink:href="#arrowRight" x="0" y="0" onmousedown="handlePan(1,0)"/>
  <use id="arrowdown" xlink:href="#arrowDown" x="0" y="0" onmousedown="handlePan(0,1)"/>
  <use id="arrowleft" xlink:href="#arrowLeft" x="0" y="0" onmousedown="handlePan(-1,0)"/>
</g>
<svg viewBox="0 0 15 15" width="100%" height="30px" preserveAspectRatio="xMaxYMin meet">
 <g id="arrow_out" transform="scale(0.3 0.3)">
  <a xlink:href="a00445_a9b8022f870f94a4b8c5a1f25cf24d2f9_icgraph_org.svg" target="_base">
   <rect id="button" ry="5" rx="5" y="6" x="6" height="38" width="38"
        fill="#f2f5e9" fill-opacity="0.5" stroke="#606060" stroke-width="1.0"/>
   <path id="arrow"
     d="M 11.500037,31.436501 C 11.940474,20.09759 22.043105,11.32322 32.158766,21.979434 L 37.068811,17.246167 C 37.068811,17.246167 37.088388,32 37.088388,32 L 22.160133,31.978069 C 22.160133,31.978069 26.997745,27.140456 26.997745,27.140456 C 18.528582,18.264221 13.291696,25.230495 11.500037,31.436501 z"
     style="fill:#404040;"/>
  </a>
 </g>
</svg>

<style type='text/css'>
<![CDATA[
[data-mouse-over-selected='false'] { opacity: 0.7; }
[data-mouse-over-selected='true']  { opacity: 1.0; }
]]>
</style>
<script type="application/ecmascript"><![CDATA[
document.addEventListener('DOMContentLoaded', (event) => {
  highlightEdges();
  highlightAdjacentNodes();
});
]]></script>
</svg>
