<?xml version="1.0" encoding="UTF-8" standalone="no"?>
<!DOCTYPE svg PUBLIC "-//W3C//DTD SVG 1.1//EN"
 "http://www.w3.org/Graphics/SVG/1.1/DTD/svg11.dtd">
<!-- Generated by graphviz version 4.0.0 (20220602.1335)
 -->
<!-- Title: CMatrix::copy Pages: 1 -->
<svg width="890pt" height="236pt"
 viewBox="0.00 0.00 890.00 236.00" xmlns="http://www.w3.org/2000/svg" xmlns:xlink="http://www.w3.org/1999/xlink">
<g id="graph0" class="graph" transform="scale(1 1) rotate(0) translate(4 232)">
<title>CMatrix::copy</title>
<polygon fill="white" stroke="transparent" points="-4,4 -4,-232 886,-232 886,4 -4,4"/>
<!-- Node1 -->
<g id="node1" class="node">
<title>Node1</title>
<g id="a_node1"><a xlink:title=" ">
<polygon fill="#bfbfbf" stroke="black" points="808,-113.5 808,-132.5 882,-132.5 882,-113.5 808,-113.5"/>
<text text-anchor="middle" x="845" y="-120.5" font-family="Helvetica,sans-Serif" font-size="10.00">CMatrix::copy</text>
</a>
</g>
</g>
<!-- Node2 -->
<g id="node2" class="node">
<title>Node2</title>
<g id="a_node2"><a xlink:href="a00569.xhtml#ad4ff4cdaad1b362cecb9ffd451b3a217" target="_top" xlink:title=" ">
<polygon fill="white" stroke="black" points="668.5,-208.5 668.5,-227.5 751.5,-227.5 751.5,-208.5 668.5,-208.5"/>
<text text-anchor="middle" x="710" y="-215.5" font-family="Helvetica,sans-Serif" font-size="10.00">CPca::calcSVD</text>
</a>
</g>
</g>
<!-- Node1&#45;&gt;Node2 -->
<g id="edge1" class="edge">
<title>Node1&#45;&gt;Node2</title>
<path fill="none" stroke="midnightblue" d="M831.45,-140.8C818.43,-158.02 796.57,-183.7 772,-199 765.79,-202.87 758.72,-206.01 751.66,-208.53"/>
<polygon fill="midnightblue" stroke="midnightblue" points="834.32,-142.8 837.41,-132.67 828.68,-138.66 834.32,-142.8"/>
</g>
<!-- Node4 -->
<g id="node4" class="node">
<title>Node4</title>
<g id="a_node4"><a xlink:href="a00589.xhtml#ac9199a37d06a0d589118941f80f3f774" target="_top" xlink:title=" ">
<polygon fill="white" stroke="black" points="648,-170.5 648,-189.5 772,-189.5 772,-170.5 648,-170.5"/>
<text text-anchor="middle" x="710" y="-177.5" font-family="Helvetica,sans-Serif" font-size="10.00">CKmeans::compKmeans</text>
</a>
</g>
</g>
<!-- Node1&#45;&gt;Node4 -->
<g id="edge3" class="edge">
<title>Node1&#45;&gt;Node4</title>
<path fill="none" stroke="midnightblue" d="M819.06,-137.62C805.44,-145.22 788.12,-154.3 772,-161 763.6,-164.49 754.32,-167.69 745.59,-170.44"/>
<polygon fill="midnightblue" stroke="midnightblue" points="820.86,-140.62 827.83,-132.64 817.41,-134.53 820.86,-140.62"/>
</g>
<!-- Node5 -->
<g id="node5" class="node">
<title>Node5</title>
<g id="a_node5"><a xlink:href="a00561.xhtml#a204d6be9fd9b68686fa91bf9fc4647b1" target="_top" xlink:title=" ">
<polygon fill="white" stroke="black" points="658,-132.5 658,-151.5 762,-151.5 762,-132.5 658,-132.5"/>
<text text-anchor="middle" x="710" y="-139.5" font-family="Helvetica,sans-Serif" font-size="10.00">CNmfResult::getMat</text>
</a>
</g>
</g>
<!-- Node1&#45;&gt;Node5 -->
<g id="edge4" class="edge">
<title>Node1&#45;&gt;Node5</title>
<path fill="none" stroke="midnightblue" d="M797.49,-129.64C786.1,-131.27 773.85,-133.02 762.25,-134.68"/>
<polygon fill="midnightblue" stroke="midnightblue" points="798.25,-133.07 807.66,-128.19 797.26,-126.14 798.25,-133.07"/>
</g>
<!-- Node6 -->
<g id="node6" class="node">
<title>Node6</title>
<g id="a_node6"><a xlink:href="a00601.xhtml#a650535a050fd47b41632c2fc43e19a8d" target="_top" xlink:title=" ">
<polygon fill="white" stroke="black" points="676,-94.5 676,-113.5 744,-113.5 744,-94.5 676,-94.5"/>
<text text-anchor="middle" x="710" y="-101.5" font-family="Helvetica,sans-Serif" font-size="10.00">CViterbi::init</text>
</a>
</g>
</g>
<!-- Node1&#45;&gt;Node6 -->
<g id="edge5" class="edge">
<title>Node1&#45;&gt;Node6</title>
<path fill="none" stroke="midnightblue" d="M797.57,-116.37C779.95,-113.85 760.26,-111.04 744.11,-108.73"/>
<polygon fill="midnightblue" stroke="midnightblue" points="797.26,-119.86 807.66,-117.81 798.25,-112.93 797.26,-119.86"/>
</g>
<!-- Node11 -->
<g id="node11" class="node">
<title>Node11</title>
<g id="a_node11"><a xlink:href="a00473.xhtml#a37585f57926ea2921734907bacc6cce8" target="_top" xlink:title=" ">
<polygon fill="white" stroke="black" points="672.5,-38.5 672.5,-57.5 747.5,-57.5 747.5,-38.5 672.5,-38.5"/>
<text text-anchor="middle" x="710" y="-45.5" font-family="Helvetica,sans-Serif" font-size="10.00">CMatrix::inv_I</text>
</a>
</g>
</g>
<!-- Node1&#45;&gt;Node11 -->
<g id="edge10" class="edge">
<title>Node1&#45;&gt;Node11</title>
<path fill="none" stroke="midnightblue" d="M818.11,-108.4C791.51,-93.4 750.86,-70.48 728.05,-57.61"/>
<polygon fill="midnightblue" stroke="midnightblue" points="816.46,-111.49 826.88,-113.35 819.89,-105.39 816.46,-111.49"/>
</g>
<!-- Node17 -->
<g id="node17" class="node">
<title>Node17</title>
<g id="a_node17"><a xlink:href="a00565.xhtml#a458bb8f3cd93482bc409b8cd446a3f21" target="_top" xlink:title=" ">
<polygon fill="white" stroke="black" points="663.5,-0.5 663.5,-19.5 756.5,-19.5 756.5,-0.5 663.5,-0.5"/>
<text text-anchor="middle" x="710" y="-7.5" font-family="Helvetica,sans-Serif" font-size="10.00">CNmf::runNmfIter</text>
</a>
</g>
</g>
<!-- Node1&#45;&gt;Node17 -->
<g id="edge17" class="edge">
<title>Node1&#45;&gt;Node17</title>
<path fill="none" stroke="midnightblue" d="M834.44,-104.45C822.56,-83.21 800.37,-48.81 772,-29 766.45,-25.13 760.09,-22.02 753.6,-19.54"/>
<polygon fill="midnightblue" stroke="midnightblue" points="831.46,-106.3 839.28,-113.44 837.62,-102.98 831.46,-106.3"/>
</g>
<!-- Node3 -->
<g id="node3" class="node">
<title>Node3</title>
<g id="a_node3"><a xlink:href="a00569.xhtml#a9e44c134c68146bdc539135f3225a2d4" target="_top" xlink:title=" ">
<polygon fill="white" stroke="black" points="516.5,-208.5 516.5,-227.5 602.5,-227.5 602.5,-208.5 516.5,-208.5"/>
<text text-anchor="middle" x="559.5" y="-215.5" font-family="Helvetica,sans-Serif" font-size="10.00">CPca::compPca</text>
</a>
</g>
</g>
<!-- Node2&#45;&gt;Node3 -->
<g id="edge2" class="edge">
<title>Node2&#45;&gt;Node3</title>
<path fill="none" stroke="midnightblue" d="M658.3,-218C640.16,-218 619.92,-218 602.58,-218"/>
<polygon fill="midnightblue" stroke="midnightblue" points="658.42,-221.5 668.42,-218 658.42,-214.5 658.42,-221.5"/>
</g>
<!-- Node7 -->
<g id="node7" class="node">
<title>Node7</title>
<g id="a_node7"><a xlink:href="a00445.xhtml#a2dc9b2b2e4912e45835c5727d550aee7" target="_top" xlink:title=" ">
<polygon fill="white" stroke="black" points="507,-94.5 507,-113.5 612,-113.5 612,-94.5 507,-94.5"/>
<text text-anchor="middle" x="559.5" y="-101.5" font-family="Helvetica,sans-Serif" font-size="10.00">CChordIf::initViterbi_</text>
</a>
</g>
</g>
<!-- Node6&#45;&gt;Node7 -->
<g id="edge6" class="edge">
<title>Node6&#45;&gt;Node7</title>
<path fill="none" stroke="midnightblue" d="M665.61,-104C648.85,-104 629.54,-104 612.09,-104"/>
<polygon fill="midnightblue" stroke="midnightblue" points="665.67,-107.5 675.67,-104 665.67,-100.5 665.67,-107.5"/>
</g>
<!-- Node8 -->
<g id="node8" class="node">
<title>Node8</title>
<g id="a_node8"><a xlink:href="a00445.xhtml#ad48a5bd574f16b7491b70efb9998935f" target="_top" xlink:title="init configuration">
<polygon fill="white" stroke="black" points="394,-94.5 394,-113.5 471,-113.5 471,-94.5 394,-94.5"/>
<text text-anchor="middle" x="432.5" y="-101.5" font-family="Helvetica,sans-Serif" font-size="10.00">CChordIf::init_</text>
</a>
</g>
</g>
<!-- Node7&#45;&gt;Node8 -->
<g id="edge7" class="edge">
<title>Node7&#45;&gt;Node8</title>
<path fill="none" stroke="midnightblue" d="M496.75,-104C488.02,-104 479.28,-104 471.2,-104"/>
<polygon fill="midnightblue" stroke="midnightblue" points="496.94,-107.5 506.94,-104 496.94,-100.5 496.94,-107.5"/>
</g>
<!-- Node9 -->
<g id="node9" class="node">
<title>Node9</title>
<g id="a_node9"><a xlink:href="a00301.xhtml#a6df404d2eb3d4c8f9dc2071930fc9e7e" target="_top" xlink:title=" ">
<polygon fill="white" stroke="black" points="196,-132.5 196,-151.5 358,-151.5 358,-132.5 196,-132.5"/>
<text text-anchor="middle" x="277" y="-139.5" font-family="Helvetica,sans-Serif" font-size="10.00">CChordFromFile::CChordFromFile</text>
</a>
</g>
</g>
<!-- Node8&#45;&gt;Node9 -->
<g id="edge8" class="edge">
<title>Node8&#45;&gt;Node9</title>
<path fill="none" stroke="midnightblue" d="M385.57,-116.02C376.44,-118.37 366.92,-120.79 358,-123 345.25,-126.16 331.34,-129.5 318.74,-132.49"/>
<polygon fill="midnightblue" stroke="midnightblue" points="386.47,-119.41 395.27,-113.52 384.72,-112.63 386.47,-119.41"/>
</g>
<!-- Node10 -->
<g id="node10" class="node">
<title>Node10</title>
<g id="a_node10"><a xlink:href="a00305.xhtml#ac9c41c2ddc441df7e0ae80c25971c260" target="_top" xlink:title=" ">
<polygon fill="white" stroke="black" points="208.5,-83 208.5,-113 345.5,-113 345.5,-83 208.5,-83"/>
<text text-anchor="start" x="216.5" y="-101" font-family="Helvetica,sans-Serif" font-size="10.00">CChordFromVector::CChord</text>
<text text-anchor="middle" x="277" y="-90" font-family="Helvetica,sans-Serif" font-size="10.00">FromVector</text>
</a>
</g>
</g>
<!-- Node8&#45;&gt;Node10 -->
<g id="edge9" class="edge">
<title>Node8&#45;&gt;Node10</title>
<path fill="none" stroke="midnightblue" d="M383.7,-102.13C371.66,-101.66 358.51,-101.15 345.71,-100.65"/>
<polygon fill="midnightblue" stroke="midnightblue" points="383.82,-105.64 393.95,-102.53 384.09,-98.64 383.82,-105.64"/>
</g>
<!-- Node11&#45;&gt;Node11 -->
<g id="edge11" class="edge">
<title>Node11&#45;&gt;Node11</title>
<path fill="none" stroke="midnightblue" d="M734.93,-67.03C733.57,-72.13 725.26,-76 710,-76 686.18,-76 679.3,-66.57 689.35,-57.76"/>
<polygon fill="midnightblue" stroke="midnightblue" points="738.02,-65.37 730.65,-57.76 731.66,-68.3 738.02,-65.37"/>
</g>
<!-- Node12 -->
<g id="node12" class="node">
<title>Node12</title>
<g id="a_node12"><a xlink:href="a00465.xhtml#a68eafbce2417e9c8e7934953e85199e7" target="_top" xlink:title=" ">
<polygon fill="white" stroke="black" points="507,-38.5 507,-57.5 612,-57.5 612,-38.5 507,-38.5"/>
<text text-anchor="middle" x="559.5" y="-45.5" font-family="Helvetica,sans-Serif" font-size="10.00">CFilter::setInitState_</text>
</a>
</g>
</g>
<!-- Node11&#45;&gt;Node12 -->
<g id="edge12" class="edge">
<title>Node11&#45;&gt;Node12</title>
<path fill="none" stroke="midnightblue" d="M662.17,-48C646.28,-48 628.44,-48 612.19,-48"/>
<polygon fill="midnightblue" stroke="midnightblue" points="662.29,-51.5 672.29,-48 662.29,-44.5 662.29,-51.5"/>
</g>
<!-- Node13 -->
<g id="node13" class="node">
<title>Node13</title>
<g id="a_node13"><a xlink:href="a00465.xhtml#a04bf94ff97e5e270210954864025ea06" target="_top" xlink:title=" ">
<polygon fill="white" stroke="black" points="398,-38.5 398,-57.5 467,-57.5 467,-38.5 398,-38.5"/>
<text text-anchor="middle" x="432.5" y="-45.5" font-family="Helvetica,sans-Serif" font-size="10.00">CFilter::filtfilt</text>
</a>
</g>
</g>
<!-- Node12&#45;&gt;Node13 -->
<g id="edge13" class="edge">
<title>Node12&#45;&gt;Node13</title>
<path fill="none" stroke="midnightblue" d="M496.76,-48C486.53,-48 476.28,-48 467.09,-48"/>
<polygon fill="midnightblue" stroke="midnightblue" points="496.94,-51.5 506.94,-48 496.94,-44.5 496.94,-51.5"/>
</g>
<!-- Node14 -->
<g id="node14" class="node">
<title>Node14</title>
<g id="a_node14"><a xlink:href="a00581.xhtml#a040a6674ec0ff9171d6b4cb4b8436cb2" target="_top" xlink:title=" ">
<polygon fill="white" stroke="black" points="224,-38.5 224,-57.5 330,-57.5 330,-38.5 224,-38.5"/>
<text text-anchor="middle" x="277" y="-45.5" font-family="Helvetica,sans-Serif" font-size="10.00">CResample::process</text>
</a>
</g>
</g>
<!-- Node13&#45;&gt;Node14 -->
<g id="edge14" class="edge">
<title>Node13&#45;&gt;Node14</title>
<path fill="none" stroke="midnightblue" d="M387.62,-48C369.66,-48 348.74,-48 330.02,-48"/>
<polygon fill="midnightblue" stroke="midnightblue" points="387.81,-51.5 397.81,-48 387.81,-44.5 387.81,-51.5"/>
</g>
<!-- Node15 -->
<g id="node15" class="node">
<title>Node15</title>
<g id="a_node15"><a xlink:href="a00541.xhtml#ab79f4706d42b250f36c91cfd075bc8df" target="_top" xlink:title=" ">
<polygon fill="white" stroke="black" points="74,-38.5 74,-57.5 160,-57.5 160,-38.5 74,-38.5"/>
<text text-anchor="middle" x="117" y="-45.5" font-family="Helvetica,sans-Serif" font-size="10.00">CFingerprint::init</text>
</a>
</g>
</g>
<!-- Node14&#45;&gt;Node15 -->
<g id="edge15" class="edge">
<title>Node14&#45;&gt;Node15</title>
<path fill="none" stroke="midnightblue" d="M213.71,-48C195.74,-48 176.56,-48 160.13,-48"/>
<polygon fill="midnightblue" stroke="midnightblue" points="213.83,-51.5 223.83,-48 213.83,-44.5 213.83,-51.5"/>
</g>
<!-- Node16 -->
<g id="node16" class="node">
<title>Node16</title>
<g id="a_node16"><a xlink:href="a00020.xhtml#a0ddf1224851353fc92bfbff6f499fa97" target="_top" xlink:title=" ">
<polygon fill="white" stroke="black" points="0,-38.5 0,-57.5 38,-57.5 38,-38.5 0,-38.5"/>
<text text-anchor="middle" x="19" y="-45.5" font-family="Helvetica,sans-Serif" font-size="10.00">main</text>
</a>
</g>
</g>
<!-- Node15&#45;&gt;Node16 -->
<g id="edge16" class="edge">
<title>Node15&#45;&gt;Node16</title>
<path fill="none" stroke="midnightblue" d="M63.89,-48C54.68,-48 45.68,-48 38.24,-48"/>
<polygon fill="midnightblue" stroke="midnightblue" points="63.89,-51.5 73.89,-48 63.89,-44.5 63.89,-51.5"/>
</g>
<!-- Node18 -->
<g id="node18" class="node">
<title>Node18</title>
<g id="a_node18"><a xlink:href="a00565.xhtml#a298f5a0187b09abaec14570da9239187" target="_top" xlink:title=" ">
<polygon fill="white" stroke="black" points="515,-0.5 515,-19.5 604,-19.5 604,-0.5 515,-0.5"/>
<text text-anchor="middle" x="559.5" y="-7.5" font-family="Helvetica,sans-Serif" font-size="10.00">CNmf::compNmf</text>
</a>
</g>
</g>
<!-- Node17&#45;&gt;Node18 -->
<g id="edge18" class="edge">
<title>Node17&#45;&gt;Node18</title>
<path fill="none" stroke="midnightblue" d="M652.84,-10C636.7,-10 619.34,-10 604.08,-10"/>
<polygon fill="midnightblue" stroke="midnightblue" points="653.23,-13.5 663.23,-10 653.23,-6.5 653.23,-13.5"/>
</g>
</g>
</svg>
