<?xml version="1.0" encoding="UTF-8" standalone="no"?>
<!DOCTYPE svg PUBLIC "-//W3C//DTD SVG 1.1//EN"
 "http://www.w3.org/Graphics/SVG/1.1/DTD/svg11.dtd">
<!-- Generated by graphviz version 6.0.1 (20220911.1526)
 -->
<!-- Title: CAudioFileRaw::writeDataIntern_ Pages: 1 -->
<svg width="498pt" height="167pt"
 viewBox="0.00 0.00 498.00 167.00" xmlns="http://www.w3.org/2000/svg" xmlns:xlink="http://www.w3.org/1999/xlink">
<g id="graph0" class="graph" transform="scale(1 1) rotate(0) translate(4 163)">
<title>CAudioFileRaw::writeDataIntern_</title>
<!-- Node1 -->
<g id="node1" class="node">
<title>Node1</title>
<g id="a_node1"><a xlink:title=" ">
<polygon fill="#999999" stroke="#666666" points="129,-116 0,-116 0,-86 129,-86 129,-116"/>
<text text-anchor="start" x="8" y="-104" font-family="Helvetica,sans-Serif" font-size="10.00">CAudioFileRaw::writeData</text>
<text text-anchor="middle" x="64.5" y="-93" font-family="Helvetica,sans-Serif" font-size="10.00">Intern_</text>
</a>
</g>
</g>
<!-- Node2 -->
<g id="node2" class="node">
<title>Node2</title>
<g id="a_node2"><a xlink:href="a00442.xhtml#a0bd2f97afe63b5e50c3b2ce4011607a9" target="_top" xlink:title=" ">
<polygon fill="white" stroke="#666666" points="299,-159 165,-159 165,-129 299,-129 299,-159"/>
<text text-anchor="start" x="173" y="-147" font-family="Helvetica,sans-Serif" font-size="10.00">CAudioFileIf::convFrames2</text>
<text text-anchor="middle" x="232" y="-136" font-family="Helvetica,sans-Serif" font-size="10.00">Bytes_</text>
</a>
</g>
</g>
<!-- Node1&#45;&gt;Node2 -->
<g id="edge1" class="edge">
<title>Node1&#45;&gt;Node2</title>
<path fill="none" stroke="#63b8ff" d="M123.38,-116.04C136.23,-119.38 149.97,-122.95 163.17,-126.38"/>
<polygon fill="#63b8ff" stroke="#63b8ff" points="162.59,-129.84 173.15,-128.97 164.35,-123.07 162.59,-129.84"/>
</g>
<!-- Node3 -->
<g id="node3" class="node">
<title>Node3</title>
<g id="a_node3"><a xlink:href="a00442.xhtml#a8f40ad8df042735092624da261d5de85" target="_top" xlink:title=" ">
<polygon fill="white" stroke="#666666" points="490,-153.5 335,-153.5 335,-134.5 490,-134.5 490,-153.5"/>
<text text-anchor="middle" x="412.5" y="-141.5" font-family="Helvetica,sans-Serif" font-size="10.00">CAudioFileIf::getNumChannels_</text>
</a>
</g>
</g>
<!-- Node1&#45;&gt;Node3 -->
<g id="edge3" class="edge">
<title>Node1&#45;&gt;Node3</title>
<path fill="none" stroke="#63b8ff" d="M129.18,-103.96C176.26,-106.69 241.86,-111.62 299,-120 320.12,-123.1 343.21,-127.79 362.95,-132.21"/>
<polygon fill="#63b8ff" stroke="#63b8ff" points="362.41,-135.68 372.93,-134.48 363.96,-128.85 362.41,-135.68"/>
</g>
<!-- Node4 -->
<g id="node4" class="node">
<title>Node4</title>
<g id="a_node4"><a xlink:href="a00434.xhtml#a8b2a01be9952441ead5aa47b6a49da26" target="_top" xlink:title=" ">
<polygon fill="white" stroke="#666666" points="294,-72.5 170,-72.5 170,-53.5 294,-53.5 294,-72.5"/>
<text text-anchor="middle" x="232" y="-60.5" font-family="Helvetica,sans-Serif" font-size="10.00">CAudioFileRaw::scaleUp</text>
</a>
</g>
</g>
<!-- Node1&#45;&gt;Node4 -->
<g id="edge4" class="edge">
<title>Node1&#45;&gt;Node4</title>
<path fill="none" stroke="#63b8ff" d="M129.01,-86.42C145.61,-82.61 163.31,-78.54 179.22,-74.89"/>
<polygon fill="#63b8ff" stroke="#63b8ff" points="180.42,-78.2 189.38,-72.56 178.85,-71.38 180.42,-78.2"/>
</g>
<!-- Node2&#45;&gt;Node3 -->
<g id="edge2" class="edge">
<title>Node2&#45;&gt;Node3</title>
<path fill="none" stroke="#63b8ff" d="M299.21,-144C307.56,-144 316.19,-144 324.79,-144"/>
<polygon fill="#63b8ff" stroke="#63b8ff" points="324.85,-147.5 334.85,-144 324.85,-140.5 324.85,-147.5"/>
</g>
<!-- Node5 -->
<g id="node5" class="node">
<title>Node5</title>
<g id="a_node5"><a xlink:href="a00442.xhtml#a4fbb0a778b2b8113081d670fc8378031" target="_top" xlink:title=" ">
<polygon fill="white" stroke="#666666" points="476.5,-115.5 348.5,-115.5 348.5,-96.5 476.5,-96.5 476.5,-115.5"/>
<text text-anchor="middle" x="412.5" y="-103.5" font-family="Helvetica,sans-Serif" font-size="10.00">CAudioFileIf::clip2Range_</text>
</a>
</g>
</g>
<!-- Node4&#45;&gt;Node5 -->
<g id="edge5" class="edge">
<title>Node4&#45;&gt;Node5</title>
<path fill="none" stroke="#63b8ff" d="M272.61,-72.54C298.96,-78.89 333.77,-87.27 361.94,-94.06"/>
<polygon fill="#63b8ff" stroke="#63b8ff" points="361.45,-97.54 372,-96.48 363.09,-90.74 361.45,-97.54"/>
</g>
<!-- Node6 -->
<g id="node6" class="node">
<title>Node6</title>
<g id="a_node6"><a xlink:href="a00442.xhtml#a1a04689f74a88c77fa2cbfaacdb7b448" target="_top" xlink:title=" ">
<polygon fill="white" stroke="#666666" points="475.5,-78 349.5,-78 349.5,-48 475.5,-48 475.5,-78"/>
<text text-anchor="start" x="357.5" y="-66" font-family="Helvetica,sans-Serif" font-size="10.00">CAudioFileIf::getNumBits</text>
<text text-anchor="middle" x="412.5" y="-55" font-family="Helvetica,sans-Serif" font-size="10.00">PerSample_</text>
</a>
</g>
</g>
<!-- Node4&#45;&gt;Node6 -->
<g id="edge6" class="edge">
<title>Node4&#45;&gt;Node6</title>
<path fill="none" stroke="#63b8ff" d="M294.43,-63C308.85,-63 324.35,-63 339.2,-63"/>
<polygon fill="#63b8ff" stroke="#63b8ff" points="339.35,-66.5 349.35,-63 339.35,-59.5 339.35,-66.5"/>
</g>
<!-- Node7 -->
<g id="node7" class="node">
<title>Node7</title>
<g id="a_node7"><a xlink:href="a00442.xhtml#a56af13d52f1294e627d276f756edc780" target="_top" xlink:title=" ">
<polygon fill="white" stroke="#666666" points="470.5,-30 354.5,-30 354.5,0 470.5,0 470.5,-30"/>
<text text-anchor="start" x="362.5" y="-18" font-family="Helvetica,sans-Serif" font-size="10.00">CAudioFileIf::isClipping</text>
<text text-anchor="middle" x="412.5" y="-7" font-family="Helvetica,sans-Serif" font-size="10.00">Enabled</text>
</a>
</g>
</g>
<!-- Node4&#45;&gt;Node7 -->
<g id="edge7" class="edge">
<title>Node4&#45;&gt;Node7</title>
<path fill="none" stroke="#63b8ff" d="M268.69,-53.4C290.71,-47.48 319.62,-39.71 345.66,-32.7"/>
<polygon fill="#63b8ff" stroke="#63b8ff" points="346.74,-36.04 355.48,-30.06 344.92,-29.28 346.74,-36.04"/>
</g>
</g>
</svg>
