<?xml version="1.0" encoding="UTF-8" standalone="no"?>
<!DOCTYPE svg PUBLIC "-//W3C//DTD SVG 1.1//EN"
 "http://www.w3.org/Graphics/SVG/1.1/DTD/svg11.dtd">
<!-- Generated by graphviz version 4.0.0 (20220602.1335)
 -->
<!-- Title: CAudioFileSndLib::freeMemory_ Pages: 1 -->
<svg width="354pt" height="66pt"
 viewBox="0.00 0.00 354.00 66.00" xmlns="http://www.w3.org/2000/svg" xmlns:xlink="http://www.w3.org/1999/xlink">
<g id="graph0" class="graph" transform="scale(1 1) rotate(0) translate(4 62)">
<title>CAudioFileSndLib::freeMemory_</title>
<polygon fill="white" stroke="transparent" points="-4,4 -4,-62 350,-62 350,4 -4,4"/>
<!-- Node1 -->
<g id="node1" class="node">
<title>Node1</title>
<g id="a_node1"><a xlink:title=" ">
<polygon fill="#bfbfbf" stroke="black" points="0,-19.5 0,-38.5 155,-38.5 155,-19.5 0,-19.5"/>
<text text-anchor="middle" x="77.5" y="-26.5" font-family="Helvetica,sans-Serif" font-size="10.00">CAudioFileSndLib::freeMemory_</text>
</a>
</g>
</g>
<!-- Node2 -->
<g id="node2" class="node">
<title>Node2</title>
<g id="a_node2"><a xlink:href="a00442.xhtml#aec3ce9851e3b2876ff4978a0cbff7a2b" target="_top" xlink:title=" ">
<polygon fill="white" stroke="black" points="203,-38.5 203,-57.5 334,-57.5 334,-38.5 203,-38.5"/>
<text text-anchor="middle" x="268.5" y="-45.5" font-family="Helvetica,sans-Serif" font-size="10.00">CAudioFileIf::freeMemory_</text>
</a>
</g>
</g>
<!-- Node1&#45;&gt;Node2 -->
<g id="edge1" class="edge">
<title>Node1&#45;&gt;Node2</title>
<path fill="none" stroke="midnightblue" d="M155.1,-36.7C167.49,-37.95 180.31,-39.23 192.66,-40.48"/>
<polygon fill="midnightblue" stroke="midnightblue" points="192.6,-43.99 202.9,-41.51 193.3,-37.02 192.6,-43.99"/>
</g>
<!-- Node3 -->
<g id="node3" class="node">
<title>Node3</title>
<g id="a_node3"><a xlink:href="a00442.xhtml#a8f40ad8df042735092624da261d5de85" target="_top" xlink:title=" ">
<polygon fill="white" stroke="black" points="191,-0.5 191,-19.5 346,-19.5 346,-0.5 191,-0.5"/>
<text text-anchor="middle" x="268.5" y="-7.5" font-family="Helvetica,sans-Serif" font-size="10.00">CAudioFileIf::getNumChannels_</text>
</a>
</g>
</g>
<!-- Node1&#45;&gt;Node3 -->
<g id="edge2" class="edge">
<title>Node1&#45;&gt;Node3</title>
<path fill="none" stroke="midnightblue" d="M155.1,-21.3C163.56,-20.45 172.22,-19.58 180.79,-18.72"/>
<polygon fill="midnightblue" stroke="midnightblue" points="181.19,-22.19 190.79,-17.71 180.49,-15.23 181.19,-22.19"/>
</g>
</g>
</svg>
