<?xml version="1.0" encoding="UTF-8" standalone="no"?>
<!DOCTYPE svg PUBLIC "-//W3C//DTD SVG 1.1//EN"
 "http://www.w3.org/Graphics/SVG/1.1/DTD/svg11.dtd">
<!-- Generated by graphviz version 6.0.1 (20220911.1526)
 -->
<!-- Title: CAudioFileSndLib::allocMemory_ Pages: 1 -->
<svg width="549pt" height="64pt"
 viewBox="0.00 0.00 549.00 64.00" xmlns="http://www.w3.org/2000/svg" xmlns:xlink="http://www.w3.org/1999/xlink">
<g id="graph0" class="graph" transform="scale(1 1) rotate(0) translate(4 60)">
<title>CAudioFileSndLib::allocMemory_</title>
<!-- Node1 -->
<g id="node1" class="node">
<title>Node1</title>
<g id="a_node1"><a xlink:title=" ">
<polygon fill="#999999" stroke="#666666" points="159,-37 0,-37 0,-18 159,-18 159,-37"/>
<text text-anchor="middle" x="79.5" y="-25" font-family="Helvetica,sans-Serif" font-size="10.00">CAudioFileSndLib::allocMemory_</text>
</a>
</g>
</g>
<!-- Node2 -->
<g id="node2" class="node">
<title>Node2</title>
<g id="a_node2"><a xlink:href="a00438.xhtml#a98ddb3055b9d9a5dfff957446e7ca4af" target="_top" xlink:title=" ">
<polygon fill="white" stroke="#666666" points="350,-56 195,-56 195,-37 350,-37 350,-56"/>
<text text-anchor="middle" x="272.5" y="-44" font-family="Helvetica,sans-Serif" font-size="10.00">CAudioFileSndLib::freeMemory_</text>
</a>
</g>
</g>
<!-- Node1&#45;&gt;Node2 -->
<g id="edge1" class="edge">
<title>Node1&#45;&gt;Node2</title>
<path fill="none" stroke="#63b8ff" d="M159.01,-35.31C167.52,-36.16 176.21,-37.02 184.8,-37.88"/>
<polygon fill="#63b8ff" stroke="#63b8ff" points="184.53,-41.37 194.83,-38.87 185.23,-34.4 184.53,-41.37"/>
</g>
<!-- Node4 -->
<g id="node4" class="node">
<title>Node4</title>
<g id="a_node4"><a xlink:href="a00442.xhtml#a8f40ad8df042735092624da261d5de85" target="_top" xlink:title=" ">
<polygon fill="white" stroke="#666666" points="541,-19 386,-19 386,0 541,0 541,-19"/>
<text text-anchor="middle" x="463.5" y="-7" font-family="Helvetica,sans-Serif" font-size="10.00">CAudioFileIf::getNumChannels_</text>
</a>
</g>
</g>
<!-- Node1&#45;&gt;Node4 -->
<g id="edge4" class="edge">
<title>Node1&#45;&gt;Node4</title>
<path fill="none" stroke="#63b8ff" d="M159.19,-23.79C222.21,-20.82 310.54,-16.66 375.63,-13.59"/>
<polygon fill="#63b8ff" stroke="#63b8ff" points="376.05,-17.08 385.87,-13.11 375.72,-10.09 376.05,-17.08"/>
</g>
<!-- Node3 -->
<g id="node3" class="node">
<title>Node3</title>
<g id="a_node3"><a xlink:href="a00442.xhtml#aec3ce9851e3b2876ff4978a0cbff7a2b" target="_top" xlink:title=" ">
<polygon fill="white" stroke="#666666" points="529,-56 398,-56 398,-37 529,-37 529,-56"/>
<text text-anchor="middle" x="463.5" y="-44" font-family="Helvetica,sans-Serif" font-size="10.00">CAudioFileIf::freeMemory_</text>
</a>
</g>
</g>
<!-- Node2&#45;&gt;Node3 -->
<g id="edge2" class="edge">
<title>Node2&#45;&gt;Node3</title>
<path fill="none" stroke="#63b8ff" d="M350.1,-46.5C362.49,-46.5 375.31,-46.5 387.66,-46.5"/>
<polygon fill="#63b8ff" stroke="#63b8ff" points="387.9,-50 397.9,-46.5 387.9,-43 387.9,-50"/>
</g>
<!-- Node2&#45;&gt;Node4 -->
<g id="edge3" class="edge">
<title>Node2&#45;&gt;Node4</title>
<path fill="none" stroke="#63b8ff" d="M322.17,-36.97C347.1,-32.09 377.63,-26.11 403.85,-20.98"/>
<polygon fill="#63b8ff" stroke="#63b8ff" points="404.52,-24.42 413.66,-19.06 403.18,-17.55 404.52,-24.42"/>
</g>
</g>
</svg>
