<?xml version="1.0" encoding="UTF-8" standalone="no"?>
<!DOCTYPE svg PUBLIC "-//W3C//DTD SVG 1.1//EN"
 "http://www.w3.org/Graphics/SVG/1.1/DTD/svg11.dtd">
<!-- Generated by graphviz version 6.0.1 (20220911.1526)
 -->
<!-- Title: CClassifierBase::compNormConstants Pages: 1 -->
<svg width="533pt" height="214pt"
 viewBox="0.00 0.00 533.00 214.00" xmlns="http://www.w3.org/2000/svg" xmlns:xlink="http://www.w3.org/1999/xlink">
<g id="graph0" class="graph" transform="scale(1 1) rotate(0) translate(4 210)">
<title>CClassifierBase::compNormConstants</title>
<!-- Node1 -->
<g id="node1" class="node">
<title>Node1</title>
<g id="a_node1"><a xlink:title=" ">
<polygon fill="#999999" stroke="#666666" points="138,-116.5 0,-116.5 0,-86.5 138,-86.5 138,-116.5"/>
<text text-anchor="start" x="8" y="-104.5" font-family="Helvetica,sans-Serif" font-size="10.00">CClassifierBase::compNorm</text>
<text text-anchor="middle" x="69" y="-93.5" font-family="Helvetica,sans-Serif" font-size="10.00">Constants</text>
</a>
</g>
</g>
<!-- Node2 -->
<g id="node2" class="node">
<title>Node2</title>
<g id="a_node2"><a xlink:href="a00502.xhtml#a9f5be871090bc5a64a7732cebfb4f8ec" target="_top" xlink:title=" ">
<polygon fill="white" stroke="#666666" points="265.5,-206 177.5,-206 177.5,-187 265.5,-187 265.5,-206"/>
<text text-anchor="middle" x="221.5" y="-194" font-family="Helvetica,sans-Serif" font-size="10.00">CVector::getMax</text>
</a>
</g>
</g>
<!-- Node1&#45;&gt;Node2 -->
<g id="edge1" class="edge">
<title>Node1&#45;&gt;Node2</title>
<path fill="none" stroke="#63b8ff" d="M90.62,-116.69C111.26,-131.62 144.15,-154.7 174,-172.5 179.63,-175.86 185.79,-179.23 191.72,-182.34"/>
<polygon fill="#63b8ff" stroke="#63b8ff" points="190.26,-185.53 200.75,-186.98 193.45,-179.3 190.26,-185.53"/>
</g>
<!-- Node4 -->
<g id="node4" class="node">
<title>Node4</title>
<g id="a_node4"><a xlink:href="a00502.xhtml#ae6e3545cf196c5e2409365bc62b7c1de" target="_top" xlink:title=" ">
<polygon fill="white" stroke="#666666" points="399,-149 305,-149 305,-130 399,-130 399,-149"/>
<text text-anchor="middle" x="352" y="-137" font-family="Helvetica,sans-Serif" font-size="10.00">CVector::getMean</text>
</a>
</g>
</g>
<!-- Node1&#45;&gt;Node4 -->
<g id="edge3" class="edge">
<title>Node1&#45;&gt;Node4</title>
<path fill="none" stroke="#63b8ff" d="M102.44,-116.69C122.55,-125.26 149.2,-135.11 174,-139.5 213.93,-146.57 259.73,-146.35 294.74,-144.48"/>
<polygon fill="#63b8ff" stroke="#63b8ff" points="295,-147.97 304.77,-143.88 294.58,-140.98 295,-147.97"/>
</g>
<!-- Node6 -->
<g id="node6" class="node">
<title>Node6</title>
<g id="a_node6"><a xlink:href="a00502.xhtml#a1f7f307c20239cfd2007393e2b3b26df" target="_top" xlink:title=" ">
<polygon fill="white" stroke="#666666" points="264.5,-93 178.5,-93 178.5,-74 264.5,-74 264.5,-93"/>
<text text-anchor="middle" x="221.5" y="-81" font-family="Helvetica,sans-Serif" font-size="10.00">CVector::getMin</text>
</a>
</g>
</g>
<!-- Node1&#45;&gt;Node6 -->
<g id="edge5" class="edge">
<title>Node1&#45;&gt;Node6</title>
<path fill="none" stroke="#63b8ff" d="M138.2,-93.34C148.26,-92.14 158.48,-90.92 168.14,-89.76"/>
<polygon fill="#63b8ff" stroke="#63b8ff" points="168.86,-93.2 178.38,-88.54 168.03,-86.25 168.86,-93.2"/>
</g>
<!-- Node8 -->
<g id="node8" class="node">
<title>Node8</title>
<g id="a_node8"><a xlink:href="a00502.xhtml#ae2ed42101e3d7075f5dec265a23f3424" target="_top" xlink:title=" ">
<polygon fill="white" stroke="#666666" points="264,-130 179,-130 179,-111 264,-111 264,-130"/>
<text text-anchor="middle" x="221.5" y="-118" font-family="Helvetica,sans-Serif" font-size="10.00">CVector::getStd</text>
</a>
</g>
</g>
<!-- Node1&#45;&gt;Node8 -->
<g id="edge7" class="edge">
<title>Node1&#45;&gt;Node8</title>
<path fill="none" stroke="#63b8ff" d="M138.2,-110.11C148.48,-111.41 158.93,-112.73 168.78,-113.97"/>
<polygon fill="#63b8ff" stroke="#63b8ff" points="168.44,-117.46 178.8,-115.24 169.32,-110.51 168.44,-117.46"/>
</g>
<!-- Node9 -->
<g id="node9" class="node">
<title>Node9</title>
<g id="a_node9"><a xlink:href="a00502.xhtml#a4cf9544dd96801e3ee47fd1ef2049a1b" target="_top" xlink:title=" ">
<polygon fill="white" stroke="#666666" points="269,-56 174,-56 174,-37 269,-37 269,-56"/>
<text text-anchor="middle" x="221.5" y="-44" font-family="Helvetica,sans-Serif" font-size="10.00">CVector::setValue</text>
</a>
</g>
</g>
<!-- Node1&#45;&gt;Node9 -->
<g id="edge9" class="edge">
<title>Node1&#45;&gt;Node9</title>
<path fill="none" stroke="#63b8ff" d="M111.12,-86.47C134.07,-78.09 162.38,-67.74 184.45,-59.67"/>
<polygon fill="#63b8ff" stroke="#63b8ff" points="185.92,-62.86 194.11,-56.14 183.52,-56.29 185.92,-62.86"/>
</g>
<!-- Node10 -->
<g id="node10" class="node">
<title>Node10</title>
<g id="a_node10"><a xlink:href="a00502.xhtml#a6dbb3f9f480568b60f7fe50090d20003" target="_top" xlink:title=" ">
<polygon fill="white" stroke="#666666" points="266,-19 177,-19 177,0 266,0 266,-19"/>
<text text-anchor="middle" x="221.5" y="-7" font-family="Helvetica,sans-Serif" font-size="10.00">CVector::setZero</text>
</a>
</g>
</g>
<!-- Node1&#45;&gt;Node10 -->
<g id="edge10" class="edge">
<title>Node1&#45;&gt;Node10</title>
<path fill="none" stroke="#63b8ff" d="M88.24,-86.37C108.32,-70.25 142,-44.73 174,-27.5 176.9,-25.94 179.96,-24.45 183.07,-23.04"/>
<polygon fill="#63b8ff" stroke="#63b8ff" points="184.61,-26.18 192.45,-19.06 181.88,-19.74 184.61,-26.18"/>
</g>
<!-- Node3 -->
<g id="node3" class="node">
<title>Node3</title>
<g id="a_node3"><a xlink:href="a00502.xhtml#a34a5c0abd80cd982df8a8bae7cbcea19" target="_top" xlink:title=" ">
<polygon fill="white" stroke="#666666" points="396.5,-206 307.5,-206 307.5,-187 396.5,-187 396.5,-206"/>
<text text-anchor="middle" x="352" y="-194" font-family="Helvetica,sans-Serif" font-size="10.00">CVector::findMax</text>
</a>
</g>
</g>
<!-- Node2&#45;&gt;Node3 -->
<g id="edge2" class="edge">
<title>Node2&#45;&gt;Node3</title>
<path fill="none" stroke="#63b8ff" d="M265.65,-196.5C275.71,-196.5 286.55,-196.5 297.01,-196.5"/>
<polygon fill="#63b8ff" stroke="#63b8ff" points="297.31,-200 307.31,-196.5 297.31,-193 297.31,-200"/>
</g>
<!-- Node5 -->
<g id="node5" class="node">
<title>Node5</title>
<g id="a_node5"><a xlink:href="a00502.xhtml#abdbcc3898121387f3694f74491b7331e" target="_top" xlink:title=" ">
<polygon fill="white" stroke="#666666" points="525,-149 435,-149 435,-130 525,-130 525,-149"/>
<text text-anchor="middle" x="480" y="-137" font-family="Helvetica,sans-Serif" font-size="10.00">CVector::getSum</text>
</a>
</g>
</g>
<!-- Node4&#45;&gt;Node5 -->
<g id="edge4" class="edge">
<title>Node4&#45;&gt;Node5</title>
<path fill="none" stroke="#63b8ff" d="M399.2,-139.5C407.49,-139.5 416.2,-139.5 424.69,-139.5"/>
<polygon fill="#63b8ff" stroke="#63b8ff" points="424.9,-143 434.9,-139.5 424.9,-136 424.9,-143"/>
</g>
<!-- Node7 -->
<g id="node7" class="node">
<title>Node7</title>
<g id="a_node7"><a xlink:href="a00502.xhtml#ad475dff5686f7f82472071000a542806" target="_top" xlink:title=" ">
<polygon fill="white" stroke="#666666" points="395.5,-93 308.5,-93 308.5,-74 395.5,-74 395.5,-93"/>
<text text-anchor="middle" x="352" y="-81" font-family="Helvetica,sans-Serif" font-size="10.00">CVector::findMin</text>
</a>
</g>
</g>
<!-- Node6&#45;&gt;Node7 -->
<g id="edge6" class="edge">
<title>Node6&#45;&gt;Node7</title>
<path fill="none" stroke="#63b8ff" d="M264.58,-83.5C275.34,-83.5 287.04,-83.5 298.26,-83.5"/>
<polygon fill="#63b8ff" stroke="#63b8ff" points="298.39,-87 308.39,-83.5 298.39,-80 298.39,-87"/>
</g>
<!-- Node8&#45;&gt;Node4 -->
<g id="edge8" class="edge">
<title>Node8&#45;&gt;Node4</title>
<path fill="none" stroke="#63b8ff" d="M264.22,-126.67C273.89,-128.1 284.35,-129.64 294.54,-131.15"/>
<polygon fill="#63b8ff" stroke="#63b8ff" points="294.19,-134.64 304.6,-132.64 295.22,-127.71 294.19,-134.64"/>
</g>
</g>
</svg>
