<?xml version="1.0" encoding="UTF-8" standalone="no"?>
<!DOCTYPE svg PUBLIC "-//W3C//DTD SVG 1.1//EN"
 "http://www.w3.org/Graphics/SVG/1.1/DTD/svg11.dtd">
<!-- Generated by graphviz version 6.0.1 (20220911.1526)
 -->
<!-- Title: CFft::compInvFft Pages: 1 -->
<svg width="221pt" height="113pt"
 viewBox="0.00 0.00 221.00 113.00" xmlns="http://www.w3.org/2000/svg" xmlns:xlink="http://www.w3.org/1999/xlink">
<g id="graph0" class="graph" transform="scale(1 1) rotate(0) translate(4 109)">
<title>CFft::compInvFft</title>
<!-- Node1 -->
<g id="node1" class="node">
<title>Node1</title>
<g id="a_node1"><a xlink:title=" ">
<polygon fill="#999999" stroke="#666666" points="89,-62 0,-62 0,-43 89,-43 89,-62"/>
<text text-anchor="middle" x="44.5" y="-50" font-family="Helvetica,sans-Serif" font-size="10.00">CFft::compInvFft</text>
</a>
</g>
</g>
<!-- Node2 -->
<g id="node2" class="node">
<title>Node2</title>
<g id="a_node2"><a xlink:href="a00502.xhtml#ad7c5cba73e439adac77778f61c9418f0" target="_top" xlink:title=" ">
<polygon fill="white" stroke="#666666" points="207.5,-105 130.5,-105 130.5,-86 207.5,-86 207.5,-105"/>
<text text-anchor="middle" x="169" y="-93" font-family="Helvetica,sans-Serif" font-size="10.00">CVector::copy</text>
</a>
</g>
</g>
<!-- Node1&#45;&gt;Node2 -->
<g id="edge1" class="edge">
<title>Node1&#45;&gt;Node2</title>
<path fill="none" stroke="#63b8ff" d="M72.69,-62.04C89.97,-68.11 112.57,-76.04 131.42,-82.66"/>
<polygon fill="#63b8ff" stroke="#63b8ff" points="130.29,-85.97 140.89,-85.98 132.61,-79.37 130.29,-85.97"/>
</g>
<!-- Node3 -->
<g id="node3" class="node">
<title>Node3</title>
<g id="a_node3"><a xlink:href="a00305.xhtml#a3597bc1b9aa8e068d7313a72c4e51eef" target="_top" xlink:title=" ">
<polygon fill="white" stroke="#666666" points="213,-67.5 125,-67.5 125,-37.5 213,-37.5 213,-67.5"/>
<text text-anchor="start" x="133" y="-55.5" font-family="Helvetica,sans-Serif" font-size="10.00">LaszloFft::irealfft</text>
<text text-anchor="middle" x="169" y="-44.5" font-family="Helvetica,sans-Serif" font-size="10.00">_split</text>
</a>
</g>
</g>
<!-- Node1&#45;&gt;Node3 -->
<g id="edge2" class="edge">
<title>Node1&#45;&gt;Node3</title>
<path fill="none" stroke="#63b8ff" d="M89.03,-52.5C97.25,-52.5 105.93,-52.5 114.41,-52.5"/>
<polygon fill="#63b8ff" stroke="#63b8ff" points="114.61,-56 124.61,-52.5 114.61,-49 114.61,-56"/>
</g>
<!-- Node4 -->
<g id="node4" class="node">
<title>Node4</title>
<g id="a_node4"><a xlink:href="a00502.xhtml#a5fb59528a3f5d3968f988d550b270898" target="_top" xlink:title=" ">
<polygon fill="white" stroke="#666666" points="209,-19 129,-19 129,0 209,0 209,-19"/>
<text text-anchor="middle" x="169" y="-7" font-family="Helvetica,sans-Serif" font-size="10.00">CVector::mul_I</text>
</a>
</g>
</g>
<!-- Node1&#45;&gt;Node4 -->
<g id="edge3" class="edge">
<title>Node1&#45;&gt;Node4</title>
<path fill="none" stroke="#63b8ff" d="M72.69,-42.96C89.97,-36.89 112.57,-28.96 131.42,-22.34"/>
<polygon fill="#63b8ff" stroke="#63b8ff" points="132.61,-25.63 140.89,-19.02 130.29,-19.03 132.61,-25.63"/>
</g>
</g>
</svg>
