<?xml version="1.0" encoding="UTF-8" standalone="no"?>
<!DOCTYPE svg PUBLIC "-//W3C//DTD SVG 1.1//EN"
 "http://www.w3.org/Graphics/SVG/1.1/DTD/svg11.dtd">
<!-- Generated by graphviz version 6.0.1 (20220911.1526)
 -->
<!-- Title: CFft::CFft Pages: 1 -->
<svg width="406pt" height="27pt"
 viewBox="0.00 0.00 406.00 27.00" xmlns="http://www.w3.org/2000/svg" xmlns:xlink="http://www.w3.org/1999/xlink">
<g id="graph0" class="graph" transform="scale(1 1) rotate(0) translate(4 23)">
<title>CFft::CFft</title>
<!-- Node1 -->
<g id="node1" class="node">
<title>Node1</title>
<g id="a_node1"><a xlink:title=" ">
<polygon fill="#999999" stroke="#666666" points="59,-19 0,-19 0,0 59,0 59,-19"/>
<text text-anchor="middle" x="29.5" y="-7" font-family="Helvetica,sans-Serif" font-size="10.00">CFft::CFft</text>
</a>
</g>
</g>
<!-- Node2 -->
<g id="node2" class="node">
<title>Node2</title>
<g id="a_node2"><a xlink:href="a00474.xhtml#a0a0053b6ce93161553b573a16c77387a" target="_top" xlink:title=" ">
<polygon fill="white" stroke="#666666" points="157,-19 95,-19 95,0 157,0 157,-19"/>
<text text-anchor="middle" x="126" y="-7" font-family="Helvetica,sans-Serif" font-size="10.00">CFft::reset</text>
</a>
</g>
</g>
<!-- Node1&#45;&gt;Node2 -->
<g id="edge1" class="edge">
<title>Node1&#45;&gt;Node2</title>
<path fill="none" stroke="#63b8ff" d="M59.11,-9.5C67.14,-9.5 76.03,-9.5 84.61,-9.5"/>
<polygon fill="#63b8ff" stroke="#63b8ff" points="84.85,-13 94.85,-9.5 84.85,-6 84.85,-13"/>
</g>
<!-- Node3 -->
<g id="node3" class="node">
<title>Node3</title>
<g id="a_node3"><a xlink:href="a00474.xhtml#af48c6112f4a0d28b5badd8f317f4d191" target="_top" xlink:title=" ">
<polygon fill="white" stroke="#666666" points="289,-19 193,-19 193,0 289,0 289,-19"/>
<text text-anchor="middle" x="241" y="-7" font-family="Helvetica,sans-Serif" font-size="10.00">CFft::freeMemory_</text>
</a>
</g>
</g>
<!-- Node2&#45;&gt;Node3 -->
<g id="edge2" class="edge">
<title>Node2&#45;&gt;Node3</title>
<path fill="none" stroke="#63b8ff" d="M157.28,-9.5C165.08,-9.5 173.74,-9.5 182.43,-9.5"/>
<polygon fill="#63b8ff" stroke="#63b8ff" points="182.6,-13 192.6,-9.5 182.6,-6 182.6,-13"/>
</g>
<!-- Node4 -->
<g id="node4" class="node">
<title>Node4</title>
<g id="a_node4"><a xlink:href="a00502.xhtml#aa86bdb0c663d4d52f2765793756f8737" target="_top" xlink:title=" ">
<polygon fill="white" stroke="#666666" points="398,-19 325,-19 325,0 398,0 398,-19"/>
<text text-anchor="middle" x="361.5" y="-7" font-family="Helvetica,sans-Serif" font-size="10.00">CVector::free</text>
</a>
</g>
</g>
<!-- Node3&#45;&gt;Node4 -->
<g id="edge3" class="edge">
<title>Node3&#45;&gt;Node4</title>
<path fill="none" stroke="#63b8ff" d="M289.17,-9.5C297.62,-9.5 306.4,-9.5 314.8,-9.5"/>
<polygon fill="#63b8ff" stroke="#63b8ff" points="314.81,-13 324.81,-9.5 314.81,-6 314.81,-13"/>
</g>
</g>
</svg>
