<?xml version="1.0" encoding="UTF-8" standalone="no"?>
<!DOCTYPE svg PUBLIC "-//W3C//DTD SVG 1.1//EN"
 "http://www.w3.org/Graphics/SVG/1.1/DTD/svg11.dtd">
<!-- Generated by graphviz version 12.2.1 (20241206.2353)
 -->
<!-- Title: CChordIf::operator= Pages: 1 -->
<svg width="1113pt" height="163pt"
 viewBox="0.00 0.00 1113.25 162.88" xmlns="http://www.w3.org/2000/svg" xmlns:xlink="http://www.w3.org/1999/xlink">
<g id="graph0" class="graph" transform="scale(1 1) rotate(0) translate(4 158.88)">
<title>CChordIf::operator=</title>
<!-- Node1 -->
<g id="Node000001" class="node">
<title>Node1</title>
<g id="a_Node000001"><a xlink:title=" ">
<polygon fill="#999999" stroke="#666666" points="100,-72.88 0,-72.88 0,-53.62 100,-53.62 100,-72.88"/>
<text text-anchor="middle" x="50" y="-59.38" font-family="Helvetica,sans-Serif" font-size="10.00">CChordIf::operator=</text>
</a>
</g>
</g>
<!-- Node2 -->
<g id="Node000002" class="node">
<title>Node2</title>
<g id="a_Node000002"><a xlink:href="a00457.xhtml#a46a40c5a1fa7415337653bec30255245" target="_top" xlink:title=" ">
<polygon fill="white" stroke="#666666" points="233,-72.88 136,-72.88 136,-53.62 233,-53.62 233,-72.88"/>
<text text-anchor="middle" x="184.5" y="-59.38" font-family="Helvetica,sans-Serif" font-size="10.00">CChordIf::CChordIf</text>
</a>
</g>
</g>
<!-- Node1&#45;&gt;Node2 -->
<g id="edge1_Node000001_Node000002" class="edge">
<title>Node1&#45;&gt;Node2</title>
<g id="a_edge1_Node000001_Node000002"><a xlink:title=" ">
<path fill="none" stroke="#63b8ff" d="M100.34,-63.25C108.24,-63.25 116.49,-63.25 124.58,-63.25"/>
<polygon fill="#63b8ff" stroke="#63b8ff" points="124.37,-66.75 134.37,-63.25 124.37,-59.75 124.37,-66.75"/>
</a>
</g>
</g>
<!-- Node3 -->
<g id="Node000003" class="node">
<title>Node3</title>
<g id="a_Node000003"><a xlink:href="a00457.xhtml#a333842dc3ecbbf719eee742f1a4b1845" target="_top" xlink:title="reset configuration">
<polygon fill="white" stroke="#666666" points="354.75,-72.88 269,-72.88 269,-53.62 354.75,-53.62 354.75,-72.88"/>
<text text-anchor="middle" x="311.88" y="-59.38" font-family="Helvetica,sans-Serif" font-size="10.00">CChordIf::reset_</text>
</a>
</g>
</g>
<!-- Node2&#45;&gt;Node3 -->
<g id="edge2_Node000002_Node000003" class="edge">
<title>Node2&#45;&gt;Node3</title>
<g id="a_edge2_Node000002_Node000003"><a xlink:title=" ">
<path fill="none" stroke="#63b8ff" d="M233.26,-63.25C241.07,-63.25 249.21,-63.25 257.15,-63.25"/>
<polygon fill="#63b8ff" stroke="#63b8ff" points="257.07,-66.75 267.07,-63.25 257.07,-59.75 257.07,-66.75"/>
</a>
</g>
</g>
<!-- Node4 -->
<g id="Node000004" class="node">
<title>Node4</title>
<g id="a_Node000004"><a xlink:href="a00545.xhtml#a13d2bd6e36210dde0c64d188c1266b88" target="_top" xlink:title=" ">
<polygon fill="white" stroke="#666666" points="505,-137.88 390.75,-137.88 390.75,-118.62 505,-118.62 505,-137.88"/>
<text text-anchor="middle" x="447.88" y="-124.38" font-family="Helvetica,sans-Serif" font-size="10.00">CBlockAudioIf::destroy</text>
</a>
</g>
</g>
<!-- Node3&#45;&gt;Node4 -->
<g id="edge3_Node000003_Node000004" class="edge">
<title>Node3&#45;&gt;Node4</title>
<g id="a_edge3_Node000003_Node000004"><a xlink:title=" ">
<path fill="none" stroke="#63b8ff" d="M327.59,-73.2C342.89,-83.23 367.77,-98.71 390.75,-109.25 394.58,-111 398.61,-112.68 402.69,-114.27"/>
<polygon fill="#63b8ff" stroke="#63b8ff" points="401.47,-117.55 412.07,-117.7 403.88,-110.97 401.47,-117.55"/>
</a>
</g>
</g>
<!-- Node6 -->
<g id="Node000006" class="node">
<title>Node6</title>
<g id="a_Node000006"><a xlink:href="a00461.xhtml#afa15c2f57c2552592541337926473a3d" target="_top" xlink:title=" ">
<polygon fill="white" stroke="#666666" points="500.88,-100.5 394.88,-100.5 394.88,-70 500.88,-70 500.88,-100.5"/>
<text text-anchor="start" x="402.88" y="-87" font-family="Helvetica,sans-Serif" font-size="10.00">CChordFromBlockIf::</text>
<text text-anchor="middle" x="447.88" y="-75.75" font-family="Helvetica,sans-Serif" font-size="10.00">destroy</text>
</a>
</g>
</g>
<!-- Node3&#45;&gt;Node6 -->
<g id="edge5_Node000003_Node000006" class="edge">
<title>Node3&#45;&gt;Node6</title>
<g id="a_edge5_Node000003_Node000006"><a xlink:title=" ">
<path fill="none" stroke="#63b8ff" d="M354.91,-70.15C363.95,-71.64 373.71,-73.24 383.37,-74.82"/>
<polygon fill="#63b8ff" stroke="#63b8ff" points="382.69,-78.26 393.12,-76.42 383.82,-71.35 382.69,-78.26"/>
</a>
</g>
</g>
<!-- Node15 -->
<g id="Node000015" class="node">
<title>Node15</title>
<g id="a_Node000015"><a xlink:href="a00489.xhtml#a591097c6b1935c4d6273b3445f8f552b" target="_top" xlink:title=" ">
<polygon fill="white" stroke="#666666" points="482.88,-51.88 412.88,-51.88 412.88,-32.62 482.88,-32.62 482.88,-51.88"/>
<text text-anchor="middle" x="447.88" y="-38.38" font-family="Helvetica,sans-Serif" font-size="10.00">CMatrix::free</text>
</a>
</g>
</g>
<!-- Node3&#45;&gt;Node15 -->
<g id="edge15_Node000003_Node000015" class="edge">
<title>Node3&#45;&gt;Node15</title>
<g id="a_edge15_Node000003_Node000015"><a xlink:title=" ">
<path fill="none" stroke="#63b8ff" d="M354.91,-56.66C369.71,-54.34 386.41,-51.73 401.47,-49.37"/>
<polygon fill="#63b8ff" stroke="#63b8ff" points="401.79,-52.86 411.12,-47.85 400.7,-45.94 401.79,-52.86"/>
</a>
</g>
</g>
<!-- Node16 -->
<g id="Node000016" class="node">
<title>Node16</title>
<g id="a_Node000016"><a xlink:href="a00505.xhtml#aa86bdb0c663d4d52f2765793756f8737" target="_top" xlink:title=" ">
<polygon fill="white" stroke="#666666" points="649.62,-32.88 577.38,-32.88 577.38,-13.62 649.62,-13.62 649.62,-32.88"/>
<text text-anchor="middle" x="613.5" y="-19.38" font-family="Helvetica,sans-Serif" font-size="10.00">CVector::free</text>
</a>
</g>
</g>
<!-- Node3&#45;&gt;Node16 -->
<g id="edge17_Node000003_Node000016" class="edge">
<title>Node3&#45;&gt;Node16</title>
<g id="a_edge17_Node000003_Node000016"><a xlink:title=" ">
<path fill="none" stroke="#63b8ff" d="M327.26,-53.19C342.3,-43.34 366.96,-29 390.75,-23.25 449.79,-8.97 520.28,-12.29 565.68,-16.94"/>
<polygon fill="#63b8ff" stroke="#63b8ff" points="565.12,-20.4 575.44,-18.01 565.88,-13.44 565.12,-20.4"/>
</a>
</g>
</g>
<!-- Node5 -->
<g id="Node000005" class="node">
<title>Node5</title>
<g id="a_Node000005"><a xlink:href="a00545.xhtml#a25b4acfbc219a671933702aaf97229fd" target="_top" xlink:title=" ">
<polygon fill="white" stroke="#666666" points="686,-137.88 541,-137.88 541,-118.62 686,-118.62 686,-137.88"/>
<text text-anchor="middle" x="613.5" y="-124.38" font-family="Helvetica,sans-Serif" font-size="10.00">CBlockAudioIf::CBlockAudioIf</text>
</a>
</g>
</g>
<!-- Node4&#45;&gt;Node5 -->
<g id="edge4_Node000004_Node000005" class="edge">
<title>Node4&#45;&gt;Node5</title>
<g id="a_edge4_Node000004_Node000005"><a xlink:title=" ">
<path fill="none" stroke="#63b8ff" d="M505.19,-128.25C512.98,-128.25 521.11,-128.25 529.26,-128.25"/>
<polygon fill="#63b8ff" stroke="#63b8ff" points="529.26,-131.75 539.26,-128.25 529.26,-124.75 529.26,-131.75"/>
</a>
</g>
</g>
<!-- Node7 -->
<g id="Node000007" class="node">
<title>Node7</title>
<g id="a_Node000007"><a xlink:href="a00461.xhtml#a2e221ac492231e16a62781a573921a9c" target="_top" xlink:title=" ">
<polygon fill="white" stroke="#666666" points="666.5,-100.5 560.5,-100.5 560.5,-70 666.5,-70 666.5,-100.5"/>
<text text-anchor="start" x="568.5" y="-87" font-family="Helvetica,sans-Serif" font-size="10.00">CChordFromBlockIf::</text>
<text text-anchor="middle" x="613.5" y="-75.75" font-family="Helvetica,sans-Serif" font-size="10.00">CChordFromBlockIf</text>
</a>
</g>
</g>
<!-- Node6&#45;&gt;Node7 -->
<g id="edge6_Node000006_Node000007" class="edge">
<title>Node6&#45;&gt;Node7</title>
<g id="a_edge6_Node000006_Node000007"><a xlink:title=" ">
<path fill="none" stroke="#63b8ff" d="M501.1,-85.25C516.3,-85.25 533.08,-85.25 548.9,-85.25"/>
<polygon fill="#63b8ff" stroke="#63b8ff" points="548.7,-88.75 558.7,-85.25 548.7,-81.75 548.7,-88.75"/>
</a>
</g>
</g>
<!-- Node8 -->
<g id="Node000008" class="node">
<title>Node8</title>
<g id="a_Node000008"><a xlink:href="a00489.xhtml#a6501b78d76c912d49eee88c8f7242923" target="_top" xlink:title=" ">
<polygon fill="white" stroke="#666666" points="813.38,-154.88 739.62,-154.88 739.62,-135.62 813.38,-135.62 813.38,-154.88"/>
<text text-anchor="middle" x="776.5" y="-141.38" font-family="Helvetica,sans-Serif" font-size="10.00">CMatrix::alloc</text>
</a>
</g>
</g>
<!-- Node7&#45;&gt;Node8 -->
<g id="edge7_Node000007_Node000008" class="edge">
<title>Node7&#45;&gt;Node8</title>
<g id="a_edge7_Node000007_Node000008"><a xlink:title=" ">
<path fill="none" stroke="#63b8ff" d="M662.33,-100.87C670.26,-103.59 678.38,-106.44 686,-109.25 704.43,-116.04 724.77,-124.17 741.39,-130.98"/>
<polygon fill="#63b8ff" stroke="#63b8ff" points="739.74,-134.09 750.32,-134.66 742.41,-127.62 739.74,-134.09"/>
</a>
</g>
</g>
<!-- Node9 -->
<g id="Node000009" class="node">
<title>Node9</title>
<g id="a_Node000009"><a xlink:href="a00505.xhtml#abaadac98b1cad18b7b568852bc951696" target="_top" xlink:title=" ">
<polygon fill="white" stroke="#666666" points="961.75,-135.88 885.75,-135.88 885.75,-116.62 961.75,-116.62 961.75,-135.88"/>
<text text-anchor="middle" x="923.75" y="-122.38" font-family="Helvetica,sans-Serif" font-size="10.00">CVector::alloc</text>
</a>
</g>
</g>
<!-- Node7&#45;&gt;Node9 -->
<g id="edge10_Node000007_Node000009" class="edge">
<title>Node7&#45;&gt;Node9</title>
<g id="a_edge10_Node000007_Node000009"><a xlink:title=" ">
<path fill="none" stroke="#63b8ff" d="M666.79,-92.21C724.8,-99.92 817.65,-112.27 874.14,-119.78"/>
<polygon fill="#63b8ff" stroke="#63b8ff" points="873.4,-123.22 883.77,-121.07 874.32,-116.28 873.4,-123.22"/>
</a>
</g>
</g>
<!-- Node11 -->
<g id="Node000011" class="node">
<title>Node11</title>
<g id="a_Node000011"><a xlink:href="a00473.xhtml#a6d3ca4f66582ae352e3addfd7f99a752" target="_top" xlink:title=" ">
<polygon fill="white" stroke="#666666" points="831,-79.5 722,-79.5 722,-49 831,-49 831,-79.5"/>
<text text-anchor="start" x="730" y="-66" font-family="Helvetica,sans-Serif" font-size="10.00">CFeatureFromBlockIf</text>
<text text-anchor="middle" x="776.5" y="-54.75" font-family="Helvetica,sans-Serif" font-size="10.00">::create</text>
</a>
</g>
</g>
<!-- Node7&#45;&gt;Node11 -->
<g id="edge11_Node000007_Node000011" class="edge">
<title>Node7&#45;&gt;Node11</title>
<g id="a_edge11_Node000007_Node000011"><a xlink:title=" ">
<path fill="none" stroke="#63b8ff" d="M666.77,-78.43C680.61,-76.63 695.72,-74.66 710.16,-72.77"/>
<polygon fill="#63b8ff" stroke="#63b8ff" points="710.59,-76.25 720.06,-71.48 709.69,-69.3 710.59,-76.25"/>
</a>
</g>
</g>
<!-- Node13 -->
<g id="Node000013" class="node">
<title>Node13</title>
<g id="a_Node000013"><a xlink:href="a00461.xhtml#ab2c2fed87717cbeca6d10d0438a12c47" target="_top" xlink:title="chord templates for this similarity based chord detection">
<polygon fill="white" stroke="#666666" points="829.5,-30.5 723.5,-30.5 723.5,0 829.5,0 829.5,-30.5"/>
<text text-anchor="start" x="731.5" y="-17" font-family="Helvetica,sans-Serif" font-size="10.00">CChordFromBlockIf::</text>
<text text-anchor="middle" x="776.5" y="-5.75" font-family="Helvetica,sans-Serif" font-size="10.00">genTemplateMatrix_</text>
</a>
</g>
</g>
<!-- Node7&#45;&gt;Node13 -->
<g id="edge13_Node000007_Node000013" class="edge">
<title>Node7&#45;&gt;Node13</title>
<g id="a_edge13_Node000007_Node000013"><a xlink:title=" ">
<path fill="none" stroke="#63b8ff" d="M650.63,-69.54C673.83,-59.45 704.18,-46.26 729.15,-35.4"/>
<polygon fill="#63b8ff" stroke="#63b8ff" points="730.33,-38.71 738.1,-31.51 727.53,-32.29 730.33,-38.71"/>
</a>
</g>
</g>
<!-- Node8&#45;&gt;Node9 -->
<g id="edge8_Node000008_Node000009" class="edge">
<title>Node8&#45;&gt;Node9</title>
<g id="a_edge8_Node000008_Node000009"><a xlink:title=" ">
<path fill="none" stroke="#63b8ff" d="M813.78,-140.5C832.04,-138.12 854.44,-135.19 874.16,-132.61"/>
<polygon fill="#63b8ff" stroke="#63b8ff" points="874.46,-136.1 883.92,-131.33 873.55,-129.16 874.46,-136.1"/>
</a>
</g>
</g>
<!-- Node10 -->
<g id="Node000010" class="node">
<title>Node10</title>
<g id="a_Node000010"><a xlink:href="a00505.xhtml#a6dbb3f9f480568b60f7fe50090d20003" target="_top" xlink:title=" ">
<polygon fill="white" stroke="#666666" points="1105.25,-135.88 1016.5,-135.88 1016.5,-116.62 1105.25,-116.62 1105.25,-135.88"/>
<text text-anchor="middle" x="1060.88" y="-122.38" font-family="Helvetica,sans-Serif" font-size="10.00">CVector::setZero</text>
</a>
</g>
</g>
<!-- Node9&#45;&gt;Node10 -->
<g id="edge9_Node000009_Node000010" class="edge">
<title>Node9&#45;&gt;Node10</title>
<g id="a_edge9_Node000009_Node000010"><a xlink:title=" ">
<path fill="none" stroke="#63b8ff" d="M962.03,-126.25C975.22,-126.25 990.35,-126.25 1004.71,-126.25"/>
<polygon fill="#63b8ff" stroke="#63b8ff" points="1004.5,-129.75 1014.5,-126.25 1004.5,-122.75 1004.5,-129.75"/>
</a>
</g>
</g>
<!-- Node12 -->
<g id="Node000012" class="node">
<title>Node12</title>
<g id="a_Node000012"><a xlink:href="a00473.xhtml#a483bca508e2817799a3173a6180d245e" target="_top" xlink:title=" ">
<polygon fill="white" stroke="#666666" points="980.5,-79.5 867,-79.5 867,-49 980.5,-49 980.5,-79.5"/>
<text text-anchor="start" x="875" y="-66" font-family="Helvetica,sans-Serif" font-size="10.00">CFeatureFromBlockIf</text>
<text text-anchor="middle" x="923.75" y="-54.75" font-family="Helvetica,sans-Serif" font-size="10.00">::CFeatureFromBlockIf</text>
</a>
</g>
</g>
<!-- Node11&#45;&gt;Node12 -->
<g id="edge12_Node000011_Node000012" class="edge">
<title>Node11&#45;&gt;Node12</title>
<g id="a_edge12_Node000011_Node000012"><a xlink:title=" ">
<path fill="none" stroke="#63b8ff" d="M831.17,-64.25C839.08,-64.25 847.31,-64.25 855.46,-64.25"/>
<polygon fill="#63b8ff" stroke="#63b8ff" points="855.35,-67.75 865.35,-64.25 855.35,-60.75 855.35,-67.75"/>
</a>
</g>
</g>
<!-- Node14 -->
<g id="Node000014" class="node">
<title>Node14</title>
<g id="a_Node000014"><a xlink:href="a00505.xhtml#a22ff86e4fc2f8d5042159d9c84a7ff14" target="_top" xlink:title=" ">
<polygon fill="white" stroke="#666666" points="967,-24.88 880.5,-24.88 880.5,-5.63 967,-5.63 967,-24.88"/>
<text text-anchor="middle" x="923.75" y="-11.38" font-family="Helvetica,sans-Serif" font-size="10.00">CVector::addC_I</text>
</a>
</g>
</g>
<!-- Node13&#45;&gt;Node14 -->
<g id="edge14_Node000013_Node000014" class="edge">
<title>Node13&#45;&gt;Node14</title>
<g id="a_edge14_Node000013_Node000014"><a xlink:title=" ">
<path fill="none" stroke="#63b8ff" d="M829.94,-15.25C842.63,-15.25 856.22,-15.25 868.97,-15.25"/>
<polygon fill="#63b8ff" stroke="#63b8ff" points="868.88,-18.75 878.88,-15.25 868.88,-11.75 868.88,-18.75"/>
</a>
</g>
</g>
<!-- Node15&#45;&gt;Node16 -->
<g id="edge16_Node000015_Node000016" class="edge">
<title>Node15&#45;&gt;Node16</title>
<g id="a_edge16_Node000015_Node000016"><a xlink:title=" ">
<path fill="none" stroke="#63b8ff" d="M483.18,-38.27C507.18,-35.48 539.52,-31.72 565.86,-28.67"/>
<polygon fill="#63b8ff" stroke="#63b8ff" points="566.08,-32.16 575.61,-27.53 565.27,-25.21 566.08,-32.16"/>
</a>
</g>
</g>
</g>
</svg>
