<?xml version="1.0" encoding="UTF-8" standalone="no"?>
<!DOCTYPE svg PUBLIC "-//W3C//DTD SVG 1.1//EN"
 "http://www.w3.org/Graphics/SVG/1.1/DTD/svg11.dtd">
<!-- Generated by graphviz version 12.2.1 (20241206.2353)
 -->
<!-- Title: CFeatureIf::create Pages: 1 -->
<svg width="267pt" height="101pt"
 viewBox="0.00 0.00 266.75 101.25" xmlns="http://www.w3.org/2000/svg" xmlns:xlink="http://www.w3.org/1999/xlink">
<g id="graph0" class="graph" transform="scale(1 1) rotate(0) translate(4 97.25)">
<title>CFeatureIf::create</title>
<!-- Node1 -->
<g id="Node000001" class="node">
<title>Node1</title>
<g id="a_Node000001"><a xlink:title=" ">
<polygon fill="#999999" stroke="#666666" points="258.75,-56.25 165.5,-56.25 165.5,-37 258.75,-37 258.75,-56.25"/>
<text text-anchor="middle" x="212.12" y="-42.75" font-family="Helvetica,sans-Serif" font-size="10.00">CFeatureIf::create</text>
</a>
</g>
</g>
<!-- Node2 -->
<g id="Node000002" class="node">
<title>Node2</title>
<g id="a_Node000002"><a xlink:href="a00509.xhtml#a674d8cf2a1f99e4aeeef6321a6fe9f94" target="_top" xlink:title=" ">
<polygon fill="white" stroke="#666666" points="129.5,-93.25 73,-93.25 73,-74 129.5,-74 129.5,-93.25"/>
<text text-anchor="middle" x="101.25" y="-79.75" font-family="Helvetica,sans-Serif" font-size="10.00">CKey::init</text>
</a>
</g>
</g>
<!-- Node1&#45;&gt;Node2 -->
<g id="edge1_Node000001_Node000002" class="edge">
<title>Node1&#45;&gt;Node2</title>
<g id="a_edge1_Node000001_Node000002"><a xlink:title=" ">
<path fill="none" stroke="#63b8ff" d="M170.76,-60.34C157.09,-64.99 142.15,-70.06 129.72,-74.29"/>
<polygon fill="#63b8ff" stroke="#63b8ff" points="171.6,-63.75 179.94,-57.22 169.35,-57.13 171.6,-63.75"/>
</a>
</g>
</g>
<!-- Node3 -->
<g id="Node000003" class="node">
<title>Node3</title>
<g id="a_Node000003"><a xlink:href="a00509.xhtml#af59151b6c619ef658f01e80dc47d6946" target="_top" xlink:title=" ">
<polygon fill="white" stroke="#666666" points="129.5,-56.25 73,-56.25 73,-37 129.5,-37 129.5,-56.25"/>
<text text-anchor="middle" x="101.25" y="-42.75" font-family="Helvetica,sans-Serif" font-size="10.00">CKey::init</text>
</a>
</g>
</g>
<!-- Node1&#45;&gt;Node3 -->
<g id="edge2_Node000001_Node000003" class="edge">
<title>Node1&#45;&gt;Node3</title>
<g id="a_edge2_Node000001_Node000003"><a xlink:title=" ">
<path fill="none" stroke="#63b8ff" d="M153.84,-46.62C145.45,-46.62 137.14,-46.62 129.73,-46.62"/>
<polygon fill="#63b8ff" stroke="#63b8ff" points="153.75,-50.13 163.75,-46.63 153.75,-43.13 153.75,-50.13"/>
</a>
</g>
</g>
<!-- Node5 -->
<g id="Node000005" class="node">
<title>Node5</title>
<g id="a_Node000005"><a xlink:href="a00002.xhtml#a0ddf1224851353fc92bfbff6f499fa97" target="_top" xlink:title=" ">
<polygon fill="white" stroke="#666666" points="119.75,-19.25 82.75,-19.25 82.75,0 119.75,0 119.75,-19.25"/>
<text text-anchor="middle" x="101.25" y="-5.75" font-family="Helvetica,sans-Serif" font-size="10.00">main</text>
</a>
</g>
</g>
<!-- Node1&#45;&gt;Node5 -->
<g id="edge4_Node000001_Node000005" class="edge">
<title>Node1&#45;&gt;Node5</title>
<g id="a_edge4_Node000001_Node000005"><a xlink:title=" ">
<path fill="none" stroke="#63b8ff" d="M170.83,-32.93C153.36,-26.99 133.79,-20.34 120.05,-15.67"/>
<polygon fill="#63b8ff" stroke="#63b8ff" points="169.35,-36.12 179.94,-36.03 171.6,-29.5 169.35,-36.12"/>
</a>
</g>
</g>
<!-- Node4 -->
<g id="Node000004" class="node">
<title>Node4</title>
<g id="a_Node000004"><a xlink:href="a00011.xhtml#a0ddf1224851353fc92bfbff6f499fa97" target="_top" xlink:title=" ">
<polygon fill="white" stroke="#666666" points="37,-56.25 0,-56.25 0,-37 37,-37 37,-56.25"/>
<text text-anchor="middle" x="18.5" y="-42.75" font-family="Helvetica,sans-Serif" font-size="10.00">main</text>
</a>
</g>
</g>
<!-- Node3&#45;&gt;Node4 -->
<g id="edge3_Node000003_Node000004" class="edge">
<title>Node3&#45;&gt;Node4</title>
<g id="a_edge3_Node000003_Node000004"><a xlink:title=" ">
<path fill="none" stroke="#63b8ff" d="M61.59,-46.62C53.14,-46.62 44.59,-46.62 37.42,-46.62"/>
<polygon fill="#63b8ff" stroke="#63b8ff" points="61.4,-50.13 71.4,-46.63 61.4,-43.13 61.4,-50.13"/>
</a>
</g>
</g>
</g>
</svg>
