<?xml version="1.0" encoding="UTF-8" standalone="no"?>
<!DOCTYPE svg PUBLIC "-//W3C//DTD SVG 1.1//EN"
 "http://www.w3.org/Graphics/SVG/1.1/DTD/svg11.dtd">
<!-- Generated by graphviz version 6.0.1 (20220911.1526)
 -->
<!-- Title: CGammatone::calcFilterCoeffs_ Pages: 1 -->
<svg width="629pt" height="134pt"
 viewBox="0.00 0.00 629.00 134.00" xmlns="http://www.w3.org/2000/svg" xmlns:xlink="http://www.w3.org/1999/xlink">
<g id="graph0" class="graph" transform="scale(1 1) rotate(0) translate(4 130)">
<title>CGammatone::calcFilterCoeffs_</title>
<!-- Node1 -->
<g id="node1" class="node">
<title>Node1</title>
<g id="a_node1"><a xlink:title=" ">
<polygon fill="#999999" stroke="#666666" points="621,-72.5 467,-72.5 467,-53.5 621,-53.5 621,-72.5"/>
<text text-anchor="middle" x="544" y="-60.5" font-family="Helvetica,sans-Serif" font-size="10.00">CGammatone::calcFilterCoeffs_</text>
</a>
</g>
</g>
<!-- Node2 -->
<g id="node2" class="node">
<title>Node2</title>
<g id="a_node2"><a xlink:href="a00418.xhtml#a13edc08e70801919a66e65a330f150c2" target="_top" xlink:title=" ">
<polygon fill="white" stroke="#666666" points="431,-72.5 337,-72.5 337,-53.5 431,-53.5 431,-72.5"/>
<text text-anchor="middle" x="384" y="-60.5" font-family="Helvetica,sans-Serif" font-size="10.00">CGammatone::init</text>
</a>
</g>
</g>
<!-- Node1&#45;&gt;Node2 -->
<g id="edge1" class="edge">
<title>Node1&#45;&gt;Node2</title>
<path fill="none" stroke="#63b8ff" d="M456.53,-56.28C447.82,-56.34 439.24,-56.51 431.21,-56.8"/>
<polygon fill="#63b8ff" stroke="#63b8ff" points="456.78,-59.78 466.78,-56.25 456.77,-52.78 456.78,-59.78"/>
</g>
<!-- Node2&#45;&gt;Node1 -->
<g id="edge2" class="edge">
<title>Node2&#45;&gt;Node1</title>
<path fill="none" stroke="#63b8ff" d="M441.41,-69.5C449.64,-69.69 458.23,-69.77 466.78,-69.75"/>
<polygon fill="#63b8ff" stroke="#63b8ff" points="441.3,-65.99 431.21,-69.2 441.1,-72.99 441.3,-65.99"/>
</g>
<!-- Node3 -->
<g id="node3" class="node">
<title>Node3</title>
<g id="a_node3"><a xlink:href="a00558.xhtml#a0b3ba7948620d116d8fcee83010c56ba" target="_top" xlink:title="init configuration">
<polygon fill="white" stroke="#666666" points="301,-72.5 182,-72.5 182,-53.5 301,-53.5 301,-72.5"/>
<text text-anchor="middle" x="241.5" y="-60.5" font-family="Helvetica,sans-Serif" font-size="10.00">CGammaToneFbIf::init_</text>
</a>
</g>
</g>
<!-- Node2&#45;&gt;Node3 -->
<g id="edge3" class="edge">
<title>Node2&#45;&gt;Node3</title>
<path fill="none" stroke="#63b8ff" d="M326.86,-63C318.41,-63 309.67,-63 301.17,-63"/>
<polygon fill="#63b8ff" stroke="#63b8ff" points="327,-66.5 337,-63 327,-59.5 327,-66.5"/>
</g>
<!-- Node4 -->
<g id="node4" class="node">
<title>Node4</title>
<g id="a_node4"><a xlink:href="a00422.xhtml#aec7867658e2991c8526c78666c960920" target="_top" xlink:title=" ">
<polygon fill="white" stroke="#666666" points="140,-126 6,-126 6,-96 140,-96 140,-126"/>
<text text-anchor="start" x="14" y="-114" font-family="Helvetica,sans-Serif" font-size="10.00">CGammaToneFbFromFile</text>
<text text-anchor="middle" x="73" y="-103" font-family="Helvetica,sans-Serif" font-size="10.00">::CGammaToneFbFromFile</text>
</a>
</g>
</g>
<!-- Node3&#45;&gt;Node4 -->
<g id="edge4" class="edge">
<title>Node3&#45;&gt;Node4</title>
<path fill="none" stroke="#63b8ff" d="M197.58,-75.37C175.81,-81.65 149.2,-89.32 126.25,-95.94"/>
<polygon fill="#63b8ff" stroke="#63b8ff" points="198.57,-78.73 207.21,-72.6 196.63,-72.01 198.57,-78.73"/>
</g>
<!-- Node5 -->
<g id="node5" class="node">
<title>Node5</title>
<g id="a_node5"><a xlink:href="a00426.xhtml#a6914abcb82e11526ec35fe6d3aa0e60a" target="_top" xlink:title=" ">
<polygon fill="white" stroke="#666666" points="146,-78 0,-78 0,-48 146,-48 146,-78"/>
<text text-anchor="start" x="8" y="-66" font-family="Helvetica,sans-Serif" font-size="10.00">CGammaToneFbFromVector</text>
<text text-anchor="middle" x="73" y="-55" font-family="Helvetica,sans-Serif" font-size="10.00">::CGammaToneFbFromVector</text>
</a>
</g>
</g>
<!-- Node3&#45;&gt;Node5 -->
<g id="edge5" class="edge">
<title>Node3&#45;&gt;Node5</title>
<path fill="none" stroke="#63b8ff" d="M171.66,-63C163.25,-63 154.64,-63 146.18,-63"/>
<polygon fill="#63b8ff" stroke="#63b8ff" points="171.8,-66.5 181.8,-63 171.8,-59.5 171.8,-66.5"/>
</g>
<!-- Node6 -->
<g id="node6" class="node">
<title>Node6</title>
<g id="a_node6"><a xlink:href="a00430.xhtml#a016022732eaec0576f3a8dfc8158fcae" target="_top" xlink:title=" ">
<polygon fill="white" stroke="#666666" points="141.5,-30 4.5,-30 4.5,0 141.5,0 141.5,-30"/>
<text text-anchor="start" x="12.5" y="-18" font-family="Helvetica,sans-Serif" font-size="10.00">CGammaToneFbRealTime</text>
<text text-anchor="middle" x="73" y="-7" font-family="Helvetica,sans-Serif" font-size="10.00">::CGammaToneFbRealTime</text>
</a>
</g>
</g>
<!-- Node3&#45;&gt;Node6 -->
<g id="edge6" class="edge">
<title>Node3&#45;&gt;Node6</title>
<path fill="none" stroke="#63b8ff" d="M197.58,-50.63C175.81,-44.35 149.2,-36.68 126.25,-30.06"/>
<polygon fill="#63b8ff" stroke="#63b8ff" points="196.63,-53.99 207.21,-53.4 198.57,-47.27 196.63,-53.99"/>
</g>
</g>
</svg>
