<?xml version="1.0" encoding="UTF-8" standalone="no"?>
<!DOCTYPE svg PUBLIC "-//W3C//DTD SVG 1.1//EN"
 "http://www.w3.org/Graphics/SVG/1.1/DTD/svg11.dtd">
<!-- Generated by graphviz version 12.2.1 (20241206.2353)
 -->
<!-- Title: CChordFromBlockIf::genTemplateMatrix_ Pages: 1 -->
<svg width="926pt" height="205pt"
 viewBox="0.00 0.00 926.25 204.88" xmlns="http://www.w3.org/2000/svg" xmlns:xlink="http://www.w3.org/1999/xlink">
<g id="graph0" class="graph" transform="scale(1 1) rotate(0) translate(4 200.88)">
<title>CChordFromBlockIf::genTemplateMatrix_</title>
<!-- Node1 -->
<g id="Node000001" class="node">
<title>Node1</title>
<g id="a_Node000001"><a xlink:title="chord templates for this similarity based chord detection">
<polygon fill="#999999" stroke="#666666" points="918.25,-122.88 812.25,-122.88 812.25,-92.38 918.25,-92.38 918.25,-122.88"/>
<text text-anchor="start" x="820.25" y="-109.38" font-family="Helvetica,sans-Serif" font-size="10.00">CChordFromBlockIf::</text>
<text text-anchor="middle" x="865.25" y="-98.12" font-family="Helvetica,sans-Serif" font-size="10.00">genTemplateMatrix_</text>
</a>
</g>
</g>
<!-- Node2 -->
<g id="Node000002" class="node">
<title>Node2</title>
<g id="a_Node000002"><a xlink:href="a00461.xhtml#a2e221ac492231e16a62781a573921a9c" target="_top" xlink:title=" ">
<polygon fill="white" stroke="#666666" points="776.25,-122.88 670.25,-122.88 670.25,-92.38 776.25,-92.38 776.25,-122.88"/>
<text text-anchor="start" x="678.25" y="-109.38" font-family="Helvetica,sans-Serif" font-size="10.00">CChordFromBlockIf::</text>
<text text-anchor="middle" x="723.25" y="-98.12" font-family="Helvetica,sans-Serif" font-size="10.00">CChordFromBlockIf</text>
</a>
</g>
</g>
<!-- Node1&#45;&gt;Node2 -->
<g id="edge1_Node000001_Node000002" class="edge">
<title>Node1&#45;&gt;Node2</title>
<g id="a_edge1_Node000001_Node000002"><a xlink:title=" ">
<path fill="none" stroke="#63b8ff" d="M800.74,-107.62C792.61,-107.62 784.35,-107.62 776.42,-107.62"/>
<polygon fill="#63b8ff" stroke="#63b8ff" points="800.61,-111.13 810.61,-107.63 800.61,-104.13 800.61,-111.13"/>
</a>
</g>
</g>
<!-- Node3 -->
<g id="Node000003" class="node">
<title>Node3</title>
<g id="a_Node000003"><a xlink:href="a00461.xhtml#ae0ddb92a2f112a5e7b5efabcf4b66dd9" target="_top" xlink:title=" ">
<polygon fill="white" stroke="#666666" points="634.25,-196.88 528.25,-196.88 528.25,-166.38 634.25,-166.38 634.25,-196.88"/>
<text text-anchor="start" x="536.25" y="-183.38" font-family="Helvetica,sans-Serif" font-size="10.00">CChordFromBlockIf::</text>
<text text-anchor="middle" x="581.25" y="-172.12" font-family="Helvetica,sans-Serif" font-size="10.00">CChordFromBlockIf</text>
</a>
</g>
</g>
<!-- Node2&#45;&gt;Node3 -->
<g id="edge2_Node000002_Node000003" class="edge">
<title>Node2&#45;&gt;Node3</title>
<g id="a_edge2_Node000002_Node000003"><a xlink:title=" ">
<path fill="none" stroke="#63b8ff" d="M685.31,-128.84C669.67,-137.65 651.19,-147.85 634.25,-156.62 628.29,-159.71 621.89,-162.9 615.69,-165.92"/>
<polygon fill="#63b8ff" stroke="#63b8ff" points="686.83,-132 693.81,-124.03 683.38,-125.91 686.83,-132"/>
</a>
</g>
</g>
<!-- Node4 -->
<g id="Node000004" class="node">
<title>Node4</title>
<g id="a_Node000004"><a xlink:href="a00461.xhtml#ac51d13fa2b36cafa4962cb3592ebfcb7" target="_top" xlink:title=" ">
<polygon fill="white" stroke="#666666" points="634.25,-147.88 528.25,-147.88 528.25,-117.38 634.25,-117.38 634.25,-147.88"/>
<text text-anchor="start" x="536.25" y="-134.38" font-family="Helvetica,sans-Serif" font-size="10.00">CChordFromBlockIf::</text>
<text text-anchor="middle" x="581.25" y="-123.12" font-family="Helvetica,sans-Serif" font-size="10.00">create</text>
</a>
</g>
</g>
<!-- Node2&#45;&gt;Node4 -->
<g id="edge3_Node000002_Node000004" class="edge">
<title>Node2&#45;&gt;Node4</title>
<g id="a_edge3_Node000002_Node000004"><a xlink:title=" ">
<path fill="none" stroke="#63b8ff" d="M659.02,-118.92C650.8,-120.38 642.44,-121.88 634.42,-123.31"/>
<polygon fill="#63b8ff" stroke="#63b8ff" points="659.4,-122.4 668.63,-117.2 658.17,-115.51 659.4,-122.4"/>
</a>
</g>
</g>
<!-- Node8 -->
<g id="Node000008" class="node">
<title>Node8</title>
<g id="a_Node000008"><a xlink:href="a00461.xhtml#afa15c2f57c2552592541337926473a3d" target="_top" xlink:title=" ">
<polygon fill="white" stroke="#666666" points="634.25,-98.88 528.25,-98.88 528.25,-68.38 634.25,-68.38 634.25,-98.88"/>
<text text-anchor="start" x="536.25" y="-85.38" font-family="Helvetica,sans-Serif" font-size="10.00">CChordFromBlockIf::</text>
<text text-anchor="middle" x="581.25" y="-74.12" font-family="Helvetica,sans-Serif" font-size="10.00">destroy</text>
</a>
</g>
</g>
<!-- Node2&#45;&gt;Node8 -->
<g id="edge7_Node000002_Node000008" class="edge">
<title>Node2&#45;&gt;Node8</title>
<g id="a_edge7_Node000002_Node000008"><a xlink:title=" ">
<path fill="none" stroke="#63b8ff" d="M659.02,-96.79C650.8,-95.38 642.44,-93.94 634.42,-92.57"/>
<polygon fill="#63b8ff" stroke="#63b8ff" points="658.18,-100.19 668.63,-98.43 659.36,-93.29 658.18,-100.19"/>
</a>
</g>
</g>
<!-- Node18 -->
<g id="Node000018" class="node">
<title>Node18</title>
<g id="a_Node000018"><a xlink:href="a00461.xhtml#a8388ced682f516ac1a9a64033a11e9ea" target="_top" xlink:title=" ">
<polygon fill="white" stroke="#666666" points="634.25,-49.88 528.25,-49.88 528.25,-19.38 634.25,-19.38 634.25,-49.88"/>
<text text-anchor="start" x="536.25" y="-36.38" font-family="Helvetica,sans-Serif" font-size="10.00">CChordFromBlockIf::</text>
<text text-anchor="middle" x="581.25" y="-25.12" font-family="Helvetica,sans-Serif" font-size="10.00">operator=</text>
</a>
</g>
</g>
<!-- Node2&#45;&gt;Node18 -->
<g id="edge19_Node000002_Node000018" class="edge">
<title>Node2&#45;&gt;Node18</title>
<g id="a_edge19_Node000002_Node000018"><a xlink:title=" ">
<path fill="none" stroke="#63b8ff" d="M684.56,-86.52C669.07,-77.98 650.89,-68.16 634.25,-59.62 628.19,-56.52 621.68,-53.3 615.39,-50.24"/>
<polygon fill="#63b8ff" stroke="#63b8ff" points="682.54,-89.4 692.98,-91.18 685.93,-83.27 682.54,-89.4"/>
</a>
</g>
</g>
<!-- Node5 -->
<g id="Node000005" class="node">
<title>Node5</title>
<g id="a_Node000005"><a xlink:href="a00457.xhtml#ad48a5bd574f16b7491b70efb9998935f" target="_top" xlink:title="init configuration">
<polygon fill="white" stroke="#666666" points="487.75,-142.25 411,-142.25 411,-123 487.75,-123 487.75,-142.25"/>
<text text-anchor="middle" x="449.38" y="-128.75" font-family="Helvetica,sans-Serif" font-size="10.00">CChordIf::init_</text>
</a>
</g>
</g>
<!-- Node4&#45;&gt;Node5 -->
<g id="edge4_Node000004_Node000005" class="edge">
<title>Node4&#45;&gt;Node5</title>
<g id="a_edge4_Node000004_Node000005"><a xlink:title=" ">
<path fill="none" stroke="#63b8ff" d="M516.51,-132.62C506.84,-132.62 497.13,-132.62 488.25,-132.62"/>
<polygon fill="#63b8ff" stroke="#63b8ff" points="516.29,-136.13 526.29,-132.63 516.29,-129.13 516.29,-136.13"/>
</a>
</g>
</g>
<!-- Node6 -->
<g id="Node000006" class="node">
<title>Node6</title>
<g id="a_Node000006"><a xlink:href="a00313.xhtml#a6df404d2eb3d4c8f9dc2071930fc9e7e" target="_top" xlink:title=" ">
<polygon fill="white" stroke="#666666" points="370.5,-130.25 209,-130.25 209,-111 370.5,-111 370.5,-130.25"/>
<text text-anchor="middle" x="289.75" y="-116.75" font-family="Helvetica,sans-Serif" font-size="10.00">CChordFromFile::CChordFromFile</text>
</a>
</g>
</g>
<!-- Node5&#45;&gt;Node6 -->
<g id="edge5_Node000005_Node000006" class="edge">
<title>Node5&#45;&gt;Node6</title>
<g id="a_edge5_Node000005_Node000006"><a xlink:title=" ">
<path fill="none" stroke="#63b8ff" d="M399.19,-128.88C390.19,-128.2 380.59,-127.46 370.96,-126.73"/>
<polygon fill="#63b8ff" stroke="#63b8ff" points="398.87,-132.37 409.11,-129.64 399.41,-125.39 398.87,-132.37"/>
</a>
</g>
</g>
<!-- Node7 -->
<g id="Node000007" class="node">
<title>Node7</title>
<g id="a_Node000007"><a xlink:href="a00317.xhtml#ac9c41c2ddc441df7e0ae80c25971c260" target="_top" xlink:title=" ">
<polygon fill="white" stroke="#666666" points="357.75,-178.88 221.75,-178.88 221.75,-148.38 357.75,-148.38 357.75,-178.88"/>
<text text-anchor="start" x="229.75" y="-165.38" font-family="Helvetica,sans-Serif" font-size="10.00">CChordFromVector::CChord</text>
<text text-anchor="middle" x="289.75" y="-154.12" font-family="Helvetica,sans-Serif" font-size="10.00">FromVector</text>
</a>
</g>
</g>
<!-- Node5&#45;&gt;Node7 -->
<g id="edge6_Node000005_Node000007" class="edge">
<title>Node5&#45;&gt;Node7</title>
<g id="a_edge6_Node000005_Node000007"><a xlink:title=" ">
<path fill="none" stroke="#63b8ff" d="M399.49,-142.24C386.39,-144.82 372,-147.65 358.09,-150.38"/>
<polygon fill="#63b8ff" stroke="#63b8ff" points="400,-145.71 409.13,-140.34 398.65,-138.84 400,-145.71"/>
</a>
</g>
</g>
<!-- Node9 -->
<g id="Node000009" class="node">
<title>Node9</title>
<g id="a_Node000009"><a xlink:href="a00457.xhtml#a333842dc3ecbbf719eee742f1a4b1845" target="_top" xlink:title="reset configuration">
<polygon fill="white" stroke="#666666" points="492.25,-93.25 406.5,-93.25 406.5,-74 492.25,-74 492.25,-93.25"/>
<text text-anchor="middle" x="449.38" y="-79.75" font-family="Helvetica,sans-Serif" font-size="10.00">CChordIf::reset_</text>
</a>
</g>
</g>
<!-- Node8&#45;&gt;Node9 -->
<g id="edge8_Node000008_Node000009" class="edge">
<title>Node8&#45;&gt;Node9</title>
<g id="a_edge8_Node000008_Node000009"><a xlink:title=" ">
<path fill="none" stroke="#63b8ff" d="M516.45,-83.62C508.37,-83.62 500.27,-83.62 492.65,-83.62"/>
<polygon fill="#63b8ff" stroke="#63b8ff" points="516.29,-87.13 526.29,-83.63 516.29,-80.13 516.29,-87.13"/>
</a>
</g>
</g>
<!-- Node9&#45;&gt;Node6 -->
<g id="edge9_Node000009_Node000006" class="edge">
<title>Node9&#45;&gt;Node6</title>
<g id="a_edge9_Node000009_Node000006"><a xlink:title=" ">
<path fill="none" stroke="#63b8ff" d="M396.41,-96.44C387.77,-98.53 378.88,-100.66 370.5,-102.62 359.31,-105.25 347.21,-108.02 335.91,-110.58"/>
<polygon fill="#63b8ff" stroke="#63b8ff" points="397.23,-99.84 406.12,-94.08 395.57,-93.04 397.23,-99.84"/>
</a>
</g>
</g>
<!-- Node10 -->
<g id="Node000010" class="node">
<title>Node10</title>
<g id="a_Node000010"><a xlink:href="a00457.xhtml#a46a40c5a1fa7415337653bec30255245" target="_top" xlink:title=" ">
<polygon fill="white" stroke="#666666" points="338.25,-93.25 241.25,-93.25 241.25,-74 338.25,-74 338.25,-93.25"/>
<text text-anchor="middle" x="289.75" y="-79.75" font-family="Helvetica,sans-Serif" font-size="10.00">CChordIf::CChordIf</text>
</a>
</g>
</g>
<!-- Node9&#45;&gt;Node10 -->
<g id="edge10_Node000009_Node000010" class="edge">
<title>Node9&#45;&gt;Node10</title>
<g id="a_edge10_Node000009_Node000010"><a xlink:title=" ">
<path fill="none" stroke="#63b8ff" d="M394.81,-83.62C376.61,-83.62 356.41,-83.62 338.68,-83.62"/>
<polygon fill="#63b8ff" stroke="#63b8ff" points="394.62,-87.13 404.62,-83.63 394.62,-80.13 394.62,-87.13"/>
</a>
</g>
</g>
<!-- Node17 -->
<g id="Node000017" class="node">
<title>Node17</title>
<g id="a_Node000017"><a xlink:href="a00457.xhtml#aa778bd3dadb1442280d4a076c10769d4" target="_top" xlink:title=" ">
<polygon fill="white" stroke="#666666" points="340.88,-56.25 238.62,-56.25 238.62,-37 340.88,-37 340.88,-56.25"/>
<text text-anchor="middle" x="289.75" y="-42.75" font-family="Helvetica,sans-Serif" font-size="10.00">CChordIf::~CChordIf</text>
</a>
</g>
</g>
<!-- Node9&#45;&gt;Node17 -->
<g id="edge18_Node000009_Node000017" class="edge">
<title>Node9&#45;&gt;Node17</title>
<g id="a_edge18_Node000009_Node000017"><a xlink:title=" ">
<path fill="none" stroke="#63b8ff" d="M396.41,-70.81C387.77,-68.72 378.88,-66.59 370.5,-64.62 359.31,-62 347.21,-59.23 335.91,-56.67"/>
<polygon fill="#63b8ff" stroke="#63b8ff" points="395.57,-74.21 406.12,-73.17 397.23,-67.41 395.57,-74.21"/>
</a>
</g>
</g>
<!-- Node11 -->
<g id="Node000011" class="node">
<title>Node11</title>
<g id="a_Node000011"><a xlink:href="a00457.xhtml#a0b4d6cc83002f1bc5ce733586ced3312" target="_top" xlink:title=" ">
<polygon fill="white" stroke="#666666" points="171.5,-167.25 74.5,-167.25 74.5,-148 171.5,-148 171.5,-167.25"/>
<text text-anchor="middle" x="123" y="-153.75" font-family="Helvetica,sans-Serif" font-size="10.00">CChordIf::CChordIf</text>
</a>
</g>
</g>
<!-- Node10&#45;&gt;Node11 -->
<g id="edge11_Node000010_Node000011" class="edge">
<title>Node10&#45;&gt;Node11</title>
<g id="a_edge11_Node000010_Node000011"><a xlink:title=" ">
<path fill="none" stroke="#63b8ff" d="M230.21,-92.6C222.81,-94.95 215.55,-97.9 209,-101.62 188.78,-113.13 192.43,-126.83 173,-139.62 168.31,-142.71 163.01,-145.36 157.68,-147.6"/>
<polygon fill="#63b8ff" stroke="#63b8ff" points="230.91,-96.04 239.62,-89.99 229.04,-89.29 230.91,-96.04"/>
</a>
</g>
</g>
<!-- Node12 -->
<g id="Node000012" class="node">
<title>Node12</title>
<g id="a_Node000012"><a xlink:href="a00457.xhtml#a293aa7e4e2bd80c9c377f5137077e6e5" target="_top" xlink:title=" ">
<polygon fill="white" stroke="#666666" points="165.88,-130.25 80.12,-130.25 80.12,-111 165.88,-111 165.88,-130.25"/>
<text text-anchor="middle" x="123" y="-116.75" font-family="Helvetica,sans-Serif" font-size="10.00">CChordIf::create</text>
</a>
</g>
</g>
<!-- Node10&#45;&gt;Node12 -->
<g id="edge12_Node000010_Node000012" class="edge">
<title>Node10&#45;&gt;Node12</title>
<g id="a_edge12_Node000010_Node000012"><a xlink:title=" ">
<path fill="none" stroke="#63b8ff" d="M232.63,-96.23C210.86,-101.12 186.35,-106.62 166.13,-111.16"/>
<polygon fill="#63b8ff" stroke="#63b8ff" points="233.26,-99.67 242.25,-94.07 231.73,-92.84 233.26,-99.67"/>
</a>
</g>
</g>
<!-- Node13 -->
<g id="Node000013" class="node">
<title>Node13</title>
<g id="a_Node000013"><a xlink:href="a00457.xhtml#a49eaa5eea529fe7545a698b91b7e6216" target="_top" xlink:title=" ">
<polygon fill="white" stroke="#666666" points="165.88,-93.25 80.12,-93.25 80.12,-74 165.88,-74 165.88,-93.25"/>
<text text-anchor="middle" x="123" y="-79.75" font-family="Helvetica,sans-Serif" font-size="10.00">CChordIf::create</text>
</a>
</g>
</g>
<!-- Node10&#45;&gt;Node13 -->
<g id="edge13_Node000010_Node000013" class="edge">
<title>Node10&#45;&gt;Node13</title>
<g id="a_edge13_Node000010_Node000013"><a xlink:title=" ">
<path fill="none" stroke="#63b8ff" d="M229.7,-83.62C208.71,-83.62 185.52,-83.62 166.22,-83.62"/>
<polygon fill="#63b8ff" stroke="#63b8ff" points="229.58,-87.13 239.58,-83.63 229.58,-80.13 229.58,-87.13"/>
</a>
</g>
</g>
<!-- Node15 -->
<g id="Node000015" class="node">
<title>Node15</title>
<g id="a_Node000015"><a xlink:href="a00457.xhtml#a8f184fd60056e658f22caf63ddee941d" target="_top" xlink:title=" ">
<polygon fill="white" stroke="#666666" points="168.12,-56.25 77.88,-56.25 77.88,-37 168.12,-37 168.12,-56.25"/>
<text text-anchor="middle" x="123" y="-42.75" font-family="Helvetica,sans-Serif" font-size="10.00">CChordIf::destroy</text>
</a>
</g>
</g>
<!-- Node10&#45;&gt;Node15 -->
<g id="edge15_Node000010_Node000015" class="edge">
<title>Node10&#45;&gt;Node15</title>
<g id="a_edge15_Node000010_Node000015"><a xlink:title=" ">
<path fill="none" stroke="#63b8ff" d="M232.7,-71.04C211.71,-66.32 188.18,-61.04 168.39,-56.6"/>
<polygon fill="#63b8ff" stroke="#63b8ff" points="231.73,-74.41 242.25,-73.18 233.26,-67.58 231.73,-74.41"/>
</a>
</g>
</g>
<!-- Node16 -->
<g id="Node000016" class="node">
<title>Node16</title>
<g id="a_Node000016"><a xlink:href="a00457.xhtml#a5b015ddd5bb69d1cdffdd142adca1cd0" target="_top" xlink:title=" ">
<polygon fill="white" stroke="#666666" points="173,-19.25 73,-19.25 73,0 173,0 173,-19.25"/>
<text text-anchor="middle" x="123" y="-5.75" font-family="Helvetica,sans-Serif" font-size="10.00">CChordIf::operator=</text>
</a>
</g>
</g>
<!-- Node10&#45;&gt;Node16 -->
<g id="edge17_Node000010_Node000016" class="edge">
<title>Node10&#45;&gt;Node16</title>
<g id="a_edge17_Node000010_Node000016"><a xlink:title=" ">
<path fill="none" stroke="#63b8ff" d="M230.21,-74.65C222.81,-72.3 215.55,-69.35 209,-65.62 188.78,-54.12 192.43,-40.42 173,-27.62 168.31,-24.54 163.01,-21.89 157.68,-19.65"/>
<polygon fill="#63b8ff" stroke="#63b8ff" points="229.04,-77.96 239.62,-77.26 230.91,-71.21 229.04,-77.96"/>
</a>
</g>
</g>
<!-- Node14 -->
<g id="Node000014" class="node">
<title>Node14</title>
<g id="a_Node000014"><a xlink:href="a00128.xhtml#a0ddf1224851353fc92bfbff6f499fa97" target="_top" xlink:title=" ">
<polygon fill="white" stroke="#666666" points="37,-74.25 0,-74.25 0,-55 37,-55 37,-74.25"/>
<text text-anchor="middle" x="18.5" y="-60.75" font-family="Helvetica,sans-Serif" font-size="10.00">main</text>
</a>
</g>
</g>
<!-- Node13&#45;&gt;Node14 -->
<g id="edge14_Node000013_Node000014" class="edge">
<title>Node13&#45;&gt;Node14</title>
<g id="a_edge14_Node000013_Node000014"><a xlink:title=" ">
<path fill="none" stroke="#63b8ff" d="M68.52,-73.71C57.29,-71.63 46.21,-69.58 37.42,-67.95"/>
<polygon fill="#63b8ff" stroke="#63b8ff" points="67.76,-77.13 78.23,-75.51 69.03,-70.25 67.76,-77.13"/>
</a>
</g>
</g>
<!-- Node15&#45;&gt;Node14 -->
<g id="edge16_Node000015_Node000014" class="edge">
<title>Node15&#45;&gt;Node14</title>
<g id="a_edge16_Node000015_Node000014"><a xlink:title=" ">
<path fill="none" stroke="#63b8ff" d="M66.61,-56.35C56.03,-58.21 45.69,-60.03 37.41,-61.48"/>
<polygon fill="#63b8ff" stroke="#63b8ff" points="66.9,-59.85 76.15,-54.68 65.69,-52.96 66.9,-59.85"/>
</a>
</g>
</g>
</g>
</svg>
