<?xml version="1.0" encoding="UTF-8" standalone="no"?>
<!DOCTYPE svg PUBLIC "-//W3C//DTD SVG 1.1//EN"
 "http://www.w3.org/Graphics/SVG/1.1/DTD/svg11.dtd">
<!-- Generated by graphviz version 6.0.1 (20220911.1526)
 -->
<!-- Title: CAudioFileIf::getPosition Pages: 1 -->
<svg width="290pt" height="113pt"
 viewBox="0.00 0.00 290.00 112.50" xmlns="http://www.w3.org/2000/svg" xmlns:xlink="http://www.w3.org/1999/xlink">
<g id="graph0" class="graph" transform="scale(1 1) rotate(0) translate(4 108.5)">
<title>CAudioFileIf::getPosition</title>
<!-- Node1 -->
<g id="node1" class="node">
<title>Node1</title>
<g id="a_node1"><a xlink:title=" ">
<polygon fill="#999999" stroke="#666666" points="123,-56 0,-56 0,-37 123,-37 123,-56"/>
<text text-anchor="middle" x="61.5" y="-44" font-family="Helvetica,sans-Serif" font-size="10.00">CAudioFileIf::getPosition</text>
</a>
</g>
</g>
<!-- Node2 -->
<g id="node2" class="node">
<title>Node2</title>
<g id="a_node2"><a xlink:href="a00442.xhtml#afa4e52309d9c05cabe46dbb6f13b819a" target="_top" xlink:title=" ">
<polygon fill="white" stroke="#666666" points="282,-104.5 159,-104.5 159,-74.5 282,-74.5 282,-104.5"/>
<text text-anchor="start" x="167" y="-92.5" font-family="Helvetica,sans-Serif" font-size="10.00">CAudioFileIf::getPosition</text>
<text text-anchor="middle" x="220.5" y="-81.5" font-family="Helvetica,sans-Serif" font-size="10.00">Intern_</text>
</a>
</g>
</g>
<!-- Node1&#45;&gt;Node2 -->
<g id="edge1" class="edge">
<title>Node1&#45;&gt;Node2</title>
<path fill="none" stroke="#63b8ff" d="M97.34,-56.04C114.27,-60.68 135.16,-66.4 154.86,-71.79"/>
<polygon fill="#63b8ff" stroke="#63b8ff" points="154.14,-75.23 164.71,-74.49 155.99,-68.48 154.14,-75.23"/>
</g>
<!-- Node3 -->
<g id="node3" class="node">
<title>Node3</title>
<g id="a_node3"><a xlink:href="a00442.xhtml#a01d2aae56dd6295aee8ad10088f2cb27" target="_top" xlink:title=" ">
<polygon fill="white" stroke="#666666" points="281.5,-56 159.5,-56 159.5,-37 281.5,-37 281.5,-56"/>
<text text-anchor="middle" x="220.5" y="-44" font-family="Helvetica,sans-Serif" font-size="10.00">CAudioFileIf::isInitialized</text>
</a>
</g>
</g>
<!-- Node1&#45;&gt;Node3 -->
<g id="edge2" class="edge">
<title>Node1&#45;&gt;Node3</title>
<path fill="none" stroke="#63b8ff" d="M123.2,-46.5C131.76,-46.5 140.62,-46.5 149.33,-46.5"/>
<polygon fill="#63b8ff" stroke="#63b8ff" points="149.48,-50 159.48,-46.5 149.48,-43 149.48,-50"/>
</g>
<!-- Node4 -->
<g id="node4" class="node">
<title>Node4</title>
<g id="a_node4"><a xlink:href="a00442.xhtml#a7d946177a6591600dc03a423feb38cb3" target="_top" xlink:title=" ">
<polygon fill="white" stroke="#666666" points="273,-19 168,-19 168,0 273,0 273,-19"/>
<text text-anchor="middle" x="220.5" y="-7" font-family="Helvetica,sans-Serif" font-size="10.00">CAudioFileIf::isOpen</text>
</a>
</g>
</g>
<!-- Node1&#45;&gt;Node4 -->
<g id="edge3" class="edge">
<title>Node1&#45;&gt;Node4</title>
<path fill="none" stroke="#63b8ff" d="M102.93,-36.97C123.09,-32.22 147.67,-26.43 169.05,-21.39"/>
<polygon fill="#63b8ff" stroke="#63b8ff" points="170,-24.76 178.93,-19.06 168.4,-17.95 170,-24.76"/>
</g>
</g>
</svg>
