<?xml version="1.0" encoding="UTF-8" standalone="no"?>
<!DOCTYPE svg PUBLIC "-//W3C//DTD SVG 1.1//EN"
 "http://www.w3.org/Graphics/SVG/1.1/DTD/svg11.dtd">
<!-- Generated by graphviz version 6.0.1 (20220911.1526)
 -->
<!-- Title: CFeatureIf::compFeatureNDim Pages: 1 -->
<svg width="352pt" height="64pt"
 viewBox="0.00 0.00 352.00 64.00" xmlns="http://www.w3.org/2000/svg" xmlns:xlink="http://www.w3.org/1999/xlink">
<g id="graph0" class="graph" transform="scale(1 1) rotate(0) translate(4 60)">
<title>CFeatureIf::compFeatureNDim</title>
<!-- Node1 -->
<g id="node1" class="node">
<title>Node1</title>
<g id="a_node1"><a xlink:title=" ">
<polygon fill="#999999" stroke="#666666" points="344,-37 195,-37 195,-18 344,-18 344,-37"/>
<text text-anchor="middle" x="269.5" y="-25" font-family="Helvetica,sans-Serif" font-size="10.00">CFeatureIf::compFeatureNDim</text>
</a>
</g>
</g>
<!-- Node2 -->
<g id="node2" class="node">
<title>Node2</title>
<g id="a_node2"><a xlink:href="a00506.xhtml#a343e6b52e9696244dd57d4db0f91d056" target="_top" xlink:title=" ">
<polygon fill="white" stroke="#666666" points="159,-56 74,-56 74,-37 159,-37 159,-56"/>
<text text-anchor="middle" x="116.5" y="-44" font-family="Helvetica,sans-Serif" font-size="10.00">CKey::compKey</text>
</a>
</g>
</g>
<!-- Node1&#45;&gt;Node2 -->
<g id="edge1" class="edge">
<title>Node1&#45;&gt;Node2</title>
<path fill="none" stroke="#63b8ff" d="M184.71,-38.04C175.84,-39.16 167.12,-40.26 159.05,-41.27"/>
<polygon fill="#63b8ff" stroke="#63b8ff" points="185.28,-41.5 194.77,-36.78 184.41,-34.55 185.28,-41.5"/>
</g>
<!-- Node4 -->
<g id="node4" class="node">
<title>Node4</title>
<g id="a_node4"><a xlink:href="a00002.xhtml#a0ddf1224851353fc92bfbff6f499fa97" target="_top" xlink:title=" ">
<polygon fill="white" stroke="#666666" points="135.5,-19 97.5,-19 97.5,0 135.5,0 135.5,-19"/>
<text text-anchor="middle" x="116.5" y="-7" font-family="Helvetica,sans-Serif" font-size="10.00">main</text>
</a>
</g>
</g>
<!-- Node1&#45;&gt;Node4 -->
<g id="edge3" class="edge">
<title>Node1&#45;&gt;Node4</title>
<path fill="none" stroke="#63b8ff" d="M184.72,-17.51C166.16,-15.3 148.28,-13.17 135.63,-11.66"/>
<polygon fill="#63b8ff" stroke="#63b8ff" points="184.43,-21 194.77,-18.71 185.25,-14.05 184.43,-21"/>
</g>
<!-- Node3 -->
<g id="node3" class="node">
<title>Node3</title>
<g id="a_node3"><a xlink:href="a00122.xhtml#a0ddf1224851353fc92bfbff6f499fa97" target="_top" xlink:title=" ">
<polygon fill="white" stroke="#666666" points="38,-56 0,-56 0,-37 38,-37 38,-56"/>
<text text-anchor="middle" x="19" y="-44" font-family="Helvetica,sans-Serif" font-size="10.00">main</text>
</a>
</g>
</g>
<!-- Node2&#45;&gt;Node3 -->
<g id="edge2" class="edge">
<title>Node2&#45;&gt;Node3</title>
<path fill="none" stroke="#63b8ff" d="M63.61,-46.5C54.51,-46.5 45.62,-46.5 38.27,-46.5"/>
<polygon fill="#63b8ff" stroke="#63b8ff" points="63.89,-50 73.89,-46.5 63.89,-43 63.89,-50"/>
</g>
</g>
</svg>
