<?xml version="1.0" encoding="UTF-8" standalone="no"?>
<!DOCTYPE svg PUBLIC "-//W3C//DTD SVG 1.1//EN"
 "http://www.w3.org/Graphics/SVG/1.1/DTD/svg11.dtd">
<!-- Generated by graphviz version 4.0.0 (20220602.1335)
 -->
<!-- Title: CKey::compKey Pages: 1 -->
<!--zoomable 739 -->
<svg id="main" version="1.1" xmlns="http://www.w3.org/2000/svg" xmlns:xlink="http://www.w3.org/1999/xlink" xml:space="preserve" onload="init(evt)">
<style type="text/css"><![CDATA[
.edge:hover path { stroke: red; }
.edge:hover polygon { stroke: red; fill: red; }
]]></style>
<script type="text/javascript"><![CDATA[
var edges = document.getElementsByTagName('g');
if (edges && edges.length) {
  for (var i=0;i<edges.length;i++) {
    if (edges[i].id.substr(0,4)=='edge') {
      edges[i].setAttribute('class','edge');
    }
  }
}
]]></script>
        <defs>
                <circle id="rim" cx="0" cy="0" r="7"/>
                <circle id="rim2" cx="0" cy="0" r="3.5"/>
                <g id="zoomPlus">
                        <use xlink:href="#rim" fill="#404040">
                                <set attributeName="fill" to="#808080" begin="zoomplus.mouseover" end="zoomplus.mouseout"/>
                        </use>
                        <path d="M-4,0h8M0,-4v8" fill="none" stroke="white" stroke-width="1.5" pointer-events="none"/>
                </g>
                <g id="zoomMin">
                        <use xlink:href="#rim" fill="#404040">
                                <set attributeName="fill" to="#808080" begin="zoomminus.mouseover" end="zoomminus.mouseout"/>
                        </use>
                        <path d="M-4,0h8" fill="none" stroke="white" stroke-width="1.5" pointer-events="none"/>
                </g>
                <g id="dirArrow">
                        <path fill="none" stroke="white" stroke-width="1.5" d="M0,-3.0v7 M-2.5,-0.5L0,-3.0L2.5,-0.5"/>
                </g>
               <g id="resetDef">
                       <use xlink:href="#rim2" fill="#404040">
                               <set attributeName="fill" to="#808080" begin="reset.mouseover" end="reset.mouseout"/>
                       </use>
               </g>
        </defs>

<script type="text/javascript">
var viewWidth = 758;
var viewHeight = 739;
var sectionId = 'dynsection-2';
</script>
<script xlink:href="svgpan.js"/>
<svg id="graph" class="graph">
<g id="viewport">
<title>CKey::compKey</title>
<polygon fill="white" stroke="transparent" points="-4,4 -4,-735 754,-735 754,4 -4,4"/>
<!-- Node1 -->
<g id="node1" class="node">
<title>Node1</title>
<g id="a_node1"><a xlink:title=" ">
<polygon fill="#bfbfbf" stroke="black" points="0,-266.5 0,-285.5 85,-285.5 85,-266.5 0,-266.5"/>
<text text-anchor="middle" x="42.5" y="-273.5" font-family="Helvetica,sans-Serif" font-size="10.00">CKey::compKey</text>
</a>
</g>
</g>
<!-- Node2 -->
<g id="node2" class="node">
<title>Node2</title>
<g id="a_node2"><a xlink:href="a00479.xhtml#a6501b78d76c912d49eee88c8f7242923" target="_top" xlink:title=" ">
<polygon fill="white" stroke="black" points="166,-599.5 166,-618.5 240,-618.5 240,-599.5 166,-599.5"/>
<text text-anchor="middle" x="203" y="-606.5" font-family="Helvetica,sans-Serif" font-size="10.00">CMatrix::alloc</text>
</a>
</g>
</g>
<!-- Node1&#45;&gt;Node2 -->
<g id="edge1" class="edge">
<title>Node1&#45;&gt;Node2</title>
<path fill="none" stroke="midnightblue" d="M45.82,-285.67C53.62,-317.27 80.69,-419.89 121,-497 139.86,-533.07 169.29,-570.52 187,-591.67"/>
<polygon fill="midnightblue" stroke="midnightblue" points="184.46,-594.09 193.6,-599.45 189.79,-589.56 184.46,-594.09"/>
</g>
<!-- Node5 -->
<g id="node5" class="node">
<title>Node5</title>
<g id="a_node5"><a xlink:href="a00459.xhtml#ad734d1e300583449f51e6ca80aa3e7b8" target="_top" xlink:title=" ">
<polygon fill="white" stroke="black" points="128.5,-468.5 128.5,-487.5 277.5,-487.5 277.5,-468.5 128.5,-468.5"/>
<text text-anchor="middle" x="203" y="-475.5" font-family="Helvetica,sans-Serif" font-size="10.00">CFeatureIf::compFeatureNDim</text>
</a>
</g>
</g>
<!-- Node1&#45;&gt;Node5 -->
<g id="edge4" class="edge">
<title>Node1&#45;&gt;Node5</title>
<path fill="none" stroke="midnightblue" d="M51.14,-285.74C76.15,-317.61 155.74,-419.04 188.11,-460.3"/>
<polygon fill="midnightblue" stroke="midnightblue" points="185.51,-462.65 194.43,-468.35 191.01,-458.33 185.51,-462.65"/>
</g>
<!-- Node21 -->
<g id="node21" class="node">
<title>Node21</title>
<g id="a_node21"><a xlink:href="a00479.xhtml#a591097c6b1935c4d6273b3445f8f552b" target="_top" xlink:title=" ">
<polygon fill="white" stroke="black" points="167.5,-29.5 167.5,-48.5 238.5,-48.5 238.5,-29.5 167.5,-29.5"/>
<text text-anchor="middle" x="203" y="-36.5" font-family="Helvetica,sans-Serif" font-size="10.00">CMatrix::free</text>
</a>
</g>
</g>
<!-- Node1&#45;&gt;Node21 -->
<g id="edge22" class="edge">
<title>Node1&#45;&gt;Node21</title>
<path fill="none" stroke="midnightblue" d="M46.76,-266.25C55.79,-240.09 83.02,-166.78 121,-115 138.25,-91.48 163.39,-69.23 181.08,-54.95"/>
<polygon fill="midnightblue" stroke="midnightblue" points="183.42,-57.56 189.09,-48.61 179.08,-52.07 183.42,-57.56"/>
</g>
<!-- Node23 -->
<g id="node23" class="node">
<title>Node23</title>
<g id="a_node23"><a xlink:href="a00459.xhtml#ad7e4c2c40aa96ea2d91eafffcde0608a" target="_top" xlink:title=" ">
<polygon fill="white" stroke="black" points="121,-342.5 121,-361.5 285,-361.5 285,-342.5 121,-342.5"/>
<text text-anchor="middle" x="203" y="-349.5" font-family="Helvetica,sans-Serif" font-size="10.00">CFeatureIf::getFeatureDimensions</text>
</a>
</g>
</g>
<!-- Node1&#45;&gt;Node23 -->
<g id="edge24" class="edge">
<title>Node1&#45;&gt;Node23</title>
<path fill="none" stroke="midnightblue" d="M63.57,-285.63C91.2,-298.87 141.13,-322.81 172.87,-338.03"/>
<polygon fill="midnightblue" stroke="midnightblue" points="171.56,-341.28 182.09,-342.45 174.59,-334.97 171.56,-341.28"/>
</g>
<!-- Node24 -->
<g id="node24" class="node">
<title>Node24</title>
<g id="a_node24"><a xlink:href="a00503.xhtml#adf22d441c8866b9fe13aef59549e1cff" target="_top" xlink:title=" ">
<polygon fill="white" stroke="black" points="137.5,-190.5 137.5,-209.5 268.5,-209.5 268.5,-190.5 137.5,-190.5"/>
<text text-anchor="middle" x="203" y="-197.5" font-family="Helvetica,sans-Serif" font-size="10.00">CKeyFromChroma::getKey</text>
</a>
</g>
</g>
<!-- Node1&#45;&gt;Node24 -->
<g id="edge27" class="edge">
<title>Node1&#45;&gt;Node24</title>
<path fill="none" stroke="midnightblue" d="M63.57,-266.37C91.2,-253.13 141.13,-229.19 172.87,-213.97"/>
<polygon fill="midnightblue" stroke="midnightblue" points="174.59,-217.03 182.09,-209.55 171.56,-210.72 174.59,-217.03"/>
</g>
<!-- Node32 -->
<g id="node32" class="node">
<title>Node32</title>
<g id="a_node32"><a xlink:href="a00495.xhtml#ae6e3545cf196c5e2409365bc62b7c1de" target="_top" xlink:title=" ">
<polygon fill="white" stroke="black" points="156,-124.5 156,-143.5 250,-143.5 250,-124.5 156,-124.5"/>
<text text-anchor="middle" x="203" y="-131.5" font-family="Helvetica,sans-Serif" font-size="10.00">CVector::getMean</text>
</a>
</g>
</g>
<!-- Node1&#45;&gt;Node32 -->
<g id="edge37" class="edge">
<title>Node1&#45;&gt;Node32</title>
<path fill="none" stroke="midnightblue" d="M49.59,-266.41C61.57,-248.12 89.74,-207.66 121,-181 136.41,-167.86 156,-156.38 172.05,-148.06"/>
<polygon fill="midnightblue" stroke="midnightblue" points="173.68,-151.15 181.04,-143.53 170.53,-144.9 173.68,-151.15"/>
</g>
<!-- Node3 -->
<g id="node3" class="node">
<title>Node3</title>
<g id="a_node3"><a xlink:href="a00495.xhtml#abaadac98b1cad18b7b568852bc951696" target="_top" xlink:title=" ">
<polygon fill="white" stroke="black" points="537.5,-711.5 537.5,-730.5 614.5,-730.5 614.5,-711.5 537.5,-711.5"/>
<text text-anchor="middle" x="576" y="-718.5" font-family="Helvetica,sans-Serif" font-size="10.00">CVector::alloc</text>
</a>
</g>
</g>
<!-- Node2&#45;&gt;Node3 -->
<g id="edge2" class="edge">
<title>Node2&#45;&gt;Node3</title>
<path fill="none" stroke="midnightblue" d="M215.42,-618.55C235.4,-634.72 278.65,-667.24 321,-683 389.61,-708.53 474.7,-716.94 526.9,-719.69"/>
<polygon fill="midnightblue" stroke="midnightblue" points="527.05,-723.21 537.2,-720.19 527.38,-716.21 527.05,-723.21"/>
</g>
<!-- Node4 -->
<g id="node4" class="node">
<title>Node4</title>
<g id="a_node4"><a xlink:href="a00495.xhtml#a6dbb3f9f480568b60f7fe50090d20003" target="_top" xlink:title=" ">
<polygon fill="white" stroke="black" points="661,-711.5 661,-730.5 750,-730.5 750,-711.5 661,-711.5"/>
<text text-anchor="middle" x="705.5" y="-718.5" font-family="Helvetica,sans-Serif" font-size="10.00">CVector::setZero</text>
</a>
</g>
</g>
<!-- Node3&#45;&gt;Node4 -->
<g id="edge3" class="edge">
<title>Node3&#45;&gt;Node4</title>
<path fill="none" stroke="midnightblue" d="M614.56,-721C625.93,-721 638.63,-721 650.83,-721"/>
<polygon fill="midnightblue" stroke="midnightblue" points="650.92,-724.5 660.92,-721 650.92,-717.5 650.92,-724.5"/>
</g>
<!-- Node6 -->
<g id="node6" class="node">
<title>Node6</title>
<g id="a_node6"><a xlink:href="a00463.xhtml#aefd1cebf296212209ba41f38939e07bf" target="_top" xlink:title=" ">
<polygon fill="white" stroke="black" points="351,-556 351,-586 461,-586 461,-556 351,-556"/>
<text text-anchor="start" x="359" y="-574" font-family="Helvetica,sans-Serif" font-size="10.00">CFeatureFromBlockIf</text>
<text text-anchor="middle" x="406" y="-563" font-family="Helvetica,sans-Serif" font-size="10.00">::compFeature</text>
</a>
</g>
</g>
<!-- Node5&#45;&gt;Node6 -->
<g id="edge5" class="edge">
<title>Node5&#45;&gt;Node6</title>
<path fill="none" stroke="midnightblue" d="M217.79,-487.72C239.06,-502.34 281.56,-530.07 321,-547 327.52,-549.8 334.45,-552.37 341.44,-554.72"/>
<polygon fill="midnightblue" stroke="midnightblue" points="340.37,-558.05 350.96,-557.76 342.51,-551.38 340.37,-558.05"/>
</g>
<!-- Node7 -->
<g id="node7" class="node">
<title>Node7</title>
<g id="a_node7"><a xlink:href="a00459.xhtml#a7aef37fcf40e80cbace42fe663f47bbd" target="_top" xlink:title=" ">
<polygon fill="white" stroke="black" points="321,-654.5 321,-673.5 491,-673.5 491,-654.5 321,-654.5"/>
<text text-anchor="middle" x="406" y="-661.5" font-family="Helvetica,sans-Serif" font-size="10.00">CFeatureIf::computeMagSpectrum_</text>
</a>
</g>
</g>
<!-- Node5&#45;&gt;Node7 -->
<g id="edge6" class="edge">
<title>Node5&#45;&gt;Node7</title>
<path fill="none" stroke="midnightblue" d="M211.31,-487.78C225.7,-507.11 258.6,-551.65 285,-590 301.56,-614.07 297,-628.34 321,-645 323.76,-646.92 326.69,-648.65 329.73,-650.2"/>
<polygon fill="midnightblue" stroke="midnightblue" points="328.58,-653.52 339.14,-654.37 331.42,-647.12 328.58,-653.52"/>
</g>
<!-- Node15 -->
<g id="node15" class="node">
<title>Node15</title>
<g id="a_node15"><a xlink:href="a00463.xhtml#a8bf822f58aa66fc4787c5528352575c0" target="_top" xlink:title=" ">
<polygon fill="white" stroke="black" points="346.5,-381 346.5,-411 465.5,-411 465.5,-381 346.5,-381"/>
<text text-anchor="start" x="354.5" y="-399" font-family="Helvetica,sans-Serif" font-size="10.00">CFeatureFromBlockIf</text>
<text text-anchor="middle" x="406" y="-388" font-family="Helvetica,sans-Serif" font-size="10.00">::getFeatureDimensions</text>
</a>
</g>
</g>
<!-- Node5&#45;&gt;Node15 -->
<g id="edge15" class="edge">
<title>Node5&#45;&gt;Node15</title>
<path fill="none" stroke="midnightblue" d="M221.43,-468.38C243.95,-456.23 284.57,-435.18 321,-421 326.96,-418.68 333.22,-416.45 339.53,-414.34"/>
<polygon fill="midnightblue" stroke="midnightblue" points="341,-417.54 349.44,-411.13 338.85,-410.88 341,-417.54"/>
</g>
<!-- Node16 -->
<g id="node16" class="node">
<title>Node16</title>
<g id="a_node16"><a xlink:href="a00463.xhtml#ab6ab50f7ebebbabec7e1610bc04a3328" target="_top" xlink:title=" ">
<polygon fill="white" stroke="black" points="351,-507 351,-537 461,-537 461,-507 351,-507"/>
<text text-anchor="start" x="359" y="-525" font-family="Helvetica,sans-Serif" font-size="10.00">CFeatureFromBlockIf</text>
<text text-anchor="middle" x="406" y="-514" font-family="Helvetica,sans-Serif" font-size="10.00">::getFeatureIdx</text>
</a>
</g>
</g>
<!-- Node5&#45;&gt;Node16 -->
<g id="edge16" class="edge">
<title>Node5&#45;&gt;Node16</title>
<path fill="none" stroke="midnightblue" d="M247.61,-487.55C274.79,-493.5 310.25,-501.26 340.62,-507.91"/>
<polygon fill="midnightblue" stroke="midnightblue" points="340.19,-511.4 350.71,-510.12 341.69,-504.56 340.19,-511.4"/>
</g>
<!-- Node17 -->
<g id="node17" class="node">
<title>Node17</title>
<g id="a_node17"><a xlink:href="a00535.xhtml#a531920b36b04ecdb562bfbb09dd2e856" target="_top" xlink:title=" ">
<polygon fill="white" stroke="black" points="335,-468.5 335,-487.5 477,-487.5 477,-468.5 335,-468.5"/>
<text text-anchor="middle" x="406" y="-475.5" font-family="Helvetica,sans-Serif" font-size="10.00">CBlockAudioIf::getNextBlock</text>
</a>
</g>
</g>
<!-- Node5&#45;&gt;Node17 -->
<g id="edge17" class="edge">
<title>Node5&#45;&gt;Node17</title>
<path fill="none" stroke="midnightblue" d="M277.7,-478C293.05,-478 309.3,-478 324.87,-478"/>
<polygon fill="midnightblue" stroke="midnightblue" points="324.98,-481.5 334.98,-478 324.98,-474.5 324.98,-481.5"/>
</g>
<!-- Node18 -->
<g id="node18" class="node">
<title>Node18</title>
<g id="a_node18"><a xlink:href="a00535.xhtml#a595b3a391e2540a1dc9e53edf8634494" target="_top" xlink:title=" ">
<polygon fill="white" stroke="black" points="332,-342.5 332,-361.5 480,-361.5 480,-342.5 332,-342.5"/>
<text text-anchor="middle" x="406" y="-349.5" font-family="Helvetica,sans-Serif" font-size="10.00">CBlockAudioIf::getNumBlocks</text>
</a>
</g>
</g>
<!-- Node5&#45;&gt;Node18 -->
<g id="edge18" class="edge">
<title>Node5&#45;&gt;Node18</title>
<path fill="none" stroke="midnightblue" d="M211.64,-468.36C228.81,-447.37 272.74,-397.43 321,-372 326.27,-369.22 331.92,-366.83 337.72,-364.76"/>
<polygon fill="midnightblue" stroke="midnightblue" points="339.12,-367.99 347.56,-361.58 336.97,-361.33 339.12,-367.99"/>
</g>
<!-- Node19 -->
<g id="node19" class="node">
<title>Node19</title>
<g id="a_node19"><a xlink:href="a00459.xhtml#a2aac3d25c179044493ad1c96fa877709" target="_top" xlink:title=" ">
<polygon fill="white" stroke="black" points="331.5,-430.5 331.5,-449.5 480.5,-449.5 480.5,-430.5 331.5,-430.5"/>
<text text-anchor="middle" x="406" y="-437.5" font-family="Helvetica,sans-Serif" font-size="10.00">CFeatureIf::isFeatureSpectral_</text>
</a>
</g>
</g>
<!-- Node5&#45;&gt;Node19 -->
<g id="edge19" class="edge">
<title>Node5&#45;&gt;Node19</title>
<path fill="none" stroke="midnightblue" d="M254.46,-468.46C281.82,-463.29 315.82,-456.86 344.58,-451.42"/>
<polygon fill="midnightblue" stroke="midnightblue" points="345.34,-454.84 354.52,-449.54 344.04,-447.96 345.34,-454.84"/>
</g>
<!-- Node20 -->
<g id="node20" class="node">
<title>Node20</title>
<g id="a_node20"><a xlink:href="a00591.xhtml#aa8a561b4133585586c5b595116a9217f" target="_top" xlink:title=" ">
<polygon fill="white" stroke="black" points="337.5,-605 337.5,-635 474.5,-635 474.5,-605 337.5,-605"/>
<text text-anchor="start" x="345.5" y="-623" font-family="Helvetica,sans-Serif" font-size="10.00">CNormalizeAudio::normalize</text>
<text text-anchor="middle" x="406" y="-612" font-family="Helvetica,sans-Serif" font-size="10.00">Block</text>
</a>
</g>
</g>
<!-- Node5&#45;&gt;Node20 -->
<g id="edge20" class="edge">
<title>Node5&#45;&gt;Node20</title>
<path fill="none" stroke="midnightblue" d="M210.73,-487.58C226.99,-510.02 270.84,-566.34 321,-596 323.87,-597.7 326.87,-599.28 329.95,-600.76"/>
<polygon fill="midnightblue" stroke="midnightblue" points="328.84,-604.09 339.41,-604.87 331.64,-597.67 328.84,-604.09"/>
</g>
<!-- Node8 -->
<g id="node8" class="node">
<title>Node8</title>
<g id="a_node8"><a xlink:href="a00467.xhtml#a3cae73896785c2f12ba979e15de48087" target="_top" xlink:title=" ">
<polygon fill="white" stroke="black" points="538,-673.5 538,-692.5 614,-692.5 614,-673.5 538,-673.5"/>
<text text-anchor="middle" x="576" y="-680.5" font-family="Helvetica,sans-Serif" font-size="10.00">CFft::compFft</text>
</a>
</g>
</g>
<!-- Node7&#45;&gt;Node8 -->
<g id="edge7" class="edge">
<title>Node7&#45;&gt;Node8</title>
<path fill="none" stroke="midnightblue" d="M491.49,-673.56C504,-674.97 516.5,-676.38 527.87,-677.67"/>
<polygon fill="midnightblue" stroke="midnightblue" points="527.64,-681.17 537.97,-678.81 528.43,-674.21 527.64,-681.17"/>
</g>
<!-- Node12 -->
<g id="node12" class="node">
<title>Node12</title>
<g id="a_node12"><a xlink:href="a00467.xhtml#a9cb162394031e8b496f7a39b51c31d20" target="_top" xlink:title=" ">
<polygon fill="white" stroke="black" points="534.5,-635.5 534.5,-654.5 617.5,-654.5 617.5,-635.5 534.5,-635.5"/>
<text text-anchor="middle" x="576" y="-642.5" font-family="Helvetica,sans-Serif" font-size="10.00">CFft::getLength</text>
</a>
</g>
</g>
<!-- Node7&#45;&gt;Node12 -->
<g id="edge12" class="edge">
<title>Node7&#45;&gt;Node12</title>
<path fill="none" stroke="midnightblue" d="M491.49,-654.44C502.65,-653.18 513.79,-651.92 524.13,-650.75"/>
<polygon fill="midnightblue" stroke="midnightblue" points="524.64,-654.22 534.18,-649.62 523.85,-647.26 524.64,-654.22"/>
</g>
<!-- Node13 -->
<g id="node13" class="node">
<title>Node13</title>
<g id="a_node13"><a xlink:href="a00467.xhtml#a48428f0ac37a3c112c9598c784771d4a" target="_top" xlink:title=" ">
<polygon fill="white" stroke="black" points="527,-597.5 527,-616.5 625,-616.5 625,-597.5 527,-597.5"/>
<text text-anchor="middle" x="576" y="-604.5" font-family="Helvetica,sans-Serif" font-size="10.00">CFft::getMagnitude</text>
</a>
</g>
</g>
<!-- Node7&#45;&gt;Node13 -->
<g id="edge13" class="edge">
<title>Node7&#45;&gt;Node13</title>
<path fill="none" stroke="midnightblue" d="M459.15,-654.45C469.84,-651.87 480.9,-648.73 491,-645 507.97,-638.73 510.56,-633.56 527,-626 531.14,-624.09 535.53,-622.2 539.91,-620.38"/>
<polygon fill="midnightblue" stroke="midnightblue" points="541.42,-623.54 549.37,-616.55 538.79,-617.05 541.42,-623.54"/>
</g>
<!-- Node14 -->
<g id="node14" class="node">
<title>Node14</title>
<g id="a_node14"><a xlink:href="a00495.xhtml#a9811f50434dd058d201290b2dc98bfcd" target="_top" xlink:title=" ">
<polygon fill="white" stroke="black" points="532.5,-559.5 532.5,-578.5 619.5,-578.5 619.5,-559.5 532.5,-559.5"/>
<text text-anchor="middle" x="576" y="-566.5" font-family="Helvetica,sans-Serif" font-size="10.00">CVector::mulC_I</text>
</a>
</g>
</g>
<!-- Node7&#45;&gt;Node14 -->
<g id="edge14" class="edge">
<title>Node7&#45;&gt;Node14</title>
<path fill="none" stroke="midnightblue" d="M472.93,-654.47C479.35,-651.99 485.5,-648.88 491,-645 515.47,-627.71 503.93,-607.12 527,-588 529.02,-586.32 531.21,-584.78 533.5,-583.37"/>
<polygon fill="midnightblue" stroke="midnightblue" points="535.49,-586.27 542.7,-578.51 532.22,-580.08 535.49,-586.27"/>
</g>
<!-- Node8&#45;&gt;Node4 -->
<g id="edge11" class="edge">
<title>Node8&#45;&gt;Node4</title>
<path fill="none" stroke="midnightblue" d="M609.17,-692.59C625.33,-697.4 645.11,-703.3 662.45,-708.47"/>
<polygon fill="midnightblue" stroke="midnightblue" points="661.75,-711.91 672.34,-711.41 663.75,-705.2 661.75,-711.91"/>
</g>
<!-- Node9 -->
<g id="node9" class="node">
<title>Node9</title>
<g id="a_node9"><a xlink:href="a00495.xhtml#ad7c5cba73e439adac77778f61c9418f0" target="_top" xlink:title=" ">
<polygon fill="white" stroke="black" points="667,-340.5 667,-359.5 744,-359.5 744,-340.5 667,-340.5"/>
<text text-anchor="middle" x="705.5" y="-347.5" font-family="Helvetica,sans-Serif" font-size="10.00">CVector::copy</text>
</a>
</g>
</g>
<!-- Node8&#45;&gt;Node9 -->
<g id="edge8" class="edge">
<title>Node8&#45;&gt;Node9</title>
<path fill="none" stroke="midnightblue" d="M612.57,-673.49C617.23,-671.02 621.57,-667.9 625,-664 702.12,-576.24 706.43,-424.12 705.31,-369.9"/>
<polygon fill="midnightblue" stroke="midnightblue" points="708.8,-369.5 705,-359.61 701.8,-369.71 708.8,-369.5"/>
</g>
<!-- Node10 -->
<g id="node10" class="node">
<title>Node10</title>
<g id="a_node10"><a xlink:href="a00495.xhtml#a5fb59528a3f5d3968f988d550b270898" target="_top" xlink:title=" ">
<polygon fill="white" stroke="black" points="665.5,-673.5 665.5,-692.5 745.5,-692.5 745.5,-673.5 665.5,-673.5"/>
<text text-anchor="middle" x="705.5" y="-680.5" font-family="Helvetica,sans-Serif" font-size="10.00">CVector::mul_I</text>
</a>
</g>
</g>
<!-- Node8&#45;&gt;Node10 -->
<g id="edge9" class="edge">
<title>Node8&#45;&gt;Node10</title>
<path fill="none" stroke="midnightblue" d="M614.22,-683C626.99,-683 641.49,-683 655.07,-683"/>
<polygon fill="midnightblue" stroke="midnightblue" points="655.23,-686.5 665.23,-683 655.23,-679.5 655.23,-686.5"/>
</g>
<!-- Node11 -->
<g id="node11" class="node">
<title>Node11</title>
<g id="a_node11"><a xlink:href="a00302.xhtml#a32fc71031e721d003fd1dc07f771351d" target="_top" xlink:title=" ">
<polygon fill="white" stroke="black" points="662.5,-624 662.5,-654 748.5,-654 748.5,-624 662.5,-624"/>
<text text-anchor="start" x="670.5" y="-642" font-family="Helvetica,sans-Serif" font-size="10.00">LaszloFft::realfft</text>
<text text-anchor="middle" x="705.5" y="-631" font-family="Helvetica,sans-Serif" font-size="10.00">_split</text>
</a>
</g>
</g>
<!-- Node8&#45;&gt;Node11 -->
<g id="edge10" class="edge">
<title>Node8&#45;&gt;Node11</title>
<path fill="none" stroke="midnightblue" d="M604.67,-673.45C618.75,-668.59 636.33,-662.53 652.8,-656.84"/>
<polygon fill="midnightblue" stroke="midnightblue" points="654.02,-660.12 662.33,-653.55 651.74,-653.5 654.02,-660.12"/>
</g>
<!-- Node20&#45;&gt;Node14 -->
<g id="edge21" class="edge">
<title>Node20&#45;&gt;Node14</title>
<path fill="none" stroke="midnightblue" d="M460.85,-604.9C470.89,-602 481.28,-598.95 491,-596 505.74,-591.53 521.87,-586.4 536.02,-581.82"/>
<polygon fill="midnightblue" stroke="midnightblue" points="537.49,-585.02 545.92,-578.61 535.33,-578.37 537.49,-585.02"/>
</g>
<!-- Node22 -->
<g id="node22" class="node">
<title>Node22</title>
<g id="a_node22"><a xlink:href="a00495.xhtml#aa86bdb0c663d4d52f2765793756f8737" target="_top" xlink:title=" ">
<polygon fill="white" stroke="black" points="369.5,-0.5 369.5,-19.5 442.5,-19.5 442.5,-0.5 369.5,-0.5"/>
<text text-anchor="middle" x="406" y="-7.5" font-family="Helvetica,sans-Serif" font-size="10.00">CVector::free</text>
</a>
</g>
</g>
<!-- Node21&#45;&gt;Node22 -->
<g id="edge23" class="edge">
<title>Node21&#45;&gt;Node22</title>
<path fill="none" stroke="midnightblue" d="M238.55,-34.01C271.9,-29.2 322.58,-21.89 359.26,-16.6"/>
<polygon fill="midnightblue" stroke="midnightblue" points="359.81,-20.06 369.21,-15.16 358.81,-13.13 359.81,-20.06"/>
</g>
<!-- Node23&#45;&gt;Node15 -->
<g id="edge25" class="edge">
<title>Node23&#45;&gt;Node15</title>
<path fill="none" stroke="midnightblue" d="M247.61,-361.55C273.55,-367.22 307.02,-374.55 336.42,-380.99"/>
<polygon fill="midnightblue" stroke="midnightblue" points="335.7,-384.41 346.22,-383.13 337.2,-377.57 335.7,-384.41"/>
</g>
<!-- Node23&#45;&gt;Node18 -->
<g id="edge26" class="edge">
<title>Node23&#45;&gt;Node18</title>
<path fill="none" stroke="midnightblue" d="M285.18,-352C297.26,-352 309.74,-352 321.86,-352"/>
<polygon fill="midnightblue" stroke="midnightblue" points="321.95,-355.5 331.95,-352 321.95,-348.5 321.95,-355.5"/>
</g>
<!-- Node24&#45;&gt;Node9 -->
<g id="edge29" class="edge">
<title>Node24&#45;&gt;Node9</title>
<path fill="none" stroke="midnightblue" d="M225.48,-190.5C242.75,-182.2 267.01,-168.98 285,-153 304.93,-135.29 297.15,-116.93 321,-105 381.89,-74.55 574.73,-97.08 625,-143 680.86,-194.03 697.81,-288.7 702.67,-329.93"/>
<polygon fill="midnightblue" stroke="midnightblue" points="699.2,-330.49 703.74,-340.07 706.17,-329.75 699.2,-330.49"/>
</g>
<!-- Node24&#45;&gt;Node14 -->
<g id="edge34" class="edge">
<title>Node24&#45;&gt;Node14</title>
<path fill="none" stroke="midnightblue" d="M212.66,-209.53C230.78,-228.84 274.84,-272.65 321,-295 390.68,-328.74 433.02,-281.7 491,-333 556.46,-390.92 570.91,-503.34 574.1,-549"/>
<polygon fill="midnightblue" stroke="midnightblue" points="570.61,-549.32 574.69,-559.1 577.6,-548.91 570.61,-549.32"/>
</g>
<!-- Node25 -->
<g id="node25" class="node">
<title>Node25</title>
<g id="a_node25"><a xlink:href="a00495.xhtml#a22ff86e4fc2f8d5042159d9c84a7ff14" target="_top" xlink:title=" ">
<polygon fill="white" stroke="black" points="362.5,-266.5 362.5,-285.5 449.5,-285.5 449.5,-266.5 362.5,-266.5"/>
<text text-anchor="middle" x="406" y="-273.5" font-family="Helvetica,sans-Serif" font-size="10.00">CVector::addC_I</text>
</a>
</g>
</g>
<!-- Node24&#45;&gt;Node25 -->
<g id="edge28" class="edge">
<title>Node24&#45;&gt;Node25</title>
<path fill="none" stroke="midnightblue" d="M220.52,-209.57C242.72,-222.07 283.69,-243.89 321,-257 330.94,-260.49 341.78,-263.5 352.26,-266.03"/>
<polygon fill="midnightblue" stroke="midnightblue" points="351.63,-269.48 362.16,-268.31 353.2,-262.66 351.63,-269.48"/>
</g>
<!-- Node26 -->
<g id="node26" class="node">
<title>Node26</title>
<g id="a_node26"><a xlink:href="a00495.xhtml#aab8d1ce72a924e66e81e4802a9bed2a0" target="_top" xlink:title=" ">
<polygon fill="white" stroke="black" points="347,-228.5 347,-247.5 465,-247.5 465,-228.5 347,-228.5"/>
<text text-anchor="middle" x="406" y="-235.5" font-family="Helvetica,sans-Serif" font-size="10.00">CVector::distManhattan</text>
</a>
</g>
</g>
<!-- Node24&#45;&gt;Node26 -->
<g id="edge30" class="edge">
<title>Node24&#45;&gt;Node26</title>
<path fill="none" stroke="midnightblue" d="M254.46,-209.54C281.82,-214.71 315.82,-221.14 344.58,-226.58"/>
<polygon fill="midnightblue" stroke="midnightblue" points="344.04,-230.04 354.52,-228.46 345.34,-223.16 344.04,-230.04"/>
</g>
<!-- Node27 -->
<g id="node27" class="node">
<title>Node27</title>
<g id="a_node27"><a xlink:href="a00495.xhtml#ad475dff5686f7f82472071000a542806" target="_top" xlink:title=" ">
<polygon fill="white" stroke="black" points="362.5,-190.5 362.5,-209.5 449.5,-209.5 449.5,-190.5 362.5,-190.5"/>
<text text-anchor="middle" x="406" y="-197.5" font-family="Helvetica,sans-Serif" font-size="10.00">CVector::findMin</text>
</a>
</g>
</g>
<!-- Node24&#45;&gt;Node27 -->
<g id="edge31" class="edge">
<title>Node24&#45;&gt;Node27</title>
<path fill="none" stroke="midnightblue" d="M268.7,-200C295.64,-200 326.51,-200 352.06,-200"/>
<polygon fill="midnightblue" stroke="midnightblue" points="352.29,-203.5 362.29,-200 352.29,-196.5 352.29,-203.5"/>
</g>
<!-- Node28 -->
<g id="node28" class="node">
<title>Node28</title>
<g id="a_node28"><a xlink:href="a00483.xhtml#a23d9877584d712c17811a9833835605e" target="_top" xlink:title=" ">
<polygon fill="white" stroke="black" points="363,-114.5 363,-133.5 449,-133.5 449,-114.5 363,-114.5"/>
<text text-anchor="middle" x="406" y="-121.5" font-family="Helvetica,sans-Serif" font-size="10.00">CRingBuffer::get</text>
</a>
</g>
</g>
<!-- Node24&#45;&gt;Node28 -->
<g id="edge32" class="edge">
<title>Node24&#45;&gt;Node28</title>
<path fill="none" stroke="midnightblue" d="M220.52,-190.43C242.72,-177.93 283.69,-156.11 321,-143 331.05,-139.47 342.01,-136.43 352.6,-133.89"/>
<polygon fill="midnightblue" stroke="midnightblue" points="353.62,-137.24 362.59,-131.6 352.06,-130.42 353.62,-137.24"/>
</g>
<!-- Node29 -->
<g id="node29" class="node">
<title>Node29</title>
<g id="a_node29"><a xlink:href="a00495.xhtml#abdbcc3898121387f3694f74491b7331e" target="_top" xlink:title=" ">
<polygon fill="white" stroke="black" points="361,-38.5 361,-57.5 451,-57.5 451,-38.5 361,-38.5"/>
<text text-anchor="middle" x="406" y="-45.5" font-family="Helvetica,sans-Serif" font-size="10.00">CVector::getSum</text>
</a>
</g>
</g>
<!-- Node24&#45;&gt;Node29 -->
<g id="edge33" class="edge">
<title>Node24&#45;&gt;Node29</title>
<path fill="none" stroke="midnightblue" d="M229.08,-190.39C246.67,-182.58 269.68,-170.06 285,-153 311.32,-123.69 291.26,-97.84 321,-72 329.5,-64.61 340.14,-59.49 350.96,-55.94"/>
<polygon fill="midnightblue" stroke="midnightblue" points="352.24,-59.22 360.89,-53.11 350.31,-52.49 352.24,-59.22"/>
</g>
<!-- Node30 -->
<g id="node30" class="node">
<title>Node30</title>
<g id="a_node30"><a xlink:href="a00483.xhtml#af265a6322c4b1584c880def00d31e663" target="_top" xlink:title=" ">
<polygon fill="white" stroke="black" points="345,-152.5 345,-171.5 467,-171.5 467,-152.5 345,-152.5"/>
<text text-anchor="middle" x="406" y="-159.5" font-family="Helvetica,sans-Serif" font-size="10.00">CRingBuffer::setReadIdx</text>
</a>
</g>
</g>
<!-- Node24&#45;&gt;Node30 -->
<g id="edge35" class="edge">
<title>Node24&#45;&gt;Node30</title>
<path fill="none" stroke="midnightblue" d="M254.46,-190.46C281.82,-185.29 315.82,-178.86 344.58,-173.42"/>
<polygon fill="midnightblue" stroke="midnightblue" points="345.34,-176.84 354.52,-171.54 344.04,-169.96 345.34,-176.84"/>
</g>
<!-- Node31 -->
<g id="node31" class="node">
<title>Node31</title>
<g id="a_node31"><a xlink:href="a00483.xhtml#a67eddecd2a880c52c80093774bc37c24" target="_top" xlink:title=" ">
<polygon fill="white" stroke="black" points="527,-152.5 527,-171.5 625,-171.5 625,-152.5 527,-152.5"/>
<text text-anchor="middle" x="576" y="-159.5" font-family="Helvetica,sans-Serif" font-size="10.00">CRingBuffer::incIdx</text>
</a>
</g>
</g>
<!-- Node30&#45;&gt;Node31 -->
<g id="edge36" class="edge">
<title>Node30&#45;&gt;Node31</title>
<path fill="none" stroke="midnightblue" d="M467.18,-162C483.24,-162 500.57,-162 516.54,-162"/>
<polygon fill="midnightblue" stroke="midnightblue" points="516.82,-165.5 526.82,-162 516.82,-158.5 516.82,-165.5"/>
</g>
<!-- Node32&#45;&gt;Node29 -->
<g id="edge38" class="edge">
<title>Node32&#45;&gt;Node29</title>
<path fill="none" stroke="midnightblue" d="M219.39,-124.5C241.3,-111.29 283.04,-87.28 321,-72 331.88,-67.62 343.86,-63.69 355.27,-60.35"/>
<polygon fill="midnightblue" stroke="midnightblue" points="356.44,-63.65 365.11,-57.56 354.54,-56.92 356.44,-63.65"/>
</g>
</g>
</svg>
        <g id="navigator" transform="translate(0 0)" fill="#404254">
                <rect fill="#f2f5e9" fill-opacity="0.5" stroke="#606060" stroke-width=".5" x="0" y="0" width="60" height="60"/>
                <use id="zoomplus" xlink:href="#zoomPlus" x="17" y="9" onmousedown="handleZoom(evt,'in')"/>
                <use id="zoomminus" xlink:href="#zoomMin" x="42" y="9" onmousedown="handleZoom(evt,'out')"/>
                <use id="reset" xlink:href="#resetDef" x="30" y="36" onmousedown="handleReset()"/>
                <g id="arrowUp" xlink:href="#dirArrow" transform="translate(30 24)" onmousedown="handlePan(0,-1)">
                  <use xlink:href="#rim" fill="#404040">
                        <set attributeName="fill" to="#808080" begin="arrowUp.mouseover" end="arrowUp.mouseout"/>
                  </use>
                  <path fill="none" stroke="white" stroke-width="1.5" d="M0,-3.0v7 M-2.5,-0.5L0,-3.0L2.5,-0.5"/>
                </g>
                <g id="arrowRight" xlink:href="#dirArrow" transform="rotate(90) translate(36 -43)" onmousedown="handlePan(1,0)">
                  <use xlink:href="#rim" fill="#404040">
                        <set attributeName="fill" to="#808080" begin="arrowRight.mouseover" end="arrowRight.mouseout"/>
                  </use>
                  <path fill="none" stroke="white" stroke-width="1.5" d="M0,-3.0v7 M-2.5,-0.5L0,-3.0L2.5,-0.5"/>
                </g>
                <g id="arrowDown" xlink:href="#dirArrow" transform="rotate(180) translate(-30 -48)" onmousedown="handlePan(0,1)">
                  <use xlink:href="#rim" fill="#404040">
                        <set attributeName="fill" to="#808080" begin="arrowDown.mouseover" end="arrowDown.mouseout"/>
                  </use>
                  <path fill="none" stroke="white" stroke-width="1.5" d="M0,-3.0v7 M-2.5,-0.5L0,-3.0L2.5,-0.5"/>
                </g>
                <g id="arrowLeft" xlink:href="#dirArrow" transform="rotate(270) translate(-36 17)" onmousedown="handlePan(-1,0)">
                  <use xlink:href="#rim" fill="#404040">
                        <set attributeName="fill" to="#808080" begin="arrowLeft.mouseover" end="arrowLeft.mouseout"/>
                  </use>
                  <path fill="none" stroke="white" stroke-width="1.5" d="M0,-3.0v7 M-2.5,-0.5L0,-3.0L2.5,-0.5"/>
                </g>
        </g>
        <svg viewBox="0 0 15 15" width="100%" height="30px" preserveAspectRatio="xMaxYMin meet">
         <g id="arrow_out" transform="scale(0.3 0.3)">
          <a xlink:href="a00499_a343e6b52e9696244dd57d4db0f91d056_cgraph_org.svg" target="_base">
           <rect id="button" ry="5" rx="5" y="6" x="6" height="38" width="38"
                fill="#f2f5e9" fill-opacity="0.5" stroke="#606060" stroke-width="1.0"/>
           <path id="arrow"
             d="M 11.500037,31.436501 C 11.940474,20.09759 22.043105,11.32322 32.158766,21.979434 L 37.068811,17.246167 C 37.068811,17.246167 37.088388,32 37.088388,32 L 22.160133,31.978069 C 22.160133,31.978069 26.997745,27.140456 26.997745,27.140456 C 18.528582,18.264221 13.291696,25.230495 11.500037,31.436501 z"
             style="fill:#404040;"/>
          </a>
         </g>
        </svg>
</svg>
