<?xml version="1.0" encoding="UTF-8" standalone="no"?>
<!DOCTYPE svg PUBLIC "-//W3C//DTD SVG 1.1//EN"
 "http://www.w3.org/Graphics/SVG/1.1/DTD/svg11.dtd">
<!-- Generated by graphviz version 6.0.1 (20220911.1526)
 -->
<!-- Title: CAudioFileIf::convFrames2Bytes_ Pages: 1 -->
<svg width="502pt" height="161pt"
 viewBox="0.00 0.00 502.00 160.50" xmlns="http://www.w3.org/2000/svg" xmlns:xlink="http://www.w3.org/1999/xlink">
<g id="graph0" class="graph" transform="scale(1 1) rotate(0) translate(4 156.5)">
<title>CAudioFileIf::convFrames2Bytes_</title>
<!-- Node1 -->
<g id="node1" class="node">
<title>Node1</title>
<g id="a_node1"><a xlink:title=" ">
<polygon fill="#999999" stroke="#666666" points="494,-99 360,-99 360,-69 494,-69 494,-99"/>
<text text-anchor="start" x="368" y="-87" font-family="Helvetica,sans-Serif" font-size="10.00">CAudioFileIf::convFrames2</text>
<text text-anchor="middle" x="427" y="-76" font-family="Helvetica,sans-Serif" font-size="10.00">Bytes_</text>
</a>
</g>
</g>
<!-- Node2 -->
<g id="node2" class="node">
<title>Node2</title>
<g id="a_node2"><a xlink:href="a00438.xhtml#a11bbaadab88f5a801ea60a518069e40d" target="_top" xlink:title=" ">
<polygon fill="white" stroke="#666666" points="314.5,-152.5 176.5,-152.5 176.5,-133.5 314.5,-133.5 314.5,-152.5"/>
<text text-anchor="middle" x="245.5" y="-140.5" font-family="Helvetica,sans-Serif" font-size="10.00">CAudioFileSndLib::closeFile</text>
</a>
</g>
</g>
<!-- Node1&#45;&gt;Node2 -->
<g id="edge1" class="edge">
<title>Node1&#45;&gt;Node2</title>
<path fill="none" stroke="#63b8ff" d="M382.43,-103.23C364.55,-110.67 343.51,-118.85 324,-125 313.99,-128.15 303.09,-131.02 292.71,-133.5"/>
<polygon fill="#63b8ff" stroke="#63b8ff" points="384.16,-106.3 392.01,-99.19 381.44,-99.85 384.16,-106.3"/>
</g>
<!-- Node3 -->
<g id="node3" class="node">
<title>Node3</title>
<g id="a_node3"><a xlink:href="a00434.xhtml#a62ab9a934151001b1e87ea36fe8dbdbf" target="_top" xlink:title=" ">
<polygon fill="white" stroke="#666666" points="324,-115.5 167,-115.5 167,-96.5 324,-96.5 324,-115.5"/>
<text text-anchor="middle" x="245.5" y="-103.5" font-family="Helvetica,sans-Serif" font-size="10.00">CAudioFileRaw::readDataIntern_</text>
</a>
</g>
</g>
<!-- Node1&#45;&gt;Node3 -->
<g id="edge2" class="edge">
<title>Node1&#45;&gt;Node3</title>
<path fill="none" stroke="#63b8ff" d="M349.75,-93.35C341.32,-94.38 332.73,-95.43 324.29,-96.47"/>
<polygon fill="#63b8ff" stroke="#63b8ff" points="350.43,-96.79 359.93,-92.1 349.57,-89.84 350.43,-96.79"/>
</g>
<!-- Node4 -->
<g id="node4" class="node">
<title>Node4</title>
<g id="a_node4"><a xlink:href="a00434.xhtml#a9597fb10fa453bb1441245c01f37178d" target="_top" xlink:title=" ">
<polygon fill="white" stroke="#666666" points="314,-78 177,-78 177,-48 314,-48 314,-78"/>
<text text-anchor="start" x="185" y="-66" font-family="Helvetica,sans-Serif" font-size="10.00">CAudioFileRaw::setPosition</text>
<text text-anchor="middle" x="245.5" y="-55" font-family="Helvetica,sans-Serif" font-size="10.00">Intern_</text>
</a>
</g>
</g>
<!-- Node1&#45;&gt;Node4 -->
<g id="edge3" class="edge">
<title>Node1&#45;&gt;Node4</title>
<path fill="none" stroke="#63b8ff" d="M349.68,-75.07C337.9,-73.69 325.81,-72.28 314.24,-70.92"/>
<polygon fill="#63b8ff" stroke="#63b8ff" points="349.59,-78.58 359.93,-76.27 350.4,-71.63 349.59,-78.58"/>
</g>
<!-- Node6 -->
<g id="node6" class="node">
<title>Node6</title>
<g id="a_node6"><a xlink:href="a00434.xhtml#a611b099887caaba4eceaa387b8d98bd2" target="_top" xlink:title=" ">
<polygon fill="white" stroke="#666666" points="310,-30 181,-30 181,0 310,0 310,-30"/>
<text text-anchor="start" x="189" y="-18" font-family="Helvetica,sans-Serif" font-size="10.00">CAudioFileRaw::writeData</text>
<text text-anchor="middle" x="245.5" y="-7" font-family="Helvetica,sans-Serif" font-size="10.00">Intern_</text>
</a>
</g>
</g>
<!-- Node1&#45;&gt;Node6 -->
<g id="edge5" class="edge">
<title>Node1&#45;&gt;Node6</title>
<path fill="none" stroke="#63b8ff" d="M384.96,-64.6C366.53,-56.23 344.38,-46.62 324,-39 315.69,-35.89 306.77,-32.86 298.06,-30.05"/>
<polygon fill="#63b8ff" stroke="#63b8ff" points="383.68,-67.87 394.23,-68.85 386.6,-61.5 383.68,-67.87"/>
</g>
<!-- Node5 -->
<g id="node5" class="node">
<title>Node5</title>
<g id="a_node5"><a xlink:href="a00434.xhtml#a717073bbea221e58b273925538cf3ead" target="_top" xlink:title=" ">
<polygon fill="white" stroke="#666666" points="131,-78 0,-78 0,-48 131,-48 131,-78"/>
<text text-anchor="start" x="8" y="-66" font-family="Helvetica,sans-Serif" font-size="10.00">CAudioFileRaw::getLength</text>
<text text-anchor="middle" x="65.5" y="-55" font-family="Helvetica,sans-Serif" font-size="10.00">Intern_</text>
</a>
</g>
</g>
<!-- Node4&#45;&gt;Node5 -->
<g id="edge4" class="edge">
<title>Node4&#45;&gt;Node5</title>
<path fill="none" stroke="#63b8ff" d="M166.61,-63C154.74,-63 142.61,-63 131.06,-63"/>
<polygon fill="#63b8ff" stroke="#63b8ff" points="166.95,-66.5 176.95,-63 166.95,-59.5 166.95,-66.5"/>
</g>
</g>
</svg>
