<?xml version="1.0" encoding="UTF-8" standalone="no"?>
<!DOCTYPE svg PUBLIC "-//W3C//DTD SVG 1.1//EN"
 "http://www.w3.org/Graphics/SVG/1.1/DTD/svg11.dtd">
<!-- Generated by graphviz version 6.0.1 (20220911.1526)
 -->
<!-- Title: CFeatureFromBlockIf::getFeatureDimensions Pages: 1 -->
<svg width="522pt" height="64pt"
 viewBox="0.00 0.00 522.00 64.00" xmlns="http://www.w3.org/2000/svg" xmlns:xlink="http://www.w3.org/1999/xlink">
<g id="graph0" class="graph" transform="scale(1 1) rotate(0) translate(4 60)">
<title>CFeatureFromBlockIf::getFeatureDimensions</title>
<!-- Node1 -->
<g id="node1" class="node">
<title>Node1</title>
<g id="a_node1"><a xlink:title=" ">
<polygon fill="#999999" stroke="#666666" points="514,-42.5 395,-42.5 395,-12.5 514,-12.5 514,-42.5"/>
<text text-anchor="start" x="403" y="-30.5" font-family="Helvetica,sans-Serif" font-size="10.00">CFeatureFromBlockIf</text>
<text text-anchor="middle" x="454.5" y="-19.5" font-family="Helvetica,sans-Serif" font-size="10.00">::getFeatureDimensions</text>
</a>
</g>
</g>
<!-- Node2 -->
<g id="node2" class="node">
<title>Node2</title>
<g id="a_node2"><a xlink:href="a00466.xhtml#ad734d1e300583449f51e6ca80aa3e7b8" target="_top" xlink:title=" ">
<polygon fill="white" stroke="#666666" points="351.5,-56 202.5,-56 202.5,-37 351.5,-37 351.5,-56"/>
<text text-anchor="middle" x="277" y="-44" font-family="Helvetica,sans-Serif" font-size="10.00">CFeatureIf::compFeatureNDim</text>
</a>
</g>
</g>
<!-- Node1&#45;&gt;Node2 -->
<g id="edge1" class="edge">
<title>Node1&#45;&gt;Node2</title>
<path fill="none" stroke="#63b8ff" d="M384.42,-34.98C373.69,-36.14 362.57,-37.34 351.73,-38.52"/>
<polygon fill="#63b8ff" stroke="#63b8ff" points="385.01,-38.44 394.57,-33.88 384.25,-31.48 385.01,-38.44"/>
</g>
<!-- Node6 -->
<g id="node6" class="node">
<title>Node6</title>
<g id="a_node6"><a xlink:href="a00466.xhtml#ad7e4c2c40aa96ea2d91eafffcde0608a" target="_top" xlink:title=" ">
<polygon fill="white" stroke="#666666" points="359,-19 195,-19 195,0 359,0 359,-19"/>
<text text-anchor="middle" x="277" y="-7" font-family="Helvetica,sans-Serif" font-size="10.00">CFeatureIf::getFeatureDimensions</text>
</a>
</g>
</g>
<!-- Node1&#45;&gt;Node6 -->
<g id="edge5" class="edge">
<title>Node1&#45;&gt;Node6</title>
<path fill="none" stroke="#63b8ff" d="M384.57,-20.43C376.25,-19.58 367.7,-18.7 359.23,-17.83"/>
<polygon fill="#63b8ff" stroke="#63b8ff" points="384.27,-23.92 394.57,-21.46 384.98,-16.95 384.27,-23.92"/>
</g>
<!-- Node3 -->
<g id="node3" class="node">
<title>Node3</title>
<g id="a_node3"><a xlink:href="a00506.xhtml#a343e6b52e9696244dd57d4db0f91d056" target="_top" xlink:title=" ">
<polygon fill="white" stroke="#666666" points="159,-56 74,-56 74,-37 159,-37 159,-56"/>
<text text-anchor="middle" x="116.5" y="-44" font-family="Helvetica,sans-Serif" font-size="10.00">CKey::compKey</text>
</a>
</g>
</g>
<!-- Node2&#45;&gt;Node3 -->
<g id="edge2" class="edge">
<title>Node2&#45;&gt;Node3</title>
<path fill="none" stroke="#63b8ff" d="M192.19,-46.5C180.68,-46.5 169.29,-46.5 159.01,-46.5"/>
<polygon fill="#63b8ff" stroke="#63b8ff" points="192.32,-50 202.32,-46.5 192.32,-43 192.32,-50"/>
</g>
<!-- Node5 -->
<g id="node5" class="node">
<title>Node5</title>
<g id="a_node5"><a xlink:href="a00002.xhtml#a0ddf1224851353fc92bfbff6f499fa97" target="_top" xlink:title=" ">
<polygon fill="white" stroke="#666666" points="135.5,-19 97.5,-19 97.5,0 135.5,0 135.5,-19"/>
<text text-anchor="middle" x="116.5" y="-7" font-family="Helvetica,sans-Serif" font-size="10.00">main</text>
</a>
</g>
</g>
<!-- Node2&#45;&gt;Node5 -->
<g id="edge4" class="edge">
<title>Node2&#45;&gt;Node5</title>
<path fill="none" stroke="#63b8ff" d="M225.09,-34.62C194.5,-27.47 157.42,-18.82 135.75,-13.76"/>
<polygon fill="#63b8ff" stroke="#63b8ff" points="224.65,-38.11 235.18,-36.97 226.24,-31.29 224.65,-38.11"/>
</g>
<!-- Node4 -->
<g id="node4" class="node">
<title>Node4</title>
<g id="a_node4"><a xlink:href="a00122.xhtml#a0ddf1224851353fc92bfbff6f499fa97" target="_top" xlink:title=" ">
<polygon fill="white" stroke="#666666" points="38,-56 0,-56 0,-37 38,-37 38,-56"/>
<text text-anchor="middle" x="19" y="-44" font-family="Helvetica,sans-Serif" font-size="10.00">main</text>
</a>
</g>
</g>
<!-- Node3&#45;&gt;Node4 -->
<g id="edge3" class="edge">
<title>Node3&#45;&gt;Node4</title>
<path fill="none" stroke="#63b8ff" d="M63.61,-46.5C54.51,-46.5 45.62,-46.5 38.27,-46.5"/>
<polygon fill="#63b8ff" stroke="#63b8ff" points="63.89,-50 73.89,-46.5 63.89,-43 63.89,-50"/>
</g>
<!-- Node6&#45;&gt;Node3 -->
<g id="edge6" class="edge">
<title>Node6&#45;&gt;Node3</title>
<path fill="none" stroke="#63b8ff" d="M222.44,-21.23C213.28,-23.29 203.86,-25.43 195,-27.5 182.18,-30.49 168.21,-33.88 155.7,-36.96"/>
<polygon fill="#63b8ff" stroke="#63b8ff" points="223.24,-24.64 232.24,-19.04 221.72,-17.8 223.24,-24.64"/>
</g>
<!-- Node6&#45;&gt;Node5 -->
<g id="edge7" class="edge">
<title>Node6&#45;&gt;Node5</title>
<path fill="none" stroke="#63b8ff" d="M184.77,-9.5C166.1,-9.5 148.35,-9.5 135.77,-9.5"/>
<polygon fill="#63b8ff" stroke="#63b8ff" points="184.89,-13 194.89,-9.5 184.89,-6 184.89,-13"/>
</g>
</g>
</svg>
