<?xml version="1.0" encoding="UTF-8" standalone="no"?>
<!DOCTYPE svg PUBLIC "-//W3C//DTD SVG 1.1//EN"
 "http://www.w3.org/Graphics/SVG/1.1/DTD/svg11.dtd">
<!-- Generated by graphviz version 4.0.0 (20220602.1335)
 -->
<!-- Title: CRingBuffer::getNumValuesInBuffer Pages: 1 -->
<!--zoomable 165 -->
<svg id="main" version="1.1" xmlns="http://www.w3.org/2000/svg" xmlns:xlink="http://www.w3.org/1999/xlink" xml:space="preserve" onload="init(evt)">
<style type="text/css"><![CDATA[
.edge:hover path { stroke: red; }
.edge:hover polygon { stroke: red; fill: red; }
]]></style>
<script type="text/javascript"><![CDATA[
var edges = document.getElementsByTagName('g');
if (edges && edges.length) {
  for (var i=0;i<edges.length;i++) {
    if (edges[i].id.substr(0,4)=='edge') {
      edges[i].setAttribute('class','edge');
    }
  }
}
]]></script>
        <defs>
                <circle id="rim" cx="0" cy="0" r="7"/>
                <circle id="rim2" cx="0" cy="0" r="3.5"/>
                <g id="zoomPlus">
                        <use xlink:href="#rim" fill="#404040">
                                <set attributeName="fill" to="#808080" begin="zoomplus.mouseover" end="zoomplus.mouseout"/>
                        </use>
                        <path d="M-4,0h8M0,-4v8" fill="none" stroke="white" stroke-width="1.5" pointer-events="none"/>
                </g>
                <g id="zoomMin">
                        <use xlink:href="#rim" fill="#404040">
                                <set attributeName="fill" to="#808080" begin="zoomminus.mouseover" end="zoomminus.mouseout"/>
                        </use>
                        <path d="M-4,0h8" fill="none" stroke="white" stroke-width="1.5" pointer-events="none"/>
                </g>
                <g id="dirArrow">
                        <path fill="none" stroke="white" stroke-width="1.5" d="M0,-3.0v7 M-2.5,-0.5L0,-3.0L2.5,-0.5"/>
                </g>
               <g id="resetDef">
                       <use xlink:href="#rim2" fill="#404040">
                               <set attributeName="fill" to="#808080" begin="reset.mouseover" end="reset.mouseout"/>
                       </use>
               </g>
        </defs>

<script type="text/javascript">
var viewWidth = 912;
var viewHeight = 165;
var sectionId = 'dynsection-5';
</script>
<script xlink:href="svgpan.js"/>
<svg id="graph" class="graph">
<g id="viewport">
<title>CRingBuffer::getNumValuesInBuffer</title>
<polygon fill="white" stroke="transparent" points="-4,4 -4,-161 908,-161 908,4 -4,4"/>
<!-- Node1 -->
<g id="node1" class="node">
<title>Node1</title>
<g id="a_node1"><a xlink:title=" ">
<polygon fill="#bfbfbf" stroke="black" points="767,-63 767,-93 904,-93 904,-63 767,-63"/>
<text text-anchor="start" x="775" y="-81" font-family="Helvetica,sans-Serif" font-size="10.00">CRingBuffer::getNumValues</text>
<text text-anchor="middle" x="835.5" y="-70" font-family="Helvetica,sans-Serif" font-size="10.00">InBuffer</text>
</a>
</g>
</g>
<!-- Node2 -->
<g id="node2" class="node">
<title>Node2</title>
<g id="a_node2"><a xlink:href="a00401.xhtml#ae12716ee8473becf462624698243f761" target="_top" xlink:title=" ">
<polygon fill="white" stroke="black" points="566,-137.5 566,-156.5 731,-156.5 731,-137.5 566,-137.5"/>
<text text-anchor="middle" x="648.5" y="-144.5" font-family="Helvetica,sans-Serif" font-size="10.00">CBlockAudioFile::CBlockAudioFile</text>
</a>
</g>
</g>
<!-- Node1&#45;&gt;Node2 -->
<g id="edge1" class="edge">
<title>Node1&#45;&gt;Node2</title>
<path fill="none" stroke="midnightblue" d="M798.67,-97.73C779.12,-107.88 754.23,-119.8 731,-128 720.59,-131.68 709.18,-134.85 698.27,-137.48"/>
<polygon fill="midnightblue" stroke="midnightblue" points="800.31,-100.83 807.53,-93.07 797.05,-94.63 800.31,-100.83"/>
</g>
<!-- Node3 -->
<g id="node3" class="node">
<title>Node3</title>
<g id="a_node3"><a xlink:href="a00557.xhtml#a9704ba1d710c82a1b92af175b0b07538" target="_top" xlink:title=" ">
<polygon fill="white" stroke="black" points="583,-88 583,-118 714,-118 714,-88 583,-88"/>
<text text-anchor="start" x="591" y="-106" font-family="Helvetica,sans-Serif" font-size="10.00">CMovingAverage::getFilter</text>
<text text-anchor="middle" x="648.5" y="-95" font-family="Helvetica,sans-Serif" font-size="10.00">Param</text>
</a>
</g>
</g>
<!-- Node1&#45;&gt;Node3 -->
<g id="edge2" class="edge">
<title>Node1&#45;&gt;Node3</title>
<path fill="none" stroke="midnightblue" d="M756.7,-88.51C742.52,-90.43 727.87,-92.41 714.12,-94.27"/>
<polygon fill="midnightblue" stroke="midnightblue" points="757.48,-91.94 766.93,-87.13 756.55,-85 757.48,-91.94"/>
</g>
<!-- Node9 -->
<g id="node9" class="node">
<title>Node9</title>
<g id="a_node9"><a xlink:href="a00401.xhtml#a9c2bd8b51ec72c82eb202d70f379d3ac" target="_top" xlink:title=" ">
<polygon fill="white" stroke="black" points="585,-39 585,-69 712,-69 712,-39 585,-39"/>
<text text-anchor="start" x="593" y="-57" font-family="Helvetica,sans-Serif" font-size="10.00">CBlockAudioFile::getNext</text>
<text text-anchor="middle" x="648.5" y="-46" font-family="Helvetica,sans-Serif" font-size="10.00">Block</text>
</a>
</g>
</g>
<!-- Node1&#45;&gt;Node9 -->
<g id="edge8" class="edge">
<title>Node1&#45;&gt;Node9</title>
<path fill="none" stroke="midnightblue" d="M756.76,-67.91C741.93,-65.99 726.57,-64 712.28,-62.14"/>
<polygon fill="midnightblue" stroke="midnightblue" points="756.56,-71.42 766.93,-69.23 757.46,-64.48 756.56,-71.42"/>
</g>
<!-- Node10 -->
<g id="node10" class="node">
<title>Node10</title>
<g id="a_node10"><a xlink:href="a00557.xhtml#a4e86e5be0bc6ad928397d99eda2d1978" target="_top" xlink:title=" ">
<polygon fill="white" stroke="black" points="583.5,-0.5 583.5,-19.5 713.5,-19.5 713.5,-0.5 583.5,-0.5"/>
<text text-anchor="middle" x="648.5" y="-7.5" font-family="Helvetica,sans-Serif" font-size="10.00">CMovingAverage::process</text>
</a>
</g>
</g>
<!-- Node1&#45;&gt;Node10 -->
<g id="edge9" class="edge">
<title>Node1&#45;&gt;Node10</title>
<path fill="none" stroke="midnightblue" d="M797.54,-58.14C778.15,-48.33 753.75,-36.93 731,-29 720.57,-25.36 709.16,-22.21 698.25,-19.58"/>
<polygon fill="midnightblue" stroke="midnightblue" points="796.14,-61.36 806.63,-62.81 799.33,-55.13 796.14,-61.36"/>
</g>
<!-- Node4 -->
<g id="node4" class="node">
<title>Node4</title>
<g id="a_node4"><a xlink:href="a00557.xhtml#ab6f5f359e79f0ede5aedc7775ae3bece" target="_top" xlink:title=" ">
<polygon fill="white" stroke="black" points="415,-46.5 415,-65.5 530,-65.5 530,-46.5 415,-46.5"/>
<text text-anchor="middle" x="472.5" y="-53.5" font-family="Helvetica,sans-Serif" font-size="10.00">CMovingAverage::filtfilt</text>
</a>
</g>
</g>
<!-- Node3&#45;&gt;Node4 -->
<g id="edge3" class="edge">
<title>Node3&#45;&gt;Node4</title>
<path fill="none" stroke="midnightblue" d="M582.21,-85.36C557.32,-78.64 529.91,-71.24 508.83,-65.54"/>
<polygon fill="midnightblue" stroke="midnightblue" points="581.4,-88.77 591.97,-88 583.23,-82.01 581.4,-88.77"/>
</g>
<!-- Node5 -->
<g id="node5" class="node">
<title>Node5</title>
<g id="a_node5"><a xlink:href="a00501.xhtml#a9f110985f86064fa24aa3157bfd5cab0" target="_top" xlink:title=" ">
<polygon fill="white" stroke="black" points="255,-46.5 255,-65.5 379,-65.5 379,-46.5 255,-46.5"/>
<text text-anchor="middle" x="317" y="-53.5" font-family="Helvetica,sans-Serif" font-size="10.00">CNoveltyIf::compNovelty</text>
</a>
</g>
</g>
<!-- Node4&#45;&gt;Node5 -->
<g id="edge4" class="edge">
<title>Node4&#45;&gt;Node5</title>
<path fill="none" stroke="midnightblue" d="M404.57,-56C396.11,-56 387.49,-56 379.13,-56"/>
<polygon fill="midnightblue" stroke="midnightblue" points="404.78,-59.5 414.78,-56 404.78,-52.5 404.78,-59.5"/>
</g>
<!-- Node6 -->
<g id="node6" class="node">
<title>Node6</title>
<g id="a_node6"><a xlink:href="a00441.xhtml#a58a9a3d685f448ced2e843a60028e472" target="_top" xlink:title=" ">
<polygon fill="white" stroke="black" points="74,-65.5 74,-84.5 219,-84.5 219,-65.5 74,-65.5"/>
<text text-anchor="middle" x="146.5" y="-72.5" font-family="Helvetica,sans-Serif" font-size="10.00">CBeatHistoIf::compBeatHisto</text>
</a>
</g>
</g>
<!-- Node5&#45;&gt;Node6 -->
<g id="edge5" class="edge">
<title>Node5&#45;&gt;Node6</title>
<path fill="none" stroke="midnightblue" d="M244.52,-64.06C236.09,-65.01 227.49,-65.98 219.06,-66.93"/>
<polygon fill="midnightblue" stroke="midnightblue" points="245.15,-67.51 254.69,-62.91 244.36,-60.56 245.15,-67.51"/>
</g>
<!-- Node8 -->
<g id="node8" class="node">
<title>Node8</title>
<g id="a_node8"><a xlink:href="a00029.xhtml#a0ddf1224851353fc92bfbff6f499fa97" target="_top" xlink:title=" ">
<polygon fill="white" stroke="black" points="127.5,-27.5 127.5,-46.5 165.5,-46.5 165.5,-27.5 127.5,-27.5"/>
<text text-anchor="middle" x="146.5" y="-34.5" font-family="Helvetica,sans-Serif" font-size="10.00">main</text>
</a>
</g>
</g>
<!-- Node5&#45;&gt;Node8 -->
<g id="edge7" class="edge">
<title>Node5&#45;&gt;Node8</title>
<path fill="none" stroke="midnightblue" d="M244.55,-47.94C215.59,-44.68 184.55,-41.18 165.58,-39.04"/>
<polygon fill="midnightblue" stroke="midnightblue" points="244.36,-51.44 254.69,-49.09 245.15,-44.49 244.36,-51.44"/>
</g>
<!-- Node7 -->
<g id="node7" class="node">
<title>Node7</title>
<g id="a_node7"><a xlink:href="a00017.xhtml#a0ddf1224851353fc92bfbff6f499fa97" target="_top" xlink:title=" ">
<polygon fill="white" stroke="black" points="0,-65.5 0,-84.5 38,-84.5 38,-65.5 0,-65.5"/>
<text text-anchor="middle" x="19" y="-72.5" font-family="Helvetica,sans-Serif" font-size="10.00">main</text>
</a>
</g>
</g>
<!-- Node6&#45;&gt;Node7 -->
<g id="edge6" class="edge">
<title>Node6&#45;&gt;Node7</title>
<path fill="none" stroke="midnightblue" d="M63.88,-75C54.4,-75 45.55,-75 38.32,-75"/>
<polygon fill="midnightblue" stroke="midnightblue" points="63.95,-78.5 73.95,-75 63.95,-71.5 63.95,-78.5"/>
</g>
<!-- Node10&#45;&gt;Node4 -->
<g id="edge10" class="edge">
<title>Node10&#45;&gt;Node4</title>
<path fill="none" stroke="midnightblue" d="M594.81,-21.84C585.2,-24.12 575.28,-26.57 566,-29 545.45,-34.39 522.52,-41.08 504.64,-46.45"/>
<polygon fill="midnightblue" stroke="midnightblue" points="595.74,-25.21 604.67,-19.52 594.13,-18.4 595.74,-25.21"/>
</g>
</g>
</svg>
        <g id="navigator" transform="translate(0 0)" fill="#404254">
                <rect fill="#f2f5e9" fill-opacity="0.5" stroke="#606060" stroke-width=".5" x="0" y="0" width="60" height="60"/>
                <use id="zoomplus" xlink:href="#zoomPlus" x="17" y="9" onmousedown="handleZoom(evt,'in')"/>
                <use id="zoomminus" xlink:href="#zoomMin" x="42" y="9" onmousedown="handleZoom(evt,'out')"/>
                <use id="reset" xlink:href="#resetDef" x="30" y="36" onmousedown="handleReset()"/>
                <g id="arrowUp" xlink:href="#dirArrow" transform="translate(30 24)" onmousedown="handlePan(0,-1)">
                  <use xlink:href="#rim" fill="#404040">
                        <set attributeName="fill" to="#808080" begin="arrowUp.mouseover" end="arrowUp.mouseout"/>
                  </use>
                  <path fill="none" stroke="white" stroke-width="1.5" d="M0,-3.0v7 M-2.5,-0.5L0,-3.0L2.5,-0.5"/>
                </g>
                <g id="arrowRight" xlink:href="#dirArrow" transform="rotate(90) translate(36 -43)" onmousedown="handlePan(1,0)">
                  <use xlink:href="#rim" fill="#404040">
                        <set attributeName="fill" to="#808080" begin="arrowRight.mouseover" end="arrowRight.mouseout"/>
                  </use>
                  <path fill="none" stroke="white" stroke-width="1.5" d="M0,-3.0v7 M-2.5,-0.5L0,-3.0L2.5,-0.5"/>
                </g>
                <g id="arrowDown" xlink:href="#dirArrow" transform="rotate(180) translate(-30 -48)" onmousedown="handlePan(0,1)">
                  <use xlink:href="#rim" fill="#404040">
                        <set attributeName="fill" to="#808080" begin="arrowDown.mouseover" end="arrowDown.mouseout"/>
                  </use>
                  <path fill="none" stroke="white" stroke-width="1.5" d="M0,-3.0v7 M-2.5,-0.5L0,-3.0L2.5,-0.5"/>
                </g>
                <g id="arrowLeft" xlink:href="#dirArrow" transform="rotate(270) translate(-36 17)" onmousedown="handlePan(-1,0)">
                  <use xlink:href="#rim" fill="#404040">
                        <set attributeName="fill" to="#808080" begin="arrowLeft.mouseover" end="arrowLeft.mouseout"/>
                  </use>
                  <path fill="none" stroke="white" stroke-width="1.5" d="M0,-3.0v7 M-2.5,-0.5L0,-3.0L2.5,-0.5"/>
                </g>
        </g>
        <svg viewBox="0 0 15 15" width="100%" height="30px" preserveAspectRatio="xMaxYMin meet">
         <g id="arrow_out" transform="scale(0.3 0.3)">
          <a xlink:href="a00477_aa04a6cb30d486a6ddd5f7929db1eef9d_icgraph_org.svg" target="_base">
           <rect id="button" ry="5" rx="5" y="6" x="6" height="38" width="38"
                fill="#f2f5e9" fill-opacity="0.5" stroke="#606060" stroke-width="1.0"/>
           <path id="arrow"
             d="M 11.500037,31.436501 C 11.940474,20.09759 22.043105,11.32322 32.158766,21.979434 L 37.068811,17.246167 C 37.068811,17.246167 37.088388,32 37.088388,32 L 22.160133,31.978069 C 22.160133,31.978069 26.997745,27.140456 26.997745,27.140456 C 18.528582,18.264221 13.291696,25.230495 11.500037,31.436501 z"
             style="fill:#404040;"/>
          </a>
         </g>
        </svg>
</svg>
