<?xml version="1.0" encoding="UTF-8" standalone="no"?>
<!DOCTYPE svg PUBLIC "-//W3C//DTD SVG 1.1//EN"
 "http://www.w3.org/Graphics/SVG/1.1/DTD/svg11.dtd">
<!-- Generated by graphviz version 12.2.1 (20241206.2353)
 -->
<!-- Title: CBeatHistoIf::create Pages: 1 -->
<!--zoomable 150 -->

<svg id="main" version="1.1" xmlns="http://www.w3.org/2000/svg" xmlns:xlink="http://www.w3.org/1999/xlink" xml:space="preserve" onload="init(evt)">

<style type="text/css"><![CDATA[
.node, .edge {opacity: 0.7;}
.node.selected, .edge.selected {opacity: 1;}
.edge:hover path { stroke: red; }
.edge:hover polygon { stroke: red; fill: red; }
]]></style>

<defs>
  <circle id="rim" cx="0" cy="0" r="7"/>
  <circle id="rim2" cx="0" cy="0" r="3.5"/>
  <g id="zoomPlus">
    <use xlink:href="#rim" fill="#404040"><set attributeName="fill" to="#808080" begin="zoomplus.mouseover" end="zoomplus.mouseout"/></use>
    <path d="M-4,0h8M0,-4v8" fill="none" stroke="white" stroke-width="1.5" pointer-events="none"/>
  </g>
  <g id="zoomMin">
    <use xlink:href="#rim" fill="#404040"><set attributeName="fill" to="#808080" begin="zoomminus.mouseover" end="zoomminus.mouseout"/></use>
    <path d="M-4,0h8" fill="none" stroke="white" stroke-width="1.5" pointer-events="none"/>
  </g>
  <g id="arrowUp" transform="translate(30 24)">
    <use xlink:href="#rim"/>
    <path pointer-events="none" fill="none" stroke="white" stroke-width="1.5" d="M0,-3.0v7 M-2.5,-0.5L0,-3.0L2.5,-0.5"/>
  </g>
  <g id="arrowRight" transform="rotate(90) translate(36 -43)">
    <use xlink:href="#rim"/>
    <path pointer-events="none" fill="none" stroke="white" stroke-width="1.5" d="M0,-3.0v7 M-2.5,-0.5L0,-3.0L2.5,-0.5"/>
  </g>
  <g id="arrowDown" transform="rotate(180) translate(-30 -48)">
    <use xlink:href="#rim"/>
    <path pointer-events="none" fill="none" stroke="white" stroke-width="1.5" d="M0,-3.0v7 M-2.5,-0.5L0,-3.0L2.5,-0.5"/>
  </g>
  <g id="arrowLeft" transform="rotate(270) translate(-36 17)">
    <use xlink:href="#rim"/>
    <path pointer-events="none" fill="none" stroke="white" stroke-width="1.5" d="M0,-3.0v7 M-2.5,-0.5L0,-3.0L2.5,-0.5"/>
  </g>
  <g id="resetDef">
    <use xlink:href="#rim2" fill="#404040"><set attributeName="fill" to="#808080" begin="reset.mouseover" end="reset.mouseout"/></use>
  </g>
</defs>
<script type="application/ecmascript">
var viewWidth = 1207;
var viewHeight = 150;
var sectionId = 'dynsection-8';
</script>
<script type="application/ecmascript" xlink:href="svg.min.js"/>
<svg id="graph" class="graph">
<g id="viewport">
<title>CBeatHistoIf::create</title>
<!-- Node1 -->
<g id="Node000001" class="node">
<title>Node1</title>
<g id="a_Node000001"><a xlink:title=" ">
<polygon fill="#999999" stroke="#666666" points="103.75,-119.25 0,-119.25 0,-100 103.75,-100 103.75,-119.25"/>
<text text-anchor="middle" x="51.88" y="-105.75" font-family="Helvetica,sans-Serif" font-size="10.00">CBeatHistoIf::create</text>
</a>
</g>
</g>
<!-- Node2 -->
<g id="Node000002" class="node">
<title>Node2</title>
<g id="a_Node000002"><a xlink:href="a00453.xhtml#ae90a9b79467cccffa52077c24cd58bb0" target="_top" xlink:title=" ">
<polygon fill="white" stroke="#666666" points="272.75,-138.25 139.75,-138.25 139.75,-119 272.75,-119 272.75,-138.25"/>
<text text-anchor="middle" x="206.25" y="-124.75" font-family="Helvetica,sans-Serif" font-size="10.00">CBeatHistoIf::CBeatHistoIf</text>
</a>
</g>
</g>
<!-- Node1&#45;&gt;Node2 -->
<g id="edge1_Node000001_Node000002" class="edge">
<title>Node1&#45;&gt;Node2</title>
<g id="a_edge1_Node000001_Node000002"><a xlink:title=" ">
<path fill="none" stroke="#63b8ff" d="M104.04,-116C111.74,-116.96 119.82,-117.97 127.92,-118.98"/>
<polygon fill="#63b8ff" stroke="#63b8ff" points="127.48,-122.45 137.84,-120.22 128.35,-115.51 127.48,-122.45"/>
</a>
</g>
</g>
<!-- Node3 -->
<g id="Node000003" class="node">
<title>Node3</title>
<g id="a_Node000003"><a xlink:href="a00453.xhtml#abc96a9de9093f6617510f4dbe02b82ce" target="_top" xlink:title="init configuration">
<polygon fill="white" stroke="#666666" points="253.62,-101.25 158.88,-101.25 158.88,-82 253.62,-82 253.62,-101.25"/>
<text text-anchor="middle" x="206.25" y="-87.75" font-family="Helvetica,sans-Serif" font-size="10.00">CBeatHistoIf::init_</text>
</a>
</g>
</g>
<!-- Node1&#45;&gt;Node3 -->
<g id="edge2_Node000001_Node000003" class="edge">
<title>Node1&#45;&gt;Node3</title>
<g id="a_edge2_Node000001_Node000003"><a xlink:title=" ">
<path fill="none" stroke="#63b8ff" d="M104.04,-103.58C117.95,-101.94 133.12,-100.15 147.38,-98.46"/>
<polygon fill="#63b8ff" stroke="#63b8ff" points="147.56,-101.96 157.08,-97.32 146.74,-95.01 147.56,-101.96"/>
</a>
</g>
</g>
<!-- Node4 -->
<g id="Node000004" class="node">
<title>Node4</title>
<g id="a_Node000004"><a xlink:href="a00505.xhtml#abaadac98b1cad18b7b568852bc951696" target="_top" xlink:title=" ">
<polygon fill="white" stroke="#666666" points="393.38,-120.25 317.38,-120.25 317.38,-101 393.38,-101 393.38,-120.25"/>
<text text-anchor="middle" x="355.38" y="-106.75" font-family="Helvetica,sans-Serif" font-size="10.00">CVector::alloc</text>
</a>
</g>
</g>
<!-- Node3&#45;&gt;Node4 -->
<g id="edge3_Node000003_Node000004" class="edge">
<title>Node3&#45;&gt;Node4</title>
<g id="a_edge3_Node000003_Node000004"><a xlink:title=" ">
<path fill="none" stroke="#63b8ff" d="M253.8,-97.64C270.35,-99.77 289.03,-102.19 305.75,-104.35"/>
<polygon fill="#63b8ff" stroke="#63b8ff" points="305.1,-107.79 315.46,-105.6 305.99,-100.85 305.1,-107.79"/>
</a>
</g>
</g>
<!-- Node6 -->
<g id="Node000006" class="node">
<title>Node6</title>
<g id="a_Node000006"><a xlink:href="a00517.xhtml#abae299cfe8e8806685cab18f59db8f72" target="_top" xlink:title=" ">
<polygon fill="white" stroke="#666666" points="402,-83.25 308.75,-83.25 308.75,-64 402,-64 402,-83.25"/>
<text text-anchor="middle" x="355.38" y="-69.75" font-family="Helvetica,sans-Serif" font-size="10.00">CNoveltyIf::create</text>
</a>
</g>
</g>
<!-- Node3&#45;&gt;Node6 -->
<g id="edge5_Node000003_Node000006" class="edge">
<title>Node3&#45;&gt;Node6</title>
<g id="a_edge5_Node000003_Node000006"><a xlink:title=" ">
<path fill="none" stroke="#63b8ff" d="M253.8,-85.93C267.55,-84.25 282.76,-82.39 297.11,-80.63"/>
<polygon fill="#63b8ff" stroke="#63b8ff" points="297.38,-84.12 306.88,-79.44 296.53,-77.18 297.38,-84.12"/>
</a>
</g>
</g>
<!-- Node5 -->
<g id="Node000005" class="node">
<title>Node5</title>
<g id="a_Node000005"><a xlink:href="a00505.xhtml#a6dbb3f9f480568b60f7fe50090d20003" target="_top" xlink:title=" ">
<polygon fill="white" stroke="#666666" points="538.38,-120.25 449.62,-120.25 449.62,-101 538.38,-101 538.38,-120.25"/>
<text text-anchor="middle" x="494" y="-106.75" font-family="Helvetica,sans-Serif" font-size="10.00">CVector::setZero</text>
</a>
</g>
</g>
<!-- Node4&#45;&gt;Node5 -->
<g id="edge4_Node000004_Node000005" class="edge">
<title>Node4&#45;&gt;Node5</title>
<g id="a_edge4_Node000004_Node000005"><a xlink:title=" ">
<path fill="none" stroke="#63b8ff" d="M393.71,-110.62C407.43,-110.62 423.28,-110.62 438.22,-110.62"/>
<polygon fill="#63b8ff" stroke="#63b8ff" points="437.91,-114.13 447.91,-110.63 437.91,-107.13 437.91,-114.13"/>
</a>
</g>
</g>
<!-- Node7 -->
<g id="Node000007" class="node">
<title>Node7</title>
<g id="a_Node000007"><a xlink:href="a00517.xhtml#a120b69bf1f92d3f00ef515518a9dc604" target="_top" xlink:title=" ">
<polygon fill="white" stroke="#666666" points="550,-83.25 438,-83.25 438,-64 550,-64 550,-83.25"/>
<text text-anchor="middle" x="494" y="-69.75" font-family="Helvetica,sans-Serif" font-size="10.00">CNoveltyIf::CNoveltyIf</text>
</a>
</g>
</g>
<!-- Node6&#45;&gt;Node7 -->
<g id="edge6_Node000006_Node000007" class="edge">
<title>Node6&#45;&gt;Node7</title>
<g id="a_edge6_Node000006_Node000007"><a xlink:title=" ">
<path fill="none" stroke="#63b8ff" d="M402.25,-73.62C409.94,-73.62 418.06,-73.62 426.15,-73.62"/>
<polygon fill="#63b8ff" stroke="#63b8ff" points="426.02,-77.13 436.02,-73.63 426.02,-70.13 426.02,-77.13"/>
</a>
</g>
</g>
<!-- Node17 -->
<g id="Node000017" class="node">
<title>Node17</title>
<g id="a_Node000017"><a xlink:href="a00501.xhtml#a6d0e75b0bcbbb243b7141cfc0126e443" target="_top" xlink:title=" ">
<polygon fill="white" stroke="#666666" points="536.5,-46.25 451.5,-46.25 451.5,-27 536.5,-27 536.5,-46.25"/>
<text text-anchor="middle" x="494" y="-32.75" font-family="Helvetica,sans-Serif" font-size="10.00">CUtil::isPowOf2</text>
</a>
</g>
</g>
<!-- Node6&#45;&gt;Node17 -->
<g id="edge16_Node000006_Node000017" class="edge">
<title>Node6&#45;&gt;Node17</title>
<g id="a_edge16_Node000006_Node000017"><a xlink:title=" ">
<path fill="none" stroke="#63b8ff" d="M393.71,-63.51C409.52,-59.23 428.15,-54.19 444.97,-49.63"/>
<polygon fill="#63b8ff" stroke="#63b8ff" points="445.51,-53.11 454.25,-47.12 443.68,-46.35 445.51,-53.11"/>
</a>
</g>
</g>
<!-- Node8 -->
<g id="Node000008" class="node">
<title>Node8</title>
<g id="a_Node000008"><a xlink:href="a00517.xhtml#a119fc32e085bb978525ea9596ee2e9c1" target="_top" xlink:title="reset configuration">
<polygon fill="white" stroke="#666666" points="679.25,-83.25 586,-83.25 586,-64 679.25,-64 679.25,-83.25"/>
<text text-anchor="middle" x="632.62" y="-69.75" font-family="Helvetica,sans-Serif" font-size="10.00">CNoveltyIf::reset_</text>
</a>
</g>
</g>
<!-- Node7&#45;&gt;Node8 -->
<g id="edge7_Node000007_Node000008" class="edge">
<title>Node7&#45;&gt;Node8</title>
<g id="a_edge7_Node000007_Node000008"><a xlink:title=" ">
<path fill="none" stroke="#63b8ff" d="M550.18,-73.62C558.23,-73.62 566.54,-73.62 574.63,-73.62"/>
<polygon fill="#63b8ff" stroke="#63b8ff" points="574.36,-77.13 584.36,-73.63 574.36,-70.13 574.36,-77.13"/>
</a>
</g>
</g>
<!-- Node9 -->
<g id="Node000009" class="node">
<title>Node9</title>
<g id="a_Node000009"><a xlink:href="a00545.xhtml#a13d2bd6e36210dde0c64d188c1266b88" target="_top" xlink:title=" ">
<polygon fill="white" stroke="#666666" points="835.5,-142.25 721.25,-142.25 721.25,-123 835.5,-123 835.5,-142.25"/>
<text text-anchor="middle" x="778.38" y="-128.75" font-family="Helvetica,sans-Serif" font-size="10.00">CBlockAudioIf::destroy</text>
</a>
</g>
</g>
<!-- Node8&#45;&gt;Node9 -->
<g id="edge8_Node000008_Node000009" class="edge">
<title>Node8&#45;&gt;Node9</title>
<g id="a_edge8_Node000008_Node000009"><a xlink:title=" ">
<path fill="none" stroke="#63b8ff" d="M651.35,-83.72C667.59,-92.68 692.51,-105.71 715.25,-114.62 719.31,-116.22 723.57,-117.74 727.87,-119.18"/>
<polygon fill="#63b8ff" stroke="#63b8ff" points="726.53,-122.43 737.12,-122.11 728.65,-115.75 726.53,-122.43"/>
</a>
</g>
</g>
<!-- Node11 -->
<g id="Node000011" class="node">
<title>Node11</title>
<g id="a_Node000011"><a xlink:href="a00589.xhtml#a5a6b1921f58c43d9daa618a97e62754f" target="_top" xlink:title=" ">
<polygon fill="white" stroke="#666666" points="841.5,-105.25 715.25,-105.25 715.25,-86 841.5,-86 841.5,-105.25"/>
<text text-anchor="middle" x="778.38" y="-91.75" font-family="Helvetica,sans-Serif" font-size="10.00">CMovingAverage::destroy</text>
</a>
</g>
</g>
<!-- Node8&#45;&gt;Node11 -->
<g id="edge10_Node000008_Node000011" class="edge">
<title>Node8&#45;&gt;Node11</title>
<g id="a_edge10_Node000008_Node000011"><a xlink:title=" ">
<path fill="none" stroke="#63b8ff" d="M679.5,-80.65C687.24,-81.83 695.45,-83.09 703.68,-84.35"/>
<polygon fill="#63b8ff" stroke="#63b8ff" points="702.98,-87.78 713.4,-85.83 704.04,-80.86 702.98,-87.78"/>
</a>
</g>
</g>
<!-- Node14 -->
<g id="Node000014" class="node">
<title>Node14</title>
<g id="a_Node000014"><a xlink:href="a00521.xhtml#a2066599bb659fd90d13bc8a57dec005e" target="_top" xlink:title=" ">
<polygon fill="white" stroke="#666666" points="832.88,-67.88 723.88,-67.88 723.88,-37.38 832.88,-37.38 832.88,-67.88"/>
<text text-anchor="start" x="731.88" y="-54.38" font-family="Helvetica,sans-Serif" font-size="10.00">CNoveltyFromBlockIf</text>
<text text-anchor="middle" x="778.38" y="-43.12" font-family="Helvetica,sans-Serif" font-size="10.00">::destroy</text>
</a>
</g>
</g>
<!-- Node8&#45;&gt;Node14 -->
<g id="edge13_Node000008_Node000014" class="edge">
<title>Node8&#45;&gt;Node14</title>
<g id="a_edge13_Node000008_Node000014"><a xlink:title=" ">
<path fill="none" stroke="#63b8ff" d="M679.5,-66.92C689.87,-65.41 701.07,-63.77 712.07,-62.17"/>
<polygon fill="#63b8ff" stroke="#63b8ff" points="712.52,-65.64 721.91,-60.73 711.51,-58.71 712.52,-65.64"/>
</a>
</g>
</g>
<!-- Node16 -->
<g id="Node000016" class="node">
<title>Node16</title>
<g id="a_Node000016"><a xlink:href="a00505.xhtml#aa86bdb0c663d4d52f2765793756f8737" target="_top" xlink:title=" ">
<polygon fill="white" stroke="#666666" points="814.5,-19.25 742.25,-19.25 742.25,0 814.5,0 814.5,-19.25"/>
<text text-anchor="middle" x="778.38" y="-5.75" font-family="Helvetica,sans-Serif" font-size="10.00">CVector::free</text>
</a>
</g>
</g>
<!-- Node8&#45;&gt;Node16 -->
<g id="edge15_Node000008_Node000016" class="edge">
<title>Node8&#45;&gt;Node16</title>
<g id="a_edge15_Node000008_Node000016"><a xlink:title=" ">
<path fill="none" stroke="#63b8ff" d="M649.39,-63.64C665.48,-53.77 691.41,-38.72 715.25,-28.62 720.25,-26.51 725.56,-24.52 730.89,-22.68"/>
<polygon fill="#63b8ff" stroke="#63b8ff" points="731.91,-26.03 740.33,-19.6 729.74,-19.38 731.91,-26.03"/>
</a>
</g>
</g>
<!-- Node10 -->
<g id="Node000010" class="node">
<title>Node10</title>
<g id="a_Node000010"><a xlink:href="a00545.xhtml#a25b4acfbc219a671933702aaf97229fd" target="_top" xlink:title=" ">
<polygon fill="white" stroke="#666666" points="1034.5,-142.25 889.5,-142.25 889.5,-123 1034.5,-123 1034.5,-142.25"/>
<text text-anchor="middle" x="962" y="-128.75" font-family="Helvetica,sans-Serif" font-size="10.00">CBlockAudioIf::CBlockAudioIf</text>
</a>
</g>
</g>
<!-- Node9&#45;&gt;Node10 -->
<g id="edge9_Node000009_Node000010" class="edge">
<title>Node9&#45;&gt;Node10</title>
<g id="a_edge9_Node000009_Node000010"><a xlink:title=" ">
<path fill="none" stroke="#63b8ff" d="M835.85,-132.62C849.16,-132.62 863.62,-132.62 877.84,-132.62"/>
<polygon fill="#63b8ff" stroke="#63b8ff" points="877.64,-136.13 887.64,-132.63 877.64,-129.13 877.64,-136.13"/>
</a>
</g>
</g>
<!-- Node12 -->
<g id="Node000012" class="node">
<title>Node12</title>
<g id="a_Node000012"><a xlink:href="a00589.xhtml#aa02ee977828ff103f3e2c25889131122" target="_top" xlink:title=" ">
<polygon fill="white" stroke="#666666" points="1046.5,-105.25 877.5,-105.25 877.5,-86 1046.5,-86 1046.5,-105.25"/>
<text text-anchor="middle" x="962" y="-91.75" font-family="Helvetica,sans-Serif" font-size="10.00">CMovingAverage::CMovingAverage</text>
</a>
</g>
</g>
<!-- Node11&#45;&gt;Node12 -->
<g id="edge11_Node000011_Node000012" class="edge">
<title>Node11&#45;&gt;Node12</title>
<g id="a_edge11_Node000011_Node000012"><a xlink:title=" ">
<path fill="none" stroke="#63b8ff" d="M841.88,-95.62C849.62,-95.62 857.67,-95.62 865.76,-95.62"/>
<polygon fill="#63b8ff" stroke="#63b8ff" points="865.7,-99.13 875.7,-95.63 865.7,-92.13 865.7,-99.13"/>
</a>
</g>
</g>
<!-- Node13 -->
<g id="Node000013" class="node">
<title>Node13</title>
<g id="a_Node000013"><a xlink:href="a00589.xhtml#a9681799055b5a4622d25a70901a65af3" target="_top" xlink:title=" ">
<polygon fill="white" stroke="#666666" points="1199,-105.25 1082.5,-105.25 1082.5,-86 1199,-86 1199,-105.25"/>
<text text-anchor="middle" x="1140.75" y="-91.75" font-family="Helvetica,sans-Serif" font-size="10.00">CMovingAverage::reset</text>
</a>
</g>
</g>
<!-- Node12&#45;&gt;Node13 -->
<g id="edge12_Node000012_Node000013" class="edge">
<title>Node12&#45;&gt;Node13</title>
<g id="a_edge12_Node000012_Node000013"><a xlink:title=" ">
<path fill="none" stroke="#63b8ff" d="M1046.98,-95.62C1054.99,-95.62 1063.06,-95.62 1070.91,-95.62"/>
<polygon fill="#63b8ff" stroke="#63b8ff" points="1070.72,-99.13 1080.72,-95.63 1070.72,-92.13 1070.72,-99.13"/>
</a>
</g>
</g>
<!-- Node15 -->
<g id="Node000015" class="node">
<title>Node15</title>
<g id="a_Node000015"><a xlink:href="a00521.xhtml#a55adbc3ecfeffbeb621875bb56f3bf7f" target="_top" xlink:title=" ">
<polygon fill="white" stroke="#666666" points="1018.75,-67.88 905.25,-67.88 905.25,-37.38 1018.75,-37.38 1018.75,-67.88"/>
<text text-anchor="start" x="913.25" y="-54.38" font-family="Helvetica,sans-Serif" font-size="10.00">CNoveltyFromBlockIf</text>
<text text-anchor="middle" x="962" y="-43.12" font-family="Helvetica,sans-Serif" font-size="10.00">::CNoveltyFromBlockIf</text>
</a>
</g>
</g>
<!-- Node14&#45;&gt;Node15 -->
<g id="edge14_Node000014_Node000015" class="edge">
<title>Node14&#45;&gt;Node15</title>
<g id="a_edge14_Node000014_Node000015"><a xlink:title=" ">
<path fill="none" stroke="#63b8ff" d="M832.89,-52.62C851.96,-52.62 873.68,-52.62 893.76,-52.62"/>
<polygon fill="#63b8ff" stroke="#63b8ff" points="893.52,-56.13 903.52,-52.63 893.52,-49.13 893.52,-56.13"/>
</a>
</g>
</g>
</g>
</svg>

<g id="navigator" transform="translate(0 0)" fill="#404254">
  <rect fill="#f2f5e9" fill-opacity="0.5" stroke="#606060" stroke-width=".5" x="0" y="0" width="60" height="60"/>
  <use id="zoomplus" xlink:href="#zoomPlus" x="17" y="9" onmousedown="handleZoom(evt,'in')"/>
  <use id="zoomminus" xlink:href="#zoomMin" x="42" y="9" onmousedown="handleZoom(evt,'out')"/>
  <use id="reset" xlink:href="#resetDef" x="30" y="36" onmousedown="handleReset()"/>
   <use id="arrowup" xlink:href="#arrowUp" x="0" y="0" onmousedown="handlePan(0,-1)"/>
  <use id="arrowright" xlink:href="#arrowRight" x="0" y="0" onmousedown="handlePan(1,0)"/>
  <use id="arrowdown" xlink:href="#arrowDown" x="0" y="0" onmousedown="handlePan(0,1)"/>
  <use id="arrowleft" xlink:href="#arrowLeft" x="0" y="0" onmousedown="handlePan(-1,0)"/>
</g>
<svg viewBox="0 0 15 15" width="100%" height="30px" preserveAspectRatio="xMaxYMin meet">
 <g id="arrow_out" transform="scale(0.3 0.3)">
  <a xlink:href="a00453_a912da5706cd67981b5c705d3a55667e1_cgraph_org.svg" target="_base">
   <rect id="button" ry="5" rx="5" y="6" x="6" height="38" width="38"
        fill="#f2f5e9" fill-opacity="0.5" stroke="#606060" stroke-width="1.0"/>
   <path id="arrow"
     d="M 11.500037,31.436501 C 11.940474,20.09759 22.043105,11.32322 32.158766,21.979434 L 37.068811,17.246167 C 37.068811,17.246167 37.088388,32 37.088388,32 L 22.160133,31.978069 C 22.160133,31.978069 26.997745,27.140456 26.997745,27.140456 C 18.528582,18.264221 13.291696,25.230495 11.500037,31.436501 z"
     style="fill:#404040;"/>
  </a>
 </g>
</svg>

<style type='text/css'>
<![CDATA[
[data-mouse-over-selected='false'] { opacity: 0.7; }
[data-mouse-over-selected='true']  { opacity: 1.0; }
]]>
</style>
<script type="application/ecmascript"><![CDATA[
document.addEventListener('DOMContentLoaded', (event) => {
  highlightEdges();
  highlightAdjacentNodes();
});
]]></script>
</svg>
