<?xml version="1.0" encoding="UTF-8" standalone="no"?>
<!DOCTYPE svg PUBLIC "-//W3C//DTD SVG 1.1//EN"
 "http://www.w3.org/Graphics/SVG/1.1/DTD/svg11.dtd">
<!-- Generated by graphviz version 12.2.1 (20241206.2353)
 -->
<!-- Title: CFilter::init Pages: 1 -->
<svg width="307pt" height="140pt"
 viewBox="0.00 0.00 306.50 140.25" xmlns="http://www.w3.org/2000/svg" xmlns:xlink="http://www.w3.org/1999/xlink">
<g id="graph0" class="graph" transform="scale(1 1) rotate(0) translate(4 136.25)">
<title>CFilter::init</title>
<!-- Node1 -->
<g id="Node000001" class="node">
<title>Node1</title>
<g id="a_Node000001"><a xlink:title=" ">
<polygon fill="#999999" stroke="#666666" points="61.75,-75.25 0,-75.25 0,-56 61.75,-56 61.75,-75.25"/>
<text text-anchor="middle" x="30.88" y="-61.75" font-family="Helvetica,sans-Serif" font-size="10.00">CFilter::init</text>
</a>
</g>
</g>
<!-- Node2 -->
<g id="Node000002" class="node">
<title>Node2</title>
<g id="a_Node000002"><a xlink:href="a00505.xhtml#abaadac98b1cad18b7b568852bc951696" target="_top" xlink:title=" ">
<polygon fill="white" stroke="#666666" points="173.75,-132.25 97.75,-132.25 97.75,-113 173.75,-113 173.75,-132.25"/>
<text text-anchor="middle" x="135.75" y="-118.75" font-family="Helvetica,sans-Serif" font-size="10.00">CVector::alloc</text>
</a>
</g>
</g>
<!-- Node1&#45;&gt;Node2 -->
<g id="edge1_Node000001_Node000002" class="edge">
<title>Node1&#45;&gt;Node2</title>
<g id="a_edge1_Node000001_Node000002"><a xlink:title=" ">
<path fill="none" stroke="#63b8ff" d="M49.79,-75.55C65.48,-84.25 88.54,-97.02 106.67,-107.07"/>
<polygon fill="#63b8ff" stroke="#63b8ff" points="104.92,-110.1 115.37,-111.89 108.32,-103.98 104.92,-110.1"/>
</a>
</g>
</g>
<!-- Node3 -->
<g id="Node000003" class="node">
<title>Node3</title>
<g id="a_Node000003"><a xlink:href="a00505.xhtml#a6dbb3f9f480568b60f7fe50090d20003" target="_top" xlink:title=" ">
<polygon fill="white" stroke="#666666" points="298.5,-94.25 209.75,-94.25 209.75,-75 298.5,-75 298.5,-94.25"/>
<text text-anchor="middle" x="254.12" y="-80.75" font-family="Helvetica,sans-Serif" font-size="10.00">CVector::setZero</text>
</a>
</g>
</g>
<!-- Node1&#45;&gt;Node3 -->
<g id="edge7_Node000001_Node000003" class="edge">
<title>Node1&#45;&gt;Node3</title>
<g id="a_edge7_Node000001_Node000003"><a xlink:title=" ">
<path fill="none" stroke="#63b8ff" d="M62.17,-68.23C97.08,-71.22 155.14,-76.21 198.09,-79.9"/>
<polygon fill="#63b8ff" stroke="#63b8ff" points="197.73,-83.38 207.99,-80.75 198.33,-76.41 197.73,-83.38"/>
</a>
</g>
</g>
<!-- Node4 -->
<g id="Node000004" class="node">
<title>Node4</title>
<g id="a_Node000004"><a xlink:href="a00505.xhtml#ad7c5cba73e439adac77778f61c9418f0" target="_top" xlink:title=" ">
<polygon fill="white" stroke="#666666" points="173.75,-56.25 97.75,-56.25 97.75,-37 173.75,-37 173.75,-56.25"/>
<text text-anchor="middle" x="135.75" y="-42.75" font-family="Helvetica,sans-Serif" font-size="10.00">CVector::copy</text>
</a>
</g>
</g>
<!-- Node1&#45;&gt;Node4 -->
<g id="edge3_Node000001_Node000004" class="edge">
<title>Node1&#45;&gt;Node4</title>
<g id="a_edge3_Node000001_Node000004"><a xlink:title=" ">
<path fill="none" stroke="#63b8ff" d="M62.18,-60.03C69.76,-58.63 78.08,-57.09 86.3,-55.57"/>
<polygon fill="#63b8ff" stroke="#63b8ff" points="86.68,-59.06 95.88,-53.8 85.41,-52.18 86.68,-59.06"/>
</a>
</g>
</g>
<!-- Node5 -->
<g id="Node000005" class="node">
<title>Node5</title>
<g id="a_Node000005"><a xlink:href="a00481.xhtml#a8d6a8f20ea178eda7352a89bf7a4d200" target="_top" xlink:title=" ">
<polygon fill="white" stroke="#666666" points="171.12,-19.25 100.38,-19.25 100.38,0 171.12,0 171.12,-19.25"/>
<text text-anchor="middle" x="135.75" y="-5.75" font-family="Helvetica,sans-Serif" font-size="10.00">CFilter::reset</text>
</a>
</g>
</g>
<!-- Node1&#45;&gt;Node5 -->
<g id="edge4_Node000001_Node000005" class="edge">
<title>Node1&#45;&gt;Node5</title>
<g id="a_edge4_Node000001_Node000005"><a xlink:title=" ">
<path fill="none" stroke="#63b8ff" d="M48.48,-55.61C61.69,-47.75 80.72,-36.66 97.75,-27.62 99.64,-26.62 101.6,-25.6 103.58,-24.59"/>
<polygon fill="#63b8ff" stroke="#63b8ff" points="104.75,-27.92 112.13,-20.33 101.62,-21.66 104.75,-27.92"/>
</a>
</g>
</g>
<!-- Node2&#45;&gt;Node3 -->
<g id="edge2_Node000002_Node000003" class="edge">
<title>Node2&#45;&gt;Node3</title>
<g id="a_edge2_Node000002_Node000003"><a xlink:title=" ">
<path fill="none" stroke="#63b8ff" d="M167.63,-112.54C181.15,-108.13 197.22,-102.88 211.75,-98.13"/>
<polygon fill="#63b8ff" stroke="#63b8ff" points="212.65,-101.52 221.06,-95.09 210.47,-94.87 212.65,-101.52"/>
</a>
</g>
</g>
<!-- Node5&#45;&gt;Node3 -->
<g id="edge6_Node000005_Node000003" class="edge">
<title>Node5&#45;&gt;Node3</title>
<g id="a_edge6_Node000005_Node000003"><a xlink:title=" ">
<path fill="none" stroke="#63b8ff" d="M158.99,-19.68C163.93,-22.13 169.09,-24.84 173.75,-27.62 194.26,-39.86 216.22,-55.88 231.83,-67.81"/>
<polygon fill="#63b8ff" stroke="#63b8ff" points="229.41,-70.37 239.46,-73.72 233.7,-64.83 229.41,-70.37"/>
</a>
</g>
</g>
<!-- Node6 -->
<g id="Node000006" class="node">
<title>Node6</title>
<g id="a_Node000006"><a xlink:href="a00505.xhtml#aa86bdb0c663d4d52f2765793756f8737" target="_top" xlink:title=" ">
<polygon fill="white" stroke="#666666" points="290.25,-19.25 218,-19.25 218,0 290.25,0 290.25,-19.25"/>
<text text-anchor="middle" x="254.12" y="-5.75" font-family="Helvetica,sans-Serif" font-size="10.00">CVector::free</text>
</a>
</g>
</g>
<!-- Node5&#45;&gt;Node6 -->
<g id="edge5_Node000005_Node000006" class="edge">
<title>Node5&#45;&gt;Node6</title>
<g id="a_edge5_Node000005_Node000006"><a xlink:title=" ">
<path fill="none" stroke="#63b8ff" d="M171.35,-9.62C182.31,-9.62 194.6,-9.62 206.27,-9.62"/>
<polygon fill="#63b8ff" stroke="#63b8ff" points="206.14,-13.13 216.14,-9.63 206.14,-6.13 206.14,-13.13"/>
</a>
</g>
</g>
</g>
</svg>
