<?xml version="1.0" encoding="UTF-8" standalone="no"?>
<!DOCTYPE svg PUBLIC "-//W3C//DTD SVG 1.1//EN"
 "http://www.w3.org/Graphics/SVG/1.1/DTD/svg11.dtd">
<!-- Generated by graphviz version 4.0.0 (20220602.1335)
 -->
<!-- Title: CVector::addC_I Pages: 1 -->
<!--zoomable 344 -->
<svg id="main" version="1.1" xmlns="http://www.w3.org/2000/svg" xmlns:xlink="http://www.w3.org/1999/xlink" xml:space="preserve" onload="init(evt)">
<style type="text/css"><![CDATA[
.edge:hover path { stroke: red; }
.edge:hover polygon { stroke: red; fill: red; }
]]></style>
<script type="text/javascript"><![CDATA[
var edges = document.getElementsByTagName('g');
if (edges && edges.length) {
  for (var i=0;i<edges.length;i++) {
    if (edges[i].id.substr(0,4)=='edge') {
      edges[i].setAttribute('class','edge');
    }
  }
}
]]></script>
        <defs>
                <circle id="rim" cx="0" cy="0" r="7"/>
                <circle id="rim2" cx="0" cy="0" r="3.5"/>
                <g id="zoomPlus">
                        <use xlink:href="#rim" fill="#404040">
                                <set attributeName="fill" to="#808080" begin="zoomplus.mouseover" end="zoomplus.mouseout"/>
                        </use>
                        <path d="M-4,0h8M0,-4v8" fill="none" stroke="white" stroke-width="1.5" pointer-events="none"/>
                </g>
                <g id="zoomMin">
                        <use xlink:href="#rim" fill="#404040">
                                <set attributeName="fill" to="#808080" begin="zoomminus.mouseover" end="zoomminus.mouseout"/>
                        </use>
                        <path d="M-4,0h8" fill="none" stroke="white" stroke-width="1.5" pointer-events="none"/>
                </g>
                <g id="dirArrow">
                        <path fill="none" stroke="white" stroke-width="1.5" d="M0,-3.0v7 M-2.5,-0.5L0,-3.0L2.5,-0.5"/>
                </g>
               <g id="resetDef">
                       <use xlink:href="#rim2" fill="#404040">
                               <set attributeName="fill" to="#808080" begin="reset.mouseover" end="reset.mouseout"/>
                       </use>
               </g>
        </defs>

<script type="text/javascript">
var viewWidth = 916;
var viewHeight = 344;
var sectionId = 'dynsection-2';
</script>
<script xlink:href="svgpan.js"/>
<svg id="graph" class="graph">
<g id="viewport">
<title>CVector::addC_I</title>
<polygon fill="white" stroke="transparent" points="-4,4 -4,-340 912,-340 912,4 -4,4"/>
<!-- Node1 -->
<g id="node1" class="node">
<title>Node1</title>
<g id="a_node1"><a xlink:title=" ">
<polygon fill="#bfbfbf" stroke="black" points="821,-114.5 821,-133.5 908,-133.5 908,-114.5 821,-114.5"/>
<text text-anchor="middle" x="864.5" y="-121.5" font-family="Helvetica,sans-Serif" font-size="10.00">CVector::addC_I</text>
</a>
</g>
</g>
<!-- Node2 -->
<g id="node2" class="node">
<title>Node2</title>
<g id="a_node2"><a xlink:href="a00479.xhtml#aa64e16e783bd3a28cb66efc96dc6b531" target="_top" xlink:title=" ">
<polygon fill="white" stroke="black" points="667.5,-278.5 667.5,-297.5 752.5,-297.5 752.5,-278.5 667.5,-278.5"/>
<text text-anchor="middle" x="710" y="-285.5" font-family="Helvetica,sans-Serif" font-size="10.00">CMatrix::addC_I</text>
</a>
</g>
</g>
<!-- Node1&#45;&gt;Node2 -->
<g id="edge1" class="edge">
<title>Node1&#45;&gt;Node2</title>
<path fill="none" stroke="midnightblue" d="M852.32,-142.34C838.23,-164.66 812.49,-202.86 785,-231 766.53,-249.91 741.58,-267.85 725.89,-278.38"/>
<polygon fill="midnightblue" stroke="midnightblue" points="855.48,-143.9 857.79,-133.55 849.53,-140.2 855.48,-143.9"/>
</g>
<!-- Node9 -->
<g id="node9" class="node">
<title>Node9</title>
<g id="a_node9"><a xlink:href="a00507.xhtml#a9f110985f86064fa24aa3157bfd5cab0" target="_top" xlink:title=" ">
<polygon fill="white" stroke="black" points="648,-202.5 648,-221.5 772,-221.5 772,-202.5 648,-202.5"/>
<text text-anchor="middle" x="710" y="-209.5" font-family="Helvetica,sans-Serif" font-size="10.00">CNoveltyIf::compNovelty</text>
</a>
</g>
</g>
<!-- Node1&#45;&gt;Node9 -->
<g id="edge8" class="edge">
<title>Node1&#45;&gt;Node9</title>
<path fill="none" stroke="midnightblue" d="M848.57,-141.1C833.91,-156.84 810.14,-179.72 785,-193 777.73,-196.84 769.64,-199.94 761.55,-202.42"/>
<polygon fill="midnightblue" stroke="midnightblue" points="851.25,-143.36 855.37,-133.6 846.06,-138.66 851.25,-143.36"/>
</g>
<!-- Node13 -->
<g id="node13" class="node">
<title>Node13</title>
<g id="a_node13"><a xlink:href="a00455.xhtml#ab2c2fed87717cbeca6d10d0438a12c47" target="_top" xlink:title=" ">
<polygon fill="white" stroke="black" points="656.5,-153 656.5,-183 763.5,-183 763.5,-153 656.5,-153"/>
<text text-anchor="start" x="664.5" y="-171" font-family="Helvetica,sans-Serif" font-size="10.00">CChordFromBlockIf::</text>
<text text-anchor="middle" x="710" y="-160" font-family="Helvetica,sans-Serif" font-size="10.00">genTemplateMatrix_</text>
</a>
</g>
</g>
<!-- Node1&#45;&gt;Node13 -->
<g id="edge12" class="edge">
<title>Node1&#45;&gt;Node13</title>
<path fill="none" stroke="midnightblue" d="M820.33,-136.46C802.56,-141.58 781.83,-147.56 763.22,-152.93"/>
<polygon fill="midnightblue" stroke="midnightblue" points="821.77,-139.68 830.41,-133.55 819.83,-132.96 821.77,-139.68"/>
</g>
<!-- Node16 -->
<g id="node16" class="node">
<title>Node16</title>
<g id="a_node16"><a xlink:href="a00503.xhtml#adf22d441c8866b9fe13aef59549e1cff" target="_top" xlink:title=" ">
<polygon fill="white" stroke="black" points="644.5,-114.5 644.5,-133.5 775.5,-133.5 775.5,-114.5 644.5,-114.5"/>
<text text-anchor="middle" x="710" y="-121.5" font-family="Helvetica,sans-Serif" font-size="10.00">CKeyFromChroma::getKey</text>
</a>
</g>
</g>
<!-- Node1&#45;&gt;Node16 -->
<g id="edge16" class="edge">
<title>Node1&#45;&gt;Node16</title>
<path fill="none" stroke="midnightblue" d="M810.55,-124C799.34,-124 787.38,-124 775.78,-124"/>
<polygon fill="midnightblue" stroke="midnightblue" points="810.61,-127.5 820.61,-124 810.61,-120.5 810.61,-127.5"/>
</g>
<!-- Node19 -->
<g id="node19" class="node">
<title>Node19</title>
<g id="a_node19"><a xlink:href="a00603.xhtml#a9fae895548f9c558d0360cb033e89cc6" target="_top" xlink:title=" ">
<polygon fill="white" stroke="black" points="639,-76.5 639,-95.5 781,-95.5 781,-76.5 639,-76.5"/>
<text text-anchor="middle" x="710" y="-83.5" font-family="Helvetica,sans-Serif" font-size="10.00">CKmeans::initClusterMeans_</text>
</a>
</g>
</g>
<!-- Node1&#45;&gt;Node19 -->
<g id="edge19" class="edge">
<title>Node1&#45;&gt;Node19</title>
<path fill="none" stroke="midnightblue" d="M815.18,-111.96C793.88,-106.65 769.2,-100.5 749.21,-95.52"/>
<polygon fill="midnightblue" stroke="midnightblue" points="814.47,-115.39 825.02,-114.41 816.16,-108.6 814.47,-115.39"/>
</g>
<!-- Node21 -->
<g id="node21" class="node">
<title>Node21</title>
<g id="a_node21"><a xlink:href="a00559.xhtml#a7c640b683a4d6999fa09157d60676a52" target="_top" xlink:title=" ">
<polygon fill="white" stroke="black" points="663.5,-0.5 663.5,-19.5 756.5,-19.5 756.5,-0.5 663.5,-0.5"/>
<text text-anchor="middle" x="710" y="-7.5" font-family="Helvetica,sans-Serif" font-size="10.00">CGmm::initState_</text>
</a>
</g>
</g>
<!-- Node1&#45;&gt;Node21 -->
<g id="edge21" class="edge">
<title>Node1&#45;&gt;Node21</title>
<path fill="none" stroke="midnightblue" d="M853.26,-105.63C840.24,-83.98 815.7,-48.49 785,-29 776.49,-23.6 766.51,-19.73 756.69,-16.96"/>
<polygon fill="midnightblue" stroke="midnightblue" points="850.37,-107.61 858.42,-114.5 856.42,-104.09 850.37,-107.61"/>
</g>
<!-- Node23 -->
<g id="node23" class="node">
<title>Node23</title>
<g id="a_node23"><a xlink:href="a00603.xhtml#abb4a98131b43f0709329eec3f2d3559a" target="_top" xlink:title=" ">
<polygon fill="white" stroke="black" points="635,-38.5 635,-57.5 785,-57.5 785,-38.5 635,-38.5"/>
<text text-anchor="middle" x="710" y="-45.5" font-family="Helvetica,sans-Serif" font-size="10.00">CKmeans::reinitClusterMeans_</text>
</a>
</g>
</g>
<!-- Node1&#45;&gt;Node23 -->
<g id="edge23" class="edge">
<title>Node1&#45;&gt;Node23</title>
<path fill="none" stroke="midnightblue" d="M845.57,-107.92C830.42,-95.12 807.63,-77.65 785,-67 776.96,-63.22 768.06,-60.11 759.3,-57.59"/>
<polygon fill="midnightblue" stroke="midnightblue" points="843.3,-110.58 853.15,-114.48 847.88,-105.29 843.3,-110.58"/>
</g>
<!-- Node3 -->
<g id="node3" class="node">
<title>Node3</title>
<g id="a_node3"><a xlink:href="a00451.xhtml#a2dc9b2b2e4912e45835c5727d550aee7" target="_top" xlink:title=" ">
<polygon fill="white" stroke="black" points="312,-316.5 312,-335.5 417,-335.5 417,-316.5 312,-316.5"/>
<text text-anchor="middle" x="364.5" y="-323.5" font-family="Helvetica,sans-Serif" font-size="10.00">CChordIf::initViterbi_</text>
</a>
</g>
</g>
<!-- Node2&#45;&gt;Node3 -->
<g id="edge2" class="edge">
<title>Node2&#45;&gt;Node3</title>
<path fill="none" stroke="midnightblue" d="M657.42,-297.89C639.03,-301.16 618.14,-304.57 599,-307 536.66,-314.9 464.52,-320.19 417.11,-323.14"/>
<polygon fill="midnightblue" stroke="midnightblue" points="658.13,-301.32 667.35,-296.1 656.88,-294.43 658.13,-301.32"/>
</g>
<!-- Node7 -->
<g id="node7" class="node">
<title>Node7</title>
<g id="a_node7"><a xlink:href="a00579.xhtml#a458bb8f3cd93482bc409b8cd446a3f21" target="_top" xlink:title=" ">
<polygon fill="white" stroke="black" points="480,-278.5 480,-297.5 573,-297.5 573,-278.5 480,-278.5"/>
<text text-anchor="middle" x="526.5" y="-285.5" font-family="Helvetica,sans-Serif" font-size="10.00">CNmf::runNmfIter</text>
</a>
</g>
</g>
<!-- Node2&#45;&gt;Node7 -->
<g id="edge6" class="edge">
<title>Node2&#45;&gt;Node7</title>
<path fill="none" stroke="midnightblue" d="M657.12,-288C630.61,-288 598.64,-288 573.08,-288"/>
<polygon fill="midnightblue" stroke="midnightblue" points="657.36,-291.5 667.36,-288 657.36,-284.5 657.36,-291.5"/>
</g>
<!-- Node4 -->
<g id="node4" class="node">
<title>Node4</title>
<g id="a_node4"><a xlink:href="a00451.xhtml#ad48a5bd574f16b7491b70efb9998935f" target="_top" xlink:title="init configuration">
<polygon fill="white" stroke="black" points="198,-256.5 198,-275.5 275,-275.5 275,-256.5 198,-256.5"/>
<text text-anchor="middle" x="236.5" y="-263.5" font-family="Helvetica,sans-Serif" font-size="10.00">CChordIf::init_</text>
</a>
</g>
</g>
<!-- Node3&#45;&gt;Node4 -->
<g id="edge3" class="edge">
<title>Node3&#45;&gt;Node4</title>
<path fill="none" stroke="midnightblue" d="M324.92,-312.85C320.19,-311 315.45,-309.03 311,-307 290.26,-297.54 267.51,-284.38 252.89,-275.55"/>
<polygon fill="midnightblue" stroke="midnightblue" points="323.96,-316.23 334.55,-316.47 326.42,-309.68 323.96,-316.23"/>
</g>
<!-- Node5 -->
<g id="node5" class="node">
<title>Node5</title>
<g id="a_node5"><a xlink:href="a00307.xhtml#a6df404d2eb3d4c8f9dc2071930fc9e7e" target="_top" xlink:title=" ">
<polygon fill="white" stroke="black" points="0,-278.5 0,-297.5 162,-297.5 162,-278.5 0,-278.5"/>
<text text-anchor="middle" x="81" y="-285.5" font-family="Helvetica,sans-Serif" font-size="10.00">CChordFromFile::CChordFromFile</text>
</a>
</g>
</g>
<!-- Node4&#45;&gt;Node5 -->
<g id="edge4" class="edge">
<title>Node4&#45;&gt;Node5</title>
<path fill="none" stroke="midnightblue" d="M187.81,-272.83C175.37,-274.62 161.73,-276.57 148.5,-278.47"/>
<polygon fill="midnightblue" stroke="midnightblue" points="188.55,-276.27 197.95,-271.38 187.55,-269.34 188.55,-276.27"/>
</g>
<!-- Node6 -->
<g id="node6" class="node">
<title>Node6</title>
<g id="a_node6"><a xlink:href="a00311.xhtml#ac9c41c2ddc441df7e0ae80c25971c260" target="_top" xlink:title=" ">
<polygon fill="white" stroke="black" points="12.5,-229 12.5,-259 149.5,-259 149.5,-229 12.5,-229"/>
<text text-anchor="start" x="20.5" y="-247" font-family="Helvetica,sans-Serif" font-size="10.00">CChordFromVector::CChord</text>
<text text-anchor="middle" x="81" y="-236" font-family="Helvetica,sans-Serif" font-size="10.00">FromVector</text>
</a>
</g>
</g>
<!-- Node4&#45;&gt;Node6 -->
<g id="edge5" class="edge">
<title>Node4&#45;&gt;Node6</title>
<path fill="none" stroke="midnightblue" d="M187.7,-259.15C175.66,-257.42 162.51,-255.54 149.71,-253.7"/>
<polygon fill="midnightblue" stroke="midnightblue" points="187.55,-262.66 197.95,-260.62 188.55,-255.73 187.55,-262.66"/>
</g>
<!-- Node8 -->
<g id="node8" class="node">
<title>Node8</title>
<g id="a_node8"><a xlink:href="a00579.xhtml#a298f5a0187b09abaec14570da9239187" target="_top" xlink:title=" ">
<polygon fill="white" stroke="black" points="320,-278.5 320,-297.5 409,-297.5 409,-278.5 320,-278.5"/>
<text text-anchor="middle" x="364.5" y="-285.5" font-family="Helvetica,sans-Serif" font-size="10.00">CNmf::compNmf</text>
</a>
</g>
</g>
<!-- Node7&#45;&gt;Node8 -->
<g id="edge7" class="edge">
<title>Node7&#45;&gt;Node8</title>
<path fill="none" stroke="midnightblue" d="M469.53,-288C449.73,-288 427.78,-288 409.15,-288"/>
<polygon fill="midnightblue" stroke="midnightblue" points="469.65,-291.5 479.65,-288 469.65,-284.5 469.65,-291.5"/>
</g>
<!-- Node10 -->
<g id="node10" class="node">
<title>Node10</title>
<g id="a_node10"><a xlink:href="a00447.xhtml#a58a9a3d685f448ced2e843a60028e472" target="_top" xlink:title=" ">
<polygon fill="white" stroke="black" points="454,-240.5 454,-259.5 599,-259.5 599,-240.5 454,-240.5"/>
<text text-anchor="middle" x="526.5" y="-247.5" font-family="Helvetica,sans-Serif" font-size="10.00">CBeatHistoIf::compBeatHisto</text>
</a>
</g>
</g>
<!-- Node9&#45;&gt;Node10 -->
<g id="edge9" class="edge">
<title>Node9&#45;&gt;Node10</title>
<path fill="none" stroke="midnightblue" d="M653.21,-223.68C627.47,-229.07 597.3,-235.39 572.97,-240.48"/>
<polygon fill="midnightblue" stroke="midnightblue" points="654.13,-227.06 663.2,-221.59 652.69,-220.21 654.13,-227.06"/>
</g>
<!-- Node12 -->
<g id="node12" class="node">
<title>Node12</title>
<g id="a_node12"><a xlink:href="a00029.xhtml#a0ddf1224851353fc92bfbff6f499fa97" target="_top" xlink:title=" ">
<polygon fill="white" stroke="black" points="507.5,-202.5 507.5,-221.5 545.5,-221.5 545.5,-202.5 507.5,-202.5"/>
<text text-anchor="middle" x="526.5" y="-209.5" font-family="Helvetica,sans-Serif" font-size="10.00">main</text>
</a>
</g>
</g>
<!-- Node9&#45;&gt;Node12 -->
<g id="edge11" class="edge">
<title>Node9&#45;&gt;Node12</title>
<path fill="none" stroke="midnightblue" d="M637.57,-212C604.15,-212 567.06,-212 545.6,-212"/>
<polygon fill="midnightblue" stroke="midnightblue" points="637.81,-215.5 647.81,-212 637.81,-208.5 637.81,-215.5"/>
</g>
<!-- Node11 -->
<g id="node11" class="node">
<title>Node11</title>
<g id="a_node11"><a xlink:href="a00017.xhtml#a0ddf1224851353fc92bfbff6f499fa97" target="_top" xlink:title=" ">
<polygon fill="white" stroke="black" points="345.5,-240.5 345.5,-259.5 383.5,-259.5 383.5,-240.5 345.5,-240.5"/>
<text text-anchor="middle" x="364.5" y="-247.5" font-family="Helvetica,sans-Serif" font-size="10.00">main</text>
</a>
</g>
</g>
<!-- Node10&#45;&gt;Node11 -->
<g id="edge10" class="edge">
<title>Node10&#45;&gt;Node11</title>
<path fill="none" stroke="midnightblue" d="M443.85,-250C421.13,-250 398.58,-250 383.55,-250"/>
<polygon fill="midnightblue" stroke="midnightblue" points="443.92,-253.5 453.92,-250 443.92,-246.5 443.92,-253.5"/>
</g>
<!-- Node14 -->
<g id="node14" class="node">
<title>Node14</title>
<g id="a_node14"><a xlink:href="a00455.xhtml#a2e221ac492231e16a62781a573921a9c" target="_top" xlink:title=" ">
<polygon fill="white" stroke="black" points="473,-153 473,-183 580,-183 580,-153 473,-153"/>
<text text-anchor="start" x="481" y="-171" font-family="Helvetica,sans-Serif" font-size="10.00">CChordFromBlockIf::</text>
<text text-anchor="middle" x="526.5" y="-160" font-family="Helvetica,sans-Serif" font-size="10.00">CChordFromBlockIf</text>
</a>
</g>
</g>
<!-- Node13&#45;&gt;Node14 -->
<g id="edge13" class="edge">
<title>Node13&#45;&gt;Node14</title>
<path fill="none" stroke="midnightblue" d="M646.01,-168C624.56,-168 600.81,-168 580.24,-168"/>
<polygon fill="midnightblue" stroke="midnightblue" points="646.01,-171.5 656.01,-168 646.01,-164.5 646.01,-171.5"/>
</g>
<!-- Node15 -->
<g id="node15" class="node">
<title>Node15</title>
<g id="a_node15"><a xlink:href="a00455.xhtml#ac51d13fa2b36cafa4962cb3592ebfcb7" target="_top" xlink:title=" ">
<polygon fill="white" stroke="black" points="311,-172 311,-202 418,-202 418,-172 311,-172"/>
<text text-anchor="start" x="319" y="-190" font-family="Helvetica,sans-Serif" font-size="10.00">CChordFromBlockIf::</text>
<text text-anchor="middle" x="364.5" y="-179" font-family="Helvetica,sans-Serif" font-size="10.00">create</text>
</a>
</g>
</g>
<!-- Node14&#45;&gt;Node15 -->
<g id="edge14" class="edge">
<title>Node14&#45;&gt;Node15</title>
<path fill="none" stroke="midnightblue" d="M462.6,-175.47C447.84,-177.22 432.26,-179.07 418.01,-180.77"/>
<polygon fill="midnightblue" stroke="midnightblue" points="463.15,-178.93 472.67,-174.27 462.32,-171.98 463.15,-178.93"/>
</g>
<!-- Node15&#45;&gt;Node4 -->
<g id="edge15" class="edge">
<title>Node15&#45;&gt;Node4</title>
<path fill="none" stroke="midnightblue" d="M330.98,-207.39C305.77,-223.19 271.98,-244.38 252.7,-256.47"/>
<polygon fill="midnightblue" stroke="midnightblue" points="332.89,-210.32 339.5,-202.05 329.17,-204.39 332.89,-210.32"/>
</g>
<!-- Node17 -->
<g id="node17" class="node">
<title>Node17</title>
<g id="a_node17"><a xlink:href="a00499.xhtml#a343e6b52e9696244dd57d4db0f91d056" target="_top" xlink:title=" ">
<polygon fill="white" stroke="black" points="484,-114.5 484,-133.5 569,-133.5 569,-114.5 484,-114.5"/>
<text text-anchor="middle" x="526.5" y="-121.5" font-family="Helvetica,sans-Serif" font-size="10.00">CKey::compKey</text>
</a>
</g>
</g>
<!-- Node16&#45;&gt;Node17 -->
<g id="edge17" class="edge">
<title>Node16&#45;&gt;Node17</title>
<path fill="none" stroke="midnightblue" d="M634.38,-124C612.1,-124 588.48,-124 569.13,-124"/>
<polygon fill="midnightblue" stroke="midnightblue" points="634.5,-127.5 644.5,-124 634.5,-120.5 634.5,-127.5"/>
</g>
<!-- Node18 -->
<g id="node18" class="node">
<title>Node18</title>
<g id="a_node18"><a xlink:href="a00026.xhtml#a0ddf1224851353fc92bfbff6f499fa97" target="_top" xlink:title=" ">
<polygon fill="white" stroke="black" points="345.5,-114.5 345.5,-133.5 383.5,-133.5 383.5,-114.5 345.5,-114.5"/>
<text text-anchor="middle" x="364.5" y="-121.5" font-family="Helvetica,sans-Serif" font-size="10.00">main</text>
</a>
</g>
</g>
<!-- Node17&#45;&gt;Node18 -->
<g id="edge18" class="edge">
<title>Node17&#45;&gt;Node18</title>
<path fill="none" stroke="midnightblue" d="M473.7,-124C442.85,-124 405.59,-124 383.82,-124"/>
<polygon fill="midnightblue" stroke="midnightblue" points="473.88,-127.5 483.88,-124 473.88,-120.5 473.88,-127.5"/>
</g>
<!-- Node20 -->
<g id="node20" class="node">
<title>Node20</title>
<g id="a_node20"><a xlink:href="a00603.xhtml#ac9199a37d06a0d589118941f80f3f774" target="_top" xlink:title=" ">
<polygon fill="white" stroke="black" points="464.5,-57.5 464.5,-76.5 588.5,-76.5 588.5,-57.5 464.5,-57.5"/>
<text text-anchor="middle" x="526.5" y="-64.5" font-family="Helvetica,sans-Serif" font-size="10.00">CKmeans::compKmeans</text>
</a>
</g>
</g>
<!-- Node19&#45;&gt;Node20 -->
<g id="edge20" class="edge">
<title>Node19&#45;&gt;Node20</title>
<path fill="none" stroke="midnightblue" d="M628.64,-77.59C615.21,-76.18 601.47,-74.74 588.62,-73.4"/>
<polygon fill="midnightblue" stroke="midnightblue" points="628.52,-81.09 638.83,-78.65 629.25,-74.13 628.52,-81.09"/>
</g>
<!-- Node22 -->
<g id="node22" class="node">
<title>Node22</title>
<g id="a_node22"><a xlink:href="a00559.xhtml#a4089671259acdd3b3faf6fc8010e206f" target="_top" xlink:title=" ">
<polygon fill="white" stroke="black" points="476.5,-0.5 476.5,-19.5 576.5,-19.5 576.5,-0.5 476.5,-0.5"/>
<text text-anchor="middle" x="526.5" y="-7.5" font-family="Helvetica,sans-Serif" font-size="10.00">CGmm::compGmm</text>
</a>
</g>
</g>
<!-- Node21&#45;&gt;Node22 -->
<g id="edge22" class="edge">
<title>Node21&#45;&gt;Node22</title>
<path fill="none" stroke="midnightblue" d="M653.02,-10C628.66,-10 600.35,-10 576.79,-10"/>
<polygon fill="midnightblue" stroke="midnightblue" points="653.2,-13.5 663.2,-10 653.2,-6.5 653.2,-13.5"/>
</g>
<!-- Node23&#45;&gt;Node20 -->
<g id="edge24" class="edge">
<title>Node23&#45;&gt;Node20</title>
<path fill="none" stroke="midnightblue" d="M624.74,-56.82C612.56,-58.1 600.22,-59.39 588.61,-60.6"/>
<polygon fill="midnightblue" stroke="midnightblue" points="625.33,-60.28 634.92,-55.76 624.61,-53.32 625.33,-60.28"/>
</g>
</g>
</svg>
        <g id="navigator" transform="translate(0 0)" fill="#404254">
                <rect fill="#f2f5e9" fill-opacity="0.5" stroke="#606060" stroke-width=".5" x="0" y="0" width="60" height="60"/>
                <use id="zoomplus" xlink:href="#zoomPlus" x="17" y="9" onmousedown="handleZoom(evt,'in')"/>
                <use id="zoomminus" xlink:href="#zoomMin" x="42" y="9" onmousedown="handleZoom(evt,'out')"/>
                <use id="reset" xlink:href="#resetDef" x="30" y="36" onmousedown="handleReset()"/>
                <g id="arrowUp" xlink:href="#dirArrow" transform="translate(30 24)" onmousedown="handlePan(0,-1)">
                  <use xlink:href="#rim" fill="#404040">
                        <set attributeName="fill" to="#808080" begin="arrowUp.mouseover" end="arrowUp.mouseout"/>
                  </use>
                  <path fill="none" stroke="white" stroke-width="1.5" d="M0,-3.0v7 M-2.5,-0.5L0,-3.0L2.5,-0.5"/>
                </g>
                <g id="arrowRight" xlink:href="#dirArrow" transform="rotate(90) translate(36 -43)" onmousedown="handlePan(1,0)">
                  <use xlink:href="#rim" fill="#404040">
                        <set attributeName="fill" to="#808080" begin="arrowRight.mouseover" end="arrowRight.mouseout"/>
                  </use>
                  <path fill="none" stroke="white" stroke-width="1.5" d="M0,-3.0v7 M-2.5,-0.5L0,-3.0L2.5,-0.5"/>
                </g>
                <g id="arrowDown" xlink:href="#dirArrow" transform="rotate(180) translate(-30 -48)" onmousedown="handlePan(0,1)">
                  <use xlink:href="#rim" fill="#404040">
                        <set attributeName="fill" to="#808080" begin="arrowDown.mouseover" end="arrowDown.mouseout"/>
                  </use>
                  <path fill="none" stroke="white" stroke-width="1.5" d="M0,-3.0v7 M-2.5,-0.5L0,-3.0L2.5,-0.5"/>
                </g>
                <g id="arrowLeft" xlink:href="#dirArrow" transform="rotate(270) translate(-36 17)" onmousedown="handlePan(-1,0)">
                  <use xlink:href="#rim" fill="#404040">
                        <set attributeName="fill" to="#808080" begin="arrowLeft.mouseover" end="arrowLeft.mouseout"/>
                  </use>
                  <path fill="none" stroke="white" stroke-width="1.5" d="M0,-3.0v7 M-2.5,-0.5L0,-3.0L2.5,-0.5"/>
                </g>
        </g>
        <svg viewBox="0 0 15 15" width="100%" height="30px" preserveAspectRatio="xMaxYMin meet">
         <g id="arrow_out" transform="scale(0.3 0.3)">
          <a xlink:href="a00495_a22ff86e4fc2f8d5042159d9c84a7ff14_icgraph_org.svg" target="_base">
           <rect id="button" ry="5" rx="5" y="6" x="6" height="38" width="38"
                fill="#f2f5e9" fill-opacity="0.5" stroke="#606060" stroke-width="1.0"/>
           <path id="arrow"
             d="M 11.500037,31.436501 C 11.940474,20.09759 22.043105,11.32322 32.158766,21.979434 L 37.068811,17.246167 C 37.068811,17.246167 37.088388,32 37.088388,32 L 22.160133,31.978069 C 22.160133,31.978069 26.997745,27.140456 26.997745,27.140456 C 18.528582,18.264221 13.291696,25.230495 11.500037,31.436501 z"
             style="fill:#404040;"/>
          </a>
         </g>
        </svg>
</svg>
