<?xml version="1.0" encoding="UTF-8" standalone="no"?>
<!DOCTYPE svg PUBLIC "-//W3C//DTD SVG 1.1//EN"
 "http://www.w3.org/Graphics/SVG/1.1/DTD/svg11.dtd">
<!-- Generated by graphviz version 4.0.0 (20220602.1335)
 -->
<!-- Title: CFeatureIf::compFeatureNDim Pages: 1 -->
<svg width="622pt" height="389pt"
 viewBox="0.00 0.00 622.00 388.50" xmlns="http://www.w3.org/2000/svg" xmlns:xlink="http://www.w3.org/1999/xlink">
<g id="graph0" class="graph" transform="scale(1 1) rotate(0) translate(4 384.5)">
<title>CFeatureIf::compFeatureNDim</title>
<polygon fill="white" stroke="transparent" points="-4,4 -4,-384.5 618,-384.5 618,4 -4,4"/>
<!-- Node1 -->
<g id="node1" class="node">
<title>Node1</title>
<g id="a_node1"><a xlink:title=" ">
<polygon fill="#bfbfbf" stroke="black" points="0,-148 0,-167 149,-167 149,-148 0,-148"/>
<text text-anchor="middle" x="74.5" y="-155" font-family="Helvetica,sans-Serif" font-size="10.00">CFeatureIf::compFeatureNDim</text>
</a>
</g>
</g>
<!-- Node2 -->
<g id="node2" class="node">
<title>Node2</title>
<g id="a_node2"><a xlink:href="a00470.xhtml#a7eea1378e1f161f7a69c4723405efa8a" target="_top" xlink:title=" ">
<polygon fill="white" stroke="black" points="215,-301.5 215,-331.5 325,-331.5 325,-301.5 215,-301.5"/>
<text text-anchor="start" x="223" y="-319.5" font-family="Helvetica,sans-Serif" font-size="10.00">CFeatureFromBlockIf</text>
<text text-anchor="middle" x="270" y="-308.5" font-family="Helvetica,sans-Serif" font-size="10.00">::compFeature</text>
</a>
</g>
</g>
<!-- Node1&#45;&gt;Node2 -->
<g id="edge1" class="edge">
<title>Node1&#45;&gt;Node2</title>
<path fill="none" stroke="midnightblue" d="M80.7,-167.27C94.36,-191.97 133.74,-257.36 185,-291.5 191.18,-295.62 198.06,-299.07 205.14,-301.97"/>
<polygon fill="midnightblue" stroke="midnightblue" points="204.29,-305.39 214.89,-305.58 206.73,-298.82 204.29,-305.39"/>
</g>
<!-- Node3 -->
<g id="node3" class="node">
<title>Node3</title>
<g id="a_node3"><a xlink:href="a00466.xhtml#a7aef37fcf40e80cbace42fe663f47bbd" target="_top" xlink:title="compute magnitude spectrum for spectral features">
<polygon fill="white" stroke="black" points="185,-263 185,-282 355,-282 355,-263 185,-263"/>
<text text-anchor="middle" x="270" y="-270" font-family="Helvetica,sans-Serif" font-size="10.00">CFeatureIf::computeMagSpectrum_</text>
</a>
</g>
</g>
<!-- Node1&#45;&gt;Node3 -->
<g id="edge2" class="edge">
<title>Node1&#45;&gt;Node3</title>
<path fill="none" stroke="midnightblue" d="M83.45,-167.14C100.12,-186.68 140.85,-231.01 185,-253.5 189.63,-255.86 194.55,-257.92 199.59,-259.74"/>
<polygon fill="midnightblue" stroke="midnightblue" points="198.81,-263.16 209.41,-262.92 200.97,-256.51 198.81,-263.16"/>
</g>
<!-- Node12 -->
<g id="node12" class="node">
<title>Node12</title>
<g id="a_node12"><a xlink:href="a00470.xhtml#a8bf822f58aa66fc4787c5528352575c0" target="_top" xlink:title=" ">
<polygon fill="white" stroke="black" points="210.5,-213.5 210.5,-243.5 329.5,-243.5 329.5,-213.5 210.5,-213.5"/>
<text text-anchor="start" x="218.5" y="-231.5" font-family="Helvetica,sans-Serif" font-size="10.00">CFeatureFromBlockIf</text>
<text text-anchor="middle" x="270" y="-220.5" font-family="Helvetica,sans-Serif" font-size="10.00">::getFeatureDimensions</text>
</a>
</g>
</g>
<!-- Node1&#45;&gt;Node12 -->
<g id="edge11" class="edge">
<title>Node1&#45;&gt;Node12</title>
<path fill="none" stroke="midnightblue" d="M95.78,-167.13C117.53,-177.23 153.23,-193.2 185,-204.5 190.81,-206.57 196.9,-208.59 203.03,-210.52"/>
<polygon fill="midnightblue" stroke="midnightblue" points="202.07,-213.88 212.66,-213.47 204.13,-207.19 202.07,-213.88"/>
</g>
<!-- Node13 -->
<g id="node13" class="node">
<title>Node13</title>
<g id="a_node13"><a xlink:href="a00470.xhtml#ab6ab50f7ebebbabec7e1610bc04a3328" target="_top" xlink:title=" ">
<polygon fill="white" stroke="black" points="215,-164.5 215,-194.5 325,-194.5 325,-164.5 215,-164.5"/>
<text text-anchor="start" x="223" y="-182.5" font-family="Helvetica,sans-Serif" font-size="10.00">CFeatureFromBlockIf</text>
<text text-anchor="middle" x="270" y="-171.5" font-family="Helvetica,sans-Serif" font-size="10.00">::getFeatureIdx</text>
</a>
</g>
</g>
<!-- Node1&#45;&gt;Node13 -->
<g id="edge12" class="edge">
<title>Node1&#45;&gt;Node13</title>
<path fill="none" stroke="midnightblue" d="M149.21,-165.88C167.42,-167.95 186.79,-170.15 204.53,-172.17"/>
<polygon fill="midnightblue" stroke="midnightblue" points="204.43,-175.68 214.76,-173.33 205.22,-168.73 204.43,-175.68"/>
</g>
<!-- Node14 -->
<g id="node14" class="node">
<title>Node14</title>
<g id="a_node14"><a xlink:href="a00542.xhtml#a531920b36b04ecdb562bfbb09dd2e856" target="_top" xlink:title=" ">
<polygon fill="white" stroke="black" points="199,-126 199,-145 341,-145 341,-126 199,-126"/>
<text text-anchor="middle" x="270" y="-133" font-family="Helvetica,sans-Serif" font-size="10.00">CBlockAudioIf::getNextBlock</text>
</a>
</g>
</g>
<!-- Node1&#45;&gt;Node14 -->
<g id="edge13" class="edge">
<title>Node1&#45;&gt;Node14</title>
<path fill="none" stroke="midnightblue" d="M149.21,-149.12C162.02,-147.66 175.4,-146.14 188.38,-144.67"/>
<polygon fill="midnightblue" stroke="midnightblue" points="189.15,-148.1 198.69,-143.49 188.36,-141.15 189.15,-148.1"/>
</g>
<!-- Node15 -->
<g id="node15" class="node">
<title>Node15</title>
<g id="a_node15"><a xlink:href="a00542.xhtml#a595b3a391e2540a1dc9e53edf8634494" target="_top" xlink:title=" ">
<polygon fill="white" stroke="black" points="196,-88 196,-107 344,-107 344,-88 196,-88"/>
<text text-anchor="middle" x="270" y="-95" font-family="Helvetica,sans-Serif" font-size="10.00">CBlockAudioIf::getNumBlocks</text>
</a>
</g>
</g>
<!-- Node1&#45;&gt;Node15 -->
<g id="edge14" class="edge">
<title>Node1&#45;&gt;Node15</title>
<path fill="none" stroke="midnightblue" d="M98.26,-147.94C120.2,-138.98 154.46,-125.62 185,-116.5 193.54,-113.95 202.65,-111.56 211.61,-109.39"/>
<polygon fill="midnightblue" stroke="midnightblue" points="212.68,-112.73 221.61,-107.04 211.08,-105.92 212.68,-112.73"/>
</g>
<!-- Node16 -->
<g id="node16" class="node">
<title>Node16</title>
<g id="a_node16"><a xlink:href="a00466.xhtml#a2aac3d25c179044493ad1c96fa877709" target="_top" xlink:title="bool differentiating between time and spectral features">
<polygon fill="white" stroke="black" points="195.5,-50 195.5,-69 344.5,-69 344.5,-50 195.5,-50"/>
<text text-anchor="middle" x="270" y="-57" font-family="Helvetica,sans-Serif" font-size="10.00">CFeatureIf::isFeatureSpectral_</text>
</a>
</g>
</g>
<!-- Node1&#45;&gt;Node16 -->
<g id="edge15" class="edge">
<title>Node1&#45;&gt;Node16</title>
<path fill="none" stroke="midnightblue" d="M85.78,-147.84C104.18,-131.09 144.61,-96.72 185,-78.5 190.63,-75.96 196.64,-73.74 202.75,-71.81"/>
<polygon fill="midnightblue" stroke="midnightblue" points="203.77,-75.16 212.4,-69.01 201.82,-68.44 203.77,-75.16"/>
</g>
<!-- Node17 -->
<g id="node17" class="node">
<title>Node17</title>
<g id="a_node17"><a xlink:href="a00606.xhtml#aa8a561b4133585586c5b595116a9217f" target="_top" xlink:title=" ">
<polygon fill="white" stroke="black" points="201.5,-0.5 201.5,-30.5 338.5,-30.5 338.5,-0.5 201.5,-0.5"/>
<text text-anchor="start" x="209.5" y="-18.5" font-family="Helvetica,sans-Serif" font-size="10.00">CNormalizeAudio::normalize</text>
<text text-anchor="middle" x="270" y="-7.5" font-family="Helvetica,sans-Serif" font-size="10.00">Block</text>
</a>
</g>
</g>
<!-- Node1&#45;&gt;Node17 -->
<g id="edge16" class="edge">
<title>Node1&#45;&gt;Node17</title>
<path fill="none" stroke="midnightblue" d="M81.91,-147.69C97.06,-125.27 137.44,-69.91 185,-40.5 188.4,-38.4 191.98,-36.47 195.68,-34.69"/>
<polygon fill="midnightblue" stroke="midnightblue" points="197.3,-37.8 205.05,-30.58 194.49,-31.39 197.3,-37.8"/>
</g>
<!-- Node4 -->
<g id="node4" class="node">
<title>Node4</title>
<g id="a_node4"><a xlink:href="a00474.xhtml#ab5c17fe5c368048a3393818735dc9b8a" target="_top" xlink:title=" ">
<polygon fill="white" stroke="black" points="402,-301 402,-320 478,-320 478,-301 402,-301"/>
<text text-anchor="middle" x="440" y="-308" font-family="Helvetica,sans-Serif" font-size="10.00">CFft::compFft</text>
</a>
</g>
</g>
<!-- Node3&#45;&gt;Node4 -->
<g id="edge3" class="edge">
<title>Node3&#45;&gt;Node4</title>
<path fill="none" stroke="midnightblue" d="M313.39,-282.09C337.31,-287.5 367.26,-294.27 391.91,-299.85"/>
<polygon fill="midnightblue" stroke="midnightblue" points="391.24,-303.29 401.77,-302.08 392.79,-296.46 391.24,-303.29"/>
</g>
<!-- Node9 -->
<g id="node9" class="node">
<title>Node9</title>
<g id="a_node9"><a xlink:href="a00474.xhtml#a9cb162394031e8b496f7a39b51c31d20" target="_top" xlink:title=" ">
<polygon fill="white" stroke="black" points="398.5,-263 398.5,-282 481.5,-282 481.5,-263 398.5,-263"/>
<text text-anchor="middle" x="440" y="-270" font-family="Helvetica,sans-Serif" font-size="10.00">CFft::getLength</text>
</a>
</g>
</g>
<!-- Node3&#45;&gt;Node9 -->
<g id="edge8" class="edge">
<title>Node3&#45;&gt;Node9</title>
<path fill="none" stroke="midnightblue" d="M355.49,-272.5C366.65,-272.5 377.79,-272.5 388.13,-272.5"/>
<polygon fill="midnightblue" stroke="midnightblue" points="388.18,-276 398.18,-272.5 388.18,-269 388.18,-276"/>
</g>
<!-- Node10 -->
<g id="node10" class="node">
<title>Node10</title>
<g id="a_node10"><a xlink:href="a00474.xhtml#a48428f0ac37a3c112c9598c784771d4a" target="_top" xlink:title=" ">
<polygon fill="white" stroke="black" points="391,-225 391,-244 489,-244 489,-225 391,-225"/>
<text text-anchor="middle" x="440" y="-232" font-family="Helvetica,sans-Serif" font-size="10.00">CFft::getMagnitude</text>
</a>
</g>
</g>
<!-- Node3&#45;&gt;Node10 -->
<g id="edge9" class="edge">
<title>Node3&#45;&gt;Node10</title>
<path fill="none" stroke="midnightblue" d="M313.39,-262.91C335.76,-257.85 363.4,-251.6 387.05,-246.25"/>
<polygon fill="midnightblue" stroke="midnightblue" points="387.93,-249.64 396.91,-244.02 386.39,-242.81 387.93,-249.64"/>
</g>
<!-- Node11 -->
<g id="node11" class="node">
<title>Node11</title>
<g id="a_node11"><a xlink:href="a00502.xhtml#a9811f50434dd058d201290b2dc98bfcd" target="_top" xlink:title=" ">
<polygon fill="white" stroke="black" points="396.5,-97 396.5,-116 483.5,-116 483.5,-97 396.5,-97"/>
<text text-anchor="middle" x="440" y="-104" font-family="Helvetica,sans-Serif" font-size="10.00">CVector::mulC_I</text>
</a>
</g>
</g>
<!-- Node3&#45;&gt;Node11 -->
<g id="edge10" class="edge">
<title>Node3&#45;&gt;Node11</title>
<path fill="none" stroke="midnightblue" d="M337.95,-262.87C344.03,-260.4 349.83,-257.32 355,-253.5 398.96,-220.97 423.39,-158.07 433.46,-126.14"/>
<polygon fill="midnightblue" stroke="midnightblue" points="436.91,-126.81 436.43,-116.23 430.21,-124.8 436.91,-126.81"/>
</g>
<!-- Node5 -->
<g id="node5" class="node">
<title>Node5</title>
<g id="a_node5"><a xlink:href="a00502.xhtml#ad7c5cba73e439adac77778f61c9418f0" target="_top" xlink:title=" ">
<polygon fill="white" stroke="black" points="531,-361 531,-380 608,-380 608,-361 531,-361"/>
<text text-anchor="middle" x="569.5" y="-368" font-family="Helvetica,sans-Serif" font-size="10.00">CVector::copy</text>
</a>
</g>
</g>
<!-- Node4&#45;&gt;Node5 -->
<g id="edge4" class="edge">
<title>Node4&#45;&gt;Node5</title>
<path fill="none" stroke="midnightblue" d="M459.91,-320.01C476.86,-328.47 502.46,-341.08 525,-351.5 528.68,-353.2 532.56,-354.95 536.41,-356.67"/>
<polygon fill="midnightblue" stroke="midnightblue" points="535.28,-359.99 545.84,-360.82 538.1,-353.59 535.28,-359.99"/>
</g>
<!-- Node6 -->
<g id="node6" class="node">
<title>Node6</title>
<g id="a_node6"><a xlink:href="a00502.xhtml#a5fb59528a3f5d3968f988d550b270898" target="_top" xlink:title=" ">
<polygon fill="white" stroke="black" points="529.5,-323 529.5,-342 609.5,-342 609.5,-323 529.5,-323"/>
<text text-anchor="middle" x="569.5" y="-330" font-family="Helvetica,sans-Serif" font-size="10.00">CVector::mul_I</text>
</a>
</g>
</g>
<!-- Node4&#45;&gt;Node6 -->
<g id="edge5" class="edge">
<title>Node4&#45;&gt;Node6</title>
<path fill="none" stroke="midnightblue" d="M478.22,-316.92C490.99,-319.13 505.49,-321.63 519.07,-323.97"/>
<polygon fill="midnightblue" stroke="midnightblue" points="518.78,-327.47 529.23,-325.72 519.97,-320.58 518.78,-327.47"/>
</g>
<!-- Node7 -->
<g id="node7" class="node">
<title>Node7</title>
<g id="a_node7"><a xlink:href="a00305.xhtml#a32fc71031e721d003fd1dc07f771351d" target="_top" xlink:title=" ">
<polygon fill="white" stroke="black" points="526.5,-273.5 526.5,-303.5 612.5,-303.5 612.5,-273.5 526.5,-273.5"/>
<text text-anchor="start" x="534.5" y="-291.5" font-family="Helvetica,sans-Serif" font-size="10.00">LaszloFft::realfft</text>
<text text-anchor="middle" x="569.5" y="-280.5" font-family="Helvetica,sans-Serif" font-size="10.00">_split</text>
</a>
</g>
</g>
<!-- Node4&#45;&gt;Node7 -->
<g id="edge6" class="edge">
<title>Node4&#45;&gt;Node7</title>
<path fill="none" stroke="midnightblue" d="M478.22,-304.08C490.05,-302.04 503.37,-299.74 516.06,-297.55"/>
<polygon fill="midnightblue" stroke="midnightblue" points="516.82,-300.97 526.07,-295.82 515.63,-294.07 516.82,-300.97"/>
</g>
<!-- Node8 -->
<g id="node8" class="node">
<title>Node8</title>
<g id="a_node8"><a xlink:href="a00502.xhtml#a6dbb3f9f480568b60f7fe50090d20003" target="_top" xlink:title=" ">
<polygon fill="white" stroke="black" points="525,-235 525,-254 614,-254 614,-235 525,-235"/>
<text text-anchor="middle" x="569.5" y="-242" font-family="Helvetica,sans-Serif" font-size="10.00">CVector::setZero</text>
</a>
</g>
</g>
<!-- Node4&#45;&gt;Node8 -->
<g id="edge7" class="edge">
<title>Node4&#45;&gt;Node8</title>
<path fill="none" stroke="midnightblue" d="M468.74,-300.97C475.53,-298.25 482.66,-295.05 489,-291.5 506.45,-281.73 507.82,-274.74 525,-264.5 528.44,-262.45 532.12,-260.47 535.83,-258.6"/>
<polygon fill="midnightblue" stroke="midnightblue" points="537.5,-261.68 545.01,-254.2 534.48,-255.37 537.5,-261.68"/>
</g>
<!-- Node17&#45;&gt;Node11 -->
<g id="edge17" class="edge">
<title>Node17&#45;&gt;Node11</title>
<path fill="none" stroke="midnightblue" d="M331.73,-30.58C339.75,-33.43 347.7,-36.72 355,-40.5 380.25,-53.57 405.37,-74.65 421.48,-89.46"/>
<polygon fill="midnightblue" stroke="midnightblue" points="419.34,-92.26 429.02,-96.56 424.14,-87.16 419.34,-92.26"/>
</g>
</g>
</svg>
