<?xml version="1.0" encoding="UTF-8" standalone="no"?>
<!DOCTYPE svg PUBLIC "-//W3C//DTD SVG 1.1//EN"
 "http://www.w3.org/Graphics/SVG/1.1/DTD/svg11.dtd">
<!-- Generated by graphviz version 6.0.1 (20220911.1526)
 -->
<!-- Title: CAudioFileRaw::readDataIntern_ Pages: 1 -->
<svg width="528pt" height="167pt"
 viewBox="0.00 0.00 528.00 167.00" xmlns="http://www.w3.org/2000/svg" xmlns:xlink="http://www.w3.org/1999/xlink">
<g id="graph0" class="graph" transform="scale(1 1) rotate(0) translate(4 163)">
<title>CAudioFileRaw::readDataIntern_</title>
<!-- Node1 -->
<g id="node1" class="node">
<title>Node1</title>
<g id="a_node1"><a xlink:title=" ">
<polygon fill="#999999" stroke="#666666" points="157,-88.5 0,-88.5 0,-69.5 157,-69.5 157,-88.5"/>
<text text-anchor="middle" x="78.5" y="-76.5" font-family="Helvetica,sans-Serif" font-size="10.00">CAudioFileRaw::readDataIntern_</text>
</a>
</g>
</g>
<!-- Node2 -->
<g id="node2" class="node">
<title>Node2</title>
<g id="a_node2"><a xlink:href="a00442.xhtml#a74a50bd2e71e8c5886e6f9f2cd3df323" target="_top" xlink:title=" ">
<polygon fill="white" stroke="#666666" points="323.5,-159 198.5,-159 198.5,-129 323.5,-129 323.5,-159"/>
<text text-anchor="start" x="206.5" y="-147" font-family="Helvetica,sans-Serif" font-size="10.00">CAudioFileIf::convBytes2</text>
<text text-anchor="middle" x="261" y="-136" font-family="Helvetica,sans-Serif" font-size="10.00">Frames_</text>
</a>
</g>
</g>
<!-- Node1&#45;&gt;Node2 -->
<g id="edge1" class="edge">
<title>Node1&#45;&gt;Node2</title>
<path fill="none" stroke="#63b8ff" d="M106.13,-88.59C133,-98.27 175.17,-113.45 208.57,-125.48"/>
<polygon fill="#63b8ff" stroke="#63b8ff" points="207.59,-128.85 218.18,-128.94 209.96,-122.26 207.59,-128.85"/>
</g>
<!-- Node3 -->
<g id="node3" class="node">
<title>Node3</title>
<g id="a_node3"><a xlink:href="a00442.xhtml#a8f40ad8df042735092624da261d5de85" target="_top" xlink:title=" ">
<polygon fill="white" stroke="#666666" points="520,-110.5 365,-110.5 365,-91.5 520,-91.5 520,-110.5"/>
<text text-anchor="middle" x="442.5" y="-98.5" font-family="Helvetica,sans-Serif" font-size="10.00">CAudioFileIf::getNumChannels_</text>
</a>
</g>
</g>
<!-- Node1&#45;&gt;Node3 -->
<g id="edge5" class="edge">
<title>Node1&#45;&gt;Node3</title>
<path fill="none" stroke="#63b8ff" d="M157.16,-83.72C215.19,-87.25 294.54,-92.07 354.67,-95.72"/>
<polygon fill="#63b8ff" stroke="#63b8ff" points="354.71,-99.23 364.9,-96.34 355.13,-92.24 354.71,-99.23"/>
</g>
<!-- Node4 -->
<g id="node4" class="node">
<title>Node4</title>
<g id="a_node4"><a xlink:href="a00442.xhtml#a0bd2f97afe63b5e50c3b2ce4011607a9" target="_top" xlink:title=" ">
<polygon fill="white" stroke="#666666" points="328,-73 194,-73 194,-43 328,-43 328,-73"/>
<text text-anchor="start" x="202" y="-61" font-family="Helvetica,sans-Serif" font-size="10.00">CAudioFileIf::convFrames2</text>
<text text-anchor="middle" x="261" y="-50" font-family="Helvetica,sans-Serif" font-size="10.00">Bytes_</text>
</a>
</g>
</g>
<!-- Node1&#45;&gt;Node4 -->
<g id="edge3" class="edge">
<title>Node1&#45;&gt;Node4</title>
<path fill="none" stroke="#63b8ff" d="M157.1,-69.97C165.89,-68.95 174.84,-67.91 183.62,-66.89"/>
<polygon fill="#63b8ff" stroke="#63b8ff" points="184.28,-70.33 193.81,-65.7 183.48,-63.38 184.28,-70.33"/>
</g>
<!-- Node5 -->
<g id="node5" class="node">
<title>Node5</title>
<g id="a_node5"><a xlink:href="a00434.xhtml#ad549835e10abaec5cc4a60848e286f71" target="_top" xlink:title=" ">
<polygon fill="white" stroke="#666666" points="329,-24.5 193,-24.5 193,-5.5 329,-5.5 329,-24.5"/>
<text text-anchor="middle" x="261" y="-12.5" font-family="Helvetica,sans-Serif" font-size="10.00">CAudioFileRaw::scaleDown</text>
</a>
</g>
</g>
<!-- Node1&#45;&gt;Node5 -->
<g id="edge6" class="edge">
<title>Node1&#45;&gt;Node5</title>
<path fill="none" stroke="#63b8ff" d="M101.86,-69.36C124.57,-59.75 160.88,-44.89 193,-34 199.62,-31.76 206.66,-29.56 213.6,-27.5"/>
<polygon fill="#63b8ff" stroke="#63b8ff" points="215,-30.74 223.63,-24.59 213.05,-24.01 215,-30.74"/>
</g>
<!-- Node2&#45;&gt;Node3 -->
<g id="edge2" class="edge">
<title>Node2&#45;&gt;Node3</title>
<path fill="none" stroke="#63b8ff" d="M323.52,-129.26C345.86,-123.91 370.8,-117.94 391.98,-112.86"/>
<polygon fill="#63b8ff" stroke="#63b8ff" points="392.82,-116.26 401.73,-110.53 391.19,-109.45 392.82,-116.26"/>
</g>
<!-- Node4&#45;&gt;Node3 -->
<g id="edge4" class="edge">
<title>Node4&#45;&gt;Node3</title>
<path fill="none" stroke="#63b8ff" d="M324.78,-73.04C346.76,-78.3 371.12,-84.14 391.88,-89.11"/>
<polygon fill="#63b8ff" stroke="#63b8ff" points="391.21,-92.55 401.75,-91.48 392.84,-85.74 391.21,-92.55"/>
</g>
<!-- Node6 -->
<g id="node6" class="node">
<title>Node6</title>
<g id="a_node6"><a xlink:href="a00442.xhtml#a1a04689f74a88c77fa2cbfaacdb7b448" target="_top" xlink:title=" ">
<polygon fill="white" stroke="#666666" points="505.5,-30 379.5,-30 379.5,0 505.5,0 505.5,-30"/>
<text text-anchor="start" x="387.5" y="-18" font-family="Helvetica,sans-Serif" font-size="10.00">CAudioFileIf::getNumBits</text>
<text text-anchor="middle" x="442.5" y="-7" font-family="Helvetica,sans-Serif" font-size="10.00">PerSample_</text>
</a>
</g>
</g>
<!-- Node5&#45;&gt;Node6 -->
<g id="edge7" class="edge">
<title>Node5&#45;&gt;Node6</title>
<path fill="none" stroke="#63b8ff" d="M329.09,-15C342.19,-15 355.97,-15 369.22,-15"/>
<polygon fill="#63b8ff" stroke="#63b8ff" points="369.23,-18.5 379.23,-15 369.23,-11.5 369.23,-18.5"/>
</g>
</g>
</svg>
