<?xml version="1.0" encoding="UTF-8" standalone="no"?>
<!DOCTYPE svg PUBLIC "-//W3C//DTD SVG 1.1//EN"
 "http://www.w3.org/Graphics/SVG/1.1/DTD/svg11.dtd">
<!-- Generated by graphviz version 4.0.0 (20220602.1335)
 -->
<!-- Title: CVector::getMean Pages: 1 -->
<!--zoomable 291 -->
<svg id="main" version="1.1" xmlns="http://www.w3.org/2000/svg" xmlns:xlink="http://www.w3.org/1999/xlink" xml:space="preserve" onload="init(evt)">
<style type="text/css"><![CDATA[
.edge:hover path { stroke: red; }
.edge:hover polygon { stroke: red; fill: red; }
]]></style>
<script type="text/javascript"><![CDATA[
var edges = document.getElementsByTagName('g');
if (edges && edges.length) {
  for (var i=0;i<edges.length;i++) {
    if (edges[i].id.substr(0,4)=='edge') {
      edges[i].setAttribute('class','edge');
    }
  }
}
]]></script>
        <defs>
                <circle id="rim" cx="0" cy="0" r="7"/>
                <circle id="rim2" cx="0" cy="0" r="3.5"/>
                <g id="zoomPlus">
                        <use xlink:href="#rim" fill="#404040">
                                <set attributeName="fill" to="#808080" begin="zoomplus.mouseover" end="zoomplus.mouseout"/>
                        </use>
                        <path d="M-4,0h8M0,-4v8" fill="none" stroke="white" stroke-width="1.5" pointer-events="none"/>
                </g>
                <g id="zoomMin">
                        <use xlink:href="#rim" fill="#404040">
                                <set attributeName="fill" to="#808080" begin="zoomminus.mouseover" end="zoomminus.mouseout"/>
                        </use>
                        <path d="M-4,0h8" fill="none" stroke="white" stroke-width="1.5" pointer-events="none"/>
                </g>
                <g id="dirArrow">
                        <path fill="none" stroke="white" stroke-width="1.5" d="M0,-3.0v7 M-2.5,-0.5L0,-3.0L2.5,-0.5"/>
                </g>
               <g id="resetDef">
                       <use xlink:href="#rim2" fill="#404040">
                               <set attributeName="fill" to="#808080" begin="reset.mouseover" end="reset.mouseout"/>
                       </use>
               </g>
        </defs>

<script type="text/javascript">
var viewWidth = 667;
var viewHeight = 291;
var sectionId = 'dynsection-19';
</script>
<script xlink:href="svgpan.js"/>
<svg id="graph" class="graph">
<g id="viewport">
<title>CVector::getMean</title>
<polygon fill="white" stroke="transparent" points="-4,4 -4,-287 663,-287 663,4 -4,4"/>
<!-- Node1 -->
<g id="node1" class="node">
<title>Node1</title>
<g id="a_node1"><a xlink:title=" ">
<polygon fill="#bfbfbf" stroke="black" points="565,-156.5 565,-175.5 659,-175.5 659,-156.5 565,-156.5"/>
<text text-anchor="middle" x="612" y="-163.5" font-family="Helvetica,sans-Serif" font-size="10.00">CVector::getMean</text>
</a>
</g>
</g>
<!-- Node2 -->
<g id="node2" class="node">
<title>Node2</title>
<g id="a_node2"><a xlink:href="a00569.xhtml#a6fb2c806d453b0c946cffbdcd46b027f" target="_top" xlink:title=" ">
<polygon fill="white" stroke="black" points="410,-263.5 410,-282.5 496,-282.5 496,-263.5 410,-263.5"/>
<text text-anchor="middle" x="453" y="-270.5" font-family="Helvetica,sans-Serif" font-size="10.00">CPca::compCov</text>
</a>
</g>
</g>
<!-- Node1&#45;&gt;Node2 -->
<g id="edge1" class="edge">
<title>Node1&#45;&gt;Node2</title>
<path fill="none" stroke="midnightblue" d="M599.13,-183.94C584.88,-204.06 559.08,-236.2 529,-254 519.06,-259.88 507.33,-263.96 496.14,-266.78"/>
<polygon fill="midnightblue" stroke="midnightblue" points="602.06,-185.86 604.85,-175.64 596.3,-181.89 602.06,-185.86"/>
</g>
<!-- Node4 -->
<g id="node4" class="node">
<title>Node4</title>
<g id="a_node4"><a xlink:href="a00457.xhtml#a361ef81afe12623645546fbbeab30b14" target="_top" xlink:title=" ">
<polygon fill="white" stroke="black" points="377,-214 377,-244 529,-244 529,-214 377,-214"/>
<text text-anchor="start" x="385" y="-232" font-family="Helvetica,sans-Serif" font-size="10.00">CFeatureFromBlockIf</text>
<text text-anchor="middle" x="453" y="-221" font-family="Helvetica,sans-Serif" font-size="10.00">::compFeatureSpectralFlatness</text>
</a>
</g>
</g>
<!-- Node1&#45;&gt;Node4 -->
<g id="edge3" class="edge">
<title>Node1&#45;&gt;Node4</title>
<path fill="none" stroke="midnightblue" d="M582.9,-179.98C567.22,-187.53 547.24,-196.76 529,-204 520.33,-207.44 510.97,-210.82 501.9,-213.93"/>
<polygon fill="midnightblue" stroke="midnightblue" points="584.59,-183.05 592.05,-175.52 581.52,-176.75 584.59,-183.05"/>
</g>
<!-- Node5 -->
<g id="node5" class="node">
<title>Node5</title>
<g id="a_node5"><a xlink:href="a00493.xhtml#a343e6b52e9696244dd57d4db0f91d056" target="_top" xlink:title=" ">
<polygon fill="white" stroke="black" points="410.5,-175.5 410.5,-194.5 495.5,-194.5 495.5,-175.5 410.5,-175.5"/>
<text text-anchor="middle" x="453" y="-182.5" font-family="Helvetica,sans-Serif" font-size="10.00">CKey::compKey</text>
</a>
</g>
</g>
<!-- Node1&#45;&gt;Node5 -->
<g id="edge4" class="edge">
<title>Node1&#45;&gt;Node5</title>
<path fill="none" stroke="midnightblue" d="M554.76,-172.81C535.26,-175.17 513.76,-177.77 495.65,-179.96"/>
<polygon fill="midnightblue" stroke="midnightblue" points="555.24,-176.27 564.74,-171.6 554.4,-169.32 555.24,-176.27"/>
</g>
<!-- Node7 -->
<g id="node7" class="node">
<title>Node7</title>
<g id="a_node7"><a xlink:href="a00501.xhtml#a9f110985f86064fa24aa3157bfd5cab0" target="_top" xlink:title=" ">
<polygon fill="white" stroke="black" points="391,-137.5 391,-156.5 515,-156.5 515,-137.5 391,-137.5"/>
<text text-anchor="middle" x="453" y="-144.5" font-family="Helvetica,sans-Serif" font-size="10.00">CNoveltyIf::compNovelty</text>
</a>
</g>
</g>
<!-- Node1&#45;&gt;Node7 -->
<g id="edge6" class="edge">
<title>Node1&#45;&gt;Node7</title>
<path fill="none" stroke="midnightblue" d="M554.66,-159.18C541.81,-157.63 528.1,-155.97 515.07,-154.39"/>
<polygon fill="midnightblue" stroke="midnightblue" points="554.4,-162.68 564.74,-160.4 555.24,-155.73 554.4,-162.68"/>
</g>
<!-- Node11 -->
<g id="node11" class="node">
<title>Node11</title>
<g id="a_node11"><a xlink:href="a00489.xhtml#ae2ed42101e3d7075f5dec265a23f3424" target="_top" xlink:title=" ">
<polygon fill="white" stroke="black" points="410.5,-68.5 410.5,-87.5 495.5,-87.5 495.5,-68.5 410.5,-68.5"/>
<text text-anchor="middle" x="453" y="-75.5" font-family="Helvetica,sans-Serif" font-size="10.00">CVector::getStd</text>
</a>
</g>
</g>
<!-- Node1&#45;&gt;Node11 -->
<g id="edge10" class="edge">
<title>Node1&#45;&gt;Node11</title>
<path fill="none" stroke="midnightblue" d="M585.03,-151.44C552.74,-133.35 498.55,-102.97 471.08,-87.57"/>
<polygon fill="midnightblue" stroke="midnightblue" points="583.46,-154.58 593.9,-156.41 586.89,-148.47 583.46,-154.58"/>
</g>
<!-- Node15 -->
<g id="node15" class="node">
<title>Node15</title>
<g id="a_node15"><a xlink:href="a00597.xhtml#a8fe90e9d8120bb265e6bc7d5f2766c30" target="_top" xlink:title=" ">
<polygon fill="white" stroke="black" points="239.5,-0.5 239.5,-19.5 297.5,-19.5 297.5,-0.5 239.5,-0.5"/>
<text text-anchor="middle" x="268.5" y="-7.5" font-family="Helvetica,sans-Serif" font-size="10.00">CKnn::init</text>
</a>
</g>
</g>
<!-- Node1&#45;&gt;Node15 -->
<g id="edge15" class="edge">
<title>Node1&#45;&gt;Node15</title>
<path fill="none" stroke="midnightblue" d="M602.21,-147.42C589.62,-122.96 564.03,-80.57 529,-59 454.82,-13.34 347.81,-8.46 297.56,-8.99"/>
<polygon fill="midnightblue" stroke="midnightblue" points="599.09,-149 606.67,-156.4 605.36,-145.89 599.09,-149"/>
</g>
<!-- Node3 -->
<g id="node3" class="node">
<title>Node3</title>
<g id="a_node3"><a xlink:href="a00569.xhtml#a9e44c134c68146bdc539135f3225a2d4" target="_top" xlink:title=" ">
<polygon fill="white" stroke="black" points="225.5,-263.5 225.5,-282.5 311.5,-282.5 311.5,-263.5 225.5,-263.5"/>
<text text-anchor="middle" x="268.5" y="-270.5" font-family="Helvetica,sans-Serif" font-size="10.00">CPca::compPca</text>
</a>
</g>
</g>
<!-- Node2&#45;&gt;Node3 -->
<g id="edge2" class="edge">
<title>Node2&#45;&gt;Node3</title>
<path fill="none" stroke="midnightblue" d="M399.31,-273C371.44,-273 337.7,-273 311.6,-273"/>
<polygon fill="midnightblue" stroke="midnightblue" points="399.67,-276.5 409.67,-273 399.67,-269.5 399.67,-276.5"/>
</g>
<!-- Node6 -->
<g id="node6" class="node">
<title>Node6</title>
<g id="a_node6"><a xlink:href="a00026.xhtml#a0ddf1224851353fc92bfbff6f499fa97" target="_top" xlink:title=" ">
<polygon fill="white" stroke="black" points="249.5,-213.5 249.5,-232.5 287.5,-232.5 287.5,-213.5 249.5,-213.5"/>
<text text-anchor="middle" x="268.5" y="-220.5" font-family="Helvetica,sans-Serif" font-size="10.00">main</text>
</a>
</g>
</g>
<!-- Node5&#45;&gt;Node6 -->
<g id="edge5" class="edge">
<title>Node5&#45;&gt;Node6</title>
<path fill="none" stroke="midnightblue" d="M400.34,-195.76C362.72,-203.59 313.97,-213.74 287.89,-219.17"/>
<polygon fill="midnightblue" stroke="midnightblue" points="401.05,-199.18 410.13,-193.72 399.63,-192.33 401.05,-199.18"/>
</g>
<!-- Node8 -->
<g id="node8" class="node">
<title>Node8</title>
<g id="a_node8"><a xlink:href="a00441.xhtml#a58a9a3d685f448ced2e843a60028e472" target="_top" xlink:title=" ">
<polygon fill="white" stroke="black" points="196,-175.5 196,-194.5 341,-194.5 341,-175.5 196,-175.5"/>
<text text-anchor="middle" x="268.5" y="-182.5" font-family="Helvetica,sans-Serif" font-size="10.00">CBeatHistoIf::compBeatHisto</text>
</a>
</g>
</g>
<!-- Node7&#45;&gt;Node8 -->
<g id="edge7" class="edge">
<title>Node7&#45;&gt;Node8</title>
<path fill="none" stroke="midnightblue" d="M395.9,-158.68C370.02,-164.07 339.69,-170.39 315.22,-175.48"/>
<polygon fill="midnightblue" stroke="midnightblue" points="396.87,-162.05 405.95,-156.59 395.44,-155.2 396.87,-162.05"/>
</g>
<!-- Node10 -->
<g id="node10" class="node">
<title>Node10</title>
<g id="a_node10"><a xlink:href="a00029.xhtml#a0ddf1224851353fc92bfbff6f499fa97" target="_top" xlink:title=" ">
<polygon fill="white" stroke="black" points="249.5,-137.5 249.5,-156.5 287.5,-156.5 287.5,-137.5 249.5,-137.5"/>
<text text-anchor="middle" x="268.5" y="-144.5" font-family="Helvetica,sans-Serif" font-size="10.00">main</text>
</a>
</g>
</g>
<!-- Node7&#45;&gt;Node10 -->
<g id="edge9" class="edge">
<title>Node7&#45;&gt;Node10</title>
<path fill="none" stroke="midnightblue" d="M380.67,-147C346.99,-147 309.51,-147 287.81,-147"/>
<polygon fill="midnightblue" stroke="midnightblue" points="380.98,-150.5 390.98,-147 380.98,-143.5 380.98,-150.5"/>
</g>
<!-- Node9 -->
<g id="node9" class="node">
<title>Node9</title>
<g id="a_node9"><a xlink:href="a00017.xhtml#a0ddf1224851353fc92bfbff6f499fa97" target="_top" xlink:title=" ">
<polygon fill="white" stroke="black" points="61,-175.5 61,-194.5 99,-194.5 99,-175.5 61,-175.5"/>
<text text-anchor="middle" x="80" y="-182.5" font-family="Helvetica,sans-Serif" font-size="10.00">main</text>
</a>
</g>
</g>
<!-- Node8&#45;&gt;Node9 -->
<g id="edge8" class="edge">
<title>Node8&#45;&gt;Node9</title>
<path fill="none" stroke="midnightblue" d="M185.59,-185C153.5,-185 119.59,-185 99.37,-185"/>
<polygon fill="midnightblue" stroke="midnightblue" points="185.93,-188.5 195.93,-185 185.93,-181.5 185.93,-188.5"/>
</g>
<!-- Node12 -->
<g id="node12" class="node">
<title>Node12</title>
<g id="a_node12"><a xlink:href="a00457.xhtml#a46500f9eaa49f3860afa5f1fce555415" target="_top" xlink:title=" ">
<polygon fill="white" stroke="black" points="208.5,-88 208.5,-118 328.5,-118 328.5,-88 208.5,-88"/>
<text text-anchor="start" x="216.5" y="-106" font-family="Helvetica,sans-Serif" font-size="10.00">CFeatureFromBlockIf</text>
<text text-anchor="middle" x="268.5" y="-95" font-family="Helvetica,sans-Serif" font-size="10.00">::compFeatureTimeRms</text>
</a>
</g>
</g>
<!-- Node11&#45;&gt;Node12 -->
<g id="edge11" class="edge">
<title>Node11&#45;&gt;Node12</title>
<path fill="none" stroke="midnightblue" d="M400.21,-85.1C377.96,-88.14 351.83,-91.72 328.81,-94.88"/>
<polygon fill="midnightblue" stroke="midnightblue" points="400.7,-88.56 410.13,-83.74 399.75,-81.63 400.7,-88.56"/>
</g>
<!-- Node14 -->
<g id="node14" class="node">
<title>Node14</title>
<g id="a_node14"><a xlink:href="a00457.xhtml#a4eca7f209c771fb5008fa08facffd598" target="_top" xlink:title=" ">
<polygon fill="white" stroke="black" points="211,-39 211,-69 326,-69 326,-39 211,-39"/>
<text text-anchor="start" x="219" y="-57" font-family="Helvetica,sans-Serif" font-size="10.00">CFeatureFromBlockIf</text>
<text text-anchor="middle" x="268.5" y="-46" font-family="Helvetica,sans-Serif" font-size="10.00">::compFeatureTimeStd</text>
</a>
</g>
</g>
<!-- Node11&#45;&gt;Node14 -->
<g id="edge13" class="edge">
<title>Node11&#45;&gt;Node14</title>
<path fill="none" stroke="midnightblue" d="M400.16,-71.18C377.02,-68.14 349.71,-64.55 326.04,-61.44"/>
<polygon fill="midnightblue" stroke="midnightblue" points="399.76,-74.66 410.13,-72.49 400.67,-67.72 399.76,-74.66"/>
</g>
<!-- Node11&#45;&gt;Node15 -->
<g id="edge14" class="edge">
<title>Node11&#45;&gt;Node15</title>
<path fill="none" stroke="midnightblue" d="M411.45,-65.1C400.11,-61.03 387.91,-56.23 377,-51 360.09,-42.89 358.24,-36.37 341,-29 327.18,-23.09 311.06,-18.61 297.63,-15.5"/>
<polygon fill="midnightblue" stroke="midnightblue" points="410.54,-68.49 421.14,-68.47 412.84,-61.88 410.54,-68.49"/>
</g>
<!-- Node13 -->
<g id="node13" class="node">
<title>Node13</title>
<g id="a_node13"><a xlink:href="a00349.xhtml#a0d5c1ad84a07183a43397c5666489733" target="_top" xlink:title=" ">
<polygon fill="white" stroke="black" points="0,-93.5 0,-112.5 160,-112.5 160,-93.5 0,-93.5"/>
<text text-anchor="middle" x="80" y="-100.5" font-family="Helvetica,sans-Serif" font-size="10.00">CFeatureTimeRms::compFeature</text>
</a>
</g>
</g>
<!-- Node12&#45;&gt;Node13 -->
<g id="edge12" class="edge">
<title>Node12&#45;&gt;Node13</title>
<path fill="none" stroke="midnightblue" d="M198.22,-103C185.8,-103 172.77,-103 160.09,-103"/>
<polygon fill="midnightblue" stroke="midnightblue" points="198.49,-106.5 208.49,-103 198.49,-99.5 198.49,-106.5"/>
</g>
</g>
</svg>
        <g id="navigator" transform="translate(0 0)" fill="#404254">
                <rect fill="#f2f5e9" fill-opacity="0.5" stroke="#606060" stroke-width=".5" x="0" y="0" width="60" height="60"/>
                <use id="zoomplus" xlink:href="#zoomPlus" x="17" y="9" onmousedown="handleZoom(evt,'in')"/>
                <use id="zoomminus" xlink:href="#zoomMin" x="42" y="9" onmousedown="handleZoom(evt,'out')"/>
                <use id="reset" xlink:href="#resetDef" x="30" y="36" onmousedown="handleReset()"/>
                <g id="arrowUp" xlink:href="#dirArrow" transform="translate(30 24)" onmousedown="handlePan(0,-1)">
                  <use xlink:href="#rim" fill="#404040">
                        <set attributeName="fill" to="#808080" begin="arrowUp.mouseover" end="arrowUp.mouseout"/>
                  </use>
                  <path fill="none" stroke="white" stroke-width="1.5" d="M0,-3.0v7 M-2.5,-0.5L0,-3.0L2.5,-0.5"/>
                </g>
                <g id="arrowRight" xlink:href="#dirArrow" transform="rotate(90) translate(36 -43)" onmousedown="handlePan(1,0)">
                  <use xlink:href="#rim" fill="#404040">
                        <set attributeName="fill" to="#808080" begin="arrowRight.mouseover" end="arrowRight.mouseout"/>
                  </use>
                  <path fill="none" stroke="white" stroke-width="1.5" d="M0,-3.0v7 M-2.5,-0.5L0,-3.0L2.5,-0.5"/>
                </g>
                <g id="arrowDown" xlink:href="#dirArrow" transform="rotate(180) translate(-30 -48)" onmousedown="handlePan(0,1)">
                  <use xlink:href="#rim" fill="#404040">
                        <set attributeName="fill" to="#808080" begin="arrowDown.mouseover" end="arrowDown.mouseout"/>
                  </use>
                  <path fill="none" stroke="white" stroke-width="1.5" d="M0,-3.0v7 M-2.5,-0.5L0,-3.0L2.5,-0.5"/>
                </g>
                <g id="arrowLeft" xlink:href="#dirArrow" transform="rotate(270) translate(-36 17)" onmousedown="handlePan(-1,0)">
                  <use xlink:href="#rim" fill="#404040">
                        <set attributeName="fill" to="#808080" begin="arrowLeft.mouseover" end="arrowLeft.mouseout"/>
                  </use>
                  <path fill="none" stroke="white" stroke-width="1.5" d="M0,-3.0v7 M-2.5,-0.5L0,-3.0L2.5,-0.5"/>
                </g>
        </g>
        <svg viewBox="0 0 15 15" width="100%" height="30px" preserveAspectRatio="xMaxYMin meet">
         <g id="arrow_out" transform="scale(0.3 0.3)">
          <a xlink:href="a00489_ae6e3545cf196c5e2409365bc62b7c1de_icgraph_org.svg" target="_base">
           <rect id="button" ry="5" rx="5" y="6" x="6" height="38" width="38"
                fill="#f2f5e9" fill-opacity="0.5" stroke="#606060" stroke-width="1.0"/>
           <path id="arrow"
             d="M 11.500037,31.436501 C 11.940474,20.09759 22.043105,11.32322 32.158766,21.979434 L 37.068811,17.246167 C 37.068811,17.246167 37.088388,32 37.088388,32 L 22.160133,31.978069 C 22.160133,31.978069 26.997745,27.140456 26.997745,27.140456 C 18.528582,18.264221 13.291696,25.230495 11.500037,31.436501 z"
             style="fill:#404040;"/>
          </a>
         </g>
        </svg>
</svg>
