<?xml version="1.0" encoding="UTF-8" standalone="no"?>
<!DOCTYPE svg PUBLIC "-//W3C//DTD SVG 1.1//EN"
 "http://www.w3.org/Graphics/SVG/1.1/DTD/svg11.dtd">
<!-- Generated by graphviz version 6.0.1 (20220911.1526)
 -->
<!-- Title: CAudioFileIf::isClippingEnabled Pages: 1 -->
<svg width="465pt" height="81pt"
 viewBox="0.00 0.00 465.00 81.00" xmlns="http://www.w3.org/2000/svg" xmlns:xlink="http://www.w3.org/1999/xlink">
<g id="graph0" class="graph" transform="scale(1 1) rotate(0) translate(4 77)">
<title>CAudioFileIf::isClippingEnabled</title>
<!-- Node1 -->
<g id="node1" class="node">
<title>Node1</title>
<g id="a_node1"><a xlink:title=" ">
<polygon fill="#999999" stroke="#666666" points="457,-51 341,-51 341,-21 457,-21 457,-51"/>
<text text-anchor="start" x="349" y="-39" font-family="Helvetica,sans-Serif" font-size="10.00">CAudioFileIf::isClipping</text>
<text text-anchor="middle" x="399" y="-28" font-family="Helvetica,sans-Serif" font-size="10.00">Enabled</text>
</a>
</g>
</g>
<!-- Node2 -->
<g id="node2" class="node">
<title>Node2</title>
<g id="a_node2"><a xlink:href="a00434.xhtml#a8b2a01be9952441ead5aa47b6a49da26" target="_top" xlink:title=" ">
<polygon fill="white" stroke="#666666" points="297,-67.5 173,-67.5 173,-48.5 297,-48.5 297,-67.5"/>
<text text-anchor="middle" x="235" y="-55.5" font-family="Helvetica,sans-Serif" font-size="10.00">CAudioFileRaw::scaleUp</text>
</a>
</g>
</g>
<!-- Node1&#45;&gt;Node2 -->
<g id="edge1" class="edge">
<title>Node1&#45;&gt;Node2</title>
<path fill="none" stroke="#63b8ff" d="M330.81,-45.13C319.7,-46.63 308.23,-48.19 297.27,-49.68"/>
<polygon fill="#63b8ff" stroke="#63b8ff" points="331.45,-48.57 340.88,-43.76 330.5,-41.63 331.45,-48.57"/>
</g>
<!-- Node4 -->
<g id="node4" class="node">
<title>Node4</title>
<g id="a_node4"><a xlink:href="a00438.xhtml#a1d49eca33db11f5ab618dced30995a74" target="_top" xlink:title=" ">
<polygon fill="white" stroke="#666666" points="305,-30 165,-30 165,0 305,0 305,-30"/>
<text text-anchor="start" x="173" y="-18" font-family="Helvetica,sans-Serif" font-size="10.00">CAudioFileSndLib::writeData</text>
<text text-anchor="middle" x="235" y="-7" font-family="Helvetica,sans-Serif" font-size="10.00">Intern_</text>
</a>
</g>
</g>
<!-- Node1&#45;&gt;Node4 -->
<g id="edge3" class="edge">
<title>Node1&#45;&gt;Node4</title>
<path fill="none" stroke="#63b8ff" d="M330.7,-27.28C322.24,-26.18 313.58,-25.06 305.1,-23.96"/>
<polygon fill="#63b8ff" stroke="#63b8ff" points="330.52,-30.78 340.88,-28.6 331.42,-23.84 330.52,-30.78"/>
</g>
<!-- Node3 -->
<g id="node3" class="node">
<title>Node3</title>
<g id="a_node3"><a xlink:href="a00434.xhtml#a611b099887caaba4eceaa387b8d98bd2" target="_top" xlink:title=" ">
<polygon fill="white" stroke="#666666" points="129,-73 0,-73 0,-43 129,-43 129,-73"/>
<text text-anchor="start" x="8" y="-61" font-family="Helvetica,sans-Serif" font-size="10.00">CAudioFileRaw::writeData</text>
<text text-anchor="middle" x="64.5" y="-50" font-family="Helvetica,sans-Serif" font-size="10.00">Intern_</text>
</a>
</g>
</g>
<!-- Node2&#45;&gt;Node3 -->
<g id="edge2" class="edge">
<title>Node2&#45;&gt;Node3</title>
<path fill="none" stroke="#63b8ff" d="M162.57,-58C151.43,-58 139.98,-58 129.03,-58"/>
<polygon fill="#63b8ff" stroke="#63b8ff" points="162.69,-61.5 172.69,-58 162.69,-54.5 162.69,-61.5"/>
</g>
</g>
</svg>
