<?xml version="1.0" encoding="UTF-8" standalone="no"?>
<!DOCTYPE svg PUBLIC "-//W3C//DTD SVG 1.1//EN"
 "http://www.w3.org/Graphics/SVG/1.1/DTD/svg11.dtd">
<!-- Generated by graphviz version 6.0.1 (20220911.1526)
 -->
<!-- Title: CFeatureFromBlockIf::CFeatureFromBlockIf Pages: 1 -->
<svg width="586pt" height="105pt"
 viewBox="0.00 0.00 586.00 105.00" xmlns="http://www.w3.org/2000/svg" xmlns:xlink="http://www.w3.org/1999/xlink">
<g id="graph0" class="graph" transform="scale(1 1) rotate(0) translate(4 101)">
<title>CFeatureFromBlockIf::CFeatureFromBlockIf</title>
<!-- Node1 -->
<g id="node1" class="node">
<title>Node1</title>
<g id="a_node1"><a xlink:title=" ">
<polygon fill="#999999" stroke="#666666" points="578,-75 464,-75 464,-45 578,-45 578,-75"/>
<text text-anchor="start" x="472" y="-63" font-family="Helvetica,sans-Serif" font-size="10.00">CFeatureFromBlockIf</text>
<text text-anchor="middle" x="521" y="-52" font-family="Helvetica,sans-Serif" font-size="10.00">::CFeatureFromBlockIf</text>
</a>
</g>
</g>
<!-- Node2 -->
<g id="node2" class="node">
<title>Node2</title>
<g id="a_node2"><a xlink:href="a00470.xhtml#a6d3ca4f66582ae352e3addfd7f99a752" target="_top" xlink:title=" ">
<polygon fill="white" stroke="#666666" points="428,-75 318,-75 318,-45 428,-45 428,-75"/>
<text text-anchor="start" x="326" y="-63" font-family="Helvetica,sans-Serif" font-size="10.00">CFeatureFromBlockIf</text>
<text text-anchor="middle" x="373" y="-52" font-family="Helvetica,sans-Serif" font-size="10.00">::create</text>
</a>
</g>
</g>
<!-- Node1&#45;&gt;Node2 -->
<g id="edge1" class="edge">
<title>Node1&#45;&gt;Node2</title>
<path fill="none" stroke="#63b8ff" d="M453.95,-60C445.33,-60 436.59,-60 428.2,-60"/>
<polygon fill="#63b8ff" stroke="#63b8ff" points="453.97,-63.5 463.97,-60 453.97,-56.5 453.97,-63.5"/>
</g>
<!-- Node3 -->
<g id="node3" class="node">
<title>Node3</title>
<g id="a_node3"><a xlink:href="a00458.xhtml#a2e221ac492231e16a62781a573921a9c" target="_top" xlink:title=" ">
<polygon fill="white" stroke="#666666" points="282,-97 175,-97 175,-67 282,-67 282,-97"/>
<text text-anchor="start" x="183" y="-85" font-family="Helvetica,sans-Serif" font-size="10.00">CChordFromBlockIf::</text>
<text text-anchor="middle" x="228.5" y="-74" font-family="Helvetica,sans-Serif" font-size="10.00">CChordFromBlockIf</text>
</a>
</g>
</g>
<!-- Node2&#45;&gt;Node3 -->
<g id="edge2" class="edge">
<title>Node2&#45;&gt;Node3</title>
<path fill="none" stroke="#63b8ff" d="M307.78,-69.92C299.23,-71.24 290.54,-72.58 282.22,-73.86"/>
<polygon fill="#63b8ff" stroke="#63b8ff" points="308.37,-73.36 317.72,-68.38 307.3,-66.45 308.37,-73.36"/>
</g>
<!-- Node4 -->
<g id="node4" class="node">
<title>Node4</title>
<g id="a_node4"><a xlink:href="a00466.xhtml#ab38ca831ee8ae42a8a95e33af4f756ba" target="_top" xlink:title="init configuration">
<polygon fill="white" stroke="#666666" points="271,-48.5 186,-48.5 186,-29.5 271,-29.5 271,-48.5"/>
<text text-anchor="middle" x="228.5" y="-36.5" font-family="Helvetica,sans-Serif" font-size="10.00">CFeatureIf::init_</text>
</a>
</g>
</g>
<!-- Node2&#45;&gt;Node4 -->
<g id="edge3" class="edge">
<title>Node2&#45;&gt;Node4</title>
<path fill="none" stroke="#63b8ff" d="M307.47,-50.49C295.16,-48.68 282.58,-46.82 271.22,-45.15"/>
<polygon fill="#63b8ff" stroke="#63b8ff" points="307.32,-54.01 317.72,-52 308.34,-47.08 307.32,-54.01"/>
</g>
<!-- Node5 -->
<g id="node5" class="node">
<title>Node5</title>
<g id="a_node5"><a xlink:href="a00318.xhtml#abdd90edbfe131bcd181d9ffac77fab8e" target="_top" xlink:title=" ">
<polygon fill="white" stroke="#666666" points="139,-78 0,-78 0,-48 139,-48 139,-78"/>
<text text-anchor="start" x="8" y="-66" font-family="Helvetica,sans-Serif" font-size="10.00">CFeatureFromFile::CFeature</text>
<text text-anchor="middle" x="69.5" y="-55" font-family="Helvetica,sans-Serif" font-size="10.00">FromFile</text>
</a>
</g>
</g>
<!-- Node4&#45;&gt;Node5 -->
<g id="edge4" class="edge">
<title>Node4&#45;&gt;Node5</title>
<path fill="none" stroke="#63b8ff" d="M175.79,-46.91C164.05,-48.7 151.4,-50.63 139.08,-52.52"/>
<polygon fill="#63b8ff" stroke="#63b8ff" points="176.48,-50.34 185.84,-45.37 175.42,-43.42 176.48,-50.34"/>
</g>
<!-- Node6 -->
<g id="node6" class="node">
<title>Node6</title>
<g id="a_node6"><a xlink:href="a00322.xhtml#a686d96f3eac3a33378fcea886d687305" target="_top" xlink:title=" ">
<polygon fill="white" stroke="#666666" points="125.5,-30 13.5,-30 13.5,0 125.5,0 125.5,-30"/>
<text text-anchor="start" x="21.5" y="-18" font-family="Helvetica,sans-Serif" font-size="10.00">CFeatureFromVector</text>
<text text-anchor="middle" x="69.5" y="-7" font-family="Helvetica,sans-Serif" font-size="10.00">::CFeatureFromVector</text>
</a>
</g>
</g>
<!-- Node4&#45;&gt;Node6 -->
<g id="edge5" class="edge">
<title>Node4&#45;&gt;Node6</title>
<path fill="none" stroke="#63b8ff" d="M175.59,-31.06C159.58,-28.62 141.89,-25.91 125.67,-23.43"/>
<polygon fill="#63b8ff" stroke="#63b8ff" points="175.42,-34.58 185.84,-32.63 176.48,-27.66 175.42,-34.58"/>
</g>
</g>
</svg>
