<?xml version="1.0" encoding="UTF-8" standalone="no"?>
<!DOCTYPE svg PUBLIC "-//W3C//DTD SVG 1.1//EN"
 "http://www.w3.org/Graphics/SVG/1.1/DTD/svg11.dtd">
<!-- Generated by graphviz version 6.0.1 (20220911.1526)
 -->
<!-- Title: CGammaToneFbFromFile::~CGammaToneFbFromFile Pages: 1 -->
<svg width="296pt" height="64pt"
 viewBox="0.00 0.00 296.00 64.00" xmlns="http://www.w3.org/2000/svg" xmlns:xlink="http://www.w3.org/1999/xlink">
<g id="graph0" class="graph" transform="scale(1 1) rotate(0) translate(4 60)">
<title>CGammaToneFbFromFile::~CGammaToneFbFromFile</title>
<!-- Node1 -->
<g id="node1" class="node">
<title>Node1</title>
<g id="a_node1"><a xlink:title=" ">
<polygon fill="#999999" stroke="#666666" points="139,-42.5 0,-42.5 0,-12.5 139,-12.5 139,-42.5"/>
<text text-anchor="start" x="8" y="-30.5" font-family="Helvetica,sans-Serif" font-size="10.00">CGammaToneFbFromFile</text>
<text text-anchor="middle" x="69.5" y="-19.5" font-family="Helvetica,sans-Serif" font-size="10.00">::~CGammaToneFbFromFile</text>
</a>
</g>
</g>
<!-- Node2 -->
<g id="node2" class="node">
<title>Node2</title>
<g id="a_node2"><a xlink:href="a00442.xhtml#a9b8022f870f94a4b8c5a1f25cf24d2f9" target="_top" xlink:title=" ">
<polygon fill="white" stroke="#666666" points="288,-56 175,-56 175,-37 288,-37 288,-56"/>
<text text-anchor="middle" x="231.5" y="-44" font-family="Helvetica,sans-Serif" font-size="10.00">CAudioFileIf::closeFile</text>
</a>
</g>
</g>
<!-- Node1&#45;&gt;Node2 -->
<g id="edge1" class="edge">
<title>Node1&#45;&gt;Node2</title>
<path fill="none" stroke="#63b8ff" d="M139.28,-35.67C147.71,-36.67 156.31,-37.69 164.7,-38.69"/>
<polygon fill="#63b8ff" stroke="#63b8ff" points="164.45,-42.18 174.79,-39.88 165.27,-35.23 164.45,-42.18"/>
</g>
<!-- Node3 -->
<g id="node3" class="node">
<title>Node3</title>
<g id="a_node3"><a xlink:href="a00442.xhtml#ab490b9d06c7efa0e4da3596cf4e7bec4" target="_top" xlink:title=" ">
<polygon fill="white" stroke="#666666" points="284.5,-19 178.5,-19 178.5,0 284.5,0 284.5,-19"/>
<text text-anchor="middle" x="231.5" y="-7" font-family="Helvetica,sans-Serif" font-size="10.00">CAudioFileIf::destroy</text>
</a>
</g>
</g>
<!-- Node1&#45;&gt;Node3 -->
<g id="edge2" class="edge">
<title>Node1&#45;&gt;Node3</title>
<path fill="none" stroke="#63b8ff" d="M139.28,-19.76C148.86,-18.68 158.66,-17.58 168.11,-16.52"/>
<polygon fill="#63b8ff" stroke="#63b8ff" points="168.66,-19.98 178.21,-15.38 167.88,-13.02 168.66,-19.98"/>
</g>
</g>
</svg>
