<?xml version="1.0" encoding="UTF-8" standalone="no"?>
<!DOCTYPE svg PUBLIC "-//W3C//DTD SVG 1.1//EN"
 "http://www.w3.org/Graphics/SVG/1.1/DTD/svg11.dtd">
<!-- Generated by graphviz version 12.2.1 (20241206.2353)
 -->
<!-- Title: CFeatureIf::CFeatureIf Pages: 1 -->
<svg width="581pt" height="113pt"
 viewBox="0.00 0.00 580.50 113.25" xmlns="http://www.w3.org/2000/svg" xmlns:xlink="http://www.w3.org/1999/xlink">
<g id="graph0" class="graph" transform="scale(1 1) rotate(0) translate(4 109.25)">
<title>CFeatureIf::CFeatureIf</title>
<!-- Node1 -->
<g id="Node000001" class="node">
<title>Node1</title>
<g id="a_Node000001"><a xlink:title=" ">
<polygon fill="#999999" stroke="#666666" points="112,-62.25 0,-62.25 0,-43 112,-43 112,-62.25"/>
<text text-anchor="middle" x="56" y="-48.75" font-family="Helvetica,sans-Serif" font-size="10.00">CFeatureIf::CFeatureIf</text>
</a>
</g>
</g>
<!-- Node2 -->
<g id="Node000002" class="node">
<title>Node2</title>
<g id="a_Node000002"><a xlink:href="a00469.xhtml#a7b77edaf405fefd82329d8987b16d1f2" target="_top" xlink:title="reset configuration">
<polygon fill="white" stroke="#666666" points="241.25,-62.25 148,-62.25 148,-43 241.25,-43 241.25,-62.25"/>
<text text-anchor="middle" x="194.62" y="-48.75" font-family="Helvetica,sans-Serif" font-size="10.00">CFeatureIf::reset_</text>
</a>
</g>
</g>
<!-- Node1&#45;&gt;Node2 -->
<g id="edge1_Node000001_Node000002" class="edge">
<title>Node1&#45;&gt;Node2</title>
<g id="a_edge1_Node000001_Node000002"><a xlink:title=" ">
<path fill="none" stroke="#63b8ff" d="M112.18,-52.62C120.23,-52.62 128.54,-52.62 136.63,-52.62"/>
<polygon fill="#63b8ff" stroke="#63b8ff" points="136.36,-56.13 146.36,-52.63 136.36,-49.13 136.36,-56.13"/>
</a>
</g>
</g>
<!-- Node3 -->
<g id="Node000003" class="node">
<title>Node3</title>
<g id="a_Node000003"><a xlink:href="a00545.xhtml#a13d2bd6e36210dde0c64d188c1266b88" target="_top" xlink:title=" ">
<polygon fill="white" stroke="#666666" points="391.5,-105.25 277.25,-105.25 277.25,-86 391.5,-86 391.5,-105.25"/>
<text text-anchor="middle" x="334.38" y="-91.75" font-family="Helvetica,sans-Serif" font-size="10.00">CBlockAudioIf::destroy</text>
</a>
</g>
</g>
<!-- Node2&#45;&gt;Node3 -->
<g id="edge2_Node000002_Node000003" class="edge">
<title>Node2&#45;&gt;Node3</title>
<g id="a_edge2_Node000002_Node000003"><a xlink:title=" ">
<path fill="none" stroke="#63b8ff" d="M227.92,-62.71C246.57,-68.53 270.27,-75.93 290.47,-82.23"/>
<polygon fill="#63b8ff" stroke="#63b8ff" points="289.25,-85.52 299.84,-85.16 291.33,-78.83 289.25,-85.52"/>
</a>
</g>
</g>
<!-- Node5 -->
<g id="Node000005" class="node">
<title>Node5</title>
<g id="a_Node000005"><a xlink:href="a00473.xhtml#a300e7b2134b2bd0faaa24cfecbd9cb51" target="_top" xlink:title=" ">
<polygon fill="white" stroke="#666666" points="388.88,-67.88 279.88,-67.88 279.88,-37.38 388.88,-37.38 388.88,-67.88"/>
<text text-anchor="start" x="287.88" y="-54.38" font-family="Helvetica,sans-Serif" font-size="10.00">CFeatureFromBlockIf</text>
<text text-anchor="middle" x="334.38" y="-43.12" font-family="Helvetica,sans-Serif" font-size="10.00">::destroy</text>
</a>
</g>
</g>
<!-- Node2&#45;&gt;Node5 -->
<g id="edge4_Node000002_Node000005" class="edge">
<title>Node2&#45;&gt;Node5</title>
<g id="a_edge4_Node000002_Node000005"><a xlink:title=" ">
<path fill="none" stroke="#63b8ff" d="M241.49,-52.62C250.08,-52.62 259.2,-52.62 268.24,-52.62"/>
<polygon fill="#63b8ff" stroke="#63b8ff" points="268.08,-56.13 278.08,-52.63 268.08,-49.13 268.08,-56.13"/>
</a>
</g>
</g>
<!-- Node7 -->
<g id="Node000007" class="node">
<title>Node7</title>
<g id="a_Node000007"><a xlink:href="a00505.xhtml#aa86bdb0c663d4d52f2765793756f8737" target="_top" xlink:title=" ">
<polygon fill="white" stroke="#666666" points="370.5,-19.25 298.25,-19.25 298.25,0 370.5,0 370.5,-19.25"/>
<text text-anchor="middle" x="334.38" y="-5.75" font-family="Helvetica,sans-Serif" font-size="10.00">CVector::free</text>
</a>
</g>
</g>
<!-- Node2&#45;&gt;Node7 -->
<g id="edge6_Node000002_Node000007" class="edge">
<title>Node2&#45;&gt;Node7</title>
<g id="a_edge6_Node000002_Node000007"><a xlink:title=" ">
<path fill="none" stroke="#63b8ff" d="M227.92,-42.54C246.57,-36.72 270.27,-29.32 290.47,-23.02"/>
<polygon fill="#63b8ff" stroke="#63b8ff" points="291.33,-26.42 299.84,-20.09 289.25,-19.73 291.33,-26.42"/>
</a>
</g>
</g>
<!-- Node4 -->
<g id="Node000004" class="node">
<title>Node4</title>
<g id="a_Node000004"><a xlink:href="a00545.xhtml#a25b4acfbc219a671933702aaf97229fd" target="_top" xlink:title=" ">
<polygon fill="white" stroke="#666666" points="572.5,-105.25 427.5,-105.25 427.5,-86 572.5,-86 572.5,-105.25"/>
<text text-anchor="middle" x="500" y="-91.75" font-family="Helvetica,sans-Serif" font-size="10.00">CBlockAudioIf::CBlockAudioIf</text>
</a>
</g>
</g>
<!-- Node3&#45;&gt;Node4 -->
<g id="edge3_Node000003_Node000004" class="edge">
<title>Node3&#45;&gt;Node4</title>
<g id="a_edge3_Node000003_Node000004"><a xlink:title=" ">
<path fill="none" stroke="#63b8ff" d="M391.69,-95.62C399.48,-95.62 407.61,-95.62 415.76,-95.62"/>
<polygon fill="#63b8ff" stroke="#63b8ff" points="415.76,-99.13 425.76,-95.63 415.76,-92.13 415.76,-99.13"/>
</a>
</g>
</g>
<!-- Node6 -->
<g id="Node000006" class="node">
<title>Node6</title>
<g id="a_Node000006"><a xlink:href="a00473.xhtml#a483bca508e2817799a3173a6180d245e" target="_top" xlink:title=" ">
<polygon fill="white" stroke="#666666" points="556.75,-67.88 443.25,-67.88 443.25,-37.38 556.75,-37.38 556.75,-67.88"/>
<text text-anchor="start" x="451.25" y="-54.38" font-family="Helvetica,sans-Serif" font-size="10.00">CFeatureFromBlockIf</text>
<text text-anchor="middle" x="500" y="-43.12" font-family="Helvetica,sans-Serif" font-size="10.00">::CFeatureFromBlockIf</text>
</a>
</g>
</g>
<!-- Node5&#45;&gt;Node6 -->
<g id="edge5_Node000005_Node000006" class="edge">
<title>Node5&#45;&gt;Node6</title>
<g id="a_edge5_Node000005_Node000006"><a xlink:title=" ">
<path fill="none" stroke="#63b8ff" d="M388.95,-52.62C402.56,-52.62 417.35,-52.62 431.55,-52.62"/>
<polygon fill="#63b8ff" stroke="#63b8ff" points="431.26,-56.13 441.26,-52.63 431.26,-49.13 431.26,-56.13"/>
</a>
</g>
</g>
</g>
</svg>
