<?xml version="1.0" encoding="UTF-8" standalone="no"?>
<!DOCTYPE svg PUBLIC "-//W3C//DTD SVG 1.1//EN"
 "http://www.w3.org/Graphics/SVG/1.1/DTD/svg11.dtd">
<!-- Generated by graphviz version 4.0.0 (20220602.1335)
 -->
<!-- Title: CAudioFileRaw::CAudioFileRaw Pages: 1 -->
<!--zoomable 142 -->
<svg id="main" version="1.1" xmlns="http://www.w3.org/2000/svg" xmlns:xlink="http://www.w3.org/1999/xlink" xml:space="preserve" onload="init(evt)">
<style type="text/css"><![CDATA[
.edge:hover path { stroke: red; }
.edge:hover polygon { stroke: red; fill: red; }
]]></style>
<script type="text/javascript"><![CDATA[
var edges = document.getElementsByTagName('g');
if (edges && edges.length) {
  for (var i=0;i<edges.length;i++) {
    if (edges[i].id.substr(0,4)=='edge') {
      edges[i].setAttribute('class','edge');
    }
  }
}
]]></script>
        <defs>
                <circle id="rim" cx="0" cy="0" r="7"/>
                <circle id="rim2" cx="0" cy="0" r="3.5"/>
                <g id="zoomPlus">
                        <use xlink:href="#rim" fill="#404040">
                                <set attributeName="fill" to="#808080" begin="zoomplus.mouseover" end="zoomplus.mouseout"/>
                        </use>
                        <path d="M-4,0h8M0,-4v8" fill="none" stroke="white" stroke-width="1.5" pointer-events="none"/>
                </g>
                <g id="zoomMin">
                        <use xlink:href="#rim" fill="#404040">
                                <set attributeName="fill" to="#808080" begin="zoomminus.mouseover" end="zoomminus.mouseout"/>
                        </use>
                        <path d="M-4,0h8" fill="none" stroke="white" stroke-width="1.5" pointer-events="none"/>
                </g>
                <g id="dirArrow">
                        <path fill="none" stroke="white" stroke-width="1.5" d="M0,-3.0v7 M-2.5,-0.5L0,-3.0L2.5,-0.5"/>
                </g>
               <g id="resetDef">
                       <use xlink:href="#rim2" fill="#404040">
                               <set attributeName="fill" to="#808080" begin="reset.mouseover" end="reset.mouseout"/>
                       </use>
               </g>
        </defs>

<script type="text/javascript">
var viewWidth = 632;
var viewHeight = 142;
var sectionId = 'dynsection-2';
</script>
<script xlink:href="svgpan.js"/>
<svg id="graph" class="graph">
<g id="viewport">
<title>CAudioFileRaw::CAudioFileRaw</title>
<polygon fill="white" stroke="transparent" points="-4,4 -4,-138 628,-138 628,4 -4,4"/>
<!-- Node1 -->
<g id="node1" class="node">
<title>Node1</title>
<g id="a_node1"><a xlink:title=" ">
<polygon fill="#bfbfbf" stroke="black" points="0,-76.5 0,-95.5 155,-95.5 155,-76.5 0,-76.5"/>
<text text-anchor="middle" x="77.5" y="-83.5" font-family="Helvetica,sans-Serif" font-size="10.00">CAudioFileRaw::CAudioFileRaw</text>
</a>
</g>
</g>
<!-- Node2 -->
<g id="node2" class="node">
<title>Node2</title>
<g id="a_node2"><a xlink:href="a00421.xhtml#afd69456f1bc1e58632348f8ac9b70aa1" target="_top" xlink:title=" ">
<polygon fill="white" stroke="black" points="191,-76.5 191,-95.5 287,-95.5 287,-76.5 191,-76.5"/>
<text text-anchor="middle" x="239" y="-83.5" font-family="Helvetica,sans-Serif" font-size="10.00">CAudioFileIf::reset</text>
</a>
</g>
</g>
<!-- Node1&#45;&gt;Node2 -->
<g id="edge1" class="edge">
<title>Node1&#45;&gt;Node2</title>
<path fill="none" stroke="midnightblue" d="M155.45,-86C163.96,-86 172.52,-86 180.73,-86"/>
<polygon fill="midnightblue" stroke="midnightblue" points="180.91,-89.5 190.91,-86 180.91,-82.5 180.91,-89.5"/>
</g>
<!-- Node3 -->
<g id="node3" class="node">
<title>Node3</title>
<g id="a_node3"><a xlink:href="a00421.xhtml#a9b8022f870f94a4b8c5a1f25cf24d2f9" target="_top" xlink:title=" ">
<polygon fill="white" stroke="black" points="332,-114.5 332,-133.5 445,-133.5 445,-114.5 332,-114.5"/>
<text text-anchor="middle" x="388.5" y="-121.5" font-family="Helvetica,sans-Serif" font-size="10.00">CAudioFileIf::closeFile</text>
</a>
</g>
</g>
<!-- Node2&#45;&gt;Node3 -->
<g id="edge2" class="edge">
<title>Node2&#45;&gt;Node3</title>
<path fill="none" stroke="midnightblue" d="M277.22,-95.59C296.51,-100.56 320.26,-106.68 340.77,-111.96"/>
<polygon fill="midnightblue" stroke="midnightblue" points="339.99,-115.37 350.55,-114.48 341.74,-108.6 339.99,-115.37"/>
</g>
<!-- Node4 -->
<g id="node4" class="node">
<title>Node4</title>
<g id="a_node4"><a xlink:href="a00421.xhtml#aec3ce9851e3b2876ff4978a0cbff7a2b" target="_top" xlink:title=" ">
<polygon fill="white" stroke="black" points="323,-76.5 323,-95.5 454,-95.5 454,-76.5 323,-76.5"/>
<text text-anchor="middle" x="388.5" y="-83.5" font-family="Helvetica,sans-Serif" font-size="10.00">CAudioFileIf::freeMemory_</text>
</a>
</g>
</g>
<!-- Node2&#45;&gt;Node4 -->
<g id="edge3" class="edge">
<title>Node2&#45;&gt;Node4</title>
<path fill="none" stroke="midnightblue" d="M287.08,-86C295.26,-86 303.94,-86 312.65,-86"/>
<polygon fill="midnightblue" stroke="midnightblue" points="312.85,-89.5 322.85,-86 312.85,-82.5 312.85,-89.5"/>
</g>
<!-- Node5 -->
<g id="node5" class="node">
<title>Node5</title>
<g id="a_node5"><a xlink:href="a00421.xhtml#a9fcdd386ee5292b5a971c7077858274c" target="_top" xlink:title=" ">
<polygon fill="white" stroke="black" points="324.5,-38.5 324.5,-57.5 452.5,-57.5 452.5,-38.5 324.5,-38.5"/>
<text text-anchor="middle" x="388.5" y="-45.5" font-family="Helvetica,sans-Serif" font-size="10.00">CAudioFileIf::initDefaults_</text>
</a>
</g>
</g>
<!-- Node2&#45;&gt;Node5 -->
<g id="edge4" class="edge">
<title>Node2&#45;&gt;Node5</title>
<path fill="none" stroke="midnightblue" d="M277.22,-76.41C296.51,-71.44 320.26,-65.32 340.77,-60.04"/>
<polygon fill="midnightblue" stroke="midnightblue" points="341.74,-63.4 350.55,-57.52 339.99,-56.63 341.74,-63.4"/>
</g>
<!-- Node6 -->
<g id="node6" class="node">
<title>Node6</title>
<g id="a_node6"><a xlink:href="a00421.xhtml#a5a74fd1730a2f0f7339b6507ca7abc23" target="_top" xlink:title=" ">
<polygon fill="white" stroke="black" points="496,-77 496,-107 618,-107 618,-77 496,-77"/>
<text text-anchor="start" x="504" y="-95" font-family="Helvetica,sans-Serif" font-size="10.00">CAudioFileIf::setClipping</text>
<text text-anchor="middle" x="557" y="-84" font-family="Helvetica,sans-Serif" font-size="10.00">Enabled</text>
</a>
</g>
</g>
<!-- Node5&#45;&gt;Node6 -->
<g id="edge5" class="edge">
<title>Node5&#45;&gt;Node6</title>
<path fill="none" stroke="midnightblue" d="M425.63,-57.55C444.21,-62.46 467.45,-68.6 489.15,-74.33"/>
<polygon fill="midnightblue" stroke="midnightblue" points="488.43,-77.76 498.99,-76.93 490.22,-71 488.43,-77.76"/>
</g>
<!-- Node7 -->
<g id="node7" class="node">
<title>Node7</title>
<g id="a_node7"><a xlink:href="a00421.xhtml#ada0ab1ffd0666fdc0db872ca7f8a309f" target="_top" xlink:title=" ">
<polygon fill="white" stroke="black" points="490,-38.5 490,-57.5 624,-57.5 624,-38.5 490,-38.5"/>
<text text-anchor="middle" x="557" y="-45.5" font-family="Helvetica,sans-Serif" font-size="10.00">CAudioFileIf::setInitialized_</text>
</a>
</g>
</g>
<!-- Node5&#45;&gt;Node7 -->
<g id="edge6" class="edge">
<title>Node5&#45;&gt;Node7</title>
<path fill="none" stroke="midnightblue" d="M452.92,-48C461.74,-48 470.86,-48 479.88,-48"/>
<polygon fill="midnightblue" stroke="midnightblue" points="479.99,-51.5 489.99,-48 479.99,-44.5 479.99,-51.5"/>
</g>
<!-- Node8 -->
<g id="node8" class="node">
<title>Node8</title>
<g id="a_node8"><a xlink:href="a00421.xhtml#a6ccc53d8d2c5113b5b2cba604e8a4510" target="_top" xlink:title=" ">
<polygon fill="white" stroke="black" points="496,-0.5 496,-19.5 618,-19.5 618,-0.5 496,-0.5"/>
<text text-anchor="middle" x="557" y="-7.5" font-family="Helvetica,sans-Serif" font-size="10.00">CAudioFileIf::setIoType_</text>
</a>
</g>
</g>
<!-- Node5&#45;&gt;Node8 -->
<g id="edge7" class="edge">
<title>Node5&#45;&gt;Node8</title>
<path fill="none" stroke="midnightblue" d="M431.51,-38.41C453.68,-33.35 481.07,-27.1 504.51,-21.75"/>
<polygon fill="midnightblue" stroke="midnightblue" points="505.32,-25.16 514.29,-19.52 503.76,-18.33 505.32,-25.16"/>
</g>
</g>
</svg>
        <g id="navigator" transform="translate(0 0)" fill="#404254">
                <rect fill="#f2f5e9" fill-opacity="0.5" stroke="#606060" stroke-width=".5" x="0" y="0" width="60" height="60"/>
                <use id="zoomplus" xlink:href="#zoomPlus" x="17" y="9" onmousedown="handleZoom(evt,'in')"/>
                <use id="zoomminus" xlink:href="#zoomMin" x="42" y="9" onmousedown="handleZoom(evt,'out')"/>
                <use id="reset" xlink:href="#resetDef" x="30" y="36" onmousedown="handleReset()"/>
                <g id="arrowUp" xlink:href="#dirArrow" transform="translate(30 24)" onmousedown="handlePan(0,-1)">
                  <use xlink:href="#rim" fill="#404040">
                        <set attributeName="fill" to="#808080" begin="arrowUp.mouseover" end="arrowUp.mouseout"/>
                  </use>
                  <path fill="none" stroke="white" stroke-width="1.5" d="M0,-3.0v7 M-2.5,-0.5L0,-3.0L2.5,-0.5"/>
                </g>
                <g id="arrowRight" xlink:href="#dirArrow" transform="rotate(90) translate(36 -43)" onmousedown="handlePan(1,0)">
                  <use xlink:href="#rim" fill="#404040">
                        <set attributeName="fill" to="#808080" begin="arrowRight.mouseover" end="arrowRight.mouseout"/>
                  </use>
                  <path fill="none" stroke="white" stroke-width="1.5" d="M0,-3.0v7 M-2.5,-0.5L0,-3.0L2.5,-0.5"/>
                </g>
                <g id="arrowDown" xlink:href="#dirArrow" transform="rotate(180) translate(-30 -48)" onmousedown="handlePan(0,1)">
                  <use xlink:href="#rim" fill="#404040">
                        <set attributeName="fill" to="#808080" begin="arrowDown.mouseover" end="arrowDown.mouseout"/>
                  </use>
                  <path fill="none" stroke="white" stroke-width="1.5" d="M0,-3.0v7 M-2.5,-0.5L0,-3.0L2.5,-0.5"/>
                </g>
                <g id="arrowLeft" xlink:href="#dirArrow" transform="rotate(270) translate(-36 17)" onmousedown="handlePan(-1,0)">
                  <use xlink:href="#rim" fill="#404040">
                        <set attributeName="fill" to="#808080" begin="arrowLeft.mouseover" end="arrowLeft.mouseout"/>
                  </use>
                  <path fill="none" stroke="white" stroke-width="1.5" d="M0,-3.0v7 M-2.5,-0.5L0,-3.0L2.5,-0.5"/>
                </g>
        </g>
        <svg viewBox="0 0 15 15" width="100%" height="30px" preserveAspectRatio="xMaxYMin meet">
         <g id="arrow_out" transform="scale(0.3 0.3)">
          <a xlink:href="a00413_a0ebcef6b814032ce6548b06fa4ed3cd4_cgraph_org.svg" target="_base">
           <rect id="button" ry="5" rx="5" y="6" x="6" height="38" width="38"
                fill="#f2f5e9" fill-opacity="0.5" stroke="#606060" stroke-width="1.0"/>
           <path id="arrow"
             d="M 11.500037,31.436501 C 11.940474,20.09759 22.043105,11.32322 32.158766,21.979434 L 37.068811,17.246167 C 37.068811,17.246167 37.088388,32 37.088388,32 L 22.160133,31.978069 C 22.160133,31.978069 26.997745,27.140456 26.997745,27.140456 C 18.528582,18.264221 13.291696,25.230495 11.500037,31.436501 z"
             style="fill:#404040;"/>
          </a>
         </g>
        </svg>
</svg>
