<?xml version="1.0" encoding="UTF-8" standalone="no"?>
<!DOCTYPE svg PUBLIC "-//W3C//DTD SVG 1.1//EN"
 "http://www.w3.org/Graphics/SVG/1.1/DTD/svg11.dtd">
<!-- Generated by graphviz version 6.0.1 (20220911.1526)
 -->
<!-- Title: CGammaToneFbFromFile::CGammaToneFbFromFile Pages: 1 -->
<!--zoomable 249 -->
<svg id="main" version="1.1" xmlns="http://www.w3.org/2000/svg" xmlns:xlink="http://www.w3.org/1999/xlink" xml:space="preserve" onload="init(evt)">
<style type="text/css"><![CDATA[
.edge:hover path { stroke: red; }
.edge:hover polygon { stroke: red; fill: red; }
]]></style>
<script type="text/javascript"><![CDATA[
var edges = document.getElementsByTagName('g');
if (edges && edges.length) {
  for (var i=0;i<edges.length;i++) {
    if (edges[i].id.substr(0,4)=='edge') {
      edges[i].setAttribute('class','edge');
    }
  }
}
]]></script>
        <defs>
                <circle id="rim" cx="0" cy="0" r="7"/>
                <circle id="rim2" cx="0" cy="0" r="3.5"/>
                <g id="zoomPlus">
                        <use xlink:href="#rim" fill="#404040">
                                <set attributeName="fill" to="#808080" begin="zoomplus.mouseover" end="zoomplus.mouseout"/>
                        </use>
                        <path d="M-4,0h8M0,-4v8" fill="none" stroke="white" stroke-width="1.5" pointer-events="none"/>
                </g>
                <g id="zoomMin">
                        <use xlink:href="#rim" fill="#404040">
                                <set attributeName="fill" to="#808080" begin="zoomminus.mouseover" end="zoomminus.mouseout"/>
                        </use>
                        <path d="M-4,0h8" fill="none" stroke="white" stroke-width="1.5" pointer-events="none"/>
                </g>
                <g id="dirArrow">
                        <path fill="none" stroke="white" stroke-width="1.5" d="M0,-3.0v7 M-2.5,-0.5L0,-3.0L2.5,-0.5"/>
                </g>
               <g id="resetDef">
                       <use xlink:href="#rim2" fill="#404040">
                               <set attributeName="fill" to="#808080" begin="reset.mouseover" end="reset.mouseout"/>
                       </use>
               </g>
        </defs>

<script type="text/javascript">
var viewWidth = 826;
var viewHeight = 249;
var sectionId = 'dynsection-2';
</script>
<script xlink:href="svgpan.js"/>
<svg id="graph" class="graph">
<g id="viewport">
<title>CGammaToneFbFromFile::CGammaToneFbFromFile</title>
<!-- Node1 -->
<g id="node1" class="node">
<title>Node1</title>
<g id="a_node1"><a xlink:title=" ">
<polygon fill="#999999" stroke="#666666" points="134,-153.5 0,-153.5 0,-123.5 134,-123.5 134,-153.5"/>
<text text-anchor="start" x="8" y="-141.5" font-family="Helvetica,sans-Serif" font-size="10.00">CGammaToneFbFromFile</text>
<text text-anchor="middle" x="67" y="-130.5" font-family="Helvetica,sans-Serif" font-size="10.00">::CGammaToneFbFromFile</text>
</a>
</g>
</g>
<!-- Node2 -->
<g id="node2" class="node">
<title>Node2</title>
<g id="a_node2"><a xlink:href="a00442.xhtml#aab987b1a4ec96a8fc835b1733a1ee0c3" target="_top" xlink:title=" ">
<polygon fill="white" stroke="#666666" points="284.5,-241 183.5,-241 183.5,-222 284.5,-222 284.5,-241"/>
<text text-anchor="middle" x="234" y="-229" font-family="Helvetica,sans-Serif" font-size="10.00">CAudioFileIf::create</text>
</a>
</g>
</g>
<!-- Node1&#45;&gt;Node2 -->
<g id="edge1" class="edge">
<title>Node1&#45;&gt;Node2</title>
<path fill="none" stroke="#63b8ff" d="M84.46,-153.53C103.68,-170.34 137.05,-197.33 170,-213.5 173.79,-215.36 177.81,-217.06 181.9,-218.61"/>
<polygon fill="#63b8ff" stroke="#63b8ff" points="180.95,-221.98 191.54,-221.94 183.23,-215.36 180.95,-221.98"/>
</g>
<!-- Node3 -->
<g id="node3" class="node">
<title>Node3</title>
<g id="a_node3"><a xlink:href="a00542.xhtml#a84f0c2bf28007ef7749ab0e90c8011d2" target="_top" xlink:title=" ">
<polygon fill="white" stroke="#666666" points="289,-204 179,-204 179,-185 289,-185 289,-204"/>
<text text-anchor="middle" x="234" y="-192" font-family="Helvetica,sans-Serif" font-size="10.00">CBlockAudioIf::create</text>
</a>
</g>
</g>
<!-- Node1&#45;&gt;Node3 -->
<g id="edge2" class="edge">
<title>Node1&#45;&gt;Node3</title>
<path fill="none" stroke="#63b8ff" d="M106.5,-153.65C125.49,-160.92 148.82,-169.54 170,-176.5 175.75,-178.39 181.82,-180.27 187.85,-182.06"/>
<polygon fill="#63b8ff" stroke="#63b8ff" points="187.28,-185.54 197.86,-184.99 189.24,-178.82 187.28,-185.54"/>
</g>
<!-- Node4 -->
<g id="node4" class="node">
<title>Node4</title>
<g id="a_node4"><a xlink:href="a00442.xhtml#a7ddbbf5f828e61db7fd75dbf47a33832" target="_top" xlink:title=" ">
<polygon fill="white" stroke="#666666" points="297,-167 171,-167 171,-148 297,-148 297,-167"/>
<text text-anchor="middle" x="234" y="-155" font-family="Helvetica,sans-Serif" font-size="10.00">CAudioFileIf::getFileSpec</text>
</a>
</g>
</g>
<!-- Node1&#45;&gt;Node4 -->
<g id="edge3" class="edge">
<title>Node1&#45;&gt;Node4</title>
<path fill="none" stroke="#63b8ff" d="M134.16,-146.12C142.96,-147.13 152.01,-148.17 160.9,-149.2"/>
<polygon fill="#63b8ff" stroke="#63b8ff" points="160.5,-152.68 170.84,-150.34 161.31,-145.72 160.5,-152.68"/>
</g>
<!-- Node5 -->
<g id="node5" class="node">
<title>Node5</title>
<g id="a_node5"><a xlink:href="a00558.xhtml#a0b3ba7948620d116d8fcee83010c56ba" target="_top" xlink:title="init configuration">
<polygon fill="white" stroke="#666666" points="293.5,-130 174.5,-130 174.5,-111 293.5,-111 293.5,-130"/>
<text text-anchor="middle" x="234" y="-118" font-family="Helvetica,sans-Serif" font-size="10.00">CGammaToneFbIf::init_</text>
</a>
</g>
</g>
<!-- Node1&#45;&gt;Node5 -->
<g id="edge4" class="edge">
<title>Node1&#45;&gt;Node5</title>
<path fill="none" stroke="#63b8ff" d="M134.16,-131.28C144.01,-130.21 154.18,-129.1 164.08,-128.02"/>
<polygon fill="#63b8ff" stroke="#63b8ff" points="164.72,-131.47 174.28,-126.91 163.96,-124.51 164.72,-131.47"/>
</g>
<!-- Node12 -->
<g id="node12" class="node">
<title>Node12</title>
<g id="a_node12"><a xlink:href="a00442.xhtml#ac845c2e45bc7bab904b73d432b00a05b" target="_top" xlink:title=" ">
<polygon fill="white" stroke="#666666" points="289.5,-93 178.5,-93 178.5,-74 289.5,-74 289.5,-93"/>
<text text-anchor="middle" x="234" y="-81" font-family="Helvetica,sans-Serif" font-size="10.00">CAudioFileIf::openFile</text>
</a>
</g>
</g>
<!-- Node1&#45;&gt;Node12 -->
<g id="edge12" class="edge">
<title>Node1&#45;&gt;Node12</title>
<path fill="none" stroke="#63b8ff" d="M109.54,-123.35C127.99,-116.75 150.01,-109.04 170,-102.5 176.57,-100.35 183.54,-98.16 190.38,-96.06"/>
<polygon fill="#63b8ff" stroke="#63b8ff" points="191.66,-99.33 200.21,-93.07 189.63,-92.63 191.66,-99.33"/>
</g>
<!-- Node13 -->
<g id="node13" class="node">
<title>Node13</title>
<g id="a_node13"><a xlink:href="a00558.xhtml#acdce444c00fcae3da249963ec17c1640" target="_top" xlink:title="reset configuration">
<polygon fill="white" stroke="#666666" points="298,-56 170,-56 170,-37 298,-37 298,-56"/>
<text text-anchor="middle" x="234" y="-44" font-family="Helvetica,sans-Serif" font-size="10.00">CGammaToneFbIf::reset_</text>
</a>
</g>
</g>
<!-- Node1&#45;&gt;Node13 -->
<g id="edge13" class="edge">
<title>Node1&#45;&gt;Node13</title>
<path fill="none" stroke="#63b8ff" d="M84.85,-123.39C104.15,-106.79 137.35,-80.39 170,-64.5 173.8,-62.65 177.82,-60.96 181.92,-59.42"/>
<polygon fill="#63b8ff" stroke="#63b8ff" points="183.24,-62.67 191.56,-56.1 180.96,-56.05 183.24,-62.67"/>
</g>
<!-- Node6 -->
<g id="node6" class="node">
<title>Node6</title>
<g id="a_node6"><a xlink:href="a00502.xhtml#abaadac98b1cad18b7b568852bc951696" target="_top" xlink:title=" ">
<polygon fill="white" stroke="#666666" points="458,-167 381,-167 381,-148 458,-148 458,-167"/>
<text text-anchor="middle" x="419.5" y="-155" font-family="Helvetica,sans-Serif" font-size="10.00">CVector::alloc</text>
</a>
</g>
</g>
<!-- Node5&#45;&gt;Node6 -->
<g id="edge5" class="edge">
<title>Node5&#45;&gt;Node6</title>
<path fill="none" stroke="#63b8ff" d="M282.26,-130.03C309.47,-135.52 343.57,-142.39 370.85,-147.89"/>
<polygon fill="#63b8ff" stroke="#63b8ff" points="370.45,-151.38 380.94,-149.93 371.83,-144.52 370.45,-151.38"/>
</g>
<!-- Node8 -->
<g id="node8" class="node">
<title>Node8</title>
<g id="a_node8"><a xlink:href="a00558.xhtml#a03d88f03c57bea1b0293381042bcdd75" target="_top" xlink:title="compute center frequencies for all bands">
<polygon fill="white" stroke="#666666" points="505,-130 334,-130 334,-111 505,-111 505,-130"/>
<text text-anchor="middle" x="419.5" y="-118" font-family="Helvetica,sans-Serif" font-size="10.00">CGammaToneFbIf::compMidFreqs_</text>
</a>
</g>
</g>
<!-- Node5&#45;&gt;Node8 -->
<g id="edge7" class="edge">
<title>Node5&#45;&gt;Node8</title>
<path fill="none" stroke="#63b8ff" d="M293.57,-120.5C303.16,-120.5 313.32,-120.5 323.53,-120.5"/>
<polygon fill="#63b8ff" stroke="#63b8ff" points="323.74,-124 333.74,-120.5 323.74,-117 323.74,-124"/>
</g>
<!-- Node9 -->
<g id="node9" class="node">
<title>Node9</title>
<g id="a_node9"><a xlink:href="a00418.xhtml#a13edc08e70801919a66e65a330f150c2" target="_top" xlink:title=" ">
<polygon fill="white" stroke="#666666" points="466.5,-93 372.5,-93 372.5,-74 466.5,-74 466.5,-93"/>
<text text-anchor="middle" x="419.5" y="-81" font-family="Helvetica,sans-Serif" font-size="10.00">CGammatone::init</text>
</a>
</g>
</g>
<!-- Node5&#45;&gt;Node9 -->
<g id="edge8" class="edge">
<title>Node5&#45;&gt;Node9</title>
<path fill="none" stroke="#63b8ff" d="M282.26,-110.97C306.72,-106.04 336.76,-99.98 362.4,-94.81"/>
<polygon fill="#63b8ff" stroke="#63b8ff" points="363.25,-98.21 372.36,-92.8 361.86,-91.35 363.25,-98.21"/>
</g>
<!-- Node7 -->
<g id="node7" class="node">
<title>Node7</title>
<g id="a_node7"><a xlink:href="a00502.xhtml#a6dbb3f9f480568b60f7fe50090d20003" target="_top" xlink:title=" ">
<polygon fill="white" stroke="#666666" points="662.5,-167 573.5,-167 573.5,-148 662.5,-148 662.5,-167"/>
<text text-anchor="middle" x="618" y="-155" font-family="Helvetica,sans-Serif" font-size="10.00">CVector::setZero</text>
</a>
</g>
</g>
<!-- Node6&#45;&gt;Node7 -->
<g id="edge6" class="edge">
<title>Node6&#45;&gt;Node7</title>
<path fill="none" stroke="#63b8ff" d="M458.39,-157.5C488.2,-157.5 530.13,-157.5 563.39,-157.5"/>
<polygon fill="#63b8ff" stroke="#63b8ff" points="563.41,-161 573.41,-157.5 563.41,-154 563.41,-161"/>
</g>
<!-- Node10 -->
<g id="node10" class="node">
<title>Node10</title>
<g id="a_node10"><a xlink:href="a00418.xhtml#ad55d2100a36627da0ddf9c07f89426bd" target="_top" xlink:title=" ">
<polygon fill="white" stroke="#666666" points="695,-93 541,-93 541,-74 695,-74 695,-93"/>
<text text-anchor="middle" x="618" y="-81" font-family="Helvetica,sans-Serif" font-size="10.00">CGammatone::calcFilterCoeffs_</text>
</a>
</g>
</g>
<!-- Node9&#45;&gt;Node10 -->
<g id="edge9" class="edge">
<title>Node9&#45;&gt;Node10</title>
<path fill="none" stroke="#63b8ff" d="M466.57,-77.68C485.75,-76.92 508.67,-76.63 530.77,-76.8"/>
<polygon fill="#63b8ff" stroke="#63b8ff" points="530.81,-80.3 540.85,-76.9 530.89,-73.3 530.81,-80.3"/>
</g>
<!-- Node10&#45;&gt;Node9 -->
<g id="edge10" class="edge">
<title>Node10&#45;&gt;Node9</title>
<path fill="none" stroke="#63b8ff" d="M540.85,-90.1C519.5,-90.4 496.69,-90.26 476.73,-89.67"/>
<polygon fill="#63b8ff" stroke="#63b8ff" points="476.68,-86.16 466.57,-89.32 476.44,-93.16 476.68,-86.16"/>
</g>
<!-- Node11 -->
<g id="node11" class="node">
<title>Node11</title>
<g id="a_node11"><a xlink:href="a00502.xhtml#a9811f50434dd058d201290b2dc98bfcd" target="_top" xlink:title=" ">
<polygon fill="white" stroke="#666666" points="818,-93 731,-93 731,-74 818,-74 818,-93"/>
<text text-anchor="middle" x="774.5" y="-81" font-family="Helvetica,sans-Serif" font-size="10.00">CVector::mulC_I</text>
</a>
</g>
</g>
<!-- Node10&#45;&gt;Node11 -->
<g id="edge11" class="edge">
<title>Node10&#45;&gt;Node11</title>
<path fill="none" stroke="#63b8ff" d="M695.34,-83.5C703.9,-83.5 712.46,-83.5 720.63,-83.5"/>
<polygon fill="#63b8ff" stroke="#63b8ff" points="720.72,-87 730.72,-83.5 720.72,-80 720.72,-87"/>
</g>
<!-- Node14 -->
<g id="node14" class="node">
<title>Node14</title>
<g id="a_node14"><a xlink:href="a00542.xhtml#a13d2bd6e36210dde0c64d188c1266b88" target="_top" xlink:title=" ">
<polygon fill="white" stroke="#666666" points="477,-56 362,-56 362,-37 477,-37 477,-56"/>
<text text-anchor="middle" x="419.5" y="-44" font-family="Helvetica,sans-Serif" font-size="10.00">CBlockAudioIf::destroy</text>
</a>
</g>
</g>
<!-- Node13&#45;&gt;Node14 -->
<g id="edge14" class="edge">
<title>Node13&#45;&gt;Node14</title>
<path fill="none" stroke="#63b8ff" d="M298.15,-46.5C315.48,-46.5 334.33,-46.5 351.85,-46.5"/>
<polygon fill="#63b8ff" stroke="#63b8ff" points="351.99,-50 361.99,-46.5 351.99,-43 351.99,-50"/>
</g>
<!-- Node15 -->
<g id="node15" class="node">
<title>Node15</title>
<g id="a_node15"><a xlink:href="a00502.xhtml#aa86bdb0c663d4d52f2765793756f8737" target="_top" xlink:title=" ">
<polygon fill="white" stroke="#666666" points="456,-19 383,-19 383,0 456,0 456,-19"/>
<text text-anchor="middle" x="419.5" y="-7" font-family="Helvetica,sans-Serif" font-size="10.00">CVector::free</text>
</a>
</g>
</g>
<!-- Node13&#45;&gt;Node15 -->
<g id="edge15" class="edge">
<title>Node13&#45;&gt;Node15</title>
<path fill="none" stroke="#63b8ff" d="M282.26,-36.97C310.25,-31.33 345.54,-24.21 373.18,-18.64"/>
<polygon fill="#63b8ff" stroke="#63b8ff" points="373.89,-22.07 383,-16.66 372.5,-15.2 373.89,-22.07"/>
</g>
</g>
</svg>
        <g id="navigator" transform="translate(0 0)" fill="#404254">
                <rect fill="#f2f5e9" fill-opacity="0.5" stroke="#606060" stroke-width=".5" x="0" y="0" width="60" height="60"/>
                <use id="zoomplus" xlink:href="#zoomPlus" x="17" y="9" onmousedown="handleZoom(evt,'in')"/>
                <use id="zoomminus" xlink:href="#zoomMin" x="42" y="9" onmousedown="handleZoom(evt,'out')"/>
                <use id="reset" xlink:href="#resetDef" x="30" y="36" onmousedown="handleReset()"/>
                <g id="arrowUp" xlink:href="#dirArrow" transform="translate(30 24)" onmousedown="handlePan(0,-1)">
                  <use xlink:href="#rim" fill="#404040">
                        <set attributeName="fill" to="#808080" begin="arrowUp.mouseover" end="arrowUp.mouseout"/>
                  </use>
                  <path fill="none" stroke="white" stroke-width="1.5" d="M0,-3.0v7 M-2.5,-0.5L0,-3.0L2.5,-0.5"/>
                </g>
                <g id="arrowRight" xlink:href="#dirArrow" transform="rotate(90) translate(36 -43)" onmousedown="handlePan(1,0)">
                  <use xlink:href="#rim" fill="#404040">
                        <set attributeName="fill" to="#808080" begin="arrowRight.mouseover" end="arrowRight.mouseout"/>
                  </use>
                  <path fill="none" stroke="white" stroke-width="1.5" d="M0,-3.0v7 M-2.5,-0.5L0,-3.0L2.5,-0.5"/>
                </g>
                <g id="arrowDown" xlink:href="#dirArrow" transform="rotate(180) translate(-30 -48)" onmousedown="handlePan(0,1)">
                  <use xlink:href="#rim" fill="#404040">
                        <set attributeName="fill" to="#808080" begin="arrowDown.mouseover" end="arrowDown.mouseout"/>
                  </use>
                  <path fill="none" stroke="white" stroke-width="1.5" d="M0,-3.0v7 M-2.5,-0.5L0,-3.0L2.5,-0.5"/>
                </g>
                <g id="arrowLeft" xlink:href="#dirArrow" transform="rotate(270) translate(-36 17)" onmousedown="handlePan(-1,0)">
                  <use xlink:href="#rim" fill="#404040">
                        <set attributeName="fill" to="#808080" begin="arrowLeft.mouseover" end="arrowLeft.mouseout"/>
                  </use>
                  <path fill="none" stroke="white" stroke-width="1.5" d="M0,-3.0v7 M-2.5,-0.5L0,-3.0L2.5,-0.5"/>
                </g>
        </g>
        <svg viewBox="0 0 15 15" width="100%" height="30px" preserveAspectRatio="xMaxYMin meet">
         <g id="arrow_out" transform="scale(0.3 0.3)">
          <a xlink:href="a00422_aec7867658e2991c8526c78666c960920_cgraph_org.svg" target="_base">
           <rect id="button" ry="5" rx="5" y="6" x="6" height="38" width="38"
                fill="#f2f5e9" fill-opacity="0.5" stroke="#606060" stroke-width="1.0"/>
           <path id="arrow"
             d="M 11.500037,31.436501 C 11.940474,20.09759 22.043105,11.32322 32.158766,21.979434 L 37.068811,17.246167 C 37.068811,17.246167 37.088388,32 37.088388,32 L 22.160133,31.978069 C 22.160133,31.978069 26.997745,27.140456 26.997745,27.140456 C 18.528582,18.264221 13.291696,25.230495 11.500037,31.436501 z"
             style="fill:#404040;"/>
          </a>
         </g>
        </svg>
</svg>
