<?xml version="1.0" encoding="UTF-8" standalone="no"?>
<!DOCTYPE svg PUBLIC "-//W3C//DTD SVG 1.1//EN"
 "http://www.w3.org/Graphics/SVG/1.1/DTD/svg11.dtd">
<!-- Generated by graphviz version 6.0.1 (20220911.1526)
 -->
<!-- Title: CBeatHistoIf::~CBeatHistoIf Pages: 1 -->
<svg width="421pt" height="64pt"
 viewBox="0.00 0.00 421.00 64.00" xmlns="http://www.w3.org/2000/svg" xmlns:xlink="http://www.w3.org/1999/xlink">
<g id="graph0" class="graph" transform="scale(1 1) rotate(0) translate(4 60)">
<title>CBeatHistoIf::~CBeatHistoIf</title>
<!-- Node1 -->
<g id="node1" class="node">
<title>Node1</title>
<g id="a_node1"><a xlink:title=" ">
<polygon fill="#999999" stroke="#666666" points="139,-37 0,-37 0,-18 139,-18 139,-37"/>
<text text-anchor="middle" x="69.5" y="-25" font-family="Helvetica,sans-Serif" font-size="10.00">CBeatHistoIf::~CBeatHistoIf</text>
</a>
</g>
</g>
<!-- Node2 -->
<g id="node2" class="node">
<title>Node2</title>
<g id="a_node2"><a xlink:href="a00450.xhtml#a3c3a39ab20e4ca9f1771bbd6f70327c9" target="_top" xlink:title="reset configuration">
<polygon fill="white" stroke="#666666" points="279,-37 175,-37 175,-18 279,-18 279,-37"/>
<text text-anchor="middle" x="227" y="-25" font-family="Helvetica,sans-Serif" font-size="10.00">CBeatHistoIf::reset_</text>
</a>
</g>
</g>
<!-- Node1&#45;&gt;Node2 -->
<g id="edge1" class="edge">
<title>Node1&#45;&gt;Node2</title>
<path fill="none" stroke="#63b8ff" d="M139.16,-27.5C147.72,-27.5 156.43,-27.5 164.86,-27.5"/>
<polygon fill="#63b8ff" stroke="#63b8ff" points="164.99,-31 174.99,-27.5 164.99,-24 164.99,-31"/>
</g>
<!-- Node3 -->
<g id="node3" class="node">
<title>Node3</title>
<g id="a_node3"><a xlink:href="a00514.xhtml#aa078a8242089a58179280c824f8ca4f9" target="_top" xlink:title=" ">
<polygon fill="white" stroke="#666666" points="413,-56 315,-56 315,-37 413,-37 413,-56"/>
<text text-anchor="middle" x="364" y="-44" font-family="Helvetica,sans-Serif" font-size="10.00">CNoveltyIf::destroy</text>
</a>
</g>
</g>
<!-- Node2&#45;&gt;Node3 -->
<g id="edge2" class="edge">
<title>Node2&#45;&gt;Node3</title>
<path fill="none" stroke="#63b8ff" d="M279.04,-34.68C287.32,-35.85 295.95,-37.06 304.4,-38.25"/>
<polygon fill="#63b8ff" stroke="#63b8ff" points="304.18,-41.76 314.57,-39.68 305.15,-34.82 304.18,-41.76"/>
</g>
<!-- Node4 -->
<g id="node4" class="node">
<title>Node4</title>
<g id="a_node4"><a xlink:href="a00502.xhtml#aa86bdb0c663d4d52f2765793756f8737" target="_top" xlink:title=" ">
<polygon fill="white" stroke="#666666" points="400.5,-19 327.5,-19 327.5,0 400.5,0 400.5,-19"/>
<text text-anchor="middle" x="364" y="-7" font-family="Helvetica,sans-Serif" font-size="10.00">CVector::free</text>
</a>
</g>
</g>
<!-- Node2&#45;&gt;Node4 -->
<g id="edge3" class="edge">
<title>Node2&#45;&gt;Node4</title>
<path fill="none" stroke="#63b8ff" d="M279.04,-20.69C291.64,-19.01 305.05,-17.23 317.38,-15.58"/>
<polygon fill="#63b8ff" stroke="#63b8ff" points="317.98,-19.03 327.43,-14.24 317.06,-12.09 317.98,-19.03"/>
</g>
</g>
</svg>
