<?xml version="1.0" encoding="UTF-8" standalone="no"?>
<!DOCTYPE svg PUBLIC "-//W3C//DTD SVG 1.1//EN"
 "http://www.w3.org/Graphics/SVG/1.1/DTD/svg11.dtd">
<!-- Generated by graphviz version 4.0.0 (20220602.1335)
 -->
<!-- Title: CPitchIf::CPitchIf Pages: 1 -->
<svg width="370pt" height="116pt"
 viewBox="0.00 0.00 370.00 116.00" xmlns="http://www.w3.org/2000/svg" xmlns:xlink="http://www.w3.org/1999/xlink">
<g id="graph0" class="graph" transform="scale(1 1) rotate(0) translate(4 112)">
<title>CPitchIf::CPitchIf</title>
<polygon fill="white" stroke="transparent" points="-4,4 -4,-112 366,-112 366,4 -4,4"/>
<!-- Node1 -->
<g id="node1" class="node">
<title>Node1</title>
<g id="a_node1"><a xlink:title=" ">
<polygon fill="#bfbfbf" stroke="black" points="0,-44.5 0,-63.5 92,-63.5 92,-44.5 0,-44.5"/>
<text text-anchor="middle" x="46" y="-51.5" font-family="Helvetica,sans-Serif" font-size="10.00">CPitchIf::CPitchIf</text>
</a>
</g>
</g>
<!-- Node2 -->
<g id="node2" class="node">
<title>Node2</title>
<g id="a_node2"><a xlink:href="a00497.xhtml#a0841d88981bfe343f6439b7d4174a30b" target="_top" xlink:title="reset configuration">
<polygon fill="white" stroke="black" points="128,-44.5 128,-63.5 211,-63.5 211,-44.5 128,-44.5"/>
<text text-anchor="middle" x="169.5" y="-51.5" font-family="Helvetica,sans-Serif" font-size="10.00">CPitchIf::reset_</text>
</a>
</g>
</g>
<!-- Node1&#45;&gt;Node2 -->
<g id="edge1" class="edge">
<title>Node1&#45;&gt;Node2</title>
<path fill="none" stroke="midnightblue" d="M92.24,-54C100.49,-54 109.15,-54 117.55,-54"/>
<polygon fill="midnightblue" stroke="midnightblue" points="117.63,-57.5 127.63,-54 117.63,-50.5 117.63,-57.5"/>
</g>
<!-- Node3 -->
<g id="node3" class="node">
<title>Node3</title>
<g id="a_node3"><a xlink:href="a00513.xhtml#a13d2bd6e36210dde0c64d188c1266b88" target="_top" xlink:title=" ">
<polygon fill="white" stroke="black" points="247,-88.5 247,-107.5 362,-107.5 362,-88.5 247,-88.5"/>
<text text-anchor="middle" x="304.5" y="-95.5" font-family="Helvetica,sans-Serif" font-size="10.00">CBlockAudioIf::destroy</text>
</a>
</g>
</g>
<!-- Node2&#45;&gt;Node3 -->
<g id="edge2" class="edge">
<title>Node2&#45;&gt;Node3</title>
<path fill="none" stroke="midnightblue" d="M199.36,-63.55C218.62,-69.92 244.16,-78.37 265.12,-85.3"/>
<polygon fill="midnightblue" stroke="midnightblue" points="264.1,-88.65 274.7,-88.47 266.3,-82.01 264.1,-88.65"/>
</g>
<!-- Node4 -->
<g id="node4" class="node">
<title>Node4</title>
<g id="a_node4"><a xlink:href="a00501.xhtml#adadb010b152c65dc26b08f56fa700e77" target="_top" xlink:title=" ">
<polygon fill="white" stroke="black" points="252.5,-39 252.5,-69 356.5,-69 356.5,-39 252.5,-39"/>
<text text-anchor="start" x="260.5" y="-57" font-family="Helvetica,sans-Serif" font-size="10.00">CPitchFromBlockIf::</text>
<text text-anchor="middle" x="304.5" y="-46" font-family="Helvetica,sans-Serif" font-size="10.00">destroy</text>
</a>
</g>
</g>
<!-- Node2&#45;&gt;Node4 -->
<g id="edge3" class="edge">
<title>Node2&#45;&gt;Node4</title>
<path fill="none" stroke="midnightblue" d="M211.13,-54C220.97,-54 231.71,-54 242.26,-54"/>
<polygon fill="midnightblue" stroke="midnightblue" points="242.3,-57.5 252.3,-54 242.3,-50.5 242.3,-57.5"/>
</g>
<!-- Node5 -->
<g id="node5" class="node">
<title>Node5</title>
<g id="a_node5"><a xlink:href="a00477.xhtml#aa86bdb0c663d4d52f2765793756f8737" target="_top" xlink:title=" ">
<polygon fill="white" stroke="black" points="268,-0.5 268,-19.5 341,-19.5 341,-0.5 268,-0.5"/>
<text text-anchor="middle" x="304.5" y="-7.5" font-family="Helvetica,sans-Serif" font-size="10.00">CVector::free</text>
</a>
</g>
</g>
<!-- Node2&#45;&gt;Node5 -->
<g id="edge4" class="edge">
<title>Node2&#45;&gt;Node5</title>
<path fill="none" stroke="midnightblue" d="M199.36,-44.45C218.62,-38.08 244.16,-29.63 265.12,-22.7"/>
<polygon fill="midnightblue" stroke="midnightblue" points="266.3,-25.99 274.7,-19.53 264.1,-19.35 266.3,-25.99"/>
</g>
</g>
</svg>
