<?xml version="1.0" encoding="UTF-8" standalone="no"?>
<!DOCTYPE svg PUBLIC "-//W3C//DTD SVG 1.1//EN"
 "http://www.w3.org/Graphics/SVG/1.1/DTD/svg11.dtd">
<!-- Generated by graphviz version 6.0.1 (20220911.1526)
 -->
<!-- Title: CAudioFileRaw::scaleUp Pages: 1 -->
<svg width="296pt" height="124pt"
 viewBox="0.00 0.00 296.00 123.50" xmlns="http://www.w3.org/2000/svg" xmlns:xlink="http://www.w3.org/1999/xlink">
<g id="graph0" class="graph" transform="scale(1 1) rotate(0) translate(4 119.5)">
<title>CAudioFileRaw::scaleUp</title>
<!-- Node1 -->
<g id="node1" class="node">
<title>Node1</title>
<g id="a_node1"><a xlink:title=" ">
<polygon fill="#999999" stroke="#666666" points="124,-72.5 0,-72.5 0,-53.5 124,-53.5 124,-72.5"/>
<text text-anchor="middle" x="62" y="-60.5" font-family="Helvetica,sans-Serif" font-size="10.00">CAudioFileRaw::scaleUp</text>
</a>
</g>
</g>
<!-- Node2 -->
<g id="node2" class="node">
<title>Node2</title>
<g id="a_node2"><a xlink:href="a00442.xhtml#a4fbb0a778b2b8113081d670fc8378031" target="_top" xlink:title=" ">
<polygon fill="white" stroke="#666666" points="288,-115.5 160,-115.5 160,-96.5 288,-96.5 288,-115.5"/>
<text text-anchor="middle" x="224" y="-103.5" font-family="Helvetica,sans-Serif" font-size="10.00">CAudioFileIf::clip2Range_</text>
</a>
</g>
</g>
<!-- Node1&#45;&gt;Node2 -->
<g id="edge1" class="edge">
<title>Node1&#45;&gt;Node2</title>
<path fill="none" stroke="#63b8ff" d="M98.51,-72.54C121.92,-78.83 152.78,-87.13 177.91,-93.88"/>
<polygon fill="#63b8ff" stroke="#63b8ff" points="177.02,-97.27 187.59,-96.48 178.84,-90.51 177.02,-97.27"/>
</g>
<!-- Node3 -->
<g id="node3" class="node">
<title>Node3</title>
<g id="a_node3"><a xlink:href="a00442.xhtml#a1a04689f74a88c77fa2cbfaacdb7b448" target="_top" xlink:title=" ">
<polygon fill="white" stroke="#666666" points="287,-78 161,-78 161,-48 287,-48 287,-78"/>
<text text-anchor="start" x="169" y="-66" font-family="Helvetica,sans-Serif" font-size="10.00">CAudioFileIf::getNumBits</text>
<text text-anchor="middle" x="224" y="-55" font-family="Helvetica,sans-Serif" font-size="10.00">PerSample_</text>
</a>
</g>
</g>
<!-- Node1&#45;&gt;Node3 -->
<g id="edge2" class="edge">
<title>Node1&#45;&gt;Node3</title>
<path fill="none" stroke="#63b8ff" d="M124.4,-63C133.02,-63 141.94,-63 150.73,-63"/>
<polygon fill="#63b8ff" stroke="#63b8ff" points="150.97,-66.5 160.97,-63 150.97,-59.5 150.97,-66.5"/>
</g>
<!-- Node4 -->
<g id="node4" class="node">
<title>Node4</title>
<g id="a_node4"><a xlink:href="a00442.xhtml#a56af13d52f1294e627d276f756edc780" target="_top" xlink:title=" ">
<polygon fill="white" stroke="#666666" points="282,-30 166,-30 166,0 282,0 282,-30"/>
<text text-anchor="start" x="174" y="-18" font-family="Helvetica,sans-Serif" font-size="10.00">CAudioFileIf::isClipping</text>
<text text-anchor="middle" x="224" y="-7" font-family="Helvetica,sans-Serif" font-size="10.00">Enabled</text>
</a>
</g>
</g>
<!-- Node1&#45;&gt;Node4 -->
<g id="edge3" class="edge">
<title>Node1&#45;&gt;Node4</title>
<path fill="none" stroke="#63b8ff" d="M94.99,-53.4C114.46,-47.56 139.95,-39.91 163.06,-32.98"/>
<polygon fill="#63b8ff" stroke="#63b8ff" points="164.22,-36.29 172.79,-30.06 162.21,-29.58 164.22,-36.29"/>
</g>
</g>
</svg>
