<?xml version="1.0" encoding="UTF-8" standalone="no"?>
<!DOCTYPE svg PUBLIC "-//W3C//DTD SVG 1.1//EN"
 "http://www.w3.org/Graphics/SVG/1.1/DTD/svg11.dtd">
<!-- Generated by graphviz version 6.0.1 (20220911.1526)
 -->
<!-- Title: CUtil::isPowOf2 Pages: 1 -->
<svg width="661pt" height="880pt"
 viewBox="0.00 0.00 661.00 879.50" xmlns="http://www.w3.org/2000/svg" xmlns:xlink="http://www.w3.org/1999/xlink">
<g id="graph0" class="graph" transform="scale(1 1) rotate(0) translate(4 875.5)">
<title>CUtil::isPowOf2</title>
<!-- Node1 -->
<g id="node1" class="node">
<title>Node1</title>
<g id="a_node1"><a xlink:title=" ">
<polygon fill="#999999" stroke="#666666" points="653,-665.5 567,-665.5 567,-646.5 653,-646.5 653,-665.5"/>
<text text-anchor="middle" x="610" y="-653.5" font-family="Helvetica,sans-Serif" font-size="10.00">CUtil::isPowOf2</text>
</a>
</g>
</g>
<!-- Node2 -->
<g id="node2" class="node">
<title>Node2</title>
<g id="a_node2"><a xlink:href="a00450.xhtml#a9b3f72cb0d46466cf0aa38540b9980a5" target="_top" xlink:title=" ">
<polygon fill="white" stroke="#666666" points="207,-772.5 103,-772.5 103,-753.5 207,-753.5 207,-772.5"/>
<text text-anchor="middle" x="155" y="-760.5" font-family="Helvetica,sans-Serif" font-size="10.00">CBeatHistoIf::create</text>
</a>
</g>
</g>
<!-- Node1&#45;&gt;Node2 -->
<g id="edge1" class="edge">
<title>Node1&#45;&gt;Node2</title>
<path fill="none" stroke="#63b8ff" d="M583.01,-670.4C568.13,-678.21 548.9,-687.55 531,-694 419.53,-734.19 280.6,-751.91 207.12,-758.94"/>
<polygon fill="#63b8ff" stroke="#63b8ff" points="584.94,-673.34 592.11,-665.54 581.64,-667.17 584.94,-673.34"/>
</g>
<!-- Node4 -->
<g id="node4" class="node">
<title>Node4</title>
<g id="a_node4"><a xlink:href="a00454.xhtml#a49eaa5eea529fe7545a698b91b7e6216" target="_top" xlink:title=" ">
<polygon fill="white" stroke="#666666" points="516,-852.5 430,-852.5 430,-833.5 516,-833.5 516,-852.5"/>
<text text-anchor="middle" x="473" y="-840.5" font-family="Helvetica,sans-Serif" font-size="10.00">CChordIf::create</text>
</a>
</g>
</g>
<!-- Node1&#45;&gt;Node4 -->
<g id="edge3" class="edge">
<title>Node1&#45;&gt;Node4</title>
<path fill="none" stroke="#63b8ff" d="M602.87,-675.03C592.24,-705.72 567.93,-766.73 531,-807 520.8,-818.13 506.4,-827.18 494.63,-833.43"/>
<polygon fill="#63b8ff" stroke="#63b8ff" points="606.2,-676.12 606.06,-665.53 599.56,-673.9 606.2,-676.12"/>
</g>
<!-- Node6 -->
<g id="node6" class="node">
<title>Node6</title>
<g id="a_node6"><a xlink:href="a00466.xhtml#af448569c0950f36034d84326d564cce9" target="_top" xlink:title=" ">
<polygon fill="white" stroke="#666666" points="520,-684.5 426,-684.5 426,-665.5 520,-665.5 520,-684.5"/>
<text text-anchor="middle" x="473" y="-672.5" font-family="Helvetica,sans-Serif" font-size="10.00">CFeatureIf::create</text>
</a>
</g>
</g>
<!-- Node1&#45;&gt;Node6 -->
<g id="edge5" class="edge">
<title>Node1&#45;&gt;Node6</title>
<path fill="none" stroke="#63b8ff" d="M556.42,-663.4C544.54,-665.07 532.02,-666.83 520.41,-668.47"/>
<polygon fill="#63b8ff" stroke="#63b8ff" points="557.24,-666.82 566.66,-661.96 556.27,-659.89 557.24,-666.82"/>
</g>
<!-- Node10 -->
<g id="node10" class="node">
<title>Node10</title>
<g id="a_node10"><a xlink:href="a00514.xhtml#abae299cfe8e8806685cab18f59db8f72" target="_top" xlink:title=" ">
<polygon fill="white" stroke="#666666" points="520,-797.5 426,-797.5 426,-778.5 520,-778.5 520,-797.5"/>
<text text-anchor="middle" x="473" y="-785.5" font-family="Helvetica,sans-Serif" font-size="10.00">CNoveltyIf::create</text>
</a>
</g>
</g>
<!-- Node1&#45;&gt;Node10 -->
<g id="edge9" class="edge">
<title>Node1&#45;&gt;Node10</title>
<path fill="none" stroke="#63b8ff" d="M599.65,-674.74C587,-698.41 562.36,-739.06 531,-764 523.44,-770.02 514.15,-774.77 505.28,-778.4"/>
<polygon fill="#63b8ff" stroke="#63b8ff" points="602.83,-676.22 604.32,-665.73 596.61,-673 602.83,-676.22"/>
</g>
<!-- Node13 -->
<g id="node13" class="node">
<title>Node13</title>
<g id="a_node13"><a xlink:href="a00522.xhtml#aad21e51c82ea3cfb6b495b39acd40412" target="_top" xlink:title=" ">
<polygon fill="white" stroke="#666666" points="514.5,-647.5 431.5,-647.5 431.5,-628.5 514.5,-628.5 514.5,-647.5"/>
<text text-anchor="middle" x="473" y="-635.5" font-family="Helvetica,sans-Serif" font-size="10.00">CPitchIf::create</text>
</a>
</g>
</g>
<!-- Node1&#45;&gt;Node13 -->
<g id="edge13" class="edge">
<title>Node1&#45;&gt;Node13</title>
<path fill="none" stroke="#63b8ff" d="M556.73,-649.03C542.82,-647.18 528,-645.2 514.81,-643.44"/>
<polygon fill="#63b8ff" stroke="#63b8ff" points="556.28,-652.5 566.66,-650.35 557.21,-645.56 556.28,-652.5"/>
</g>
<!-- Node15 -->
<g id="node15" class="node">
<title>Node15</title>
<g id="a_node15"><a xlink:href="a00530.xhtml#acd73d8c1aaaed8b188de6b8bf2103139" target="_top" xlink:title=" ">
<polygon fill="white" stroke="#666666" points="531,-610.5 415,-610.5 415,-591.5 531,-591.5 531,-610.5"/>
<text text-anchor="middle" x="473" y="-598.5" font-family="Helvetica,sans-Serif" font-size="10.00">CSpectrogramIf::create</text>
</a>
</g>
</g>
<!-- Node1&#45;&gt;Node15 -->
<g id="edge15" class="edge">
<title>Node1&#45;&gt;Node15</title>
<path fill="none" stroke="#63b8ff" d="M581.63,-641.88C566.85,-634.55 548.16,-625.74 531,-619 523.27,-615.96 514.81,-613.07 506.82,-610.52"/>
<polygon fill="#63b8ff" stroke="#63b8ff" points="580.21,-645.09 590.72,-646.45 583.35,-638.83 580.21,-645.09"/>
</g>
<!-- Node17 -->
<g id="node17" class="node">
<title>Node17</title>
<g id="a_node17"><a xlink:href="a00546.xhtml#af683b1b5e37ca2039424af02f4bfb3c5" target="_top" xlink:title=" ">
<polygon fill="white" stroke="#666666" points="353.5,-572.5 297.5,-572.5 297.5,-553.5 353.5,-553.5 353.5,-572.5"/>
<text text-anchor="middle" x="325.5" y="-560.5" font-family="Helvetica,sans-Serif" font-size="10.00">CCcf::init</text>
</a>
</g>
</g>
<!-- Node1&#45;&gt;Node17 -->
<g id="edge17" class="edge">
<title>Node1&#45;&gt;Node17</title>
<path fill="none" stroke="#63b8ff" d="M596.04,-638.1C582.15,-620.47 558.36,-594.41 531,-582 472.23,-555.34 394.33,-556.88 353.74,-560.07"/>
<polygon fill="#63b8ff" stroke="#63b8ff" points="593.54,-640.59 602.37,-646.44 599.11,-636.36 593.54,-640.59"/>
</g>
<!-- Node23 -->
<g id="node23" class="node">
<title>Node23</title>
<g id="a_node23"><a xlink:href="a00474.xhtml#adea9b0cecccfdb5a3da3218da6f683dd" target="_top" xlink:title=" ">
<polygon fill="white" stroke="#666666" points="499.5,-375.5 446.5,-375.5 446.5,-356.5 499.5,-356.5 499.5,-375.5"/>
<text text-anchor="middle" x="473" y="-363.5" font-family="Helvetica,sans-Serif" font-size="10.00">CFft::init</text>
</a>
</g>
</g>
<!-- Node1&#45;&gt;Node23 -->
<g id="edge24" class="edge">
<title>Node1&#45;&gt;Node23</title>
<path fill="none" stroke="#63b8ff" d="M600.26,-637.23C574.24,-581.33 497.88,-417.3 478.51,-375.69"/>
<polygon fill="#63b8ff" stroke="#63b8ff" points="597.11,-638.76 604.51,-646.35 603.46,-635.81 597.11,-638.76"/>
</g>
<!-- Node3 -->
<g id="node3" class="node">
<title>Node3</title>
<g id="a_node3"><a xlink:href="a00011.xhtml#a0ddf1224851353fc92bfbff6f499fa97" target="_top" xlink:title=" ">
<polygon fill="white" stroke="#666666" points="38,-644.5 0,-644.5 0,-625.5 38,-625.5 38,-644.5"/>
<text text-anchor="middle" x="19" y="-632.5" font-family="Helvetica,sans-Serif" font-size="10.00">main</text>
</a>
</g>
</g>
<!-- Node2&#45;&gt;Node3 -->
<g id="edge2" class="edge">
<title>Node2&#45;&gt;Node3</title>
<path fill="none" stroke="#63b8ff" d="M93.18,-755.49C86.27,-752.9 79.69,-749.49 74,-745 40.59,-718.65 26.43,-666.33 21.83,-644.71"/>
<polygon fill="#63b8ff" stroke="#63b8ff" points="92.14,-758.83 102.73,-758.54 94.27,-752.16 92.14,-758.83"/>
</g>
<!-- Node5 -->
<g id="node5" class="node">
<title>Node5</title>
<g id="a_node5"><a xlink:href="a00005.xhtml#a0ddf1224851353fc92bfbff6f499fa97" target="_top" xlink:title=" ">
<polygon fill="white" stroke="#666666" points="344.5,-871.5 306.5,-871.5 306.5,-852.5 344.5,-852.5 344.5,-871.5"/>
<text text-anchor="middle" x="325.5" y="-859.5" font-family="Helvetica,sans-Serif" font-size="10.00">main</text>
</a>
</g>
</g>
<!-- Node4&#45;&gt;Node5 -->
<g id="edge4" class="edge">
<title>Node4&#45;&gt;Node5</title>
<path fill="none" stroke="#63b8ff" d="M419.73,-849.83C393.54,-853.25 363.5,-857.17 344.76,-859.62"/>
<polygon fill="#63b8ff" stroke="#63b8ff" points="420.45,-853.26 429.92,-848.5 419.55,-846.32 420.45,-853.26"/>
</g>
<!-- Node7 -->
<g id="node7" class="node">
<title>Node7</title>
<g id="a_node7"><a xlink:href="a00506.xhtml#af59151b6c619ef658f01e80dc47d6946" target="_top" xlink:title=" ">
<polygon fill="white" stroke="#666666" points="354,-684.5 297,-684.5 297,-665.5 354,-665.5 354,-684.5"/>
<text text-anchor="middle" x="325.5" y="-672.5" font-family="Helvetica,sans-Serif" font-size="10.00">CKey::init</text>
</a>
</g>
</g>
<!-- Node6&#45;&gt;Node7 -->
<g id="edge6" class="edge">
<title>Node6&#45;&gt;Node7</title>
<path fill="none" stroke="#63b8ff" d="M415.76,-675C394.59,-675 371.45,-675 354.04,-675"/>
<polygon fill="#63b8ff" stroke="#63b8ff" points="415.96,-678.5 425.96,-675 415.96,-671.5 415.96,-678.5"/>
</g>
<!-- Node9 -->
<g id="node9" class="node">
<title>Node9</title>
<g id="a_node9"><a xlink:href="a00002.xhtml#a0ddf1224851353fc92bfbff6f499fa97" target="_top" xlink:title=" ">
<polygon fill="white" stroke="#666666" points="344.5,-721.5 306.5,-721.5 306.5,-702.5 344.5,-702.5 344.5,-721.5"/>
<text text-anchor="middle" x="325.5" y="-709.5" font-family="Helvetica,sans-Serif" font-size="10.00">main</text>
</a>
</g>
</g>
<!-- Node6&#45;&gt;Node9 -->
<g id="edge8" class="edge">
<title>Node6&#45;&gt;Node9</title>
<path fill="none" stroke="#63b8ff" d="M424.77,-687.01C397.5,-693.95 364.76,-702.27 344.8,-707.35"/>
<polygon fill="#63b8ff" stroke="#63b8ff" points="425.7,-690.39 434.53,-684.53 423.98,-683.6 425.7,-690.39"/>
</g>
<!-- Node8 -->
<g id="node8" class="node">
<title>Node8</title>
<g id="a_node8"><a xlink:href="a00122.xhtml#a0ddf1224851353fc92bfbff6f499fa97" target="_top" xlink:title=" ">
<polygon fill="white" stroke="#666666" points="174,-735.5 136,-735.5 136,-716.5 174,-716.5 174,-735.5"/>
<text text-anchor="middle" x="155" y="-723.5" font-family="Helvetica,sans-Serif" font-size="10.00">main</text>
</a>
</g>
</g>
<!-- Node7&#45;&gt;Node8 -->
<g id="edge7" class="edge">
<title>Node7&#45;&gt;Node8</title>
<path fill="none" stroke="#63b8ff" d="M288.17,-688.02C282.74,-690 277.22,-692.04 272,-694 255.93,-700.03 252.42,-702.99 236,-708 215.17,-714.36 190.66,-719.54 174.31,-722.69"/>
<polygon fill="#63b8ff" stroke="#63b8ff" points="289.54,-691.25 297.75,-684.54 287.15,-684.67 289.54,-691.25"/>
</g>
<!-- Node11 -->
<g id="node11" class="node">
<title>Node11</title>
<g id="a_node11"><a xlink:href="a00450.xhtml#abc96a9de9093f6617510f4dbe02b82ce" target="_top" xlink:title="init configuration">
<polygon fill="white" stroke="#666666" points="373,-834.5 278,-834.5 278,-815.5 373,-815.5 373,-834.5"/>
<text text-anchor="middle" x="325.5" y="-822.5" font-family="Helvetica,sans-Serif" font-size="10.00">CBeatHistoIf::init_</text>
</a>
</g>
</g>
<!-- Node10&#45;&gt;Node11 -->
<g id="edge10" class="edge">
<title>Node10&#45;&gt;Node11</title>
<path fill="none" stroke="#63b8ff" d="M424.84,-799.99C405.16,-805 382.63,-810.73 364.1,-815.44"/>
<polygon fill="#63b8ff" stroke="#63b8ff" points="425.7,-803.39 434.53,-797.53 423.98,-796.6 425.7,-803.39"/>
</g>
<!-- Node12 -->
<g id="node12" class="node">
<title>Node12</title>
<g id="a_node12"><a xlink:href="a00023.xhtml#a0ddf1224851353fc92bfbff6f499fa97" target="_top" xlink:title=" ">
<polygon fill="white" stroke="#666666" points="344.5,-797.5 306.5,-797.5 306.5,-778.5 344.5,-778.5 344.5,-797.5"/>
<text text-anchor="middle" x="325.5" y="-785.5" font-family="Helvetica,sans-Serif" font-size="10.00">main</text>
</a>
</g>
</g>
<!-- Node10&#45;&gt;Node12 -->
<g id="edge12" class="edge">
<title>Node10&#45;&gt;Node12</title>
<path fill="none" stroke="#63b8ff" d="M415.76,-788C390.6,-788 362.66,-788 344.85,-788"/>
<polygon fill="#63b8ff" stroke="#63b8ff" points="415.96,-791.5 425.96,-788 415.96,-784.5 415.96,-791.5"/>
</g>
<!-- Node11&#45;&gt;Node2 -->
<g id="edge11" class="edge">
<title>Node11&#45;&gt;Node2</title>
<path fill="none" stroke="#63b8ff" d="M286.33,-812.07C281.5,-810.39 276.63,-808.67 272,-807 240.19,-795.52 203.77,-781.57 180.36,-772.5"/>
<polygon fill="#63b8ff" stroke="#63b8ff" points="285.51,-815.49 296.1,-815.45 287.8,-808.88 285.51,-815.49"/>
</g>
<!-- Node14 -->
<g id="node14" class="node">
<title>Node14</title>
<g id="a_node14"><a xlink:href="a00125.xhtml#a0ddf1224851353fc92bfbff6f499fa97" target="_top" xlink:title=" ">
<polygon fill="white" stroke="#666666" points="344.5,-647.5 306.5,-647.5 306.5,-628.5 344.5,-628.5 344.5,-647.5"/>
<text text-anchor="middle" x="325.5" y="-635.5" font-family="Helvetica,sans-Serif" font-size="10.00">main</text>
</a>
</g>
</g>
<!-- Node13&#45;&gt;Node14 -->
<g id="edge14" class="edge">
<title>Node13&#45;&gt;Node14</title>
<path fill="none" stroke="#63b8ff" d="M421.18,-638C394.67,-638 363.87,-638 344.78,-638"/>
<polygon fill="#63b8ff" stroke="#63b8ff" points="421.47,-641.5 431.47,-638 421.47,-634.5 421.47,-641.5"/>
</g>
<!-- Node16 -->
<g id="node16" class="node">
<title>Node16</title>
<g id="a_node16"><a xlink:href="a00119.xhtml#a0ddf1224851353fc92bfbff6f499fa97" target="_top" xlink:title=" ">
<polygon fill="white" stroke="#666666" points="344.5,-610.5 306.5,-610.5 306.5,-591.5 344.5,-591.5 344.5,-610.5"/>
<text text-anchor="middle" x="325.5" y="-598.5" font-family="Helvetica,sans-Serif" font-size="10.00">main</text>
</a>
</g>
</g>
<!-- Node15&#45;&gt;Node16 -->
<g id="edge16" class="edge">
<title>Node15&#45;&gt;Node16</title>
<path fill="none" stroke="#63b8ff" d="M404.84,-601C382.76,-601 359.99,-601 344.72,-601"/>
<polygon fill="#63b8ff" stroke="#63b8ff" points="404.91,-604.5 414.91,-601 404.91,-597.5 404.91,-604.5"/>
</g>
<!-- Node18 -->
<g id="node18" class="node">
<title>Node18</title>
<g id="a_node18"><a xlink:href="a00350.xhtml#a541f40820696e37cc302fc780b8313ee" target="_top" xlink:title=" ">
<polygon fill="white" stroke="#666666" points="213,-613 97,-613 97,-583 213,-583 213,-613"/>
<text text-anchor="start" x="105" y="-601" font-family="Helvetica,sans-Serif" font-size="10.00">CFeatureTimeMaxAcf</text>
<text text-anchor="middle" x="155" y="-590" font-family="Helvetica,sans-Serif" font-size="10.00">::CFeatureTimeMaxAcf</text>
</a>
</g>
</g>
<!-- Node17&#45;&gt;Node18 -->
<g id="edge18" class="edge">
<title>Node17&#45;&gt;Node18</title>
<path fill="none" stroke="#63b8ff" d="M287.57,-570.67C265.74,-575.2 237.65,-581.04 213.02,-586.16"/>
<polygon fill="#63b8ff" stroke="#63b8ff" points="288.35,-574.08 297.43,-568.62 286.92,-567.23 288.35,-574.08"/>
</g>
<!-- Node19 -->
<g id="node19" class="node">
<title>Node19</title>
<g id="a_node19"><a xlink:href="a00450.xhtml#a58a9a3d685f448ced2e843a60028e472" target="_top" xlink:title=" ">
<polygon fill="white" stroke="#666666" points="227.5,-516.5 82.5,-516.5 82.5,-497.5 227.5,-497.5 227.5,-516.5"/>
<text text-anchor="middle" x="155" y="-504.5" font-family="Helvetica,sans-Serif" font-size="10.00">CBeatHistoIf::compBeatHisto</text>
</a>
</g>
</g>
<!-- Node17&#45;&gt;Node19 -->
<g id="edge19" class="edge">
<title>Node17&#45;&gt;Node19</title>
<path fill="none" stroke="#63b8ff" d="M294.74,-549.13C277.78,-541.59 255.99,-532.5 236,-526 225.14,-522.47 213.26,-519.29 202.05,-516.58"/>
<polygon fill="#63b8ff" stroke="#63b8ff" points="293.56,-552.44 304.12,-553.36 296.44,-546.06 293.56,-552.44"/>
</g>
<!-- Node20 -->
<g id="node20" class="node">
<title>Node20</title>
<g id="a_node20"><a xlink:href="a00378.xhtml#ad7f64995a5d0ca75139e400172a9ab42" target="_top" xlink:title=" ">
<polygon fill="white" stroke="#666666" points="205.5,-565 104.5,-565 104.5,-535 205.5,-535 205.5,-565"/>
<text text-anchor="start" x="112.5" y="-553" font-family="Helvetica,sans-Serif" font-size="10.00">CPitchSpectralAcf::</text>
<text text-anchor="middle" x="155" y="-542" font-family="Helvetica,sans-Serif" font-size="10.00">CPitchSpectralAcf</text>
</a>
</g>
</g>
<!-- Node17&#45;&gt;Node20 -->
<g id="edge21" class="edge">
<title>Node17&#45;&gt;Node20</title>
<path fill="none" stroke="#63b8ff" d="M287.32,-560.13C263.35,-558.28 231.89,-555.86 205.77,-553.84"/>
<polygon fill="#63b8ff" stroke="#63b8ff" points="287.19,-563.63 297.43,-560.91 287.73,-556.65 287.19,-563.63"/>
</g>
<!-- Node21 -->
<g id="node21" class="node">
<title>Node21</title>
<g id="a_node21"><a xlink:href="a00386.xhtml#acd4920798f76cfa56accd9ba28dad6ae" target="_top" xlink:title=" ">
<polygon fill="white" stroke="#666666" points="231.5,-698.5 78.5,-698.5 78.5,-679.5 231.5,-679.5 231.5,-698.5"/>
<text text-anchor="middle" x="155" y="-686.5" font-family="Helvetica,sans-Serif" font-size="10.00">CPitchTimeAcf::CPitchTimeAcf</text>
</a>
</g>
</g>
<!-- Node17&#45;&gt;Node21 -->
<g id="edge22" class="edge">
<title>Node17&#45;&gt;Node21</title>
<path fill="none" stroke="#63b8ff" d="M287.6,-571.85C281.9,-574.43 276.44,-577.74 272,-582 241.51,-611.26 268.11,-642.52 236,-670 231.55,-673.81 226.48,-676.88 221.09,-679.36"/>
<polygon fill="#63b8ff" stroke="#63b8ff" points="289.19,-574.99 297.29,-568.18 286.7,-568.45 289.19,-574.99"/>
</g>
<!-- Node22 -->
<g id="node22" class="node">
<title>Node22</title>
<g id="a_node22"><a xlink:href="a00390.xhtml#af5f08be46100a7ecbc5450f52a96c77e" target="_top" xlink:title=" ">
<polygon fill="white" stroke="#666666" points="208.5,-661 101.5,-661 101.5,-631 208.5,-631 208.5,-661"/>
<text text-anchor="start" x="109.5" y="-649" font-family="Helvetica,sans-Serif" font-size="10.00">CPitchTimeAuditory</text>
<text text-anchor="middle" x="155" y="-638" font-family="Helvetica,sans-Serif" font-size="10.00">::CPitchTimeAuditory</text>
</a>
</g>
</g>
<!-- Node17&#45;&gt;Node22 -->
<g id="edge23" class="edge">
<title>Node17&#45;&gt;Node22</title>
<path fill="none" stroke="#63b8ff" d="M288.02,-573.55C282.43,-575.9 276.89,-578.71 272,-582 252.16,-595.36 256.2,-609.2 236,-622 227.67,-627.28 218.12,-631.44 208.59,-634.72"/>
<polygon fill="#63b8ff" stroke="#63b8ff" points="289.28,-576.81 297.39,-569.99 286.8,-570.27 289.28,-576.81"/>
</g>
<!-- Node19&#45;&gt;Node3 -->
<g id="edge20" class="edge">
<title>Node19&#45;&gt;Node3</title>
<path fill="none" stroke="#63b8ff" d="M80.64,-521.4C78.33,-522.8 76.1,-524.33 74,-526 40.95,-552.29 26.58,-604.03 21.88,-625.41"/>
<polygon fill="#63b8ff" stroke="#63b8ff" points="82.67,-524.3 89.99,-516.64 79.49,-518.06 82.67,-524.3"/>
</g>
<!-- Node23&#45;&gt;Node17 -->
<g id="edge27" class="edge">
<title>Node23&#45;&gt;Node17</title>
<path fill="none" stroke="#63b8ff" d="M460.16,-384.12C442.95,-410.22 409.71,-459.67 379,-500 364.17,-519.48 345.57,-541.23 334.96,-553.4"/>
<polygon fill="#63b8ff" stroke="#63b8ff" points="463.17,-385.91 465.74,-375.63 457.32,-382.06 463.17,-385.91"/>
</g>
<!-- Node23&#45;&gt;Node19 -->
<g id="edge26" class="edge">
<title>Node23&#45;&gt;Node19</title>
<path fill="none" stroke="#63b8ff" d="M456.12,-383.16C438.75,-400.97 409.34,-428.5 379,-445 328.52,-472.46 264.85,-488.58 218.48,-497.47"/>
<polygon fill="#63b8ff" stroke="#63b8ff" points="458.83,-385.38 463.21,-375.73 453.77,-380.55 458.83,-385.38"/>
</g>
<!-- Node24 -->
<g id="node24" class="node">
<title>Node24</title>
<g id="a_node24"><a xlink:href="a00574.xhtml#a4b3af2ff4c095211a3c89701a6fdb9db" target="_top" xlink:title=" ">
<polygon fill="white" stroke="#666666" points="379,-393.5 272,-393.5 272,-374.5 379,-374.5 379,-393.5"/>
<text text-anchor="middle" x="325.5" y="-381.5" font-family="Helvetica,sans-Serif" font-size="10.00">CInstFreq::CInstFreq</text>
</a>
</g>
</g>
<!-- Node23&#45;&gt;Node24 -->
<g id="edge25" class="edge">
<title>Node23&#45;&gt;Node24</title>
<path fill="none" stroke="#63b8ff" d="M436.15,-370.44C418.94,-372.56 397.99,-375.16 379.03,-377.5"/>
<polygon fill="#63b8ff" stroke="#63b8ff" points="436.83,-373.88 446.32,-369.18 435.97,-366.93 436.83,-373.88"/>
</g>
<!-- Node25 -->
<g id="node25" class="node">
<title>Node25</title>
<g id="a_node25"><a xlink:href="a00454.xhtml#ad48a5bd574f16b7491b70efb9998935f" target="_top" xlink:title="init configuration">
<polygon fill="white" stroke="#666666" points="364,-356.5 287,-356.5 287,-337.5 364,-337.5 364,-356.5"/>
<text text-anchor="middle" x="325.5" y="-344.5" font-family="Helvetica,sans-Serif" font-size="10.00">CChordIf::init_</text>
</a>
</g>
</g>
<!-- Node23&#45;&gt;Node25 -->
<g id="edge28" class="edge">
<title>Node23&#45;&gt;Node25</title>
<path fill="none" stroke="#63b8ff" d="M436.13,-361.32C414.28,-358.46 386.4,-354.82 364.22,-351.93"/>
<polygon fill="#63b8ff" stroke="#63b8ff" points="435.95,-364.82 446.32,-362.65 436.86,-357.88 435.95,-364.82"/>
</g>
<!-- Node28 -->
<g id="node28" class="node">
<title>Node28</title>
<g id="a_node28"><a xlink:href="a00554.xhtml#a8a32af7f8df719a995e85273800d028f" target="_top" xlink:title=" ">
<polygon fill="white" stroke="#666666" points="371.5,-313.5 279.5,-313.5 279.5,-294.5 371.5,-294.5 371.5,-313.5"/>
<text text-anchor="middle" x="325.5" y="-301.5" font-family="Helvetica,sans-Serif" font-size="10.00">CFingerprint::init_</text>
</a>
</g>
</g>
<!-- Node23&#45;&gt;Node28 -->
<g id="edge31" class="edge">
<title>Node23&#45;&gt;Node28</title>
<path fill="none" stroke="#63b8ff" d="M440.38,-352.53C412.87,-340.81 373.67,-324.1 349.18,-313.66"/>
<polygon fill="#63b8ff" stroke="#63b8ff" points="439.01,-355.75 449.58,-356.45 441.76,-349.31 439.01,-355.75"/>
</g>
<!-- Node31 -->
<g id="node31" class="node">
<title>Node31</title>
<g id="a_node31"><a xlink:href="a00466.xhtml#ab38ca831ee8ae42a8a95e33af4f756ba" target="_top" xlink:title="init configuration">
<polygon fill="white" stroke="#666666" points="368,-264.5 283,-264.5 283,-245.5 368,-245.5 368,-264.5"/>
<text text-anchor="middle" x="325.5" y="-252.5" font-family="Helvetica,sans-Serif" font-size="10.00">CFeatureIf::init_</text>
</a>
</g>
</g>
<!-- Node23&#45;&gt;Node31 -->
<g id="edge34" class="edge">
<title>Node23&#45;&gt;Node31</title>
<path fill="none" stroke="#63b8ff" d="M454.79,-349.16C436.75,-331.96 407.15,-305.01 379,-285 368.39,-277.46 355.74,-270.19 345.52,-264.69"/>
<polygon fill="#63b8ff" stroke="#63b8ff" points="452.59,-351.9 462.22,-356.32 457.45,-346.86 452.59,-351.9"/>
</g>
<!-- Node34 -->
<g id="node34" class="node">
<title>Node34</title>
<g id="a_node34"><a xlink:href="a00530.xhtml#a9c4b2db2031256e48ade8c9fa235b6f2" target="_top" xlink:title="init configuration">
<polygon fill="white" stroke="#666666" points="379,-168.5 272,-168.5 272,-149.5 379,-149.5 379,-168.5"/>
<text text-anchor="middle" x="325.5" y="-156.5" font-family="Helvetica,sans-Serif" font-size="10.00">CSpectrogramIf::init_</text>
</a>
</g>
</g>
<!-- Node23&#45;&gt;Node34 -->
<g id="edge37" class="edge">
<title>Node23&#45;&gt;Node34</title>
<path fill="none" stroke="#63b8ff" d="M459.4,-348.07C429.76,-305.91 356.42,-201.57 333.48,-168.93"/>
<polygon fill="#63b8ff" stroke="#63b8ff" points="456.56,-350.13 465.18,-356.29 462.29,-346.1 456.56,-350.13"/>
</g>
<!-- Node37 -->
<g id="node37" class="node">
<title>Node37</title>
<g id="a_node37"><a xlink:href="a00514.xhtml#a4beb226d8e7dd927c253667647e837ec" target="_top" xlink:title="init configuration">
<polygon fill="white" stroke="#666666" points="368,-72.5 283,-72.5 283,-53.5 368,-53.5 368,-72.5"/>
<text text-anchor="middle" x="325.5" y="-60.5" font-family="Helvetica,sans-Serif" font-size="10.00">CNoveltyIf::init_</text>
</a>
</g>
</g>
<!-- Node23&#45;&gt;Node37 -->
<g id="edge40" class="edge">
<title>Node23&#45;&gt;Node37</title>
<path fill="none" stroke="#63b8ff" d="M465.58,-346.66C452.02,-306.82 418.47,-213.21 379,-140 365.18,-114.36 344.84,-86.71 333.98,-72.55"/>
<polygon fill="#63b8ff" stroke="#63b8ff" points="462.28,-347.84 468.79,-356.2 468.92,-345.61 462.28,-347.84"/>
</g>
<!-- Node40 -->
<g id="node40" class="node">
<title>Node40</title>
<g id="a_node40"><a xlink:href="a00522.xhtml#a3a966aff4a49e12324f205b20c5f2232" target="_top" xlink:title="init configuration">
<polygon fill="white" stroke="#666666" points="362.5,-436.5 288.5,-436.5 288.5,-417.5 362.5,-417.5 362.5,-436.5"/>
<text text-anchor="middle" x="325.5" y="-424.5" font-family="Helvetica,sans-Serif" font-size="10.00">CPitchIf::init_</text>
</a>
</g>
</g>
<!-- Node23&#45;&gt;Node40 -->
<g id="edge43" class="edge">
<title>Node23&#45;&gt;Node40</title>
<path fill="none" stroke="#63b8ff" d="M439.75,-379.52C412.41,-390.98 373.88,-407.13 349.55,-417.33"/>
<polygon fill="#63b8ff" stroke="#63b8ff" points="441.4,-382.63 449.27,-375.53 438.69,-376.17 441.4,-382.63"/>
</g>
<!-- Node26 -->
<g id="node26" class="node">
<title>Node26</title>
<g id="a_node26"><a xlink:href="a00310.xhtml#a6df404d2eb3d4c8f9dc2071930fc9e7e" target="_top" xlink:title=" ">
<polygon fill="white" stroke="#666666" points="236,-393.5 74,-393.5 74,-374.5 236,-374.5 236,-393.5"/>
<text text-anchor="middle" x="155" y="-381.5" font-family="Helvetica,sans-Serif" font-size="10.00">CChordFromFile::CChordFromFile</text>
</a>
</g>
</g>
<!-- Node25&#45;&gt;Node26 -->
<g id="edge29" class="edge">
<title>Node25&#45;&gt;Node26</title>
<path fill="none" stroke="#63b8ff" d="M276.6,-357.52C252.29,-362.86 222.98,-369.29 199.34,-374.48"/>
<polygon fill="#63b8ff" stroke="#63b8ff" points="277.67,-360.87 286.69,-355.3 276.17,-354.03 277.67,-360.87"/>
</g>
<!-- Node27 -->
<g id="node27" class="node">
<title>Node27</title>
<g id="a_node27"><a xlink:href="a00314.xhtml#ac9c41c2ddc441df7e0ae80c25971c260" target="_top" xlink:title=" ">
<polygon fill="white" stroke="#666666" points="223.5,-356 86.5,-356 86.5,-326 223.5,-326 223.5,-356"/>
<text text-anchor="start" x="94.5" y="-344" font-family="Helvetica,sans-Serif" font-size="10.00">CChordFromVector::CChord</text>
<text text-anchor="middle" x="155" y="-333" font-family="Helvetica,sans-Serif" font-size="10.00">FromVector</text>
</a>
</g>
</g>
<!-- Node25&#45;&gt;Node27 -->
<g id="edge30" class="edge">
<title>Node25&#45;&gt;Node27</title>
<path fill="none" stroke="#63b8ff" d="M276.25,-345.28C259.83,-344.7 241.15,-344.03 223.5,-343.4"/>
<polygon fill="#63b8ff" stroke="#63b8ff" points="276.57,-348.8 286.69,-345.65 276.82,-341.8 276.57,-348.8"/>
</g>
<!-- Node29 -->
<g id="node29" class="node">
<title>Node29</title>
<g id="a_node29"><a xlink:href="a00554.xhtml#ab79f4706d42b250f36c91cfd075bc8df" target="_top" xlink:title=" ">
<polygon fill="white" stroke="#666666" points="198,-307.5 112,-307.5 112,-288.5 198,-288.5 198,-307.5"/>
<text text-anchor="middle" x="155" y="-295.5" font-family="Helvetica,sans-Serif" font-size="10.00">CFingerprint::init</text>
</a>
</g>
</g>
<!-- Node28&#45;&gt;Node29 -->
<g id="edge32" class="edge">
<title>Node28&#45;&gt;Node29</title>
<path fill="none" stroke="#63b8ff" d="M269.31,-302.03C246.14,-301.21 219.64,-300.27 198.09,-299.5"/>
<polygon fill="#63b8ff" stroke="#63b8ff" points="269.23,-305.53 279.35,-302.39 269.48,-298.54 269.23,-305.53"/>
</g>
<!-- Node30 -->
<g id="node30" class="node">
<title>Node30</title>
<g id="a_node30"><a xlink:href="a00116.xhtml#a0ddf1224851353fc92bfbff6f499fa97" target="_top" xlink:title=" ">
<polygon fill="white" stroke="#666666" points="38,-307.5 0,-307.5 0,-288.5 38,-288.5 38,-307.5"/>
<text text-anchor="middle" x="19" y="-295.5" font-family="Helvetica,sans-Serif" font-size="10.00">main</text>
</a>
</g>
</g>
<!-- Node29&#45;&gt;Node30 -->
<g id="edge33" class="edge">
<title>Node29&#45;&gt;Node30</title>
<path fill="none" stroke="#63b8ff" d="M101.82,-298C79.27,-298 54.37,-298 38.03,-298"/>
<polygon fill="#63b8ff" stroke="#63b8ff" points="101.97,-301.5 111.97,-298 101.97,-294.5 101.97,-301.5"/>
</g>
<!-- Node32 -->
<g id="node32" class="node">
<title>Node32</title>
<g id="a_node32"><a xlink:href="a00318.xhtml#abdd90edbfe131bcd181d9ffac77fab8e" target="_top" xlink:title=" ">
<polygon fill="white" stroke="#666666" points="224.5,-270 85.5,-270 85.5,-240 224.5,-240 224.5,-270"/>
<text text-anchor="start" x="93.5" y="-258" font-family="Helvetica,sans-Serif" font-size="10.00">CFeatureFromFile::CFeature</text>
<text text-anchor="middle" x="155" y="-247" font-family="Helvetica,sans-Serif" font-size="10.00">FromFile</text>
</a>
</g>
</g>
<!-- Node31&#45;&gt;Node32 -->
<g id="edge35" class="edge">
<title>Node31&#45;&gt;Node32</title>
<path fill="none" stroke="#63b8ff" d="M272.66,-255C257.52,-255 240.72,-255 224.71,-255"/>
<polygon fill="#63b8ff" stroke="#63b8ff" points="272.85,-258.5 282.85,-255 272.85,-251.5 272.85,-258.5"/>
</g>
<!-- Node33 -->
<g id="node33" class="node">
<title>Node33</title>
<g id="a_node33"><a xlink:href="a00322.xhtml#a686d96f3eac3a33378fcea886d687305" target="_top" xlink:title=" ">
<polygon fill="white" stroke="#666666" points="211,-222 99,-222 99,-192 211,-192 211,-222"/>
<text text-anchor="start" x="107" y="-210" font-family="Helvetica,sans-Serif" font-size="10.00">CFeatureFromVector</text>
<text text-anchor="middle" x="155" y="-199" font-family="Helvetica,sans-Serif" font-size="10.00">::CFeatureFromVector</text>
</a>
</g>
</g>
<!-- Node31&#45;&gt;Node33 -->
<g id="edge36" class="edge">
<title>Node31&#45;&gt;Node33</title>
<path fill="none" stroke="#63b8ff" d="M281.06,-242.63C259.04,-236.35 232.1,-228.68 208.88,-222.06"/>
<polygon fill="#63b8ff" stroke="#63b8ff" points="280.23,-246.03 290.81,-245.4 282.15,-239.3 280.23,-246.03"/>
</g>
<!-- Node35 -->
<g id="node35" class="node">
<title>Node35</title>
<g id="a_node35"><a xlink:href="a00402.xhtml#aeac8291805613de79ed584829d3d5f30" target="_top" xlink:title=" ">
<polygon fill="white" stroke="#666666" points="216,-174 94,-174 94,-144 216,-144 216,-174"/>
<text text-anchor="start" x="102" y="-162" font-family="Helvetica,sans-Serif" font-size="10.00">CSpectrogramFromFile</text>
<text text-anchor="middle" x="155" y="-151" font-family="Helvetica,sans-Serif" font-size="10.00">::CSpectrogramFromFile</text>
</a>
</g>
</g>
<!-- Node34&#45;&gt;Node35 -->
<g id="edge38" class="edge">
<title>Node34&#45;&gt;Node35</title>
<path fill="none" stroke="#63b8ff" d="M261.51,-159C246.61,-159 230.77,-159 216.01,-159"/>
<polygon fill="#63b8ff" stroke="#63b8ff" points="261.65,-162.5 271.65,-159 261.65,-155.5 261.65,-162.5"/>
</g>
<!-- Node36 -->
<g id="node36" class="node">
<title>Node36</title>
<g id="a_node36"><a xlink:href="a00406.xhtml#a2c6b75c7c05204bec34db9c8ec6c40d1" target="_top" xlink:title=" ">
<polygon fill="white" stroke="#666666" points="222,-126 88,-126 88,-96 222,-96 222,-126"/>
<text text-anchor="start" x="96" y="-114" font-family="Helvetica,sans-Serif" font-size="10.00">CSpectrogramFromVector</text>
<text text-anchor="middle" x="155" y="-103" font-family="Helvetica,sans-Serif" font-size="10.00">::CSpectrogramFromVector</text>
</a>
</g>
</g>
<!-- Node34&#45;&gt;Node36 -->
<g id="edge39" class="edge">
<title>Node34&#45;&gt;Node36</title>
<path fill="none" stroke="#63b8ff" d="M281.06,-146.63C259.04,-140.35 232.1,-132.68 208.88,-126.06"/>
<polygon fill="#63b8ff" stroke="#63b8ff" points="280.23,-150.03 290.81,-149.4 282.15,-143.3 280.23,-150.03"/>
</g>
<!-- Node38 -->
<g id="node38" class="node">
<title>Node38</title>
<g id="a_node38"><a xlink:href="a00362.xhtml#a0247bb6d1818b840d1182d5ee50214d5" target="_top" xlink:title=" ">
<polygon fill="white" stroke="#666666" points="224.5,-78 85.5,-78 85.5,-48 224.5,-48 224.5,-78"/>
<text text-anchor="start" x="93.5" y="-66" font-family="Helvetica,sans-Serif" font-size="10.00">CNoveltyFromFile::CNovelty</text>
<text text-anchor="middle" x="155" y="-55" font-family="Helvetica,sans-Serif" font-size="10.00">FromFile</text>
</a>
</g>
</g>
<!-- Node37&#45;&gt;Node38 -->
<g id="edge41" class="edge">
<title>Node37&#45;&gt;Node38</title>
<path fill="none" stroke="#63b8ff" d="M272.66,-63C257.52,-63 240.72,-63 224.71,-63"/>
<polygon fill="#63b8ff" stroke="#63b8ff" points="272.85,-66.5 282.85,-63 272.85,-59.5 272.85,-66.5"/>
</g>
<!-- Node39 -->
<g id="node39" class="node">
<title>Node39</title>
<g id="a_node39"><a xlink:href="a00366.xhtml#a8730189fe1aa6b0e557afc04faad9966" target="_top" xlink:title=" ">
<polygon fill="white" stroke="#666666" points="211,-30 99,-30 99,0 211,0 211,-30"/>
<text text-anchor="start" x="107" y="-18" font-family="Helvetica,sans-Serif" font-size="10.00">CNoveltyFromVector</text>
<text text-anchor="middle" x="155" y="-7" font-family="Helvetica,sans-Serif" font-size="10.00">::CNoveltyFromVector</text>
</a>
</g>
</g>
<!-- Node37&#45;&gt;Node39 -->
<g id="edge42" class="edge">
<title>Node37&#45;&gt;Node39</title>
<path fill="none" stroke="#63b8ff" d="M281.06,-50.63C259.04,-44.35 232.1,-36.68 208.88,-30.06"/>
<polygon fill="#63b8ff" stroke="#63b8ff" points="280.23,-54.03 290.81,-53.4 282.15,-47.3 280.23,-54.03"/>
</g>
<!-- Node41 -->
<g id="node41" class="node">
<title>Node41</title>
<g id="a_node41"><a xlink:href="a00370.xhtml#ab74f454ce0bbdccd22a38066ce26b16a" target="_top" xlink:title=" ">
<polygon fill="white" stroke="#666666" points="233,-479.5 77,-479.5 77,-460.5 233,-460.5 233,-479.5"/>
<text text-anchor="middle" x="155" y="-467.5" font-family="Helvetica,sans-Serif" font-size="10.00">CPitchFromFile::CPitchFromFile</text>
</a>
</g>
</g>
<!-- Node40&#45;&gt;Node41 -->
<g id="edge44" class="edge">
<title>Node40&#45;&gt;Node41</title>
<path fill="none" stroke="#63b8ff" d="M280.16,-439.32C266.07,-443.16 250.4,-447.34 236,-451 223.41,-454.2 209.66,-457.53 197.17,-460.49"/>
<polygon fill="#63b8ff" stroke="#63b8ff" points="281.38,-442.61 290.1,-436.6 279.53,-435.86 281.38,-442.61"/>
</g>
<!-- Node42 -->
<g id="node42" class="node">
<title>Node42</title>
<g id="a_node42"><a xlink:href="a00374.xhtml#a383eb44fd89db6be0119177effcf90bd" target="_top" xlink:title=" ">
<polygon fill="white" stroke="#666666" points="220.5,-442 89.5,-442 89.5,-412 220.5,-412 220.5,-442"/>
<text text-anchor="start" x="97.5" y="-430" font-family="Helvetica,sans-Serif" font-size="10.00">CPitchFromVector::CPitch</text>
<text text-anchor="middle" x="155" y="-419" font-family="Helvetica,sans-Serif" font-size="10.00">FromVector</text>
</a>
</g>
</g>
<!-- Node40&#45;&gt;Node42 -->
<g id="edge45" class="edge">
<title>Node40&#45;&gt;Node42</title>
<path fill="none" stroke="#63b8ff" d="M278.25,-427C260.47,-427 239.84,-427 220.65,-427"/>
<polygon fill="#63b8ff" stroke="#63b8ff" points="278.35,-430.5 288.35,-427 278.35,-423.5 278.35,-430.5"/>
</g>
</g>
</svg>
