<?xml version="1.0" encoding="UTF-8" standalone="no"?>
<!DOCTYPE svg PUBLIC "-//W3C//DTD SVG 1.1//EN"
 "http://www.w3.org/Graphics/SVG/1.1/DTD/svg11.dtd">
<!-- Generated by graphviz version 4.0.0 (20220602.1335)
 -->
<!-- Title: CAudioFileIf::getPosition Pages: 1 -->
<svg width="290pt" height="116pt"
 viewBox="0.00 0.00 290.00 115.50" xmlns="http://www.w3.org/2000/svg" xmlns:xlink="http://www.w3.org/1999/xlink">
<g id="graph0" class="graph" transform="scale(1 1) rotate(0) translate(4 111.5)">
<title>CAudioFileIf::getPosition</title>
<polygon fill="white" stroke="transparent" points="-4,4 -4,-111.5 286,-111.5 286,4 -4,4"/>
<!-- Node1 -->
<g id="node1" class="node">
<title>Node1</title>
<g id="a_node1"><a xlink:title=" ">
<polygon fill="#bfbfbf" stroke="black" points="0,-38.5 0,-57.5 123,-57.5 123,-38.5 0,-38.5"/>
<text text-anchor="middle" x="61.5" y="-45.5" font-family="Helvetica,sans-Serif" font-size="10.00">CAudioFileIf::getPosition</text>
</a>
</g>
</g>
<!-- Node2 -->
<g id="node2" class="node">
<title>Node2</title>
<g id="a_node2"><a xlink:href="a00442.xhtml#afa4e52309d9c05cabe46dbb6f13b819a" target="_top" xlink:title=" ">
<polygon fill="white" stroke="black" points="159,-77 159,-107 282,-107 282,-77 159,-77"/>
<text text-anchor="start" x="167" y="-95" font-family="Helvetica,sans-Serif" font-size="10.00">CAudioFileIf::getPosition</text>
<text text-anchor="middle" x="220.5" y="-84" font-family="Helvetica,sans-Serif" font-size="10.00">Intern_</text>
</a>
</g>
</g>
<!-- Node1&#45;&gt;Node2 -->
<g id="edge1" class="edge">
<title>Node1&#45;&gt;Node2</title>
<path fill="none" stroke="midnightblue" d="M96.57,-57.55C113.93,-62.41 135.61,-68.49 155.91,-74.18"/>
<polygon fill="midnightblue" stroke="midnightblue" points="155.17,-77.61 165.74,-76.93 157.06,-70.87 155.17,-77.61"/>
</g>
<!-- Node3 -->
<g id="node3" class="node">
<title>Node3</title>
<g id="a_node3"><a xlink:href="a00442.xhtml#a01d2aae56dd6295aee8ad10088f2cb27" target="_top" xlink:title=" ">
<polygon fill="white" stroke="black" points="159.5,-38.5 159.5,-57.5 281.5,-57.5 281.5,-38.5 159.5,-38.5"/>
<text text-anchor="middle" x="220.5" y="-45.5" font-family="Helvetica,sans-Serif" font-size="10.00">CAudioFileIf::isInitialized</text>
</a>
</g>
</g>
<!-- Node1&#45;&gt;Node3 -->
<g id="edge2" class="edge">
<title>Node1&#45;&gt;Node3</title>
<path fill="none" stroke="midnightblue" d="M123.2,-48C131.76,-48 140.62,-48 149.33,-48"/>
<polygon fill="midnightblue" stroke="midnightblue" points="149.48,-51.5 159.48,-48 149.48,-44.5 149.48,-51.5"/>
</g>
<!-- Node4 -->
<g id="node4" class="node">
<title>Node4</title>
<g id="a_node4"><a xlink:href="a00442.xhtml#a7d946177a6591600dc03a423feb38cb3" target="_top" xlink:title=" ">
<polygon fill="white" stroke="black" points="168,-0.5 168,-19.5 273,-19.5 273,-0.5 168,-0.5"/>
<text text-anchor="middle" x="220.5" y="-7.5" font-family="Helvetica,sans-Serif" font-size="10.00">CAudioFileIf::isOpen</text>
</a>
</g>
</g>
<!-- Node1&#45;&gt;Node4 -->
<g id="edge3" class="edge">
<title>Node1&#45;&gt;Node4</title>
<path fill="none" stroke="midnightblue" d="M102.12,-38.41C122.84,-33.4 148.39,-27.21 170.36,-21.89"/>
<polygon fill="midnightblue" stroke="midnightblue" points="171.27,-25.27 180.17,-19.52 169.62,-18.47 171.27,-25.27"/>
</g>
</g>
</svg>
