<?xml version="1.0" encoding="UTF-8" standalone="no"?>
<!DOCTYPE svg PUBLIC "-//W3C//DTD SVG 1.1//EN"
 "http://www.w3.org/Graphics/SVG/1.1/DTD/svg11.dtd">
<!-- Generated by graphviz version 4.0.0 (20220602.1335)
 -->
<!-- Title: CFeatureFromBlockIf::compFeatureSpectralSkewness Pages: 1 -->
<svg width="535pt" height="61pt"
 viewBox="0.00 0.00 535.00 61.00" xmlns="http://www.w3.org/2000/svg" xmlns:xlink="http://www.w3.org/1999/xlink">
<g id="graph0" class="graph" transform="scale(1 1) rotate(0) translate(4 57)">
<title>CFeatureFromBlockIf::compFeatureSpectralSkewness</title>
<polygon fill="white" stroke="transparent" points="-4,4 -4,-57 531,-57 531,4 -4,4"/>
<!-- Node1 -->
<g id="node1" class="node">
<title>Node1</title>
<g id="a_node1"><a xlink:title=" ">
<polygon fill="#bfbfbf" stroke="black" points="0,-22.5 0,-52.5 160,-52.5 160,-22.5 0,-22.5"/>
<text text-anchor="start" x="8" y="-40.5" font-family="Helvetica,sans-Serif" font-size="10.00">CFeatureFromBlockIf</text>
<text text-anchor="middle" x="80" y="-29.5" font-family="Helvetica,sans-Serif" font-size="10.00">::compFeatureSpectralSkewness</text>
</a>
</g>
</g>
<!-- Node2 -->
<g id="node2" class="node">
<title>Node2</title>
<g id="a_node2"><a xlink:href="a00476.xhtml#a880a58f05522dfd1f0f16f26c34703db" target="_top" xlink:title=" ">
<polygon fill="white" stroke="black" points="377,-22.5 377,-52.5 527,-52.5 527,-22.5 377,-22.5"/>
<text text-anchor="start" x="385" y="-40.5" font-family="Helvetica,sans-Serif" font-size="10.00">CFeatureFromBlockIf</text>
<text text-anchor="middle" x="452" y="-29.5" font-family="Helvetica,sans-Serif" font-size="10.00">::compFeatureSpectralCentroid</text>
</a>
</g>
</g>
<!-- Node1&#45;&gt;Node2 -->
<g id="edge1" class="edge">
<title>Node1&#45;&gt;Node2</title>
<path fill="none" stroke="midnightblue" d="M160.18,-39.84C172.18,-40.11 184.42,-40.35 196,-40.5 260.44,-41.34 276.56,-41.38 341,-40.5 349.31,-40.39 357.97,-40.23 366.62,-40.04"/>
<polygon fill="midnightblue" stroke="midnightblue" points="366.83,-43.53 376.75,-39.8 366.67,-36.53 366.83,-43.53"/>
</g>
<!-- Node3 -->
<g id="node3" class="node">
<title>Node3</title>
<g id="a_node3"><a xlink:href="a00476.xhtml#aa97614c73430e57facec7a88bee49c9f" target="_top" xlink:title=" ">
<polygon fill="white" stroke="black" points="196,-0.5 196,-30.5 341,-30.5 341,-0.5 196,-0.5"/>
<text text-anchor="start" x="204" y="-18.5" font-family="Helvetica,sans-Serif" font-size="10.00">CFeatureFromBlockIf</text>
<text text-anchor="middle" x="268.5" y="-7.5" font-family="Helvetica,sans-Serif" font-size="10.00">::compFeatureSpectralSpread</text>
</a>
</g>
</g>
<!-- Node1&#45;&gt;Node3 -->
<g id="edge2" class="edge">
<title>Node1&#45;&gt;Node3</title>
<path fill="none" stroke="midnightblue" d="M160.09,-28.17C168.66,-27.16 177.38,-26.13 185.97,-25.12"/>
<polygon fill="midnightblue" stroke="midnightblue" points="186.46,-28.58 195.98,-23.94 185.64,-21.63 186.46,-28.58"/>
</g>
<!-- Node3&#45;&gt;Node2 -->
<g id="edge3" class="edge">
<title>Node3&#45;&gt;Node2</title>
<path fill="none" stroke="midnightblue" d="M341.23,-24.19C349.64,-25.21 358.27,-26.26 366.82,-27.3"/>
<polygon fill="midnightblue" stroke="midnightblue" points="366.46,-30.78 376.81,-28.51 367.3,-23.83 366.46,-30.78"/>
</g>
</g>
</svg>
