<?xml version="1.0" encoding="UTF-8" standalone="no"?>
<!DOCTYPE svg PUBLIC "-//W3C//DTD SVG 1.1//EN"
 "http://www.w3.org/Graphics/SVG/1.1/DTD/svg11.dtd">
<!-- Generated by graphviz version 4.0.0 (20220602.1335)
 -->
<!-- Title: CAudioFileRaw::getLengthIntern_ Pages: 1 -->
<svg width="673pt" height="103pt"
 viewBox="0.00 0.00 673.00 103.03" xmlns="http://www.w3.org/2000/svg" xmlns:xlink="http://www.w3.org/1999/xlink">
<g id="graph0" class="graph" transform="scale(1 1) rotate(0) translate(4 99.03)">
<title>CAudioFileRaw::getLengthIntern_</title>
<polygon fill="white" stroke="transparent" points="-4,4 -4,-99.03 669,-99.03 669,4 -4,4"/>
<!-- Node1 -->
<g id="node1" class="node">
<title>Node1</title>
<g id="a_node1"><a xlink:title=" ">
<polygon fill="#bfbfbf" stroke="black" points="0,-49.5 0,-79.5 131,-79.5 131,-49.5 0,-49.5"/>
<text text-anchor="start" x="8" y="-67.5" font-family="Helvetica,sans-Serif" font-size="10.00">CAudioFileRaw::getLength</text>
<text text-anchor="middle" x="65.5" y="-56.5" font-family="Helvetica,sans-Serif" font-size="10.00">Intern_</text>
</a>
</g>
</g>
<!-- Node2 -->
<g id="node2" class="node">
<title>Node2</title>
<g id="a_node2"><a xlink:href="a00439.xhtml#a74a50bd2e71e8c5886e6f9f2cd3df323" target="_top" xlink:title=" ">
<polygon fill="white" stroke="black" points="344.5,-49.5 344.5,-79.5 469.5,-79.5 469.5,-49.5 344.5,-49.5"/>
<text text-anchor="start" x="352.5" y="-67.5" font-family="Helvetica,sans-Serif" font-size="10.00">CAudioFileIf::convBytes2</text>
<text text-anchor="middle" x="407" y="-56.5" font-family="Helvetica,sans-Serif" font-size="10.00">Frames_</text>
</a>
</g>
</g>
<!-- Node1&#45;&gt;Node2 -->
<g id="edge1" class="edge">
<title>Node1&#45;&gt;Node2</title>
<path fill="none" stroke="midnightblue" d="M116.66,-79.53C132.6,-83.61 150.4,-87.47 167,-89.5 227.44,-96.9 243.55,-96.8 304,-89.5 317.41,-87.88 331.61,-85.1 345.01,-81.97"/>
<polygon fill="midnightblue" stroke="midnightblue" points="346.19,-85.29 355.08,-79.53 344.53,-78.49 346.19,-85.29"/>
</g>
<!-- Node4 -->
<g id="node4" class="node">
<title>Node4</title>
<g id="a_node4"><a xlink:href="a00431.xhtml#a26cabec2623a393091df9550886e398c" target="_top" xlink:title=" ">
<polygon fill="white" stroke="black" points="167,-49.5 167,-79.5 304,-79.5 304,-49.5 167,-49.5"/>
<text text-anchor="start" x="175" y="-67.5" font-family="Helvetica,sans-Serif" font-size="10.00">CAudioFileRaw::getPosition</text>
<text text-anchor="middle" x="235.5" y="-56.5" font-family="Helvetica,sans-Serif" font-size="10.00">Intern_</text>
</a>
</g>
</g>
<!-- Node1&#45;&gt;Node4 -->
<g id="edge3" class="edge">
<title>Node1&#45;&gt;Node4</title>
<path fill="none" stroke="midnightblue" d="M131.45,-64.5C139.72,-64.5 148.26,-64.5 156.7,-64.5"/>
<polygon fill="midnightblue" stroke="midnightblue" points="156.94,-68 166.94,-64.5 156.94,-61 156.94,-68"/>
</g>
<!-- Node5 -->
<g id="node5" class="node">
<title>Node5</title>
<g id="a_node5"><a xlink:href="a00431.xhtml#a9597fb10fa453bb1441245c01f37178d" target="_top" xlink:title=" ">
<polygon fill="white" stroke="black" points="167,-0.5 167,-30.5 304,-30.5 304,-0.5 167,-0.5"/>
<text text-anchor="start" x="175" y="-18.5" font-family="Helvetica,sans-Serif" font-size="10.00">CAudioFileRaw::setPosition</text>
<text text-anchor="middle" x="235.5" y="-7.5" font-family="Helvetica,sans-Serif" font-size="10.00">Intern_</text>
</a>
</g>
</g>
<!-- Node1&#45;&gt;Node5 -->
<g id="edge5" class="edge">
<title>Node1&#45;&gt;Node5</title>
<path fill="none" stroke="midnightblue" d="M118.28,-49.4C135.6,-44.34 155.09,-38.66 173.08,-33.42"/>
<polygon fill="midnightblue" stroke="midnightblue" points="174.27,-36.71 182.89,-30.55 172.31,-29.99 174.27,-36.71"/>
</g>
<!-- Node3 -->
<g id="node3" class="node">
<title>Node3</title>
<g id="a_node3"><a xlink:href="a00439.xhtml#a8f40ad8df042735092624da261d5de85" target="_top" xlink:title=" ">
<polygon fill="white" stroke="black" points="510,-30 510,-49 665,-49 665,-30 510,-30"/>
<text text-anchor="middle" x="587.5" y="-37" font-family="Helvetica,sans-Serif" font-size="10.00">CAudioFileIf::getNumChannels_</text>
</a>
</g>
</g>
<!-- Node2&#45;&gt;Node3 -->
<g id="edge2" class="edge">
<title>Node2&#45;&gt;Node3</title>
<path fill="none" stroke="midnightblue" d="M469.68,-55.86C482.08,-54.12 495.28,-52.28 508.16,-50.47"/>
<polygon fill="midnightblue" stroke="midnightblue" points="508.99,-53.89 518.41,-49.04 508.02,-46.96 508.99,-53.89"/>
</g>
<!-- Node4&#45;&gt;Node2 -->
<g id="edge4" class="edge">
<title>Node4&#45;&gt;Node2</title>
<path fill="none" stroke="midnightblue" d="M304.47,-64.5C314.24,-64.5 324.33,-64.5 334.17,-64.5"/>
<polygon fill="midnightblue" stroke="midnightblue" points="334.33,-68 344.33,-64.5 334.33,-61 334.33,-68"/>
</g>
<!-- Node6 -->
<g id="node6" class="node">
<title>Node6</title>
<g id="a_node6"><a xlink:href="a00439.xhtml#a0bd2f97afe63b5e50c3b2ce4011607a9" target="_top" xlink:title=" ">
<polygon fill="white" stroke="black" points="340,-0.5 340,-30.5 474,-30.5 474,-0.5 340,-0.5"/>
<text text-anchor="start" x="348" y="-18.5" font-family="Helvetica,sans-Serif" font-size="10.00">CAudioFileIf::convFrames2</text>
<text text-anchor="middle" x="407" y="-7.5" font-family="Helvetica,sans-Serif" font-size="10.00">Bytes_</text>
</a>
</g>
</g>
<!-- Node5&#45;&gt;Node6 -->
<g id="edge6" class="edge">
<title>Node5&#45;&gt;Node6</title>
<path fill="none" stroke="midnightblue" d="M304.47,-15.5C312.78,-15.5 321.32,-15.5 329.75,-15.5"/>
<polygon fill="midnightblue" stroke="midnightblue" points="329.95,-19 339.95,-15.5 329.95,-12 329.95,-19"/>
</g>
<!-- Node6&#45;&gt;Node3 -->
<g id="edge7" class="edge">
<title>Node6&#45;&gt;Node3</title>
<path fill="none" stroke="midnightblue" d="M474.21,-24.4C484.44,-25.78 495.1,-27.21 505.6,-28.62"/>
<polygon fill="midnightblue" stroke="midnightblue" points="505.23,-32.1 515.6,-29.97 506.16,-25.17 505.23,-32.1"/>
</g>
</g>
</svg>
