<?xml version="1.0" encoding="UTF-8" standalone="no"?>
<!DOCTYPE svg PUBLIC "-//W3C//DTD SVG 1.1//EN"
 "http://www.w3.org/Graphics/SVG/1.1/DTD/svg11.dtd">
<!-- Generated by graphviz version 4.0.0 (20220602.1335)
 -->
<!-- Title: CMatrix::mulC_I Pages: 1 -->
<svg width="566pt" height="182pt"
 viewBox="0.00 0.00 566.00 181.50" xmlns="http://www.w3.org/2000/svg" xmlns:xlink="http://www.w3.org/1999/xlink">
<g id="graph0" class="graph" transform="scale(1 1) rotate(0) translate(4 177.5)">
<title>CMatrix::mulC_I</title>
<polygon fill="white" stroke="transparent" points="-4,4 -4,-177.5 562,-177.5 562,4 -4,4"/>
<!-- Node1 -->
<g id="node1" class="node">
<title>Node1</title>
<g id="a_node1"><a xlink:title=" ">
<polygon fill="#bfbfbf" stroke="black" points="473,-78 473,-97 558,-97 558,-78 473,-78"/>
<text text-anchor="middle" x="515.5" y="-85" font-family="Helvetica,sans-Serif" font-size="10.00">CMatrix::mulC_I</text>
</a>
</g>
</g>
<!-- Node2 -->
<g id="node2" class="node">
<title>Node2</title>
<g id="a_node2"><a xlink:href="a00583.xhtml#a6fb2c806d453b0c946cffbdcd46b027f" target="_top" xlink:title=" ">
<polygon fill="white" stroke="black" points="339,-116 339,-135 425,-135 425,-116 339,-116"/>
<text text-anchor="middle" x="382" y="-123" font-family="Helvetica,sans-Serif" font-size="10.00">CPca::compCov</text>
</a>
</g>
</g>
<!-- Node1&#45;&gt;Node2 -->
<g id="edge1" class="edge">
<title>Node1&#45;&gt;Node2</title>
<path fill="none" stroke="midnightblue" d="M471.62,-99.89C453.61,-105.09 432.99,-111.05 416.17,-115.91"/>
<polygon fill="midnightblue" stroke="midnightblue" points="472.68,-103.23 481.32,-97.09 470.74,-96.5 472.68,-103.23"/>
</g>
<!-- Node6 -->
<g id="node6" class="node">
<title>Node6</title>
<g id="a_node6"><a xlink:href="a00451.xhtml#a2dc9b2b2e4912e45835c5727d550aee7" target="_top" xlink:title=" ">
<polygon fill="white" stroke="black" points="329.5,-40 329.5,-59 434.5,-59 434.5,-40 329.5,-40"/>
<text text-anchor="middle" x="382" y="-47" font-family="Helvetica,sans-Serif" font-size="10.00">CChordIf::initViterbi_</text>
</a>
</g>
</g>
<!-- Node1&#45;&gt;Node6 -->
<g id="edge5" class="edge">
<title>Node1&#45;&gt;Node6</title>
<path fill="none" stroke="midnightblue" d="M471.62,-75.11C453.61,-69.91 432.99,-63.95 416.17,-59.09"/>
<polygon fill="midnightblue" stroke="midnightblue" points="470.74,-78.5 481.32,-77.91 472.68,-71.77 470.74,-78.5"/>
</g>
<!-- Node10 -->
<g id="node10" class="node">
<title>Node10</title>
<g id="a_node10"><a xlink:href="a00559.xhtml#a0d3f000bb918b7d01ab12d5712d230cb" target="_top" xlink:title=" ">
<polygon fill="white" stroke="black" points="327,-78 327,-97 437,-97 437,-78 327,-78"/>
<text text-anchor="middle" x="382" y="-85" font-family="Helvetica,sans-Serif" font-size="10.00">CGmm::updateState_</text>
</a>
</g>
</g>
<!-- Node1&#45;&gt;Node10 -->
<g id="edge9" class="edge">
<title>Node1&#45;&gt;Node10</title>
<path fill="none" stroke="midnightblue" d="M462.87,-87.5C454.49,-87.5 445.78,-87.5 437.34,-87.5"/>
<polygon fill="midnightblue" stroke="midnightblue" points="462.89,-91 472.89,-87.5 462.89,-84 462.89,-91"/>
</g>
<!-- Node3 -->
<g id="node3" class="node">
<title>Node3</title>
<g id="a_node3"><a xlink:href="a00583.xhtml#a9e44c134c68146bdc539135f3225a2d4" target="_top" xlink:title=" ">
<polygon fill="white" stroke="black" points="201.5,-154 201.5,-173 287.5,-173 287.5,-154 201.5,-154"/>
<text text-anchor="middle" x="244.5" y="-161" font-family="Helvetica,sans-Serif" font-size="10.00">CPca::compPca</text>
</a>
</g>
</g>
<!-- Node2&#45;&gt;Node3 -->
<g id="edge2" class="edge">
<title>Node2&#45;&gt;Node3</title>
<path fill="none" stroke="midnightblue" d="M337.08,-137.82C318.46,-143.04 297.09,-149.03 279.68,-153.91"/>
<polygon fill="midnightblue" stroke="midnightblue" points="338.12,-141.16 346.81,-135.09 336.23,-134.42 338.12,-141.16"/>
</g>
<!-- Node4 -->
<g id="node4" class="node">
<title>Node4</title>
<g id="a_node4"><a xlink:href="a00559.xhtml#a7c640b683a4d6999fa09157d60676a52" target="_top" xlink:title=" ">
<polygon fill="white" stroke="black" points="198,-116 198,-135 291,-135 291,-116 198,-116"/>
<text text-anchor="middle" x="244.5" y="-123" font-family="Helvetica,sans-Serif" font-size="10.00">CGmm::initState_</text>
</a>
</g>
</g>
<!-- Node2&#45;&gt;Node4 -->
<g id="edge3" class="edge">
<title>Node2&#45;&gt;Node4</title>
<path fill="none" stroke="midnightblue" d="M328.73,-125.5C316.42,-125.5 303.38,-125.5 291.37,-125.5"/>
<polygon fill="midnightblue" stroke="midnightblue" points="328.87,-129 338.87,-125.5 328.87,-122 328.87,-129"/>
</g>
<!-- Node5 -->
<g id="node5" class="node">
<title>Node5</title>
<g id="a_node5"><a xlink:href="a00559.xhtml#a4089671259acdd3b3faf6fc8010e206f" target="_top" xlink:title=" ">
<polygon fill="white" stroke="black" points="31,-107 31,-126 131,-126 131,-107 31,-107"/>
<text text-anchor="middle" x="81" y="-114" font-family="Helvetica,sans-Serif" font-size="10.00">CGmm::compGmm</text>
</a>
</g>
</g>
<!-- Node4&#45;&gt;Node5 -->
<g id="edge4" class="edge">
<title>Node4&#45;&gt;Node5</title>
<path fill="none" stroke="midnightblue" d="M187.65,-122.39C169.25,-121.36 148.93,-120.23 131.07,-119.23"/>
<polygon fill="midnightblue" stroke="midnightblue" points="187.47,-125.88 197.65,-122.95 187.86,-118.89 187.47,-125.88"/>
</g>
<!-- Node7 -->
<g id="node7" class="node">
<title>Node7</title>
<g id="a_node7"><a xlink:href="a00451.xhtml#ad48a5bd574f16b7491b70efb9998935f" target="_top" xlink:title="init configuration">
<polygon fill="white" stroke="black" points="206,-40 206,-59 283,-59 283,-40 206,-40"/>
<text text-anchor="middle" x="244.5" y="-47" font-family="Helvetica,sans-Serif" font-size="10.00">CChordIf::init_</text>
</a>
</g>
</g>
<!-- Node6&#45;&gt;Node7 -->
<g id="edge6" class="edge">
<title>Node6&#45;&gt;Node7</title>
<path fill="none" stroke="midnightblue" d="M319.14,-49.5C306.83,-49.5 294.26,-49.5 283.07,-49.5"/>
<polygon fill="midnightblue" stroke="midnightblue" points="319.39,-53 329.39,-49.5 319.39,-46 319.39,-53"/>
</g>
<!-- Node8 -->
<g id="node8" class="node">
<title>Node8</title>
<g id="a_node8"><a xlink:href="a00307.xhtml#a6df404d2eb3d4c8f9dc2071930fc9e7e" target="_top" xlink:title=" ">
<polygon fill="white" stroke="black" points="0,-50 0,-69 162,-69 162,-50 0,-50"/>
<text text-anchor="middle" x="81" y="-57" font-family="Helvetica,sans-Serif" font-size="10.00">CChordFromFile::CChordFromFile</text>
</a>
</g>
</g>
<!-- Node7&#45;&gt;Node8 -->
<g id="edge7" class="edge">
<title>Node7&#45;&gt;Node8</title>
<path fill="none" stroke="midnightblue" d="M195.48,-52.47C185.01,-53.12 173.64,-53.83 162.29,-54.53"/>
<polygon fill="midnightblue" stroke="midnightblue" points="195.87,-55.96 205.64,-51.84 195.44,-48.97 195.87,-55.96"/>
</g>
<!-- Node9 -->
<g id="node9" class="node">
<title>Node9</title>
<g id="a_node9"><a xlink:href="a00311.xhtml#ac9c41c2ddc441df7e0ae80c25971c260" target="_top" xlink:title=" ">
<polygon fill="white" stroke="black" points="12.5,-0.5 12.5,-30.5 149.5,-30.5 149.5,-0.5 12.5,-0.5"/>
<text text-anchor="start" x="20.5" y="-18.5" font-family="Helvetica,sans-Serif" font-size="10.00">CChordFromVector::CChord</text>
<text text-anchor="middle" x="81" y="-7.5" font-family="Helvetica,sans-Serif" font-size="10.00">FromVector</text>
</a>
</g>
</g>
<!-- Node7&#45;&gt;Node9 -->
<g id="edge8" class="edge">
<title>Node7&#45;&gt;Node9</title>
<path fill="none" stroke="midnightblue" d="M195.5,-39.39C181.12,-36.37 165.08,-32.99 149.69,-29.75"/>
<polygon fill="midnightblue" stroke="midnightblue" points="195.13,-42.89 205.64,-41.53 196.57,-36.04 195.13,-42.89"/>
</g>
<!-- Node10&#45;&gt;Node5 -->
<g id="edge10" class="edge">
<title>Node10&#45;&gt;Node5</title>
<path fill="none" stroke="midnightblue" d="M316.76,-93.73C261.18,-99.12 181.98,-106.8 131.28,-111.72"/>
<polygon fill="midnightblue" stroke="midnightblue" points="317.24,-97.2 326.85,-92.75 316.56,-90.23 317.24,-97.2"/>
</g>
</g>
</svg>
