<?xml version="1.0" encoding="UTF-8" standalone="no"?>
<!DOCTYPE svg PUBLIC "-//W3C//DTD SVG 1.1//EN"
 "http://www.w3.org/Graphics/SVG/1.1/DTD/svg11.dtd">
<!-- Generated by graphviz version 12.2.1 (20241206.2353)
 -->
<!-- Title: CButterLp::calcCoeffs Pages: 1 -->
<svg width="526pt" height="199pt"
 viewBox="0.00 0.00 525.75 198.82" xmlns="http://www.w3.org/2000/svg" xmlns:xlink="http://www.w3.org/1999/xlink">
<g id="graph0" class="graph" transform="scale(1 1) rotate(0) translate(4 194.82)">
<title>CButterLp::calcCoeffs</title>
<!-- Node1 -->
<g id="Node000001" class="node">
<title>Node1</title>
<g id="a_Node000001"><a xlink:title=" ">
<polygon fill="#999999" stroke="#666666" points="110.5,-113.25 0,-113.25 0,-94 110.5,-94 110.5,-113.25"/>
<text text-anchor="middle" x="55.25" y="-99.75" font-family="Helvetica,sans-Serif" font-size="10.00">CButterLp::calcCoeffs</text>
</a>
</g>
</g>
<!-- Node2 -->
<g id="Node000002" class="node">
<title>Node2</title>
<g id="a_Node000002"><a xlink:href="a00505.xhtml#abaadac98b1cad18b7b568852bc951696" target="_top" xlink:title=" ">
<polygon fill="white" stroke="#666666" points="370.5,-170.25 294.5,-170.25 294.5,-151 370.5,-151 370.5,-170.25"/>
<text text-anchor="middle" x="332.5" y="-156.75" font-family="Helvetica,sans-Serif" font-size="10.00">CVector::alloc</text>
</a>
</g>
</g>
<!-- Node1&#45;&gt;Node2 -->
<g id="edge1_Node000001_Node000002" class="edge">
<title>Node1&#45;&gt;Node2</title>
<g id="a_edge1_Node000001_Node000002"><a xlink:title=" ">
<path fill="none" stroke="#63b8ff" d="M75.39,-113.65C93.27,-122.54 120.97,-135.09 146.5,-141.62 191.86,-153.23 245.18,-157.78 282.9,-159.55"/>
<polygon fill="#63b8ff" stroke="#63b8ff" points="282.43,-163.03 292.57,-159.95 282.72,-156.04 282.43,-163.03"/>
</a>
</g>
</g>
<!-- Node3 -->
<g id="Node000003" class="node">
<title>Node3</title>
<g id="a_Node000003"><a xlink:href="a00505.xhtml#a6dbb3f9f480568b60f7fe50090d20003" target="_top" xlink:title=" ">
<polygon fill="white" stroke="#666666" points="517.75,-189.25 429,-189.25 429,-170 517.75,-170 517.75,-189.25"/>
<text text-anchor="middle" x="473.38" y="-175.75" font-family="Helvetica,sans-Serif" font-size="10.00">CVector::setZero</text>
</a>
</g>
</g>
<!-- Node1&#45;&gt;Node3 -->
<g id="edge11_Node000001_Node000003" class="edge">
<title>Node1&#45;&gt;Node3</title>
<g id="a_edge11_Node000001_Node000003"><a xlink:title=" ">
<path fill="none" stroke="#63b8ff" d="M67.86,-113.71C84.2,-127.28 115.45,-151.05 146.5,-162.62 236.64,-196.23 350.57,-192.73 417.08,-186.57"/>
<polygon fill="#63b8ff" stroke="#63b8ff" points="417.42,-190.05 427.02,-185.59 416.73,-183.09 417.42,-190.05"/>
</a>
</g>
</g>
<!-- Node4 -->
<g id="Node000004" class="node">
<title>Node4</title>
<g id="a_Node000004"><a xlink:href="a00485.xhtml#a4a70bdde7f075d2591fd03c52c16145c" target="_top" xlink:title=" ">
<polygon fill="white" stroke="#666666" points="236,-132.25 146.5,-132.25 146.5,-113 236,-113 236,-132.25"/>
<text text-anchor="middle" x="191.25" y="-118.75" font-family="Helvetica,sans-Serif" font-size="10.00">CButterLp::calcA</text>
</a>
</g>
</g>
<!-- Node1&#45;&gt;Node4 -->
<g id="edge3_Node000001_Node000004" class="edge">
<title>Node1&#45;&gt;Node4</title>
<g id="a_edge3_Node000001_Node000004"><a xlink:title=" ">
<path fill="none" stroke="#63b8ff" d="M110.75,-111.35C118.64,-112.47 126.77,-113.62 134.67,-114.74"/>
<polygon fill="#63b8ff" stroke="#63b8ff" points="134.16,-118.21 144.55,-116.15 135.14,-111.28 134.16,-118.21"/>
</a>
</g>
</g>
<!-- Node5 -->
<g id="Node000005" class="node">
<title>Node5</title>
<g id="a_Node000005"><a xlink:href="a00505.xhtml#aa86bdb0c663d4d52f2765793756f8737" target="_top" xlink:title=" ">
<polygon fill="white" stroke="#666666" points="368.62,-94.25 296.38,-94.25 296.38,-75 368.62,-75 368.62,-94.25"/>
<text text-anchor="middle" x="332.5" y="-80.75" font-family="Helvetica,sans-Serif" font-size="10.00">CVector::free</text>
</a>
</g>
</g>
<!-- Node1&#45;&gt;Node5 -->
<g id="edge10_Node000001_Node000005" class="edge">
<title>Node1&#45;&gt;Node5</title>
<g id="a_edge10_Node000001_Node000005"><a xlink:title=" ">
<path fill="none" stroke="#63b8ff" d="M110.96,-99.85C161.8,-96.34 236.7,-91.17 284.8,-87.85"/>
<polygon fill="#63b8ff" stroke="#63b8ff" points="284.87,-91.35 294.61,-87.17 284.39,-84.37 284.87,-91.35"/>
</a>
</g>
</g>
<!-- Node7 -->
<g id="Node000007" class="node">
<title>Node7</title>
<g id="a_Node000007"><a xlink:href="a00485.xhtml#a9c08c0b6f891bb37fb4230088f94b0a0" target="_top" xlink:title=" ">
<polygon fill="white" stroke="#666666" points="236,-56.25 146.5,-56.25 146.5,-37 236,-37 236,-56.25"/>
<text text-anchor="middle" x="191.25" y="-42.75" font-family="Helvetica,sans-Serif" font-size="10.00">CButterLp::calcB</text>
</a>
</g>
</g>
<!-- Node1&#45;&gt;Node7 -->
<g id="edge7_Node000001_Node000007" class="edge">
<title>Node1&#45;&gt;Node7</title>
<g id="a_edge7_Node000001_Node000007"><a xlink:title=" ">
<path fill="none" stroke="#63b8ff" d="M79.9,-93.57C101.14,-84.53 132.57,-71.16 156.46,-61"/>
<polygon fill="#63b8ff" stroke="#63b8ff" points="157.61,-64.31 165.45,-57.18 154.87,-57.87 157.61,-64.31"/>
</a>
</g>
</g>
<!-- Node9 -->
<g id="Node000009" class="node">
<title>Node9</title>
<g id="a_Node000009"><a xlink:href="a00505.xhtml#ad7c5cba73e439adac77778f61c9418f0" target="_top" xlink:title=" ">
<polygon fill="white" stroke="#666666" points="229.25,-19.25 153.25,-19.25 153.25,0 229.25,0 229.25,-19.25"/>
<text text-anchor="middle" x="191.25" y="-5.75" font-family="Helvetica,sans-Serif" font-size="10.00">CVector::copy</text>
</a>
</g>
</g>
<!-- Node1&#45;&gt;Node9 -->
<g id="edge9_Node000001_Node000009" class="edge">
<title>Node1&#45;&gt;Node9</title>
<g id="a_edge9_Node000001_Node000009"><a xlink:title=" ">
<path fill="none" stroke="#63b8ff" d="M66,-93.61C81.75,-77.88 114.27,-47.17 146.5,-27.62 148.34,-26.51 150.27,-25.43 152.24,-24.39"/>
<polygon fill="#63b8ff" stroke="#63b8ff" points="153.42,-27.71 160.94,-20.25 150.41,-21.39 153.42,-27.71"/>
</a>
</g>
</g>
<!-- Node2&#45;&gt;Node3 -->
<g id="edge2_Node000002_Node000003" class="edge">
<title>Node2&#45;&gt;Node3</title>
<g id="a_edge2_Node000002_Node000003"><a xlink:title=" ">
<path fill="none" stroke="#63b8ff" d="M370.72,-165.72C385.07,-167.68 401.78,-169.97 417.46,-172.11"/>
<polygon fill="#63b8ff" stroke="#63b8ff" points="416.76,-175.55 427.15,-173.44 417.71,-168.61 416.76,-175.55"/>
</a>
</g>
</g>
<!-- Node4&#45;&gt;Node2 -->
<g id="edge4_Node000004_Node000002" class="edge">
<title>Node4&#45;&gt;Node2</title>
<g id="a_edge4_Node000004_Node000002"><a xlink:title=" ">
<path fill="none" stroke="#63b8ff" d="M229.2,-132.71C245.94,-137.28 265.93,-142.73 283.78,-147.6"/>
<polygon fill="#63b8ff" stroke="#63b8ff" points="282.83,-150.97 293.4,-150.23 284.67,-144.22 282.83,-150.97"/>
</a>
</g>
</g>
<!-- Node4&#45;&gt;Node5 -->
<g id="edge5_Node000004_Node000005" class="edge">
<title>Node4&#45;&gt;Node5</title>
<g id="a_edge5_Node000004_Node000005"><a xlink:title=" ">
<path fill="none" stroke="#63b8ff" d="M229.2,-112.54C246.42,-107.84 267.08,-102.21 285.31,-97.23"/>
<polygon fill="#63b8ff" stroke="#63b8ff" points="286.11,-100.64 294.84,-94.63 284.27,-93.89 286.11,-100.64"/>
</a>
</g>
</g>
<!-- Node6 -->
<g id="Node000006" class="node">
<title>Node6</title>
<g id="a_Node000006"><a xlink:href="a00485.xhtml#ab4432f6b6d2f1bad850a13a0573615c4" target="_top" xlink:title=" ">
<polygon fill="white" stroke="#666666" points="393,-132.25 272,-132.25 272,-113 393,-113 393,-132.25"/>
<text text-anchor="middle" x="332.5" y="-118.75" font-family="Helvetica,sans-Serif" font-size="10.00">CButterLp::multBinomial</text>
</a>
</g>
</g>
<!-- Node4&#45;&gt;Node6 -->
<g id="edge6_Node000004_Node000006" class="edge">
<title>Node4&#45;&gt;Node6</title>
<g id="a_edge6_Node000004_Node000006"><a xlink:title=" ">
<path fill="none" stroke="#63b8ff" d="M236.31,-122.62C243.95,-122.62 252.06,-122.62 260.2,-122.62"/>
<polygon fill="#63b8ff" stroke="#63b8ff" points="260.17,-126.13 270.17,-122.63 260.17,-119.13 260.17,-126.13"/>
</a>
</g>
</g>
<!-- Node8 -->
<g id="Node000008" class="node">
<title>Node8</title>
<g id="a_Node000008"><a xlink:href="a00485.xhtml#a93b25bb8ef71fc7221ae53efe9212d67" target="_top" xlink:title=" ">
<polygon fill="white" stroke="#666666" points="386.25,-56.25 278.75,-56.25 278.75,-37 386.25,-37 386.25,-56.25"/>
<text text-anchor="middle" x="332.5" y="-42.75" font-family="Helvetica,sans-Serif" font-size="10.00">CButterLp::calcScale</text>
</a>
</g>
</g>
<!-- Node7&#45;&gt;Node8 -->
<g id="edge8_Node000007_Node000008" class="edge">
<title>Node7&#45;&gt;Node8</title>
<g id="a_edge8_Node000007_Node000008"><a xlink:title=" ">
<path fill="none" stroke="#63b8ff" d="M236.31,-46.62C246.14,-46.62 256.76,-46.62 267.22,-46.62"/>
<polygon fill="#63b8ff" stroke="#63b8ff" points="266.94,-50.13 276.94,-46.63 266.94,-43.13 266.94,-50.13"/>
</a>
</g>
</g>
</g>
</svg>
