<?xml version="1.0" encoding="UTF-8" standalone="no"?>
<!DOCTYPE svg PUBLIC "-//W3C//DTD SVG 1.1//EN"
 "http://www.w3.org/Graphics/SVG/1.1/DTD/svg11.dtd">
<!-- Generated by graphviz version 4.0.0 (20220602.1335)
 -->
<!-- Title: CKey::init Pages: 1 -->
<svg width="329pt" height="66pt"
 viewBox="0.00 0.00 329.00 66.00" xmlns="http://www.w3.org/2000/svg" xmlns:xlink="http://www.w3.org/1999/xlink">
<g id="graph0" class="graph" transform="scale(1 1) rotate(0) translate(4 62)">
<title>CKey::init</title>
<polygon fill="white" stroke="transparent" points="-4,4 -4,-62 325,-62 325,4 -4,4"/>
<!-- Node1 -->
<g id="node1" class="node">
<title>Node1</title>
<g id="a_node1"><a xlink:title=" ">
<polygon fill="#bfbfbf" stroke="black" points="0,-19.5 0,-38.5 57,-38.5 57,-19.5 0,-19.5"/>
<text text-anchor="middle" x="28.5" y="-26.5" font-family="Helvetica,sans-Serif" font-size="10.00">CKey::init</text>
</a>
</g>
</g>
<!-- Node2 -->
<g id="node2" class="node">
<title>Node2</title>
<g id="a_node2"><a xlink:href="a00441.xhtml#af448569c0950f36034d84326d564cce9" target="_top" xlink:title=" ">
<polygon fill="white" stroke="black" points="93,-38.5 93,-57.5 187,-57.5 187,-38.5 93,-38.5"/>
<text text-anchor="middle" x="140" y="-45.5" font-family="Helvetica,sans-Serif" font-size="10.00">CFeatureIf::create</text>
</a>
</g>
</g>
<!-- Node1&#45;&gt;Node2 -->
<g id="edge1" class="edge">
<title>Node1&#45;&gt;Node2</title>
<path fill="none" stroke="midnightblue" d="M57.13,-33.79C64.96,-35.15 73.77,-36.68 82.64,-38.22"/>
<polygon fill="midnightblue" stroke="midnightblue" points="82.18,-41.69 92.63,-39.95 83.38,-34.8 82.18,-41.69"/>
</g>
<!-- Node4 -->
<g id="node4" class="node">
<title>Node4</title>
<g id="a_node4"><a xlink:href="a00481.xhtml#a11c42c6cb6e8cca8be972e8c7c63c6bc" target="_top" xlink:title=" ">
<polygon fill="white" stroke="black" points="107,-0.5 107,-19.5 173,-19.5 173,-0.5 107,-0.5"/>
<text text-anchor="middle" x="140" y="-7.5" font-family="Helvetica,sans-Serif" font-size="10.00">CKey::reset</text>
</a>
</g>
</g>
<!-- Node1&#45;&gt;Node4 -->
<g id="edge3" class="edge">
<title>Node1&#45;&gt;Node4</title>
<path fill="none" stroke="midnightblue" d="M57.13,-24.21C69.15,-22.12 83.49,-19.63 96.8,-17.32"/>
<polygon fill="midnightblue" stroke="midnightblue" points="97.46,-20.76 106.71,-15.6 96.26,-13.86 97.46,-20.76"/>
</g>
<!-- Node3 -->
<g id="node3" class="node">
<title>Node3</title>
<g id="a_node3"><a xlink:href="a00473.xhtml#a6d0e75b0bcbbb243b7141cfc0126e443" target="_top" xlink:title=" ">
<polygon fill="white" stroke="black" points="229,-38.5 229,-57.5 315,-57.5 315,-38.5 229,-38.5"/>
<text text-anchor="middle" x="272" y="-45.5" font-family="Helvetica,sans-Serif" font-size="10.00">CUtil::isPowOf2</text>
</a>
</g>
</g>
<!-- Node2&#45;&gt;Node3 -->
<g id="edge2" class="edge">
<title>Node2&#45;&gt;Node3</title>
<path fill="none" stroke="midnightblue" d="M187.2,-48C197.38,-48 208.23,-48 218.64,-48"/>
<polygon fill="midnightblue" stroke="midnightblue" points="218.85,-51.5 228.85,-48 218.85,-44.5 218.85,-51.5"/>
</g>
<!-- Node5 -->
<g id="node5" class="node">
<title>Node5</title>
<g id="a_node5"><a xlink:href="a00441.xhtml#ab0b833a2f828e941e08f84a47dcfcda8" target="_top" xlink:title=" ">
<polygon fill="white" stroke="black" points="223,-0.5 223,-19.5 321,-19.5 321,-0.5 223,-0.5"/>
<text text-anchor="middle" x="272" y="-7.5" font-family="Helvetica,sans-Serif" font-size="10.00">CFeatureIf::destroy</text>
</a>
</g>
</g>
<!-- Node4&#45;&gt;Node5 -->
<g id="edge4" class="edge">
<title>Node4&#45;&gt;Node5</title>
<path fill="none" stroke="midnightblue" d="M173.13,-10C185.06,-10 198.98,-10 212.53,-10"/>
<polygon fill="midnightblue" stroke="midnightblue" points="212.77,-13.5 222.77,-10 212.77,-6.5 212.77,-13.5"/>
</g>
</g>
</svg>
