<?xml version="1.0" encoding="UTF-8" standalone="no"?>
<!DOCTYPE svg PUBLIC "-//W3C//DTD SVG 1.1//EN"
 "http://www.w3.org/Graphics/SVG/1.1/DTD/svg11.dtd">
<!-- Generated by graphviz version 4.0.0 (20220602.1335)
 -->
<!-- Title: CVector::setValue Pages: 1 -->
<svg width="749pt" height="306pt"
 viewBox="0.00 0.00 749.00 306.00" xmlns="http://www.w3.org/2000/svg" xmlns:xlink="http://www.w3.org/1999/xlink">
<g id="graph0" class="graph" transform="scale(1 1) rotate(0) translate(4 302)">
<title>CVector::setValue</title>
<polygon fill="white" stroke="transparent" points="-4,4 -4,-302 745,-302 745,4 -4,4"/>
<!-- Node1 -->
<g id="node1" class="node">
<title>Node1</title>
<g id="a_node1"><a xlink:title=" ">
<polygon fill="#bfbfbf" stroke="black" points="646,-142.5 646,-161.5 741,-161.5 741,-142.5 646,-142.5"/>
<text text-anchor="middle" x="693.5" y="-149.5" font-family="Helvetica,sans-Serif" font-size="10.00">CVector::setValue</text>
</a>
</g>
</g>
<!-- Node2 -->
<g id="node2" class="node">
<title>Node2</title>
<g id="a_node2"><a xlink:href="a00577.xhtml#a875c603ba28294ac2575eb6e06407018" target="_top" xlink:title=" ">
<polygon fill="white" stroke="black" points="477.5,-278.5 477.5,-297.5 593.5,-297.5 593.5,-278.5 477.5,-278.5"/>
<text text-anchor="middle" x="535.5" y="-285.5" font-family="Helvetica,sans-Serif" font-size="10.00">CKnn::buildHistogram_</text>
</a>
</g>
</g>
<!-- Node1&#45;&gt;Node2 -->
<g id="edge1" class="edge">
<title>Node1&#45;&gt;Node2</title>
<path fill="none" stroke="midnightblue" d="M683.41,-170.78C670.46,-195.61 644.41,-239.14 610,-264 601.3,-270.29 590.85,-274.99 580.61,-278.49"/>
<polygon fill="midnightblue" stroke="midnightblue" points="686.62,-172.18 688,-161.67 680.37,-169.02 686.62,-172.18"/>
</g>
<!-- Node4 -->
<g id="node4" class="node">
<title>Node4</title>
<g id="a_node4"><a xlink:href="a00489.xhtml#a9f110985f86064fa24aa3157bfd5cab0" target="_top" xlink:title=" ">
<polygon fill="white" stroke="black" points="286.5,-227.5 286.5,-246.5 410.5,-246.5 410.5,-227.5 286.5,-227.5"/>
<text text-anchor="middle" x="348.5" y="-234.5" font-family="Helvetica,sans-Serif" font-size="10.00">CNoveltyIf::compNovelty</text>
</a>
</g>
</g>
<!-- Node1&#45;&gt;Node4 -->
<g id="edge3" class="edge">
<title>Node1&#45;&gt;Node4</title>
<path fill="none" stroke="midnightblue" d="M680.29,-169.83C665.99,-189 640.36,-218.4 610,-231 542.31,-259.09 455.97,-254.03 401.7,-246.53"/>
<polygon fill="midnightblue" stroke="midnightblue" points="683.21,-171.77 686.2,-161.61 677.52,-167.68 683.21,-171.77"/>
</g>
<!-- Node8 -->
<g id="node8" class="node">
<title>Node8</title>
<g id="a_node8"><a xlink:href="a00581.xhtml#ae18a51101c1d13bf871a46b48aed8418" target="_top" xlink:title=" ">
<polygon fill="white" stroke="black" points="470.5,-164.5 470.5,-183.5 600.5,-183.5 600.5,-164.5 470.5,-164.5"/>
<text text-anchor="middle" x="535.5" y="-171.5" font-family="Helvetica,sans-Serif" font-size="10.00">CViterbi::compProbability_</text>
</a>
</g>
</g>
<!-- Node1&#45;&gt;Node8 -->
<g id="edge7" class="edge">
<title>Node1&#45;&gt;Node8</title>
<path fill="none" stroke="midnightblue" d="M635.48,-160.04C624.14,-161.64 612.15,-163.33 600.58,-164.96"/>
<polygon fill="midnightblue" stroke="midnightblue" points="636.28,-163.46 645.69,-158.6 635.3,-156.53 636.28,-163.46"/>
</g>
<!-- Node12 -->
<g id="node12" class="node">
<title>Node12</title>
<g id="a_node12"><a xlink:href="a00477.xhtml#a64c5c5686629f104663dd3774e7a6e1b" target="_top" xlink:title=" ">
<polygon fill="white" stroke="black" points="486,-202.5 486,-221.5 585,-221.5 585,-202.5 486,-202.5"/>
<text text-anchor="middle" x="535.5" y="-209.5" font-family="Helvetica,sans-Serif" font-size="10.00">CVector::findPeaks</text>
</a>
</g>
</g>
<!-- Node1&#45;&gt;Node12 -->
<g id="edge11" class="edge">
<title>Node1&#45;&gt;Node12</title>
<path fill="none" stroke="midnightblue" d="M666.68,-166.57C650.72,-175.14 629.61,-185.68 610,-193 600.37,-196.59 589.78,-199.76 579.72,-202.43"/>
<polygon fill="midnightblue" stroke="midnightblue" points="668.8,-169.41 675.9,-161.54 665.44,-163.26 668.8,-169.41"/>
</g>
<!-- Node13 -->
<g id="node13" class="node">
<title>Node13</title>
<g id="a_node13"><a xlink:href="a00313.xhtml#a88b4352ab8251a177a5351c638ad5b3c" target="_top" xlink:title=" ">
<polygon fill="white" stroke="black" points="461,-115 461,-145 610,-145 610,-115 461,-115"/>
<text text-anchor="start" x="469" y="-133" font-family="Helvetica,sans-Serif" font-size="10.00">CFeatureSpectralPitchChroma</text>
<text text-anchor="middle" x="535.5" y="-122" font-family="Helvetica,sans-Serif" font-size="10.00">::genPcFilters_</text>
</a>
</g>
</g>
<!-- Node1&#45;&gt;Node13 -->
<g id="edge13" class="edge">
<title>Node1&#45;&gt;Node13</title>
<path fill="none" stroke="midnightblue" d="M635.74,-143.99C627.41,-142.82 618.73,-141.6 610.12,-140.38"/>
<polygon fill="midnightblue" stroke="midnightblue" points="635.3,-147.47 645.69,-145.4 636.28,-140.54 635.3,-147.47"/>
</g>
<!-- Node16 -->
<g id="node16" class="node">
<title>Node16</title>
<g id="a_node16"><a xlink:href="a00577.xhtml#a8fe90e9d8120bb265e6bc7d5f2766c30" target="_top" xlink:title=" ">
<polygon fill="white" stroke="black" points="506.5,-76.5 506.5,-95.5 564.5,-95.5 564.5,-76.5 506.5,-76.5"/>
<text text-anchor="middle" x="535.5" y="-83.5" font-family="Helvetica,sans-Serif" font-size="10.00">CKnn::init</text>
</a>
</g>
</g>
<!-- Node1&#45;&gt;Node16 -->
<g id="edge16" class="edge">
<title>Node1&#45;&gt;Node16</title>
<path fill="none" stroke="midnightblue" d="M669.11,-136.94C653,-127.08 630.82,-114.49 610,-106 595.43,-100.06 578.52,-95.32 564.6,-91.95"/>
<polygon fill="midnightblue" stroke="midnightblue" points="667.5,-140.06 677.84,-142.38 671.21,-134.12 667.5,-140.06"/>
</g>
<!-- Node17 -->
<g id="node17" class="node">
<title>Node17</title>
<g id="a_node17"><a xlink:href="a00433.xhtml#a2dc9b2b2e4912e45835c5727d550aee7" target="_top" xlink:title=" ">
<polygon fill="white" stroke="black" points="483,-38.5 483,-57.5 588,-57.5 588,-38.5 483,-38.5"/>
<text text-anchor="middle" x="535.5" y="-45.5" font-family="Helvetica,sans-Serif" font-size="10.00">CChordIf::initViterbi_</text>
</a>
</g>
</g>
<!-- Node1&#45;&gt;Node17 -->
<g id="edge17" class="edge">
<title>Node1&#45;&gt;Node17</title>
<path fill="none" stroke="midnightblue" d="M679.96,-134.14C665.36,-114.71 639.47,-84.13 610,-67 603.28,-63.09 595.75,-59.98 588.14,-57.49"/>
<polygon fill="midnightblue" stroke="midnightblue" points="677.29,-136.42 686.01,-142.44 682.94,-132.3 677.29,-136.42"/>
</g>
<!-- Node21 -->
<g id="node21" class="node">
<title>Node21</title>
<g id="a_node21"><a xlink:href="a00461.xhtml#a1c25e33302ff6282ca58bc27875cc10a" target="_top" xlink:title=" ">
<polygon fill="white" stroke="black" points="489.5,-0.5 489.5,-19.5 581.5,-19.5 581.5,-0.5 489.5,-0.5"/>
<text text-anchor="middle" x="535.5" y="-7.5" font-family="Helvetica,sans-Serif" font-size="10.00">CMatrix::setValue</text>
</a>
</g>
</g>
<!-- Node1&#45;&gt;Node21 -->
<g id="edge21" class="edge">
<title>Node1&#45;&gt;Node21</title>
<path fill="none" stroke="midnightblue" d="M684.99,-132.99C673.21,-105.7 647.76,-55.76 610,-29 601.61,-23.06 591.51,-18.97 581.52,-16.16"/>
<polygon fill="midnightblue" stroke="midnightblue" points="681.77,-134.35 688.83,-142.25 688.23,-131.67 681.77,-134.35"/>
</g>
<!-- Node3 -->
<g id="node3" class="node">
<title>Node3</title>
<g id="a_node3"><a xlink:href="a00577.xhtml#a16bb56f19951aee5c4986a9dc7aeb853" target="_top" xlink:title=" ">
<polygon fill="white" stroke="black" points="309.5,-278.5 309.5,-297.5 387.5,-297.5 387.5,-278.5 309.5,-278.5"/>
<text text-anchor="middle" x="348.5" y="-285.5" font-family="Helvetica,sans-Serif" font-size="10.00">CKnn::classify</text>
</a>
</g>
</g>
<!-- Node2&#45;&gt;Node3 -->
<g id="edge2" class="edge">
<title>Node2&#45;&gt;Node3</title>
<path fill="none" stroke="midnightblue" d="M467.37,-288C440.53,-288 410.6,-288 387.61,-288"/>
<polygon fill="midnightblue" stroke="midnightblue" points="467.48,-291.5 477.48,-288 467.48,-284.5 467.48,-291.5"/>
</g>
<!-- Node5 -->
<g id="node5" class="node">
<title>Node5</title>
<g id="a_node5"><a xlink:href="a00429.xhtml#a58a9a3d685f448ced2e843a60028e472" target="_top" xlink:title=" ">
<polygon fill="white" stroke="black" points="82.5,-258.5 82.5,-277.5 227.5,-277.5 227.5,-258.5 82.5,-258.5"/>
<text text-anchor="middle" x="155" y="-265.5" font-family="Helvetica,sans-Serif" font-size="10.00">CBeatHistoIf::compBeatHisto</text>
</a>
</g>
</g>
<!-- Node4&#45;&gt;Node5 -->
<g id="edge4" class="edge">
<title>Node4&#45;&gt;Node5</title>
<path fill="none" stroke="midnightblue" d="M278.67,-248.14C257.82,-251.52 235.12,-255.19 214.98,-258.45"/>
<polygon fill="midnightblue" stroke="midnightblue" points="279.43,-251.56 288.74,-246.51 278.31,-244.65 279.43,-251.56"/>
</g>
<!-- Node7 -->
<g id="node7" class="node">
<title>Node7</title>
<g id="a_node7"><a xlink:href="a00029.xhtml#a0ddf1224851353fc92bfbff6f499fa97" target="_top" xlink:title=" ">
<polygon fill="white" stroke="black" points="136,-220.5 136,-239.5 174,-239.5 174,-220.5 136,-220.5"/>
<text text-anchor="middle" x="155" y="-227.5" font-family="Helvetica,sans-Serif" font-size="10.00">main</text>
</a>
</g>
</g>
<!-- Node4&#45;&gt;Node7 -->
<g id="edge6" class="edge">
<title>Node4&#45;&gt;Node7</title>
<path fill="none" stroke="midnightblue" d="M276.16,-234.39C239.36,-233.05 197.41,-231.51 174.08,-230.66"/>
<polygon fill="midnightblue" stroke="midnightblue" points="276.26,-237.9 286.38,-234.77 276.52,-230.9 276.26,-237.9"/>
</g>
<!-- Node6 -->
<g id="node6" class="node">
<title>Node6</title>
<g id="a_node6"><a xlink:href="a00017.xhtml#a0ddf1224851353fc92bfbff6f499fa97" target="_top" xlink:title=" ">
<polygon fill="white" stroke="black" points="0,-258.5 0,-277.5 38,-277.5 38,-258.5 0,-258.5"/>
<text text-anchor="middle" x="19" y="-265.5" font-family="Helvetica,sans-Serif" font-size="10.00">main</text>
</a>
</g>
</g>
<!-- Node5&#45;&gt;Node6 -->
<g id="edge5" class="edge">
<title>Node5&#45;&gt;Node6</title>
<path fill="none" stroke="midnightblue" d="M71.98,-268C59.29,-268 47.35,-268 38.12,-268"/>
<polygon fill="midnightblue" stroke="midnightblue" points="72.29,-271.5 82.29,-268 72.29,-264.5 72.29,-271.5"/>
</g>
<!-- Node9 -->
<g id="node9" class="node">
<title>Node9</title>
<g id="a_node9"><a xlink:href="a00581.xhtml#a01e3528ba8c1fffb4b239e9e54dcc2fb" target="_top" xlink:title=" ">
<polygon fill="white" stroke="black" points="295,-175.5 295,-194.5 402,-194.5 402,-175.5 295,-175.5"/>
<text text-anchor="middle" x="348.5" y="-182.5" font-family="Helvetica,sans-Serif" font-size="10.00">CViterbi::compViterbi</text>
</a>
</g>
</g>
<!-- Node8&#45;&gt;Node9 -->
<g id="edge8" class="edge">
<title>Node8&#45;&gt;Node9</title>
<path fill="none" stroke="midnightblue" d="M460.28,-178.41C440.85,-179.57 420.3,-180.79 402.24,-181.86"/>
<polygon fill="midnightblue" stroke="midnightblue" points="460.54,-181.9 470.32,-177.82 460.13,-174.92 460.54,-181.9"/>
</g>
<!-- Node10 -->
<g id="node10" class="node">
<title>Node10</title>
<g id="a_node10"><a xlink:href="a00433.xhtml#a463c7570302112f307363ec1c7260221" target="_top" xlink:title=" ">
<polygon fill="white" stroke="black" points="98,-175.5 98,-194.5 212,-194.5 212,-175.5 98,-175.5"/>
<text text-anchor="middle" x="155" y="-182.5" font-family="Helvetica,sans-Serif" font-size="10.00">CChordIf::compChords</text>
</a>
</g>
</g>
<!-- Node9&#45;&gt;Node10 -->
<g id="edge9" class="edge">
<title>Node9&#45;&gt;Node10</title>
<path fill="none" stroke="midnightblue" d="M284.74,-185C261.34,-185 234.93,-185 212.15,-185"/>
<polygon fill="midnightblue" stroke="midnightblue" points="284.92,-188.5 294.92,-185 284.92,-181.5 284.92,-188.5"/>
</g>
<!-- Node11 -->
<g id="node11" class="node">
<title>Node11</title>
<g id="a_node11"><a xlink:href="a00023.xhtml#a0ddf1224851353fc92bfbff6f499fa97" target="_top" xlink:title=" ">
<polygon fill="white" stroke="black" points="0,-175.5 0,-194.5 38,-194.5 38,-175.5 0,-175.5"/>
<text text-anchor="middle" x="19" y="-182.5" font-family="Helvetica,sans-Serif" font-size="10.00">main</text>
</a>
</g>
</g>
<!-- Node10&#45;&gt;Node11 -->
<g id="edge10" class="edge">
<title>Node10&#45;&gt;Node11</title>
<path fill="none" stroke="midnightblue" d="M87.85,-185C69.6,-185 51.27,-185 38.27,-185"/>
<polygon fill="midnightblue" stroke="midnightblue" points="87.95,-188.5 97.95,-185 87.95,-181.5 87.95,-188.5"/>
</g>
<!-- Node12&#45;&gt;Node4 -->
<g id="edge12" class="edge">
<title>Node12&#45;&gt;Node4</title>
<path fill="none" stroke="midnightblue" d="M475.93,-219.92C455.14,-222.72 431.7,-225.89 410.7,-228.73"/>
<polygon fill="midnightblue" stroke="midnightblue" points="476.45,-223.38 485.89,-218.57 475.51,-216.44 476.45,-223.38"/>
</g>
<!-- Node14 -->
<g id="node14" class="node">
<title>Node14</title>
<g id="a_node14"><a xlink:href="a00313.xhtml#a388f9c7dd2074706d723e31b421f16fa" target="_top" xlink:title=" ">
<polygon fill="white" stroke="black" points="272,-126 272,-156 425,-156 425,-126 272,-126"/>
<text text-anchor="start" x="280" y="-144" font-family="Helvetica,sans-Serif" font-size="10.00">CFeatureSpectralPitchChroma</text>
<text text-anchor="middle" x="348.5" y="-133" font-family="Helvetica,sans-Serif" font-size="10.00">::CFeatureSpectralPitchChroma</text>
</a>
</g>
</g>
<!-- Node13&#45;&gt;Node14 -->
<g id="edge14" class="edge">
<title>Node13&#45;&gt;Node14</title>
<path fill="none" stroke="midnightblue" d="M450.82,-134.98C442.22,-135.49 433.52,-136 425.01,-136.51"/>
<polygon fill="midnightblue" stroke="midnightblue" points="451.08,-138.47 460.85,-134.38 450.66,-131.48 451.08,-138.47"/>
</g>
<!-- Node15 -->
<g id="node15" class="node">
<title>Node15</title>
<g id="a_node15"><a xlink:href="a00313.xhtml#a6b4b3032eb9b09d9f64811613448c994" target="_top" xlink:title=" ">
<polygon fill="white" stroke="black" points="274,-77 274,-107 423,-107 423,-77 274,-77"/>
<text text-anchor="start" x="282" y="-95" font-family="Helvetica,sans-Serif" font-size="10.00">CFeatureSpectralPitchChroma</text>
<text text-anchor="middle" x="348.5" y="-84" font-family="Helvetica,sans-Serif" font-size="10.00">::setAdditionalParam</text>
</a>
</g>
</g>
<!-- Node13&#45;&gt;Node15 -->
<g id="edge15" class="edge">
<title>Node13&#45;&gt;Node15</title>
<path fill="none" stroke="midnightblue" d="M451.46,-112.94C441.87,-110.97 432.14,-108.97 422.69,-107.03"/>
<polygon fill="midnightblue" stroke="midnightblue" points="450.88,-116.4 461.38,-114.98 452.29,-109.54 450.88,-116.4"/>
</g>
<!-- Node18 -->
<g id="node18" class="node">
<title>Node18</title>
<g id="a_node18"><a xlink:href="a00433.xhtml#ad48a5bd574f16b7491b70efb9998935f" target="_top" xlink:title="init configuration">
<polygon fill="white" stroke="black" points="310,-38.5 310,-57.5 387,-57.5 387,-38.5 310,-38.5"/>
<text text-anchor="middle" x="348.5" y="-45.5" font-family="Helvetica,sans-Serif" font-size="10.00">CChordIf::init_</text>
</a>
</g>
</g>
<!-- Node17&#45;&gt;Node18 -->
<g id="edge18" class="edge">
<title>Node17&#45;&gt;Node18</title>
<path fill="none" stroke="midnightblue" d="M472.76,-48C444.47,-48 411.84,-48 387.27,-48"/>
<polygon fill="midnightblue" stroke="midnightblue" points="472.97,-51.5 482.97,-48 472.97,-44.5 472.97,-51.5"/>
</g>
<!-- Node19 -->
<g id="node19" class="node">
<title>Node19</title>
<g id="a_node19"><a xlink:href="a00289.xhtml#a6df404d2eb3d4c8f9dc2071930fc9e7e" target="_top" xlink:title=" ">
<polygon fill="white" stroke="black" points="74,-60.5 74,-79.5 236,-79.5 236,-60.5 74,-60.5"/>
<text text-anchor="middle" x="155" y="-67.5" font-family="Helvetica,sans-Serif" font-size="10.00">CChordFromFile::CChordFromFile</text>
</a>
</g>
</g>
<!-- Node18&#45;&gt;Node19 -->
<g id="edge19" class="edge">
<title>Node18&#45;&gt;Node19</title>
<path fill="none" stroke="midnightblue" d="M299.66,-53.5C280.43,-55.7 257.73,-58.31 236.12,-60.8"/>
<polygon fill="midnightblue" stroke="midnightblue" points="300.13,-56.97 309.67,-52.35 299.33,-50.01 300.13,-56.97"/>
</g>
<!-- Node20 -->
<g id="node20" class="node">
<title>Node20</title>
<g id="a_node20"><a xlink:href="a00293.xhtml#ac9c41c2ddc441df7e0ae80c25971c260" target="_top" xlink:title=" ">
<polygon fill="white" stroke="black" points="86.5,-11 86.5,-41 223.5,-41 223.5,-11 86.5,-11"/>
<text text-anchor="start" x="94.5" y="-29" font-family="Helvetica,sans-Serif" font-size="10.00">CChordFromVector::CChord</text>
<text text-anchor="middle" x="155" y="-18" font-family="Helvetica,sans-Serif" font-size="10.00">FromVector</text>
</a>
</g>
</g>
<!-- Node18&#45;&gt;Node20 -->
<g id="edge20" class="edge">
<title>Node18&#45;&gt;Node20</title>
<path fill="none" stroke="midnightblue" d="M299.49,-42.48C276.54,-39.85 248.66,-36.64 223.6,-33.77"/>
<polygon fill="midnightblue" stroke="midnightblue" points="299.33,-45.99 309.67,-43.65 300.13,-39.03 299.33,-45.99"/>
</g>
<!-- Node22 -->
<g id="node22" class="node">
<title>Node22</title>
<g id="a_node22"><a xlink:href="a00545.xhtml#aec1d45b63855c114d480d1a0532dc3e5" target="_top" xlink:title=" ">
<polygon fill="white" stroke="black" points="319,-0.5 319,-19.5 378,-19.5 378,-0.5 319,-0.5"/>
<text text-anchor="middle" x="348.5" y="-7.5" font-family="Helvetica,sans-Serif" font-size="10.00">CNmf::init</text>
</a>
</g>
</g>
<!-- Node21&#45;&gt;Node22 -->
<g id="edge22" class="edge">
<title>Node21&#45;&gt;Node22</title>
<path fill="none" stroke="midnightblue" d="M479.2,-10C445.97,-10 405.05,-10 378.17,-10"/>
<polygon fill="midnightblue" stroke="midnightblue" points="479.24,-13.5 489.24,-10 479.24,-6.5 479.24,-13.5"/>
</g>
</g>
</svg>
