<?xml version="1.0" encoding="UTF-8" standalone="no"?>
<!DOCTYPE svg PUBLIC "-//W3C//DTD SVG 1.1//EN"
 "http://www.w3.org/Graphics/SVG/1.1/DTD/svg11.dtd">
<!-- Generated by graphviz version 4.0.0 (20220602.1335)
 -->
<!-- Title: CMatrix::setZero Pages: 1 -->
<svg width="617pt" height="180pt"
 viewBox="0.00 0.00 617.00 180.00" xmlns="http://www.w3.org/2000/svg" xmlns:xlink="http://www.w3.org/1999/xlink">
<g id="graph0" class="graph" transform="scale(1 1) rotate(0) translate(4 176)">
<title>CMatrix::setZero</title>
<polygon fill="white" stroke="transparent" points="-4,4 -4,-176 613,-176 613,4 -4,4"/>
<!-- Node1 -->
<g id="node1" class="node">
<title>Node1</title>
<g id="a_node1"><a xlink:title=" ">
<polygon fill="#bfbfbf" stroke="black" points="522,-76.5 522,-95.5 609,-95.5 609,-76.5 522,-76.5"/>
<text text-anchor="middle" x="565.5" y="-83.5" font-family="Helvetica,sans-Serif" font-size="10.00">CMatrix::setZero</text>
</a>
</g>
</g>
<!-- Node2 -->
<g id="node2" class="node">
<title>Node2</title>
<g id="a_node2"><a xlink:href="a00583.xhtml#ad4ff4cdaad1b362cecb9ffd451b3a217" target="_top" xlink:title=" ">
<polygon fill="white" stroke="black" points="368,-114.5 368,-133.5 451,-133.5 451,-114.5 368,-114.5"/>
<text text-anchor="middle" x="409.5" y="-121.5" font-family="Helvetica,sans-Serif" font-size="10.00">CPca::calcSVD</text>
</a>
</g>
</g>
<!-- Node1&#45;&gt;Node2 -->
<g id="edge1" class="edge">
<title>Node1&#45;&gt;Node2</title>
<path fill="none" stroke="midnightblue" d="M515.71,-98.04C494.19,-103.35 469.27,-109.5 449.08,-114.48"/>
<polygon fill="midnightblue" stroke="midnightblue" points="516.77,-101.38 525.64,-95.59 515.09,-94.59 516.77,-101.38"/>
</g>
<!-- Node4 -->
<g id="node4" class="node">
<title>Node4</title>
<g id="a_node4"><a xlink:href="a00603.xhtml#a5d650faa066ee79af47c78be88331bb0" target="_top" xlink:title=" ">
<polygon fill="white" stroke="black" points="333,-152.5 333,-171.5 486,-171.5 486,-152.5 333,-152.5"/>
<text text-anchor="middle" x="409.5" y="-159.5" font-family="Helvetica,sans-Serif" font-size="10.00">CKmeans::compClusterMeans_</text>
</a>
</g>
</g>
<!-- Node1&#45;&gt;Node4 -->
<g id="edge3" class="edge">
<title>Node1&#45;&gt;Node4</title>
<path fill="none" stroke="midnightblue" d="M546.58,-102.11C531.44,-114.92 508.66,-132.41 486,-143 477.8,-146.84 468.72,-149.96 459.78,-152.49"/>
<polygon fill="midnightblue" stroke="midnightblue" points="548.9,-104.74 554.16,-95.54 544.31,-99.45 548.9,-104.74"/>
</g>
<!-- Node6 -->
<g id="node6" class="node">
<title>Node6</title>
<g id="a_node6"><a xlink:href="a00583.xhtml#a6fb2c806d453b0c946cffbdcd46b027f" target="_top" xlink:title=" ">
<polygon fill="white" stroke="black" points="366.5,-76.5 366.5,-95.5 452.5,-95.5 452.5,-76.5 366.5,-76.5"/>
<text text-anchor="middle" x="409.5" y="-83.5" font-family="Helvetica,sans-Serif" font-size="10.00">CPca::compCov</text>
</a>
</g>
</g>
<!-- Node1&#45;&gt;Node6 -->
<g id="edge5" class="edge">
<title>Node1&#45;&gt;Node6</title>
<path fill="none" stroke="midnightblue" d="M511.48,-86C492.25,-86 470.8,-86 452.64,-86"/>
<polygon fill="midnightblue" stroke="midnightblue" points="511.6,-89.5 521.6,-86 511.6,-82.5 511.6,-89.5"/>
</g>
<!-- Node9 -->
<g id="node9" class="node">
<title>Node9</title>
<g id="a_node9"><a xlink:href="a00531.xhtml#acc7689ea3256ad6c8d9efe3006434d13" target="_top" xlink:title=" ">
<polygon fill="white" stroke="black" points="339.5,-38.5 339.5,-57.5 479.5,-57.5 479.5,-38.5 339.5,-38.5"/>
<text text-anchor="middle" x="409.5" y="-45.5" font-family="Helvetica,sans-Serif" font-size="10.00">CSubFingerprint::genBands_</text>
</a>
</g>
</g>
<!-- Node1&#45;&gt;Node9 -->
<g id="edge9" class="edge">
<title>Node1&#45;&gt;Node9</title>
<path fill="none" stroke="midnightblue" d="M515.71,-73.96C494.19,-68.65 469.27,-62.5 449.08,-57.52"/>
<polygon fill="midnightblue" stroke="midnightblue" points="515.09,-77.41 525.64,-76.41 516.77,-70.62 515.09,-77.41"/>
</g>
<!-- Node11 -->
<g id="node11" class="node">
<title>Node11</title>
<g id="a_node11"><a xlink:href="a00559.xhtml#a0d3f000bb918b7d01ab12d5712d230cb" target="_top" xlink:title=" ">
<polygon fill="white" stroke="black" points="161.5,-0.5 161.5,-19.5 271.5,-19.5 271.5,-0.5 161.5,-0.5"/>
<text text-anchor="middle" x="216.5" y="-7.5" font-family="Helvetica,sans-Serif" font-size="10.00">CGmm::updateState_</text>
</a>
</g>
</g>
<!-- Node1&#45;&gt;Node11 -->
<g id="edge11" class="edge">
<title>Node1&#45;&gt;Node11</title>
<path fill="none" stroke="midnightblue" d="M547.53,-69.27C532.67,-55.78 509.77,-37.66 486,-29 415.2,-3.21 327.06,-2.37 271.52,-5.28"/>
<polygon fill="midnightblue" stroke="midnightblue" points="545.24,-71.92 554.92,-76.21 550.03,-66.81 545.24,-71.92"/>
</g>
<!-- Node3 -->
<g id="node3" class="node">
<title>Node3</title>
<g id="a_node3"><a xlink:href="a00583.xhtml#a9e44c134c68146bdc539135f3225a2d4" target="_top" xlink:title=" ">
<polygon fill="white" stroke="black" points="173.5,-114.5 173.5,-133.5 259.5,-133.5 259.5,-114.5 173.5,-114.5"/>
<text text-anchor="middle" x="216.5" y="-121.5" font-family="Helvetica,sans-Serif" font-size="10.00">CPca::compPca</text>
</a>
</g>
</g>
<!-- Node2&#45;&gt;Node3 -->
<g id="edge2" class="edge">
<title>Node2&#45;&gt;Node3</title>
<path fill="none" stroke="midnightblue" d="M357.93,-124C327.26,-124 288.59,-124 259.6,-124"/>
<polygon fill="midnightblue" stroke="midnightblue" points="357.99,-127.5 367.99,-124 357.99,-120.5 357.99,-127.5"/>
</g>
<!-- Node5 -->
<g id="node5" class="node">
<title>Node5</title>
<g id="a_node5"><a xlink:href="a00603.xhtml#ac9199a37d06a0d589118941f80f3f774" target="_top" xlink:title=" ">
<polygon fill="white" stroke="black" points="154.5,-152.5 154.5,-171.5 278.5,-171.5 278.5,-152.5 154.5,-152.5"/>
<text text-anchor="middle" x="216.5" y="-159.5" font-family="Helvetica,sans-Serif" font-size="10.00">CKmeans::compKmeans</text>
</a>
</g>
</g>
<!-- Node4&#45;&gt;Node5 -->
<g id="edge4" class="edge">
<title>Node4&#45;&gt;Node5</title>
<path fill="none" stroke="midnightblue" d="M322.58,-162C307.8,-162 292.72,-162 278.76,-162"/>
<polygon fill="midnightblue" stroke="midnightblue" points="322.74,-165.5 332.74,-162 322.74,-158.5 322.74,-165.5"/>
</g>
<!-- Node6&#45;&gt;Node3 -->
<g id="edge6" class="edge">
<title>Node6&#45;&gt;Node3</title>
<path fill="none" stroke="midnightblue" d="M356.14,-96.42C325.83,-102.45 288.18,-109.94 259.77,-115.59"/>
<polygon fill="midnightblue" stroke="midnightblue" points="356.99,-99.82 366.11,-94.43 355.62,-92.95 356.99,-99.82"/>
</g>
<!-- Node7 -->
<g id="node7" class="node">
<title>Node7</title>
<g id="a_node7"><a xlink:href="a00559.xhtml#a7c640b683a4d6999fa09157d60676a52" target="_top" xlink:title=" ">
<polygon fill="white" stroke="black" points="170,-76.5 170,-95.5 263,-95.5 263,-76.5 170,-76.5"/>
<text text-anchor="middle" x="216.5" y="-83.5" font-family="Helvetica,sans-Serif" font-size="10.00">CGmm::initState_</text>
</a>
</g>
</g>
<!-- Node6&#45;&gt;Node7 -->
<g id="edge7" class="edge">
<title>Node6&#45;&gt;Node7</title>
<path fill="none" stroke="midnightblue" d="M355.73,-86C326.67,-86 290.95,-86 263.11,-86"/>
<polygon fill="midnightblue" stroke="midnightblue" points="356.11,-89.5 366.11,-86 356.11,-82.5 356.11,-89.5"/>
</g>
<!-- Node8 -->
<g id="node8" class="node">
<title>Node8</title>
<g id="a_node8"><a xlink:href="a00559.xhtml#a4089671259acdd3b3faf6fc8010e206f" target="_top" xlink:title=" ">
<polygon fill="white" stroke="black" points="0,-38.5 0,-57.5 100,-57.5 100,-38.5 0,-38.5"/>
<text text-anchor="middle" x="50" y="-45.5" font-family="Helvetica,sans-Serif" font-size="10.00">CGmm::compGmm</text>
</a>
</g>
</g>
<!-- Node7&#45;&gt;Node8 -->
<g id="edge8" class="edge">
<title>Node7&#45;&gt;Node8</title>
<path fill="none" stroke="midnightblue" d="M164,-74.1C140.88,-68.76 113.97,-62.55 92.21,-57.52"/>
<polygon fill="midnightblue" stroke="midnightblue" points="163.46,-77.57 173.99,-76.41 165.03,-70.75 163.46,-77.57"/>
</g>
<!-- Node10 -->
<g id="node10" class="node">
<title>Node10</title>
<g id="a_node10"><a xlink:href="a00531.xhtml#a713f1061ff32359a059c47c60bee4700" target="_top" xlink:title=" ">
<polygon fill="white" stroke="black" points="136,-38.5 136,-57.5 297,-57.5 297,-38.5 136,-38.5"/>
<text text-anchor="middle" x="216.5" y="-45.5" font-family="Helvetica,sans-Serif" font-size="10.00">CSubFingerprint::CSubFingerprint</text>
</a>
</g>
</g>
<!-- Node9&#45;&gt;Node10 -->
<g id="edge10" class="edge">
<title>Node9&#45;&gt;Node10</title>
<path fill="none" stroke="midnightblue" d="M329.23,-48C318.64,-48 307.78,-48 297.19,-48"/>
<polygon fill="midnightblue" stroke="midnightblue" points="329.27,-51.5 339.27,-48 329.27,-44.5 329.27,-51.5"/>
</g>
<!-- Node11&#45;&gt;Node8 -->
<g id="edge12" class="edge">
<title>Node11&#45;&gt;Node8</title>
<path fill="none" stroke="midnightblue" d="M164,-21.9C140.88,-27.24 113.97,-33.45 92.21,-38.48"/>
<polygon fill="midnightblue" stroke="midnightblue" points="165.03,-25.25 173.99,-19.59 163.46,-18.43 165.03,-25.25"/>
</g>
</g>
</svg>
