<?xml version="1.0" encoding="UTF-8" standalone="no"?>
<!DOCTYPE svg PUBLIC "-//W3C//DTD SVG 1.1//EN"
 "http://www.w3.org/Graphics/SVG/1.1/DTD/svg11.dtd">
<!-- Generated by graphviz version 6.0.1 (20220911.1526)
 -->
<!-- Title: CFeatureFromBlockIf::compFeatureSpectralFlatness Pages: 1 -->
<svg width="416pt" height="64pt"
 viewBox="0.00 0.00 416.00 64.00" xmlns="http://www.w3.org/2000/svg" xmlns:xlink="http://www.w3.org/1999/xlink">
<g id="graph0" class="graph" transform="scale(1 1) rotate(0) translate(4 60)">
<title>CFeatureFromBlockIf::compFeatureSpectralFlatness</title>
<!-- Node1 -->
<g id="node1" class="node">
<title>Node1</title>
<g id="a_node1"><a xlink:title=" ">
<polygon fill="#999999" stroke="#666666" points="152,-42.5 0,-42.5 0,-12.5 152,-12.5 152,-42.5"/>
<text text-anchor="start" x="8" y="-30.5" font-family="Helvetica,sans-Serif" font-size="10.00">CFeatureFromBlockIf</text>
<text text-anchor="middle" x="76" y="-19.5" font-family="Helvetica,sans-Serif" font-size="10.00">::compFeatureSpectralFlatness</text>
</a>
</g>
</g>
<!-- Node2 -->
<g id="node2" class="node">
<title>Node2</title>
<g id="a_node2"><a xlink:href="a00502.xhtml#ae6e3545cf196c5e2409365bc62b7c1de" target="_top" xlink:title=" ">
<polygon fill="white" stroke="#666666" points="282,-56 188,-56 188,-37 282,-37 282,-56"/>
<text text-anchor="middle" x="235" y="-44" font-family="Helvetica,sans-Serif" font-size="10.00">CVector::getMean</text>
</a>
</g>
</g>
<!-- Node1&#45;&gt;Node2 -->
<g id="edge1" class="edge">
<title>Node1&#45;&gt;Node2</title>
<path fill="none" stroke="#63b8ff" d="M152.28,-36.61C160.8,-37.64 169.37,-38.68 177.59,-39.67"/>
<polygon fill="#63b8ff" stroke="#63b8ff" points="177.44,-43.18 187.79,-40.91 178.28,-36.23 177.44,-43.18"/>
</g>
<!-- Node4 -->
<g id="node4" class="node">
<title>Node4</title>
<g id="a_node4"><a xlink:href="a00502.xhtml#a1f7f307c20239cfd2007393e2b3b26df" target="_top" xlink:title=" ">
<polygon fill="white" stroke="#666666" points="278,-19 192,-19 192,0 278,0 278,-19"/>
<text text-anchor="middle" x="235" y="-7" font-family="Helvetica,sans-Serif" font-size="10.00">CVector::getMin</text>
</a>
</g>
</g>
<!-- Node1&#45;&gt;Node4 -->
<g id="edge3" class="edge">
<title>Node1&#45;&gt;Node4</title>
<path fill="none" stroke="#63b8ff" d="M152.28,-18.87C162.22,-17.73 172.23,-16.58 181.67,-15.5"/>
<polygon fill="#63b8ff" stroke="#63b8ff" points="182.12,-18.97 191.66,-14.35 181.33,-12.02 182.12,-18.97"/>
</g>
<!-- Node3 -->
<g id="node3" class="node">
<title>Node3</title>
<g id="a_node3"><a xlink:href="a00502.xhtml#abdbcc3898121387f3694f74491b7331e" target="_top" xlink:title=" ">
<polygon fill="white" stroke="#666666" points="408,-56 318,-56 318,-37 408,-37 408,-56"/>
<text text-anchor="middle" x="363" y="-44" font-family="Helvetica,sans-Serif" font-size="10.00">CVector::getSum</text>
</a>
</g>
</g>
<!-- Node2&#45;&gt;Node3 -->
<g id="edge2" class="edge">
<title>Node2&#45;&gt;Node3</title>
<path fill="none" stroke="#63b8ff" d="M282.2,-46.5C290.49,-46.5 299.2,-46.5 307.69,-46.5"/>
<polygon fill="#63b8ff" stroke="#63b8ff" points="307.9,-50 317.9,-46.5 307.9,-43 307.9,-50"/>
</g>
<!-- Node5 -->
<g id="node5" class="node">
<title>Node5</title>
<g id="a_node5"><a xlink:href="a00502.xhtml#ad475dff5686f7f82472071000a542806" target="_top" xlink:title=" ">
<polygon fill="white" stroke="#666666" points="406.5,-19 319.5,-19 319.5,0 406.5,0 406.5,-19"/>
<text text-anchor="middle" x="363" y="-7" font-family="Helvetica,sans-Serif" font-size="10.00">CVector::findMin</text>
</a>
</g>
</g>
<!-- Node4&#45;&gt;Node5 -->
<g id="edge4" class="edge">
<title>Node4&#45;&gt;Node5</title>
<path fill="none" stroke="#63b8ff" d="M278.31,-9.5C288.17,-9.5 298.8,-9.5 309.06,-9.5"/>
<polygon fill="#63b8ff" stroke="#63b8ff" points="309.16,-13 319.16,-9.5 309.16,-6 309.16,-13"/>
</g>
</g>
</svg>
