<?xml version="1.0" encoding="UTF-8" standalone="no"?>
<!DOCTYPE svg PUBLIC "-//W3C//DTD SVG 1.1//EN"
 "http://www.w3.org/Graphics/SVG/1.1/DTD/svg11.dtd">
<!-- Generated by graphviz version 12.2.1 (20241206.2353)
 -->
<!-- Title: CGammatone::calcFilterCoeffs_ Pages: 1 -->
<svg width="291pt" height="64pt"
 viewBox="0.00 0.00 290.50 64.25" xmlns="http://www.w3.org/2000/svg" xmlns:xlink="http://www.w3.org/1999/xlink">
<g id="graph0" class="graph" transform="scale(1 1) rotate(0) translate(4 60.25)">
<title>CGammatone::calcFilterCoeffs_</title>
<!-- Node1 -->
<g id="Node000001" class="node">
<title>Node1</title>
<g id="a_Node000001"><a xlink:title=" ">
<polygon fill="#999999" stroke="#666666" points="153.25,-56.25 0,-56.25 0,-37 153.25,-37 153.25,-56.25"/>
<text text-anchor="middle" x="76.62" y="-42.75" font-family="Helvetica,sans-Serif" font-size="10.00">CGammatone::calcFilterCoeffs_</text>
</a>
</g>
</g>
<!-- Node2 -->
<g id="Node000002" class="node">
<title>Node2</title>
<g id="a_Node000002"><a xlink:href="a00421.xhtml#a13edc08e70801919a66e65a330f150c2" target="_top" xlink:title=" ">
<polygon fill="white" stroke="#666666" points="282.5,-56.25 189.25,-56.25 189.25,-37 282.5,-37 282.5,-56.25"/>
<text text-anchor="middle" x="235.88" y="-42.75" font-family="Helvetica,sans-Serif" font-size="10.00">CGammatone::init</text>
</a>
</g>
</g>
<!-- Node1&#45;&gt;Node2 -->
<g id="edge1_Node000001_Node000002" class="edge">
<title>Node1&#45;&gt;Node2</title>
<g id="a_edge1_Node000001_Node000002"><a xlink:title=" ">
<path fill="none" stroke="#63b8ff" d="M153.49,-39.88C161.61,-39.86 169.78,-39.93 177.64,-40.1"/>
<polygon fill="#63b8ff" stroke="#63b8ff" points="177.28,-43.59 187.37,-40.38 177.48,-36.6 177.28,-43.59"/>
</a>
</g>
</g>
<!-- Node3 -->
<g id="Node000003" class="node">
<title>Node3</title>
<g id="a_Node000003"><a xlink:href="a00505.xhtml#a9811f50434dd058d201290b2dc98bfcd" target="_top" xlink:title=" ">
<polygon fill="white" stroke="#666666" points="279.12,-19.25 192.62,-19.25 192.62,0 279.12,0 279.12,-19.25"/>
<text text-anchor="middle" x="235.88" y="-5.75" font-family="Helvetica,sans-Serif" font-size="10.00">CVector::mulC_I</text>
</a>
</g>
</g>
<!-- Node1&#45;&gt;Node3 -->
<g id="edge3_Node000001_Node000003" class="edge">
<title>Node1&#45;&gt;Node3</title>
<g id="a_edge3_Node000001_Node000003"><a xlink:title=" ">
<path fill="none" stroke="#63b8ff" d="M120.59,-36.51C139.31,-32.11 161.43,-26.91 181.21,-22.25"/>
<polygon fill="#63b8ff" stroke="#63b8ff" points="181.82,-25.7 190.76,-20.01 180.22,-18.89 181.82,-25.7"/>
</a>
</g>
</g>
<!-- Node2&#45;&gt;Node1 -->
<g id="edge2_Node000002_Node000001" class="edge">
<title>Node2&#45;&gt;Node1</title>
<g id="a_edge2_Node000002_Node000001"><a xlink:title=" ">
<path fill="none" stroke="#63b8ff" d="M188.89,-52.83C181.24,-53.1 173.09,-53.27 164.82,-53.34"/>
<polygon fill="#63b8ff" stroke="#63b8ff" points="164.99,-49.84 155,-53.37 165.01,-56.84 164.99,-49.84"/>
</a>
</g>
</g>
</g>
</svg>
