<?xml version="1.0" encoding="UTF-8" standalone="no"?>
<!DOCTYPE svg PUBLIC "-//W3C//DTD SVG 1.1//EN"
 "http://www.w3.org/Graphics/SVG/1.1/DTD/svg11.dtd">
<!-- Generated by graphviz version 12.2.1 (20241206.2353)
 -->
<!-- Title: CFilter::setInitState_ Pages: 1 -->
<svg width="660pt" height="346pt"
 viewBox="0.00 0.00 660.25 346.25" xmlns="http://www.w3.org/2000/svg" xmlns:xlink="http://www.w3.org/1999/xlink">
<g id="graph0" class="graph" transform="scale(1 1) rotate(0) translate(4 342.25)">
<title>CFilter::setInitState_</title>
<!-- Node1 -->
<g id="Node000001" class="node">
<title>Node1</title>
<g id="a_Node000001"><a xlink:title=" ">
<polygon fill="#999999" stroke="#666666" points="104.5,-150.25 0,-150.25 0,-131 104.5,-131 104.5,-150.25"/>
<text text-anchor="middle" x="52.25" y="-136.75" font-family="Helvetica,sans-Serif" font-size="10.00">CFilter::setInitState_</text>
</a>
</g>
</g>
<!-- Node2 -->
<g id="Node000002" class="node">
<title>Node2</title>
<g id="a_Node000002"><a xlink:href="a00489.xhtml#a6501b78d76c912d49eee88c8f7242923" target="_top" xlink:title=" ">
<polygon fill="white" stroke="#666666" points="384.38,-95.25 310.62,-95.25 310.62,-76 384.38,-76 384.38,-95.25"/>
<text text-anchor="middle" x="347.5" y="-81.75" font-family="Helvetica,sans-Serif" font-size="10.00">CMatrix::alloc</text>
</a>
</g>
</g>
<!-- Node1&#45;&gt;Node2 -->
<g id="edge1_Node000001_Node000002" class="edge">
<title>Node1&#45;&gt;Node2</title>
<g id="a_edge1_Node000001_Node000002"><a xlink:title=" ">
<path fill="none" stroke="#63b8ff" d="M104.67,-130.98C159.61,-120.68 245.96,-104.48 299.25,-94.49"/>
<polygon fill="#63b8ff" stroke="#63b8ff" points="299.75,-97.95 308.93,-92.67 298.46,-91.07 299.75,-97.95"/>
</a>
</g>
</g>
<!-- Node3 -->
<g id="Node000003" class="node">
<title>Node3</title>
<g id="a_Node000003"><a xlink:href="a00505.xhtml#abaadac98b1cad18b7b568852bc951696" target="_top" xlink:title=" ">
<polygon fill="white" stroke="#666666" points="521.12,-95.25 445.12,-95.25 445.12,-76 521.12,-76 521.12,-95.25"/>
<text text-anchor="middle" x="483.12" y="-81.75" font-family="Helvetica,sans-Serif" font-size="10.00">CVector::alloc</text>
</a>
</g>
</g>
<!-- Node1&#45;&gt;Node3 -->
<g id="edge4_Node000001_Node000003" class="edge">
<title>Node1&#45;&gt;Node3</title>
<g id="a_edge4_Node000001_Node000003"><a xlink:title=" ">
<path fill="none" stroke="#63b8ff" d="M71.47,-130.58C88.78,-121.4 115.77,-108 140.5,-99.62 251.76,-61.92 286.08,-52.86 402.75,-66.62 413.82,-67.93 425.58,-70.23 436.57,-72.79"/>
<polygon fill="#63b8ff" stroke="#63b8ff" points="435.65,-76.17 446.2,-75.15 437.32,-69.37 435.65,-76.17"/>
</a>
</g>
</g>
<!-- Node5 -->
<g id="Node000005" class="node">
<title>Node5</title>
<g id="a_Node000005"><a xlink:href="a00489.xhtml#a591097c6b1935c4d6273b3445f8f552b" target="_top" xlink:title=" ">
<polygon fill="white" stroke="#666666" points="382.5,-319.25 312.5,-319.25 312.5,-300 382.5,-300 382.5,-319.25"/>
<text text-anchor="middle" x="347.5" y="-305.75" font-family="Helvetica,sans-Serif" font-size="10.00">CMatrix::free</text>
</a>
</g>
</g>
<!-- Node1&#45;&gt;Node5 -->
<g id="edge5_Node000001_Node000005" class="edge">
<title>Node1&#45;&gt;Node5</title>
<g id="a_edge5_Node000001_Node000005"><a xlink:title=" ">
<path fill="none" stroke="#63b8ff" d="M63.27,-150.73C78.78,-165.98 110.02,-195.19 140.5,-214.62 195.37,-249.62 265.23,-279.02 307.87,-295.46"/>
<polygon fill="#63b8ff" stroke="#63b8ff" points="306.61,-298.73 317.2,-299.02 309.1,-292.19 306.61,-298.73"/>
</a>
</g>
</g>
<!-- Node6 -->
<g id="Node000006" class="node">
<title>Node6</title>
<g id="a_Node000006"><a xlink:href="a00505.xhtml#aa86bdb0c663d4d52f2765793756f8737" target="_top" xlink:title=" ">
<polygon fill="white" stroke="#666666" points="519.25,-338.25 447,-338.25 447,-319 519.25,-319 519.25,-338.25"/>
<text text-anchor="middle" x="483.12" y="-324.75" font-family="Helvetica,sans-Serif" font-size="10.00">CVector::free</text>
</a>
</g>
</g>
<!-- Node1&#45;&gt;Node6 -->
<g id="edge7_Node000001_Node000006" class="edge">
<title>Node1&#45;&gt;Node6</title>
<g id="a_edge7_Node000001_Node000006"><a xlink:title=" ">
<path fill="none" stroke="#63b8ff" d="M58.28,-150.48C69.96,-172.53 100.98,-226.46 140.5,-258.62 198.11,-305.51 219.7,-312.7 292.25,-328.62 340.1,-339.13 396.39,-337.44 435.19,-334.17"/>
<polygon fill="#63b8ff" stroke="#63b8ff" points="435.5,-337.66 445.14,-333.25 434.86,-330.69 435.5,-337.66"/>
</a>
</g>
</g>
<!-- Node7 -->
<g id="Node000007" class="node">
<title>Node7</title>
<g id="a_Node000007"><a xlink:href="a00489.xhtml#a37585f57926ea2921734907bacc6cce8" target="_top" xlink:title=" ">
<polygon fill="white" stroke="#666666" points="235.62,-187.25 161.12,-187.25 161.12,-168 235.62,-168 235.62,-187.25"/>
<text text-anchor="middle" x="198.38" y="-173.75" font-family="Helvetica,sans-Serif" font-size="10.00">CMatrix::inv_I</text>
</a>
</g>
</g>
<!-- Node1&#45;&gt;Node7 -->
<g id="edge8_Node000001_Node000007" class="edge">
<title>Node1&#45;&gt;Node7</title>
<g id="a_edge8_Node000001_Node000007"><a xlink:title=" ">
<path fill="none" stroke="#63b8ff" d="M92.63,-150.74C110.39,-155.29 131.49,-160.71 150.1,-165.49"/>
<polygon fill="#63b8ff" stroke="#63b8ff" points="148.98,-168.82 159.54,-167.91 150.72,-162.04 148.98,-168.82"/>
</a>
</g>
</g>
<!-- Node15 -->
<g id="Node000015" class="node">
<title>Node15</title>
<g id="a_Node000015"><a xlink:href="a00489.xhtml#a05a5555eb9e7b63c5534cee3f525a03c" target="_top" xlink:title=" ">
<polygon fill="white" stroke="#666666" points="256.25,-19.25 140.5,-19.25 140.5,0 256.25,0 256.25,-19.25"/>
<text text-anchor="middle" x="198.38" y="-5.75" font-family="Helvetica,sans-Serif" font-size="10.00">CMatrix::mulMatColvec</text>
</a>
</g>
</g>
<!-- Node1&#45;&gt;Node15 -->
<g id="edge20_Node000001_Node000015" class="edge">
<title>Node1&#45;&gt;Node15</title>
<g id="a_edge20_Node000001_Node000015"><a xlink:title=" ">
<path fill="none" stroke="#63b8ff" d="M59,-130.71C71.41,-110.04 102.71,-61.94 140.5,-33.62 145.15,-30.14 150.39,-27.05 155.74,-24.36"/>
<polygon fill="#63b8ff" stroke="#63b8ff" points="157.06,-27.6 164.71,-20.27 154.16,-21.23 157.06,-27.6"/>
</a>
</g>
</g>
<!-- Node2&#45;&gt;Node3 -->
<g id="edge2_Node000002_Node000003" class="edge">
<title>Node2&#45;&gt;Node3</title>
<g id="a_edge2_Node000002_Node000003"><a xlink:title=" ">
<path fill="none" stroke="#63b8ff" d="M384.66,-85.62C399.71,-85.62 417.41,-85.62 433.57,-85.62"/>
<polygon fill="#63b8ff" stroke="#63b8ff" points="433.49,-89.13 443.49,-85.63 433.49,-82.13 433.49,-89.13"/>
</a>
</g>
</g>
<!-- Node4 -->
<g id="Node000004" class="node">
<title>Node4</title>
<g id="a_Node000004"><a xlink:href="a00505.xhtml#a6dbb3f9f480568b60f7fe50090d20003" target="_top" xlink:title=" ">
<polygon fill="white" stroke="#666666" points="652.25,-188.25 563.5,-188.25 563.5,-169 652.25,-169 652.25,-188.25"/>
<text text-anchor="middle" x="607.88" y="-174.75" font-family="Helvetica,sans-Serif" font-size="10.00">CVector::setZero</text>
</a>
</g>
</g>
<!-- Node3&#45;&gt;Node4 -->
<g id="edge3_Node000003_Node000004" class="edge">
<title>Node3&#45;&gt;Node4</title>
<g id="a_edge3_Node000003_Node000004"><a xlink:title=" ">
<path fill="none" stroke="#63b8ff" d="M512.42,-95.61C517.61,-97.93 522.85,-100.61 527.5,-103.62 552.2,-119.64 576.13,-143.81 591.15,-160.36"/>
<polygon fill="#63b8ff" stroke="#63b8ff" points="588.26,-162.38 597.51,-167.54 593.49,-157.73 588.26,-162.38"/>
</a>
</g>
</g>
<!-- Node5&#45;&gt;Node6 -->
<g id="edge6_Node000005_Node000006" class="edge">
<title>Node5&#45;&gt;Node6</title>
<g id="a_edge6_Node000005_Node000006"><a xlink:title=" ">
<path fill="none" stroke="#63b8ff" d="M382.91,-314.52C399.02,-316.81 418.45,-319.57 435.83,-322.04"/>
<polygon fill="#63b8ff" stroke="#63b8ff" points="435.01,-325.46 445.4,-323.4 435.99,-318.53 435.01,-325.46"/>
</a>
</g>
</g>
<!-- Node7&#45;&gt;Node2 -->
<g id="edge9_Node000007_Node000002" class="edge">
<title>Node7&#45;&gt;Node2</title>
<g id="a_edge9_Node000007_Node000002"><a xlink:title=" ">
<path fill="none" stroke="#63b8ff" d="M209.37,-167.65C225.51,-152.02 258.9,-121.7 292.25,-103.62 294.61,-102.35 297.07,-101.14 299.59,-100"/>
<polygon fill="#63b8ff" stroke="#63b8ff" points="300.8,-103.29 308.75,-96.28 298.17,-96.8 300.8,-103.29"/>
</a>
</g>
</g>
<!-- Node7&#45;&gt;Node5 -->
<g id="edge12_Node000007_Node000005" class="edge">
<title>Node7&#45;&gt;Node5</title>
<g id="a_edge12_Node000007_Node000005"><a xlink:title=" ">
<path fill="none" stroke="#63b8ff" d="M207.08,-187.67C225.5,-211.52 272.1,-270.66 292.25,-285.62 296.84,-289.03 301.98,-292.08 307.23,-294.78"/>
<polygon fill="#63b8ff" stroke="#63b8ff" points="305.41,-297.8 315.95,-298.88 308.39,-291.46 305.41,-297.8"/>
</a>
</g>
</g>
<!-- Node7&#45;&gt;Node7 -->
<g id="edge13_Node000007_Node000007" class="edge">
<title>Node7&#45;&gt;Node7</title>
<g id="a_edge13_Node000007_Node000007"><a xlink:title=" ">
<path fill="none" stroke="#63b8ff" d="M175.5,-187.54C165.06,-196.15 172.69,-205.25 198.38,-205.25 212.82,-205.25 221.56,-202.37 224.58,-198.32"/>
<polygon fill="#63b8ff" stroke="#63b8ff" points="227.99,-197.51 221.7,-188.98 221.3,-199.57 227.99,-197.51"/>
</a>
</g>
</g>
<!-- Node8 -->
<g id="Node000008" class="node">
<title>Node8</title>
<g id="a_Node000008"><a xlink:href="a00489.xhtml#aa633cf46c2b3938a1a7a8199c31051dd" target="_top" xlink:title=" ">
<polygon fill="white" stroke="#666666" points="384.38,-243.25 310.62,-243.25 310.62,-224 384.38,-224 384.38,-243.25"/>
<text text-anchor="middle" x="347.5" y="-229.75" font-family="Helvetica,sans-Serif" font-size="10.00">CMatrix::copy</text>
</a>
</g>
</g>
<!-- Node7&#45;&gt;Node8 -->
<g id="edge10_Node000007_Node000008" class="edge">
<title>Node7&#45;&gt;Node8</title>
<g id="a_edge10_Node000007_Node000008"><a xlink:title=" ">
<path fill="none" stroke="#63b8ff" d="M222.49,-187.59C241.17,-195.53 268.23,-206.74 292.25,-215.62 296.11,-217.05 300.14,-218.49 304.18,-219.89"/>
<polygon fill="#63b8ff" stroke="#63b8ff" points="302.79,-223.12 313.39,-223.03 305.05,-216.49 302.79,-223.12"/>
</a>
</g>
</g>
<!-- Node10 -->
<g id="Node000010" class="node">
<title>Node10</title>
<g id="a_Node000010"><a xlink:href="a00505.xhtml#a9811f50434dd058d201290b2dc98bfcd" target="_top" xlink:title=" ">
<polygon fill="white" stroke="#666666" points="390.75,-169.25 304.25,-169.25 304.25,-150 390.75,-150 390.75,-169.25"/>
<text text-anchor="middle" x="347.5" y="-155.75" font-family="Helvetica,sans-Serif" font-size="10.00">CVector::mulC_I</text>
</a>
</g>
</g>
<!-- Node7&#45;&gt;Node10 -->
<g id="edge14_Node000007_Node000010" class="edge">
<title>Node7&#45;&gt;Node10</title>
<g id="a_edge14_Node000007_Node000010"><a xlink:title=" ">
<path fill="none" stroke="#63b8ff" d="M236.12,-173.13C253.18,-171.04 273.79,-168.52 292.57,-166.22"/>
<polygon fill="#63b8ff" stroke="#63b8ff" points="292.97,-169.7 302.47,-165.01 292.12,-162.75 292.97,-169.7"/>
</a>
</g>
</g>
<!-- Node11 -->
<g id="Node000011" class="node">
<title>Node11</title>
<g id="a_Node000011"><a xlink:href="a00489.xhtml#a8f27c49fcbbdb52e2e9a50f2b22f59c3" target="_top" xlink:title=" ">
<polygon fill="white" stroke="#666666" points="524.5,-281.25 441.75,-281.25 441.75,-262 524.5,-262 524.5,-281.25"/>
<text text-anchor="middle" x="483.12" y="-267.75" font-family="Helvetica,sans-Serif" font-size="10.00">CMatrix::setEye</text>
</a>
</g>
</g>
<!-- Node7&#45;&gt;Node11 -->
<g id="edge15_Node000007_Node000011" class="edge">
<title>Node7&#45;&gt;Node11</title>
<g id="a_edge15_Node000007_Node000011"><a xlink:title=" ">
<path fill="none" stroke="#63b8ff" d="M207.92,-187.56C223.01,-204.32 256.21,-237.83 292.25,-252.62 336.37,-270.74 390.91,-274.49 430.2,-274.3"/>
<polygon fill="#63b8ff" stroke="#63b8ff" points="430.16,-277.8 440.1,-274.16 430.05,-270.8 430.16,-277.8"/>
</a>
</g>
</g>
<!-- Node12 -->
<g id="Node000012" class="node">
<title>Node12</title>
<g id="a_Node000012"><a xlink:href="a00505.xhtml#a4e5b5163bb46b8de5ac4013bde1ded00" target="_top" xlink:title=" ">
<polygon fill="white" stroke="#666666" points="391.88,-132.25 303.12,-132.25 303.12,-113 391.88,-113 391.88,-132.25"/>
<text text-anchor="middle" x="347.5" y="-118.75" font-family="Helvetica,sans-Serif" font-size="10.00">CVector::subW_I</text>
</a>
</g>
</g>
<!-- Node7&#45;&gt;Node12 -->
<g id="edge17_Node000007_Node000012" class="edge">
<title>Node7&#45;&gt;Node12</title>
<g id="a_edge17_Node000007_Node000012"><a xlink:title=" ">
<path fill="none" stroke="#63b8ff" d="M223.28,-167.65C241.95,-159.97 268.61,-149.25 292.25,-140.62 296.16,-139.2 300.25,-137.76 304.35,-136.34"/>
<polygon fill="#63b8ff" stroke="#63b8ff" points="305.34,-139.7 313.69,-133.17 303.09,-133.07 305.34,-139.7"/>
</a>
</g>
</g>
<!-- Node14 -->
<g id="Node000014" class="node">
<title>Node14</title>
<g id="a_Node000014"><a xlink:href="a00489.xhtml#a559a4308e4b77c24a8544d4e26efe1e9" target="_top" xlink:title=" ">
<polygon fill="white" stroke="#666666" points="402.75,-206.25 292.25,-206.25 292.25,-187 402.75,-187 402.75,-206.25"/>
<text text-anchor="middle" x="347.5" y="-192.75" font-family="Helvetica,sans-Serif" font-size="10.00">CMatrix::swapRowCol</text>
</a>
</g>
</g>
<!-- Node7&#45;&gt;Node14 -->
<g id="edge19_Node000007_Node000014" class="edge">
<title>Node7&#45;&gt;Node14</title>
<g id="a_edge19_Node000007_Node000014"><a xlink:title=" ">
<path fill="none" stroke="#63b8ff" d="M236.12,-182.37C249.68,-184.12 265.49,-186.16 280.84,-188.15"/>
<polygon fill="#63b8ff" stroke="#63b8ff" points="280.02,-191.57 290.39,-189.38 280.92,-184.63 280.02,-191.57"/>
</a>
</g>
</g>
<!-- Node9 -->
<g id="Node000009" class="node">
<title>Node9</title>
<g id="a_Node000009"><a xlink:href="a00505.xhtml#ad7c5cba73e439adac77778f61c9418f0" target="_top" xlink:title=" ">
<polygon fill="white" stroke="#666666" points="521.12,-243.25 445.12,-243.25 445.12,-224 521.12,-224 521.12,-243.25"/>
<text text-anchor="middle" x="483.12" y="-229.75" font-family="Helvetica,sans-Serif" font-size="10.00">CVector::copy</text>
</a>
</g>
</g>
<!-- Node8&#45;&gt;Node9 -->
<g id="edge11_Node000008_Node000009" class="edge">
<title>Node8&#45;&gt;Node9</title>
<g id="a_edge11_Node000008_Node000009"><a xlink:title=" ">
<path fill="none" stroke="#63b8ff" d="M384.66,-233.62C399.71,-233.62 417.41,-233.62 433.57,-233.62"/>
<polygon fill="#63b8ff" stroke="#63b8ff" points="433.49,-237.13 443.49,-233.63 433.49,-230.13 433.49,-237.13"/>
</a>
</g>
</g>
<!-- Node11&#45;&gt;Node4 -->
<g id="edge16_Node000011_Node000004" class="edge">
<title>Node11&#45;&gt;Node4</title>
<g id="a_edge16_Node000011_Node000004"><a xlink:title=" ">
<path fill="none" stroke="#63b8ff" d="M511.01,-261.54C516.65,-258.96 522.42,-255.97 527.5,-252.62 551.81,-236.64 575.67,-213.02 590.78,-196.79"/>
<polygon fill="#63b8ff" stroke="#63b8ff" points="593.05,-199.49 597.2,-189.74 587.88,-194.77 593.05,-199.49"/>
</a>
</g>
</g>
<!-- Node13 -->
<g id="Node000013" class="node">
<title>Node13</title>
<g id="a_Node000013"><a xlink:href="a00505.xhtml#a2239b170d46ed3d0846d766a0634a0be" target="_top" xlink:title=" ">
<polygon fill="white" stroke="#666666" points="527.5,-132.25 438.75,-132.25 438.75,-113 527.5,-113 527.5,-132.25"/>
<text text-anchor="middle" x="483.12" y="-118.75" font-family="Helvetica,sans-Serif" font-size="10.00">CVector::addW_I</text>
</a>
</g>
</g>
<!-- Node12&#45;&gt;Node13 -->
<g id="edge18_Node000012_Node000013" class="edge">
<title>Node12&#45;&gt;Node13</title>
<g id="a_edge18_Node000012_Node000013"><a xlink:title=" ">
<path fill="none" stroke="#63b8ff" d="M392.25,-122.62C403.33,-122.62 415.37,-122.62 426.93,-122.62"/>
<polygon fill="#63b8ff" stroke="#63b8ff" points="426.76,-126.13 436.76,-122.63 426.76,-119.13 426.76,-126.13"/>
</a>
</g>
</g>
<!-- Node16 -->
<g id="Node000016" class="node">
<title>Node16</title>
<g id="a_Node000016"><a xlink:href="a00505.xhtml#a269d316eeb6000aac4f57ade32c83127" target="_top" xlink:title=" ">
<polygon fill="white" stroke="#666666" points="397.12,-19.25 297.88,-19.25 297.88,0 397.12,0 397.12,-19.25"/>
<text text-anchor="middle" x="347.5" y="-5.75" font-family="Helvetica,sans-Serif" font-size="10.00">CVector::mulScalar</text>
</a>
</g>
</g>
<!-- Node15&#45;&gt;Node16 -->
<g id="edge21_Node000015_Node000016" class="edge">
<title>Node15&#45;&gt;Node16</title>
<g id="a_edge21_Node000015_Node000016"><a xlink:title=" ">
<path fill="none" stroke="#63b8ff" d="M256.68,-9.62C266.42,-9.62 276.56,-9.62 286.38,-9.62"/>
<polygon fill="#63b8ff" stroke="#63b8ff" points="286.19,-13.13 296.19,-9.63 286.19,-6.13 286.19,-13.13"/>
</a>
</g>
</g>
</g>
</svg>
