<?xml version="1.0" encoding="UTF-8" standalone="no"?>
<!DOCTYPE svg PUBLIC "-//W3C//DTD SVG 1.1//EN"
 "http://www.w3.org/Graphics/SVG/1.1/DTD/svg11.dtd">
<!-- Generated by graphviz version 12.2.1 (20241206.2353)
 -->
<!-- Title: CBlockAudioFile::operator= Pages: 1 -->
<!--zoomable 140 -->

<svg id="main" version="1.1" xmlns="http://www.w3.org/2000/svg" xmlns:xlink="http://www.w3.org/1999/xlink" xml:space="preserve" onload="init(evt)">

<style type="text/css"><![CDATA[
.node, .edge {opacity: 0.7;}
.node.selected, .edge.selected {opacity: 1;}
.edge:hover path { stroke: red; }
.edge:hover polygon { stroke: red; fill: red; }
]]></style>

<defs>
  <circle id="rim" cx="0" cy="0" r="7"/>
  <circle id="rim2" cx="0" cy="0" r="3.5"/>
  <g id="zoomPlus">
    <use xlink:href="#rim" fill="#404040"><set attributeName="fill" to="#808080" begin="zoomplus.mouseover" end="zoomplus.mouseout"/></use>
    <path d="M-4,0h8M0,-4v8" fill="none" stroke="white" stroke-width="1.5" pointer-events="none"/>
  </g>
  <g id="zoomMin">
    <use xlink:href="#rim" fill="#404040"><set attributeName="fill" to="#808080" begin="zoomminus.mouseover" end="zoomminus.mouseout"/></use>
    <path d="M-4,0h8" fill="none" stroke="white" stroke-width="1.5" pointer-events="none"/>
  </g>
  <g id="arrowUp" transform="translate(30 24)">
    <use xlink:href="#rim"/>
    <path pointer-events="none" fill="none" stroke="white" stroke-width="1.5" d="M0,-3.0v7 M-2.5,-0.5L0,-3.0L2.5,-0.5"/>
  </g>
  <g id="arrowRight" transform="rotate(90) translate(36 -43)">
    <use xlink:href="#rim"/>
    <path pointer-events="none" fill="none" stroke="white" stroke-width="1.5" d="M0,-3.0v7 M-2.5,-0.5L0,-3.0L2.5,-0.5"/>
  </g>
  <g id="arrowDown" transform="rotate(180) translate(-30 -48)">
    <use xlink:href="#rim"/>
    <path pointer-events="none" fill="none" stroke="white" stroke-width="1.5" d="M0,-3.0v7 M-2.5,-0.5L0,-3.0L2.5,-0.5"/>
  </g>
  <g id="arrowLeft" transform="rotate(270) translate(-36 17)">
    <use xlink:href="#rim"/>
    <path pointer-events="none" fill="none" stroke="white" stroke-width="1.5" d="M0,-3.0v7 M-2.5,-0.5L0,-3.0L2.5,-0.5"/>
  </g>
  <g id="resetDef">
    <use xlink:href="#rim2" fill="#404040"><set attributeName="fill" to="#808080" begin="reset.mouseover" end="reset.mouseout"/></use>
  </g>
</defs>
<script type="application/ecmascript">
var viewWidth = 772;
var viewHeight = 140;
var sectionId = 'dynsection-7';
</script>
<script type="application/ecmascript" xlink:href="svg.min.js"/>
<svg id="graph" class="graph">
<g id="viewport">
<title>CBlockAudioFile::operator=</title>
<!-- Node1 -->
<g id="Node000001" class="node">
<title>Node1</title>
<g id="a_Node000001"><a xlink:title=" ">
<polygon fill="#999999" stroke="#666666" points="133.75,-110.25 0,-110.25 0,-91 133.75,-91 133.75,-110.25"/>
<text text-anchor="middle" x="66.88" y="-96.75" font-family="Helvetica,sans-Serif" font-size="10.00">CBlockAudioFile::operator=</text>
</a>
</g>
</g>
<!-- Node2 -->
<g id="Node000002" class="node">
<title>Node2</title>
<g id="a_Node000002"><a xlink:href="a00413.xhtml#ae12716ee8473becf462624698243f761" target="_top" xlink:title=" ">
<polygon fill="white" stroke="#666666" points="334.25,-110.25 169.75,-110.25 169.75,-91 334.25,-91 334.25,-110.25"/>
<text text-anchor="middle" x="252" y="-96.75" font-family="Helvetica,sans-Serif" font-size="10.00">CBlockAudioFile::CBlockAudioFile</text>
</a>
</g>
</g>
<!-- Node1&#45;&gt;Node2 -->
<g id="edge1_Node000001_Node000002" class="edge">
<title>Node1&#45;&gt;Node2</title>
<g id="a_edge1_Node000001_Node000002"><a xlink:title=" ">
<path fill="none" stroke="#63b8ff" d="M134.25,-100.62C142.04,-100.62 150.09,-100.62 158.16,-100.62"/>
<polygon fill="#63b8ff" stroke="#63b8ff" points="158.04,-104.13 168.04,-100.63 158.04,-97.13 158.04,-104.13"/>
</a>
</g>
</g>
<!-- Node3 -->
<g id="Node000003" class="node">
<title>Node3</title>
<g id="a_Node000003"><a xlink:href="a00489.xhtml#a6501b78d76c912d49eee88c8f7242923" target="_top" xlink:title=" ">
<polygon fill="white" stroke="#666666" points="473.25,-132.25 399.5,-132.25 399.5,-113 473.25,-113 473.25,-132.25"/>
<text text-anchor="middle" x="436.38" y="-118.75" font-family="Helvetica,sans-Serif" font-size="10.00">CMatrix::alloc</text>
</a>
</g>
</g>
<!-- Node2&#45;&gt;Node3 -->
<g id="edge2_Node000002_Node000003" class="edge">
<title>Node2&#45;&gt;Node3</title>
<g id="a_edge2_Node000002_Node000003"><a xlink:title=" ">
<path fill="none" stroke="#63b8ff" d="M334.59,-110.47C352.75,-112.66 371.43,-114.91 387.69,-116.87"/>
<polygon fill="#63b8ff" stroke="#63b8ff" points="387.22,-120.34 397.56,-118.06 388.06,-113.39 387.22,-120.34"/>
</a>
</g>
</g>
<!-- Node6 -->
<g id="Node000006" class="node">
<title>Node6</title>
<g id="a_Node000006"><a xlink:href="a00413.xhtml#ac77d15abc29183765326f7212dd523a1" target="_top" xlink:title=" ">
<polygon fill="white" stroke="#666666" points="502.5,-94.88 370.25,-94.88 370.25,-64.38 502.5,-64.38 502.5,-94.88"/>
<text text-anchor="start" x="378.25" y="-81.38" font-family="Helvetica,sans-Serif" font-size="10.00">CBlockAudioFile::readFile2</text>
<text text-anchor="middle" x="436.38" y="-70.12" font-family="Helvetica,sans-Serif" font-size="10.00">RingBuff</text>
</a>
</g>
</g>
<!-- Node2&#45;&gt;Node6 -->
<g id="edge5_Node000002_Node000006" class="edge">
<title>Node2&#45;&gt;Node6</title>
<g id="a_edge5_Node000002_Node000006"><a xlink:title=" ">
<path fill="none" stroke="#63b8ff" d="M334.59,-91.23C342.64,-90.3 350.8,-89.36 358.81,-88.44"/>
<polygon fill="#63b8ff" stroke="#63b8ff" points="358.96,-91.95 368.49,-87.33 358.16,-84.99 358.96,-91.95"/>
</a>
</g>
</g>
<!-- Node4 -->
<g id="Node000004" class="node">
<title>Node4</title>
<g id="a_Node000004"><a xlink:href="a00505.xhtml#abaadac98b1cad18b7b568852bc951696" target="_top" xlink:title=" ">
<polygon fill="white" stroke="#666666" points="626.88,-132.25 550.88,-132.25 550.88,-113 626.88,-113 626.88,-132.25"/>
<text text-anchor="middle" x="588.88" y="-118.75" font-family="Helvetica,sans-Serif" font-size="10.00">CVector::alloc</text>
</a>
</g>
</g>
<!-- Node3&#45;&gt;Node4 -->
<g id="edge3_Node000003_Node000004" class="edge">
<title>Node3&#45;&gt;Node4</title>
<g id="a_edge3_Node000003_Node000004"><a xlink:title=" ">
<path fill="none" stroke="#63b8ff" d="M473.42,-122.62C493.09,-122.62 517.71,-122.62 539.07,-122.62"/>
<polygon fill="#63b8ff" stroke="#63b8ff" points="539.04,-126.13 549.04,-122.63 539.04,-119.13 539.04,-126.13"/>
</a>
</g>
</g>
<!-- Node5 -->
<g id="Node000005" class="node">
<title>Node5</title>
<g id="a_Node000005"><a xlink:href="a00505.xhtml#a6dbb3f9f480568b60f7fe50090d20003" target="_top" xlink:title=" ">
<polygon fill="white" stroke="#666666" points="764,-131.25 675.25,-131.25 675.25,-112 764,-112 764,-131.25"/>
<text text-anchor="middle" x="719.62" y="-117.75" font-family="Helvetica,sans-Serif" font-size="10.00">CVector::setZero</text>
</a>
</g>
</g>
<!-- Node4&#45;&gt;Node5 -->
<g id="edge4_Node000004_Node000005" class="edge">
<title>Node4&#45;&gt;Node5</title>
<g id="a_edge4_Node000004_Node000005"><a xlink:title=" ">
<path fill="none" stroke="#63b8ff" d="M627.11,-122.34C638.6,-122.25 651.5,-122.15 663.9,-122.05"/>
<polygon fill="#63b8ff" stroke="#63b8ff" points="663.62,-125.55 673.59,-121.97 663.57,-118.55 663.62,-125.55"/>
</a>
</g>
</g>
<!-- Node6&#45;&gt;Node5 -->
<g id="edge10_Node000006_Node000005" class="edge">
<title>Node6&#45;&gt;Node5</title>
<g id="a_edge10_Node000006_Node000005"><a xlink:title=" ">
<path fill="none" stroke="#63b8ff" d="M502.63,-85.63C542.29,-89.72 593.86,-95.8 639.25,-103.62 648.26,-105.18 657.78,-107.1 666.99,-109.09"/>
<polygon fill="#63b8ff" stroke="#63b8ff" points="666,-112.46 676.52,-111.22 667.53,-105.63 666,-112.46"/>
</a>
</g>
</g>
<!-- Node7 -->
<g id="Node000007" class="node">
<title>Node7</title>
<g id="a_Node000007"><a xlink:href="a00605.xhtml#aad7f6eaf40285ca192d27a7420aff724" target="_top" xlink:title=" ">
<polygon fill="white" stroke="#666666" points="639.25,-56.25 538.5,-56.25 538.5,-37 639.25,-37 639.25,-56.25"/>
<text text-anchor="middle" x="588.88" y="-42.75" font-family="Helvetica,sans-Serif" font-size="10.00">CPreProc::downmix</text>
</a>
</g>
</g>
<!-- Node6&#45;&gt;Node7 -->
<g id="edge6_Node000006_Node000007" class="edge">
<title>Node6&#45;&gt;Node7</title>
<g id="a_edge6_Node000006_Node000007"><a xlink:title=" ">
<path fill="none" stroke="#63b8ff" d="M502.95,-65.25C512.3,-63.2 521.85,-61.1 531.01,-59.09"/>
<polygon fill="#63b8ff" stroke="#63b8ff" points="531.46,-62.58 540.48,-57.02 529.96,-55.74 531.46,-62.58"/>
</a>
</g>
</g>
<!-- Node8 -->
<g id="Node000008" class="node">
<title>Node8</title>
<g id="a_Node000008"><a xlink:href="a00505.xhtml#a3a052b83e62e5c5cc44829c64ffe42eb" target="_top" xlink:title=" ">
<polygon fill="white" stroke="#666666" points="759.5,-93.25 679.75,-93.25 679.75,-74 759.5,-74 759.5,-93.25"/>
<text text-anchor="middle" x="719.62" y="-79.75" font-family="Helvetica,sans-Serif" font-size="10.00">CVector::add_I</text>
</a>
</g>
</g>
<!-- Node7&#45;&gt;Node8 -->
<g id="edge7_Node000007_Node000008" class="edge">
<title>Node7&#45;&gt;Node8</title>
<g id="a_edge7_Node000007_Node000008"><a xlink:title=" ">
<path fill="none" stroke="#63b8ff" d="M625.06,-56.74C639.68,-60.94 656.84,-65.87 672.45,-70.36"/>
<polygon fill="#63b8ff" stroke="#63b8ff" points="671.45,-73.71 682.03,-73.11 673.39,-66.98 671.45,-73.71"/>
</a>
</g>
</g>
<!-- Node9 -->
<g id="Node000009" class="node">
<title>Node9</title>
<g id="a_Node000009"><a xlink:href="a00505.xhtml#ad7c5cba73e439adac77778f61c9418f0" target="_top" xlink:title=" ">
<polygon fill="white" stroke="#666666" points="757.62,-56.25 681.62,-56.25 681.62,-37 757.62,-37 757.62,-56.25"/>
<text text-anchor="middle" x="719.62" y="-42.75" font-family="Helvetica,sans-Serif" font-size="10.00">CVector::copy</text>
</a>
</g>
</g>
<!-- Node7&#45;&gt;Node9 -->
<g id="edge8_Node000007_Node000009" class="edge">
<title>Node7&#45;&gt;Node9</title>
<g id="a_edge8_Node000007_Node000009"><a xlink:title=" ">
<path fill="none" stroke="#63b8ff" d="M639.65,-46.62C649.62,-46.62 660.08,-46.62 670.01,-46.62"/>
<polygon fill="#63b8ff" stroke="#63b8ff" points="669.85,-50.13 679.85,-46.63 669.85,-43.13 669.85,-50.13"/>
</a>
</g>
</g>
<!-- Node10 -->
<g id="Node000010" class="node">
<title>Node10</title>
<g id="a_Node000010"><a xlink:href="a00505.xhtml#a9811f50434dd058d201290b2dc98bfcd" target="_top" xlink:title=" ">
<polygon fill="white" stroke="#666666" points="762.88,-19.25 676.38,-19.25 676.38,0 762.88,0 762.88,-19.25"/>
<text text-anchor="middle" x="719.62" y="-5.75" font-family="Helvetica,sans-Serif" font-size="10.00">CVector::mulC_I</text>
</a>
</g>
</g>
<!-- Node7&#45;&gt;Node10 -->
<g id="edge9_Node000007_Node000010" class="edge">
<title>Node7&#45;&gt;Node10</title>
<g id="a_edge9_Node000007_Node000010"><a xlink:title=" ">
<path fill="none" stroke="#63b8ff" d="M625.06,-36.51C639.68,-32.31 656.84,-27.38 672.45,-22.89"/>
<polygon fill="#63b8ff" stroke="#63b8ff" points="673.39,-26.27 682.03,-20.14 671.45,-19.54 673.39,-26.27"/>
</a>
</g>
</g>
</g>
</svg>

<g id="navigator" transform="translate(0 0)" fill="#404254">
  <rect fill="#f2f5e9" fill-opacity="0.5" stroke="#606060" stroke-width=".5" x="0" y="0" width="60" height="60"/>
  <use id="zoomplus" xlink:href="#zoomPlus" x="17" y="9" onmousedown="handleZoom(evt,'in')"/>
  <use id="zoomminus" xlink:href="#zoomMin" x="42" y="9" onmousedown="handleZoom(evt,'out')"/>
  <use id="reset" xlink:href="#resetDef" x="30" y="36" onmousedown="handleReset()"/>
   <use id="arrowup" xlink:href="#arrowUp" x="0" y="0" onmousedown="handlePan(0,-1)"/>
  <use id="arrowright" xlink:href="#arrowRight" x="0" y="0" onmousedown="handlePan(1,0)"/>
  <use id="arrowdown" xlink:href="#arrowDown" x="0" y="0" onmousedown="handlePan(0,1)"/>
  <use id="arrowleft" xlink:href="#arrowLeft" x="0" y="0" onmousedown="handlePan(-1,0)"/>
</g>
<svg viewBox="0 0 15 15" width="100%" height="30px" preserveAspectRatio="xMaxYMin meet">
 <g id="arrow_out" transform="scale(0.3 0.3)">
  <a xlink:href="a00413_a6ca9ea8153944073e715fcf401990961_cgraph_org.svg" target="_base">
   <rect id="button" ry="5" rx="5" y="6" x="6" height="38" width="38"
        fill="#f2f5e9" fill-opacity="0.5" stroke="#606060" stroke-width="1.0"/>
   <path id="arrow"
     d="M 11.500037,31.436501 C 11.940474,20.09759 22.043105,11.32322 32.158766,21.979434 L 37.068811,17.246167 C 37.068811,17.246167 37.088388,32 37.088388,32 L 22.160133,31.978069 C 22.160133,31.978069 26.997745,27.140456 26.997745,27.140456 C 18.528582,18.264221 13.291696,25.230495 11.500037,31.436501 z"
     style="fill:#404040;"/>
  </a>
 </g>
</svg>

<style type='text/css'>
<![CDATA[
[data-mouse-over-selected='false'] { opacity: 0.7; }
[data-mouse-over-selected='true']  { opacity: 1.0; }
]]>
</style>
<script type="application/ecmascript"><![CDATA[
document.addEventListener('DOMContentLoaded', (event) => {
  highlightEdges();
  highlightAdjacentNodes();
});
]]></script>
</svg>
