<?xml version="1.0" encoding="UTF-8" standalone="no"?>
<!DOCTYPE svg PUBLIC "-//W3C//DTD SVG 1.1//EN"
 "http://www.w3.org/Graphics/SVG/1.1/DTD/svg11.dtd">
<!-- Generated by graphviz version 4.0.0 (20220602.1335)
 -->
<!-- Title: CMatrix::inv_I Pages: 1 -->
<svg width="474pt" height="256pt"
 viewBox="0.00 0.00 474.00 256.00" xmlns="http://www.w3.org/2000/svg" xmlns:xlink="http://www.w3.org/1999/xlink">
<g id="graph0" class="graph" transform="scale(1 1) rotate(0) translate(4 252)">
<title>CMatrix::inv_I</title>
<polygon fill="white" stroke="transparent" points="-4,4 -4,-252 470,-252 470,4 -4,4"/>
<!-- Node1 -->
<g id="node1" class="node">
<title>Node1</title>
<g id="a_node1"><a xlink:title=" ">
<polygon fill="#bfbfbf" stroke="black" points="0,-114.5 0,-133.5 75,-133.5 75,-114.5 0,-114.5"/>
<text text-anchor="middle" x="37.5" y="-121.5" font-family="Helvetica,sans-Serif" font-size="10.00">CMatrix::inv_I</text>
</a>
</g>
</g>
<!-- Node1&#45;&gt;Node1 -->
<g id="edge8" class="edge">
<title>Node1&#45;&gt;Node1</title>
<path fill="none" stroke="midnightblue" d="M17.77,-133.76C8.17,-142.57 14.75,-152 37.5,-152 52.07,-152 60.01,-148.13 61.31,-143.03"/>
<polygon fill="midnightblue" stroke="midnightblue" points="64.46,-141.5 57.23,-133.76 58.05,-144.32 64.46,-141.5"/>
</g>
<!-- Node2 -->
<g id="node2" class="node">
<title>Node2</title>
<g id="a_node2"><a xlink:href="a00461.xhtml#a6501b78d76c912d49eee88c8f7242923" target="_top" xlink:title=" ">
<polygon fill="white" stroke="black" points="129.5,-228.5 129.5,-247.5 203.5,-247.5 203.5,-228.5 129.5,-228.5"/>
<text text-anchor="middle" x="166.5" y="-235.5" font-family="Helvetica,sans-Serif" font-size="10.00">CMatrix::alloc</text>
</a>
</g>
</g>
<!-- Node1&#45;&gt;Node2 -->
<g id="edge1" class="edge">
<title>Node1&#45;&gt;Node2</title>
<path fill="none" stroke="midnightblue" d="M43.31,-133.57C53.32,-152.56 78.24,-195.26 111,-219 113.84,-221.06 116.93,-222.92 120.14,-224.58"/>
<polygon fill="midnightblue" stroke="midnightblue" points="118.87,-227.84 129.42,-228.78 121.75,-221.47 118.87,-227.84"/>
</g>
<!-- Node5 -->
<g id="node5" class="node">
<title>Node5</title>
<g id="a_node5"><a xlink:href="a00461.xhtml#a9f723a71e61f425d0ee9a51aa2162bf3" target="_top" xlink:title=" ">
<polygon fill="white" stroke="black" points="129.5,-190.5 129.5,-209.5 203.5,-209.5 203.5,-190.5 129.5,-190.5"/>
<text text-anchor="middle" x="166.5" y="-197.5" font-family="Helvetica,sans-Serif" font-size="10.00">CMatrix::copy</text>
</a>
</g>
</g>
<!-- Node1&#45;&gt;Node5 -->
<g id="edge4" class="edge">
<title>Node1&#45;&gt;Node5</title>
<path fill="none" stroke="midnightblue" d="M48.53,-133.68C61.85,-146.1 86.56,-167.62 111,-181 114.76,-183.06 118.78,-184.96 122.87,-186.69"/>
<polygon fill="midnightblue" stroke="midnightblue" points="121.88,-190.06 132.47,-190.45 124.43,-183.55 121.88,-190.06"/>
</g>
<!-- Node7 -->
<g id="node7" class="node">
<title>Node7</title>
<g id="a_node7"><a xlink:href="a00461.xhtml#a591097c6b1935c4d6273b3445f8f552b" target="_top" xlink:title=" ">
<polygon fill="white" stroke="black" points="131,-152.5 131,-171.5 202,-171.5 202,-152.5 131,-152.5"/>
<text text-anchor="middle" x="166.5" y="-159.5" font-family="Helvetica,sans-Serif" font-size="10.00">CMatrix::free</text>
</a>
</g>
</g>
<!-- Node1&#45;&gt;Node7 -->
<g id="edge6" class="edge">
<title>Node1&#45;&gt;Node7</title>
<path fill="none" stroke="midnightblue" d="M70.55,-133.59C86.64,-138.4 106.34,-144.3 123.62,-149.47"/>
<polygon fill="midnightblue" stroke="midnightblue" points="122.88,-152.9 133.46,-152.41 124.89,-146.19 122.88,-152.9"/>
</g>
<!-- Node9 -->
<g id="node9" class="node">
<title>Node9</title>
<g id="a_node9"><a xlink:href="a00477.xhtml#a9811f50434dd058d201290b2dc98bfcd" target="_top" xlink:title=" ">
<polygon fill="white" stroke="black" points="123,-114.5 123,-133.5 210,-133.5 210,-114.5 123,-114.5"/>
<text text-anchor="middle" x="166.5" y="-121.5" font-family="Helvetica,sans-Serif" font-size="10.00">CVector::mulC_I</text>
</a>
</g>
</g>
<!-- Node1&#45;&gt;Node9 -->
<g id="edge9" class="edge">
<title>Node1&#45;&gt;Node9</title>
<path fill="none" stroke="midnightblue" d="M75.23,-124C86.79,-124 99.8,-124 112.27,-124"/>
<polygon fill="midnightblue" stroke="midnightblue" points="112.57,-127.5 122.57,-124 112.57,-120.5 112.57,-127.5"/>
</g>
<!-- Node10 -->
<g id="node10" class="node">
<title>Node10</title>
<g id="a_node10"><a xlink:href="a00461.xhtml#a95b2436caee0cd232126f78c642238dd" target="_top" xlink:title=" ">
<polygon fill="white" stroke="black" points="258,-95.5 258,-114.5 341,-114.5 341,-95.5 258,-95.5"/>
<text text-anchor="middle" x="299.5" y="-102.5" font-family="Helvetica,sans-Serif" font-size="10.00">CMatrix::setEye</text>
</a>
</g>
</g>
<!-- Node1&#45;&gt;Node10 -->
<g id="edge10" class="edge">
<title>Node1&#45;&gt;Node10</title>
<path fill="none" stroke="midnightblue" d="M67.79,-114.5C80.86,-110.73 96.55,-106.86 111,-105 156.89,-99.09 209.62,-99.74 247.45,-101.49"/>
<polygon fill="midnightblue" stroke="midnightblue" points="247.55,-105 257.71,-102.01 247.9,-98.01 247.55,-105"/>
</g>
<!-- Node11 -->
<g id="node11" class="node">
<title>Node11</title>
<g id="a_node11"><a xlink:href="a00477.xhtml#a4e5b5163bb46b8de5ac4013bde1ded00" target="_top" xlink:title=" ">
<polygon fill="white" stroke="black" points="122,-38.5 122,-57.5 211,-57.5 211,-38.5 122,-38.5"/>
<text text-anchor="middle" x="166.5" y="-45.5" font-family="Helvetica,sans-Serif" font-size="10.00">CVector::subW_I</text>
</a>
</g>
</g>
<!-- Node1&#45;&gt;Node11 -->
<g id="edge12" class="edge">
<title>Node1&#45;&gt;Node11</title>
<path fill="none" stroke="midnightblue" d="M50.3,-114.36C64.24,-103.26 88.4,-84.9 111,-72 117.48,-68.3 124.64,-64.78 131.58,-61.63"/>
<polygon fill="midnightblue" stroke="midnightblue" points="133.07,-64.8 140.83,-57.58 130.26,-58.39 133.07,-64.8"/>
</g>
<!-- Node12 -->
<g id="node12" class="node">
<title>Node12</title>
<g id="a_node12"><a xlink:href="a00461.xhtml#a036ce0072f4da74a8809550d21eac9dd" target="_top" xlink:title=" ">
<polygon fill="white" stroke="black" points="111,-0.5 111,-19.5 222,-19.5 222,-0.5 111,-0.5"/>
<text text-anchor="middle" x="166.5" y="-7.5" font-family="Helvetica,sans-Serif" font-size="10.00">CMatrix::swapRowCol</text>
</a>
</g>
</g>
<!-- Node1&#45;&gt;Node12 -->
<g id="edge13" class="edge">
<title>Node1&#45;&gt;Node12</title>
<path fill="none" stroke="midnightblue" d="M43.31,-114.43C53.32,-95.44 78.24,-52.74 111,-29 113.64,-27.09 116.48,-25.36 119.44,-23.79"/>
<polygon fill="midnightblue" stroke="midnightblue" points="120.96,-26.94 128.56,-19.56 118.02,-20.59 120.96,-26.94"/>
</g>
<!-- Node3 -->
<g id="node3" class="node">
<title>Node3</title>
<g id="a_node3"><a xlink:href="a00477.xhtml#abaadac98b1cad18b7b568852bc951696" target="_top" xlink:title=" ">
<polygon fill="white" stroke="black" points="261,-228.5 261,-247.5 338,-247.5 338,-228.5 261,-228.5"/>
<text text-anchor="middle" x="299.5" y="-235.5" font-family="Helvetica,sans-Serif" font-size="10.00">CVector::alloc</text>
</a>
</g>
</g>
<!-- Node2&#45;&gt;Node3 -->
<g id="edge2" class="edge">
<title>Node2&#45;&gt;Node3</title>
<path fill="none" stroke="midnightblue" d="M203.64,-238C218.04,-238 234.83,-238 250.24,-238"/>
<polygon fill="midnightblue" stroke="midnightblue" points="250.65,-241.5 260.65,-238 250.65,-234.5 250.65,-241.5"/>
</g>
<!-- Node4 -->
<g id="node4" class="node">
<title>Node4</title>
<g id="a_node4"><a xlink:href="a00477.xhtml#a6dbb3f9f480568b60f7fe50090d20003" target="_top" xlink:title=" ">
<polygon fill="white" stroke="black" points="377,-171.5 377,-190.5 466,-190.5 466,-171.5 377,-171.5"/>
<text text-anchor="middle" x="421.5" y="-178.5" font-family="Helvetica,sans-Serif" font-size="10.00">CVector::setZero</text>
</a>
</g>
</g>
<!-- Node3&#45;&gt;Node4 -->
<g id="edge3" class="edge">
<title>Node3&#45;&gt;Node4</title>
<path fill="none" stroke="midnightblue" d="M321.12,-228.36C327.5,-225.37 334.54,-222.06 341,-219 357.67,-211.1 376.28,-202.22 391.29,-195.02"/>
<polygon fill="midnightblue" stroke="midnightblue" points="393.08,-198.05 400.59,-190.57 390.06,-191.73 393.08,-198.05"/>
</g>
<!-- Node6 -->
<g id="node6" class="node">
<title>Node6</title>
<g id="a_node6"><a xlink:href="a00477.xhtml#ad7c5cba73e439adac77778f61c9418f0" target="_top" xlink:title=" ">
<polygon fill="white" stroke="black" points="261,-190.5 261,-209.5 338,-209.5 338,-190.5 261,-190.5"/>
<text text-anchor="middle" x="299.5" y="-197.5" font-family="Helvetica,sans-Serif" font-size="10.00">CVector::copy</text>
</a>
</g>
</g>
<!-- Node5&#45;&gt;Node6 -->
<g id="edge5" class="edge">
<title>Node5&#45;&gt;Node6</title>
<path fill="none" stroke="midnightblue" d="M203.64,-200C218.04,-200 234.83,-200 250.24,-200"/>
<polygon fill="midnightblue" stroke="midnightblue" points="250.65,-203.5 260.65,-200 250.65,-196.5 250.65,-203.5"/>
</g>
<!-- Node8 -->
<g id="node8" class="node">
<title>Node8</title>
<g id="a_node8"><a xlink:href="a00477.xhtml#aa86bdb0c663d4d52f2765793756f8737" target="_top" xlink:title=" ">
<polygon fill="white" stroke="black" points="263,-152.5 263,-171.5 336,-171.5 336,-152.5 263,-152.5"/>
<text text-anchor="middle" x="299.5" y="-159.5" font-family="Helvetica,sans-Serif" font-size="10.00">CVector::free</text>
</a>
</g>
</g>
<!-- Node7&#45;&gt;Node8 -->
<g id="edge7" class="edge">
<title>Node7&#45;&gt;Node8</title>
<path fill="none" stroke="midnightblue" d="M202.26,-162C217.7,-162 236.09,-162 252.64,-162"/>
<polygon fill="midnightblue" stroke="midnightblue" points="252.66,-165.5 262.66,-162 252.66,-158.5 252.66,-165.5"/>
</g>
<!-- Node10&#45;&gt;Node4 -->
<g id="edge11" class="edge">
<title>Node10&#45;&gt;Node4</title>
<path fill="none" stroke="midnightblue" d="M315.7,-114.63C336.17,-127.59 372.79,-150.79 396.87,-166.04"/>
<polygon fill="midnightblue" stroke="midnightblue" points="395.1,-169.06 405.43,-171.45 398.85,-163.15 395.1,-169.06"/>
</g>
</g>
</svg>
