<?xml version="1.0" encoding="UTF-8" standalone="no"?>
<!DOCTYPE svg PUBLIC "-//W3C//DTD SVG 1.1//EN"
 "http://www.w3.org/Graphics/SVG/1.1/DTD/svg11.dtd">
<!-- Generated by graphviz version 4.0.0 (20220602.1335)
 -->
<!-- Title: CVector::mul_I Pages: 1 -->
<svg width="895pt" height="557pt"
 viewBox="0.00 0.00 895.00 556.50" xmlns="http://www.w3.org/2000/svg" xmlns:xlink="http://www.w3.org/1999/xlink">
<g id="graph0" class="graph" transform="scale(1 1) rotate(0) translate(4 552.5)">
<title>CVector::mul_I</title>
<polygon fill="white" stroke="transparent" points="-4,4 -4,-552.5 891,-552.5 891,4 -4,4"/>
<!-- Node1 -->
<g id="node1" class="node">
<title>Node1</title>
<g id="a_node1"><a xlink:title=" ">
<polygon fill="#bfbfbf" stroke="black" points="807,-231.5 807,-250.5 887,-250.5 887,-231.5 807,-231.5"/>
<text text-anchor="middle" x="847" y="-238.5" font-family="Helvetica,sans-Serif" font-size="10.00">CVector::mul_I</text>
</a>
</g>
</g>
<!-- Node2 -->
<g id="node2" class="node">
<title>Node2</title>
<g id="a_node2"><a xlink:href="a00611.xhtml#a16bb56f19951aee5c4986a9dc7aeb853" target="_top" xlink:title=" ">
<polygon fill="white" stroke="black" points="687.5,-288.5 687.5,-307.5 765.5,-307.5 765.5,-288.5 687.5,-288.5"/>
<text text-anchor="middle" x="726.5" y="-295.5" font-family="Helvetica,sans-Serif" font-size="10.00">CKnn::classify</text>
</a>
</g>
</g>
<!-- Node1&#45;&gt;Node2 -->
<g id="edge1" class="edge">
<title>Node1&#45;&gt;Node2</title>
<path fill="none" stroke="midnightblue" d="M818.78,-255.26C804.62,-262.56 786.99,-271.47 771,-279 764.29,-282.16 756.92,-285.45 750.19,-288.38"/>
<polygon fill="midnightblue" stroke="midnightblue" points="820.69,-258.22 827.96,-250.51 817.47,-252 820.69,-258.22"/>
</g>
<!-- Node3 -->
<g id="node3" class="node">
<title>Node3</title>
<g id="a_node3"><a xlink:href="a00467.xhtml#a3cae73896785c2f12ba979e15de48087" target="_top" xlink:title=" ">
<polygon fill="white" stroke="black" points="688.5,-212.5 688.5,-231.5 764.5,-231.5 764.5,-212.5 688.5,-212.5"/>
<text text-anchor="middle" x="726.5" y="-219.5" font-family="Helvetica,sans-Serif" font-size="10.00">CFft::compFft</text>
</a>
</g>
</g>
<!-- Node1&#45;&gt;Node3 -->
<g id="edge2" class="edge">
<title>Node1&#45;&gt;Node3</title>
<path fill="none" stroke="midnightblue" d="M796.74,-233.1C785.98,-231.38 774.77,-229.58 764.58,-227.95"/>
<polygon fill="midnightblue" stroke="midnightblue" points="796.44,-236.6 806.87,-234.73 797.55,-229.69 796.44,-236.6"/>
</g>
<!-- Node34 -->
<g id="node34" class="node">
<title>Node34</title>
<g id="a_node34"><a xlink:href="a00467.xhtml#a2d2fa880b32c7087973ed25628002129" target="_top" xlink:title=" ">
<polygon fill="white" stroke="black" points="682,-250.5 682,-269.5 771,-269.5 771,-250.5 682,-250.5"/>
<text text-anchor="middle" x="726.5" y="-257.5" font-family="Helvetica,sans-Serif" font-size="10.00">CFft::compInvFft</text>
</a>
</g>
</g>
<!-- Node1&#45;&gt;Node34 -->
<g id="edge36" class="edge">
<title>Node1&#45;&gt;Node34</title>
<path fill="none" stroke="midnightblue" d="M796.97,-248.86C788.39,-250.24 779.51,-251.66 771.09,-253.01"/>
<polygon fill="midnightblue" stroke="midnightblue" points="797.55,-252.31 806.87,-247.27 796.44,-245.4 797.55,-252.31"/>
</g>
<!-- Node35 -->
<g id="node35" class="node">
<title>Node35</title>
<g id="a_node35"><a xlink:href="a00611.xhtml#a8fe90e9d8120bb265e6bc7d5f2766c30" target="_top" xlink:title=" ">
<polygon fill="white" stroke="black" points="697.5,-174.5 697.5,-193.5 755.5,-193.5 755.5,-174.5 697.5,-174.5"/>
<text text-anchor="middle" x="726.5" y="-181.5" font-family="Helvetica,sans-Serif" font-size="10.00">CKnn::init</text>
</a>
</g>
</g>
<!-- Node1&#45;&gt;Node35 -->
<g id="edge38" class="edge">
<title>Node1&#45;&gt;Node35</title>
<path fill="none" stroke="midnightblue" d="M818.78,-226.74C804.62,-219.44 786.99,-210.53 771,-203 764.29,-199.84 756.92,-196.55 750.19,-193.62"/>
<polygon fill="midnightblue" stroke="midnightblue" points="817.47,-230 827.96,-231.49 820.69,-223.78 817.47,-230"/>
</g>
<!-- Node4 -->
<g id="node4" class="node">
<title>Node4</title>
<g id="a_node4"><a xlink:href="a00447.xhtml#a58a9a3d685f448ced2e843a60028e472" target="_top" xlink:title=" ">
<polygon fill="white" stroke="black" points="74,-304.5 74,-323.5 219,-323.5 219,-304.5 74,-304.5"/>
<text text-anchor="middle" x="146.5" y="-311.5" font-family="Helvetica,sans-Serif" font-size="10.00">CBeatHistoIf::compBeatHisto</text>
</a>
</g>
</g>
<!-- Node3&#45;&gt;Node4 -->
<g id="edge3" class="edge">
<title>Node3&#45;&gt;Node4</title>
<path fill="none" stroke="midnightblue" d="M688.51,-236.49C686.23,-237.89 684.04,-239.39 682,-241 661.09,-257.55 669.55,-276.48 646,-289 574.08,-327.24 338.95,-322.8 219.11,-317.74"/>
<polygon fill="midnightblue" stroke="midnightblue" points="690.43,-239.43 697.6,-231.63 687.13,-233.26 690.43,-239.43"/>
</g>
<!-- Node6 -->
<g id="node6" class="node">
<title>Node6</title>
<g id="a_node6"><a xlink:href="a00539.xhtml#a4d7d19dd39b24147d9a1fab5d7e05257" target="_top" xlink:title=" ">
<polygon fill="white" stroke="black" points="520,-386.5 520,-405.5 602,-405.5 602,-386.5 520,-386.5"/>
<text text-anchor="middle" x="561" y="-393.5" font-family="Helvetica,sans-Serif" font-size="10.00">CCcf::compCcf</text>
</a>
</g>
</g>
<!-- Node3&#45;&gt;Node6 -->
<g id="edge5" class="edge">
<title>Node3&#45;&gt;Node6</title>
<path fill="none" stroke="midnightblue" d="M686.49,-237.05C684.89,-238.27 683.38,-239.59 682,-241 652.7,-270.88 671.03,-294.47 646,-328 627.14,-353.26 596.86,-374.65 578.27,-386.37"/>
<polygon fill="midnightblue" stroke="midnightblue" points="688.43,-239.96 695.03,-231.68 684.7,-234.04 688.43,-239.96"/>
</g>
<!-- Node11 -->
<g id="node11" class="node">
<title>Node11</title>
<g id="a_node11"><a xlink:href="a00451.xhtml#ab7ff18d1911b7a8792536daad8cf0dd9" target="_top" xlink:title=" ">
<polygon fill="white" stroke="black" points="479.5,-155.5 479.5,-174.5 642.5,-174.5 642.5,-155.5 479.5,-155.5"/>
<text text-anchor="middle" x="561" y="-162.5" font-family="Helvetica,sans-Serif" font-size="10.00">CChordIf::computeMagSpectrum_</text>
</a>
</g>
</g>
<!-- Node3&#45;&gt;Node11 -->
<g id="edge11" class="edge">
<title>Node3&#45;&gt;Node11</title>
<path fill="none" stroke="midnightblue" d="M688.42,-209.07C658.33,-198.58 616.6,-184.04 589.46,-174.57"/>
<polygon fill="midnightblue" stroke="midnightblue" points="687.54,-212.47 698.13,-212.46 689.84,-205.86 687.54,-212.47"/>
</g>
<!-- Node14 -->
<g id="node14" class="node">
<title>Node14</title>
<g id="a_node14"><a xlink:href="a00459.xhtml#a7aef37fcf40e80cbace42fe663f47bbd" target="_top" xlink:title=" ">
<polygon fill="white" stroke="black" points="476,-114.5 476,-133.5 646,-133.5 646,-114.5 476,-114.5"/>
<text text-anchor="middle" x="561" y="-121.5" font-family="Helvetica,sans-Serif" font-size="10.00">CFeatureIf::computeMagSpectrum_</text>
</a>
</g>
</g>
<!-- Node3&#45;&gt;Node14 -->
<g id="edge14" class="edge">
<title>Node3&#45;&gt;Node14</title>
<path fill="none" stroke="midnightblue" d="M688.17,-207.57C685.99,-206.17 683.91,-204.64 682,-203 659.27,-183.48 670.18,-163.7 646,-146 638.7,-140.66 630.21,-136.61 621.48,-133.55"/>
<polygon fill="midnightblue" stroke="midnightblue" points="686.47,-210.63 696.91,-212.44 689.87,-204.52 686.47,-210.63"/>
</g>
<!-- Node20 -->
<g id="node20" class="node">
<title>Node20</title>
<g id="a_node20"><a xlink:href="a00507.xhtml#a9018f2beabd03a9b41d90bde402aa227" target="_top" xlink:title=" ">
<polygon fill="white" stroke="black" points="476,-260.5 476,-279.5 646,-279.5 646,-260.5 476,-260.5"/>
<text text-anchor="middle" x="561" y="-267.5" font-family="Helvetica,sans-Serif" font-size="10.00">CNoveltyIf::computeMagSpectrum_</text>
</a>
</g>
</g>
<!-- Node3&#45;&gt;Node20 -->
<g id="edge21" class="edge">
<title>Node3&#45;&gt;Node20</title>
<path fill="none" stroke="midnightblue" d="M684.58,-234.48C672.19,-238.22 658.55,-242.31 646,-246 629.56,-250.83 611.26,-256.07 595.96,-260.42"/>
<polygon fill="midnightblue" stroke="midnightblue" points="685.64,-237.82 694.19,-231.57 683.61,-231.12 685.64,-237.82"/>
</g>
<!-- Node23 -->
<g id="node23" class="node">
<title>Node23</title>
<g id="a_node23"><a xlink:href="a00515.xhtml#aa988c75557f8281271467b000a1a1d54" target="_top" xlink:title=" ">
<polygon fill="white" stroke="black" points="481,-68.5 481,-87.5 641,-87.5 641,-68.5 481,-68.5"/>
<text text-anchor="middle" x="561" y="-75.5" font-family="Helvetica,sans-Serif" font-size="10.00">CPitchIf::computeMagSpectrum_</text>
</a>
</g>
</g>
<!-- Node3&#45;&gt;Node23 -->
<g id="edge25" class="edge">
<title>Node3&#45;&gt;Node23</title>
<path fill="none" stroke="midnightblue" d="M686.42,-207.02C684.84,-205.78 683.36,-204.44 682,-203 650.18,-169.22 679.48,-137.13 646,-105 637.82,-97.15 627.35,-91.58 616.6,-87.63"/>
<polygon fill="midnightblue" stroke="midnightblue" points="684.59,-210 694.9,-212.45 688.36,-204.11 684.59,-210"/>
</g>
<!-- Node26 -->
<g id="node26" class="node">
<title>Node26</title>
<g id="a_node26"><a xlink:href="a00547.xhtml#a4811d2eb7c2a5fd5f49b043205865222" target="_top" xlink:title=" ">
<polygon fill="white" stroke="black" points="496,-3 496,-33 626,-33 626,-3 496,-3"/>
<text text-anchor="start" x="504" y="-21" font-family="Helvetica,sans-Serif" font-size="10.00">CFingerprint::computeMag</text>
<text text-anchor="middle" x="561" y="-10" font-family="Helvetica,sans-Serif" font-size="10.00">Spectrum_</text>
</a>
</g>
</g>
<!-- Node3&#45;&gt;Node26 -->
<g id="edge28" class="edge">
<title>Node3&#45;&gt;Node26</title>
<path fill="none" stroke="midnightblue" d="M685.24,-206.33C684.08,-205.29 683,-204.18 682,-203 639.4,-152.63 687.52,-110.26 646,-59 636.81,-47.65 623.7,-39.21 610.56,-33.05"/>
<polygon fill="midnightblue" stroke="midnightblue" points="683.48,-209.37 693.66,-212.28 687.51,-203.65 683.48,-209.37"/>
</g>
<!-- Node29 -->
<g id="node29" class="node">
<title>Node29</title>
<g id="a_node29"><a xlink:href="a00523.xhtml#abe25089ec6ef77b0b9952c33a7a8d739" target="_top" xlink:title=" ">
<polygon fill="white" stroke="black" points="488,-207 488,-237 634,-237 634,-207 488,-207"/>
<text text-anchor="start" x="496" y="-225" font-family="Helvetica,sans-Serif" font-size="10.00">CSpectrogramIf::computeMag</text>
<text text-anchor="middle" x="561" y="-214" font-family="Helvetica,sans-Serif" font-size="10.00">Spectrum_</text>
</a>
</g>
</g>
<!-- Node3&#45;&gt;Node29 -->
<g id="edge31" class="edge">
<title>Node3&#45;&gt;Node29</title>
<path fill="none" stroke="midnightblue" d="M678.2,-222C664.42,-222 649.03,-222 634.08,-222"/>
<polygon fill="midnightblue" stroke="midnightblue" points="678.4,-225.5 688.4,-222 678.4,-218.5 678.4,-225.5"/>
</g>
<!-- Node5 -->
<g id="node5" class="node">
<title>Node5</title>
<g id="a_node5"><a xlink:href="a00017.xhtml#a0ddf1224851353fc92bfbff6f499fa97" target="_top" xlink:title=" ">
<polygon fill="white" stroke="black" points="0,-304.5 0,-323.5 38,-323.5 38,-304.5 0,-304.5"/>
<text text-anchor="middle" x="19" y="-311.5" font-family="Helvetica,sans-Serif" font-size="10.00">main</text>
</a>
</g>
</g>
<!-- Node4&#45;&gt;Node5 -->
<g id="edge4" class="edge">
<title>Node4&#45;&gt;Node5</title>
<path fill="none" stroke="midnightblue" d="M63.88,-314C54.4,-314 45.55,-314 38.32,-314"/>
<polygon fill="midnightblue" stroke="midnightblue" points="63.95,-317.5 73.95,-314 63.95,-310.5 63.95,-317.5"/>
</g>
<!-- Node6&#45;&gt;Node4 -->
<g id="edge6" class="edge">
<title>Node6&#45;&gt;Node4</title>
<path fill="none" stroke="midnightblue" d="M509.83,-385.95C488.33,-381.64 462.93,-376.57 440,-372 353.94,-354.86 253.61,-334.99 195.64,-323.52"/>
<polygon fill="midnightblue" stroke="midnightblue" points="509.24,-389.4 519.73,-387.93 510.61,-382.53 509.24,-389.4"/>
</g>
<!-- Node7 -->
<g id="node7" class="node">
<title>Node7</title>
<g id="a_node7"><a xlink:href="a00375.xhtml#a250792b516c76c54251534a33c17bea8" target="_top" xlink:title=" ">
<polygon fill="white" stroke="black" points="297,-518 297,-548 398,-548 398,-518 297,-518"/>
<text text-anchor="start" x="305" y="-536" font-family="Helvetica,sans-Serif" font-size="10.00">CPitchSpectralAcf::</text>
<text text-anchor="middle" x="347.5" y="-525" font-family="Helvetica,sans-Serif" font-size="10.00">compF0</text>
</a>
</g>
</g>
<!-- Node6&#45;&gt;Node7 -->
<g id="edge7" class="edge">
<title>Node6&#45;&gt;Node7</title>
<path fill="none" stroke="midnightblue" d="M546.02,-413.6C525.42,-438.34 484.53,-483.16 440,-508 427.2,-515.14 412.24,-520.34 398.17,-524.08"/>
<polygon fill="midnightblue" stroke="midnightblue" points="548.82,-415.71 552.43,-405.75 543.39,-411.28 548.82,-415.71"/>
</g>
<!-- Node8 -->
<g id="node8" class="node">
<title>Node8</title>
<g id="a_node8"><a xlink:href="a00383.xhtml#a7b6c2a935434281c2e17352a3487c912" target="_top" xlink:title=" ">
<polygon fill="white" stroke="black" points="286.5,-479.5 286.5,-498.5 408.5,-498.5 408.5,-479.5 286.5,-479.5"/>
<text text-anchor="middle" x="347.5" y="-486.5" font-family="Helvetica,sans-Serif" font-size="10.00">CPitchTimeAcf::compF0</text>
</a>
</g>
</g>
<!-- Node6&#45;&gt;Node8 -->
<g id="edge8" class="edge">
<title>Node6&#45;&gt;Node8</title>
<path fill="none" stroke="midnightblue" d="M539.55,-411.72C516.57,-428.62 477.54,-455.06 440,-470 430.2,-473.9 419.48,-477.04 408.94,-479.56"/>
<polygon fill="midnightblue" stroke="midnightblue" points="541.9,-414.33 547.81,-405.54 537.71,-408.73 541.9,-414.33"/>
</g>
<!-- Node9 -->
<g id="node9" class="node">
<title>Node9</title>
<g id="a_node9"><a xlink:href="a00387.xhtml#a7fa2c23a2108dc313f319ec803a6181f" target="_top" xlink:title=" ">
<polygon fill="white" stroke="black" points="296,-430 296,-460 399,-460 399,-430 296,-430"/>
<text text-anchor="start" x="304" y="-448" font-family="Helvetica,sans-Serif" font-size="10.00">CPitchTimeAuditory</text>
<text text-anchor="middle" x="347.5" y="-437" font-family="Helvetica,sans-Serif" font-size="10.00">::compF0</text>
</a>
</g>
</g>
<!-- Node6&#45;&gt;Node9 -->
<g id="edge9" class="edge">
<title>Node6&#45;&gt;Node9</title>
<path fill="none" stroke="midnightblue" d="M509.7,-407.65C476.29,-415.39 432.57,-425.52 399.09,-433.28"/>
<polygon fill="midnightblue" stroke="midnightblue" points="510.77,-411 519.72,-405.33 509.19,-404.18 510.77,-411"/>
</g>
<!-- Node10 -->
<g id="node10" class="node">
<title>Node10</title>
<g id="a_node10"><a xlink:href="a00347.xhtml#af20724e23d18c1126e2edf4186cc8005" target="_top" xlink:title=" ">
<polygon fill="white" stroke="black" points="292,-381 292,-411 403,-411 403,-381 292,-381"/>
<text text-anchor="start" x="300" y="-399" font-family="Helvetica,sans-Serif" font-size="10.00">CFeatureTimeMaxAcf</text>
<text text-anchor="middle" x="347.5" y="-388" font-family="Helvetica,sans-Serif" font-size="10.00">::compFeature</text>
</a>
</g>
</g>
<!-- Node6&#45;&gt;Node10 -->
<g id="edge10" class="edge">
<title>Node6&#45;&gt;Node10</title>
<path fill="none" stroke="midnightblue" d="M509.65,-396C477.53,-396 435.91,-396 403.01,-396"/>
<polygon fill="midnightblue" stroke="midnightblue" points="509.72,-399.5 519.72,-396 509.72,-392.5 509.72,-399.5"/>
</g>
<!-- Node12 -->
<g id="node12" class="node">
<title>Node12</title>
<g id="a_node12"><a xlink:href="a00451.xhtml#a463c7570302112f307363ec1c7260221" target="_top" xlink:title=" ">
<polygon fill="white" stroke="black" points="290.5,-152.5 290.5,-171.5 404.5,-171.5 404.5,-152.5 290.5,-152.5"/>
<text text-anchor="middle" x="347.5" y="-159.5" font-family="Helvetica,sans-Serif" font-size="10.00">CChordIf::compChords</text>
</a>
</g>
</g>
<!-- Node11&#45;&gt;Node12 -->
<g id="edge12" class="edge">
<title>Node11&#45;&gt;Node12</title>
<path fill="none" stroke="midnightblue" d="M469.39,-163.71C447.36,-163.4 424.44,-163.08 404.55,-162.79"/>
<polygon fill="midnightblue" stroke="midnightblue" points="469.39,-167.21 479.44,-163.86 469.49,-160.22 469.39,-167.21"/>
</g>
<!-- Node13 -->
<g id="node13" class="node">
<title>Node13</title>
<g id="a_node13"><a xlink:href="a00023.xhtml#a0ddf1224851353fc92bfbff6f499fa97" target="_top" xlink:title=" ">
<polygon fill="white" stroke="black" points="127.5,-152.5 127.5,-171.5 165.5,-171.5 165.5,-152.5 127.5,-152.5"/>
<text text-anchor="middle" x="146.5" y="-159.5" font-family="Helvetica,sans-Serif" font-size="10.00">main</text>
</a>
</g>
</g>
<!-- Node12&#45;&gt;Node13 -->
<g id="edge13" class="edge">
<title>Node12&#45;&gt;Node13</title>
<path fill="none" stroke="midnightblue" d="M280.25,-162C240.08,-162 191.74,-162 165.91,-162"/>
<polygon fill="midnightblue" stroke="midnightblue" points="280.27,-165.5 290.27,-162 280.27,-158.5 280.27,-165.5"/>
</g>
<!-- Node15 -->
<g id="node15" class="node">
<title>Node15</title>
<g id="a_node15"><a xlink:href="a00459.xhtml#a30248aa1fb336095d4d86d0bd3d2bdb8" target="_top" xlink:title=" ">
<polygon fill="white" stroke="black" points="274.5,-114.5 274.5,-133.5 420.5,-133.5 420.5,-114.5 274.5,-114.5"/>
<text text-anchor="middle" x="347.5" y="-121.5" font-family="Helvetica,sans-Serif" font-size="10.00">CFeatureIf::compFeature1Dim</text>
</a>
</g>
</g>
<!-- Node14&#45;&gt;Node15 -->
<g id="edge15" class="edge">
<title>Node14&#45;&gt;Node15</title>
<path fill="none" stroke="midnightblue" d="M465.49,-124C450.49,-124 435.19,-124 420.81,-124"/>
<polygon fill="midnightblue" stroke="midnightblue" points="465.8,-127.5 475.8,-124 465.8,-120.5 465.8,-127.5"/>
</g>
<!-- Node17 -->
<g id="node17" class="node">
<title>Node17</title>
<g id="a_node17"><a xlink:href="a00459.xhtml#ad734d1e300583449f51e6ca80aa3e7b8" target="_top" xlink:title=" ">
<polygon fill="white" stroke="black" points="273,-76.5 273,-95.5 422,-95.5 422,-76.5 273,-76.5"/>
<text text-anchor="middle" x="347.5" y="-83.5" font-family="Helvetica,sans-Serif" font-size="10.00">CFeatureIf::compFeatureNDim</text>
</a>
</g>
</g>
<!-- Node14&#45;&gt;Node17 -->
<g id="edge17" class="edge">
<title>Node14&#45;&gt;Node17</title>
<path fill="none" stroke="midnightblue" d="M496.85,-112.65C466.5,-107.2 430.54,-100.74 401.62,-95.54"/>
<polygon fill="midnightblue" stroke="midnightblue" points="496.44,-116.14 506.9,-114.46 497.68,-109.25 496.44,-116.14"/>
</g>
<!-- Node16 -->
<g id="node16" class="node">
<title>Node16</title>
<g id="a_node16"><a xlink:href="a00002.xhtml#a0ddf1224851353fc92bfbff6f499fa97" target="_top" xlink:title=" ">
<polygon fill="white" stroke="black" points="127.5,-114.5 127.5,-133.5 165.5,-133.5 165.5,-114.5 127.5,-114.5"/>
<text text-anchor="middle" x="146.5" y="-121.5" font-family="Helvetica,sans-Serif" font-size="10.00">main</text>
</a>
</g>
</g>
<!-- Node15&#45;&gt;Node16 -->
<g id="edge16" class="edge">
<title>Node15&#45;&gt;Node16</title>
<path fill="none" stroke="midnightblue" d="M264.22,-124C227.86,-124 188.34,-124 165.88,-124"/>
<polygon fill="midnightblue" stroke="midnightblue" points="264.38,-127.5 274.38,-124 264.38,-120.5 264.38,-127.5"/>
</g>
<!-- Node17&#45;&gt;Node16 -->
<g id="edge20" class="edge">
<title>Node17&#45;&gt;Node16</title>
<path fill="none" stroke="midnightblue" d="M286.54,-97.45C245.15,-105.35 192.84,-115.34 165.7,-120.52"/>
<polygon fill="midnightblue" stroke="midnightblue" points="287.37,-100.85 296.54,-95.54 286.06,-93.98 287.37,-100.85"/>
</g>
<!-- Node18 -->
<g id="node18" class="node">
<title>Node18</title>
<g id="a_node18"><a xlink:href="a00499.xhtml#a343e6b52e9696244dd57d4db0f91d056" target="_top" xlink:title=" ">
<polygon fill="white" stroke="black" points="104,-76.5 104,-95.5 189,-95.5 189,-76.5 104,-76.5"/>
<text text-anchor="middle" x="146.5" y="-83.5" font-family="Helvetica,sans-Serif" font-size="10.00">CKey::compKey</text>
</a>
</g>
</g>
<!-- Node17&#45;&gt;Node18 -->
<g id="edge18" class="edge">
<title>Node17&#45;&gt;Node18</title>
<path fill="none" stroke="midnightblue" d="M262.93,-86C237.51,-86 210.66,-86 189.26,-86"/>
<polygon fill="midnightblue" stroke="midnightblue" points="262.97,-89.5 272.97,-86 262.97,-82.5 262.97,-89.5"/>
</g>
<!-- Node19 -->
<g id="node19" class="node">
<title>Node19</title>
<g id="a_node19"><a xlink:href="a00026.xhtml#a0ddf1224851353fc92bfbff6f499fa97" target="_top" xlink:title=" ">
<polygon fill="white" stroke="black" points="0,-76.5 0,-95.5 38,-95.5 38,-76.5 0,-76.5"/>
<text text-anchor="middle" x="19" y="-83.5" font-family="Helvetica,sans-Serif" font-size="10.00">main</text>
</a>
</g>
</g>
<!-- Node18&#45;&gt;Node19 -->
<g id="edge19" class="edge">
<title>Node18&#45;&gt;Node19</title>
<path fill="none" stroke="midnightblue" d="M93.58,-86C73.88,-86 52.71,-86 38.16,-86"/>
<polygon fill="midnightblue" stroke="midnightblue" points="93.71,-89.5 103.71,-86 93.71,-82.5 93.71,-89.5"/>
</g>
<!-- Node21 -->
<g id="node21" class="node">
<title>Node21</title>
<g id="a_node21"><a xlink:href="a00507.xhtml#a9f110985f86064fa24aa3157bfd5cab0" target="_top" xlink:title=" ">
<polygon fill="white" stroke="black" points="285.5,-266.5 285.5,-285.5 409.5,-285.5 409.5,-266.5 285.5,-266.5"/>
<text text-anchor="middle" x="347.5" y="-273.5" font-family="Helvetica,sans-Serif" font-size="10.00">CNoveltyIf::compNovelty</text>
</a>
</g>
</g>
<!-- Node20&#45;&gt;Node21 -->
<g id="edge22" class="edge">
<title>Node20&#45;&gt;Node21</title>
<path fill="none" stroke="midnightblue" d="M465.62,-272.68C446.61,-273.22 427.11,-273.77 409.6,-274.27"/>
<polygon fill="midnightblue" stroke="midnightblue" points="465.91,-276.17 475.8,-272.39 465.71,-269.17 465.91,-276.17"/>
</g>
<!-- Node21&#45;&gt;Node4 -->
<g id="edge23" class="edge">
<title>Node21&#45;&gt;Node4</title>
<path fill="none" stroke="midnightblue" d="M286.71,-287.42C258.23,-292.86 224.57,-299.28 197.48,-304.46"/>
<polygon fill="midnightblue" stroke="midnightblue" points="287.37,-290.85 296.54,-285.54 286.06,-283.98 287.37,-290.85"/>
</g>
<!-- Node22 -->
<g id="node22" class="node">
<title>Node22</title>
<g id="a_node22"><a xlink:href="a00029.xhtml#a0ddf1224851353fc92bfbff6f499fa97" target="_top" xlink:title=" ">
<polygon fill="white" stroke="black" points="127.5,-266.5 127.5,-285.5 165.5,-285.5 165.5,-266.5 127.5,-266.5"/>
<text text-anchor="middle" x="146.5" y="-273.5" font-family="Helvetica,sans-Serif" font-size="10.00">main</text>
</a>
</g>
</g>
<!-- Node21&#45;&gt;Node22 -->
<g id="edge24" class="edge">
<title>Node21&#45;&gt;Node22</title>
<path fill="none" stroke="midnightblue" d="M275.13,-276C236.03,-276 190.61,-276 165.88,-276"/>
<polygon fill="midnightblue" stroke="midnightblue" points="275.44,-279.5 285.44,-276 275.44,-272.5 275.44,-279.5"/>
</g>
<!-- Node24 -->
<g id="node24" class="node">
<title>Node24</title>
<g id="a_node24"><a xlink:href="a00515.xhtml#a5c6fea7fdc8067f1d6a116b86d543aa1" target="_top" xlink:title=" ">
<polygon fill="white" stroke="black" points="301.5,-38.5 301.5,-57.5 393.5,-57.5 393.5,-38.5 301.5,-38.5"/>
<text text-anchor="middle" x="347.5" y="-45.5" font-family="Helvetica,sans-Serif" font-size="10.00">CPitchIf::compF0</text>
</a>
</g>
</g>
<!-- Node23&#45;&gt;Node24 -->
<g id="edge26" class="edge">
<title>Node23&#45;&gt;Node24</title>
<path fill="none" stroke="midnightblue" d="M482.79,-67.05C452.9,-62.81 419.71,-58.1 393.81,-54.43"/>
<polygon fill="midnightblue" stroke="midnightblue" points="482.4,-70.53 492.79,-68.47 483.38,-63.6 482.4,-70.53"/>
</g>
<!-- Node25 -->
<g id="node25" class="node">
<title>Node25</title>
<g id="a_node25"><a xlink:href="a00116.xhtml#a0ddf1224851353fc92bfbff6f499fa97" target="_top" xlink:title=" ">
<polygon fill="white" stroke="black" points="127.5,-38.5 127.5,-57.5 165.5,-57.5 165.5,-38.5 127.5,-38.5"/>
<text text-anchor="middle" x="146.5" y="-45.5" font-family="Helvetica,sans-Serif" font-size="10.00">main</text>
</a>
</g>
</g>
<!-- Node24&#45;&gt;Node25 -->
<g id="edge27" class="edge">
<title>Node24&#45;&gt;Node25</title>
<path fill="none" stroke="midnightblue" d="M291.23,-48C249.15,-48 193.81,-48 165.66,-48"/>
<polygon fill="midnightblue" stroke="midnightblue" points="291.34,-51.5 301.34,-48 291.34,-44.5 291.34,-51.5"/>
</g>
<!-- Node27 -->
<g id="node27" class="node">
<title>Node27</title>
<g id="a_node27"><a xlink:href="a00547.xhtml#afc0be480801465a0751b8c74806bf590" target="_top" xlink:title=" ">
<polygon fill="white" stroke="black" points="276,-0.5 276,-19.5 419,-19.5 419,-0.5 276,-0.5"/>
<text text-anchor="middle" x="347.5" y="-7.5" font-family="Helvetica,sans-Serif" font-size="10.00">CFingerprint::compFingerprint</text>
</a>
</g>
</g>
<!-- Node26&#45;&gt;Node27 -->
<g id="edge29" class="edge">
<title>Node26&#45;&gt;Node27</title>
<path fill="none" stroke="midnightblue" d="M485.87,-15.2C464.26,-14.38 440.72,-13.49 419.33,-12.68"/>
<polygon fill="midnightblue" stroke="midnightblue" points="485.84,-18.7 495.97,-15.58 486.11,-11.7 485.84,-18.7"/>
</g>
<!-- Node28 -->
<g id="node28" class="node">
<title>Node28</title>
<g id="a_node28"><a xlink:href="a00020.xhtml#a0ddf1224851353fc92bfbff6f499fa97" target="_top" xlink:title=" ">
<polygon fill="white" stroke="black" points="127.5,-0.5 127.5,-19.5 165.5,-19.5 165.5,-0.5 127.5,-0.5"/>
<text text-anchor="middle" x="146.5" y="-7.5" font-family="Helvetica,sans-Serif" font-size="10.00">main</text>
</a>
</g>
</g>
<!-- Node27&#45;&gt;Node28 -->
<g id="edge30" class="edge">
<title>Node27&#45;&gt;Node28</title>
<path fill="none" stroke="midnightblue" d="M265.51,-10C228.72,-10 188.44,-10 165.73,-10"/>
<polygon fill="midnightblue" stroke="midnightblue" points="265.78,-13.5 275.78,-10 265.78,-6.5 265.78,-13.5"/>
</g>
<!-- Node30 -->
<g id="node30" class="node">
<title>Node30</title>
<g id="a_node30"><a xlink:href="a00523.xhtml#ae89af275cdd54029bbf7f0f25ddf7945" target="_top" xlink:title=" ">
<polygon fill="white" stroke="black" points="255,-228.5 255,-247.5 440,-247.5 440,-228.5 255,-228.5"/>
<text text-anchor="middle" x="347.5" y="-235.5" font-family="Helvetica,sans-Serif" font-size="10.00">CSpectrogramIf::compMelSpectrogram</text>
</a>
</g>
</g>
<!-- Node29&#45;&gt;Node30 -->
<g id="edge32" class="edge">
<title>Node29&#45;&gt;Node30</title>
<path fill="none" stroke="midnightblue" d="M477.62,-228.23C465.35,-229.16 452.64,-230.12 440.19,-231.06"/>
<polygon fill="midnightblue" stroke="midnightblue" points="478.1,-231.71 487.81,-227.46 477.57,-224.73 478.1,-231.71"/>
</g>
<!-- Node32 -->
<g id="node32" class="node">
<title>Node32</title>
<g id="a_node32"><a xlink:href="a00523.xhtml#ae041a770ec2b092761d9a88cc87946bb" target="_top" xlink:title=" ">
<polygon fill="white" stroke="black" points="263,-190.5 263,-209.5 432,-209.5 432,-190.5 263,-190.5"/>
<text text-anchor="middle" x="347.5" y="-197.5" font-family="Helvetica,sans-Serif" font-size="10.00">CSpectrogramIf::compSpectrogram</text>
</a>
</g>
</g>
<!-- Node29&#45;&gt;Node32 -->
<g id="edge34" class="edge">
<title>Node29&#45;&gt;Node32</title>
<path fill="none" stroke="midnightblue" d="M477.57,-213.43C462.62,-211.87 447.01,-210.25 432.02,-208.69"/>
<polygon fill="midnightblue" stroke="midnightblue" points="477.5,-216.94 487.81,-214.49 478.22,-209.97 477.5,-216.94"/>
</g>
<!-- Node31 -->
<g id="node31" class="node">
<title>Node31</title>
<g id="a_node31"><a xlink:href="a00113.xhtml#a0ddf1224851353fc92bfbff6f499fa97" target="_top" xlink:title=" ">
<polygon fill="white" stroke="black" points="127.5,-228.5 127.5,-247.5 165.5,-247.5 165.5,-228.5 127.5,-228.5"/>
<text text-anchor="middle" x="146.5" y="-235.5" font-family="Helvetica,sans-Serif" font-size="10.00">main</text>
</a>
</g>
</g>
<!-- Node30&#45;&gt;Node31 -->
<g id="edge33" class="edge">
<title>Node30&#45;&gt;Node31</title>
<path fill="none" stroke="midnightblue" d="M244.59,-238C214.27,-238 184.24,-238 165.79,-238"/>
<polygon fill="midnightblue" stroke="midnightblue" points="244.86,-241.5 254.86,-238 244.86,-234.5 244.86,-241.5"/>
</g>
<!-- Node33 -->
<g id="node33" class="node">
<title>Node33</title>
<g id="a_node33"><a xlink:href="a00014.xhtml#a0ddf1224851353fc92bfbff6f499fa97" target="_top" xlink:title=" ">
<polygon fill="white" stroke="black" points="127.5,-190.5 127.5,-209.5 165.5,-209.5 165.5,-190.5 127.5,-190.5"/>
<text text-anchor="middle" x="146.5" y="-197.5" font-family="Helvetica,sans-Serif" font-size="10.00">main</text>
</a>
</g>
</g>
<!-- Node32&#45;&gt;Node33 -->
<g id="edge35" class="edge">
<title>Node32&#45;&gt;Node33</title>
<path fill="none" stroke="midnightblue" d="M252.74,-200C219.63,-200 185.68,-200 165.59,-200"/>
<polygon fill="midnightblue" stroke="midnightblue" points="252.97,-203.5 262.97,-200 252.97,-196.5 252.97,-203.5"/>
</g>
<!-- Node34&#45;&gt;Node6 -->
<g id="edge37" class="edge">
<title>Node34&#45;&gt;Node6</title>
<path fill="none" stroke="midnightblue" d="M688.49,-274.47C686.21,-275.87 684.03,-277.38 682,-279 660.89,-295.88 664.66,-308.45 646,-328 623.72,-351.35 593.46,-374.02 576,-386.38"/>
<polygon fill="midnightblue" stroke="midnightblue" points="690.41,-277.41 697.57,-269.59 687.1,-271.24 690.41,-277.41"/>
</g>
</g>
</svg>
