<?xml version="1.0" encoding="UTF-8" standalone="no"?>
<!DOCTYPE svg PUBLIC "-//W3C//DTD SVG 1.1//EN"
 "http://www.w3.org/Graphics/SVG/1.1/DTD/svg11.dtd">
<!-- Generated by graphviz version 4.0.0 (20220602.1335)
 -->
<!-- Title: CAudioFileIf::getLength Pages: 1 -->
<svg width="401pt" height="104pt"
 viewBox="0.00 0.00 401.00 104.00" xmlns="http://www.w3.org/2000/svg" xmlns:xlink="http://www.w3.org/1999/xlink">
<g id="graph0" class="graph" transform="scale(1 1) rotate(0) translate(4 100)">
<title>CAudioFileIf::getLength</title>
<polygon fill="white" stroke="transparent" points="-4,4 -4,-100 397,-100 397,4 -4,4"/>
<!-- Node1 -->
<g id="node1" class="node">
<title>Node1</title>
<g id="a_node1"><a xlink:title=" ">
<polygon fill="#bfbfbf" stroke="black" points="275,-38.5 275,-57.5 393,-57.5 393,-38.5 275,-38.5"/>
<text text-anchor="middle" x="334" y="-45.5" font-family="Helvetica,sans-Serif" font-size="10.00">CAudioFileIf::getLength</text>
</a>
</g>
</g>
<!-- Node2 -->
<g id="node2" class="node">
<title>Node2</title>
<g id="a_node2"><a xlink:href="a00416.xhtml#ae12716ee8473becf462624698243f761" target="_top" xlink:title=" ">
<polygon fill="white" stroke="black" points="74,-76.5 74,-95.5 239,-95.5 239,-76.5 74,-76.5"/>
<text text-anchor="middle" x="156.5" y="-83.5" font-family="Helvetica,sans-Serif" font-size="10.00">CBlockAudioFile::CBlockAudioFile</text>
</a>
</g>
</g>
<!-- Node1&#45;&gt;Node2 -->
<g id="edge1" class="edge">
<title>Node1&#45;&gt;Node2</title>
<path fill="none" stroke="midnightblue" d="M278.72,-59.75C253.91,-65.13 224.89,-71.41 201.47,-76.48"/>
<polygon fill="midnightblue" stroke="midnightblue" points="279.68,-63.13 288.71,-57.59 278.2,-56.28 279.68,-63.13"/>
</g>
<!-- Node3 -->
<g id="node3" class="node">
<title>Node3</title>
<g id="a_node3"><a xlink:href="a00448.xhtml#a4d0a345774116c1dd0581603bd99a9a9" target="_top" xlink:title=" ">
<polygon fill="white" stroke="black" points="97.5,-38.5 97.5,-57.5 215.5,-57.5 215.5,-38.5 97.5,-38.5"/>
<text text-anchor="middle" x="156.5" y="-45.5" font-family="Helvetica,sans-Serif" font-size="10.00">CAudioFileIf::getLength</text>
</a>
</g>
</g>
<!-- Node1&#45;&gt;Node3 -->
<g id="edge2" class="edge">
<title>Node1&#45;&gt;Node3</title>
<path fill="none" stroke="midnightblue" d="M264.17,-48C248.13,-48 231.21,-48 215.68,-48"/>
<polygon fill="midnightblue" stroke="midnightblue" points="264.56,-51.5 274.56,-48 264.56,-44.5 264.56,-51.5"/>
</g>
<!-- Node4 -->
<g id="node4" class="node">
<title>Node4</title>
<g id="a_node4"><a xlink:href="a00560.xhtml#ab79f4706d42b250f36c91cfd075bc8df" target="_top" xlink:title=" ">
<polygon fill="white" stroke="black" points="113.5,-0.5 113.5,-19.5 199.5,-19.5 199.5,-0.5 113.5,-0.5"/>
<text text-anchor="middle" x="156.5" y="-7.5" font-family="Helvetica,sans-Serif" font-size="10.00">CFingerprint::init</text>
</a>
</g>
</g>
<!-- Node1&#45;&gt;Node4 -->
<g id="edge3" class="edge">
<title>Node1&#45;&gt;Node4</title>
<path fill="none" stroke="midnightblue" d="M278.83,-36.27C253.34,-30.75 223.41,-24.27 199.66,-19.13"/>
<polygon fill="midnightblue" stroke="midnightblue" points="278.2,-39.72 288.71,-38.41 279.68,-32.87 278.2,-39.72"/>
</g>
<!-- Node5 -->
<g id="node5" class="node">
<title>Node5</title>
<g id="a_node5"><a xlink:href="a00020.xhtml#a0ddf1224851353fc92bfbff6f499fa97" target="_top" xlink:title=" ">
<polygon fill="white" stroke="black" points="0,-0.5 0,-19.5 38,-19.5 38,-0.5 0,-0.5"/>
<text text-anchor="middle" x="19" y="-7.5" font-family="Helvetica,sans-Serif" font-size="10.00">main</text>
</a>
</g>
</g>
<!-- Node4&#45;&gt;Node5 -->
<g id="edge4" class="edge">
<title>Node4&#45;&gt;Node5</title>
<path fill="none" stroke="midnightblue" d="M103.09,-10C80.25,-10 54.95,-10 38.34,-10"/>
<polygon fill="midnightblue" stroke="midnightblue" points="103.37,-13.5 113.37,-10 103.37,-6.5 103.37,-13.5"/>
</g>
</g>
</svg>
