<?xml version="1.0" encoding="UTF-8" standalone="no"?>
<!DOCTYPE svg PUBLIC "-//W3C//DTD SVG 1.1//EN"
 "http://www.w3.org/Graphics/SVG/1.1/DTD/svg11.dtd">
<!-- Generated by graphviz version 6.0.1 (20220911.1526)
 -->
<!-- Title: CAudioFileRaw::openFile Pages: 1 -->
<!--zoomable 291 -->
<svg id="main" version="1.1" xmlns="http://www.w3.org/2000/svg" xmlns:xlink="http://www.w3.org/1999/xlink" xml:space="preserve" onload="init(evt)">
<style type="text/css"><![CDATA[
.edge:hover path { stroke: red; }
.edge:hover polygon { stroke: red; fill: red; }
]]></style>
<script type="text/javascript"><![CDATA[
var edges = document.getElementsByTagName('g');
if (edges && edges.length) {
  for (var i=0;i<edges.length;i++) {
    if (edges[i].id.substr(0,4)=='edge') {
      edges[i].setAttribute('class','edge');
    }
  }
}
]]></script>
        <defs>
                <circle id="rim" cx="0" cy="0" r="7"/>
                <circle id="rim2" cx="0" cy="0" r="3.5"/>
                <g id="zoomPlus">
                        <use xlink:href="#rim" fill="#404040">
                                <set attributeName="fill" to="#808080" begin="zoomplus.mouseover" end="zoomplus.mouseout"/>
                        </use>
                        <path d="M-4,0h8M0,-4v8" fill="none" stroke="white" stroke-width="1.5" pointer-events="none"/>
                </g>
                <g id="zoomMin">
                        <use xlink:href="#rim" fill="#404040">
                                <set attributeName="fill" to="#808080" begin="zoomminus.mouseover" end="zoomminus.mouseout"/>
                        </use>
                        <path d="M-4,0h8" fill="none" stroke="white" stroke-width="1.5" pointer-events="none"/>
                </g>
                <g id="dirArrow">
                        <path fill="none" stroke="white" stroke-width="1.5" d="M0,-3.0v7 M-2.5,-0.5L0,-3.0L2.5,-0.5"/>
                </g>
               <g id="resetDef">
                       <use xlink:href="#rim2" fill="#404040">
                               <set attributeName="fill" to="#808080" begin="reset.mouseover" end="reset.mouseout"/>
                       </use>
               </g>
        </defs>

<script type="text/javascript">
var viewWidth = 667;
var viewHeight = 291;
var sectionId = 'dynsection-13';
</script>
<script xlink:href="svgpan.js"/>
<svg id="graph" class="graph">
<g id="viewport">
<title>CAudioFileRaw::openFile</title>
<!-- Node1 -->
<g id="node1" class="node">
<title>Node1</title>
<g id="a_node1"><a xlink:title=" ">
<polygon fill="#999999" stroke="#666666" points="125,-113 0,-113 0,-94 125,-94 125,-113"/>
<text text-anchor="middle" x="62.5" y="-101" font-family="Helvetica,sans-Serif" font-size="10.00">CAudioFileRaw::openFile</text>
</a>
</g>
</g>
<!-- Node2 -->
<g id="node2" class="node">
<title>Node2</title>
<g id="a_node2"><a xlink:href="a00434.xhtml#a326a8699cda652412544ac2391326c64" target="_top" xlink:title=" ">
<polygon fill="white" stroke="#666666" points="309,-263 161,-263 161,-244 309,-244 309,-263"/>
<text text-anchor="middle" x="235" y="-251" font-family="Helvetica,sans-Serif" font-size="10.00">CAudioFileRaw::allocMemory_</text>
</a>
</g>
</g>
<!-- Node1&#45;&gt;Node2 -->
<g id="edge1" class="edge">
<title>Node1&#45;&gt;Node2</title>
<path fill="none" stroke="#63b8ff" d="M72.85,-113.21C89.84,-130.69 127.14,-168.35 161,-197.5 177.54,-211.74 197.22,-226.73 211.98,-237.62"/>
<polygon fill="#63b8ff" stroke="#63b8ff" points="210.32,-240.74 220.46,-243.82 214.45,-235.09 210.32,-240.74"/>
</g>
<!-- Node5 -->
<g id="node5" class="node">
<title>Node5</title>
<g id="a_node5"><a xlink:href="a00434.xhtml#ad37de78b503da0145f73767c142f5c18" target="_top" xlink:title=" ">
<polygon fill="white" stroke="#666666" points="294.5,-56 175.5,-56 175.5,-37 294.5,-37 294.5,-56"/>
<text text-anchor="middle" x="235" y="-44" font-family="Helvetica,sans-Serif" font-size="10.00">CAudioFileRaw::isOpen</text>
</a>
</g>
</g>
<!-- Node1&#45;&gt;Node5 -->
<g id="edge4" class="edge">
<title>Node1&#45;&gt;Node5</title>
<path fill="none" stroke="#63b8ff" d="M91.64,-93.9C111.1,-87.28 137.61,-78.3 161,-70.5 172.05,-66.82 184.05,-62.85 195.06,-59.23"/>
<polygon fill="#63b8ff" stroke="#63b8ff" points="196.44,-62.46 204.85,-56.02 194.26,-55.81 196.44,-62.46"/>
</g>
<!-- Node6 -->
<g id="node6" class="node">
<title>Node6</title>
<g id="a_node6"><a xlink:href="a00442.xhtml#afd69456f1bc1e58632348f8ac9b70aa1" target="_top" xlink:title=" ">
<polygon fill="white" stroke="#666666" points="283,-188 187,-188 187,-169 283,-169 283,-188"/>
<text text-anchor="middle" x="235" y="-176" font-family="Helvetica,sans-Serif" font-size="10.00">CAudioFileIf::reset</text>
</a>
</g>
</g>
<!-- Node1&#45;&gt;Node6 -->
<g id="edge5" class="edge">
<title>Node1&#45;&gt;Node6</title>
<path fill="none" stroke="#63b8ff" d="M85.44,-113.15C115.24,-126.26 168.67,-149.76 202.68,-164.72"/>
<polygon fill="#63b8ff" stroke="#63b8ff" points="201.58,-168.06 212.14,-168.89 204.4,-161.66 201.58,-168.06"/>
</g>
<!-- Node10 -->
<g id="node10" class="node">
<title>Node10</title>
<g id="a_node10"><a xlink:href="a00442.xhtml#ada0ab1ffd0666fdc0db872ca7f8a309f" target="_top" xlink:title=" ">
<polygon fill="white" stroke="#666666" points="659,-132 525,-132 525,-113 659,-113 659,-132"/>
<text text-anchor="middle" x="592" y="-120" font-family="Helvetica,sans-Serif" font-size="10.00">CAudioFileIf::setInitialized_</text>
</a>
</g>
</g>
<!-- Node1&#45;&gt;Node10 -->
<g id="edge13" class="edge">
<title>Node1&#45;&gt;Node10</title>
<path fill="none" stroke="#63b8ff" d="M125.13,-106.84C137.03,-107.43 149.4,-108.01 161,-108.5 284.7,-113.69 428.49,-118.03 514.49,-120.44"/>
<polygon fill="#63b8ff" stroke="#63b8ff" points="514.59,-123.94 524.69,-120.73 514.79,-116.95 514.59,-123.94"/>
</g>
<!-- Node11 -->
<g id="node11" class="node">
<title>Node11</title>
<g id="a_node11"><a xlink:href="a00442.xhtml#a6ccc53d8d2c5113b5b2cba604e8a4510" target="_top" xlink:title=" ">
<polygon fill="white" stroke="#666666" points="653,-95 531,-95 531,-76 653,-76 653,-95"/>
<text text-anchor="middle" x="592" y="-83" font-family="Helvetica,sans-Serif" font-size="10.00">CAudioFileIf::setIoType_</text>
</a>
</g>
</g>
<!-- Node1&#45;&gt;Node11 -->
<g id="edge14" class="edge">
<title>Node1&#45;&gt;Node11</title>
<path fill="none" stroke="#63b8ff" d="M125.04,-101.4C223.67,-98.03 416.59,-91.45 520.57,-87.9"/>
<polygon fill="#63b8ff" stroke="#63b8ff" points="520.78,-91.4 530.66,-87.56 520.55,-84.4 520.78,-91.4"/>
</g>
<!-- Node12 -->
<g id="node12" class="node">
<title>Node12</title>
<g id="a_node12"><a xlink:href="a00442.xhtml#a2a5ebd20e1a7daa8c8361234145bc7ad" target="_top" xlink:title=" ">
<polygon fill="white" stroke="#666666" points="300.5,-19 169.5,-19 169.5,0 300.5,0 300.5,-19"/>
<text text-anchor="middle" x="235" y="-7" font-family="Helvetica,sans-Serif" font-size="10.00">CAudioFileIf::setFileSpec_</text>
</a>
</g>
</g>
<!-- Node1&#45;&gt;Node12 -->
<g id="edge12" class="edge">
<title>Node1&#45;&gt;Node12</title>
<path fill="none" stroke="#63b8ff" d="M72.8,-93.99C89.13,-77.85 124.7,-45.12 161,-27.5 165.01,-25.56 169.24,-23.81 173.57,-22.24"/>
<polygon fill="#63b8ff" stroke="#63b8ff" points="174.74,-25.54 183.15,-19.1 172.56,-18.89 174.74,-25.54"/>
</g>
<!-- Node3 -->
<g id="node3" class="node">
<title>Node3</title>
<g id="a_node3"><a xlink:href="a00434.xhtml#afec2baaa8b5c5ca228a9aee3dd5b9838" target="_top" xlink:title=" ">
<polygon fill="white" stroke="#666666" points="489,-283 345,-283 345,-264 489,-264 489,-283"/>
<text text-anchor="middle" x="417" y="-271" font-family="Helvetica,sans-Serif" font-size="10.00">CAudioFileRaw::freeMemory_</text>
</a>
</g>
</g>
<!-- Node2&#45;&gt;Node3 -->
<g id="edge2" class="edge">
<title>Node2&#45;&gt;Node3</title>
<path fill="none" stroke="#63b8ff" d="M309.21,-261.63C317.68,-262.58 326.35,-263.54 334.91,-264.49"/>
<polygon fill="#63b8ff" stroke="#63b8ff" points="334.57,-267.97 344.89,-265.6 335.34,-261.02 334.57,-267.97"/>
</g>
<!-- Node4 -->
<g id="node4" class="node">
<title>Node4</title>
<g id="a_node4"><a xlink:href="a00442.xhtml#aec3ce9851e3b2876ff4978a0cbff7a2b" target="_top" xlink:title=" ">
<polygon fill="white" stroke="#666666" points="657.5,-264 526.5,-264 526.5,-245 657.5,-245 657.5,-264"/>
<text text-anchor="middle" x="592" y="-252" font-family="Helvetica,sans-Serif" font-size="10.00">CAudioFileIf::freeMemory_</text>
</a>
</g>
</g>
<!-- Node3&#45;&gt;Node4 -->
<g id="edge3" class="edge">
<title>Node3&#45;&gt;Node4</title>
<path fill="none" stroke="#63b8ff" d="M489.36,-265.66C498.29,-264.68 507.44,-263.68 516.41,-262.69"/>
<polygon fill="#63b8ff" stroke="#63b8ff" points="516.89,-266.16 526.45,-261.59 516.13,-259.2 516.89,-266.16"/>
</g>
<!-- Node6&#45;&gt;Node4 -->
<g id="edge7" class="edge">
<title>Node6&#45;&gt;Node4</title>
<path fill="none" stroke="#63b8ff" d="M259.44,-188.07C281.26,-196.64 314.86,-208.98 345,-216.5 401.66,-230.63 467.06,-240.43 516.17,-246.54"/>
<polygon fill="#63b8ff" stroke="#63b8ff" points="516.04,-250.05 526.39,-247.78 516.89,-243.1 516.04,-250.05"/>
</g>
<!-- Node7 -->
<g id="node7" class="node">
<title>Node7</title>
<g id="a_node7"><a xlink:href="a00442.xhtml#a9b8022f870f94a4b8c5a1f25cf24d2f9" target="_top" xlink:title=" ">
<polygon fill="white" stroke="#666666" points="473.5,-207 360.5,-207 360.5,-188 473.5,-188 473.5,-207"/>
<text text-anchor="middle" x="417" y="-195" font-family="Helvetica,sans-Serif" font-size="10.00">CAudioFileIf::closeFile</text>
</a>
</g>
</g>
<!-- Node6&#45;&gt;Node7 -->
<g id="edge6" class="edge">
<title>Node6&#45;&gt;Node7</title>
<path fill="none" stroke="#63b8ff" d="M283.29,-183.49C303.8,-185.66 328.15,-188.23 350.36,-190.57"/>
<polygon fill="#63b8ff" stroke="#63b8ff" points="350.09,-194.06 360.4,-191.63 350.82,-187.1 350.09,-194.06"/>
</g>
<!-- Node8 -->
<g id="node8" class="node">
<title>Node8</title>
<g id="a_node8"><a xlink:href="a00442.xhtml#a9fcdd386ee5292b5a971c7077858274c" target="_top" xlink:title=" ">
<polygon fill="white" stroke="#666666" points="481,-170 353,-170 353,-151 481,-151 481,-170"/>
<text text-anchor="middle" x="417" y="-158" font-family="Helvetica,sans-Serif" font-size="10.00">CAudioFileIf::initDefaults_</text>
</a>
</g>
</g>
<!-- Node6&#45;&gt;Node8 -->
<g id="edge8" class="edge">
<title>Node6&#45;&gt;Node8</title>
<path fill="none" stroke="#63b8ff" d="M283.29,-173.77C301.47,-171.95 322.67,-169.83 342.73,-167.83"/>
<polygon fill="#63b8ff" stroke="#63b8ff" points="343.17,-171.3 352.78,-166.82 342.48,-164.33 343.17,-171.3"/>
</g>
<!-- Node9 -->
<g id="node9" class="node">
<title>Node9</title>
<g id="a_node9"><a xlink:href="a00442.xhtml#a5a74fd1730a2f0f7339b6507ca7abc23" target="_top" xlink:title=" ">
<polygon fill="white" stroke="#666666" points="653,-180.5 531,-180.5 531,-150.5 653,-150.5 653,-180.5"/>
<text text-anchor="start" x="539" y="-168.5" font-family="Helvetica,sans-Serif" font-size="10.00">CAudioFileIf::setClipping</text>
<text text-anchor="middle" x="592" y="-157.5" font-family="Helvetica,sans-Serif" font-size="10.00">Enabled</text>
</a>
</g>
</g>
<!-- Node8&#45;&gt;Node9 -->
<g id="edge9" class="edge">
<title>Node8&#45;&gt;Node9</title>
<path fill="none" stroke="#63b8ff" d="M481.44,-162.33C494.14,-162.7 507.57,-163.09 520.5,-163.46"/>
<polygon fill="#63b8ff" stroke="#63b8ff" points="520.64,-166.97 530.74,-163.76 520.84,-159.97 520.64,-166.97"/>
</g>
<!-- Node8&#45;&gt;Node10 -->
<g id="edge10" class="edge">
<title>Node8&#45;&gt;Node10</title>
<path fill="none" stroke="#63b8ff" d="M461.66,-150.91C484.79,-145.83 513.4,-139.54 537.83,-134.18"/>
<polygon fill="#63b8ff" stroke="#63b8ff" points="538.64,-137.58 547.66,-132.02 537.14,-130.75 538.64,-137.58"/>
</g>
<!-- Node8&#45;&gt;Node11 -->
<g id="edge11" class="edge">
<title>Node8&#45;&gt;Node11</title>
<path fill="none" stroke="#63b8ff" d="M433.42,-150.86C453.76,-138.49 490.96,-117.01 525,-103.5 530.04,-101.5 535.37,-99.64 540.75,-97.94"/>
<polygon fill="#63b8ff" stroke="#63b8ff" points="541.82,-101.27 550.39,-95.04 539.81,-94.57 541.82,-101.27"/>
</g>
</g>
</svg>
        <g id="navigator" transform="translate(0 0)" fill="#404254">
                <rect fill="#f2f5e9" fill-opacity="0.5" stroke="#606060" stroke-width=".5" x="0" y="0" width="60" height="60"/>
                <use id="zoomplus" xlink:href="#zoomPlus" x="17" y="9" onmousedown="handleZoom(evt,'in')"/>
                <use id="zoomminus" xlink:href="#zoomMin" x="42" y="9" onmousedown="handleZoom(evt,'out')"/>
                <use id="reset" xlink:href="#resetDef" x="30" y="36" onmousedown="handleReset()"/>
                <g id="arrowUp" xlink:href="#dirArrow" transform="translate(30 24)" onmousedown="handlePan(0,-1)">
                  <use xlink:href="#rim" fill="#404040">
                        <set attributeName="fill" to="#808080" begin="arrowUp.mouseover" end="arrowUp.mouseout"/>
                  </use>
                  <path fill="none" stroke="white" stroke-width="1.5" d="M0,-3.0v7 M-2.5,-0.5L0,-3.0L2.5,-0.5"/>
                </g>
                <g id="arrowRight" xlink:href="#dirArrow" transform="rotate(90) translate(36 -43)" onmousedown="handlePan(1,0)">
                  <use xlink:href="#rim" fill="#404040">
                        <set attributeName="fill" to="#808080" begin="arrowRight.mouseover" end="arrowRight.mouseout"/>
                  </use>
                  <path fill="none" stroke="white" stroke-width="1.5" d="M0,-3.0v7 M-2.5,-0.5L0,-3.0L2.5,-0.5"/>
                </g>
                <g id="arrowDown" xlink:href="#dirArrow" transform="rotate(180) translate(-30 -48)" onmousedown="handlePan(0,1)">
                  <use xlink:href="#rim" fill="#404040">
                        <set attributeName="fill" to="#808080" begin="arrowDown.mouseover" end="arrowDown.mouseout"/>
                  </use>
                  <path fill="none" stroke="white" stroke-width="1.5" d="M0,-3.0v7 M-2.5,-0.5L0,-3.0L2.5,-0.5"/>
                </g>
                <g id="arrowLeft" xlink:href="#dirArrow" transform="rotate(270) translate(-36 17)" onmousedown="handlePan(-1,0)">
                  <use xlink:href="#rim" fill="#404040">
                        <set attributeName="fill" to="#808080" begin="arrowLeft.mouseover" end="arrowLeft.mouseout"/>
                  </use>
                  <path fill="none" stroke="white" stroke-width="1.5" d="M0,-3.0v7 M-2.5,-0.5L0,-3.0L2.5,-0.5"/>
                </g>
        </g>
        <svg viewBox="0 0 15 15" width="100%" height="30px" preserveAspectRatio="xMaxYMin meet">
         <g id="arrow_out" transform="scale(0.3 0.3)">
          <a xlink:href="a00434_a3e0ef78b8e6ff49a3138d0a153906253_cgraph_org.svg" target="_base">
           <rect id="button" ry="5" rx="5" y="6" x="6" height="38" width="38"
                fill="#f2f5e9" fill-opacity="0.5" stroke="#606060" stroke-width="1.0"/>
           <path id="arrow"
             d="M 11.500037,31.436501 C 11.940474,20.09759 22.043105,11.32322 32.158766,21.979434 L 37.068811,17.246167 C 37.068811,17.246167 37.088388,32 37.088388,32 L 22.160133,31.978069 C 22.160133,31.978069 26.997745,27.140456 26.997745,27.140456 C 18.528582,18.264221 13.291696,25.230495 11.500037,31.436501 z"
             style="fill:#404040;"/>
          </a>
         </g>
        </svg>
</svg>
