<?xml version="1.0" encoding="UTF-8" standalone="no"?>
<!DOCTYPE svg PUBLIC "-//W3C//DTD SVG 1.1//EN"
 "http://www.w3.org/Graphics/SVG/1.1/DTD/svg11.dtd">
<!-- Generated by graphviz version 4.0.0 (20220602.1335)
 -->
<!-- Title: CUtil::nextPowOf2 Pages: 1 -->
<svg width="608pt" height="685pt"
 viewBox="0.00 0.00 608.00 685.00" xmlns="http://www.w3.org/2000/svg" xmlns:xlink="http://www.w3.org/1999/xlink">
<g id="graph0" class="graph" transform="scale(1 1) rotate(0) translate(4 681)">
<title>CUtil::nextPowOf2</title>
<polygon fill="white" stroke="transparent" points="-4,4 -4,-681 604,-681 604,4 -4,4"/>
<!-- Node1 -->
<g id="node1" class="node">
<title>Node1</title>
<g id="a_node1"><a xlink:title=" ">
<polygon fill="#bfbfbf" stroke="black" points="504,-376 504,-395 600,-395 600,-376 504,-376"/>
<text text-anchor="middle" x="552" y="-383" font-family="Helvetica,sans-Serif" font-size="10.00">CUtil::nextPowOf2</text>
</a>
</g>
</g>
<!-- Node2 -->
<g id="node2" class="node">
<title>Node2</title>
<g id="a_node2"><a xlink:href="a00517.xhtml#af683b1b5e37ca2039424af02f4bfb3c5" target="_top" xlink:title=" ">
<polygon fill="white" stroke="black" points="297.5,-515 297.5,-534 353.5,-534 353.5,-515 297.5,-515"/>
<text text-anchor="middle" x="325.5" y="-522" font-family="Helvetica,sans-Serif" font-size="10.00">CCcf::init</text>
</a>
</g>
</g>
<!-- Node1&#45;&gt;Node2 -->
<g id="edge1" class="edge">
<title>Node1&#45;&gt;Node2</title>
<path fill="none" stroke="midnightblue" d="M526.8,-400.48C480.49,-429.16 380.52,-491.05 342.04,-514.88"/>
<polygon fill="midnightblue" stroke="midnightblue" points="528.91,-403.29 535.57,-395.05 525.22,-397.34 528.91,-403.29"/>
</g>
<!-- Node9 -->
<g id="node9" class="node">
<title>Node9</title>
<g id="a_node9"><a xlink:href="a00449.xhtml#adea9b0cecccfdb5a3da3218da6f683dd" target="_top" xlink:title=" ">
<polygon fill="white" stroke="black" points="415,-357 415,-376 468,-376 468,-357 415,-357"/>
<text text-anchor="middle" x="441.5" y="-364" font-family="Helvetica,sans-Serif" font-size="10.00">CFft::init</text>
</a>
</g>
</g>
<!-- Node1&#45;&gt;Node9 -->
<g id="edge8" class="edge">
<title>Node1&#45;&gt;Node9</title>
<path fill="none" stroke="midnightblue" d="M493.65,-375.46C484.71,-373.89 475.89,-372.35 468.16,-370.99"/>
<polygon fill="midnightblue" stroke="midnightblue" points="493.27,-378.94 503.73,-377.22 494.48,-372.05 493.27,-378.94"/>
</g>
<!-- Node3 -->
<g id="node3" class="node">
<title>Node3</title>
<g id="a_node3"><a xlink:href="a00329.xhtml#a541f40820696e37cc302fc780b8313ee" target="_top" xlink:title=" ">
<polygon fill="white" stroke="black" points="97,-509.5 97,-539.5 213,-539.5 213,-509.5 97,-509.5"/>
<text text-anchor="start" x="105" y="-527.5" font-family="Helvetica,sans-Serif" font-size="10.00">CFeatureTimeMaxAcf</text>
<text text-anchor="middle" x="155" y="-516.5" font-family="Helvetica,sans-Serif" font-size="10.00">::CFeatureTimeMaxAcf</text>
</a>
</g>
</g>
<!-- Node2&#45;&gt;Node3 -->
<g id="edge2" class="edge">
<title>Node2&#45;&gt;Node3</title>
<path fill="none" stroke="midnightblue" d="M287.27,-524.5C265.49,-524.5 237.53,-524.5 213.02,-524.5"/>
<polygon fill="midnightblue" stroke="midnightblue" points="287.43,-528 297.43,-524.5 287.43,-521 287.43,-528"/>
</g>
<!-- Node4 -->
<g id="node4" class="node">
<title>Node4</title>
<g id="a_node4"><a xlink:href="a00429.xhtml#a58a9a3d685f448ced2e843a60028e472" target="_top" xlink:title=" ">
<polygon fill="white" stroke="black" points="82.5,-471 82.5,-490 227.5,-490 227.5,-471 82.5,-471"/>
<text text-anchor="middle" x="155" y="-478" font-family="Helvetica,sans-Serif" font-size="10.00">CBeatHistoIf::compBeatHisto</text>
</a>
</g>
</g>
<!-- Node2&#45;&gt;Node4 -->
<g id="edge3" class="edge">
<title>Node2&#45;&gt;Node4</title>
<path fill="none" stroke="midnightblue" d="M287.48,-514.28C271.64,-509.96 252.93,-504.91 236,-500.5 222.56,-497 207.82,-493.28 194.7,-490.01"/>
<polygon fill="midnightblue" stroke="midnightblue" points="286.85,-517.74 297.42,-517.01 288.7,-510.99 286.85,-517.74"/>
</g>
<!-- Node6 -->
<g id="node6" class="node">
<title>Node6</title>
<g id="a_node6"><a xlink:href="a00357.xhtml#ad7f64995a5d0ca75139e400172a9ab42" target="_top" xlink:title=" ">
<polygon fill="white" stroke="black" points="104.5,-646.5 104.5,-676.5 205.5,-676.5 205.5,-646.5 104.5,-646.5"/>
<text text-anchor="start" x="112.5" y="-664.5" font-family="Helvetica,sans-Serif" font-size="10.00">CPitchSpectralAcf::</text>
<text text-anchor="middle" x="155" y="-653.5" font-family="Helvetica,sans-Serif" font-size="10.00">CPitchSpectralAcf</text>
</a>
</g>
</g>
<!-- Node2&#45;&gt;Node6 -->
<g id="edge5" class="edge">
<title>Node2&#45;&gt;Node6</title>
<path fill="none" stroke="midnightblue" d="M314.64,-543C300.47,-567.84 272.05,-611.7 236,-636.5 226.89,-642.77 216.14,-647.52 205.52,-651.1"/>
<polygon fill="midnightblue" stroke="midnightblue" points="317.73,-544.64 319.51,-534.2 311.6,-541.25 317.73,-544.64"/>
</g>
<!-- Node7 -->
<g id="node7" class="node">
<title>Node7</title>
<g id="a_node7"><a xlink:href="a00365.xhtml#acd4920798f76cfa56accd9ba28dad6ae" target="_top" xlink:title=" ">
<polygon fill="white" stroke="black" points="78.5,-608 78.5,-627 231.5,-627 231.5,-608 78.5,-608"/>
<text text-anchor="middle" x="155" y="-615" font-family="Helvetica,sans-Serif" font-size="10.00">CPitchTimeAcf::CPitchTimeAcf</text>
</a>
</g>
</g>
<!-- Node2&#45;&gt;Node7 -->
<g id="edge6" class="edge">
<title>Node2&#45;&gt;Node7</title>
<path fill="none" stroke="midnightblue" d="M308.8,-541.63C292.3,-558.6 264.77,-584.07 236,-598.5 228.34,-602.34 219.88,-605.42 211.41,-607.89"/>
<polygon fill="midnightblue" stroke="midnightblue" points="311.63,-543.73 315.97,-534.07 306.55,-538.92 311.63,-543.73"/>
</g>
<!-- Node8 -->
<g id="node8" class="node">
<title>Node8</title>
<g id="a_node8"><a xlink:href="a00369.xhtml#af5f08be46100a7ecbc5450f52a96c77e" target="_top" xlink:title=" ">
<polygon fill="white" stroke="black" points="101.5,-558.5 101.5,-588.5 208.5,-588.5 208.5,-558.5 101.5,-558.5"/>
<text text-anchor="start" x="109.5" y="-576.5" font-family="Helvetica,sans-Serif" font-size="10.00">CPitchTimeAuditory</text>
<text text-anchor="middle" x="155" y="-565.5" font-family="Helvetica,sans-Serif" font-size="10.00">::CPitchTimeAuditory</text>
</a>
</g>
</g>
<!-- Node2&#45;&gt;Node8 -->
<g id="edge7" class="edge">
<title>Node2&#45;&gt;Node8</title>
<path fill="none" stroke="midnightblue" d="M287.56,-535.24C264.18,-542.04 233.61,-550.93 207.82,-558.43"/>
<polygon fill="midnightblue" stroke="midnightblue" points="288.8,-538.53 297.43,-532.37 286.85,-531.8 288.8,-538.53"/>
</g>
<!-- Node5 -->
<g id="node5" class="node">
<title>Node5</title>
<g id="a_node5"><a xlink:href="a00017.xhtml#a0ddf1224851353fc92bfbff6f499fa97" target="_top" xlink:title=" ">
<polygon fill="white" stroke="black" points="0,-471 0,-490 38,-490 38,-471 0,-471"/>
<text text-anchor="middle" x="19" y="-478" font-family="Helvetica,sans-Serif" font-size="10.00">main</text>
</a>
</g>
</g>
<!-- Node4&#45;&gt;Node5 -->
<g id="edge4" class="edge">
<title>Node4&#45;&gt;Node5</title>
<path fill="none" stroke="midnightblue" d="M71.98,-480.5C59.29,-480.5 47.35,-480.5 38.12,-480.5"/>
<polygon fill="midnightblue" stroke="midnightblue" points="72.29,-484 82.29,-480.5 72.29,-477 72.29,-484"/>
</g>
<!-- Node9&#45;&gt;Node2 -->
<g id="edge11" class="edge">
<title>Node9&#45;&gt;Node2</title>
<path fill="none" stroke="midnightblue" d="M431.1,-384.97C419.92,-406.22 400.11,-441.74 379,-469.5 365.89,-486.73 348.03,-504.46 336.89,-514.97"/>
<polygon fill="midnightblue" stroke="midnightblue" points="434.23,-386.53 435.73,-376.04 428.02,-383.31 434.23,-386.53"/>
</g>
<!-- Node9&#45;&gt;Node4 -->
<g id="edge10" class="edge">
<title>Node9&#45;&gt;Node4</title>
<path fill="none" stroke="midnightblue" d="M426.12,-383.78C414.61,-396.53 397.41,-413.36 379,-423.5 332.1,-449.34 273.2,-463.75 227.71,-471.61"/>
<polygon fill="midnightblue" stroke="midnightblue" points="428.88,-385.94 432.81,-376.1 423.6,-381.34 428.88,-385.94"/>
</g>
<!-- Node10 -->
<g id="node10" class="node">
<title>Node10</title>
<g id="a_node10"><a xlink:href="a00529.xhtml#a4b3af2ff4c095211a3c89701a6fdb9db" target="_top" xlink:title=" ">
<polygon fill="white" stroke="black" points="272,-357 272,-376 379,-376 379,-357 272,-357"/>
<text text-anchor="middle" x="325.5" y="-364" font-family="Helvetica,sans-Serif" font-size="10.00">CInstFreq::CInstFreq</text>
</a>
</g>
</g>
<!-- Node9&#45;&gt;Node10 -->
<g id="edge9" class="edge">
<title>Node9&#45;&gt;Node10</title>
<path fill="none" stroke="midnightblue" d="M404.67,-366.5C396.53,-366.5 387.73,-366.5 379.05,-366.5"/>
<polygon fill="midnightblue" stroke="midnightblue" points="404.92,-370 414.92,-366.5 404.92,-363 404.92,-370"/>
</g>
<!-- Node11 -->
<g id="node11" class="node">
<title>Node11</title>
<g id="a_node11"><a xlink:href="a00433.xhtml#ad48a5bd574f16b7491b70efb9998935f" target="_top" xlink:title="init configuration">
<polygon fill="white" stroke="black" points="287,-319 287,-338 364,-338 364,-319 287,-319"/>
<text text-anchor="middle" x="325.5" y="-326" font-family="Helvetica,sans-Serif" font-size="10.00">CChordIf::init_</text>
</a>
</g>
</g>
<!-- Node9&#45;&gt;Node11 -->
<g id="edge12" class="edge">
<title>Node9&#45;&gt;Node11</title>
<path fill="none" stroke="midnightblue" d="M405.31,-354.77C389.23,-349.41 370.42,-343.14 355.21,-338.07"/>
<polygon fill="midnightblue" stroke="midnightblue" points="404.32,-358.13 414.92,-357.97 406.54,-351.49 404.32,-358.13"/>
</g>
<!-- Node14 -->
<g id="node14" class="node">
<title>Node14</title>
<g id="a_node14"><a xlink:href="a00441.xhtml#ab38ca831ee8ae42a8a95e33af4f756ba" target="_top" xlink:title="init configuration">
<polygon fill="white" stroke="black" points="283,-251 283,-270 368,-270 368,-251 283,-251"/>
<text text-anchor="middle" x="325.5" y="-258" font-family="Helvetica,sans-Serif" font-size="10.00">CFeatureIf::init_</text>
</a>
</g>
</g>
<!-- Node9&#45;&gt;Node14 -->
<g id="edge15" class="edge">
<title>Node9&#45;&gt;Node14</title>
<path fill="none" stroke="midnightblue" d="M422.56,-349.82C398.48,-327.43 356.49,-288.38 337,-270.26"/>
<polygon fill="midnightblue" stroke="midnightblue" points="420.27,-352.47 429.98,-356.72 425.04,-347.35 420.27,-352.47"/>
</g>
<!-- Node17 -->
<g id="node17" class="node">
<title>Node17</title>
<g id="a_node17"><a xlink:href="a00505.xhtml#a9c4b2db2031256e48ade8c9fa235b6f2" target="_top" xlink:title="init configuration">
<polygon fill="white" stroke="black" points="272,-153 272,-172 379,-172 379,-153 272,-153"/>
<text text-anchor="middle" x="325.5" y="-160" font-family="Helvetica,sans-Serif" font-size="10.00">CSpectrogramIf::init_</text>
</a>
</g>
</g>
<!-- Node9&#45;&gt;Node17 -->
<g id="edge18" class="edge">
<title>Node9&#45;&gt;Node17</title>
<path fill="none" stroke="midnightblue" d="M432.09,-347.52C420.88,-322.68 399.99,-278.01 379,-241.5 364.22,-215.8 344.27,-187.19 333.73,-172.46"/>
<polygon fill="midnightblue" stroke="midnightblue" points="429,-349.18 436.28,-356.87 435.39,-346.32 429,-349.18"/>
</g>
<!-- Node20 -->
<g id="node20" class="node">
<title>Node20</title>
<g id="a_node20"><a xlink:href="a00489.xhtml#a4beb226d8e7dd927c253667647e837ec" target="_top" xlink:title="init configuration">
<polygon fill="white" stroke="black" points="283,-55 283,-74 368,-74 368,-55 283,-55"/>
<text text-anchor="middle" x="325.5" y="-62" font-family="Helvetica,sans-Serif" font-size="10.00">CNoveltyIf::init_</text>
</a>
</g>
</g>
<!-- Node9&#45;&gt;Node20 -->
<g id="edge21" class="edge">
<title>Node9&#45;&gt;Node20</title>
<path fill="none" stroke="midnightblue" d="M437.24,-346.8C430.2,-307.03 411.52,-214.82 379,-143.5 366.7,-116.53 345.74,-88.43 334.38,-74.12"/>
<polygon fill="midnightblue" stroke="midnightblue" points="433.81,-347.51 438.96,-356.78 440.71,-346.33 433.81,-347.51"/>
</g>
<!-- Node23 -->
<g id="node23" class="node">
<title>Node23</title>
<g id="a_node23"><a xlink:href="a00497.xhtml#a3a966aff4a49e12324f205b20c5f2232" target="_top" xlink:title="init configuration">
<polygon fill="white" stroke="black" points="288.5,-395 288.5,-414 362.5,-414 362.5,-395 288.5,-395"/>
<text text-anchor="middle" x="325.5" y="-402" font-family="Helvetica,sans-Serif" font-size="10.00">CPitchIf::init_</text>
</a>
</g>
</g>
<!-- Node9&#45;&gt;Node23 -->
<g id="edge24" class="edge">
<title>Node9&#45;&gt;Node23</title>
<path fill="none" stroke="midnightblue" d="M405.31,-378.23C389.23,-383.59 370.42,-389.86 355.21,-394.93"/>
<polygon fill="midnightblue" stroke="midnightblue" points="406.54,-381.51 414.92,-375.03 404.32,-374.87 406.54,-381.51"/>
</g>
<!-- Node12 -->
<g id="node12" class="node">
<title>Node12</title>
<g id="a_node12"><a xlink:href="a00289.xhtml#a6df404d2eb3d4c8f9dc2071930fc9e7e" target="_top" xlink:title=" ">
<polygon fill="white" stroke="black" points="74,-295 74,-314 236,-314 236,-295 74,-295"/>
<text text-anchor="middle" x="155" y="-302" font-family="Helvetica,sans-Serif" font-size="10.00">CChordFromFile::CChordFromFile</text>
</a>
</g>
</g>
<!-- Node11&#45;&gt;Node12 -->
<g id="edge13" class="edge">
<title>Node11&#45;&gt;Node12</title>
<path fill="none" stroke="midnightblue" d="M276.61,-321.68C259.89,-319.3 240.81,-316.58 222.83,-314.02"/>
<polygon fill="midnightblue" stroke="midnightblue" points="276.29,-325.17 286.69,-323.11 277.28,-318.24 276.29,-325.17"/>
</g>
<!-- Node13 -->
<g id="node13" class="node">
<title>Node13</title>
<g id="a_node13"><a xlink:href="a00293.xhtml#ac9c41c2ddc441df7e0ae80c25971c260" target="_top" xlink:title=" ">
<polygon fill="white" stroke="black" points="86.5,-333.5 86.5,-363.5 223.5,-363.5 223.5,-333.5 86.5,-333.5"/>
<text text-anchor="start" x="94.5" y="-351.5" font-family="Helvetica,sans-Serif" font-size="10.00">CChordFromVector::CChord</text>
<text text-anchor="middle" x="155" y="-340.5" font-family="Helvetica,sans-Serif" font-size="10.00">FromVector</text>
</a>
</g>
</g>
<!-- Node11&#45;&gt;Node13 -->
<g id="edge14" class="edge">
<title>Node11&#45;&gt;Node13</title>
<path fill="none" stroke="midnightblue" d="M276.72,-334.17C260.18,-336.13 241.32,-338.37 223.5,-340.49"/>
<polygon fill="midnightblue" stroke="midnightblue" points="277.17,-337.64 286.69,-332.99 276.34,-330.69 277.17,-337.64"/>
</g>
<!-- Node15 -->
<g id="node15" class="node">
<title>Node15</title>
<g id="a_node15"><a xlink:href="a00297.xhtml#abdd90edbfe131bcd181d9ffac77fab8e" target="_top" xlink:title=" ">
<polygon fill="white" stroke="black" points="85.5,-196.5 85.5,-226.5 224.5,-226.5 224.5,-196.5 85.5,-196.5"/>
<text text-anchor="start" x="93.5" y="-214.5" font-family="Helvetica,sans-Serif" font-size="10.00">CFeatureFromFile::CFeature</text>
<text text-anchor="middle" x="155" y="-203.5" font-family="Helvetica,sans-Serif" font-size="10.00">FromFile</text>
</a>
</g>
</g>
<!-- Node14&#45;&gt;Node15 -->
<g id="edge16" class="edge">
<title>Node14&#45;&gt;Node15</title>
<path fill="none" stroke="midnightblue" d="M281.98,-248.13C259.42,-241.57 231.51,-233.46 207.71,-226.54"/>
<polygon fill="midnightblue" stroke="midnightblue" points="281.03,-251.5 291.61,-250.94 282.99,-244.78 281.03,-251.5"/>
</g>
<!-- Node16 -->
<g id="node16" class="node">
<title>Node16</title>
<g id="a_node16"><a xlink:href="a00301.xhtml#a686d96f3eac3a33378fcea886d687305" target="_top" xlink:title=" ">
<polygon fill="white" stroke="black" points="99,-245.5 99,-275.5 211,-275.5 211,-245.5 99,-245.5"/>
<text text-anchor="start" x="107" y="-263.5" font-family="Helvetica,sans-Serif" font-size="10.00">CFeatureFromVector</text>
<text text-anchor="middle" x="155" y="-252.5" font-family="Helvetica,sans-Serif" font-size="10.00">::CFeatureFromVector</text>
</a>
</g>
</g>
<!-- Node14&#45;&gt;Node16 -->
<g id="edge17" class="edge">
<title>Node14&#45;&gt;Node16</title>
<path fill="none" stroke="midnightblue" d="M272.64,-260.5C253.15,-260.5 230.94,-260.5 211.16,-260.5"/>
<polygon fill="midnightblue" stroke="midnightblue" points="272.85,-264 282.85,-260.5 272.85,-257 272.85,-264"/>
</g>
<!-- Node18 -->
<g id="node18" class="node">
<title>Node18</title>
<g id="a_node18"><a xlink:href="a00381.xhtml#aeac8291805613de79ed584829d3d5f30" target="_top" xlink:title=" ">
<polygon fill="white" stroke="black" points="94,-98.5 94,-128.5 216,-128.5 216,-98.5 94,-98.5"/>
<text text-anchor="start" x="102" y="-116.5" font-family="Helvetica,sans-Serif" font-size="10.00">CSpectrogramFromFile</text>
<text text-anchor="middle" x="155" y="-105.5" font-family="Helvetica,sans-Serif" font-size="10.00">::CSpectrogramFromFile</text>
</a>
</g>
</g>
<!-- Node17&#45;&gt;Node18 -->
<g id="edge19" class="edge">
<title>Node17&#45;&gt;Node18</title>
<path fill="none" stroke="midnightblue" d="M281.98,-150.13C259.42,-143.57 231.51,-135.46 207.71,-128.54"/>
<polygon fill="midnightblue" stroke="midnightblue" points="281.03,-153.5 291.61,-152.94 282.99,-146.78 281.03,-153.5"/>
</g>
<!-- Node19 -->
<g id="node19" class="node">
<title>Node19</title>
<g id="a_node19"><a xlink:href="a00385.xhtml#a2c6b75c7c05204bec34db9c8ec6c40d1" target="_top" xlink:title=" ">
<polygon fill="white" stroke="black" points="88,-147.5 88,-177.5 222,-177.5 222,-147.5 88,-147.5"/>
<text text-anchor="start" x="96" y="-165.5" font-family="Helvetica,sans-Serif" font-size="10.00">CSpectrogramFromVector</text>
<text text-anchor="middle" x="155" y="-154.5" font-family="Helvetica,sans-Serif" font-size="10.00">::CSpectrogramFromVector</text>
</a>
</g>
</g>
<!-- Node17&#45;&gt;Node19 -->
<g id="edge20" class="edge">
<title>Node17&#45;&gt;Node19</title>
<path fill="none" stroke="midnightblue" d="M261.49,-162.5C248.6,-162.5 235.01,-162.5 222.02,-162.5"/>
<polygon fill="midnightblue" stroke="midnightblue" points="261.65,-166 271.65,-162.5 261.65,-159 261.65,-166"/>
</g>
<!-- Node21 -->
<g id="node21" class="node">
<title>Node21</title>
<g id="a_node21"><a xlink:href="a00341.xhtml#a0247bb6d1818b840d1182d5ee50214d5" target="_top" xlink:title=" ">
<polygon fill="white" stroke="black" points="85.5,-0.5 85.5,-30.5 224.5,-30.5 224.5,-0.5 85.5,-0.5"/>
<text text-anchor="start" x="93.5" y="-18.5" font-family="Helvetica,sans-Serif" font-size="10.00">CNoveltyFromFile::CNovelty</text>
<text text-anchor="middle" x="155" y="-7.5" font-family="Helvetica,sans-Serif" font-size="10.00">FromFile</text>
</a>
</g>
</g>
<!-- Node20&#45;&gt;Node21 -->
<g id="edge22" class="edge">
<title>Node20&#45;&gt;Node21</title>
<path fill="none" stroke="midnightblue" d="M281.98,-52.13C259.42,-45.57 231.51,-37.46 207.71,-30.54"/>
<polygon fill="midnightblue" stroke="midnightblue" points="281.03,-55.5 291.61,-54.94 282.99,-48.78 281.03,-55.5"/>
</g>
<!-- Node22 -->
<g id="node22" class="node">
<title>Node22</title>
<g id="a_node22"><a xlink:href="a00345.xhtml#a8730189fe1aa6b0e557afc04faad9966" target="_top" xlink:title=" ">
<polygon fill="white" stroke="black" points="99,-49.5 99,-79.5 211,-79.5 211,-49.5 99,-49.5"/>
<text text-anchor="start" x="107" y="-67.5" font-family="Helvetica,sans-Serif" font-size="10.00">CNoveltyFromVector</text>
<text text-anchor="middle" x="155" y="-56.5" font-family="Helvetica,sans-Serif" font-size="10.00">::CNoveltyFromVector</text>
</a>
</g>
</g>
<!-- Node20&#45;&gt;Node22 -->
<g id="edge23" class="edge">
<title>Node20&#45;&gt;Node22</title>
<path fill="none" stroke="midnightblue" d="M272.64,-64.5C253.15,-64.5 230.94,-64.5 211.16,-64.5"/>
<polygon fill="midnightblue" stroke="midnightblue" points="272.85,-68 282.85,-64.5 272.85,-61 272.85,-68"/>
</g>
<!-- Node24 -->
<g id="node24" class="node">
<title>Node24</title>
<g id="a_node24"><a xlink:href="a00349.xhtml#ab74f454ce0bbdccd22a38066ce26b16a" target="_top" xlink:title=" ">
<polygon fill="white" stroke="black" points="77,-383 77,-402 233,-402 233,-383 77,-383"/>
<text text-anchor="middle" x="155" y="-390" font-family="Helvetica,sans-Serif" font-size="10.00">CPitchFromFile::CPitchFromFile</text>
</a>
</g>
</g>
<!-- Node23&#45;&gt;Node24 -->
<g id="edge25" class="edge">
<title>Node23&#45;&gt;Node24</title>
<path fill="none" stroke="midnightblue" d="M278.11,-401.2C264.22,-400.21 248.61,-399.1 233.3,-398"/>
<polygon fill="midnightblue" stroke="midnightblue" points="278.13,-404.71 288.35,-401.93 278.63,-397.72 278.13,-404.71"/>
</g>
<!-- Node25 -->
<g id="node25" class="node">
<title>Node25</title>
<g id="a_node25"><a xlink:href="a00353.xhtml#a383eb44fd89db6be0119177effcf90bd" target="_top" xlink:title=" ">
<polygon fill="white" stroke="black" points="89.5,-421.5 89.5,-451.5 220.5,-451.5 220.5,-421.5 89.5,-421.5"/>
<text text-anchor="start" x="97.5" y="-439.5" font-family="Helvetica,sans-Serif" font-size="10.00">CPitchFromVector::CPitch</text>
<text text-anchor="middle" x="155" y="-428.5" font-family="Helvetica,sans-Serif" font-size="10.00">FromVector</text>
</a>
</g>
</g>
<!-- Node23&#45;&gt;Node25 -->
<g id="edge26" class="edge">
<title>Node23&#45;&gt;Node25</title>
<path fill="none" stroke="midnightblue" d="M278.25,-413.28C260.47,-416.66 239.84,-420.58 220.65,-424.22"/>
<polygon fill="midnightblue" stroke="midnightblue" points="279.18,-416.67 288.35,-411.36 277.88,-409.79 279.18,-416.67"/>
</g>
</g>
</svg>
