<?xml version="1.0" encoding="UTF-8" standalone="no"?>
<!DOCTYPE svg PUBLIC "-//W3C//DTD SVG 1.1//EN"
 "http://www.w3.org/Graphics/SVG/1.1/DTD/svg11.dtd">
<!-- Generated by graphviz version 6.0.1 (20220911.1526)
 -->
<!-- Title: CAudioFileIf::getFileSpec Pages: 1 -->
<svg width="409pt" height="417pt"
 viewBox="0.00 0.00 409.00 417.00" xmlns="http://www.w3.org/2000/svg" xmlns:xlink="http://www.w3.org/1999/xlink">
<g id="graph0" class="graph" transform="scale(1 1) rotate(0) translate(4 413)">
<title>CAudioFileIf::getFileSpec</title>
<!-- Node1 -->
<g id="node1" class="node">
<title>Node1</title>
<g id="a_node1"><a xlink:title=" ">
<polygon fill="#999999" stroke="#666666" points="401,-209 275,-209 275,-190 401,-190 401,-209"/>
<text text-anchor="middle" x="338" y="-197" font-family="Helvetica,sans-Serif" font-size="10.00">CAudioFileIf::getFileSpec</text>
</a>
</g>
</g>
<!-- Node2 -->
<g id="node2" class="node">
<title>Node2</title>
<g id="a_node2"><a xlink:href="a00410.xhtml#ae12716ee8473becf462624698243f761" target="_top" xlink:title=" ">
<polygon fill="white" stroke="#666666" points="239,-409 74,-409 74,-390 239,-390 239,-409"/>
<text text-anchor="middle" x="156.5" y="-397" font-family="Helvetica,sans-Serif" font-size="10.00">CBlockAudioFile::CBlockAudioFile</text>
</a>
</g>
</g>
<!-- Node1&#45;&gt;Node2 -->
<g id="edge1" class="edge">
<title>Node1&#45;&gt;Node2</title>
<path fill="none" stroke="#63b8ff" d="M332.29,-219.05C322.15,-256.77 294.51,-339.56 239,-381.5 234.49,-384.91 229.46,-387.69 224.18,-389.97"/>
<polygon fill="#63b8ff" stroke="#63b8ff" points="335.7,-219.83 334.8,-209.28 328.92,-218.1 335.7,-219.83"/>
</g>
<!-- Node3 -->
<g id="node3" class="node">
<title>Node3</title>
<g id="a_node3"><a xlink:href="a00310.xhtml#a6df404d2eb3d4c8f9dc2071930fc9e7e" target="_top" xlink:title=" ">
<polygon fill="white" stroke="#666666" points="237.5,-372 75.5,-372 75.5,-353 237.5,-353 237.5,-372"/>
<text text-anchor="middle" x="156.5" y="-360" font-family="Helvetica,sans-Serif" font-size="10.00">CChordFromFile::CChordFromFile</text>
</a>
</g>
</g>
<!-- Node1&#45;&gt;Node3 -->
<g id="edge2" class="edge">
<title>Node1&#45;&gt;Node3</title>
<path fill="none" stroke="#63b8ff" d="M329.62,-218.34C316.39,-249.51 285.6,-311.54 239,-343.5 233.37,-347.36 227.06,-350.45 220.51,-352.91"/>
<polygon fill="#63b8ff" stroke="#63b8ff" points="332.87,-219.62 333.43,-209.04 326.4,-216.96 332.87,-219.62"/>
</g>
<!-- Node4 -->
<g id="node4" class="node">
<title>Node4</title>
<g id="a_node4"><a xlink:href="a00318.xhtml#abdd90edbfe131bcd181d9ffac77fab8e" target="_top" xlink:title=" ">
<polygon fill="white" stroke="#666666" points="226,-334.5 87,-334.5 87,-304.5 226,-304.5 226,-334.5"/>
<text text-anchor="start" x="95" y="-322.5" font-family="Helvetica,sans-Serif" font-size="10.00">CFeatureFromFile::CFeature</text>
<text text-anchor="middle" x="156.5" y="-311.5" font-family="Helvetica,sans-Serif" font-size="10.00">FromFile</text>
</a>
</g>
</g>
<!-- Node1&#45;&gt;Node4 -->
<g id="edge3" class="edge">
<title>Node1&#45;&gt;Node4</title>
<path fill="none" stroke="#63b8ff" d="M323.5,-217.26C306.2,-238.81 274.2,-274.84 239,-295.5 233.15,-298.93 226.77,-301.91 220.24,-304.48"/>
<polygon fill="#63b8ff" stroke="#63b8ff" points="326.36,-219.28 329.78,-209.25 320.85,-214.96 326.36,-219.28"/>
</g>
<!-- Node5 -->
<g id="node5" class="node">
<title>Node5</title>
<g id="a_node5"><a xlink:href="a00422.xhtml#aec7867658e2991c8526c78666c960920" target="_top" xlink:title=" ">
<polygon fill="white" stroke="#666666" points="223.5,-286.5 89.5,-286.5 89.5,-256.5 223.5,-256.5 223.5,-286.5"/>
<text text-anchor="start" x="97.5" y="-274.5" font-family="Helvetica,sans-Serif" font-size="10.00">CGammaToneFbFromFile</text>
<text text-anchor="middle" x="156.5" y="-263.5" font-family="Helvetica,sans-Serif" font-size="10.00">::CGammaToneFbFromFile</text>
</a>
</g>
</g>
<!-- Node1&#45;&gt;Node5 -->
<g id="edge4" class="edge">
<title>Node1&#45;&gt;Node5</title>
<path fill="none" stroke="#63b8ff" d="M310.84,-213.82C291.4,-224.09 264.04,-237.76 239,-247.5 230.75,-250.71 221.89,-253.73 213.16,-256.48"/>
<polygon fill="#63b8ff" stroke="#63b8ff" points="312.53,-216.89 319.7,-209.09 309.23,-210.71 312.53,-216.89"/>
</g>
<!-- Node6 -->
<g id="node6" class="node">
<title>Node6</title>
<g id="a_node6"><a xlink:href="a00606.xhtml#a0f2e96a9c1a1ab0b85e1410b00f0aa8e" target="_top" xlink:title=" ">
<polygon fill="white" stroke="#666666" points="229.5,-238.5 83.5,-238.5 83.5,-208.5 229.5,-208.5 229.5,-238.5"/>
<text text-anchor="start" x="91.5" y="-226.5" font-family="Helvetica,sans-Serif" font-size="10.00">CNormalizeAudio::CNormalize</text>
<text text-anchor="middle" x="156.5" y="-215.5" font-family="Helvetica,sans-Serif" font-size="10.00">Audio</text>
</a>
</g>
</g>
<!-- Node1&#45;&gt;Node6 -->
<g id="edge5" class="edge">
<title>Node1&#45;&gt;Node6</title>
<path fill="none" stroke="#63b8ff" d="M264.91,-209.14C253.31,-210.69 241.31,-212.29 229.71,-213.85"/>
<polygon fill="#63b8ff" stroke="#63b8ff" points="265.53,-212.59 274.97,-207.79 264.6,-205.65 265.53,-212.59"/>
</g>
<!-- Node7 -->
<g id="node7" class="node">
<title>Node7</title>
<g id="a_node7"><a xlink:href="a00362.xhtml#a0247bb6d1818b840d1182d5ee50214d5" target="_top" xlink:title=" ">
<polygon fill="white" stroke="#666666" points="226,-190.5 87,-190.5 87,-160.5 226,-160.5 226,-190.5"/>
<text text-anchor="start" x="95" y="-178.5" font-family="Helvetica,sans-Serif" font-size="10.00">CNoveltyFromFile::CNovelty</text>
<text text-anchor="middle" x="156.5" y="-167.5" font-family="Helvetica,sans-Serif" font-size="10.00">FromFile</text>
</a>
</g>
</g>
<!-- Node1&#45;&gt;Node7 -->
<g id="edge6" class="edge">
<title>Node1&#45;&gt;Node7</title>
<path fill="none" stroke="#63b8ff" d="M264.89,-189.86C252.15,-188.16 238.93,-186.39 226.29,-184.7"/>
<polygon fill="#63b8ff" stroke="#63b8ff" points="264.6,-193.35 274.97,-191.21 265.53,-186.41 264.6,-193.35"/>
</g>
<!-- Node8 -->
<g id="node8" class="node">
<title>Node8</title>
<g id="a_node8"><a xlink:href="a00370.xhtml#ab74f454ce0bbdccd22a38066ce26b16a" target="_top" xlink:title=" ">
<polygon fill="white" stroke="#666666" points="234.5,-142 78.5,-142 78.5,-123 234.5,-123 234.5,-142"/>
<text text-anchor="middle" x="156.5" y="-130" font-family="Helvetica,sans-Serif" font-size="10.00">CPitchFromFile::CPitchFromFile</text>
</a>
</g>
</g>
<!-- Node1&#45;&gt;Node8 -->
<g id="edge7" class="edge">
<title>Node1&#45;&gt;Node8</title>
<path fill="none" stroke="#63b8ff" d="M311.7,-185.13C292.31,-174.6 264.61,-160.62 239,-151.5 228.74,-147.84 217.49,-144.7 206.72,-142.08"/>
<polygon fill="#63b8ff" stroke="#63b8ff" points="310.06,-188.22 320.51,-189.98 313.44,-182.09 310.06,-188.22"/>
</g>
<!-- Node9 -->
<g id="node9" class="node">
<title>Node9</title>
<g id="a_node9"><a xlink:href="a00402.xhtml#aeac8291805613de79ed584829d3d5f30" target="_top" xlink:title=" ">
<polygon fill="white" stroke="#666666" points="217.5,-104.5 95.5,-104.5 95.5,-74.5 217.5,-74.5 217.5,-104.5"/>
<text text-anchor="start" x="103.5" y="-92.5" font-family="Helvetica,sans-Serif" font-size="10.00">CSpectrogramFromFile</text>
<text text-anchor="middle" x="156.5" y="-81.5" font-family="Helvetica,sans-Serif" font-size="10.00">::CSpectrogramFromFile</text>
</a>
</g>
</g>
<!-- Node1&#45;&gt;Node9 -->
<g id="edge8" class="edge">
<title>Node1&#45;&gt;Node9</title>
<path fill="none" stroke="#63b8ff" d="M321.67,-182.48C303.63,-163.39 271.92,-132.75 239,-114.5 232.14,-110.7 224.63,-107.4 217.02,-104.56"/>
<polygon fill="#63b8ff" stroke="#63b8ff" points="319.17,-184.92 328.53,-189.88 324.3,-180.16 319.17,-184.92"/>
</g>
<!-- Node10 -->
<g id="node10" class="node">
<title>Node10</title>
<g id="a_node10"><a xlink:href="a00554.xhtml#ab79f4706d42b250f36c91cfd075bc8df" target="_top" xlink:title=" ">
<polygon fill="white" stroke="#666666" points="199.5,-56 113.5,-56 113.5,-37 199.5,-37 199.5,-56"/>
<text text-anchor="middle" x="156.5" y="-44" font-family="Helvetica,sans-Serif" font-size="10.00">CFingerprint::init</text>
</a>
</g>
</g>
<!-- Node1&#45;&gt;Node10 -->
<g id="edge9" class="edge">
<title>Node1&#45;&gt;Node10</title>
<path fill="none" stroke="#63b8ff" d="M328.66,-180.74C314.6,-151.34 283.3,-94.79 239,-65.5 227.37,-57.81 213,-53.21 199.58,-50.47"/>
<polygon fill="#63b8ff" stroke="#63b8ff" points="325.53,-182.31 332.91,-189.91 331.89,-179.36 325.53,-182.31"/>
</g>
<!-- Node12 -->
<g id="node12" class="node">
<title>Node12</title>
<g id="a_node12"><a xlink:href="a00438.xhtml#a0eed1ac1b3dd498717add1dfa56b3148" target="_top" xlink:title=" ">
<polygon fill="white" stroke="#666666" points="224.5,-19 88.5,-19 88.5,0 224.5,0 224.5,-19"/>
<text text-anchor="middle" x="156.5" y="-7" font-family="Helvetica,sans-Serif" font-size="10.00">CAudioFileSndLib::openFile</text>
</a>
</g>
</g>
<!-- Node1&#45;&gt;Node12 -->
<g id="edge11" class="edge">
<title>Node1&#45;&gt;Node12</title>
<path fill="none" stroke="#63b8ff" d="M331.59,-180.2C320.52,-144.4 291.74,-67.74 239,-28.5 233.87,-24.68 228.1,-21.62 222.05,-19.16"/>
<polygon fill="#63b8ff" stroke="#63b8ff" points="328.27,-181.32 334.47,-189.92 334.98,-179.34 328.27,-181.32"/>
</g>
<!-- Node11 -->
<g id="node11" class="node">
<title>Node11</title>
<g id="a_node11"><a xlink:href="a00116.xhtml#a0ddf1224851353fc92bfbff6f499fa97" target="_top" xlink:title=" ">
<polygon fill="white" stroke="#666666" points="38,-56 0,-56 0,-37 38,-37 38,-56"/>
<text text-anchor="middle" x="19" y="-44" font-family="Helvetica,sans-Serif" font-size="10.00">main</text>
</a>
</g>
</g>
<!-- Node10&#45;&gt;Node11 -->
<g id="edge10" class="edge">
<title>Node10&#45;&gt;Node11</title>
<path fill="none" stroke="#63b8ff" d="M103.09,-46.5C80.25,-46.5 54.95,-46.5 38.34,-46.5"/>
<polygon fill="#63b8ff" stroke="#63b8ff" points="103.37,-50 113.37,-46.5 103.37,-43 103.37,-50"/>
</g>
</g>
</svg>
