<?xml version="1.0" encoding="UTF-8" standalone="no"?>
<!DOCTYPE svg PUBLIC "-//W3C//DTD SVG 1.1//EN"
 "http://www.w3.org/Graphics/SVG/1.1/DTD/svg11.dtd">
<!-- Generated by graphviz version 12.2.1 (20241206.2353)
 -->
<!-- Title: CMatrix::transpose Pages: 1 -->
<svg width="358pt" height="101pt"
 viewBox="0.00 0.00 357.50 101.25" xmlns="http://www.w3.org/2000/svg" xmlns:xlink="http://www.w3.org/1999/xlink">

<svg id="main" version="1.1" xmlns="http://www.w3.org/2000/svg" xmlns:xlink="http://www.w3.org/1999/xlink" xml:space="preserve">

<style type="text/css"><![CDATA[
.node, .edge {opacity: 0.7;}
.node.selected, .edge.selected {opacity: 1;}
.edge:hover path { stroke: red; }
.edge:hover polygon { stroke: red; fill: red; }
]]></style>
<script type="application/ecmascript" xlink:href="svg.min.js"/>
<svg id="graph" class="graph">
<g id="graph0" class="graph" transform="scale(1 1) rotate(0) translate(4 97.25)">
<title>CMatrix::transpose</title>
<!-- Node1 -->
<g id="Node000001" class="node">
<title>Node1</title>
<g id="a_Node000001"><a xlink:title=" ">
<polygon fill="#999999" stroke="#666666" points="349.5,-56.25 253.25,-56.25 253.25,-37 349.5,-37 349.5,-56.25"/>
<text text-anchor="middle" x="301.38" y="-42.75" font-family="Helvetica,sans-Serif" font-size="10.00">CMatrix::transpose</text>
</a>
</g>
</g>
<!-- Node2 -->
<g id="Node000002" class="node">
<title>Node2</title>
<g id="a_Node000002"><a xlink:href="a00601.xhtml#a3185f8f3c718973ce66de3595e38db09" target="_top" xlink:title=" ">
<polygon fill="white" stroke="#666666" points="213.88,-93.25 128.12,-93.25 128.12,-74 213.88,-74 213.88,-93.25"/>
<text text-anchor="middle" x="171" y="-79.75" font-family="Helvetica,sans-Serif" font-size="10.00">CPca::compPca</text>
</a>
</g>
</g>
<!-- Node1&#45;&gt;Node2 -->
<g id="edge1_Node000001_Node000002" class="edge">
<title>Node1&#45;&gt;Node2</title>
<g id="a_edge1_Node000001_Node000002"><a xlink:title=" ">
<path fill="none" stroke="#63b8ff" d="M254.29,-59.91C238.72,-64.39 221.61,-69.33 207.04,-73.53"/>
<polygon fill="#63b8ff" stroke="#63b8ff" points="255.2,-63.29 263.84,-57.15 253.26,-56.56 255.2,-63.29"/>
</a>
</g>
</g>
<!-- Node3 -->
<g id="Node000003" class="node">
<title>Node3</title>
<g id="a_Node000003"><a xlink:href="a00597.xhtml#a3286e5142e39f0c59f3615271d08febc" target="_top" xlink:title=" ">
<polygon fill="white" stroke="#666666" points="217.25,-56.25 124.75,-56.25 124.75,-37 217.25,-37 217.25,-56.25"/>
<text text-anchor="middle" x="171" y="-42.75" font-family="Helvetica,sans-Serif" font-size="10.00">CNmf::runNmfIter</text>
</a>
</g>
</g>
<!-- Node1&#45;&gt;Node3 -->
<g id="edge2_Node000001_Node000003" class="edge">
<title>Node1&#45;&gt;Node3</title>
<g id="a_edge2_Node000001_Node000003"><a xlink:title=" ">
<path fill="none" stroke="#63b8ff" d="M241.63,-46.62C233.54,-46.62 225.34,-46.62 217.54,-46.62"/>
<polygon fill="#63b8ff" stroke="#63b8ff" points="241.42,-50.13 251.42,-46.63 241.42,-43.13 241.42,-50.13"/>
</a>
</g>
</g>
<!-- Node5 -->
<g id="Node000005" class="node">
<title>Node5</title>
<g id="a_Node000005"><a xlink:href="a00629.xhtml#aedd5ce22bf1cf98b70cc3757ba244b94" target="_top" xlink:title=" ">
<polygon fill="white" stroke="#666666" points="202.62,-19.25 139.38,-19.25 139.38,0 202.62,0 202.62,-19.25"/>
<text text-anchor="middle" x="171" y="-5.75" font-family="Helvetica,sans-Serif" font-size="10.00">CKnn::train</text>
</a>
</g>
</g>
<!-- Node1&#45;&gt;Node5 -->
<g id="edge4_Node000001_Node000005" class="edge">
<title>Node1&#45;&gt;Node5</title>
<g id="a_edge4_Node000001_Node000005"><a xlink:title=" ">
<path fill="none" stroke="#63b8ff" d="M254.43,-33.38C237.4,-28.47 218.5,-23.03 203.1,-18.59"/>
<polygon fill="#63b8ff" stroke="#63b8ff" points="253.26,-36.69 263.84,-36.1 255.2,-29.96 253.26,-36.69"/>
</a>
</g>
</g>
<!-- Node4 -->
<g id="Node000004" class="node">
<title>Node4</title>
<g id="a_Node000004"><a xlink:href="a00597.xhtml#ad0e347156c9992dd3d998d70b423fcea" target="_top" xlink:title=" ">
<polygon fill="white" stroke="#666666" points="88.75,-56.25 0,-56.25 0,-37 88.75,-37 88.75,-56.25"/>
<text text-anchor="middle" x="44.38" y="-42.75" font-family="Helvetica,sans-Serif" font-size="10.00">CNmf::compNmf</text>
</a>
</g>
</g>
<!-- Node3&#45;&gt;Node4 -->
<g id="edge3_Node000003_Node000004" class="edge">
<title>Node3&#45;&gt;Node4</title>
<g id="a_edge3_Node000003_Node000004"><a xlink:title=" ">
<path fill="none" stroke="#63b8ff" d="M113.03,-46.62C104.95,-46.62 96.76,-46.62 88.99,-46.62"/>
<polygon fill="#63b8ff" stroke="#63b8ff" points="112.79,-50.13 122.79,-46.63 112.79,-43.13 112.79,-50.13"/>
</a>
</g>
</g>
</g>
</svg>
</svg>

<style type='text/css'>
<![CDATA[
[data-mouse-over-selected='false'] { opacity: 0.7; }
[data-mouse-over-selected='true']  { opacity: 1.0; }
]]>
</style>
<script type="application/ecmascript"><![CDATA[
document.addEventListener('DOMContentLoaded', (event) => {
  highlightEdges();
  highlightAdjacentNodes();
});
]]></script>
</svg>
