<?xml version="1.0" encoding="UTF-8" standalone="no"?>
<!DOCTYPE svg PUBLIC "-//W3C//DTD SVG 1.1//EN"
 "http://www.w3.org/Graphics/SVG/1.1/DTD/svg11.dtd">
<!-- Generated by graphviz version 6.0.1 (20220911.1526)
 -->
<!-- Title: CAudioFileRaw::getLengthIntern_ Pages: 1 -->
<svg width="673pt" height="100pt"
 viewBox="0.00 0.00 673.00 100.32" xmlns="http://www.w3.org/2000/svg" xmlns:xlink="http://www.w3.org/1999/xlink">
<g id="graph0" class="graph" transform="scale(1 1) rotate(0) translate(4 96.32)">
<title>CAudioFileRaw::getLengthIntern_</title>
<!-- Node1 -->
<g id="node1" class="node">
<title>Node1</title>
<g id="a_node1"><a xlink:title=" ">
<polygon fill="#999999" stroke="#666666" points="131,-78 0,-78 0,-48 131,-48 131,-78"/>
<text text-anchor="start" x="8" y="-66" font-family="Helvetica,sans-Serif" font-size="10.00">CAudioFileRaw::getLength</text>
<text text-anchor="middle" x="65.5" y="-55" font-family="Helvetica,sans-Serif" font-size="10.00">Intern_</text>
</a>
</g>
</g>
<!-- Node2 -->
<g id="node2" class="node">
<title>Node2</title>
<g id="a_node2"><a xlink:href="a00442.xhtml#a74a50bd2e71e8c5886e6f9f2cd3df323" target="_top" xlink:title=" ">
<polygon fill="white" stroke="#666666" points="469.5,-78 344.5,-78 344.5,-48 469.5,-48 469.5,-78"/>
<text text-anchor="start" x="352.5" y="-66" font-family="Helvetica,sans-Serif" font-size="10.00">CAudioFileIf::convBytes2</text>
<text text-anchor="middle" x="407" y="-55" font-family="Helvetica,sans-Serif" font-size="10.00">Frames_</text>
</a>
</g>
</g>
<!-- Node1&#45;&gt;Node2 -->
<g id="edge1" class="edge">
<title>Node1&#45;&gt;Node2</title>
<path fill="none" stroke="#63b8ff" d="M119.28,-78.06C134.55,-81.74 151.32,-85.15 167,-87 227.47,-94.12 243.52,-94.02 304,-87 316.55,-85.54 329.79,-83.11 342.43,-80.34"/>
<polygon fill="#63b8ff" stroke="#63b8ff" points="343.45,-83.7 352.42,-78.06 341.89,-76.87 343.45,-83.7"/>
</g>
<!-- Node4 -->
<g id="node4" class="node">
<title>Node4</title>
<g id="a_node4"><a xlink:href="a00434.xhtml#a26cabec2623a393091df9550886e398c" target="_top" xlink:title=" ">
<polygon fill="white" stroke="#666666" points="304,-78 167,-78 167,-48 304,-48 304,-78"/>
<text text-anchor="start" x="175" y="-66" font-family="Helvetica,sans-Serif" font-size="10.00">CAudioFileRaw::getPosition</text>
<text text-anchor="middle" x="235.5" y="-55" font-family="Helvetica,sans-Serif" font-size="10.00">Intern_</text>
</a>
</g>
</g>
<!-- Node1&#45;&gt;Node4 -->
<g id="edge3" class="edge">
<title>Node1&#45;&gt;Node4</title>
<path fill="none" stroke="#63b8ff" d="M131.45,-63C139.72,-63 148.26,-63 156.7,-63"/>
<polygon fill="#63b8ff" stroke="#63b8ff" points="156.94,-66.5 166.94,-63 156.94,-59.5 156.94,-66.5"/>
</g>
<!-- Node5 -->
<g id="node5" class="node">
<title>Node5</title>
<g id="a_node5"><a xlink:href="a00434.xhtml#a9597fb10fa453bb1441245c01f37178d" target="_top" xlink:title=" ">
<polygon fill="white" stroke="#666666" points="304,-30 167,-30 167,0 304,0 304,-30"/>
<text text-anchor="start" x="175" y="-18" font-family="Helvetica,sans-Serif" font-size="10.00">CAudioFileRaw::setPosition</text>
<text text-anchor="middle" x="235.5" y="-7" font-family="Helvetica,sans-Serif" font-size="10.00">Intern_</text>
</a>
</g>
</g>
<!-- Node1&#45;&gt;Node5 -->
<g id="edge5" class="edge">
<title>Node1&#45;&gt;Node5</title>
<path fill="none" stroke="#63b8ff" d="M119.2,-47.94C135.93,-43.16 154.59,-37.83 171.95,-32.87"/>
<polygon fill="#63b8ff" stroke="#63b8ff" points="173.34,-36.11 181.99,-30 171.41,-29.38 173.34,-36.11"/>
</g>
<!-- Node3 -->
<g id="node3" class="node">
<title>Node3</title>
<g id="a_node3"><a xlink:href="a00442.xhtml#a8f40ad8df042735092624da261d5de85" target="_top" xlink:title=" ">
<polygon fill="white" stroke="#666666" points="665,-48.5 510,-48.5 510,-29.5 665,-29.5 665,-48.5"/>
<text text-anchor="middle" x="587.5" y="-36.5" font-family="Helvetica,sans-Serif" font-size="10.00">CAudioFileIf::getNumChannels_</text>
</a>
</g>
</g>
<!-- Node2&#45;&gt;Node3 -->
<g id="edge2" class="edge">
<title>Node2&#45;&gt;Node3</title>
<path fill="none" stroke="#63b8ff" d="M469.68,-54.71C481.25,-53.15 493.51,-51.5 505.57,-49.88"/>
<polygon fill="#63b8ff" stroke="#63b8ff" points="506.18,-53.33 515.62,-48.53 505.25,-46.39 506.18,-53.33"/>
</g>
<!-- Node4&#45;&gt;Node2 -->
<g id="edge4" class="edge">
<title>Node4&#45;&gt;Node2</title>
<path fill="none" stroke="#63b8ff" d="M304.47,-63C314.24,-63 324.33,-63 334.17,-63"/>
<polygon fill="#63b8ff" stroke="#63b8ff" points="334.33,-66.5 344.33,-63 334.33,-59.5 334.33,-66.5"/>
</g>
<!-- Node6 -->
<g id="node6" class="node">
<title>Node6</title>
<g id="a_node6"><a xlink:href="a00442.xhtml#a0bd2f97afe63b5e50c3b2ce4011607a9" target="_top" xlink:title=" ">
<polygon fill="white" stroke="#666666" points="474,-30 340,-30 340,0 474,0 474,-30"/>
<text text-anchor="start" x="348" y="-18" font-family="Helvetica,sans-Serif" font-size="10.00">CAudioFileIf::convFrames2</text>
<text text-anchor="middle" x="407" y="-7" font-family="Helvetica,sans-Serif" font-size="10.00">Bytes_</text>
</a>
</g>
</g>
<!-- Node5&#45;&gt;Node6 -->
<g id="edge6" class="edge">
<title>Node5&#45;&gt;Node6</title>
<path fill="none" stroke="#63b8ff" d="M304.47,-15C312.78,-15 321.32,-15 329.75,-15"/>
<polygon fill="#63b8ff" stroke="#63b8ff" points="329.95,-18.5 339.95,-15 329.95,-11.5 329.95,-18.5"/>
</g>
<!-- Node6&#45;&gt;Node3 -->
<g id="edge7" class="edge">
<title>Node6&#45;&gt;Node3</title>
<path fill="none" stroke="#63b8ff" d="M474.21,-23.9C484.44,-25.28 495.1,-26.71 505.6,-28.12"/>
<polygon fill="#63b8ff" stroke="#63b8ff" points="505.23,-31.6 515.6,-29.47 506.16,-24.67 505.23,-31.6"/>
</g>
</g>
</svg>
