<?xml version="1.0" encoding="UTF-8" standalone="no"?>
<!DOCTYPE svg PUBLIC "-//W3C//DTD SVG 1.1//EN"
 "http://www.w3.org/Graphics/SVG/1.1/DTD/svg11.dtd">
<!-- Generated by graphviz version 4.0.0 (20220602.1335)
 -->
<!-- Title: CGammatone::calcFilterCoeffs_ Pages: 1 -->
<svg width="629pt" height="137pt"
 viewBox="0.00 0.00 629.00 137.00" xmlns="http://www.w3.org/2000/svg" xmlns:xlink="http://www.w3.org/1999/xlink">
<g id="graph0" class="graph" transform="scale(1 1) rotate(0) translate(4 133)">
<title>CGammatone::calcFilterCoeffs_</title>
<polygon fill="white" stroke="transparent" points="-4,4 -4,-133 625,-133 625,4 -4,4"/>
<!-- Node1 -->
<g id="node1" class="node">
<title>Node1</title>
<g id="a_node1"><a xlink:title=" ">
<polygon fill="#bfbfbf" stroke="black" points="467,-55 467,-74 621,-74 621,-55 467,-55"/>
<text text-anchor="middle" x="544" y="-62" font-family="Helvetica,sans-Serif" font-size="10.00">CGammatone::calcFilterCoeffs_</text>
</a>
</g>
</g>
<!-- Node2 -->
<g id="node2" class="node">
<title>Node2</title>
<g id="a_node2"><a xlink:href="a00418.xhtml#a13edc08e70801919a66e65a330f150c2" target="_top" xlink:title=" ">
<polygon fill="white" stroke="black" points="337,-55 337,-74 431,-74 431,-55 337,-55"/>
<text text-anchor="middle" x="384" y="-62" font-family="Helvetica,sans-Serif" font-size="10.00">CGammatone::init</text>
</a>
</g>
</g>
<!-- Node1&#45;&gt;Node2 -->
<g id="edge1" class="edge">
<title>Node1&#45;&gt;Node2</title>
<path fill="none" stroke="midnightblue" d="M456.53,-57.78C447.82,-57.84 439.24,-58.01 431.21,-58.3"/>
<polygon fill="midnightblue" stroke="midnightblue" points="456.78,-61.28 466.78,-57.75 456.77,-54.28 456.78,-61.28"/>
</g>
<!-- Node2&#45;&gt;Node1 -->
<g id="edge2" class="edge">
<title>Node2&#45;&gt;Node1</title>
<path fill="none" stroke="midnightblue" d="M441.41,-71C449.64,-71.19 458.23,-71.27 466.78,-71.25"/>
<polygon fill="midnightblue" stroke="midnightblue" points="441.3,-67.49 431.21,-70.7 441.1,-74.49 441.3,-67.49"/>
</g>
<!-- Node3 -->
<g id="node3" class="node">
<title>Node3</title>
<g id="a_node3"><a xlink:href="a00558.xhtml#a0b3ba7948620d116d8fcee83010c56ba" target="_top" xlink:title="init configuration">
<polygon fill="white" stroke="black" points="182,-55 182,-74 301,-74 301,-55 182,-55"/>
<text text-anchor="middle" x="241.5" y="-62" font-family="Helvetica,sans-Serif" font-size="10.00">CGammaToneFbIf::init_</text>
</a>
</g>
</g>
<!-- Node2&#45;&gt;Node3 -->
<g id="edge3" class="edge">
<title>Node2&#45;&gt;Node3</title>
<path fill="none" stroke="midnightblue" d="M326.86,-64.5C318.41,-64.5 309.67,-64.5 301.17,-64.5"/>
<polygon fill="midnightblue" stroke="midnightblue" points="327,-68 337,-64.5 327,-61 327,-68"/>
</g>
<!-- Node4 -->
<g id="node4" class="node">
<title>Node4</title>
<g id="a_node4"><a xlink:href="a00422.xhtml#aec7867658e2991c8526c78666c960920" target="_top" xlink:title=" ">
<polygon fill="white" stroke="black" points="6,-98.5 6,-128.5 140,-128.5 140,-98.5 6,-98.5"/>
<text text-anchor="start" x="14" y="-116.5" font-family="Helvetica,sans-Serif" font-size="10.00">CGammaToneFbFromFile</text>
<text text-anchor="middle" x="73" y="-105.5" font-family="Helvetica,sans-Serif" font-size="10.00">::CGammaToneFbFromFile</text>
</a>
</g>
</g>
<!-- Node3&#45;&gt;Node4 -->
<g id="edge4" class="edge">
<title>Node3&#45;&gt;Node4</title>
<path fill="none" stroke="midnightblue" d="M198.18,-76.95C175.94,-83.5 148.51,-91.57 125.09,-98.46"/>
<polygon fill="midnightblue" stroke="midnightblue" points="199.4,-80.24 208,-74.06 197.42,-73.53 199.4,-80.24"/>
</g>
<!-- Node5 -->
<g id="node5" class="node">
<title>Node5</title>
<g id="a_node5"><a xlink:href="a00426.xhtml#a01a1b74d93af0810f5f4962b2578ca11" target="_top" xlink:title=" ">
<polygon fill="white" stroke="black" points="0,-49.5 0,-79.5 146,-79.5 146,-49.5 0,-49.5"/>
<text text-anchor="start" x="8" y="-67.5" font-family="Helvetica,sans-Serif" font-size="10.00">CGammaToneFbFromVector</text>
<text text-anchor="middle" x="73" y="-56.5" font-family="Helvetica,sans-Serif" font-size="10.00">::CGammaToneFbFromVector</text>
</a>
</g>
</g>
<!-- Node3&#45;&gt;Node5 -->
<g id="edge5" class="edge">
<title>Node3&#45;&gt;Node5</title>
<path fill="none" stroke="midnightblue" d="M171.66,-64.5C163.25,-64.5 154.64,-64.5 146.18,-64.5"/>
<polygon fill="midnightblue" stroke="midnightblue" points="171.8,-68 181.8,-64.5 171.8,-61 171.8,-68"/>
</g>
<!-- Node6 -->
<g id="node6" class="node">
<title>Node6</title>
<g id="a_node6"><a xlink:href="a00430.xhtml#a016022732eaec0576f3a8dfc8158fcae" target="_top" xlink:title=" ">
<polygon fill="white" stroke="black" points="4.5,-0.5 4.5,-30.5 141.5,-30.5 141.5,-0.5 4.5,-0.5"/>
<text text-anchor="start" x="12.5" y="-18.5" font-family="Helvetica,sans-Serif" font-size="10.00">CGammaToneFbRealTime</text>
<text text-anchor="middle" x="73" y="-7.5" font-family="Helvetica,sans-Serif" font-size="10.00">::CGammaToneFbRealTime</text>
</a>
</g>
</g>
<!-- Node3&#45;&gt;Node6 -->
<g id="edge6" class="edge">
<title>Node3&#45;&gt;Node6</title>
<path fill="none" stroke="midnightblue" d="M198.18,-52.05C175.94,-45.5 148.51,-37.43 125.09,-30.54"/>
<polygon fill="midnightblue" stroke="midnightblue" points="197.42,-55.47 208,-54.94 199.4,-48.76 197.42,-55.47"/>
</g>
</g>
</svg>
