<?xml version="1.0" encoding="UTF-8" standalone="no"?>
<!DOCTYPE svg PUBLIC "-//W3C//DTD SVG 1.1//EN"
 "http://www.w3.org/Graphics/SVG/1.1/DTD/svg11.dtd">
<!-- Generated by graphviz version 12.2.1 (20241206.2353)
 -->
<!-- Title: CAudioFileRaw::writeDataIntern_ Pages: 1 -->
<svg width="496pt" height="206pt"
 viewBox="0.00 0.00 495.50 205.50" xmlns="http://www.w3.org/2000/svg" xmlns:xlink="http://www.w3.org/1999/xlink">
<g id="graph0" class="graph" transform="scale(1 1) rotate(0) translate(4 201.5)">
<title>CAudioFileRaw::writeDataIntern_</title>
<!-- Node1 -->
<g id="Node000001" class="node">
<title>Node1</title>
<g id="a_Node000001"><a xlink:title=" ">
<polygon fill="#999999" stroke="#666666" points="128.5,-135.5 0,-135.5 0,-105 128.5,-105 128.5,-135.5"/>
<text text-anchor="start" x="8" y="-122" font-family="Helvetica,sans-Serif" font-size="10.00">CAudioFileRaw::writeData</text>
<text text-anchor="middle" x="64.25" y="-110.75" font-family="Helvetica,sans-Serif" font-size="10.00">Intern_</text>
</a>
</g>
</g>
<!-- Node2 -->
<g id="Node000002" class="node">
<title>Node2</title>
<g id="a_Node000002"><a xlink:href="a00445.xhtml#a0bd2f97afe63b5e50c3b2ce4011607a9" target="_top" xlink:title=" ">
<polygon fill="white" stroke="#666666" points="297.5,-197.5 164.5,-197.5 164.5,-167 297.5,-167 297.5,-197.5"/>
<text text-anchor="start" x="172.5" y="-184" font-family="Helvetica,sans-Serif" font-size="10.00">CAudioFileIf::convFrames2</text>
<text text-anchor="middle" x="231" y="-172.75" font-family="Helvetica,sans-Serif" font-size="10.00">Bytes_</text>
</a>
</g>
</g>
<!-- Node1&#45;&gt;Node2 -->
<g id="edge1_Node000001_Node000002" class="edge">
<title>Node1&#45;&gt;Node2</title>
<g id="a_edge1_Node000001_Node000002"><a xlink:title=" ">
<path fill="none" stroke="#63b8ff" d="M106.82,-135.9C128.3,-143.98 154.73,-153.92 177.59,-162.53"/>
<polygon fill="#63b8ff" stroke="#63b8ff" points="176.15,-165.72 186.74,-165.97 178.61,-159.17 176.15,-165.72"/>
</a>
</g>
</g>
<!-- Node3 -->
<g id="Node000003" class="node">
<title>Node3</title>
<g id="a_Node000003"><a xlink:href="a00445.xhtml#a8f40ad8df042735092624da261d5de85" target="_top" xlink:title=" ">
<polygon fill="white" stroke="#666666" points="487.5,-172.88 333.5,-172.88 333.5,-153.62 487.5,-153.62 487.5,-172.88"/>
<text text-anchor="middle" x="410.5" y="-159.38" font-family="Helvetica,sans-Serif" font-size="10.00">CAudioFileIf::getNumChannels_</text>
</a>
</g>
</g>
<!-- Node1&#45;&gt;Node3 -->
<g id="edge4_Node000001_Node000003" class="edge">
<title>Node1&#45;&gt;Node3</title>
<g id="a_edge4_Node000001_Node000003"><a xlink:title=" ">
<path fill="none" stroke="#63b8ff" d="M128.79,-128.19C183,-134.96 261.49,-144.76 321.7,-152.28"/>
<polygon fill="#63b8ff" stroke="#63b8ff" points="321.24,-155.75 331.6,-153.52 322.11,-148.81 321.24,-155.75"/>
</a>
</g>
</g>
<!-- Node4 -->
<g id="Node000004" class="node">
<title>Node4</title>
<g id="a_Node000004"><a xlink:href="a00501.xhtml#a9edb25bb88d789958e1740578b65cbbb" target="_top" xlink:title=" ">
<polygon fill="white" stroke="#666666" points="269,-110.88 193,-110.88 193,-91.62 269,-91.62 269,-110.88"/>
<text text-anchor="middle" x="231" y="-97.38" font-family="Helvetica,sans-Serif" font-size="10.00">CUtil::float2int</text>
</a>
</g>
</g>
<!-- Node1&#45;&gt;Node4 -->
<g id="edge3_Node000001_Node000004" class="edge">
<title>Node1&#45;&gt;Node4</title>
<g id="a_edge3_Node000001_Node000004"><a xlink:title=" ">
<path fill="none" stroke="#63b8ff" d="M128.95,-112.9C146.46,-110.88 165.15,-108.73 181.65,-106.83"/>
<polygon fill="#63b8ff" stroke="#63b8ff" points="181.63,-110.35 191.17,-105.73 180.83,-103.4 181.63,-110.35"/>
</a>
</g>
</g>
<!-- Node5 -->
<g id="Node000005" class="node">
<title>Node5</title>
<g id="a_Node000005"><a xlink:href="a00437.xhtml#a8b2a01be9952441ead5aa47b6a49da26" target="_top" xlink:title=" ">
<polygon fill="white" stroke="#666666" points="292.62,-73.88 169.38,-73.88 169.38,-54.62 292.62,-54.62 292.62,-73.88"/>
<text text-anchor="middle" x="231" y="-60.38" font-family="Helvetica,sans-Serif" font-size="10.00">CAudioFileRaw::scaleUp</text>
</a>
</g>
</g>
<!-- Node1&#45;&gt;Node5 -->
<g id="edge5_Node000001_Node000005" class="edge">
<title>Node1&#45;&gt;Node5</title>
<g id="a_edge5_Node000001_Node000005"><a xlink:title=" ">
<path fill="none" stroke="#63b8ff" d="M103.59,-104.57C121.88,-97.35 144.16,-88.92 164.5,-82.25 169.56,-80.59 174.87,-78.96 180.18,-77.39"/>
<polygon fill="#63b8ff" stroke="#63b8ff" points="180.92,-80.82 189.57,-74.71 178.99,-74.09 180.92,-80.82"/>
</a>
</g>
</g>
<!-- Node2&#45;&gt;Node3 -->
<g id="edge2_Node000002_Node000003" class="edge">
<title>Node2&#45;&gt;Node3</title>
<g id="a_edge2_Node000002_Node000003"><a xlink:title=" ">
<path fill="none" stroke="#63b8ff" d="M297.84,-175.2C305.69,-174.36 313.79,-173.49 321.88,-172.63"/>
<polygon fill="#63b8ff" stroke="#63b8ff" points="322.21,-176.11 331.78,-171.57 321.46,-169.15 322.21,-176.11"/>
</a>
</g>
</g>
<!-- Node6 -->
<g id="Node000006" class="node">
<title>Node6</title>
<g id="a_Node000006"><a xlink:href="a00445.xhtml#a4fbb0a778b2b8113081d670fc8378031" target="_top" xlink:title=" ">
<polygon fill="white" stroke="#666666" points="474,-116.88 347,-116.88 347,-97.62 474,-97.62 474,-116.88"/>
<text text-anchor="middle" x="410.5" y="-103.38" font-family="Helvetica,sans-Serif" font-size="10.00">CAudioFileIf::clip2Range_</text>
</a>
</g>
</g>
<!-- Node5&#45;&gt;Node6 -->
<g id="edge6_Node000005_Node000006" class="edge">
<title>Node5&#45;&gt;Node6</title>
<g id="a_edge6_Node000005_Node000006"><a xlink:title=" ">
<path fill="none" stroke="#63b8ff" d="M273.62,-74.33C298.45,-80.35 330.22,-88.05 356.8,-94.48"/>
<polygon fill="#63b8ff" stroke="#63b8ff" points="355.82,-97.85 366.37,-96.8 357.47,-91.04 355.82,-97.85"/>
</a>
</g>
</g>
<!-- Node7 -->
<g id="Node000007" class="node">
<title>Node7</title>
<g id="a_Node000007"><a xlink:href="a00445.xhtml#a1a04689f74a88c77fa2cbfaacdb7b448" target="_top" xlink:title=" ">
<polygon fill="white" stroke="#666666" points="473.25,-79.5 347.75,-79.5 347.75,-49 473.25,-49 473.25,-79.5"/>
<text text-anchor="start" x="355.75" y="-66" font-family="Helvetica,sans-Serif" font-size="10.00">CAudioFileIf::getNumBits</text>
<text text-anchor="middle" x="410.5" y="-54.75" font-family="Helvetica,sans-Serif" font-size="10.00">PerSample_</text>
</a>
</g>
</g>
<!-- Node5&#45;&gt;Node7 -->
<g id="edge7_Node000005_Node000007" class="edge">
<title>Node5&#45;&gt;Node7</title>
<g id="a_edge7_Node000005_Node000007"><a xlink:title=" ">
<path fill="none" stroke="#63b8ff" d="M293.09,-64.25C306.93,-64.25 321.78,-64.25 336.08,-64.25"/>
<polygon fill="#63b8ff" stroke="#63b8ff" points="335.88,-67.75 345.88,-64.25 335.88,-60.75 335.88,-67.75"/>
</a>
</g>
</g>
<!-- Node8 -->
<g id="Node000008" class="node">
<title>Node8</title>
<g id="a_Node000008"><a xlink:href="a00445.xhtml#a56af13d52f1294e627d276f756edc780" target="_top" xlink:title=" ">
<polygon fill="white" stroke="#666666" points="468.38,-30.5 352.62,-30.5 352.62,0 468.38,0 468.38,-30.5"/>
<text text-anchor="start" x="360.62" y="-17" font-family="Helvetica,sans-Serif" font-size="10.00">CAudioFileIf::isClipping</text>
<text text-anchor="middle" x="410.5" y="-5.75" font-family="Helvetica,sans-Serif" font-size="10.00">Enabled</text>
</a>
</g>
</g>
<!-- Node5&#45;&gt;Node8 -->
<g id="edge8_Node000005_Node000008" class="edge">
<title>Node5&#45;&gt;Node8</title>
<g id="a_edge8_Node000005_Node000008"><a xlink:title=" ">
<path fill="none" stroke="#63b8ff" d="M268.35,-54.22C289.46,-48.39 316.75,-40.86 341.69,-33.97"/>
<polygon fill="#63b8ff" stroke="#63b8ff" points="342.41,-37.4 351.12,-31.37 340.55,-30.65 342.41,-37.4"/>
</a>
</g>
</g>
</g>
</svg>
