<?xml version="1.0" encoding="UTF-8" standalone="no"?>
<!DOCTYPE svg PUBLIC "-//W3C//DTD SVG 1.1//EN"
 "http://www.w3.org/Graphics/SVG/1.1/DTD/svg11.dtd">
<!-- Generated by graphviz version 12.2.1 (20241206.2353)
 -->
<!-- Title: CFeatureFromBlockIf::compFeatureTimeStd Pages: 1 -->
<svg width="497pt" height="39pt"
 viewBox="0.00 0.00 497.25 38.50" xmlns="http://www.w3.org/2000/svg" xmlns:xlink="http://www.w3.org/1999/xlink">
<g id="graph0" class="graph" transform="scale(1 1) rotate(0) translate(4 34.5)">
<title>CFeatureFromBlockIf::compFeatureTimeStd</title>
<!-- Node1 -->
<g id="Node000001" class="node">
<title>Node1</title>
<g id="a_Node000001"><a xlink:title=" ">
<polygon fill="#999999" stroke="#666666" points="114.25,-30.5 0,-30.5 0,0 114.25,0 114.25,-30.5"/>
<text text-anchor="start" x="8" y="-17" font-family="Helvetica,sans-Serif" font-size="10.00">CFeatureFromBlockIf</text>
<text text-anchor="middle" x="57.12" y="-5.75" font-family="Helvetica,sans-Serif" font-size="10.00">::compFeatureTimeStd</text>
</a>
</g>
</g>
<!-- Node2 -->
<g id="Node000002" class="node">
<title>Node2</title>
<g id="a_Node000002"><a xlink:href="a00505.xhtml#ae2ed42101e3d7075f5dec265a23f3424" target="_top" xlink:title=" ">
<polygon fill="white" stroke="#666666" points="234.5,-24.88 150.25,-24.88 150.25,-5.63 234.5,-5.63 234.5,-24.88"/>
<text text-anchor="middle" x="192.38" y="-11.38" font-family="Helvetica,sans-Serif" font-size="10.00">CVector::getStd</text>
</a>
</g>
</g>
<!-- Node1&#45;&gt;Node2 -->
<g id="edge1_Node000001_Node000002" class="edge">
<title>Node1&#45;&gt;Node2</title>
<g id="a_edge1_Node000001_Node000002"><a xlink:title=" ">
<path fill="none" stroke="#63b8ff" d="M114.63,-15.25C122.64,-15.25 130.85,-15.25 138.78,-15.25"/>
<polygon fill="#63b8ff" stroke="#63b8ff" points="138.62,-18.75 148.62,-15.25 138.62,-11.75 138.62,-18.75"/>
</a>
</g>
</g>
<!-- Node3 -->
<g id="Node000003" class="node">
<title>Node3</title>
<g id="a_Node000003"><a xlink:href="a00505.xhtml#ae6e3545cf196c5e2409365bc62b7c1de" target="_top" xlink:title=" ">
<polygon fill="white" stroke="#666666" points="363.75,-24.88 270.5,-24.88 270.5,-5.63 363.75,-5.63 363.75,-24.88"/>
<text text-anchor="middle" x="317.12" y="-11.38" font-family="Helvetica,sans-Serif" font-size="10.00">CVector::getMean</text>
</a>
</g>
</g>
<!-- Node2&#45;&gt;Node3 -->
<g id="edge2_Node000002_Node000003" class="edge">
<title>Node2&#45;&gt;Node3</title>
<g id="a_edge2_Node000002_Node000003"><a xlink:title=" ">
<path fill="none" stroke="#63b8ff" d="M234.93,-15.25C242.69,-15.25 250.91,-15.25 259.04,-15.25"/>
<polygon fill="#63b8ff" stroke="#63b8ff" points="258.88,-18.75 268.88,-15.25 258.88,-11.75 258.88,-18.75"/>
</a>
</g>
</g>
<!-- Node4 -->
<g id="Node000004" class="node">
<title>Node4</title>
<g id="a_Node000004"><a xlink:href="a00505.xhtml#abdbcc3898121387f3694f74491b7331e" target="_top" xlink:title=" ">
<polygon fill="white" stroke="#666666" points="489.25,-24.88 399.75,-24.88 399.75,-5.63 489.25,-5.63 489.25,-24.88"/>
<text text-anchor="middle" x="444.5" y="-11.38" font-family="Helvetica,sans-Serif" font-size="10.00">CVector::getSum</text>
</a>
</g>
</g>
<!-- Node3&#45;&gt;Node4 -->
<g id="edge3_Node000003_Node000004" class="edge">
<title>Node3&#45;&gt;Node4</title>
<g id="a_edge3_Node000003_Node000004"><a xlink:title=" ">
<path fill="none" stroke="#63b8ff" d="M364.1,-15.25C371.98,-15.25 380.25,-15.25 388.34,-15.25"/>
<polygon fill="#63b8ff" stroke="#63b8ff" points="388.11,-18.75 398.11,-15.25 388.11,-11.75 388.11,-18.75"/>
</a>
</g>
</g>
</g>
</svg>
