<?xml version="1.0" encoding="UTF-8" standalone="no"?>
<!DOCTYPE svg PUBLIC "-//W3C//DTD SVG 1.1//EN"
 "http://www.w3.org/Graphics/SVG/1.1/DTD/svg11.dtd">
<!-- Generated by graphviz version 12.2.1 (20241206.2353)
 -->
<!-- Title: CAudioFileIf::CAudioFileIf Pages: 1 -->
<svg width="631pt" height="113pt"
 viewBox="0.00 0.00 630.75 112.88" xmlns="http://www.w3.org/2000/svg" xmlns:xlink="http://www.w3.org/1999/xlink">
<g id="graph0" class="graph" transform="scale(1 1) rotate(0) translate(4 108.88)">
<title>CAudioFileIf::CAudioFileIf</title>
<!-- Node1 -->
<g id="Node000001" class="node">
<title>Node1</title>
<g id="a_Node000001"><a xlink:title=" ">
<polygon fill="#999999" stroke="#666666" points="127,-56.25 0,-56.25 0,-37 127,-37 127,-56.25"/>
<text text-anchor="middle" x="63.5" y="-42.75" font-family="Helvetica,sans-Serif" font-size="10.00">CAudioFileIf::CAudioFileIf</text>
</a>
</g>
</g>
<!-- Node2 -->
<g id="Node000002" class="node">
<title>Node2</title>
<g id="a_Node000002"><a xlink:href="a00445.xhtml#a303a350a95e8af4cfbaaf61c1274b790" target="_top" xlink:title=" ">
<polygon fill="white" stroke="#666666" points="290,-56.25 163,-56.25 163,-37 290,-37 290,-56.25"/>
<text text-anchor="middle" x="226.5" y="-42.75" font-family="Helvetica,sans-Serif" font-size="10.00">CAudioFileIf::CAudioFileIf</text>
</a>
</g>
</g>
<!-- Node1&#45;&gt;Node2 -->
<g id="edge1_Node000001_Node000002" class="edge">
<title>Node1&#45;&gt;Node2</title>
<g id="a_edge1_Node000001_Node000002"><a xlink:title=" ">
<path fill="none" stroke="#63b8ff" d="M127.21,-46.62C135.13,-46.62 143.29,-46.62 151.37,-46.62"/>
<polygon fill="#63b8ff" stroke="#63b8ff" points="151.18,-50.13 161.18,-46.63 151.18,-43.13 151.18,-50.13"/>
</a>
</g>
</g>
<!-- Node3 -->
<g id="Node000003" class="node">
<title>Node3</title>
<g id="a_Node000003"><a xlink:href="a00445.xhtml#a9fcdd386ee5292b5a971c7077858274c" target="_top" xlink:title=" ">
<polygon fill="white" stroke="#666666" points="453.75,-56.25 326,-56.25 326,-37 453.75,-37 453.75,-56.25"/>
<text text-anchor="middle" x="389.88" y="-42.75" font-family="Helvetica,sans-Serif" font-size="10.00">CAudioFileIf::initDefaults_</text>
</a>
</g>
</g>
<!-- Node2&#45;&gt;Node3 -->
<g id="edge2_Node000002_Node000003" class="edge">
<title>Node2&#45;&gt;Node3</title>
<g id="a_edge2_Node000002_Node000003"><a xlink:title=" ">
<path fill="none" stroke="#63b8ff" d="M290.35,-46.62C298.23,-46.62 306.35,-46.62 314.39,-46.62"/>
<polygon fill="#63b8ff" stroke="#63b8ff" points="314.15,-50.13 324.15,-46.63 314.15,-43.13 314.15,-50.13"/>
</a>
</g>
</g>
<!-- Node4 -->
<g id="Node000004" class="node">
<title>Node4</title>
<g id="a_Node000004"><a xlink:href="a00445.xhtml#a5a74fd1730a2f0f7339b6507ca7abc23" target="_top" xlink:title=" ">
<polygon fill="white" stroke="#666666" points="617.12,-104.88 495.38,-104.88 495.38,-74.38 617.12,-74.38 617.12,-104.88"/>
<text text-anchor="start" x="503.38" y="-91.38" font-family="Helvetica,sans-Serif" font-size="10.00">CAudioFileIf::setClipping</text>
<text text-anchor="middle" x="556.25" y="-80.12" font-family="Helvetica,sans-Serif" font-size="10.00">Enabled</text>
</a>
</g>
</g>
<!-- Node3&#45;&gt;Node4 -->
<g id="edge3_Node000003_Node000004" class="edge">
<title>Node3&#45;&gt;Node4</title>
<g id="a_edge3_Node000003_Node000004"><a xlink:title=" ">
<path fill="none" stroke="#63b8ff" d="M429.41,-56.71C445.75,-60.98 465.34,-66.1 484.13,-71.02"/>
<polygon fill="#63b8ff" stroke="#63b8ff" points="483.06,-74.36 493.62,-73.5 484.83,-67.58 483.06,-74.36"/>
</a>
</g>
</g>
<!-- Node5 -->
<g id="Node000005" class="node">
<title>Node5</title>
<g id="a_Node000005"><a xlink:href="a00445.xhtml#ada0ab1ffd0666fdc0db872ca7f8a309f" target="_top" xlink:title=" ">
<polygon fill="white" stroke="#666666" points="622.75,-56.25 489.75,-56.25 489.75,-37 622.75,-37 622.75,-56.25"/>
<text text-anchor="middle" x="556.25" y="-42.75" font-family="Helvetica,sans-Serif" font-size="10.00">CAudioFileIf::setInitialized_</text>
</a>
</g>
</g>
<!-- Node3&#45;&gt;Node5 -->
<g id="edge4_Node000003_Node000005" class="edge">
<title>Node3&#45;&gt;Node5</title>
<g id="a_edge4_Node000003_Node000005"><a xlink:title=" ">
<path fill="none" stroke="#63b8ff" d="M453.96,-46.62C461.83,-46.62 469.96,-46.62 478.02,-46.62"/>
<polygon fill="#63b8ff" stroke="#63b8ff" points="477.83,-50.13 487.83,-46.63 477.83,-43.13 477.83,-50.13"/>
</a>
</g>
</g>
<!-- Node6 -->
<g id="Node000006" class="node">
<title>Node6</title>
<g id="a_Node000006"><a xlink:href="a00445.xhtml#a6ccc53d8d2c5113b5b2cba604e8a4510" target="_top" xlink:title=" ">
<polygon fill="white" stroke="#666666" points="617.12,-19.25 495.38,-19.25 495.38,0 617.12,0 617.12,-19.25"/>
<text text-anchor="middle" x="556.25" y="-5.75" font-family="Helvetica,sans-Serif" font-size="10.00">CAudioFileIf::setIoType_</text>
</a>
</g>
</g>
<!-- Node3&#45;&gt;Node6 -->
<g id="edge5_Node000003_Node000006" class="edge">
<title>Node3&#45;&gt;Node6</title>
<g id="a_edge5_Node000003_Node000006"><a xlink:title=" ">
<path fill="none" stroke="#63b8ff" d="M435.79,-36.51C455.36,-32.11 478.51,-26.9 499.19,-22.24"/>
<polygon fill="#63b8ff" stroke="#63b8ff" points="499.92,-25.67 508.91,-20.06 498.39,-18.84 499.92,-25.67"/>
</a>
</g>
</g>
</g>
</svg>
