<?xml version="1.0" encoding="UTF-8" standalone="no"?>
<!DOCTYPE svg PUBLIC "-//W3C//DTD SVG 1.1//EN"
 "http://www.w3.org/Graphics/SVG/1.1/DTD/svg11.dtd">
<!-- Generated by graphviz version 4.0.0 (20220602.1335)
 -->
<!-- Title: CAudioFileIf::getNumBitsPerSample_ Pages: 1 -->
<svg width="503pt" height="121pt"
 viewBox="0.00 0.00 503.00 120.50" xmlns="http://www.w3.org/2000/svg" xmlns:xlink="http://www.w3.org/1999/xlink">
<g id="graph0" class="graph" transform="scale(1 1) rotate(0) translate(4 116.5)">
<title>CAudioFileIf::getNumBitsPerSample_</title>
<polygon fill="white" stroke="transparent" points="-4,4 -4,-116.5 499,-116.5 499,4 -4,4"/>
<!-- Node1 -->
<g id="node1" class="node">
<title>Node1</title>
<g id="a_node1"><a xlink:title=" ">
<polygon fill="#bfbfbf" stroke="black" points="369,-44.5 369,-74.5 495,-74.5 495,-44.5 369,-44.5"/>
<text text-anchor="start" x="377" y="-62.5" font-family="Helvetica,sans-Serif" font-size="10.00">CAudioFileIf::getNumBits</text>
<text text-anchor="middle" x="432" y="-51.5" font-family="Helvetica,sans-Serif" font-size="10.00">PerSample_</text>
</a>
</g>
</g>
<!-- Node2 -->
<g id="node2" class="node">
<title>Node2</title>
<g id="a_node2"><a xlink:href="a00440.xhtml#ad549835e10abaec5cc4a60848e286f71" target="_top" xlink:title=" ">
<polygon fill="white" stroke="black" points="195,-91 195,-110 331,-110 331,-91 195,-91"/>
<text text-anchor="middle" x="263" y="-98" font-family="Helvetica,sans-Serif" font-size="10.00">CAudioFileRaw::scaleDown</text>
</a>
</g>
</g>
<!-- Node1&#45;&gt;Node2 -->
<g id="edge1" class="edge">
<title>Node1&#45;&gt;Node2</title>
<path fill="none" stroke="midnightblue" d="M359.95,-76.94C340.4,-81.74 319.91,-86.77 302.92,-90.95"/>
<polygon fill="midnightblue" stroke="midnightblue" points="360.89,-80.32 369.76,-74.53 359.22,-73.52 360.89,-80.32"/>
</g>
<!-- Node4 -->
<g id="node4" class="node">
<title>Node4</title>
<g id="a_node4"><a xlink:href="a00440.xhtml#a8b2a01be9952441ead5aa47b6a49da26" target="_top" xlink:title=" ">
<polygon fill="white" stroke="black" points="201,-50 201,-69 325,-69 325,-50 201,-50"/>
<text text-anchor="middle" x="263" y="-57" font-family="Helvetica,sans-Serif" font-size="10.00">CAudioFileRaw::scaleUp</text>
</a>
</g>
</g>
<!-- Node1&#45;&gt;Node4 -->
<g id="edge3" class="edge">
<title>Node1&#45;&gt;Node4</title>
<path fill="none" stroke="midnightblue" d="M358.65,-59.5C347.47,-59.5 336.02,-59.5 325.13,-59.5"/>
<polygon fill="midnightblue" stroke="midnightblue" points="358.82,-63 368.82,-59.5 358.82,-56 358.82,-63"/>
</g>
<!-- Node6 -->
<g id="node6" class="node">
<title>Node6</title>
<g id="a_node6"><a xlink:href="a00444.xhtml#a9e118ee4970e64d98d8eb3ba817bb910" target="_top" xlink:title=" ">
<polygon fill="white" stroke="black" points="193,-0.5 193,-30.5 333,-30.5 333,-0.5 193,-0.5"/>
<text text-anchor="start" x="201" y="-18.5" font-family="Helvetica,sans-Serif" font-size="10.00">CAudioFileSndLib::writeData</text>
<text text-anchor="middle" x="263" y="-7.5" font-family="Helvetica,sans-Serif" font-size="10.00">Intern_</text>
</a>
</g>
</g>
<!-- Node1&#45;&gt;Node6 -->
<g id="edge5" class="edge">
<title>Node1&#45;&gt;Node6</title>
<path fill="none" stroke="midnightblue" d="M364.22,-41.91C349.92,-38.14 334.93,-34.19 321.03,-30.53"/>
<polygon fill="midnightblue" stroke="midnightblue" points="363.43,-45.32 374,-44.48 365.22,-38.55 363.43,-45.32"/>
</g>
<!-- Node3 -->
<g id="node3" class="node">
<title>Node3</title>
<g id="a_node3"><a xlink:href="a00440.xhtml#a62ab9a934151001b1e87ea36fe8dbdbf" target="_top" xlink:title=" ">
<polygon fill="white" stroke="black" points="0,-93 0,-112 157,-112 157,-93 0,-93"/>
<text text-anchor="middle" x="78.5" y="-100" font-family="Helvetica,sans-Serif" font-size="10.00">CAudioFileRaw::readDataIntern_</text>
</a>
</g>
</g>
<!-- Node2&#45;&gt;Node3 -->
<g id="edge2" class="edge">
<title>Node2&#45;&gt;Node3</title>
<path fill="none" stroke="midnightblue" d="M184.61,-101.35C175.48,-101.45 166.16,-101.55 157.03,-101.65"/>
<polygon fill="midnightblue" stroke="midnightblue" points="184.86,-104.85 194.82,-101.24 184.78,-97.85 184.86,-104.85"/>
</g>
<!-- Node5 -->
<g id="node5" class="node">
<title>Node5</title>
<g id="a_node5"><a xlink:href="a00440.xhtml#a952d2952b600db4db42ff5ad1a3fbbee" target="_top" xlink:title=" ">
<polygon fill="white" stroke="black" points="14,-43.5 14,-73.5 143,-73.5 143,-43.5 14,-43.5"/>
<text text-anchor="start" x="22" y="-61.5" font-family="Helvetica,sans-Serif" font-size="10.00">CAudioFileRaw::writeData</text>
<text text-anchor="middle" x="78.5" y="-50.5" font-family="Helvetica,sans-Serif" font-size="10.00">Intern_</text>
</a>
</g>
</g>
<!-- Node4&#45;&gt;Node5 -->
<g id="edge4" class="edge">
<title>Node4&#45;&gt;Node5</title>
<path fill="none" stroke="midnightblue" d="M190.82,-59.11C175.14,-59.02 158.64,-58.93 143.28,-58.85"/>
<polygon fill="midnightblue" stroke="midnightblue" points="190.96,-62.61 200.98,-59.17 191,-55.61 190.96,-62.61"/>
</g>
</g>
</svg>
