<?xml version="1.0" encoding="UTF-8" standalone="no"?>
<!DOCTYPE svg PUBLIC "-//W3C//DTD SVG 1.1//EN"
 "http://www.w3.org/Graphics/SVG/1.1/DTD/svg11.dtd">
<!-- Generated by graphviz version 12.2.1 (20241206.2353)
 -->
<!-- Title: CFeatureIf::destroy Pages: 1 -->
<svg width="714pt" height="113pt"
 viewBox="0.00 0.00 714.25 113.25" xmlns="http://www.w3.org/2000/svg" xmlns:xlink="http://www.w3.org/1999/xlink">
<g id="graph0" class="graph" transform="scale(1 1) rotate(0) translate(4 109.25)">
<title>CFeatureIf::destroy</title>
<!-- Node1 -->
<g id="Node000001" class="node">
<title>Node1</title>
<g id="a_Node000001"><a xlink:title=" ">
<polygon fill="#999999" stroke="#666666" points="97.75,-62.25 0,-62.25 0,-43 97.75,-43 97.75,-62.25"/>
<text text-anchor="middle" x="48.88" y="-48.75" font-family="Helvetica,sans-Serif" font-size="10.00">CFeatureIf::destroy</text>
</a>
</g>
</g>
<!-- Node2 -->
<g id="Node000002" class="node">
<title>Node2</title>
<g id="a_Node000002"><a xlink:href="a00469.xhtml#a9893395e4967a4db2d021994e6917e70" target="_top" xlink:title=" ">
<polygon fill="white" stroke="#666666" points="245.75,-62.25 133.75,-62.25 133.75,-43 245.75,-43 245.75,-62.25"/>
<text text-anchor="middle" x="189.75" y="-48.75" font-family="Helvetica,sans-Serif" font-size="10.00">CFeatureIf::CFeatureIf</text>
</a>
</g>
</g>
<!-- Node1&#45;&gt;Node2 -->
<g id="edge1_Node000001_Node000002" class="edge">
<title>Node1&#45;&gt;Node2</title>
<g id="a_edge1_Node000001_Node000002"><a xlink:title=" ">
<path fill="none" stroke="#63b8ff" d="M98.06,-52.62C105.83,-52.62 114,-52.62 122.11,-52.62"/>
<polygon fill="#63b8ff" stroke="#63b8ff" points="122,-56.13 132,-52.63 122,-49.13 122,-56.13"/>
</a>
</g>
</g>
<!-- Node3 -->
<g id="Node000003" class="node">
<title>Node3</title>
<g id="a_Node000003"><a xlink:href="a00469.xhtml#a7b77edaf405fefd82329d8987b16d1f2" target="_top" xlink:title="reset configuration">
<polygon fill="white" stroke="#666666" points="375,-62.25 281.75,-62.25 281.75,-43 375,-43 375,-62.25"/>
<text text-anchor="middle" x="328.38" y="-48.75" font-family="Helvetica,sans-Serif" font-size="10.00">CFeatureIf::reset_</text>
</a>
</g>
</g>
<!-- Node2&#45;&gt;Node3 -->
<g id="edge2_Node000002_Node000003" class="edge">
<title>Node2&#45;&gt;Node3</title>
<g id="a_edge2_Node000002_Node000003"><a xlink:title=" ">
<path fill="none" stroke="#63b8ff" d="M245.93,-52.62C253.98,-52.62 262.29,-52.62 270.38,-52.62"/>
<polygon fill="#63b8ff" stroke="#63b8ff" points="270.11,-56.13 280.11,-52.63 270.11,-49.13 270.11,-56.13"/>
</a>
</g>
</g>
<!-- Node4 -->
<g id="Node000004" class="node">
<title>Node4</title>
<g id="a_Node000004"><a xlink:href="a00545.xhtml#a13d2bd6e36210dde0c64d188c1266b88" target="_top" xlink:title=" ">
<polygon fill="white" stroke="#666666" points="525.25,-105.25 411,-105.25 411,-86 525.25,-86 525.25,-105.25"/>
<text text-anchor="middle" x="468.12" y="-91.75" font-family="Helvetica,sans-Serif" font-size="10.00">CBlockAudioIf::destroy</text>
</a>
</g>
</g>
<!-- Node3&#45;&gt;Node4 -->
<g id="edge3_Node000003_Node000004" class="edge">
<title>Node3&#45;&gt;Node4</title>
<g id="a_edge3_Node000003_Node000004"><a xlink:title=" ">
<path fill="none" stroke="#63b8ff" d="M361.67,-62.71C380.32,-68.53 404.02,-75.93 424.22,-82.23"/>
<polygon fill="#63b8ff" stroke="#63b8ff" points="423,-85.52 433.59,-85.16 425.08,-78.83 423,-85.52"/>
</a>
</g>
</g>
<!-- Node6 -->
<g id="Node000006" class="node">
<title>Node6</title>
<g id="a_Node000006"><a xlink:href="a00473.xhtml#a300e7b2134b2bd0faaa24cfecbd9cb51" target="_top" xlink:title=" ">
<polygon fill="white" stroke="#666666" points="522.62,-67.88 413.62,-67.88 413.62,-37.38 522.62,-37.38 522.62,-67.88"/>
<text text-anchor="start" x="421.62" y="-54.38" font-family="Helvetica,sans-Serif" font-size="10.00">CFeatureFromBlockIf</text>
<text text-anchor="middle" x="468.12" y="-43.12" font-family="Helvetica,sans-Serif" font-size="10.00">::destroy</text>
</a>
</g>
</g>
<!-- Node3&#45;&gt;Node6 -->
<g id="edge5_Node000003_Node000006" class="edge">
<title>Node3&#45;&gt;Node6</title>
<g id="a_edge5_Node000003_Node000006"><a xlink:title=" ">
<path fill="none" stroke="#63b8ff" d="M375.24,-52.62C383.83,-52.62 392.95,-52.62 401.99,-52.62"/>
<polygon fill="#63b8ff" stroke="#63b8ff" points="401.83,-56.13 411.83,-52.63 401.83,-49.13 401.83,-56.13"/>
</a>
</g>
</g>
<!-- Node8 -->
<g id="Node000008" class="node">
<title>Node8</title>
<g id="a_Node000008"><a xlink:href="a00505.xhtml#aa86bdb0c663d4d52f2765793756f8737" target="_top" xlink:title=" ">
<polygon fill="white" stroke="#666666" points="504.25,-19.25 432,-19.25 432,0 504.25,0 504.25,-19.25"/>
<text text-anchor="middle" x="468.12" y="-5.75" font-family="Helvetica,sans-Serif" font-size="10.00">CVector::free</text>
</a>
</g>
</g>
<!-- Node3&#45;&gt;Node8 -->
<g id="edge7_Node000003_Node000008" class="edge">
<title>Node3&#45;&gt;Node8</title>
<g id="a_edge7_Node000003_Node000008"><a xlink:title=" ">
<path fill="none" stroke="#63b8ff" d="M361.67,-42.54C380.32,-36.72 404.02,-29.32 424.22,-23.02"/>
<polygon fill="#63b8ff" stroke="#63b8ff" points="425.08,-26.42 433.59,-20.09 423,-19.73 425.08,-26.42"/>
</a>
</g>
</g>
<!-- Node5 -->
<g id="Node000005" class="node">
<title>Node5</title>
<g id="a_Node000005"><a xlink:href="a00545.xhtml#a25b4acfbc219a671933702aaf97229fd" target="_top" xlink:title=" ">
<polygon fill="white" stroke="#666666" points="706.25,-105.25 561.25,-105.25 561.25,-86 706.25,-86 706.25,-105.25"/>
<text text-anchor="middle" x="633.75" y="-91.75" font-family="Helvetica,sans-Serif" font-size="10.00">CBlockAudioIf::CBlockAudioIf</text>
</a>
</g>
</g>
<!-- Node4&#45;&gt;Node5 -->
<g id="edge4_Node000004_Node000005" class="edge">
<title>Node4&#45;&gt;Node5</title>
<g id="a_edge4_Node000004_Node000005"><a xlink:title=" ">
<path fill="none" stroke="#63b8ff" d="M525.44,-95.62C533.23,-95.62 541.36,-95.62 549.51,-95.62"/>
<polygon fill="#63b8ff" stroke="#63b8ff" points="549.51,-99.13 559.51,-95.63 549.51,-92.13 549.51,-99.13"/>
</a>
</g>
</g>
<!-- Node7 -->
<g id="Node000007" class="node">
<title>Node7</title>
<g id="a_Node000007"><a xlink:href="a00473.xhtml#a483bca508e2817799a3173a6180d245e" target="_top" xlink:title=" ">
<polygon fill="white" stroke="#666666" points="690.5,-67.88 577,-67.88 577,-37.38 690.5,-37.38 690.5,-67.88"/>
<text text-anchor="start" x="585" y="-54.38" font-family="Helvetica,sans-Serif" font-size="10.00">CFeatureFromBlockIf</text>
<text text-anchor="middle" x="633.75" y="-43.12" font-family="Helvetica,sans-Serif" font-size="10.00">::CFeatureFromBlockIf</text>
</a>
</g>
</g>
<!-- Node6&#45;&gt;Node7 -->
<g id="edge6_Node000006_Node000007" class="edge">
<title>Node6&#45;&gt;Node7</title>
<g id="a_edge6_Node000006_Node000007"><a xlink:title=" ">
<path fill="none" stroke="#63b8ff" d="M522.7,-52.62C536.31,-52.62 551.1,-52.62 565.3,-52.62"/>
<polygon fill="#63b8ff" stroke="#63b8ff" points="565.01,-56.13 575.01,-52.63 565.01,-49.13 565.01,-56.13"/>
</a>
</g>
</g>
</g>
</svg>
