<?xml version="1.0" encoding="UTF-8" standalone="no"?>
<!DOCTYPE svg PUBLIC "-//W3C//DTD SVG 1.1//EN"
 "http://www.w3.org/Graphics/SVG/1.1/DTD/svg11.dtd">
<!-- Generated by graphviz version 4.0.0 (20220602.1335)
 -->
<!-- Title: CAudioFileIf::convBytes2Frames_ Pages: 1 -->
<svg width="493pt" height="149pt"
 viewBox="0.00 0.00 493.00 149.00" xmlns="http://www.w3.org/2000/svg" xmlns:xlink="http://www.w3.org/1999/xlink">
<g id="graph0" class="graph" transform="scale(1 1) rotate(0) translate(4 145)">
<title>CAudioFileIf::convBytes2Frames_</title>
<polygon fill="white" stroke="transparent" points="-4,4 -4,-145 489,-145 489,4 -4,4"/>
<!-- Node1 -->
<g id="node1" class="node">
<title>Node1</title>
<g id="a_node1"><a xlink:title=" ">
<polygon fill="#bfbfbf" stroke="black" points="360,-66.5 360,-96.5 485,-96.5 485,-66.5 360,-66.5"/>
<text text-anchor="start" x="368" y="-84.5" font-family="Helvetica,sans-Serif" font-size="10.00">CAudioFileIf::convBytes2</text>
<text text-anchor="middle" x="422.5" y="-73.5" font-family="Helvetica,sans-Serif" font-size="10.00">Frames_</text>
</a>
</g>
</g>
<!-- Node2 -->
<g id="node2" class="node">
<title>Node2</title>
<g id="a_node2"><a xlink:href="a00431.xhtml#a717073bbea221e58b273925538cf3ead" target="_top" xlink:title=" ">
<polygon fill="white" stroke="black" points="0,-110.5 0,-140.5 131,-140.5 131,-110.5 0,-110.5"/>
<text text-anchor="start" x="8" y="-128.5" font-family="Helvetica,sans-Serif" font-size="10.00">CAudioFileRaw::getLength</text>
<text text-anchor="middle" x="65.5" y="-117.5" font-family="Helvetica,sans-Serif" font-size="10.00">Intern_</text>
</a>
</g>
</g>
<!-- Node1&#45;&gt;Node2 -->
<g id="edge1" class="edge">
<title>Node1&#45;&gt;Node2</title>
<path fill="none" stroke="midnightblue" d="M388.98,-101.74C370.64,-111.96 346.88,-123.27 324,-128.5 259.6,-143.21 183.77,-139.94 131.14,-134.55"/>
<polygon fill="midnightblue" stroke="midnightblue" points="390.85,-104.7 397.78,-96.69 387.36,-98.63 390.85,-104.7"/>
</g>
<!-- Node3 -->
<g id="node3" class="node">
<title>Node3</title>
<g id="a_node3"><a xlink:href="a00431.xhtml#a26cabec2623a393091df9550886e398c" target="_top" xlink:title=" ">
<polygon fill="white" stroke="black" points="177,-88.5 177,-118.5 314,-118.5 314,-88.5 177,-88.5"/>
<text text-anchor="start" x="185" y="-106.5" font-family="Helvetica,sans-Serif" font-size="10.00">CAudioFileRaw::getPosition</text>
<text text-anchor="middle" x="245.5" y="-95.5" font-family="Helvetica,sans-Serif" font-size="10.00">Intern_</text>
</a>
</g>
</g>
<!-- Node1&#45;&gt;Node3 -->
<g id="edge2" class="edge">
<title>Node1&#45;&gt;Node3</title>
<path fill="none" stroke="midnightblue" d="M349.63,-90.54C337.91,-92.01 325.8,-93.53 314.19,-94.99"/>
<polygon fill="midnightblue" stroke="midnightblue" points="350.32,-93.98 359.8,-89.26 349.44,-87.03 350.32,-93.98"/>
</g>
<!-- Node4 -->
<g id="node4" class="node">
<title>Node4</title>
<g id="a_node4"><a xlink:href="a00431.xhtml#a62ab9a934151001b1e87ea36fe8dbdbf" target="_top" xlink:title=" ">
<polygon fill="white" stroke="black" points="167,-50 167,-69 324,-69 324,-50 167,-50"/>
<text text-anchor="middle" x="245.5" y="-57" font-family="Helvetica,sans-Serif" font-size="10.00">CAudioFileRaw::readDataIntern_</text>
</a>
</g>
</g>
<!-- Node1&#45;&gt;Node4 -->
<g id="edge4" class="edge">
<title>Node1&#45;&gt;Node4</title>
<path fill="none" stroke="midnightblue" d="M349.73,-72.48C340.71,-71.34 331.45,-70.18 322.37,-69.04"/>
<polygon fill="midnightblue" stroke="midnightblue" points="349.44,-75.97 359.8,-73.74 350.32,-69.02 349.44,-75.97"/>
</g>
<!-- Node5 -->
<g id="node5" class="node">
<title>Node5</title>
<g id="a_node5"><a xlink:href="a00435.xhtml#a3f3bb62a85bcf268dbc512ac503d102b" target="_top" xlink:title=" ">
<polygon fill="white" stroke="black" points="171.5,-0.5 171.5,-30.5 319.5,-30.5 319.5,-0.5 171.5,-0.5"/>
<text text-anchor="start" x="179.5" y="-18.5" font-family="Helvetica,sans-Serif" font-size="10.00">CAudioFileSndLib::setPosition</text>
<text text-anchor="middle" x="245.5" y="-7.5" font-family="Helvetica,sans-Serif" font-size="10.00">Intern_</text>
</a>
</g>
</g>
<!-- Node1&#45;&gt;Node5 -->
<g id="edge5" class="edge">
<title>Node1&#45;&gt;Node5</title>
<path fill="none" stroke="midnightblue" d="M377.97,-62.25C361.23,-55.1 341.85,-47.12 324,-40.5 314.85,-37.11 305.01,-33.73 295.5,-30.6"/>
<polygon fill="midnightblue" stroke="midnightblue" points="376.93,-65.61 387.49,-66.35 379.69,-59.18 376.93,-65.61"/>
</g>
<!-- Node3&#45;&gt;Node2 -->
<g id="edge3" class="edge">
<title>Node3&#45;&gt;Node2</title>
<path fill="none" stroke="midnightblue" d="M166.97,-113.08C154.99,-114.56 142.72,-116.08 131.06,-117.52"/>
<polygon fill="midnightblue" stroke="midnightblue" points="167.46,-116.55 176.95,-111.85 166.6,-109.6 167.46,-116.55"/>
</g>
</g>
</svg>
