<?xml version="1.0" encoding="UTF-8" standalone="no"?>
<!DOCTYPE svg PUBLIC "-//W3C//DTD SVG 1.1//EN"
 "http://www.w3.org/Graphics/SVG/1.1/DTD/svg11.dtd">
<!-- Generated by graphviz version 6.0.1 (20220911.1526)
 -->
<!-- Title: CGammatone::init Pages: 1 -->
<svg width="474pt" height="134pt"
 viewBox="0.00 0.00 474.00 134.00" xmlns="http://www.w3.org/2000/svg" xmlns:xlink="http://www.w3.org/1999/xlink">
<g id="graph0" class="graph" transform="scale(1 1) rotate(0) translate(4 130)">
<title>CGammatone::init</title>
<!-- Node1 -->
<g id="node1" class="node">
<title>Node1</title>
<g id="a_node1"><a xlink:title=" ">
<polygon fill="#999999" stroke="#666666" points="466,-109.5 372,-109.5 372,-90.5 466,-90.5 466,-109.5"/>
<text text-anchor="middle" x="419" y="-97.5" font-family="Helvetica,sans-Serif" font-size="10.00">CGammatone::init</text>
</a>
</g>
</g>
<!-- Node2 -->
<g id="node2" class="node">
<title>Node2</title>
<g id="a_node2"><a xlink:href="a00418.xhtml#ad55d2100a36627da0ddf9c07f89426bd" target="_top" xlink:title=" ">
<polygon fill="white" stroke="#666666" points="336,-109.5 182,-109.5 182,-90.5 336,-90.5 336,-109.5"/>
<text text-anchor="middle" x="259" y="-97.5" font-family="Helvetica,sans-Serif" font-size="10.00">CGammatone::calcFilterCoeffs_</text>
</a>
</g>
</g>
<!-- Node1&#45;&gt;Node2 -->
<g id="edge1" class="edge">
<title>Node1&#45;&gt;Node2</title>
<path fill="none" stroke="#63b8ff" d="M361.64,-93.5C353.39,-93.31 344.78,-93.23 336.21,-93.25"/>
<polygon fill="#63b8ff" stroke="#63b8ff" points="361.78,-97.01 371.88,-93.8 361.98,-90.01 361.78,-97.01"/>
</g>
<!-- Node3 -->
<g id="node3" class="node">
<title>Node3</title>
<g id="a_node3"><a xlink:href="a00558.xhtml#a0b3ba7948620d116d8fcee83010c56ba" target="_top" xlink:title="init configuration">
<polygon fill="white" stroke="#666666" points="318.5,-72.5 199.5,-72.5 199.5,-53.5 318.5,-53.5 318.5,-72.5"/>
<text text-anchor="middle" x="259" y="-60.5" font-family="Helvetica,sans-Serif" font-size="10.00">CGammaToneFbIf::init_</text>
</a>
</g>
</g>
<!-- Node1&#45;&gt;Node3 -->
<g id="edge3" class="edge">
<title>Node1&#45;&gt;Node3</title>
<path fill="none" stroke="#63b8ff" d="M367.37,-88.14C345.87,-83.11 321.13,-77.32 300.83,-72.56"/>
<polygon fill="#63b8ff" stroke="#63b8ff" points="366.78,-91.6 377.31,-90.47 368.37,-84.78 366.78,-91.6"/>
</g>
<!-- Node2&#45;&gt;Node1 -->
<g id="edge2" class="edge">
<title>Node2&#45;&gt;Node1</title>
<path fill="none" stroke="#63b8ff" d="M346.49,-106.72C355.22,-106.66 363.82,-106.49 371.88,-106.2"/>
<polygon fill="#63b8ff" stroke="#63b8ff" points="346.2,-103.22 336.21,-106.75 346.21,-110.22 346.2,-103.22"/>
</g>
<!-- Node4 -->
<g id="node4" class="node">
<title>Node4</title>
<g id="a_node4"><a xlink:href="a00422.xhtml#aec7867658e2991c8526c78666c960920" target="_top" xlink:title=" ">
<polygon fill="white" stroke="#666666" points="140,-126 6,-126 6,-96 140,-96 140,-126"/>
<text text-anchor="start" x="14" y="-114" font-family="Helvetica,sans-Serif" font-size="10.00">CGammaToneFbFromFile</text>
<text text-anchor="middle" x="73" y="-103" font-family="Helvetica,sans-Serif" font-size="10.00">::CGammaToneFbFromFile</text>
</a>
</g>
</g>
<!-- Node3&#45;&gt;Node4 -->
<g id="edge4" class="edge">
<title>Node3&#45;&gt;Node4</title>
<path fill="none" stroke="#63b8ff" d="M209.54,-74.98C200.39,-77.28 190.89,-79.69 182,-82 164.8,-86.46 146.1,-91.43 129.17,-95.99"/>
<polygon fill="#63b8ff" stroke="#63b8ff" points="210.45,-78.36 219.3,-72.54 208.75,-71.57 210.45,-78.36"/>
</g>
<!-- Node5 -->
<g id="node5" class="node">
<title>Node5</title>
<g id="a_node5"><a xlink:href="a00426.xhtml#a6914abcb82e11526ec35fe6d3aa0e60a" target="_top" xlink:title=" ">
<polygon fill="white" stroke="#666666" points="146,-78 0,-78 0,-48 146,-48 146,-78"/>
<text text-anchor="start" x="8" y="-66" font-family="Helvetica,sans-Serif" font-size="10.00">CGammaToneFbFromVector</text>
<text text-anchor="middle" x="73" y="-55" font-family="Helvetica,sans-Serif" font-size="10.00">::CGammaToneFbFromVector</text>
</a>
</g>
</g>
<!-- Node3&#45;&gt;Node5 -->
<g id="edge5" class="edge">
<title>Node3&#45;&gt;Node5</title>
<path fill="none" stroke="#63b8ff" d="M189.18,-63C175.09,-63 160.23,-63 146.03,-63"/>
<polygon fill="#63b8ff" stroke="#63b8ff" points="189.28,-66.5 199.28,-63 189.28,-59.5 189.28,-66.5"/>
</g>
<!-- Node6 -->
<g id="node6" class="node">
<title>Node6</title>
<g id="a_node6"><a xlink:href="a00430.xhtml#a016022732eaec0576f3a8dfc8158fcae" target="_top" xlink:title=" ">
<polygon fill="white" stroke="#666666" points="141.5,-30 4.5,-30 4.5,0 141.5,0 141.5,-30"/>
<text text-anchor="start" x="12.5" y="-18" font-family="Helvetica,sans-Serif" font-size="10.00">CGammaToneFbRealTime</text>
<text text-anchor="middle" x="73" y="-7" font-family="Helvetica,sans-Serif" font-size="10.00">::CGammaToneFbRealTime</text>
</a>
</g>
</g>
<!-- Node3&#45;&gt;Node6 -->
<g id="edge6" class="edge">
<title>Node3&#45;&gt;Node6</title>
<path fill="none" stroke="#63b8ff" d="M211.22,-50.8C187.04,-44.49 157.33,-36.74 131.74,-30.06"/>
<polygon fill="#63b8ff" stroke="#63b8ff" points="210.65,-54.26 221.21,-53.4 212.41,-47.49 210.65,-54.26"/>
</g>
</g>
</svg>
