<?xml version="1.0" encoding="UTF-8" standalone="no"?>
<!DOCTYPE svg PUBLIC "-//W3C//DTD SVG 1.1//EN"
 "http://www.w3.org/Graphics/SVG/1.1/DTD/svg11.dtd">
<!-- Generated by graphviz version 4.0.0 (20220602.1335)
 -->
<!-- Title: CMatrix::alloc Pages: 1 -->
<svg width="1083pt" height="1197pt"
 viewBox="0.00 0.00 1083.00 1197.13" xmlns="http://www.w3.org/2000/svg" xmlns:xlink="http://www.w3.org/1999/xlink">
<g id="graph0" class="graph" transform="scale(1 1) rotate(0) translate(4 1193.13)">
<title>CMatrix::alloc</title>
<polygon fill="white" stroke="transparent" points="-4,4 -4,-1193.13 1079,-1193.13 1079,4 -4,4"/>
<!-- Node1 -->
<g id="node1" class="node">
<title>Node1</title>
<g id="a_node1"><a xlink:title=" ">
<polygon fill="#bfbfbf" stroke="black" points="1001,-555.5 1001,-574.5 1075,-574.5 1075,-555.5 1001,-555.5"/>
<text text-anchor="middle" x="1038" y="-562.5" font-family="Helvetica,sans-Serif" font-size="10.00">CMatrix::alloc</text>
</a>
</g>
</g>
<!-- Node2 -->
<g id="node2" class="node">
<title>Node2</title>
<g id="a_node2"><a xlink:href="a00342.xhtml#a939a14f9a0c6b6a7ac974b2899b57e95" target="_top" xlink:title=" ">
<polygon fill="white" stroke="black" points="823,-1079 823,-1109 942,-1109 942,-1079 823,-1079"/>
<text text-anchor="start" x="831" y="-1097" font-family="Helvetica,sans-Serif" font-size="10.00">CFeatureSpectralMfccs</text>
<text text-anchor="middle" x="882.5" y="-1086" font-family="Helvetica,sans-Serif" font-size="10.00">::allocDctMat_</text>
</a>
</g>
</g>
<!-- Node1&#45;&gt;Node2 -->
<g id="edge1" class="edge">
<title>Node1&#45;&gt;Node2</title>
<path fill="none" stroke="midnightblue" d="M1036.91,-584.76C1036.12,-668.62 1028.92,-994.26 965,-1069 958.94,-1076.09 950.93,-1081.2 942.29,-1084.88"/>
<polygon fill="midnightblue" stroke="midnightblue" points="1040.41,-584.6 1036.98,-574.58 1033.41,-584.55 1040.41,-584.6"/>
</g>
<!-- Node4 -->
<g id="node4" class="node">
<title>Node4</title>
<g id="a_node4"><a xlink:href="a00342.xhtml#a4ffe272900bf3ba5bbab219262506455" target="_top" xlink:title=" ">
<polygon fill="white" stroke="black" points="418.5,-1123 418.5,-1153 542.5,-1153 542.5,-1123 418.5,-1123"/>
<text text-anchor="start" x="426.5" y="-1141" font-family="Helvetica,sans-Serif" font-size="10.00">CFeatureSpectralMfccs</text>
<text text-anchor="middle" x="480.5" y="-1130" font-family="Helvetica,sans-Serif" font-size="10.00">::CFeatureSpectralMfccs</text>
</a>
</g>
</g>
<!-- Node1&#45;&gt;Node4 -->
<g id="edge11" class="edge">
<title>Node1&#45;&gt;Node4</title>
<path fill="none" stroke="midnightblue" d="M1035.9,-585.03C1030.5,-680.03 1005.38,-1082.1 965,-1119 842.53,-1230.92 621.25,-1181.46 526.52,-1153.01"/>
<polygon fill="midnightblue" stroke="midnightblue" points="1039.41,-584.98 1036.48,-574.8 1032.42,-584.59 1039.41,-584.98"/>
</g>
<!-- Node6 -->
<g id="node6" class="node">
<title>Node6</title>
<g id="a_node6"><a xlink:href="a00422.xhtml#ae12716ee8473becf462624698243f761" target="_top" xlink:title=" ">
<polygon fill="white" stroke="black" points="800,-1040.5 800,-1059.5 965,-1059.5 965,-1040.5 800,-1040.5"/>
<text text-anchor="middle" x="882.5" y="-1047.5" font-family="Helvetica,sans-Serif" font-size="10.00">CBlockAudioFile::CBlockAudioFile</text>
</a>
</g>
</g>
<!-- Node1&#45;&gt;Node6 -->
<g id="edge5" class="edge">
<title>Node1&#45;&gt;Node6</title>
<path fill="none" stroke="midnightblue" d="M1036.78,-584.89C1035.48,-665.23 1026.53,-964.62 965,-1031 961.54,-1034.73 957.51,-1037.79 953.12,-1040.31"/>
<polygon fill="midnightblue" stroke="midnightblue" points="1040.28,-584.73 1036.92,-574.68 1033.28,-584.63 1040.28,-584.73"/>
</g>
<!-- Node7 -->
<g id="node7" class="node">
<title>Node7</title>
<g id="a_node7"><a xlink:href="a00470.xhtml#a2e221ac492231e16a62781a573921a9c" target="_top" xlink:title=" ">
<polygon fill="white" stroke="black" points="829,-991 829,-1021 936,-1021 936,-991 829,-991"/>
<text text-anchor="start" x="837" y="-1009" font-family="Helvetica,sans-Serif" font-size="10.00">CChordFromBlockIf::</text>
<text text-anchor="middle" x="882.5" y="-998" font-family="Helvetica,sans-Serif" font-size="10.00">CChordFromBlockIf</text>
</a>
</g>
</g>
<!-- Node1&#45;&gt;Node7 -->
<g id="edge6" class="edge">
<title>Node1&#45;&gt;Node7</title>
<path fill="none" stroke="midnightblue" d="M1036.1,-584.67C1032.36,-658.1 1015.8,-915.17 965,-976 957.56,-984.91 947.22,-991.18 936.4,-995.58"/>
<polygon fill="midnightblue" stroke="midnightblue" points="1039.6,-584.67 1036.59,-574.51 1032.61,-584.33 1039.6,-584.67"/>
</g>
<!-- Node9 -->
<g id="node9" class="node">
<title>Node9</title>
<g id="a_node9"><a xlink:href="a00466.xhtml#ad48a5bd574f16b7491b70efb9998935f" target="_top" xlink:title="init configuration">
<polygon fill="white" stroke="black" points="442,-933.5 442,-952.5 519,-952.5 519,-933.5 442,-933.5"/>
<text text-anchor="middle" x="480.5" y="-940.5" font-family="Helvetica,sans-Serif" font-size="10.00">CChordIf::init_</text>
</a>
</g>
</g>
<!-- Node1&#45;&gt;Node9 -->
<g id="edge47" class="edge">
<title>Node1&#45;&gt;Node9</title>
<path fill="none" stroke="midnightblue" d="M1035.11,-585C1028.92,-646.08 1007.19,-828.35 965,-867 933.03,-896.29 621.73,-916.69 579,-924 559.28,-927.38 537.41,-931.59 519.39,-935.2"/>
<polygon fill="midnightblue" stroke="midnightblue" points="1038.62,-585.07 1036.12,-574.77 1031.66,-584.39 1038.62,-585.07"/>
</g>
<!-- Node12 -->
<g id="node12" class="node">
<title>Node12</title>
<g id="a_node12"><a xlink:href="a00346.xhtml#a388f9c7dd2074706d723e31b421f16fa" target="_top" xlink:title=" ">
<polygon fill="white" stroke="black" points="806,-827 806,-857 959,-857 959,-827 806,-827"/>
<text text-anchor="start" x="814" y="-845" font-family="Helvetica,sans-Serif" font-size="10.00">CFeatureSpectralPitchChroma</text>
<text text-anchor="middle" x="882.5" y="-834" font-family="Helvetica,sans-Serif" font-size="10.00">::CFeatureSpectralPitchChroma</text>
</a>
</g>
</g>
<!-- Node1&#45;&gt;Node12 -->
<g id="edge12" class="edge">
<title>Node1&#45;&gt;Node12</title>
<path fill="none" stroke="midnightblue" d="M1037.34,-584.6C1037.04,-631.5 1029.61,-751.13 965,-817 961.17,-820.91 956.74,-824.21 951.97,-827"/>
<polygon fill="midnightblue" stroke="midnightblue" points="1040.84,-584.54 1037.29,-574.56 1033.84,-584.57 1040.84,-584.54"/>
</g>
<!-- Node13 -->
<g id="node13" class="node">
<title>Node13</title>
<g id="a_node13"><a xlink:href="a00574.xhtml#a6a5c450f4c90e73ea9910f699a3e57aa" target="_top" xlink:title=" ">
<polygon fill="white" stroke="black" points="813.5,-788.5 813.5,-807.5 951.5,-807.5 951.5,-788.5 813.5,-788.5"/>
<text text-anchor="middle" x="882.5" y="-795.5" font-family="Helvetica,sans-Serif" font-size="10.00">CGmmResult::CGmmResult</text>
</a>
</g>
</g>
<!-- Node1&#45;&gt;Node13 -->
<g id="edge13" class="edge">
<title>Node1&#45;&gt;Node13</title>
<path fill="none" stroke="midnightblue" d="M1036.43,-585.03C1034.08,-627.47 1022.4,-726.84 965,-779 960.81,-782.81 956,-785.9 950.86,-788.4"/>
<polygon fill="midnightblue" stroke="midnightblue" points="1039.93,-585.01 1036.87,-574.87 1032.94,-584.71 1039.93,-585.01"/>
</g>
<!-- Node14 -->
<g id="node14" class="node">
<title>Node14</title>
<g id="a_node14"><a xlink:href="a00618.xhtml#a0f2e96a9c1a1ab0b85e1410b00f0aa8e" target="_top" xlink:title=" ">
<polygon fill="white" stroke="black" points="809.5,-739 809.5,-769 955.5,-769 955.5,-739 809.5,-739"/>
<text text-anchor="start" x="817.5" y="-757" font-family="Helvetica,sans-Serif" font-size="10.00">CNormalizeAudio::CNormalize</text>
<text text-anchor="middle" x="882.5" y="-746" font-family="Helvetica,sans-Serif" font-size="10.00">Audio</text>
</a>
</g>
</g>
<!-- Node1&#45;&gt;Node14 -->
<g id="edge14" class="edge">
<title>Node1&#45;&gt;Node14</title>
<path fill="none" stroke="midnightblue" d="M1033.77,-584.97C1027.16,-619.4 1008.82,-689.99 965,-729 960.69,-732.84 955.8,-736.09 950.61,-738.84"/>
<polygon fill="midnightblue" stroke="midnightblue" points="1037.28,-585.24 1035.59,-574.78 1030.39,-584.01 1037.28,-585.24"/>
</g>
<!-- Node15 -->
<g id="node15" class="node">
<title>Node15</title>
<g id="a_node15"><a xlink:href="a00518.xhtml#a343e6b52e9696244dd57d4db0f91d056" target="_top" xlink:title=" ">
<polygon fill="white" stroke="black" points="840,-700.5 840,-719.5 925,-719.5 925,-700.5 840,-700.5"/>
<text text-anchor="middle" x="882.5" y="-707.5" font-family="Helvetica,sans-Serif" font-size="10.00">CKey::compKey</text>
</a>
</g>
</g>
<!-- Node1&#45;&gt;Node15 -->
<g id="edge15" class="edge">
<title>Node1&#45;&gt;Node15</title>
<path fill="none" stroke="midnightblue" d="M1031.36,-584.51C1022.21,-612.57 1001.38,-663.89 965,-691 953.58,-699.51 938.96,-704.29 925.27,-706.94"/>
<polygon fill="midnightblue" stroke="midnightblue" points="1034.79,-585.27 1034.4,-574.68 1028.1,-583.21 1034.79,-585.27"/>
</g>
<!-- Node17 -->
<g id="node17" class="node">
<title>Node17</title>
<g id="a_node17"><a xlink:href="a00402.xhtml#af5f08be46100a7ecbc5450f52a96c77e" target="_top" xlink:title=" ">
<polygon fill="white" stroke="black" points="829,-651 829,-681 936,-681 936,-651 829,-651"/>
<text text-anchor="start" x="837" y="-669" font-family="Helvetica,sans-Serif" font-size="10.00">CPitchTimeAuditory</text>
<text text-anchor="middle" x="882.5" y="-658" font-family="Helvetica,sans-Serif" font-size="10.00">::CPitchTimeAuditory</text>
</a>
</g>
</g>
<!-- Node1&#45;&gt;Node17 -->
<g id="edge17" class="edge">
<title>Node1&#45;&gt;Node17</title>
<path fill="none" stroke="midnightblue" d="M1024.46,-582.83C1011.45,-600.06 989.6,-625.75 965,-641 956.2,-646.46 946.11,-650.8 936.11,-654.23"/>
<polygon fill="midnightblue" stroke="midnightblue" points="1027.34,-584.82 1030.42,-574.68 1021.69,-580.68 1027.34,-584.82"/>
</g>
<!-- Node18 -->
<g id="node18" class="node">
<title>Node18</title>
<g id="a_node18"><a xlink:href="a00550.xhtml#a713f1061ff32359a059c47c60bee4700" target="_top" xlink:title=" ">
<polygon fill="white" stroke="black" points="802,-612.5 802,-631.5 963,-631.5 963,-612.5 802,-612.5"/>
<text text-anchor="middle" x="882.5" y="-619.5" font-family="Helvetica,sans-Serif" font-size="10.00">CSubFingerprint::CSubFingerprint</text>
</a>
</g>
</g>
<!-- Node1&#45;&gt;Node18 -->
<g id="edge18" class="edge">
<title>Node1&#45;&gt;Node18</title>
<path fill="none" stroke="midnightblue" d="M1009.04,-578.95C995.86,-585.23 979.82,-592.45 965,-598 950.49,-603.43 934.18,-608.44 919.98,-612.47"/>
<polygon fill="midnightblue" stroke="midnightblue" points="1010.58,-582.09 1018.06,-574.58 1007.54,-575.79 1010.58,-582.09"/>
</g>
<!-- Node19 -->
<g id="node19" class="node">
<title>Node19</title>
<g id="a_node19"><a xlink:href="a00498.xhtml#a7de6a75fccded32c57d3fe168263204f" target="_top" xlink:title=" ">
<polygon fill="white" stroke="black" points="848.5,-460.5 848.5,-479.5 916.5,-479.5 916.5,-460.5 848.5,-460.5"/>
<text text-anchor="middle" x="882.5" y="-467.5" font-family="Helvetica,sans-Serif" font-size="10.00">CMatrix::det</text>
</a>
</g>
</g>
<!-- Node1&#45;&gt;Node19 -->
<g id="edge19" class="edge">
<title>Node1&#45;&gt;Node19</title>
<path fill="none" stroke="midnightblue" d="M1024.88,-547.09C1012.07,-529.57 990.24,-503.48 965,-489 950.38,-480.62 932.28,-475.93 916.85,-473.31"/>
<polygon fill="midnightblue" stroke="midnightblue" points="1022.1,-549.22 1030.73,-555.36 1027.82,-545.17 1022.1,-549.22"/>
</g>
<!-- Node22 -->
<g id="node22" class="node">
<title>Node22</title>
<g id="a_node22"><a xlink:href="a00582.xhtml#a81ef85945dec254c2a43ea83ffb513b9" target="_top" xlink:title=" ">
<polygon fill="white" stroke="black" points="74,-556.5 74,-575.5 184,-575.5 184,-556.5 74,-556.5"/>
<text text-anchor="middle" x="129" y="-563.5" font-family="Helvetica,sans-Serif" font-size="10.00">CGmmClassifier::train</text>
</a>
</g>
</g>
<!-- Node1&#45;&gt;Node22 -->
<g id="edge62" class="edge">
<title>Node1&#45;&gt;Node22</title>
<path fill="none" stroke="midnightblue" d="M990.84,-569.42C936.6,-574.37 843.86,-582.08 764,-585 648.95,-589.21 224.23,-580.36 220,-580 208.02,-578.99 195.23,-577.35 183.15,-575.53"/>
<polygon fill="midnightblue" stroke="midnightblue" points="991.2,-572.9 1000.84,-568.5 990.56,-565.93 991.2,-572.9"/>
</g>
<!-- Node25 -->
<g id="node25" class="node">
<title>Node25</title>
<g id="a_node25"><a xlink:href="a00542.xhtml#a04d8f71d4562f2a4efc8a8537826d8c3" target="_top" xlink:title=" ">
<polygon fill="white" stroke="black" points="819,-279 819,-309 946,-309 946,-279 819,-279"/>
<text text-anchor="start" x="827" y="-297" font-family="Helvetica,sans-Serif" font-size="10.00">CSpectrogramIf::generate</text>
<text text-anchor="middle" x="882.5" y="-286" font-family="Helvetica,sans-Serif" font-size="10.00">MelFb_</text>
</a>
</g>
</g>
<!-- Node1&#45;&gt;Node25 -->
<g id="edge25" class="edge">
<title>Node1&#45;&gt;Node25</title>
<path fill="none" stroke="midnightblue" d="M1036.77,-544.96C1035.16,-499.55 1024.96,-387.82 965,-324 959.22,-317.85 952.07,-312.95 944.42,-309.05"/>
<polygon fill="midnightblue" stroke="midnightblue" points="1033.28,-545.32 1037.02,-555.23 1040.27,-545.15 1033.28,-545.32"/>
</g>
<!-- Node29 -->
<g id="node29" class="node">
<title>Node29</title>
<g id="a_node29"><a xlink:href="a00578.xhtml#afca3ebce700e9b16d3fe48588194b1d2" target="_top" xlink:title=" ">
<polygon fill="white" stroke="black" points="639,-556.5 639,-575.5 704,-575.5 704,-556.5 639,-556.5"/>
<text text-anchor="middle" x="671.5" y="-563.5" font-family="Helvetica,sans-Serif" font-size="10.00">CGmm::init</text>
</a>
</g>
</g>
<!-- Node1&#45;&gt;Node29 -->
<g id="edge29" class="edge">
<title>Node1&#45;&gt;Node29</title>
<path fill="none" stroke="midnightblue" d="M990.59,-565.13C915.34,-565.33 768.64,-565.74 704.17,-565.91"/>
<polygon fill="midnightblue" stroke="midnightblue" points="990.73,-568.63 1000.72,-565.1 990.71,-561.63 990.73,-568.63"/>
</g>
<!-- Node30 -->
<g id="node30" class="node">
<title>Node30</title>
<g id="a_node30"><a xlink:href="a00606.xhtml#aec1d45b63855c114d480d1a0532dc3e5" target="_top" xlink:title=" ">
<polygon fill="white" stroke="black" points="642,-202.5 642,-221.5 701,-221.5 701,-202.5 642,-202.5"/>
<text text-anchor="middle" x="671.5" y="-209.5" font-family="Helvetica,sans-Serif" font-size="10.00">CNmf::init</text>
</a>
</g>
</g>
<!-- Node1&#45;&gt;Node30 -->
<g id="edge31" class="edge">
<title>Node1&#45;&gt;Node30</title>
<path fill="none" stroke="midnightblue" d="M1034.96,-545.54C1028.32,-486.12 1005.43,-308.7 965,-270 955.39,-260.8 772.73,-229 701.03,-216.81"/>
<polygon fill="midnightblue" stroke="midnightblue" points="1031.48,-545.93 1036.04,-555.49 1038.44,-545.17 1031.48,-545.93"/>
</g>
<!-- Node31 -->
<g id="node31" class="node">
<title>Node31</title>
<g id="a_node31"><a xlink:href="a00566.xhtml#ab79f4706d42b250f36c91cfd075bc8df" target="_top" xlink:title=" ">
<polygon fill="white" stroke="black" points="86,-347.5 86,-366.5 172,-366.5 172,-347.5 86,-347.5"/>
<text text-anchor="middle" x="129" y="-354.5" font-family="Helvetica,sans-Serif" font-size="10.00">CFingerprint::init</text>
</a>
</g>
</g>
<!-- Node1&#45;&gt;Node31 -->
<g id="edge32" class="edge">
<title>Node1&#45;&gt;Node31</title>
<path fill="none" stroke="midnightblue" d="M1037.11,-545.11C1036.14,-501.75 1027.07,-398.83 965,-352 913.05,-312.81 737.57,-338 672.5,-338 672.5,-338 672.5,-338 479.5,-338 368.45,-338 237.84,-347.68 172.19,-353.22"/>
<polygon fill="midnightblue" stroke="midnightblue" points="1033.61,-545.26 1037.2,-555.23 1040.61,-545.19 1033.61,-545.26"/>
</g>
<!-- Node33 -->
<g id="node33" class="node">
<title>Node33</title>
<g id="a_node33"><a xlink:href="a00638.xhtml#a650535a050fd47b41632c2fc43e19a8d" target="_top" xlink:title=" ">
<polygon fill="white" stroke="black" points="848.5,-914.5 848.5,-933.5 916.5,-933.5 916.5,-914.5 848.5,-914.5"/>
<text text-anchor="middle" x="882.5" y="-921.5" font-family="Helvetica,sans-Serif" font-size="10.00">CViterbi::init</text>
</a>
</g>
</g>
<!-- Node1&#45;&gt;Node33 -->
<g id="edge34" class="edge">
<title>Node1&#45;&gt;Node33</title>
<path fill="none" stroke="midnightblue" d="M1035.37,-584.77C1029.64,-649.43 1008.42,-853.21 965,-900 952.66,-913.3 933.36,-919.36 916.64,-922.07"/>
<polygon fill="midnightblue" stroke="midnightblue" points="1038.86,-584.95 1036.23,-574.69 1031.89,-584.35 1038.86,-584.95"/>
</g>
<!-- Node34 -->
<g id="node34" class="node">
<title>Node34</title>
<g id="a_node34"><a xlink:href="a00466.xhtml#a2dc9b2b2e4912e45835c5727d550aee7" target="_top" xlink:title=" ">
<polygon fill="white" stroke="black" points="619,-933.5 619,-952.5 724,-952.5 724,-933.5 619,-933.5"/>
<text text-anchor="middle" x="671.5" y="-940.5" font-family="Helvetica,sans-Serif" font-size="10.00">CChordIf::initViterbi_</text>
</a>
</g>
</g>
<!-- Node1&#45;&gt;Node34 -->
<g id="edge48" class="edge">
<title>Node1&#45;&gt;Node34</title>
<path fill="none" stroke="midnightblue" d="M1036.4,-585.03C1033.8,-656.44 1020.95,-896.71 965,-943 887.14,-1007.43 753.58,-971.69 697.97,-952.58"/>
<polygon fill="midnightblue" stroke="midnightblue" points="1039.91,-584.85 1036.74,-574.74 1032.91,-584.62 1039.91,-584.85"/>
</g>
<!-- Node35 -->
<g id="node35" class="node">
<title>Node35</title>
<g id="a_node35"><a xlink:href="a00574.xhtml#a45cdbf46ab60e994f9f0f057959d679f" target="_top" xlink:title=" ">
<polygon fill="white" stroke="black" points="836.5,-498.5 836.5,-517.5 928.5,-517.5 928.5,-498.5 836.5,-498.5"/>
<text text-anchor="middle" x="882.5" y="-505.5" font-family="Helvetica,sans-Serif" font-size="10.00">CGmmResult::init</text>
</a>
</g>
</g>
<!-- Node1&#45;&gt;Node35 -->
<g id="edge37" class="edge">
<title>Node1&#45;&gt;Node35</title>
<path fill="none" stroke="midnightblue" d="M1009.04,-551.05C995.86,-544.77 979.82,-537.55 965,-532 950.49,-526.57 934.18,-521.56 919.98,-517.53"/>
<polygon fill="midnightblue" stroke="midnightblue" points="1007.54,-554.21 1018.06,-555.42 1010.58,-547.91 1007.54,-554.21"/>
</g>
<!-- Node37 -->
<g id="node37" class="node">
<title>Node37</title>
<g id="a_node37"><a xlink:href="a00630.xhtml#a13aa330d6b77bf5796f6f5a67ba6ef0a" target="_top" xlink:title=" ">
<polygon fill="white" stroke="black" points="844,-164.5 844,-183.5 921,-183.5 921,-164.5 844,-164.5"/>
<text text-anchor="middle" x="882.5" y="-171.5" font-family="Helvetica,sans-Serif" font-size="10.00">CKmeans::init</text>
</a>
</g>
</g>
<!-- Node1&#45;&gt;Node37 -->
<g id="edge40" class="edge">
<title>Node1&#45;&gt;Node37</title>
<path fill="none" stroke="midnightblue" d="M1035.94,-545.24C1031.8,-475.79 1014.49,-244.4 965,-193 953.71,-181.28 936.7,-176.18 921.14,-174.15"/>
<polygon fill="midnightblue" stroke="midnightblue" points="1032.45,-545.48 1036.51,-555.27 1039.44,-545.09 1032.45,-545.48"/>
</g>
<!-- Node38 -->
<g id="node38" class="node">
<title>Node38</title>
<g id="a_node38"><a xlink:href="a00610.xhtml#a870d00dfd933ca6b61a274743ecd7691" target="_top" xlink:title=" ">
<polygon fill="white" stroke="black" points="853.5,-126.5 853.5,-145.5 911.5,-145.5 911.5,-126.5 853.5,-126.5"/>
<text text-anchor="middle" x="882.5" y="-133.5" font-family="Helvetica,sans-Serif" font-size="10.00">CPca::init</text>
</a>
</g>
</g>
<!-- Node1&#45;&gt;Node38 -->
<g id="edge41" class="edge">
<title>Node1&#45;&gt;Node38</title>
<path fill="none" stroke="midnightblue" d="M1036.32,-545.18C1033.39,-471.18 1019.34,-212.43 965,-155 951.52,-140.75 929.59,-136.25 911.88,-135.17"/>
<polygon fill="midnightblue" stroke="midnightblue" points="1032.83,-545.54 1036.7,-555.41 1039.83,-545.28 1032.83,-545.54"/>
</g>
<!-- Node39 -->
<g id="node39" class="node">
<title>Node39</title>
<g id="a_node39"><a xlink:href="a00634.xhtml#ab1ab383af20419973c27d20aac263e27" target="_top" xlink:title=" ">
<polygon fill="white" stroke="black" points="853.5,-88.5 853.5,-107.5 911.5,-107.5 911.5,-88.5 853.5,-88.5"/>
<text text-anchor="middle" x="882.5" y="-95.5" font-family="Helvetica,sans-Serif" font-size="10.00">CKnn::init</text>
</a>
</g>
</g>
<!-- Node1&#45;&gt;Node39 -->
<g id="edge42" class="edge">
<title>Node1&#45;&gt;Node39</title>
<path fill="none" stroke="midnightblue" d="M1036.64,-544.88C1034.82,-466.19 1024.15,-180.43 965,-117 951.52,-102.55 929.36,-98.09 911.55,-97.09"/>
<polygon fill="midnightblue" stroke="midnightblue" points="1033.15,-545.38 1036.86,-555.31 1040.15,-545.24 1033.15,-545.38"/>
</g>
<!-- Node40 -->
<g id="node40" class="node">
<title>Node40</title>
<g id="a_node40"><a xlink:href="a00590.xhtml#a43c46da04690f56a807863c6079ac23b" target="_top" xlink:title=" ">
<polygon fill="white" stroke="black" points="820.5,-39 820.5,-69 944.5,-69 944.5,-39 820.5,-39"/>
<text text-anchor="start" x="828.5" y="-57" font-family="Helvetica,sans-Serif" font-size="10.00">CLeaveOneOutCrossVal</text>
<text text-anchor="middle" x="882.5" y="-46" font-family="Helvetica,sans-Serif" font-size="10.00">::init</text>
</a>
</g>
</g>
<!-- Node1&#45;&gt;Node40 -->
<g id="edge43" class="edge">
<title>Node1&#45;&gt;Node40</title>
<path fill="none" stroke="midnightblue" d="M1036.79,-544.92C1035.51,-462.43 1026.61,-150.66 965,-79 959.5,-72.6 952.41,-67.82 944.71,-64.24"/>
<polygon fill="midnightblue" stroke="midnightblue" points="1033.29,-545.41 1036.93,-555.37 1040.29,-545.32 1033.29,-545.41"/>
</g>
<!-- Node41 -->
<g id="node41" class="node">
<title>Node41</title>
<g id="a_node41"><a xlink:href="a00626.xhtml#a7d2996c3f1403a60b5f63ead12540c02" target="_top" xlink:title=" ">
<polygon fill="white" stroke="black" points="853.5,-0.5 853.5,-19.5 911.5,-19.5 911.5,-0.5 853.5,-0.5"/>
<text text-anchor="middle" x="882.5" y="-7.5" font-family="Helvetica,sans-Serif" font-size="10.00">CDtw::init</text>
</a>
</g>
</g>
<!-- Node1&#45;&gt;Node41 -->
<g id="edge44" class="edge">
<title>Node1&#45;&gt;Node41</title>
<path fill="none" stroke="midnightblue" d="M1037.23,-544.99C1037.8,-457.16 1035.56,-106.64 965,-29 951.71,-14.38 929.54,-9.93 911.67,-8.97"/>
<polygon fill="midnightblue" stroke="midnightblue" points="1033.72,-545.16 1037.14,-555.19 1040.72,-545.22 1033.72,-545.16"/>
</g>
<!-- Node42 -->
<g id="node42" class="node">
<title>Node42</title>
<g id="a_node42"><a xlink:href="a00602.xhtml#a4f006a4fc88addf89d0e572d08e48680" target="_top" xlink:title=" ">
<polygon fill="white" stroke="black" points="839,-202.5 839,-221.5 926,-221.5 926,-202.5 839,-202.5"/>
<text text-anchor="middle" x="882.5" y="-209.5" font-family="Helvetica,sans-Serif" font-size="10.00">CNmfResult::init</text>
</a>
</g>
</g>
<!-- Node1&#45;&gt;Node42 -->
<g id="edge45" class="edge">
<title>Node1&#45;&gt;Node42</title>
<path fill="none" stroke="midnightblue" d="M1035.28,-545.19C1029.34,-481.24 1007.68,-281.82 965,-236 954.95,-225.21 940.31,-219.18 926.21,-215.85"/>
<polygon fill="midnightblue" stroke="midnightblue" points="1031.82,-545.84 1036.21,-555.48 1038.8,-545.21 1031.82,-545.84"/>
</g>
<!-- Node43 -->
<g id="node43" class="node">
<title>Node43</title>
<g id="a_node43"><a xlink:href="a00498.xhtml#a37585f57926ea2921734907bacc6cce8" target="_top" xlink:title=" ">
<polygon fill="white" stroke="black" points="845,-404.5 845,-423.5 920,-423.5 920,-404.5 845,-404.5"/>
<text text-anchor="middle" x="882.5" y="-411.5" font-family="Helvetica,sans-Serif" font-size="10.00">CMatrix::inv_I</text>
</a>
</g>
</g>
<!-- Node1&#45;&gt;Node43 -->
<g id="edge49" class="edge">
<title>Node1&#45;&gt;Node43</title>
<path fill="none" stroke="midnightblue" d="M1029.21,-546.07C1018.19,-521.3 995.88,-477.91 965,-451 950.71,-438.54 931.53,-429.56 915.37,-423.56"/>
<polygon fill="midnightblue" stroke="midnightblue" points="1026.07,-547.63 1033.24,-555.44 1032.51,-544.87 1026.07,-547.63"/>
</g>
<!-- Node44 -->
<g id="node44" class="node">
<title>Node44</title>
<g id="a_node44"><a xlink:href="a00490.xhtml#a68eafbce2417e9c8e7934953e85199e7" target="_top" xlink:title=" ">
<polygon fill="white" stroke="black" points="619,-366.5 619,-385.5 724,-385.5 724,-366.5 619,-366.5"/>
<text text-anchor="middle" x="671.5" y="-373.5" font-family="Helvetica,sans-Serif" font-size="10.00">CFilter::setInitState_</text>
</a>
</g>
</g>
<!-- Node1&#45;&gt;Node44 -->
<g id="edge61" class="edge">
<title>Node1&#45;&gt;Node44</title>
<path fill="none" stroke="midnightblue" d="M1035.17,-545.19C1030.61,-508.54 1015.21,-430.66 965,-395 889.49,-341.37 773.51,-354.39 712.76,-366.4"/>
<polygon fill="midnightblue" stroke="midnightblue" points="1031.69,-545.59 1036.26,-555.15 1038.65,-544.82 1031.69,-545.59"/>
</g>
<!-- Node3 -->
<g id="node3" class="node">
<title>Node3</title>
<g id="a_node3"><a xlink:href="a00342.xhtml#a4fd7b7171c56ba1be8191ca660f6fbcc" target="_top" xlink:title=" ">
<polygon fill="white" stroke="black" points="612,-1079 612,-1109 731,-1109 731,-1079 612,-1079"/>
<text text-anchor="start" x="620" y="-1097" font-family="Helvetica,sans-Serif" font-size="10.00">CFeatureSpectralMfccs</text>
<text text-anchor="middle" x="671.5" y="-1086" font-family="Helvetica,sans-Serif" font-size="10.00">::genDctMat_</text>
</a>
</g>
</g>
<!-- Node2&#45;&gt;Node3 -->
<g id="edge2" class="edge">
<title>Node2&#45;&gt;Node3</title>
<path fill="none" stroke="midnightblue" d="M812.45,-1094C786.15,-1094 756.45,-1094 731.19,-1094"/>
<polygon fill="midnightblue" stroke="midnightblue" points="812.73,-1097.5 822.73,-1094 812.73,-1090.5 812.73,-1097.5"/>
</g>
<!-- Node3&#45;&gt;Node4 -->
<g id="edge3" class="edge">
<title>Node3&#45;&gt;Node4</title>
<path fill="none" stroke="midnightblue" d="M602.01,-1109.94C582.61,-1114.46 561.61,-1119.35 542.67,-1123.76"/>
<polygon fill="midnightblue" stroke="midnightblue" points="603.05,-1113.3 611.99,-1107.62 601.46,-1106.48 603.05,-1113.3"/>
</g>
<!-- Node5 -->
<g id="node5" class="node">
<title>Node5</title>
<g id="a_node5"><a xlink:href="a00342.xhtml#a6ffd2585db71bf5b44aedc15223525e6" target="_top" xlink:title=" ">
<polygon fill="white" stroke="black" points="421,-1074 421,-1104 540,-1104 540,-1074 421,-1074"/>
<text text-anchor="start" x="429" y="-1092" font-family="Helvetica,sans-Serif" font-size="10.00">CFeatureSpectralMfccs</text>
<text text-anchor="middle" x="480.5" y="-1081" font-family="Helvetica,sans-Serif" font-size="10.00">::setAdditionalParam</text>
</a>
</g>
</g>
<!-- Node3&#45;&gt;Node5 -->
<g id="edge4" class="edge">
<title>Node3&#45;&gt;Node5</title>
<path fill="none" stroke="midnightblue" d="M601.89,-1092.18C581.62,-1091.65 559.63,-1091.07 540.06,-1090.55"/>
<polygon fill="midnightblue" stroke="midnightblue" points="601.9,-1095.69 611.99,-1092.45 602.09,-1088.69 601.9,-1095.69"/>
</g>
<!-- Node8 -->
<g id="node8" class="node">
<title>Node8</title>
<g id="a_node8"><a xlink:href="a00470.xhtml#ac51d13fa2b36cafa4962cb3592ebfcb7" target="_top" xlink:title=" ">
<polygon fill="white" stroke="black" points="618,-982 618,-1012 725,-1012 725,-982 618,-982"/>
<text text-anchor="start" x="626" y="-1000" font-family="Helvetica,sans-Serif" font-size="10.00">CChordFromBlockIf::</text>
<text text-anchor="middle" x="671.5" y="-989" font-family="Helvetica,sans-Serif" font-size="10.00">create</text>
</a>
</g>
</g>
<!-- Node7&#45;&gt;Node8 -->
<g id="edge7" class="edge">
<title>Node7&#45;&gt;Node8</title>
<path fill="none" stroke="midnightblue" d="M818.47,-1003.29C788.7,-1002 753.56,-1000.49 725.22,-999.27"/>
<polygon fill="midnightblue" stroke="midnightblue" points="818.62,-1006.8 828.76,-1003.73 818.92,-999.8 818.62,-1006.8"/>
</g>
<!-- Node8&#45;&gt;Node9 -->
<g id="edge8" class="edge">
<title>Node8&#45;&gt;Node9</title>
<path fill="none" stroke="midnightblue" d="M607.97,-979.13C576.88,-970.25 540.57,-959.88 514.85,-952.53"/>
<polygon fill="midnightblue" stroke="midnightblue" points="607.28,-982.58 617.85,-981.96 609.2,-975.85 607.28,-982.58"/>
</g>
<!-- Node10 -->
<g id="node10" class="node">
<title>Node10</title>
<g id="a_node10"><a xlink:href="a00322.xhtml#a6df404d2eb3d4c8f9dc2071930fc9e7e" target="_top" xlink:title=" ">
<polygon fill="white" stroke="black" points="220,-955.5 220,-974.5 382,-974.5 382,-955.5 220,-955.5"/>
<text text-anchor="middle" x="301" y="-962.5" font-family="Helvetica,sans-Serif" font-size="10.00">CChordFromFile::CChordFromFile</text>
</a>
</g>
</g>
<!-- Node9&#45;&gt;Node10 -->
<g id="edge9" class="edge">
<title>Node9&#45;&gt;Node10</title>
<path fill="none" stroke="midnightblue" d="M431.53,-948.95C415.25,-950.96 396.63,-953.27 378.68,-955.5"/>
<polygon fill="midnightblue" stroke="midnightblue" points="432.36,-952.37 441.86,-947.67 431.5,-945.42 432.36,-952.37"/>
</g>
<!-- Node11 -->
<g id="node11" class="node">
<title>Node11</title>
<g id="a_node11"><a xlink:href="a00326.xhtml#ac9c41c2ddc441df7e0ae80c25971c260" target="_top" xlink:title=" ">
<polygon fill="white" stroke="black" points="232.5,-906 232.5,-936 369.5,-936 369.5,-906 232.5,-906"/>
<text text-anchor="start" x="240.5" y="-924" font-family="Helvetica,sans-Serif" font-size="10.00">CChordFromVector::CChord</text>
<text text-anchor="middle" x="301" y="-913" font-family="Helvetica,sans-Serif" font-size="10.00">FromVector</text>
</a>
</g>
</g>
<!-- Node9&#45;&gt;Node11 -->
<g id="edge10" class="edge">
<title>Node9&#45;&gt;Node11</title>
<path fill="none" stroke="midnightblue" d="M431.9,-937.1C412.8,-934.73 390.43,-931.96 369.69,-929.39"/>
<polygon fill="midnightblue" stroke="midnightblue" points="431.5,-940.58 441.86,-938.33 432.36,-933.63 431.5,-940.58"/>
</g>
<!-- Node16 -->
<g id="node16" class="node">
<title>Node16</title>
<g id="a_node16"><a xlink:href="a00026.xhtml#a0ddf1224851353fc92bfbff6f499fa97" target="_top" xlink:title=" ">
<polygon fill="white" stroke="black" points="652.5,-700.5 652.5,-719.5 690.5,-719.5 690.5,-700.5 652.5,-700.5"/>
<text text-anchor="middle" x="671.5" y="-707.5" font-family="Helvetica,sans-Serif" font-size="10.00">main</text>
</a>
</g>
</g>
<!-- Node15&#45;&gt;Node16 -->
<g id="edge16" class="edge">
<title>Node15&#45;&gt;Node16</title>
<path fill="none" stroke="midnightblue" d="M829.73,-710C784.44,-710 721.26,-710 690.61,-710"/>
<polygon fill="midnightblue" stroke="midnightblue" points="829.96,-713.5 839.96,-710 829.96,-706.5 829.96,-713.5"/>
</g>
<!-- Node20 -->
<g id="node20" class="node">
<title>Node20</title>
<g id="a_node20"><a xlink:href="a00578.xhtml#a5670188d86ba2c05e0aa1f010ca31af0" target="_top" xlink:title=" ">
<polygon fill="white" stroke="black" points="604.5,-442.5 604.5,-461.5 738.5,-461.5 738.5,-442.5 604.5,-442.5"/>
<text text-anchor="middle" x="671.5" y="-449.5" font-family="Helvetica,sans-Serif" font-size="10.00">CGmm::compProbabilities_</text>
</a>
</g>
</g>
<!-- Node19&#45;&gt;Node20 -->
<g id="edge20" class="edge">
<title>Node19&#45;&gt;Node20</title>
<path fill="none" stroke="midnightblue" d="M838.26,-466.28C809.55,-463.8 771.3,-460.51 738.77,-457.71"/>
<polygon fill="midnightblue" stroke="midnightblue" points="838.12,-469.78 848.38,-467.15 838.72,-462.8 838.12,-469.78"/>
</g>
<!-- Node23 -->
<g id="node23" class="node">
<title>Node23</title>
<g id="a_node23"><a xlink:href="a00574.xhtml#a1633da1eb011a7c745a689de687c4d95" target="_top" xlink:title=" ">
<polygon fill="white" stroke="black" points="615,-480.5 615,-499.5 728,-499.5 728,-480.5 615,-480.5"/>
<text text-anchor="middle" x="671.5" y="-487.5" font-family="Helvetica,sans-Serif" font-size="10.00">CGmmResult::getProb</text>
</a>
</g>
</g>
<!-- Node19&#45;&gt;Node23 -->
<g id="edge23" class="edge">
<title>Node19&#45;&gt;Node23</title>
<path fill="none" stroke="midnightblue" d="M838.06,-474.16C806.2,-477.21 762.68,-481.37 728.26,-484.66"/>
<polygon fill="midnightblue" stroke="midnightblue" points="838.76,-477.61 848.38,-473.17 838.1,-470.64 838.76,-477.61"/>
</g>
<!-- Node21 -->
<g id="node21" class="node">
<title>Node21</title>
<g id="a_node21"><a xlink:href="a00578.xhtml#a4089671259acdd3b3faf6fc8010e206f" target="_top" xlink:title=" ">
<polygon fill="white" stroke="black" points="251,-461.5 251,-480.5 351,-480.5 351,-461.5 251,-461.5"/>
<text text-anchor="middle" x="301" y="-468.5" font-family="Helvetica,sans-Serif" font-size="10.00">CGmm::compGmm</text>
</a>
</g>
</g>
<!-- Node20&#45;&gt;Node21 -->
<g id="edge21" class="edge">
<title>Node20&#45;&gt;Node21</title>
<path fill="none" stroke="midnightblue" d="M608.61,-463.1C587.83,-466.33 564.48,-469.41 543,-471 476.66,-475.92 399.76,-474.73 351.01,-473.12"/>
<polygon fill="midnightblue" stroke="midnightblue" points="609.26,-466.54 618.59,-461.51 608.16,-459.63 609.26,-466.54"/>
</g>
<!-- Node21&#45;&gt;Node22 -->
<g id="edge22" class="edge">
<title>Node21&#45;&gt;Node22</title>
<path fill="none" stroke="midnightblue" d="M274,-485.53C238.78,-505.21 176.87,-539.81 147.03,-556.48"/>
<polygon fill="midnightblue" stroke="midnightblue" points="275.74,-488.57 282.76,-480.63 272.33,-482.45 275.74,-488.57"/>
</g>
<!-- Node24 -->
<g id="node24" class="node">
<title>Node24</title>
<g id="a_node24"><a xlink:href="a00582.xhtml#a6ddfb025951b2206db8f98f53275d509" target="_top" xlink:title=" ">
<polygon fill="white" stroke="black" points="418,-518.5 418,-537.5 543,-537.5 543,-518.5 418,-518.5"/>
<text text-anchor="middle" x="480.5" y="-525.5" font-family="Helvetica,sans-Serif" font-size="10.00">CGmmClassifier::classify</text>
</a>
</g>
</g>
<!-- Node23&#45;&gt;Node24 -->
<g id="edge24" class="edge">
<title>Node23&#45;&gt;Node24</title>
<path fill="none" stroke="midnightblue" d="M612.76,-501.61C585.88,-507.01 554.3,-513.36 528.85,-518.48"/>
<polygon fill="midnightblue" stroke="midnightblue" points="613.69,-504.99 622.81,-499.59 612.31,-498.13 613.69,-504.99"/>
</g>
<!-- Node26 -->
<g id="node26" class="node">
<title>Node26</title>
<g id="a_node26"><a xlink:href="a00542.xhtml#ae89af275cdd54029bbf7f0f25ddf7945" target="_top" xlink:title=" ">
<polygon fill="white" stroke="black" points="579,-290.5 579,-309.5 764,-309.5 764,-290.5 579,-290.5"/>
<text text-anchor="middle" x="671.5" y="-297.5" font-family="Helvetica,sans-Serif" font-size="10.00">CSpectrogramIf::compMelSpectrogram</text>
</a>
</g>
</g>
<!-- Node25&#45;&gt;Node26 -->
<g id="edge26" class="edge">
<title>Node25&#45;&gt;Node26</title>
<path fill="none" stroke="midnightblue" d="M808.53,-296.09C794.2,-296.51 778.99,-296.94 764.14,-297.37"/>
<polygon fill="midnightblue" stroke="midnightblue" points="808.9,-299.59 818.79,-295.8 808.7,-292.59 808.9,-299.59"/>
</g>
<!-- Node28 -->
<g id="node28" class="node">
<title>Node28</title>
<g id="a_node28"><a xlink:href="a00542.xhtml#afbc5337ad3646cbba2b189323de6ce3a" target="_top" xlink:title=" ">
<polygon fill="white" stroke="black" points="584.5,-241 584.5,-271 758.5,-271 758.5,-241 584.5,-241"/>
<text text-anchor="start" x="592.5" y="-259" font-family="Helvetica,sans-Serif" font-size="10.00">CSpectrogramIf::getMelSpectrogram</text>
<text text-anchor="middle" x="671.5" y="-248" font-family="Helvetica,sans-Serif" font-size="10.00">AxisVectors</text>
</a>
</g>
</g>
<!-- Node25&#45;&gt;Node28 -->
<g id="edge28" class="edge">
<title>Node25&#45;&gt;Node28</title>
<path fill="none" stroke="midnightblue" d="M808.79,-280.78C791.52,-277.64 772.97,-274.27 755.29,-271.05"/>
<polygon fill="midnightblue" stroke="midnightblue" points="808.33,-284.25 818.79,-282.6 809.58,-277.37 808.33,-284.25"/>
</g>
<!-- Node27 -->
<g id="node27" class="node">
<title>Node27</title>
<g id="a_node27"><a xlink:href="a00119.xhtml#a0ddf1224851353fc92bfbff6f499fa97" target="_top" xlink:title=" ">
<polygon fill="white" stroke="black" points="461.5,-290.5 461.5,-309.5 499.5,-309.5 499.5,-290.5 461.5,-290.5"/>
<text text-anchor="middle" x="480.5" y="-297.5" font-family="Helvetica,sans-Serif" font-size="10.00">main</text>
</a>
</g>
</g>
<!-- Node26&#45;&gt;Node27 -->
<g id="edge27" class="edge">
<title>Node26&#45;&gt;Node27</title>
<path fill="none" stroke="midnightblue" d="M568.54,-300C541.92,-300 516.09,-300 499.58,-300"/>
<polygon fill="midnightblue" stroke="midnightblue" points="568.77,-303.5 578.77,-300 568.77,-296.5 568.77,-303.5"/>
</g>
<!-- Node29&#45;&gt;Node22 -->
<g id="edge30" class="edge">
<title>Node29&#45;&gt;Node22</title>
<path fill="none" stroke="midnightblue" d="M628.41,-566C531.44,-566 292.32,-566 184.4,-566"/>
<polygon fill="midnightblue" stroke="midnightblue" points="628.71,-569.5 638.71,-566 628.71,-562.5 628.71,-569.5"/>
</g>
<!-- Node32 -->
<g id="node32" class="node">
<title>Node32</title>
<g id="a_node32"><a xlink:href="a00020.xhtml#a0ddf1224851353fc92bfbff6f499fa97" target="_top" xlink:title=" ">
<polygon fill="white" stroke="black" points="0,-347.5 0,-366.5 38,-366.5 38,-347.5 0,-347.5"/>
<text text-anchor="middle" x="19" y="-354.5" font-family="Helvetica,sans-Serif" font-size="10.00">main</text>
</a>
</g>
</g>
<!-- Node31&#45;&gt;Node32 -->
<g id="edge33" class="edge">
<title>Node31&#45;&gt;Node32</title>
<path fill="none" stroke="midnightblue" d="M75.69,-357C62.18,-357 48.53,-357 38.13,-357"/>
<polygon fill="midnightblue" stroke="midnightblue" points="75.94,-360.5 85.94,-357 75.94,-353.5 75.94,-360.5"/>
</g>
<!-- Node33&#45;&gt;Node34 -->
<g id="edge35" class="edge">
<title>Node33&#45;&gt;Node34</title>
<path fill="none" stroke="midnightblue" d="M838.1,-927.95C804.97,-930.96 759.22,-935.12 724.2,-938.3"/>
<polygon fill="midnightblue" stroke="midnightblue" points="838.74,-931.4 848.38,-927.01 838.11,-924.43 838.74,-931.4"/>
</g>
<!-- Node34&#45;&gt;Node9 -->
<g id="edge36" class="edge">
<title>Node34&#45;&gt;Node9</title>
<path fill="none" stroke="midnightblue" d="M608.65,-943C579.16,-943 544.84,-943 519.29,-943"/>
<polygon fill="midnightblue" stroke="midnightblue" points="608.85,-946.5 618.85,-943 608.85,-939.5 608.85,-946.5"/>
</g>
<!-- Node35&#45;&gt;Node29 -->
<g id="edge38" class="edge">
<title>Node35&#45;&gt;Node29</title>
<path fill="none" stroke="midnightblue" d="M836.21,-520.39C824.34,-523.89 811.62,-527.88 800,-532 783.66,-537.79 780.56,-541.88 764,-547 744.47,-553.04 722,-557.73 704.21,-560.95"/>
<polygon fill="midnightblue" stroke="midnightblue" points="837.3,-523.72 845.93,-517.57 835.35,-516.99 837.3,-523.72"/>
</g>
<!-- Node36 -->
<g id="node36" class="node">
<title>Node36</title>
<g id="a_node36"><a xlink:href="a00574.xhtml#ae454796797856300e0990f24b8ba4ada" target="_top" xlink:title=" ">
<polygon fill="white" stroke="black" points="611,-518.5 611,-537.5 732,-537.5 732,-518.5 611,-518.5"/>
<text text-anchor="middle" x="671.5" y="-525.5" font-family="Helvetica,sans-Serif" font-size="10.00">CGmmResult::operator=</text>
</a>
</g>
</g>
<!-- Node35&#45;&gt;Node36 -->
<g id="edge39" class="edge">
<title>Node35&#45;&gt;Node36</title>
<path fill="none" stroke="midnightblue" d="M826.45,-513.27C797.45,-516.04 761.85,-519.45 732.2,-522.29"/>
<polygon fill="midnightblue" stroke="midnightblue" points="826.79,-516.75 836.41,-512.32 826.12,-509.78 826.79,-516.75"/>
</g>
<!-- Node42&#45;&gt;Node30 -->
<g id="edge46" class="edge">
<title>Node42&#45;&gt;Node30</title>
<path fill="none" stroke="midnightblue" d="M828.73,-212C788.29,-212 734.02,-212 701.24,-212"/>
<polygon fill="midnightblue" stroke="midnightblue" points="828.95,-215.5 838.95,-212 828.95,-208.5 828.95,-215.5"/>
</g>
<!-- Node43&#45;&gt;Node20 -->
<g id="edge50" class="edge">
<title>Node43&#45;&gt;Node20</title>
<path fill="none" stroke="midnightblue" d="M834.47,-422.55C801.98,-428.46 758.73,-436.32 725.09,-442.44"/>
<polygon fill="midnightblue" stroke="midnightblue" points="835.4,-425.94 844.62,-420.71 834.15,-419.05 835.4,-425.94"/>
</g>
<!-- Node43&#45;&gt;Node43 -->
<g id="edge51" class="edge">
<title>Node43&#45;&gt;Node43</title>
<path fill="none" stroke="midnightblue" d="M911.25,-432.65C910.04,-437.94 900.46,-442 882.5,-442 855.13,-442 847.22,-432.57 858.76,-423.76"/>
<polygon fill="midnightblue" stroke="midnightblue" points="914.19,-430.75 906.24,-423.76 908.09,-434.19 914.19,-430.75"/>
</g>
<!-- Node43&#45;&gt;Node44 -->
<g id="edge52" class="edge">
<title>Node43&#45;&gt;Node44</title>
<path fill="none" stroke="midnightblue" d="M834.4,-405.44C801.66,-399.48 758.02,-391.55 724.3,-385.42"/>
<polygon fill="midnightblue" stroke="midnightblue" points="834.15,-408.95 844.62,-407.29 835.4,-402.06 834.15,-408.95"/>
</g>
<!-- Node47 -->
<g id="node47" class="node">
<title>Node47</title>
<g id="a_node47"><a xlink:href="a00574.xhtml#a73b45f72b704d8053dac9e408ed01799" target="_top" xlink:title=" ">
<polygon fill="white" stroke="black" points="611,-404.5 611,-423.5 732,-423.5 732,-404.5 611,-404.5"/>
<text text-anchor="middle" x="671.5" y="-411.5" font-family="Helvetica,sans-Serif" font-size="10.00">CGmmResult::setSigma</text>
</a>
</g>
</g>
<!-- Node43&#45;&gt;Node47 -->
<g id="edge56" class="edge">
<title>Node43&#45;&gt;Node47</title>
<path fill="none" stroke="midnightblue" d="M834.35,-414C804.16,-414 764.73,-414 732.34,-414"/>
<polygon fill="midnightblue" stroke="midnightblue" points="834.62,-417.5 844.62,-414 834.62,-410.5 834.62,-417.5"/>
</g>
<!-- Node45 -->
<g id="node45" class="node">
<title>Node45</title>
<g id="a_node45"><a xlink:href="a00490.xhtml#a04bf94ff97e5e270210954864025ea06" target="_top" xlink:title=" ">
<polygon fill="white" stroke="black" points="446,-366.5 446,-385.5 515,-385.5 515,-366.5 446,-366.5"/>
<text text-anchor="middle" x="480.5" y="-373.5" font-family="Helvetica,sans-Serif" font-size="10.00">CFilter::filtfilt</text>
</a>
</g>
</g>
<!-- Node44&#45;&gt;Node45 -->
<g id="edge53" class="edge">
<title>Node44&#45;&gt;Node45</title>
<path fill="none" stroke="midnightblue" d="M608.55,-376C577.48,-376 541.07,-376 515.21,-376"/>
<polygon fill="midnightblue" stroke="midnightblue" points="608.85,-379.5 618.85,-376 608.85,-372.5 608.85,-379.5"/>
</g>
<!-- Node46 -->
<g id="node46" class="node">
<title>Node46</title>
<g id="a_node46"><a xlink:href="a00622.xhtml#a040a6674ec0ff9171d6b4cb4b8436cb2" target="_top" xlink:title=" ">
<polygon fill="white" stroke="black" points="248,-366.5 248,-385.5 354,-385.5 354,-366.5 248,-366.5"/>
<text text-anchor="middle" x="301" y="-373.5" font-family="Helvetica,sans-Serif" font-size="10.00">CResample::process</text>
</a>
</g>
</g>
<!-- Node45&#45;&gt;Node46 -->
<g id="edge54" class="edge">
<title>Node45&#45;&gt;Node46</title>
<path fill="none" stroke="midnightblue" d="M435.55,-376C410.92,-376 380.05,-376 354.19,-376"/>
<polygon fill="midnightblue" stroke="midnightblue" points="435.7,-379.5 445.7,-376 435.7,-372.5 435.7,-379.5"/>
</g>
<!-- Node46&#45;&gt;Node31 -->
<g id="edge55" class="edge">
<title>Node46&#45;&gt;Node31</title>
<path fill="none" stroke="midnightblue" d="M237.48,-369.01C215.76,-366.59 191.95,-363.92 172.26,-361.72"/>
<polygon fill="midnightblue" stroke="midnightblue" points="237.28,-372.51 247.61,-370.14 238.06,-365.56 237.28,-372.51"/>
</g>
<!-- Node48 -->
<g id="node48" class="node">
<title>Node48</title>
<g id="a_node48"><a xlink:href="a00578.xhtml#a7c640b683a4d6999fa09157d60676a52" target="_top" xlink:title=" ">
<polygon fill="white" stroke="black" points="434,-404.5 434,-423.5 527,-423.5 527,-404.5 434,-404.5"/>
<text text-anchor="middle" x="480.5" y="-411.5" font-family="Helvetica,sans-Serif" font-size="10.00">CGmm::initState_</text>
</a>
</g>
</g>
<!-- Node47&#45;&gt;Node48 -->
<g id="edge57" class="edge">
<title>Node47&#45;&gt;Node48</title>
<path fill="none" stroke="midnightblue" d="M600.96,-414C576.37,-414 549.36,-414 527.25,-414"/>
<polygon fill="midnightblue" stroke="midnightblue" points="600.96,-417.5 610.96,-414 600.96,-410.5 600.96,-417.5"/>
</g>
<!-- Node49 -->
<g id="node49" class="node">
<title>Node49</title>
<g id="a_node49"><a xlink:href="a00578.xhtml#a0d3f000bb918b7d01ab12d5712d230cb" target="_top" xlink:title=" ">
<polygon fill="white" stroke="black" points="425.5,-442.5 425.5,-461.5 535.5,-461.5 535.5,-442.5 425.5,-442.5"/>
<text text-anchor="middle" x="480.5" y="-449.5" font-family="Helvetica,sans-Serif" font-size="10.00">CGmm::updateState_</text>
</a>
</g>
</g>
<!-- Node47&#45;&gt;Node49 -->
<g id="edge59" class="edge">
<title>Node47&#45;&gt;Node49</title>
<path fill="none" stroke="midnightblue" d="M612.76,-425.61C585.88,-431.01 554.3,-437.36 528.85,-442.48"/>
<polygon fill="midnightblue" stroke="midnightblue" points="613.69,-428.99 622.81,-423.59 612.31,-422.13 613.69,-428.99"/>
</g>
<!-- Node48&#45;&gt;Node21 -->
<g id="edge58" class="edge">
<title>Node48&#45;&gt;Node21</title>
<path fill="none" stroke="midnightblue" d="M438.39,-426.6C431.57,-428.71 424.58,-430.91 418,-433 388.11,-442.51 354.01,-453.73 330.56,-461.5"/>
<polygon fill="midnightblue" stroke="midnightblue" points="439.66,-429.86 448.18,-423.56 437.59,-423.18 439.66,-429.86"/>
</g>
<!-- Node49&#45;&gt;Node21 -->
<g id="edge60" class="edge">
<title>Node49&#45;&gt;Node21</title>
<path fill="none" stroke="midnightblue" d="M415.09,-458.89C393.97,-461.16 370.86,-463.63 351.06,-465.75"/>
<polygon fill="midnightblue" stroke="midnightblue" points="415.71,-462.35 425.28,-457.8 414.96,-455.39 415.71,-462.35"/>
</g>
</g>
</svg>
