<?xml version="1.0" encoding="UTF-8" standalone="no"?>
<!DOCTYPE svg PUBLIC "-//W3C//DTD SVG 1.1//EN"
 "http://www.w3.org/Graphics/SVG/1.1/DTD/svg11.dtd">
<!-- Generated by graphviz version 6.0.1 (20220911.1526)
 -->
<!-- Title: CRingBuffer::put Pages: 1 -->
<!--zoomable 135 -->
<svg id="main" version="1.1" xmlns="http://www.w3.org/2000/svg" xmlns:xlink="http://www.w3.org/1999/xlink" xml:space="preserve" onload="init(evt)">
<style type="text/css"><![CDATA[
.edge:hover path { stroke: red; }
.edge:hover polygon { stroke: red; fill: red; }
]]></style>
<script type="text/javascript"><![CDATA[
var edges = document.getElementsByTagName('g');
if (edges && edges.length) {
  for (var i=0;i<edges.length;i++) {
    if (edges[i].id.substr(0,4)=='edge') {
      edges[i].setAttribute('class','edge');
    }
  }
}
]]></script>
        <defs>
                <circle id="rim" cx="0" cy="0" r="7"/>
                <circle id="rim2" cx="0" cy="0" r="3.5"/>
                <g id="zoomPlus">
                        <use xlink:href="#rim" fill="#404040">
                                <set attributeName="fill" to="#808080" begin="zoomplus.mouseover" end="zoomplus.mouseout"/>
                        </use>
                        <path d="M-4,0h8M0,-4v8" fill="none" stroke="white" stroke-width="1.5" pointer-events="none"/>
                </g>
                <g id="zoomMin">
                        <use xlink:href="#rim" fill="#404040">
                                <set attributeName="fill" to="#808080" begin="zoomminus.mouseover" end="zoomminus.mouseout"/>
                        </use>
                        <path d="M-4,0h8" fill="none" stroke="white" stroke-width="1.5" pointer-events="none"/>
                </g>
                <g id="dirArrow">
                        <path fill="none" stroke="white" stroke-width="1.5" d="M0,-3.0v7 M-2.5,-0.5L0,-3.0L2.5,-0.5"/>
                </g>
               <g id="resetDef">
                       <use xlink:href="#rim2" fill="#404040">
                               <set attributeName="fill" to="#808080" begin="reset.mouseover" end="reset.mouseout"/>
                       </use>
               </g>
        </defs>

<script type="text/javascript">
var viewWidth = 1035;
var viewHeight = 135;
var sectionId = 'dynsection-11';
</script>
<script xlink:href="svgpan.js"/>
<svg id="graph" class="graph">
<g id="viewport">
<title>CRingBuffer::put</title>
<!-- Node1 -->
<g id="node1" class="node">
<title>Node1</title>
<g id="a_node1"><a xlink:title=" ">
<polygon fill="#999999" stroke="#666666" points="1027,-85.5 941,-85.5 941,-66.5 1027,-66.5 1027,-85.5"/>
<text text-anchor="middle" x="984" y="-73.5" font-family="Helvetica,sans-Serif" font-size="10.00">CRingBuffer::put</text>
</a>
</g>
</g>
<!-- Node2 -->
<g id="node2" class="node">
<title>Node2</title>
<g id="a_node2"><a xlink:href="a00490.xhtml#a2bd848181a662312600bc590b9040d2a" target="_top" xlink:title=" ">
<polygon fill="white" stroke="#666666" points="905,-85.5 785,-85.5 785,-66.5 905,-66.5 905,-85.5"/>
<text text-anchor="middle" x="845" y="-73.5" font-family="Helvetica,sans-Serif" font-size="10.00">CRingBuffer::putPostInc</text>
</a>
</g>
</g>
<!-- Node1&#45;&gt;Node2 -->
<g id="edge1" class="edge">
<title>Node1&#45;&gt;Node2</title>
<path fill="none" stroke="#63b8ff" d="M930.51,-76C922.23,-76 913.63,-76 905.21,-76"/>
<polygon fill="#63b8ff" stroke="#63b8ff" points="930.78,-79.5 940.78,-76 930.78,-72.5 930.78,-79.5"/>
</g>
<!-- Node3 -->
<g id="node3" class="node">
<title>Node3</title>
<g id="a_node3"><a xlink:href="a00586.xhtml#a7f3acd443773cadf99ab22335ecac73e" target="_top" xlink:title=" ">
<polygon fill="white" stroke="#666666" points="747.5,-107.5 617.5,-107.5 617.5,-88.5 747.5,-88.5 747.5,-107.5"/>
<text text-anchor="middle" x="682.5" y="-95.5" font-family="Helvetica,sans-Serif" font-size="10.00">CMovingAverage::process</text>
</a>
</g>
</g>
<!-- Node2&#45;&gt;Node3 -->
<g id="edge2" class="edge">
<title>Node2&#45;&gt;Node3</title>
<path fill="none" stroke="#63b8ff" d="M774.68,-85.5C765.71,-86.73 756.56,-87.99 747.69,-89.2"/>
<polygon fill="#63b8ff" stroke="#63b8ff" points="775.26,-88.96 784.69,-84.13 774.31,-82.02 775.26,-88.96"/>
</g>
<!-- Node9 -->
<g id="node9" class="node">
<title>Node9</title>
<g id="a_node9"><a xlink:href="a00410.xhtml#ac77d15abc29183765326f7212dd523a1" target="_top" xlink:title=" ">
<polygon fill="white" stroke="#666666" points="749,-70 616,-70 616,-40 749,-40 749,-70"/>
<text text-anchor="start" x="624" y="-58" font-family="Helvetica,sans-Serif" font-size="10.00">CBlockAudioFile::readFile2</text>
<text text-anchor="middle" x="682.5" y="-47" font-family="Helvetica,sans-Serif" font-size="10.00">RingBuff</text>
</a>
</g>
</g>
<!-- Node2&#45;&gt;Node9 -->
<g id="edge8" class="edge">
<title>Node2&#45;&gt;Node9</title>
<path fill="none" stroke="#63b8ff" d="M774.77,-66.94C766.23,-65.83 757.53,-64.69 749.05,-63.58"/>
<polygon fill="#63b8ff" stroke="#63b8ff" points="774.32,-70.41 784.69,-68.24 775.23,-63.47 774.32,-70.41"/>
</g>
<!-- Node4 -->
<g id="node4" class="node">
<title>Node4</title>
<g id="a_node4"><a xlink:href="a00586.xhtml#afaf126206b3993e9caeb989c2bab8ef4" target="_top" xlink:title=" ">
<polygon fill="white" stroke="#666666" points="555,-107.5 440,-107.5 440,-88.5 555,-88.5 555,-107.5"/>
<text text-anchor="middle" x="497.5" y="-95.5" font-family="Helvetica,sans-Serif" font-size="10.00">CMovingAverage::filtfilt</text>
</a>
</g>
</g>
<!-- Node3&#45;&gt;Node4 -->
<g id="edge3" class="edge">
<title>Node3&#45;&gt;Node4</title>
<path fill="none" stroke="#63b8ff" d="M607.36,-98C589.94,-98 571.65,-98 555.15,-98"/>
<polygon fill="#63b8ff" stroke="#63b8ff" points="607.5,-101.5 617.5,-98 607.5,-94.5 607.5,-101.5"/>
</g>
<!-- Node5 -->
<g id="node5" class="node">
<title>Node5</title>
<g id="a_node5"><a xlink:href="a00514.xhtml#a9f110985f86064fa24aa3157bfd5cab0" target="_top" xlink:title=" ">
<polygon fill="white" stroke="#666666" points="379,-107.5 255,-107.5 255,-88.5 379,-88.5 379,-107.5"/>
<text text-anchor="middle" x="317" y="-95.5" font-family="Helvetica,sans-Serif" font-size="10.00">CNoveltyIf::compNovelty</text>
</a>
</g>
</g>
<!-- Node4&#45;&gt;Node5 -->
<g id="edge4" class="edge">
<title>Node4&#45;&gt;Node5</title>
<path fill="none" stroke="#63b8ff" d="M429.4,-98C412.88,-98 395.27,-98 379.05,-98"/>
<polygon fill="#63b8ff" stroke="#63b8ff" points="429.53,-101.5 439.53,-98 429.53,-94.5 429.53,-101.5"/>
</g>
<!-- Node6 -->
<g id="node6" class="node">
<title>Node6</title>
<g id="a_node6"><a xlink:href="a00450.xhtml#a58a9a3d685f448ced2e843a60028e472" target="_top" xlink:title=" ">
<polygon fill="white" stroke="#666666" points="219,-126.5 74,-126.5 74,-107.5 219,-107.5 219,-126.5"/>
<text text-anchor="middle" x="146.5" y="-114.5" font-family="Helvetica,sans-Serif" font-size="10.00">CBeatHistoIf::compBeatHisto</text>
</a>
</g>
</g>
<!-- Node5&#45;&gt;Node6 -->
<g id="edge5" class="edge">
<title>Node5&#45;&gt;Node6</title>
<path fill="none" stroke="#63b8ff" d="M244.52,-106.06C236.09,-107.01 227.49,-107.98 219.06,-108.93"/>
<polygon fill="#63b8ff" stroke="#63b8ff" points="245.15,-109.51 254.69,-104.91 244.36,-102.56 245.15,-109.51"/>
</g>
<!-- Node8 -->
<g id="node8" class="node">
<title>Node8</title>
<g id="a_node8"><a xlink:href="a00023.xhtml#a0ddf1224851353fc92bfbff6f499fa97" target="_top" xlink:title=" ">
<polygon fill="white" stroke="#666666" points="165.5,-89.5 127.5,-89.5 127.5,-70.5 165.5,-70.5 165.5,-89.5"/>
<text text-anchor="middle" x="146.5" y="-77.5" font-family="Helvetica,sans-Serif" font-size="10.00">main</text>
</a>
</g>
</g>
<!-- Node5&#45;&gt;Node8 -->
<g id="edge7" class="edge">
<title>Node5&#45;&gt;Node8</title>
<path fill="none" stroke="#63b8ff" d="M244.55,-90.37C215.59,-87.27 184.55,-83.96 165.58,-81.93"/>
<polygon fill="#63b8ff" stroke="#63b8ff" points="244.38,-93.87 254.69,-91.45 245.12,-86.91 244.38,-93.87"/>
</g>
<!-- Node7 -->
<g id="node7" class="node">
<title>Node7</title>
<g id="a_node7"><a xlink:href="a00011.xhtml#a0ddf1224851353fc92bfbff6f499fa97" target="_top" xlink:title=" ">
<polygon fill="white" stroke="#666666" points="38,-126.5 0,-126.5 0,-107.5 38,-107.5 38,-126.5"/>
<text text-anchor="middle" x="19" y="-114.5" font-family="Helvetica,sans-Serif" font-size="10.00">main</text>
</a>
</g>
</g>
<!-- Node6&#45;&gt;Node7 -->
<g id="edge6" class="edge">
<title>Node6&#45;&gt;Node7</title>
<path fill="none" stroke="#63b8ff" d="M63.88,-117C54.4,-117 45.55,-117 38.32,-117"/>
<polygon fill="#63b8ff" stroke="#63b8ff" points="63.95,-120.5 73.95,-117 63.95,-113.5 63.95,-120.5"/>
</g>
<!-- Node10 -->
<g id="node10" class="node">
<title>Node10</title>
<g id="a_node10"><a xlink:href="a00410.xhtml#ae12716ee8473becf462624698243f761" target="_top" xlink:title=" ">
<polygon fill="white" stroke="#666666" points="580,-67.5 415,-67.5 415,-48.5 580,-48.5 580,-67.5"/>
<text text-anchor="middle" x="497.5" y="-55.5" font-family="Helvetica,sans-Serif" font-size="10.00">CBlockAudioFile::CBlockAudioFile</text>
</a>
</g>
</g>
<!-- Node9&#45;&gt;Node10 -->
<g id="edge9" class="edge">
<title>Node9&#45;&gt;Node10</title>
<path fill="none" stroke="#63b8ff" d="M605.77,-56.24C597.33,-56.38 588.71,-56.52 580.2,-56.66"/>
<polygon fill="#63b8ff" stroke="#63b8ff" points="606.01,-59.74 615.95,-56.07 605.89,-52.74 606.01,-59.74"/>
</g>
<!-- Node11 -->
<g id="node11" class="node">
<title>Node11</title>
<g id="a_node11"><a xlink:href="a00410.xhtml#a9c2bd8b51ec72c82eb202d70f379d3ac" target="_top" xlink:title=" ">
<polygon fill="white" stroke="#666666" points="561,-30 434,-30 434,0 561,0 561,-30"/>
<text text-anchor="start" x="442" y="-18" font-family="Helvetica,sans-Serif" font-size="10.00">CBlockAudioFile::getNext</text>
<text text-anchor="middle" x="497.5" y="-7" font-family="Helvetica,sans-Serif" font-size="10.00">Block</text>
</a>
</g>
</g>
<!-- Node9&#45;&gt;Node11 -->
<g id="edge10" class="edge">
<title>Node9&#45;&gt;Node11</title>
<path fill="none" stroke="#63b8ff" d="M605.78,-38.45C590.93,-35.2 575.51,-31.83 561.14,-28.69"/>
<polygon fill="#63b8ff" stroke="#63b8ff" points="605.43,-41.96 615.95,-40.67 606.93,-35.12 605.43,-41.96"/>
</g>
</g>
</svg>
        <g id="navigator" transform="translate(0 0)" fill="#404254">
                <rect fill="#f2f5e9" fill-opacity="0.5" stroke="#606060" stroke-width=".5" x="0" y="0" width="60" height="60"/>
                <use id="zoomplus" xlink:href="#zoomPlus" x="17" y="9" onmousedown="handleZoom(evt,'in')"/>
                <use id="zoomminus" xlink:href="#zoomMin" x="42" y="9" onmousedown="handleZoom(evt,'out')"/>
                <use id="reset" xlink:href="#resetDef" x="30" y="36" onmousedown="handleReset()"/>
                <g id="arrowUp" xlink:href="#dirArrow" transform="translate(30 24)" onmousedown="handlePan(0,-1)">
                  <use xlink:href="#rim" fill="#404040">
                        <set attributeName="fill" to="#808080" begin="arrowUp.mouseover" end="arrowUp.mouseout"/>
                  </use>
                  <path fill="none" stroke="white" stroke-width="1.5" d="M0,-3.0v7 M-2.5,-0.5L0,-3.0L2.5,-0.5"/>
                </g>
                <g id="arrowRight" xlink:href="#dirArrow" transform="rotate(90) translate(36 -43)" onmousedown="handlePan(1,0)">
                  <use xlink:href="#rim" fill="#404040">
                        <set attributeName="fill" to="#808080" begin="arrowRight.mouseover" end="arrowRight.mouseout"/>
                  </use>
                  <path fill="none" stroke="white" stroke-width="1.5" d="M0,-3.0v7 M-2.5,-0.5L0,-3.0L2.5,-0.5"/>
                </g>
                <g id="arrowDown" xlink:href="#dirArrow" transform="rotate(180) translate(-30 -48)" onmousedown="handlePan(0,1)">
                  <use xlink:href="#rim" fill="#404040">
                        <set attributeName="fill" to="#808080" begin="arrowDown.mouseover" end="arrowDown.mouseout"/>
                  </use>
                  <path fill="none" stroke="white" stroke-width="1.5" d="M0,-3.0v7 M-2.5,-0.5L0,-3.0L2.5,-0.5"/>
                </g>
                <g id="arrowLeft" xlink:href="#dirArrow" transform="rotate(270) translate(-36 17)" onmousedown="handlePan(-1,0)">
                  <use xlink:href="#rim" fill="#404040">
                        <set attributeName="fill" to="#808080" begin="arrowLeft.mouseover" end="arrowLeft.mouseout"/>
                  </use>
                  <path fill="none" stroke="white" stroke-width="1.5" d="M0,-3.0v7 M-2.5,-0.5L0,-3.0L2.5,-0.5"/>
                </g>
        </g>
        <svg viewBox="0 0 15 15" width="100%" height="30px" preserveAspectRatio="xMaxYMin meet">
         <g id="arrow_out" transform="scale(0.3 0.3)">
          <a xlink:href="a00490_a702eb6314380082795f735df74a816c9_icgraph_org.svg" target="_base">
           <rect id="button" ry="5" rx="5" y="6" x="6" height="38" width="38"
                fill="#f2f5e9" fill-opacity="0.5" stroke="#606060" stroke-width="1.0"/>
           <path id="arrow"
             d="M 11.500037,31.436501 C 11.940474,20.09759 22.043105,11.32322 32.158766,21.979434 L 37.068811,17.246167 C 37.068811,17.246167 37.088388,32 37.088388,32 L 22.160133,31.978069 C 22.160133,31.978069 26.997745,27.140456 26.997745,27.140456 C 18.528582,18.264221 13.291696,25.230495 11.500037,31.436501 z"
             style="fill:#404040;"/>
          </a>
         </g>
        </svg>
</svg>
