<?xml version="1.0" encoding="UTF-8" standalone="no"?>
<!DOCTYPE svg PUBLIC "-//W3C//DTD SVG 1.1//EN"
 "http://www.w3.org/Graphics/SVG/1.1/DTD/svg11.dtd">
<!-- Generated by graphviz version 6.0.1 (20220911.1526)
 -->
<!-- Title: CAudioFileRaw::freeMemory_ Pages: 1 -->
<svg width="497pt" height="64pt"
 viewBox="0.00 0.00 497.00 64.00" xmlns="http://www.w3.org/2000/svg" xmlns:xlink="http://www.w3.org/1999/xlink">
<g id="graph0" class="graph" transform="scale(1 1) rotate(0) translate(4 60)">
<title>CAudioFileRaw::freeMemory_</title>
<!-- Node1 -->
<g id="node1" class="node">
<title>Node1</title>
<g id="a_node1"><a xlink:title=" ">
<polygon fill="#999999" stroke="#666666" points="489,-37 345,-37 345,-18 489,-18 489,-37"/>
<text text-anchor="middle" x="417" y="-25" font-family="Helvetica,sans-Serif" font-size="10.00">CAudioFileRaw::freeMemory_</text>
</a>
</g>
</g>
<!-- Node2 -->
<g id="node2" class="node">
<title>Node2</title>
<g id="a_node2"><a xlink:href="a00434.xhtml#a326a8699cda652412544ac2391326c64" target="_top" xlink:title=" ">
<polygon fill="white" stroke="#666666" points="309,-56 161,-56 161,-37 309,-37 309,-56"/>
<text text-anchor="middle" x="235" y="-44" font-family="Helvetica,sans-Serif" font-size="10.00">CAudioFileRaw::allocMemory_</text>
</a>
</g>
</g>
<!-- Node1&#45;&gt;Node2 -->
<g id="edge1" class="edge">
<title>Node1&#45;&gt;Node2</title>
<path fill="none" stroke="#63b8ff" d="M334.91,-36.06C326.37,-36.96 317.72,-37.87 309.28,-38.76"/>
<polygon fill="#63b8ff" stroke="#63b8ff" points="335.28,-39.54 344.86,-35.01 334.55,-32.58 335.28,-39.54"/>
</g>
<!-- Node4 -->
<g id="node4" class="node">
<title>Node4</title>
<g id="a_node4"><a xlink:href="a00434.xhtml#a5d678d9ff6ccd1a3b196c34979572e7f" target="_top" xlink:title=" ">
<polygon fill="white" stroke="#666666" points="298.5,-19 171.5,-19 171.5,0 298.5,0 298.5,-19"/>
<text text-anchor="middle" x="235" y="-7" font-family="Helvetica,sans-Serif" font-size="10.00">CAudioFileRaw::closeFile</text>
</a>
</g>
</g>
<!-- Node1&#45;&gt;Node4 -->
<g id="edge3" class="edge">
<title>Node1&#45;&gt;Node4</title>
<path fill="none" stroke="#63b8ff" d="M334.77,-19.38C322.69,-18.17 310.38,-16.94 298.75,-15.78"/>
<polygon fill="#63b8ff" stroke="#63b8ff" points="334.56,-22.87 344.86,-20.39 335.26,-15.91 334.56,-22.87"/>
</g>
<!-- Node3 -->
<g id="node3" class="node">
<title>Node3</title>
<g id="a_node3"><a xlink:href="a00434.xhtml#a3e0ef78b8e6ff49a3138d0a153906253" target="_top" xlink:title=" ">
<polygon fill="white" stroke="#666666" points="125,-56 0,-56 0,-37 125,-37 125,-56"/>
<text text-anchor="middle" x="62.5" y="-44" font-family="Helvetica,sans-Serif" font-size="10.00">CAudioFileRaw::openFile</text>
</a>
</g>
</g>
<!-- Node2&#45;&gt;Node3 -->
<g id="edge2" class="edge">
<title>Node2&#45;&gt;Node3</title>
<path fill="none" stroke="#63b8ff" d="M150.67,-46.5C142.1,-46.5 133.5,-46.5 125.23,-46.5"/>
<polygon fill="#63b8ff" stroke="#63b8ff" points="150.7,-50 160.7,-46.5 150.7,-43 150.7,-50"/>
</g>
</g>
</svg>
