<?xml version="1.0" encoding="UTF-8" standalone="no"?>
<!DOCTYPE svg PUBLIC "-//W3C//DTD SVG 1.1//EN"
 "http://www.w3.org/Graphics/SVG/1.1/DTD/svg11.dtd">
<!-- Generated by graphviz version 12.2.1 (20241206.2353)
 -->
<!-- Title: CMatrix::mulC_I Pages: 1 -->
<svg width="709pt" height="179pt"
 viewBox="0.00 0.00 709.00 178.88" xmlns="http://www.w3.org/2000/svg" xmlns:xlink="http://www.w3.org/1999/xlink">
<g id="graph0" class="graph" transform="scale(1 1) rotate(0) translate(4 174.88)">
<title>CMatrix::mulC_I</title>
<!-- Node1 -->
<g id="Node000001" class="node">
<title>Node1</title>
<g id="a_Node000001"><a xlink:title=" ">
<polygon fill="#999999" stroke="#666666" points="701,-95.88 616.75,-95.88 616.75,-76.62 701,-76.62 701,-95.88"/>
<text text-anchor="middle" x="658.88" y="-82.38" font-family="Helvetica,sans-Serif" font-size="10.00">CMatrix::mulC_I</text>
</a>
</g>
</g>
<!-- Node2 -->
<g id="Node000002" class="node">
<title>Node2</title>
<g id="a_Node000002"><a xlink:href="a00601.xhtml#ab97f1018b23310674511f05dac173db8" target="_top" xlink:title=" ">
<polygon fill="white" stroke="#666666" points="569.12,-133.88 483.38,-133.88 483.38,-114.62 569.12,-114.62 569.12,-133.88"/>
<text text-anchor="middle" x="526.25" y="-120.38" font-family="Helvetica,sans-Serif" font-size="10.00">CPca::compCov</text>
</a>
</g>
</g>
<!-- Node1&#45;&gt;Node2 -->
<g id="edge1_Node000001_Node000002" class="edge">
<title>Node1&#45;&gt;Node2</title>
<g id="a_edge1_Node000001_Node000002"><a xlink:title=" ">
<path fill="none" stroke="#63b8ff" d="M612.56,-99.43C595.85,-104.29 577.21,-109.72 561.62,-114.25"/>
<polygon fill="#63b8ff" stroke="#63b8ff" points="613.14,-102.91 621.76,-96.76 611.18,-96.19 613.14,-102.91"/>
</a>
</g>
</g>
<!-- Node7 -->
<g id="Node000007" class="node">
<title>Node7</title>
<g id="a_Node000007"><a xlink:href="a00457.xhtml#a2dc9b2b2e4912e45835c5727d550aee7" target="_top" xlink:title=" ">
<polygon fill="white" stroke="#666666" points="578.5,-58.88 474,-58.88 474,-39.62 578.5,-39.62 578.5,-58.88"/>
<text text-anchor="middle" x="526.25" y="-45.38" font-family="Helvetica,sans-Serif" font-size="10.00">CChordIf::initViterbi_</text>
</a>
</g>
</g>
<!-- Node1&#45;&gt;Node7 -->
<g id="edge6_Node000001_Node000007" class="edge">
<title>Node1&#45;&gt;Node7</title>
<g id="a_edge6_Node000001_Node000007"><a xlink:title=" ">
<path fill="none" stroke="#63b8ff" d="M611.45,-73.1C595.48,-68.58 577.87,-63.59 562.9,-59.35"/>
<polygon fill="#63b8ff" stroke="#63b8ff" points="610.15,-76.37 620.72,-75.73 612.06,-69.63 610.15,-76.37"/>
</a>
</g>
</g>
<!-- Node11 -->
<g id="Node000011" class="node">
<title>Node11</title>
<g id="a_Node000011"><a xlink:href="a00569.xhtml#acfd1d971e4268d80fe445a9798c8f075" target="_top" xlink:title=" ">
<polygon fill="white" stroke="#666666" points="580.75,-95.88 471.75,-95.88 471.75,-76.62 580.75,-76.62 580.75,-95.88"/>
<text text-anchor="middle" x="526.25" y="-82.38" font-family="Helvetica,sans-Serif" font-size="10.00">CGmm::updateState_</text>
</a>
</g>
</g>
<!-- Node1&#45;&gt;Node11 -->
<g id="edge10_Node000001_Node000011" class="edge">
<title>Node1&#45;&gt;Node11</title>
<g id="a_edge10_Node000001_Node000011"><a xlink:title=" ">
<path fill="none" stroke="#63b8ff" d="M605.21,-86.25C597.31,-86.25 589.16,-86.25 581.23,-86.25"/>
<polygon fill="#63b8ff" stroke="#63b8ff" points="605.03,-89.75 615.03,-86.25 605.03,-82.75 605.03,-89.75"/>
</a>
</g>
</g>
<!-- Node3 -->
<g id="Node000003" class="node">
<title>Node3</title>
<g id="a_Node000003"><a xlink:href="a00601.xhtml#a3185f8f3c718973ce66de3595e38db09" target="_top" xlink:title=" ">
<polygon fill="white" stroke="#666666" points="432.38,-170.88 346.62,-170.88 346.62,-151.62 432.38,-151.62 432.38,-170.88"/>
<text text-anchor="middle" x="389.5" y="-157.38" font-family="Helvetica,sans-Serif" font-size="10.00">CPca::compPca</text>
</a>
</g>
</g>
<!-- Node2&#45;&gt;Node3 -->
<g id="edge2_Node000002_Node000003" class="edge">
<title>Node2&#45;&gt;Node3</title>
<g id="a_edge2_Node000002_Node000003"><a xlink:title=" ">
<path fill="none" stroke="#63b8ff" d="M477.35,-137.4C460.89,-141.92 442.72,-146.91 427.28,-151.15"/>
<polygon fill="#63b8ff" stroke="#63b8ff" points="478.25,-140.78 486.97,-134.76 476.4,-134.03 478.25,-140.78"/>
</a>
</g>
</g>
<!-- Node4 -->
<g id="Node000004" class="node">
<title>Node4</title>
<g id="a_Node000004"><a xlink:href="a00569.xhtml#a5ba31c15070952d0c4cb442c7e257f50" target="_top" xlink:title=" ">
<polygon fill="white" stroke="#666666" points="435.75,-133.88 343.25,-133.88 343.25,-114.62 435.75,-114.62 435.75,-133.88"/>
<text text-anchor="middle" x="389.5" y="-120.38" font-family="Helvetica,sans-Serif" font-size="10.00">CGmm::initState_</text>
</a>
</g>
</g>
<!-- Node2&#45;&gt;Node4 -->
<g id="edge3_Node000002_Node000004" class="edge">
<title>Node2&#45;&gt;Node4</title>
<g id="a_edge3_Node000002_Node000004"><a xlink:title=" ">
<path fill="none" stroke="#63b8ff" d="M471.82,-124.25C459.92,-124.25 447.42,-124.25 435.88,-124.25"/>
<polygon fill="#63b8ff" stroke="#63b8ff" points="471.47,-127.75 481.47,-124.25 471.47,-120.75 471.47,-127.75"/>
</a>
</g>
</g>
<!-- Node5 -->
<g id="Node000005" class="node">
<title>Node5</title>
<g id="a_Node000005"><a xlink:href="a00569.xhtml#a1c5c350c949120b07e5cbd1e317c7ad7" target="_top" xlink:title=" ">
<polygon fill="white" stroke="#666666" points="276.12,-123.88 176.88,-123.88 176.88,-104.62 276.12,-104.62 276.12,-123.88"/>
<text text-anchor="middle" x="226.5" y="-110.38" font-family="Helvetica,sans-Serif" font-size="10.00">CGmm::compGmm</text>
</a>
</g>
</g>
<!-- Node4&#45;&gt;Node5 -->
<g id="edge4_Node000004_Node000005" class="edge">
<title>Node4&#45;&gt;Node5</title>
<g id="a_edge4_Node000004_Node000005"><a xlink:title=" ">
<path fill="none" stroke="#63b8ff" d="M331.55,-120.71C313.54,-119.59 293.81,-118.37 276.42,-117.29"/>
<polygon fill="#63b8ff" stroke="#63b8ff" points="331.09,-124.19 341.28,-121.32 331.52,-117.2 331.09,-124.19"/>
</a>
</g>
</g>
<!-- Node6 -->
<g id="Node000006" class="node">
<title>Node6</title>
<g id="a_Node000006"><a xlink:href="a00573.xhtml#af086e0bae5cc3cb68c35745749b0fda5" target="_top" xlink:title=" ">
<polygon fill="white" stroke="#666666" points="109.75,-123.88 0,-123.88 0,-104.62 109.75,-104.62 109.75,-123.88"/>
<text text-anchor="middle" x="54.88" y="-110.38" font-family="Helvetica,sans-Serif" font-size="10.00">CGmmClassifier::train</text>
</a>
</g>
</g>
<!-- Node5&#45;&gt;Node6 -->
<g id="edge5_Node000005_Node000006" class="edge">
<title>Node5&#45;&gt;Node6</title>
<g id="a_edge5_Node000005_Node000006"><a xlink:title=" ">
<path fill="none" stroke="#63b8ff" d="M164.95,-114.25C147.08,-114.25 127.64,-114.25 110.18,-114.25"/>
<polygon fill="#63b8ff" stroke="#63b8ff" points="164.92,-117.75 174.92,-114.25 164.92,-110.75 164.92,-117.75"/>
</a>
</g>
</g>
<!-- Node8 -->
<g id="Node000008" class="node">
<title>Node8</title>
<g id="a_Node000008"><a xlink:href="a00457.xhtml#ad48a5bd574f16b7491b70efb9998935f" target="_top" xlink:title="init configuration">
<polygon fill="white" stroke="#666666" points="427.88,-57.88 351.12,-57.88 351.12,-38.62 427.88,-38.62 427.88,-57.88"/>
<text text-anchor="middle" x="389.5" y="-44.38" font-family="Helvetica,sans-Serif" font-size="10.00">CChordIf::init_</text>
</a>
</g>
</g>
<!-- Node7&#45;&gt;Node8 -->
<g id="edge7_Node000007_Node000008" class="edge">
<title>Node7&#45;&gt;Node8</title>
<g id="a_edge7_Node000007_Node000008"><a xlink:title=" ">
<path fill="none" stroke="#63b8ff" d="M462.39,-48.78C450.65,-48.7 438.73,-48.61 428.06,-48.53"/>
<polygon fill="#63b8ff" stroke="#63b8ff" points="462,-52.28 472.02,-48.85 462.05,-45.28 462,-52.28"/>
</a>
</g>
</g>
<!-- Node9 -->
<g id="Node000009" class="node">
<title>Node9</title>
<g id="a_Node000009"><a xlink:href="a00313.xhtml#a6df404d2eb3d4c8f9dc2071930fc9e7e" target="_top" xlink:title=" ">
<polygon fill="white" stroke="#666666" points="307.25,-67.88 145.75,-67.88 145.75,-48.62 307.25,-48.62 307.25,-67.88"/>
<text text-anchor="middle" x="226.5" y="-54.38" font-family="Helvetica,sans-Serif" font-size="10.00">CChordFromFile::CChordFromFile</text>
</a>
</g>
</g>
<!-- Node8&#45;&gt;Node9 -->
<g id="edge8_Node000008_Node000009" class="edge">
<title>Node8&#45;&gt;Node9</title>
<g id="a_edge8_Node000008_Node000009"><a xlink:title=" ">
<path fill="none" stroke="#63b8ff" d="M339.32,-51.3C329.24,-51.93 318.39,-52.6 307.54,-53.28"/>
<polygon fill="#63b8ff" stroke="#63b8ff" points="339.48,-54.8 349.24,-50.69 339.04,-47.82 339.48,-54.8"/>
</a>
</g>
</g>
<!-- Node10 -->
<g id="Node000010" class="node">
<title>Node10</title>
<g id="a_Node000010"><a xlink:href="a00317.xhtml#ac9c41c2ddc441df7e0ae80c25971c260" target="_top" xlink:title=" ">
<polygon fill="white" stroke="#666666" points="294.5,-30.5 158.5,-30.5 158.5,0 294.5,0 294.5,-30.5"/>
<text text-anchor="start" x="166.5" y="-17" font-family="Helvetica,sans-Serif" font-size="10.00">CChordFromVector::CChord</text>
<text text-anchor="middle" x="226.5" y="-5.75" font-family="Helvetica,sans-Serif" font-size="10.00">FromVector</text>
</a>
</g>
</g>
<!-- Node8&#45;&gt;Node10 -->
<g id="edge9_Node000008_Node000010" class="edge">
<title>Node8&#45;&gt;Node10</title>
<g id="a_edge9_Node000008_Node000010"><a xlink:title=" ">
<path fill="none" stroke="#63b8ff" d="M339.81,-38.27C325.69,-35.38 310.03,-32.17 294.98,-29.08"/>
<polygon fill="#63b8ff" stroke="#63b8ff" points="338.77,-41.63 349.27,-40.21 340.18,-34.77 338.77,-41.63"/>
</a>
</g>
</g>
<!-- Node11&#45;&gt;Node5 -->
<g id="edge11_Node000011_Node000005" class="edge">
<title>Node11&#45;&gt;Node5</title>
<g id="a_edge11_Node000011_Node000005"><a xlink:title=" ">
<path fill="none" stroke="#63b8ff" d="M459.9,-92.4C404.62,-97.59 326.64,-104.93 276.57,-109.64"/>
<polygon fill="#63b8ff" stroke="#63b8ff" points="460.19,-95.88 469.82,-91.46 459.54,-88.91 460.19,-95.88"/>
</a>
</g>
</g>
</g>
</svg>
