<?xml version="1.0" encoding="UTF-8" standalone="no"?>
<!DOCTYPE svg PUBLIC "-//W3C//DTD SVG 1.1//EN"
 "http://www.w3.org/Graphics/SVG/1.1/DTD/svg11.dtd">
<!-- Generated by graphviz version 6.0.1 (20220911.1526)
 -->
<!-- Title: CChordIf::~CChordIf Pages: 1 -->
<svg width="493pt" height="151pt"
 viewBox="0.00 0.00 493.00 151.00" xmlns="http://www.w3.org/2000/svg" xmlns:xlink="http://www.w3.org/1999/xlink">
<g id="graph0" class="graph" transform="scale(1 1) rotate(0) translate(4 147)">
<title>CChordIf::~CChordIf</title>
<!-- Node1 -->
<g id="node1" class="node">
<title>Node1</title>
<g id="a_node1"><a xlink:title=" ">
<polygon fill="#999999" stroke="#666666" points="103,-78 0,-78 0,-59 103,-59 103,-78"/>
<text text-anchor="middle" x="51.5" y="-66" font-family="Helvetica,sans-Serif" font-size="10.00">CChordIf::~CChordIf</text>
</a>
</g>
</g>
<!-- Node2 -->
<g id="node2" class="node">
<title>Node2</title>
<g id="a_node2"><a xlink:href="a00454.xhtml#a333842dc3ecbbf719eee742f1a4b1845" target="_top" xlink:title="reset configuration">
<polygon fill="white" stroke="#666666" points="225,-78 139,-78 139,-59 225,-59 225,-78"/>
<text text-anchor="middle" x="182" y="-66" font-family="Helvetica,sans-Serif" font-size="10.00">CChordIf::reset_</text>
</a>
</g>
</g>
<!-- Node1&#45;&gt;Node2 -->
<g id="edge1" class="edge">
<title>Node1&#45;&gt;Node2</title>
<path fill="none" stroke="#63b8ff" d="M103.29,-68.5C111.67,-68.5 120.36,-68.5 128.78,-68.5"/>
<polygon fill="#63b8ff" stroke="#63b8ff" points="128.86,-72 138.86,-68.5 128.86,-65 128.86,-72"/>
</g>
<!-- Node3 -->
<g id="node3" class="node">
<title>Node3</title>
<g id="a_node3"><a xlink:href="a00542.xhtml#a13d2bd6e36210dde0c64d188c1266b88" target="_top" xlink:title=" ">
<polygon fill="white" stroke="#666666" points="376,-143 261,-143 261,-124 376,-124 376,-143"/>
<text text-anchor="middle" x="318.5" y="-131" font-family="Helvetica,sans-Serif" font-size="10.00">CBlockAudioIf::destroy</text>
</a>
</g>
</g>
<!-- Node2&#45;&gt;Node3 -->
<g id="edge2" class="edge">
<title>Node2&#45;&gt;Node3</title>
<path fill="none" stroke="#63b8ff" d="M197.17,-78.08C212.44,-88.11 237.69,-103.85 261,-114.5 265.7,-116.65 270.72,-118.68 275.76,-120.57"/>
<polygon fill="#63b8ff" stroke="#63b8ff" points="274.78,-123.93 285.37,-123.99 277.13,-117.34 274.78,-123.93"/>
</g>
<!-- Node4 -->
<g id="node4" class="node">
<title>Node4</title>
<g id="a_node4"><a xlink:href="a00458.xhtml#afa15c2f57c2552592541337926473a3d" target="_top" xlink:title=" ">
<polygon fill="white" stroke="#666666" points="372,-105.5 265,-105.5 265,-75.5 372,-75.5 372,-105.5"/>
<text text-anchor="start" x="273" y="-93.5" font-family="Helvetica,sans-Serif" font-size="10.00">CChordFromBlockIf::</text>
<text text-anchor="middle" x="318.5" y="-82.5" font-family="Helvetica,sans-Serif" font-size="10.00">destroy</text>
</a>
</g>
</g>
<!-- Node2&#45;&gt;Node4 -->
<g id="edge3" class="edge">
<title>Node2&#45;&gt;Node4</title>
<path fill="none" stroke="#63b8ff" d="M225.19,-75.4C234.55,-76.93 244.66,-78.59 254.65,-80.22"/>
<polygon fill="#63b8ff" stroke="#63b8ff" points="254.13,-83.68 264.56,-81.84 255.26,-76.77 254.13,-83.68"/>
</g>
<!-- Node5 -->
<g id="node5" class="node">
<title>Node5</title>
<g id="a_node5"><a xlink:href="a00502.xhtml#aa86bdb0c663d4d52f2765793756f8737" target="_top" xlink:title=" ">
<polygon fill="white" stroke="#666666" points="485,-38 412,-38 412,-19 485,-19 485,-38"/>
<text text-anchor="middle" x="448.5" y="-26" font-family="Helvetica,sans-Serif" font-size="10.00">CVector::free</text>
</a>
</g>
</g>
<!-- Node2&#45;&gt;Node5 -->
<g id="edge4" class="edge">
<title>Node2&#45;&gt;Node5</title>
<path fill="none" stroke="#63b8ff" d="M225.2,-62.12C273.41,-54.83 352,-42.94 401.67,-35.43"/>
<polygon fill="#63b8ff" stroke="#63b8ff" points="402.44,-38.85 411.81,-33.9 401.4,-31.93 402.44,-38.85"/>
</g>
<!-- Node6 -->
<g id="node6" class="node">
<title>Node6</title>
<g id="a_node6"><a xlink:href="a00486.xhtml#a591097c6b1935c4d6273b3445f8f552b" target="_top" xlink:title=" ">
<polygon fill="white" stroke="#666666" points="354,-19 283,-19 283,0 354,0 354,-19"/>
<text text-anchor="middle" x="318.5" y="-7" font-family="Helvetica,sans-Serif" font-size="10.00">CMatrix::free</text>
</a>
</g>
</g>
<!-- Node2&#45;&gt;Node6 -->
<g id="edge5" class="edge">
<title>Node2&#45;&gt;Node6</title>
<path fill="none" stroke="#63b8ff" d="M204.14,-58.88C219.8,-51.78 241.69,-41.93 261,-33.5 268.85,-30.07 277.33,-26.43 285.28,-23.05"/>
<polygon fill="#63b8ff" stroke="#63b8ff" points="286.8,-26.21 294.64,-19.09 284.06,-19.77 286.8,-26.21"/>
</g>
<!-- Node6&#45;&gt;Node5 -->
<g id="edge6" class="edge">
<title>Node6&#45;&gt;Node5</title>
<path fill="none" stroke="#63b8ff" d="M354.14,-14.64C368.84,-16.82 386.17,-19.4 401.89,-21.73"/>
<polygon fill="#63b8ff" stroke="#63b8ff" points="401.54,-25.22 411.94,-23.22 402.56,-18.29 401.54,-25.22"/>
</g>
</g>
</svg>
