<?xml version="1.0" encoding="UTF-8" standalone="no"?>
<!DOCTYPE svg PUBLIC "-//W3C//DTD SVG 1.1//EN"
 "http://www.w3.org/Graphics/SVG/1.1/DTD/svg11.dtd">
<!-- Generated by graphviz version 4.0.0 (20220602.1335)
 -->
<!-- Title: CSynthesis::genNoise Pages: 1 -->
<!--zoomable 142 -->
<svg id="main" version="1.1" xmlns="http://www.w3.org/2000/svg" xmlns:xlink="http://www.w3.org/1999/xlink" xml:space="preserve" onload="init(evt)">
<style type="text/css"><![CDATA[
.edge:hover path { stroke: red; }
.edge:hover polygon { stroke: red; fill: red; }
]]></style>
<script type="text/javascript"><![CDATA[
var edges = document.getElementsByTagName('g');
if (edges && edges.length) {
  for (var i=0;i<edges.length;i++) {
    if (edges[i].id.substr(0,4)=='edge') {
      edges[i].setAttribute('class','edge');
    }
  }
}
]]></script>
        <defs>
                <circle id="rim" cx="0" cy="0" r="7"/>
                <circle id="rim2" cx="0" cy="0" r="3.5"/>
                <g id="zoomPlus">
                        <use xlink:href="#rim" fill="#404040">
                                <set attributeName="fill" to="#808080" begin="zoomplus.mouseover" end="zoomplus.mouseout"/>
                        </use>
                        <path d="M-4,0h8M0,-4v8" fill="none" stroke="white" stroke-width="1.5" pointer-events="none"/>
                </g>
                <g id="zoomMin">
                        <use xlink:href="#rim" fill="#404040">
                                <set attributeName="fill" to="#808080" begin="zoomminus.mouseover" end="zoomminus.mouseout"/>
                        </use>
                        <path d="M-4,0h8" fill="none" stroke="white" stroke-width="1.5" pointer-events="none"/>
                </g>
                <g id="dirArrow">
                        <path fill="none" stroke="white" stroke-width="1.5" d="M0,-3.0v7 M-2.5,-0.5L0,-3.0L2.5,-0.5"/>
                </g>
               <g id="resetDef">
                       <use xlink:href="#rim2" fill="#404040">
                               <set attributeName="fill" to="#808080" begin="reset.mouseover" end="reset.mouseout"/>
                       </use>
               </g>
        </defs>

<script type="text/javascript">
var viewWidth = 684;
var viewHeight = 142;
var sectionId = 'dynsection-1';
</script>
<script xlink:href="svgpan.js"/>
<svg id="graph" class="graph">
<g id="viewport">
<title>CSynthesis::genNoise</title>
<polygon fill="white" stroke="transparent" points="-4,4 -4,-138 680,-138 680,4 -4,4"/>
<!-- Node1 -->
<g id="node1" class="node">
<title>Node1</title>
<g id="a_node1"><a xlink:title=" ">
<polygon fill="#bfbfbf" stroke="black" points="564,-57.5 564,-76.5 676,-76.5 676,-57.5 564,-57.5"/>
<text text-anchor="middle" x="620" y="-64.5" font-family="Helvetica,sans-Serif" font-size="10.00">CSynthesis::genNoise</text>
</a>
</g>
</g>
<!-- Node2 -->
<g id="node2" class="node">
<title>Node2</title>
<g id="a_node2"><a xlink:href="a00603.xhtml#a9fae895548f9c558d0360cb033e89cc6" target="_top" xlink:title=" ">
<polygon fill="white" stroke="black" points="382,-114.5 382,-133.5 524,-133.5 524,-114.5 382,-114.5"/>
<text text-anchor="middle" x="453" y="-121.5" font-family="Helvetica,sans-Serif" font-size="10.00">CKmeans::initClusterMeans_</text>
</a>
</g>
</g>
<!-- Node1&#45;&gt;Node2 -->
<g id="edge1" class="edge">
<title>Node1&#45;&gt;Node2</title>
<path fill="none" stroke="midnightblue" d="M589.19,-80.73C571.62,-88.5 548.82,-98.02 528,-105 517.56,-108.5 506.11,-111.73 495.41,-114.49"/>
<polygon fill="midnightblue" stroke="midnightblue" points="590.67,-83.9 598.36,-76.62 587.81,-77.51 590.67,-83.9"/>
</g>
<!-- Node4 -->
<g id="node4" class="node">
<title>Node4</title>
<g id="a_node4"><a xlink:href="a00559.xhtml#a7c640b683a4d6999fa09157d60676a52" target="_top" xlink:title=" ">
<polygon fill="white" stroke="black" points="406.5,-38.5 406.5,-57.5 499.5,-57.5 499.5,-38.5 406.5,-38.5"/>
<text text-anchor="middle" x="453" y="-45.5" font-family="Helvetica,sans-Serif" font-size="10.00">CGmm::initState_</text>
</a>
</g>
</g>
<!-- Node1&#45;&gt;Node4 -->
<g id="edge3" class="edge">
<title>Node1&#45;&gt;Node4</title>
<path fill="none" stroke="midnightblue" d="M553.44,-59.45C535.42,-57.38 516.28,-55.17 499.65,-53.26"/>
<polygon fill="midnightblue" stroke="midnightblue" points="553.26,-62.95 563.6,-60.62 554.06,-56 553.26,-62.95"/>
</g>
<!-- Node6 -->
<g id="node6" class="node">
<title>Node6</title>
<g id="a_node6"><a xlink:href="a00603.xhtml#abb4a98131b43f0709329eec3f2d3559a" target="_top" xlink:title=" ">
<polygon fill="white" stroke="black" points="378,-76.5 378,-95.5 528,-95.5 528,-76.5 378,-76.5"/>
<text text-anchor="middle" x="453" y="-83.5" font-family="Helvetica,sans-Serif" font-size="10.00">CKmeans::reinitClusterMeans_</text>
</a>
</g>
</g>
<!-- Node1&#45;&gt;Node6 -->
<g id="edge5" class="edge">
<title>Node1&#45;&gt;Node6</title>
<path fill="none" stroke="midnightblue" d="M553.52,-74.54C545.14,-75.5 536.52,-76.5 528.01,-77.48"/>
<polygon fill="midnightblue" stroke="midnightblue" points="554.06,-78 563.6,-73.38 553.26,-71.05 554.06,-78"/>
</g>
<!-- Node7 -->
<g id="node7" class="node">
<title>Node7</title>
<g id="a_node7"><a xlink:href="a00495.xhtml#af7cbe6ef61f8d3acc5d853af9ad58d48" target="_top" xlink:title=" ">
<polygon fill="white" stroke="black" points="407,-0.5 407,-19.5 499,-19.5 499,-0.5 407,-0.5"/>
<text text-anchor="middle" x="453" y="-7.5" font-family="Helvetica,sans-Serif" font-size="10.00">CVector::setRand</text>
</a>
</g>
</g>
<!-- Node1&#45;&gt;Node7 -->
<g id="edge7" class="edge">
<title>Node1&#45;&gt;Node7</title>
<path fill="none" stroke="midnightblue" d="M589.19,-53.27C571.62,-45.5 548.82,-35.98 528,-29 517.56,-25.5 506.11,-22.27 495.41,-19.51"/>
<polygon fill="midnightblue" stroke="midnightblue" points="587.81,-56.49 598.36,-57.38 590.67,-50.1 587.81,-56.49"/>
</g>
<!-- Node3 -->
<g id="node3" class="node">
<title>Node3</title>
<g id="a_node3"><a xlink:href="a00603.xhtml#ac9199a37d06a0d589118941f80f3f774" target="_top" xlink:title=" ">
<polygon fill="white" stroke="black" points="218,-95.5 218,-114.5 342,-114.5 342,-95.5 218,-95.5"/>
<text text-anchor="middle" x="280" y="-102.5" font-family="Helvetica,sans-Serif" font-size="10.00">CKmeans::compKmeans</text>
</a>
</g>
</g>
<!-- Node2&#45;&gt;Node3 -->
<g id="edge2" class="edge">
<title>Node2&#45;&gt;Node3</title>
<path fill="none" stroke="midnightblue" d="M371.99,-115.11C361.97,-114 351.84,-112.87 342.18,-111.8"/>
<polygon fill="midnightblue" stroke="midnightblue" points="371.63,-118.59 381.95,-116.22 372.4,-111.63 371.63,-118.59"/>
</g>
<!-- Node5 -->
<g id="node5" class="node">
<title>Node5</title>
<g id="a_node5"><a xlink:href="a00559.xhtml#a4089671259acdd3b3faf6fc8010e206f" target="_top" xlink:title=" ">
<polygon fill="white" stroke="black" points="230,-38.5 230,-57.5 330,-57.5 330,-38.5 230,-38.5"/>
<text text-anchor="middle" x="280" y="-45.5" font-family="Helvetica,sans-Serif" font-size="10.00">CGmm::compGmm</text>
</a>
</g>
</g>
<!-- Node4&#45;&gt;Node5 -->
<g id="edge4" class="edge">
<title>Node4&#45;&gt;Node5</title>
<path fill="none" stroke="midnightblue" d="M396.01,-48C374.79,-48 350.8,-48 330.25,-48"/>
<polygon fill="midnightblue" stroke="midnightblue" points="396.18,-51.5 406.18,-48 396.18,-44.5 396.18,-51.5"/>
</g>
<!-- Node6&#45;&gt;Node3 -->
<g id="edge6" class="edge">
<title>Node6&#45;&gt;Node3</title>
<path fill="none" stroke="midnightblue" d="M367.81,-95.35C359.11,-96.32 350.4,-97.29 342.02,-98.22"/>
<polygon fill="midnightblue" stroke="midnightblue" points="368.44,-98.81 377.99,-94.22 367.67,-91.85 368.44,-98.81"/>
</g>
<!-- Node8 -->
<g id="node8" class="node">
<title>Node8</title>
<g id="a_node8"><a xlink:href="a00479.xhtml#aa95c84e6a291f19c70f2cc2ea7e1cd48" target="_top" xlink:title=" ">
<polygon fill="white" stroke="black" points="235,-0.5 235,-19.5 325,-19.5 325,-0.5 235,-0.5"/>
<text text-anchor="middle" x="280" y="-7.5" font-family="Helvetica,sans-Serif" font-size="10.00">CMatrix::setRand</text>
</a>
</g>
</g>
<!-- Node7&#45;&gt;Node8 -->
<g id="edge8" class="edge">
<title>Node7&#45;&gt;Node8</title>
<path fill="none" stroke="midnightblue" d="M396.59,-10C373.44,-10 346.91,-10 325.11,-10"/>
<polygon fill="midnightblue" stroke="midnightblue" points="396.62,-13.5 406.62,-10 396.62,-6.5 396.62,-13.5"/>
</g>
<!-- Node9 -->
<g id="node9" class="node">
<title>Node9</title>
<g id="a_node9"><a xlink:href="a00575.xhtml#a4f006a4fc88addf89d0e572d08e48680" target="_top" xlink:title=" ">
<polygon fill="white" stroke="black" points="95,-0.5 95,-19.5 182,-19.5 182,-0.5 95,-0.5"/>
<text text-anchor="middle" x="138.5" y="-7.5" font-family="Helvetica,sans-Serif" font-size="10.00">CNmfResult::init</text>
</a>
</g>
</g>
<!-- Node8&#45;&gt;Node9 -->
<g id="edge9" class="edge">
<title>Node8&#45;&gt;Node9</title>
<path fill="none" stroke="midnightblue" d="M224.81,-10C210.75,-10 195.79,-10 182.4,-10"/>
<polygon fill="midnightblue" stroke="midnightblue" points="224.86,-13.5 234.86,-10 224.86,-6.5 224.86,-13.5"/>
</g>
<!-- Node10 -->
<g id="node10" class="node">
<title>Node10</title>
<g id="a_node10"><a xlink:href="a00579.xhtml#aec1d45b63855c114d480d1a0532dc3e5" target="_top" xlink:title=" ">
<polygon fill="white" stroke="black" points="0,-0.5 0,-19.5 59,-19.5 59,-0.5 0,-0.5"/>
<text text-anchor="middle" x="29.5" y="-7.5" font-family="Helvetica,sans-Serif" font-size="10.00">CNmf::init</text>
</a>
</g>
</g>
<!-- Node9&#45;&gt;Node10 -->
<g id="edge10" class="edge">
<title>Node9&#45;&gt;Node10</title>
<path fill="none" stroke="midnightblue" d="M84.65,-10C75.86,-10 67.04,-10 59.15,-10"/>
<polygon fill="midnightblue" stroke="midnightblue" points="84.9,-13.5 94.9,-10 84.9,-6.5 84.9,-13.5"/>
</g>
</g>
</svg>
        <g id="navigator" transform="translate(0 0)" fill="#404254">
                <rect fill="#f2f5e9" fill-opacity="0.5" stroke="#606060" stroke-width=".5" x="0" y="0" width="60" height="60"/>
                <use id="zoomplus" xlink:href="#zoomPlus" x="17" y="9" onmousedown="handleZoom(evt,'in')"/>
                <use id="zoomminus" xlink:href="#zoomMin" x="42" y="9" onmousedown="handleZoom(evt,'out')"/>
                <use id="reset" xlink:href="#resetDef" x="30" y="36" onmousedown="handleReset()"/>
                <g id="arrowUp" xlink:href="#dirArrow" transform="translate(30 24)" onmousedown="handlePan(0,-1)">
                  <use xlink:href="#rim" fill="#404040">
                        <set attributeName="fill" to="#808080" begin="arrowUp.mouseover" end="arrowUp.mouseout"/>
                  </use>
                  <path fill="none" stroke="white" stroke-width="1.5" d="M0,-3.0v7 M-2.5,-0.5L0,-3.0L2.5,-0.5"/>
                </g>
                <g id="arrowRight" xlink:href="#dirArrow" transform="rotate(90) translate(36 -43)" onmousedown="handlePan(1,0)">
                  <use xlink:href="#rim" fill="#404040">
                        <set attributeName="fill" to="#808080" begin="arrowRight.mouseover" end="arrowRight.mouseout"/>
                  </use>
                  <path fill="none" stroke="white" stroke-width="1.5" d="M0,-3.0v7 M-2.5,-0.5L0,-3.0L2.5,-0.5"/>
                </g>
                <g id="arrowDown" xlink:href="#dirArrow" transform="rotate(180) translate(-30 -48)" onmousedown="handlePan(0,1)">
                  <use xlink:href="#rim" fill="#404040">
                        <set attributeName="fill" to="#808080" begin="arrowDown.mouseover" end="arrowDown.mouseout"/>
                  </use>
                  <path fill="none" stroke="white" stroke-width="1.5" d="M0,-3.0v7 M-2.5,-0.5L0,-3.0L2.5,-0.5"/>
                </g>
                <g id="arrowLeft" xlink:href="#dirArrow" transform="rotate(270) translate(-36 17)" onmousedown="handlePan(-1,0)">
                  <use xlink:href="#rim" fill="#404040">
                        <set attributeName="fill" to="#808080" begin="arrowLeft.mouseover" end="arrowLeft.mouseout"/>
                  </use>
                  <path fill="none" stroke="white" stroke-width="1.5" d="M0,-3.0v7 M-2.5,-0.5L0,-3.0L2.5,-0.5"/>
                </g>
        </g>
        <svg viewBox="0 0 15 15" width="100%" height="30px" preserveAspectRatio="xMaxYMin meet">
         <g id="arrow_out" transform="scale(0.3 0.3)">
          <a xlink:href="a00487_a67eaa8b4b86a5c507f1fe0f1b9c92ce6_icgraph_org.svg" target="_base">
           <rect id="button" ry="5" rx="5" y="6" x="6" height="38" width="38"
                fill="#f2f5e9" fill-opacity="0.5" stroke="#606060" stroke-width="1.0"/>
           <path id="arrow"
             d="M 11.500037,31.436501 C 11.940474,20.09759 22.043105,11.32322 32.158766,21.979434 L 37.068811,17.246167 C 37.068811,17.246167 37.088388,32 37.088388,32 L 22.160133,31.978069 C 22.160133,31.978069 26.997745,27.140456 26.997745,27.140456 C 18.528582,18.264221 13.291696,25.230495 11.500037,31.436501 z"
             style="fill:#404040;"/>
          </a>
         </g>
        </svg>
</svg>
