<?xml version="1.0" encoding="UTF-8" standalone="no"?>
<!DOCTYPE svg PUBLIC "-//W3C//DTD SVG 1.1//EN"
 "http://www.w3.org/Graphics/SVG/1.1/DTD/svg11.dtd">
<!-- Generated by graphviz version 6.0.1 (20220911.1526)
 -->
<!-- Title: CFft::conjugate_I Pages: 1 -->
<svg width="471pt" height="210pt"
 viewBox="0.00 0.00 471.00 209.50" xmlns="http://www.w3.org/2000/svg" xmlns:xlink="http://www.w3.org/1999/xlink">
<g id="graph0" class="graph" transform="scale(1 1) rotate(0) translate(4 205.5)">
<title>CFft::conjugate_I</title>
<!-- Node1 -->
<g id="node1" class="node">
<title>Node1</title>
<g id="a_node1"><a xlink:title=" ">
<polygon fill="#999999" stroke="#666666" points="463,-115.5 373,-115.5 373,-96.5 463,-96.5 463,-115.5"/>
<text text-anchor="middle" x="418" y="-103.5" font-family="Helvetica,sans-Serif" font-size="10.00">CFft::conjugate_I</text>
</a>
</g>
</g>
<!-- Node2 -->
<g id="node2" class="node">
<title>Node2</title>
<g id="a_node2"><a xlink:href="a00546.xhtml#a63f5ef7a9ef502fb8dd393824265d967" target="_top" xlink:title=" ">
<polygon fill="white" stroke="#666666" points="337,-115.5 255,-115.5 255,-96.5 337,-96.5 337,-115.5"/>
<text text-anchor="middle" x="296" y="-103.5" font-family="Helvetica,sans-Serif" font-size="10.00">CCcf::compCcf</text>
</a>
</g>
</g>
<!-- Node1&#45;&gt;Node2 -->
<g id="edge1" class="edge">
<title>Node1&#45;&gt;Node2</title>
<path fill="none" stroke="#63b8ff" d="M362.9,-106C354.19,-106 345.32,-106 337.02,-106"/>
<polygon fill="#63b8ff" stroke="#63b8ff" points="363,-109.5 373,-106 363,-102.5 363,-109.5"/>
</g>
<!-- Node3 -->
<g id="node3" class="node">
<title>Node3</title>
<g id="a_node3"><a xlink:href="a00450.xhtml#a58a9a3d685f448ced2e843a60028e472" target="_top" xlink:title=" ">
<polygon fill="white" stroke="#666666" points="219,-201.5 74,-201.5 74,-182.5 219,-182.5 219,-201.5"/>
<text text-anchor="middle" x="146.5" y="-189.5" font-family="Helvetica,sans-Serif" font-size="10.00">CBeatHistoIf::compBeatHisto</text>
</a>
</g>
</g>
<!-- Node2&#45;&gt;Node3 -->
<g id="edge2" class="edge">
<title>Node2&#45;&gt;Node3</title>
<path fill="none" stroke="#63b8ff" d="M279.67,-123.48C265.41,-138.7 242.82,-160.26 219,-173 211.86,-176.82 203.91,-179.9 195.97,-182.39"/>
<polygon fill="#63b8ff" stroke="#63b8ff" points="282.55,-125.52 286.7,-115.77 277.37,-120.81 282.55,-125.52"/>
</g>
<!-- Node5 -->
<g id="node5" class="node">
<title>Node5</title>
<g id="a_node5"><a xlink:href="a00378.xhtml#a91b4a12a8ddae9767459b508ee060a47" target="_top" xlink:title=" ">
<polygon fill="white" stroke="#666666" points="197,-164 96,-164 96,-134 197,-134 197,-164"/>
<text text-anchor="start" x="104" y="-152" font-family="Helvetica,sans-Serif" font-size="10.00">CPitchSpectralAcf::</text>
<text text-anchor="middle" x="146.5" y="-141" font-family="Helvetica,sans-Serif" font-size="10.00">compF0</text>
</a>
</g>
</g>
<!-- Node2&#45;&gt;Node5 -->
<g id="edge4" class="edge">
<title>Node2&#45;&gt;Node5</title>
<path fill="none" stroke="#63b8ff" d="M252.47,-118.4C235.22,-123.43 215.18,-129.27 197.25,-134.5"/>
<polygon fill="#63b8ff" stroke="#63b8ff" points="253.64,-121.7 262.26,-115.54 251.69,-114.98 253.64,-121.7"/>
</g>
<!-- Node6 -->
<g id="node6" class="node">
<title>Node6</title>
<g id="a_node6"><a xlink:href="a00386.xhtml#af5dc0e4af11f3487eb9ff7df02ca99ad" target="_top" xlink:title=" ">
<polygon fill="white" stroke="#666666" points="207.5,-115.5 85.5,-115.5 85.5,-96.5 207.5,-96.5 207.5,-115.5"/>
<text text-anchor="middle" x="146.5" y="-103.5" font-family="Helvetica,sans-Serif" font-size="10.00">CPitchTimeAcf::compF0</text>
</a>
</g>
</g>
<!-- Node2&#45;&gt;Node6 -->
<g id="edge5" class="edge">
<title>Node2&#45;&gt;Node6</title>
<path fill="none" stroke="#63b8ff" d="M244.54,-106C232.68,-106 219.92,-106 207.68,-106"/>
<polygon fill="#63b8ff" stroke="#63b8ff" points="244.7,-109.5 254.69,-106 244.69,-102.5 244.7,-109.5"/>
</g>
<!-- Node7 -->
<g id="node7" class="node">
<title>Node7</title>
<g id="a_node7"><a xlink:href="a00390.xhtml#a371af164926ee54ebfd298fa4dca8842" target="_top" xlink:title=" ">
<polygon fill="white" stroke="#666666" points="198,-78 95,-78 95,-48 198,-48 198,-78"/>
<text text-anchor="start" x="103" y="-66" font-family="Helvetica,sans-Serif" font-size="10.00">CPitchTimeAuditory</text>
<text text-anchor="middle" x="146.5" y="-55" font-family="Helvetica,sans-Serif" font-size="10.00">::compF0</text>
</a>
</g>
</g>
<!-- Node2&#45;&gt;Node7 -->
<g id="edge6" class="edge">
<title>Node2&#45;&gt;Node7</title>
<path fill="none" stroke="#63b8ff" d="M252.6,-93.64C235.6,-88.68 215.86,-82.93 198.11,-77.75"/>
<polygon fill="#63b8ff" stroke="#63b8ff" points="251.69,-97.02 262.26,-96.46 253.64,-90.3 251.69,-97.02"/>
</g>
<!-- Node8 -->
<g id="node8" class="node">
<title>Node8</title>
<g id="a_node8"><a xlink:href="a00350.xhtml#a9edc446602d49a15cf4c978289e2094a" target="_top" xlink:title=" ">
<polygon fill="white" stroke="#666666" points="202,-30 91,-30 91,0 202,0 202,-30"/>
<text text-anchor="start" x="99" y="-18" font-family="Helvetica,sans-Serif" font-size="10.00">CFeatureTimeMaxAcf</text>
<text text-anchor="middle" x="146.5" y="-7" font-family="Helvetica,sans-Serif" font-size="10.00">::compFeature</text>
</a>
</g>
</g>
<!-- Node2&#45;&gt;Node8 -->
<g id="edge7" class="edge">
<title>Node2&#45;&gt;Node8</title>
<path fill="none" stroke="#63b8ff" d="M279.47,-88.88C265.07,-73.91 242.4,-52.5 219,-39 213.22,-35.66 206.9,-32.7 200.49,-30.1"/>
<polygon fill="#63b8ff" stroke="#63b8ff" points="277.18,-91.55 286.57,-96.45 282.28,-86.76 277.18,-91.55"/>
</g>
<!-- Node4 -->
<g id="node4" class="node">
<title>Node4</title>
<g id="a_node4"><a xlink:href="a00011.xhtml#a0ddf1224851353fc92bfbff6f499fa97" target="_top" xlink:title=" ">
<polygon fill="white" stroke="#666666" points="38,-201.5 0,-201.5 0,-182.5 38,-182.5 38,-201.5"/>
<text text-anchor="middle" x="19" y="-189.5" font-family="Helvetica,sans-Serif" font-size="10.00">main</text>
</a>
</g>
</g>
<!-- Node3&#45;&gt;Node4 -->
<g id="edge3" class="edge">
<title>Node3&#45;&gt;Node4</title>
<path fill="none" stroke="#63b8ff" d="M63.88,-192C54.4,-192 45.55,-192 38.32,-192"/>
<polygon fill="#63b8ff" stroke="#63b8ff" points="63.95,-195.5 73.95,-192 63.95,-188.5 63.95,-195.5"/>
</g>
</g>
</svg>
