<?xml version="1.0" encoding="UTF-8" standalone="no"?>
<!DOCTYPE svg PUBLIC "-//W3C//DTD SVG 1.1//EN"
 "http://www.w3.org/Graphics/SVG/1.1/DTD/svg11.dtd">
<!-- Generated by graphviz version 6.0.1 (20220911.1526)
 -->
<!-- Title: CFft::getLength Pages: 1 -->
<!--zoomable 738 -->
<svg id="main" version="1.1" xmlns="http://www.w3.org/2000/svg" xmlns:xlink="http://www.w3.org/1999/xlink" xml:space="preserve" onload="init(evt)">
<style type="text/css"><![CDATA[
.edge:hover path { stroke: red; }
.edge:hover polygon { stroke: red; fill: red; }
]]></style>
<script type="text/javascript"><![CDATA[
var edges = document.getElementsByTagName('g');
if (edges && edges.length) {
  for (var i=0;i<edges.length;i++) {
    if (edges[i].id.substr(0,4)=='edge') {
      edges[i].setAttribute('class','edge');
    }
  }
}
]]></script>
        <defs>
                <circle id="rim" cx="0" cy="0" r="7"/>
                <circle id="rim2" cx="0" cy="0" r="3.5"/>
                <g id="zoomPlus">
                        <use xlink:href="#rim" fill="#404040">
                                <set attributeName="fill" to="#808080" begin="zoomplus.mouseover" end="zoomplus.mouseout"/>
                        </use>
                        <path d="M-4,0h8M0,-4v8" fill="none" stroke="white" stroke-width="1.5" pointer-events="none"/>
                </g>
                <g id="zoomMin">
                        <use xlink:href="#rim" fill="#404040">
                                <set attributeName="fill" to="#808080" begin="zoomminus.mouseover" end="zoomminus.mouseout"/>
                        </use>
                        <path d="M-4,0h8" fill="none" stroke="white" stroke-width="1.5" pointer-events="none"/>
                </g>
                <g id="dirArrow">
                        <path fill="none" stroke="white" stroke-width="1.5" d="M0,-3.0v7 M-2.5,-0.5L0,-3.0L2.5,-0.5"/>
                </g>
               <g id="resetDef">
                       <use xlink:href="#rim2" fill="#404040">
                               <set attributeName="fill" to="#808080" begin="reset.mouseover" end="reset.mouseout"/>
                       </use>
               </g>
        </defs>

<script type="text/javascript">
var viewWidth = 773;
var viewHeight = 738;
var sectionId = 'dynsection-16';
</script>
<script xlink:href="svgpan.js"/>
<svg id="graph" class="graph">
<g id="viewport">
<title>CFft::getLength</title>
<!-- Node1 -->
<g id="node1" class="node">
<title>Node1</title>
<g id="a_node1"><a xlink:title=" ">
<polygon fill="#999999" stroke="#666666" points="765,-478.5 682,-478.5 682,-459.5 765,-459.5 765,-478.5"/>
<text text-anchor="middle" x="723.5" y="-466.5" font-family="Helvetica,sans-Serif" font-size="10.00">CFft::getLength</text>
</a>
</g>
</g>
<!-- Node2 -->
<g id="node2" class="node">
<title>Node2</title>
<g id="a_node2"><a xlink:href="a00574.xhtml#a4b3af2ff4c095211a3c89701a6fdb9db" target="_top" xlink:title=" ">
<polygon fill="white" stroke="#666666" points="614.5,-729.5 507.5,-729.5 507.5,-710.5 614.5,-710.5 614.5,-729.5"/>
<text text-anchor="middle" x="561" y="-717.5" font-family="Helvetica,sans-Serif" font-size="10.00">CInstFreq::CInstFreq</text>
</a>
</g>
</g>
<!-- Node1&#45;&gt;Node2 -->
<g id="edge1" class="edge">
<title>Node1&#45;&gt;Node2</title>
<path fill="none" stroke="#63b8ff" d="M722.22,-489.03C720.45,-534.28 709.49,-644.91 646,-702 637.35,-709.78 626.17,-714.49 614.81,-717.28"/>
<polygon fill="#63b8ff" stroke="#63b8ff" points="725.73,-488.87 722.51,-478.78 718.73,-488.68 725.73,-488.87"/>
</g>
<!-- Node3 -->
<g id="node3" class="node">
<title>Node3</title>
<g id="a_node3"><a xlink:href="a00530.xhtml#ae89af275cdd54029bbf7f0f25ddf7945" target="_top" xlink:title=" ">
<polygon fill="white" stroke="#666666" points="440,-543.5 255,-543.5 255,-524.5 440,-524.5 440,-543.5"/>
<text text-anchor="middle" x="347.5" y="-531.5" font-family="Helvetica,sans-Serif" font-size="10.00">CSpectrogramIf::compMelSpectrogram</text>
</a>
</g>
</g>
<!-- Node1&#45;&gt;Node3 -->
<g id="edge2" class="edge">
<title>Node1&#45;&gt;Node3</title>
<path fill="none" stroke="#63b8ff" d="M702.09,-484.99C687.39,-495.55 666.58,-508.58 646,-515 579.18,-535.86 499.93,-539.98 440.03,-539.23"/>
<polygon fill="#63b8ff" stroke="#63b8ff" points="704.46,-487.59 710.41,-478.82 700.29,-481.97 704.46,-487.59"/>
</g>
<!-- Node5 -->
<g id="node5" class="node">
<title>Node5</title>
<g id="a_node5"><a xlink:href="a00530.xhtml#ae041a770ec2b092761d9a88cc87946bb" target="_top" xlink:title=" ">
<polygon fill="white" stroke="#666666" points="645.5,-692.5 476.5,-692.5 476.5,-673.5 645.5,-673.5 645.5,-692.5"/>
<text text-anchor="middle" x="561" y="-680.5" font-family="Helvetica,sans-Serif" font-size="10.00">CSpectrogramIf::compSpectrogram</text>
</a>
</g>
</g>
<!-- Node1&#45;&gt;Node5 -->
<g id="edge4" class="edge">
<title>Node1&#45;&gt;Node5</title>
<path fill="none" stroke="#63b8ff" d="M720.86,-488.55C716.42,-528.27 700.56,-618.59 646,-665 642.02,-668.38 637.56,-671.18 632.83,-673.48"/>
<polygon fill="#63b8ff" stroke="#63b8ff" points="724.34,-488.85 721.84,-478.56 717.38,-488.16 724.34,-488.85"/>
</g>
<!-- Node7 -->
<g id="node7" class="node">
<title>Node7</title>
<g id="a_node7"><a xlink:href="a00454.xhtml#ab7ff18d1911b7a8792536daad8cf0dd9" target="_top" xlink:title=" ">
<polygon fill="white" stroke="#666666" points="642.5,-655.5 479.5,-655.5 479.5,-636.5 642.5,-636.5 642.5,-655.5"/>
<text text-anchor="middle" x="561" y="-643.5" font-family="Helvetica,sans-Serif" font-size="10.00">CChordIf::computeMagSpectrum_</text>
</a>
</g>
</g>
<!-- Node1&#45;&gt;Node7 -->
<g id="edge6" class="edge">
<title>Node1&#45;&gt;Node7</title>
<path fill="none" stroke="#63b8ff" d="M718.83,-488.79C711.44,-522.84 691.42,-592.26 646,-628 641.78,-631.32 637.09,-634.06 632.14,-636.32"/>
<polygon fill="#63b8ff" stroke="#63b8ff" points="722.32,-489.2 720.87,-478.7 715.46,-487.81 722.32,-489.2"/>
</g>
<!-- Node10 -->
<g id="node10" class="node">
<title>Node10</title>
<g id="a_node10"><a xlink:href="a00466.xhtml#a7aef37fcf40e80cbace42fe663f47bbd" target="_top" xlink:title="compute magnitude spectrum for spectral features">
<polygon fill="white" stroke="#666666" points="646,-618.5 476,-618.5 476,-599.5 646,-599.5 646,-618.5"/>
<text text-anchor="middle" x="561" y="-606.5" font-family="Helvetica,sans-Serif" font-size="10.00">CFeatureIf::computeMagSpectrum_</text>
</a>
</g>
</g>
<!-- Node1&#45;&gt;Node10 -->
<g id="edge9" class="edge">
<title>Node1&#45;&gt;Node10</title>
<path fill="none" stroke="#63b8ff" d="M715.89,-488.41C705.51,-515.8 682.7,-565.3 646,-591 641.11,-594.42 635.7,-597.21 630.05,-599.49"/>
<polygon fill="#63b8ff" stroke="#63b8ff" points="719.26,-489.37 719.37,-478.78 712.68,-486.99 719.26,-489.37"/>
</g>
<!-- Node16 -->
<g id="node16" class="node">
<title>Node16</title>
<g id="a_node16"><a xlink:href="a00514.xhtml#a9018f2beabd03a9b41d90bde402aa227" target="_top" xlink:title=" ">
<polygon fill="white" stroke="#666666" points="646,-581.5 476,-581.5 476,-562.5 646,-562.5 646,-581.5"/>
<text text-anchor="middle" x="561" y="-569.5" font-family="Helvetica,sans-Serif" font-size="10.00">CNoveltyIf::computeMagSpectrum_</text>
</a>
</g>
</g>
<!-- Node1&#45;&gt;Node16 -->
<g id="edge16" class="edge">
<title>Node1&#45;&gt;Node16</title>
<path fill="none" stroke="#63b8ff" d="M709.59,-487.05C695.81,-505.05 672.36,-532.2 646,-548 635.59,-554.24 623.49,-558.92 611.76,-562.41"/>
<polygon fill="#63b8ff" stroke="#63b8ff" points="712.73,-488.7 715.88,-478.59 707.11,-484.53 712.73,-488.7"/>
</g>
<!-- Node21 -->
<g id="node21" class="node">
<title>Node21</title>
<g id="a_node21"><a xlink:href="a00522.xhtml#aa988c75557f8281271467b000a1a1d54" target="_top" xlink:title=" ">
<polygon fill="white" stroke="#666666" points="641,-457.5 481,-457.5 481,-438.5 641,-438.5 641,-457.5"/>
<text text-anchor="middle" x="561" y="-445.5" font-family="Helvetica,sans-Serif" font-size="10.00">CPitchIf::computeMagSpectrum_</text>
</a>
</g>
</g>
<!-- Node1&#45;&gt;Node21 -->
<g id="edge21" class="edge">
<title>Node1&#45;&gt;Node21</title>
<path fill="none" stroke="#63b8ff" d="M671.9,-462.38C660.07,-460.83 647.24,-459.15 634.67,-457.51"/>
<polygon fill="#63b8ff" stroke="#63b8ff" points="671.63,-465.87 682,-463.7 672.54,-458.93 671.63,-465.87"/>
</g>
<!-- Node24 -->
<g id="node24" class="node">
<title>Node24</title>
<g id="a_node24"><a xlink:href="a00554.xhtml#a4811d2eb7c2a5fd5f49b043205865222" target="_top" xlink:title=" ">
<polygon fill="white" stroke="#666666" points="626,-420 496,-420 496,-390 626,-390 626,-420"/>
<text text-anchor="start" x="504" y="-408" font-family="Helvetica,sans-Serif" font-size="10.00">CFingerprint::computeMag</text>
<text text-anchor="middle" x="561" y="-397" font-family="Helvetica,sans-Serif" font-size="10.00">Spectrum_</text>
</a>
</g>
</g>
<!-- Node1&#45;&gt;Node24 -->
<g id="edge24" class="edge">
<title>Node1&#45;&gt;Node24</title>
<path fill="none" stroke="#63b8ff" d="M696.96,-454.5C682.34,-446.58 663.49,-436.99 646,-430 637.1,-426.44 627.49,-423.12 618.07,-420.13"/>
<polygon fill="#63b8ff" stroke="#63b8ff" points="695.45,-457.66 705.9,-459.42 698.82,-451.53 695.45,-457.66"/>
</g>
<!-- Node27 -->
<g id="node27" class="node">
<title>Node27</title>
<g id="a_node27"><a xlink:href="a00530.xhtml#a04d8f71d4562f2a4efc8a8537826d8c3" target="_top" xlink:title=" ">
<polygon fill="white" stroke="#666666" points="624.5,-506 497.5,-506 497.5,-476 624.5,-476 624.5,-506"/>
<text text-anchor="start" x="505.5" y="-494" font-family="Helvetica,sans-Serif" font-size="10.00">CSpectrogramIf::generate</text>
<text text-anchor="middle" x="561" y="-483" font-family="Helvetica,sans-Serif" font-size="10.00">MelFb_</text>
</a>
</g>
</g>
<!-- Node1&#45;&gt;Node27 -->
<g id="edge27" class="edge">
<title>Node1&#45;&gt;Node27</title>
<path fill="none" stroke="#63b8ff" d="M671.91,-475.93C656.93,-477.99 640.33,-480.26 624.68,-482.41"/>
<polygon fill="#63b8ff" stroke="#63b8ff" points="672.57,-479.38 682,-474.55 671.62,-472.44 672.57,-479.38"/>
</g>
<!-- Node29 -->
<g id="node29" class="node">
<title>Node29</title>
<g id="a_node29"><a xlink:href="a00454.xhtml#ad48a5bd574f16b7491b70efb9998935f" target="_top" xlink:title="init configuration">
<polygon fill="white" stroke="#666666" points="599.5,-371.5 522.5,-371.5 522.5,-352.5 599.5,-352.5 599.5,-371.5"/>
<text text-anchor="middle" x="561" y="-359.5" font-family="Helvetica,sans-Serif" font-size="10.00">CChordIf::init_</text>
</a>
</g>
</g>
<!-- Node1&#45;&gt;Node29 -->
<g id="edge30" class="edge">
<title>Node1&#45;&gt;Node29</title>
<path fill="none" stroke="#63b8ff" d="M711.62,-450.64C698.62,-430.36 674.95,-398.31 646,-381 632.14,-372.71 615.02,-368.04 599.87,-365.4"/>
<polygon fill="#63b8ff" stroke="#63b8ff" points="708.73,-452.62 716.97,-459.28 714.68,-448.93 708.73,-452.62"/>
</g>
<!-- Node32 -->
<g id="node32" class="node">
<title>Node32</title>
<g id="a_node32"><a xlink:href="a00554.xhtml#a8a32af7f8df719a995e85273800d028f" target="_top" xlink:title=" ">
<polygon fill="white" stroke="#666666" points="607,-316.5 515,-316.5 515,-297.5 607,-297.5 607,-316.5"/>
<text text-anchor="middle" x="561" y="-304.5" font-family="Helvetica,sans-Serif" font-size="10.00">CFingerprint::init_</text>
</a>
</g>
</g>
<!-- Node1&#45;&gt;Node32 -->
<g id="edge33" class="edge">
<title>Node1&#45;&gt;Node32</title>
<path fill="none" stroke="#63b8ff" d="M715.08,-449.71C703.85,-422.77 680.16,-373.86 646,-344 631.6,-331.42 612.24,-322.5 595.74,-316.58"/>
<polygon fill="#63b8ff" stroke="#63b8ff" points="711.91,-451.2 718.89,-459.18 718.4,-448.59 711.91,-451.2"/>
</g>
<!-- Node34 -->
<g id="node34" class="node">
<title>Node34</title>
<g id="a_node34"><a xlink:href="a00466.xhtml#ab38ca831ee8ae42a8a95e33af4f756ba" target="_top" xlink:title="init configuration">
<polygon fill="white" stroke="#666666" points="603.5,-254.5 518.5,-254.5 518.5,-235.5 603.5,-235.5 603.5,-254.5"/>
<text text-anchor="middle" x="561" y="-242.5" font-family="Helvetica,sans-Serif" font-size="10.00">CFeatureIf::init_</text>
</a>
</g>
</g>
<!-- Node1&#45;&gt;Node34 -->
<g id="edge36" class="edge">
<title>Node1&#45;&gt;Node34</title>
<path fill="none" stroke="#63b8ff" d="M718.64,-448.96C710.78,-412.92 689.83,-336.52 646,-289 631.15,-272.91 609.06,-261.66 591.26,-254.57"/>
<polygon fill="#63b8ff" stroke="#63b8ff" points="715.29,-450.07 720.74,-459.15 722.15,-448.65 715.29,-450.07"/>
</g>
<!-- Node37 -->
<g id="node37" class="node">
<title>Node37</title>
<g id="a_node37"><a xlink:href="a00514.xhtml#a4beb226d8e7dd927c253667647e837ec" target="_top" xlink:title="init configuration">
<polygon fill="white" stroke="#666666" points="603.5,-158.5 518.5,-158.5 518.5,-139.5 603.5,-139.5 603.5,-158.5"/>
<text text-anchor="middle" x="561" y="-146.5" font-family="Helvetica,sans-Serif" font-size="10.00">CNoveltyIf::init_</text>
</a>
</g>
</g>
<!-- Node1&#45;&gt;Node37 -->
<g id="edge39" class="edge">
<title>Node1&#45;&gt;Node37</title>
<path fill="none" stroke="#63b8ff" d="M719.81,-449.5C713.15,-406.44 692.94,-301.17 646,-227 627.37,-197.57 594.96,-171.93 576.31,-158.65"/>
<polygon fill="#63b8ff" stroke="#63b8ff" points="716.36,-450.1 721.28,-459.49 723.28,-449.08 716.36,-450.1"/>
</g>
<!-- Node40 -->
<g id="node40" class="node">
<title>Node40</title>
<g id="a_node40"><a xlink:href="a00522.xhtml#a3a966aff4a49e12324f205b20c5f2232" target="_top" xlink:title="init configuration">
<polygon fill="white" stroke="#666666" points="598,-67.5 524,-67.5 524,-48.5 598,-48.5 598,-67.5"/>
<text text-anchor="middle" x="561" y="-55.5" font-family="Helvetica,sans-Serif" font-size="10.00">CPitchIf::init_</text>
</a>
</g>
</g>
<!-- Node1&#45;&gt;Node40 -->
<g id="edge42" class="edge">
<title>Node1&#45;&gt;Node40</title>
<path fill="none" stroke="#63b8ff" d="M722.22,-449.29C720.61,-394.7 710.29,-238.5 646,-131 629.14,-102.81 597.63,-79.87 578.36,-67.64"/>
<polygon fill="#63b8ff" stroke="#63b8ff" points="718.72,-449.42 722.45,-459.34 725.72,-449.26 718.72,-449.42"/>
</g>
<!-- Node4 -->
<g id="node4" class="node">
<title>Node4</title>
<g id="a_node4"><a xlink:href="a00119.xhtml#a0ddf1224851353fc92bfbff6f499fa97" target="_top" xlink:title=" ">
<polygon fill="white" stroke="#666666" points="165.5,-507.5 127.5,-507.5 127.5,-488.5 165.5,-488.5 165.5,-507.5"/>
<text text-anchor="middle" x="146.5" y="-495.5" font-family="Helvetica,sans-Serif" font-size="10.00">main</text>
</a>
</g>
</g>
<!-- Node3&#45;&gt;Node4 -->
<g id="edge3" class="edge">
<title>Node3&#45;&gt;Node4</title>
<path fill="none" stroke="#63b8ff" d="M284.03,-522.7C243.04,-515.28 192.27,-506.1 165.68,-501.29"/>
<polygon fill="#63b8ff" stroke="#63b8ff" points="283.49,-526.16 293.95,-524.49 284.74,-519.27 283.49,-526.16"/>
</g>
<!-- Node6 -->
<g id="node6" class="node">
<title>Node6</title>
<g id="a_node6"><a xlink:href="a00008.xhtml#a0ddf1224851353fc92bfbff6f499fa97" target="_top" xlink:title=" ">
<polygon fill="white" stroke="#666666" points="366.5,-729.5 328.5,-729.5 328.5,-710.5 366.5,-710.5 366.5,-729.5"/>
<text text-anchor="middle" x="347.5" y="-717.5" font-family="Helvetica,sans-Serif" font-size="10.00">main</text>
</a>
</g>
</g>
<!-- Node5&#45;&gt;Node6 -->
<g id="edge5" class="edge">
<title>Node5&#45;&gt;Node6</title>
<path fill="none" stroke="#63b8ff" d="M495.64,-694.26C451.1,-702.05 394.92,-711.88 366.6,-716.83"/>
<polygon fill="#63b8ff" stroke="#63b8ff" points="496.29,-697.7 505.53,-692.53 495.08,-690.8 496.29,-697.7"/>
</g>
<!-- Node8 -->
<g id="node8" class="node">
<title>Node8</title>
<g id="a_node8"><a xlink:href="a00454.xhtml#a463c7570302112f307363ec1c7260221" target="_top" xlink:title=" ">
<polygon fill="white" stroke="#666666" points="404.5,-692.5 290.5,-692.5 290.5,-673.5 404.5,-673.5 404.5,-692.5"/>
<text text-anchor="middle" x="347.5" y="-680.5" font-family="Helvetica,sans-Serif" font-size="10.00">CChordIf::compChords</text>
</a>
</g>
</g>
<!-- Node7&#45;&gt;Node8 -->
<g id="edge7" class="edge">
<title>Node7&#45;&gt;Node8</title>
<path fill="none" stroke="#63b8ff" d="M495.33,-657.31C465.85,-662.47 431.31,-668.51 403.15,-673.44"/>
<polygon fill="#63b8ff" stroke="#63b8ff" points="496.29,-660.7 505.53,-655.53 495.08,-653.8 496.29,-660.7"/>
</g>
<!-- Node9 -->
<g id="node9" class="node">
<title>Node9</title>
<g id="a_node9"><a xlink:href="a00005.xhtml#a0ddf1224851353fc92bfbff6f499fa97" target="_top" xlink:title=" ">
<polygon fill="white" stroke="#666666" points="165.5,-692.5 127.5,-692.5 127.5,-673.5 165.5,-673.5 165.5,-692.5"/>
<text text-anchor="middle" x="146.5" y="-680.5" font-family="Helvetica,sans-Serif" font-size="10.00">main</text>
</a>
</g>
</g>
<!-- Node8&#45;&gt;Node9 -->
<g id="edge8" class="edge">
<title>Node8&#45;&gt;Node9</title>
<path fill="none" stroke="#63b8ff" d="M280.25,-683C240.08,-683 191.74,-683 165.91,-683"/>
<polygon fill="#63b8ff" stroke="#63b8ff" points="280.27,-686.5 290.27,-683 280.27,-679.5 280.27,-686.5"/>
</g>
<!-- Node11 -->
<g id="node11" class="node">
<title>Node11</title>
<g id="a_node11"><a xlink:href="a00466.xhtml#a30248aa1fb336095d4d86d0bd3d2bdb8" target="_top" xlink:title=" ">
<polygon fill="white" stroke="#666666" points="420.5,-655.5 274.5,-655.5 274.5,-636.5 420.5,-636.5 420.5,-655.5"/>
<text text-anchor="middle" x="347.5" y="-643.5" font-family="Helvetica,sans-Serif" font-size="10.00">CFeatureIf::compFeature1Dim</text>
</a>
</g>
</g>
<!-- Node10&#45;&gt;Node11 -->
<g id="edge10" class="edge">
<title>Node10&#45;&gt;Node11</title>
<path fill="none" stroke="#63b8ff" d="M495.33,-620.31C465.85,-625.47 431.31,-631.51 403.15,-636.44"/>
<polygon fill="#63b8ff" stroke="#63b8ff" points="496.29,-623.7 505.53,-618.53 495.08,-616.8 496.29,-623.7"/>
</g>
<!-- Node13 -->
<g id="node13" class="node">
<title>Node13</title>
<g id="a_node13"><a xlink:href="a00466.xhtml#ad734d1e300583449f51e6ca80aa3e7b8" target="_top" xlink:title=" ">
<polygon fill="white" stroke="#666666" points="422,-618.5 273,-618.5 273,-599.5 422,-599.5 422,-618.5"/>
<text text-anchor="middle" x="347.5" y="-606.5" font-family="Helvetica,sans-Serif" font-size="10.00">CFeatureIf::compFeatureNDim</text>
</a>
</g>
</g>
<!-- Node10&#45;&gt;Node13 -->
<g id="edge12" class="edge">
<title>Node10&#45;&gt;Node13</title>
<path fill="none" stroke="#63b8ff" d="M465.75,-609C451.14,-609 436.23,-609 422.16,-609"/>
<polygon fill="#63b8ff" stroke="#63b8ff" points="465.8,-612.5 475.8,-609 465.8,-605.5 465.8,-612.5"/>
</g>
<!-- Node12 -->
<g id="node12" class="node">
<title>Node12</title>
<g id="a_node12"><a xlink:href="a00002.xhtml#a0ddf1224851353fc92bfbff6f499fa97" target="_top" xlink:title=" ">
<polygon fill="white" stroke="#666666" points="165.5,-655.5 127.5,-655.5 127.5,-636.5 165.5,-636.5 165.5,-655.5"/>
<text text-anchor="middle" x="146.5" y="-643.5" font-family="Helvetica,sans-Serif" font-size="10.00">main</text>
</a>
</g>
</g>
<!-- Node11&#45;&gt;Node12 -->
<g id="edge11" class="edge">
<title>Node11&#45;&gt;Node12</title>
<path fill="none" stroke="#63b8ff" d="M264.22,-646C227.86,-646 188.34,-646 165.88,-646"/>
<polygon fill="#63b8ff" stroke="#63b8ff" points="264.38,-649.5 274.38,-646 264.38,-642.5 264.38,-649.5"/>
</g>
<!-- Node13&#45;&gt;Node12 -->
<g id="edge15" class="edge">
<title>Node13&#45;&gt;Node12</title>
<path fill="none" stroke="#63b8ff" d="M285.32,-620.38C244.24,-628.01 192.86,-637.57 165.93,-642.57"/>
<polygon fill="#63b8ff" stroke="#63b8ff" points="286.06,-623.8 295.25,-618.53 284.78,-616.92 286.06,-623.8"/>
</g>
<!-- Node14 -->
<g id="node14" class="node">
<title>Node14</title>
<g id="a_node14"><a xlink:href="a00506.xhtml#a343e6b52e9696244dd57d4db0f91d056" target="_top" xlink:title=" ">
<polygon fill="white" stroke="#666666" points="189,-618.5 104,-618.5 104,-599.5 189,-599.5 189,-618.5"/>
<text text-anchor="middle" x="146.5" y="-606.5" font-family="Helvetica,sans-Serif" font-size="10.00">CKey::compKey</text>
</a>
</g>
</g>
<!-- Node13&#45;&gt;Node14 -->
<g id="edge13" class="edge">
<title>Node13&#45;&gt;Node14</title>
<path fill="none" stroke="#63b8ff" d="M262.93,-609C237.51,-609 210.66,-609 189.26,-609"/>
<polygon fill="#63b8ff" stroke="#63b8ff" points="262.97,-612.5 272.97,-609 262.97,-605.5 262.97,-612.5"/>
</g>
<!-- Node15 -->
<g id="node15" class="node">
<title>Node15</title>
<g id="a_node15"><a xlink:href="a00122.xhtml#a0ddf1224851353fc92bfbff6f499fa97" target="_top" xlink:title=" ">
<polygon fill="white" stroke="#666666" points="38,-618.5 0,-618.5 0,-599.5 38,-599.5 38,-618.5"/>
<text text-anchor="middle" x="19" y="-606.5" font-family="Helvetica,sans-Serif" font-size="10.00">main</text>
</a>
</g>
</g>
<!-- Node14&#45;&gt;Node15 -->
<g id="edge14" class="edge">
<title>Node14&#45;&gt;Node15</title>
<path fill="none" stroke="#63b8ff" d="M93.58,-609C73.88,-609 52.71,-609 38.16,-609"/>
<polygon fill="#63b8ff" stroke="#63b8ff" points="93.71,-612.5 103.71,-609 93.71,-605.5 93.71,-612.5"/>
</g>
<!-- Node17 -->
<g id="node17" class="node">
<title>Node17</title>
<g id="a_node17"><a xlink:href="a00514.xhtml#a9f110985f86064fa24aa3157bfd5cab0" target="_top" xlink:title=" ">
<polygon fill="white" stroke="#666666" points="409.5,-581.5 285.5,-581.5 285.5,-562.5 409.5,-562.5 409.5,-581.5"/>
<text text-anchor="middle" x="347.5" y="-569.5" font-family="Helvetica,sans-Serif" font-size="10.00">CNoveltyIf::compNovelty</text>
</a>
</g>
</g>
<!-- Node16&#45;&gt;Node17 -->
<g id="edge17" class="edge">
<title>Node16&#45;&gt;Node17</title>
<path fill="none" stroke="#63b8ff" d="M465.62,-572C446.61,-572 427.11,-572 409.6,-572"/>
<polygon fill="#63b8ff" stroke="#63b8ff" points="465.8,-575.5 475.8,-572 465.8,-568.5 465.8,-575.5"/>
</g>
<!-- Node18 -->
<g id="node18" class="node">
<title>Node18</title>
<g id="a_node18"><a xlink:href="a00450.xhtml#a58a9a3d685f448ced2e843a60028e472" target="_top" xlink:title=" ">
<polygon fill="white" stroke="#666666" points="219,-581.5 74,-581.5 74,-562.5 219,-562.5 219,-581.5"/>
<text text-anchor="middle" x="146.5" y="-569.5" font-family="Helvetica,sans-Serif" font-size="10.00">CBeatHistoIf::compBeatHisto</text>
</a>
</g>
</g>
<!-- Node17&#45;&gt;Node18 -->
<g id="edge18" class="edge">
<title>Node17&#45;&gt;Node18</title>
<path fill="none" stroke="#63b8ff" d="M275.21,-572C257.03,-572 237.48,-572 219.27,-572"/>
<polygon fill="#63b8ff" stroke="#63b8ff" points="275.44,-575.5 285.44,-572 275.44,-568.5 275.44,-575.5"/>
</g>
<!-- Node20 -->
<g id="node20" class="node">
<title>Node20</title>
<g id="a_node20"><a xlink:href="a00023.xhtml#a0ddf1224851353fc92bfbff6f499fa97" target="_top" xlink:title=" ">
<polygon fill="white" stroke="#666666" points="165.5,-544.5 127.5,-544.5 127.5,-525.5 165.5,-525.5 165.5,-544.5"/>
<text text-anchor="middle" x="146.5" y="-532.5" font-family="Helvetica,sans-Serif" font-size="10.00">main</text>
</a>
</g>
</g>
<!-- Node17&#45;&gt;Node20 -->
<g id="edge20" class="edge">
<title>Node17&#45;&gt;Node20</title>
<path fill="none" stroke="#63b8ff" d="M285.32,-560.62C244.24,-552.99 192.86,-543.43 165.93,-538.43"/>
<polygon fill="#63b8ff" stroke="#63b8ff" points="284.78,-564.08 295.25,-562.47 286.06,-557.2 284.78,-564.08"/>
</g>
<!-- Node19 -->
<g id="node19" class="node">
<title>Node19</title>
<g id="a_node19"><a xlink:href="a00011.xhtml#a0ddf1224851353fc92bfbff6f499fa97" target="_top" xlink:title=" ">
<polygon fill="white" stroke="#666666" points="38,-581.5 0,-581.5 0,-562.5 38,-562.5 38,-581.5"/>
<text text-anchor="middle" x="19" y="-569.5" font-family="Helvetica,sans-Serif" font-size="10.00">main</text>
</a>
</g>
</g>
<!-- Node18&#45;&gt;Node19 -->
<g id="edge19" class="edge">
<title>Node18&#45;&gt;Node19</title>
<path fill="none" stroke="#63b8ff" d="M63.88,-572C54.4,-572 45.55,-572 38.32,-572"/>
<polygon fill="#63b8ff" stroke="#63b8ff" points="63.95,-575.5 73.95,-572 63.95,-568.5 63.95,-575.5"/>
</g>
<!-- Node22 -->
<g id="node22" class="node">
<title>Node22</title>
<g id="a_node22"><a xlink:href="a00522.xhtml#a5c6fea7fdc8067f1d6a116b86d543aa1" target="_top" xlink:title=" ">
<polygon fill="white" stroke="#666666" points="393.5,-457.5 301.5,-457.5 301.5,-438.5 393.5,-438.5 393.5,-457.5"/>
<text text-anchor="middle" x="347.5" y="-445.5" font-family="Helvetica,sans-Serif" font-size="10.00">CPitchIf::compF0</text>
</a>
</g>
</g>
<!-- Node21&#45;&gt;Node22 -->
<g id="edge22" class="edge">
<title>Node21&#45;&gt;Node22</title>
<path fill="none" stroke="#63b8ff" d="M470.84,-448C444.24,-448 416.21,-448 393.7,-448"/>
<polygon fill="#63b8ff" stroke="#63b8ff" points="470.94,-451.5 480.94,-448 470.94,-444.5 470.94,-451.5"/>
</g>
<!-- Node23 -->
<g id="node23" class="node">
<title>Node23</title>
<g id="a_node23"><a xlink:href="a00125.xhtml#a0ddf1224851353fc92bfbff6f499fa97" target="_top" xlink:title=" ">
<polygon fill="white" stroke="#666666" points="165.5,-457.5 127.5,-457.5 127.5,-438.5 165.5,-438.5 165.5,-457.5"/>
<text text-anchor="middle" x="146.5" y="-445.5" font-family="Helvetica,sans-Serif" font-size="10.00">main</text>
</a>
</g>
</g>
<!-- Node22&#45;&gt;Node23 -->
<g id="edge23" class="edge">
<title>Node22&#45;&gt;Node23</title>
<path fill="none" stroke="#63b8ff" d="M291.23,-448C249.15,-448 193.81,-448 165.66,-448"/>
<polygon fill="#63b8ff" stroke="#63b8ff" points="291.34,-451.5 301.34,-448 291.34,-444.5 291.34,-451.5"/>
</g>
<!-- Node25 -->
<g id="node25" class="node">
<title>Node25</title>
<g id="a_node25"><a xlink:href="a00554.xhtml#afc0be480801465a0751b8c74806bf590" target="_top" xlink:title=" ">
<polygon fill="white" stroke="#666666" points="419,-420.5 276,-420.5 276,-401.5 419,-401.5 419,-420.5"/>
<text text-anchor="middle" x="347.5" y="-408.5" font-family="Helvetica,sans-Serif" font-size="10.00">CFingerprint::compFingerprint</text>
</a>
</g>
</g>
<!-- Node24&#45;&gt;Node25 -->
<g id="edge25" class="edge">
<title>Node24&#45;&gt;Node25</title>
<path fill="none" stroke="#63b8ff" d="M485.87,-407.1C464.26,-407.72 440.72,-408.38 419.33,-408.99"/>
<polygon fill="#63b8ff" stroke="#63b8ff" points="486.07,-410.6 495.97,-406.82 485.87,-403.6 486.07,-410.6"/>
</g>
<!-- Node26 -->
<g id="node26" class="node">
<title>Node26</title>
<g id="a_node26"><a xlink:href="a00116.xhtml#a0ddf1224851353fc92bfbff6f499fa97" target="_top" xlink:title=" ">
<polygon fill="white" stroke="#666666" points="165.5,-359.5 127.5,-359.5 127.5,-340.5 165.5,-340.5 165.5,-359.5"/>
<text text-anchor="middle" x="146.5" y="-347.5" font-family="Helvetica,sans-Serif" font-size="10.00">main</text>
</a>
</g>
</g>
<!-- Node25&#45;&gt;Node26 -->
<g id="edge26" class="edge">
<title>Node25&#45;&gt;Node26</title>
<path fill="none" stroke="#63b8ff" d="M279.7,-399.36C271.32,-397.47 262.92,-395.34 255,-393 222.81,-383.49 186.87,-368.09 165.77,-358.53"/>
<polygon fill="#63b8ff" stroke="#63b8ff" points="278.97,-402.79 289.48,-401.49 280.45,-395.95 278.97,-402.79"/>
</g>
<!-- Node27&#45;&gt;Node3 -->
<g id="edge28" class="edge">
<title>Node27&#45;&gt;Node3</title>
<path fill="none" stroke="#63b8ff" d="M487.27,-505.79C456.88,-511.97 422.44,-518.97 395.48,-524.45"/>
<polygon fill="#63b8ff" stroke="#63b8ff" points="488.3,-509.15 497.4,-503.73 486.9,-502.29 488.3,-509.15"/>
</g>
<!-- Node28 -->
<g id="node28" class="node">
<title>Node28</title>
<g id="a_node28"><a xlink:href="a00530.xhtml#afbc5337ad3646cbba2b189323de6ce3a" target="_top" xlink:title=" ">
<polygon fill="white" stroke="#666666" points="434.5,-506 260.5,-506 260.5,-476 434.5,-476 434.5,-506"/>
<text text-anchor="start" x="268.5" y="-494" font-family="Helvetica,sans-Serif" font-size="10.00">CSpectrogramIf::getMelSpectrogram</text>
<text text-anchor="middle" x="347.5" y="-483" font-family="Helvetica,sans-Serif" font-size="10.00">AxisVectors</text>
</a>
</g>
</g>
<!-- Node27&#45;&gt;Node28 -->
<g id="edge29" class="edge">
<title>Node27&#45;&gt;Node28</title>
<path fill="none" stroke="#63b8ff" d="M487.1,-491C470.26,-491 452.19,-491 434.84,-491"/>
<polygon fill="#63b8ff" stroke="#63b8ff" points="487.4,-494.5 497.4,-491 487.4,-487.5 487.4,-494.5"/>
</g>
<!-- Node30 -->
<g id="node30" class="node">
<title>Node30</title>
<g id="a_node30"><a xlink:href="a00310.xhtml#a6df404d2eb3d4c8f9dc2071930fc9e7e" target="_top" xlink:title=" ">
<polygon fill="white" stroke="#666666" points="428.5,-383.5 266.5,-383.5 266.5,-364.5 428.5,-364.5 428.5,-383.5"/>
<text text-anchor="middle" x="347.5" y="-371.5" font-family="Helvetica,sans-Serif" font-size="10.00">CChordFromFile::CChordFromFile</text>
</a>
</g>
</g>
<!-- Node29&#45;&gt;Node30 -->
<g id="edge31" class="edge">
<title>Node29&#45;&gt;Node30</title>
<path fill="none" stroke="#63b8ff" d="M512.06,-364.72C487.5,-366.11 456.95,-367.85 428.92,-369.44"/>
<polygon fill="#63b8ff" stroke="#63b8ff" points="512.4,-368.21 522.19,-364.15 512.01,-361.22 512.4,-368.21"/>
</g>
<!-- Node31 -->
<g id="node31" class="node">
<title>Node31</title>
<g id="a_node31"><a xlink:href="a00314.xhtml#ac9c41c2ddc441df7e0ae80c25971c260" target="_top" xlink:title=" ">
<polygon fill="white" stroke="#666666" points="416,-346 279,-346 279,-316 416,-316 416,-346"/>
<text text-anchor="start" x="287" y="-334" font-family="Helvetica,sans-Serif" font-size="10.00">CChordFromVector::CChord</text>
<text text-anchor="middle" x="347.5" y="-323" font-family="Helvetica,sans-Serif" font-size="10.00">FromVector</text>
</a>
</g>
</g>
<!-- Node29&#45;&gt;Node31 -->
<g id="edge32" class="edge">
<title>Node29&#45;&gt;Node31</title>
<path fill="none" stroke="#63b8ff" d="M512.15,-354.99C483.85,-350.84 447.55,-345.52 416.34,-340.94"/>
<polygon fill="#63b8ff" stroke="#63b8ff" points="511.79,-358.47 522.19,-356.46 512.8,-351.54 511.79,-358.47"/>
</g>
<!-- Node33 -->
<g id="node33" class="node">
<title>Node33</title>
<g id="a_node33"><a xlink:href="a00554.xhtml#ab79f4706d42b250f36c91cfd075bc8df" target="_top" xlink:title=" ">
<polygon fill="white" stroke="#666666" points="390.5,-297.5 304.5,-297.5 304.5,-278.5 390.5,-278.5 390.5,-297.5"/>
<text text-anchor="middle" x="347.5" y="-285.5" font-family="Helvetica,sans-Serif" font-size="10.00">CFingerprint::init</text>
</a>
</g>
</g>
<!-- Node32&#45;&gt;Node33 -->
<g id="edge34" class="edge">
<title>Node32&#45;&gt;Node33</title>
<path fill="none" stroke="#63b8ff" d="M504.64,-302.03C469,-298.82 423.37,-294.73 390.66,-291.79"/>
<polygon fill="#63b8ff" stroke="#63b8ff" points="504.61,-305.54 514.89,-302.95 505.24,-298.57 504.61,-305.54"/>
</g>
<!-- Node33&#45;&gt;Node26 -->
<g id="edge35" class="edge">
<title>Node33&#45;&gt;Node26</title>
<path fill="none" stroke="#63b8ff" d="M294.08,-297.24C281.19,-299.96 267.5,-303.23 255,-307 222.86,-316.68 186.9,-332.03 165.79,-341.53"/>
<polygon fill="#63b8ff" stroke="#63b8ff" points="295.1,-300.6 304.2,-295.17 293.71,-293.74 295.1,-300.6"/>
</g>
<!-- Node35 -->
<g id="node35" class="node">
<title>Node35</title>
<g id="a_node35"><a xlink:href="a00318.xhtml#abdd90edbfe131bcd181d9ffac77fab8e" target="_top" xlink:title=" ">
<polygon fill="white" stroke="#666666" points="417,-260 278,-260 278,-230 417,-230 417,-260"/>
<text text-anchor="start" x="286" y="-248" font-family="Helvetica,sans-Serif" font-size="10.00">CFeatureFromFile::CFeature</text>
<text text-anchor="middle" x="347.5" y="-237" font-family="Helvetica,sans-Serif" font-size="10.00">FromFile</text>
</a>
</g>
</g>
<!-- Node34&#45;&gt;Node35 -->
<g id="edge37" class="edge">
<title>Node34&#45;&gt;Node35</title>
<path fill="none" stroke="#63b8ff" d="M508.33,-245C480.96,-245 446.99,-245 417.41,-245"/>
<polygon fill="#63b8ff" stroke="#63b8ff" points="508.47,-248.5 518.47,-245 508.47,-241.5 508.47,-248.5"/>
</g>
<!-- Node36 -->
<g id="node36" class="node">
<title>Node36</title>
<g id="a_node36"><a xlink:href="a00322.xhtml#a686d96f3eac3a33378fcea886d687305" target="_top" xlink:title=" ">
<polygon fill="white" stroke="#666666" points="403.5,-212 291.5,-212 291.5,-182 403.5,-182 403.5,-212"/>
<text text-anchor="start" x="299.5" y="-200" font-family="Helvetica,sans-Serif" font-size="10.00">CFeatureFromVector</text>
<text text-anchor="middle" x="347.5" y="-189" font-family="Helvetica,sans-Serif" font-size="10.00">::CFeatureFromVector</text>
</a>
</g>
</g>
<!-- Node34&#45;&gt;Node36 -->
<g id="edge38" class="edge">
<title>Node34&#45;&gt;Node36</title>
<path fill="none" stroke="#63b8ff" d="M508.49,-233.31C476.71,-226.1 435.97,-216.85 403.56,-209.5"/>
<polygon fill="#63b8ff" stroke="#63b8ff" points="507.94,-236.77 518.47,-235.57 509.49,-229.95 507.94,-236.77"/>
</g>
<!-- Node38 -->
<g id="node38" class="node">
<title>Node38</title>
<g id="a_node38"><a xlink:href="a00362.xhtml#a0247bb6d1818b840d1182d5ee50214d5" target="_top" xlink:title=" ">
<polygon fill="white" stroke="#666666" points="417,-164 278,-164 278,-134 417,-134 417,-164"/>
<text text-anchor="start" x="286" y="-152" font-family="Helvetica,sans-Serif" font-size="10.00">CNoveltyFromFile::CNovelty</text>
<text text-anchor="middle" x="347.5" y="-141" font-family="Helvetica,sans-Serif" font-size="10.00">FromFile</text>
</a>
</g>
</g>
<!-- Node37&#45;&gt;Node38 -->
<g id="edge40" class="edge">
<title>Node37&#45;&gt;Node38</title>
<path fill="none" stroke="#63b8ff" d="M508.33,-149C480.96,-149 446.99,-149 417.41,-149"/>
<polygon fill="#63b8ff" stroke="#63b8ff" points="508.47,-152.5 518.47,-149 508.47,-145.5 508.47,-152.5"/>
</g>
<!-- Node39 -->
<g id="node39" class="node">
<title>Node39</title>
<g id="a_node39"><a xlink:href="a00366.xhtml#a8730189fe1aa6b0e557afc04faad9966" target="_top" xlink:title=" ">
<polygon fill="white" stroke="#666666" points="403.5,-116 291.5,-116 291.5,-86 403.5,-86 403.5,-116"/>
<text text-anchor="start" x="299.5" y="-104" font-family="Helvetica,sans-Serif" font-size="10.00">CNoveltyFromVector</text>
<text text-anchor="middle" x="347.5" y="-93" font-family="Helvetica,sans-Serif" font-size="10.00">::CNoveltyFromVector</text>
</a>
</g>
</g>
<!-- Node37&#45;&gt;Node39 -->
<g id="edge41" class="edge">
<title>Node37&#45;&gt;Node39</title>
<path fill="none" stroke="#63b8ff" d="M508.49,-137.31C476.71,-130.1 435.97,-120.85 403.56,-113.5"/>
<polygon fill="#63b8ff" stroke="#63b8ff" points="507.94,-140.77 518.47,-139.57 509.49,-133.95 507.94,-140.77"/>
</g>
<!-- Node41 -->
<g id="node41" class="node">
<title>Node41</title>
<g id="a_node41"><a xlink:href="a00370.xhtml#ab74f454ce0bbdccd22a38066ce26b16a" target="_top" xlink:title=" ">
<polygon fill="white" stroke="#666666" points="425.5,-67.5 269.5,-67.5 269.5,-48.5 425.5,-48.5 425.5,-67.5"/>
<text text-anchor="middle" x="347.5" y="-55.5" font-family="Helvetica,sans-Serif" font-size="10.00">CPitchFromFile::CPitchFromFile</text>
</a>
</g>
</g>
<!-- Node40&#45;&gt;Node41 -->
<g id="edge43" class="edge">
<title>Node40&#45;&gt;Node41</title>
<path fill="none" stroke="#63b8ff" d="M513.41,-58C487.65,-58 454.98,-58 425.52,-58"/>
<polygon fill="#63b8ff" stroke="#63b8ff" points="513.64,-61.5 523.64,-58 513.64,-54.5 513.64,-61.5"/>
</g>
<!-- Node42 -->
<g id="node42" class="node">
<title>Node42</title>
<g id="a_node42"><a xlink:href="a00374.xhtml#a383eb44fd89db6be0119177effcf90bd" target="_top" xlink:title=" ">
<polygon fill="white" stroke="#666666" points="413,-30 282,-30 282,0 413,0 413,-30"/>
<text text-anchor="start" x="290" y="-18" font-family="Helvetica,sans-Serif" font-size="10.00">CPitchFromVector::CPitch</text>
<text text-anchor="middle" x="347.5" y="-7" font-family="Helvetica,sans-Serif" font-size="10.00">FromVector</text>
</a>
</g>
</g>
<!-- Node40&#45;&gt;Node42 -->
<g id="edge44" class="edge">
<title>Node40&#45;&gt;Node42</title>
<path fill="none" stroke="#63b8ff" d="M513.65,-48.58C484.25,-42.6 445.8,-34.78 413.39,-28.19"/>
<polygon fill="#63b8ff" stroke="#63b8ff" points="513.14,-52.05 523.64,-50.61 514.54,-45.19 513.14,-52.05"/>
</g>
</g>
</svg>
        <g id="navigator" transform="translate(0 0)" fill="#404254">
                <rect fill="#f2f5e9" fill-opacity="0.5" stroke="#606060" stroke-width=".5" x="0" y="0" width="60" height="60"/>
                <use id="zoomplus" xlink:href="#zoomPlus" x="17" y="9" onmousedown="handleZoom(evt,'in')"/>
                <use id="zoomminus" xlink:href="#zoomMin" x="42" y="9" onmousedown="handleZoom(evt,'out')"/>
                <use id="reset" xlink:href="#resetDef" x="30" y="36" onmousedown="handleReset()"/>
                <g id="arrowUp" xlink:href="#dirArrow" transform="translate(30 24)" onmousedown="handlePan(0,-1)">
                  <use xlink:href="#rim" fill="#404040">
                        <set attributeName="fill" to="#808080" begin="arrowUp.mouseover" end="arrowUp.mouseout"/>
                  </use>
                  <path fill="none" stroke="white" stroke-width="1.5" d="M0,-3.0v7 M-2.5,-0.5L0,-3.0L2.5,-0.5"/>
                </g>
                <g id="arrowRight" xlink:href="#dirArrow" transform="rotate(90) translate(36 -43)" onmousedown="handlePan(1,0)">
                  <use xlink:href="#rim" fill="#404040">
                        <set attributeName="fill" to="#808080" begin="arrowRight.mouseover" end="arrowRight.mouseout"/>
                  </use>
                  <path fill="none" stroke="white" stroke-width="1.5" d="M0,-3.0v7 M-2.5,-0.5L0,-3.0L2.5,-0.5"/>
                </g>
                <g id="arrowDown" xlink:href="#dirArrow" transform="rotate(180) translate(-30 -48)" onmousedown="handlePan(0,1)">
                  <use xlink:href="#rim" fill="#404040">
                        <set attributeName="fill" to="#808080" begin="arrowDown.mouseover" end="arrowDown.mouseout"/>
                  </use>
                  <path fill="none" stroke="white" stroke-width="1.5" d="M0,-3.0v7 M-2.5,-0.5L0,-3.0L2.5,-0.5"/>
                </g>
                <g id="arrowLeft" xlink:href="#dirArrow" transform="rotate(270) translate(-36 17)" onmousedown="handlePan(-1,0)">
                  <use xlink:href="#rim" fill="#404040">
                        <set attributeName="fill" to="#808080" begin="arrowLeft.mouseover" end="arrowLeft.mouseout"/>
                  </use>
                  <path fill="none" stroke="white" stroke-width="1.5" d="M0,-3.0v7 M-2.5,-0.5L0,-3.0L2.5,-0.5"/>
                </g>
        </g>
        <svg viewBox="0 0 15 15" width="100%" height="30px" preserveAspectRatio="xMaxYMin meet">
         <g id="arrow_out" transform="scale(0.3 0.3)">
          <a xlink:href="a00474_a9cb162394031e8b496f7a39b51c31d20_icgraph_org.svg" target="_base">
           <rect id="button" ry="5" rx="5" y="6" x="6" height="38" width="38"
                fill="#f2f5e9" fill-opacity="0.5" stroke="#606060" stroke-width="1.0"/>
           <path id="arrow"
             d="M 11.500037,31.436501 C 11.940474,20.09759 22.043105,11.32322 32.158766,21.979434 L 37.068811,17.246167 C 37.068811,17.246167 37.088388,32 37.088388,32 L 22.160133,31.978069 C 22.160133,31.978069 26.997745,27.140456 26.997745,27.140456 C 18.528582,18.264221 13.291696,25.230495 11.500037,31.436501 z"
             style="fill:#404040;"/>
          </a>
         </g>
        </svg>
</svg>
