<?xml version="1.0" encoding="UTF-8" standalone="no"?>
<!DOCTYPE svg PUBLIC "-//W3C//DTD SVG 1.1//EN"
 "http://www.w3.org/Graphics/SVG/1.1/DTD/svg11.dtd">
<!-- Generated by graphviz version 4.0.0 (20220602.1335)
 -->
<!-- Title: CMatrix::getCol Pages: 1 -->
<svg width="444pt" height="116pt"
 viewBox="0.00 0.00 444.00 116.00" xmlns="http://www.w3.org/2000/svg" xmlns:xlink="http://www.w3.org/1999/xlink">
<g id="graph0" class="graph" transform="scale(1 1) rotate(0) translate(4 112)">
<title>CMatrix::getCol</title>
<polygon fill="white" stroke="transparent" points="-4,4 -4,-112 440,-112 440,4 -4,4"/>
<!-- Node1 -->
<g id="node1" class="node">
<title>Node1</title>
<g id="a_node1"><a xlink:title=" ">
<polygon fill="#bfbfbf" stroke="black" points="354,-44.5 354,-63.5 436,-63.5 436,-44.5 354,-44.5"/>
<text text-anchor="middle" x="395" y="-51.5" font-family="Helvetica,sans-Serif" font-size="10.00">CMatrix::getCol</text>
</a>
</g>
</g>
<!-- Node2 -->
<g id="node2" class="node">
<title>Node2</title>
<g id="a_node2"><a xlink:href="a00630.xhtml#a2f3d4cb01621ea0e62f13871595a522b" target="_top" xlink:title=" ">
<polygon fill="white" stroke="black" points="160,-88.5 160,-107.5 318,-107.5 318,-88.5 160,-88.5"/>
<text text-anchor="middle" x="239" y="-95.5" font-family="Helvetica,sans-Serif" font-size="10.00">CKmeans::assignClusterLabels_</text>
</a>
</g>
</g>
<!-- Node1&#45;&gt;Node2 -->
<g id="edge1" class="edge">
<title>Node1&#45;&gt;Node2</title>
<path fill="none" stroke="midnightblue" d="M357.17,-66.76C344.79,-70.88 330.86,-75.33 318,-79 306.34,-82.33 293.6,-85.59 281.85,-88.45"/>
<polygon fill="midnightblue" stroke="midnightblue" points="358.36,-70.06 366.72,-63.55 356.13,-63.42 358.36,-70.06"/>
</g>
<!-- Node4 -->
<g id="node4" class="node">
<title>Node4</title>
<g id="a_node4"><a xlink:href="a00590.xhtml#ad65c5535ba9f8bdf0708cc1ad8815e6d" target="_top" xlink:title=" ">
<polygon fill="white" stroke="black" points="177,-39 177,-69 301,-69 301,-39 177,-39"/>
<text text-anchor="start" x="185" y="-57" font-family="Helvetica,sans-Serif" font-size="10.00">CLeaveOneOutCrossVal</text>
<text text-anchor="middle" x="239" y="-46" font-family="Helvetica,sans-Serif" font-size="10.00">::process</text>
</a>
</g>
</g>
<!-- Node1&#45;&gt;Node4 -->
<g id="edge3" class="edge">
<title>Node1&#45;&gt;Node4</title>
<path fill="none" stroke="midnightblue" d="M343.79,-54C330.15,-54 315.23,-54 301.06,-54"/>
<polygon fill="midnightblue" stroke="midnightblue" points="343.94,-57.5 353.94,-54 343.94,-50.5 343.94,-57.5"/>
</g>
<!-- Node5 -->
<g id="node5" class="node">
<title>Node5</title>
<g id="a_node5"><a xlink:href="a00582.xhtml#a81ef85945dec254c2a43ea83ffb513b9" target="_top" xlink:title=" ">
<polygon fill="white" stroke="black" points="184,-0.5 184,-19.5 294,-19.5 294,-0.5 184,-0.5"/>
<text text-anchor="middle" x="239" y="-7.5" font-family="Helvetica,sans-Serif" font-size="10.00">CGmmClassifier::train</text>
</a>
</g>
</g>
<!-- Node1&#45;&gt;Node5 -->
<g id="edge4" class="edge">
<title>Node1&#45;&gt;Node5</title>
<path fill="none" stroke="midnightblue" d="M355.23,-41.31C343.33,-37.53 330.16,-33.48 318,-30 305.37,-26.39 291.49,-22.73 278.99,-19.55"/>
<polygon fill="midnightblue" stroke="midnightblue" points="354.29,-44.68 364.88,-44.39 356.42,-38.01 354.29,-44.68"/>
</g>
<!-- Node3 -->
<g id="node3" class="node">
<title>Node3</title>
<g id="a_node3"><a xlink:href="a00630.xhtml#ac9199a37d06a0d589118941f80f3f774" target="_top" xlink:title=" ">
<polygon fill="white" stroke="black" points="0,-88.5 0,-107.5 124,-107.5 124,-88.5 0,-88.5"/>
<text text-anchor="middle" x="62" y="-95.5" font-family="Helvetica,sans-Serif" font-size="10.00">CKmeans::compKmeans</text>
</a>
</g>
</g>
<!-- Node2&#45;&gt;Node3 -->
<g id="edge2" class="edge">
<title>Node2&#45;&gt;Node3</title>
<path fill="none" stroke="midnightblue" d="M149.78,-98C141.09,-98 132.4,-98 124.07,-98"/>
<polygon fill="midnightblue" stroke="midnightblue" points="149.97,-101.5 159.97,-98 149.97,-94.5 149.97,-101.5"/>
</g>
</g>
</svg>
