<?xml version="1.0" encoding="UTF-8" standalone="no"?>
<!DOCTYPE svg PUBLIC "-//W3C//DTD SVG 1.1//EN"
 "http://www.w3.org/Graphics/SVG/1.1/DTD/svg11.dtd">
<!-- Generated by graphviz version 12.2.1 (20241206.2353)
 -->
<!-- Title: CAudioFileIf::setInitialized_ Pages: 1 -->
<!--zoomable 721 -->

<svg id="main" version="1.1" xmlns="http://www.w3.org/2000/svg" xmlns:xlink="http://www.w3.org/1999/xlink" xml:space="preserve" onload="init(evt)">

<style type="text/css"><![CDATA[
.node, .edge {opacity: 0.7;}
.node.selected, .edge.selected {opacity: 1;}
.edge:hover path { stroke: red; }
.edge:hover polygon { stroke: red; fill: red; }
]]></style>

<defs>
  <circle id="rim" cx="0" cy="0" r="7"/>
  <circle id="rim2" cx="0" cy="0" r="3.5"/>
  <g id="zoomPlus">
    <use xlink:href="#rim" fill="#404040"><set attributeName="fill" to="#808080" begin="zoomplus.mouseover" end="zoomplus.mouseout"/></use>
    <path d="M-4,0h8M0,-4v8" fill="none" stroke="white" stroke-width="1.5" pointer-events="none"/>
  </g>
  <g id="zoomMin">
    <use xlink:href="#rim" fill="#404040"><set attributeName="fill" to="#808080" begin="zoomminus.mouseover" end="zoomminus.mouseout"/></use>
    <path d="M-4,0h8" fill="none" stroke="white" stroke-width="1.5" pointer-events="none"/>
  </g>
  <g id="arrowUp" transform="translate(30 24)">
    <use xlink:href="#rim"/>
    <path pointer-events="none" fill="none" stroke="white" stroke-width="1.5" d="M0,-3.0v7 M-2.5,-0.5L0,-3.0L2.5,-0.5"/>
  </g>
  <g id="arrowRight" transform="rotate(90) translate(36 -43)">
    <use xlink:href="#rim"/>
    <path pointer-events="none" fill="none" stroke="white" stroke-width="1.5" d="M0,-3.0v7 M-2.5,-0.5L0,-3.0L2.5,-0.5"/>
  </g>
  <g id="arrowDown" transform="rotate(180) translate(-30 -48)">
    <use xlink:href="#rim"/>
    <path pointer-events="none" fill="none" stroke="white" stroke-width="1.5" d="M0,-3.0v7 M-2.5,-0.5L0,-3.0L2.5,-0.5"/>
  </g>
  <g id="arrowLeft" transform="rotate(270) translate(-36 17)">
    <use xlink:href="#rim"/>
    <path pointer-events="none" fill="none" stroke="white" stroke-width="1.5" d="M0,-3.0v7 M-2.5,-0.5L0,-3.0L2.5,-0.5"/>
  </g>
  <g id="resetDef">
    <use xlink:href="#rim2" fill="#404040"><set attributeName="fill" to="#808080" begin="reset.mouseover" end="reset.mouseout"/></use>
  </g>
</defs>
<script type="application/ecmascript">
var viewWidth = 939;
var viewHeight = 721;
var sectionId = 'dynsection-44';
</script>
<script type="application/ecmascript" xlink:href="svg.min.js"/>
<svg id="graph" class="graph">
<g id="viewport">
<title>CAudioFileIf::setInitialized_</title>
<!-- Node1 -->
<g id="Node000001" class="node">
<title>Node1</title>
<g id="a_Node000001"><a xlink:title=" ">
<polygon fill="#999999" stroke="#666666" points="930.75,-674.88 797.75,-674.88 797.75,-655.62 930.75,-655.62 930.75,-674.88"/>
<text text-anchor="middle" x="864.25" y="-661.38" font-family="Helvetica,sans-Serif" font-size="10.00">CAudioFileIf::setInitialized_</text>
</a>
</g>
</g>
<!-- Node2 -->
<g id="Node000002" class="node">
<title>Node2</title>
<g id="a_Node000002"><a xlink:href="a00445.xhtml#a9fcdd386ee5292b5a971c7077858274c" target="_top" xlink:title=" ">
<polygon fill="white" stroke="#666666" points="761.75,-615.88 634,-615.88 634,-596.62 761.75,-596.62 761.75,-615.88"/>
<text text-anchor="middle" x="697.88" y="-602.38" font-family="Helvetica,sans-Serif" font-size="10.00">CAudioFileIf::initDefaults_</text>
</a>
</g>
</g>
<!-- Node1&#45;&gt;Node2 -->
<g id="edge1_Node000001_Node000002" class="edge">
<title>Node1&#45;&gt;Node2</title>
<g id="a_edge1_Node000001_Node000002"><a xlink:title=" ">
<path fill="none" stroke="#63b8ff" d="M824.86,-651.47C794.86,-640.7 753.86,-625.99 726.9,-616.31"/>
<polygon fill="#63b8ff" stroke="#63b8ff" points="823.35,-654.65 833.94,-654.73 825.71,-648.06 823.35,-654.65"/>
</a>
</g>
</g>
<!-- Node27 -->
<g id="Node000027" class="node">
<title>Node27</title>
<g id="a_Node000027"><a xlink:href="a00437.xhtml#a3e0ef78b8e6ff49a3138d0a153906253" target="_top" xlink:title=" ">
<polygon fill="white" stroke="#666666" points="417.38,-712.88 293.38,-712.88 293.38,-693.62 417.38,-693.62 417.38,-712.88"/>
<text text-anchor="middle" x="355.38" y="-699.38" font-family="Helvetica,sans-Serif" font-size="10.00">CAudioFileRaw::openFile</text>
</a>
</g>
</g>
<!-- Node1&#45;&gt;Node27 -->
<g id="edge33_Node000001_Node000027" class="edge">
<title>Node1&#45;&gt;Node27</title>
<g id="a_edge33_Node000001_Node000027"><a xlink:title=" ">
<path fill="none" stroke="#63b8ff" d="M786.12,-676.53C777.9,-677.54 769.66,-678.47 761.75,-679.25 640.02,-691.23 497.09,-698 417.61,-701.11"/>
<polygon fill="#63b8ff" stroke="#63b8ff" points="786.29,-680.03 795.77,-675.3 785.41,-673.09 786.29,-680.03"/>
</a>
</g>
</g>
<!-- Node28 -->
<g id="Node000028" class="node">
<title>Node28</title>
<g id="a_Node000028"><a xlink:href="a00441.xhtml#a0eed1ac1b3dd498717add1dfa56b3148" target="_top" xlink:title=" ">
<polygon fill="white" stroke="#666666" points="423,-675.88 287.75,-675.88 287.75,-656.62 423,-656.62 423,-675.88"/>
<text text-anchor="middle" x="355.38" y="-662.38" font-family="Helvetica,sans-Serif" font-size="10.00">CAudioFileSndLib::openFile</text>
</a>
</g>
</g>
<!-- Node1&#45;&gt;Node28 -->
<g id="edge34_Node000001_Node000028" class="edge">
<title>Node1&#45;&gt;Node28</title>
<g id="a_edge34_Node000001_Node000028"><a xlink:title=" ">
<path fill="none" stroke="#63b8ff" d="M786.09,-665.4C687.08,-665.6 516.96,-665.93 423.21,-666.12"/>
<polygon fill="#63b8ff" stroke="#63b8ff" points="786,-668.9 795.99,-665.38 785.98,-661.9 786,-668.9"/>
</a>
</g>
</g>
<!-- Node3 -->
<g id="Node000003" class="node">
<title>Node3</title>
<g id="a_Node000003"><a xlink:href="a00445.xhtml#a303a350a95e8af4cfbaaf61c1274b790" target="_top" xlink:title=" ">
<polygon fill="white" stroke="#666666" points="598,-466.88 471,-466.88 471,-447.62 598,-447.62 598,-466.88"/>
<text text-anchor="middle" x="534.5" y="-453.38" font-family="Helvetica,sans-Serif" font-size="10.00">CAudioFileIf::CAudioFileIf</text>
</a>
</g>
</g>
<!-- Node2&#45;&gt;Node3 -->
<g id="edge2_Node000002_Node000003" class="edge">
<title>Node2&#45;&gt;Node3</title>
<g id="a_edge2_Node000002_Node000003"><a xlink:title=" ">
<path fill="none" stroke="#63b8ff" d="M677.82,-588.65C643.7,-557.15 573.23,-492.08 546.29,-467.21"/>
<polygon fill="#63b8ff" stroke="#63b8ff" points="675.2,-591 684.92,-595.22 679.95,-585.86 675.2,-591"/>
</a>
</g>
</g>
<!-- Node26 -->
<g id="Node000026" class="node">
<title>Node26</title>
<g id="a_Node000026"><a xlink:href="a00445.xhtml#afd69456f1bc1e58632348f8ac9b70aa1" target="_top" xlink:title=" ">
<polygon fill="white" stroke="#666666" points="582.25,-615.88 486.75,-615.88 486.75,-596.62 582.25,-596.62 582.25,-615.88"/>
<text text-anchor="middle" x="534.5" y="-602.38" font-family="Helvetica,sans-Serif" font-size="10.00">CAudioFileIf::reset</text>
</a>
</g>
</g>
<!-- Node2&#45;&gt;Node26 -->
<g id="edge26_Node000002_Node000026" class="edge">
<title>Node2&#45;&gt;Node26</title>
<g id="a_edge26_Node000002_Node000026"><a xlink:title=" ">
<path fill="none" stroke="#63b8ff" d="M622.31,-606.25C608.82,-606.25 595.1,-606.25 582.66,-606.25"/>
<polygon fill="#63b8ff" stroke="#63b8ff" points="622.04,-609.75 632.04,-606.25 622.04,-602.75 622.04,-609.75"/>
</a>
</g>
</g>
<!-- Node4 -->
<g id="Node000004" class="node">
<title>Node4</title>
<g id="a_Node000004"><a xlink:href="a00445.xhtml#a4b8b3a9f615f0a0a1c621d282b8d38a5" target="_top" xlink:title=" ">
<polygon fill="white" stroke="#666666" points="418.88,-466.88 291.88,-466.88 291.88,-447.62 418.88,-447.62 418.88,-466.88"/>
<text text-anchor="middle" x="355.38" y="-453.38" font-family="Helvetica,sans-Serif" font-size="10.00">CAudioFileIf::CAudioFileIf</text>
</a>
</g>
</g>
<!-- Node3&#45;&gt;Node4 -->
<g id="edge3_Node000003_Node000004" class="edge">
<title>Node3&#45;&gt;Node4</title>
<g id="a_edge3_Node000003_Node000004"><a xlink:title=" ">
<path fill="none" stroke="#63b8ff" d="M459.43,-457.25C446.02,-457.25 432.16,-457.25 419.12,-457.25"/>
<polygon fill="#63b8ff" stroke="#63b8ff" points="459.04,-460.75 469.04,-457.25 459.04,-453.75 459.04,-460.75"/>
</a>
</g>
</g>
<!-- Node5 -->
<g id="Node000005" class="node">
<title>Node5</title>
<g id="a_Node000005"><a xlink:href="a00437.xhtml#a0ebcef6b814032ce6548b06fa4ed3cd4" target="_top" xlink:title=" ">
<polygon fill="white" stroke="#666666" points="432.38,-552.88 278.38,-552.88 278.38,-533.62 432.38,-533.62 432.38,-552.88"/>
<text text-anchor="middle" x="355.38" y="-539.38" font-family="Helvetica,sans-Serif" font-size="10.00">CAudioFileRaw::CAudioFileRaw</text>
</a>
</g>
</g>
<!-- Node3&#45;&gt;Node5 -->
<g id="edge4_Node000003_Node000005" class="edge">
<title>Node3&#45;&gt;Node5</title>
<g id="a_edge4_Node000003_Node000005"><a xlink:title=" ">
<path fill="none" stroke="#63b8ff" d="M513.23,-474.29C494.17,-489.48 464.28,-511.27 435,-524.25 427.04,-527.78 418.32,-530.71 409.69,-533.13"/>
<polygon fill="#63b8ff" stroke="#63b8ff" points="515.18,-477.21 520.73,-468.18 510.76,-471.78 515.18,-477.21"/>
</a>
</g>
</g>
<!-- Node7 -->
<g id="Node000007" class="node">
<title>Node7</title>
<g id="a_Node000007"><a xlink:href="a00441.xhtml#a19d560f47dbefd7e32ace506f62667ed" target="_top" xlink:title=" ">
<polygon fill="white" stroke="#666666" points="420.38,-515.5 290.38,-515.5 290.38,-485 420.38,-485 420.38,-515.5"/>
<text text-anchor="start" x="298.38" y="-502" font-family="Helvetica,sans-Serif" font-size="10.00">CAudioFileSndLib::CAudio</text>
<text text-anchor="middle" x="355.38" y="-490.75" font-family="Helvetica,sans-Serif" font-size="10.00">FileSndLib</text>
</a>
</g>
</g>
<!-- Node3&#45;&gt;Node7 -->
<g id="edge6_Node000003_Node000007" class="edge">
<title>Node3&#45;&gt;Node7</title>
<g id="a_edge6_Node000003_Node000007"><a xlink:title=" ">
<path fill="none" stroke="#63b8ff" d="M480.91,-470.02C462.07,-474.59 440.61,-479.8 420.87,-484.59"/>
<polygon fill="#63b8ff" stroke="#63b8ff" points="481.61,-473.45 490.5,-467.69 479.96,-466.65 481.61,-473.45"/>
</a>
</g>
</g>
<!-- Node9 -->
<g id="Node000009" class="node">
<title>Node9</title>
<g id="a_Node000009"><a xlink:href="a00445.xhtml#aab987b1a4ec96a8fc835b1733a1ee0c3" target="_top" xlink:title=" ">
<polygon fill="white" stroke="#666666" points="405.75,-429.88 305,-429.88 305,-410.62 405.75,-410.62 405.75,-429.88"/>
<text text-anchor="middle" x="355.38" y="-416.38" font-family="Helvetica,sans-Serif" font-size="10.00">CAudioFileIf::create</text>
</a>
</g>
</g>
<!-- Node3&#45;&gt;Node9 -->
<g id="edge8_Node000003_Node000009" class="edge">
<title>Node3&#45;&gt;Node9</title>
<g id="a_edge8_Node000003_Node000009"><a xlink:title=" ">
<path fill="none" stroke="#63b8ff" d="M473.96,-444.81C451.43,-440.11 426.09,-434.81 404.72,-430.35"/>
<polygon fill="#63b8ff" stroke="#63b8ff" points="473.11,-448.21 483.62,-446.83 474.55,-441.36 473.11,-448.21"/>
</a>
</g>
</g>
<!-- Node18 -->
<g id="Node000018" class="node">
<title>Node18</title>
<g id="a_Node000018"><a xlink:href="a00445.xhtml#ab490b9d06c7efa0e4da3596cf4e7bec4" target="_top" xlink:title=" ">
<polygon fill="white" stroke="#666666" points="408,-208.88 302.75,-208.88 302.75,-189.62 408,-189.62 408,-208.88"/>
<text text-anchor="middle" x="355.38" y="-195.38" font-family="Helvetica,sans-Serif" font-size="10.00">CAudioFileIf::destroy</text>
</a>
</g>
</g>
<!-- Node3&#45;&gt;Node18 -->
<g id="edge17_Node000003_Node000018" class="edge">
<title>Node3&#45;&gt;Node18</title>
<g id="a_edge17_Node000003_Node000018"><a xlink:title=" ">
<path fill="none" stroke="#63b8ff" d="M520.14,-437.79C484.79,-386.3 389.7,-247.79 363.27,-209.29"/>
<polygon fill="#63b8ff" stroke="#63b8ff" points="517.15,-439.63 525.7,-445.89 522.93,-435.66 517.15,-439.63"/>
</a>
</g>
</g>
<!-- Node25 -->
<g id="Node000025" class="node">
<title>Node25</title>
<g id="a_Node000025"><a xlink:href="a00445.xhtml#a6f224e4c8747de2787fd0f1ac4eb276a" target="_top" xlink:title=" ">
<polygon fill="white" stroke="#666666" points="412.88,-171.88 297.88,-171.88 297.88,-152.62 412.88,-152.62 412.88,-171.88"/>
<text text-anchor="middle" x="355.38" y="-158.38" font-family="Helvetica,sans-Serif" font-size="10.00">CAudioFileIf::operator=</text>
</a>
</g>
</g>
<!-- Node3&#45;&gt;Node25 -->
<g id="edge25_Node000003_Node000025" class="edge">
<title>Node3&#45;&gt;Node25</title>
<g id="a_edge25_Node000003_Node000025"><a xlink:title=" ">
<path fill="none" stroke="#63b8ff" d="M532.57,-435.97C529.11,-383.91 512.69,-249.37 435,-180.25 428.72,-174.67 421.07,-170.71 413.03,-167.93"/>
<polygon fill="#63b8ff" stroke="#63b8ff" points="529.07,-436.04 533.12,-445.83 536.06,-435.65 529.07,-436.04"/>
</a>
</g>
</g>
<!-- Node6 -->
<g id="Node000006" class="node">
<title>Node6</title>
<g id="a_Node000006"><a xlink:href="a00437.xhtml#a47a3f1072e430179e1479fbb52826694" target="_top" xlink:title=" ">
<polygon fill="white" stroke="#666666" points="233.38,-644.88 79.38,-644.88 79.38,-625.62 233.38,-625.62 233.38,-644.88"/>
<text text-anchor="middle" x="156.38" y="-631.38" font-family="Helvetica,sans-Serif" font-size="10.00">CAudioFileRaw::CAudioFileRaw</text>
</a>
</g>
</g>
<!-- Node5&#45;&gt;Node6 -->
<g id="edge5_Node000005_Node000006" class="edge">
<title>Node5&#45;&gt;Node6</title>
<g id="a_edge5_Node000005_Node000006"><a xlink:title=" ">
<path fill="none" stroke="#63b8ff" d="M282.34,-558.17C280.06,-559.42 277.85,-560.78 275.75,-562.25 252.11,-578.77 263.48,-599.85 239.75,-616.25 234.56,-619.84 228.79,-622.76 222.78,-625.13"/>
<polygon fill="#63b8ff" stroke="#63b8ff" points="283.79,-561.36 291.37,-553.96 280.83,-555.01 283.79,-561.36"/>
</a>
</g>
</g>
<!-- Node8 -->
<g id="Node000008" class="node">
<title>Node8</title>
<g id="a_Node000008"><a xlink:href="a00441.xhtml#a174aef5a852d00756f6d2ced014beca2" target="_top" xlink:title=" ">
<polygon fill="white" stroke="#666666" points="221.38,-607.5 91.38,-607.5 91.38,-577 221.38,-577 221.38,-607.5"/>
<text text-anchor="start" x="99.38" y="-594" font-family="Helvetica,sans-Serif" font-size="10.00">CAudioFileSndLib::CAudio</text>
<text text-anchor="middle" x="156.38" y="-582.75" font-family="Helvetica,sans-Serif" font-size="10.00">FileSndLib</text>
</a>
</g>
</g>
<!-- Node7&#45;&gt;Node8 -->
<g id="edge7_Node000007_Node000008" class="edge">
<title>Node7&#45;&gt;Node8</title>
<g id="a_edge7_Node000007_Node000008"><a xlink:title=" ">
<path fill="none" stroke="#63b8ff" d="M280.78,-521.11C279.06,-522.11 277.38,-523.16 275.75,-524.25 254.76,-538.32 260.83,-554.31 239.75,-568.25 234.16,-571.95 227.99,-575.09 221.61,-577.75"/>
<polygon fill="#63b8ff" stroke="#63b8ff" points="282.37,-524.23 289.69,-516.57 279.19,-518 282.37,-524.23"/>
</a>
</g>
</g>
<!-- Node10 -->
<g id="Node000010" class="node">
<title>Node10</title>
<g id="a_Node000010"><a xlink:href="a00313.xhtml#a6df404d2eb3d4c8f9dc2071930fc9e7e" target="_top" xlink:title=" ">
<polygon fill="white" stroke="#666666" points="237.12,-472.88 75.62,-472.88 75.62,-453.62 237.12,-453.62 237.12,-472.88"/>
<text text-anchor="middle" x="156.38" y="-459.38" font-family="Helvetica,sans-Serif" font-size="10.00">CChordFromFile::CChordFromFile</text>
</a>
</g>
</g>
<!-- Node9&#45;&gt;Node10 -->
<g id="edge9_Node000009_Node000010" class="edge">
<title>Node9&#45;&gt;Node10</title>
<g id="a_edge9_Node000009_Node000010"><a xlink:title=" ">
<path fill="none" stroke="#63b8ff" d="M297.12,-432.75C267.4,-439.23 231.56,-447.06 203.61,-453.16"/>
<polygon fill="#63b8ff" stroke="#63b8ff" points="297.68,-436.21 306.71,-430.65 296.19,-429.37 297.68,-436.21"/>
</a>
</g>
</g>
<!-- Node11 -->
<g id="Node000011" class="node">
<title>Node11</title>
<g id="a_Node000011"><a xlink:href="a00321.xhtml#abdd90edbfe131bcd181d9ffac77fab8e" target="_top" xlink:title=" ">
<polygon fill="white" stroke="#666666" points="225.5,-435.5 87.25,-435.5 87.25,-405 225.5,-405 225.5,-435.5"/>
<text text-anchor="start" x="95.25" y="-422" font-family="Helvetica,sans-Serif" font-size="10.00">CFeatureFromFile::CFeature</text>
<text text-anchor="middle" x="156.38" y="-410.75" font-family="Helvetica,sans-Serif" font-size="10.00">FromFile</text>
</a>
</g>
</g>
<!-- Node9&#45;&gt;Node11 -->
<g id="edge10_Node000009_Node000011" class="edge">
<title>Node9&#45;&gt;Node11</title>
<g id="a_edge10_Node000009_Node000011"><a xlink:title=" ">
<path fill="none" stroke="#63b8ff" d="M293.39,-420.25C271.94,-420.25 247.69,-420.25 225.67,-420.25"/>
<polygon fill="#63b8ff" stroke="#63b8ff" points="293.15,-423.75 303.15,-420.25 293.15,-416.75 293.15,-423.75"/>
</a>
</g>
</g>
<!-- Node12 -->
<g id="Node000012" class="node">
<title>Node12</title>
<g id="a_Node000012"><a xlink:href="a00425.xhtml#aec7867658e2991c8526c78666c960920" target="_top" xlink:title=" ">
<polygon fill="white" stroke="#666666" points="222.88,-386.5 89.88,-386.5 89.88,-356 222.88,-356 222.88,-386.5"/>
<text text-anchor="start" x="97.88" y="-373" font-family="Helvetica,sans-Serif" font-size="10.00">CGammaToneFbFromFile</text>
<text text-anchor="middle" x="156.38" y="-361.75" font-family="Helvetica,sans-Serif" font-size="10.00">::CGammaToneFbFromFile</text>
</a>
</g>
</g>
<!-- Node9&#45;&gt;Node12 -->
<g id="edge11_Node000009_Node000012" class="edge">
<title>Node9&#45;&gt;Node12</title>
<g id="a_edge11_Node000009_Node000012"><a xlink:title=" ">
<path fill="none" stroke="#63b8ff" d="M302.87,-407.44C277.68,-401.17 247.14,-393.58 220.55,-386.96"/>
<polygon fill="#63b8ff" stroke="#63b8ff" points="302.02,-410.83 312.56,-409.85 303.71,-404.04 302.02,-410.83"/>
</a>
</g>
</g>
<!-- Node13 -->
<g id="Node000013" class="node">
<title>Node13</title>
<g id="a_Node000013"><a xlink:href="a00365.xhtml#a0247bb6d1818b840d1182d5ee50214d5" target="_top" xlink:title=" ">
<polygon fill="white" stroke="#666666" points="225.5,-337.5 87.25,-337.5 87.25,-307 225.5,-307 225.5,-337.5"/>
<text text-anchor="start" x="95.25" y="-324" font-family="Helvetica,sans-Serif" font-size="10.00">CNoveltyFromFile::CNovelty</text>
<text text-anchor="middle" x="156.38" y="-312.75" font-family="Helvetica,sans-Serif" font-size="10.00">FromFile</text>
</a>
</g>
</g>
<!-- Node9&#45;&gt;Node13 -->
<g id="edge12_Node000009_Node000013" class="edge">
<title>Node9&#45;&gt;Node13</title>
<g id="a_edge12_Node000009_Node000013"><a xlink:title=" ">
<path fill="none" stroke="#63b8ff" d="M332.03,-403.41C309.66,-387.19 273.77,-362.89 239.75,-347.25 232.28,-343.82 224.22,-340.7 216.16,-337.93"/>
<polygon fill="#63b8ff" stroke="#63b8ff" points="329.95,-406.22 340.08,-409.33 334.1,-400.58 329.95,-406.22"/>
</a>
</g>
</g>
<!-- Node14 -->
<g id="Node000014" class="node">
<title>Node14</title>
<g id="a_Node000014"><a xlink:href="a00373.xhtml#ab74f454ce0bbdccd22a38066ce26b16a" target="_top" xlink:title=" ">
<polygon fill="white" stroke="#666666" points="234.12,-558.88 78.62,-558.88 78.62,-539.62 234.12,-539.62 234.12,-558.88"/>
<text text-anchor="middle" x="156.38" y="-545.38" font-family="Helvetica,sans-Serif" font-size="10.00">CPitchFromFile::CPitchFromFile</text>
</a>
</g>
</g>
<!-- Node9&#45;&gt;Node14 -->
<g id="edge13_Node000009_Node000014" class="edge">
<title>Node9&#45;&gt;Node14</title>
<g id="a_edge13_Node000009_Node000014"><a xlink:title=" ">
<path fill="none" stroke="#63b8ff" d="M294.09,-427.49C287.42,-430.13 281.11,-433.63 275.75,-438.25 242.49,-466.92 272.98,-501.55 239.75,-530.25 235.53,-533.89 230.75,-536.88 225.66,-539.31"/>
<polygon fill="#63b8ff" stroke="#63b8ff" points="294.92,-430.9 303.35,-424.49 292.76,-424.25 294.92,-430.9"/>
</a>
</g>
</g>
<!-- Node15 -->
<g id="Node000015" class="node">
<title>Node15</title>
<g id="a_Node000015"><a xlink:href="a00405.xhtml#aeac8291805613de79ed584829d3d5f30" target="_top" xlink:title=" ">
<polygon fill="white" stroke="#666666" points="216.88,-521.5 95.88,-521.5 95.88,-491 216.88,-491 216.88,-521.5"/>
<text text-anchor="start" x="103.88" y="-508" font-family="Helvetica,sans-Serif" font-size="10.00">CSpectrogramFromFile</text>
<text text-anchor="middle" x="156.38" y="-496.75" font-family="Helvetica,sans-Serif" font-size="10.00">::CSpectrogramFromFile</text>
</a>
</g>
</g>
<!-- Node9&#45;&gt;Node15 -->
<g id="edge14_Node000009_Node000015" class="edge">
<title>Node9&#45;&gt;Node15</title>
<g id="a_edge14_Node000009_Node000015"><a xlink:title=" ">
<path fill="none" stroke="#63b8ff" d="M293.82,-429.75C287.47,-432.01 281.32,-434.8 275.75,-438.25 254.28,-451.57 260.83,-468.31 239.75,-482.25 232.92,-486.77 225.22,-490.45 217.34,-493.46"/>
<polygon fill="#63b8ff" stroke="#63b8ff" points="294.63,-433.16 303.16,-426.88 292.57,-426.47 294.63,-433.16"/>
</a>
</g>
</g>
<!-- Node16 -->
<g id="Node000016" class="node">
<title>Node16</title>
<g id="a_Node000016"><a xlink:href="a00557.xhtml#ab79f4706d42b250f36c91cfd075bc8df" target="_top" xlink:title=" ">
<polygon fill="white" stroke="#666666" points="199.25,-288.88 113.5,-288.88 113.5,-269.62 199.25,-269.62 199.25,-288.88"/>
<text text-anchor="middle" x="156.38" y="-275.38" font-family="Helvetica,sans-Serif" font-size="10.00">CFingerprint::init</text>
</a>
</g>
</g>
<!-- Node9&#45;&gt;Node16 -->
<g id="edge15_Node000009_Node000016" class="edge">
<title>Node9&#45;&gt;Node16</title>
<g id="a_edge15_Node000009_Node000016"><a xlink:title=" ">
<path fill="none" stroke="#63b8ff" d="M341.78,-400.87C322.97,-373.55 284.88,-324.19 239.75,-298.25 227.53,-291.23 212.9,-286.8 199.37,-284.01"/>
<polygon fill="#63b8ff" stroke="#63b8ff" points="338.7,-402.55 347.18,-408.9 344.51,-398.65 338.7,-402.55"/>
</a>
</g>
</g>
<!-- Node17 -->
<g id="Node000017" class="node">
<title>Node17</title>
<g id="a_Node000017"><a xlink:href="a00122.xhtml#a0ddf1224851353fc92bfbff6f499fa97" target="_top" xlink:title=" ">
<polygon fill="white" stroke="#666666" points="37,-288.88 0,-288.88 0,-269.62 37,-269.62 37,-288.88"/>
<text text-anchor="middle" x="18.5" y="-275.38" font-family="Helvetica,sans-Serif" font-size="10.00">main</text>
</a>
</g>
</g>
<!-- Node16&#45;&gt;Node17 -->
<g id="edge16_Node000016_Node000017" class="edge">
<title>Node16&#45;&gt;Node17</title>
<g id="a_edge16_Node000016_Node000017"><a xlink:title=" ">
<path fill="none" stroke="#63b8ff" d="M101.75,-279.25C78.8,-279.25 53.57,-279.25 37.18,-279.25"/>
<polygon fill="#63b8ff" stroke="#63b8ff" points="101.61,-282.75 111.61,-279.25 101.61,-275.75 101.61,-282.75"/>
</a>
</g>
</g>
<!-- Node18&#45;&gt;Node16 -->
<g id="edge18_Node000018_Node000016" class="edge">
<title>Node18&#45;&gt;Node16</title>
<g id="a_edge18_Node000018_Node000016"><a xlink:title=" ">
<path fill="none" stroke="#63b8ff" d="M329.62,-215.3C307.03,-229.28 272.31,-249.16 239.75,-261.25 226.99,-265.99 212.63,-269.66 199.51,-272.41"/>
<polygon fill="#63b8ff" stroke="#63b8ff" points="331.21,-218.43 337.81,-210.14 327.48,-212.51 331.21,-218.43"/>
</a>
</g>
</g>
<!-- Node19 -->
<g id="Node000019" class="node">
<title>Node19</title>
<g id="a_Node000019"><a xlink:href="a00313.xhtml#aaf59366cfac9de62c1336c73ec45a767" target="_top" xlink:title=" ">
<polygon fill="white" stroke="#666666" points="239.75,-165.88 73,-165.88 73,-146.62 239.75,-146.62 239.75,-165.88"/>
<text text-anchor="middle" x="156.38" y="-152.38" font-family="Helvetica,sans-Serif" font-size="10.00">CChordFromFile::~CChordFromFile</text>
</a>
</g>
</g>
<!-- Node18&#45;&gt;Node19 -->
<g id="edge19_Node000018_Node000019" class="edge">
<title>Node18&#45;&gt;Node19</title>
<g id="a_edge19_Node000018_Node000019"><a xlink:title=" ">
<path fill="none" stroke="#63b8ff" d="M297.12,-186.75C267.4,-180.27 231.56,-172.44 203.61,-166.34"/>
<polygon fill="#63b8ff" stroke="#63b8ff" points="296.19,-190.13 306.71,-188.85 297.68,-183.29 296.19,-190.13"/>
</a>
</g>
</g>
<!-- Node20 -->
<g id="Node000020" class="node">
<title>Node20</title>
<g id="a_Node000020"><a xlink:href="a00321.xhtml#afb353d0d979c87299f116cf68dad722d" target="_top" xlink:title=" ">
<polygon fill="white" stroke="#666666" points="206,-128.5 106.75,-128.5 106.75,-98 206,-98 206,-128.5"/>
<text text-anchor="start" x="114.75" y="-115" font-family="Helvetica,sans-Serif" font-size="10.00">CFeatureFromFile::</text>
<text text-anchor="middle" x="156.38" y="-103.75" font-family="Helvetica,sans-Serif" font-size="10.00">~CFeatureFromFile</text>
</a>
</g>
</g>
<!-- Node18&#45;&gt;Node20 -->
<g id="edge20_Node000018_Node000020" class="edge">
<title>Node18&#45;&gt;Node20</title>
<g id="a_edge20_Node000018_Node000020"><a xlink:title=" ">
<path fill="none" stroke="#63b8ff" d="M291.66,-188.96C286.08,-186.85 280.68,-184.31 275.75,-181.25 254.28,-167.93 260.83,-151.19 239.75,-137.25 229.69,-130.59 217.74,-125.75 206.12,-122.23"/>
<polygon fill="#63b8ff" stroke="#63b8ff" points="290.51,-192.26 301.1,-192.04 292.68,-185.61 290.51,-192.26"/>
</a>
</g>
</g>
<!-- Node21 -->
<g id="Node000021" class="node">
<title>Node21</title>
<g id="a_Node000021"><a xlink:href="a00425.xhtml#a28f040b3b8c652cb30fd1bc9be847211" target="_top" xlink:title=" ">
<polygon fill="white" stroke="#666666" points="225.5,-79.5 87.25,-79.5 87.25,-49 225.5,-49 225.5,-79.5"/>
<text text-anchor="start" x="95.25" y="-66" font-family="Helvetica,sans-Serif" font-size="10.00">CGammaToneFbFromFile</text>
<text text-anchor="middle" x="156.38" y="-54.75" font-family="Helvetica,sans-Serif" font-size="10.00">::~CGammaToneFbFromFile</text>
</a>
</g>
</g>
<!-- Node18&#45;&gt;Node21 -->
<g id="edge21_Node000018_Node000021" class="edge">
<title>Node18&#45;&gt;Node21</title>
<g id="a_edge21_Node000018_Node000021"><a xlink:title=" ">
<path fill="none" stroke="#63b8ff" d="M291.67,-191C285.89,-188.5 280.46,-185.31 275.75,-181.25 242.49,-152.58 271.99,-119.06 239.75,-89.25 235.58,-85.39 230.83,-82.13 225.77,-79.37"/>
<polygon fill="#63b8ff" stroke="#63b8ff" points="290.32,-194.24 300.91,-194.3 292.67,-187.64 290.32,-194.24"/>
</a>
</g>
</g>
<!-- Node22 -->
<g id="Node000022" class="node">
<title>Node22</title>
<g id="a_Node000022"><a xlink:href="a00365.xhtml#a5d9abf4513901cb6dfdb32a61bbb2880" target="_top" xlink:title=" ">
<polygon fill="white" stroke="#666666" points="206,-30.5 106.75,-30.5 106.75,0 206,0 206,-30.5"/>
<text text-anchor="start" x="114.75" y="-17" font-family="Helvetica,sans-Serif" font-size="10.00">CNoveltyFromFile::</text>
<text text-anchor="middle" x="156.38" y="-5.75" font-family="Helvetica,sans-Serif" font-size="10.00">~CNoveltyFromFile</text>
</a>
</g>
</g>
<!-- Node18&#45;&gt;Node22 -->
<g id="edge22_Node000018_Node000022" class="edge">
<title>Node18&#45;&gt;Node22</title>
<g id="a_edge22_Node000018_Node000022"><a xlink:title=" ">
<path fill="none" stroke="#63b8ff" d="M292.06,-192C286.04,-189.33 280.44,-185.82 275.75,-181.25 229.45,-136.09 284.45,-86.99 239.75,-40.25 230.87,-30.96 218.66,-25.09 206.36,-21.39"/>
<polygon fill="#63b8ff" stroke="#63b8ff" points="290.48,-195.15 301.08,-195.24 292.85,-188.56 290.48,-195.15"/>
</a>
</g>
</g>
<!-- Node23 -->
<g id="Node000023" class="node">
<title>Node23</title>
<g id="a_Node000023"><a xlink:href="a00373.xhtml#a6c446615ac9fff3378654e33cb66430b" target="_top" xlink:title=" ">
<polygon fill="white" stroke="#666666" points="236.75,-251.88 76,-251.88 76,-232.62 236.75,-232.62 236.75,-251.88"/>
<text text-anchor="middle" x="156.38" y="-238.38" font-family="Helvetica,sans-Serif" font-size="10.00">CPitchFromFile::~CPitchFromFile</text>
</a>
</g>
</g>
<!-- Node18&#45;&gt;Node23 -->
<g id="edge23_Node000018_Node000023" class="edge">
<title>Node18&#45;&gt;Node23</title>
<g id="a_edge23_Node000018_Node000023"><a xlink:title=" ">
<path fill="none" stroke="#63b8ff" d="M297.12,-211.75C267.4,-218.23 231.56,-226.06 203.61,-232.16"/>
<polygon fill="#63b8ff" stroke="#63b8ff" points="297.68,-215.21 306.71,-209.65 296.19,-208.37 297.68,-215.21"/>
</a>
</g>
</g>
<!-- Node24 -->
<g id="Node000024" class="node">
<title>Node24</title>
<g id="a_Node000024"><a xlink:href="a00405.xhtml#adad2283c6914dad1fadb8f6757215a6d" target="_top" xlink:title=" ">
<polygon fill="white" stroke="#666666" points="219.5,-214.5 93.25,-214.5 93.25,-184 219.5,-184 219.5,-214.5"/>
<text text-anchor="start" x="101.25" y="-201" font-family="Helvetica,sans-Serif" font-size="10.00">CSpectrogramFromFile</text>
<text text-anchor="middle" x="156.38" y="-189.75" font-family="Helvetica,sans-Serif" font-size="10.00">::~CSpectrogramFromFile</text>
</a>
</g>
</g>
<!-- Node18&#45;&gt;Node24 -->
<g id="edge24_Node000018_Node000024" class="edge">
<title>Node18&#45;&gt;Node24</title>
<g id="a_edge24_Node000018_Node000024"><a xlink:title=" ">
<path fill="none" stroke="#63b8ff" d="M291.08,-199.25C268.29,-199.25 242.59,-199.25 219.87,-199.25"/>
<polygon fill="#63b8ff" stroke="#63b8ff" points="290.84,-202.75 300.84,-199.25 290.84,-195.75 290.84,-202.75"/>
</a>
</g>
</g>
<!-- Node26&#45;&gt;Node5 -->
<g id="edge27_Node000026_Node000005" class="edge">
<title>Node26&#45;&gt;Node5</title>
<g id="a_edge27_Node000026_Node000005"><a xlink:title=" ">
<path fill="none" stroke="#63b8ff" d="M503.69,-591.22C484.45,-581.94 458.67,-570.32 435,-562.25 425.16,-558.9 414.44,-555.89 404.18,-553.32"/>
<polygon fill="#63b8ff" stroke="#63b8ff" points="502.05,-594.31 512.57,-595.56 505.13,-588.02 502.05,-594.31"/>
</a>
</g>
</g>
<!-- Node26&#45;&gt;Node7 -->
<g id="edge28_Node000026_Node000007" class="edge">
<title>Node26&#45;&gt;Node7</title>
<g id="a_edge28_Node000026_Node000007"><a xlink:title=" ">
<path fill="none" stroke="#63b8ff" d="M516.09,-587.98C497.57,-569.52 466.63,-541.33 435,-524.25 429.22,-521.13 422.98,-518.36 416.64,-515.91"/>
<polygon fill="#63b8ff" stroke="#63b8ff" points="513.57,-590.41 523.07,-595.09 518.57,-585.51 513.57,-590.41"/>
</a>
</g>
</g>
<!-- Node26&#45;&gt;Node27 -->
<g id="edge29_Node000026_Node000027" class="edge">
<title>Node26&#45;&gt;Node27</title>
<g id="a_edge29_Node000026_Node000027"><a xlink:title=" ">
<path fill="none" stroke="#63b8ff" d="M516.19,-624.27C497.75,-642.41 466.88,-669.83 435,-685.25 428.44,-688.42 421.31,-691.05 414.1,-693.22"/>
<polygon fill="#63b8ff" stroke="#63b8ff" points="518.57,-626.85 523.13,-617.29 513.6,-621.92 518.57,-626.85"/>
</a>
</g>
</g>
<!-- Node26&#45;&gt;Node28 -->
<g id="edge30_Node000026_Node000028" class="edge">
<title>Node26&#45;&gt;Node28</title>
<g id="a_edge30_Node000026_Node000028"><a xlink:title=" ">
<path fill="none" stroke="#63b8ff" d="M502.55,-621.13C483.42,-629.9 458.17,-640.73 435,-648.25 425.94,-651.19 416.15,-653.84 406.65,-656.14"/>
<polygon fill="#63b8ff" stroke="#63b8ff" points="503.82,-624.4 511.41,-617.01 500.86,-618.05 503.82,-624.4"/>
</a>
</g>
</g>
<!-- Node29 -->
<g id="Node000029" class="node">
<title>Node29</title>
<g id="a_Node000029"><a xlink:href="a00437.xhtml#a364e7c7ea00669a797e2b537eb2671f3" target="_top" xlink:title=" ">
<polygon fill="white" stroke="#666666" points="435,-638.88 275.75,-638.88 275.75,-619.62 435,-619.62 435,-638.88"/>
<text text-anchor="middle" x="355.38" y="-625.38" font-family="Helvetica,sans-Serif" font-size="10.00">CAudioFileRaw::~CAudioFileRaw</text>
</a>
</g>
</g>
<!-- Node26&#45;&gt;Node29 -->
<g id="edge31_Node000026_Node000029" class="edge">
<title>Node26&#45;&gt;Node29</title>
<g id="a_edge31_Node000026_Node000029"><a xlink:title=" ">
<path fill="none" stroke="#63b8ff" d="M475.23,-613.82C462.07,-615.52 447.9,-617.36 434.09,-619.16"/>
<polygon fill="#63b8ff" stroke="#63b8ff" points="475.53,-617.31 485,-612.55 474.63,-610.37 475.53,-617.31"/>
</a>
</g>
</g>
<!-- Node30 -->
<g id="Node000030" class="node">
<title>Node30</title>
<g id="a_Node000030"><a xlink:href="a00441.xhtml#a76a7d86e45b95f261d505fddb522f9f6" target="_top" xlink:title=" ">
<polygon fill="white" stroke="#666666" points="405,-601.5 305.75,-601.5 305.75,-571 405,-571 405,-601.5"/>
<text text-anchor="start" x="313.75" y="-588" font-family="Helvetica,sans-Serif" font-size="10.00">CAudioFileSndLib::</text>
<text text-anchor="middle" x="355.38" y="-576.75" font-family="Helvetica,sans-Serif" font-size="10.00">~CAudioFileSndLib</text>
</a>
</g>
</g>
<!-- Node26&#45;&gt;Node30 -->
<g id="edge32_Node000026_Node000030" class="edge">
<title>Node26&#45;&gt;Node30</title>
<g id="a_edge32_Node000026_Node000030"><a xlink:title=" ">
<path fill="none" stroke="#63b8ff" d="M475.33,-599.68C452.72,-597.13 427.11,-594.24 405.45,-591.79"/>
<polygon fill="#63b8ff" stroke="#63b8ff" points="474.67,-603.13 484.99,-600.77 475.45,-596.17 474.67,-603.13"/>
</a>
</g>
</g>
</g>
</svg>

<g id="navigator" transform="translate(0 0)" fill="#404254">
  <rect fill="#f2f5e9" fill-opacity="0.5" stroke="#606060" stroke-width=".5" x="0" y="0" width="60" height="60"/>
  <use id="zoomplus" xlink:href="#zoomPlus" x="17" y="9" onmousedown="handleZoom(evt,'in')"/>
  <use id="zoomminus" xlink:href="#zoomMin" x="42" y="9" onmousedown="handleZoom(evt,'out')"/>
  <use id="reset" xlink:href="#resetDef" x="30" y="36" onmousedown="handleReset()"/>
   <use id="arrowup" xlink:href="#arrowUp" x="0" y="0" onmousedown="handlePan(0,-1)"/>
  <use id="arrowright" xlink:href="#arrowRight" x="0" y="0" onmousedown="handlePan(1,0)"/>
  <use id="arrowdown" xlink:href="#arrowDown" x="0" y="0" onmousedown="handlePan(0,1)"/>
  <use id="arrowleft" xlink:href="#arrowLeft" x="0" y="0" onmousedown="handlePan(-1,0)"/>
</g>
<svg viewBox="0 0 15 15" width="100%" height="30px" preserveAspectRatio="xMaxYMin meet">
 <g id="arrow_out" transform="scale(0.3 0.3)">
  <a xlink:href="a00445_ada0ab1ffd0666fdc0db872ca7f8a309f_icgraph_org.svg" target="_base">
   <rect id="button" ry="5" rx="5" y="6" x="6" height="38" width="38"
        fill="#f2f5e9" fill-opacity="0.5" stroke="#606060" stroke-width="1.0"/>
   <path id="arrow"
     d="M 11.500037,31.436501 C 11.940474,20.09759 22.043105,11.32322 32.158766,21.979434 L 37.068811,17.246167 C 37.068811,17.246167 37.088388,32 37.088388,32 L 22.160133,31.978069 C 22.160133,31.978069 26.997745,27.140456 26.997745,27.140456 C 18.528582,18.264221 13.291696,25.230495 11.500037,31.436501 z"
     style="fill:#404040;"/>
  </a>
 </g>
</svg>

<style type='text/css'>
<![CDATA[
[data-mouse-over-selected='false'] { opacity: 0.7; }
[data-mouse-over-selected='true']  { opacity: 1.0; }
]]>
</style>
<script type="application/ecmascript"><![CDATA[
document.addEventListener('DOMContentLoaded', (event) => {
  highlightEdges();
  highlightAdjacentNodes();
});
]]></script>
</svg>
