<?xml version="1.0" encoding="UTF-8" standalone="no"?>
<!DOCTYPE svg PUBLIC "-//W3C//DTD SVG 1.1//EN"
 "http://www.w3.org/Graphics/SVG/1.1/DTD/svg11.dtd">
<!-- Generated by graphviz version 12.2.1 (20241206.2353)
 -->
<!-- Title: CAudioFileSndLib::CAudioFileSndLib Pages: 1 -->
<svg width="802pt" height="150pt"
 viewBox="0.00 0.00 802.00 149.88" xmlns="http://www.w3.org/2000/svg" xmlns:xlink="http://www.w3.org/1999/xlink">
<g id="graph0" class="graph" transform="scale(1 1) rotate(0) translate(4 145.88)">
<title>CAudioFileSndLib::CAudioFileSndLib</title>
<!-- Node1 -->
<g id="Node000001" class="node">
<title>Node1</title>
<g id="a_Node000001"><a xlink:title=" ">
<polygon fill="#999999" stroke="#666666" points="130,-79.88 0,-79.88 0,-49.38 130,-49.38 130,-79.88"/>
<text text-anchor="start" x="8" y="-66.38" font-family="Helvetica,sans-Serif" font-size="10.00">CAudioFileSndLib::CAudio</text>
<text text-anchor="middle" x="65" y="-55.12" font-family="Helvetica,sans-Serif" font-size="10.00">FileSndLib</text>
</a>
</g>
</g>
<!-- Node2 -->
<g id="Node000002" class="node">
<title>Node2</title>
<g id="a_Node000002"><a xlink:href="a00441.xhtml#a19d560f47dbefd7e32ace506f62667ed" target="_top" xlink:title=" ">
<polygon fill="white" stroke="#666666" points="296,-79.88 166,-79.88 166,-49.38 296,-49.38 296,-79.88"/>
<text text-anchor="start" x="174" y="-66.38" font-family="Helvetica,sans-Serif" font-size="10.00">CAudioFileSndLib::CAudio</text>
<text text-anchor="middle" x="231" y="-55.12" font-family="Helvetica,sans-Serif" font-size="10.00">FileSndLib</text>
</a>
</g>
</g>
<!-- Node1&#45;&gt;Node2 -->
<g id="edge1_Node000001_Node000002" class="edge">
<title>Node1&#45;&gt;Node2</title>
<g id="a_edge1_Node000001_Node000002"><a xlink:title=" ">
<path fill="none" stroke="#63b8ff" d="M130.35,-64.62C138.21,-64.62 146.31,-64.62 154.33,-64.62"/>
<polygon fill="#63b8ff" stroke="#63b8ff" points="154.06,-68.13 164.06,-64.63 154.06,-61.13 154.06,-68.13"/>
</a>
</g>
</g>
<!-- Node3 -->
<g id="Node000003" class="node">
<title>Node3</title>
<g id="a_Node000003"><a xlink:href="a00445.xhtml#a303a350a95e8af4cfbaaf61c1274b790" target="_top" xlink:title=" ">
<polygon fill="white" stroke="#666666" points="459,-93.25 332,-93.25 332,-74 459,-74 459,-93.25"/>
<text text-anchor="middle" x="395.5" y="-79.75" font-family="Helvetica,sans-Serif" font-size="10.00">CAudioFileIf::CAudioFileIf</text>
</a>
</g>
</g>
<!-- Node2&#45;&gt;Node3 -->
<g id="edge2_Node000002_Node000003" class="edge">
<title>Node2&#45;&gt;Node3</title>
<g id="a_edge2_Node000002_Node000003"><a xlink:title=" ">
<path fill="none" stroke="#63b8ff" d="M296.22,-72.13C304.12,-73.06 312.25,-74.01 320.28,-74.95"/>
<polygon fill="#63b8ff" stroke="#63b8ff" points="319.7,-78.4 330.04,-76.09 320.51,-71.45 319.7,-78.4"/>
</a>
</g>
</g>
<!-- Node8 -->
<g id="Node000008" class="node">
<title>Node8</title>
<g id="a_Node000008"><a xlink:href="a00445.xhtml#afd69456f1bc1e58632348f8ac9b70aa1" target="_top" xlink:title=" ">
<polygon fill="white" stroke="#666666" points="443.25,-56.25 347.75,-56.25 347.75,-37 443.25,-37 443.25,-56.25"/>
<text text-anchor="middle" x="395.5" y="-42.75" font-family="Helvetica,sans-Serif" font-size="10.00">CAudioFileIf::reset</text>
</a>
</g>
</g>
<!-- Node2&#45;&gt;Node8 -->
<g id="edge7_Node000002_Node000008" class="edge">
<title>Node2&#45;&gt;Node8</title>
<g id="a_edge7_Node000002_Node000008"><a xlink:title=" ">
<path fill="none" stroke="#63b8ff" d="M296.22,-57.51C309.4,-56.05 323.2,-54.52 336.15,-53.09"/>
<polygon fill="#63b8ff" stroke="#63b8ff" points="336.22,-56.6 345.78,-52.02 335.45,-49.64 336.22,-56.6"/>
</a>
</g>
</g>
<!-- Node4 -->
<g id="Node000004" class="node">
<title>Node4</title>
<g id="a_Node000004"><a xlink:href="a00445.xhtml#a9fcdd386ee5292b5a971c7077858274c" target="_top" xlink:title=" ">
<polygon fill="white" stroke="#666666" points="623.88,-93.25 496.12,-93.25 496.12,-74 623.88,-74 623.88,-93.25"/>
<text text-anchor="middle" x="560" y="-79.75" font-family="Helvetica,sans-Serif" font-size="10.00">CAudioFileIf::initDefaults_</text>
</a>
</g>
</g>
<!-- Node3&#45;&gt;Node4 -->
<g id="edge3_Node000003_Node000004" class="edge">
<title>Node3&#45;&gt;Node4</title>
<g id="a_edge3_Node000003_Node000004"><a xlink:title=" ">
<path fill="none" stroke="#63b8ff" d="M459.33,-83.62C467.55,-83.62 476.05,-83.62 484.45,-83.62"/>
<polygon fill="#63b8ff" stroke="#63b8ff" points="484.29,-87.13 494.29,-83.63 484.29,-80.13 484.29,-87.13"/>
</a>
</g>
</g>
<!-- Node5 -->
<g id="Node000005" class="node">
<title>Node5</title>
<g id="a_Node000005"><a xlink:href="a00445.xhtml#a5a74fd1730a2f0f7339b6507ca7abc23" target="_top" xlink:title=" ">
<polygon fill="white" stroke="#666666" points="788.38,-141.88 666.62,-141.88 666.62,-111.38 788.38,-111.38 788.38,-141.88"/>
<text text-anchor="start" x="674.62" y="-128.38" font-family="Helvetica,sans-Serif" font-size="10.00">CAudioFileIf::setClipping</text>
<text text-anchor="middle" x="727.5" y="-117.12" font-family="Helvetica,sans-Serif" font-size="10.00">Enabled</text>
</a>
</g>
</g>
<!-- Node4&#45;&gt;Node5 -->
<g id="edge4_Node000004_Node000005" class="edge">
<title>Node4&#45;&gt;Node5</title>
<g id="a_edge4_Node000004_Node000005"><a xlink:title=" ">
<path fill="none" stroke="#63b8ff" d="M599.8,-93.71C616.33,-98 636.16,-103.15 655.17,-108.09"/>
<polygon fill="#63b8ff" stroke="#63b8ff" points="654.22,-111.46 664.77,-110.59 655.98,-104.69 654.22,-111.46"/>
</a>
</g>
</g>
<!-- Node6 -->
<g id="Node000006" class="node">
<title>Node6</title>
<g id="a_Node000006"><a xlink:href="a00445.xhtml#ada0ab1ffd0666fdc0db872ca7f8a309f" target="_top" xlink:title=" ">
<polygon fill="white" stroke="#666666" points="794,-93.25 661,-93.25 661,-74 794,-74 794,-93.25"/>
<text text-anchor="middle" x="727.5" y="-79.75" font-family="Helvetica,sans-Serif" font-size="10.00">CAudioFileIf::setInitialized_</text>
</a>
</g>
</g>
<!-- Node4&#45;&gt;Node6 -->
<g id="edge5_Node000004_Node000006" class="edge">
<title>Node4&#45;&gt;Node6</title>
<g id="a_edge5_Node000004_Node000006"><a xlink:title=" ">
<path fill="none" stroke="#63b8ff" d="M624.04,-83.62C632.27,-83.62 640.77,-83.62 649.2,-83.62"/>
<polygon fill="#63b8ff" stroke="#63b8ff" points="649.1,-87.13 659.1,-83.63 649.1,-80.13 649.1,-87.13"/>
</a>
</g>
</g>
<!-- Node7 -->
<g id="Node000007" class="node">
<title>Node7</title>
<g id="a_Node000007"><a xlink:href="a00445.xhtml#a6ccc53d8d2c5113b5b2cba604e8a4510" target="_top" xlink:title=" ">
<polygon fill="white" stroke="#666666" points="788.38,-56.25 666.62,-56.25 666.62,-37 788.38,-37 788.38,-56.25"/>
<text text-anchor="middle" x="727.5" y="-42.75" font-family="Helvetica,sans-Serif" font-size="10.00">CAudioFileIf::setIoType_</text>
</a>
</g>
</g>
<!-- Node4&#45;&gt;Node7 -->
<g id="edge6_Node000004_Node000007" class="edge">
<title>Node4&#45;&gt;Node7</title>
<g id="a_edge6_Node000004_Node000007"><a xlink:title=" ">
<path fill="none" stroke="#63b8ff" d="M606.22,-73.51C626.02,-69.09 649.45,-63.85 670.35,-59.18"/>
<polygon fill="#63b8ff" stroke="#63b8ff" points="670.86,-62.65 679.85,-57.05 669.33,-55.82 670.86,-62.65"/>
</a>
</g>
</g>
<!-- Node8&#45;&gt;Node4 -->
<g id="edge10_Node000008_Node000004" class="edge">
<title>Node8&#45;&gt;Node4</title>
<g id="a_edge10_Node000008_Node000004"><a xlink:title=" ">
<path fill="none" stroke="#63b8ff" d="M440.9,-56.74C460.25,-61.14 483.13,-66.35 503.58,-71.01"/>
<polygon fill="#63b8ff" stroke="#63b8ff" points="502.65,-74.38 513.17,-73.19 504.2,-67.56 502.65,-74.38"/>
</a>
</g>
</g>
<!-- Node9 -->
<g id="Node000009" class="node">
<title>Node9</title>
<g id="a_Node000009"><a xlink:href="a00445.xhtml#a9b8022f870f94a4b8c5a1f25cf24d2f9" target="_top" xlink:title=" ">
<polygon fill="white" stroke="#666666" points="616.38,-56.25 503.62,-56.25 503.62,-37 616.38,-37 616.38,-56.25"/>
<text text-anchor="middle" x="560" y="-42.75" font-family="Helvetica,sans-Serif" font-size="10.00">CAudioFileIf::closeFile</text>
</a>
</g>
</g>
<!-- Node8&#45;&gt;Node9 -->
<g id="edge8_Node000008_Node000009" class="edge">
<title>Node8&#45;&gt;Node9</title>
<g id="a_edge8_Node000008_Node000009"><a xlink:title=" ">
<path fill="none" stroke="#63b8ff" d="M443.5,-46.62C458.66,-46.62 475.76,-46.62 492.07,-46.62"/>
<polygon fill="#63b8ff" stroke="#63b8ff" points="491.68,-50.13 501.68,-46.63 491.68,-43.13 491.68,-50.13"/>
</a>
</g>
</g>
<!-- Node10 -->
<g id="Node000010" class="node">
<title>Node10</title>
<g id="a_Node000010"><a xlink:href="a00445.xhtml#aec3ce9851e3b2876ff4978a0cbff7a2b" target="_top" xlink:title=" ">
<polygon fill="white" stroke="#666666" points="625,-19.25 495,-19.25 495,0 625,0 625,-19.25"/>
<text text-anchor="middle" x="560" y="-5.75" font-family="Helvetica,sans-Serif" font-size="10.00">CAudioFileIf::freeMemory_</text>
</a>
</g>
</g>
<!-- Node8&#45;&gt;Node10 -->
<g id="edge9_Node000008_Node000010" class="edge">
<title>Node8&#45;&gt;Node10</title>
<g id="a_edge9_Node000008_Node000010"><a xlink:title=" ">
<path fill="none" stroke="#63b8ff" d="M440.9,-36.51C460.25,-32.11 483.13,-26.9 503.58,-22.24"/>
<polygon fill="#63b8ff" stroke="#63b8ff" points="504.2,-25.69 513.17,-20.06 502.65,-18.87 504.2,-25.69"/>
</a>
</g>
</g>
</g>
</svg>
