<?xml version="1.0" encoding="UTF-8" standalone="no"?>
<!DOCTYPE svg PUBLIC "-//W3C//DTD SVG 1.1//EN"
 "http://www.w3.org/Graphics/SVG/1.1/DTD/svg11.dtd">
<!-- Generated by graphviz version 4.0.0 (20220602.1335)
 -->
<!-- Title: CMatrix::getCol Pages: 1 -->
<svg width="444pt" height="66pt"
 viewBox="0.00 0.00 444.00 66.00" xmlns="http://www.w3.org/2000/svg" xmlns:xlink="http://www.w3.org/1999/xlink">
<g id="graph0" class="graph" transform="scale(1 1) rotate(0) translate(4 62)">
<title>CMatrix::getCol</title>
<polygon fill="white" stroke="transparent" points="-4,4 -4,-62 440,-62 440,4 -4,4"/>
<!-- Node1 -->
<g id="node1" class="node">
<title>Node1</title>
<g id="a_node1"><a xlink:title=" ">
<polygon fill="#bfbfbf" stroke="black" points="354,-19.5 354,-38.5 436,-38.5 436,-19.5 354,-19.5"/>
<text text-anchor="middle" x="395" y="-26.5" font-family="Helvetica,sans-Serif" font-size="10.00">CMatrix::getCol</text>
</a>
</g>
</g>
<!-- Node2 -->
<g id="node2" class="node">
<title>Node2</title>
<g id="a_node2"><a xlink:href="a00620.xhtml#a2f3d4cb01621ea0e62f13871595a522b" target="_top" xlink:title=" ">
<polygon fill="white" stroke="black" points="160,-38.5 160,-57.5 318,-57.5 318,-38.5 160,-38.5"/>
<text text-anchor="middle" x="239" y="-45.5" font-family="Helvetica,sans-Serif" font-size="10.00">CKmeans::assignClusterLabels_</text>
</a>
</g>
</g>
<!-- Node1&#45;&gt;Node2 -->
<g id="edge1" class="edge">
<title>Node1&#45;&gt;Node2</title>
<path fill="none" stroke="midnightblue" d="M343.81,-35.19C335.27,-36.25 326.23,-37.36 317.19,-38.48"/>
<polygon fill="midnightblue" stroke="midnightblue" points="344.44,-38.64 353.94,-33.94 343.59,-31.69 344.44,-38.64"/>
</g>
<!-- Node4 -->
<g id="node4" class="node">
<title>Node4</title>
<g id="a_node4"><a xlink:href="a00576.xhtml#a81ef85945dec254c2a43ea83ffb513b9" target="_top" xlink:title=" ">
<polygon fill="white" stroke="black" points="184,-0.5 184,-19.5 294,-19.5 294,-0.5 184,-0.5"/>
<text text-anchor="middle" x="239" y="-7.5" font-family="Helvetica,sans-Serif" font-size="10.00">CGmmClassifier::train</text>
</a>
</g>
</g>
<!-- Node1&#45;&gt;Node4 -->
<g id="edge3" class="edge">
<title>Node1&#45;&gt;Node4</title>
<path fill="none" stroke="midnightblue" d="M343.77,-22.8C327.87,-20.84 310.22,-18.66 294.06,-16.67"/>
<polygon fill="midnightblue" stroke="midnightblue" points="343.59,-26.31 353.94,-24.06 344.44,-19.36 343.59,-26.31"/>
</g>
<!-- Node3 -->
<g id="node3" class="node">
<title>Node3</title>
<g id="a_node3"><a xlink:href="a00620.xhtml#ac9199a37d06a0d589118941f80f3f774" target="_top" xlink:title=" ">
<polygon fill="white" stroke="black" points="0,-38.5 0,-57.5 124,-57.5 124,-38.5 0,-38.5"/>
<text text-anchor="middle" x="62" y="-45.5" font-family="Helvetica,sans-Serif" font-size="10.00">CKmeans::compKmeans</text>
</a>
</g>
</g>
<!-- Node2&#45;&gt;Node3 -->
<g id="edge2" class="edge">
<title>Node2&#45;&gt;Node3</title>
<path fill="none" stroke="midnightblue" d="M149.78,-48C141.09,-48 132.4,-48 124.07,-48"/>
<polygon fill="midnightblue" stroke="midnightblue" points="149.97,-51.5 159.97,-48 149.97,-44.5 149.97,-51.5"/>
</g>
</g>
</svg>
