<?xml version="1.0" encoding="UTF-8" standalone="no"?>
<!DOCTYPE svg PUBLIC "-//W3C//DTD SVG 1.1//EN"
 "http://www.w3.org/Graphics/SVG/1.1/DTD/svg11.dtd">
<!-- Generated by graphviz version 6.0.1 (20220911.1526)
 -->
<!-- Title: CFilter::filtfilt Pages: 1 -->
<svg width="415pt" height="27pt"
 viewBox="0.00 0.00 415.00 27.00" xmlns="http://www.w3.org/2000/svg" xmlns:xlink="http://www.w3.org/1999/xlink">
<g id="graph0" class="graph" transform="scale(1 1) rotate(0) translate(4 23)">
<title>CFilter::filtfilt</title>
<!-- Node1 -->
<g id="node1" class="node">
<title>Node1</title>
<g id="a_node1"><a xlink:title=" ">
<polygon fill="#999999" stroke="#666666" points="407,-19 338,-19 338,0 407,0 407,-19"/>
<text text-anchor="middle" x="372.5" y="-7" font-family="Helvetica,sans-Serif" font-size="10.00">CFilter::filtfilt</text>
</a>
</g>
</g>
<!-- Node2 -->
<g id="node2" class="node">
<title>Node2</title>
<g id="a_node2"><a xlink:href="a00610.xhtml#a040a6674ec0ff9171d6b4cb4b8436cb2" target="_top" xlink:title=" ">
<polygon fill="white" stroke="#666666" points="302,-19 196,-19 196,0 302,0 302,-19"/>
<text text-anchor="middle" x="249" y="-7" font-family="Helvetica,sans-Serif" font-size="10.00">CResample::process</text>
</a>
</g>
</g>
<!-- Node1&#45;&gt;Node2 -->
<g id="edge1" class="edge">
<title>Node1&#45;&gt;Node2</title>
<path fill="none" stroke="#63b8ff" d="M327.74,-9.5C319.42,-9.5 310.64,-9.5 302.1,-9.5"/>
<polygon fill="#63b8ff" stroke="#63b8ff" points="327.98,-13 337.98,-9.5 327.98,-6 327.98,-13"/>
</g>
<!-- Node3 -->
<g id="node3" class="node">
<title>Node3</title>
<g id="a_node3"><a xlink:href="a00554.xhtml#ab79f4706d42b250f36c91cfd075bc8df" target="_top" xlink:title=" ">
<polygon fill="white" stroke="#666666" points="160,-19 74,-19 74,0 160,0 160,-19"/>
<text text-anchor="middle" x="117" y="-7" font-family="Helvetica,sans-Serif" font-size="10.00">CFingerprint::init</text>
</a>
</g>
</g>
<!-- Node2&#45;&gt;Node3 -->
<g id="edge2" class="edge">
<title>Node2&#45;&gt;Node3</title>
<path fill="none" stroke="#63b8ff" d="M185.76,-9.5C177.08,-9.5 168.34,-9.5 160.15,-9.5"/>
<polygon fill="#63b8ff" stroke="#63b8ff" points="185.87,-13 195.87,-9.5 185.87,-6 185.87,-13"/>
</g>
<!-- Node4 -->
<g id="node4" class="node">
<title>Node4</title>
<g id="a_node4"><a xlink:href="a00116.xhtml#a0ddf1224851353fc92bfbff6f499fa97" target="_top" xlink:title=" ">
<polygon fill="white" stroke="#666666" points="38,-19 0,-19 0,0 38,0 38,-19"/>
<text text-anchor="middle" x="19" y="-7" font-family="Helvetica,sans-Serif" font-size="10.00">main</text>
</a>
</g>
</g>
<!-- Node3&#45;&gt;Node4 -->
<g id="edge3" class="edge">
<title>Node3&#45;&gt;Node4</title>
<path fill="none" stroke="#63b8ff" d="M63.89,-9.5C54.68,-9.5 45.68,-9.5 38.24,-9.5"/>
<polygon fill="#63b8ff" stroke="#63b8ff" points="63.89,-13 73.89,-9.5 63.89,-6 63.89,-13"/>
</g>
</g>
</svg>
