<?xml version="1.0" encoding="UTF-8" standalone="no"?>
<!DOCTYPE svg PUBLIC "-//W3C//DTD SVG 1.1//EN"
 "http://www.w3.org/Graphics/SVG/1.1/DTD/svg11.dtd">
<!-- Generated by graphviz version 12.2.1 (20241206.2353)
 -->
<!-- Title: CMatrix::mulMatMat Pages: 1 -->
<svg width="364pt" height="64pt"
 viewBox="0.00 0.00 363.50 64.25" xmlns="http://www.w3.org/2000/svg" xmlns:xlink="http://www.w3.org/1999/xlink">

<svg id="main" version="1.1" xmlns="http://www.w3.org/2000/svg" xmlns:xlink="http://www.w3.org/1999/xlink" xml:space="preserve">

<style type="text/css"><![CDATA[
.node, .edge {opacity: 0.7;}
.node.selected, .edge.selected {opacity: 1;}
.edge:hover path { stroke: red; }
.edge:hover polygon { stroke: red; fill: red; }
]]></style>
<script type="application/ecmascript" xlink:href="svg.min.js"/>
<svg id="graph" class="graph">
<g id="graph0" class="graph" transform="scale(1 1) rotate(0) translate(4 60.25)">
<title>CMatrix::mulMatMat</title>
<!-- Node1 -->
<g id="Node000001" class="node">
<title>Node1</title>
<g id="a_Node000001"><a xlink:title=" ">
<polygon fill="#999999" stroke="#666666" points="355.5,-37.25 253.25,-37.25 253.25,-18 355.5,-18 355.5,-37.25"/>
<text text-anchor="middle" x="304.38" y="-23.75" font-family="Helvetica,sans-Serif" font-size="10.00">CMatrix::mulMatMat</text>
</a>
</g>
</g>
<!-- Node2 -->
<g id="Node000002" class="node">
<title>Node2</title>
<g id="a_Node000002"><a xlink:href="a00601.xhtml#a3185f8f3c718973ce66de3595e38db09" target="_top" xlink:title=" ">
<polygon fill="white" stroke="#666666" points="213.88,-56.25 128.12,-56.25 128.12,-37 213.88,-37 213.88,-56.25"/>
<text text-anchor="middle" x="171" y="-42.75" font-family="Helvetica,sans-Serif" font-size="10.00">CPca::compPca</text>
</a>
</g>
</g>
<!-- Node1&#45;&gt;Node2 -->
<g id="edge1_Node000001_Node000002" class="edge">
<title>Node1&#45;&gt;Node2</title>
<g id="a_edge1_Node000001_Node000002"><a xlink:title=" ">
<path fill="none" stroke="#63b8ff" d="M241.63,-36.55C232.26,-37.91 222.78,-39.28 213.96,-40.56"/>
<polygon fill="#63b8ff" stroke="#63b8ff" points="242.06,-40.03 251.46,-35.13 241.06,-33.1 242.06,-40.03"/>
</a>
</g>
</g>
<!-- Node3 -->
<g id="Node000003" class="node">
<title>Node3</title>
<g id="a_Node000003"><a xlink:href="a00597.xhtml#a3286e5142e39f0c59f3615271d08febc" target="_top" xlink:title=" ">
<polygon fill="white" stroke="#666666" points="217.25,-19.25 124.75,-19.25 124.75,0 217.25,0 217.25,-19.25"/>
<text text-anchor="middle" x="171" y="-5.75" font-family="Helvetica,sans-Serif" font-size="10.00">CNmf::runNmfIter</text>
</a>
</g>
</g>
<!-- Node1&#45;&gt;Node3 -->
<g id="edge2_Node000001_Node000003" class="edge">
<title>Node1&#45;&gt;Node3</title>
<g id="a_edge2_Node000001_Node000003"><a xlink:title=" ">
<path fill="none" stroke="#63b8ff" d="M241.82,-19.19C233.57,-18.06 225.24,-16.92 217.34,-15.84"/>
<polygon fill="#63b8ff" stroke="#63b8ff" points="241.08,-22.62 251.46,-20.51 242.03,-15.69 241.08,-22.62"/>
</a>
</g>
</g>
<!-- Node4 -->
<g id="Node000004" class="node">
<title>Node4</title>
<g id="a_Node000004"><a xlink:href="a00597.xhtml#ad0e347156c9992dd3d998d70b423fcea" target="_top" xlink:title=" ">
<polygon fill="white" stroke="#666666" points="88.75,-19.25 0,-19.25 0,0 88.75,0 88.75,-19.25"/>
<text text-anchor="middle" x="44.38" y="-5.75" font-family="Helvetica,sans-Serif" font-size="10.00">CNmf::compNmf</text>
</a>
</g>
</g>
<!-- Node3&#45;&gt;Node4 -->
<g id="edge3_Node000003_Node000004" class="edge">
<title>Node3&#45;&gt;Node4</title>
<g id="a_edge3_Node000003_Node000004"><a xlink:title=" ">
<path fill="none" stroke="#63b8ff" d="M113.03,-9.62C104.95,-9.62 96.76,-9.62 88.99,-9.62"/>
<polygon fill="#63b8ff" stroke="#63b8ff" points="112.79,-13.13 122.79,-9.63 112.79,-6.13 112.79,-13.13"/>
</a>
</g>
</g>
</g>
</svg>
</svg>

<style type='text/css'>
<![CDATA[
[data-mouse-over-selected='false'] { opacity: 0.7; }
[data-mouse-over-selected='true']  { opacity: 1.0; }
]]>
</style>
<script type="application/ecmascript"><![CDATA[
document.addEventListener('DOMContentLoaded', (event) => {
  highlightEdges();
  highlightAdjacentNodes();
});
]]></script>
</svg>
