<?xml version="1.0" encoding="UTF-8" standalone="no"?>
<!DOCTYPE svg PUBLIC "-//W3C//DTD SVG 1.1//EN"
 "http://www.w3.org/Graphics/SVG/1.1/DTD/svg11.dtd">
<!-- Generated by graphviz version 12.2.1 (20241206.2353)
 -->
<!-- Title: CSpectrogramFromFile::~CSpectrogramFromFile Pages: 1 -->
<!--zoomable 113 -->

<svg id="main" version="1.1" xmlns="http://www.w3.org/2000/svg" xmlns:xlink="http://www.w3.org/1999/xlink" xml:space="preserve" onload="init(evt)">

<style type="text/css"><![CDATA[
.node, .edge {opacity: 0.7;}
.node.selected, .edge.selected {opacity: 1;}
.edge:hover path { stroke: red; }
.edge:hover polygon { stroke: red; fill: red; }
]]></style>

<defs>
  <circle id="rim" cx="0" cy="0" r="7"/>
  <circle id="rim2" cx="0" cy="0" r="3.5"/>
  <g id="zoomPlus">
    <use xlink:href="#rim" fill="#404040"><set attributeName="fill" to="#808080" begin="zoomplus.mouseover" end="zoomplus.mouseout"/></use>
    <path d="M-4,0h8M0,-4v8" fill="none" stroke="white" stroke-width="1.5" pointer-events="none"/>
  </g>
  <g id="zoomMin">
    <use xlink:href="#rim" fill="#404040"><set attributeName="fill" to="#808080" begin="zoomminus.mouseover" end="zoomminus.mouseout"/></use>
    <path d="M-4,0h8" fill="none" stroke="white" stroke-width="1.5" pointer-events="none"/>
  </g>
  <g id="arrowUp" transform="translate(30 24)">
    <use xlink:href="#rim"/>
    <path pointer-events="none" fill="none" stroke="white" stroke-width="1.5" d="M0,-3.0v7 M-2.5,-0.5L0,-3.0L2.5,-0.5"/>
  </g>
  <g id="arrowRight" transform="rotate(90) translate(36 -43)">
    <use xlink:href="#rim"/>
    <path pointer-events="none" fill="none" stroke="white" stroke-width="1.5" d="M0,-3.0v7 M-2.5,-0.5L0,-3.0L2.5,-0.5"/>
  </g>
  <g id="arrowDown" transform="rotate(180) translate(-30 -48)">
    <use xlink:href="#rim"/>
    <path pointer-events="none" fill="none" stroke="white" stroke-width="1.5" d="M0,-3.0v7 M-2.5,-0.5L0,-3.0L2.5,-0.5"/>
  </g>
  <g id="arrowLeft" transform="rotate(270) translate(-36 17)">
    <use xlink:href="#rim"/>
    <path pointer-events="none" fill="none" stroke="white" stroke-width="1.5" d="M0,-3.0v7 M-2.5,-0.5L0,-3.0L2.5,-0.5"/>
  </g>
  <g id="resetDef">
    <use xlink:href="#rim2" fill="#404040"><set attributeName="fill" to="#808080" begin="reset.mouseover" end="reset.mouseout"/></use>
  </g>
</defs>
<script type="application/ecmascript">
var viewWidth = 771;
var viewHeight = 113;
var sectionId = 'dynsection-3';
</script>
<script type="application/ecmascript" xlink:href="svg.min.js"/>
<svg id="graph" class="graph">
<g id="viewport">
<title>CSpectrogramFromFile::~CSpectrogramFromFile</title>
<!-- Node1 -->
<g id="Node000001" class="node">
<title>Node1</title>
<g id="a_Node000001"><a xlink:title=" ">
<polygon fill="#999999" stroke="#666666" points="126.25,-42.88 0,-42.88 0,-12.37 126.25,-12.37 126.25,-42.88"/>
<text text-anchor="start" x="8" y="-29.38" font-family="Helvetica,sans-Serif" font-size="10.00">CSpectrogramFromFile</text>
<text text-anchor="middle" x="63.12" y="-18.12" font-family="Helvetica,sans-Serif" font-size="10.00">::~CSpectrogramFromFile</text>
</a>
</g>
</g>
<!-- Node2 -->
<g id="Node000002" class="node">
<title>Node2</title>
<g id="a_Node000002"><a xlink:href="a00445.xhtml#ab490b9d06c7efa0e4da3596cf4e7bec4" target="_top" xlink:title=" ">
<polygon fill="white" stroke="#666666" points="267.5,-56.25 162.25,-56.25 162.25,-37 267.5,-37 267.5,-56.25"/>
<text text-anchor="middle" x="214.88" y="-42.75" font-family="Helvetica,sans-Serif" font-size="10.00">CAudioFileIf::destroy</text>
</a>
</g>
</g>
<!-- Node1&#45;&gt;Node2 -->
<g id="edge1_Node000001_Node000002" class="edge">
<title>Node1&#45;&gt;Node2</title>
<g id="a_edge1_Node000001_Node000002"><a xlink:title=" ">
<path fill="none" stroke="#63b8ff" d="M126.33,-35.52C134.42,-36.54 142.7,-37.59 150.8,-38.62"/>
<polygon fill="#63b8ff" stroke="#63b8ff" points="150.22,-42.08 160.58,-39.86 151.1,-35.13 150.22,-42.08"/>
</a>
</g>
</g>
<!-- Node8 -->
<g id="Node000008" class="node">
<title>Node8</title>
<g id="a_Node000008"><a xlink:href="a00505.xhtml#aa86bdb0c663d4d52f2765793756f8737" target="_top" xlink:title=" ">
<polygon fill="white" stroke="#666666" points="251,-19.25 178.75,-19.25 178.75,0 251,0 251,-19.25"/>
<text text-anchor="middle" x="214.88" y="-5.75" font-family="Helvetica,sans-Serif" font-size="10.00">CVector::free</text>
</a>
</g>
</g>
<!-- Node1&#45;&gt;Node8 -->
<g id="edge7_Node000001_Node000008" class="edge">
<title>Node1&#45;&gt;Node8</title>
<g id="a_edge7_Node000001_Node000008"><a xlink:title=" ">
<path fill="none" stroke="#63b8ff" d="M126.33,-20.15C140.13,-18.49 154.52,-16.76 167.55,-15.19"/>
<polygon fill="#63b8ff" stroke="#63b8ff" points="167.59,-18.71 177.1,-14.05 166.76,-11.76 167.59,-18.71"/>
</a>
</g>
</g>
<!-- Node3 -->
<g id="Node000003" class="node">
<title>Node3</title>
<g id="a_Node000003"><a xlink:href="a00445.xhtml#a303a350a95e8af4cfbaaf61c1274b790" target="_top" xlink:title=" ">
<polygon fill="white" stroke="#666666" points="430.5,-56.25 303.5,-56.25 303.5,-37 430.5,-37 430.5,-56.25"/>
<text text-anchor="middle" x="367" y="-42.75" font-family="Helvetica,sans-Serif" font-size="10.00">CAudioFileIf::CAudioFileIf</text>
</a>
</g>
</g>
<!-- Node2&#45;&gt;Node3 -->
<g id="edge2_Node000002_Node000003" class="edge">
<title>Node2&#45;&gt;Node3</title>
<g id="a_edge2_Node000002_Node000003"><a xlink:title=" ">
<path fill="none" stroke="#63b8ff" d="M267.96,-46.62C275.67,-46.62 283.74,-46.62 291.8,-46.62"/>
<polygon fill="#63b8ff" stroke="#63b8ff" points="291.63,-50.13 301.63,-46.63 291.63,-43.13 291.63,-50.13"/>
</a>
</g>
</g>
<!-- Node4 -->
<g id="Node000004" class="node">
<title>Node4</title>
<g id="a_Node000004"><a xlink:href="a00445.xhtml#a9fcdd386ee5292b5a971c7077858274c" target="_top" xlink:title=" ">
<polygon fill="white" stroke="#666666" points="594.25,-56.25 466.5,-56.25 466.5,-37 594.25,-37 594.25,-56.25"/>
<text text-anchor="middle" x="530.38" y="-42.75" font-family="Helvetica,sans-Serif" font-size="10.00">CAudioFileIf::initDefaults_</text>
</a>
</g>
</g>
<!-- Node3&#45;&gt;Node4 -->
<g id="edge3_Node000003_Node000004" class="edge">
<title>Node3&#45;&gt;Node4</title>
<g id="a_edge3_Node000003_Node000004"><a xlink:title=" ">
<path fill="none" stroke="#63b8ff" d="M430.85,-46.62C438.73,-46.62 446.85,-46.62 454.89,-46.62"/>
<polygon fill="#63b8ff" stroke="#63b8ff" points="454.65,-50.13 464.65,-46.63 454.65,-43.13 454.65,-50.13"/>
</a>
</g>
</g>
<!-- Node5 -->
<g id="Node000005" class="node">
<title>Node5</title>
<g id="a_Node000005"><a xlink:href="a00445.xhtml#a5a74fd1730a2f0f7339b6507ca7abc23" target="_top" xlink:title=" ">
<polygon fill="white" stroke="#666666" points="757.62,-104.88 635.88,-104.88 635.88,-74.38 757.62,-74.38 757.62,-104.88"/>
<text text-anchor="start" x="643.88" y="-91.38" font-family="Helvetica,sans-Serif" font-size="10.00">CAudioFileIf::setClipping</text>
<text text-anchor="middle" x="696.75" y="-80.12" font-family="Helvetica,sans-Serif" font-size="10.00">Enabled</text>
</a>
</g>
</g>
<!-- Node4&#45;&gt;Node5 -->
<g id="edge4_Node000004_Node000005" class="edge">
<title>Node4&#45;&gt;Node5</title>
<g id="a_edge4_Node000004_Node000005"><a xlink:title=" ">
<path fill="none" stroke="#63b8ff" d="M569.91,-56.71C586.25,-60.98 605.84,-66.1 624.63,-71.02"/>
<polygon fill="#63b8ff" stroke="#63b8ff" points="623.56,-74.36 634.12,-73.5 625.33,-67.58 623.56,-74.36"/>
</a>
</g>
</g>
<!-- Node6 -->
<g id="Node000006" class="node">
<title>Node6</title>
<g id="a_Node000006"><a xlink:href="a00445.xhtml#ada0ab1ffd0666fdc0db872ca7f8a309f" target="_top" xlink:title=" ">
<polygon fill="white" stroke="#666666" points="763.25,-56.25 630.25,-56.25 630.25,-37 763.25,-37 763.25,-56.25"/>
<text text-anchor="middle" x="696.75" y="-42.75" font-family="Helvetica,sans-Serif" font-size="10.00">CAudioFileIf::setInitialized_</text>
</a>
</g>
</g>
<!-- Node4&#45;&gt;Node6 -->
<g id="edge5_Node000004_Node000006" class="edge">
<title>Node4&#45;&gt;Node6</title>
<g id="a_edge5_Node000004_Node000006"><a xlink:title=" ">
<path fill="none" stroke="#63b8ff" d="M594.46,-46.62C602.33,-46.62 610.46,-46.62 618.52,-46.62"/>
<polygon fill="#63b8ff" stroke="#63b8ff" points="618.33,-50.13 628.33,-46.63 618.33,-43.13 618.33,-50.13"/>
</a>
</g>
</g>
<!-- Node7 -->
<g id="Node000007" class="node">
<title>Node7</title>
<g id="a_Node000007"><a xlink:href="a00445.xhtml#a6ccc53d8d2c5113b5b2cba604e8a4510" target="_top" xlink:title=" ">
<polygon fill="white" stroke="#666666" points="757.62,-19.25 635.88,-19.25 635.88,0 757.62,0 757.62,-19.25"/>
<text text-anchor="middle" x="696.75" y="-5.75" font-family="Helvetica,sans-Serif" font-size="10.00">CAudioFileIf::setIoType_</text>
</a>
</g>
</g>
<!-- Node4&#45;&gt;Node7 -->
<g id="edge6_Node000004_Node000007" class="edge">
<title>Node4&#45;&gt;Node7</title>
<g id="a_edge6_Node000004_Node000007"><a xlink:title=" ">
<path fill="none" stroke="#63b8ff" d="M576.29,-36.51C595.86,-32.11 619.01,-26.9 639.69,-22.24"/>
<polygon fill="#63b8ff" stroke="#63b8ff" points="640.42,-25.67 649.41,-20.06 638.89,-18.84 640.42,-25.67"/>
</a>
</g>
</g>
</g>
</svg>

<g id="navigator" transform="translate(0 0)" fill="#404254">
  <rect fill="#f2f5e9" fill-opacity="0.5" stroke="#606060" stroke-width=".5" x="0" y="0" width="60" height="60"/>
  <use id="zoomplus" xlink:href="#zoomPlus" x="17" y="9" onmousedown="handleZoom(evt,'in')"/>
  <use id="zoomminus" xlink:href="#zoomMin" x="42" y="9" onmousedown="handleZoom(evt,'out')"/>
  <use id="reset" xlink:href="#resetDef" x="30" y="36" onmousedown="handleReset()"/>
   <use id="arrowup" xlink:href="#arrowUp" x="0" y="0" onmousedown="handlePan(0,-1)"/>
  <use id="arrowright" xlink:href="#arrowRight" x="0" y="0" onmousedown="handlePan(1,0)"/>
  <use id="arrowdown" xlink:href="#arrowDown" x="0" y="0" onmousedown="handlePan(0,1)"/>
  <use id="arrowleft" xlink:href="#arrowLeft" x="0" y="0" onmousedown="handlePan(-1,0)"/>
</g>
<svg viewBox="0 0 15 15" width="100%" height="30px" preserveAspectRatio="xMaxYMin meet">
 <g id="arrow_out" transform="scale(0.3 0.3)">
  <a xlink:href="a00405_adad2283c6914dad1fadb8f6757215a6d_cgraph_org.svg" target="_base">
   <rect id="button" ry="5" rx="5" y="6" x="6" height="38" width="38"
        fill="#f2f5e9" fill-opacity="0.5" stroke="#606060" stroke-width="1.0"/>
   <path id="arrow"
     d="M 11.500037,31.436501 C 11.940474,20.09759 22.043105,11.32322 32.158766,21.979434 L 37.068811,17.246167 C 37.068811,17.246167 37.088388,32 37.088388,32 L 22.160133,31.978069 C 22.160133,31.978069 26.997745,27.140456 26.997745,27.140456 C 18.528582,18.264221 13.291696,25.230495 11.500037,31.436501 z"
     style="fill:#404040;"/>
  </a>
 </g>
</svg>

<style type='text/css'>
<![CDATA[
[data-mouse-over-selected='false'] { opacity: 0.7; }
[data-mouse-over-selected='true']  { opacity: 1.0; }
]]>
</style>
<script type="application/ecmascript"><![CDATA[
document.addEventListener('DOMContentLoaded', (event) => {
  highlightEdges();
  highlightAdjacentNodes();
});
]]></script>
</svg>
