<?xml version="1.0" encoding="UTF-8" standalone="no"?>
<!DOCTYPE svg PUBLIC "-//W3C//DTD SVG 1.1//EN"
 "http://www.w3.org/Graphics/SVG/1.1/DTD/svg11.dtd">
<!-- Generated by graphviz version 12.2.1 (20241206.2353)
 -->
<!-- Title: CFeatureIf::reset_ Pages: 1 -->
<svg width="433pt" height="113pt"
 viewBox="0.00 0.00 432.50 113.25" xmlns="http://www.w3.org/2000/svg" xmlns:xlink="http://www.w3.org/1999/xlink">

<svg id="main" version="1.1" xmlns="http://www.w3.org/2000/svg" xmlns:xlink="http://www.w3.org/1999/xlink" xml:space="preserve">

<style type="text/css"><![CDATA[
.node, .edge {opacity: 0.7;}
.node.selected, .edge.selected {opacity: 1;}
.edge:hover path { stroke: red; }
.edge:hover polygon { stroke: red; fill: red; }
]]></style>
<script type="application/ecmascript" xlink:href="svg.min.js"/>
<svg id="graph" class="graph">
<g id="graph0" class="graph" transform="scale(1 1) rotate(0) translate(4 109.25)">
<title>CFeatureIf::reset_</title>
<!-- Node1 -->
<g id="Node000001" class="node">
<title>Node1</title>
<g id="a_Node000001"><a xlink:title="reset configuration">
<polygon fill="#999999" stroke="#666666" points="93.25,-62.25 0,-62.25 0,-43 93.25,-43 93.25,-62.25"/>
<text text-anchor="middle" x="46.62" y="-48.75" font-family="Helvetica,sans-Serif" font-size="10.00">CFeatureIf::reset_</text>
</a>
</g>
</g>
<!-- Node2 -->
<g id="Node000002" class="node">
<title>Node2</title>
<g id="a_Node000002"><a xlink:href="a00545.xhtml#a13d2bd6e36210dde0c64d188c1266b88" target="_top" xlink:title=" ">
<polygon fill="white" stroke="#666666" points="243.5,-105.25 129.25,-105.25 129.25,-86 243.5,-86 243.5,-105.25"/>
<text text-anchor="middle" x="186.38" y="-91.75" font-family="Helvetica,sans-Serif" font-size="10.00">CBlockAudioIf::destroy</text>
</a>
</g>
</g>
<!-- Node1&#45;&gt;Node2 -->
<g id="edge1_Node000001_Node000002" class="edge">
<title>Node1&#45;&gt;Node2</title>
<g id="a_edge1_Node000001_Node000002"><a xlink:title=" ">
<path fill="none" stroke="#63b8ff" d="M79.92,-62.71C98.57,-68.53 122.27,-75.93 142.47,-82.23"/>
<polygon fill="#63b8ff" stroke="#63b8ff" points="141.25,-85.52 151.84,-85.16 143.33,-78.83 141.25,-85.52"/>
</a>
</g>
</g>
<!-- Node4 -->
<g id="Node000004" class="node">
<title>Node4</title>
<g id="a_Node000004"><a xlink:href="a00473.xhtml#a300e7b2134b2bd0faaa24cfecbd9cb51" target="_top" xlink:title=" ">
<polygon fill="white" stroke="#666666" points="240.88,-67.88 131.88,-67.88 131.88,-37.38 240.88,-37.38 240.88,-67.88"/>
<text text-anchor="start" x="139.88" y="-54.38" font-family="Helvetica,sans-Serif" font-size="10.00">CFeatureFromBlockIf</text>
<text text-anchor="middle" x="186.38" y="-43.12" font-family="Helvetica,sans-Serif" font-size="10.00">::destroy</text>
</a>
</g>
</g>
<!-- Node1&#45;&gt;Node4 -->
<g id="edge3_Node000001_Node000004" class="edge">
<title>Node1&#45;&gt;Node4</title>
<g id="a_edge3_Node000001_Node000004"><a xlink:title=" ">
<path fill="none" stroke="#63b8ff" d="M93.49,-52.62C102.08,-52.62 111.2,-52.62 120.24,-52.62"/>
<polygon fill="#63b8ff" stroke="#63b8ff" points="120.08,-56.13 130.08,-52.63 120.08,-49.13 120.08,-56.13"/>
</a>
</g>
</g>
<!-- Node6 -->
<g id="Node000006" class="node">
<title>Node6</title>
<g id="a_Node000006"><a xlink:href="a00505.xhtml#aa86bdb0c663d4d52f2765793756f8737" target="_top" xlink:title=" ">
<polygon fill="white" stroke="#666666" points="222.5,-19.25 150.25,-19.25 150.25,0 222.5,0 222.5,-19.25"/>
<text text-anchor="middle" x="186.38" y="-5.75" font-family="Helvetica,sans-Serif" font-size="10.00">CVector::free</text>
</a>
</g>
</g>
<!-- Node1&#45;&gt;Node6 -->
<g id="edge5_Node000001_Node000006" class="edge">
<title>Node1&#45;&gt;Node6</title>
<g id="a_edge5_Node000001_Node000006"><a xlink:title=" ">
<path fill="none" stroke="#63b8ff" d="M79.92,-42.54C98.57,-36.72 122.27,-29.32 142.47,-23.02"/>
<polygon fill="#63b8ff" stroke="#63b8ff" points="143.33,-26.42 151.84,-20.09 141.25,-19.73 143.33,-26.42"/>
</a>
</g>
</g>
<!-- Node3 -->
<g id="Node000003" class="node">
<title>Node3</title>
<g id="a_Node000003"><a xlink:href="a00545.xhtml#a25b4acfbc219a671933702aaf97229fd" target="_top" xlink:title=" ">
<polygon fill="white" stroke="#666666" points="424.5,-105.25 279.5,-105.25 279.5,-86 424.5,-86 424.5,-105.25"/>
<text text-anchor="middle" x="352" y="-91.75" font-family="Helvetica,sans-Serif" font-size="10.00">CBlockAudioIf::CBlockAudioIf</text>
</a>
</g>
</g>
<!-- Node2&#45;&gt;Node3 -->
<g id="edge2_Node000002_Node000003" class="edge">
<title>Node2&#45;&gt;Node3</title>
<g id="a_edge2_Node000002_Node000003"><a xlink:title=" ">
<path fill="none" stroke="#63b8ff" d="M243.69,-95.62C251.48,-95.62 259.61,-95.62 267.76,-95.62"/>
<polygon fill="#63b8ff" stroke="#63b8ff" points="267.76,-99.13 277.76,-95.63 267.76,-92.13 267.76,-99.13"/>
</a>
</g>
</g>
<!-- Node5 -->
<g id="Node000005" class="node">
<title>Node5</title>
<g id="a_Node000005"><a xlink:href="a00473.xhtml#a483bca508e2817799a3173a6180d245e" target="_top" xlink:title=" ">
<polygon fill="white" stroke="#666666" points="408.75,-67.88 295.25,-67.88 295.25,-37.38 408.75,-37.38 408.75,-67.88"/>
<text text-anchor="start" x="303.25" y="-54.38" font-family="Helvetica,sans-Serif" font-size="10.00">CFeatureFromBlockIf</text>
<text text-anchor="middle" x="352" y="-43.12" font-family="Helvetica,sans-Serif" font-size="10.00">::CFeatureFromBlockIf</text>
</a>
</g>
</g>
<!-- Node4&#45;&gt;Node5 -->
<g id="edge4_Node000004_Node000005" class="edge">
<title>Node4&#45;&gt;Node5</title>
<g id="a_edge4_Node000004_Node000005"><a xlink:title=" ">
<path fill="none" stroke="#63b8ff" d="M240.95,-52.62C254.56,-52.62 269.35,-52.62 283.55,-52.62"/>
<polygon fill="#63b8ff" stroke="#63b8ff" points="283.26,-56.13 293.26,-52.63 283.26,-49.13 283.26,-56.13"/>
</a>
</g>
</g>
</g>
</svg>
</svg>

<style type='text/css'>
<![CDATA[
[data-mouse-over-selected='false'] { opacity: 0.7; }
[data-mouse-over-selected='true']  { opacity: 1.0; }
]]>
</style>
<script type="application/ecmascript"><![CDATA[
document.addEventListener('DOMContentLoaded', (event) => {
  highlightEdges();
  highlightAdjacentNodes();
});
]]></script>
</svg>
