<?xml version="1.0" encoding="UTF-8" standalone="no"?>
<!DOCTYPE svg PUBLIC "-//W3C//DTD SVG 1.1//EN"
 "http://www.w3.org/Graphics/SVG/1.1/DTD/svg11.dtd">
<!-- Generated by graphviz version 12.2.1 (20241206.2353)
 -->
<!-- Title: CMatrix::getCol Pages: 1 -->
<svg width="442pt" height="113pt"
 viewBox="0.00 0.00 441.50 113.25" xmlns="http://www.w3.org/2000/svg" xmlns:xlink="http://www.w3.org/1999/xlink">
<g id="graph0" class="graph" transform="scale(1 1) rotate(0) translate(4 109.25)">
<title>CMatrix::getCol</title>
<!-- Node1 -->
<g id="Node000001" class="node">
<title>Node1</title>
<g id="a_Node000001"><a xlink:title=" ">
<polygon fill="#999999" stroke="#666666" points="433.5,-62.25 352.25,-62.25 352.25,-43 433.5,-43 433.5,-62.25"/>
<text text-anchor="middle" x="392.88" y="-48.75" font-family="Helvetica,sans-Serif" font-size="10.00">CMatrix::getCol</text>
</a>
</g>
</g>
<!-- Node2 -->
<g id="Node000002" class="node">
<title>Node2</title>
<g id="a_Node000002"><a xlink:href="a00625.xhtml#a01d2a9145577daaee218436a54b96b16" target="_top" xlink:title=" ">
<polygon fill="white" stroke="#666666" points="316.25,-105.25 159.25,-105.25 159.25,-86 316.25,-86 316.25,-105.25"/>
<text text-anchor="middle" x="237.75" y="-91.75" font-family="Helvetica,sans-Serif" font-size="10.00">CKmeans::assignClusterLabels_</text>
</a>
</g>
</g>
<!-- Node1&#45;&gt;Node2 -->
<g id="edge1_Node000001_Node000002" class="edge">
<title>Node1&#45;&gt;Node2</title>
<g id="a_edge1_Node000001_Node000002"><a xlink:title=" ">
<path fill="none" stroke="#63b8ff" d="M351.01,-66.14C339.79,-69.71 327.59,-73.44 316.25,-76.62 305.18,-79.73 293.14,-82.83 281.93,-85.58"/>
<polygon fill="#63b8ff" stroke="#63b8ff" points="351.95,-69.52 360.4,-63.13 349.81,-62.85 351.95,-69.52"/>
</a>
</g>
</g>
<!-- Node4 -->
<g id="Node000004" class="node">
<title>Node4</title>
<g id="a_Node000004"><a xlink:href="a00581.xhtml#aff55452be40121d45b74c7e0e9392c51" target="_top" xlink:title=" ">
<polygon fill="white" stroke="#666666" points="299.38,-67.88 176.12,-67.88 176.12,-37.38 299.38,-37.38 299.38,-67.88"/>
<text text-anchor="start" x="184.12" y="-54.38" font-family="Helvetica,sans-Serif" font-size="10.00">CLeaveOneOutCrossVal</text>
<text text-anchor="middle" x="237.75" y="-43.12" font-family="Helvetica,sans-Serif" font-size="10.00">::process</text>
</a>
</g>
</g>
<!-- Node1&#45;&gt;Node4 -->
<g id="edge3_Node000001_Node000004" class="edge">
<title>Node1&#45;&gt;Node4</title>
<g id="a_edge3_Node000001_Node000004"><a xlink:title=" ">
<path fill="none" stroke="#63b8ff" d="M340.82,-52.62C327.66,-52.62 313.37,-52.62 299.76,-52.62"/>
<polygon fill="#63b8ff" stroke="#63b8ff" points="340.53,-56.13 350.53,-52.63 340.53,-49.13 340.53,-56.13"/>
</a>
</g>
</g>
<!-- Node5 -->
<g id="Node000005" class="node">
<title>Node5</title>
<g id="a_Node000005"><a xlink:href="a00573.xhtml#af086e0bae5cc3cb68c35745749b0fda5" target="_top" xlink:title=" ">
<polygon fill="white" stroke="#666666" points="292.62,-19.25 182.88,-19.25 182.88,0 292.62,0 292.62,-19.25"/>
<text text-anchor="middle" x="237.75" y="-5.75" font-family="Helvetica,sans-Serif" font-size="10.00">CGmmClassifier::train</text>
</a>
</g>
</g>
<!-- Node1&#45;&gt;Node5 -->
<g id="edge4_Node000001_Node000005" class="edge">
<title>Node1&#45;&gt;Node5</title>
<g id="a_edge4_Node000001_Node000005"><a xlink:title=" ">
<path fill="none" stroke="#63b8ff" d="M351.01,-39.11C339.79,-35.54 327.59,-31.81 316.25,-28.62 305.18,-25.52 293.14,-22.42 281.93,-19.67"/>
<polygon fill="#63b8ff" stroke="#63b8ff" points="349.81,-42.4 360.4,-42.12 351.95,-35.73 349.81,-42.4"/>
</a>
</g>
</g>
<!-- Node3 -->
<g id="Node000003" class="node">
<title>Node3</title>
<g id="a_Node000003"><a xlink:href="a00625.xhtml#a849370ac2cbfd732f771f97cbd6e6c77" target="_top" xlink:title=" ">
<polygon fill="white" stroke="#666666" points="123.25,-105.25 0,-105.25 0,-86 123.25,-86 123.25,-105.25"/>
<text text-anchor="middle" x="61.62" y="-91.75" font-family="Helvetica,sans-Serif" font-size="10.00">CKmeans::compKmeans</text>
</a>
</g>
</g>
<!-- Node2&#45;&gt;Node3 -->
<g id="edge2_Node000002_Node000003" class="edge">
<title>Node2&#45;&gt;Node3</title>
<g id="a_edge2_Node000002_Node000003"><a xlink:title=" ">
<path fill="none" stroke="#63b8ff" d="M147.5,-95.62C139.46,-95.62 131.45,-95.62 123.74,-95.62"/>
<polygon fill="#63b8ff" stroke="#63b8ff" points="147.34,-99.13 157.34,-95.63 147.34,-92.13 147.34,-99.13"/>
</a>
</g>
</g>
</g>
</svg>
