<?xml version="1.0" encoding="UTF-8" standalone="no"?>
<!DOCTYPE svg PUBLIC "-//W3C//DTD SVG 1.1//EN"
 "http://www.w3.org/Graphics/SVG/1.1/DTD/svg11.dtd">
<!-- Generated by graphviz version 12.2.1 (20241206.2353)
 -->
<!-- Title: CBlockAudioBuffer::operator= Pages: 1 -->
<svg width="485pt" height="64pt"
 viewBox="0.00 0.00 485.25 64.25" xmlns="http://www.w3.org/2000/svg" xmlns:xlink="http://www.w3.org/1999/xlink">
<g id="graph0" class="graph" transform="scale(1 1) rotate(0) translate(4 60.25)">
<title>CBlockAudioBuffer::operator=</title>
<!-- Node1 -->
<g id="Node000001" class="node">
<title>Node1</title>
<g id="a_Node000001"><a xlink:title=" ">
<polygon fill="#999999" stroke="#666666" points="102.25,-42.88 0,-42.88 0,-12.37 102.25,-12.37 102.25,-42.88"/>
<text text-anchor="start" x="8" y="-29.38" font-family="Helvetica,sans-Serif" font-size="10.00">CBlockAudioBuffer::</text>
<text text-anchor="middle" x="51.12" y="-18.12" font-family="Helvetica,sans-Serif" font-size="10.00">operator=</text>
</a>
</g>
</g>
<!-- Node2 -->
<g id="Node000002" class="node">
<title>Node2</title>
<g id="a_Node000002"><a xlink:href="a00417.xhtml#ab670104b0f9ebde805e9219ae21cc6a9" target="_top" xlink:title=" ">
<polygon fill="white" stroke="#666666" points="240.5,-42.88 138.25,-42.88 138.25,-12.37 240.5,-12.37 240.5,-42.88"/>
<text text-anchor="start" x="146.25" y="-29.38" font-family="Helvetica,sans-Serif" font-size="10.00">CBlockAudioBuffer::</text>
<text text-anchor="middle" x="189.38" y="-18.12" font-family="Helvetica,sans-Serif" font-size="10.00">CBlockAudioBuffer</text>
</a>
</g>
</g>
<!-- Node1&#45;&gt;Node2 -->
<g id="edge1_Node000001_Node000002" class="edge">
<title>Node1&#45;&gt;Node2</title>
<g id="a_edge1_Node000001_Node000002"><a xlink:title=" ">
<path fill="none" stroke="#63b8ff" d="M102.47,-27.62C110.3,-27.62 118.47,-27.62 126.52,-27.62"/>
<polygon fill="#63b8ff" stroke="#63b8ff" points="126.27,-31.13 136.27,-27.63 126.27,-24.13 126.27,-31.13"/>
</a>
</g>
</g>
<!-- Node3 -->
<g id="Node000003" class="node">
<title>Node3</title>
<g id="a_Node000003"><a xlink:href="a00505.xhtml#abaadac98b1cad18b7b568852bc951696" target="_top" xlink:title=" ">
<polygon fill="white" stroke="#666666" points="352.5,-56.25 276.5,-56.25 276.5,-37 352.5,-37 352.5,-56.25"/>
<text text-anchor="middle" x="314.5" y="-42.75" font-family="Helvetica,sans-Serif" font-size="10.00">CVector::alloc</text>
</a>
</g>
</g>
<!-- Node2&#45;&gt;Node3 -->
<g id="edge2_Node000002_Node000003" class="edge">
<title>Node2&#45;&gt;Node3</title>
<g id="a_edge2_Node000002_Node000003"><a xlink:title=" ">
<path fill="none" stroke="#63b8ff" d="M240.81,-35.41C248.75,-36.63 256.95,-37.9 264.85,-39.12"/>
<polygon fill="#63b8ff" stroke="#63b8ff" points="264.24,-42.56 274.65,-40.63 265.3,-35.65 264.24,-42.56"/>
</a>
</g>
</g>
<!-- Node5 -->
<g id="Node000005" class="node">
<title>Node5</title>
<g id="a_Node000005"><a xlink:href="a00505.xhtml#ad7c5cba73e439adac77778f61c9418f0" target="_top" xlink:title=" ">
<polygon fill="white" stroke="#666666" points="352.5,-19.25 276.5,-19.25 276.5,0 352.5,0 352.5,-19.25"/>
<text text-anchor="middle" x="314.5" y="-5.75" font-family="Helvetica,sans-Serif" font-size="10.00">CVector::copy</text>
</a>
</g>
</g>
<!-- Node2&#45;&gt;Node5 -->
<g id="edge4_Node000002_Node000005" class="edge">
<title>Node2&#45;&gt;Node5</title>
<g id="a_edge4_Node000002_Node000005"><a xlink:title=" ">
<path fill="none" stroke="#63b8ff" d="M240.81,-20.25C248.75,-19.09 256.95,-17.89 264.85,-16.74"/>
<polygon fill="#63b8ff" stroke="#63b8ff" points="265.26,-20.21 274.65,-15.3 264.25,-13.29 265.26,-20.21"/>
</a>
</g>
</g>
<!-- Node4 -->
<g id="Node000004" class="node">
<title>Node4</title>
<g id="a_Node000004"><a xlink:href="a00505.xhtml#a6dbb3f9f480568b60f7fe50090d20003" target="_top" xlink:title=" ">
<polygon fill="white" stroke="#666666" points="477.25,-56.25 388.5,-56.25 388.5,-37 477.25,-37 477.25,-56.25"/>
<text text-anchor="middle" x="432.88" y="-42.75" font-family="Helvetica,sans-Serif" font-size="10.00">CVector::setZero</text>
</a>
</g>
</g>
<!-- Node3&#45;&gt;Node4 -->
<g id="edge3_Node000003_Node000004" class="edge">
<title>Node3&#45;&gt;Node4</title>
<g id="a_edge3_Node000003_Node000004"><a xlink:title=" ">
<path fill="none" stroke="#63b8ff" d="M352.96,-46.62C360.64,-46.62 368.87,-46.62 377.02,-46.62"/>
<polygon fill="#63b8ff" stroke="#63b8ff" points="376.89,-50.13 386.89,-46.63 376.89,-43.13 376.89,-50.13"/>
</a>
</g>
</g>
</g>
</svg>
