<?xml version="1.0" encoding="UTF-8" standalone="no"?>
<!DOCTYPE svg PUBLIC "-//W3C//DTD SVG 1.1//EN"
 "http://www.w3.org/Graphics/SVG/1.1/DTD/svg11.dtd">
<!-- Generated by graphviz version 12.2.1 (20241206.2353)
 -->
<!-- Title: CGammatone::CGammatone Pages: 1 -->
<svg width="325pt" height="64pt"
 viewBox="0.00 0.00 325.00 64.25" xmlns="http://www.w3.org/2000/svg" xmlns:xlink="http://www.w3.org/1999/xlink">
<g id="graph0" class="graph" transform="scale(1 1) rotate(0) translate(4 60.25)">
<title>CGammatone::CGammatone</title>
<!-- Node1 -->
<g id="Node000001" class="node">
<title>Node1</title>
<g id="a_Node000001"><a xlink:title=" ">
<polygon fill="#999999" stroke="#666666" points="317,-37.25 176.5,-37.25 176.5,-18 317,-18 317,-37.25"/>
<text text-anchor="middle" x="246.75" y="-23.75" font-family="Helvetica,sans-Serif" font-size="10.00">CGammatone::CGammatone</text>
</a>
</g>
</g>
<!-- Node2 -->
<g id="Node000002" class="node">
<title>Node2</title>
<g id="a_Node000002"><a xlink:href="a00421.xhtml#a0b7c6eb59a85dfa417411ed43a82549b" target="_top" xlink:title=" ">
<polygon fill="white" stroke="#666666" points="140.5,-56.25 0,-56.25 0,-37 140.5,-37 140.5,-56.25"/>
<text text-anchor="middle" x="70.25" y="-42.75" font-family="Helvetica,sans-Serif" font-size="10.00">CGammatone::CGammatone</text>
</a>
</g>
</g>
<!-- Node1&#45;&gt;Node2 -->
<g id="edge1_Node000001_Node000002" class="edge">
<title>Node1&#45;&gt;Node2</title>
<g id="a_edge1_Node000001_Node000002"><a xlink:title=" ">
<path fill="none" stroke="#63b8ff" d="M164.8,-36.44C156.8,-37.31 148.73,-38.19 140.86,-39.05"/>
<polygon fill="#63b8ff" stroke="#63b8ff" points="164.96,-39.94 174.53,-35.38 164.21,-32.98 164.96,-39.94"/>
</a>
</g>
</g>
<!-- Node3 -->
<g id="Node000003" class="node">
<title>Node3</title>
<g id="a_Node000003"><a xlink:href="a00421.xhtml#aa6624a68782475c2e0b91ed0601f3fe8" target="_top" xlink:title=" ">
<polygon fill="white" stroke="#666666" points="131.12,-19.25 9.37,-19.25 9.37,0 131.12,0 131.12,-19.25"/>
<text text-anchor="middle" x="70.25" y="-5.75" font-family="Helvetica,sans-Serif" font-size="10.00">CGammatone::operator=</text>
</a>
</g>
</g>
<!-- Node1&#45;&gt;Node3 -->
<g id="edge2_Node000001_Node000003" class="edge">
<title>Node1&#45;&gt;Node3</title>
<g id="a_edge2_Node000001_Node000003"><a xlink:title=" ">
<path fill="none" stroke="#63b8ff" d="M164.89,-19.28C153.68,-18.13 142.32,-16.96 131.57,-15.85"/>
<polygon fill="#63b8ff" stroke="#63b8ff" points="164.22,-22.73 174.53,-20.28 164.94,-15.77 164.22,-22.73"/>
</a>
</g>
</g>
</g>
</svg>
