<?xml version="1.0" encoding="UTF-8" standalone="no"?>
<!DOCTYPE svg PUBLIC "-//W3C//DTD SVG 1.1//EN"
 "http://www.w3.org/Graphics/SVG/1.1/DTD/svg11.dtd">
<!-- Generated by graphviz version 12.2.1 (20241206.2353)
 -->
<!-- Title: CFft::init Pages: 1 -->
<svg width="469pt" height="175pt"
 viewBox="0.00 0.00 468.75 175.25" xmlns="http://www.w3.org/2000/svg" xmlns:xlink="http://www.w3.org/1999/xlink">

<svg id="main" version="1.1" xmlns="http://www.w3.org/2000/svg" xmlns:xlink="http://www.w3.org/1999/xlink" xml:space="preserve">

<style type="text/css"><![CDATA[
.node, .edge {opacity: 0.7;}
.node.selected, .edge.selected {opacity: 1;}
.edge:hover path { stroke: red; }
.edge:hover polygon { stroke: red; fill: red; }
]]></style>
<script type="application/ecmascript" xlink:href="svg.min.js"/>
<svg id="graph" class="graph">
<g id="graph0" class="graph" transform="scale(1 1) rotate(0) translate(4 171.25)">
<title>CFft::init</title>
<!-- Node1 -->
<g id="Node000001" class="node">
<title>Node1</title>
<g id="a_Node000001"><a xlink:title=" ">
<polygon fill="#999999" stroke="#666666" points="52,-93.25 0,-93.25 0,-74 52,-74 52,-93.25"/>
<text text-anchor="middle" x="26" y="-79.75" font-family="Helvetica,sans-Serif" font-size="10.00">CFft::init</text>
</a>
</g>
</g>
<!-- Node2 -->
<g id="Node000002" class="node">
<title>Node2</title>
<g id="a_Node000002"><a xlink:href="a00477.xhtml#adf2bc81be5029515f69907765ecc2476" target="_top" xlink:title=" ">
<polygon fill="white" stroke="#666666" points="195.88,-167.25 96.62,-167.25 96.62,-148 195.88,-148 195.88,-167.25"/>
<text text-anchor="middle" x="146.25" y="-153.75" font-family="Helvetica,sans-Serif" font-size="10.00">CFft::allocMemory_</text>
</a>
</g>
</g>
<!-- Node1&#45;&gt;Node2 -->
<g id="edge1_Node000001_Node000002" class="edge">
<title>Node1&#45;&gt;Node2</title>
<g id="a_edge1_Node000001_Node000002"><a xlink:title=" ">
<path fill="none" stroke="#63b8ff" d="M35.1,-93.33C45.94,-105.74 66.34,-127.12 88,-139.62 90.16,-140.87 92.42,-142.05 94.74,-143.15"/>
<polygon fill="#63b8ff" stroke="#63b8ff" points="93.21,-146.3 103.78,-146.93 95.91,-139.84 93.21,-146.3"/>
</a>
</g>
</g>
<!-- Node5 -->
<g id="Node000005" class="node">
<title>Node5</title>
<g id="a_Node000005"><a xlink:href="a00477.xhtml#aa5fffd68919cea17741c9fe69209bce6" target="_top" xlink:title=" ">
<polygon fill="white" stroke="#666666" points="204.5,-130.25 88,-130.25 88,-111 204.5,-111 204.5,-130.25"/>
<text text-anchor="middle" x="146.25" y="-116.75" font-family="Helvetica,sans-Serif" font-size="10.00">CFft::computeWindow_</text>
</a>
</g>
</g>
<!-- Node1&#45;&gt;Node5 -->
<g id="edge4_Node000001_Node000005" class="edge">
<title>Node1&#45;&gt;Node5</title>
<g id="a_edge4_Node000001_Node000005"><a xlink:title=" ">
<path fill="none" stroke="#63b8ff" d="M52.37,-91.56C66.95,-96.13 85.66,-101.98 102.46,-107.24"/>
<polygon fill="#63b8ff" stroke="#63b8ff" points="101.13,-110.49 111.71,-110.13 103.22,-103.81 101.13,-110.49"/>
</a>
</g>
</g>
<!-- Node6 -->
<g id="Node000006" class="node">
<title>Node6</title>
<g id="a_Node000006"><a xlink:href="a00501.xhtml#a6d0e75b0bcbbb243b7141cfc0126e443" target="_top" xlink:title=" ">
<polygon fill="white" stroke="#666666" points="188.75,-93.25 103.75,-93.25 103.75,-74 188.75,-74 188.75,-93.25"/>
<text text-anchor="middle" x="146.25" y="-79.75" font-family="Helvetica,sans-Serif" font-size="10.00">CUtil::isPowOf2</text>
</a>
</g>
</g>
<!-- Node1&#45;&gt;Node6 -->
<g id="edge5_Node000001_Node000006" class="edge">
<title>Node1&#45;&gt;Node6</title>
<g id="a_edge5_Node000001_Node000006"><a xlink:title=" ">
<path fill="none" stroke="#63b8ff" d="M52.37,-83.62C64.03,-83.62 78.33,-83.62 92.18,-83.62"/>
<polygon fill="#63b8ff" stroke="#63b8ff" points="92.13,-87.13 102.13,-83.63 92.13,-80.13 92.13,-87.13"/>
</a>
</g>
</g>
<!-- Node7 -->
<g id="Node000007" class="node">
<title>Node7</title>
<g id="a_Node000007"><a xlink:href="a00501.xhtml#a0fd55429d52515a9efb2fe602ce8f9ed" target="_top" xlink:title=" ">
<polygon fill="white" stroke="#666666" points="194,-56.25 98.5,-56.25 98.5,-37 194,-37 194,-56.25"/>
<text text-anchor="middle" x="146.25" y="-42.75" font-family="Helvetica,sans-Serif" font-size="10.00">CUtil::nextPowOf2</text>
</a>
</g>
</g>
<!-- Node1&#45;&gt;Node7 -->
<g id="edge6_Node000001_Node000007" class="edge">
<title>Node1&#45;&gt;Node7</title>
<g id="a_edge6_Node000001_Node000007"><a xlink:title=" ">
<path fill="none" stroke="#63b8ff" d="M52.37,-75.69C66.95,-71.12 85.66,-65.27 102.46,-60.01"/>
<polygon fill="#63b8ff" stroke="#63b8ff" points="103.22,-63.44 111.71,-57.12 101.13,-56.76 103.22,-63.44"/>
</a>
</g>
</g>
<!-- Node8 -->
<g id="Node000008" class="node">
<title>Node8</title>
<g id="a_Node000008"><a xlink:href="a00477.xhtml#a0a0053b6ce93161553b573a16c77387a" target="_top" xlink:title=" ">
<polygon fill="white" stroke="#666666" points="176.75,-19.25 115.75,-19.25 115.75,0 176.75,0 176.75,-19.25"/>
<text text-anchor="middle" x="146.25" y="-5.75" font-family="Helvetica,sans-Serif" font-size="10.00">CFft::reset</text>
</a>
</g>
</g>
<!-- Node1&#45;&gt;Node8 -->
<g id="edge7_Node000001_Node000008" class="edge">
<title>Node1&#45;&gt;Node8</title>
<g id="a_edge7_Node000001_Node000008"><a xlink:title=" ">
<path fill="none" stroke="#63b8ff" d="M35.1,-73.92C45.94,-61.51 66.34,-40.13 88,-27.62 93.11,-24.67 98.77,-22.14 104.47,-20"/>
<polygon fill="#63b8ff" stroke="#63b8ff" points="105.58,-23.32 113.95,-16.81 103.35,-16.68 105.58,-23.32"/>
</a>
</g>
</g>
<!-- Node3 -->
<g id="Node000003" class="node">
<title>Node3</title>
<g id="a_Node000003"><a xlink:href="a00505.xhtml#abaadac98b1cad18b7b568852bc951696" target="_top" xlink:title=" ">
<polygon fill="white" stroke="#666666" points="326.25,-167.25 250.25,-167.25 250.25,-148 326.25,-148 326.25,-167.25"/>
<text text-anchor="middle" x="288.25" y="-153.75" font-family="Helvetica,sans-Serif" font-size="10.00">CVector::alloc</text>
</a>
</g>
</g>
<!-- Node2&#45;&gt;Node3 -->
<g id="edge2_Node000002_Node000003" class="edge">
<title>Node2&#45;&gt;Node3</title>
<g id="a_edge2_Node000002_Node000003"><a xlink:title=" ">
<path fill="none" stroke="#63b8ff" d="M196.22,-157.62C210.01,-157.62 225.02,-157.62 238.79,-157.62"/>
<polygon fill="#63b8ff" stroke="#63b8ff" points="238.49,-161.13 248.49,-157.63 238.49,-154.13 238.49,-161.13"/>
</a>
</g>
</g>
<!-- Node4 -->
<g id="Node000004" class="node">
<title>Node4</title>
<g id="a_Node000004"><a xlink:href="a00505.xhtml#a6dbb3f9f480568b60f7fe50090d20003" target="_top" xlink:title=" ">
<polygon fill="white" stroke="#666666" points="460.75,-167.25 372,-167.25 372,-148 460.75,-148 460.75,-167.25"/>
<text text-anchor="middle" x="416.38" y="-153.75" font-family="Helvetica,sans-Serif" font-size="10.00">CVector::setZero</text>
</a>
</g>
</g>
<!-- Node3&#45;&gt;Node4 -->
<g id="edge3_Node000003_Node000004" class="edge">
<title>Node3&#45;&gt;Node4</title>
<g id="a_edge3_Node000003_Node000004"><a xlink:title=" ">
<path fill="none" stroke="#63b8ff" d="M326.41,-157.62C337.09,-157.62 348.97,-157.62 360.48,-157.62"/>
<polygon fill="#63b8ff" stroke="#63b8ff" points="360.3,-161.13 370.3,-157.63 360.3,-154.13 360.3,-161.13"/>
</a>
</g>
</g>
<!-- Node9 -->
<g id="Node000009" class="node">
<title>Node9</title>
<g id="a_Node000009"><a xlink:href="a00477.xhtml#af48c6112f4a0d28b5badd8f317f4d191" target="_top" xlink:title=" ">
<polygon fill="white" stroke="#666666" points="336,-19.25 240.5,-19.25 240.5,0 336,0 336,-19.25"/>
<text text-anchor="middle" x="288.25" y="-5.75" font-family="Helvetica,sans-Serif" font-size="10.00">CFft::freeMemory_</text>
</a>
</g>
</g>
<!-- Node8&#45;&gt;Node9 -->
<g id="edge8_Node000008_Node000009" class="edge">
<title>Node8&#45;&gt;Node9</title>
<g id="a_edge8_Node000008_Node000009"><a xlink:title=" ">
<path fill="none" stroke="#63b8ff" d="M176.94,-9.62C192.09,-9.62 211.06,-9.62 228.98,-9.62"/>
<polygon fill="#63b8ff" stroke="#63b8ff" points="228.74,-13.13 238.74,-9.63 228.74,-6.13 228.74,-13.13"/>
</a>
</g>
</g>
<!-- Node10 -->
<g id="Node000010" class="node">
<title>Node10</title>
<g id="a_Node000010"><a xlink:href="a00505.xhtml#aa86bdb0c663d4d52f2765793756f8737" target="_top" xlink:title=" ">
<polygon fill="white" stroke="#666666" points="452.5,-19.25 380.25,-19.25 380.25,0 452.5,0 452.5,-19.25"/>
<text text-anchor="middle" x="416.38" y="-5.75" font-family="Helvetica,sans-Serif" font-size="10.00">CVector::free</text>
</a>
</g>
</g>
<!-- Node9&#45;&gt;Node10 -->
<g id="edge9_Node000009_Node000010" class="edge">
<title>Node9&#45;&gt;Node10</title>
<g id="a_edge9_Node000009_Node000010"><a xlink:title=" ">
<path fill="none" stroke="#63b8ff" d="M336.21,-9.62C346.7,-9.62 357.82,-9.62 368.3,-9.62"/>
<polygon fill="#63b8ff" stroke="#63b8ff" points="368.29,-13.13 378.29,-9.63 368.29,-6.13 368.29,-13.13"/>
</a>
</g>
</g>
</g>
</svg>
</svg>

<style type='text/css'>
<![CDATA[
[data-mouse-over-selected='false'] { opacity: 0.7; }
[data-mouse-over-selected='true']  { opacity: 1.0; }
]]>
</style>
<script type="application/ecmascript"><![CDATA[
document.addEventListener('DOMContentLoaded', (event) => {
  highlightEdges();
  highlightAdjacentNodes();
});
]]></script>
</svg>
