<?xml version="1.0" encoding="UTF-8" standalone="no"?>
<!DOCTYPE svg PUBLIC "-//W3C//DTD SVG 1.1//EN"
 "http://www.w3.org/Graphics/SVG/1.1/DTD/svg11.dtd">
<!-- Generated by graphviz version 4.0.0 (20220602.1335)
 -->
<!-- Title: CAudioFileSndLib::closeFile Pages: 1 -->
<svg width="528pt" height="230pt"
 viewBox="0.00 0.00 528.00 229.50" xmlns="http://www.w3.org/2000/svg" xmlns:xlink="http://www.w3.org/1999/xlink">
<g id="graph0" class="graph" transform="scale(1 1) rotate(0) translate(4 225.5)">
<title>CAudioFileSndLib::closeFile</title>
<polygon fill="white" stroke="transparent" points="-4,4 -4,-225.5 524,-225.5 524,4 -4,4"/>
<!-- Node1 -->
<g id="node1" class="node">
<title>Node1</title>
<g id="a_node1"><a xlink:title=" ">
<polygon fill="#bfbfbf" stroke="black" points="0,-95.5 0,-114.5 138,-114.5 138,-95.5 0,-95.5"/>
<text text-anchor="middle" x="69" y="-102.5" font-family="Helvetica,sans-Serif" font-size="10.00">CAudioFileSndLib::closeFile</text>
</a>
</g>
</g>
<!-- Node2 -->
<g id="node2" class="node">
<title>Node2</title>
<g id="a_node2"><a xlink:href="a00442.xhtml#a0bd2f97afe63b5e50c3b2ce4011607a9" target="_top" xlink:title=" ">
<polygon fill="white" stroke="black" points="184.5,-191 184.5,-221 318.5,-221 318.5,-191 184.5,-191"/>
<text text-anchor="start" x="192.5" y="-209" font-family="Helvetica,sans-Serif" font-size="10.00">CAudioFileIf::convFrames2</text>
<text text-anchor="middle" x="251.5" y="-198" font-family="Helvetica,sans-Serif" font-size="10.00">Bytes_</text>
</a>
</g>
</g>
<!-- Node1&#45;&gt;Node2 -->
<g id="edge1" class="edge">
<title>Node1&#45;&gt;Node2</title>
<path fill="none" stroke="midnightblue" d="M80.77,-114.69C98.85,-130.51 136.98,-162.03 174,-181 178.28,-183.19 182.8,-185.25 187.4,-187.17"/>
<polygon fill="midnightblue" stroke="midnightblue" points="186.36,-190.51 196.94,-190.9 188.91,-184 186.36,-190.51"/>
</g>
<!-- Node4 -->
<g id="node4" class="node">
<title>Node4</title>
<g id="a_node4"><a xlink:href="a00438.xhtml#a98ddb3055b9d9a5dfff957446e7ca4af" target="_top" xlink:title=" ">
<polygon fill="white" stroke="black" points="174,-152.5 174,-171.5 329,-171.5 329,-152.5 174,-152.5"/>
<text text-anchor="middle" x="251.5" y="-159.5" font-family="Helvetica,sans-Serif" font-size="10.00">CAudioFileSndLib::freeMemory_</text>
</a>
</g>
</g>
<!-- Node1&#45;&gt;Node4 -->
<g id="edge3" class="edge">
<title>Node1&#45;&gt;Node4</title>
<path fill="none" stroke="midnightblue" d="M94.13,-114.65C115.05,-122.81 146.24,-134.51 174,-143 181.99,-145.45 190.53,-147.81 198.89,-149.98"/>
<polygon fill="midnightblue" stroke="midnightblue" points="198.04,-153.38 208.59,-152.45 199.76,-146.59 198.04,-153.38"/>
</g>
<!-- Node6 -->
<g id="node6" class="node">
<title>Node6</title>
<g id="a_node6"><a xlink:href="a00442.xhtml#a3cabee15ce397c28520648b1cd367b06" target="_top" xlink:title=" ">
<polygon fill="white" stroke="black" points="190.5,-114.5 190.5,-133.5 312.5,-133.5 312.5,-114.5 190.5,-114.5"/>
<text text-anchor="middle" x="251.5" y="-121.5" font-family="Helvetica,sans-Serif" font-size="10.00">CAudioFileIf::getIoType_</text>
</a>
</g>
</g>
<!-- Node1&#45;&gt;Node6 -->
<g id="edge6" class="edge">
<title>Node1&#45;&gt;Node6</title>
<path fill="none" stroke="midnightblue" d="M138.24,-112.18C152.06,-113.64 166.61,-115.17 180.48,-116.63"/>
<polygon fill="midnightblue" stroke="midnightblue" points="180.14,-120.11 190.45,-117.68 180.87,-113.15 180.14,-120.11"/>
</g>
<!-- Node7 -->
<g id="node7" class="node">
<title>Node7</title>
<g id="a_node7"><a xlink:href="a00438.xhtml#a921906b813912dae8b4d48bbc696e222" target="_top" xlink:title=" ">
<polygon fill="white" stroke="black" points="186.5,-76.5 186.5,-95.5 316.5,-95.5 316.5,-76.5 186.5,-76.5"/>
<text text-anchor="middle" x="251.5" y="-83.5" font-family="Helvetica,sans-Serif" font-size="10.00">CAudioFileSndLib::isOpen</text>
</a>
</g>
</g>
<!-- Node1&#45;&gt;Node7 -->
<g id="edge7" class="edge">
<title>Node1&#45;&gt;Node7</title>
<path fill="none" stroke="midnightblue" d="M138.24,-97.82C150.69,-96.51 163.73,-95.13 176.34,-93.81"/>
<polygon fill="midnightblue" stroke="midnightblue" points="176.76,-97.28 186.33,-92.75 176.02,-90.32 176.76,-97.28"/>
</g>
<!-- Node8 -->
<g id="node8" class="node">
<title>Node8</title>
<g id="a_node8"><a xlink:href="a00257.xhtml#a2431ea0e77f5c6d378d71be2f7160cc9" target="_top" xlink:title=" ">
<polygon fill="white" stroke="black" points="190.5,-38.5 190.5,-57.5 312.5,-57.5 312.5,-38.5 190.5,-38.5"/>
<text text-anchor="middle" x="251.5" y="-45.5" font-family="Helvetica,sans-Serif" font-size="10.00">mus_sound_close_input</text>
</a>
</g>
</g>
<!-- Node1&#45;&gt;Node8 -->
<g id="edge8" class="edge">
<title>Node1&#45;&gt;Node8</title>
<path fill="none" stroke="midnightblue" d="M94.13,-95.35C115.05,-87.19 146.24,-75.49 174,-67 181.99,-64.55 190.53,-62.19 198.89,-60.02"/>
<polygon fill="midnightblue" stroke="midnightblue" points="199.76,-63.41 208.59,-57.55 198.04,-56.62 199.76,-63.41"/>
</g>
<!-- Node9 -->
<g id="node9" class="node">
<title>Node9</title>
<g id="a_node9"><a xlink:href="a00257.xhtml#a561614efebc9cd7f697286014b6757d0" target="_top" xlink:title=" ">
<polygon fill="white" stroke="black" points="187.5,-0.5 187.5,-19.5 315.5,-19.5 315.5,-0.5 187.5,-0.5"/>
<text text-anchor="middle" x="251.5" y="-7.5" font-family="Helvetica,sans-Serif" font-size="10.00">mus_sound_close_output</text>
</a>
</g>
</g>
<!-- Node1&#45;&gt;Node9 -->
<g id="edge9" class="edge">
<title>Node1&#45;&gt;Node9</title>
<path fill="none" stroke="midnightblue" d="M80.34,-95.27C98.09,-79.1 136.12,-46.71 174,-29 179.24,-26.55 184.84,-24.39 190.53,-22.49"/>
<polygon fill="midnightblue" stroke="midnightblue" points="191.62,-25.82 200.15,-19.54 189.57,-19.13 191.62,-25.82"/>
</g>
<!-- Node3 -->
<g id="node3" class="node">
<title>Node3</title>
<g id="a_node3"><a xlink:href="a00442.xhtml#a8f40ad8df042735092624da261d5de85" target="_top" xlink:title=" ">
<polygon fill="white" stroke="black" points="365,-193.5 365,-212.5 520,-212.5 520,-193.5 365,-193.5"/>
<text text-anchor="middle" x="442.5" y="-200.5" font-family="Helvetica,sans-Serif" font-size="10.00">CAudioFileIf::getNumChannels_</text>
</a>
</g>
</g>
<!-- Node2&#45;&gt;Node3 -->
<g id="edge2" class="edge">
<title>Node2&#45;&gt;Node3</title>
<path fill="none" stroke="midnightblue" d="M318.6,-204.95C330.25,-204.77 342.52,-204.57 354.63,-204.38"/>
<polygon fill="midnightblue" stroke="midnightblue" points="354.8,-207.88 364.75,-204.22 354.69,-200.88 354.8,-207.88"/>
</g>
<!-- Node4&#45;&gt;Node3 -->
<g id="edge5" class="edge">
<title>Node4&#45;&gt;Node3</title>
<path fill="none" stroke="midnightblue" d="M296.34,-171.51C323.55,-177.41 358.73,-185.04 387.63,-191.31"/>
<polygon fill="midnightblue" stroke="midnightblue" points="387.06,-194.77 397.58,-193.47 388.54,-187.93 387.06,-194.77"/>
</g>
<!-- Node5 -->
<g id="node5" class="node">
<title>Node5</title>
<g id="a_node5"><a xlink:href="a00442.xhtml#aec3ce9851e3b2876ff4978a0cbff7a2b" target="_top" xlink:title=" ">
<polygon fill="white" stroke="black" points="377,-152.5 377,-171.5 508,-171.5 508,-152.5 377,-152.5"/>
<text text-anchor="middle" x="442.5" y="-159.5" font-family="Helvetica,sans-Serif" font-size="10.00">CAudioFileIf::freeMemory_</text>
</a>
</g>
</g>
<!-- Node4&#45;&gt;Node5 -->
<g id="edge4" class="edge">
<title>Node4&#45;&gt;Node5</title>
<path fill="none" stroke="midnightblue" d="M329.1,-162C341.49,-162 354.31,-162 366.66,-162"/>
<polygon fill="midnightblue" stroke="midnightblue" points="366.9,-165.5 376.9,-162 366.9,-158.5 366.9,-165.5"/>
</g>
</g>
</svg>
