<?xml version="1.0" encoding="UTF-8" standalone="no"?>
<!DOCTYPE svg PUBLIC "-//W3C//DTD SVG 1.1//EN"
 "http://www.w3.org/Graphics/SVG/1.1/DTD/svg11.dtd">
<!-- Generated by graphviz version 4.0.0 (20220602.1335)
 -->
<!-- Title: CPitchTimeAuditory::compF0 Pages: 1 -->
<!--zoomable 590 -->
<svg id="main" version="1.1" xmlns="http://www.w3.org/2000/svg" xmlns:xlink="http://www.w3.org/1999/xlink" xml:space="preserve" onload="init(evt)">
<style type="text/css"><![CDATA[
.edge:hover path { stroke: red; }
.edge:hover polygon { stroke: red; fill: red; }
]]></style>
<script type="text/javascript"><![CDATA[
var edges = document.getElementsByTagName('g');
if (edges && edges.length) {
  for (var i=0;i<edges.length;i++) {
    if (edges[i].id.substr(0,4)=='edge') {
      edges[i].setAttribute('class','edge');
    }
  }
}
]]></script>
        <defs>
                <circle id="rim" cx="0" cy="0" r="7"/>
                <circle id="rim2" cx="0" cy="0" r="3.5"/>
                <g id="zoomPlus">
                        <use xlink:href="#rim" fill="#404040">
                                <set attributeName="fill" to="#808080" begin="zoomplus.mouseover" end="zoomplus.mouseout"/>
                        </use>
                        <path d="M-4,0h8M0,-4v8" fill="none" stroke="white" stroke-width="1.5" pointer-events="none"/>
                </g>
                <g id="zoomMin">
                        <use xlink:href="#rim" fill="#404040">
                                <set attributeName="fill" to="#808080" begin="zoomminus.mouseover" end="zoomminus.mouseout"/>
                        </use>
                        <path d="M-4,0h8" fill="none" stroke="white" stroke-width="1.5" pointer-events="none"/>
                </g>
                <g id="dirArrow">
                        <path fill="none" stroke="white" stroke-width="1.5" d="M0,-3.0v7 M-2.5,-0.5L0,-3.0L2.5,-0.5"/>
                </g>
               <g id="resetDef">
                       <use xlink:href="#rim2" fill="#404040">
                               <set attributeName="fill" to="#808080" begin="reset.mouseover" end="reset.mouseout"/>
                       </use>
               </g>
        </defs>

<script type="text/javascript">
var viewWidth = 592;
var viewHeight = 590;
var sectionId = 'dynsection-4';
</script>
<script xlink:href="svgpan.js"/>
<svg id="graph" class="graph">
<g id="viewport">
<title>CPitchTimeAuditory::compF0</title>
<polygon fill="white" stroke="transparent" points="-4,4 -4,-586 588,-586 588,4 -4,4"/>
<!-- Node1 -->
<g id="node1" class="node">
<title>Node1</title>
<g id="a_node1"><a xlink:title=" ">
<polygon fill="#bfbfbf" stroke="black" points="0,-329 0,-359 103,-359 103,-329 0,-329"/>
<text text-anchor="start" x="8" y="-347" font-family="Helvetica,sans-Serif" font-size="10.00">CPitchTimeAuditory</text>
<text text-anchor="middle" x="51.5" y="-336" font-family="Helvetica,sans-Serif" font-size="10.00">::compF0</text>
</a>
</g>
</g>
<!-- Node2 -->
<g id="node2" class="node">
<title>Node2</title>
<g id="a_node2"><a xlink:href="a00514.xhtml#a3a052b83e62e5c5cc44829c64ffe42eb" target="_top" xlink:title=" ">
<polygon fill="white" stroke="black" points="167,-562.5 167,-581.5 247,-581.5 247,-562.5 167,-562.5"/>
<text text-anchor="middle" x="207" y="-569.5" font-family="Helvetica,sans-Serif" font-size="10.00">CVector::add_I</text>
</a>
</g>
</g>
<!-- Node1&#45;&gt;Node2 -->
<g id="edge1" class="edge">
<title>Node1&#45;&gt;Node2</title>
<path fill="none" stroke="midnightblue" d="M54.7,-359.16C60.89,-396.57 81.95,-494.11 139,-548 144.31,-553.02 150.74,-557 157.49,-560.15"/>
<polygon fill="midnightblue" stroke="midnightblue" points="156.24,-563.42 166.82,-563.96 158.89,-556.94 156.24,-563.42"/>
</g>
<!-- Node3 -->
<g id="node3" class="node">
<title>Node3</title>
<g id="a_node3"><a xlink:href="a00558.xhtml#a4d7d19dd39b24147d9a1fab5d7e05257" target="_top" xlink:title=" ">
<polygon fill="white" stroke="black" points="166,-334.5 166,-353.5 248,-353.5 248,-334.5 166,-334.5"/>
<text text-anchor="middle" x="207" y="-341.5" font-family="Helvetica,sans-Serif" font-size="10.00">CCcf::compCcf</text>
</a>
</g>
</g>
<!-- Node1&#45;&gt;Node3 -->
<g id="edge2" class="edge">
<title>Node1&#45;&gt;Node3</title>
<path fill="none" stroke="midnightblue" d="M103.19,-344C119.96,-344 138.63,-344 155.4,-344"/>
<polygon fill="midnightblue" stroke="midnightblue" points="155.56,-347.5 165.56,-344 155.56,-340.5 155.56,-347.5"/>
</g>
<!-- Node8 -->
<g id="node8" class="node">
<title>Node8</title>
<g id="a_node8"><a xlink:href="a00514.xhtml#a6dbb3f9f480568b60f7fe50090d20003" target="_top" xlink:title=" ">
<polygon fill="white" stroke="black" points="495,-527.5 495,-546.5 584,-546.5 584,-527.5 495,-527.5"/>
<text text-anchor="middle" x="539.5" y="-534.5" font-family="Helvetica,sans-Serif" font-size="10.00">CVector::setZero</text>
</a>
</g>
</g>
<!-- Node1&#45;&gt;Node8 -->
<g id="edge31" class="edge">
<title>Node1&#45;&gt;Node8</title>
<path fill="none" stroke="midnightblue" d="M63.23,-359.31C78.2,-379.76 107.14,-416.06 139,-439 206.82,-487.84 230.15,-493.82 311,-515 368.99,-530.19 437.77,-535.12 484.4,-536.6"/>
<polygon fill="midnightblue" stroke="midnightblue" points="484.49,-540.1 494.59,-536.88 484.69,-533.11 484.49,-540.1"/>
</g>
<!-- Node15 -->
<g id="node15" class="node">
<title>Node15</title>
<g id="a_node15"><a xlink:href="a00402.xhtml#ad3ef7f984b93956e27cea585759fbc2e" target="_top" xlink:title=" ">
<polygon fill="white" stroke="black" points="155.5,-231 155.5,-261 258.5,-261 258.5,-231 155.5,-231"/>
<text text-anchor="start" x="163.5" y="-249" font-family="Helvetica,sans-Serif" font-size="10.00">CPitchTimeAuditory</text>
<text text-anchor="middle" x="207" y="-238" font-family="Helvetica,sans-Serif" font-size="10.00">::getAcfMax_</text>
</a>
</g>
</g>
<!-- Node1&#45;&gt;Node15 -->
<g id="edge18" class="edge">
<title>Node1&#45;&gt;Node15</title>
<path fill="none" stroke="midnightblue" d="M76.15,-328.9C102.29,-312.21 144.55,-285.23 173.72,-266.61"/>
<polygon fill="midnightblue" stroke="midnightblue" points="175.78,-269.45 182.33,-261.11 172.01,-263.55 175.78,-269.45"/>
</g>
<!-- Node17 -->
<g id="node17" class="node">
<title>Node17</title>
<g id="a_node17"><a xlink:href="a00558.xhtml#a02c0e23cbcecab5af2fb20a25160321a" target="_top" xlink:title=" ">
<polygon fill="white" stroke="black" points="171.5,-410.5 171.5,-429.5 242.5,-429.5 242.5,-410.5 171.5,-410.5"/>
<text text-anchor="middle" x="207" y="-417.5" font-family="Helvetica,sans-Serif" font-size="10.00">CCcf::getCcf</text>
</a>
</g>
</g>
<!-- Node1&#45;&gt;Node17 -->
<g id="edge20" class="edge">
<title>Node1&#45;&gt;Node17</title>
<path fill="none" stroke="midnightblue" d="M82.83,-359.02C110.22,-372.58 150.25,-392.4 177.17,-405.72"/>
<polygon fill="midnightblue" stroke="midnightblue" points="175.93,-409.02 186.44,-410.32 179.03,-402.74 175.93,-409.02"/>
</g>
<!-- Node18 -->
<g id="node18" class="node">
<title>Node18</title>
<g id="a_node18"><a xlink:href="a00570.xhtml#a213a39329bd7d70dbd90df71d1cf0735" target="_top" xlink:title=" ">
<polygon fill="white" stroke="black" points="139,-104.5 139,-123.5 275,-123.5 275,-104.5 139,-104.5"/>
<text text-anchor="middle" x="207" y="-111.5" font-family="Helvetica,sans-Serif" font-size="10.00">CGammaToneFbIf::process</text>
</a>
</g>
</g>
<!-- Node1&#45;&gt;Node18 -->
<g id="edge22" class="edge">
<title>Node1&#45;&gt;Node18</title>
<path fill="none" stroke="midnightblue" d="M62.57,-328.91C89.72,-288.23 164.36,-176.4 193.81,-132.26"/>
<polygon fill="midnightblue" stroke="midnightblue" points="196.74,-134.18 199.38,-123.92 190.92,-130.29 196.74,-134.18"/>
</g>
<!-- Node23 -->
<g id="node23" class="node">
<title>Node23</title>
<g id="a_node23"><a xlink:href="a00490.xhtml#a1c35f3511dcdc32517db3cea9c327ae8" target="_top" xlink:title=" ">
<polygon fill="white" stroke="black" points="165,-66.5 165,-85.5 249,-85.5 249,-66.5 165,-66.5"/>
<text text-anchor="middle" x="207" y="-73.5" font-family="Helvetica,sans-Serif" font-size="10.00">CFilter::process</text>
</a>
</g>
</g>
<!-- Node1&#45;&gt;Node23 -->
<g id="edge30" class="edge">
<title>Node1&#45;&gt;Node23</title>
<path fill="none" stroke="midnightblue" d="M53.12,-328.85C55.74,-285.66 69.27,-160.8 139,-95 143.67,-90.59 149.3,-87.19 155.27,-84.57"/>
<polygon fill="midnightblue" stroke="midnightblue" points="156.67,-87.79 164.86,-81.07 154.27,-81.21 156.67,-87.79"/>
</g>
<!-- Node4 -->
<g id="node4" class="node">
<title>Node4</title>
<g id="a_node4"><a xlink:href="a00486.xhtml#a3cae73896785c2f12ba979e15de48087" target="_top" xlink:title=" ">
<polygon fill="white" stroke="black" points="347,-486.5 347,-505.5 423,-505.5 423,-486.5 347,-486.5"/>
<text text-anchor="middle" x="385" y="-493.5" font-family="Helvetica,sans-Serif" font-size="10.00">CFft::compFft</text>
</a>
</g>
</g>
<!-- Node3&#45;&gt;Node4 -->
<g id="edge3" class="edge">
<title>Node3&#45;&gt;Node4</title>
<path fill="none" stroke="midnightblue" d="M219.49,-353.55C232.92,-364.78 255.77,-384.02 275,-401 291.27,-415.37 294.73,-419.64 311,-434 328.93,-449.82 349.74,-467.43 364.55,-479.82"/>
<polygon fill="midnightblue" stroke="midnightblue" points="362.59,-482.74 372.51,-486.47 367.07,-477.37 362.59,-482.74"/>
</g>
<!-- Node5 -->
<g id="node5" class="node">
<title>Node5</title>
<g id="a_node5"><a xlink:href="a00514.xhtml#ad7c5cba73e439adac77778f61c9418f0" target="_top" xlink:title=" ">
<polygon fill="white" stroke="black" points="501,-401.5 501,-420.5 578,-420.5 578,-401.5 501,-401.5"/>
<text text-anchor="middle" x="539.5" y="-408.5" font-family="Helvetica,sans-Serif" font-size="10.00">CVector::copy</text>
</a>
</g>
</g>
<!-- Node3&#45;&gt;Node5 -->
<g id="edge14" class="edge">
<title>Node3&#45;&gt;Node5</title>
<path fill="none" stroke="midnightblue" d="M220.79,-353.67C239.46,-367.16 275.79,-391.08 311,-401 371.14,-417.95 443.73,-417.78 490.48,-415.17"/>
<polygon fill="midnightblue" stroke="midnightblue" points="490.86,-418.66 500.63,-414.54 490.43,-411.67 490.86,-418.66"/>
</g>
<!-- Node9 -->
<g id="node9" class="node">
<title>Node9</title>
<g id="a_node9"><a xlink:href="a00486.xhtml#a2d2fa880b32c7087973ed25628002129" target="_top" xlink:title=" ">
<polygon fill="white" stroke="black" points="340.5,-296.5 340.5,-315.5 429.5,-315.5 429.5,-296.5 340.5,-296.5"/>
<text text-anchor="middle" x="385" y="-303.5" font-family="Helvetica,sans-Serif" font-size="10.00">CFft::compInvFft</text>
</a>
</g>
</g>
<!-- Node3&#45;&gt;Node9 -->
<g id="edge8" class="edge">
<title>Node3&#45;&gt;Node9</title>
<path fill="none" stroke="midnightblue" d="M248.38,-335.28C272.77,-330.02 304.14,-323.24 330.56,-317.54"/>
<polygon fill="midnightblue" stroke="midnightblue" points="331.39,-320.94 340.42,-315.41 329.91,-314.1 331.39,-320.94"/>
</g>
<!-- Node11 -->
<g id="node11" class="node">
<title>Node11</title>
<g id="a_node11"><a xlink:href="a00486.xhtml#ab6245bc0fdabc5e62ab910414eb4b923" target="_top" xlink:title=" ">
<polygon fill="white" stroke="black" points="340,-220.5 340,-239.5 430,-239.5 430,-220.5 340,-220.5"/>
<text text-anchor="middle" x="385" y="-227.5" font-family="Helvetica,sans-Serif" font-size="10.00">CFft::conjugate_I</text>
</a>
</g>
</g>
<!-- Node3&#45;&gt;Node11 -->
<g id="edge12" class="edge">
<title>Node3&#45;&gt;Node11</title>
<path fill="none" stroke="midnightblue" d="M216.41,-334.45C232.86,-316.32 271.18,-276.69 311,-254 318.66,-249.63 327.24,-245.92 335.74,-242.82"/>
<polygon fill="midnightblue" stroke="midnightblue" points="336.93,-246.11 345.26,-239.57 334.67,-239.49 336.93,-246.11"/>
</g>
<!-- Node12 -->
<g id="node12" class="node">
<title>Node12</title>
<g id="a_node12"><a xlink:href="a00514.xhtml#a9811f50434dd058d201290b2dc98bfcd" target="_top" xlink:title=" ">
<polygon fill="white" stroke="black" points="496,-220.5 496,-239.5 583,-239.5 583,-220.5 496,-220.5"/>
<text text-anchor="middle" x="539.5" y="-227.5" font-family="Helvetica,sans-Serif" font-size="10.00">CVector::mulC_I</text>
</a>
</g>
</g>
<!-- Node3&#45;&gt;Node12 -->
<g id="edge15" class="edge">
<title>Node3&#45;&gt;Node12</title>
<path fill="none" stroke="midnightblue" d="M222.42,-334.43C241.81,-321.94 277.73,-300.12 311,-287 319.38,-283.7 424.96,-257.7 489.3,-241.98"/>
<polygon fill="midnightblue" stroke="midnightblue" points="490.37,-245.32 499.25,-239.55 488.71,-238.52 490.37,-245.32"/>
</g>
<!-- Node13 -->
<g id="node13" class="node">
<title>Node13</title>
<g id="a_node13"><a xlink:href="a00514.xhtml#a269d316eeb6000aac4f57ade32c83127" target="_top" xlink:title=" ">
<polygon fill="white" stroke="black" points="335,-372.5 335,-391.5 435,-391.5 435,-372.5 335,-372.5"/>
<text text-anchor="middle" x="385" y="-379.5" font-family="Helvetica,sans-Serif" font-size="10.00">CVector::mulScalar</text>
</a>
</g>
</g>
<!-- Node3&#45;&gt;Node13 -->
<g id="edge16" class="edge">
<title>Node3&#45;&gt;Node13</title>
<path fill="none" stroke="midnightblue" d="M248.38,-352.72C272.59,-357.94 303.67,-364.66 329.98,-370.34"/>
<polygon fill="midnightblue" stroke="midnightblue" points="329.28,-373.77 339.8,-372.46 330.76,-366.92 329.28,-373.77"/>
</g>
<!-- Node14 -->
<g id="node14" class="node">
<title>Node14</title>
<g id="a_node14"><a xlink:href="a00486.xhtml#a1d114960d5fc8ff4c328732adf638885" target="_top" xlink:title=" ">
<polygon fill="white" stroke="black" points="344.5,-334.5 344.5,-353.5 425.5,-353.5 425.5,-334.5 344.5,-334.5"/>
<text text-anchor="middle" x="385" y="-341.5" font-family="Helvetica,sans-Serif" font-size="10.00">CFft::multiply_I</text>
</a>
</g>
</g>
<!-- Node3&#45;&gt;Node14 -->
<g id="edge17" class="edge">
<title>Node3&#45;&gt;Node14</title>
<path fill="none" stroke="midnightblue" d="M248.38,-344C273.94,-344 307.16,-344 334.33,-344"/>
<polygon fill="midnightblue" stroke="midnightblue" points="334.42,-347.5 344.42,-344 334.42,-340.5 334.42,-347.5"/>
</g>
<!-- Node4&#45;&gt;Node5 -->
<g id="edge4" class="edge">
<title>Node4&#45;&gt;Node5</title>
<path fill="none" stroke="midnightblue" d="M423.06,-488.06C435.16,-484.39 448.25,-479.2 459,-472 479.43,-458.32 475.24,-444.62 495,-430 497.3,-428.3 499.77,-426.71 502.33,-425.24"/>
<polygon fill="midnightblue" stroke="midnightblue" points="503.95,-428.34 511.24,-420.66 500.74,-422.12 503.95,-428.34"/>
</g>
<!-- Node6 -->
<g id="node6" class="node">
<title>Node6</title>
<g id="a_node6"><a xlink:href="a00514.xhtml#a5fb59528a3f5d3968f988d550b270898" target="_top" xlink:title=" ">
<polygon fill="white" stroke="black" points="499.5,-439.5 499.5,-458.5 579.5,-458.5 579.5,-439.5 499.5,-439.5"/>
<text text-anchor="middle" x="539.5" y="-446.5" font-family="Helvetica,sans-Serif" font-size="10.00">CVector::mul_I</text>
</a>
</g>
</g>
<!-- Node4&#45;&gt;Node6 -->
<g id="edge5" class="edge">
<title>Node4&#45;&gt;Node6</title>
<path fill="none" stroke="midnightblue" d="M416.86,-486.49C440.14,-479.31 472.3,-469.4 497.7,-461.57"/>
<polygon fill="midnightblue" stroke="midnightblue" points="498.9,-464.87 507.42,-458.58 496.84,-458.18 498.9,-464.87"/>
</g>
<!-- Node7 -->
<g id="node7" class="node">
<title>Node7</title>
<g id="a_node7"><a xlink:href="a00317.xhtml#a32fc71031e721d003fd1dc07f771351d" target="_top" xlink:title=" ">
<polygon fill="white" stroke="black" points="496.5,-478 496.5,-508 582.5,-508 582.5,-478 496.5,-478"/>
<text text-anchor="start" x="504.5" y="-496" font-family="Helvetica,sans-Serif" font-size="10.00">LaszloFft::realfft</text>
<text text-anchor="middle" x="539.5" y="-485" font-family="Helvetica,sans-Serif" font-size="10.00">_split</text>
</a>
</g>
</g>
<!-- Node4&#45;&gt;Node7 -->
<g id="edge6" class="edge">
<title>Node4&#45;&gt;Node7</title>
<path fill="none" stroke="midnightblue" d="M423.31,-495.27C442.24,-494.89 465.55,-494.44 486.24,-494.03"/>
<polygon fill="midnightblue" stroke="midnightblue" points="486.54,-497.52 496.47,-493.83 486.4,-490.52 486.54,-497.52"/>
</g>
<!-- Node4&#45;&gt;Node8 -->
<g id="edge7" class="edge">
<title>Node4&#45;&gt;Node8</title>
<path fill="none" stroke="midnightblue" d="M421.37,-505.51C442.75,-511.26 470.23,-518.65 493.19,-524.82"/>
<polygon fill="midnightblue" stroke="midnightblue" points="492.49,-528.25 503.06,-527.47 494.31,-521.49 492.49,-528.25"/>
</g>
<!-- Node9&#45;&gt;Node5 -->
<g id="edge9" class="edge">
<title>Node9&#45;&gt;Node5</title>
<path fill="none" stroke="midnightblue" d="M429.71,-313.06C439.78,-315.84 450.12,-319.68 459,-325 487.91,-342.32 512.71,-373.26 526.6,-392.93"/>
<polygon fill="midnightblue" stroke="midnightblue" points="523.82,-395.05 532.36,-401.32 529.59,-391.1 523.82,-395.05"/>
</g>
<!-- Node9&#45;&gt;Node6 -->
<g id="edge11" class="edge">
<title>Node9&#45;&gt;Node6</title>
<path fill="none" stroke="midnightblue" d="M429.65,-310.08C440.3,-312.9 450.93,-317.52 459,-325 495.18,-358.54 461.57,-393.72 495,-430 496.19,-431.29 497.48,-432.5 498.86,-433.63"/>
<polygon fill="midnightblue" stroke="midnightblue" points="497.11,-436.67 507.38,-439.28 500.98,-430.84 497.11,-436.67"/>
</g>
<!-- Node10 -->
<g id="node10" class="node">
<title>Node10</title>
<g id="a_node10"><a xlink:href="a00317.xhtml#a3597bc1b9aa8e068d7313a72c4e51eef" target="_top" xlink:title=" ">
<polygon fill="white" stroke="black" points="495.5,-291 495.5,-321 583.5,-321 583.5,-291 495.5,-291"/>
<text text-anchor="start" x="503.5" y="-309" font-family="Helvetica,sans-Serif" font-size="10.00">LaszloFft::irealfft</text>
<text text-anchor="middle" x="539.5" y="-298" font-family="Helvetica,sans-Serif" font-size="10.00">_split</text>
</a>
</g>
</g>
<!-- Node9&#45;&gt;Node10 -->
<g id="edge10" class="edge">
<title>Node9&#45;&gt;Node10</title>
<path fill="none" stroke="midnightblue" d="M429.7,-306C447,-306 467.05,-306 485.18,-306"/>
<polygon fill="midnightblue" stroke="midnightblue" points="485.32,-309.5 495.32,-306 485.32,-302.5 485.32,-309.5"/>
</g>
<!-- Node11&#45;&gt;Node12 -->
<g id="edge13" class="edge">
<title>Node11&#45;&gt;Node12</title>
<path fill="none" stroke="midnightblue" d="M430.11,-230C447.47,-230 467.55,-230 485.68,-230"/>
<polygon fill="midnightblue" stroke="midnightblue" points="485.8,-233.5 495.8,-230 485.8,-226.5 485.8,-233.5"/>
</g>
<!-- Node16 -->
<g id="node16" class="node">
<title>Node16</title>
<g id="a_node16"><a xlink:href="a00514.xhtml#a34a5c0abd80cd982df8a8bae7cbcea19" target="_top" xlink:title=" ">
<polygon fill="white" stroke="black" points="340.5,-182.5 340.5,-201.5 429.5,-201.5 429.5,-182.5 340.5,-182.5"/>
<text text-anchor="middle" x="385" y="-189.5" font-family="Helvetica,sans-Serif" font-size="10.00">CVector::findMax</text>
</a>
</g>
</g>
<!-- Node15&#45;&gt;Node16 -->
<g id="edge19" class="edge">
<title>Node15&#45;&gt;Node16</title>
<path fill="none" stroke="midnightblue" d="M249.87,-231C268.49,-224.53 290.74,-217.07 311,-211 318.85,-208.65 327.22,-206.31 335.39,-204.12"/>
<polygon fill="midnightblue" stroke="midnightblue" points="336.43,-207.47 345.21,-201.53 334.65,-200.7 336.43,-207.47"/>
</g>
<!-- Node17&#45;&gt;Node5 -->
<g id="edge21" class="edge">
<title>Node17&#45;&gt;Node5</title>
<path fill="none" stroke="midnightblue" d="M242.69,-426.21C291.29,-433.94 382.3,-444.87 459,-434 473.51,-431.94 489.08,-427.87 502.56,-423.72"/>
<polygon fill="midnightblue" stroke="midnightblue" points="503.95,-426.95 512.41,-420.56 501.82,-420.29 503.95,-426.95"/>
</g>
<!-- Node19 -->
<g id="node19" class="node">
<title>Node19</title>
<g id="a_node19"><a xlink:href="a00554.xhtml#a531920b36b04ecdb562bfbb09dd2e856" target="_top" xlink:title=" ">
<polygon fill="white" stroke="black" points="314,-38.5 314,-57.5 456,-57.5 456,-38.5 314,-38.5"/>
<text text-anchor="middle" x="385" y="-45.5" font-family="Helvetica,sans-Serif" font-size="10.00">CBlockAudioIf::getNextBlock</text>
</a>
</g>
</g>
<!-- Node18&#45;&gt;Node19 -->
<g id="edge23" class="edge">
<title>Node18&#45;&gt;Node19</title>
<path fill="none" stroke="midnightblue" d="M251.11,-104.43C259.26,-101.89 267.56,-98.77 275,-95 293.08,-85.84 292.82,-75.96 311,-67 315.85,-64.61 321.03,-62.5 326.3,-60.64"/>
<polygon fill="midnightblue" stroke="midnightblue" points="327.43,-63.95 335.87,-57.55 325.27,-57.29 327.43,-63.95"/>
</g>
<!-- Node20 -->
<g id="node20" class="node">
<title>Node20</title>
<g id="a_node20"><a xlink:href="a00554.xhtml#a595b3a391e2540a1dc9e53edf8634494" target="_top" xlink:title=" ">
<polygon fill="white" stroke="black" points="311,-0.5 311,-19.5 459,-19.5 459,-0.5 311,-0.5"/>
<text text-anchor="middle" x="385" y="-7.5" font-family="Helvetica,sans-Serif" font-size="10.00">CBlockAudioIf::getNumBlocks</text>
</a>
</g>
</g>
<!-- Node18&#45;&gt;Node20 -->
<g id="edge24" class="edge">
<title>Node18&#45;&gt;Node20</title>
<path fill="none" stroke="midnightblue" d="M258.81,-104.36C264.62,-101.92 270.18,-98.85 275,-95 301.11,-74.15 284.67,-49.57 311,-29 313.32,-27.19 315.8,-25.54 318.39,-24.06"/>
<polygon fill="midnightblue" stroke="midnightblue" points="320.1,-27.12 327.55,-19.58 317.03,-20.83 320.1,-27.12"/>
</g>
<!-- Node21 -->
<g id="node21" class="node">
<title>Node21</title>
<g id="a_node21"><a xlink:href="a00618.xhtml#aa8a561b4133585586c5b595116a9217f" target="_top" xlink:title=" ">
<polygon fill="white" stroke="black" points="316.5,-77 316.5,-107 453.5,-107 453.5,-77 316.5,-77"/>
<text text-anchor="start" x="324.5" y="-95" font-family="Helvetica,sans-Serif" font-size="10.00">CNormalizeAudio::normalize</text>
<text text-anchor="middle" x="385" y="-84" font-family="Helvetica,sans-Serif" font-size="10.00">Block</text>
</a>
</g>
</g>
<!-- Node18&#45;&gt;Node21 -->
<g id="edge25" class="edge">
<title>Node18&#45;&gt;Node21</title>
<path fill="none" stroke="midnightblue" d="M275.04,-105.62C285.27,-104.34 295.91,-103.01 306.34,-101.71"/>
<polygon fill="midnightblue" stroke="midnightblue" points="306.78,-105.18 316.27,-100.47 305.91,-98.23 306.78,-105.18"/>
</g>
<!-- Node22 -->
<g id="node22" class="node">
<title>Node22</title>
<g id="a_node22"><a xlink:href="a00430.xhtml#ad34aa3e4260873a5abce7e9e8d6189ab" target="_top" xlink:title=" ">
<polygon fill="white" stroke="black" points="327,-126.5 327,-145.5 443,-145.5 443,-126.5 327,-126.5"/>
<text text-anchor="middle" x="385" y="-133.5" font-family="Helvetica,sans-Serif" font-size="10.00">CGammatone::process</text>
</a>
</g>
</g>
<!-- Node18&#45;&gt;Node22 -->
<g id="edge27" class="edge">
<title>Node18&#45;&gt;Node22</title>
<path fill="none" stroke="midnightblue" d="M275.04,-122.38C288.66,-124.08 303,-125.88 316.64,-127.58"/>
<polygon fill="midnightblue" stroke="midnightblue" points="316.55,-131.1 326.9,-128.86 317.41,-124.15 316.55,-131.1"/>
</g>
<!-- Node21&#45;&gt;Node12 -->
<g id="edge26" class="edge">
<title>Node21&#45;&gt;Node12</title>
<path fill="none" stroke="midnightblue" d="M442.08,-107.05C448.08,-109.85 453.86,-113.14 459,-117 492.72,-142.31 517.62,-186.14 529.91,-211.12"/>
<polygon fill="midnightblue" stroke="midnightblue" points="526.81,-212.75 534.26,-220.28 533.13,-209.74 526.81,-212.75"/>
</g>
<!-- Node22&#45;&gt;Node5 -->
<g id="edge28" class="edge">
<title>Node22&#45;&gt;Node5</title>
<path fill="none" stroke="midnightblue" d="M418.89,-145.59C433.19,-151.35 448.94,-160.12 459,-173 503.32,-229.77 469.56,-263.62 495,-331 503.32,-353.05 516.7,-376.54 526.43,-392.32"/>
<polygon fill="midnightblue" stroke="midnightblue" points="523.64,-394.47 531.93,-401.07 529.57,-390.75 523.64,-394.47"/>
</g>
<!-- Node22&#45;&gt;Node22 -->
<g id="edge29" class="edge">
<title>Node22&#45;&gt;Node22</title>
<path fill="none" stroke="midnightblue" d="M361.26,-145.76C349.72,-154.57 357.63,-164 385,-164 402.96,-164 412.54,-159.94 413.75,-154.65"/>
<polygon fill="midnightblue" stroke="midnightblue" points="416.69,-152.75 408.74,-145.76 410.59,-156.19 416.69,-152.75"/>
</g>
</g>
</svg>
        <g id="navigator" transform="translate(0 0)" fill="#404254">
                <rect fill="#f2f5e9" fill-opacity="0.5" stroke="#606060" stroke-width=".5" x="0" y="0" width="60" height="60"/>
                <use id="zoomplus" xlink:href="#zoomPlus" x="17" y="9" onmousedown="handleZoom(evt,'in')"/>
                <use id="zoomminus" xlink:href="#zoomMin" x="42" y="9" onmousedown="handleZoom(evt,'out')"/>
                <use id="reset" xlink:href="#resetDef" x="30" y="36" onmousedown="handleReset()"/>
                <g id="arrowUp" xlink:href="#dirArrow" transform="translate(30 24)" onmousedown="handlePan(0,-1)">
                  <use xlink:href="#rim" fill="#404040">
                        <set attributeName="fill" to="#808080" begin="arrowUp.mouseover" end="arrowUp.mouseout"/>
                  </use>
                  <path fill="none" stroke="white" stroke-width="1.5" d="M0,-3.0v7 M-2.5,-0.5L0,-3.0L2.5,-0.5"/>
                </g>
                <g id="arrowRight" xlink:href="#dirArrow" transform="rotate(90) translate(36 -43)" onmousedown="handlePan(1,0)">
                  <use xlink:href="#rim" fill="#404040">
                        <set attributeName="fill" to="#808080" begin="arrowRight.mouseover" end="arrowRight.mouseout"/>
                  </use>
                  <path fill="none" stroke="white" stroke-width="1.5" d="M0,-3.0v7 M-2.5,-0.5L0,-3.0L2.5,-0.5"/>
                </g>
                <g id="arrowDown" xlink:href="#dirArrow" transform="rotate(180) translate(-30 -48)" onmousedown="handlePan(0,1)">
                  <use xlink:href="#rim" fill="#404040">
                        <set attributeName="fill" to="#808080" begin="arrowDown.mouseover" end="arrowDown.mouseout"/>
                  </use>
                  <path fill="none" stroke="white" stroke-width="1.5" d="M0,-3.0v7 M-2.5,-0.5L0,-3.0L2.5,-0.5"/>
                </g>
                <g id="arrowLeft" xlink:href="#dirArrow" transform="rotate(270) translate(-36 17)" onmousedown="handlePan(-1,0)">
                  <use xlink:href="#rim" fill="#404040">
                        <set attributeName="fill" to="#808080" begin="arrowLeft.mouseover" end="arrowLeft.mouseout"/>
                  </use>
                  <path fill="none" stroke="white" stroke-width="1.5" d="M0,-3.0v7 M-2.5,-0.5L0,-3.0L2.5,-0.5"/>
                </g>
        </g>
        <svg viewBox="0 0 15 15" width="100%" height="30px" preserveAspectRatio="xMaxYMin meet">
         <g id="arrow_out" transform="scale(0.3 0.3)">
          <a xlink:href="a00402_a7fa2c23a2108dc313f319ec803a6181f_cgraph_org.svg" target="_base">
           <rect id="button" ry="5" rx="5" y="6" x="6" height="38" width="38"
                fill="#f2f5e9" fill-opacity="0.5" stroke="#606060" stroke-width="1.0"/>
           <path id="arrow"
             d="M 11.500037,31.436501 C 11.940474,20.09759 22.043105,11.32322 32.158766,21.979434 L 37.068811,17.246167 C 37.068811,17.246167 37.088388,32 37.088388,32 L 22.160133,31.978069 C 22.160133,31.978069 26.997745,27.140456 26.997745,27.140456 C 18.528582,18.264221 13.291696,25.230495 11.500037,31.436501 z"
             style="fill:#404040;"/>
          </a>
         </g>
        </svg>
</svg>
