<?xml version="1.0" encoding="UTF-8" standalone="no"?>
<!DOCTYPE svg PUBLIC "-//W3C//DTD SVG 1.1//EN"
 "http://www.w3.org/Graphics/SVG/1.1/DTD/svg11.dtd">
<!-- Generated by graphviz version 6.0.1 (20220911.1526)
 -->
<!-- Title: CGammatone::init Pages: 1 -->
<svg width="415pt" height="27pt"
 viewBox="0.00 0.00 415.00 27.00" xmlns="http://www.w3.org/2000/svg" xmlns:xlink="http://www.w3.org/1999/xlink">
<g id="graph0" class="graph" transform="scale(1 1) rotate(0) translate(4 23)">
<title>CGammatone::init</title>
<!-- Node1 -->
<g id="node1" class="node">
<title>Node1</title>
<g id="a_node1"><a xlink:title=" ">
<polygon fill="#999999" stroke="#666666" points="94,-19 0,-19 0,0 94,0 94,-19"/>
<text text-anchor="middle" x="47" y="-7" font-family="Helvetica,sans-Serif" font-size="10.00">CGammatone::init</text>
</a>
</g>
</g>
<!-- Node2 -->
<g id="node2" class="node">
<title>Node2</title>
<g id="a_node2"><a xlink:href="a00418.xhtml#ad55d2100a36627da0ddf9c07f89426bd" target="_top" xlink:title=" ">
<polygon fill="white" stroke="#666666" points="284,-19 130,-19 130,0 284,0 284,-19"/>
<text text-anchor="middle" x="207" y="-7" font-family="Helvetica,sans-Serif" font-size="10.00">CGammatone::calcFilterCoeffs_</text>
</a>
</g>
</g>
<!-- Node1&#45;&gt;Node2 -->
<g id="edge1" class="edge">
<title>Node1&#45;&gt;Node2</title>
<path fill="none" stroke="#63b8ff" d="M94.12,-3.3C102.18,-3.01 110.78,-2.84 119.51,-2.78"/>
<polygon fill="#63b8ff" stroke="#63b8ff" points="119.8,-6.28 129.79,-2.75 119.79,0.72 119.8,-6.28"/>
</g>
<!-- Node2&#45;&gt;Node1 -->
<g id="edge2" class="edge">
<title>Node2&#45;&gt;Node1</title>
<path fill="none" stroke="#63b8ff" d="M129.79,-16.25C121.22,-16.27 112.61,-16.19 104.36,-16"/>
<polygon fill="#63b8ff" stroke="#63b8ff" points="104.22,-12.49 94.12,-15.7 104.02,-19.49 104.22,-12.49"/>
</g>
<!-- Node3 -->
<g id="node3" class="node">
<title>Node3</title>
<g id="a_node3"><a xlink:href="a00502.xhtml#a9811f50434dd058d201290b2dc98bfcd" target="_top" xlink:title=" ">
<polygon fill="white" stroke="#666666" points="407,-19 320,-19 320,0 407,0 407,-19"/>
<text text-anchor="middle" x="363.5" y="-7" font-family="Helvetica,sans-Serif" font-size="10.00">CVector::mulC_I</text>
</a>
</g>
</g>
<!-- Node2&#45;&gt;Node3 -->
<g id="edge3" class="edge">
<title>Node2&#45;&gt;Node3</title>
<path fill="none" stroke="#63b8ff" d="M284.34,-9.5C292.9,-9.5 301.46,-9.5 309.63,-9.5"/>
<polygon fill="#63b8ff" stroke="#63b8ff" points="309.72,-13 319.72,-9.5 309.72,-6 309.72,-13"/>
</g>
</g>
</svg>
