<?xml version="1.0" encoding="UTF-8" standalone="no"?>
<!DOCTYPE svg PUBLIC "-//W3C//DTD SVG 1.1//EN"
 "http://www.w3.org/Graphics/SVG/1.1/DTD/svg11.dtd">
<!-- Generated by graphviz version 12.2.1 (20241206.2353)
 -->
<!-- Title: CFeatureIf::create Pages: 1 -->
<svg width="710pt" height="113pt"
 viewBox="0.00 0.00 709.75 113.25" xmlns="http://www.w3.org/2000/svg" xmlns:xlink="http://www.w3.org/1999/xlink">
<g id="graph0" class="graph" transform="scale(1 1) rotate(0) translate(4 109.25)">
<title>CFeatureIf::create</title>
<!-- Node1 -->
<g id="Node000001" class="node">
<title>Node1</title>
<g id="a_Node000001"><a xlink:title=" ">
<polygon fill="#999999" stroke="#666666" points="93.25,-62.25 0,-62.25 0,-43 93.25,-43 93.25,-62.25"/>
<text text-anchor="middle" x="46.62" y="-48.75" font-family="Helvetica,sans-Serif" font-size="10.00">CFeatureIf::create</text>
</a>
</g>
</g>
<!-- Node2 -->
<g id="Node000002" class="node">
<title>Node2</title>
<g id="a_Node000002"><a xlink:href="a00469.xhtml#a9893395e4967a4db2d021994e6917e70" target="_top" xlink:title=" ">
<polygon fill="white" stroke="#666666" points="241.25,-62.25 129.25,-62.25 129.25,-43 241.25,-43 241.25,-62.25"/>
<text text-anchor="middle" x="185.25" y="-48.75" font-family="Helvetica,sans-Serif" font-size="10.00">CFeatureIf::CFeatureIf</text>
</a>
</g>
</g>
<!-- Node1&#45;&gt;Node2 -->
<g id="edge1_Node000001_Node000002" class="edge">
<title>Node1&#45;&gt;Node2</title>
<g id="a_edge1_Node000001_Node000002"><a xlink:title=" ">
<path fill="none" stroke="#63b8ff" d="M93.5,-52.62C101.19,-52.62 109.31,-52.62 117.4,-52.62"/>
<polygon fill="#63b8ff" stroke="#63b8ff" points="117.27,-56.13 127.27,-52.63 117.27,-49.13 117.27,-56.13"/>
</a>
</g>
</g>
<!-- Node3 -->
<g id="Node000003" class="node">
<title>Node3</title>
<g id="a_Node000003"><a xlink:href="a00469.xhtml#a7b77edaf405fefd82329d8987b16d1f2" target="_top" xlink:title="reset configuration">
<polygon fill="white" stroke="#666666" points="370.5,-62.25 277.25,-62.25 277.25,-43 370.5,-43 370.5,-62.25"/>
<text text-anchor="middle" x="323.88" y="-48.75" font-family="Helvetica,sans-Serif" font-size="10.00">CFeatureIf::reset_</text>
</a>
</g>
</g>
<!-- Node2&#45;&gt;Node3 -->
<g id="edge2_Node000002_Node000003" class="edge">
<title>Node2&#45;&gt;Node3</title>
<g id="a_edge2_Node000002_Node000003"><a xlink:title=" ">
<path fill="none" stroke="#63b8ff" d="M241.43,-52.62C249.48,-52.62 257.79,-52.62 265.88,-52.62"/>
<polygon fill="#63b8ff" stroke="#63b8ff" points="265.61,-56.13 275.61,-52.63 265.61,-49.13 265.61,-56.13"/>
</a>
</g>
</g>
<!-- Node4 -->
<g id="Node000004" class="node">
<title>Node4</title>
<g id="a_Node000004"><a xlink:href="a00545.xhtml#a13d2bd6e36210dde0c64d188c1266b88" target="_top" xlink:title=" ">
<polygon fill="white" stroke="#666666" points="520.75,-105.25 406.5,-105.25 406.5,-86 520.75,-86 520.75,-105.25"/>
<text text-anchor="middle" x="463.62" y="-91.75" font-family="Helvetica,sans-Serif" font-size="10.00">CBlockAudioIf::destroy</text>
</a>
</g>
</g>
<!-- Node3&#45;&gt;Node4 -->
<g id="edge3_Node000003_Node000004" class="edge">
<title>Node3&#45;&gt;Node4</title>
<g id="a_edge3_Node000003_Node000004"><a xlink:title=" ">
<path fill="none" stroke="#63b8ff" d="M357.17,-62.71C375.82,-68.53 399.52,-75.93 419.72,-82.23"/>
<polygon fill="#63b8ff" stroke="#63b8ff" points="418.5,-85.52 429.09,-85.16 420.58,-78.83 418.5,-85.52"/>
</a>
</g>
</g>
<!-- Node6 -->
<g id="Node000006" class="node">
<title>Node6</title>
<g id="a_Node000006"><a xlink:href="a00473.xhtml#a300e7b2134b2bd0faaa24cfecbd9cb51" target="_top" xlink:title=" ">
<polygon fill="white" stroke="#666666" points="518.12,-67.88 409.12,-67.88 409.12,-37.38 518.12,-37.38 518.12,-67.88"/>
<text text-anchor="start" x="417.12" y="-54.38" font-family="Helvetica,sans-Serif" font-size="10.00">CFeatureFromBlockIf</text>
<text text-anchor="middle" x="463.62" y="-43.12" font-family="Helvetica,sans-Serif" font-size="10.00">::destroy</text>
</a>
</g>
</g>
<!-- Node3&#45;&gt;Node6 -->
<g id="edge5_Node000003_Node000006" class="edge">
<title>Node3&#45;&gt;Node6</title>
<g id="a_edge5_Node000003_Node000006"><a xlink:title=" ">
<path fill="none" stroke="#63b8ff" d="M370.74,-52.62C379.33,-52.62 388.45,-52.62 397.49,-52.62"/>
<polygon fill="#63b8ff" stroke="#63b8ff" points="397.33,-56.13 407.33,-52.63 397.33,-49.13 397.33,-56.13"/>
</a>
</g>
</g>
<!-- Node8 -->
<g id="Node000008" class="node">
<title>Node8</title>
<g id="a_Node000008"><a xlink:href="a00505.xhtml#aa86bdb0c663d4d52f2765793756f8737" target="_top" xlink:title=" ">
<polygon fill="white" stroke="#666666" points="499.75,-19.25 427.5,-19.25 427.5,0 499.75,0 499.75,-19.25"/>
<text text-anchor="middle" x="463.62" y="-5.75" font-family="Helvetica,sans-Serif" font-size="10.00">CVector::free</text>
</a>
</g>
</g>
<!-- Node3&#45;&gt;Node8 -->
<g id="edge7_Node000003_Node000008" class="edge">
<title>Node3&#45;&gt;Node8</title>
<g id="a_edge7_Node000003_Node000008"><a xlink:title=" ">
<path fill="none" stroke="#63b8ff" d="M357.17,-42.54C375.82,-36.72 399.52,-29.32 419.72,-23.02"/>
<polygon fill="#63b8ff" stroke="#63b8ff" points="420.58,-26.42 429.09,-20.09 418.5,-19.73 420.58,-26.42"/>
</a>
</g>
</g>
<!-- Node5 -->
<g id="Node000005" class="node">
<title>Node5</title>
<g id="a_Node000005"><a xlink:href="a00545.xhtml#a25b4acfbc219a671933702aaf97229fd" target="_top" xlink:title=" ">
<polygon fill="white" stroke="#666666" points="701.75,-105.25 556.75,-105.25 556.75,-86 701.75,-86 701.75,-105.25"/>
<text text-anchor="middle" x="629.25" y="-91.75" font-family="Helvetica,sans-Serif" font-size="10.00">CBlockAudioIf::CBlockAudioIf</text>
</a>
</g>
</g>
<!-- Node4&#45;&gt;Node5 -->
<g id="edge4_Node000004_Node000005" class="edge">
<title>Node4&#45;&gt;Node5</title>
<g id="a_edge4_Node000004_Node000005"><a xlink:title=" ">
<path fill="none" stroke="#63b8ff" d="M520.94,-95.62C528.73,-95.62 536.86,-95.62 545.01,-95.62"/>
<polygon fill="#63b8ff" stroke="#63b8ff" points="545.01,-99.13 555.01,-95.63 545.01,-92.13 545.01,-99.13"/>
</a>
</g>
</g>
<!-- Node7 -->
<g id="Node000007" class="node">
<title>Node7</title>
<g id="a_Node000007"><a xlink:href="a00473.xhtml#a483bca508e2817799a3173a6180d245e" target="_top" xlink:title=" ">
<polygon fill="white" stroke="#666666" points="686,-67.88 572.5,-67.88 572.5,-37.38 686,-37.38 686,-67.88"/>
<text text-anchor="start" x="580.5" y="-54.38" font-family="Helvetica,sans-Serif" font-size="10.00">CFeatureFromBlockIf</text>
<text text-anchor="middle" x="629.25" y="-43.12" font-family="Helvetica,sans-Serif" font-size="10.00">::CFeatureFromBlockIf</text>
</a>
</g>
</g>
<!-- Node6&#45;&gt;Node7 -->
<g id="edge6_Node000006_Node000007" class="edge">
<title>Node6&#45;&gt;Node7</title>
<g id="a_edge6_Node000006_Node000007"><a xlink:title=" ">
<path fill="none" stroke="#63b8ff" d="M518.2,-52.62C531.81,-52.62 546.6,-52.62 560.8,-52.62"/>
<polygon fill="#63b8ff" stroke="#63b8ff" points="560.51,-56.13 570.51,-52.63 560.51,-49.13 560.51,-56.13"/>
</a>
</g>
</g>
</g>
</svg>
