<?xml version="1.0" encoding="UTF-8" standalone="no"?>
<!DOCTYPE svg PUBLIC "-//W3C//DTD SVG 1.1//EN"
 "http://www.w3.org/Graphics/SVG/1.1/DTD/svg11.dtd">
<!-- Generated by graphviz version 4.0.0 (20220602.1335)
 -->
<!-- Title: CChordIf::CChordIf Pages: 1 -->
<svg width="488pt" height="154pt"
 viewBox="0.00 0.00 488.00 154.00" xmlns="http://www.w3.org/2000/svg" xmlns:xlink="http://www.w3.org/1999/xlink">
<g id="graph0" class="graph" transform="scale(1 1) rotate(0) translate(4 150)">
<title>CChordIf::CChordIf</title>
<polygon fill="white" stroke="transparent" points="-4,4 -4,-150 484,-150 484,4 -4,4"/>
<!-- Node1 -->
<g id="node1" class="node">
<title>Node1</title>
<g id="a_node1"><a xlink:title=" ">
<polygon fill="#bfbfbf" stroke="black" points="0,-60.5 0,-79.5 98,-79.5 98,-60.5 0,-60.5"/>
<text text-anchor="middle" x="49" y="-67.5" font-family="Helvetica,sans-Serif" font-size="10.00">CChordIf::CChordIf</text>
</a>
</g>
</g>
<!-- Node2 -->
<g id="node2" class="node">
<title>Node2</title>
<g id="a_node2"><a xlink:href="a00445.xhtml#a333842dc3ecbbf719eee742f1a4b1845" target="_top" xlink:title="reset configuration">
<polygon fill="white" stroke="black" points="134,-60.5 134,-79.5 220,-79.5 220,-60.5 134,-60.5"/>
<text text-anchor="middle" x="177" y="-67.5" font-family="Helvetica,sans-Serif" font-size="10.00">CChordIf::reset_</text>
</a>
</g>
</g>
<!-- Node1&#45;&gt;Node2 -->
<g id="edge1" class="edge">
<title>Node1&#45;&gt;Node2</title>
<path fill="none" stroke="midnightblue" d="M98.35,-70C106.64,-70 115.29,-70 123.68,-70"/>
<polygon fill="midnightblue" stroke="midnightblue" points="123.74,-73.5 133.74,-70 123.74,-66.5 123.74,-73.5"/>
</g>
<!-- Node3 -->
<g id="node3" class="node">
<title>Node3</title>
<g id="a_node3"><a xlink:href="a00529.xhtml#a13d2bd6e36210dde0c64d188c1266b88" target="_top" xlink:title=" ">
<polygon fill="white" stroke="black" points="256,-126.5 256,-145.5 371,-145.5 371,-126.5 256,-126.5"/>
<text text-anchor="middle" x="313.5" y="-133.5" font-family="Helvetica,sans-Serif" font-size="10.00">CBlockAudioIf::destroy</text>
</a>
</g>
</g>
<!-- Node2&#45;&gt;Node3 -->
<g id="edge2" class="edge">
<title>Node2&#45;&gt;Node3</title>
<path fill="none" stroke="midnightblue" d="M191.86,-79.63C207.08,-89.89 232.47,-106.11 256,-117 260.64,-119.14 265.58,-121.17 270.55,-123.04"/>
<polygon fill="midnightblue" stroke="midnightblue" points="269.46,-126.37 280.05,-126.44 271.82,-119.77 269.46,-126.37"/>
</g>
<!-- Node4 -->
<g id="node4" class="node">
<title>Node4</title>
<g id="a_node4"><a xlink:href="a00449.xhtml#afa15c2f57c2552592541337926473a3d" target="_top" xlink:title=" ">
<polygon fill="white" stroke="black" points="260,-77 260,-107 367,-107 367,-77 260,-77"/>
<text text-anchor="start" x="268" y="-95" font-family="Helvetica,sans-Serif" font-size="10.00">CChordFromBlockIf::</text>
<text text-anchor="middle" x="313.5" y="-84" font-family="Helvetica,sans-Serif" font-size="10.00">destroy</text>
</a>
</g>
</g>
<!-- Node2&#45;&gt;Node4 -->
<g id="edge3" class="edge">
<title>Node2&#45;&gt;Node4</title>
<path fill="none" stroke="midnightblue" d="M220.19,-76.9C229.55,-78.43 239.66,-80.09 249.65,-81.72"/>
<polygon fill="midnightblue" stroke="midnightblue" points="249.13,-85.18 259.56,-83.34 250.26,-78.27 249.13,-85.18"/>
</g>
<!-- Node5 -->
<g id="node5" class="node">
<title>Node5</title>
<g id="a_node5"><a xlink:href="a00489.xhtml#aa86bdb0c663d4d52f2765793756f8737" target="_top" xlink:title=" ">
<polygon fill="white" stroke="black" points="407,-19.5 407,-38.5 480,-38.5 480,-19.5 407,-19.5"/>
<text text-anchor="middle" x="443.5" y="-26.5" font-family="Helvetica,sans-Serif" font-size="10.00">CVector::free</text>
</a>
</g>
</g>
<!-- Node2&#45;&gt;Node5 -->
<g id="edge4" class="edge">
<title>Node2&#45;&gt;Node5</title>
<path fill="none" stroke="midnightblue" d="M220.2,-63.46C268.41,-55.99 347,-43.8 396.67,-36.1"/>
<polygon fill="midnightblue" stroke="midnightblue" points="397.46,-39.52 406.81,-34.53 396.39,-32.61 397.46,-39.52"/>
</g>
<!-- Node6 -->
<g id="node6" class="node">
<title>Node6</title>
<g id="a_node6"><a xlink:href="a00473.xhtml#a591097c6b1935c4d6273b3445f8f552b" target="_top" xlink:title=" ">
<polygon fill="white" stroke="black" points="278,-0.5 278,-19.5 349,-19.5 349,-0.5 278,-0.5"/>
<text text-anchor="middle" x="313.5" y="-7.5" font-family="Helvetica,sans-Serif" font-size="10.00">CMatrix::free</text>
</a>
</g>
</g>
<!-- Node2&#45;&gt;Node6 -->
<g id="edge5" class="edge">
<title>Node2&#45;&gt;Node6</title>
<path fill="none" stroke="midnightblue" d="M198.45,-60.35C214.14,-53 236.36,-42.7 256,-34 263.83,-30.53 272.31,-26.88 280.26,-23.49"/>
<polygon fill="midnightblue" stroke="midnightblue" points="281.77,-26.65 289.61,-19.53 279.04,-20.21 281.77,-26.65"/>
</g>
<!-- Node6&#45;&gt;Node5 -->
<g id="edge6" class="edge">
<title>Node6&#45;&gt;Node5</title>
<path fill="none" stroke="midnightblue" d="M349.14,-15.14C363.84,-17.32 381.17,-19.9 396.89,-22.23"/>
<polygon fill="midnightblue" stroke="midnightblue" points="396.54,-25.72 406.94,-23.72 397.56,-18.79 396.54,-25.72"/>
</g>
</g>
</svg>
