<?xml version="1.0" encoding="UTF-8" standalone="no"?>
<!DOCTYPE svg PUBLIC "-//W3C//DTD SVG 1.1//EN"
 "http://www.w3.org/Graphics/SVG/1.1/DTD/svg11.dtd">
<!-- Generated by graphviz version 6.0.1 (20220911.1526)
 -->
<!-- Title: CBlockAudioFile::getNextBlock Pages: 1 -->
<svg width="655pt" height="311pt"
 viewBox="0.00 0.00 655.00 311.00" xmlns="http://www.w3.org/2000/svg" xmlns:xlink="http://www.w3.org/1999/xlink">
<g id="graph0" class="graph" transform="scale(1 1) rotate(0) translate(4 307)">
<title>CBlockAudioFile::getNextBlock</title>
<!-- Node1 -->
<g id="node1" class="node">
<title>Node1</title>
<g id="a_node1"><a xlink:title=" ">
<polygon fill="#999999" stroke="#666666" points="127,-166.5 0,-166.5 0,-136.5 127,-136.5 127,-166.5"/>
<text text-anchor="start" x="8" y="-154.5" font-family="Helvetica,sans-Serif" font-size="10.00">CBlockAudioFile::getNext</text>
<text text-anchor="middle" x="63.5" y="-143.5" font-family="Helvetica,sans-Serif" font-size="10.00">Block</text>
</a>
</g>
</g>
<!-- Node2 -->
<g id="node2" class="node">
<title>Node2</title>
<g id="a_node2"><a xlink:href="a00490.xhtml#a23d9877584d712c17811a9833835605e" target="_top" xlink:title=" ">
<polygon fill="white" stroke="#666666" points="279.5,-303 193.5,-303 193.5,-284 279.5,-284 279.5,-303"/>
<text text-anchor="middle" x="236.5" y="-291" font-family="Helvetica,sans-Serif" font-size="10.00">CRingBuffer::get</text>
</a>
</g>
</g>
<!-- Node1&#45;&gt;Node2 -->
<g id="edge1" class="edge">
<title>Node1&#45;&gt;Node2</title>
<path fill="none" stroke="#63b8ff" d="M72.3,-166.58C86.61,-192.72 119.64,-246.34 163,-274.5 169.23,-278.54 176.28,-281.73 183.48,-284.24"/>
<polygon fill="#63b8ff" stroke="#63b8ff" points="182.74,-287.67 193.33,-287.25 184.79,-280.98 182.74,-287.67"/>
</g>
<!-- Node3 -->
<g id="node3" class="node">
<title>Node3</title>
<g id="a_node3"><a xlink:href="a00490.xhtml#aa04a6cb30d486a6ddd5f7929db1eef9d" target="_top" xlink:title=" ">
<polygon fill="white" stroke="#666666" points="305,-265.5 168,-265.5 168,-235.5 305,-235.5 305,-265.5"/>
<text text-anchor="start" x="176" y="-253.5" font-family="Helvetica,sans-Serif" font-size="10.00">CRingBuffer::getNumValues</text>
<text text-anchor="middle" x="236.5" y="-242.5" font-family="Helvetica,sans-Serif" font-size="10.00">InBuffer</text>
</a>
</g>
</g>
<!-- Node1&#45;&gt;Node3 -->
<g id="edge2" class="edge">
<title>Node1&#45;&gt;Node3</title>
<path fill="none" stroke="#63b8ff" d="M80.76,-166.62C99.39,-183.26 131.44,-209.86 163,-226.5 166.46,-228.33 170.09,-230.05 173.8,-231.67"/>
<polygon fill="#63b8ff" stroke="#63b8ff" points="172.57,-234.95 183.15,-235.49 175.21,-228.47 172.57,-234.95"/>
</g>
<!-- Node4 -->
<g id="node4" class="node">
<title>Node4</title>
<g id="a_node4"><a xlink:href="a00490.xhtml#ab18fac37cac4e8bde0419fe04845ac9d" target="_top" xlink:title=" ">
<polygon fill="white" stroke="#666666" points="297.5,-217 175.5,-217 175.5,-198 297.5,-198 297.5,-217"/>
<text text-anchor="middle" x="236.5" y="-205" font-family="Helvetica,sans-Serif" font-size="10.00">CRingBuffer::getReadIdx</text>
</a>
</g>
</g>
<!-- Node1&#45;&gt;Node4 -->
<g id="edge3" class="edge">
<title>Node1&#45;&gt;Node4</title>
<path fill="none" stroke="#63b8ff" d="M100.6,-166.67C119.07,-174.12 142.03,-182.88 163,-189.5 169.48,-191.55 176.35,-193.51 183.17,-195.34"/>
<polygon fill="#63b8ff" stroke="#63b8ff" points="182.52,-198.78 193.08,-197.91 184.28,-192.01 182.52,-198.78"/>
</g>
<!-- Node5 -->
<g id="node5" class="node">
<title>Node5</title>
<g id="a_node5"><a xlink:href="a00542.xhtml#a95d0310c888433e7e45806538dc0d347" target="_top" xlink:title=" ">
<polygon fill="white" stroke="#666666" points="310,-180 163,-180 163,-161 310,-161 310,-180"/>
<text text-anchor="middle" x="236.5" y="-168" font-family="Helvetica,sans-Serif" font-size="10.00">CBlockAudioIf::getTimeStamp</text>
</a>
</g>
</g>
<!-- Node1&#45;&gt;Node5 -->
<g id="edge4" class="edge">
<title>Node1&#45;&gt;Node5</title>
<path fill="none" stroke="#63b8ff" d="M127.2,-158.47C135.56,-159.4 144.23,-160.36 152.87,-161.32"/>
<polygon fill="#63b8ff" stroke="#63b8ff" points="152.64,-164.81 162.96,-162.44 153.41,-157.86 152.64,-164.81"/>
</g>
<!-- Node6 -->
<g id="node6" class="node">
<title>Node6</title>
<g id="a_node6"><a xlink:href="a00442.xhtml#a02a1c69fa0fc5b9aa8cb275315697be4" target="_top" xlink:title=" ">
<polygon fill="white" stroke="#666666" points="284.5,-143 188.5,-143 188.5,-124 284.5,-124 284.5,-143"/>
<text text-anchor="middle" x="236.5" y="-131" font-family="Helvetica,sans-Serif" font-size="10.00">CAudioFileIf::isEof</text>
</a>
</g>
</g>
<!-- Node1&#45;&gt;Node6 -->
<g id="edge5" class="edge">
<title>Node1&#45;&gt;Node6</title>
<path fill="none" stroke="#63b8ff" d="M127.2,-144.9C143.94,-143.14 161.93,-141.24 178.35,-139.52"/>
<polygon fill="#63b8ff" stroke="#63b8ff" points="178.76,-142.99 188.34,-138.46 178.03,-136.03 178.76,-142.99"/>
</g>
<!-- Node7 -->
<g id="node7" class="node">
<title>Node7</title>
<g id="a_node7"><a xlink:href="a00410.xhtml#ac77d15abc29183765326f7212dd523a1" target="_top" xlink:title=" ">
<polygon fill="white" stroke="#666666" points="303,-105.5 170,-105.5 170,-75.5 303,-75.5 303,-105.5"/>
<text text-anchor="start" x="178" y="-93.5" font-family="Helvetica,sans-Serif" font-size="10.00">CBlockAudioFile::readFile2</text>
<text text-anchor="middle" x="236.5" y="-82.5" font-family="Helvetica,sans-Serif" font-size="10.00">RingBuff</text>
</a>
</g>
</g>
<!-- Node1&#45;&gt;Node7 -->
<g id="edge6" class="edge">
<title>Node1&#45;&gt;Node7</title>
<path fill="none" stroke="#63b8ff" d="M103.67,-136.38C121.68,-129.53 143.36,-121.44 163,-114.5 168.24,-112.65 173.7,-110.76 179.17,-108.9"/>
<polygon fill="#63b8ff" stroke="#63b8ff" points="180.64,-112.1 189,-105.59 178.4,-105.47 180.64,-112.1"/>
</g>
<!-- Node19 -->
<g id="node19" class="node">
<title>Node19</title>
<g id="a_node19"><a xlink:href="a00502.xhtml#a6dbb3f9f480568b60f7fe50090d20003" target="_top" xlink:title=" ">
<polygon fill="white" stroke="#666666" points="451.5,-56 362.5,-56 362.5,-37 451.5,-37 451.5,-56"/>
<text text-anchor="middle" x="407" y="-44" font-family="Helvetica,sans-Serif" font-size="10.00">CVector::setZero</text>
</a>
</g>
</g>
<!-- Node1&#45;&gt;Node19 -->
<g id="edge21" class="edge">
<title>Node1&#45;&gt;Node19</title>
<path fill="none" stroke="#63b8ff" d="M76.6,-136.29C93.53,-116.28 126.34,-81.87 163,-66.5 224.17,-40.85 301.51,-39.11 352.29,-41.62"/>
<polygon fill="#63b8ff" stroke="#63b8ff" points="352.22,-45.12 362.4,-42.19 352.61,-38.13 352.22,-45.12"/>
</g>
<!-- Node20 -->
<g id="node20" class="node">
<title>Node20</title>
<g id="a_node20"><a xlink:href="a00490.xhtml#af265a6322c4b1584c880def00d31e663" target="_top" xlink:title=" ">
<polygon fill="white" stroke="#666666" points="468,-19 346,-19 346,0 468,0 468,-19"/>
<text text-anchor="middle" x="407" y="-7" font-family="Helvetica,sans-Serif" font-size="10.00">CRingBuffer::setReadIdx</text>
</a>
</g>
</g>
<!-- Node1&#45;&gt;Node20 -->
<g id="edge19" class="edge">
<title>Node1&#45;&gt;Node20</title>
<path fill="none" stroke="#63b8ff" d="M72.69,-136.1C87.13,-110.66 119.76,-60.37 163,-37.5 216.12,-9.41 284.76,-3.82 335.53,-4.43"/>
<polygon fill="#63b8ff" stroke="#63b8ff" points="335.69,-7.94 345.76,-4.64 335.83,-0.94 335.69,-7.94"/>
</g>
<!-- Node8 -->
<g id="node8" class="node">
<title>Node8</title>
<g id="a_node8"><a xlink:href="a00602.xhtml#aad7f6eaf40285ca192d27a7420aff724" target="_top" xlink:title=" ">
<polygon fill="white" stroke="#666666" points="457.5,-130 356.5,-130 356.5,-111 457.5,-111 457.5,-130"/>
<text text-anchor="middle" x="407" y="-118" font-family="Helvetica,sans-Serif" font-size="10.00">CPreProc::downmix</text>
</a>
</g>
</g>
<!-- Node7&#45;&gt;Node8 -->
<g id="edge7" class="edge">
<title>Node7&#45;&gt;Node8</title>
<path fill="none" stroke="#63b8ff" d="M303.13,-102.18C317.41,-104.73 332.43,-107.4 346.46,-109.9"/>
<polygon fill="#63b8ff" stroke="#63b8ff" points="346.01,-113.37 356.47,-111.68 347.24,-106.48 346.01,-113.37"/>
</g>
<!-- Node12 -->
<g id="node12" class="node">
<title>Node12</title>
<g id="a_node12"><a xlink:href="a00490.xhtml#a2bd848181a662312600bc590b9040d2a" target="_top" xlink:title=" ">
<polygon fill="white" stroke="#666666" points="467,-93 347,-93 347,-74 467,-74 467,-93"/>
<text text-anchor="middle" x="407" y="-81" font-family="Helvetica,sans-Serif" font-size="10.00">CRingBuffer::putPostInc</text>
</a>
</g>
</g>
<!-- Node7&#45;&gt;Node12 -->
<g id="edge11" class="edge">
<title>Node7&#45;&gt;Node12</title>
<path fill="none" stroke="#63b8ff" d="M303.13,-87.77C314.17,-87.32 325.65,-86.84 336.78,-86.38"/>
<polygon fill="#63b8ff" stroke="#63b8ff" points="337.02,-89.87 346.87,-85.96 336.73,-82.87 337.02,-89.87"/>
</g>
<!-- Node15 -->
<g id="node15" class="node">
<title>Node15</title>
<g id="a_node15"><a xlink:href="a00442.xhtml#ad86676f86c5a0c1fb23617b5e00014c4" target="_top" xlink:title=" ">
<polygon fill="white" stroke="#666666" points="463.5,-222 350.5,-222 350.5,-203 463.5,-203 463.5,-222"/>
<text text-anchor="middle" x="407" y="-210" font-family="Helvetica,sans-Serif" font-size="10.00">CAudioFileIf::readData</text>
</a>
</g>
</g>
<!-- Node7&#45;&gt;Node15 -->
<g id="edge14" class="edge">
<title>Node7&#45;&gt;Node15</title>
<path fill="none" stroke="#63b8ff" d="M292.62,-105.61C298.68,-108.18 304.6,-111.13 310,-114.5 344.81,-136.21 376.24,-173.08 393.08,-194.87"/>
<polygon fill="#63b8ff" stroke="#63b8ff" points="390.36,-197.08 399.18,-202.94 395.94,-192.86 390.36,-197.08"/>
</g>
<!-- Node7&#45;&gt;Node19 -->
<g id="edge18" class="edge">
<title>Node7&#45;&gt;Node19</title>
<path fill="none" stroke="#63b8ff" d="M295.02,-75.48C316.14,-69.96 339.77,-63.8 359.77,-58.57"/>
<polygon fill="#63b8ff" stroke="#63b8ff" points="360.78,-61.93 369.57,-56.01 359.01,-55.15 360.78,-61.93"/>
</g>
<!-- Node9 -->
<g id="node9" class="node">
<title>Node9</title>
<g id="a_node9"><a xlink:href="a00502.xhtml#a3a052b83e62e5c5cc44829c64ffe42eb" target="_top" xlink:title=" ">
<polygon fill="white" stroke="#666666" points="615.5,-167 535.5,-167 535.5,-148 615.5,-148 615.5,-167"/>
<text text-anchor="middle" x="575.5" y="-155" font-family="Helvetica,sans-Serif" font-size="10.00">CVector::add_I</text>
</a>
</g>
</g>
<!-- Node8&#45;&gt;Node9 -->
<g id="edge8" class="edge">
<title>Node8&#45;&gt;Node9</title>
<path fill="none" stroke="#63b8ff" d="M450.88,-130.03C473.73,-135.11 501.93,-141.37 525.62,-146.64"/>
<polygon fill="#63b8ff" stroke="#63b8ff" points="524.95,-150.07 535.47,-148.83 526.47,-143.24 524.95,-150.07"/>
</g>
<!-- Node10 -->
<g id="node10" class="node">
<title>Node10</title>
<g id="a_node10"><a xlink:href="a00502.xhtml#ad7c5cba73e439adac77778f61c9418f0" target="_top" xlink:title=" ">
<polygon fill="white" stroke="#666666" points="614,-130 537,-130 537,-111 614,-111 614,-130"/>
<text text-anchor="middle" x="575.5" y="-118" font-family="Helvetica,sans-Serif" font-size="10.00">CVector::copy</text>
</a>
</g>
</g>
<!-- Node8&#45;&gt;Node10 -->
<g id="edge9" class="edge">
<title>Node8&#45;&gt;Node10</title>
<path fill="none" stroke="#63b8ff" d="M457.5,-120.5C479.34,-120.5 504.89,-120.5 526.54,-120.5"/>
<polygon fill="#63b8ff" stroke="#63b8ff" points="526.82,-124 536.82,-120.5 526.82,-117 526.82,-124"/>
</g>
<!-- Node11 -->
<g id="node11" class="node">
<title>Node11</title>
<g id="a_node11"><a xlink:href="a00502.xhtml#a9811f50434dd058d201290b2dc98bfcd" target="_top" xlink:title=" ">
<polygon fill="white" stroke="#666666" points="619,-93 532,-93 532,-74 619,-74 619,-93"/>
<text text-anchor="middle" x="575.5" y="-81" font-family="Helvetica,sans-Serif" font-size="10.00">CVector::mulC_I</text>
</a>
</g>
</g>
<!-- Node8&#45;&gt;Node11 -->
<g id="edge10" class="edge">
<title>Node8&#45;&gt;Node11</title>
<path fill="none" stroke="#63b8ff" d="M450.88,-110.97C472.53,-106.16 499,-100.28 521.87,-95.19"/>
<polygon fill="#63b8ff" stroke="#63b8ff" points="522.76,-98.58 531.77,-93 521.25,-91.75 522.76,-98.58"/>
</g>
<!-- Node13 -->
<g id="node13" class="node">
<title>Node13</title>
<g id="a_node13"><a xlink:href="a00490.xhtml#a67eddecd2a880c52c80093774bc37c24" target="_top" xlink:title=" ">
<polygon fill="white" stroke="#666666" points="624.5,-19 526.5,-19 526.5,0 624.5,0 624.5,-19"/>
<text text-anchor="middle" x="575.5" y="-7" font-family="Helvetica,sans-Serif" font-size="10.00">CRingBuffer::incIdx</text>
</a>
</g>
</g>
<!-- Node12&#45;&gt;Node13 -->
<g id="edge12" class="edge">
<title>Node12&#45;&gt;Node13</title>
<path fill="none" stroke="#63b8ff" d="M447.95,-73.9C454.9,-71.38 461.86,-68.29 468,-64.5 487.53,-52.45 484.14,-38.99 504,-27.5 507.98,-25.2 512.26,-23.18 516.66,-21.43"/>
<polygon fill="#63b8ff" stroke="#63b8ff" points="518.19,-24.6 526.45,-17.97 515.86,-18 518.19,-24.6"/>
</g>
<!-- Node14 -->
<g id="node14" class="node">
<title>Node14</title>
<g id="a_node14"><a xlink:href="a00490.xhtml#a702eb6314380082795f735df74a816c9" target="_top" xlink:title=" ">
<polygon fill="white" stroke="#666666" points="618.5,-56 532.5,-56 532.5,-37 618.5,-37 618.5,-56"/>
<text text-anchor="middle" x="575.5" y="-44" font-family="Helvetica,sans-Serif" font-size="10.00">CRingBuffer::put</text>
</a>
</g>
</g>
<!-- Node12&#45;&gt;Node14 -->
<g id="edge13" class="edge">
<title>Node12&#45;&gt;Node14</title>
<path fill="none" stroke="#63b8ff" d="M450.88,-73.97C472.7,-69.12 499.41,-63.19 522.4,-58.08"/>
<polygon fill="#63b8ff" stroke="#63b8ff" points="523.34,-61.45 532.34,-55.87 521.82,-54.62 523.34,-61.45"/>
</g>
<!-- Node16 -->
<g id="node16" class="node">
<title>Node16</title>
<g id="a_node16"><a xlink:href="a00442.xhtml#a01d2aae56dd6295aee8ad10088f2cb27" target="_top" xlink:title=" ">
<polygon fill="white" stroke="#666666" points="636.5,-204 514.5,-204 514.5,-185 636.5,-185 636.5,-204"/>
<text text-anchor="middle" x="575.5" y="-192" font-family="Helvetica,sans-Serif" font-size="10.00">CAudioFileIf::isInitialized</text>
</a>
</g>
</g>
<!-- Node15&#45;&gt;Node16 -->
<g id="edge15" class="edge">
<title>Node15&#45;&gt;Node16</title>
<path fill="none" stroke="#63b8ff" d="M463.91,-206.46C476.85,-205.06 490.8,-203.55 504.27,-202.09"/>
<polygon fill="#63b8ff" stroke="#63b8ff" points="504.89,-205.55 514.46,-200.99 504.14,-198.59 504.89,-205.55"/>
</g>
<!-- Node17 -->
<g id="node17" class="node">
<title>Node17</title>
<g id="a_node17"><a xlink:href="a00442.xhtml#a7d946177a6591600dc03a423feb38cb3" target="_top" xlink:title=" ">
<polygon fill="white" stroke="#666666" points="628,-278 523,-278 523,-259 628,-259 628,-278"/>
<text text-anchor="middle" x="575.5" y="-266" font-family="Helvetica,sans-Serif" font-size="10.00">CAudioFileIf::isOpen</text>
</a>
</g>
</g>
<!-- Node15&#45;&gt;Node17 -->
<g id="edge16" class="edge">
<title>Node15&#45;&gt;Node17</title>
<path fill="none" stroke="#63b8ff" d="M429.83,-222.06C449.1,-230.28 478.08,-242.1 504,-250.5 510.38,-252.57 517.14,-254.55 523.86,-256.4"/>
<polygon fill="#63b8ff" stroke="#63b8ff" points="523.05,-259.8 533.61,-259 524.85,-253.04 523.05,-259.8"/>
</g>
<!-- Node18 -->
<g id="node18" class="node">
<title>Node18</title>
<g id="a_node18"><a xlink:href="a00442.xhtml#aa8d6db73dae5cc9bf7c0beb15b36bea4" target="_top" xlink:title=" ">
<polygon fill="white" stroke="#666666" points="647,-241 504,-241 504,-222 647,-222 647,-241"/>
<text text-anchor="middle" x="575.5" y="-229" font-family="Helvetica,sans-Serif" font-size="10.00">CAudioFileIf::readDataIntern_</text>
</a>
</g>
</g>
<!-- Node15&#45;&gt;Node18 -->
<g id="edge17" class="edge">
<title>Node15&#45;&gt;Node18</title>
<path fill="none" stroke="#63b8ff" d="M463.91,-218.88C473.54,-219.98 483.73,-221.14 493.86,-222.3"/>
<polygon fill="#63b8ff" stroke="#63b8ff" points="493.62,-225.79 503.96,-223.45 494.42,-218.84 493.62,-225.79"/>
</g>
<!-- Node20&#45;&gt;Node13 -->
<g id="edge20" class="edge">
<title>Node20&#45;&gt;Node13</title>
<path fill="none" stroke="#63b8ff" d="M468.11,-9.5C483.85,-9.5 500.79,-9.5 516.42,-9.5"/>
<polygon fill="#63b8ff" stroke="#63b8ff" points="516.48,-13 526.48,-9.5 516.48,-6 516.48,-13"/>
</g>
</g>
</svg>
