<?xml version="1.0" encoding="UTF-8" standalone="no"?>
<!DOCTYPE svg PUBLIC "-//W3C//DTD SVG 1.1//EN"
 "http://www.w3.org/Graphics/SVG/1.1/DTD/svg11.dtd">
<!-- Generated by graphviz version 6.0.1 (20220911.1526)
 -->
<!-- Title: CFilter::setInitState_ Pages: 1 -->
<svg width="662pt" height="346pt"
 viewBox="0.00 0.00 662.00 346.00" xmlns="http://www.w3.org/2000/svg" xmlns:xlink="http://www.w3.org/1999/xlink">
<g id="graph0" class="graph" transform="scale(1 1) rotate(0) translate(4 342)">
<title>CFilter::setInitState_</title>
<!-- Node1 -->
<g id="node1" class="node">
<title>Node1</title>
<g id="a_node1"><a xlink:title=" ">
<polygon fill="#999999" stroke="#666666" points="105,-150 0,-150 0,-131 105,-131 105,-150"/>
<text text-anchor="middle" x="52.5" y="-138" font-family="Helvetica,sans-Serif" font-size="10.00">CFilter::setInitState_</text>
</a>
</g>
</g>
<!-- Node2 -->
<g id="node2" class="node">
<title>Node2</title>
<g id="a_node2"><a xlink:href="a00502.xhtml#abaadac98b1cad18b7b568852bc951696" target="_top" xlink:title=" ">
<polygon fill="white" stroke="#666666" points="523,-95 446,-95 446,-76 523,-76 523,-95"/>
<text text-anchor="middle" x="484.5" y="-83" font-family="Helvetica,sans-Serif" font-size="10.00">CVector::alloc</text>
</a>
</g>
</g>
<!-- Node1&#45;&gt;Node2 -->
<g id="edge1" class="edge">
<title>Node1&#45;&gt;Node2</title>
<path fill="none" stroke="#63b8ff" d="M70.42,-130.87C87.67,-121.41 115.47,-107.17 141,-98.5 252.49,-60.62 287.06,-52.72 404,-66.5 416.33,-67.95 429.52,-70.63 441.54,-73.53"/>
<polygon fill="#63b8ff" stroke="#63b8ff" points="440.77,-76.94 451.32,-75.99 442.48,-70.16 440.77,-76.94"/>
</g>
<!-- Node4 -->
<g id="node4" class="node">
<title>Node4</title>
<g id="a_node4"><a xlink:href="a00486.xhtml#a6501b78d76c912d49eee88c8f7242923" target="_top" xlink:title=" ">
<polygon fill="white" stroke="#666666" points="385.5,-95 311.5,-95 311.5,-76 385.5,-76 385.5,-95"/>
<text text-anchor="middle" x="348.5" y="-83" font-family="Helvetica,sans-Serif" font-size="10.00">CMatrix::alloc</text>
</a>
</g>
</g>
<!-- Node1&#45;&gt;Node4 -->
<g id="edge3" class="edge">
<title>Node1&#45;&gt;Node4</title>
<path fill="none" stroke="#63b8ff" d="M104.38,-130.98C159.8,-120.61 247.7,-104.17 301.24,-94.15"/>
<polygon fill="#63b8ff" stroke="#63b8ff" points="301.96,-97.58 311.15,-92.3 300.68,-90.7 301.96,-97.58"/>
</g>
<!-- Node5 -->
<g id="node5" class="node">
<title>Node5</title>
<g id="a_node5"><a xlink:href="a00502.xhtml#aa86bdb0c663d4d52f2765793756f8737" target="_top" xlink:title=" ">
<polygon fill="white" stroke="#666666" points="521,-338 448,-338 448,-319 521,-319 521,-338"/>
<text text-anchor="middle" x="484.5" y="-326" font-family="Helvetica,sans-Serif" font-size="10.00">CVector::free</text>
</a>
</g>
</g>
<!-- Node1&#45;&gt;Node5 -->
<g id="edge5" class="edge">
<title>Node1&#45;&gt;Node5</title>
<path fill="none" stroke="#63b8ff" d="M58.58,-150.25C70.38,-172.08 101.64,-225.49 141,-257.5 198.84,-304.55 220.21,-312.34 293,-328.5 341.61,-339.29 398.93,-337.39 437.9,-333.99"/>
<polygon fill="#63b8ff" stroke="#63b8ff" points="438.26,-337.48 447.89,-333.06 437.61,-330.51 438.26,-337.48"/>
</g>
<!-- Node6 -->
<g id="node6" class="node">
<title>Node6</title>
<g id="a_node6"><a xlink:href="a00486.xhtml#a591097c6b1935c4d6273b3445f8f552b" target="_top" xlink:title=" ">
<polygon fill="white" stroke="#666666" points="384,-319 313,-319 313,-300 384,-300 384,-319"/>
<text text-anchor="middle" x="348.5" y="-307" font-family="Helvetica,sans-Serif" font-size="10.00">CMatrix::free</text>
</a>
</g>
</g>
<!-- Node1&#45;&gt;Node6 -->
<g id="edge6" class="edge">
<title>Node1&#45;&gt;Node6</title>
<path fill="none" stroke="#63b8ff" d="M63.04,-150.11C78.42,-165.22 110.11,-194.85 141,-214.5 197.22,-250.27 269.11,-280.18 311.54,-296.4"/>
<polygon fill="#63b8ff" stroke="#63b8ff" points="310.31,-299.68 320.9,-299.94 312.79,-293.13 310.31,-299.68"/>
</g>
<!-- Node7 -->
<g id="node7" class="node">
<title>Node7</title>
<g id="a_node7"><a xlink:href="a00486.xhtml#a37585f57926ea2921734907bacc6cce8" target="_top" xlink:title=" ">
<polygon fill="white" stroke="#666666" points="236.5,-187 161.5,-187 161.5,-168 236.5,-168 236.5,-187"/>
<text text-anchor="middle" x="199" y="-175" font-family="Helvetica,sans-Serif" font-size="10.00">CMatrix::inv_I</text>
</a>
</g>
</g>
<!-- Node1&#45;&gt;Node7 -->
<g id="edge8" class="edge">
<title>Node1&#45;&gt;Node7</title>
<path fill="none" stroke="#63b8ff" d="M90.71,-150.03C109.31,-154.79 132,-160.6 151.71,-165.65"/>
<polygon fill="#63b8ff" stroke="#63b8ff" points="150.86,-169.04 161.41,-168.13 152.59,-162.26 150.86,-169.04"/>
</g>
<!-- Node15 -->
<g id="node15" class="node">
<title>Node15</title>
<g id="a_node15"><a xlink:href="a00486.xhtml#a05a5555eb9e7b63c5534cee3f525a03c" target="_top" xlink:title=" ">
<polygon fill="white" stroke="#666666" points="257,-19 141,-19 141,0 257,0 257,-19"/>
<text text-anchor="middle" x="199" y="-7" font-family="Helvetica,sans-Serif" font-size="10.00">CMatrix::mulMatColvec</text>
</a>
</g>
</g>
<!-- Node1&#45;&gt;Node15 -->
<g id="edge20" class="edge">
<title>Node1&#45;&gt;Node15</title>
<path fill="none" stroke="#63b8ff" d="M59.08,-130.89C71.41,-110.4 102.94,-61.95 141,-33.5 146.25,-29.58 152.23,-26.16 158.31,-23.23"/>
<polygon fill="#63b8ff" stroke="#63b8ff" points="160.09,-26.27 167.83,-19.03 157.27,-19.86 160.09,-26.27"/>
</g>
<!-- Node3 -->
<g id="node3" class="node">
<title>Node3</title>
<g id="a_node3"><a xlink:href="a00502.xhtml#a6dbb3f9f480568b60f7fe50090d20003" target="_top" xlink:title=" ">
<polygon fill="white" stroke="#666666" points="654,-188 565,-188 565,-169 654,-169 654,-188"/>
<text text-anchor="middle" x="609.5" y="-176" font-family="Helvetica,sans-Serif" font-size="10.00">CVector::setZero</text>
</a>
</g>
</g>
<!-- Node2&#45;&gt;Node3 -->
<g id="edge2" class="edge">
<title>Node2&#45;&gt;Node3</title>
<path fill="none" stroke="#63b8ff" d="M511.55,-95.17C517.49,-97.83 523.63,-100.97 529,-104.5 553.7,-120.71 577.95,-144.8 593.04,-161.05"/>
<polygon fill="#63b8ff" stroke="#63b8ff" points="590.73,-163.71 600.06,-168.75 595.91,-159 590.73,-163.71"/>
</g>
<!-- Node4&#45;&gt;Node2 -->
<g id="edge4" class="edge">
<title>Node4&#45;&gt;Node2</title>
<path fill="none" stroke="#63b8ff" d="M385.76,-85.5C401.02,-85.5 419,-85.5 435.34,-85.5"/>
<polygon fill="#63b8ff" stroke="#63b8ff" points="435.81,-89 445.81,-85.5 435.81,-82 435.81,-89"/>
</g>
<!-- Node6&#45;&gt;Node5 -->
<g id="edge7" class="edge">
<title>Node6&#45;&gt;Node5</title>
<path fill="none" stroke="#63b8ff" d="M384.01,-314.39C400.34,-316.71 420.08,-319.51 437.65,-322"/>
<polygon fill="#63b8ff" stroke="#63b8ff" points="437.31,-325.49 447.71,-323.42 438.3,-318.56 437.31,-325.49"/>
</g>
<!-- Node7&#45;&gt;Node4 -->
<g id="edge9" class="edge">
<title>Node7&#45;&gt;Node4</title>
<path fill="none" stroke="#63b8ff" d="M209.8,-167.97C225.95,-152.73 259.68,-122.72 293,-104.5 296.76,-102.44 300.78,-100.55 304.88,-98.81"/>
<polygon fill="#63b8ff" stroke="#63b8ff" points="306.43,-101.96 314.47,-95.05 303.88,-95.44 306.43,-101.96"/>
</g>
<!-- Node7&#45;&gt;Node6 -->
<g id="edge12" class="edge">
<title>Node7&#45;&gt;Node6</title>
<path fill="none" stroke="#63b8ff" d="M207.44,-187.2C225.7,-210.82 272.72,-270.48 293,-285.5 298.18,-289.34 304.07,-292.73 310.02,-295.66"/>
<polygon fill="#63b8ff" stroke="#63b8ff" points="308.76,-298.94 319.31,-299.9 311.66,-292.57 308.76,-298.94"/>
</g>
<!-- Node7&#45;&gt;Node7 -->
<g id="edge13" class="edge">
<title>Node7&#45;&gt;Node7</title>
<path fill="none" stroke="#63b8ff" d="M176.42,-187.08C165.44,-195.73 172.96,-205 199,-205 215.68,-205 224.76,-201.2 226.25,-196.19"/>
<polygon fill="#63b8ff" stroke="#63b8ff" points="229.26,-194.38 221.58,-187.08 223.03,-197.58 229.26,-194.38"/>
</g>
<!-- Node8 -->
<g id="node8" class="node">
<title>Node8</title>
<g id="a_node8"><a xlink:href="a00486.xhtml#aa633cf46c2b3938a1a7a8199c31051dd" target="_top" xlink:title=" ">
<polygon fill="white" stroke="#666666" points="385.5,-243 311.5,-243 311.5,-224 385.5,-224 385.5,-243"/>
<text text-anchor="middle" x="348.5" y="-231" font-family="Helvetica,sans-Serif" font-size="10.00">CMatrix::copy</text>
</a>
</g>
</g>
<!-- Node7&#45;&gt;Node8 -->
<g id="edge10" class="edge">
<title>Node7&#45;&gt;Node8</title>
<path fill="none" stroke="#63b8ff" d="M222.38,-187.15C241.11,-195.11 268.62,-206.5 293,-215.5 297.79,-217.27 302.84,-219.04 307.85,-220.76"/>
<polygon fill="#63b8ff" stroke="#63b8ff" points="306.79,-224.1 317.39,-223.97 309.02,-217.46 306.79,-224.1"/>
</g>
<!-- Node10 -->
<g id="node10" class="node">
<title>Node10</title>
<g id="a_node10"><a xlink:href="a00502.xhtml#a9811f50434dd058d201290b2dc98bfcd" target="_top" xlink:title=" ">
<polygon fill="white" stroke="#666666" points="392,-169 305,-169 305,-150 392,-150 392,-169"/>
<text text-anchor="middle" x="348.5" y="-157" font-family="Helvetica,sans-Serif" font-size="10.00">CVector::mulC_I</text>
</a>
</g>
</g>
<!-- Node7&#45;&gt;Node10 -->
<g id="edge14" class="edge">
<title>Node7&#45;&gt;Node10</title>
<path fill="none" stroke="#63b8ff" d="M236.84,-173C254.34,-170.87 275.58,-168.28 294.76,-165.94"/>
<polygon fill="#63b8ff" stroke="#63b8ff" points="295.36,-169.39 304.86,-164.7 294.51,-162.44 295.36,-169.39"/>
</g>
<!-- Node11 -->
<g id="node11" class="node">
<title>Node11</title>
<g id="a_node11"><a xlink:href="a00486.xhtml#a8f27c49fcbbdb52e2e9a50f2b22f59c3" target="_top" xlink:title=" ">
<polygon fill="white" stroke="#666666" points="526,-281 443,-281 443,-262 526,-262 526,-281"/>
<text text-anchor="middle" x="484.5" y="-269" font-family="Helvetica,sans-Serif" font-size="10.00">CMatrix::setEye</text>
</a>
</g>
</g>
<!-- Node7&#45;&gt;Node11 -->
<g id="edge15" class="edge">
<title>Node7&#45;&gt;Node11</title>
<path fill="none" stroke="#63b8ff" d="M208.32,-187.17C223.32,-203.84 256.73,-237.63 293,-252.5 337.75,-270.84 393.16,-274.47 432.67,-274.19"/>
<polygon fill="#63b8ff" stroke="#63b8ff" points="432.92,-277.69 442.86,-274.03 432.81,-270.69 432.92,-277.69"/>
</g>
<!-- Node12 -->
<g id="node12" class="node">
<title>Node12</title>
<g id="a_node12"><a xlink:href="a00502.xhtml#a4e5b5163bb46b8de5ac4013bde1ded00" target="_top" xlink:title=" ">
<polygon fill="white" stroke="#666666" points="393,-132 304,-132 304,-113 393,-113 393,-132"/>
<text text-anchor="middle" x="348.5" y="-120" font-family="Helvetica,sans-Serif" font-size="10.00">CVector::subW_I</text>
</a>
</g>
</g>
<!-- Node7&#45;&gt;Node12 -->
<g id="edge17" class="edge">
<title>Node7&#45;&gt;Node12</title>
<path fill="none" stroke="#63b8ff" d="M224,-167.95C242.73,-160.56 269.44,-150.16 293,-141.5 298.35,-139.53 304.01,-137.5 309.58,-135.53"/>
<polygon fill="#63b8ff" stroke="#63b8ff" points="311.15,-138.69 319.43,-132.08 308.83,-132.09 311.15,-138.69"/>
</g>
<!-- Node14 -->
<g id="node14" class="node">
<title>Node14</title>
<g id="a_node14"><a xlink:href="a00486.xhtml#a559a4308e4b77c24a8544d4e26efe1e9" target="_top" xlink:title=" ">
<polygon fill="white" stroke="#666666" points="404,-206 293,-206 293,-187 404,-187 404,-206"/>
<text text-anchor="middle" x="348.5" y="-194" font-family="Helvetica,sans-Serif" font-size="10.00">CMatrix::swapRowCol</text>
</a>
</g>
</g>
<!-- Node7&#45;&gt;Node14 -->
<g id="edge19" class="edge">
<title>Node7&#45;&gt;Node14</title>
<path fill="none" stroke="#63b8ff" d="M236.84,-182.25C250.7,-184.03 266.9,-186.12 282.57,-188.14"/>
<polygon fill="#63b8ff" stroke="#63b8ff" points="282.39,-191.64 292.75,-189.45 283.28,-184.7 282.39,-191.64"/>
</g>
<!-- Node9 -->
<g id="node9" class="node">
<title>Node9</title>
<g id="a_node9"><a xlink:href="a00502.xhtml#ad7c5cba73e439adac77778f61c9418f0" target="_top" xlink:title=" ">
<polygon fill="white" stroke="#666666" points="523,-243 446,-243 446,-224 523,-224 523,-243"/>
<text text-anchor="middle" x="484.5" y="-231" font-family="Helvetica,sans-Serif" font-size="10.00">CVector::copy</text>
</a>
</g>
</g>
<!-- Node8&#45;&gt;Node9 -->
<g id="edge11" class="edge">
<title>Node8&#45;&gt;Node9</title>
<path fill="none" stroke="#63b8ff" d="M385.76,-233.5C401.02,-233.5 419,-233.5 435.34,-233.5"/>
<polygon fill="#63b8ff" stroke="#63b8ff" points="435.81,-237 445.81,-233.5 435.81,-230 435.81,-237"/>
</g>
<!-- Node11&#45;&gt;Node3 -->
<g id="edge16" class="edge">
<title>Node11&#45;&gt;Node3</title>
<path fill="none" stroke="#63b8ff" d="M511.55,-261.83C517.49,-259.17 523.63,-256.03 529,-252.5 553.7,-236.29 577.95,-212.2 593.04,-195.95"/>
<polygon fill="#63b8ff" stroke="#63b8ff" points="595.91,-198 600.06,-188.25 590.73,-193.29 595.91,-198"/>
</g>
<!-- Node13 -->
<g id="node13" class="node">
<title>Node13</title>
<g id="a_node13"><a xlink:href="a00502.xhtml#a2239b170d46ed3d0846d766a0634a0be" target="_top" xlink:title=" ">
<polygon fill="white" stroke="#666666" points="529,-132 440,-132 440,-113 529,-113 529,-132"/>
<text text-anchor="middle" x="484.5" y="-120" font-family="Helvetica,sans-Serif" font-size="10.00">CVector::addW_I</text>
</a>
</g>
</g>
<!-- Node12&#45;&gt;Node13 -->
<g id="edge18" class="edge">
<title>Node12&#45;&gt;Node13</title>
<path fill="none" stroke="#63b8ff" d="M393.01,-122.5C404.71,-122.5 417.5,-122.5 429.69,-122.5"/>
<polygon fill="#63b8ff" stroke="#63b8ff" points="429.75,-126 439.75,-122.5 429.75,-119 429.75,-126"/>
</g>
<!-- Node16 -->
<g id="node16" class="node">
<title>Node16</title>
<g id="a_node16"><a xlink:href="a00502.xhtml#a269d316eeb6000aac4f57ade32c83127" target="_top" xlink:title=" ">
<polygon fill="white" stroke="#666666" points="398.5,-19 298.5,-19 298.5,0 398.5,0 398.5,-19"/>
<text text-anchor="middle" x="348.5" y="-7" font-family="Helvetica,sans-Serif" font-size="10.00">CVector::mulScalar</text>
</a>
</g>
</g>
<!-- Node15&#45;&gt;Node16 -->
<g id="edge21" class="edge">
<title>Node15&#45;&gt;Node16</title>
<path fill="none" stroke="#63b8ff" d="M257.03,-9.5C267.24,-9.5 277.91,-9.5 288.19,-9.5"/>
<polygon fill="#63b8ff" stroke="#63b8ff" points="288.3,-13 298.3,-9.5 288.3,-6 288.3,-13"/>
</g>
</g>
</svg>
