<?xml version="1.0" encoding="UTF-8" standalone="no"?>
<!DOCTYPE svg PUBLIC "-//W3C//DTD SVG 1.1//EN"
 "http://www.w3.org/Graphics/SVG/1.1/DTD/svg11.dtd">
<!-- Generated by graphviz version 6.0.1 (20220911.1526)
 -->
<!-- Title: CVector::setRand Pages: 1 -->
<svg width="444pt" height="27pt"
 viewBox="0.00 0.00 444.00 27.00" xmlns="http://www.w3.org/2000/svg" xmlns:xlink="http://www.w3.org/1999/xlink">
<g id="graph0" class="graph" transform="scale(1 1) rotate(0) translate(4 23)">
<title>CVector::setRand</title>
<!-- Node1 -->
<g id="node1" class="node">
<title>Node1</title>
<g id="a_node1"><a xlink:title=" ">
<polygon fill="#999999" stroke="#666666" points="436,-19 344,-19 344,0 436,0 436,-19"/>
<text text-anchor="middle" x="390" y="-7" font-family="Helvetica,sans-Serif" font-size="10.00">CVector::setRand</text>
</a>
</g>
</g>
<!-- Node2 -->
<g id="node2" class="node">
<title>Node2</title>
<g id="a_node2"><a xlink:href="a00486.xhtml#aa95c84e6a291f19c70f2cc2ea7e1cd48" target="_top" xlink:title=" ">
<polygon fill="white" stroke="#666666" points="308,-19 218,-19 218,0 308,0 308,-19"/>
<text text-anchor="middle" x="263" y="-7" font-family="Helvetica,sans-Serif" font-size="10.00">CMatrix::setRand</text>
</a>
</g>
</g>
<!-- Node1&#45;&gt;Node2 -->
<g id="edge1" class="edge">
<title>Node1&#45;&gt;Node2</title>
<path fill="none" stroke="#63b8ff" d="M333.63,-9.5C325.13,-9.5 316.44,-9.5 308.22,-9.5"/>
<polygon fill="#63b8ff" stroke="#63b8ff" points="333.87,-13 343.87,-9.5 333.87,-6 333.87,-13"/>
</g>
<!-- Node3 -->
<g id="node3" class="node">
<title>Node3</title>
<g id="a_node3"><a xlink:href="a00590.xhtml#a4f006a4fc88addf89d0e572d08e48680" target="_top" xlink:title=" ">
<polygon fill="white" stroke="#666666" points="182,-19 95,-19 95,0 182,0 182,-19"/>
<text text-anchor="middle" x="138.5" y="-7" font-family="Helvetica,sans-Serif" font-size="10.00">CNmfResult::init</text>
</a>
</g>
</g>
<!-- Node2&#45;&gt;Node3 -->
<g id="edge2" class="edge">
<title>Node2&#45;&gt;Node3</title>
<path fill="none" stroke="#63b8ff" d="M207.77,-9.5C199.15,-9.5 190.33,-9.5 182.02,-9.5"/>
<polygon fill="#63b8ff" stroke="#63b8ff" points="207.77,-13 217.77,-9.5 207.77,-6 207.77,-13"/>
</g>
<!-- Node4 -->
<g id="node4" class="node">
<title>Node4</title>
<g id="a_node4"><a xlink:href="a00594.xhtml#aec1d45b63855c114d480d1a0532dc3e5" target="_top" xlink:title=" ">
<polygon fill="white" stroke="#666666" points="59,-19 0,-19 0,0 59,0 59,-19"/>
<text text-anchor="middle" x="29.5" y="-7" font-family="Helvetica,sans-Serif" font-size="10.00">CNmf::init</text>
</a>
</g>
</g>
<!-- Node3&#45;&gt;Node4 -->
<g id="edge3" class="edge">
<title>Node3&#45;&gt;Node4</title>
<path fill="none" stroke="#63b8ff" d="M84.65,-9.5C75.86,-9.5 67.04,-9.5 59.15,-9.5"/>
<polygon fill="#63b8ff" stroke="#63b8ff" points="84.9,-13 94.9,-9.5 84.9,-6 84.9,-13"/>
</g>
</g>
</svg>
