<?xml version="1.0" encoding="UTF-8" standalone="no"?>
<!DOCTYPE svg PUBLIC "-//W3C//DTD SVG 1.1//EN"
 "http://www.w3.org/Graphics/SVG/1.1/DTD/svg11.dtd">
<!-- Generated by graphviz version 6.0.1 (20220911.1526)
 -->
<!-- Title: CGmm::init Pages: 1 -->
<svg width="576pt" height="156pt"
 viewBox="0.00 0.00 576.00 156.40" xmlns="http://www.w3.org/2000/svg" xmlns:xlink="http://www.w3.org/1999/xlink">
<g id="graph0" class="graph" transform="scale(1 1) rotate(0) translate(4 152.4)">
<title>CGmm::init</title>
<!-- Node1 -->
<g id="node1" class="node">
<title>Node1</title>
<g id="a_node1"><a xlink:title=" ">
<polygon fill="#999999" stroke="#666666" points="65,-113 0,-113 0,-94 65,-94 65,-113"/>
<text text-anchor="middle" x="32.5" y="-101" font-family="Helvetica,sans-Serif" font-size="10.00">CGmm::init</text>
</a>
</g>
</g>
<!-- Node2 -->
<g id="node2" class="node">
<title>Node2</title>
<g id="a_node2"><a xlink:href="a00502.xhtml#abaadac98b1cad18b7b568852bc951696" target="_top" xlink:title=" ">
<polygon fill="white" stroke="#666666" points="443,-132 366,-132 366,-113 443,-113 443,-132"/>
<text text-anchor="middle" x="404.5" y="-120" font-family="Helvetica,sans-Serif" font-size="10.00">CVector::alloc</text>
</a>
</g>
</g>
<!-- Node1&#45;&gt;Node2 -->
<g id="edge1" class="edge">
<title>Node1&#45;&gt;Node2</title>
<path fill="none" stroke="#63b8ff" d="M58.82,-113.02C71.36,-117.41 86.81,-122.33 101,-125.5 200.57,-147.74 228.79,-154.37 330,-141.5 341.21,-140.07 353.16,-137.47 364.09,-134.64"/>
<polygon fill="#63b8ff" stroke="#63b8ff" points="365.06,-138 373.8,-132 363.23,-131.25 365.06,-138"/>
</g>
<!-- Node4 -->
<g id="node4" class="node">
<title>Node4</title>
<g id="a_node4"><a xlink:href="a00486.xhtml#a6501b78d76c912d49eee88c8f7242923" target="_top" xlink:title=" ">
<polygon fill="white" stroke="#666666" points="316.5,-132 242.5,-132 242.5,-113 316.5,-113 316.5,-132"/>
<text text-anchor="middle" x="279.5" y="-120" font-family="Helvetica,sans-Serif" font-size="10.00">CMatrix::alloc</text>
</a>
</g>
</g>
<!-- Node1&#45;&gt;Node4 -->
<g id="edge3" class="edge">
<title>Node1&#45;&gt;Node4</title>
<path fill="none" stroke="#63b8ff" d="M65.03,-105.95C107.5,-109.24 183.39,-115.12 232.31,-118.92"/>
<polygon fill="#63b8ff" stroke="#63b8ff" points="232.08,-122.41 242.32,-119.69 232.62,-115.43 232.08,-122.41"/>
</g>
<!-- Node5 -->
<g id="node5" class="node">
<title>Node5</title>
<g id="a_node5"><a xlink:href="a00562.xhtml#a45cdbf46ab60e994f9f0f057959d679f" target="_top" xlink:title=" ">
<polygon fill="white" stroke="#666666" points="193,-94 101,-94 101,-75 193,-75 193,-94"/>
<text text-anchor="middle" x="147" y="-82" font-family="Helvetica,sans-Serif" font-size="10.00">CGmmResult::init</text>
</a>
</g>
</g>
<!-- Node1&#45;&gt;Node5 -->
<g id="edge5" class="edge">
<title>Node1&#45;&gt;Node5</title>
<path fill="none" stroke="#63b8ff" d="M65.14,-98.16C73.16,-96.8 82.02,-95.3 90.85,-93.81"/>
<polygon fill="#63b8ff" stroke="#63b8ff" points="91.47,-97.26 100.75,-92.14 90.31,-90.36 91.47,-97.26"/>
</g>
<!-- Node9 -->
<g id="node9" class="node">
<title>Node9</title>
<g id="a_node9"><a xlink:href="a00566.xhtml#a1dff186e30f819877d1d61d5ee9c052b" target="_top" xlink:title=" ">
<polygon fill="white" stroke="#666666" points="316.5,-19 242.5,-19 242.5,0 316.5,0 316.5,-19"/>
<text text-anchor="middle" x="279.5" y="-7" font-family="Helvetica,sans-Serif" font-size="10.00">CGmm::reset</text>
</a>
</g>
</g>
<!-- Node1&#45;&gt;Node9 -->
<g id="edge12" class="edge">
<title>Node1&#45;&gt;Node9</title>
<path fill="none" stroke="#63b8ff" d="M48.9,-93.96C62.31,-85.91 82.46,-74.47 101,-66.5 144.49,-47.8 196.22,-31.87 232.58,-21.64"/>
<polygon fill="#63b8ff" stroke="#63b8ff" points="233.71,-24.96 242.41,-18.91 231.84,-18.21 233.71,-24.96"/>
</g>
<!-- Node3 -->
<g id="node3" class="node">
<title>Node3</title>
<g id="a_node3"><a xlink:href="a00502.xhtml#a6dbb3f9f480568b60f7fe50090d20003" target="_top" xlink:title=" ">
<polygon fill="white" stroke="#666666" points="568,-132 479,-132 479,-113 568,-113 568,-132"/>
<text text-anchor="middle" x="523.5" y="-120" font-family="Helvetica,sans-Serif" font-size="10.00">CVector::setZero</text>
</a>
</g>
</g>
<!-- Node2&#45;&gt;Node3 -->
<g id="edge2" class="edge">
<title>Node2&#45;&gt;Node3</title>
<path fill="none" stroke="#63b8ff" d="M443.16,-122.5C451.33,-122.5 460.11,-122.5 468.76,-122.5"/>
<polygon fill="#63b8ff" stroke="#63b8ff" points="468.8,-126 478.8,-122.5 468.8,-119 468.8,-126"/>
</g>
<!-- Node4&#45;&gt;Node2 -->
<g id="edge4" class="edge">
<title>Node4&#45;&gt;Node2</title>
<path fill="none" stroke="#63b8ff" d="M316.74,-122.5C328.93,-122.5 342.72,-122.5 355.66,-122.5"/>
<polygon fill="#63b8ff" stroke="#63b8ff" points="355.81,-126 365.81,-122.5 355.81,-119 355.81,-126"/>
</g>
<!-- Node5&#45;&gt;Node2 -->
<g id="edge6" class="edge">
<title>Node5&#45;&gt;Node2</title>
<path fill="none" stroke="#63b8ff" d="M193.11,-87.81C230.08,-90.91 283.67,-96.32 330,-104.5 339.31,-106.14 349.2,-108.29 358.6,-110.52"/>
<polygon fill="#63b8ff" stroke="#63b8ff" points="358.01,-113.98 368.56,-112.95 359.67,-107.18 358.01,-113.98"/>
</g>
<!-- Node5&#45;&gt;Node4 -->
<g id="edge7" class="edge">
<title>Node5&#45;&gt;Node4</title>
<path fill="none" stroke="#63b8ff" d="M180.93,-94.09C197.62,-98.95 218.09,-104.91 235.96,-110.11"/>
<polygon fill="#63b8ff" stroke="#63b8ff" points="235,-113.48 245.58,-112.91 236.96,-106.76 235,-113.48"/>
</g>
<!-- Node6 -->
<g id="node6" class="node">
<title>Node6</title>
<g id="a_node6"><a xlink:href="a00562.xhtml#ad9401baec901e1351dbb46743c2d702f" target="_top" xlink:title=" ">
<polygon fill="white" stroke="#666666" points="330,-56 229,-56 229,-37 330,-37 330,-56"/>
<text text-anchor="middle" x="279.5" y="-44" font-family="Helvetica,sans-Serif" font-size="10.00">CGmmResult::reset</text>
</a>
</g>
</g>
<!-- Node5&#45;&gt;Node6 -->
<g id="edge8" class="edge">
<title>Node5&#45;&gt;Node6</title>
<path fill="none" stroke="#63b8ff" d="M180.93,-74.91C197.62,-70.05 218.09,-64.09 235.96,-58.89"/>
<polygon fill="#63b8ff" stroke="#63b8ff" points="236.96,-62.24 245.58,-56.09 235,-55.52 236.96,-62.24"/>
</g>
<!-- Node7 -->
<g id="node7" class="node">
<title>Node7</title>
<g id="a_node7"><a xlink:href="a00502.xhtml#aa86bdb0c663d4d52f2765793756f8737" target="_top" xlink:title=" ">
<polygon fill="white" stroke="#666666" points="560,-38 487,-38 487,-19 560,-19 560,-38"/>
<text text-anchor="middle" x="523.5" y="-26" font-family="Helvetica,sans-Serif" font-size="10.00">CVector::free</text>
</a>
</g>
</g>
<!-- Node6&#45;&gt;Node7 -->
<g id="edge9" class="edge">
<title>Node6&#45;&gt;Node7</title>
<path fill="none" stroke="#63b8ff" d="M330.1,-49.96C362.37,-51.44 405.32,-51.94 443,-47.5 455.33,-46.05 468.52,-43.37 480.54,-40.47"/>
<polygon fill="#63b8ff" stroke="#63b8ff" points="481.48,-43.84 490.32,-38.01 479.77,-37.06 481.48,-43.84"/>
</g>
<!-- Node8 -->
<g id="node8" class="node">
<title>Node8</title>
<g id="a_node8"><a xlink:href="a00486.xhtml#a591097c6b1935c4d6273b3445f8f552b" target="_top" xlink:title=" ">
<polygon fill="white" stroke="#666666" points="440,-38 369,-38 369,-19 440,-19 440,-38"/>
<text text-anchor="middle" x="404.5" y="-26" font-family="Helvetica,sans-Serif" font-size="10.00">CMatrix::free</text>
</a>
</g>
</g>
<!-- Node6&#45;&gt;Node8 -->
<g id="edge10" class="edge">
<title>Node6&#45;&gt;Node8</title>
<path fill="none" stroke="#63b8ff" d="M330.17,-39.23C339.57,-37.86 349.35,-36.42 358.59,-35.07"/>
<polygon fill="#63b8ff" stroke="#63b8ff" points="359.36,-38.5 368.75,-33.59 358.35,-31.57 359.36,-38.5"/>
</g>
<!-- Node8&#45;&gt;Node7 -->
<g id="edge11" class="edge">
<title>Node8&#45;&gt;Node7</title>
<path fill="none" stroke="#63b8ff" d="M440.29,-28.5C451.64,-28.5 464.44,-28.5 476.49,-28.5"/>
<polygon fill="#63b8ff" stroke="#63b8ff" points="476.83,-32 486.83,-28.5 476.83,-25 476.83,-32"/>
</g>
<!-- Node9&#45;&gt;Node7 -->
<g id="edge13" class="edge">
<title>Node9&#45;&gt;Node7</title>
<path fill="none" stroke="#63b8ff" d="M316.79,-7.08C349.81,-5.45 399.85,-4.42 443,-9.5 455.33,-10.95 468.52,-13.63 480.54,-16.53"/>
<polygon fill="#63b8ff" stroke="#63b8ff" points="479.77,-19.94 490.32,-18.99 481.48,-13.16 479.77,-19.94"/>
</g>
<!-- Node9&#45;&gt;Node8 -->
<g id="edge14" class="edge">
<title>Node9&#45;&gt;Node8</title>
<path fill="none" stroke="#63b8ff" d="M316.74,-15.1C329.84,-17.12 344.79,-19.43 358.55,-21.56"/>
<polygon fill="#63b8ff" stroke="#63b8ff" points="358.37,-25.07 368.79,-23.14 359.44,-18.15 358.37,-25.07"/>
</g>
</g>
</svg>
