<?xml version="1.0" encoding="UTF-8" standalone="no"?>
<!DOCTYPE svg PUBLIC "-//W3C//DTD SVG 1.1//EN"
 "http://www.w3.org/Graphics/SVG/1.1/DTD/svg11.dtd">
<!-- Generated by graphviz version 6.0.1 (20220911.1526)
 -->
<!-- Title: CKey::~CKey Pages: 1 -->
<svg width="317pt" height="27pt"
 viewBox="0.00 0.00 317.00 27.00" xmlns="http://www.w3.org/2000/svg" xmlns:xlink="http://www.w3.org/1999/xlink">
<g id="graph0" class="graph" transform="scale(1 1) rotate(0) translate(4 23)">
<title>CKey::~CKey</title>
<!-- Node1 -->
<g id="node1" class="node">
<title>Node1</title>
<g id="a_node1"><a xlink:title=" ">
<polygon fill="#999999" stroke="#666666" points="73,-19 0,-19 0,0 73,0 73,-19"/>
<text text-anchor="middle" x="36.5" y="-7" font-family="Helvetica,sans-Serif" font-size="10.00">CKey::~CKey</text>
</a>
</g>
</g>
<!-- Node2 -->
<g id="node2" class="node">
<title>Node2</title>
<g id="a_node2"><a xlink:href="a00506.xhtml#a11c42c6cb6e8cca8be972e8c7c63c6bc" target="_top" xlink:title=" ">
<polygon fill="white" stroke="#666666" points="175,-19 109,-19 109,0 175,0 175,-19"/>
<text text-anchor="middle" x="142" y="-7" font-family="Helvetica,sans-Serif" font-size="10.00">CKey::reset</text>
</a>
</g>
</g>
<!-- Node1&#45;&gt;Node2 -->
<g id="edge1" class="edge">
<title>Node1&#45;&gt;Node2</title>
<path fill="none" stroke="#63b8ff" d="M73.12,-9.5C81.35,-9.5 90.19,-9.5 98.67,-9.5"/>
<polygon fill="#63b8ff" stroke="#63b8ff" points="98.79,-13 108.79,-9.5 98.79,-6 98.79,-13"/>
</g>
<!-- Node3 -->
<g id="node3" class="node">
<title>Node3</title>
<g id="a_node3"><a xlink:href="a00466.xhtml#ab0b833a2f828e941e08f84a47dcfcda8" target="_top" xlink:title=" ">
<polygon fill="white" stroke="#666666" points="309,-19 211,-19 211,0 309,0 309,-19"/>
<text text-anchor="middle" x="260" y="-7" font-family="Helvetica,sans-Serif" font-size="10.00">CFeatureIf::destroy</text>
</a>
</g>
</g>
<!-- Node2&#45;&gt;Node3 -->
<g id="edge2" class="edge">
<title>Node2&#45;&gt;Node3</title>
<path fill="none" stroke="#63b8ff" d="M175,-9.5C182.91,-9.5 191.63,-9.5 200.36,-9.5"/>
<polygon fill="#63b8ff" stroke="#63b8ff" points="200.58,-13 210.58,-9.5 200.58,-6 200.58,-13"/>
</g>
</g>
</svg>
