<?xml version="1.0" encoding="UTF-8" standalone="no"?>
<!DOCTYPE svg PUBLIC "-//W3C//DTD SVG 1.1//EN"
 "http://www.w3.org/Graphics/SVG/1.1/DTD/svg11.dtd">
<!-- Generated by graphviz version 6.0.1 (20220911.1526)
 -->
<!-- Title: CNoveltyIf::compNovelty Pages: 1 -->
<svg width="812pt" height="736pt"
 viewBox="0.00 0.00 812.00 736.00" xmlns="http://www.w3.org/2000/svg" xmlns:xlink="http://www.w3.org/1999/xlink">
<g id="graph0" class="graph" transform="scale(1 1) rotate(0) translate(4 732)">
<title>CNoveltyIf::compNovelty</title>
<!-- Node1 -->
<g id="node1" class="node">
<title>Node1</title>
<g id="a_node1"><a xlink:title=" ">
<polygon fill="#999999" stroke="#666666" points="124,-356 0,-356 0,-337 124,-337 124,-356"/>
<text text-anchor="middle" x="62" y="-344" font-family="Helvetica,sans-Serif" font-size="10.00">CNoveltyIf::compNovelty</text>
</a>
</g>
</g>
<!-- Node2 -->
<g id="node2" class="node">
<title>Node2</title>
<g id="a_node2"><a xlink:href="a00502.xhtml#a22ff86e4fc2f8d5042159d9c84a7ff14" target="_top" xlink:title=" ">
<polygon fill="white" stroke="#666666" points="288.5,-728 201.5,-728 201.5,-709 288.5,-709 288.5,-728"/>
<text text-anchor="middle" x="245" y="-716" font-family="Helvetica,sans-Serif" font-size="10.00">CVector::addC_I</text>
</a>
</g>
</g>
<!-- Node1&#45;&gt;Node2 -->
<g id="edge1" class="edge">
<title>Node1&#45;&gt;Node2</title>
<path fill="none" stroke="#63b8ff" d="M64.3,-356.11C71.44,-407.49 107.49,-649.34 160,-699.5 168.53,-707.65 179.78,-712.58 191.26,-715.5"/>
<polygon fill="#63b8ff" stroke="#63b8ff" points="190.85,-718.99 201.35,-717.58 192.26,-712.13 190.85,-718.99"/>
</g>
<!-- Node3 -->
<g id="node3" class="node">
<title>Node3</title>
<g id="a_node3"><a xlink:href="a00502.xhtml#abaadac98b1cad18b7b568852bc951696" target="_top" xlink:title=" ">
<polygon fill="white" stroke="#666666" points="470,-499 393,-499 393,-480 470,-480 470,-499"/>
<text text-anchor="middle" x="431.5" y="-487" font-family="Helvetica,sans-Serif" font-size="10.00">CVector::alloc</text>
</a>
</g>
</g>
<!-- Node1&#45;&gt;Node3 -->
<g id="edge2" class="edge">
<title>Node1&#45;&gt;Node3</title>
<path fill="none" stroke="#63b8ff" d="M70.32,-356.22C85.06,-375.02 120.28,-416.29 160,-436.5 232.07,-473.18 326.86,-484.53 382.97,-488"/>
<polygon fill="#63b8ff" stroke="#63b8ff" points="382.8,-491.5 392.98,-488.57 383.19,-484.51 382.8,-491.5"/>
</g>
<!-- Node5 -->
<g id="node5" class="node">
<title>Node5</title>
<g id="a_node5"><a xlink:href="a00586.xhtml#ac37c3eae6a41a393219aa4cbd39db211" target="_top" xlink:title=" ">
<polygon fill="white" stroke="#666666" points="312.5,-642.5 177.5,-642.5 177.5,-612.5 312.5,-612.5 312.5,-642.5"/>
<text text-anchor="start" x="185.5" y="-630.5" font-family="Helvetica,sans-Serif" font-size="10.00">CMovingAverage::calcFilter</text>
<text text-anchor="middle" x="245" y="-619.5" font-family="Helvetica,sans-Serif" font-size="10.00">Length</text>
</a>
</g>
</g>
<!-- Node1&#45;&gt;Node5 -->
<g id="edge4" class="edge">
<title>Node1&#45;&gt;Node5</title>
<path fill="none" stroke="#63b8ff" d="M63.64,-356.1C66.65,-393.71 82.81,-532.44 160,-603.5 162.59,-605.88 165.4,-608.03 168.37,-609.97"/>
<polygon fill="#63b8ff" stroke="#63b8ff" points="166.68,-613.03 177.11,-614.89 170.11,-606.93 166.68,-613.03"/>
</g>
<!-- Node6 -->
<g id="node6" class="node">
<title>Node6</title>
<g id="a_node6"><a xlink:href="a00518.xhtml#afd8a1e8ba7f26e0d1982c49f7fef7951" target="_top" xlink:title=" ">
<polygon fill="white" stroke="#666666" points="300,-690.5 190,-690.5 190,-660.5 300,-660.5 300,-690.5"/>
<text text-anchor="start" x="198" y="-678.5" font-family="Helvetica,sans-Serif" font-size="10.00">CNoveltyFromBlockIf</text>
<text text-anchor="middle" x="245" y="-667.5" font-family="Helvetica,sans-Serif" font-size="10.00">::compNovelty</text>
</a>
</g>
</g>
<!-- Node1&#45;&gt;Node6 -->
<g id="edge5" class="edge">
<title>Node1&#45;&gt;Node6</title>
<path fill="none" stroke="#63b8ff" d="M62.99,-356.1C63.48,-397.81 71.09,-565.19 160,-651.5 165.74,-657.07 172.68,-661.37 180.08,-664.67"/>
<polygon fill="#63b8ff" stroke="#63b8ff" points="179.05,-668.03 189.64,-668.36 181.57,-661.5 179.05,-668.03"/>
</g>
<!-- Node8 -->
<g id="node8" class="node">
<title>Node8</title>
<g id="a_node8"><a xlink:href="a00514.xhtml#a9018f2beabd03a9b41d90bde402aa227" target="_top" xlink:title=" ">
<polygon fill="white" stroke="#666666" points="330,-594 160,-594 160,-575 330,-575 330,-594"/>
<text text-anchor="middle" x="245" y="-582" font-family="Helvetica,sans-Serif" font-size="10.00">CNoveltyIf::computeMagSpectrum_</text>
</a>
</g>
</g>
<!-- Node1&#45;&gt;Node8 -->
<g id="edge7" class="edge">
<title>Node1&#45;&gt;Node8</title>
<path fill="none" stroke="#63b8ff" d="M64.21,-356.21C69.07,-390.68 90.3,-508.19 160,-565.5 162.02,-567.16 164.16,-568.69 166.39,-570.08"/>
<polygon fill="#63b8ff" stroke="#63b8ff" points="164.9,-573.26 175.38,-574.86 168.19,-567.08 164.9,-573.26"/>
</g>
<!-- Node14 -->
<g id="node14" class="node">
<title>Node14</title>
<g id="a_node14"><a xlink:href="a00502.xhtml#a9811f50434dd058d201290b2dc98bfcd" target="_top" xlink:title=" ">
<polygon fill="white" stroke="#666666" points="475,-536 388,-536 388,-517 475,-517 475,-536"/>
<text text-anchor="middle" x="431.5" y="-524" font-family="Helvetica,sans-Serif" font-size="10.00">CVector::mulC_I</text>
</a>
</g>
</g>
<!-- Node1&#45;&gt;Node14 -->
<g id="edge45" class="edge">
<title>Node1&#45;&gt;Node14</title>
<path fill="none" stroke="#63b8ff" d="M67.26,-356.04C78.55,-380.1 111.69,-443.48 160,-473.5 195.67,-495.66 309.55,-512.35 377.65,-520.65"/>
<polygon fill="#63b8ff" stroke="#63b8ff" points="377.41,-524.14 387.76,-521.86 378.25,-517.19 377.41,-524.14"/>
</g>
<!-- Node15 -->
<g id="node15" class="node">
<title>Node15</title>
<g id="a_node15"><a xlink:href="a00586.xhtml#afaf126206b3993e9caeb989c2bab8ef4" target="_top" xlink:title=" ">
<polygon fill="white" stroke="#666666" points="302.5,-394 187.5,-394 187.5,-375 302.5,-375 302.5,-394"/>
<text text-anchor="middle" x="245" y="-382" font-family="Helvetica,sans-Serif" font-size="10.00">CMovingAverage::filtfilt</text>
</a>
</g>
</g>
<!-- Node1&#45;&gt;Node15 -->
<g id="edge16" class="edge">
<title>Node1&#45;&gt;Node15</title>
<path fill="none" stroke="#63b8ff" d="M108.67,-356.09C132.99,-361.19 163.08,-367.51 188.71,-372.89"/>
<polygon fill="#63b8ff" stroke="#63b8ff" points="188.15,-376.35 198.65,-374.98 189.59,-369.5 188.15,-376.35"/>
</g>
<!-- Node16 -->
<g id="node16" class="node">
<title>Node16</title>
<g id="a_node16"><a xlink:href="a00502.xhtml#aa86bdb0c663d4d52f2765793756f8737" target="_top" xlink:title=" ">
<polygon fill="white" stroke="#666666" points="468,-462 395,-462 395,-443 468,-443 468,-462"/>
<text text-anchor="middle" x="431.5" y="-450" font-family="Helvetica,sans-Serif" font-size="10.00">CVector::free</text>
</a>
</g>
</g>
<!-- Node1&#45;&gt;Node16 -->
<g id="edge38" class="edge">
<title>Node1&#45;&gt;Node16</title>
<path fill="none" stroke="#63b8ff" d="M76.05,-356.22C94.01,-369.09 127.77,-391.54 160,-403.5 235.88,-431.65 329.92,-444.01 384.77,-449.14"/>
<polygon fill="#63b8ff" stroke="#63b8ff" points="384.6,-452.64 394.87,-450.05 385.22,-445.67 384.6,-452.64"/>
</g>
<!-- Node25 -->
<g id="node25" class="node">
<title>Node25</title>
<g id="a_node25"><a xlink:href="a00586.xhtml#a9681799055b5a4622d25a70901a65af3" target="_top" xlink:title=" ">
<polygon fill="white" stroke="#666666" points="490,-339 373,-339 373,-320 490,-320 490,-339"/>
<text text-anchor="middle" x="431.5" y="-327" font-family="Helvetica,sans-Serif" font-size="10.00">CMovingAverage::reset</text>
</a>
</g>
</g>
<!-- Node1&#45;&gt;Node25 -->
<g id="edge48" class="edge">
<title>Node1&#45;&gt;Node25</title>
<path fill="none" stroke="#63b8ff" d="M124.1,-343.67C189.91,-340.63 294.35,-335.8 362.67,-332.64"/>
<polygon fill="#63b8ff" stroke="#63b8ff" points="363.07,-336.12 372.89,-332.16 362.74,-329.13 363.07,-336.12"/>
</g>
<!-- Node28 -->
<g id="node28" class="node">
<title>Node28</title>
<g id="a_node28"><a xlink:href="a00586.xhtml#a1a014af5490675e140d6069561b00eb1" target="_top" xlink:title=" ">
<polygon fill="white" stroke="#666666" points="497,-301.5 366,-301.5 366,-271.5 497,-271.5 497,-301.5"/>
<text text-anchor="start" x="374" y="-289.5" font-family="Helvetica,sans-Serif" font-size="10.00">CMovingAverage::setFilter</text>
<text text-anchor="middle" x="431.5" y="-278.5" font-family="Helvetica,sans-Serif" font-size="10.00">Param</text>
</a>
</g>
</g>
<!-- Node1&#45;&gt;Node28 -->
<g id="edge49" class="edge">
<title>Node1&#45;&gt;Node28</title>
<path fill="none" stroke="#63b8ff" d="M120.7,-336.96C133.63,-334.83 147.28,-332.58 160,-330.5 226.19,-319.66 301.51,-307.41 355.83,-298.6"/>
<polygon fill="#63b8ff" stroke="#63b8ff" points="356.42,-302.05 365.73,-296.99 355.3,-295.14 356.42,-302.05"/>
</g>
<!-- Node30 -->
<g id="node30" class="node">
<title>Node30</title>
<g id="a_node30"><a xlink:href="a00502.xhtml#a64c5c5686629f104663dd3774e7a6e1b" target="_top" xlink:title=" ">
<polygon fill="white" stroke="#666666" points="294.5,-280 195.5,-280 195.5,-261 294.5,-261 294.5,-280"/>
<text text-anchor="middle" x="245" y="-268" font-family="Helvetica,sans-Serif" font-size="10.00">CVector::findPeaks</text>
</a>
</g>
</g>
<!-- Node1&#45;&gt;Node30 -->
<g id="edge36" class="edge">
<title>Node1&#45;&gt;Node30</title>
<path fill="none" stroke="#63b8ff" d="M78.29,-336.97C97,-325.63 129.9,-306.71 160,-294.5 170.87,-290.09 182.84,-286.16 194.25,-282.81"/>
<polygon fill="#63b8ff" stroke="#63b8ff" points="195.43,-286.12 204.1,-280.03 193.52,-279.38 195.43,-286.12"/>
</g>
<!-- Node31 -->
<g id="node31" class="node">
<title>Node31</title>
<g id="a_node31"><a xlink:href="a00502.xhtml#a4cf9544dd96801e3ee47fd1ef2049a1b" target="_top" xlink:title=" ">
<polygon fill="white" stroke="#666666" points="479,-247 384,-247 384,-228 479,-228 479,-247"/>
<text text-anchor="middle" x="431.5" y="-235" font-family="Helvetica,sans-Serif" font-size="10.00">CVector::setValue</text>
</a>
</g>
</g>
<!-- Node1&#45;&gt;Node31 -->
<g id="edge50" class="edge">
<title>Node1&#45;&gt;Node31</title>
<path fill="none" stroke="#63b8ff" d="M69.34,-336.77C83.05,-316.7 117.68,-271.02 160,-252.5 228.75,-222.41 316.89,-224 373.54,-229.47"/>
<polygon fill="#63b8ff" stroke="#63b8ff" points="373.43,-232.98 383.74,-230.53 374.15,-226.02 373.43,-232.98"/>
</g>
<!-- Node32 -->
<g id="node32" class="node">
<title>Node32</title>
<g id="a_node32"><a xlink:href="a00502.xhtml#a9f5be871090bc5a64a7732cebfb4f8ec" target="_top" xlink:title=" ">
<polygon fill="white" stroke="#666666" points="289,-204 201,-204 201,-185 289,-185 289,-204"/>
<text text-anchor="middle" x="245" y="-192" font-family="Helvetica,sans-Serif" font-size="10.00">CVector::getMax</text>
</a>
</g>
</g>
<!-- Node1&#45;&gt;Node32 -->
<g id="edge39" class="edge">
<title>Node1&#45;&gt;Node32</title>
<path fill="none" stroke="#63b8ff" d="M67.57,-336.78C79.34,-312.83 113.06,-250.63 160,-218.5 169.2,-212.2 180.04,-207.54 190.82,-204.1"/>
<polygon fill="#63b8ff" stroke="#63b8ff" points="192.02,-207.4 200.66,-201.27 190.08,-200.67 192.02,-207.4"/>
</g>
<!-- Node34 -->
<g id="node34" class="node">
<title>Node34</title>
<g id="a_node34"><a xlink:href="a00502.xhtml#ae6e3545cf196c5e2409365bc62b7c1de" target="_top" xlink:title=" ">
<polygon fill="white" stroke="#666666" points="292,-93 198,-93 198,-74 292,-74 292,-93"/>
<text text-anchor="middle" x="245" y="-81" font-family="Helvetica,sans-Serif" font-size="10.00">CVector::getMean</text>
</a>
</g>
</g>
<!-- Node1&#45;&gt;Node34 -->
<g id="edge41" class="edge">
<title>Node1&#45;&gt;Node34</title>
<path fill="none" stroke="#63b8ff" d="M63.68,-336.94C66.83,-300.12 83.36,-166.38 160,-101.5 167.85,-94.85 177.58,-90.48 187.59,-87.64"/>
<polygon fill="#63b8ff" stroke="#63b8ff" points="188.71,-90.97 197.64,-85.28 187.11,-84.16 188.71,-90.97"/>
</g>
<!-- Node36 -->
<g id="node36" class="node">
<title>Node36</title>
<g id="a_node36"><a xlink:href="a00542.xhtml#a531920b36b04ecdb562bfbb09dd2e856" target="_top" xlink:title=" ">
<polygon fill="white" stroke="#666666" points="316,-167 174,-167 174,-148 316,-148 316,-167"/>
<text text-anchor="middle" x="245" y="-155" font-family="Helvetica,sans-Serif" font-size="10.00">CBlockAudioIf::getNextBlock</text>
</a>
</g>
</g>
<!-- Node1&#45;&gt;Node36 -->
<g id="edge43" class="edge">
<title>Node1&#45;&gt;Node36</title>
<path fill="none" stroke="#63b8ff" d="M65.48,-336.96C73.58,-307.82 102.11,-219.37 160,-176.5 162.5,-174.65 165.15,-172.97 167.91,-171.45"/>
<polygon fill="#63b8ff" stroke="#63b8ff" points="169.51,-174.57 177.04,-167.13 166.51,-168.24 169.51,-174.57"/>
</g>
<!-- Node37 -->
<g id="node37" class="node">
<title>Node37</title>
<g id="a_node37"><a xlink:href="a00542.xhtml#a595b3a391e2540a1dc9e53edf8634494" target="_top" xlink:title=" ">
<polygon fill="white" stroke="#666666" points="319,-130 171,-130 171,-111 319,-111 319,-130"/>
<text text-anchor="middle" x="245" y="-118" font-family="Helvetica,sans-Serif" font-size="10.00">CBlockAudioIf::getNumBlocks</text>
</a>
</g>
</g>
<!-- Node1&#45;&gt;Node37 -->
<g id="edge44" class="edge">
<title>Node1&#45;&gt;Node37</title>
<path fill="none" stroke="#63b8ff" d="M64.47,-336.85C70.07,-303.66 93.21,-193.24 160,-139.5 162.09,-137.82 164.3,-136.28 166.6,-134.87"/>
<polygon fill="#63b8ff" stroke="#63b8ff" points="168.61,-137.77 175.88,-130.06 165.39,-131.56 168.61,-137.77"/>
</g>
<!-- Node38 -->
<g id="node38" class="node">
<title>Node38</title>
<g id="a_node38"><a xlink:href="a00606.xhtml#aa8a561b4133585586c5b595116a9217f" target="_top" xlink:title=" ">
<polygon fill="white" stroke="#666666" points="313.5,-556.5 176.5,-556.5 176.5,-526.5 313.5,-526.5 313.5,-556.5"/>
<text text-anchor="start" x="184.5" y="-544.5" font-family="Helvetica,sans-Serif" font-size="10.00">CNormalizeAudio::normalize</text>
<text text-anchor="middle" x="245" y="-533.5" font-family="Helvetica,sans-Serif" font-size="10.00">Block</text>
</a>
</g>
</g>
<!-- Node1&#45;&gt;Node38 -->
<g id="edge46" class="edge">
<title>Node1&#45;&gt;Node38</title>
<path fill="none" stroke="#63b8ff" d="M66.02,-356.35C75.25,-384.82 105.81,-468.03 160,-512.5 164.32,-516.05 169.11,-519.17 174.13,-521.92"/>
<polygon fill="#63b8ff" stroke="#63b8ff" points="172.88,-525.21 183.4,-526.48 175.97,-518.92 172.88,-525.21"/>
</g>
<!-- Node39 -->
<g id="node39" class="node">
<title>Node39</title>
<g id="a_node39"><a xlink:href="a00502.xhtml#aba07261926b4c10ed7fdbe38edf6d16d" target="_top" xlink:title=" ">
<polygon fill="white" stroke="#666666" points="318,-56 172,-56 172,-37 318,-37 318,-56"/>
<text text-anchor="middle" x="245" y="-44" font-family="Helvetica,sans-Serif" font-size="10.00">CVector::setZeroBelowThresh</text>
</a>
</g>
</g>
<!-- Node1&#45;&gt;Node39 -->
<g id="edge51" class="edge">
<title>Node1&#45;&gt;Node39</title>
<path fill="none" stroke="#63b8ff" d="M63.13,-336.93C64.21,-296.82 73.99,-140.74 160,-64.5 161.19,-63.45 162.42,-62.45 163.69,-61.51"/>
<polygon fill="#63b8ff" stroke="#63b8ff" points="165.92,-64.25 172.61,-56.04 162.26,-58.29 165.92,-64.25"/>
</g>
<!-- Node40 -->
<g id="node40" class="node">
<title>Node40</title>
<g id="a_node40"><a xlink:href="a00502.xhtml#a39329371d828db80c2f0ad037074c998" target="_top" xlink:title=" ">
<polygon fill="white" stroke="#666666" points="285,-19 205,-19 205,0 285,0 285,-19"/>
<text text-anchor="middle" x="245" y="-7" font-family="Helvetica,sans-Serif" font-size="10.00">CVector::sub_I</text>
</a>
</g>
</g>
<!-- Node1&#45;&gt;Node40 -->
<g id="edge52" class="edge">
<title>Node1&#45;&gt;Node40</title>
<path fill="none" stroke="#63b8ff" d="M62.69,-336.91C61.87,-293.67 64.54,-115.25 160,-27.5 169.53,-18.74 182.25,-13.85 194.91,-11.21"/>
<polygon fill="#63b8ff" stroke="#63b8ff" points="195.69,-14.63 204.98,-9.55 194.55,-7.73 195.69,-14.63"/>
</g>
<!-- Node4 -->
<g id="node4" class="node">
<title>Node4</title>
<g id="a_node4"><a xlink:href="a00502.xhtml#a6dbb3f9f480568b60f7fe50090d20003" target="_top" xlink:title=" ">
<polygon fill="white" stroke="#666666" points="646,-530 557,-530 557,-511 646,-511 646,-530"/>
<text text-anchor="middle" x="601.5" y="-518" font-family="Helvetica,sans-Serif" font-size="10.00">CVector::setZero</text>
</a>
</g>
</g>
<!-- Node3&#45;&gt;Node4 -->
<g id="edge3" class="edge">
<title>Node3&#45;&gt;Node4</title>
<path fill="none" stroke="#63b8ff" d="M470.2,-496.46C492.82,-500.63 521.95,-506.01 546.93,-510.61"/>
<polygon fill="#63b8ff" stroke="#63b8ff" points="546.52,-514.1 556.99,-512.47 547.79,-507.21 546.52,-514.1"/>
</g>
<!-- Node7 -->
<g id="node7" class="node">
<title>Node7</title>
<g id="a_node7"><a xlink:href="a00502.xhtml#ad7c5cba73e439adac77778f61c9418f0" target="_top" xlink:title=" ">
<polygon fill="white" stroke="#666666" points="640,-684 563,-684 563,-665 640,-665 640,-684"/>
<text text-anchor="middle" x="601.5" y="-672" font-family="Helvetica,sans-Serif" font-size="10.00">CVector::copy</text>
</a>
</g>
</g>
<!-- Node6&#45;&gt;Node7 -->
<g id="edge6" class="edge">
<title>Node6&#45;&gt;Node7</title>
<path fill="none" stroke="#63b8ff" d="M300.23,-675.35C369.18,-675.15 487.13,-674.82 552.8,-674.63"/>
<polygon fill="#63b8ff" stroke="#63b8ff" points="552.89,-678.13 562.88,-674.61 552.87,-671.13 552.89,-678.13"/>
</g>
<!-- Node9 -->
<g id="node9" class="node">
<title>Node9</title>
<g id="a_node9"><a xlink:href="a00474.xhtml#ab5c17fe5c368048a3393818735dc9b8a" target="_top" xlink:title=" ">
<polygon fill="white" stroke="#666666" points="469.5,-647 393.5,-647 393.5,-628 469.5,-628 469.5,-647"/>
<text text-anchor="middle" x="431.5" y="-635" font-family="Helvetica,sans-Serif" font-size="10.00">CFft::compFft</text>
</a>
</g>
</g>
<!-- Node8&#45;&gt;Node9 -->
<g id="edge8" class="edge">
<title>Node8&#45;&gt;Node9</title>
<path fill="none" stroke="#63b8ff" d="M295.75,-594.06C307.12,-596.71 319.07,-599.87 330,-603.5 346.62,-609.01 349.52,-613.58 366,-619.5 371.61,-621.52 377.55,-623.45 383.48,-625.24"/>
<polygon fill="#63b8ff" stroke="#63b8ff" points="382.79,-628.69 393.37,-628.14 384.75,-621.97 382.79,-628.69"/>
</g>
<!-- Node12 -->
<g id="node12" class="node">
<title>Node12</title>
<g id="a_node12"><a xlink:href="a00474.xhtml#a9cb162394031e8b496f7a39b51c31d20" target="_top" xlink:title=" ">
<polygon fill="white" stroke="#666666" points="473,-610 390,-610 390,-591 473,-591 473,-610"/>
<text text-anchor="middle" x="431.5" y="-598" font-family="Helvetica,sans-Serif" font-size="10.00">CFft::getLength</text>
</a>
</g>
</g>
<!-- Node8&#45;&gt;Node12 -->
<g id="edge13" class="edge">
<title>Node8&#45;&gt;Node12</title>
<path fill="none" stroke="#63b8ff" d="M330.15,-591.8C346.99,-593.26 364.18,-594.75 379.47,-596.08"/>
<polygon fill="#63b8ff" stroke="#63b8ff" points="379.47,-599.59 389.73,-596.96 380.07,-592.61 379.47,-599.59"/>
</g>
<!-- Node13 -->
<g id="node13" class="node">
<title>Node13</title>
<g id="a_node13"><a xlink:href="a00474.xhtml#a48428f0ac37a3c112c9598c784771d4a" target="_top" xlink:title=" ">
<polygon fill="white" stroke="#666666" points="480.5,-573 382.5,-573 382.5,-554 480.5,-554 480.5,-573"/>
<text text-anchor="middle" x="431.5" y="-561" font-family="Helvetica,sans-Serif" font-size="10.00">CFft::getMagnitude</text>
</a>
</g>
</g>
<!-- Node8&#45;&gt;Node13 -->
<g id="edge14" class="edge">
<title>Node8&#45;&gt;Node13</title>
<path fill="none" stroke="#63b8ff" d="M329.61,-574.98C344.05,-573.34 358.77,-571.66 372.34,-570.12"/>
<polygon fill="#63b8ff" stroke="#63b8ff" points="372.94,-573.57 382.48,-568.97 372.14,-566.62 372.94,-573.57"/>
</g>
<!-- Node8&#45;&gt;Node14 -->
<g id="edge15" class="edge">
<title>Node8&#45;&gt;Node14</title>
<path fill="none" stroke="#63b8ff" d="M299.11,-574.9C309.51,-572.35 320.22,-569.23 330,-565.5 347.1,-558.97 349.12,-552.57 366,-545.5 371.45,-543.22 377.26,-541.09 383.09,-539.16"/>
<polygon fill="#63b8ff" stroke="#63b8ff" points="384.35,-542.43 392.83,-536.08 382.24,-535.75 384.35,-542.43"/>
</g>
<!-- Node9&#45;&gt;Node4 -->
<g id="edge12" class="edge">
<title>Node9&#45;&gt;Node4</title>
<path fill="none" stroke="#63b8ff" d="M469.51,-631.65C479.03,-628.99 488.87,-625.12 497,-619.5 519.23,-604.14 513.93,-589.65 533,-570.5 546.17,-557.28 563.04,-544.78 576.62,-535.59"/>
<polygon fill="#63b8ff" stroke="#63b8ff" points="578.59,-538.48 585,-530.05 574.73,-532.64 578.59,-538.48"/>
</g>
<!-- Node9&#45;&gt;Node7 -->
<g id="edge9" class="edge">
<title>Node9&#45;&gt;Node7</title>
<path fill="none" stroke="#63b8ff" d="M469.78,-645.71C494.3,-651.11 526.6,-658.22 552.96,-664.03"/>
<polygon fill="#63b8ff" stroke="#63b8ff" points="552.22,-667.45 562.74,-666.18 553.73,-660.61 552.22,-667.45"/>
</g>
<!-- Node10 -->
<g id="node10" class="node">
<title>Node10</title>
<g id="a_node10"><a xlink:href="a00502.xhtml#a5fb59528a3f5d3968f988d550b270898" target="_top" xlink:title=" ">
<polygon fill="white" stroke="#666666" points="641.5,-647 561.5,-647 561.5,-628 641.5,-628 641.5,-647"/>
<text text-anchor="middle" x="601.5" y="-635" font-family="Helvetica,sans-Serif" font-size="10.00">CVector::mul_I</text>
</a>
</g>
</g>
<!-- Node9&#45;&gt;Node10 -->
<g id="edge10" class="edge">
<title>Node9&#45;&gt;Node10</title>
<path fill="none" stroke="#63b8ff" d="M469.78,-637.5C493.77,-637.5 525.19,-637.5 551.22,-637.5"/>
<polygon fill="#63b8ff" stroke="#63b8ff" points="551.27,-641 561.27,-637.5 551.27,-634 551.27,-641"/>
</g>
<!-- Node11 -->
<g id="node11" class="node">
<title>Node11</title>
<g id="a_node11"><a xlink:href="a00305.xhtml#a32fc71031e721d003fd1dc07f771351d" target="_top" xlink:title=" ">
<polygon fill="white" stroke="#666666" points="644.5,-609.5 558.5,-609.5 558.5,-579.5 644.5,-579.5 644.5,-609.5"/>
<text text-anchor="start" x="566.5" y="-597.5" font-family="Helvetica,sans-Serif" font-size="10.00">LaszloFft::realfft</text>
<text text-anchor="middle" x="601.5" y="-586.5" font-family="Helvetica,sans-Serif" font-size="10.00">_split</text>
</a>
</g>
</g>
<!-- Node9&#45;&gt;Node11 -->
<g id="edge11" class="edge">
<title>Node9&#45;&gt;Node11</title>
<path fill="none" stroke="#63b8ff" d="M469.78,-627.96C492.91,-622.04 522.97,-614.34 548.42,-607.83"/>
<polygon fill="#63b8ff" stroke="#63b8ff" points="549.47,-611.17 558.29,-605.3 547.74,-604.39 549.47,-611.17"/>
</g>
<!-- Node15&#45;&gt;Node3 -->
<g id="edge17" class="edge">
<title>Node15&#45;&gt;Node3</title>
<path fill="none" stroke="#63b8ff" d="M258.98,-394.1C288.82,-416.14 360.15,-468.68 366,-471.5 371.37,-474.09 377.17,-476.36 383.02,-478.35"/>
<polygon fill="#63b8ff" stroke="#63b8ff" points="382.25,-481.77 392.84,-481.41 384.33,-475.09 382.25,-481.77"/>
</g>
<!-- Node15&#45;&gt;Node16 -->
<g id="edge18" class="edge">
<title>Node15&#45;&gt;Node16</title>
<path fill="none" stroke="#63b8ff" d="M289.73,-394.07C303,-397.74 317.39,-402.52 330,-408.5 347.6,-416.84 348.43,-425.08 366,-433.5 372.08,-436.41 378.71,-438.98 385.32,-441.21"/>
<polygon fill="#63b8ff" stroke="#63b8ff" points="384.34,-444.57 394.92,-444.23 386.44,-437.89 384.34,-444.57"/>
</g>
<!-- Node17 -->
<g id="node17" class="node">
<title>Node17</title>
<g id="a_node17"><a xlink:href="a00586.xhtml#a9704ba1d710c82a1b92af175b0b07538" target="_top" xlink:title=" ">
<polygon fill="white" stroke="#666666" points="497,-424.5 366,-424.5 366,-394.5 497,-394.5 497,-424.5"/>
<text text-anchor="start" x="374" y="-412.5" font-family="Helvetica,sans-Serif" font-size="10.00">CMovingAverage::getFilter</text>
<text text-anchor="middle" x="431.5" y="-401.5" font-family="Helvetica,sans-Serif" font-size="10.00">Param</text>
</a>
</g>
</g>
<!-- Node15&#45;&gt;Node17 -->
<g id="edge19" class="edge">
<title>Node15&#45;&gt;Node17</title>
<path fill="none" stroke="#63b8ff" d="M302.61,-392.17C319.35,-394.44 337.93,-396.96 355.63,-399.35"/>
<polygon fill="#63b8ff" stroke="#63b8ff" points="355.55,-402.88 365.93,-400.75 356.49,-395.94 355.55,-402.88"/>
</g>
<!-- Node19 -->
<g id="node19" class="node">
<title>Node19</title>
<g id="a_node19"><a xlink:href="a00586.xhtml#a7f3acd443773cadf99ab22335ecac73e" target="_top" xlink:title=" ">
<polygon fill="white" stroke="#666666" points="496.5,-376 366.5,-376 366.5,-357 496.5,-357 496.5,-376"/>
<text text-anchor="middle" x="431.5" y="-364" font-family="Helvetica,sans-Serif" font-size="10.00">CMovingAverage::process</text>
</a>
</g>
</g>
<!-- Node15&#45;&gt;Node19 -->
<g id="edge21" class="edge">
<title>Node15&#45;&gt;Node19</title>
<path fill="none" stroke="#63b8ff" d="M302.61,-378.98C319.43,-377.34 338.13,-375.51 355.91,-373.78"/>
<polygon fill="#63b8ff" stroke="#63b8ff" points="356.64,-377.22 366.26,-372.77 355.96,-370.26 356.64,-377.22"/>
</g>
<!-- Node15&#45;&gt;Node25 -->
<g id="edge29" class="edge">
<title>Node15&#45;&gt;Node25</title>
<path fill="none" stroke="#63b8ff" d="M280.84,-374.91C295.99,-370.65 313.92,-365.48 330,-360.5 346.11,-355.52 349.91,-353.55 366,-348.5 372.97,-346.31 380.38,-344.06 387.61,-341.9"/>
<polygon fill="#63b8ff" stroke="#63b8ff" points="388.69,-345.23 397.29,-339.04 386.71,-338.52 388.69,-345.23"/>
</g>
<!-- Node15&#45;&gt;Node28 -->
<g id="edge33" class="edge">
<title>Node15&#45;&gt;Node28</title>
<path fill="none" stroke="#63b8ff" d="M259.94,-374.89C281.85,-360.06 325.98,-331.24 366,-311.5 370.22,-309.42 374.66,-307.39 379.15,-305.44"/>
<polygon fill="#63b8ff" stroke="#63b8ff" points="380.52,-308.66 388.4,-301.58 377.82,-302.21 380.52,-308.66"/>
</g>
<!-- Node18 -->
<g id="node18" class="node">
<title>Node18</title>
<g id="a_node18"><a xlink:href="a00490.xhtml#aa04a6cb30d486a6ddd5f7929db1eef9d" target="_top" xlink:title=" ">
<polygon fill="white" stroke="#666666" points="670,-458.5 533,-458.5 533,-428.5 670,-428.5 670,-458.5"/>
<text text-anchor="start" x="541" y="-446.5" font-family="Helvetica,sans-Serif" font-size="10.00">CRingBuffer::getNumValues</text>
<text text-anchor="middle" x="601.5" y="-435.5" font-family="Helvetica,sans-Serif" font-size="10.00">InBuffer</text>
</a>
</g>
</g>
<!-- Node17&#45;&gt;Node18 -->
<g id="edge20" class="edge">
<title>Node17&#45;&gt;Node18</title>
<path fill="none" stroke="#63b8ff" d="M497.45,-422.65C505.82,-424.34 514.44,-426.08 522.98,-427.81"/>
<polygon fill="#63b8ff" stroke="#63b8ff" points="522.45,-431.27 532.94,-429.83 523.83,-424.41 522.45,-431.27"/>
</g>
<!-- Node19&#45;&gt;Node18 -->
<g id="edge22" class="edge">
<title>Node19&#45;&gt;Node18</title>
<path fill="none" stroke="#63b8ff" d="M475.31,-376.02C482.8,-378.54 490.32,-381.66 497,-385.5 516.08,-396.47 514.23,-408.01 533,-419.5 535.62,-421.1 538.36,-422.62 541.18,-424.06"/>
<polygon fill="#63b8ff" stroke="#63b8ff" points="539.84,-427.29 550.38,-428.35 542.8,-420.95 539.84,-427.29"/>
</g>
<!-- Node20 -->
<g id="node20" class="node">
<title>Node20</title>
<g id="a_node20"><a xlink:href="a00490.xhtml#a0f25eadaafa6a2e7bfe2f9ef6af1104b" target="_top" xlink:title=" ">
<polygon fill="white" stroke="#666666" points="661.5,-410 541.5,-410 541.5,-391 661.5,-391 661.5,-410"/>
<text text-anchor="middle" x="601.5" y="-398" font-family="Helvetica,sans-Serif" font-size="10.00">CRingBuffer::getPostInc</text>
</a>
</g>
</g>
<!-- Node19&#45;&gt;Node20 -->
<g id="edge23" class="edge">
<title>Node19&#45;&gt;Node20</title>
<path fill="none" stroke="#63b8ff" d="M479.74,-376.06C499.51,-380.06 522.66,-384.75 543.37,-388.94"/>
<polygon fill="#63b8ff" stroke="#63b8ff" points="542.82,-392.4 553.32,-390.95 544.21,-385.54 542.82,-392.4"/>
</g>
<!-- Node23 -->
<g id="node23" class="node">
<title>Node23</title>
<g id="a_node23"><a xlink:href="a00490.xhtml#a2bd848181a662312600bc590b9040d2a" target="_top" xlink:title=" ">
<polygon fill="white" stroke="#666666" points="661.5,-373 541.5,-373 541.5,-354 661.5,-354 661.5,-373"/>
<text text-anchor="middle" x="601.5" y="-361" font-family="Helvetica,sans-Serif" font-size="10.00">CRingBuffer::putPostInc</text>
</a>
</g>
</g>
<!-- Node19&#45;&gt;Node23 -->
<g id="edge26" class="edge">
<title>Node19&#45;&gt;Node23</title>
<path fill="none" stroke="#63b8ff" d="M496.97,-365.35C508.17,-365.15 519.85,-364.94 531.17,-364.74"/>
<polygon fill="#63b8ff" stroke="#63b8ff" points="531.5,-368.23 541.43,-364.55 531.37,-361.23 531.5,-368.23"/>
</g>
<!-- Node21 -->
<g id="node21" class="node">
<title>Node21</title>
<g id="a_node21"><a xlink:href="a00490.xhtml#a23d9877584d712c17811a9833835605e" target="_top" xlink:title=" ">
<polygon fill="white" stroke="#666666" points="798,-410 712,-410 712,-391 798,-391 798,-410"/>
<text text-anchor="middle" x="755" y="-398" font-family="Helvetica,sans-Serif" font-size="10.00">CRingBuffer::get</text>
</a>
</g>
</g>
<!-- Node20&#45;&gt;Node21 -->
<g id="edge24" class="edge">
<title>Node20&#45;&gt;Node21</title>
<path fill="none" stroke="#63b8ff" d="M661.51,-400.5C674.75,-400.5 688.71,-400.5 701.66,-400.5"/>
<polygon fill="#63b8ff" stroke="#63b8ff" points="701.8,-404 711.8,-400.5 701.8,-397 701.8,-404"/>
</g>
<!-- Node22 -->
<g id="node22" class="node">
<title>Node22</title>
<g id="a_node22"><a xlink:href="a00490.xhtml#a67eddecd2a880c52c80093774bc37c24" target="_top" xlink:title=" ">
<polygon fill="white" stroke="#666666" points="804,-373 706,-373 706,-354 804,-354 804,-373"/>
<text text-anchor="middle" x="755" y="-361" font-family="Helvetica,sans-Serif" font-size="10.00">CRingBuffer::incIdx</text>
</a>
</g>
</g>
<!-- Node20&#45;&gt;Node22 -->
<g id="edge25" class="edge">
<title>Node20&#45;&gt;Node22</title>
<path fill="none" stroke="#63b8ff" d="M641.52,-390.97C660.88,-386.24 684.47,-380.48 705.03,-375.46"/>
<polygon fill="#63b8ff" stroke="#63b8ff" points="705.97,-378.83 714.85,-373.06 704.31,-372.03 705.97,-378.83"/>
</g>
<!-- Node23&#45;&gt;Node22 -->
<g id="edge27" class="edge">
<title>Node23&#45;&gt;Node22</title>
<path fill="none" stroke="#63b8ff" d="M661.51,-363.5C672.7,-363.5 684.41,-363.5 695.59,-363.5"/>
<polygon fill="#63b8ff" stroke="#63b8ff" points="695.67,-367 705.67,-363.5 695.67,-360 695.67,-367"/>
</g>
<!-- Node24 -->
<g id="node24" class="node">
<title>Node24</title>
<g id="a_node24"><a xlink:href="a00490.xhtml#a702eb6314380082795f735df74a816c9" target="_top" xlink:title=" ">
<polygon fill="white" stroke="#666666" points="798,-336 712,-336 712,-317 798,-317 798,-336"/>
<text text-anchor="middle" x="755" y="-324" font-family="Helvetica,sans-Serif" font-size="10.00">CRingBuffer::put</text>
</a>
</g>
</g>
<!-- Node23&#45;&gt;Node24 -->
<g id="edge28" class="edge">
<title>Node23&#45;&gt;Node24</title>
<path fill="none" stroke="#63b8ff" d="M641.52,-353.97C660.88,-349.24 684.47,-343.48 705.03,-338.46"/>
<polygon fill="#63b8ff" stroke="#63b8ff" points="705.97,-341.83 714.85,-336.06 704.31,-335.03 705.97,-341.83"/>
</g>
<!-- Node26 -->
<g id="node26" class="node">
<title>Node26</title>
<g id="a_node26"><a xlink:href="a00490.xhtml#a716fb4acc03355a73cc7d96f3ceb2995" target="_top" xlink:title=" ">
<polygon fill="white" stroke="#666666" points="649,-336 554,-336 554,-317 649,-317 649,-336"/>
<text text-anchor="middle" x="601.5" y="-324" font-family="Helvetica,sans-Serif" font-size="10.00">CRingBuffer::reset</text>
</a>
</g>
</g>
<!-- Node25&#45;&gt;Node26 -->
<g id="edge30" class="edge">
<title>Node25&#45;&gt;Node26</title>
<path fill="none" stroke="#63b8ff" d="M490.32,-328.47C507.53,-328.16 526.37,-327.82 543.53,-327.52"/>
<polygon fill="#63b8ff" stroke="#63b8ff" points="544.03,-331.01 553.97,-327.33 543.91,-324.01 544.03,-331.01"/>
</g>
<!-- Node27 -->
<g id="node27" class="node">
<title>Node27</title>
<g id="a_node27"><a xlink:href="a00490.xhtml#af265a6322c4b1584c880def00d31e663" target="_top" xlink:title=" ">
<polygon fill="white" stroke="#666666" points="662.5,-299 540.5,-299 540.5,-280 662.5,-280 662.5,-299"/>
<text text-anchor="middle" x="601.5" y="-287" font-family="Helvetica,sans-Serif" font-size="10.00">CRingBuffer::setReadIdx</text>
</a>
</g>
</g>
<!-- Node25&#45;&gt;Node27 -->
<g id="edge31" class="edge">
<title>Node25&#45;&gt;Node27</title>
<path fill="none" stroke="#63b8ff" d="M472.74,-319.92C496.12,-314.35 525.77,-307.29 550.62,-301.38"/>
<polygon fill="#63b8ff" stroke="#63b8ff" points="551.67,-304.72 560.59,-299 550.05,-297.91 551.67,-304.72"/>
</g>
<!-- Node27&#45;&gt;Node22 -->
<g id="edge32" class="edge">
<title>Node27&#45;&gt;Node22</title>
<path fill="none" stroke="#63b8ff" d="M648.86,-299.05C656.21,-301.54 663.51,-304.64 670,-308.5 689.72,-320.23 686.79,-332.95 706,-345.5 708.3,-347 710.73,-348.4 713.25,-349.7"/>
<polygon fill="#63b8ff" stroke="#63b8ff" points="712.01,-352.99 722.56,-353.99 714.94,-346.63 712.01,-352.99"/>
</g>
<!-- Node28&#45;&gt;Node27 -->
<g id="edge35" class="edge">
<title>Node28&#45;&gt;Node27</title>
<path fill="none" stroke="#63b8ff" d="M497.45,-287.66C508.16,-287.85 519.3,-288.05 530.13,-288.24"/>
<polygon fill="#63b8ff" stroke="#63b8ff" points="530.33,-291.75 540.4,-288.43 530.46,-284.75 530.33,-291.75"/>
</g>
<!-- Node29 -->
<g id="node29" class="node">
<title>Node29</title>
<g id="a_node29"><a xlink:href="a00490.xhtml#a0ec2bd62a49e5078d3ca0a03fa123c9e" target="_top" xlink:title=" ">
<polygon fill="white" stroke="#666666" points="659.5,-262 543.5,-262 543.5,-243 659.5,-243 659.5,-262"/>
<text text-anchor="middle" x="601.5" y="-250" font-family="Helvetica,sans-Serif" font-size="10.00">CRingBuffer::getLength</text>
</a>
</g>
</g>
<!-- Node28&#45;&gt;Node29 -->
<g id="edge34" class="edge">
<title>Node28&#45;&gt;Node29</title>
<path fill="none" stroke="#63b8ff" d="M497.45,-273.35C512.61,-270.29 528.63,-267.04 543.42,-264.05"/>
<polygon fill="#63b8ff" stroke="#63b8ff" points="544.32,-267.44 553.43,-262.03 542.93,-260.58 544.32,-267.44"/>
</g>
<!-- Node30&#45;&gt;Node31 -->
<g id="edge37" class="edge">
<title>Node30&#45;&gt;Node31</title>
<path fill="none" stroke="#63b8ff" d="M294.96,-261.74C319.17,-257.41 348.52,-252.16 373.71,-247.66"/>
<polygon fill="#63b8ff" stroke="#63b8ff" points="374.63,-251.05 383.86,-245.84 373.4,-244.16 374.63,-251.05"/>
</g>
<!-- Node33 -->
<g id="node33" class="node">
<title>Node33</title>
<g id="a_node33"><a xlink:href="a00502.xhtml#a34a5c0abd80cd982df8a8bae7cbcea19" target="_top" xlink:title=" ">
<polygon fill="white" stroke="#666666" points="476,-204 387,-204 387,-185 476,-185 476,-204"/>
<text text-anchor="middle" x="431.5" y="-192" font-family="Helvetica,sans-Serif" font-size="10.00">CVector::findMax</text>
</a>
</g>
</g>
<!-- Node32&#45;&gt;Node33 -->
<g id="edge40" class="edge">
<title>Node32&#45;&gt;Node33</title>
<path fill="none" stroke="#63b8ff" d="M289.26,-194.5C315.32,-194.5 348.74,-194.5 376.53,-194.5"/>
<polygon fill="#63b8ff" stroke="#63b8ff" points="376.87,-198 386.87,-194.5 376.87,-191 376.87,-198"/>
</g>
<!-- Node35 -->
<g id="node35" class="node">
<title>Node35</title>
<g id="a_node35"><a xlink:href="a00502.xhtml#abdbcc3898121387f3694f74491b7331e" target="_top" xlink:title=" ">
<polygon fill="white" stroke="#666666" points="476.5,-93 386.5,-93 386.5,-74 476.5,-74 476.5,-93"/>
<text text-anchor="middle" x="431.5" y="-81" font-family="Helvetica,sans-Serif" font-size="10.00">CVector::getSum</text>
</a>
</g>
</g>
<!-- Node34&#45;&gt;Node35 -->
<g id="edge42" class="edge">
<title>Node34&#45;&gt;Node35</title>
<path fill="none" stroke="#63b8ff" d="M292.08,-83.5C317.52,-83.5 349.28,-83.5 375.95,-83.5"/>
<polygon fill="#63b8ff" stroke="#63b8ff" points="376.28,-87 386.28,-83.5 376.28,-80 376.28,-87"/>
</g>
<!-- Node38&#45;&gt;Node14 -->
<g id="edge47" class="edge">
<title>Node38&#45;&gt;Node14</title>
<path fill="none" stroke="#63b8ff" d="M313.65,-536C334.76,-534.28 357.72,-532.42 377.66,-530.8"/>
<polygon fill="#63b8ff" stroke="#63b8ff" points="378.1,-534.27 387.78,-529.97 377.53,-527.3 378.1,-534.27"/>
</g>
</g>
</svg>
