<?xml version="1.0" encoding="UTF-8" standalone="no"?>
<!DOCTYPE svg PUBLIC "-//W3C//DTD SVG 1.1//EN"
 "http://www.w3.org/Graphics/SVG/1.1/DTD/svg11.dtd">
<!-- Generated by graphviz version 4.0.0 (20220602.1335)
 -->
<!-- Title: CGmm::compGmm Pages: 1 -->
<!--zoomable 902 -->
<svg id="main" version="1.1" xmlns="http://www.w3.org/2000/svg" xmlns:xlink="http://www.w3.org/1999/xlink" xml:space="preserve" onload="init(evt)">
<style type="text/css"><![CDATA[
.edge:hover path { stroke: red; }
.edge:hover polygon { stroke: red; fill: red; }
]]></style>
<script type="text/javascript"><![CDATA[
var edges = document.getElementsByTagName('g');
if (edges && edges.length) {
  for (var i=0;i<edges.length;i++) {
    if (edges[i].id.substr(0,4)=='edge') {
      edges[i].setAttribute('class','edge');
    }
  }
}
]]></script>
        <defs>
                <circle id="rim" cx="0" cy="0" r="7"/>
                <circle id="rim2" cx="0" cy="0" r="3.5"/>
                <g id="zoomPlus">
                        <use xlink:href="#rim" fill="#404040">
                                <set attributeName="fill" to="#808080" begin="zoomplus.mouseover" end="zoomplus.mouseout"/>
                        </use>
                        <path d="M-4,0h8M0,-4v8" fill="none" stroke="white" stroke-width="1.5" pointer-events="none"/>
                </g>
                <g id="zoomMin">
                        <use xlink:href="#rim" fill="#404040">
                                <set attributeName="fill" to="#808080" begin="zoomminus.mouseover" end="zoomminus.mouseout"/>
                        </use>
                        <path d="M-4,0h8" fill="none" stroke="white" stroke-width="1.5" pointer-events="none"/>
                </g>
                <g id="dirArrow">
                        <path fill="none" stroke="white" stroke-width="1.5" d="M0,-3.0v7 M-2.5,-0.5L0,-3.0L2.5,-0.5"/>
                </g>
               <g id="resetDef">
                       <use xlink:href="#rim2" fill="#404040">
                               <set attributeName="fill" to="#808080" begin="reset.mouseover" end="reset.mouseout"/>
                       </use>
               </g>
        </defs>

<script type="text/javascript">
var viewWidth = 982;
var viewHeight = 902;
var sectionId = 'dynsection-4';
</script>
<script xlink:href="svgpan.js"/>
<svg id="graph" class="graph">
<g id="viewport">
<title>CGmm::compGmm</title>
<polygon fill="white" stroke="transparent" points="-4,4 -4,-898 978,-898 978,4 -4,4"/>
<!-- Node1 -->
<g id="node1" class="node">
<title>Node1</title>
<g id="a_node1"><a xlink:title=" ">
<polygon fill="#bfbfbf" stroke="black" points="0,-418.5 0,-437.5 100,-437.5 100,-418.5 0,-418.5"/>
<text text-anchor="middle" x="50" y="-425.5" font-family="Helvetica,sans-Serif" font-size="10.00">CGmm::compGmm</text>
</a>
</g>
</g>
<!-- Node2 -->
<g id="node2" class="node">
<title>Node2</title>
<g id="a_node2"><a xlink:href="a00578.xhtml#a38a33da2bae314f54e8879b338c64168" target="_top" xlink:title=" ">
<polygon fill="white" stroke="black" points="138,-456.5 138,-475.5 268,-475.5 268,-456.5 138,-456.5"/>
<text text-anchor="middle" x="203" y="-463.5" font-family="Helvetica,sans-Serif" font-size="10.00">CGmm::checkConverged_</text>
</a>
</g>
</g>
<!-- Node1&#45;&gt;Node2 -->
<g id="edge1" class="edge">
<title>Node1&#45;&gt;Node2</title>
<path fill="none" stroke="midnightblue" d="M89.1,-437.59C108.94,-442.58 133.38,-448.73 154.45,-454.03"/>
<polygon fill="midnightblue" stroke="midnightblue" points="153.62,-457.43 164.17,-456.48 155.33,-450.65 153.62,-457.43"/>
</g>
<!-- Node4 -->
<g id="node4" class="node">
<title>Node4</title>
<g id="a_node4"><a xlink:href="a00578.xhtml#a5670188d86ba2c05e0aa1f010ca31af0" target="_top" xlink:title=" ">
<polygon fill="white" stroke="black" points="136,-665.5 136,-684.5 270,-684.5 270,-665.5 136,-665.5"/>
<text text-anchor="middle" x="203" y="-672.5" font-family="Helvetica,sans-Serif" font-size="10.00">CGmm::compProbabilities_</text>
</a>
</g>
</g>
<!-- Node1&#45;&gt;Node4 -->
<g id="edge3" class="edge">
<title>Node1&#45;&gt;Node4</title>
<path fill="none" stroke="midnightblue" d="M56.92,-437.68C79.57,-474.73 160.93,-607.82 190.86,-656.77"/>
<polygon fill="midnightblue" stroke="midnightblue" points="187.92,-658.68 196.12,-665.38 193.89,-655.03 187.92,-658.68"/>
</g>
<!-- Node26 -->
<g id="node26" class="node">
<title>Node26</title>
<g id="a_node26"><a xlink:href="a00578.xhtml#a7c640b683a4d6999fa09157d60676a52" target="_top" xlink:title=" ">
<polygon fill="white" stroke="black" points="156.5,-114.5 156.5,-133.5 249.5,-133.5 249.5,-114.5 156.5,-114.5"/>
<text text-anchor="middle" x="203" y="-121.5" font-family="Helvetica,sans-Serif" font-size="10.00">CGmm::initState_</text>
</a>
</g>
</g>
<!-- Node1&#45;&gt;Node26 -->
<g id="edge37" class="edge">
<title>Node1&#45;&gt;Node26</title>
<path fill="none" stroke="midnightblue" d="M55.85,-418.23C77.33,-374.99 164.03,-200.44 192.73,-142.67"/>
<polygon fill="midnightblue" stroke="midnightblue" points="195.93,-144.1 197.24,-133.58 189.66,-140.98 195.93,-144.1"/>
</g>
<!-- Node36 -->
<g id="node36" class="node">
<title>Node36</title>
<g id="a_node36"><a xlink:href="a00578.xhtml#a0d3f000bb918b7d01ab12d5712d230cb" target="_top" xlink:title=" ">
<polygon fill="white" stroke="black" points="148,-323.5 148,-342.5 258,-342.5 258,-323.5 148,-323.5"/>
<text text-anchor="middle" x="203" y="-330.5" font-family="Helvetica,sans-Serif" font-size="10.00">CGmm::updateState_</text>
</a>
</g>
</g>
<!-- Node1&#45;&gt;Node36 -->
<g id="edge52" class="edge">
<title>Node1&#45;&gt;Node36</title>
<path fill="none" stroke="midnightblue" d="M66.31,-418.37C92.65,-401.8 146.73,-367.77 178.08,-348.05"/>
<polygon fill="midnightblue" stroke="midnightblue" points="180.05,-350.95 186.65,-342.66 176.32,-345.02 180.05,-350.95"/>
</g>
<!-- Node3 -->
<g id="node3" class="node">
<title>Node3</title>
<g id="a_node3"><a xlink:href="a00574.xhtml#ac8162fe5ba550aafb9fcd45e22739d5f" target="_top" xlink:title=" ">
<polygon fill="white" stroke="black" points="320,-494.5 320,-513.5 427,-513.5 427,-494.5 320,-494.5"/>
<text text-anchor="middle" x="373.5" y="-501.5" font-family="Helvetica,sans-Serif" font-size="10.00">CGmmResult::getMu</text>
</a>
</g>
</g>
<!-- Node2&#45;&gt;Node3 -->
<g id="edge2" class="edge">
<title>Node2&#45;&gt;Node3</title>
<path fill="none" stroke="midnightblue" d="M246.52,-475.59C268.96,-480.65 296.67,-486.9 320.39,-492.25"/>
<polygon fill="midnightblue" stroke="midnightblue" points="319.76,-495.69 330.29,-494.48 321.3,-488.87 319.76,-495.69"/>
</g>
<!-- Node4&#45;&gt;Node3 -->
<g id="edge16" class="edge">
<title>Node4&#45;&gt;Node3</title>
<path fill="none" stroke="midnightblue" d="M208.18,-665.21C219.79,-639.11 255.02,-567.18 306,-528 311.43,-523.83 317.65,-520.34 324.05,-517.42"/>
<polygon fill="midnightblue" stroke="midnightblue" points="325.57,-520.58 333.5,-513.56 322.92,-514.1 325.57,-520.58"/>
</g>
<!-- Node5 -->
<g id="node5" class="node">
<title>Node5</title>
<g id="a_node5"><a xlink:href="a00498.xhtml#a7de6a75fccded32c57d3fe168263204f" target="_top" xlink:title=" ">
<polygon fill="white" stroke="black" points="493,-779.5 493,-798.5 561,-798.5 561,-779.5 493,-779.5"/>
<text text-anchor="middle" x="527" y="-786.5" font-family="Helvetica,sans-Serif" font-size="10.00">CMatrix::det</text>
</a>
</g>
</g>
<!-- Node4&#45;&gt;Node5 -->
<g id="edge4" class="edge">
<title>Node4&#45;&gt;Node5</title>
<path fill="none" stroke="midnightblue" d="M210.56,-684.54C225.05,-704.71 262,-751.44 306,-771 363.01,-796.35 436.5,-796.74 482.44,-793.66"/>
<polygon fill="midnightblue" stroke="midnightblue" points="482.94,-797.13 492.65,-792.89 482.41,-790.15 482.94,-797.13"/>
</g>
<!-- Node10 -->
<g id="node10" class="node">
<title>Node10</title>
<g id="a_node10"><a xlink:href="a00514.xhtml#a6dbb3f9f480568b60f7fe50090d20003" target="_top" xlink:title=" ">
<polygon fill="white" stroke="black" points="885,-608.5 885,-627.5 974,-627.5 974,-608.5 885,-608.5"/>
<text text-anchor="middle" x="929.5" y="-615.5" font-family="Helvetica,sans-Serif" font-size="10.00">CVector::setZero</text>
</a>
</g>
</g>
<!-- Node4&#45;&gt;Node10 -->
<g id="edge36" class="edge">
<title>Node4&#45;&gt;Node10</title>
<path fill="none" stroke="midnightblue" d="M213.02,-665.42C229.59,-648.55 266.78,-613.91 306,-599 397.74,-564.13 427.86,-580 526,-580 526,-580 526,-580 669.5,-580 749.72,-580 769.93,-585.43 849,-599 860.03,-600.89 871.81,-603.42 882.83,-606.02"/>
<polygon fill="midnightblue" stroke="midnightblue" points="882.15,-609.45 892.69,-608.4 883.79,-602.65 882.15,-609.45"/>
</g>
<!-- Node15 -->
<g id="node15" class="node">
<title>Node15</title>
<g id="a_node15"><a xlink:href="a00514.xhtml#a9811f50434dd058d201290b2dc98bfcd" target="_top" xlink:title=" ">
<polygon fill="white" stroke="black" points="625,-532.5 625,-551.5 712,-551.5 712,-532.5 625,-532.5"/>
<text text-anchor="middle" x="668.5" y="-539.5" font-family="Helvetica,sans-Serif" font-size="10.00">CVector::mulC_I</text>
</a>
</g>
</g>
<!-- Node4&#45;&gt;Node15 -->
<g id="edge31" class="edge">
<title>Node4&#45;&gt;Node15</title>
<path fill="none" stroke="midnightblue" d="M209.39,-665.49C222.53,-643.32 258.69,-588.41 306,-566 406.77,-518.26 541.34,-525.13 614.56,-533.87"/>
<polygon fill="midnightblue" stroke="midnightblue" points="614.55,-537.4 624.91,-535.17 615.42,-530.45 614.55,-537.4"/>
</g>
<!-- Node17 -->
<g id="node17" class="node">
<title>Node17</title>
<g id="a_node17"><a xlink:href="a00574.xhtml#a6ea26c159c443a542714a537ef685ab6" target="_top" xlink:title=" ">
<polygon fill="white" stroke="black" points="317,-722.5 317,-741.5 430,-741.5 430,-722.5 317,-722.5"/>
<text text-anchor="middle" x="373.5" y="-729.5" font-family="Helvetica,sans-Serif" font-size="10.00">CGmmResult::getPrior</text>
</a>
</g>
</g>
<!-- Node4&#45;&gt;Node17 -->
<g id="edge17" class="edge">
<title>Node4&#45;&gt;Node17</title>
<path fill="none" stroke="midnightblue" d="M232.2,-684.54C260.27,-694.03 303.52,-708.67 334.58,-719.17"/>
<polygon fill="midnightblue" stroke="midnightblue" points="333.61,-722.54 344.2,-722.43 335.85,-715.91 333.61,-722.54"/>
</g>
<!-- Node18 -->
<g id="node18" class="node">
<title>Node18</title>
<g id="a_node18"><a xlink:href="a00574.xhtml#af55e479c24cc7bc39baf5f17a26d0865" target="_top" xlink:title=" ">
<polygon fill="white" stroke="black" points="313,-646.5 313,-665.5 434,-665.5 434,-646.5 313,-646.5"/>
<text text-anchor="middle" x="373.5" y="-653.5" font-family="Helvetica,sans-Serif" font-size="10.00">CGmmResult::getSigma</text>
</a>
</g>
</g>
<!-- Node4&#45;&gt;Node18 -->
<g id="edge18" class="edge">
<title>Node4&#45;&gt;Node18</title>
<path fill="none" stroke="midnightblue" d="M270.11,-667.55C280.8,-666.34 291.9,-665.09 302.68,-663.87"/>
<polygon fill="midnightblue" stroke="midnightblue" points="303.34,-667.32 312.88,-662.72 302.55,-660.37 303.34,-667.32"/>
</g>
<!-- Node19 -->
<g id="node19" class="node">
<title>Node19</title>
<g id="a_node19"><a xlink:href="a00498.xhtml#a09ac84feaf5fee4c0fbcd1ff2ecb851f" target="_top" xlink:title=" ">
<polygon fill="white" stroke="black" points="322.5,-874.5 322.5,-893.5 424.5,-893.5 424.5,-874.5 322.5,-874.5"/>
<text text-anchor="middle" x="373.5" y="-881.5" font-family="Helvetica,sans-Serif" font-size="10.00">CMatrix::getSumCol</text>
</a>
</g>
</g>
<!-- Node4&#45;&gt;Node19 -->
<g id="edge19" class="edge">
<title>Node4&#45;&gt;Node19</title>
<path fill="none" stroke="midnightblue" d="M206.3,-684.61C214.25,-715.74 243.61,-814.73 306,-865 308.28,-866.84 310.73,-868.5 313.29,-869.99"/>
<polygon fill="midnightblue" stroke="midnightblue" points="311.86,-873.19 322.38,-874.5 314.97,-866.92 311.86,-873.19"/>
</g>
<!-- Node20 -->
<g id="node20" class="node">
<title>Node20</title>
<g id="a_node20"><a xlink:href="a00498.xhtml#a37585f57926ea2921734907bacc6cce8" target="_top" xlink:title=" ">
<polygon fill="white" stroke="black" points="489.5,-684.5 489.5,-703.5 564.5,-703.5 564.5,-684.5 489.5,-684.5"/>
<text text-anchor="middle" x="527" y="-691.5" font-family="Helvetica,sans-Serif" font-size="10.00">CMatrix::inv_I</text>
</a>
</g>
</g>
<!-- Node4&#45;&gt;Node20 -->
<g id="edge20" class="edge">
<title>Node4&#45;&gt;Node20</title>
<path fill="none" stroke="midnightblue" d="M212.64,-684.64C228.89,-701.95 265.96,-737.72 306,-751 362.95,-769.88 383.6,-768.46 441,-751 467.06,-743.07 492.38,-724.2 508.51,-710.34"/>
<polygon fill="midnightblue" stroke="midnightblue" points="510.91,-712.89 516.06,-703.63 506.26,-707.65 510.91,-712.89"/>
</g>
<!-- Node23 -->
<g id="node23" class="node">
<title>Node23</title>
<g id="a_node23"><a xlink:href="a00498.xhtml#acfec629a6491fb8c082b566325716224" target="_top" xlink:title=" ">
<polygon fill="white" stroke="black" points="324,-836.5 324,-855.5 423,-855.5 423,-836.5 324,-836.5"/>
<text text-anchor="middle" x="373.5" y="-843.5" font-family="Helvetica,sans-Serif" font-size="10.00">CMatrix::mulColC_I</text>
</a>
</g>
</g>
<!-- Node4&#45;&gt;Node23 -->
<g id="edge32" class="edge">
<title>Node4&#45;&gt;Node23</title>
<path fill="none" stroke="midnightblue" d="M208.18,-684.79C219.79,-710.89 255.02,-782.82 306,-822 311.43,-826.17 317.65,-829.66 324.05,-832.58"/>
<polygon fill="midnightblue" stroke="midnightblue" points="322.92,-835.9 333.5,-836.44 325.57,-829.42 322.92,-835.9"/>
</g>
<!-- Node24 -->
<g id="node24" class="node">
<title>Node24</title>
<g id="a_node24"><a xlink:href="a00498.xhtml#a71194cf7707dedd5a6aa695a751262bb" target="_top" xlink:title=" ">
<polygon fill="white" stroke="black" points="315.5,-608.5 315.5,-627.5 431.5,-627.5 431.5,-608.5 315.5,-608.5"/>
<text text-anchor="middle" x="373.5" y="-615.5" font-family="Helvetica,sans-Serif" font-size="10.00">CMatrix::mulMatColvec</text>
</a>
</g>
</g>
<!-- Node4&#45;&gt;Node24 -->
<g id="edge33" class="edge">
<title>Node4&#45;&gt;Node24</title>
<path fill="none" stroke="midnightblue" d="M228.13,-665.4C248.68,-657.37 279.07,-645.85 306,-637 312.9,-634.73 320.25,-632.48 327.46,-630.35"/>
<polygon fill="midnightblue" stroke="midnightblue" points="328.51,-633.69 337.14,-627.55 326.56,-626.97 328.51,-633.69"/>
</g>
<!-- Node25 -->
<g id="node25" class="node">
<title>Node25</title>
<g id="a_node25"><a xlink:href="a00514.xhtml#a269d316eeb6000aac4f57ade32c83127" target="_top" xlink:title=" ">
<polygon fill="white" stroke="black" points="477,-608.5 477,-627.5 577,-627.5 577,-608.5 477,-608.5"/>
<text text-anchor="middle" x="527" y="-615.5" font-family="Helvetica,sans-Serif" font-size="10.00">CVector::mulScalar</text>
</a>
</g>
</g>
<!-- Node4&#45;&gt;Node25 -->
<g id="edge35" class="edge">
<title>Node4&#45;&gt;Node25</title>
<path fill="none" stroke="midnightblue" d="M264.34,-684.52C313.11,-689.97 382.94,-692.67 441,-675 467.06,-667.07 492.38,-648.2 508.51,-634.34"/>
<polygon fill="midnightblue" stroke="midnightblue" points="510.91,-636.89 516.06,-627.63 506.26,-631.65 510.91,-636.89"/>
</g>
<!-- Node6 -->
<g id="node6" class="node">
<title>Node6</title>
<g id="a_node6"><a xlink:href="a00514.xhtml#a3a052b83e62e5c5cc44829c64ffe42eb" target="_top" xlink:title=" ">
<polygon fill="white" stroke="black" points="628.5,-874.5 628.5,-893.5 708.5,-893.5 708.5,-874.5 628.5,-874.5"/>
<text text-anchor="middle" x="668.5" y="-881.5" font-family="Helvetica,sans-Serif" font-size="10.00">CVector::add_I</text>
</a>
</g>
</g>
<!-- Node5&#45;&gt;Node6 -->
<g id="edge5" class="edge">
<title>Node5&#45;&gt;Node6</title>
<path fill="none" stroke="midnightblue" d="M536.48,-798.75C550.78,-814.66 581.28,-846.31 613,-865 616.45,-867.03 620.14,-868.89 623.93,-870.58"/>
<polygon fill="midnightblue" stroke="midnightblue" points="622.85,-873.92 633.43,-874.45 625.48,-867.44 622.85,-873.92"/>
</g>
<!-- Node7 -->
<g id="node7" class="node">
<title>Node7</title>
<g id="a_node7"><a xlink:href="a00514.xhtml#a2239b170d46ed3d0846d766a0634a0be" target="_top" xlink:title=" ">
<polygon fill="white" stroke="black" points="760,-703.5 760,-722.5 849,-722.5 849,-703.5 760,-703.5"/>
<text text-anchor="middle" x="804.5" y="-710.5" font-family="Helvetica,sans-Serif" font-size="10.00">CVector::addW_I</text>
</a>
</g>
</g>
<!-- Node5&#45;&gt;Node7 -->
<g id="edge6" class="edge">
<title>Node5&#45;&gt;Node7</title>
<path fill="none" stroke="midnightblue" d="M561.15,-796.67C601.46,-804.31 670.7,-811.92 724,-789 745.37,-779.81 743.22,-767.12 760,-751 767.65,-743.65 776.4,-735.89 784.04,-729.31"/>
<polygon fill="midnightblue" stroke="midnightblue" points="786.45,-731.86 791.79,-722.71 781.91,-726.53 786.45,-731.86"/>
</g>
<!-- Node8 -->
<g id="node8" class="node">
<title>Node8</title>
<g id="a_node8"><a xlink:href="a00498.xhtml#a6501b78d76c912d49eee88c8f7242923" target="_top" xlink:title=" ">
<polygon fill="white" stroke="black" points="631.5,-836.5 631.5,-855.5 705.5,-855.5 705.5,-836.5 631.5,-836.5"/>
<text text-anchor="middle" x="668.5" y="-843.5" font-family="Helvetica,sans-Serif" font-size="10.00">CMatrix::alloc</text>
</a>
</g>
</g>
<!-- Node5&#45;&gt;Node8 -->
<g id="edge7" class="edge">
<title>Node5&#45;&gt;Node8</title>
<path fill="none" stroke="midnightblue" d="M551.35,-798.54C574.18,-807.87 609.16,-822.16 634.76,-832.62"/>
<polygon fill="midnightblue" stroke="midnightblue" points="633.49,-835.89 644.07,-836.43 636.14,-829.41 633.49,-835.89"/>
</g>
<!-- Node11 -->
<g id="node11" class="node">
<title>Node11</title>
<g id="a_node11"><a xlink:href="a00498.xhtml#a9f723a71e61f425d0ee9a51aa2162bf3" target="_top" xlink:title=" ">
<polygon fill="white" stroke="black" points="631.5,-608.5 631.5,-627.5 705.5,-627.5 705.5,-608.5 631.5,-608.5"/>
<text text-anchor="middle" x="668.5" y="-615.5" font-family="Helvetica,sans-Serif" font-size="10.00">CMatrix::copy</text>
</a>
</g>
</g>
<!-- Node5&#45;&gt;Node11 -->
<g id="edge10" class="edge">
<title>Node5&#45;&gt;Node11</title>
<path fill="none" stroke="midnightblue" d="M536.72,-779.46C546.85,-768.22 563.84,-748.81 577,-731 594.58,-707.2 594.69,-698.24 613,-675 624.32,-660.63 638.66,-645.74 649.79,-634.78"/>
<polygon fill="midnightblue" stroke="midnightblue" points="652.5,-637.03 657.24,-627.56 647.63,-632.01 652.5,-637.03"/>
</g>
<!-- Node13 -->
<g id="node13" class="node">
<title>Node13</title>
<g id="a_node13"><a xlink:href="a00498.xhtml#a591097c6b1935c4d6273b3445f8f552b" target="_top" xlink:title=" ">
<polygon fill="white" stroke="black" points="633,-760.5 633,-779.5 704,-779.5 704,-760.5 633,-760.5"/>
<text text-anchor="middle" x="668.5" y="-767.5" font-family="Helvetica,sans-Serif" font-size="10.00">CMatrix::free</text>
</a>
</g>
</g>
<!-- Node5&#45;&gt;Node13 -->
<g id="edge12" class="edge">
<title>Node5&#45;&gt;Node13</title>
<path fill="none" stroke="midnightblue" d="M561.06,-784.5C579.45,-781.99 602.59,-778.84 622.6,-776.12"/>
<polygon fill="midnightblue" stroke="midnightblue" points="623.29,-779.55 632.73,-774.74 622.35,-772.62 623.29,-779.55"/>
</g>
<!-- Node5&#45;&gt;Node15 -->
<g id="edge14" class="edge">
<title>Node5&#45;&gt;Node15</title>
<path fill="none" stroke="midnightblue" d="M538.54,-779.33C549.66,-768.56 566.94,-750.14 577,-731 605.29,-677.17 583.07,-651.93 613,-599 621.87,-583.31 636.03,-568.69 647.69,-558.18"/>
<polygon fill="midnightblue" stroke="midnightblue" points="650.01,-560.8 655.27,-551.6 645.42,-555.51 650.01,-560.8"/>
</g>
<!-- Node16 -->
<g id="node16" class="node">
<title>Node16</title>
<g id="a_node16"><a xlink:href="a00498.xhtml#a559a4308e4b77c24a8544d4e26efe1e9" target="_top" xlink:title=" ">
<polygon fill="white" stroke="black" points="613,-722.5 613,-741.5 724,-741.5 724,-722.5 613,-722.5"/>
<text text-anchor="middle" x="668.5" y="-729.5" font-family="Helvetica,sans-Serif" font-size="10.00">CMatrix::swapRowCol</text>
</a>
</g>
</g>
<!-- Node5&#45;&gt;Node16 -->
<g id="edge15" class="edge">
<title>Node5&#45;&gt;Node16</title>
<path fill="none" stroke="midnightblue" d="M548.06,-779.45C565.16,-771.46 590.46,-759.95 613,-751 618.18,-748.94 623.68,-746.88 629.12,-744.92"/>
<polygon fill="midnightblue" stroke="midnightblue" points="630.5,-748.14 638.76,-741.51 628.17,-741.54 630.5,-748.14"/>
</g>
<!-- Node9 -->
<g id="node9" class="node">
<title>Node9</title>
<g id="a_node9"><a xlink:href="a00514.xhtml#abaadac98b1cad18b7b568852bc951696" target="_top" xlink:title=" ">
<polygon fill="white" stroke="black" points="766,-817.5 766,-836.5 843,-836.5 843,-817.5 766,-817.5"/>
<text text-anchor="middle" x="804.5" y="-824.5" font-family="Helvetica,sans-Serif" font-size="10.00">CVector::alloc</text>
</a>
</g>
</g>
<!-- Node8&#45;&gt;Node9 -->
<g id="edge8" class="edge">
<title>Node8&#45;&gt;Node9</title>
<path fill="none" stroke="midnightblue" d="M705.76,-840.86C721.17,-838.67 739.34,-836.1 755.81,-833.76"/>
<polygon fill="midnightblue" stroke="midnightblue" points="756.4,-837.21 765.81,-832.34 755.41,-830.28 756.4,-837.21"/>
</g>
<!-- Node9&#45;&gt;Node10 -->
<g id="edge9" class="edge">
<title>Node9&#45;&gt;Node10</title>
<path fill="none" stroke="midnightblue" d="M819.41,-817.28C828.7,-810.24 840.69,-800.07 849,-789 885.91,-739.84 911.44,-670.8 922.43,-637.49"/>
<polygon fill="midnightblue" stroke="midnightblue" points="925.87,-638.23 925.6,-627.64 919.21,-636.09 925.87,-638.23"/>
</g>
<!-- Node12 -->
<g id="node12" class="node">
<title>Node12</title>
<g id="a_node12"><a xlink:href="a00514.xhtml#ad7c5cba73e439adac77778f61c9418f0" target="_top" xlink:title=" ">
<polygon fill="white" stroke="black" points="766,-608.5 766,-627.5 843,-627.5 843,-608.5 766,-608.5"/>
<text text-anchor="middle" x="804.5" y="-615.5" font-family="Helvetica,sans-Serif" font-size="10.00">CVector::copy</text>
</a>
</g>
</g>
<!-- Node11&#45;&gt;Node12 -->
<g id="edge11" class="edge">
<title>Node11&#45;&gt;Node12</title>
<path fill="none" stroke="midnightblue" d="M705.76,-618C721.02,-618 739,-618 755.34,-618"/>
<polygon fill="midnightblue" stroke="midnightblue" points="755.81,-621.5 765.81,-618 755.81,-614.5 755.81,-621.5"/>
</g>
<!-- Node14 -->
<g id="node14" class="node">
<title>Node14</title>
<g id="a_node14"><a xlink:href="a00514.xhtml#aa86bdb0c663d4d52f2765793756f8737" target="_top" xlink:title=" ">
<polygon fill="white" stroke="black" points="768,-760.5 768,-779.5 841,-779.5 841,-760.5 768,-760.5"/>
<text text-anchor="middle" x="804.5" y="-767.5" font-family="Helvetica,sans-Serif" font-size="10.00">CVector::free</text>
</a>
</g>
</g>
<!-- Node13&#45;&gt;Node14 -->
<g id="edge13" class="edge">
<title>Node13&#45;&gt;Node14</title>
<path fill="none" stroke="midnightblue" d="M704.01,-770C720.34,-770 740.08,-770 757.65,-770"/>
<polygon fill="midnightblue" stroke="midnightblue" points="757.71,-773.5 767.71,-770 757.71,-766.5 757.71,-773.5"/>
</g>
<!-- Node20&#45;&gt;Node8 -->
<g id="edge21" class="edge">
<title>Node20&#45;&gt;Node8</title>
<path fill="none" stroke="midnightblue" d="M536.34,-703.53C551.46,-720.75 584.45,-758.13 613,-789 625.57,-802.59 640.06,-817.72 650.94,-828.98"/>
<polygon fill="midnightblue" stroke="midnightblue" points="648.67,-831.66 658.14,-836.41 653.7,-826.79 648.67,-831.66"/>
</g>
<!-- Node20&#45;&gt;Node11 -->
<g id="edge22" class="edge">
<title>Node20&#45;&gt;Node11</title>
<path fill="none" stroke="midnightblue" d="M542.39,-684.37C559.03,-673.44 587.4,-655.39 613,-642 619.8,-638.44 627.24,-634.93 634.38,-631.73"/>
<polygon fill="midnightblue" stroke="midnightblue" points="636.08,-634.81 643.84,-627.6 633.27,-628.4 636.08,-634.81"/>
</g>
<!-- Node20&#45;&gt;Node13 -->
<g id="edge23" class="edge">
<title>Node20&#45;&gt;Node13</title>
<path fill="none" stroke="midnightblue" d="M540.06,-703.55C556.01,-715.82 585.34,-737.19 613,-751 617.26,-753.13 621.81,-755.12 626.41,-756.95"/>
<polygon fill="midnightblue" stroke="midnightblue" points="625.22,-760.24 635.81,-760.48 627.68,-753.69 625.22,-760.24"/>
</g>
<!-- Node20&#45;&gt;Node15 -->
<g id="edge25" class="edge">
<title>Node20&#45;&gt;Node15</title>
<path fill="none" stroke="midnightblue" d="M536.34,-684.47C551.46,-667.25 584.45,-629.87 613,-599 625.57,-585.41 640.06,-570.28 650.94,-559.02"/>
<polygon fill="midnightblue" stroke="midnightblue" points="653.7,-561.21 658.14,-551.59 648.67,-556.34 653.7,-561.21"/>
</g>
<!-- Node20&#45;&gt;Node16 -->
<g id="edge30" class="edge">
<title>Node20&#45;&gt;Node16</title>
<path fill="none" stroke="midnightblue" d="M563.2,-703.59C581.21,-708.49 603.33,-714.52 622.56,-719.76"/>
<polygon fill="midnightblue" stroke="midnightblue" points="621.74,-723.16 632.31,-722.41 623.58,-716.41 621.74,-723.16"/>
</g>
<!-- Node20&#45;&gt;Node20 -->
<g id="edge24" class="edge">
<title>Node20&#45;&gt;Node20</title>
<path fill="none" stroke="midnightblue" d="M505.42,-703.76C494.92,-712.57 502.12,-722 527,-722 542.94,-722 551.62,-718.13 553.04,-713.03"/>
<polygon fill="midnightblue" stroke="midnightblue" points="556.07,-711.25 548.58,-703.76 549.76,-714.29 556.07,-711.25"/>
</g>
<!-- Node21 -->
<g id="node21" class="node">
<title>Node21</title>
<g id="a_node21"><a xlink:href="a00498.xhtml#a8f27c49fcbbdb52e2e9a50f2b22f59c3" target="_top" xlink:title=" ">
<polygon fill="white" stroke="black" points="763,-646.5 763,-665.5 846,-665.5 846,-646.5 763,-646.5"/>
<text text-anchor="middle" x="804.5" y="-653.5" font-family="Helvetica,sans-Serif" font-size="10.00">CMatrix::setEye</text>
</a>
</g>
</g>
<!-- Node20&#45;&gt;Node21 -->
<g id="edge26" class="edge">
<title>Node20&#45;&gt;Node21</title>
<path fill="none" stroke="midnightblue" d="M564.63,-684.8C579.56,-681.31 597.03,-677.57 613,-675 659.94,-667.44 713.9,-662.4 752.39,-659.42"/>
<polygon fill="midnightblue" stroke="midnightblue" points="753.1,-662.87 762.81,-658.63 752.58,-655.89 753.1,-662.87"/>
</g>
<!-- Node22 -->
<g id="node22" class="node">
<title>Node22</title>
<g id="a_node22"><a xlink:href="a00514.xhtml#a4e5b5163bb46b8de5ac4013bde1ded00" target="_top" xlink:title=" ">
<polygon fill="white" stroke="black" points="624,-684.5 624,-703.5 713,-703.5 713,-684.5 624,-684.5"/>
<text text-anchor="middle" x="668.5" y="-691.5" font-family="Helvetica,sans-Serif" font-size="10.00">CVector::subW_I</text>
</a>
</g>
</g>
<!-- Node20&#45;&gt;Node22 -->
<g id="edge28" class="edge">
<title>Node20&#45;&gt;Node22</title>
<path fill="none" stroke="midnightblue" d="M564.65,-694C579.69,-694 597.41,-694 613.86,-694"/>
<polygon fill="midnightblue" stroke="midnightblue" points="613.9,-697.5 623.9,-694 613.9,-690.5 613.9,-697.5"/>
</g>
<!-- Node21&#45;&gt;Node10 -->
<g id="edge27" class="edge">
<title>Node21&#45;&gt;Node10</title>
<path fill="none" stroke="midnightblue" d="M836.54,-646.41C851.98,-641.64 870.85,-635.81 887.47,-630.68"/>
<polygon fill="midnightblue" stroke="midnightblue" points="888.95,-633.88 897.47,-627.59 886.88,-627.19 888.95,-633.88"/>
</g>
<!-- Node22&#45;&gt;Node7 -->
<g id="edge29" class="edge">
<title>Node22&#45;&gt;Node7</title>
<path fill="none" stroke="midnightblue" d="M713.01,-700.17C724.71,-701.83 737.5,-703.64 749.69,-705.37"/>
<polygon fill="midnightblue" stroke="midnightblue" points="749.36,-708.86 759.75,-706.8 750.34,-701.93 749.36,-708.86"/>
</g>
<!-- Node24&#45;&gt;Node25 -->
<g id="edge34" class="edge">
<title>Node24&#45;&gt;Node25</title>
<path fill="none" stroke="midnightblue" d="M431.78,-618C443.07,-618 454.94,-618 466.31,-618"/>
<polygon fill="midnightblue" stroke="midnightblue" points="466.58,-621.5 476.58,-618 466.58,-614.5 466.58,-621.5"/>
</g>
<!-- Node26&#45;&gt;Node15 -->
<g id="edge46" class="edge">
<title>Node26&#45;&gt;Node15</title>
<path fill="none" stroke="midnightblue" d="M216.29,-114.35C234.59,-100.64 270.66,-76.2 306,-67 364.06,-51.88 384.61,-46.49 441,-67 515.12,-93.96 535.14,-114.15 577,-181 648.86,-295.77 663.71,-464.55 666.74,-522"/>
<polygon fill="midnightblue" stroke="midnightblue" points="663.25,-522.41 667.21,-532.24 670.25,-522.09 663.25,-522.41"/>
</g>
<!-- Node27 -->
<g id="node27" class="node">
<title>Node27</title>
<g id="a_node27"><a xlink:href="a00610.xhtml#a6fb2c806d453b0c946cffbdcd46b027f" target="_top" xlink:title=" ">
<polygon fill="white" stroke="black" points="330.5,-76.5 330.5,-95.5 416.5,-95.5 416.5,-76.5 330.5,-76.5"/>
<text text-anchor="middle" x="373.5" y="-83.5" font-family="Helvetica,sans-Serif" font-size="10.00">CPca::compCov</text>
</a>
</g>
</g>
<!-- Node26&#45;&gt;Node27 -->
<g id="edge38" class="edge">
<title>Node26&#45;&gt;Node27</title>
<path fill="none" stroke="midnightblue" d="M246.52,-114.41C268.96,-109.35 296.67,-103.1 320.39,-97.75"/>
<polygon fill="midnightblue" stroke="midnightblue" points="321.3,-101.13 330.29,-95.52 319.76,-94.31 321.3,-101.13"/>
</g>
<!-- Node32 -->
<g id="node32" class="node">
<title>Node32</title>
<g id="a_node32"><a xlink:href="a00506.xhtml#aae8e203b2012c32c85c0293c207e0a10" target="_top" xlink:title=" ">
<polygon fill="white" stroke="black" points="317.5,-0.5 317.5,-19.5 429.5,-19.5 429.5,-0.5 317.5,-0.5"/>
<text text-anchor="middle" x="373.5" y="-7.5" font-family="Helvetica,sans-Serif" font-size="10.00">CSynthesis::genNoise</text>
</a>
</g>
</g>
<!-- Node26&#45;&gt;Node32 -->
<g id="edge45" class="edge">
<title>Node26&#45;&gt;Node32</title>
<path fill="none" stroke="midnightblue" d="M212.62,-114.27C229.12,-96.18 266.99,-57.1 306,-34 313.06,-29.82 320.96,-26.19 328.79,-23.1"/>
<polygon fill="midnightblue" stroke="midnightblue" points="330.07,-26.36 338.24,-19.61 327.65,-19.79 330.07,-26.36"/>
</g>
<!-- Node33 -->
<g id="node33" class="node">
<title>Node33</title>
<g id="a_node33"><a xlink:href="a00574.xhtml#ab1f629b8a2796b9a64366dfc01b47f99" target="_top" xlink:title=" ">
<polygon fill="white" stroke="black" points="320,-152.5 320,-171.5 427,-171.5 427,-152.5 320,-152.5"/>
<text text-anchor="middle" x="373.5" y="-159.5" font-family="Helvetica,sans-Serif" font-size="10.00">CGmmResult::setMu</text>
</a>
</g>
</g>
<!-- Node26&#45;&gt;Node33 -->
<g id="edge47" class="edge">
<title>Node26&#45;&gt;Node33</title>
<path fill="none" stroke="midnightblue" d="M246.52,-133.59C268.96,-138.65 296.67,-144.9 320.39,-150.25"/>
<polygon fill="midnightblue" stroke="midnightblue" points="319.76,-153.69 330.29,-152.48 321.3,-146.87 319.76,-153.69"/>
</g>
<!-- Node34 -->
<g id="node34" class="node">
<title>Node34</title>
<g id="a_node34"><a xlink:href="a00574.xhtml#a664515ad2f4fab6188ad24a91fdf7d7f" target="_top" xlink:title=" ">
<polygon fill="white" stroke="black" points="317,-114.5 317,-133.5 430,-133.5 430,-114.5 317,-114.5"/>
<text text-anchor="middle" x="373.5" y="-121.5" font-family="Helvetica,sans-Serif" font-size="10.00">CGmmResult::setPrior</text>
</a>
</g>
</g>
<!-- Node26&#45;&gt;Node34 -->
<g id="edge48" class="edge">
<title>Node26&#45;&gt;Node34</title>
<path fill="none" stroke="midnightblue" d="M249.6,-124C267.2,-124 287.67,-124 306.79,-124"/>
<polygon fill="midnightblue" stroke="midnightblue" points="306.95,-127.5 316.95,-124 306.95,-120.5 306.95,-127.5"/>
</g>
<!-- Node35 -->
<g id="node35" class="node">
<title>Node35</title>
<g id="a_node35"><a xlink:href="a00574.xhtml#a73b45f72b704d8053dac9e408ed01799" target="_top" xlink:title=" ">
<polygon fill="white" stroke="black" points="313,-266.5 313,-285.5 434,-285.5 434,-266.5 313,-266.5"/>
<text text-anchor="middle" x="373.5" y="-273.5" font-family="Helvetica,sans-Serif" font-size="10.00">CGmmResult::setSigma</text>
</a>
</g>
</g>
<!-- Node26&#45;&gt;Node35 -->
<g id="edge49" class="edge">
<title>Node26&#45;&gt;Node35</title>
<path fill="none" stroke="midnightblue" d="M214.54,-133.51C242.55,-158.78 319.12,-227.85 354.34,-259.62"/>
<polygon fill="midnightblue" stroke="midnightblue" points="352.19,-262.4 361.96,-266.5 356.88,-257.2 352.19,-262.4"/>
</g>
<!-- Node28 -->
<g id="node28" class="node">
<title>Node28</title>
<g id="a_node28"><a xlink:href="a00514.xhtml#ae6e3545cf196c5e2409365bc62b7c1de" target="_top" xlink:title=" ">
<polygon fill="white" stroke="black" points="480,-190.5 480,-209.5 574,-209.5 574,-190.5 480,-190.5"/>
<text text-anchor="middle" x="527" y="-197.5" font-family="Helvetica,sans-Serif" font-size="10.00">CVector::getMean</text>
</a>
</g>
</g>
<!-- Node27&#45;&gt;Node28 -->
<g id="edge39" class="edge">
<title>Node27&#45;&gt;Node28</title>
<path fill="none" stroke="midnightblue" d="M416.82,-94.22C425.21,-96.9 433.67,-100.41 441,-105 472.86,-124.96 499.86,-160.25 514.43,-181.75"/>
<polygon fill="midnightblue" stroke="midnightblue" points="511.63,-183.86 520.05,-190.29 517.47,-180.01 511.63,-183.86"/>
</g>
<!-- Node30 -->
<g id="node30" class="node">
<title>Node30</title>
<g id="a_node30"><a xlink:href="a00498.xhtml#a49b68b5ae672826ed8c8e3b014e09769" target="_top" xlink:title=" ">
<polygon fill="white" stroke="black" points="484.5,-418.5 484.5,-437.5 569.5,-437.5 569.5,-418.5 484.5,-418.5"/>
<text text-anchor="middle" x="527" y="-425.5" font-family="Helvetica,sans-Serif" font-size="10.00">CMatrix::mulC_I</text>
</a>
</g>
</g>
<!-- Node27&#45;&gt;Node30 -->
<g id="edge41" class="edge">
<title>Node27&#45;&gt;Node30</title>
<path fill="none" stroke="midnightblue" d="M416.75,-90.22C425.94,-93.09 434.77,-97.69 441,-105 529.19,-208.6 393.65,-301.47 477,-409 477.94,-410.22 478.98,-411.36 480.08,-412.42"/>
<polygon fill="midnightblue" stroke="midnightblue" points="478.13,-415.34 488.26,-418.45 482.29,-409.7 478.13,-415.34"/>
</g>
<!-- Node31 -->
<g id="node31" class="node">
<title>Node31</title>
<g id="a_node31"><a xlink:href="a00498.xhtml#a7be1ae4f635c5aaec0c2693fc23b3646" target="_top" xlink:title=" ">
<polygon fill="white" stroke="black" points="483.5,-380.5 483.5,-399.5 570.5,-399.5 570.5,-380.5 483.5,-380.5"/>
<text text-anchor="middle" x="527" y="-387.5" font-family="Helvetica,sans-Serif" font-size="10.00">CMatrix::setZero</text>
</a>
</g>
</g>
<!-- Node27&#45;&gt;Node31 -->
<g id="edge43" class="edge">
<title>Node27&#45;&gt;Node31</title>
<path fill="none" stroke="midnightblue" d="M416.58,-91.23C425.56,-94.08 434.34,-98.42 441,-105 445.93,-109.87 502.33,-306.87 520.44,-370.44"/>
<polygon fill="midnightblue" stroke="midnightblue" points="517.16,-371.72 523.27,-380.38 523.9,-369.81 517.16,-371.72"/>
</g>
<!-- Node29 -->
<g id="node29" class="node">
<title>Node29</title>
<g id="a_node29"><a xlink:href="a00514.xhtml#abdbcc3898121387f3694f74491b7331e" target="_top" xlink:title=" ">
<polygon fill="white" stroke="black" points="623.5,-209.5 623.5,-228.5 713.5,-228.5 713.5,-209.5 623.5,-209.5"/>
<text text-anchor="middle" x="668.5" y="-216.5" font-family="Helvetica,sans-Serif" font-size="10.00">CVector::getSum</text>
</a>
</g>
</g>
<!-- Node28&#45;&gt;Node29 -->
<g id="edge40" class="edge">
<title>Node28&#45;&gt;Node29</title>
<path fill="none" stroke="midnightblue" d="M574.06,-206.27C586.59,-207.98 600.27,-209.84 613.2,-211.6"/>
<polygon fill="midnightblue" stroke="midnightblue" points="613,-215.11 623.38,-212.99 613.94,-208.17 613,-215.11"/>
</g>
<!-- Node30&#45;&gt;Node15 -->
<g id="edge42" class="edge">
<title>Node30&#45;&gt;Node15</title>
<path fill="none" stroke="midnightblue" d="M539.89,-437.72C563.88,-457.32 618.27,-501.77 647.7,-525.82"/>
<polygon fill="midnightblue" stroke="midnightblue" points="645.68,-528.69 655.64,-532.31 650.11,-523.27 645.68,-528.69"/>
</g>
<!-- Node31&#45;&gt;Node10 -->
<g id="edge44" class="edge">
<title>Node31&#45;&gt;Node10</title>
<path fill="none" stroke="midnightblue" d="M554.76,-399.52C562.07,-402.35 569.92,-405.61 577,-409 702.89,-469.3 730.1,-492.88 849,-566 868.38,-577.92 889.95,-592.09 905.73,-602.62"/>
<polygon fill="midnightblue" stroke="midnightblue" points="904.04,-605.7 914.29,-608.36 907.94,-599.89 904.04,-605.7"/>
</g>
<!-- Node35&#45;&gt;Node11 -->
<g id="edge50" class="edge">
<title>Node35&#45;&gt;Node11</title>
<path fill="none" stroke="midnightblue" d="M428.27,-285.65C432.99,-288.11 437.35,-291.18 441,-295 488.95,-345.2 441.55,-387.31 477,-447 519.41,-518.41 601.41,-576.68 642.6,-602.95"/>
<polygon fill="midnightblue" stroke="midnightblue" points="640.88,-606 651.22,-608.35 644.6,-600.07 640.88,-606"/>
</g>
<!-- Node35&#45;&gt;Node20 -->
<g id="edge51" class="edge">
<title>Node35&#45;&gt;Node20</title>
<path fill="none" stroke="midnightblue" d="M429.42,-285.54C433.79,-288.03 437.76,-291.14 441,-295 490.15,-353.51 446.72,-566.84 477,-637 483.74,-652.62 496.32,-667.11 507.05,-677.57"/>
<polygon fill="midnightblue" stroke="midnightblue" points="504.72,-680.19 514.42,-684.44 509.49,-675.06 504.72,-680.19"/>
</g>
<!-- Node36&#45;&gt;Node3 -->
<g id="edge55" class="edge">
<title>Node36&#45;&gt;Node3</title>
<path fill="none" stroke="midnightblue" d="M208.18,-342.79C219.79,-368.89 255.02,-440.82 306,-480 311.43,-484.17 317.65,-487.66 324.05,-490.58"/>
<polygon fill="midnightblue" stroke="midnightblue" points="322.92,-493.9 333.5,-494.44 325.57,-487.42 322.92,-493.9"/>
</g>
<!-- Node36&#45;&gt;Node25 -->
<g id="edge59" class="edge">
<title>Node36&#45;&gt;Node25</title>
<path fill="none" stroke="midnightblue" d="M213.11,-342.56C230.12,-360.02 268.38,-397.51 306,-422 361.49,-458.12 391.19,-441.37 441,-485 478.29,-517.66 505.32,-570.57 517.97,-598.81"/>
<polygon fill="midnightblue" stroke="midnightblue" points="514.91,-600.55 522.11,-608.33 521.33,-597.76 514.91,-600.55"/>
</g>
<!-- Node36&#45;&gt;Node28 -->
<g id="edge54" class="edge">
<title>Node36&#45;&gt;Node28</title>
<path fill="none" stroke="midnightblue" d="M209.65,-323.29C223.1,-301.2 259.41,-247.3 306,-224 357.12,-198.44 423.11,-194.48 469.43,-195.65"/>
<polygon fill="midnightblue" stroke="midnightblue" points="469.47,-199.15 479.59,-196 469.71,-192.16 469.47,-199.15"/>
</g>
<!-- Node36&#45;&gt;Node29 -->
<g id="edge56" class="edge">
<title>Node36&#45;&gt;Node29</title>
<path fill="none" stroke="midnightblue" d="M213.05,-323.5C229.66,-306.74 266.92,-272.27 306,-257 360.58,-235.67 526.19,-225.29 613.04,-221.2"/>
<polygon fill="midnightblue" stroke="midnightblue" points="613.4,-224.69 623.23,-220.73 613.08,-217.69 613.4,-224.69"/>
</g>
<!-- Node36&#45;&gt;Node30 -->
<g id="edge57" class="edge">
<title>Node36&#45;&gt;Node30</title>
<path fill="none" stroke="midnightblue" d="M216.39,-342.6C234.83,-356.36 271.06,-381.4 306,-394 361.31,-413.95 428.59,-422.2 474.07,-425.6"/>
<polygon fill="midnightblue" stroke="midnightblue" points="474.06,-429.11 484.28,-426.31 474.55,-422.13 474.06,-429.11"/>
</g>
<!-- Node36&#45;&gt;Node31 -->
<g id="edge63" class="edge">
<title>Node36&#45;&gt;Node31</title>
<path fill="none" stroke="midnightblue" d="M224.59,-342.56C244.84,-351.51 276.87,-364.44 306,-371 362.21,-383.65 428.25,-388 473.2,-389.43"/>
<polygon fill="midnightblue" stroke="midnightblue" points="473.21,-392.93 483.3,-389.71 473.41,-385.93 473.21,-392.93"/>
</g>
<!-- Node36&#45;&gt;Node33 -->
<g id="edge60" class="edge">
<title>Node36&#45;&gt;Node33</title>
<path fill="none" stroke="midnightblue" d="M208.18,-323.21C219.79,-297.11 255.02,-225.18 306,-186 311.43,-181.83 317.65,-178.34 324.05,-175.42"/>
<polygon fill="midnightblue" stroke="midnightblue" points="325.57,-178.58 333.5,-171.56 322.92,-172.1 325.57,-178.58"/>
</g>
<!-- Node36&#45;&gt;Node34 -->
<g id="edge61" class="edge">
<title>Node36&#45;&gt;Node34</title>
<path fill="none" stroke="midnightblue" d="M206.3,-323.39C214.25,-292.26 243.61,-193.27 306,-143 308.28,-141.16 310.73,-139.5 313.29,-138.01"/>
<polygon fill="midnightblue" stroke="midnightblue" points="314.97,-141.08 322.38,-133.5 311.86,-134.81 314.97,-141.08"/>
</g>
<!-- Node36&#45;&gt;Node35 -->
<g id="edge62" class="edge">
<title>Node36&#45;&gt;Node35</title>
<path fill="none" stroke="midnightblue" d="M228.13,-323.4C248.68,-315.37 279.07,-303.85 306,-295 312.9,-292.73 320.25,-290.48 327.46,-288.35"/>
<polygon fill="midnightblue" stroke="midnightblue" points="328.51,-291.69 337.14,-285.55 326.56,-284.97 328.51,-291.69"/>
</g>
<!-- Node37 -->
<g id="node37" class="node">
<title>Node37</title>
<g id="a_node37"><a xlink:href="a00498.xhtml#a62bd833ed1bdbff7387e8b2d51b09700" target="_top" xlink:title=" ">
<polygon fill="white" stroke="black" points="334.5,-342.5 334.5,-361.5 412.5,-361.5 412.5,-342.5 334.5,-342.5"/>
<text text-anchor="middle" x="373.5" y="-349.5" font-family="Helvetica,sans-Serif" font-size="10.00">CMatrix::add_I</text>
</a>
</g>
</g>
<!-- Node36&#45;&gt;Node37 -->
<g id="edge53" class="edge">
<title>Node36&#45;&gt;Node37</title>
<path fill="none" stroke="midnightblue" d="M258.24,-339.12C279.48,-341.51 303.64,-344.23 324.25,-346.56"/>
<polygon fill="midnightblue" stroke="midnightblue" points="324.04,-350.06 334.37,-347.7 324.82,-343.1 324.04,-350.06"/>
</g>
<!-- Node38 -->
<g id="node38" class="node">
<title>Node38</title>
<g id="a_node38"><a xlink:href="a00498.xhtml#acfa52b112830fff980c9a7aa860c7d4e" target="_top" xlink:title=" ">
<polygon fill="white" stroke="black" points="306,-304.5 306,-323.5 441,-323.5 441,-304.5 306,-304.5"/>
<text text-anchor="middle" x="373.5" y="-311.5" font-family="Helvetica,sans-Serif" font-size="10.00">CMatrix::mulColvecRowvec</text>
</a>
</g>
</g>
<!-- Node36&#45;&gt;Node38 -->
<g id="edge58" class="edge">
<title>Node36&#45;&gt;Node38</title>
<path fill="none" stroke="midnightblue" d="M258.24,-326.88C270.24,-325.53 283.16,-324.07 295.86,-322.64"/>
<polygon fill="midnightblue" stroke="midnightblue" points="296.42,-326.1 305.97,-321.5 295.64,-319.14 296.42,-326.1"/>
</g>
</g>
</svg>
        <g id="navigator" transform="translate(0 0)" fill="#404254">
                <rect fill="#f2f5e9" fill-opacity="0.5" stroke="#606060" stroke-width=".5" x="0" y="0" width="60" height="60"/>
                <use id="zoomplus" xlink:href="#zoomPlus" x="17" y="9" onmousedown="handleZoom(evt,'in')"/>
                <use id="zoomminus" xlink:href="#zoomMin" x="42" y="9" onmousedown="handleZoom(evt,'out')"/>
                <use id="reset" xlink:href="#resetDef" x="30" y="36" onmousedown="handleReset()"/>
                <g id="arrowUp" xlink:href="#dirArrow" transform="translate(30 24)" onmousedown="handlePan(0,-1)">
                  <use xlink:href="#rim" fill="#404040">
                        <set attributeName="fill" to="#808080" begin="arrowUp.mouseover" end="arrowUp.mouseout"/>
                  </use>
                  <path fill="none" stroke="white" stroke-width="1.5" d="M0,-3.0v7 M-2.5,-0.5L0,-3.0L2.5,-0.5"/>
                </g>
                <g id="arrowRight" xlink:href="#dirArrow" transform="rotate(90) translate(36 -43)" onmousedown="handlePan(1,0)">
                  <use xlink:href="#rim" fill="#404040">
                        <set attributeName="fill" to="#808080" begin="arrowRight.mouseover" end="arrowRight.mouseout"/>
                  </use>
                  <path fill="none" stroke="white" stroke-width="1.5" d="M0,-3.0v7 M-2.5,-0.5L0,-3.0L2.5,-0.5"/>
                </g>
                <g id="arrowDown" xlink:href="#dirArrow" transform="rotate(180) translate(-30 -48)" onmousedown="handlePan(0,1)">
                  <use xlink:href="#rim" fill="#404040">
                        <set attributeName="fill" to="#808080" begin="arrowDown.mouseover" end="arrowDown.mouseout"/>
                  </use>
                  <path fill="none" stroke="white" stroke-width="1.5" d="M0,-3.0v7 M-2.5,-0.5L0,-3.0L2.5,-0.5"/>
                </g>
                <g id="arrowLeft" xlink:href="#dirArrow" transform="rotate(270) translate(-36 17)" onmousedown="handlePan(-1,0)">
                  <use xlink:href="#rim" fill="#404040">
                        <set attributeName="fill" to="#808080" begin="arrowLeft.mouseover" end="arrowLeft.mouseout"/>
                  </use>
                  <path fill="none" stroke="white" stroke-width="1.5" d="M0,-3.0v7 M-2.5,-0.5L0,-3.0L2.5,-0.5"/>
                </g>
        </g>
        <svg viewBox="0 0 15 15" width="100%" height="30px" preserveAspectRatio="xMaxYMin meet">
         <g id="arrow_out" transform="scale(0.3 0.3)">
          <a xlink:href="a00578_a4089671259acdd3b3faf6fc8010e206f_cgraph_org.svg" target="_base">
           <rect id="button" ry="5" rx="5" y="6" x="6" height="38" width="38"
                fill="#f2f5e9" fill-opacity="0.5" stroke="#606060" stroke-width="1.0"/>
           <path id="arrow"
             d="M 11.500037,31.436501 C 11.940474,20.09759 22.043105,11.32322 32.158766,21.979434 L 37.068811,17.246167 C 37.068811,17.246167 37.088388,32 37.088388,32 L 22.160133,31.978069 C 22.160133,31.978069 26.997745,27.140456 26.997745,27.140456 C 18.528582,18.264221 13.291696,25.230495 11.500037,31.436501 z"
             style="fill:#404040;"/>
          </a>
         </g>
        </svg>
</svg>
