<?xml version="1.0" encoding="UTF-8" standalone="no"?>
<!DOCTYPE svg PUBLIC "-//W3C//DTD SVG 1.1//EN"
 "http://www.w3.org/Graphics/SVG/1.1/DTD/svg11.dtd">
<!-- Generated by graphviz version 6.0.1 (20220911.1526)
 -->
<!-- Title: CGmmResult::init Pages: 1 -->
<svg width="403pt" height="64pt"
 viewBox="0.00 0.00 403.00 64.00" xmlns="http://www.w3.org/2000/svg" xmlns:xlink="http://www.w3.org/1999/xlink">
<g id="graph0" class="graph" transform="scale(1 1) rotate(0) translate(4 60)">
<title>CGmmResult::init</title>
<!-- Node1 -->
<g id="node1" class="node">
<title>Node1</title>
<g id="a_node1"><a xlink:title=" ">
<polygon fill="#999999" stroke="#666666" points="395,-37 303,-37 303,-18 395,-18 395,-37"/>
<text text-anchor="middle" x="349" y="-25" font-family="Helvetica,sans-Serif" font-size="10.00">CGmmResult::init</text>
</a>
</g>
</g>
<!-- Node2 -->
<g id="node2" class="node">
<title>Node2</title>
<g id="a_node2"><a xlink:href="a00566.xhtml#ae19bf17793711f6a39a3a35a0d133962" target="_top" xlink:title=" ">
<polygon fill="white" stroke="#666666" points="239,-56 174,-56 174,-37 239,-37 239,-56"/>
<text text-anchor="middle" x="206.5" y="-44" font-family="Helvetica,sans-Serif" font-size="10.00">CGmm::init</text>
</a>
</g>
</g>
<!-- Node1&#45;&gt;Node2 -->
<g id="edge1" class="edge">
<title>Node1&#45;&gt;Node2</title>
<path fill="none" stroke="#63b8ff" d="M292.86,-34.96C274.69,-37.41 255.12,-40.06 239.3,-42.2"/>
<polygon fill="#63b8ff" stroke="#63b8ff" points="293.33,-38.42 302.77,-33.62 292.39,-31.49 293.33,-38.42"/>
</g>
<!-- Node4 -->
<g id="node4" class="node">
<title>Node4</title>
<g id="a_node4"><a xlink:href="a00562.xhtml#ae454796797856300e0990f24b8ba4ada" target="_top" xlink:title=" ">
<polygon fill="white" stroke="#666666" points="267,-19 146,-19 146,0 267,0 267,-19"/>
<text text-anchor="middle" x="206.5" y="-7" font-family="Helvetica,sans-Serif" font-size="10.00">CGmmResult::operator=</text>
</a>
</g>
</g>
<!-- Node1&#45;&gt;Node4 -->
<g id="edge3" class="edge">
<title>Node1&#45;&gt;Node4</title>
<path fill="none" stroke="#63b8ff" d="M292.67,-20.41C284.25,-19.33 275.52,-18.21 267.01,-17.12"/>
<polygon fill="#63b8ff" stroke="#63b8ff" points="292.41,-23.91 302.77,-21.71 293.3,-16.96 292.41,-23.91"/>
</g>
<!-- Node3 -->
<g id="node3" class="node">
<title>Node3</title>
<g id="a_node3"><a xlink:href="a00570.xhtml#af086e0bae5cc3cb68c35745749b0fda5" target="_top" xlink:title=" ">
<polygon fill="white" stroke="#666666" points="110,-56 0,-56 0,-37 110,-37 110,-56"/>
<text text-anchor="middle" x="55" y="-44" font-family="Helvetica,sans-Serif" font-size="10.00">CGmmClassifier::train</text>
</a>
</g>
</g>
<!-- Node2&#45;&gt;Node3 -->
<g id="edge2" class="edge">
<title>Node2&#45;&gt;Node3</title>
<path fill="none" stroke="#63b8ff" d="M163.34,-46.5C146.79,-46.5 127.58,-46.5 110.03,-46.5"/>
<polygon fill="#63b8ff" stroke="#63b8ff" points="163.79,-50 173.79,-46.5 163.79,-43 163.79,-50"/>
</g>
</g>
</svg>
