<?xml version="1.0" encoding="UTF-8" standalone="no"?>
<!DOCTYPE svg PUBLIC "-//W3C//DTD SVG 1.1//EN"
 "http://www.w3.org/Graphics/SVG/1.1/DTD/svg11.dtd">
<!-- Generated by graphviz version 6.0.1 (20220911.1526)
 -->
<!-- Title: CPitchIf::getNumBlocks Pages: 1 -->
<svg width="470pt" height="27pt"
 viewBox="0.00 0.00 470.00 27.00" xmlns="http://www.w3.org/2000/svg" xmlns:xlink="http://www.w3.org/1999/xlink">
<g id="graph0" class="graph" transform="scale(1 1) rotate(0) translate(4 23)">
<title>CPitchIf::getNumBlocks</title>
<!-- Node1 -->
<g id="node1" class="node">
<title>Node1</title>
<g id="a_node1"><a xlink:title=" ">
<polygon fill="#999999" stroke="#666666" points="121,-19 0,-19 0,0 121,0 121,-19"/>
<text text-anchor="middle" x="60.5" y="-7" font-family="Helvetica,sans-Serif" font-size="10.00">CPitchIf::getNumBlocks</text>
</a>
</g>
</g>
<!-- Node2 -->
<g id="node2" class="node">
<title>Node2</title>
<g id="a_node2"><a xlink:href="a00522.xhtml#af2ce0d31ee7e368ebc1889507972f9c2" target="_top" xlink:title=" ">
<polygon fill="white" stroke="#666666" points="278,-19 157,-19 157,0 278,0 278,-19"/>
<text text-anchor="middle" x="217.5" y="-7" font-family="Helvetica,sans-Serif" font-size="10.00">CPitchIf::getNumBlocks</text>
</a>
</g>
</g>
<!-- Node1&#45;&gt;Node2 -->
<g id="edge1" class="edge">
<title>Node1&#45;&gt;Node2</title>
<path fill="none" stroke="#63b8ff" d="M121.43,-9.5C129.72,-9.5 138.31,-9.5 146.76,-9.5"/>
<polygon fill="#63b8ff" stroke="#63b8ff" points="146.99,-13 156.99,-9.5 146.99,-6 146.99,-13"/>
</g>
<!-- Node3 -->
<g id="node3" class="node">
<title>Node3</title>
<g id="a_node3"><a xlink:href="a00542.xhtml#a595b3a391e2540a1dc9e53edf8634494" target="_top" xlink:title=" ">
<polygon fill="white" stroke="#666666" points="462,-19 314,-19 314,0 462,0 462,-19"/>
<text text-anchor="middle" x="388" y="-7" font-family="Helvetica,sans-Serif" font-size="10.00">CBlockAudioIf::getNumBlocks</text>
</a>
</g>
</g>
<!-- Node2&#45;&gt;Node3 -->
<g id="edge2" class="edge">
<title>Node2&#45;&gt;Node3</title>
<path fill="none" stroke="#63b8ff" d="M278.38,-9.5C286.61,-9.5 295.17,-9.5 303.73,-9.5"/>
<polygon fill="#63b8ff" stroke="#63b8ff" points="303.74,-13 313.74,-9.5 303.74,-6 303.74,-13"/>
</g>
</g>
</svg>
