<?xml version="1.0" encoding="UTF-8" standalone="no"?>
<!DOCTYPE svg PUBLIC "-//W3C//DTD SVG 1.1//EN"
 "http://www.w3.org/Graphics/SVG/1.1/DTD/svg11.dtd">
<!-- Generated by graphviz version 12.2.1 (20241206.2353)
 -->
<!-- Title: CGmmClassifier::classify Pages: 1 -->
<svg width="415pt" height="88pt"
 viewBox="0.00 0.00 414.50 88.25" xmlns="http://www.w3.org/2000/svg" xmlns:xlink="http://www.w3.org/1999/xlink">

<svg id="main" version="1.1" xmlns="http://www.w3.org/2000/svg" xmlns:xlink="http://www.w3.org/1999/xlink" xml:space="preserve">

<style type="text/css"><![CDATA[
.node, .edge {opacity: 0.7;}
.node.selected, .edge.selected {opacity: 1;}
.edge:hover path { stroke: red; }
.edge:hover polygon { stroke: red; fill: red; }
]]></style>
<script type="application/ecmascript" xlink:href="svg.min.js"/>
<svg id="graph" class="graph">
<g id="graph0" class="graph" transform="scale(1 1) rotate(0) translate(4 84.25)">
<title>CGmmClassifier::classify</title>
<!-- Node1 -->
<g id="Node000001" class="node">
<title>Node1</title>
<g id="a_Node000001"><a xlink:title=" ">
<polygon fill="#999999" stroke="#666666" points="124,-58.25 0,-58.25 0,-39 124,-39 124,-58.25"/>
<text text-anchor="middle" x="62" y="-44.75" font-family="Helvetica,sans-Serif" font-size="10.00">CGmmClassifier::classify</text>
</a>
</g>
</g>
<!-- Node2 -->
<g id="Node000002" class="node">
<title>Node2</title>
<g id="a_Node000002"><a xlink:href="a00505.xhtml#ad7c5cba73e439adac77778f61c9418f0" target="_top" xlink:title=" ">
<polygon fill="white" stroke="#666666" points="263.38,-80.25 187.38,-80.25 187.38,-61 263.38,-61 263.38,-80.25"/>
<text text-anchor="middle" x="225.38" y="-66.75" font-family="Helvetica,sans-Serif" font-size="10.00">CVector::copy</text>
</a>
</g>
</g>
<!-- Node1&#45;&gt;Node2 -->
<g id="edge1_Node000001_Node000002" class="edge">
<title>Node1&#45;&gt;Node2</title>
<g id="a_edge1_Node000001_Node000002"><a xlink:title=" ">
<path fill="none" stroke="#63b8ff" d="M124.47,-57.01C141.38,-59.31 159.5,-61.78 175.59,-63.97"/>
<polygon fill="#63b8ff" stroke="#63b8ff" points="175.02,-67.43 185.41,-65.31 175.97,-60.49 175.02,-67.43"/>
</a>
</g>
</g>
<!-- Node3 -->
<g id="Node000003" class="node">
<title>Node3</title>
<g id="a_Node000003"><a xlink:href="a00465.xhtml#ac6a2a71d24b2beaa2b183d8659fd93f8" target="_top" xlink:title=" ">
<polygon fill="white" stroke="#666666" points="290.75,-42.88 160,-42.88 160,-12.37 290.75,-12.37 290.75,-42.88"/>
<text text-anchor="start" x="168" y="-29.38" font-family="Helvetica,sans-Serif" font-size="10.00">CClassifierBase::normalize</text>
<text text-anchor="middle" x="225.38" y="-18.12" font-family="Helvetica,sans-Serif" font-size="10.00">Vector</text>
</a>
</g>
</g>
<!-- Node1&#45;&gt;Node3 -->
<g id="edge2_Node000001_Node000003" class="edge">
<title>Node1&#45;&gt;Node3</title>
<g id="a_edge2_Node000001_Node000003"><a xlink:title=" ">
<path fill="none" stroke="#63b8ff" d="M124.47,-40.63C132.28,-39.61 140.34,-38.56 148.35,-37.52"/>
<polygon fill="#63b8ff" stroke="#63b8ff" points="148.62,-41.01 158.09,-36.25 147.72,-34.07 148.62,-41.01"/>
</a>
</g>
</g>
<!-- Node4 -->
<g id="Node000004" class="node">
<title>Node4</title>
<g id="a_Node000004"><a xlink:href="a00505.xhtml#a5fb59528a3f5d3968f988d550b270898" target="_top" xlink:title=" ">
<polygon fill="white" stroke="#666666" points="406.5,-56.25 326.75,-56.25 326.75,-37 406.5,-37 406.5,-56.25"/>
<text text-anchor="middle" x="366.62" y="-42.75" font-family="Helvetica,sans-Serif" font-size="10.00">CVector::mul_I</text>
</a>
</g>
</g>
<!-- Node3&#45;&gt;Node4 -->
<g id="edge3_Node000003_Node000004" class="edge">
<title>Node3&#45;&gt;Node4</title>
<g id="a_edge3_Node000003_Node000004"><a xlink:title=" ">
<path fill="none" stroke="#63b8ff" d="M291.11,-36.46C299.22,-37.56 307.42,-38.68 315.27,-39.75"/>
<polygon fill="#63b8ff" stroke="#63b8ff" points="314.58,-43.19 324.96,-41.08 315.53,-36.26 314.58,-43.19"/>
</a>
</g>
</g>
<!-- Node5 -->
<g id="Node000005" class="node">
<title>Node5</title>
<g id="a_Node000005"><a xlink:href="a00505.xhtml#a39329371d828db80c2f0ad037074c998" target="_top" xlink:title=" ">
<polygon fill="white" stroke="#666666" points="406.5,-19.25 326.75,-19.25 326.75,0 406.5,0 406.5,-19.25"/>
<text text-anchor="middle" x="366.62" y="-5.75" font-family="Helvetica,sans-Serif" font-size="10.00">CVector::sub_I</text>
</a>
</g>
</g>
<!-- Node3&#45;&gt;Node5 -->
<g id="edge4_Node000003_Node000005" class="edge">
<title>Node3&#45;&gt;Node5</title>
<g id="a_edge4_Node000003_Node000005"><a xlink:title=" ">
<path fill="none" stroke="#63b8ff" d="M291.11,-19.26C299.22,-18.21 307.42,-17.15 315.27,-16.13"/>
<polygon fill="#63b8ff" stroke="#63b8ff" points="315.49,-19.63 324.96,-14.88 314.59,-12.69 315.49,-19.63"/>
</a>
</g>
</g>
</g>
</svg>
</svg>

<style type='text/css'>
<![CDATA[
[data-mouse-over-selected='false'] { opacity: 0.7; }
[data-mouse-over-selected='true']  { opacity: 1.0; }
]]>
</style>
<script type="application/ecmascript"><![CDATA[
document.addEventListener('DOMContentLoaded', (event) => {
  highlightEdges();
  highlightAdjacentNodes();
});
]]></script>
</svg>
