<?xml version="1.0" encoding="UTF-8" standalone="no"?>
<!DOCTYPE svg PUBLIC "-//W3C//DTD SVG 1.1//EN"
 "http://www.w3.org/Graphics/SVG/1.1/DTD/svg11.dtd">
<!-- Generated by graphviz version 6.0.1 (20220911.1526)
 -->
<!-- Title: CNoveltyIf::getNumBlocks Pages: 1 -->
<svg width="490pt" height="27pt"
 viewBox="0.00 0.00 490.00 27.00" xmlns="http://www.w3.org/2000/svg" xmlns:xlink="http://www.w3.org/1999/xlink">
<g id="graph0" class="graph" transform="scale(1 1) rotate(0) translate(4 23)">
<title>CNoveltyIf::getNumBlocks</title>
<!-- Node1 -->
<g id="node1" class="node">
<title>Node1</title>
<g id="a_node1"><a xlink:title=" ">
<polygon fill="#999999" stroke="#666666" points="131,-19 0,-19 0,0 131,0 131,-19"/>
<text text-anchor="middle" x="65.5" y="-7" font-family="Helvetica,sans-Serif" font-size="10.00">CNoveltyIf::getNumBlocks</text>
</a>
</g>
</g>
<!-- Node2 -->
<g id="node2" class="node">
<title>Node2</title>
<g id="a_node2"><a xlink:href="a00514.xhtml#a2957fc23663fb6b67fabb6ecda9ae0bd" target="_top" xlink:title=" ">
<polygon fill="white" stroke="#666666" points="298,-19 167,-19 167,0 298,0 298,-19"/>
<text text-anchor="middle" x="232.5" y="-7" font-family="Helvetica,sans-Serif" font-size="10.00">CNoveltyIf::getNumBlocks</text>
</a>
</g>
</g>
<!-- Node1&#45;&gt;Node2 -->
<g id="edge1" class="edge">
<title>Node1&#45;&gt;Node2</title>
<path fill="none" stroke="#63b8ff" d="M131.24,-9.5C139.58,-9.5 148.18,-9.5 156.67,-9.5"/>
<polygon fill="#63b8ff" stroke="#63b8ff" points="156.95,-13 166.95,-9.5 156.95,-6 156.95,-13"/>
</g>
<!-- Node3 -->
<g id="node3" class="node">
<title>Node3</title>
<g id="a_node3"><a xlink:href="a00542.xhtml#a595b3a391e2540a1dc9e53edf8634494" target="_top" xlink:title=" ">
<polygon fill="white" stroke="#666666" points="482,-19 334,-19 334,0 482,0 482,-19"/>
<text text-anchor="middle" x="408" y="-7" font-family="Helvetica,sans-Serif" font-size="10.00">CBlockAudioIf::getNumBlocks</text>
</a>
</g>
</g>
<!-- Node2&#45;&gt;Node3 -->
<g id="edge2" class="edge">
<title>Node2&#45;&gt;Node3</title>
<path fill="none" stroke="#63b8ff" d="M298.1,-9.5C306.48,-9.5 315.16,-9.5 323.79,-9.5"/>
<polygon fill="#63b8ff" stroke="#63b8ff" points="323.87,-13 333.87,-9.5 323.87,-6 323.87,-13"/>
</g>
</g>
</svg>
