<?xml version="1.0" encoding="UTF-8" standalone="no"?>
<!DOCTYPE svg PUBLIC "-//W3C//DTD SVG 1.1//EN"
 "http://www.w3.org/Graphics/SVG/1.1/DTD/svg11.dtd">
<!-- Generated by graphviz version 12.2.1 (20241206.2353)
 -->
<!-- Title: CGmmResult::CGmmResult Pages: 1 -->
<svg width="556pt" height="160pt"
 viewBox="0.00 0.00 555.75 160.22" xmlns="http://www.w3.org/2000/svg" xmlns:xlink="http://www.w3.org/1999/xlink">
<g id="graph0" class="graph" transform="scale(1 1) rotate(0) translate(4 156.22)">
<title>CGmmResult::CGmmResult</title>
<!-- Node1 -->
<g id="Node000001" class="node">
<title>Node1</title>
<g id="a_Node000001"><a xlink:title=" ">
<polygon fill="#999999" stroke="#666666" points="137.5,-76.22 0,-76.22 0,-56.97 137.5,-56.97 137.5,-76.22"/>
<text text-anchor="middle" x="68.75" y="-62.72" font-family="Helvetica,sans-Serif" font-size="10.00">CGmmResult::CGmmResult</text>
</a>
</g>
</g>
<!-- Node2 -->
<g id="Node000002" class="node">
<title>Node2</title>
<g id="a_Node000002"><a xlink:href="a00489.xhtml#a6501b78d76c912d49eee88c8f7242923" target="_top" xlink:title=" ">
<polygon fill="white" stroke="#666666" points="279.12,-152.22 205.38,-152.22 205.38,-132.97 279.12,-132.97 279.12,-152.22"/>
<text text-anchor="middle" x="242.25" y="-138.72" font-family="Helvetica,sans-Serif" font-size="10.00">CMatrix::alloc</text>
</a>
</g>
</g>
<!-- Node1&#45;&gt;Node2 -->
<g id="edge1_Node000001_Node000002" class="edge">
<title>Node1&#45;&gt;Node2</title>
<g id="a_edge1_Node000001_Node000002"><a xlink:title=" ">
<path fill="none" stroke="#63b8ff" d="M88.16,-76.7C108.65,-87.74 142.91,-105.57 173.5,-118.6 181.81,-122.14 190.85,-125.6 199.53,-128.74"/>
<polygon fill="#63b8ff" stroke="#63b8ff" points="198.23,-131.99 208.82,-132.02 200.56,-125.39 198.23,-131.99"/>
</a>
</g>
</g>
<!-- Node3 -->
<g id="Node000003" class="node">
<title>Node3</title>
<g id="a_Node000003"><a xlink:href="a00505.xhtml#abaadac98b1cad18b7b568852bc951696" target="_top" xlink:title=" ">
<polygon fill="white" stroke="#666666" points="423,-133.22 347,-133.22 347,-113.97 423,-113.97 423,-133.22"/>
<text text-anchor="middle" x="385" y="-119.72" font-family="Helvetica,sans-Serif" font-size="10.00">CVector::alloc</text>
</a>
</g>
</g>
<!-- Node1&#45;&gt;Node3 -->
<g id="edge4_Node000001_Node000003" class="edge">
<title>Node1&#45;&gt;Node3</title>
<g id="a_edge4_Node000001_Node000003"><a xlink:title=" ">
<path fill="none" stroke="#63b8ff" d="M124.67,-76.68C140.43,-79.57 157.65,-82.72 173.5,-85.6 229.06,-95.7 292.88,-107.21 335.55,-114.89"/>
<polygon fill="#63b8ff" stroke="#63b8ff" points="334.78,-118.31 345.24,-116.63 336.02,-111.42 334.78,-118.31"/>
</a>
</g>
</g>
<!-- Node5 -->
<g id="Node000005" class="node">
<title>Node5</title>
<g id="a_Node000005"><a xlink:href="a00565.xhtml#aceb33fab0f979a09bbc922675fd3739b" target="_top" xlink:title=" ">
<polygon fill="white" stroke="#666666" points="311,-76.22 173.5,-76.22 173.5,-56.97 311,-56.97 311,-76.22"/>
<text text-anchor="middle" x="242.25" y="-62.72" font-family="Helvetica,sans-Serif" font-size="10.00">CGmmResult::CGmmResult</text>
</a>
</g>
</g>
<!-- Node1&#45;&gt;Node5 -->
<g id="edge5_Node000001_Node000005" class="edge">
<title>Node1&#45;&gt;Node5</title>
<g id="a_edge5_Node000001_Node000005"><a xlink:title=" ">
<path fill="none" stroke="#63b8ff" d="M137.53,-66.6C145.49,-66.6 153.66,-66.6 161.75,-66.6"/>
<polygon fill="#63b8ff" stroke="#63b8ff" points="161.6,-70.1 171.6,-66.6 161.6,-63.1 161.6,-70.1"/>
</a>
</g>
</g>
<!-- Node6 -->
<g id="Node000006" class="node">
<title>Node6</title>
<g id="a_Node000006"><a xlink:href="a00489.xhtml#aa633cf46c2b3938a1a7a8199c31051dd" target="_top" xlink:title=" ">
<polygon fill="white" stroke="#666666" points="279.12,-39.22 205.38,-39.22 205.38,-19.97 279.12,-19.97 279.12,-39.22"/>
<text text-anchor="middle" x="242.25" y="-25.72" font-family="Helvetica,sans-Serif" font-size="10.00">CMatrix::copy</text>
</a>
</g>
</g>
<!-- Node1&#45;&gt;Node6 -->
<g id="edge6_Node000001_Node000006" class="edge">
<title>Node1&#45;&gt;Node6</title>
<g id="a_edge6_Node000001_Node000006"><a xlink:title=" ">
<path fill="none" stroke="#63b8ff" d="M116.61,-56.49C140.67,-51.3 169.91,-44.99 194.02,-39.79"/>
<polygon fill="#63b8ff" stroke="#63b8ff" points="194.53,-43.26 203.57,-37.73 193.06,-36.42 194.53,-43.26"/>
</a>
</g>
</g>
<!-- Node7 -->
<g id="Node000007" class="node">
<title>Node7</title>
<g id="a_Node000007"><a xlink:href="a00505.xhtml#ad7c5cba73e439adac77778f61c9418f0" target="_top" xlink:title=" ">
<polygon fill="white" stroke="#666666" points="423,-20.22 347,-20.22 347,-0.97 423,-0.97 423,-20.22"/>
<text text-anchor="middle" x="385" y="-6.72" font-family="Helvetica,sans-Serif" font-size="10.00">CVector::copy</text>
</a>
</g>
</g>
<!-- Node1&#45;&gt;Node7 -->
<g id="edge8_Node000001_Node000007" class="edge">
<title>Node1&#45;&gt;Node7</title>
<g id="a_edge8_Node000001_Node000007"><a xlink:title=" ">
<path fill="none" stroke="#63b8ff" d="M82.94,-56.66C101.82,-43.11 138.18,-19.52 173.5,-10.6 227.7,3.1 292.29,0.42 335.5,-3.94"/>
<polygon fill="#63b8ff" stroke="#63b8ff" points="334.99,-7.41 345.31,-5.01 335.75,-0.45 334.99,-7.41"/>
</a>
</g>
</g>
<!-- Node2&#45;&gt;Node3 -->
<g id="edge2_Node000002_Node000003" class="edge">
<title>Node2&#45;&gt;Node3</title>
<g id="a_edge2_Node000002_Node000003"><a xlink:title=" ">
<path fill="none" stroke="#63b8ff" d="M279.5,-137.71C296.55,-135.4 317.13,-132.63 335.5,-130.15"/>
<polygon fill="#63b8ff" stroke="#63b8ff" points="335.95,-133.62 345.4,-128.81 335.02,-126.68 335.95,-133.62"/>
</a>
</g>
</g>
<!-- Node4 -->
<g id="Node000004" class="node">
<title>Node4</title>
<g id="a_Node000004"><a xlink:href="a00505.xhtml#a6dbb3f9f480568b60f7fe50090d20003" target="_top" xlink:title=" ">
<polygon fill="white" stroke="#666666" points="547.75,-133.22 459,-133.22 459,-113.97 547.75,-113.97 547.75,-133.22"/>
<text text-anchor="middle" x="503.38" y="-119.72" font-family="Helvetica,sans-Serif" font-size="10.00">CVector::setZero</text>
</a>
</g>
</g>
<!-- Node3&#45;&gt;Node4 -->
<g id="edge3_Node000003_Node000004" class="edge">
<title>Node3&#45;&gt;Node4</title>
<g id="a_edge3_Node000003_Node000004"><a xlink:title=" ">
<path fill="none" stroke="#63b8ff" d="M423.46,-123.6C431.14,-123.6 439.37,-123.6 447.52,-123.6"/>
<polygon fill="#63b8ff" stroke="#63b8ff" points="447.39,-127.1 457.39,-123.6 447.39,-120.1 447.39,-127.1"/>
</a>
</g>
</g>
<!-- Node6&#45;&gt;Node7 -->
<g id="edge7_Node000006_Node000007" class="edge">
<title>Node6&#45;&gt;Node7</title>
<g id="a_edge7_Node000006_Node000007"><a xlink:title=" ">
<path fill="none" stroke="#63b8ff" d="M279.5,-24.71C296.55,-22.4 317.13,-19.63 335.5,-17.15"/>
<polygon fill="#63b8ff" stroke="#63b8ff" points="335.95,-20.62 345.4,-15.81 335.02,-13.68 335.95,-20.62"/>
</a>
</g>
</g>
</g>
</svg>
