<?xml version="1.0" encoding="UTF-8" standalone="no"?>
<!DOCTYPE svg PUBLIC "-//W3C//DTD SVG 1.1//EN"
 "http://www.w3.org/Graphics/SVG/1.1/DTD/svg11.dtd">
<!-- Generated by graphviz version 12.2.1 (20241206.2353)
 -->
<!-- Title: CSpectrogramIf::reset_ Pages: 1 -->
<!--zoomable 175 -->

<svg id="main" version="1.1" xmlns="http://www.w3.org/2000/svg" xmlns:xlink="http://www.w3.org/1999/xlink" xml:space="preserve" onload="init(evt)">

<style type="text/css"><![CDATA[
.node, .edge {opacity: 0.7;}
.node.selected, .edge.selected {opacity: 1;}
.edge:hover path { stroke: red; }
.edge:hover polygon { stroke: red; fill: red; }
]]></style>

<defs>
  <circle id="rim" cx="0" cy="0" r="7"/>
  <circle id="rim2" cx="0" cy="0" r="3.5"/>
  <g id="zoomPlus">
    <use xlink:href="#rim" fill="#404040"><set attributeName="fill" to="#808080" begin="zoomplus.mouseover" end="zoomplus.mouseout"/></use>
    <path d="M-4,0h8M0,-4v8" fill="none" stroke="white" stroke-width="1.5" pointer-events="none"/>
  </g>
  <g id="zoomMin">
    <use xlink:href="#rim" fill="#404040"><set attributeName="fill" to="#808080" begin="zoomminus.mouseover" end="zoomminus.mouseout"/></use>
    <path d="M-4,0h8" fill="none" stroke="white" stroke-width="1.5" pointer-events="none"/>
  </g>
  <g id="arrowUp" transform="translate(30 24)">
    <use xlink:href="#rim"/>
    <path pointer-events="none" fill="none" stroke="white" stroke-width="1.5" d="M0,-3.0v7 M-2.5,-0.5L0,-3.0L2.5,-0.5"/>
  </g>
  <g id="arrowRight" transform="rotate(90) translate(36 -43)">
    <use xlink:href="#rim"/>
    <path pointer-events="none" fill="none" stroke="white" stroke-width="1.5" d="M0,-3.0v7 M-2.5,-0.5L0,-3.0L2.5,-0.5"/>
  </g>
  <g id="arrowDown" transform="rotate(180) translate(-30 -48)">
    <use xlink:href="#rim"/>
    <path pointer-events="none" fill="none" stroke="white" stroke-width="1.5" d="M0,-3.0v7 M-2.5,-0.5L0,-3.0L2.5,-0.5"/>
  </g>
  <g id="arrowLeft" transform="rotate(270) translate(-36 17)">
    <use xlink:href="#rim"/>
    <path pointer-events="none" fill="none" stroke="white" stroke-width="1.5" d="M0,-3.0v7 M-2.5,-0.5L0,-3.0L2.5,-0.5"/>
  </g>
  <g id="resetDef">
    <use xlink:href="#rim2" fill="#404040"><set attributeName="fill" to="#808080" begin="reset.mouseover" end="reset.mouseout"/></use>
  </g>
</defs>
<script type="application/ecmascript">
var viewWidth = 588;
var viewHeight = 175;
var sectionId = 'dynsection-28';
</script>
<script type="application/ecmascript" xlink:href="svg.min.js"/>
<svg id="graph" class="graph">
<g id="viewport">
<title>CSpectrogramIf::reset_</title>
<!-- Node1 -->
<g id="Node000001" class="node">
<title>Node1</title>
<g id="a_Node000001"><a xlink:title="reset configuration">
<polygon fill="#999999" stroke="#666666" points="580,-93.25 464.25,-93.25 464.25,-74 580,-74 580,-93.25"/>
<text text-anchor="middle" x="522.12" y="-79.75" font-family="Helvetica,sans-Serif" font-size="10.00">CSpectrogramIf::reset_</text>
</a>
</g>
</g>
<!-- Node2 -->
<g id="Node000002" class="node">
<title>Node2</title>
<g id="a_Node000002"><a xlink:href="a00405.xhtml#aeac8291805613de79ed584829d3d5f30" target="_top" xlink:title=" ">
<polygon fill="white" stroke="#666666" points="407.62,-141.88 286.62,-141.88 286.62,-111.38 407.62,-111.38 407.62,-141.88"/>
<text text-anchor="start" x="294.62" y="-128.38" font-family="Helvetica,sans-Serif" font-size="10.00">CSpectrogramFromFile</text>
<text text-anchor="middle" x="347.12" y="-117.12" font-family="Helvetica,sans-Serif" font-size="10.00">::CSpectrogramFromFile</text>
</a>
</g>
</g>
<!-- Node1&#45;&gt;Node2 -->
<g id="edge1_Node000001_Node000002" class="edge">
<title>Node1&#45;&gt;Node2</title>
<g id="a_edge1_Node000001_Node000002"><a xlink:title=" ">
<path fill="none" stroke="#63b8ff" d="M469.55,-96.44C450.23,-101.25 428.12,-106.74 408.11,-111.72"/>
<polygon fill="#63b8ff" stroke="#63b8ff" points="470.23,-99.88 479.1,-94.07 468.55,-93.09 470.23,-99.88"/>
</a>
</g>
</g>
<!-- Node3 -->
<g id="Node000003" class="node">
<title>Node3</title>
<g id="a_Node000003"><a xlink:href="a00533.xhtml#a8808d63b1b795444056e6ccdf46fc2b0" target="_top" xlink:title=" ">
<polygon fill="white" stroke="#666666" points="425.62,-93.25 268.62,-93.25 268.62,-74 425.62,-74 425.62,-93.25"/>
<text text-anchor="middle" x="347.12" y="-79.75" font-family="Helvetica,sans-Serif" font-size="10.00">CSpectrogramIf::CSpectrogramIf</text>
</a>
</g>
</g>
<!-- Node1&#45;&gt;Node3 -->
<g id="edge2_Node000001_Node000003" class="edge">
<title>Node1&#45;&gt;Node3</title>
<g id="a_edge2_Node000001_Node000003"><a xlink:title=" ">
<path fill="none" stroke="#63b8ff" d="M452.63,-83.62C443.84,-83.62 434.8,-83.62 425.88,-83.62"/>
<polygon fill="#63b8ff" stroke="#63b8ff" points="452.49,-87.13 462.49,-83.63 452.49,-80.13 452.49,-87.13"/>
</a>
</g>
</g>
<!-- Node10 -->
<g id="Node000010" class="node">
<title>Node10</title>
<g id="a_Node000010"><a xlink:href="a00533.xhtml#a321f47e4165fa5c8b78c0fa47286b53b" target="_top" xlink:title=" ">
<polygon fill="white" stroke="#666666" points="428.25,-56.25 266,-56.25 266,-37 428.25,-37 428.25,-56.25"/>
<text text-anchor="middle" x="347.12" y="-42.75" font-family="Helvetica,sans-Serif" font-size="10.00">CSpectrogramIf::~CSpectrogramIf</text>
</a>
</g>
</g>
<!-- Node1&#45;&gt;Node10 -->
<g id="edge10_Node000001_Node000010" class="edge">
<title>Node1&#45;&gt;Node10</title>
<g id="a_edge10_Node000001_Node000010"><a xlink:title=" ">
<path fill="none" stroke="#63b8ff" d="M462.67,-71.12C440.74,-66.43 416.12,-61.17 395.34,-56.72"/>
<polygon fill="#63b8ff" stroke="#63b8ff" points="461.86,-74.53 472.37,-73.2 463.33,-67.68 461.86,-74.53"/>
</a>
</g>
</g>
<!-- Node4 -->
<g id="Node000004" class="node">
<title>Node4</title>
<g id="a_Node000004"><a xlink:href="a00533.xhtml#ab6855532487f599a72b825e4706430fb" target="_top" xlink:title=" ">
<polygon fill="white" stroke="#666666" points="209.38,-167.25 93.62,-167.25 93.62,-148 209.38,-148 209.38,-167.25"/>
<text text-anchor="middle" x="151.5" y="-153.75" font-family="Helvetica,sans-Serif" font-size="10.00">CSpectrogramIf::create</text>
</a>
</g>
</g>
<!-- Node3&#45;&gt;Node4 -->
<g id="edge3_Node000003_Node000004" class="edge">
<title>Node3&#45;&gt;Node4</title>
<g id="a_edge3_Node000003_Node000004"><a xlink:title=" ">
<path fill="none" stroke="#63b8ff" d="M275.94,-97.72C272.51,-99.2 269.17,-100.83 266,-102.62 246.04,-113.94 249.98,-128.35 230,-139.62 223.74,-143.15 216.83,-145.99 209.79,-148.27"/>
<polygon fill="#63b8ff" stroke="#63b8ff" points="276.94,-101.09 285.06,-94.28 274.47,-94.54 276.94,-101.09"/>
</a>
</g>
</g>
<!-- Node5 -->
<g id="Node000005" class="node">
<title>Node5</title>
<g id="a_Node000005"><a xlink:href="a00533.xhtml#acd73d8c1aaaed8b188de6b8bf2103139" target="_top" xlink:title=" ">
<polygon fill="white" stroke="#666666" points="209.38,-130.25 93.62,-130.25 93.62,-111 209.38,-111 209.38,-130.25"/>
<text text-anchor="middle" x="151.5" y="-116.75" font-family="Helvetica,sans-Serif" font-size="10.00">CSpectrogramIf::create</text>
</a>
</g>
</g>
<!-- Node3&#45;&gt;Node5 -->
<g id="edge4_Node000003_Node000005" class="edge">
<title>Node3&#45;&gt;Node5</title>
<g id="a_edge4_Node000003_Node000005"><a xlink:title=" ">
<path fill="none" stroke="#63b8ff" d="M282.05,-95.87C257.17,-100.62 229.03,-106 205.34,-110.53"/>
<polygon fill="#63b8ff" stroke="#63b8ff" points="282.56,-99.33 291.73,-94.02 281.25,-92.46 282.56,-99.33"/>
</a>
</g>
</g>
<!-- Node7 -->
<g id="Node000007" class="node">
<title>Node7</title>
<g id="a_Node000007"><a xlink:href="a00533.xhtml#a887642514f36ecb7048a7c53ec226a16" target="_top" xlink:title=" ">
<polygon fill="white" stroke="#666666" points="230,-93.25 73,-93.25 73,-74 230,-74 230,-93.25"/>
<text text-anchor="middle" x="151.5" y="-79.75" font-family="Helvetica,sans-Serif" font-size="10.00">CSpectrogramIf::CSpectrogramIf</text>
</a>
</g>
</g>
<!-- Node3&#45;&gt;Node7 -->
<g id="edge6_Node000003_Node000007" class="edge">
<title>Node3&#45;&gt;Node7</title>
<g id="a_edge6_Node000003_Node000007"><a xlink:title=" ">
<path fill="none" stroke="#63b8ff" d="M256.98,-83.62C248.06,-83.62 239.05,-83.62 230.26,-83.62"/>
<polygon fill="#63b8ff" stroke="#63b8ff" points="256.69,-87.13 266.69,-83.63 256.69,-80.13 256.69,-87.13"/>
</a>
</g>
</g>
<!-- Node8 -->
<g id="Node000008" class="node">
<title>Node8</title>
<g id="a_Node000008"><a xlink:href="a00533.xhtml#a6511fc72ef04be91a712ee5ef479bd7e" target="_top" xlink:title=" ">
<polygon fill="white" stroke="#666666" points="211.62,-56.25 91.38,-56.25 91.38,-37 211.62,-37 211.62,-56.25"/>
<text text-anchor="middle" x="151.5" y="-42.75" font-family="Helvetica,sans-Serif" font-size="10.00">CSpectrogramIf::destroy</text>
</a>
</g>
</g>
<!-- Node3&#45;&gt;Node8 -->
<g id="edge7_Node000003_Node000008" class="edge">
<title>Node3&#45;&gt;Node8</title>
<g id="a_edge7_Node000003_Node000008"><a xlink:title=" ">
<path fill="none" stroke="#63b8ff" d="M282.05,-71.38C257.17,-66.63 229.03,-61.25 205.34,-56.72"/>
<polygon fill="#63b8ff" stroke="#63b8ff" points="281.25,-74.79 291.73,-73.23 282.56,-67.92 281.25,-74.79"/>
</a>
</g>
</g>
<!-- Node9 -->
<g id="Node000009" class="node">
<title>Node9</title>
<g id="a_Node000009"><a xlink:href="a00533.xhtml#a532de34b312a3f850fa8ad4fb3cde62a" target="_top" xlink:title=" ">
<polygon fill="white" stroke="#666666" points="216.5,-19.25 86.5,-19.25 86.5,0 216.5,0 216.5,-19.25"/>
<text text-anchor="middle" x="151.5" y="-5.75" font-family="Helvetica,sans-Serif" font-size="10.00">CSpectrogramIf::operator=</text>
</a>
</g>
</g>
<!-- Node3&#45;&gt;Node9 -->
<g id="edge9_Node000003_Node000009" class="edge">
<title>Node3&#45;&gt;Node9</title>
<g id="a_edge9_Node000003_Node000009"><a xlink:title=" ">
<path fill="none" stroke="#63b8ff" d="M273.31,-69.35C270.8,-68.2 268.35,-66.96 266,-65.62 245.77,-54.13 250.19,-39.19 230,-27.62 224.49,-24.47 218.45,-21.86 212.26,-19.71"/>
<polygon fill="#63b8ff" stroke="#63b8ff" points="271.93,-72.57 282.52,-73 274.51,-66.06 271.93,-72.57"/>
</a>
</g>
</g>
<!-- Node6 -->
<g id="Node000006" class="node">
<title>Node6</title>
<g id="a_Node000006"><a xlink:href="a00125.xhtml#a0ddf1224851353fc92bfbff6f499fa97" target="_top" xlink:title=" ">
<polygon fill="white" stroke="#666666" points="37,-93.25 0,-93.25 0,-74 37,-74 37,-93.25"/>
<text text-anchor="middle" x="18.5" y="-79.75" font-family="Helvetica,sans-Serif" font-size="10.00">main</text>
</a>
</g>
</g>
<!-- Node5&#45;&gt;Node6 -->
<g id="edge5_Node000005_Node000006" class="edge">
<title>Node5&#45;&gt;Node6</title>
<g id="a_edge5_Node000005_Node000006"><a xlink:title=" ">
<path fill="none" stroke="#63b8ff" d="M92.24,-107.84C85.72,-106.19 79.2,-104.44 73,-102.62 60.89,-99.08 47.52,-94.33 37.17,-90.47"/>
<polygon fill="#63b8ff" stroke="#63b8ff" points="91.13,-111.18 101.68,-110.16 92.8,-104.38 91.13,-111.18"/>
</a>
</g>
</g>
<!-- Node8&#45;&gt;Node6 -->
<g id="edge8_Node000008_Node000006" class="edge">
<title>Node8&#45;&gt;Node6</title>
<g id="a_edge8_Node000008_Node000006"><a xlink:title=" ">
<path fill="none" stroke="#63b8ff" d="M92.24,-59.41C85.72,-61.06 79.2,-62.81 73,-64.62 60.89,-68.17 47.52,-72.92 37.17,-76.78"/>
<polygon fill="#63b8ff" stroke="#63b8ff" points="92.8,-62.87 101.68,-57.09 91.13,-56.07 92.8,-62.87"/>
</a>
</g>
</g>
</g>
</svg>

<g id="navigator" transform="translate(0 0)" fill="#404254">
  <rect fill="#f2f5e9" fill-opacity="0.5" stroke="#606060" stroke-width=".5" x="0" y="0" width="60" height="60"/>
  <use id="zoomplus" xlink:href="#zoomPlus" x="17" y="9" onmousedown="handleZoom(evt,'in')"/>
  <use id="zoomminus" xlink:href="#zoomMin" x="42" y="9" onmousedown="handleZoom(evt,'out')"/>
  <use id="reset" xlink:href="#resetDef" x="30" y="36" onmousedown="handleReset()"/>
   <use id="arrowup" xlink:href="#arrowUp" x="0" y="0" onmousedown="handlePan(0,-1)"/>
  <use id="arrowright" xlink:href="#arrowRight" x="0" y="0" onmousedown="handlePan(1,0)"/>
  <use id="arrowdown" xlink:href="#arrowDown" x="0" y="0" onmousedown="handlePan(0,1)"/>
  <use id="arrowleft" xlink:href="#arrowLeft" x="0" y="0" onmousedown="handlePan(-1,0)"/>
</g>
<svg viewBox="0 0 15 15" width="100%" height="30px" preserveAspectRatio="xMaxYMin meet">
 <g id="arrow_out" transform="scale(0.3 0.3)">
  <a xlink:href="a00533_afbe3214c599eaab59c8c5a886408630c_icgraph_org.svg" target="_base">
   <rect id="button" ry="5" rx="5" y="6" x="6" height="38" width="38"
        fill="#f2f5e9" fill-opacity="0.5" stroke="#606060" stroke-width="1.0"/>
   <path id="arrow"
     d="M 11.500037,31.436501 C 11.940474,20.09759 22.043105,11.32322 32.158766,21.979434 L 37.068811,17.246167 C 37.068811,17.246167 37.088388,32 37.088388,32 L 22.160133,31.978069 C 22.160133,31.978069 26.997745,27.140456 26.997745,27.140456 C 18.528582,18.264221 13.291696,25.230495 11.500037,31.436501 z"
     style="fill:#404040;"/>
  </a>
 </g>
</svg>

<style type='text/css'>
<![CDATA[
[data-mouse-over-selected='false'] { opacity: 0.7; }
[data-mouse-over-selected='true']  { opacity: 1.0; }
]]>
</style>
<script type="application/ecmascript"><![CDATA[
document.addEventListener('DOMContentLoaded', (event) => {
  highlightEdges();
  highlightAdjacentNodes();
});
]]></script>
</svg>
