<?xml version="1.0" encoding="UTF-8" standalone="no"?>
<!DOCTYPE svg PUBLIC "-//W3C//DTD SVG 1.1//EN"
 "http://www.w3.org/Graphics/SVG/1.1/DTD/svg11.dtd">
<!-- Generated by graphviz version 12.2.1 (20241206.2353)
 -->
<!-- Title: CBlockAudioIf::getTimeStamp Pages: 1 -->
<svg width="317pt" height="88pt"
 viewBox="0.00 0.00 316.75 87.50" xmlns="http://www.w3.org/2000/svg" xmlns:xlink="http://www.w3.org/1999/xlink">
<g id="graph0" class="graph" transform="scale(1 1) rotate(0) translate(4 83.5)">
<title>CBlockAudioIf::getTimeStamp</title>
<!-- Node1 -->
<g id="Node000001" class="node">
<title>Node1</title>
<g id="a_Node000001"><a xlink:title=" ">
<polygon fill="#999999" stroke="#666666" points="308.75,-48.88 162.25,-48.88 162.25,-29.62 308.75,-29.62 308.75,-48.88"/>
<text text-anchor="middle" x="235.5" y="-35.38" font-family="Helvetica,sans-Serif" font-size="10.00">CBlockAudioIf::getTimeStamp</text>
</a>
</g>
</g>
<!-- Node2 -->
<g id="Node000002" class="node">
<title>Node2</title>
<g id="a_Node000002"><a xlink:href="a00417.xhtml#a61dc57fda85624457a10ffa2ed7cdc2f" target="_top" xlink:title=" ">
<polygon fill="white" stroke="#666666" points="114.25,-79.5 12,-79.5 12,-49 114.25,-49 114.25,-79.5"/>
<text text-anchor="start" x="20" y="-66" font-family="Helvetica,sans-Serif" font-size="10.00">CBlockAudioBuffer::</text>
<text text-anchor="middle" x="63.12" y="-54.75" font-family="Helvetica,sans-Serif" font-size="10.00">getNextBlock</text>
</a>
</g>
</g>
<!-- Node1&#45;&gt;Node2 -->
<g id="edge1_Node000001_Node000002" class="edge">
<title>Node1&#45;&gt;Node2</title>
<g id="a_edge1_Node000001_Node000002"><a xlink:title=" ">
<path fill="none" stroke="#63b8ff" d="M154.38,-51.01C140.83,-53 127.1,-55.01 114.59,-56.85"/>
<polygon fill="#63b8ff" stroke="#63b8ff" points="154.81,-54.48 164.2,-49.57 153.79,-47.56 154.81,-54.48"/>
</a>
</g>
</g>
<!-- Node3 -->
<g id="Node000003" class="node">
<title>Node3</title>
<g id="a_Node000003"><a xlink:href="a00413.xhtml#a9c2bd8b51ec72c82eb202d70f379d3ac" target="_top" xlink:title=" ">
<polygon fill="white" stroke="#666666" points="126.25,-30.5 0,-30.5 0,0 126.25,0 126.25,-30.5"/>
<text text-anchor="start" x="8" y="-17" font-family="Helvetica,sans-Serif" font-size="10.00">CBlockAudioFile::getNext</text>
<text text-anchor="middle" x="63.12" y="-5.75" font-family="Helvetica,sans-Serif" font-size="10.00">Block</text>
</a>
</g>
</g>
<!-- Node1&#45;&gt;Node3 -->
<g id="edge2_Node000001_Node000003" class="edge">
<title>Node1&#45;&gt;Node3</title>
<g id="a_edge2_Node000001_Node000003"><a xlink:title=" ">
<path fill="none" stroke="#63b8ff" d="M151.41,-27.55C143.07,-26.37 134.69,-25.19 126.62,-24.05"/>
<polygon fill="#63b8ff" stroke="#63b8ff" points="150.85,-31 161.24,-28.93 151.83,-24.07 150.85,-31"/>
</a>
</g>
</g>
</g>
</svg>
