<?xml version="1.0" encoding="UTF-8" standalone="no"?>
<!DOCTYPE svg PUBLIC "-//W3C//DTD SVG 1.1//EN"
 "http://www.w3.org/Graphics/SVG/1.1/DTD/svg11.dtd">
<!-- Generated by graphviz version 4.0.0 (20220602.1335)
 -->
<!-- Title: CNmf::runNmfIter Pages: 1 -->
<svg width="463pt" height="484pt"
 viewBox="0.00 0.00 463.00 484.00" xmlns="http://www.w3.org/2000/svg" xmlns:xlink="http://www.w3.org/1999/xlink">
<g id="graph0" class="graph" transform="scale(1 1) rotate(0) translate(4 480)">
<title>CNmf::runNmfIter</title>
<polygon fill="white" stroke="transparent" points="-4,4 -4,-480 459,-480 459,4 -4,4"/>
<!-- Node1 -->
<g id="node1" class="node">
<title>Node1</title>
<g id="a_node1"><a xlink:title=" ">
<polygon fill="#bfbfbf" stroke="black" points="0,-228.5 0,-247.5 93,-247.5 93,-228.5 0,-228.5"/>
<text text-anchor="middle" x="46.5" y="-235.5" font-family="Helvetica,sans-Serif" font-size="10.00">CNmf::runNmfIter</text>
</a>
</g>
</g>
<!-- Node2 -->
<g id="node2" class="node">
<title>Node2</title>
<g id="a_node2"><a xlink:href="a00492.xhtml#aa64e16e783bd3a28cb66efc96dc6b531" target="_top" xlink:title=" ">
<polygon fill="white" stroke="black" points="158.5,-456.5 158.5,-475.5 243.5,-475.5 243.5,-456.5 158.5,-456.5"/>
<text text-anchor="middle" x="201" y="-463.5" font-family="Helvetica,sans-Serif" font-size="10.00">CMatrix::addC_I</text>
</a>
</g>
</g>
<!-- Node1&#45;&gt;Node2 -->
<g id="edge1" class="edge">
<title>Node1&#45;&gt;Node2</title>
<path fill="none" stroke="midnightblue" d="M48.26,-247.6C51.39,-280.67 66.33,-390.89 129,-447 134.62,-452.03 141.43,-455.75 148.59,-458.5"/>
<polygon fill="midnightblue" stroke="midnightblue" points="147.88,-461.95 158.47,-461.68 150.02,-455.29 147.88,-461.95"/>
</g>
<!-- Node4 -->
<g id="node4" class="node">
<title>Node4</title>
<g id="a_node4"><a xlink:href="a00492.xhtml#a7a60f93e58f2b038179df28159cee7b0" target="_top" xlink:title=" ">
<polygon fill="white" stroke="black" points="136,-418.5 136,-437.5 266,-437.5 266,-418.5 136,-418.5"/>
<text text-anchor="middle" x="201" y="-425.5" font-family="Helvetica,sans-Serif" font-size="10.00">CMatrix::calcKlDivergence</text>
</a>
</g>
</g>
<!-- Node1&#45;&gt;Node4 -->
<g id="edge3" class="edge">
<title>Node1&#45;&gt;Node4</title>
<path fill="none" stroke="midnightblue" d="M49.22,-247.88C54.88,-277.23 75.65,-364.63 129,-409 131.02,-410.68 133.17,-412.21 135.42,-413.61"/>
<polygon fill="midnightblue" stroke="midnightblue" points="134.04,-416.83 144.52,-418.35 137.27,-410.63 134.04,-416.83"/>
</g>
<!-- Node5 -->
<g id="node5" class="node">
<title>Node5</title>
<g id="a_node5"><a xlink:href="a00492.xhtml#a9f723a71e61f425d0ee9a51aa2162bf3" target="_top" xlink:title=" ">
<polygon fill="white" stroke="black" points="164,-380.5 164,-399.5 238,-399.5 238,-380.5 164,-380.5"/>
<text text-anchor="middle" x="201" y="-387.5" font-family="Helvetica,sans-Serif" font-size="10.00">CMatrix::copy</text>
</a>
</g>
</g>
<!-- Node1&#45;&gt;Node5 -->
<g id="edge4" class="edge">
<title>Node1&#45;&gt;Node5</title>
<path fill="none" stroke="midnightblue" d="M50.62,-247.78C59.01,-272.48 84.51,-337.79 129,-371 136.28,-376.44 145,-380.32 153.8,-383.09"/>
<polygon fill="midnightblue" stroke="midnightblue" points="153.13,-386.53 163.7,-385.77 154.96,-379.78 153.13,-386.53"/>
</g>
<!-- Node7 -->
<g id="node7" class="node">
<title>Node7</title>
<g id="a_node7"><a xlink:href="a00492.xhtml#ab1de9372b87cea546a3cbc839d25eb53" target="_top" xlink:title=" ">
<polygon fill="white" stroke="black" points="163.5,-342.5 163.5,-361.5 238.5,-361.5 238.5,-342.5 163.5,-342.5"/>
<text text-anchor="middle" x="201" y="-349.5" font-family="Helvetica,sans-Serif" font-size="10.00">CMatrix::div_I</text>
</a>
</g>
</g>
<!-- Node1&#45;&gt;Node7 -->
<g id="edge6" class="edge">
<title>Node1&#45;&gt;Node7</title>
<path fill="none" stroke="midnightblue" d="M53.07,-247.77C64.62,-267.13 93.13,-310.43 129,-333 136.37,-337.64 144.87,-341.16 153.35,-343.82"/>
<polygon fill="midnightblue" stroke="midnightblue" points="152.68,-347.26 163.25,-346.57 154.55,-340.52 152.68,-347.26"/>
</g>
<!-- Node8 -->
<g id="node8" class="node">
<title>Node8</title>
<g id="a_node8"><a xlink:href="a00592.xhtml#a9809e7b2289abd238e992df3b7ad65a0" target="_top" xlink:title=" ">
<polygon fill="white" stroke="black" points="139,-304.5 139,-323.5 263,-323.5 263,-304.5 139,-304.5"/>
<text text-anchor="middle" x="201" y="-311.5" font-family="Helvetica,sans-Serif" font-size="10.00">CNmfResult::getMatCols</text>
</a>
</g>
</g>
<!-- Node1&#45;&gt;Node8 -->
<g id="edge7" class="edge">
<title>Node1&#45;&gt;Node8</title>
<path fill="none" stroke="midnightblue" d="M58.59,-247.68C73.58,-260.29 101.61,-282.24 129,-295 134.06,-297.36 139.47,-299.46 144.95,-301.34"/>
<polygon fill="midnightblue" stroke="midnightblue" points="144.26,-304.79 154.85,-304.46 146.36,-298.11 144.26,-304.79"/>
</g>
<!-- Node9 -->
<g id="node9" class="node">
<title>Node9</title>
<g id="a_node9"><a xlink:href="a00592.xhtml#a85d97245bb91969264671387706cd372" target="_top" xlink:title=" ">
<polygon fill="white" stroke="black" points="133.5,-266.5 133.5,-285.5 268.5,-285.5 268.5,-266.5 133.5,-266.5"/>
<text text-anchor="middle" x="201" y="-273.5" font-family="Helvetica,sans-Serif" font-size="10.00">CNmfResult::getMatPointer</text>
</a>
</g>
</g>
<!-- Node1&#45;&gt;Node9 -->
<g id="edge8" class="edge">
<title>Node1&#45;&gt;Node9</title>
<path fill="none" stroke="midnightblue" d="M85.98,-247.59C106.02,-252.58 130.7,-258.73 151.98,-264.03"/>
<polygon fill="midnightblue" stroke="midnightblue" points="151.24,-267.46 161.79,-266.48 152.94,-260.67 151.24,-267.46"/>
</g>
<!-- Node10 -->
<g id="node10" class="node">
<title>Node10</title>
<g id="a_node10"><a xlink:href="a00592.xhtml#a6c61324a24caf454344400a728e09387" target="_top" xlink:title=" ">
<polygon fill="white" stroke="black" points="136.5,-228.5 136.5,-247.5 265.5,-247.5 265.5,-228.5 136.5,-228.5"/>
<text text-anchor="middle" x="201" y="-235.5" font-family="Helvetica,sans-Serif" font-size="10.00">CNmfResult::getMatRows</text>
</a>
</g>
</g>
<!-- Node1&#45;&gt;Node10 -->
<g id="edge9" class="edge">
<title>Node1&#45;&gt;Node10</title>
<path fill="none" stroke="midnightblue" d="M93.26,-238C103.6,-238 114.84,-238 126.02,-238"/>
<polygon fill="midnightblue" stroke="midnightblue" points="126.23,-241.5 136.23,-238 126.23,-234.5 126.23,-241.5"/>
</g>
<!-- Node11 -->
<g id="node11" class="node">
<title>Node11</title>
<g id="a_node11"><a xlink:href="a00492.xhtml#aeab1ba198a343ce5523920c29fa6b592" target="_top" xlink:title=" ">
<polygon fill="white" stroke="black" points="155,-190.5 155,-209.5 247,-209.5 247,-190.5 155,-190.5"/>
<text text-anchor="middle" x="201" y="-197.5" font-family="Helvetica,sans-Serif" font-size="10.00">CMatrix::getNorm</text>
</a>
</g>
</g>
<!-- Node1&#45;&gt;Node11 -->
<g id="edge10" class="edge">
<title>Node1&#45;&gt;Node11</title>
<path fill="none" stroke="midnightblue" d="M85.98,-228.41C106.02,-223.42 130.7,-217.27 151.98,-211.97"/>
<polygon fill="midnightblue" stroke="midnightblue" points="152.94,-215.33 161.79,-209.52 151.24,-208.54 152.94,-215.33"/>
</g>
<!-- Node12 -->
<g id="node12" class="node">
<title>Node12</title>
<g id="a_node12"><a xlink:href="a00492.xhtml#a43b79160c74e608b5fa2838f316670f3" target="_top" xlink:title=" ">
<polygon fill="white" stroke="black" points="162,-152.5 162,-171.5 240,-171.5 240,-152.5 162,-152.5"/>
<text text-anchor="middle" x="201" y="-159.5" font-family="Helvetica,sans-Serif" font-size="10.00">CMatrix::mul_I</text>
</a>
</g>
</g>
<!-- Node1&#45;&gt;Node12 -->
<g id="edge11" class="edge">
<title>Node1&#45;&gt;Node12</title>
<path fill="none" stroke="midnightblue" d="M58.59,-228.32C73.58,-215.71 101.61,-193.76 129,-181 136.24,-177.63 144.18,-174.77 152.05,-172.38"/>
<polygon fill="midnightblue" stroke="midnightblue" points="153.25,-175.67 161.92,-169.59 151.35,-168.94 153.25,-175.67"/>
</g>
<!-- Node13 -->
<g id="node13" class="node">
<title>Node13</title>
<g id="a_node13"><a xlink:href="a00492.xhtml#ab92b94faf2a3219fc721f3a455eabecd" target="_top" xlink:title=" ">
<polygon fill="white" stroke="black" points="149.5,-114.5 149.5,-133.5 252.5,-133.5 252.5,-114.5 149.5,-114.5"/>
<text text-anchor="middle" x="201" y="-121.5" font-family="Helvetica,sans-Serif" font-size="10.00">CMatrix::mulMatMat</text>
</a>
</g>
</g>
<!-- Node1&#45;&gt;Node13 -->
<g id="edge12" class="edge">
<title>Node1&#45;&gt;Node13</title>
<path fill="none" stroke="midnightblue" d="M53.07,-228.23C64.62,-208.87 93.13,-165.57 129,-143 132.37,-140.88 135.97,-139 139.69,-137.32"/>
<polygon fill="midnightblue" stroke="midnightblue" points="141.15,-140.51 149.15,-133.57 138.57,-134 141.15,-140.51"/>
</g>
<!-- Node14 -->
<g id="node14" class="node">
<title>Node14</title>
<g id="a_node14"><a xlink:href="a00492.xhtml#a8c7b91818cdb1dd765ff8add1eb87a2b" target="_top" xlink:title=" ">
<polygon fill="white" stroke="black" points="129,-76.5 129,-95.5 273,-95.5 273,-76.5 129,-76.5"/>
<text text-anchor="middle" x="201" y="-83.5" font-family="Helvetica,sans-Serif" font-size="10.00">CMatrix::setZeroBelowThresh</text>
</a>
</g>
</g>
<!-- Node1&#45;&gt;Node14 -->
<g id="edge13" class="edge">
<title>Node1&#45;&gt;Node14</title>
<path fill="none" stroke="midnightblue" d="M50.62,-228.22C59.01,-203.52 84.51,-138.21 129,-105 131.53,-103.11 134.23,-101.42 137.04,-99.89"/>
<polygon fill="midnightblue" stroke="midnightblue" points="138.77,-102.94 146.36,-95.55 135.82,-96.59 138.77,-102.94"/>
</g>
<!-- Node16 -->
<g id="node16" class="node">
<title>Node16</title>
<g id="a_node16"><a xlink:href="a00492.xhtml#ab2af0440df04eb1c165231c695e43bf6" target="_top" xlink:title=" ">
<polygon fill="white" stroke="black" points="152.5,-38.5 152.5,-57.5 249.5,-57.5 249.5,-38.5 152.5,-38.5"/>
<text text-anchor="middle" x="201" y="-45.5" font-family="Helvetica,sans-Serif" font-size="10.00">CMatrix::transpose</text>
</a>
</g>
</g>
<!-- Node1&#45;&gt;Node16 -->
<g id="edge15" class="edge">
<title>Node1&#45;&gt;Node16</title>
<path fill="none" stroke="midnightblue" d="M49.22,-228.12C54.88,-198.77 75.65,-111.37 129,-67 133.07,-63.62 137.67,-60.83 142.55,-58.54"/>
<polygon fill="midnightblue" stroke="midnightblue" points="144.17,-61.67 152.16,-54.71 141.58,-55.16 144.17,-61.67"/>
</g>
<!-- Node17 -->
<g id="node17" class="node">
<title>Node17</title>
<g id="a_node17"><a xlink:href="a00492.xhtml#a3e91601d28cffd5e5de9adcfca8fd4a9" target="_top" xlink:title=" ">
<polygon fill="white" stroke="black" points="151,-0.5 151,-19.5 251,-19.5 251,-0.5 151,-0.5"/>
<text text-anchor="middle" x="201" y="-7.5" font-family="Helvetica,sans-Serif" font-size="10.00">CMatrix::vecnorm_I</text>
</a>
</g>
</g>
<!-- Node1&#45;&gt;Node17 -->
<g id="edge16" class="edge">
<title>Node1&#45;&gt;Node17</title>
<path fill="none" stroke="midnightblue" d="M48.26,-228.4C51.39,-195.33 66.33,-85.11 129,-29 132.67,-25.72 136.85,-22.99 141.29,-20.73"/>
<polygon fill="midnightblue" stroke="midnightblue" points="142.9,-23.85 150.73,-16.71 140.15,-17.41 142.9,-23.85"/>
</g>
<!-- Node3 -->
<g id="node3" class="node">
<title>Node3</title>
<g id="a_node3"><a xlink:href="a00508.xhtml#a22ff86e4fc2f8d5042159d9c84a7ff14" target="_top" xlink:title=" ">
<polygon fill="white" stroke="black" points="338.5,-456.5 338.5,-475.5 425.5,-475.5 425.5,-456.5 338.5,-456.5"/>
<text text-anchor="middle" x="382" y="-463.5" font-family="Helvetica,sans-Serif" font-size="10.00">CVector::addC_I</text>
</a>
</g>
</g>
<!-- Node2&#45;&gt;Node3 -->
<g id="edge2" class="edge">
<title>Node2&#45;&gt;Node3</title>
<path fill="none" stroke="midnightblue" d="M243.52,-466C268.79,-466 301.32,-466 328.39,-466"/>
<polygon fill="midnightblue" stroke="midnightblue" points="328.47,-469.5 338.47,-466 328.47,-462.5 328.47,-469.5"/>
</g>
<!-- Node6 -->
<g id="node6" class="node">
<title>Node6</title>
<g id="a_node6"><a xlink:href="a00508.xhtml#ad7c5cba73e439adac77778f61c9418f0" target="_top" xlink:title=" ">
<polygon fill="white" stroke="black" points="343.5,-380.5 343.5,-399.5 420.5,-399.5 420.5,-380.5 343.5,-380.5"/>
<text text-anchor="middle" x="382" y="-387.5" font-family="Helvetica,sans-Serif" font-size="10.00">CVector::copy</text>
</a>
</g>
</g>
<!-- Node5&#45;&gt;Node6 -->
<g id="edge5" class="edge">
<title>Node5&#45;&gt;Node6</title>
<path fill="none" stroke="midnightblue" d="M238.22,-390C265.55,-390 303.29,-390 333.1,-390"/>
<polygon fill="midnightblue" stroke="midnightblue" points="333.29,-393.5 343.29,-390 333.29,-386.5 333.29,-393.5"/>
</g>
<!-- Node15 -->
<g id="node15" class="node">
<title>Node15</title>
<g id="a_node15"><a xlink:href="a00508.xhtml#aba07261926b4c10ed7fdbe38edf6d16d" target="_top" xlink:title=" ">
<polygon fill="white" stroke="black" points="309,-76.5 309,-95.5 455,-95.5 455,-76.5 309,-76.5"/>
<text text-anchor="middle" x="382" y="-83.5" font-family="Helvetica,sans-Serif" font-size="10.00">CVector::setZeroBelowThresh</text>
</a>
</g>
</g>
<!-- Node14&#45;&gt;Node15 -->
<g id="edge14" class="edge">
<title>Node14&#45;&gt;Node15</title>
<path fill="none" stroke="midnightblue" d="M273,-86C281.49,-86 290.21,-86 298.84,-86"/>
<polygon fill="midnightblue" stroke="midnightblue" points="298.91,-89.5 308.91,-86 298.91,-82.5 298.91,-89.5"/>
</g>
</g>
</svg>
