<?xml version="1.0" encoding="UTF-8" standalone="no"?>
<!DOCTYPE svg PUBLIC "-//W3C//DTD SVG 1.1//EN"
 "http://www.w3.org/Graphics/SVG/1.1/DTD/svg11.dtd">
<!-- Generated by graphviz version 6.0.1 (20220911.1526)
 -->
<!-- Title: CBlockAudioIf::getNumBlocks Pages: 1 -->
<svg width="961pt" height="1048pt"
 viewBox="0.00 0.00 961.00 1047.73" xmlns="http://www.w3.org/2000/svg" xmlns:xlink="http://www.w3.org/1999/xlink">
<g id="graph0" class="graph" transform="scale(1 1) rotate(0) translate(4 1043.73)">
<title>CBlockAudioIf::getNumBlocks</title>
<!-- Node1 -->
<g id="node1" class="node">
<title>Node1</title>
<g id="a_node1"><a xlink:title=" ">
<polygon fill="#999999" stroke="#666666" points="953,-537.5 805,-537.5 805,-518.5 953,-518.5 953,-537.5"/>
<text text-anchor="middle" x="879" y="-525.5" font-family="Helvetica,sans-Serif" font-size="10.00">CBlockAudioIf::getNumBlocks</text>
</a>
</g>
</g>
<!-- Node2 -->
<g id="node2" class="node">
<title>Node2</title>
<g id="a_node2"><a xlink:href="a00450.xhtml#a58a9a3d685f448ced2e843a60028e472" target="_top" xlink:title=" ">
<polygon fill="white" stroke="#666666" points="367.5,-978.5 222.5,-978.5 222.5,-959.5 367.5,-959.5 367.5,-978.5"/>
<text text-anchor="middle" x="295" y="-966.5" font-family="Helvetica,sans-Serif" font-size="10.00">CBeatHistoIf::compBeatHisto</text>
</a>
</g>
</g>
<!-- Node1&#45;&gt;Node2 -->
<g id="edge1" class="edge">
<title>Node1&#45;&gt;Node2</title>
<path fill="none" stroke="#63b8ff" d="M876.4,-548C869.51,-628.68 839.4,-928.64 769,-985 631.1,-1095.41 391.2,-1009.08 317.9,-978.6"/>
<polygon fill="#63b8ff" stroke="#63b8ff" points="879.91,-547.99 877.25,-537.74 872.94,-547.41 879.91,-547.99"/>
</g>
<!-- Node4 -->
<g id="node4" class="node">
<title>Node4</title>
<g id="a_node4"><a xlink:href="a00454.xhtml#a463c7570302112f307363ec1c7260221" target="_top" xlink:title=" ">
<polygon fill="white" stroke="#666666" points="537,-827.5 423,-827.5 423,-808.5 537,-808.5 537,-827.5"/>
<text text-anchor="middle" x="480" y="-815.5" font-family="Helvetica,sans-Serif" font-size="10.00">CChordIf::compChords</text>
</a>
</g>
</g>
<!-- Node1&#45;&gt;Node4 -->
<g id="edge3" class="edge">
<title>Node1&#45;&gt;Node4</title>
<path fill="none" stroke="#63b8ff" d="M876.85,-547.67C872.69,-599.05 853.75,-737.58 769,-799 733.24,-824.91 610.21,-824.15 537.02,-821.16"/>
<polygon fill="#63b8ff" stroke="#63b8ff" points="880.35,-547.8 877.57,-537.57 873.37,-547.3 880.35,-547.8"/>
</g>
<!-- Node6 -->
<g id="node6" class="node">
<title>Node6</title>
<g id="a_node6"><a xlink:href="a00522.xhtml#a5c6fea7fdc8067f1d6a116b86d543aa1" target="_top" xlink:title=" ">
<polygon fill="white" stroke="#666666" points="526,-751.5 434,-751.5 434,-732.5 526,-732.5 526,-751.5"/>
<text text-anchor="middle" x="480" y="-739.5" font-family="Helvetica,sans-Serif" font-size="10.00">CPitchIf::compF0</text>
</a>
</g>
</g>
<!-- Node1&#45;&gt;Node6 -->
<g id="edge5" class="edge">
<title>Node1&#45;&gt;Node6</title>
<path fill="none" stroke="#63b8ff" d="M873.73,-547.26C863.58,-587.9 833.87,-682.01 769,-723 694.55,-770.04 586.58,-761.45 526.21,-751.44"/>
<polygon fill="#63b8ff" stroke="#63b8ff" points="877.13,-548.05 876.04,-537.52 870.32,-546.44 877.13,-548.05"/>
</g>
<!-- Node8 -->
<g id="node8" class="node">
<title>Node8</title>
<g id="a_node8"><a xlink:href="a00466.xhtml#a30248aa1fb336095d4d86d0bd3d2bdb8" target="_top" xlink:title=" ">
<polygon fill="white" stroke="#666666" points="749.5,-713.5 603.5,-713.5 603.5,-694.5 749.5,-694.5 749.5,-713.5"/>
<text text-anchor="middle" x="676.5" y="-701.5" font-family="Helvetica,sans-Serif" font-size="10.00">CFeatureIf::compFeature1Dim</text>
</a>
</g>
</g>
<!-- Node1&#45;&gt;Node8 -->
<g id="edge7" class="edge">
<title>Node1&#45;&gt;Node8</title>
<path fill="none" stroke="#63b8ff" d="M870.44,-547.44C856.16,-581.43 821.8,-651.36 769,-686 763.04,-689.91 756.43,-693 749.57,-695.45"/>
<polygon fill="#63b8ff" stroke="#63b8ff" points="873.86,-548.34 874.37,-537.75 867.37,-545.7 873.86,-548.34"/>
</g>
<!-- Node10 -->
<g id="node10" class="node">
<title>Node10</title>
<g id="a_node10"><a xlink:href="a00466.xhtml#ad734d1e300583449f51e6ca80aa3e7b8" target="_top" xlink:title=" ">
<polygon fill="white" stroke="#666666" points="751,-676.5 602,-676.5 602,-657.5 751,-657.5 751,-676.5"/>
<text text-anchor="middle" x="676.5" y="-664.5" font-family="Helvetica,sans-Serif" font-size="10.00">CFeatureIf::compFeatureNDim</text>
</a>
</g>
</g>
<!-- Node1&#45;&gt;Node10 -->
<g id="edge9" class="edge">
<title>Node1&#45;&gt;Node10</title>
<path fill="none" stroke="#63b8ff" d="M867.05,-546.31C849.81,-573.39 813.66,-623.67 769,-649 762.94,-652.43 756.34,-655.22 749.55,-657.49"/>
<polygon fill="#63b8ff" stroke="#63b8ff" points="870.04,-548.11 872.34,-537.77 864.09,-544.43 870.04,-548.11"/>
</g>
<!-- Node13 -->
<g id="node13" class="node">
<title>Node13</title>
<g id="a_node13"><a xlink:href="a00554.xhtml#afc0be480801465a0751b8c74806bf590" target="_top" xlink:title=" ">
<polygon fill="white" stroke="#666666" points="748,-602.5 605,-602.5 605,-583.5 748,-583.5 748,-602.5"/>
<text text-anchor="middle" x="676.5" y="-590.5" font-family="Helvetica,sans-Serif" font-size="10.00">CFingerprint::compFingerprint</text>
</a>
</g>
</g>
<!-- Node1&#45;&gt;Node13 -->
<g id="edge13" class="edge">
<title>Node1&#45;&gt;Node13</title>
<path fill="none" stroke="#63b8ff" d="M849.07,-542.03C827.43,-552.08 796.89,-565.31 769,-574 757.23,-577.67 744.38,-580.83 732.14,-583.47"/>
<polygon fill="#63b8ff" stroke="#63b8ff" points="850.79,-545.09 858.35,-537.67 847.81,-538.76 850.79,-545.09"/>
</g>
<!-- Node15 -->
<g id="node15" class="node">
<title>Node15</title>
<g id="a_node15"><a xlink:href="a00530.xhtml#ae89af275cdd54029bbf7f0f25ddf7945" target="_top" xlink:title=" ">
<polygon fill="white" stroke="#666666" points="769,-516.5 584,-516.5 584,-497.5 769,-497.5 769,-516.5"/>
<text text-anchor="middle" x="676.5" y="-504.5" font-family="Helvetica,sans-Serif" font-size="10.00">CSpectrogramIf::compMelSpectrogram</text>
</a>
</g>
</g>
<!-- Node1&#45;&gt;Node15 -->
<g id="edge15" class="edge">
<title>Node1&#45;&gt;Node15</title>
<path fill="none" stroke="#63b8ff" d="M794.65,-519.27C785.94,-518.36 777.07,-517.43 768.29,-516.51"/>
<polygon fill="#63b8ff" stroke="#63b8ff" points="794.45,-522.77 804.76,-520.33 795.18,-515.81 794.45,-522.77"/>
</g>
<!-- Node17 -->
<g id="node17" class="node">
<title>Node17</title>
<g id="a_node17"><a xlink:href="a00514.xhtml#a9f110985f86064fa24aa3157bfd5cab0" target="_top" xlink:title=" ">
<polygon fill="white" stroke="#666666" points="542,-978.5 418,-978.5 418,-959.5 542,-959.5 542,-978.5"/>
<text text-anchor="middle" x="480" y="-966.5" font-family="Helvetica,sans-Serif" font-size="10.00">CNoveltyIf::compNovelty</text>
</a>
</g>
</g>
<!-- Node1&#45;&gt;Node17 -->
<g id="edge17" class="edge">
<title>Node1&#45;&gt;Node17</title>
<path fill="none" stroke="#63b8ff" d="M875.92,-547.88C867.5,-624.36 833.23,-897.93 769,-951 696.39,-1010.99 575.11,-992.58 515.8,-978.56"/>
<polygon fill="#63b8ff" stroke="#63b8ff" points="879.43,-548.04 877.02,-537.72 872.47,-547.29 879.43,-548.04"/>
</g>
<!-- Node19 -->
<g id="node19" class="node">
<title>Node19</title>
<g id="a_node19"><a xlink:href="a00530.xhtml#ae041a770ec2b092761d9a88cc87946bb" target="_top" xlink:title=" ">
<polygon fill="white" stroke="#666666" points="761,-430.5 592,-430.5 592,-411.5 761,-411.5 761,-430.5"/>
<text text-anchor="middle" x="676.5" y="-418.5" font-family="Helvetica,sans-Serif" font-size="10.00">CSpectrogramIf::compSpectrogram</text>
</a>
</g>
</g>
<!-- Node1&#45;&gt;Node19 -->
<g id="edge20" class="edge">
<title>Node1&#45;&gt;Node19</title>
<path fill="none" stroke="#63b8ff" d="M862.15,-511C842.34,-490.84 806.46,-457.72 769,-440 760.79,-436.11 751.79,-433.02 742.74,-430.55"/>
<polygon fill="#63b8ff" stroke="#63b8ff" points="859.7,-513.5 869.15,-518.28 864.74,-508.65 859.7,-513.5"/>
</g>
<!-- Node21 -->
<g id="node21" class="node">
<title>Node21</title>
<g id="a_node21"><a xlink:href="a00466.xhtml#ad7e4c2c40aa96ea2d91eafffcde0608a" target="_top" xlink:title=" ">
<polygon fill="white" stroke="#666666" points="758.5,-639.5 594.5,-639.5 594.5,-620.5 758.5,-620.5 758.5,-639.5"/>
<text text-anchor="middle" x="676.5" y="-627.5" font-family="Helvetica,sans-Serif" font-size="10.00">CFeatureIf::getFeatureDimensions</text>
</a>
</g>
</g>
<!-- Node1&#45;&gt;Node21 -->
<g id="edge22" class="edge">
<title>Node1&#45;&gt;Node21</title>
<path fill="none" stroke="#63b8ff" d="M861.44,-544.82C841.39,-564.16 805.72,-595.36 769,-612 761.48,-615.41 753.32,-618.17 745.08,-620.41"/>
<polygon fill="#63b8ff" stroke="#63b8ff" points="864.13,-547.09 868.8,-537.58 859.22,-542.1 864.13,-547.09"/>
</g>
<!-- Node22 -->
<g id="node22" class="node">
<title>Node22</title>
<g id="a_node22"><a xlink:href="a00554.xhtml#a3168ebd106343267db23e519c20c3f24" target="_top" xlink:title=" ">
<polygon fill="white" stroke="#666666" points="743,-565 610,-565 610,-535 743,-535 743,-565"/>
<text text-anchor="start" x="618" y="-553" font-family="Helvetica,sans-Serif" font-size="10.00">CFingerprint::getFingerprint</text>
<text text-anchor="middle" x="676.5" y="-542" font-family="Helvetica,sans-Serif" font-size="10.00">Length</text>
</a>
</g>
</g>
<!-- Node1&#45;&gt;Node22 -->
<g id="edge25" class="edge">
<title>Node1&#45;&gt;Node22</title>
<path fill="none" stroke="#63b8ff" d="M794.74,-537.14C777.56,-539.02 759.69,-540.98 743.24,-542.79"/>
<polygon fill="#63b8ff" stroke="#63b8ff" points="795.21,-540.61 804.76,-536.04 794.44,-533.65 795.21,-540.61"/>
</g>
<!-- Node23 -->
<g id="node23" class="node">
<title>Node23</title>
<g id="a_node23"><a xlink:href="a00530.xhtml#afbc5337ad3646cbba2b189323de6ce3a" target="_top" xlink:title=" ">
<polygon fill="white" stroke="#666666" points="763.5,-345 589.5,-345 589.5,-315 763.5,-315 763.5,-345"/>
<text text-anchor="start" x="597.5" y="-333" font-family="Helvetica,sans-Serif" font-size="10.00">CSpectrogramIf::getMelSpectrogram</text>
<text text-anchor="middle" x="676.5" y="-322" font-family="Helvetica,sans-Serif" font-size="10.00">AxisVectors</text>
</a>
</g>
</g>
<!-- Node1&#45;&gt;Node23 -->
<g id="edge27" class="edge">
<title>Node1&#45;&gt;Node23</title>
<path fill="none" stroke="#63b8ff" d="M871.33,-508.48C857.93,-472.24 824.18,-394.56 769,-354 764.37,-350.6 759.29,-347.67 753.98,-345.17"/>
<polygon fill="#63b8ff" stroke="#63b8ff" points="868.19,-510.07 874.84,-518.31 874.78,-507.72 868.19,-510.07"/>
</g>
<!-- Node24 -->
<g id="node24" class="node">
<title>Node24</title>
<g id="a_node24"><a xlink:href="a00530.xhtml#af50a3669266ad696a1159b1bb80b1c8a" target="_top" xlink:title=" ">
<polygon fill="white" stroke="#666666" points="763.5,-479 589.5,-479 589.5,-449 763.5,-449 763.5,-479"/>
<text text-anchor="start" x="597.5" y="-467" font-family="Helvetica,sans-Serif" font-size="10.00">CSpectrogramIf::getMelSpectrogram</text>
<text text-anchor="middle" x="676.5" y="-456" font-family="Helvetica,sans-Serif" font-size="10.00">Dimensions</text>
</a>
</g>
</g>
<!-- Node1&#45;&gt;Node24 -->
<g id="edge28" class="edge">
<title>Node1&#45;&gt;Node24</title>
<path fill="none" stroke="#63b8ff" d="M843.48,-514.88C822.16,-506.97 794.15,-496.92 769,-489 758.16,-485.59 746.52,-482.2 735.29,-479.07"/>
<polygon fill="#63b8ff" stroke="#63b8ff" points="842.48,-518.25 853.08,-518.46 844.93,-511.69 842.48,-518.25"/>
</g>
<!-- Node25 -->
<g id="node25" class="node">
<title>Node25</title>
<g id="a_node25"><a xlink:href="a00454.xhtml#a2c48f69f930e943cc5dbeaa8ca9e9e72" target="_top" xlink:title=" ">
<polygon fill="white" stroke="#666666" points="738.5,-865.5 614.5,-865.5 614.5,-846.5 738.5,-846.5 738.5,-865.5"/>
<text text-anchor="middle" x="676.5" y="-853.5" font-family="Helvetica,sans-Serif" font-size="10.00">CChordIf::getNumBlocks</text>
</a>
</g>
</g>
<!-- Node1&#45;&gt;Node25 -->
<g id="edge30" class="edge">
<title>Node1&#45;&gt;Node25</title>
<path fill="none" stroke="#63b8ff" d="M877,-547.94C873.16,-602.13 854.9,-753.33 769,-832 760.52,-839.76 749.84,-845.08 738.79,-848.7"/>
<polygon fill="#63b8ff" stroke="#63b8ff" points="880.51,-547.84 877.63,-537.64 873.52,-547.41 880.51,-547.84"/>
</g>
<!-- Node27 -->
<g id="node27" class="node">
<title>Node27</title>
<g id="a_node27"><a xlink:href="a00514.xhtml#a2957fc23663fb6b67fabb6ecda9ae0bd" target="_top" xlink:title=" ">
<polygon fill="white" stroke="#666666" points="742,-941.5 611,-941.5 611,-922.5 742,-922.5 742,-941.5"/>
<text text-anchor="middle" x="676.5" y="-929.5" font-family="Helvetica,sans-Serif" font-size="10.00">CNoveltyIf::getNumBlocks</text>
</a>
</g>
</g>
<!-- Node1&#45;&gt;Node27 -->
<g id="edge33" class="edge">
<title>Node1&#45;&gt;Node27</title>
<path fill="none" stroke="#63b8ff" d="M878.65,-547.71C879.59,-610.19 873.66,-805.71 769,-908 761.48,-915.35 752.01,-920.52 742.02,-924.15"/>
<polygon fill="#63b8ff" stroke="#63b8ff" points="882.15,-547.56 878.42,-537.65 875.15,-547.72 882.15,-547.56"/>
</g>
<!-- Node31 -->
<g id="node31" class="node">
<title>Node31</title>
<g id="a_node31"><a xlink:href="a00522.xhtml#af2ce0d31ee7e368ebc1889507972f9c2" target="_top" xlink:title=" ">
<polygon fill="white" stroke="#666666" points="737,-789.5 616,-789.5 616,-770.5 737,-770.5 737,-789.5"/>
<text text-anchor="middle" x="676.5" y="-777.5" font-family="Helvetica,sans-Serif" font-size="10.00">CPitchIf::getNumBlocks</text>
</a>
</g>
</g>
<!-- Node1&#45;&gt;Node31 -->
<g id="edge40" class="edge">
<title>Node1&#45;&gt;Node31</title>
<path fill="none" stroke="#63b8ff" d="M874.42,-547.57C865.27,-591.8 836.82,-699.95 769,-756 759.89,-763.53 748.66,-768.73 737.23,-772.3"/>
<polygon fill="#63b8ff" stroke="#63b8ff" points="877.89,-548.04 876.38,-537.55 871.02,-546.69 877.89,-548.04"/>
</g>
<!-- Node33 -->
<g id="node33" class="node">
<title>Node33</title>
<g id="a_node33"><a xlink:href="a00530.xhtml#a2efaeb2df2ddfdc633ba53b2bb49b528" target="_top" xlink:title=" ">
<polygon fill="white" stroke="#666666" points="755.5,-297 597.5,-297 597.5,-267 755.5,-267 755.5,-297"/>
<text text-anchor="start" x="605.5" y="-285" font-family="Helvetica,sans-Serif" font-size="10.00">CSpectrogramIf::getSpectrogram</text>
<text text-anchor="middle" x="676.5" y="-274" font-family="Helvetica,sans-Serif" font-size="10.00">AxisVectors</text>
</a>
</g>
</g>
<!-- Node1&#45;&gt;Node33 -->
<g id="edge43" class="edge">
<title>Node1&#45;&gt;Node33</title>
<path fill="none" stroke="#63b8ff" d="M874.12,-508.34C864.5,-464.89 835.35,-360.26 769,-306 764.8,-302.57 760.17,-299.62 755.28,-297.1"/>
<polygon fill="#63b8ff" stroke="#63b8ff" points="870.72,-509.15 876.2,-518.22 877.57,-507.71 870.72,-509.15"/>
</g>
<!-- Node34 -->
<g id="node34" class="node">
<title>Node34</title>
<g id="a_node34"><a xlink:href="a00530.xhtml#afb50af1070f5876b4706f5891879fcd8" target="_top" xlink:title=" ">
<polygon fill="white" stroke="#666666" points="755.5,-393 597.5,-393 597.5,-363 755.5,-363 755.5,-393"/>
<text text-anchor="start" x="605.5" y="-381" font-family="Helvetica,sans-Serif" font-size="10.00">CSpectrogramIf::getSpectrogram</text>
<text text-anchor="middle" x="676.5" y="-370" font-family="Helvetica,sans-Serif" font-size="10.00">Dimensions</text>
</a>
</g>
</g>
<!-- Node1&#45;&gt;Node34 -->
<g id="edge44" class="edge">
<title>Node1&#45;&gt;Node34</title>
<path fill="none" stroke="#63b8ff" d="M867.21,-509.9C849.95,-482.55 813.51,-430.92 769,-403 762.86,-399.15 756.13,-395.88 749.19,-393.12"/>
<polygon fill="#63b8ff" stroke="#63b8ff" points="864.27,-511.81 872.49,-518.49 870.23,-508.14 864.27,-511.81"/>
</g>
<!-- Node35 -->
<g id="node35" class="node">
<title>Node35</title>
<g id="a_node35"><a xlink:href="a00454.xhtml#ac0b670cde920707c7ccb1864d2a1f673" target="_top" xlink:title=" ">
<polygon fill="white" stroke="#666666" points="740.5,-248.5 612.5,-248.5 612.5,-229.5 740.5,-229.5 740.5,-248.5"/>
<text text-anchor="middle" x="676.5" y="-236.5" font-family="Helvetica,sans-Serif" font-size="10.00">CChordIf::getTimeStamps</text>
</a>
</g>
</g>
<!-- Node1&#45;&gt;Node35 -->
<g id="edge46" class="edge">
<title>Node1&#45;&gt;Node35</title>
<path fill="none" stroke="#63b8ff" d="M876.22,-508.05C870.59,-457.65 848.54,-324.45 769,-258 760.91,-251.24 751.02,-246.69 740.78,-243.66"/>
<polygon fill="#63b8ff" stroke="#63b8ff" points="872.76,-508.66 877.25,-518.26 879.73,-507.95 872.76,-508.66"/>
</g>
<!-- Node36 -->
<g id="node36" class="node">
<title>Node36</title>
<g id="a_node36"><a xlink:href="a00466.xhtml#a5013a2baa00e09d8d157c7e443c15b5f" target="_top" xlink:title=" ">
<polygon fill="white" stroke="#666666" points="744.5,-211.5 608.5,-211.5 608.5,-192.5 744.5,-192.5 744.5,-211.5"/>
<text text-anchor="middle" x="676.5" y="-199.5" font-family="Helvetica,sans-Serif" font-size="10.00">CFeatureIf::getTimeStamps</text>
</a>
</g>
</g>
<!-- Node1&#45;&gt;Node36 -->
<g id="edge47" class="edge">
<title>Node1&#45;&gt;Node36</title>
<path fill="none" stroke="#63b8ff" d="M877.32,-508.34C874.31,-453.64 857.94,-298.57 769,-221 762.03,-214.92 753.63,-210.61 744.78,-207.57"/>
<polygon fill="#63b8ff" stroke="#63b8ff" points="873.83,-508.6 877.78,-518.43 880.82,-508.28 873.83,-508.6"/>
</g>
<!-- Node37 -->
<g id="node37" class="node">
<title>Node37</title>
<g id="a_node37"><a xlink:href="a00514.xhtml#afeb1d21ee59d7f745fca0e22ab33a65b" target="_top" xlink:title=" ">
<polygon fill="white" stroke="#666666" points="548,-903.5 412,-903.5 412,-884.5 548,-884.5 548,-903.5"/>
<text text-anchor="middle" x="480" y="-891.5" font-family="Helvetica,sans-Serif" font-size="10.00">CNoveltyIf::getTimeStamps</text>
</a>
</g>
</g>
<!-- Node1&#45;&gt;Node37 -->
<g id="edge48" class="edge">
<title>Node1&#45;&gt;Node37</title>
<path fill="none" stroke="#63b8ff" d="M878.77,-547.63C879.95,-608.04 874.4,-792.15 769,-875 735.96,-900.97 622.56,-901.07 548.3,-898.04"/>
<polygon fill="#63b8ff" stroke="#63b8ff" points="882.27,-547.44 878.48,-537.55 875.27,-547.64 882.27,-547.44"/>
</g>
<!-- Node38 -->
<g id="node38" class="node">
<title>Node38</title>
<g id="a_node38"><a xlink:href="a00522.xhtml#a0a4814909e09b3f8a21ec69de72f9f52" target="_top" xlink:title=" ">
<polygon fill="white" stroke="#666666" points="739,-174.5 614,-174.5 614,-155.5 739,-155.5 739,-174.5"/>
<text text-anchor="middle" x="676.5" y="-162.5" font-family="Helvetica,sans-Serif" font-size="10.00">CPitchIf::getTimeStamps</text>
</a>
</g>
</g>
<!-- Node1&#45;&gt;Node38 -->
<g id="edge50" class="edge">
<title>Node1&#45;&gt;Node38</title>
<path fill="none" stroke="#63b8ff" d="M878.17,-508.01C877.54,-448.73 867.09,-272.55 769,-184 760.69,-176.5 750.21,-171.66 739.34,-168.59"/>
<polygon fill="#63b8ff" stroke="#63b8ff" points="874.68,-508.25 878.19,-518.24 881.68,-508.24 874.68,-508.25"/>
</g>
<!-- Node39 -->
<g id="node39" class="node">
<title>Node39</title>
<g id="a_node39"><a xlink:href="a00554.xhtml#a24119993779a769673c706238acb9138" target="_top" xlink:title=" ">
<polygon fill="white" stroke="#666666" points="748,-137.5 605,-137.5 605,-118.5 748,-118.5 748,-137.5"/>
<text text-anchor="middle" x="676.5" y="-125.5" font-family="Helvetica,sans-Serif" font-size="10.00">CFingerprint::getTimeStamps</text>
</a>
</g>
</g>
<!-- Node1&#45;&gt;Node39 -->
<g id="edge51" class="edge">
<title>Node1&#45;&gt;Node39</title>
<path fill="none" stroke="#63b8ff" d="M875.05,-508.09C864.13,-437.11 823.8,-197.89 769,-147 763.06,-141.48 755.94,-137.39 748.35,-134.39"/>
<polygon fill="#63b8ff" stroke="#63b8ff" points="871.64,-508.96 876.6,-518.32 878.56,-507.91 871.64,-508.96"/>
</g>
<!-- Node40 -->
<g id="node40" class="node">
<title>Node40</title>
<g id="a_node40"><a xlink:href="a00454.xhtml#ad48a5bd574f16b7491b70efb9998935f" target="_top" xlink:title="init configuration">
<polygon fill="white" stroke="#666666" points="518.5,-83.5 441.5,-83.5 441.5,-64.5 518.5,-64.5 518.5,-83.5"/>
<text text-anchor="middle" x="480" y="-71.5" font-family="Helvetica,sans-Serif" font-size="10.00">CChordIf::init_</text>
</a>
</g>
</g>
<!-- Node1&#45;&gt;Node40 -->
<g id="edge52" class="edge">
<title>Node1&#45;&gt;Node40</title>
<path fill="none" stroke="#63b8ff" d="M875.79,-508.47C866.85,-433.32 830.94,-164.33 769,-110 732.54,-78.02 588.07,-73.78 518.64,-73.64"/>
<polygon fill="#63b8ff" stroke="#63b8ff" points="872.31,-508.93 876.95,-518.45 879.27,-508.12 872.31,-508.93"/>
</g>
<!-- Node43 -->
<g id="node43" class="node">
<title>Node43</title>
<g id="a_node43"><a xlink:href="a00454.xhtml#a2dc9b2b2e4912e45835c5727d550aee7" target="_top" xlink:title=" ">
<polygon fill="white" stroke="#666666" points="729,-61.5 624,-61.5 624,-42.5 729,-42.5 729,-61.5"/>
<text text-anchor="middle" x="676.5" y="-49.5" font-family="Helvetica,sans-Serif" font-size="10.00">CChordIf::initViterbi_</text>
</a>
</g>
</g>
<!-- Node1&#45;&gt;Node43 -->
<g id="edge55" class="edge">
<title>Node1&#45;&gt;Node43</title>
<path fill="none" stroke="#63b8ff" d="M875.9,-508.16C867.19,-429.35 831.34,-139.59 769,-76 758.42,-65.21 743.63,-59.08 729.02,-55.65"/>
<polygon fill="#63b8ff" stroke="#63b8ff" points="872.44,-508.64 876.99,-518.21 879.4,-507.89 872.44,-508.64"/>
</g>
<!-- Node44 -->
<g id="node44" class="node">
<title>Node44</title>
<g id="a_node44"><a xlink:href="a00558.xhtml#a056e99496ef82630779482b7c06bc0d4" target="_top" xlink:title=" ">
<polygon fill="white" stroke="#666666" points="744.5,-24.5 608.5,-24.5 608.5,-5.5 744.5,-5.5 744.5,-24.5"/>
<text text-anchor="middle" x="676.5" y="-12.5" font-family="Helvetica,sans-Serif" font-size="10.00">CGammaToneFbIf::process</text>
</a>
</g>
</g>
<!-- Node1&#45;&gt;Node44 -->
<g id="edge57" class="edge">
<title>Node1&#45;&gt;Node44</title>
<path fill="none" stroke="#63b8ff" d="M876.49,-508.34C869.67,-424.93 839.01,-101.45 769,-33 762.17,-26.32 753.63,-21.77 744.53,-18.71"/>
<polygon fill="#63b8ff" stroke="#63b8ff" points="873.01,-508.78 877.29,-518.47 879.99,-508.22 873.01,-508.78"/>
</g>
<!-- Node3 -->
<g id="node3" class="node">
<title>Node3</title>
<g id="a_node3"><a xlink:href="a00011.xhtml#a0ddf1224851353fc92bfbff6f499fa97" target="_top" xlink:title=" ">
<polygon fill="white" stroke="#666666" points="38,-941.5 0,-941.5 0,-922.5 38,-922.5 38,-941.5"/>
<text text-anchor="middle" x="19" y="-929.5" font-family="Helvetica,sans-Serif" font-size="10.00">main</text>
</a>
</g>
</g>
<!-- Node2&#45;&gt;Node3 -->
<g id="edge2" class="edge">
<title>Node2&#45;&gt;Node3</title>
<path fill="none" stroke="#63b8ff" d="M213.41,-958.12C152.32,-949.87 73.1,-939.17 38.04,-934.44"/>
<polygon fill="#63b8ff" stroke="#63b8ff" points="213.06,-961.6 223.44,-959.47 214,-954.66 213.06,-961.6"/>
</g>
<!-- Node5 -->
<g id="node5" class="node">
<title>Node5</title>
<g id="a_node5"><a xlink:href="a00005.xhtml#a0ddf1224851353fc92bfbff6f499fa97" target="_top" xlink:title=" ">
<polygon fill="white" stroke="#666666" points="314,-846.5 276,-846.5 276,-827.5 314,-827.5 314,-846.5"/>
<text text-anchor="middle" x="295" y="-834.5" font-family="Helvetica,sans-Serif" font-size="10.00">main</text>
</a>
</g>
</g>
<!-- Node4&#45;&gt;Node5 -->
<g id="edge4" class="edge">
<title>Node4&#45;&gt;Node5</title>
<path fill="none" stroke="#63b8ff" d="M412.38,-824.92C377.28,-828.56 336.89,-832.75 314.11,-835.12"/>
<polygon fill="#63b8ff" stroke="#63b8ff" points="413.02,-828.37 422.6,-823.86 412.29,-821.41 413.02,-828.37"/>
</g>
<!-- Node7 -->
<g id="node7" class="node">
<title>Node7</title>
<g id="a_node7"><a xlink:href="a00125.xhtml#a0ddf1224851353fc92bfbff6f499fa97" target="_top" xlink:title=" ">
<polygon fill="white" stroke="#666666" points="314,-770.5 276,-770.5 276,-751.5 314,-751.5 314,-770.5"/>
<text text-anchor="middle" x="295" y="-758.5" font-family="Helvetica,sans-Serif" font-size="10.00">main</text>
</a>
</g>
</g>
<!-- Node6&#45;&gt;Node7 -->
<g id="edge6" class="edge">
<title>Node6&#45;&gt;Node7</title>
<path fill="none" stroke="#63b8ff" d="M423.53,-747.76C386.25,-751.63 339.49,-756.49 314.22,-759.11"/>
<polygon fill="#63b8ff" stroke="#63b8ff" points="424.18,-751.21 433.76,-746.7 423.46,-744.25 424.18,-751.21"/>
</g>
<!-- Node9 -->
<g id="node9" class="node">
<title>Node9</title>
<g id="a_node9"><a xlink:href="a00002.xhtml#a0ddf1224851353fc92bfbff6f499fa97" target="_top" xlink:title=" ">
<polygon fill="white" stroke="#666666" points="499,-676.5 461,-676.5 461,-657.5 499,-657.5 499,-676.5"/>
<text text-anchor="middle" x="480" y="-664.5" font-family="Helvetica,sans-Serif" font-size="10.00">main</text>
</a>
</g>
</g>
<!-- Node8&#45;&gt;Node9 -->
<g id="edge8" class="edge">
<title>Node8&#45;&gt;Node9</title>
<path fill="none" stroke="#63b8ff" d="M615.45,-692.58C575.34,-684.95 525.28,-675.42 499.01,-670.43"/>
<polygon fill="#63b8ff" stroke="#63b8ff" points="614.93,-696.04 625.41,-694.47 616.24,-689.16 614.93,-696.04"/>
</g>
<!-- Node10&#45;&gt;Node9 -->
<g id="edge12" class="edge">
<title>Node10&#45;&gt;Node9</title>
<path fill="none" stroke="#63b8ff" d="M591.83,-667C557.32,-667 520.48,-667 499.16,-667"/>
<polygon fill="#63b8ff" stroke="#63b8ff" points="591.97,-670.5 601.97,-667 591.97,-663.5 591.97,-670.5"/>
</g>
<!-- Node11 -->
<g id="node11" class="node">
<title>Node11</title>
<g id="a_node11"><a xlink:href="a00506.xhtml#a343e6b52e9696244dd57d4db0f91d056" target="_top" xlink:title=" ">
<polygon fill="white" stroke="#666666" points="522.5,-639.5 437.5,-639.5 437.5,-620.5 522.5,-620.5 522.5,-639.5"/>
<text text-anchor="middle" x="480" y="-627.5" font-family="Helvetica,sans-Serif" font-size="10.00">CKey::compKey</text>
</a>
</g>
</g>
<!-- Node10&#45;&gt;Node11 -->
<g id="edge10" class="edge">
<title>Node10&#45;&gt;Node11</title>
<path fill="none" stroke="#63b8ff" d="M615.45,-655.58C585.39,-649.86 549.74,-643.08 522.71,-637.93"/>
<polygon fill="#63b8ff" stroke="#63b8ff" points="614.93,-659.04 625.41,-657.47 616.24,-652.16 614.93,-659.04"/>
</g>
<!-- Node12 -->
<g id="node12" class="node">
<title>Node12</title>
<g id="a_node12"><a xlink:href="a00122.xhtml#a0ddf1224851353fc92bfbff6f499fa97" target="_top" xlink:title=" ">
<polygon fill="white" stroke="#666666" points="314,-639.5 276,-639.5 276,-620.5 314,-620.5 314,-639.5"/>
<text text-anchor="middle" x="295" y="-627.5" font-family="Helvetica,sans-Serif" font-size="10.00">main</text>
</a>
</g>
</g>
<!-- Node11&#45;&gt;Node12 -->
<g id="edge11" class="edge">
<title>Node11&#45;&gt;Node12</title>
<path fill="none" stroke="#63b8ff" d="M427.11,-630C389.23,-630 340.11,-630 314.07,-630"/>
<polygon fill="#63b8ff" stroke="#63b8ff" points="427.47,-633.5 437.47,-630 427.47,-626.5 427.47,-633.5"/>
</g>
<!-- Node14 -->
<g id="node14" class="node">
<title>Node14</title>
<g id="a_node14"><a xlink:href="a00116.xhtml#a0ddf1224851353fc92bfbff6f499fa97" target="_top" xlink:title=" ">
<polygon fill="white" stroke="#666666" points="499,-580.5 461,-580.5 461,-561.5 499,-561.5 499,-580.5"/>
<text text-anchor="middle" x="480" y="-568.5" font-family="Helvetica,sans-Serif" font-size="10.00">main</text>
</a>
</g>
</g>
<!-- Node13&#45;&gt;Node14 -->
<g id="edge14" class="edge">
<title>Node13&#45;&gt;Node14</title>
<path fill="none" stroke="#63b8ff" d="M594.42,-583.83C559.26,-579.85 521.2,-575.55 499.32,-573.07"/>
<polygon fill="#63b8ff" stroke="#63b8ff" points="594.4,-587.35 604.73,-585 595.19,-580.39 594.4,-587.35"/>
</g>
<!-- Node16 -->
<g id="node16" class="node">
<title>Node16</title>
<g id="a_node16"><a xlink:href="a00119.xhtml#a0ddf1224851353fc92bfbff6f499fa97" target="_top" xlink:title=" ">
<polygon fill="white" stroke="#666666" points="499,-495.5 461,-495.5 461,-476.5 499,-476.5 499,-495.5"/>
<text text-anchor="middle" x="480" y="-483.5" font-family="Helvetica,sans-Serif" font-size="10.00">main</text>
</a>
</g>
</g>
<!-- Node15&#45;&gt;Node16 -->
<g id="edge16" class="edge">
<title>Node15&#45;&gt;Node16</title>
<path fill="none" stroke="#63b8ff" d="M577.22,-496.39C547.31,-493.16 517.52,-489.94 499.19,-487.96"/>
<polygon fill="#63b8ff" stroke="#63b8ff" points="577.04,-499.89 587.36,-497.48 577.79,-492.93 577.04,-499.89"/>
</g>
<!-- Node17&#45;&gt;Node2 -->
<g id="edge18" class="edge">
<title>Node17&#45;&gt;Node2</title>
<path fill="none" stroke="#63b8ff" d="M407.45,-969C394.35,-969 380.68,-969 367.59,-969"/>
<polygon fill="#63b8ff" stroke="#63b8ff" points="407.81,-972.5 417.81,-969 407.81,-965.5 407.81,-972.5"/>
</g>
<!-- Node18 -->
<g id="node18" class="node">
<title>Node18</title>
<g id="a_node18"><a xlink:href="a00023.xhtml#a0ddf1224851353fc92bfbff6f499fa97" target="_top" xlink:title=" ">
<polygon fill="white" stroke="#666666" points="314,-941.5 276,-941.5 276,-922.5 314,-922.5 314,-941.5"/>
<text text-anchor="middle" x="295" y="-929.5" font-family="Helvetica,sans-Serif" font-size="10.00">main</text>
</a>
</g>
</g>
<!-- Node17&#45;&gt;Node18 -->
<g id="edge19" class="edge">
<title>Node17&#45;&gt;Node18</title>
<path fill="none" stroke="#63b8ff" d="M421.71,-957.42C384.77,-949.95 339.15,-940.72 314.28,-935.7"/>
<polygon fill="#63b8ff" stroke="#63b8ff" points="421.38,-960.92 431.87,-959.47 422.76,-954.06 421.38,-960.92"/>
</g>
<!-- Node20 -->
<g id="node20" class="node">
<title>Node20</title>
<g id="a_node20"><a xlink:href="a00008.xhtml#a0ddf1224851353fc92bfbff6f499fa97" target="_top" xlink:title=" ">
<polygon fill="white" stroke="#666666" points="499,-409.5 461,-409.5 461,-390.5 499,-390.5 499,-409.5"/>
<text text-anchor="middle" x="480" y="-397.5" font-family="Helvetica,sans-Serif" font-size="10.00">main</text>
</a>
</g>
</g>
<!-- Node19&#45;&gt;Node20 -->
<g id="edge21" class="edge">
<title>Node19&#45;&gt;Node20</title>
<path fill="none" stroke="#63b8ff" d="M581.7,-410.87C550.22,-407.47 518.27,-404.02 499.04,-401.95"/>
<polygon fill="#63b8ff" stroke="#63b8ff" points="581.57,-414.38 591.89,-411.97 582.32,-407.42 581.57,-414.38"/>
</g>
<!-- Node21&#45;&gt;Node9 -->
<g id="edge24" class="edge">
<title>Node21&#45;&gt;Node9</title>
<path fill="none" stroke="#63b8ff" d="M615.45,-641.42C575.34,-649.05 525.28,-658.58 499.01,-663.57"/>
<polygon fill="#63b8ff" stroke="#63b8ff" points="616.24,-644.84 625.41,-639.53 614.93,-637.96 616.24,-644.84"/>
</g>
<!-- Node21&#45;&gt;Node11 -->
<g id="edge23" class="edge">
<title>Node21&#45;&gt;Node11</title>
<path fill="none" stroke="#63b8ff" d="M584.23,-630C562.67,-630 540.72,-630 522.63,-630"/>
<polygon fill="#63b8ff" stroke="#63b8ff" points="584.42,-633.5 594.42,-630 584.42,-626.5 584.42,-633.5"/>
</g>
<!-- Node22&#45;&gt;Node14 -->
<g id="edge26" class="edge">
<title>Node22&#45;&gt;Node14</title>
<path fill="none" stroke="#63b8ff" d="M599.71,-558.18C563.02,-562.14 522.04,-566.57 499.1,-569.05"/>
<polygon fill="#63b8ff" stroke="#63b8ff" points="600.36,-561.63 609.92,-557.08 599.6,-554.67 600.36,-561.63"/>
</g>
<!-- Node24&#45;&gt;Node16 -->
<g id="edge29" class="edge">
<title>Node24&#45;&gt;Node16</title>
<path fill="none" stroke="#63b8ff" d="M579.02,-474.91C548.54,-478.36 517.95,-481.82 499.25,-483.94"/>
<polygon fill="#63b8ff" stroke="#63b8ff" points="579.8,-478.35 589.34,-473.75 579.01,-471.39 579.8,-478.35"/>
</g>
<!-- Node26 -->
<g id="node26" class="node">
<title>Node26</title>
<g id="a_node26"><a xlink:href="a00454.xhtml#a91455e2af2bd01006c1fc085e3904643" target="_top" xlink:title=" ">
<polygon fill="white" stroke="#666666" points="542,-865.5 418,-865.5 418,-846.5 542,-846.5 542,-865.5"/>
<text text-anchor="middle" x="480" y="-853.5" font-family="Helvetica,sans-Serif" font-size="10.00">CChordIf::getNumBlocks</text>
</a>
</g>
</g>
<!-- Node25&#45;&gt;Node26 -->
<g id="edge31" class="edge">
<title>Node25&#45;&gt;Node26</title>
<path fill="none" stroke="#63b8ff" d="M604.31,-856C583.91,-856 561.86,-856 542.13,-856"/>
<polygon fill="#63b8ff" stroke="#63b8ff" points="604.49,-859.5 614.49,-856 604.49,-852.5 604.49,-859.5"/>
</g>
<!-- Node26&#45;&gt;Node5 -->
<g id="edge32" class="edge">
<title>Node26&#45;&gt;Node5</title>
<path fill="none" stroke="#63b8ff" d="M407.47,-848.57C373.7,-845.07 336.12,-841.17 314.36,-838.91"/>
<polygon fill="#63b8ff" stroke="#63b8ff" points="407.5,-852.1 417.81,-849.65 408.22,-845.13 407.5,-852.1"/>
</g>
<!-- Node28 -->
<g id="node28" class="node">
<title>Node28</title>
<g id="a_node28"><a xlink:href="a00514.xhtml#aa4193070cac8cac64ad8dc222fb612e8" target="_top" xlink:title=" ">
<polygon fill="white" stroke="#666666" points="545.5,-941.5 414.5,-941.5 414.5,-922.5 545.5,-922.5 545.5,-941.5"/>
<text text-anchor="middle" x="480" y="-929.5" font-family="Helvetica,sans-Serif" font-size="10.00">CNoveltyIf::getNumBlocks</text>
</a>
</g>
</g>
<!-- Node27&#45;&gt;Node28 -->
<g id="edge34" class="edge">
<title>Node27&#45;&gt;Node28</title>
<path fill="none" stroke="#63b8ff" d="M600.54,-932C582.49,-932 563.36,-932 545.81,-932"/>
<polygon fill="#63b8ff" stroke="#63b8ff" points="600.73,-935.5 610.73,-932 600.73,-928.5 600.73,-935.5"/>
</g>
<!-- Node28&#45;&gt;Node2 -->
<g id="edge35" class="edge">
<title>Node28&#45;&gt;Node2</title>
<path fill="none" stroke="#63b8ff" d="M422.04,-943.52C396.75,-948.63 367.34,-954.58 343.29,-959.44"/>
<polygon fill="#63b8ff" stroke="#63b8ff" points="422.76,-946.94 431.87,-941.53 421.38,-940.08 422.76,-946.94"/>
</g>
<!-- Node28&#45;&gt;Node18 -->
<g id="edge39" class="edge">
<title>Node28&#45;&gt;Node18</title>
<path fill="none" stroke="#63b8ff" d="M404.33,-932C371.24,-932 335.11,-932 314.06,-932"/>
<polygon fill="#63b8ff" stroke="#63b8ff" points="404.48,-935.5 414.48,-932 404.48,-928.5 404.48,-935.5"/>
</g>
<!-- Node29 -->
<g id="node29" class="node">
<title>Node29</title>
<g id="a_node29"><a xlink:href="a00450.xhtml#abc96a9de9093f6617510f4dbe02b82ce" target="_top" xlink:title="init configuration">
<polygon fill="white" stroke="#666666" points="342.5,-904.5 247.5,-904.5 247.5,-885.5 342.5,-885.5 342.5,-904.5"/>
<text text-anchor="middle" x="295" y="-892.5" font-family="Helvetica,sans-Serif" font-size="10.00">CBeatHistoIf::init_</text>
</a>
</g>
</g>
<!-- Node28&#45;&gt;Node29 -->
<g id="edge36" class="edge">
<title>Node28&#45;&gt;Node29</title>
<path fill="none" stroke="#63b8ff" d="M421.96,-920.47C396.47,-915.31 366.79,-909.31 342.65,-904.43"/>
<polygon fill="#63b8ff" stroke="#63b8ff" points="421.38,-923.92 431.87,-922.47 422.76,-917.06 421.38,-923.92"/>
</g>
<!-- Node30 -->
<g id="node30" class="node">
<title>Node30</title>
<g id="a_node30"><a xlink:href="a00450.xhtml#a9b3f72cb0d46466cf0aa38540b9980a5" target="_top" xlink:title=" ">
<polygon fill="white" stroke="#666666" points="178,-922.5 74,-922.5 74,-903.5 178,-903.5 178,-922.5"/>
<text text-anchor="middle" x="126" y="-910.5" font-family="Helvetica,sans-Serif" font-size="10.00">CBeatHistoIf::create</text>
</a>
</g>
</g>
<!-- Node29&#45;&gt;Node30 -->
<g id="edge37" class="edge">
<title>Node29&#45;&gt;Node30</title>
<path fill="none" stroke="#63b8ff" d="M237.39,-901.1C218.23,-903.17 196.97,-905.46 178.25,-907.48"/>
<polygon fill="#63b8ff" stroke="#63b8ff" points="237.91,-904.57 247.48,-900.01 237.16,-897.61 237.91,-904.57"/>
</g>
<!-- Node30&#45;&gt;Node3 -->
<g id="edge38" class="edge">
<title>Node30&#45;&gt;Node3</title>
<path fill="none" stroke="#63b8ff" d="M63.64,-924.1C54.43,-925.77 45.6,-927.37 38.31,-928.69"/>
<polygon fill="#63b8ff" stroke="#63b8ff" points="64.51,-927.5 73.73,-922.28 63.27,-920.61 64.51,-927.5"/>
</g>
<!-- Node32 -->
<g id="node32" class="node">
<title>Node32</title>
<g id="a_node32"><a xlink:href="a00522.xhtml#a253cce3499a721648eba3d7b2a9f2b16" target="_top" xlink:title=" ">
<polygon fill="white" stroke="#666666" points="540.5,-789.5 419.5,-789.5 419.5,-770.5 540.5,-770.5 540.5,-789.5"/>
<text text-anchor="middle" x="480" y="-777.5" font-family="Helvetica,sans-Serif" font-size="10.00">CPitchIf::getNumBlocks</text>
</a>
</g>
</g>
<!-- Node31&#45;&gt;Node32 -->
<g id="edge41" class="edge">
<title>Node31&#45;&gt;Node32</title>
<path fill="none" stroke="#63b8ff" d="M605.55,-780C584.27,-780 561.09,-780 540.57,-780"/>
<polygon fill="#63b8ff" stroke="#63b8ff" points="605.82,-783.5 615.82,-780 605.82,-776.5 605.82,-783.5"/>
</g>
<!-- Node32&#45;&gt;Node7 -->
<g id="edge42" class="edge">
<title>Node32&#45;&gt;Node7</title>
<path fill="none" stroke="#63b8ff" d="M409.33,-772.77C375.04,-769.21 336.41,-765.2 314.26,-762.9"/>
<polygon fill="#63b8ff" stroke="#63b8ff" points="409.02,-776.25 419.33,-773.8 409.75,-769.29 409.02,-776.25"/>
</g>
<!-- Node34&#45;&gt;Node20 -->
<g id="edge45" class="edge">
<title>Node34&#45;&gt;Node20</title>
<path fill="none" stroke="#63b8ff" d="M587.06,-388C554.09,-391.73 519.75,-395.62 499.39,-397.92"/>
<polygon fill="#63b8ff" stroke="#63b8ff" points="587.69,-391.45 597.23,-386.85 586.9,-384.5 587.69,-391.45"/>
</g>
<!-- Node37&#45;&gt;Node29 -->
<g id="edge49" class="edge">
<title>Node37&#45;&gt;Node29</title>
<path fill="none" stroke="#63b8ff" d="M401.78,-894.42C381.62,-894.53 360.52,-894.65 342.51,-894.75"/>
<polygon fill="#63b8ff" stroke="#63b8ff" points="401.92,-897.92 411.9,-894.37 401.88,-890.92 401.92,-897.92"/>
</g>
<!-- Node41 -->
<g id="node41" class="node">
<title>Node41</title>
<g id="a_node41"><a xlink:href="a00310.xhtml#a6df404d2eb3d4c8f9dc2071930fc9e7e" target="_top" xlink:title=" ">
<polygon fill="white" stroke="#666666" points="376,-105.5 214,-105.5 214,-86.5 376,-86.5 376,-105.5"/>
<text text-anchor="middle" x="295" y="-93.5" font-family="Helvetica,sans-Serif" font-size="10.00">CChordFromFile::CChordFromFile</text>
</a>
</g>
</g>
<!-- Node40&#45;&gt;Node41 -->
<g id="edge53" class="edge">
<title>Node40&#45;&gt;Node41</title>
<path fill="none" stroke="#63b8ff" d="M430.86,-79.79C413.86,-81.83 394.27,-84.19 375.37,-86.46"/>
<polygon fill="#63b8ff" stroke="#63b8ff" points="431.57,-83.23 441.08,-78.56 430.74,-76.28 431.57,-83.23"/>
</g>
<!-- Node42 -->
<g id="node42" class="node">
<title>Node42</title>
<g id="a_node42"><a xlink:href="a00314.xhtml#ac9c41c2ddc441df7e0ae80c25971c260" target="_top" xlink:title=" ">
<polygon fill="white" stroke="#666666" points="363.5,-68 226.5,-68 226.5,-38 363.5,-38 363.5,-68"/>
<text text-anchor="start" x="234.5" y="-56" font-family="Helvetica,sans-Serif" font-size="10.00">CChordFromVector::CChord</text>
<text text-anchor="middle" x="295" y="-45" font-family="Helvetica,sans-Serif" font-size="10.00">FromVector</text>
</a>
</g>
</g>
<!-- Node40&#45;&gt;Node42 -->
<g id="edge54" class="edge">
<title>Node40&#45;&gt;Node42</title>
<path fill="none" stroke="#63b8ff" d="M431.03,-68.5C410.5,-66.14 386.16,-63.35 363.83,-60.78"/>
<polygon fill="#63b8ff" stroke="#63b8ff" points="430.75,-71.99 441.08,-69.65 431.55,-65.03 430.75,-71.99"/>
</g>
<!-- Node43&#45;&gt;Node40 -->
<g id="edge56" class="edge">
<title>Node43&#45;&gt;Node40</title>
<path fill="none" stroke="#63b8ff" d="M613.55,-59.01C582.35,-62.54 545.56,-66.7 518.66,-69.74"/>
<polygon fill="#63b8ff" stroke="#63b8ff" points="614.34,-62.44 623.89,-57.84 613.56,-55.48 614.34,-62.44"/>
</g>
<!-- Node45 -->
<g id="node45" class="node">
<title>Node45</title>
<g id="a_node45"><a xlink:href="a00390.xhtml#a371af164926ee54ebfd298fa4dca8842" target="_top" xlink:title=" ">
<polygon fill="white" stroke="#666666" points="531.5,-30 428.5,-30 428.5,0 531.5,0 531.5,-30"/>
<text text-anchor="start" x="436.5" y="-18" font-family="Helvetica,sans-Serif" font-size="10.00">CPitchTimeAuditory</text>
<text text-anchor="middle" x="480" y="-7" font-family="Helvetica,sans-Serif" font-size="10.00">::compF0</text>
</a>
</g>
</g>
<!-- Node44&#45;&gt;Node45 -->
<g id="edge58" class="edge">
<title>Node44&#45;&gt;Node45</title>
<path fill="none" stroke="#63b8ff" d="M598.13,-15C575.76,-15 551.92,-15 531.63,-15"/>
<polygon fill="#63b8ff" stroke="#63b8ff" points="598.29,-18.5 608.29,-15 598.29,-11.5 598.29,-18.5"/>
</g>
</g>
</svg>
