<?xml version="1.0" encoding="UTF-8" standalone="no"?>
<!DOCTYPE svg PUBLIC "-//W3C//DTD SVG 1.1//EN"
 "http://www.w3.org/Graphics/SVG/1.1/DTD/svg11.dtd">
<!-- Generated by graphviz version 6.0.1 (20220911.1526)
 -->
<!-- Title: CNoveltyIf::getTimeStamps Pages: 1 -->
<svg width="489pt" height="27pt"
 viewBox="0.00 0.00 489.00 27.00" xmlns="http://www.w3.org/2000/svg" xmlns:xlink="http://www.w3.org/1999/xlink">
<g id="graph0" class="graph" transform="scale(1 1) rotate(0) translate(4 23)">
<title>CNoveltyIf::getTimeStamps</title>
<!-- Node1 -->
<g id="node1" class="node">
<title>Node1</title>
<g id="a_node1"><a xlink:title=" ">
<polygon fill="#999999" stroke="#666666" points="481,-19 345,-19 345,0 481,0 481,-19"/>
<text text-anchor="middle" x="413" y="-7" font-family="Helvetica,sans-Serif" font-size="10.00">CNoveltyIf::getTimeStamps</text>
</a>
</g>
</g>
<!-- Node2 -->
<g id="node2" class="node">
<title>Node2</title>
<g id="a_node2"><a xlink:href="a00450.xhtml#abc96a9de9093f6617510f4dbe02b82ce" target="_top" xlink:title="init configuration">
<polygon fill="white" stroke="#666666" points="309,-19 214,-19 214,0 309,0 309,-19"/>
<text text-anchor="middle" x="261.5" y="-7" font-family="Helvetica,sans-Serif" font-size="10.00">CBeatHistoIf::init_</text>
</a>
</g>
</g>
<!-- Node1&#45;&gt;Node2 -->
<g id="edge1" class="edge">
<title>Node1&#45;&gt;Node2</title>
<path fill="none" stroke="#63b8ff" d="M334.58,-9.5C325.97,-9.5 317.41,-9.5 309.35,-9.5"/>
<polygon fill="#63b8ff" stroke="#63b8ff" points="334.68,-13 344.68,-9.5 334.68,-6 334.68,-13"/>
</g>
<!-- Node3 -->
<g id="node3" class="node">
<title>Node3</title>
<g id="a_node3"><a xlink:href="a00450.xhtml#a9b3f72cb0d46466cf0aa38540b9980a5" target="_top" xlink:title=" ">
<polygon fill="white" stroke="#666666" points="178,-19 74,-19 74,0 178,0 178,-19"/>
<text text-anchor="middle" x="126" y="-7" font-family="Helvetica,sans-Serif" font-size="10.00">CBeatHistoIf::create</text>
</a>
</g>
</g>
<!-- Node2&#45;&gt;Node3 -->
<g id="edge2" class="edge">
<title>Node2&#45;&gt;Node3</title>
<path fill="none" stroke="#63b8ff" d="M203.72,-9.5C195.33,-9.5 186.72,-9.5 178.45,-9.5"/>
<polygon fill="#63b8ff" stroke="#63b8ff" points="203.81,-13 213.81,-9.5 203.81,-6 203.81,-13"/>
</g>
<!-- Node4 -->
<g id="node4" class="node">
<title>Node4</title>
<g id="a_node4"><a xlink:href="a00011.xhtml#a0ddf1224851353fc92bfbff6f499fa97" target="_top" xlink:title=" ">
<polygon fill="white" stroke="#666666" points="38,-19 0,-19 0,0 38,0 38,-19"/>
<text text-anchor="middle" x="19" y="-7" font-family="Helvetica,sans-Serif" font-size="10.00">main</text>
</a>
</g>
</g>
<!-- Node3&#45;&gt;Node4 -->
<g id="edge3" class="edge">
<title>Node3&#45;&gt;Node4</title>
<path fill="none" stroke="#63b8ff" d="M63.64,-9.5C54.43,-9.5 45.6,-9.5 38.31,-9.5"/>
<polygon fill="#63b8ff" stroke="#63b8ff" points="63.73,-13 73.73,-9.5 63.73,-6 63.73,-13"/>
</g>
</g>
</svg>
