<?xml version="1.0" encoding="UTF-8" standalone="no"?>
<!DOCTYPE svg PUBLIC "-//W3C//DTD SVG 1.1//EN"
 "http://www.w3.org/Graphics/SVG/1.1/DTD/svg11.dtd">
<!-- Generated by graphviz version 4.0.0 (20220602.1335)
 -->
<!-- Title: CPitchFromBlockIf::create Pages: 1 -->
<svg width="414pt" height="78pt"
 viewBox="0.00 0.00 414.00 77.50" xmlns="http://www.w3.org/2000/svg" xmlns:xlink="http://www.w3.org/1999/xlink">
<g id="graph0" class="graph" transform="scale(1 1) rotate(0) translate(4 73.5)">
<title>CPitchFromBlockIf::create</title>
<polygon fill="white" stroke="transparent" points="-4,4 -4,-73.5 410,-73.5 410,4 -4,4"/>
<!-- Node1 -->
<g id="node1" class="node">
<title>Node1</title>
<g id="a_node1"><a xlink:title=" ">
<polygon fill="#bfbfbf" stroke="black" points="302,-22.5 302,-52.5 406,-52.5 406,-22.5 302,-22.5"/>
<text text-anchor="start" x="310" y="-40.5" font-family="Helvetica,sans-Serif" font-size="10.00">CPitchFromBlockIf::</text>
<text text-anchor="middle" x="354" y="-29.5" font-family="Helvetica,sans-Serif" font-size="10.00">create</text>
</a>
</g>
</g>
<!-- Node2 -->
<g id="node2" class="node">
<title>Node2</title>
<g id="a_node2"><a xlink:href="a00522.xhtml#a3a966aff4a49e12324f205b20c5f2232" target="_top" xlink:title="init configuration">
<polygon fill="white" stroke="black" points="192,-28 192,-47 266,-47 266,-28 192,-28"/>
<text text-anchor="middle" x="229" y="-35" font-family="Helvetica,sans-Serif" font-size="10.00">CPitchIf::init_</text>
</a>
</g>
</g>
<!-- Node1&#45;&gt;Node2 -->
<g id="edge1" class="edge">
<title>Node1&#45;&gt;Node2</title>
<path fill="none" stroke="midnightblue" d="M291.68,-37.5C282.94,-37.5 274.19,-37.5 266.14,-37.5"/>
<polygon fill="midnightblue" stroke="midnightblue" points="291.91,-41 301.91,-37.5 291.91,-34 291.91,-41"/>
</g>
<!-- Node3 -->
<g id="node3" class="node">
<title>Node3</title>
<g id="a_node3"><a xlink:href="a00370.xhtml#ab74f454ce0bbdccd22a38066ce26b16a" target="_top" xlink:title=" ">
<polygon fill="white" stroke="black" points="0,-50 0,-69 156,-69 156,-50 0,-50"/>
<text text-anchor="middle" x="78" y="-57" font-family="Helvetica,sans-Serif" font-size="10.00">CPitchFromFile::CPitchFromFile</text>
</a>
</g>
</g>
<!-- Node2&#45;&gt;Node3 -->
<g id="edge2" class="edge">
<title>Node2&#45;&gt;Node3</title>
<path fill="none" stroke="midnightblue" d="M182.03,-44.29C169.86,-46.08 156.5,-48.06 143.54,-49.97"/>
<polygon fill="midnightblue" stroke="midnightblue" points="182.55,-47.75 191.93,-42.83 181.53,-40.82 182.55,-47.75"/>
</g>
<!-- Node4 -->
<g id="node4" class="node">
<title>Node4</title>
<g id="a_node4"><a xlink:href="a00374.xhtml#a383eb44fd89db6be0119177effcf90bd" target="_top" xlink:title=" ">
<polygon fill="white" stroke="black" points="12.5,-0.5 12.5,-30.5 143.5,-30.5 143.5,-0.5 12.5,-0.5"/>
<text text-anchor="start" x="20.5" y="-18.5" font-family="Helvetica,sans-Serif" font-size="10.00">CPitchFromVector::CPitch</text>
<text text-anchor="middle" x="78" y="-7.5" font-family="Helvetica,sans-Serif" font-size="10.00">FromVector</text>
</a>
</g>
</g>
<!-- Node2&#45;&gt;Node4 -->
<g id="edge3" class="edge">
<title>Node2&#45;&gt;Node4</title>
<path fill="none" stroke="midnightblue" d="M182.03,-30.71C169.86,-28.92 156.5,-26.94 143.54,-25.03"/>
<polygon fill="midnightblue" stroke="midnightblue" points="181.53,-34.18 191.93,-32.17 182.55,-27.25 181.53,-34.18"/>
</g>
</g>
</svg>
