<?xml version="1.0" encoding="UTF-8" standalone="no"?>
<!DOCTYPE svg PUBLIC "-//W3C//DTD SVG 1.1//EN"
 "http://www.w3.org/Graphics/SVG/1.1/DTD/svg11.dtd">
<!-- Generated by graphviz version 12.2.1 (20241206.2353)
 -->
<!-- Title: CInstFreq::process Pages: 1 -->
<svg width="246pt" height="212pt"
 viewBox="0.00 0.00 246.25 212.25" xmlns="http://www.w3.org/2000/svg" xmlns:xlink="http://www.w3.org/1999/xlink">
<g id="graph0" class="graph" transform="scale(1 1) rotate(0) translate(4 208.25)">
<title>CInstFreq::process</title>
<!-- Node1 -->
<g id="Node000001" class="node">
<title>Node1</title>
<g id="a_Node000001"><a xlink:title=" ">
<polygon fill="#999999" stroke="#666666" points="97.75,-111.25 0,-111.25 0,-92 97.75,-92 97.75,-111.25"/>
<text text-anchor="middle" x="48.88" y="-97.75" font-family="Helvetica,sans-Serif" font-size="10.00">CInstFreq::process</text>
</a>
</g>
</g>
<!-- Node2 -->
<g id="Node000002" class="node">
<title>Node2</title>
<g id="a_Node000002"><a xlink:href="a00505.xhtml#a3a052b83e62e5c5cc44829c64ffe42eb" target="_top" xlink:title=" ">
<polygon fill="white" stroke="#666666" points="225.88,-204.25 146.12,-204.25 146.12,-185 225.88,-185 225.88,-204.25"/>
<text text-anchor="middle" x="186" y="-190.75" font-family="Helvetica,sans-Serif" font-size="10.00">CVector::add_I</text>
</a>
</g>
</g>
<!-- Node1&#45;&gt;Node2 -->
<g id="edge1_Node000001_Node000002" class="edge">
<title>Node1&#45;&gt;Node2</title>
<g id="a_edge1_Node000001_Node000002"><a xlink:title=" ">
<path fill="none" stroke="#63b8ff" d="M58.7,-111.75C73.01,-127.59 102.81,-158.34 133.75,-176.62 135.75,-177.81 137.84,-178.93 139.98,-179.99"/>
<polygon fill="#63b8ff" stroke="#63b8ff" points="138.31,-183.07 148.87,-183.9 141.13,-176.67 138.31,-183.07"/>
</a>
</g>
</g>
<!-- Node3 -->
<g id="Node000003" class="node">
<title>Node3</title>
<g id="a_Node000003"><a xlink:href="a00505.xhtml#ad7c5cba73e439adac77778f61c9418f0" target="_top" xlink:title=" ">
<polygon fill="white" stroke="#666666" points="224,-167.25 148,-167.25 148,-148 224,-148 224,-167.25"/>
<text text-anchor="middle" x="186" y="-153.75" font-family="Helvetica,sans-Serif" font-size="10.00">CVector::copy</text>
</a>
</g>
</g>
<!-- Node1&#45;&gt;Node3 -->
<g id="edge2_Node000001_Node000003" class="edge">
<title>Node1&#45;&gt;Node3</title>
<g id="a_edge2_Node000001_Node000003"><a xlink:title=" ">
<path fill="none" stroke="#63b8ff" d="M70.68,-111.67C87.52,-119.64 111.94,-130.87 133.75,-139.62 137.16,-140.99 140.73,-142.36 144.31,-143.7"/>
<polygon fill="#63b8ff" stroke="#63b8ff" points="143.01,-146.95 153.6,-147.08 145.4,-140.37 143.01,-146.95"/>
</a>
</g>
</g>
<!-- Node4 -->
<g id="Node000004" class="node">
<title>Node4</title>
<g id="a_Node000004"><a xlink:href="a00505.xhtml#a9811f50434dd058d201290b2dc98bfcd" target="_top" xlink:title=" ">
<polygon fill="white" stroke="#666666" points="229.25,-130.25 142.75,-130.25 142.75,-111 229.25,-111 229.25,-130.25"/>
<text text-anchor="middle" x="186" y="-116.75" font-family="Helvetica,sans-Serif" font-size="10.00">CVector::mulC_I</text>
</a>
</g>
</g>
<!-- Node1&#45;&gt;Node4 -->
<g id="edge3_Node000001_Node000004" class="edge">
<title>Node1&#45;&gt;Node4</title>
<g id="a_edge3_Node000001_Node000004"><a xlink:title=" ">
<path fill="none" stroke="#63b8ff" d="M97.9,-108.38C108.71,-109.9 120.24,-111.52 131.27,-113.07"/>
<polygon fill="#63b8ff" stroke="#63b8ff" points="130.63,-116.52 141.02,-114.44 131.61,-109.58 130.63,-116.52"/>
</a>
</g>
</g>
<!-- Node5 -->
<g id="Node000005" class="node">
<title>Node5</title>
<g id="a_Node000005"><a xlink:href="a00577.xhtml#a6e071b3927895821964b061eb7f87659" target="_top" xlink:title=" ">
<polygon fill="white" stroke="#666666" points="238.25,-93.25 133.75,-93.25 133.75,-74 238.25,-74 238.25,-93.25"/>
<text text-anchor="middle" x="186" y="-79.75" font-family="Helvetica,sans-Serif" font-size="10.00">CInstFreq::princArg_</text>
</a>
</g>
</g>
<!-- Node1&#45;&gt;Node5 -->
<g id="edge4_Node000001_Node000005" class="edge">
<title>Node1&#45;&gt;Node5</title>
<g id="a_edge4_Node000001_Node000005"><a xlink:title=" ">
<path fill="none" stroke="#63b8ff" d="M97.9,-95.23C105.73,-94.18 113.95,-93.09 122.08,-92.01"/>
<polygon fill="#63b8ff" stroke="#63b8ff" points="122.52,-95.48 131.97,-90.69 121.59,-88.54 122.52,-95.48"/>
</a>
</g>
</g>
<!-- Node6 -->
<g id="Node000006" class="node">
<title>Node6</title>
<g id="a_Node000006"><a xlink:href="a00505.xhtml#a39329371d828db80c2f0ad037074c998" target="_top" xlink:title=" ">
<polygon fill="white" stroke="#666666" points="225.88,-56.25 146.12,-56.25 146.12,-37 225.88,-37 225.88,-56.25"/>
<text text-anchor="middle" x="186" y="-42.75" font-family="Helvetica,sans-Serif" font-size="10.00">CVector::sub_I</text>
</a>
</g>
</g>
<!-- Node1&#45;&gt;Node6 -->
<g id="edge5_Node000001_Node000006" class="edge">
<title>Node1&#45;&gt;Node6</title>
<g id="a_edge5_Node000001_Node000006"><a xlink:title=" ">
<path fill="none" stroke="#63b8ff" d="M71.4,-91.58C88.23,-83.86 112.29,-73.11 133.75,-64.62 137.17,-63.27 140.74,-61.91 144.33,-60.58"/>
<polygon fill="#63b8ff" stroke="#63b8ff" points="145.41,-63.91 153.62,-57.22 143.03,-57.33 145.41,-63.91"/>
</a>
</g>
</g>
<!-- Node7 -->
<g id="Node000007" class="node">
<title>Node7</title>
<g id="a_Node000007"><a xlink:href="a00501.xhtml#a4518cf65aacb5732281b35ee427d0fc2" target="_top" xlink:title=" ">
<polygon fill="white" stroke="#666666" points="218.75,-19.25 153.25,-19.25 153.25,0 218.75,0 218.75,-19.25"/>
<text text-anchor="middle" x="186" y="-5.75" font-family="Helvetica,sans-Serif" font-size="10.00">CUtil::swap</text>
</a>
</g>
</g>
<!-- Node1&#45;&gt;Node7 -->
<g id="edge6_Node000001_Node000007" class="edge">
<title>Node1&#45;&gt;Node7</title>
<g id="a_edge6_Node000001_Node000007"><a xlink:title=" ">
<path fill="none" stroke="#63b8ff" d="M58.73,-91.65C73.08,-76.02 102.93,-45.7 133.75,-27.62 136.53,-25.99 139.49,-24.48 142.52,-23.07"/>
<polygon fill="#63b8ff" stroke="#63b8ff" points="143.69,-26.38 151.58,-19.31 141,-19.91 143.69,-26.38"/>
</a>
</g>
</g>
</g>
</svg>
