<?xml version="1.0" encoding="UTF-8" standalone="no"?>
<!DOCTYPE svg PUBLIC "-//W3C//DTD SVG 1.1//EN"
 "http://www.w3.org/Graphics/SVG/1.1/DTD/svg11.dtd">
<!-- Generated by graphviz version 4.0.0 (20220602.1335)
 -->
<!-- Title: CSpectrogramIf::init_ Pages: 1 -->
<svg width="285pt" height="88pt"
 viewBox="0.00 0.00 285.00 88.00" xmlns="http://www.w3.org/2000/svg" xmlns:xlink="http://www.w3.org/1999/xlink">
<g id="graph0" class="graph" transform="scale(1 1) rotate(0) translate(4 84)">
<title>CSpectrogramIf::init_</title>
<polygon fill="white" stroke="transparent" points="-4,4 -4,-84 281,-84 281,4 -4,4"/>
<!-- Node1 -->
<g id="node1" class="node">
<title>Node1</title>
<g id="a_node1"><a xlink:title="init configuration">
<polygon fill="#bfbfbf" stroke="black" points="170,-30 170,-49 277,-49 277,-30 170,-30"/>
<text text-anchor="middle" x="223.5" y="-37" font-family="Helvetica,sans-Serif" font-size="10.00">CSpectrogramIf::init_</text>
</a>
</g>
</g>
<!-- Node2 -->
<g id="node2" class="node">
<title>Node2</title>
<g id="a_node2"><a xlink:href="a00414.xhtml#aeac8291805613de79ed584829d3d5f30" target="_top" xlink:title=" ">
<polygon fill="white" stroke="black" points="6,-49.5 6,-79.5 128,-79.5 128,-49.5 6,-49.5"/>
<text text-anchor="start" x="14" y="-67.5" font-family="Helvetica,sans-Serif" font-size="10.00">CSpectrogramFromFile</text>
<text text-anchor="middle" x="67" y="-56.5" font-family="Helvetica,sans-Serif" font-size="10.00">::CSpectrogramFromFile</text>
</a>
</g>
</g>
<!-- Node1&#45;&gt;Node2 -->
<g id="edge1" class="edge">
<title>Node1&#45;&gt;Node2</title>
<path fill="none" stroke="midnightblue" d="M159.88,-49.63C149.42,-51.32 138.6,-53.08 128.2,-54.76"/>
<polygon fill="midnightblue" stroke="midnightblue" points="160.45,-53.09 169.76,-48.03 159.33,-46.18 160.45,-53.09"/>
</g>
<!-- Node3 -->
<g id="node3" class="node">
<title>Node3</title>
<g id="a_node3"><a xlink:href="a00418.xhtml#a2c6b75c7c05204bec34db9c8ec6c40d1" target="_top" xlink:title=" ">
<polygon fill="white" stroke="black" points="0,-0.5 0,-30.5 134,-30.5 134,-0.5 0,-0.5"/>
<text text-anchor="start" x="8" y="-18.5" font-family="Helvetica,sans-Serif" font-size="10.00">CSpectrogramFromVector</text>
<text text-anchor="middle" x="67" y="-7.5" font-family="Helvetica,sans-Serif" font-size="10.00">::CSpectrogramFromVector</text>
</a>
</g>
</g>
<!-- Node1&#45;&gt;Node3 -->
<g id="edge2" class="edge">
<title>Node1&#45;&gt;Node3</title>
<path fill="none" stroke="midnightblue" d="M159.66,-29.74C151.26,-28.43 142.62,-27.09 134.16,-25.78"/>
<polygon fill="midnightblue" stroke="midnightblue" points="159.34,-33.23 169.76,-31.31 160.42,-26.31 159.34,-33.23"/>
</g>
</g>
</svg>
