<?xml version="1.0" encoding="UTF-8" standalone="no"?>
<!DOCTYPE svg PUBLIC "-//W3C//DTD SVG 1.1//EN"
 "http://www.w3.org/Graphics/SVG/1.1/DTD/svg11.dtd">
<!-- Generated by graphviz version 4.0.0 (20220602.1335)
 -->
<!-- Title: CBlockAudioIf::getNextBlock Pages: 1 -->
<svg width="630pt" height="382pt"
 viewBox="0.00 0.00 630.00 381.50" xmlns="http://www.w3.org/2000/svg" xmlns:xlink="http://www.w3.org/1999/xlink">
<g id="graph0" class="graph" transform="scale(1 1) rotate(0) translate(4 377.5)">
<title>CBlockAudioIf::getNextBlock</title>
<polygon fill="white" stroke="transparent" points="-4,4 -4,-377.5 626,-377.5 626,4 -4,4"/>
<!-- Node1 -->
<g id="node1" class="node">
<title>Node1</title>
<g id="a_node1"><a xlink:title=" ">
<polygon fill="#bfbfbf" stroke="black" points="480,-202 480,-221 622,-221 622,-202 480,-202"/>
<text text-anchor="middle" x="551" y="-209" font-family="Helvetica,sans-Serif" font-size="10.00">CBlockAudioIf::getNextBlock</text>
</a>
</g>
</g>
<!-- Node2 -->
<g id="node2" class="node">
<title>Node2</title>
<g id="a_node2"><a xlink:href="a00450.xhtml#a58a9a3d685f448ced2e843a60028e472" target="_top" xlink:title=" ">
<polygon fill="white" stroke="black" points="94,-278 94,-297 239,-297 239,-278 94,-278"/>
<text text-anchor="middle" x="166.5" y="-285" font-family="Helvetica,sans-Serif" font-size="10.00">CBeatHistoIf::compBeatHisto</text>
</a>
</g>
</g>
<!-- Node1&#45;&gt;Node2 -->
<g id="edge1" class="edge">
<title>Node1&#45;&gt;Node2</title>
<path fill="none" stroke="midnightblue" d="M528.42,-226.68C507.8,-240.29 475.3,-259.47 444,-268.5 376.39,-288.01 295.79,-291.43 239.1,-290.78"/>
<polygon fill="midnightblue" stroke="midnightblue" points="530.42,-229.55 536.75,-221.05 526.51,-223.75 530.42,-229.55"/>
</g>
<!-- Node4 -->
<g id="node4" class="node">
<title>Node4</title>
<g id="a_node4"><a xlink:href="a00454.xhtml#a463c7570302112f307363ec1c7260221" target="_top" xlink:title=" ">
<polygon fill="white" stroke="black" points="312.5,-354 312.5,-373 426.5,-373 426.5,-354 312.5,-354"/>
<text text-anchor="middle" x="369.5" y="-361" font-family="Helvetica,sans-Serif" font-size="10.00">CChordIf::compChords</text>
</a>
</g>
</g>
<!-- Node1&#45;&gt;Node4 -->
<g id="edge3" class="edge">
<title>Node1&#45;&gt;Node4</title>
<path fill="none" stroke="midnightblue" d="M540.22,-230.42C524.16,-259.54 489.43,-315.03 444,-344.5 438.03,-348.37 431.31,-351.46 424.42,-353.91"/>
<polygon fill="midnightblue" stroke="midnightblue" points="543.46,-231.78 545.1,-221.31 537.29,-228.47 543.46,-231.78"/>
</g>
<!-- Node6 -->
<g id="node6" class="node">
<title>Node6</title>
<g id="a_node6"><a xlink:href="a00522.xhtml#a5c6fea7fdc8067f1d6a116b86d543aa1" target="_top" xlink:title=" ">
<polygon fill="white" stroke="black" points="323.5,-316 323.5,-335 415.5,-335 415.5,-316 323.5,-316"/>
<text text-anchor="middle" x="369.5" y="-323" font-family="Helvetica,sans-Serif" font-size="10.00">CPitchIf::compF0</text>
</a>
</g>
</g>
<!-- Node1&#45;&gt;Node6 -->
<g id="edge5" class="edge">
<title>Node1&#45;&gt;Node6</title>
<path fill="none" stroke="midnightblue" d="M534.15,-228.5C514.66,-248.5 479.74,-281.52 444,-301.5 433.22,-307.53 420.7,-312.32 409.07,-315.99"/>
<polygon fill="midnightblue" stroke="midnightblue" points="536.9,-230.68 541.29,-221.04 531.85,-225.84 536.9,-230.68"/>
</g>
<!-- Node8 -->
<g id="node8" class="node">
<title>Node8</title>
<g id="a_node8"><a xlink:href="a00466.xhtml#a30248aa1fb336095d4d86d0bd3d2bdb8" target="_top" xlink:title=" ">
<polygon fill="white" stroke="black" points="296.5,-202 296.5,-221 442.5,-221 442.5,-202 296.5,-202"/>
<text text-anchor="middle" x="369.5" y="-209" font-family="Helvetica,sans-Serif" font-size="10.00">CFeatureIf::compFeature1Dim</text>
</a>
</g>
</g>
<!-- Node1&#45;&gt;Node8 -->
<g id="edge7" class="edge">
<title>Node1&#45;&gt;Node8</title>
<path fill="none" stroke="midnightblue" d="M469.73,-211.5C460.73,-211.5 451.59,-211.5 442.69,-211.5"/>
<polygon fill="midnightblue" stroke="midnightblue" points="469.83,-215 479.83,-211.5 469.83,-208 469.83,-215"/>
</g>
<!-- Node10 -->
<g id="node10" class="node">
<title>Node10</title>
<g id="a_node10"><a xlink:href="a00466.xhtml#ad734d1e300583449f51e6ca80aa3e7b8" target="_top" xlink:title=" ">
<polygon fill="white" stroke="black" points="295,-164 295,-183 444,-183 444,-164 295,-164"/>
<text text-anchor="middle" x="369.5" y="-171" font-family="Helvetica,sans-Serif" font-size="10.00">CFeatureIf::compFeatureNDim</text>
</a>
</g>
</g>
<!-- Node1&#45;&gt;Node10 -->
<g id="edge9" class="edge">
<title>Node1&#45;&gt;Node10</title>
<path fill="none" stroke="midnightblue" d="M494.82,-199.82C469.37,-194.43 439.53,-188.11 415.47,-183.02"/>
<polygon fill="midnightblue" stroke="midnightblue" points="494.2,-203.26 504.7,-201.91 495.65,-196.42 494.2,-203.26"/>
</g>
<!-- Node13 -->
<g id="node13" class="node">
<title>Node13</title>
<g id="a_node13"><a xlink:href="a00554.xhtml#afc0be480801465a0751b8c74806bf590" target="_top" xlink:title=" ">
<polygon fill="white" stroke="black" points="298,-126 298,-145 441,-145 441,-126 298,-126"/>
<text text-anchor="middle" x="369.5" y="-133" font-family="Helvetica,sans-Serif" font-size="10.00">CFingerprint::compFingerprint</text>
</a>
</g>
</g>
<!-- Node1&#45;&gt;Node13 -->
<g id="edge13" class="edge">
<title>Node1&#45;&gt;Node13</title>
<path fill="none" stroke="midnightblue" d="M526.56,-196.76C505.58,-184.11 473.66,-166.11 444,-154.5 434.67,-150.85 424.41,-147.69 414.58,-145.05"/>
<polygon fill="midnightblue" stroke="midnightblue" points="524.75,-199.76 535.11,-202 528.4,-193.79 524.75,-199.76"/>
</g>
<!-- Node15 -->
<g id="node15" class="node">
<title>Node15</title>
<g id="a_node15"><a xlink:href="a00514.xhtml#a9f110985f86064fa24aa3157bfd5cab0" target="_top" xlink:title=" ">
<polygon fill="white" stroke="black" points="307.5,-240 307.5,-259 431.5,-259 431.5,-240 307.5,-240"/>
<text text-anchor="middle" x="369.5" y="-247" font-family="Helvetica,sans-Serif" font-size="10.00">CNoveltyIf::compNovelty</text>
</a>
</g>
</g>
<!-- Node1&#45;&gt;Node15 -->
<g id="edge15" class="edge">
<title>Node1&#45;&gt;Node15</title>
<path fill="none" stroke="midnightblue" d="M494.82,-223.18C469.37,-228.57 439.53,-234.89 415.47,-239.98"/>
<polygon fill="midnightblue" stroke="midnightblue" points="495.65,-226.58 504.7,-221.09 494.2,-219.74 495.65,-226.58"/>
</g>
<!-- Node17 -->
<g id="node17" class="node">
<title>Node17</title>
<g id="a_node17"><a xlink:href="a00530.xhtml#abe25089ec6ef77b0b9952c33a7a8d739" target="_top" xlink:title=" ">
<polygon fill="white" stroke="black" points="296.5,-76.5 296.5,-106.5 442.5,-106.5 442.5,-76.5 296.5,-76.5"/>
<text text-anchor="start" x="304.5" y="-94.5" font-family="Helvetica,sans-Serif" font-size="10.00">CSpectrogramIf::computeMag</text>
<text text-anchor="middle" x="369.5" y="-83.5" font-family="Helvetica,sans-Serif" font-size="10.00">Spectrum_</text>
</a>
</g>
</g>
<!-- Node1&#45;&gt;Node17 -->
<g id="edge18" class="edge">
<title>Node1&#45;&gt;Node17</title>
<path fill="none" stroke="midnightblue" d="M534.86,-194.19C515.63,-173.17 480.53,-137.87 444,-116.5 437.6,-112.76 430.56,-109.47 423.45,-106.61"/>
<polygon fill="midnightblue" stroke="midnightblue" points="532.35,-196.64 541.64,-201.74 537.56,-191.96 532.35,-196.64"/>
</g>
<!-- Node22 -->
<g id="node22" class="node">
<title>Node22</title>
<g id="a_node22"><a xlink:href="a00558.xhtml#a213a39329bd7d70dbd90df71d1cf0735" target="_top" xlink:title=" ">
<polygon fill="white" stroke="black" points="301.5,-22 301.5,-41 437.5,-41 437.5,-22 301.5,-22"/>
<text text-anchor="middle" x="369.5" y="-29" font-family="Helvetica,sans-Serif" font-size="10.00">CGammaToneFbIf::process</text>
</a>
</g>
</g>
<!-- Node1&#45;&gt;Node22 -->
<g id="edge23" class="edge">
<title>Node1&#45;&gt;Node22</title>
<path fill="none" stroke="midnightblue" d="M540.25,-192.95C523.84,-163.17 488.1,-104.33 444,-67.5 430.26,-56.02 412.24,-47.12 397.48,-41.04"/>
<polygon fill="midnightblue" stroke="midnightblue" points="537.23,-194.72 545.07,-201.86 543.39,-191.4 537.23,-194.72"/>
</g>
<!-- Node3 -->
<g id="node3" class="node">
<title>Node3</title>
<g id="a_node3"><a xlink:href="a00020.xhtml#a0ddf1224851353fc92bfbff6f499fa97" target="_top" xlink:title=" ">
<polygon fill="white" stroke="black" points="0,-278 0,-297 38,-297 38,-278 0,-278"/>
<text text-anchor="middle" x="19" y="-285" font-family="Helvetica,sans-Serif" font-size="10.00">main</text>
</a>
</g>
</g>
<!-- Node2&#45;&gt;Node3 -->
<g id="edge2" class="edge">
<title>Node2&#45;&gt;Node3</title>
<path fill="none" stroke="midnightblue" d="M83.48,-287.5C66.36,-287.5 49.95,-287.5 38.1,-287.5"/>
<polygon fill="midnightblue" stroke="midnightblue" points="83.6,-291 93.6,-287.5 83.6,-284 83.6,-291"/>
</g>
<!-- Node5 -->
<g id="node5" class="node">
<title>Node5</title>
<g id="a_node5"><a xlink:href="a00032.xhtml#a0ddf1224851353fc92bfbff6f499fa97" target="_top" xlink:title=" ">
<polygon fill="white" stroke="black" points="147.5,-354 147.5,-373 185.5,-373 185.5,-354 147.5,-354"/>
<text text-anchor="middle" x="166.5" y="-361" font-family="Helvetica,sans-Serif" font-size="10.00">main</text>
</a>
</g>
</g>
<!-- Node4&#45;&gt;Node5 -->
<g id="edge4" class="edge">
<title>Node4&#45;&gt;Node5</title>
<path fill="none" stroke="midnightblue" d="M302.06,-363.5C261.2,-363.5 211.83,-363.5 185.73,-363.5"/>
<polygon fill="midnightblue" stroke="midnightblue" points="302.24,-367 312.24,-363.5 302.24,-360 302.24,-367"/>
</g>
<!-- Node7 -->
<g id="node7" class="node">
<title>Node7</title>
<g id="a_node7"><a xlink:href="a00005.xhtml#a0ddf1224851353fc92bfbff6f499fa97" target="_top" xlink:title=" ">
<polygon fill="white" stroke="black" points="147.5,-316 147.5,-335 185.5,-335 185.5,-316 147.5,-316"/>
<text text-anchor="middle" x="166.5" y="-323" font-family="Helvetica,sans-Serif" font-size="10.00">main</text>
</a>
</g>
</g>
<!-- Node6&#45;&gt;Node7 -->
<g id="edge6" class="edge">
<title>Node6&#45;&gt;Node7</title>
<path fill="none" stroke="midnightblue" d="M313.18,-325.5C270.66,-325.5 214.52,-325.5 185.94,-325.5"/>
<polygon fill="midnightblue" stroke="midnightblue" points="313.39,-329 323.39,-325.5 313.39,-322 313.39,-329"/>
</g>
<!-- Node9 -->
<g id="node9" class="node">
<title>Node9</title>
<g id="a_node9"><a xlink:href="a00002.xhtml#a0ddf1224851353fc92bfbff6f499fa97" target="_top" xlink:title=" ">
<polygon fill="white" stroke="black" points="147.5,-202 147.5,-221 185.5,-221 185.5,-202 147.5,-202"/>
<text text-anchor="middle" x="166.5" y="-209" font-family="Helvetica,sans-Serif" font-size="10.00">main</text>
</a>
</g>
</g>
<!-- Node8&#45;&gt;Node9 -->
<g id="edge8" class="edge">
<title>Node8&#45;&gt;Node9</title>
<path fill="none" stroke="midnightblue" d="M285.88,-211.5C248.85,-211.5 208.48,-211.5 185.75,-211.5"/>
<polygon fill="midnightblue" stroke="midnightblue" points="286.22,-215 296.22,-211.5 286.22,-208 286.22,-215"/>
</g>
<!-- Node10&#45;&gt;Node9 -->
<g id="edge12" class="edge">
<title>Node10&#45;&gt;Node9</title>
<path fill="none" stroke="midnightblue" d="M308.21,-184.9C266.35,-192.81 213.35,-202.83 185.89,-208.02"/>
<polygon fill="midnightblue" stroke="midnightblue" points="308.86,-188.34 318.04,-183.04 307.56,-181.46 308.86,-188.34"/>
</g>
<!-- Node11 -->
<g id="node11" class="node">
<title>Node11</title>
<g id="a_node11"><a xlink:href="a00506.xhtml#a343e6b52e9696244dd57d4db0f91d056" target="_top" xlink:title=" ">
<polygon fill="white" stroke="black" points="124,-164 124,-183 209,-183 209,-164 124,-164"/>
<text text-anchor="middle" x="166.5" y="-171" font-family="Helvetica,sans-Serif" font-size="10.00">CKey::compKey</text>
</a>
</g>
</g>
<!-- Node10&#45;&gt;Node11 -->
<g id="edge10" class="edge">
<title>Node10&#45;&gt;Node11</title>
<path fill="none" stroke="midnightblue" d="M284.52,-173.5C258.47,-173.5 230.89,-173.5 209.06,-173.5"/>
<polygon fill="midnightblue" stroke="midnightblue" points="284.8,-177 294.8,-173.5 284.8,-170 284.8,-177"/>
</g>
<!-- Node12 -->
<g id="node12" class="node">
<title>Node12</title>
<g id="a_node12"><a xlink:href="a00029.xhtml#a0ddf1224851353fc92bfbff6f499fa97" target="_top" xlink:title=" ">
<polygon fill="white" stroke="black" points="0,-164 0,-183 38,-183 38,-164 0,-164"/>
<text text-anchor="middle" x="19" y="-171" font-family="Helvetica,sans-Serif" font-size="10.00">main</text>
</a>
</g>
</g>
<!-- Node11&#45;&gt;Node12 -->
<g id="edge11" class="edge">
<title>Node11&#45;&gt;Node12</title>
<path fill="none" stroke="midnightblue" d="M113.61,-173.5C87.38,-173.5 57.2,-173.5 38.36,-173.5"/>
<polygon fill="midnightblue" stroke="midnightblue" points="113.81,-177 123.81,-173.5 113.81,-170 113.81,-177"/>
</g>
<!-- Node14 -->
<g id="node14" class="node">
<title>Node14</title>
<g id="a_node14"><a xlink:href="a00026.xhtml#a0ddf1224851353fc92bfbff6f499fa97" target="_top" xlink:title=" ">
<polygon fill="white" stroke="black" points="147.5,-126 147.5,-145 185.5,-145 185.5,-126 147.5,-126"/>
<text text-anchor="middle" x="166.5" y="-133" font-family="Helvetica,sans-Serif" font-size="10.00">main</text>
</a>
</g>
</g>
<!-- Node13&#45;&gt;Node14 -->
<g id="edge14" class="edge">
<title>Node13&#45;&gt;Node14</title>
<path fill="none" stroke="midnightblue" d="M287.46,-135.5C249.95,-135.5 208.69,-135.5 185.65,-135.5"/>
<polygon fill="midnightblue" stroke="midnightblue" points="287.92,-139 297.92,-135.5 287.92,-132 287.92,-139"/>
</g>
<!-- Node15&#45;&gt;Node2 -->
<g id="edge16" class="edge">
<title>Node15&#45;&gt;Node2</title>
<path fill="none" stroke="midnightblue" d="M308.1,-260.92C279.34,-266.36 245.34,-272.78 217.98,-277.96"/>
<polygon fill="midnightblue" stroke="midnightblue" points="308.86,-264.34 318.04,-259.04 307.56,-257.46 308.86,-264.34"/>
</g>
<!-- Node16 -->
<g id="node16" class="node">
<title>Node16</title>
<g id="a_node16"><a xlink:href="a00017.xhtml#a0ddf1224851353fc92bfbff6f499fa97" target="_top" xlink:title=" ">
<polygon fill="white" stroke="black" points="147.5,-240 147.5,-259 185.5,-259 185.5,-240 147.5,-240"/>
<text text-anchor="middle" x="166.5" y="-247" font-family="Helvetica,sans-Serif" font-size="10.00">main</text>
</a>
</g>
</g>
<!-- Node15&#45;&gt;Node16 -->
<g id="edge17" class="edge">
<title>Node15&#45;&gt;Node16</title>
<path fill="none" stroke="midnightblue" d="M297.14,-249.5C257.3,-249.5 210.77,-249.5 185.72,-249.5"/>
<polygon fill="midnightblue" stroke="midnightblue" points="297.37,-253 307.37,-249.5 297.37,-246 297.37,-253"/>
</g>
<!-- Node18 -->
<g id="node18" class="node">
<title>Node18</title>
<g id="a_node18"><a xlink:href="a00530.xhtml#ae89af275cdd54029bbf7f0f25ddf7945" target="_top" xlink:title=" ">
<polygon fill="white" stroke="black" points="74,-88 74,-107 259,-107 259,-88 74,-88"/>
<text text-anchor="middle" x="166.5" y="-95" font-family="Helvetica,sans-Serif" font-size="10.00">CSpectrogramIf::compMelSpectrogram</text>
</a>
</g>
</g>
<!-- Node17&#45;&gt;Node18 -->
<g id="edge19" class="edge">
<title>Node17&#45;&gt;Node18</title>
<path fill="none" stroke="midnightblue" d="M285.93,-93.96C277.09,-94.23 268.04,-94.5 259.1,-94.77"/>
<polygon fill="midnightblue" stroke="midnightblue" points="286.33,-97.45 296.22,-93.66 286.12,-90.46 286.33,-97.45"/>
</g>
<!-- Node20 -->
<g id="node20" class="node">
<title>Node20</title>
<g id="a_node20"><a xlink:href="a00530.xhtml#ae041a770ec2b092761d9a88cc87946bb" target="_top" xlink:title=" ">
<polygon fill="white" stroke="black" points="82,-50 82,-69 251,-69 251,-50 82,-50"/>
<text text-anchor="middle" x="166.5" y="-57" font-family="Helvetica,sans-Serif" font-size="10.00">CSpectrogramIf::compSpectrogram</text>
</a>
</g>
</g>
<!-- Node17&#45;&gt;Node20 -->
<g id="edge21" class="edge">
<title>Node17&#45;&gt;Node20</title>
<path fill="none" stroke="midnightblue" d="M286.29,-78.41C266.52,-75.26 245.77,-71.96 227.24,-69.01"/>
<polygon fill="midnightblue" stroke="midnightblue" points="285.79,-81.88 296.22,-79.99 286.89,-74.96 285.79,-81.88"/>
</g>
<!-- Node19 -->
<g id="node19" class="node">
<title>Node19</title>
<g id="a_node19"><a xlink:href="a00035.xhtml#a0ddf1224851353fc92bfbff6f499fa97" target="_top" xlink:title=" ">
<polygon fill="white" stroke="black" points="0,-88 0,-107 38,-107 38,-88 0,-88"/>
<text text-anchor="middle" x="19" y="-95" font-family="Helvetica,sans-Serif" font-size="10.00">main</text>
</a>
</g>
</g>
<!-- Node18&#45;&gt;Node19 -->
<g id="edge20" class="edge">
<title>Node18&#45;&gt;Node19</title>
<path fill="none" stroke="midnightblue" d="M63.63,-97.5C54.14,-97.5 45.44,-97.5 38.35,-97.5"/>
<polygon fill="midnightblue" stroke="midnightblue" points="63.77,-101 73.77,-97.5 63.77,-94 63.77,-101"/>
</g>
<!-- Node21 -->
<g id="node21" class="node">
<title>Node21</title>
<g id="a_node21"><a xlink:href="a00023.xhtml#a0ddf1224851353fc92bfbff6f499fa97" target="_top" xlink:title=" ">
<polygon fill="white" stroke="black" points="0,-50 0,-69 38,-69 38,-50 0,-50"/>
<text text-anchor="middle" x="19" y="-57" font-family="Helvetica,sans-Serif" font-size="10.00">main</text>
</a>
</g>
</g>
<!-- Node20&#45;&gt;Node21 -->
<g id="edge22" class="edge">
<title>Node20&#45;&gt;Node21</title>
<path fill="none" stroke="midnightblue" d="M71.45,-59.5C58.86,-59.5 47.21,-59.5 38.19,-59.5"/>
<polygon fill="midnightblue" stroke="midnightblue" points="71.71,-63 81.71,-59.5 71.71,-56 71.71,-63"/>
</g>
<!-- Node23 -->
<g id="node23" class="node">
<title>Node23</title>
<g id="a_node23"><a xlink:href="a00390.xhtml#a7fa2c23a2108dc313f319ec803a6181f" target="_top" xlink:title=" ">
<polygon fill="white" stroke="black" points="115,-0.5 115,-30.5 218,-30.5 218,-0.5 115,-0.5"/>
<text text-anchor="start" x="123" y="-18.5" font-family="Helvetica,sans-Serif" font-size="10.00">CPitchTimeAuditory</text>
<text text-anchor="middle" x="166.5" y="-7.5" font-family="Helvetica,sans-Serif" font-size="10.00">::compF0</text>
</a>
</g>
</g>
<!-- Node22&#45;&gt;Node23 -->
<g id="edge24" class="edge">
<title>Node22&#45;&gt;Node23</title>
<path fill="none" stroke="midnightblue" d="M291.28,-25.35C266.75,-23.4 240.26,-21.29 218.1,-19.53"/>
<polygon fill="midnightblue" stroke="midnightblue" points="291.04,-28.85 301.29,-26.15 291.6,-21.87 291.04,-28.85"/>
</g>
</g>
</svg>
