<?xml version="1.0" encoding="UTF-8" standalone="no"?>
<!DOCTYPE svg PUBLIC "-//W3C//DTD SVG 1.1//EN"
 "http://www.w3.org/Graphics/SVG/1.1/DTD/svg11.dtd">
<!-- Generated by graphviz version 12.2.1 (20241206.2353)
 -->
<!-- Title: CNoveltyIf::operator= Pages: 1 -->
<svg width="913pt" height="150pt"
 viewBox="0.00 0.00 912.50 150.25" xmlns="http://www.w3.org/2000/svg" xmlns:xlink="http://www.w3.org/1999/xlink">
<g id="graph0" class="graph" transform="scale(1 1) rotate(0) translate(4 146.25)">
<title>CNoveltyIf::operator=</title>
<!-- Node1 -->
<g id="Node000001" class="node">
<title>Node1</title>
<g id="a_Node000001"><a xlink:title=" ">
<polygon fill="#999999" stroke="#666666" points="107.5,-83.25 0,-83.25 0,-64 107.5,-64 107.5,-83.25"/>
<text text-anchor="middle" x="53.75" y="-69.75" font-family="Helvetica,sans-Serif" font-size="10.00">CNoveltyIf::operator=</text>
</a>
</g>
</g>
<!-- Node2 -->
<g id="Node000002" class="node">
<title>Node2</title>
<g id="a_Node000002"><a xlink:href="a00517.xhtml#a120b69bf1f92d3f00ef515518a9dc604" target="_top" xlink:title=" ">
<polygon fill="white" stroke="#666666" points="255.5,-83.25 143.5,-83.25 143.5,-64 255.5,-64 255.5,-83.25"/>
<text text-anchor="middle" x="199.5" y="-69.75" font-family="Helvetica,sans-Serif" font-size="10.00">CNoveltyIf::CNoveltyIf</text>
</a>
</g>
</g>
<!-- Node1&#45;&gt;Node2 -->
<g id="edge1_Node000001_Node000002" class="edge">
<title>Node1&#45;&gt;Node2</title>
<g id="a_edge1_Node000001_Node000002"><a xlink:title=" ">
<path fill="none" stroke="#63b8ff" d="M107.87,-73.62C115.7,-73.62 123.84,-73.62 131.9,-73.62"/>
<polygon fill="#63b8ff" stroke="#63b8ff" points="131.68,-77.13 141.68,-73.63 131.68,-70.13 131.68,-77.13"/>
</a>
</g>
</g>
<!-- Node3 -->
<g id="Node000003" class="node">
<title>Node3</title>
<g id="a_Node000003"><a xlink:href="a00517.xhtml#a119fc32e085bb978525ea9596ee2e9c1" target="_top" xlink:title="reset configuration">
<polygon fill="white" stroke="#666666" points="384.75,-83.25 291.5,-83.25 291.5,-64 384.75,-64 384.75,-83.25"/>
<text text-anchor="middle" x="338.12" y="-69.75" font-family="Helvetica,sans-Serif" font-size="10.00">CNoveltyIf::reset_</text>
</a>
</g>
</g>
<!-- Node2&#45;&gt;Node3 -->
<g id="edge2_Node000002_Node000003" class="edge">
<title>Node2&#45;&gt;Node3</title>
<g id="a_edge2_Node000002_Node000003"><a xlink:title=" ">
<path fill="none" stroke="#63b8ff" d="M255.68,-73.62C263.73,-73.62 272.04,-73.62 280.13,-73.62"/>
<polygon fill="#63b8ff" stroke="#63b8ff" points="279.86,-77.13 289.86,-73.63 279.86,-70.13 279.86,-77.13"/>
</a>
</g>
</g>
<!-- Node4 -->
<g id="Node000004" class="node">
<title>Node4</title>
<g id="a_Node000004"><a xlink:href="a00545.xhtml#a13d2bd6e36210dde0c64d188c1266b88" target="_top" xlink:title=" ">
<polygon fill="white" stroke="#666666" points="541,-142.25 426.75,-142.25 426.75,-123 541,-123 541,-142.25"/>
<text text-anchor="middle" x="483.88" y="-128.75" font-family="Helvetica,sans-Serif" font-size="10.00">CBlockAudioIf::destroy</text>
</a>
</g>
</g>
<!-- Node3&#45;&gt;Node4 -->
<g id="edge3_Node000003_Node000004" class="edge">
<title>Node3&#45;&gt;Node4</title>
<g id="a_edge3_Node000003_Node000004"><a xlink:title=" ">
<path fill="none" stroke="#63b8ff" d="M356.85,-83.72C373.09,-92.68 398.01,-105.71 420.75,-114.62 424.81,-116.22 429.07,-117.74 433.37,-119.18"/>
<polygon fill="#63b8ff" stroke="#63b8ff" points="432.03,-122.43 442.62,-122.11 434.15,-115.75 432.03,-122.43"/>
</a>
</g>
</g>
<!-- Node6 -->
<g id="Node000006" class="node">
<title>Node6</title>
<g id="a_Node000006"><a xlink:href="a00589.xhtml#a5a6b1921f58c43d9daa618a97e62754f" target="_top" xlink:title=" ">
<polygon fill="white" stroke="#666666" points="547,-105.25 420.75,-105.25 420.75,-86 547,-86 547,-105.25"/>
<text text-anchor="middle" x="483.88" y="-91.75" font-family="Helvetica,sans-Serif" font-size="10.00">CMovingAverage::destroy</text>
</a>
</g>
</g>
<!-- Node3&#45;&gt;Node6 -->
<g id="edge5_Node000003_Node000006" class="edge">
<title>Node3&#45;&gt;Node6</title>
<g id="a_edge5_Node000003_Node000006"><a xlink:title=" ">
<path fill="none" stroke="#63b8ff" d="M385,-80.65C392.74,-81.83 400.95,-83.09 409.18,-84.35"/>
<polygon fill="#63b8ff" stroke="#63b8ff" points="408.48,-87.78 418.9,-85.83 409.54,-80.86 408.48,-87.78"/>
</a>
</g>
</g>
<!-- Node9 -->
<g id="Node000009" class="node">
<title>Node9</title>
<g id="a_Node000009"><a xlink:href="a00521.xhtml#a2066599bb659fd90d13bc8a57dec005e" target="_top" xlink:title=" ">
<polygon fill="white" stroke="#666666" points="538.38,-67.88 429.38,-67.88 429.38,-37.38 538.38,-37.38 538.38,-67.88"/>
<text text-anchor="start" x="437.38" y="-54.38" font-family="Helvetica,sans-Serif" font-size="10.00">CNoveltyFromBlockIf</text>
<text text-anchor="middle" x="483.88" y="-43.12" font-family="Helvetica,sans-Serif" font-size="10.00">::destroy</text>
</a>
</g>
</g>
<!-- Node3&#45;&gt;Node9 -->
<g id="edge8_Node000003_Node000009" class="edge">
<title>Node3&#45;&gt;Node9</title>
<g id="a_edge8_Node000003_Node000009"><a xlink:title=" ">
<path fill="none" stroke="#63b8ff" d="M385,-66.92C395.37,-65.41 406.57,-63.77 417.57,-62.17"/>
<polygon fill="#63b8ff" stroke="#63b8ff" points="418.02,-65.64 427.41,-60.73 417.01,-58.71 418.02,-65.64"/>
</a>
</g>
</g>
<!-- Node11 -->
<g id="Node000011" class="node">
<title>Node11</title>
<g id="a_Node000011"><a xlink:href="a00505.xhtml#aa86bdb0c663d4d52f2765793756f8737" target="_top" xlink:title=" ">
<polygon fill="white" stroke="#666666" points="520,-19.25 447.75,-19.25 447.75,0 520,0 520,-19.25"/>
<text text-anchor="middle" x="483.88" y="-5.75" font-family="Helvetica,sans-Serif" font-size="10.00">CVector::free</text>
</a>
</g>
</g>
<!-- Node3&#45;&gt;Node11 -->
<g id="edge10_Node000003_Node000011" class="edge">
<title>Node3&#45;&gt;Node11</title>
<g id="a_edge10_Node000003_Node000011"><a xlink:title=" ">
<path fill="none" stroke="#63b8ff" d="M354.89,-63.64C370.98,-53.77 396.91,-38.72 420.75,-28.62 425.75,-26.51 431.06,-24.52 436.39,-22.68"/>
<polygon fill="#63b8ff" stroke="#63b8ff" points="437.41,-26.03 445.83,-19.6 435.24,-19.38 437.41,-26.03"/>
</a>
</g>
</g>
<!-- Node5 -->
<g id="Node000005" class="node">
<title>Node5</title>
<g id="a_Node000005"><a xlink:href="a00545.xhtml#a25b4acfbc219a671933702aaf97229fd" target="_top" xlink:title=" ">
<polygon fill="white" stroke="#666666" points="740,-142.25 595,-142.25 595,-123 740,-123 740,-142.25"/>
<text text-anchor="middle" x="667.5" y="-128.75" font-family="Helvetica,sans-Serif" font-size="10.00">CBlockAudioIf::CBlockAudioIf</text>
</a>
</g>
</g>
<!-- Node4&#45;&gt;Node5 -->
<g id="edge4_Node000004_Node000005" class="edge">
<title>Node4&#45;&gt;Node5</title>
<g id="a_edge4_Node000004_Node000005"><a xlink:title=" ">
<path fill="none" stroke="#63b8ff" d="M541.35,-132.62C554.66,-132.62 569.12,-132.62 583.34,-132.62"/>
<polygon fill="#63b8ff" stroke="#63b8ff" points="583.14,-136.13 593.14,-132.63 583.14,-129.13 583.14,-136.13"/>
</a>
</g>
</g>
<!-- Node7 -->
<g id="Node000007" class="node">
<title>Node7</title>
<g id="a_Node000007"><a xlink:href="a00589.xhtml#aa02ee977828ff103f3e2c25889131122" target="_top" xlink:title=" ">
<polygon fill="white" stroke="#666666" points="752,-105.25 583,-105.25 583,-86 752,-86 752,-105.25"/>
<text text-anchor="middle" x="667.5" y="-91.75" font-family="Helvetica,sans-Serif" font-size="10.00">CMovingAverage::CMovingAverage</text>
</a>
</g>
</g>
<!-- Node6&#45;&gt;Node7 -->
<g id="edge6_Node000006_Node000007" class="edge">
<title>Node6&#45;&gt;Node7</title>
<g id="a_edge6_Node000006_Node000007"><a xlink:title=" ">
<path fill="none" stroke="#63b8ff" d="M547.38,-95.62C555.12,-95.62 563.17,-95.62 571.26,-95.62"/>
<polygon fill="#63b8ff" stroke="#63b8ff" points="571.2,-99.13 581.2,-95.63 571.2,-92.13 571.2,-99.13"/>
</a>
</g>
</g>
<!-- Node8 -->
<g id="Node000008" class="node">
<title>Node8</title>
<g id="a_Node000008"><a xlink:href="a00589.xhtml#a9681799055b5a4622d25a70901a65af3" target="_top" xlink:title=" ">
<polygon fill="white" stroke="#666666" points="904.5,-105.25 788,-105.25 788,-86 904.5,-86 904.5,-105.25"/>
<text text-anchor="middle" x="846.25" y="-91.75" font-family="Helvetica,sans-Serif" font-size="10.00">CMovingAverage::reset</text>
</a>
</g>
</g>
<!-- Node7&#45;&gt;Node8 -->
<g id="edge7_Node000007_Node000008" class="edge">
<title>Node7&#45;&gt;Node8</title>
<g id="a_edge7_Node000007_Node000008"><a xlink:title=" ">
<path fill="none" stroke="#63b8ff" d="M752.48,-95.62C760.49,-95.62 768.56,-95.62 776.41,-95.62"/>
<polygon fill="#63b8ff" stroke="#63b8ff" points="776.22,-99.13 786.22,-95.63 776.22,-92.13 776.22,-99.13"/>
</a>
</g>
</g>
<!-- Node10 -->
<g id="Node000010" class="node">
<title>Node10</title>
<g id="a_Node000010"><a xlink:href="a00521.xhtml#a55adbc3ecfeffbeb621875bb56f3bf7f" target="_top" xlink:title=" ">
<polygon fill="white" stroke="#666666" points="724.25,-67.88 610.75,-67.88 610.75,-37.38 724.25,-37.38 724.25,-67.88"/>
<text text-anchor="start" x="618.75" y="-54.38" font-family="Helvetica,sans-Serif" font-size="10.00">CNoveltyFromBlockIf</text>
<text text-anchor="middle" x="667.5" y="-43.12" font-family="Helvetica,sans-Serif" font-size="10.00">::CNoveltyFromBlockIf</text>
</a>
</g>
</g>
<!-- Node9&#45;&gt;Node10 -->
<g id="edge9_Node000009_Node000010" class="edge">
<title>Node9&#45;&gt;Node10</title>
<g id="a_edge9_Node000009_Node000010"><a xlink:title=" ">
<path fill="none" stroke="#63b8ff" d="M538.39,-52.62C557.46,-52.62 579.18,-52.62 599.26,-52.62"/>
<polygon fill="#63b8ff" stroke="#63b8ff" points="599.02,-56.13 609.02,-52.63 599.02,-49.13 599.02,-56.13"/>
</a>
</g>
</g>
</g>
</svg>
