<?xml version="1.0" encoding="UTF-8" standalone="no"?>
<!DOCTYPE svg PUBLIC "-//W3C//DTD SVG 1.1//EN"
 "http://www.w3.org/Graphics/SVG/1.1/DTD/svg11.dtd">
<!-- Generated by graphviz version 4.0.0 (20220602.1335)
 -->
<!-- Title: CNmf::compNmf Pages: 1 -->
<svg width="617pt" height="484pt"
 viewBox="0.00 0.00 617.00 484.00" xmlns="http://www.w3.org/2000/svg" xmlns:xlink="http://www.w3.org/1999/xlink">
<g id="graph0" class="graph" transform="scale(1 1) rotate(0) translate(4 480)">
<title>CNmf::compNmf</title>
<polygon fill="white" stroke="transparent" points="-4,4 -4,-480 613,-480 613,4 -4,4"/>
<!-- Node1 -->
<g id="node1" class="node">
<title>Node1</title>
<g id="a_node1"><a xlink:title=" ">
<polygon fill="#bfbfbf" stroke="black" points="0,-247.5 0,-266.5 89,-266.5 89,-247.5 0,-247.5"/>
<text text-anchor="middle" x="44.5" y="-254.5" font-family="Helvetica,sans-Serif" font-size="10.00">CNmf::compNmf</text>
</a>
</g>
</g>
<!-- Node2 -->
<g id="node2" class="node">
<title>Node2</title>
<g id="a_node2"><a xlink:href="a00590.xhtml#ad023a8d9278037df6a75f3639e28b05d" target="_top" xlink:title=" ">
<polygon fill="white" stroke="black" points="125,-266.5 125,-285.5 247,-285.5 247,-266.5 125,-266.5"/>
<text text-anchor="middle" x="186" y="-273.5" font-family="Helvetica,sans-Serif" font-size="10.00">CNmfResult::isInitialized</text>
</a>
</g>
</g>
<!-- Node1&#45;&gt;Node2 -->
<g id="edge1" class="edge">
<title>Node1&#45;&gt;Node2</title>
<path fill="none" stroke="midnightblue" d="M89.26,-262.96C97.35,-264.06 106,-265.24 114.65,-266.42"/>
<polygon fill="midnightblue" stroke="midnightblue" points="114.41,-269.92 124.79,-267.8 115.35,-262.98 114.41,-269.92"/>
</g>
<!-- Node3 -->
<g id="node3" class="node">
<title>Node3</title>
<g id="a_node3"><a xlink:href="a00594.xhtml#a3286e5142e39f0c59f3615271d08febc" target="_top" xlink:title=" ">
<polygon fill="white" stroke="black" points="139.5,-228.5 139.5,-247.5 232.5,-247.5 232.5,-228.5 139.5,-228.5"/>
<text text-anchor="middle" x="186" y="-235.5" font-family="Helvetica,sans-Serif" font-size="10.00">CNmf::runNmfIter</text>
</a>
</g>
</g>
<!-- Node1&#45;&gt;Node3 -->
<g id="edge2" class="edge">
<title>Node1&#45;&gt;Node3</title>
<path fill="none" stroke="midnightblue" d="M89.26,-251.04C101.99,-249.31 116.07,-247.39 129.43,-245.57"/>
<polygon fill="midnightblue" stroke="midnightblue" points="130.04,-249.02 139.47,-244.2 129.09,-242.08 130.04,-249.02"/>
</g>
<!-- Node4 -->
<g id="node4" class="node">
<title>Node4</title>
<g id="a_node4"><a xlink:href="a00486.xhtml#a0db7af262c6f0cf07d5f478d9e3297e6" target="_top" xlink:title=" ">
<polygon fill="white" stroke="black" points="312.5,-456.5 312.5,-475.5 397.5,-475.5 397.5,-456.5 312.5,-456.5"/>
<text text-anchor="middle" x="355" y="-463.5" font-family="Helvetica,sans-Serif" font-size="10.00">CMatrix::addC_I</text>
</a>
</g>
</g>
<!-- Node3&#45;&gt;Node4 -->
<g id="edge3" class="edge">
<title>Node3&#45;&gt;Node4</title>
<path fill="none" stroke="midnightblue" d="M232.51,-246.43C237.97,-249.06 243.01,-252.5 247,-257 304.04,-321.29 224.52,-384.01 283,-447 288.37,-452.79 295.29,-456.89 302.7,-459.77"/>
<polygon fill="midnightblue" stroke="midnightblue" points="301.68,-463.12 312.27,-462.82 303.81,-456.45 301.68,-463.12"/>
</g>
<!-- Node6 -->
<g id="node6" class="node">
<title>Node6</title>
<g id="a_node6"><a xlink:href="a00486.xhtml#a52d194711681172569d1b796495a224c" target="_top" xlink:title=" ">
<polygon fill="white" stroke="black" points="290,-418.5 290,-437.5 420,-437.5 420,-418.5 290,-418.5"/>
<text text-anchor="middle" x="355" y="-425.5" font-family="Helvetica,sans-Serif" font-size="10.00">CMatrix::calcKlDivergence</text>
</a>
</g>
</g>
<!-- Node3&#45;&gt;Node6 -->
<g id="edge5" class="edge">
<title>Node3&#45;&gt;Node6</title>
<path fill="none" stroke="midnightblue" d="M232.62,-246.74C237.99,-249.33 242.99,-252.68 247,-257 294.24,-307.88 234.62,-359.2 283,-409 284.4,-410.44 285.9,-411.78 287.47,-413.02"/>
<polygon fill="midnightblue" stroke="midnightblue" points="285.62,-415.99 295.93,-418.42 289.39,-410.09 285.62,-415.99"/>
</g>
<!-- Node7 -->
<g id="node7" class="node">
<title>Node7</title>
<g id="a_node7"><a xlink:href="a00486.xhtml#aa633cf46c2b3938a1a7a8199c31051dd" target="_top" xlink:title=" ">
<polygon fill="white" stroke="black" points="318,-380.5 318,-399.5 392,-399.5 392,-380.5 318,-380.5"/>
<text text-anchor="middle" x="355" y="-387.5" font-family="Helvetica,sans-Serif" font-size="10.00">CMatrix::copy</text>
</a>
</g>
</g>
<!-- Node3&#45;&gt;Node7 -->
<g id="edge6" class="edge">
<title>Node3&#45;&gt;Node7</title>
<path fill="none" stroke="midnightblue" d="M232.63,-247.17C237.94,-249.69 242.91,-252.9 247,-257 284.56,-294.59 244.6,-334.27 283,-371 289.84,-377.54 298.68,-381.89 307.78,-384.76"/>
<polygon fill="midnightblue" stroke="midnightblue" points="307.12,-388.21 317.68,-387.34 308.88,-381.43 307.12,-388.21"/>
</g>
<!-- Node9 -->
<g id="node9" class="node">
<title>Node9</title>
<g id="a_node9"><a xlink:href="a00486.xhtml#a88a70757c98b45987bb023fae3d8b27e" target="_top" xlink:title=" ">
<polygon fill="white" stroke="black" points="317.5,-342.5 317.5,-361.5 392.5,-361.5 392.5,-342.5 317.5,-342.5"/>
<text text-anchor="middle" x="355" y="-349.5" font-family="Helvetica,sans-Serif" font-size="10.00">CMatrix::div_I</text>
</a>
</g>
</g>
<!-- Node3&#45;&gt;Node9 -->
<g id="edge8" class="edge">
<title>Node3&#45;&gt;Node9</title>
<path fill="none" stroke="midnightblue" d="M231.81,-247.57C237.31,-250.03 242.55,-253.12 247,-257 275.16,-281.58 254.29,-309.07 283,-333 289.98,-338.82 298.57,-342.87 307.33,-345.69"/>
<polygon fill="midnightblue" stroke="midnightblue" points="306.66,-349.13 317.22,-348.37 308.49,-342.37 306.66,-349.13"/>
</g>
<!-- Node10 -->
<g id="node10" class="node">
<title>Node10</title>
<g id="a_node10"><a xlink:href="a00590.xhtml#a9809e7b2289abd238e992df3b7ad65a0" target="_top" xlink:title=" ">
<polygon fill="white" stroke="black" points="293,-304.5 293,-323.5 417,-323.5 417,-304.5 293,-304.5"/>
<text text-anchor="middle" x="355" y="-311.5" font-family="Helvetica,sans-Serif" font-size="10.00">CNmfResult::getMatCols</text>
</a>
</g>
</g>
<!-- Node3&#45;&gt;Node10 -->
<g id="edge9" class="edge">
<title>Node3&#45;&gt;Node10</title>
<path fill="none" stroke="midnightblue" d="M226.99,-247.54C233.94,-250.06 240.89,-253.17 247,-257 266.72,-269.35 263.01,-283.1 283,-295 286.64,-297.17 290.53,-299.09 294.54,-300.8"/>
<polygon fill="midnightblue" stroke="midnightblue" points="293.48,-304.14 304.07,-304.4 295.95,-297.59 293.48,-304.14"/>
</g>
<!-- Node11 -->
<g id="node11" class="node">
<title>Node11</title>
<g id="a_node11"><a xlink:href="a00590.xhtml#a85d97245bb91969264671387706cd372" target="_top" xlink:title=" ">
<polygon fill="white" stroke="black" points="287.5,-266.5 287.5,-285.5 422.5,-285.5 422.5,-266.5 287.5,-266.5"/>
<text text-anchor="middle" x="355" y="-273.5" font-family="Helvetica,sans-Serif" font-size="10.00">CNmfResult::getMatPointer</text>
</a>
</g>
</g>
<!-- Node3&#45;&gt;Node11 -->
<g id="edge10" class="edge">
<title>Node3&#45;&gt;Node11</title>
<path fill="none" stroke="midnightblue" d="M229.14,-247.59C251.38,-252.65 278.85,-258.9 302.36,-264.25"/>
<polygon fill="midnightblue" stroke="midnightblue" points="301.63,-267.67 312.16,-266.48 303.19,-260.85 301.63,-267.67"/>
</g>
<!-- Node12 -->
<g id="node12" class="node">
<title>Node12</title>
<g id="a_node12"><a xlink:href="a00590.xhtml#a6c61324a24caf454344400a728e09387" target="_top" xlink:title=" ">
<polygon fill="white" stroke="black" points="290.5,-228.5 290.5,-247.5 419.5,-247.5 419.5,-228.5 290.5,-228.5"/>
<text text-anchor="middle" x="355" y="-235.5" font-family="Helvetica,sans-Serif" font-size="10.00">CNmfResult::getMatRows</text>
</a>
</g>
</g>
<!-- Node3&#45;&gt;Node12 -->
<g id="edge11" class="edge">
<title>Node3&#45;&gt;Node12</title>
<path fill="none" stroke="midnightblue" d="M232.63,-238C247.35,-238 264.05,-238 280.26,-238"/>
<polygon fill="midnightblue" stroke="midnightblue" points="280.27,-241.5 290.27,-238 280.27,-234.5 280.27,-241.5"/>
</g>
<!-- Node13 -->
<g id="node13" class="node">
<title>Node13</title>
<g id="a_node13"><a xlink:href="a00486.xhtml#af3b2088c77c6c79fabf823e50327c152" target="_top" xlink:title=" ">
<polygon fill="white" stroke="black" points="309,-190.5 309,-209.5 401,-209.5 401,-190.5 309,-190.5"/>
<text text-anchor="middle" x="355" y="-197.5" font-family="Helvetica,sans-Serif" font-size="10.00">CMatrix::getNorm</text>
</a>
</g>
</g>
<!-- Node3&#45;&gt;Node13 -->
<g id="edge12" class="edge">
<title>Node3&#45;&gt;Node13</title>
<path fill="none" stroke="midnightblue" d="M229.14,-228.41C251.38,-223.35 278.85,-217.1 302.36,-211.75"/>
<polygon fill="midnightblue" stroke="midnightblue" points="303.19,-215.15 312.16,-209.52 301.63,-208.33 303.19,-215.15"/>
</g>
<!-- Node14 -->
<g id="node14" class="node">
<title>Node14</title>
<g id="a_node14"><a xlink:href="a00486.xhtml#aabc5b346338600b0c0dec797abe2b89f" target="_top" xlink:title=" ">
<polygon fill="white" stroke="black" points="316,-152.5 316,-171.5 394,-171.5 394,-152.5 316,-152.5"/>
<text text-anchor="middle" x="355" y="-159.5" font-family="Helvetica,sans-Serif" font-size="10.00">CMatrix::mul_I</text>
</a>
</g>
</g>
<!-- Node3&#45;&gt;Node14 -->
<g id="edge13" class="edge">
<title>Node3&#45;&gt;Node14</title>
<path fill="none" stroke="midnightblue" d="M200.36,-228.45C218.36,-215.97 251.74,-194.17 283,-181 290.28,-177.94 298.18,-175.24 305.99,-172.92"/>
<polygon fill="midnightblue" stroke="midnightblue" points="307.09,-176.25 315.77,-170.18 305.2,-169.51 307.09,-176.25"/>
</g>
<!-- Node15 -->
<g id="node15" class="node">
<title>Node15</title>
<g id="a_node15"><a xlink:href="a00486.xhtml#acba558090ffee6e3a28aee7e38726754" target="_top" xlink:title=" ">
<polygon fill="white" stroke="black" points="303.5,-114.5 303.5,-133.5 406.5,-133.5 406.5,-114.5 303.5,-114.5"/>
<text text-anchor="middle" x="355" y="-121.5" font-family="Helvetica,sans-Serif" font-size="10.00">CMatrix::mulMatMat</text>
</a>
</g>
</g>
<!-- Node3&#45;&gt;Node15 -->
<g id="edge14" class="edge">
<title>Node3&#45;&gt;Node15</title>
<path fill="none" stroke="midnightblue" d="M194,-228.26C208.4,-208.96 243.34,-165.75 283,-143 286.9,-140.76 291.08,-138.78 295.38,-137.02"/>
<polygon fill="midnightblue" stroke="midnightblue" points="296.73,-140.25 304.92,-133.54 294.33,-133.68 296.73,-140.25"/>
</g>
<!-- Node16 -->
<g id="node16" class="node">
<title>Node16</title>
<g id="a_node16"><a xlink:href="a00486.xhtml#a8c7b91818cdb1dd765ff8add1eb87a2b" target="_top" xlink:title=" ">
<polygon fill="white" stroke="black" points="283,-76.5 283,-95.5 427,-95.5 427,-76.5 283,-76.5"/>
<text text-anchor="middle" x="355" y="-83.5" font-family="Helvetica,sans-Serif" font-size="10.00">CMatrix::setZeroBelowThresh</text>
</a>
</g>
</g>
<!-- Node3&#45;&gt;Node16 -->
<g id="edge15" class="edge">
<title>Node3&#45;&gt;Node16</title>
<path fill="none" stroke="midnightblue" d="M191.19,-228.21C202.29,-203.49 234.94,-138.13 283,-105 285.93,-102.98 289.05,-101.18 292.31,-99.57"/>
<polygon fill="midnightblue" stroke="midnightblue" points="293.94,-102.68 301.74,-95.52 291.17,-96.25 293.94,-102.68"/>
</g>
<!-- Node18 -->
<g id="node18" class="node">
<title>Node18</title>
<g id="a_node18"><a xlink:href="a00486.xhtml#a8b496f71fd36ee5afe60619df6cd657a" target="_top" xlink:title=" ">
<polygon fill="white" stroke="black" points="306.5,-38.5 306.5,-57.5 403.5,-57.5 403.5,-38.5 306.5,-38.5"/>
<text text-anchor="middle" x="355" y="-45.5" font-family="Helvetica,sans-Serif" font-size="10.00">CMatrix::transpose</text>
</a>
</g>
</g>
<!-- Node3&#45;&gt;Node18 -->
<g id="edge17" class="edge">
<title>Node3&#45;&gt;Node18</title>
<path fill="none" stroke="midnightblue" d="M189.6,-228.09C197.84,-198.66 226.27,-111.06 283,-67 287.18,-63.76 291.86,-61.07 296.78,-58.83"/>
<polygon fill="midnightblue" stroke="midnightblue" points="298.4,-61.96 306.45,-55.08 295.87,-55.43 298.4,-61.96"/>
</g>
<!-- Node19 -->
<g id="node19" class="node">
<title>Node19</title>
<g id="a_node19"><a xlink:href="a00486.xhtml#a1553f74613e06cf72a741728231e88cb" target="_top" xlink:title=" ">
<polygon fill="white" stroke="black" points="305,-0.5 305,-19.5 405,-19.5 405,-0.5 305,-0.5"/>
<text text-anchor="middle" x="355" y="-7.5" font-family="Helvetica,sans-Serif" font-size="10.00">CMatrix::vecnorm_I</text>
</a>
</g>
</g>
<!-- Node3&#45;&gt;Node19 -->
<g id="edge18" class="edge">
<title>Node3&#45;&gt;Node19</title>
<path fill="none" stroke="midnightblue" d="M188.47,-228.36C194.06,-195.17 217.08,-84.62 283,-29 286.76,-25.82 291.01,-23.17 295.5,-20.96"/>
<polygon fill="midnightblue" stroke="midnightblue" points="297.1,-24.09 304.99,-17.02 294.42,-17.62 297.1,-24.09"/>
</g>
<!-- Node5 -->
<g id="node5" class="node">
<title>Node5</title>
<g id="a_node5"><a xlink:href="a00502.xhtml#a22ff86e4fc2f8d5042159d9c84a7ff14" target="_top" xlink:title=" ">
<polygon fill="white" stroke="black" points="492.5,-456.5 492.5,-475.5 579.5,-475.5 579.5,-456.5 492.5,-456.5"/>
<text text-anchor="middle" x="536" y="-463.5" font-family="Helvetica,sans-Serif" font-size="10.00">CVector::addC_I</text>
</a>
</g>
</g>
<!-- Node4&#45;&gt;Node5 -->
<g id="edge4" class="edge">
<title>Node4&#45;&gt;Node5</title>
<path fill="none" stroke="midnightblue" d="M397.52,-466C422.79,-466 455.32,-466 482.39,-466"/>
<polygon fill="midnightblue" stroke="midnightblue" points="482.47,-469.5 492.47,-466 482.47,-462.5 482.47,-469.5"/>
</g>
<!-- Node8 -->
<g id="node8" class="node">
<title>Node8</title>
<g id="a_node8"><a xlink:href="a00502.xhtml#ad7c5cba73e439adac77778f61c9418f0" target="_top" xlink:title=" ">
<polygon fill="white" stroke="black" points="497.5,-380.5 497.5,-399.5 574.5,-399.5 574.5,-380.5 497.5,-380.5"/>
<text text-anchor="middle" x="536" y="-387.5" font-family="Helvetica,sans-Serif" font-size="10.00">CVector::copy</text>
</a>
</g>
</g>
<!-- Node7&#45;&gt;Node8 -->
<g id="edge7" class="edge">
<title>Node7&#45;&gt;Node8</title>
<path fill="none" stroke="midnightblue" d="M392.22,-390C419.55,-390 457.29,-390 487.1,-390"/>
<polygon fill="midnightblue" stroke="midnightblue" points="487.29,-393.5 497.29,-390 487.29,-386.5 487.29,-393.5"/>
</g>
<!-- Node17 -->
<g id="node17" class="node">
<title>Node17</title>
<g id="a_node17"><a xlink:href="a00502.xhtml#aba07261926b4c10ed7fdbe38edf6d16d" target="_top" xlink:title=" ">
<polygon fill="white" stroke="black" points="463,-76.5 463,-95.5 609,-95.5 609,-76.5 463,-76.5"/>
<text text-anchor="middle" x="536" y="-83.5" font-family="Helvetica,sans-Serif" font-size="10.00">CVector::setZeroBelowThresh</text>
</a>
</g>
</g>
<!-- Node16&#45;&gt;Node17 -->
<g id="edge16" class="edge">
<title>Node16&#45;&gt;Node17</title>
<path fill="none" stroke="midnightblue" d="M427,-86C435.49,-86 444.21,-86 452.84,-86"/>
<polygon fill="midnightblue" stroke="midnightblue" points="452.91,-89.5 462.91,-86 452.91,-82.5 452.91,-89.5"/>
</g>
</g>
</svg>
