<?xml version="1.0" encoding="UTF-8" standalone="no"?>
<!DOCTYPE svg PUBLIC "-//W3C//DTD SVG 1.1//EN"
 "http://www.w3.org/Graphics/SVG/1.1/DTD/svg11.dtd">
<!-- Generated by graphviz version 4.0.0 (20220602.1335)
 -->
<!-- Title: CNoveltyIf::init_ Pages: 1 -->
<svg width="268pt" height="88pt"
 viewBox="0.00 0.00 268.00 88.00" xmlns="http://www.w3.org/2000/svg" xmlns:xlink="http://www.w3.org/1999/xlink">
<g id="graph0" class="graph" transform="scale(1 1) rotate(0) translate(4 84)">
<title>CNoveltyIf::init_</title>
<polygon fill="white" stroke="transparent" points="-4,4 -4,-84 264,-84 264,4 -4,4"/>
<!-- Node1 -->
<g id="node1" class="node">
<title>Node1</title>
<g id="a_node1"><a xlink:title="init configuration">
<polygon fill="#bfbfbf" stroke="black" points="175,-30 175,-49 260,-49 260,-30 175,-30"/>
<text text-anchor="middle" x="217.5" y="-37" font-family="Helvetica,sans-Serif" font-size="10.00">CNoveltyIf::init_</text>
</a>
</g>
</g>
<!-- Node2 -->
<g id="node2" class="node">
<title>Node2</title>
<g id="a_node2"><a xlink:href="a00368.xhtml#a0247bb6d1818b840d1182d5ee50214d5" target="_top" xlink:title=" ">
<polygon fill="white" stroke="black" points="0,-49.5 0,-79.5 139,-79.5 139,-49.5 0,-49.5"/>
<text text-anchor="start" x="8" y="-67.5" font-family="Helvetica,sans-Serif" font-size="10.00">CNoveltyFromFile::CNovelty</text>
<text text-anchor="middle" x="69.5" y="-56.5" font-family="Helvetica,sans-Serif" font-size="10.00">FromFile</text>
</a>
</g>
</g>
<!-- Node1&#45;&gt;Node2 -->
<g id="edge1" class="edge">
<title>Node1&#45;&gt;Node2</title>
<path fill="none" stroke="midnightblue" d="M164.75,-48.36C156.44,-49.78 147.72,-51.28 139.08,-52.76"/>
<polygon fill="midnightblue" stroke="midnightblue" points="165.4,-51.8 174.66,-46.66 164.21,-44.9 165.4,-51.8"/>
</g>
<!-- Node3 -->
<g id="node3" class="node">
<title>Node3</title>
<g id="a_node3"><a xlink:href="a00372.xhtml#a8730189fe1aa6b0e557afc04faad9966" target="_top" xlink:title=" ">
<polygon fill="white" stroke="black" points="13.5,-0.5 13.5,-30.5 125.5,-30.5 125.5,-0.5 13.5,-0.5"/>
<text text-anchor="start" x="21.5" y="-18.5" font-family="Helvetica,sans-Serif" font-size="10.00">CNoveltyFromVector</text>
<text text-anchor="middle" x="69.5" y="-7.5" font-family="Helvetica,sans-Serif" font-size="10.00">::CNoveltyFromVector</text>
</a>
</g>
</g>
<!-- Node1&#45;&gt;Node3 -->
<g id="edge2" class="edge">
<title>Node1&#45;&gt;Node3</title>
<path fill="none" stroke="midnightblue" d="M164.75,-30.99C152.09,-28.91 138.5,-26.68 125.69,-24.57"/>
<polygon fill="midnightblue" stroke="midnightblue" points="164.23,-34.45 174.66,-32.62 165.36,-27.55 164.23,-34.45"/>
</g>
</g>
</svg>
