<?xml version="1.0" encoding="UTF-8" standalone="no"?>
<!DOCTYPE svg PUBLIC "-//W3C//DTD SVG 1.1//EN"
 "http://www.w3.org/Graphics/SVG/1.1/DTD/svg11.dtd">
<!-- Generated by graphviz version 12.2.1 (20241206.2353)
 -->
<!-- Title: CGmmClassifier::setNumMixtures Pages: 1 -->
<svg width="427pt" height="27pt"
 viewBox="0.00 0.00 427.25 27.25" xmlns="http://www.w3.org/2000/svg" xmlns:xlink="http://www.w3.org/1999/xlink">
<g id="graph0" class="graph" transform="scale(1 1) rotate(0) translate(4 23.25)">
<title>CGmmClassifier::setNumMixtures</title>
<!-- Node1 -->
<g id="Node000001" class="node">
<title>Node1</title>
<g id="a_Node000001"><a xlink:title=" ">
<polygon fill="#999999" stroke="#666666" points="162.25,-19.25 0,-19.25 0,0 162.25,0 162.25,-19.25"/>
<text text-anchor="middle" x="81.12" y="-5.75" font-family="Helvetica,sans-Serif" font-size="10.00">CGmmClassifier::setNumMixtures</text>
</a>
</g>
</g>
<!-- Node2 -->
<g id="Node000002" class="node">
<title>Node2</title>
<g id="a_Node000002"><a xlink:href="a00573.xhtml#a39ed30e82871139f97a97a9b078d1a6c" target="_top" xlink:title=" ">
<polygon fill="white" stroke="#666666" points="311,-19.25 198.25,-19.25 198.25,0 311,0 311,-19.25"/>
<text text-anchor="middle" x="254.62" y="-5.75" font-family="Helvetica,sans-Serif" font-size="10.00">CGmmClassifier::reset</text>
</a>
</g>
</g>
<!-- Node1&#45;&gt;Node2 -->
<g id="edge1_Node000001_Node000002" class="edge">
<title>Node1&#45;&gt;Node2</title>
<g id="a_edge1_Node000001_Node000002"><a xlink:title=" ">
<path fill="none" stroke="#63b8ff" d="M162.6,-9.62C170.67,-9.62 178.8,-9.62 186.71,-9.62"/>
<polygon fill="#63b8ff" stroke="#63b8ff" points="186.59,-13.13 196.59,-9.63 186.59,-6.13 186.59,-13.13"/>
</a>
</g>
</g>
<!-- Node3 -->
<g id="Node000003" class="node">
<title>Node3</title>
<g id="a_Node000003"><a xlink:href="a00505.xhtml#aa86bdb0c663d4d52f2765793756f8737" target="_top" xlink:title=" ">
<polygon fill="white" stroke="#666666" points="419.25,-19.25 347,-19.25 347,0 419.25,0 419.25,-19.25"/>
<text text-anchor="middle" x="383.12" y="-5.75" font-family="Helvetica,sans-Serif" font-size="10.00">CVector::free</text>
</a>
</g>
</g>
<!-- Node2&#45;&gt;Node3 -->
<g id="edge2_Node000002_Node000003" class="edge">
<title>Node2&#45;&gt;Node3</title>
<g id="a_edge2_Node000002_Node000003"><a xlink:title=" ">
<path fill="none" stroke="#63b8ff" d="M311.48,-9.62C319.39,-9.62 327.46,-9.62 335.18,-9.62"/>
<polygon fill="#63b8ff" stroke="#63b8ff" points="335.05,-13.13 345.05,-9.63 335.05,-6.13 335.05,-13.13"/>
</a>
</g>
</g>
</g>
</svg>
