<?xml version="1.0" encoding="UTF-8" standalone="no"?>
<!DOCTYPE svg PUBLIC "-//W3C//DTD SVG 1.1//EN"
 "http://www.w3.org/Graphics/SVG/1.1/DTD/svg11.dtd">
<!-- Generated by graphviz version 12.2.1 (20241206.2353)
 -->
<!-- Title: CGmm::updateState_ Pages: 1 -->
<!--zoomable 422 -->

<svg id="main" version="1.1" xmlns="http://www.w3.org/2000/svg" xmlns:xlink="http://www.w3.org/1999/xlink" xml:space="preserve" onload="init(evt)">

<style type="text/css"><![CDATA[
.node, .edge {opacity: 0.7;}
.node.selected, .edge.selected {opacity: 1;}
.edge:hover path { stroke: red; }
.edge:hover polygon { stroke: red; fill: red; }
]]></style>

<defs>
  <circle id="rim" cx="0" cy="0" r="7"/>
  <circle id="rim2" cx="0" cy="0" r="3.5"/>
  <g id="zoomPlus">
    <use xlink:href="#rim" fill="#404040"><set attributeName="fill" to="#808080" begin="zoomplus.mouseover" end="zoomplus.mouseout"/></use>
    <path d="M-4,0h8M0,-4v8" fill="none" stroke="white" stroke-width="1.5" pointer-events="none"/>
  </g>
  <g id="zoomMin">
    <use xlink:href="#rim" fill="#404040"><set attributeName="fill" to="#808080" begin="zoomminus.mouseover" end="zoomminus.mouseout"/></use>
    <path d="M-4,0h8" fill="none" stroke="white" stroke-width="1.5" pointer-events="none"/>
  </g>
  <g id="arrowUp" transform="translate(30 24)">
    <use xlink:href="#rim"/>
    <path pointer-events="none" fill="none" stroke="white" stroke-width="1.5" d="M0,-3.0v7 M-2.5,-0.5L0,-3.0L2.5,-0.5"/>
  </g>
  <g id="arrowRight" transform="rotate(90) translate(36 -43)">
    <use xlink:href="#rim"/>
    <path pointer-events="none" fill="none" stroke="white" stroke-width="1.5" d="M0,-3.0v7 M-2.5,-0.5L0,-3.0L2.5,-0.5"/>
  </g>
  <g id="arrowDown" transform="rotate(180) translate(-30 -48)">
    <use xlink:href="#rim"/>
    <path pointer-events="none" fill="none" stroke="white" stroke-width="1.5" d="M0,-3.0v7 M-2.5,-0.5L0,-3.0L2.5,-0.5"/>
  </g>
  <g id="arrowLeft" transform="rotate(270) translate(-36 17)">
    <use xlink:href="#rim"/>
    <path pointer-events="none" fill="none" stroke="white" stroke-width="1.5" d="M0,-3.0v7 M-2.5,-0.5L0,-3.0L2.5,-0.5"/>
  </g>
  <g id="resetDef">
    <use xlink:href="#rim2" fill="#404040"><set attributeName="fill" to="#808080" begin="reset.mouseover" end="reset.mouseout"/></use>
  </g>
</defs>
<script type="application/ecmascript">
var viewWidth = 809;
var viewHeight = 422;
var sectionId = 'dynsection-17';
</script>
<script type="application/ecmascript" xlink:href="svg.min.js"/>
<svg id="graph" class="graph">
<g id="viewport">
<title>CGmm::updateState_</title>
<!-- Node1 -->
<g id="Node000001" class="node">
<title>Node1</title>
<g id="a_Node000001"><a xlink:title=" ">
<polygon fill="#999999" stroke="#666666" points="109,-224.9 0,-224.9 0,-205.65 109,-205.65 109,-224.9"/>
<text text-anchor="middle" x="54.5" y="-211.4" font-family="Helvetica,sans-Serif" font-size="10.00">CGmm::updateState_</text>
</a>
</g>
</g>
<!-- Node2 -->
<g id="Node000002" class="node">
<title>Node2</title>
<g id="a_Node000002"><a xlink:href="a00489.xhtml#af7e18a1023136caf74eb42461bfc3513" target="_top" xlink:title=" ">
<polygon fill="white" stroke="#666666" points="251,-413.9 173.5,-413.9 173.5,-394.65 251,-394.65 251,-413.9"/>
<text text-anchor="middle" x="212.25" y="-400.4" font-family="Helvetica,sans-Serif" font-size="10.00">CMatrix::add_I</text>
</a>
</g>
</g>
<!-- Node1&#45;&gt;Node2 -->
<g id="edge1_Node000001_Node000002" class="edge">
<title>Node1&#45;&gt;Node2</title>
<g id="a_edge1_Node000001_Node000002"><a xlink:title=" ">
<path fill="none" stroke="#63b8ff" d="M57.72,-225.16C64.82,-254.53 89.89,-341.98 145,-386.27 150.18,-390.43 156.24,-393.63 162.56,-396.1"/>
<polygon fill="#63b8ff" stroke="#63b8ff" points="161.29,-399.37 171.88,-399.12 163.45,-392.71 161.29,-399.37"/>
</a>
</g>
</g>
<!-- Node3 -->
<g id="Node000003" class="node">
<title>Node3</title>
<g id="a_Node000003"><a xlink:href="a00505.xhtml#ae6e3545cf196c5e2409365bc62b7c1de" target="_top" xlink:title=" ">
<polygon fill="white" stroke="#666666" points="258.88,-376.9 165.62,-376.9 165.62,-357.65 258.88,-357.65 258.88,-376.9"/>
<text text-anchor="middle" x="212.25" y="-363.4" font-family="Helvetica,sans-Serif" font-size="10.00">CVector::getMean</text>
</a>
</g>
</g>
<!-- Node1&#45;&gt;Node3 -->
<g id="edge2_Node000001_Node000003" class="edge">
<title>Node1&#45;&gt;Node3</title>
<g id="a_edge2_Node000001_Node000003"><a xlink:title=" ">
<path fill="none" stroke="#63b8ff" d="M59.8,-225.15C70.63,-248.92 101.32,-309.78 145,-343.27 149.79,-346.95 155.2,-350.1 160.81,-352.79"/>
<polygon fill="#63b8ff" stroke="#63b8ff" points="159.07,-355.85 169.64,-356.55 161.82,-349.41 159.07,-355.85"/>
</a>
</g>
</g>
<!-- Node4 -->
<g id="Node000004" class="node">
<title>Node4</title>
<g id="a_Node000004"><a xlink:href="a00505.xhtml#abdbcc3898121387f3694f74491b7331e" target="_top" xlink:title=" ">
<polygon fill="white" stroke="#666666" points="405,-357.9 315.5,-357.9 315.5,-338.65 405,-338.65 405,-357.9"/>
<text text-anchor="middle" x="360.25" y="-344.4" font-family="Helvetica,sans-Serif" font-size="10.00">CVector::getSum</text>
</a>
</g>
</g>
<!-- Node1&#45;&gt;Node4 -->
<g id="edge5_Node000001_Node000004" class="edge">
<title>Node1&#45;&gt;Node4</title>
<g id="a_edge5_Node000001_Node000004"><a xlink:title=" ">
<path fill="none" stroke="#63b8ff" d="M61.7,-225.3C74.54,-245.14 106.13,-289.27 145,-310.27 194.38,-336.95 258.6,-345.46 303.81,-347.91"/>
<polygon fill="#63b8ff" stroke="#63b8ff" points="303.5,-351.4 313.65,-348.35 303.82,-344.4 303.5,-351.4"/>
</a>
</g>
</g>
<!-- Node5 -->
<g id="Node000005" class="node">
<title>Node5</title>
<g id="a_Node000005"><a xlink:href="a00565.xhtml#ac8162fe5ba550aafb9fcd45e22739d5f" target="_top" xlink:title=" ">
<polygon fill="white" stroke="#666666" points="265.25,-300.9 159.25,-300.9 159.25,-281.65 265.25,-281.65 265.25,-300.9"/>
<text text-anchor="middle" x="212.25" y="-287.4" font-family="Helvetica,sans-Serif" font-size="10.00">CGmmResult::getMu</text>
</a>
</g>
</g>
<!-- Node1&#45;&gt;Node5 -->
<g id="edge4_Node000001_Node000005" class="edge">
<title>Node1&#45;&gt;Node5</title>
<g id="a_edge4_Node000001_Node000005"><a xlink:title=" ">
<path fill="none" stroke="#63b8ff" d="M70.89,-225.35C88.36,-236.53 117.97,-254.65 145,-267.27 152.62,-270.83 160.93,-274.21 169,-277.25"/>
<polygon fill="#63b8ff" stroke="#63b8ff" points="167.76,-280.52 178.35,-280.65 170.15,-273.94 167.76,-280.52"/>
</a>
</g>
</g>
<!-- Node6 -->
<g id="Node000006" class="node">
<title>Node6</title>
<g id="a_Node000006"><a xlink:href="a00489.xhtml#a49b68b5ae672826ed8c8e3b014e09769" target="_top" xlink:title=" ">
<polygon fill="white" stroke="#666666" points="402.38,-281.9 318.12,-281.9 318.12,-262.65 402.38,-262.65 402.38,-281.9"/>
<text text-anchor="middle" x="360.25" y="-268.4" font-family="Helvetica,sans-Serif" font-size="10.00">CMatrix::mulC_I</text>
</a>
</g>
</g>
<!-- Node1&#45;&gt;Node6 -->
<g id="edge6_Node000001_Node000006" class="edge">
<title>Node1&#45;&gt;Node6</title>
<g id="a_edge6_Node000001_Node000006"><a xlink:title=" ">
<path fill="none" stroke="#63b8ff" d="M101.43,-225.33C115.4,-228.31 130.81,-231.51 145,-234.27 199.97,-244.98 263.13,-256.03 306.55,-263.43"/>
<polygon fill="#63b8ff" stroke="#63b8ff" points="305.76,-266.85 316.21,-265.07 306.94,-259.95 305.76,-266.85"/>
</a>
</g>
</g>
<!-- Node8 -->
<g id="Node000008" class="node">
<title>Node8</title>
<g id="a_Node000008"><a xlink:href="a00489.xhtml#acfa52b112830fff980c9a7aa860c7d4e" target="_top" xlink:title=" ">
<polygon fill="white" stroke="#666666" points="279.5,-224.9 145,-224.9 145,-205.65 279.5,-205.65 279.5,-224.9"/>
<text text-anchor="middle" x="212.25" y="-211.4" font-family="Helvetica,sans-Serif" font-size="10.00">CMatrix::mulColvecRowvec</text>
</a>
</g>
</g>
<!-- Node1&#45;&gt;Node8 -->
<g id="edge8_Node000001_Node000008" class="edge">
<title>Node1&#45;&gt;Node8</title>
<g id="a_edge8_Node000001_Node000008"><a xlink:title=" ">
<path fill="none" stroke="#63b8ff" d="M109.1,-215.27C116.88,-215.27 125.01,-215.27 133.15,-215.27"/>
<polygon fill="#63b8ff" stroke="#63b8ff" points="133.1,-218.77 143.1,-215.27 133.1,-211.77 133.1,-218.77"/>
</a>
</g>
</g>
<!-- Node9 -->
<g id="Node000009" class="node">
<title>Node9</title>
<g id="a_Node000009"><a xlink:href="a00505.xhtml#a269d316eeb6000aac4f57ade32c83127" target="_top" xlink:title=" ">
<polygon fill="white" stroke="#666666" points="261.88,-187.9 162.62,-187.9 162.62,-168.65 261.88,-168.65 261.88,-187.9"/>
<text text-anchor="middle" x="212.25" y="-174.4" font-family="Helvetica,sans-Serif" font-size="10.00">CVector::mulScalar</text>
</a>
</g>
</g>
<!-- Node1&#45;&gt;Node9 -->
<g id="edge9_Node000001_Node000009" class="edge">
<title>Node1&#45;&gt;Node9</title>
<g id="a_edge9_Node000001_Node000009"><a xlink:title=" ">
<path fill="none" stroke="#63b8ff" d="M98.06,-205.16C116.43,-200.8 138.13,-195.64 157.59,-191.02"/>
<polygon fill="#63b8ff" stroke="#63b8ff" points="158.35,-194.43 167.27,-188.72 156.73,-187.62 158.35,-194.43"/>
</a>
</g>
</g>
<!-- Node10 -->
<g id="Node000010" class="node">
<title>Node10</title>
<g id="a_Node000010"><a xlink:href="a00565.xhtml#ab1f629b8a2796b9a64366dfc01b47f99" target="_top" xlink:title=" ">
<polygon fill="white" stroke="#666666" points="265.25,-150.9 159.25,-150.9 159.25,-131.65 265.25,-131.65 265.25,-150.9"/>
<text text-anchor="middle" x="212.25" y="-137.4" font-family="Helvetica,sans-Serif" font-size="10.00">CGmmResult::setMu</text>
</a>
</g>
</g>
<!-- Node1&#45;&gt;Node10 -->
<g id="edge10_Node000001_Node000010" class="edge">
<title>Node1&#45;&gt;Node10</title>
<g id="a_edge10_Node000001_Node000010"><a xlink:title=" ">
<path fill="none" stroke="#63b8ff" d="M68.75,-205.22C85.64,-192.84 116.11,-171.9 145,-159.27 148.6,-157.69 152.38,-156.23 156.22,-154.86"/>
<polygon fill="#63b8ff" stroke="#63b8ff" points="157.28,-158.2 165.71,-151.77 155.11,-151.54 157.28,-158.2"/>
</a>
</g>
</g>
<!-- Node11 -->
<g id="Node000011" class="node">
<title>Node11</title>
<g id="a_Node000011"><a xlink:href="a00565.xhtml#a664515ad2f4fab6188ad24a91fdf7d7f" target="_top" xlink:title=" ">
<polygon fill="white" stroke="#666666" points="268.62,-113.9 155.88,-113.9 155.88,-94.65 268.62,-94.65 268.62,-113.9"/>
<text text-anchor="middle" x="212.25" y="-100.4" font-family="Helvetica,sans-Serif" font-size="10.00">CGmmResult::setPrior</text>
</a>
</g>
</g>
<!-- Node1&#45;&gt;Node11 -->
<g id="edge11_Node000001_Node000011" class="edge">
<title>Node1&#45;&gt;Node11</title>
<g id="a_edge11_Node000001_Node000011"><a xlink:title=" ">
<path fill="none" stroke="#63b8ff" d="M62.33,-205.15C75.82,-185.98 107.79,-144.32 145,-122.27 147.17,-120.99 149.43,-119.79 151.75,-118.68"/>
<polygon fill="#63b8ff" stroke="#63b8ff" points="152.95,-121.97 160.85,-114.91 150.27,-115.51 152.95,-121.97"/>
</a>
</g>
</g>
<!-- Node12 -->
<g id="Node000012" class="node">
<title>Node12</title>
<g id="a_Node000012"><a xlink:href="a00565.xhtml#a73b45f72b704d8053dac9e408ed01799" target="_top" xlink:title=" ">
<polygon fill="white" stroke="#666666" points="272.38,-76.9 152.12,-76.9 152.12,-57.65 272.38,-57.65 272.38,-76.9"/>
<text text-anchor="middle" x="212.25" y="-63.4" font-family="Helvetica,sans-Serif" font-size="10.00">CGmmResult::setSigma</text>
</a>
</g>
</g>
<!-- Node1&#45;&gt;Node12 -->
<g id="edge12_Node000001_Node000012" class="edge">
<title>Node1&#45;&gt;Node12</title>
<g id="a_edge12_Node000001_Node000012"><a xlink:title=" ">
<path fill="none" stroke="#63b8ff" d="M59.43,-205.36C69.64,-180.95 99.39,-117.59 145,-85.27 146.54,-84.18 148.14,-83.16 149.79,-82.19"/>
<polygon fill="#63b8ff" stroke="#63b8ff" points="150.89,-85.55 158.32,-78 147.8,-79.27 150.89,-85.55"/>
</a>
</g>
</g>
<!-- Node25 -->
<g id="Node000025" class="node">
<title>Node25</title>
<g id="a_Node000025"><a xlink:href="a00489.xhtml#a7be1ae4f635c5aaec0c2693fc23b3646" target="_top" xlink:title=" ">
<polygon fill="white" stroke="#666666" points="403.5,-24.9 317,-24.9 317,-5.65 403.5,-5.65 403.5,-24.9"/>
<text text-anchor="middle" x="360.25" y="-11.4" font-family="Helvetica,sans-Serif" font-size="10.00">CMatrix::setZero</text>
</a>
</g>
</g>
<!-- Node1&#45;&gt;Node25 -->
<g id="edge29_Node000001_Node000025" class="edge">
<title>Node1&#45;&gt;Node25</title>
<g id="a_edge29_Node000001_Node000025"><a xlink:title=" ">
<path fill="none" stroke="#63b8ff" d="M57.57,-205.32C64.28,-175.81 88.34,-88.36 145,-48.27 191.87,-15.1 258.97,-9.75 305.54,-10.84"/>
<polygon fill="#63b8ff" stroke="#63b8ff" points="305.29,-14.33 315.4,-11.18 305.53,-7.33 305.29,-14.33"/>
</a>
</g>
</g>
<!-- Node3&#45;&gt;Node4 -->
<g id="edge3_Node000003_Node000004" class="edge">
<title>Node3&#45;&gt;Node4</title>
<g id="a_edge3_Node000003_Node000004"><a xlink:title=" ">
<path fill="none" stroke="#63b8ff" d="M259.04,-361.31C273.31,-359.45 289.18,-357.39 304.02,-355.46"/>
<polygon fill="#63b8ff" stroke="#63b8ff" points="304.15,-358.97 313.61,-354.21 303.25,-352.03 304.15,-358.97"/>
</a>
</g>
</g>
<!-- Node7 -->
<g id="Node000007" class="node">
<title>Node7</title>
<g id="a_Node000007"><a xlink:href="a00505.xhtml#a9811f50434dd058d201290b2dc98bfcd" target="_top" xlink:title=" ">
<polygon fill="white" stroke="#666666" points="539.5,-286.9 453,-286.9 453,-267.65 539.5,-267.65 539.5,-286.9"/>
<text text-anchor="middle" x="496.25" y="-273.4" font-family="Helvetica,sans-Serif" font-size="10.00">CVector::mulC_I</text>
</a>
</g>
</g>
<!-- Node6&#45;&gt;Node7 -->
<g id="edge7_Node000006_Node000007" class="edge">
<title>Node6&#45;&gt;Node7</title>
<g id="a_edge7_Node000006_Node000007"><a xlink:title=" ">
<path fill="none" stroke="#63b8ff" d="M402.55,-273.81C414.92,-274.27 428.67,-274.79 441.71,-275.27"/>
<polygon fill="#63b8ff" stroke="#63b8ff" points="441.3,-278.76 451.42,-275.63 441.56,-271.76 441.3,-278.76"/>
</a>
</g>
</g>
<!-- Node13 -->
<g id="Node000013" class="node">
<title>Node13</title>
<g id="a_Node000013"><a xlink:href="a00489.xhtml#aa633cf46c2b3938a1a7a8199c31051dd" target="_top" xlink:title=" ">
<polygon fill="white" stroke="#666666" points="533.12,-62.9 459.38,-62.9 459.38,-43.65 533.12,-43.65 533.12,-62.9"/>
<text text-anchor="middle" x="496.25" y="-49.4" font-family="Helvetica,sans-Serif" font-size="10.00">CMatrix::copy</text>
</a>
</g>
</g>
<!-- Node12&#45;&gt;Node13 -->
<g id="edge13_Node000012_Node000013" class="edge">
<title>Node12&#45;&gt;Node13</title>
<g id="a_edge13_Node000012_Node000013"><a xlink:title=" ">
<path fill="none" stroke="#63b8ff" d="M272.71,-64.32C324.81,-61.73 399.54,-58.02 447.74,-55.63"/>
<polygon fill="#63b8ff" stroke="#63b8ff" points="447.77,-59.13 457.58,-55.14 447.42,-52.14 447.77,-59.13"/>
</a>
</g>
</g>
<!-- Node15 -->
<g id="Node000015" class="node">
<title>Node15</title>
<g id="a_Node000015"><a xlink:href="a00489.xhtml#a37585f57926ea2921734907bacc6cce8" target="_top" xlink:title=" ">
<polygon fill="white" stroke="#666666" points="397.5,-154.9 323,-154.9 323,-135.65 397.5,-135.65 397.5,-154.9"/>
<text text-anchor="middle" x="360.25" y="-141.4" font-family="Helvetica,sans-Serif" font-size="10.00">CMatrix::inv_I</text>
</a>
</g>
</g>
<!-- Node12&#45;&gt;Node15 -->
<g id="edge15_Node000012_Node000015" class="edge">
<title>Node12&#45;&gt;Node15</title>
<g id="a_edge15_Node000012_Node000015"><a xlink:title=" ">
<path fill="none" stroke="#63b8ff" d="M259.34,-77.35C266.26,-79.56 273.18,-82.18 279.5,-85.27 302.18,-96.37 324.89,-114.28 340.24,-127.65"/>
<polygon fill="#63b8ff" stroke="#63b8ff" points="337.86,-130.22 347.65,-134.27 342.53,-125 337.86,-130.22"/>
</a>
</g>
</g>
<!-- Node14 -->
<g id="Node000014" class="node">
<title>Node14</title>
<g id="a_Node000014"><a xlink:href="a00505.xhtml#ad7c5cba73e439adac77778f61c9418f0" target="_top" xlink:title=" ">
<polygon fill="white" stroke="#666666" points="669.88,-62.9 593.88,-62.9 593.88,-43.65 669.88,-43.65 669.88,-62.9"/>
<text text-anchor="middle" x="631.88" y="-49.4" font-family="Helvetica,sans-Serif" font-size="10.00">CVector::copy</text>
</a>
</g>
</g>
<!-- Node13&#45;&gt;Node14 -->
<g id="edge14_Node000013_Node000014" class="edge">
<title>Node13&#45;&gt;Node14</title>
<g id="a_edge14_Node000013_Node000014"><a xlink:title=" ">
<path fill="none" stroke="#63b8ff" d="M533.41,-53.27C548.46,-53.27 566.16,-53.27 582.32,-53.27"/>
<polygon fill="#63b8ff" stroke="#63b8ff" points="582.24,-56.77 592.24,-53.27 582.24,-49.77 582.24,-56.77"/>
</a>
</g>
</g>
<!-- Node15&#45;&gt;Node7 -->
<g id="edge23_Node000015_Node000007" class="edge">
<title>Node15&#45;&gt;Node7</title>
<g id="a_edge23_Node000015_Node000007"><a xlink:title=" ">
<path fill="none" stroke="#63b8ff" d="M366.3,-155.26C377.26,-176.08 405.17,-224.55 441,-253.27 445.2,-256.64 449.94,-259.63 454.84,-262.26"/>
<polygon fill="#63b8ff" stroke="#63b8ff" points="453.07,-265.29 463.6,-266.49 456.12,-258.99 453.07,-265.29"/>
</a>
</g>
</g>
<!-- Node15&#45;&gt;Node13 -->
<g id="edge19_Node000015_Node000013" class="edge">
<title>Node15&#45;&gt;Node13</title>
<g id="a_edge19_Node000015_Node000013"><a xlink:title=" ">
<path fill="none" stroke="#63b8ff" d="M369.53,-135.2C382.98,-119.45 411.09,-88.97 441,-71.27 443.43,-69.83 445.99,-68.49 448.62,-67.25"/>
<polygon fill="#63b8ff" stroke="#63b8ff" points="449.73,-70.58 457.59,-63.48 447.02,-64.12 449.73,-70.58"/>
</a>
</g>
</g>
<!-- Node15&#45;&gt;Node15 -->
<g id="edge22_Node000015_Node000015" class="edge">
<title>Node15&#45;&gt;Node15</title>
<g id="a_edge22_Node000015_Node000015"><a xlink:title=" ">
<path fill="none" stroke="#63b8ff" d="M338.96,-155.18C329.25,-163.79 336.34,-172.9 360.25,-172.9 373.32,-172.9 381.37,-170.17 384.39,-166.3"/>
<polygon fill="#63b8ff" stroke="#63b8ff" points="387.79,-165.47 381.92,-156.65 381.01,-167.21 387.79,-165.47"/>
</a>
</g>
</g>
<!-- Node16 -->
<g id="Node000016" class="node">
<title>Node16</title>
<g id="a_Node000016"><a xlink:href="a00489.xhtml#a6501b78d76c912d49eee88c8f7242923" target="_top" xlink:title=" ">
<polygon fill="white" stroke="#666666" points="533.12,-136.9 459.38,-136.9 459.38,-117.65 533.12,-117.65 533.12,-136.9"/>
<text text-anchor="middle" x="496.25" y="-123.4" font-family="Helvetica,sans-Serif" font-size="10.00">CMatrix::alloc</text>
</a>
</g>
</g>
<!-- Node15&#45;&gt;Node16 -->
<g id="edge16_Node000015_Node000016" class="edge">
<title>Node15&#45;&gt;Node16</title>
<g id="a_edge16_Node000015_Node000016"><a xlink:title=" ">
<path fill="none" stroke="#63b8ff" d="M397.87,-140.35C413.35,-138.27 431.59,-135.82 448.07,-133.61"/>
<polygon fill="#63b8ff" stroke="#63b8ff" points="448.2,-137.12 457.64,-132.32 447.27,-130.18 448.2,-137.12"/>
</a>
</g>
</g>
<!-- Node19 -->
<g id="Node000019" class="node">
<title>Node19</title>
<g id="a_Node000019"><a xlink:href="a00489.xhtml#a591097c6b1935c4d6273b3445f8f552b" target="_top" xlink:title=" ">
<polygon fill="white" stroke="#666666" points="531.25,-99.9 461.25,-99.9 461.25,-80.65 531.25,-80.65 531.25,-99.9"/>
<text text-anchor="middle" x="496.25" y="-86.4" font-family="Helvetica,sans-Serif" font-size="10.00">CMatrix::free</text>
</a>
</g>
</g>
<!-- Node15&#45;&gt;Node19 -->
<g id="edge20_Node000015_Node000019" class="edge">
<title>Node15&#45;&gt;Node19</title>
<g id="a_edge20_Node000015_Node000019"><a xlink:title=" ">
<path fill="none" stroke="#63b8ff" d="M381.29,-135.2C397.26,-127.36 420.28,-116.48 441,-108.27 444.62,-106.84 448.39,-105.42 452.2,-104.05"/>
<polygon fill="#63b8ff" stroke="#63b8ff" points="453.18,-107.42 461.47,-100.83 450.88,-100.81 453.18,-107.42"/>
</a>
</g>
</g>
<!-- Node21 -->
<g id="Node000021" class="node">
<title>Node21</title>
<g id="a_Node000021"><a xlink:href="a00489.xhtml#a8f27c49fcbbdb52e2e9a50f2b22f59c3" target="_top" xlink:title=" ">
<polygon fill="white" stroke="#666666" points="673.25,-247.9 590.5,-247.9 590.5,-228.65 673.25,-228.65 673.25,-247.9"/>
<text text-anchor="middle" x="631.88" y="-234.4" font-family="Helvetica,sans-Serif" font-size="10.00">CMatrix::setEye</text>
</a>
</g>
</g>
<!-- Node15&#45;&gt;Node21 -->
<g id="edge24_Node000015_Node000021" class="edge">
<title>Node15&#45;&gt;Node21</title>
<g id="a_edge24_Node000015_Node000021"><a xlink:title=" ">
<path fill="none" stroke="#63b8ff" d="M368.25,-155.22C380.69,-172 408.44,-205.55 441,-220.27 484.43,-239.91 539.06,-243.15 578.55,-242.23"/>
<polygon fill="#63b8ff" stroke="#63b8ff" points="578.65,-245.73 588.53,-241.89 578.41,-238.73 578.65,-245.73"/>
</a>
</g>
</g>
<!-- Node22 -->
<g id="Node000022" class="node">
<title>Node22</title>
<g id="a_Node000022"><a xlink:href="a00505.xhtml#a4e5b5163bb46b8de5ac4013bde1ded00" target="_top" xlink:title=" ">
<polygon fill="white" stroke="#666666" points="540.62,-210.9 451.88,-210.9 451.88,-191.65 540.62,-191.65 540.62,-210.9"/>
<text text-anchor="middle" x="496.25" y="-197.4" font-family="Helvetica,sans-Serif" font-size="10.00">CVector::subW_I</text>
</a>
</g>
</g>
<!-- Node15&#45;&gt;Node22 -->
<g id="edge26_Node000015_Node000022" class="edge">
<title>Node15&#45;&gt;Node22</title>
<g id="a_edge26_Node000015_Node000022"><a xlink:title=" ">
<path fill="none" stroke="#63b8ff" d="M380.61,-155.33C396.58,-163.42 419.94,-174.8 441,-183.27 444.56,-184.7 448.28,-186.11 452.04,-187.48"/>
<polygon fill="#63b8ff" stroke="#63b8ff" points="450.57,-190.67 461.17,-190.67 452.88,-184.06 450.57,-190.67"/>
</a>
</g>
</g>
<!-- Node24 -->
<g id="Node000024" class="node">
<title>Node24</title>
<g id="a_Node000024"><a xlink:href="a00489.xhtml#a559a4308e4b77c24a8544d4e26efe1e9" target="_top" xlink:title=" ">
<polygon fill="white" stroke="#666666" points="551.5,-173.9 441,-173.9 441,-154.65 551.5,-154.65 551.5,-173.9"/>
<text text-anchor="middle" x="496.25" y="-160.4" font-family="Helvetica,sans-Serif" font-size="10.00">CMatrix::swapRowCol</text>
</a>
</g>
</g>
<!-- Node15&#45;&gt;Node24 -->
<g id="edge28_Node000015_Node000024" class="edge">
<title>Node15&#45;&gt;Node24</title>
<g id="a_edge28_Node000015_Node000024"><a xlink:title=" ">
<path fill="none" stroke="#63b8ff" d="M397.87,-150.46C407.64,-151.85 418.52,-153.39 429.35,-154.93"/>
<polygon fill="#63b8ff" stroke="#63b8ff" points="428.69,-158.37 439.08,-156.31 429.67,-151.44 428.69,-158.37"/>
</a>
</g>
</g>
<!-- Node17 -->
<g id="Node000017" class="node">
<title>Node17</title>
<g id="a_Node000017"><a xlink:href="a00505.xhtml#abaadac98b1cad18b7b568852bc951696" target="_top" xlink:title=" ">
<polygon fill="white" stroke="#666666" points="669.88,-136.9 593.88,-136.9 593.88,-117.65 669.88,-117.65 669.88,-136.9"/>
<text text-anchor="middle" x="631.88" y="-123.4" font-family="Helvetica,sans-Serif" font-size="10.00">CVector::alloc</text>
</a>
</g>
</g>
<!-- Node16&#45;&gt;Node17 -->
<g id="edge17_Node000016_Node000017" class="edge">
<title>Node16&#45;&gt;Node17</title>
<g id="a_edge17_Node000016_Node000017"><a xlink:title=" ">
<path fill="none" stroke="#63b8ff" d="M533.41,-127.27C548.46,-127.27 566.16,-127.27 582.32,-127.27"/>
<polygon fill="#63b8ff" stroke="#63b8ff" points="582.24,-130.77 592.24,-127.27 582.24,-123.77 582.24,-130.77"/>
</a>
</g>
</g>
<!-- Node18 -->
<g id="Node000018" class="node">
<title>Node18</title>
<g id="a_Node000018"><a xlink:href="a00505.xhtml#a6dbb3f9f480568b60f7fe50090d20003" target="_top" xlink:title=" ">
<polygon fill="white" stroke="#666666" points="801,-136.9 712.25,-136.9 712.25,-117.65 801,-117.65 801,-136.9"/>
<text text-anchor="middle" x="756.62" y="-123.4" font-family="Helvetica,sans-Serif" font-size="10.00">CVector::setZero</text>
</a>
</g>
</g>
<!-- Node17&#45;&gt;Node18 -->
<g id="edge18_Node000017_Node000018" class="edge">
<title>Node17&#45;&gt;Node18</title>
<g id="a_edge18_Node000017_Node000018"><a xlink:title=" ">
<path fill="none" stroke="#63b8ff" d="M670.37,-127.27C679.9,-127.27 690.34,-127.27 700.54,-127.27"/>
<polygon fill="#63b8ff" stroke="#63b8ff" points="700.39,-130.77 710.39,-127.27 700.39,-123.77 700.39,-130.77"/>
</a>
</g>
</g>
<!-- Node20 -->
<g id="Node000020" class="node">
<title>Node20</title>
<g id="a_Node000020"><a xlink:href="a00505.xhtml#aa86bdb0c663d4d52f2765793756f8737" target="_top" xlink:title=" ">
<polygon fill="white" stroke="#666666" points="668,-99.9 595.75,-99.9 595.75,-80.65 668,-80.65 668,-99.9"/>
<text text-anchor="middle" x="631.88" y="-86.4" font-family="Helvetica,sans-Serif" font-size="10.00">CVector::free</text>
</a>
</g>
</g>
<!-- Node19&#45;&gt;Node20 -->
<g id="edge21_Node000019_Node000020" class="edge">
<title>Node19&#45;&gt;Node20</title>
<g id="a_edge21_Node000019_Node000020"><a xlink:title=" ">
<path fill="none" stroke="#63b8ff" d="M531.66,-90.27C547.77,-90.27 567.2,-90.27 584.58,-90.27"/>
<polygon fill="#63b8ff" stroke="#63b8ff" points="584.14,-93.77 594.14,-90.27 584.14,-86.77 584.14,-93.77"/>
</a>
</g>
</g>
<!-- Node21&#45;&gt;Node18 -->
<g id="edge25_Node000021_Node000018" class="edge">
<title>Node21&#45;&gt;Node18</title>
<g id="a_edge25_Node000021_Node000018"><a xlink:title=" ">
<path fill="none" stroke="#63b8ff" d="M662.35,-228.26C667.21,-226 672.03,-223.34 676.25,-220.27 704.45,-199.76 729.14,-167.29 743.21,-146.64"/>
<polygon fill="#63b8ff" stroke="#63b8ff" points="745.96,-148.84 748.57,-138.57 740.12,-144.97 745.96,-148.84"/>
</a>
</g>
</g>
<!-- Node23 -->
<g id="Node000023" class="node">
<title>Node23</title>
<g id="a_Node000023"><a xlink:href="a00505.xhtml#a2239b170d46ed3d0846d766a0634a0be" target="_top" xlink:title=" ">
<polygon fill="white" stroke="#666666" points="676.25,-210.9 587.5,-210.9 587.5,-191.65 676.25,-191.65 676.25,-210.9"/>
<text text-anchor="middle" x="631.88" y="-197.4" font-family="Helvetica,sans-Serif" font-size="10.00">CVector::addW_I</text>
</a>
</g>
</g>
<!-- Node22&#45;&gt;Node23 -->
<g id="edge27_Node000022_Node000023" class="edge">
<title>Node22&#45;&gt;Node23</title>
<g id="a_edge27_Node000022_Node000023"><a xlink:title=" ">
<path fill="none" stroke="#63b8ff" d="M541,-201.27C552.08,-201.27 564.12,-201.27 575.68,-201.27"/>
<polygon fill="#63b8ff" stroke="#63b8ff" points="575.51,-204.77 585.51,-201.27 575.51,-197.77 575.51,-204.77"/>
</a>
</g>
</g>
<!-- Node25&#45;&gt;Node18 -->
<g id="edge30_Node000025_Node000018" class="edge">
<title>Node25&#45;&gt;Node18</title>
<g id="a_edge30_Node000025_Node000018"><a xlink:title=" ">
<path fill="none" stroke="#63b8ff" d="M403.93,-7.78C467.11,1.16 587.62,9.89 676.25,-34.27 708.11,-50.14 732.28,-85.12 745.17,-107.37"/>
<polygon fill="#63b8ff" stroke="#63b8ff" points="742.09,-109.02 749.99,-116.07 748.21,-105.63 742.09,-109.02"/>
</a>
</g>
</g>
</g>
</svg>

<g id="navigator" transform="translate(0 0)" fill="#404254">
  <rect fill="#f2f5e9" fill-opacity="0.5" stroke="#606060" stroke-width=".5" x="0" y="0" width="60" height="60"/>
  <use id="zoomplus" xlink:href="#zoomPlus" x="17" y="9" onmousedown="handleZoom(evt,'in')"/>
  <use id="zoomminus" xlink:href="#zoomMin" x="42" y="9" onmousedown="handleZoom(evt,'out')"/>
  <use id="reset" xlink:href="#resetDef" x="30" y="36" onmousedown="handleReset()"/>
   <use id="arrowup" xlink:href="#arrowUp" x="0" y="0" onmousedown="handlePan(0,-1)"/>
  <use id="arrowright" xlink:href="#arrowRight" x="0" y="0" onmousedown="handlePan(1,0)"/>
  <use id="arrowdown" xlink:href="#arrowDown" x="0" y="0" onmousedown="handlePan(0,1)"/>
  <use id="arrowleft" xlink:href="#arrowLeft" x="0" y="0" onmousedown="handlePan(-1,0)"/>
</g>
<svg viewBox="0 0 15 15" width="100%" height="30px" preserveAspectRatio="xMaxYMin meet">
 <g id="arrow_out" transform="scale(0.3 0.3)">
  <a xlink:href="a00569_acfd1d971e4268d80fe445a9798c8f075_cgraph_org.svg" target="_base">
   <rect id="button" ry="5" rx="5" y="6" x="6" height="38" width="38"
        fill="#f2f5e9" fill-opacity="0.5" stroke="#606060" stroke-width="1.0"/>
   <path id="arrow"
     d="M 11.500037,31.436501 C 11.940474,20.09759 22.043105,11.32322 32.158766,21.979434 L 37.068811,17.246167 C 37.068811,17.246167 37.088388,32 37.088388,32 L 22.160133,31.978069 C 22.160133,31.978069 26.997745,27.140456 26.997745,27.140456 C 18.528582,18.264221 13.291696,25.230495 11.500037,31.436501 z"
     style="fill:#404040;"/>
  </a>
 </g>
</svg>

<style type='text/css'>
<![CDATA[
[data-mouse-over-selected='false'] { opacity: 0.7; }
[data-mouse-over-selected='true']  { opacity: 1.0; }
]]>
</style>
<script type="application/ecmascript"><![CDATA[
document.addEventListener('DOMContentLoaded', (event) => {
  highlightEdges();
  highlightAdjacentNodes();
});
]]></script>
</svg>
