<?xml version="1.0" encoding="UTF-8" standalone="no"?>
<!DOCTYPE svg PUBLIC "-//W3C//DTD SVG 1.1//EN"
 "http://www.w3.org/Graphics/SVG/1.1/DTD/svg11.dtd">
<!-- Generated by graphviz version 12.2.1 (20241206.2353)
 -->
<!-- Title: CVector::getSum Pages: 1 -->
<!--zoomable 581 -->

<svg id="main" version="1.1" xmlns="http://www.w3.org/2000/svg" xmlns:xlink="http://www.w3.org/1999/xlink" xml:space="preserve" onload="init(evt)">

<style type="text/css"><![CDATA[
.node, .edge {opacity: 0.7;}
.node.selected, .edge.selected {opacity: 1;}
.edge:hover path { stroke: red; }
.edge:hover polygon { stroke: red; fill: red; }
]]></style>

<defs>
  <circle id="rim" cx="0" cy="0" r="7"/>
  <circle id="rim2" cx="0" cy="0" r="3.5"/>
  <g id="zoomPlus">
    <use xlink:href="#rim" fill="#404040"><set attributeName="fill" to="#808080" begin="zoomplus.mouseover" end="zoomplus.mouseout"/></use>
    <path d="M-4,0h8M0,-4v8" fill="none" stroke="white" stroke-width="1.5" pointer-events="none"/>
  </g>
  <g id="zoomMin">
    <use xlink:href="#rim" fill="#404040"><set attributeName="fill" to="#808080" begin="zoomminus.mouseover" end="zoomminus.mouseout"/></use>
    <path d="M-4,0h8" fill="none" stroke="white" stroke-width="1.5" pointer-events="none"/>
  </g>
  <g id="arrowUp" transform="translate(30 24)">
    <use xlink:href="#rim"/>
    <path pointer-events="none" fill="none" stroke="white" stroke-width="1.5" d="M0,-3.0v7 M-2.5,-0.5L0,-3.0L2.5,-0.5"/>
  </g>
  <g id="arrowRight" transform="rotate(90) translate(36 -43)">
    <use xlink:href="#rim"/>
    <path pointer-events="none" fill="none" stroke="white" stroke-width="1.5" d="M0,-3.0v7 M-2.5,-0.5L0,-3.0L2.5,-0.5"/>
  </g>
  <g id="arrowDown" transform="rotate(180) translate(-30 -48)">
    <use xlink:href="#rim"/>
    <path pointer-events="none" fill="none" stroke="white" stroke-width="1.5" d="M0,-3.0v7 M-2.5,-0.5L0,-3.0L2.5,-0.5"/>
  </g>
  <g id="arrowLeft" transform="rotate(270) translate(-36 17)">
    <use xlink:href="#rim"/>
    <path pointer-events="none" fill="none" stroke="white" stroke-width="1.5" d="M0,-3.0v7 M-2.5,-0.5L0,-3.0L2.5,-0.5"/>
  </g>
  <g id="resetDef">
    <use xlink:href="#rim2" fill="#404040"><set attributeName="fill" to="#808080" begin="reset.mouseover" end="reset.mouseout"/></use>
  </g>
</defs>
<script type="application/ecmascript">
var viewWidth = 1007;
var viewHeight = 581;
var sectionId = 'dynsection-25';
</script>
<script type="application/ecmascript" xlink:href="svg.min.js"/>
<svg id="graph" class="graph">
<g id="viewport">
<title>CVector::getSum</title>
<!-- Node1 -->
<g id="Node000001" class="node">
<title>Node1</title>
<g id="a_Node000001"><a xlink:title=" ">
<polygon fill="#999999" stroke="#666666" points="999,-313.88 909.5,-313.88 909.5,-294.62 999,-294.62 999,-313.88"/>
<text text-anchor="middle" x="954.25" y="-300.38" font-family="Helvetica,sans-Serif" font-size="10.00">CVector::getSum</text>
</a>
</g>
</g>
<!-- Node2 -->
<g id="Node000002" class="node">
<title>Node2</title>
<g id="a_Node000002"><a xlink:href="a00625.xhtml#ac5158e0fb3ef94c2bfe79f66f86db59f" target="_top" xlink:title=" ">
<polygon fill="white" stroke="#666666" points="870.12,-572.88 728.88,-572.88 728.88,-553.62 870.12,-553.62 870.12,-572.88"/>
<text text-anchor="middle" x="799.5" y="-559.38" font-family="Helvetica,sans-Serif" font-size="10.00">CKmeans::checkConverged_</text>
</a>
</g>
</g>
<!-- Node1&#45;&gt;Node2 -->
<g id="edge1_Node000001_Node000002" class="edge">
<title>Node1&#45;&gt;Node2</title>
<g id="a_edge1_Node000001_Node000002"><a xlink:title=" ">
<path fill="none" stroke="#63b8ff" d="M952.65,-325.58C950.13,-372.34 937.38,-484.47 873.5,-544.25 869.68,-547.83 865.26,-550.75 860.54,-553.14"/>
<polygon fill="#63b8ff" stroke="#63b8ff" points="956.14,-325.87 953.06,-315.73 949.14,-325.58 956.14,-325.87"/>
</a>
</g>
</g>
<!-- Node4 -->
<g id="Node000004" class="node">
<title>Node4</title>
<g id="a_Node000004"><a xlink:href="a00513.xhtml#a49acd3fa8e5ab9c8c07f15a352b3dcaa" target="_top" xlink:title=" ">
<polygon fill="white" stroke="#666666" points="872.38,-535.5 726.62,-535.5 726.62,-505 872.38,-505 872.38,-535.5"/>
<text text-anchor="start" x="734.62" y="-522" font-family="Helvetica,sans-Serif" font-size="10.00">CKeyFromChroma::CKeyFrom</text>
<text text-anchor="middle" x="799.5" y="-510.75" font-family="Helvetica,sans-Serif" font-size="10.00">Chroma</text>
</a>
</g>
</g>
<!-- Node1&#45;&gt;Node4 -->
<g id="edge3_Node000001_Node000004" class="edge">
<title>Node1&#45;&gt;Node4</title>
<g id="a_edge3_Node000001_Node000004"><a xlink:title=" ">
<path fill="none" stroke="#63b8ff" d="M950.21,-325.38C943.49,-364.42 923.8,-448.14 873.5,-495.25 869.69,-498.82 865.34,-501.88 860.71,-504.51"/>
<polygon fill="#63b8ff" stroke="#63b8ff" points="953.64,-326.1 951.75,-315.67 946.73,-325 953.64,-326.1"/>
</a>
</g>
</g>
<!-- Node7 -->
<g id="Node000007" class="node">
<title>Node7</title>
<g id="a_Node000007"><a xlink:href="a00461.xhtml#a3671f264a475e2d6eb36d87d0c8e07fb" target="_top" xlink:title=" ">
<polygon fill="white" stroke="#666666" points="852.5,-486.5 746.5,-486.5 746.5,-456 852.5,-456 852.5,-486.5"/>
<text text-anchor="start" x="754.5" y="-473" font-family="Helvetica,sans-Serif" font-size="10.00">CChordFromBlockIf::</text>
<text text-anchor="middle" x="799.5" y="-461.75" font-family="Helvetica,sans-Serif" font-size="10.00">compChordProb</text>
</a>
</g>
</g>
<!-- Node1&#45;&gt;Node7 -->
<g id="edge6_Node000001_Node000007" class="edge">
<title>Node1&#45;&gt;Node7</title>
<g id="a_edge6_Node000001_Node000007"><a xlink:title=" ">
<path fill="none" stroke="#63b8ff" d="M947.09,-325.01C936.84,-356.03 913.37,-414.35 873.5,-447.25 867.43,-452.26 860.28,-456.23 852.87,-459.39"/>
<polygon fill="#63b8ff" stroke="#63b8ff" points="950.37,-326.25 950.03,-315.66 943.69,-324.15 950.37,-326.25"/>
</a>
</g>
</g>
<!-- Node8 -->
<g id="Node000008" class="node">
<title>Node8</title>
<g id="a_Node000008"><a xlink:href="a00397.xhtml#a915348ef4a46cdb32af1a880ee46039b" target="_top" xlink:title=" ">
<polygon fill="white" stroke="#666666" points="864.5,-437.88 734.5,-437.88 734.5,-418.62 864.5,-418.62 864.5,-437.88"/>
<text text-anchor="middle" x="799.5" y="-424.38" font-family="Helvetica,sans-Serif" font-size="10.00">CPitchTimeAmdf::compF0</text>
</a>
</g>
</g>
<!-- Node1&#45;&gt;Node8 -->
<g id="edge7_Node000001_Node000008" class="edge">
<title>Node1&#45;&gt;Node8</title>
<g id="a_edge7_Node000001_Node000008"><a xlink:title=" ">
<path fill="none" stroke="#63b8ff" d="M943.47,-324.14C930.69,-348.02 906.06,-387.55 873.5,-409.25 868.05,-412.88 861.95,-415.82 855.65,-418.2"/>
<polygon fill="#63b8ff" stroke="#63b8ff" points="946.48,-325.94 947.94,-315.45 940.25,-322.74 946.48,-325.94"/>
</a>
</g>
</g>
<!-- Node9 -->
<g id="Node000009" class="node">
<title>Node9</title>
<g id="a_Node000009"><a xlink:href="a00337.xhtml#ac659cc10bad8a91121cd14533270497f" target="_top" xlink:title=" ">
<polygon fill="white" stroke="#666666" points="873.5,-400.5 725.5,-400.5 725.5,-370 873.5,-370 873.5,-400.5"/>
<text text-anchor="start" x="733.5" y="-387" font-family="Helvetica,sans-Serif" font-size="10.00">CFeatureSpectralPitchChroma</text>
<text text-anchor="middle" x="799.5" y="-375.75" font-family="Helvetica,sans-Serif" font-size="10.00">::compFeature</text>
</a>
</g>
</g>
<!-- Node1&#45;&gt;Node9 -->
<g id="edge8_Node000001_Node000009" class="edge">
<title>Node1&#45;&gt;Node9</title>
<g id="a_edge8_Node000001_Node000009"><a xlink:title=" ">
<path fill="none" stroke="#63b8ff" d="M932.86,-321.48C917.37,-333.88 895.12,-350.29 873.5,-361.25 867.43,-364.33 860.88,-367.13 854.29,-369.65"/>
<polygon fill="#63b8ff" stroke="#63b8ff" points="934.86,-324.36 940.39,-315.32 930.43,-318.94 934.86,-324.36"/>
</a>
</g>
</g>
<!-- Node10 -->
<g id="Node000010" class="node">
<title>Node10</title>
<g id="a_Node000010"><a xlink:href="a00473.xhtml#a15df133306497e4f85929692354f378a" target="_top" xlink:title=" ">
<polygon fill="white" stroke="#666666" points="867.88,-352.12 731.12,-352.12 731.12,-310.38 867.88,-310.38 867.88,-352.12"/>
<text text-anchor="start" x="739.12" y="-338.62" font-family="Helvetica,sans-Serif" font-size="10.00">CFeatureFromBlockIf</text>
<text text-anchor="start" x="739.12" y="-327.38" font-family="Helvetica,sans-Serif" font-size="10.00">::compFeatureSpectralCrest</text>
<text text-anchor="middle" x="799.5" y="-316.12" font-family="Helvetica,sans-Serif" font-size="10.00">Factor</text>
</a>
</g>
</g>
<!-- Node1&#45;&gt;Node10 -->
<g id="edge9_Node000001_Node000010" class="edge">
<title>Node1&#45;&gt;Node10</title>
<g id="a_edge9_Node000001_Node000010"><a xlink:title=" ">
<path fill="none" stroke="#63b8ff" d="M897.98,-314.02C888.31,-315.73 878.15,-317.53 868.18,-319.29"/>
<polygon fill="#63b8ff" stroke="#63b8ff" points="898.34,-317.51 907.58,-312.32 897.12,-310.62 898.34,-317.51"/>
</a>
</g>
</g>
<!-- Node11 -->
<g id="Node000011" class="node">
<title>Node11</title>
<g id="a_Node000011"><a xlink:href="a00473.xhtml#a28b9430a480ce697a7dbd73527057ac6" target="_top" xlink:title=" ">
<polygon fill="white" stroke="#666666" points="869.75,-292.5 729.25,-292.5 729.25,-262 869.75,-262 869.75,-292.5"/>
<text text-anchor="start" x="737.25" y="-279" font-family="Helvetica,sans-Serif" font-size="10.00">CFeatureFromBlockIf</text>
<text text-anchor="middle" x="799.5" y="-267.75" font-family="Helvetica,sans-Serif" font-size="10.00">::compFeatureSpectralRolloff</text>
</a>
</g>
</g>
<!-- Node1&#45;&gt;Node11 -->
<g id="edge10_Node000001_Node000011" class="edge">
<title>Node1&#45;&gt;Node11</title>
<g id="a_edge10_Node000001_Node000011"><a xlink:title=" ">
<path fill="none" stroke="#63b8ff" d="M897.93,-294.47C888.92,-292.88 879.49,-291.21 870.19,-289.57"/>
<polygon fill="#63b8ff" stroke="#63b8ff" points="897.12,-297.88 907.58,-296.18 898.34,-290.99 897.12,-297.88"/>
</a>
</g>
</g>
<!-- Node13 -->
<g id="Node000013" class="node">
<title>Node13</title>
<g id="a_Node000013"><a xlink:href="a00513.xhtml#adf22d441c8866b9fe13aef59549e1cff" target="_top" xlink:title=" ">
<polygon fill="white" stroke="#666666" points="864.5,-243.88 734.5,-243.88 734.5,-224.62 864.5,-224.62 864.5,-243.88"/>
<text text-anchor="middle" x="799.5" y="-230.38" font-family="Helvetica,sans-Serif" font-size="10.00">CKeyFromChroma::getKey</text>
</a>
</g>
</g>
<!-- Node1&#45;&gt;Node13 -->
<g id="edge12_Node000001_Node000013" class="edge">
<title>Node1&#45;&gt;Node13</title>
<g id="a_edge12_Node000001_Node000013"><a xlink:title=" ">
<path fill="none" stroke="#63b8ff" d="M931.22,-287.47C915.78,-276.4 894.26,-262.32 873.5,-253.25 865.46,-249.74 856.63,-246.76 847.97,-244.28"/>
<polygon fill="#63b8ff" stroke="#63b8ff" points="929.08,-290.24 939.21,-293.34 933.22,-284.6 929.08,-290.24"/>
</a>
</g>
</g>
<!-- Node14 -->
<g id="Node000014" class="node">
<title>Node14</title>
<g id="a_Node000014"><a xlink:href="a00505.xhtml#ae6e3545cf196c5e2409365bc62b7c1de" target="_top" xlink:title=" ">
<polygon fill="white" stroke="#666666" points="846.12,-206.88 752.88,-206.88 752.88,-187.62 846.12,-187.62 846.12,-206.88"/>
<text text-anchor="middle" x="799.5" y="-193.38" font-family="Helvetica,sans-Serif" font-size="10.00">CVector::getMean</text>
</a>
</g>
</g>
<!-- Node1&#45;&gt;Node14 -->
<g id="edge13_Node000001_Node000014" class="edge">
<title>Node1&#45;&gt;Node14</title>
<g id="a_edge13_Node000001_Node000014"><a xlink:title=" ">
<path fill="none" stroke="#63b8ff" d="M940.93,-284.63C927.04,-264.18 902.58,-232.72 873.5,-215.25 865.33,-210.34 855.89,-206.77 846.56,-204.17"/>
<polygon fill="#63b8ff" stroke="#63b8ff" points="937.95,-286.48 946.36,-292.92 943.81,-282.64 937.95,-286.48"/>
</a>
</g>
</g>
<!-- Node31 -->
<g id="Node000031" class="node">
<title>Node31</title>
<g id="a_Node000031"><a xlink:href="a00569.xhtml#acfd1d971e4268d80fe445a9798c8f075" target="_top" xlink:title=" ">
<polygon fill="white" stroke="#666666" points="668.5,-105.88 559.5,-105.88 559.5,-86.62 668.5,-86.62 668.5,-105.88"/>
<text text-anchor="middle" x="614" y="-92.38" font-family="Helvetica,sans-Serif" font-size="10.00">CGmm::updateState_</text>
</a>
</g>
</g>
<!-- Node1&#45;&gt;Node31 -->
<g id="edge39_Node000001_Node000031" class="edge">
<title>Node1&#45;&gt;Node31</title>
<g id="a_edge39_Node000001_Node000031"><a xlink:title=" ">
<path fill="none" stroke="#63b8ff" d="M945.86,-283.66C934.66,-255.47 910.69,-205.3 873.5,-178.25 818.58,-138.3 786.99,-169.08 725.5,-140.25 707.63,-131.87 707.43,-122.5 689.5,-114.25 682.73,-111.14 675.36,-108.52 667.97,-106.34"/>
<polygon fill="#63b8ff" stroke="#63b8ff" points="942.52,-284.73 949.34,-292.84 949.07,-282.25 942.52,-284.73"/>
</a>
</g>
</g>
<!-- Node32 -->
<g id="Node000032" class="node">
<title>Node32</title>
<g id="a_Node000032"><a xlink:href="a00489.xhtml#ae48093975ee83a53abb7ab2c25b8610c" target="_top" xlink:title=" ">
<polygon fill="white" stroke="#666666" points="843.12,-130.88 755.88,-130.88 755.88,-111.62 843.12,-111.62 843.12,-130.88"/>
<text text-anchor="middle" x="799.5" y="-117.38" font-family="Helvetica,sans-Serif" font-size="10.00">CMatrix::getSum</text>
</a>
</g>
</g>
<!-- Node1&#45;&gt;Node32 -->
<g id="edge34_Node000001_Node000032" class="edge">
<title>Node1&#45;&gt;Node32</title>
<g id="a_edge34_Node000001_Node000032"><a xlink:title=" ">
<path fill="none" stroke="#63b8ff" d="M948.4,-283.58C939.42,-249.8 917.03,-182.8 873.5,-145.25 865.01,-137.93 854.24,-132.83 843.59,-129.28"/>
<polygon fill="#63b8ff" stroke="#63b8ff" points="944.92,-284.09 950.75,-292.93 951.71,-282.38 944.92,-284.09"/>
</a>
</g>
</g>
<!-- Node33 -->
<g id="Node000033" class="node">
<title>Node33</title>
<g id="a_Node000033"><a xlink:href="a00457.xhtml#a2dc9b2b2e4912e45835c5727d550aee7" target="_top" xlink:title=" ">
<polygon fill="white" stroke="#666666" points="851.75,-91.88 747.25,-91.88 747.25,-72.62 851.75,-72.62 851.75,-91.88"/>
<text text-anchor="middle" x="799.5" y="-78.38" font-family="Helvetica,sans-Serif" font-size="10.00">CChordIf::initViterbi_</text>
</a>
</g>
</g>
<!-- Node1&#45;&gt;Node33 -->
<g id="edge35_Node000001_Node000033" class="edge">
<title>Node1&#45;&gt;Node33</title>
<g id="a_edge35_Node000001_Node000033"><a xlink:title=" ">
<path fill="none" stroke="#63b8ff" d="M951.1,-283.31C945.75,-242.31 928.07,-151.19 873.5,-102.25 867.34,-96.72 859.79,-92.7 851.9,-89.79"/>
<polygon fill="#63b8ff" stroke="#63b8ff" points="947.6,-283.5 952.24,-293.03 954.55,-282.69 947.6,-283.5"/>
</a>
</g>
</g>
<!-- Node3 -->
<g id="Node000003" class="node">
<title>Node3</title>
<g id="a_Node000003"><a xlink:href="a00625.xhtml#a849370ac2cbfd732f771f97cbd6e6c77" target="_top" xlink:title=" ">
<polygon fill="white" stroke="#666666" points="675.62,-572.88 552.38,-572.88 552.38,-553.62 675.62,-553.62 675.62,-572.88"/>
<text text-anchor="middle" x="614" y="-559.38" font-family="Helvetica,sans-Serif" font-size="10.00">CKmeans::compKmeans</text>
</a>
</g>
</g>
<!-- Node2&#45;&gt;Node3 -->
<g id="edge2_Node000002_Node000003" class="edge">
<title>Node2&#45;&gt;Node3</title>
<g id="a_edge2_Node000002_Node000003"><a xlink:title=" ">
<path fill="none" stroke="#63b8ff" d="M717.11,-563.25C703.3,-563.25 689.17,-563.25 676,-563.25"/>
<polygon fill="#63b8ff" stroke="#63b8ff" points="717.09,-566.75 727.09,-563.25 717.09,-559.75 717.09,-566.75"/>
</a>
</g>
</g>
<!-- Node5 -->
<g id="Node000005" class="node">
<title>Node5</title>
<g id="a_Node000005"><a xlink:href="a00513.xhtml#ae6e5ee312d60421f9a3782e179f1367d" target="_top" xlink:title="disallow copy construction">
<polygon fill="white" stroke="#666666" points="686.88,-535.5 541.12,-535.5 541.12,-505 686.88,-505 686.88,-535.5"/>
<text text-anchor="start" x="549.12" y="-522" font-family="Helvetica,sans-Serif" font-size="10.00">CKeyFromChroma::CKeyFrom</text>
<text text-anchor="middle" x="614" y="-510.75" font-family="Helvetica,sans-Serif" font-size="10.00">Chroma</text>
</a>
</g>
</g>
<!-- Node4&#45;&gt;Node5 -->
<g id="edge4_Node000004_Node000005" class="edge">
<title>Node4&#45;&gt;Node5</title>
<g id="a_edge4_Node000004_Node000005"><a xlink:title=" ">
<path fill="none" stroke="#63b8ff" d="M715,-520.25C705.72,-520.25 696.32,-520.25 687.19,-520.25"/>
<polygon fill="#63b8ff" stroke="#63b8ff" points="714.73,-523.75 724.73,-520.25 714.73,-516.75 714.73,-523.75"/>
</a>
</g>
</g>
<!-- Node6 -->
<g id="Node000006" class="node">
<title>Node6</title>
<g id="a_Node000006"><a xlink:href="a00513.xhtml#acfd214751d372f6ca62257e5a56f646f" target="_top" xlink:title=" ">
<polygon fill="white" stroke="#666666" points="684.62,-486.88 543.38,-486.88 543.38,-467.62 684.62,-467.62 684.62,-486.88"/>
<text text-anchor="middle" x="614" y="-473.38" font-family="Helvetica,sans-Serif" font-size="10.00">CKeyFromChroma::operator=</text>
</a>
</g>
</g>
<!-- Node4&#45;&gt;Node6 -->
<g id="edge5_Node000004_Node000006" class="edge">
<title>Node4&#45;&gt;Node6</title>
<g id="a_edge5_Node000004_Node000006"><a xlink:title=" ">
<path fill="none" stroke="#63b8ff" d="M720.43,-501.96C699.1,-496.96 676.76,-491.72 658.16,-487.36"/>
<polygon fill="#63b8ff" stroke="#63b8ff" points="719.46,-505.32 730,-504.2 721.06,-498.51 719.46,-505.32"/>
</a>
</g>
</g>
<!-- Node12 -->
<g id="Node000012" class="node">
<title>Node12</title>
<g id="a_Node000012"><a xlink:href="a00341.xhtml#ac52fdefa069114d576a8105182084648" target="_top" xlink:title=" ">
<polygon fill="white" stroke="#666666" points="673.38,-390.5 554.62,-390.5 554.62,-360 673.38,-360 673.38,-390.5"/>
<text text-anchor="start" x="562.62" y="-377" font-family="Helvetica,sans-Serif" font-size="10.00">CFeatureSpectralRolloff</text>
<text text-anchor="middle" x="614" y="-365.75" font-family="Helvetica,sans-Serif" font-size="10.00">::compFeature</text>
</a>
</g>
</g>
<!-- Node11&#45;&gt;Node12 -->
<g id="edge11_Node000011_Node000012" class="edge">
<title>Node11&#45;&gt;Node12</title>
<g id="a_edge11_Node000011_Node000012"><a xlink:title=" ">
<path fill="none" stroke="#63b8ff" d="M729.66,-298.41C728.23,-299.32 726.85,-300.26 725.5,-301.25 703.41,-317.43 711.64,-335.13 689.5,-351.25 684.67,-354.77 679.29,-357.79 673.71,-360.37"/>
<polygon fill="#63b8ff" stroke="#63b8ff" points="731.13,-301.6 738.16,-293.68 727.72,-295.48 731.13,-301.6"/>
</a>
</g>
</g>
<!-- Node15 -->
<g id="Node000015" class="node">
<title>Node15</title>
<g id="a_Node000015"><a xlink:href="a00601.xhtml#ab97f1018b23310674511f05dac173db8" target="_top" xlink:title=" ">
<polygon fill="white" stroke="#666666" points="656.88,-228.88 571.12,-228.88 571.12,-209.62 656.88,-209.62 656.88,-228.88"/>
<text text-anchor="middle" x="614" y="-215.38" font-family="Helvetica,sans-Serif" font-size="10.00">CPca::compCov</text>
</a>
</g>
</g>
<!-- Node14&#45;&gt;Node15 -->
<g id="edge14_Node000014_Node000015" class="edge">
<title>Node14&#45;&gt;Node15</title>
<g id="a_edge14_Node000014_Node000015"><a xlink:title=" ">
<path fill="none" stroke="#63b8ff" d="M741.32,-204.11C714.08,-207.37 682.09,-211.21 657.11,-214.2"/>
<polygon fill="#63b8ff" stroke="#63b8ff" points="741.65,-207.59 751.17,-202.92 740.82,-200.64 741.65,-207.59"/>
</a>
</g>
</g>
<!-- Node20 -->
<g id="Node000020" class="node">
<title>Node20</title>
<g id="a_Node000020"><a xlink:href="a00473.xhtml#a361ef81afe12623645546fbbeab30b14" target="_top" xlink:title=" ">
<polygon fill="white" stroke="#666666" points="689.5,-191.5 538.5,-191.5 538.5,-161 689.5,-161 689.5,-191.5"/>
<text text-anchor="start" x="546.5" y="-178" font-family="Helvetica,sans-Serif" font-size="10.00">CFeatureFromBlockIf</text>
<text text-anchor="middle" x="614" y="-166.75" font-family="Helvetica,sans-Serif" font-size="10.00">::compFeatureSpectralFlatness</text>
</a>
</g>
</g>
<!-- Node14&#45;&gt;Node20 -->
<g id="edge19_Node000014_Node000020" class="edge">
<title>Node14&#45;&gt;Node20</title>
<g id="a_edge19_Node000014_Node000020"><a xlink:title=" ">
<path fill="none" stroke="#63b8ff" d="M741.64,-190.74C725.26,-188.87 707.13,-186.79 689.84,-184.81"/>
<polygon fill="#63b8ff" stroke="#63b8ff" points="740.83,-194.17 751.16,-191.83 741.63,-187.22 740.83,-194.17"/>
</a>
</g>
</g>
<!-- Node21 -->
<g id="Node000021" class="node">
<title>Node21</title>
<g id="a_Node000021"><a xlink:href="a00509.xhtml#a343e6b52e9696244dd57d4db0f91d056" target="_top" xlink:title=" ">
<polygon fill="white" stroke="#666666" points="656.12,-142.88 571.88,-142.88 571.88,-123.62 656.12,-123.62 656.12,-142.88"/>
<text text-anchor="middle" x="614" y="-129.38" font-family="Helvetica,sans-Serif" font-size="10.00">CKey::compKey</text>
</a>
</g>
</g>
<!-- Node14&#45;&gt;Node21 -->
<g id="edge20_Node000014_Node000021" class="edge">
<title>Node14&#45;&gt;Node21</title>
<g id="a_edge20_Node000014_Node000021"><a xlink:title=" ">
<path fill="none" stroke="#63b8ff" d="M752.25,-183.68C743.25,-180.58 733.98,-177.06 725.5,-173.25 708.61,-165.65 706.64,-159.27 689.5,-152.25 679,-147.95 667.26,-144.41 656.26,-141.6"/>
<polygon fill="#63b8ff" stroke="#63b8ff" points="751,-186.95 761.59,-186.76 753.19,-180.3 751,-186.95"/>
</a>
</g>
</g>
<!-- Node23 -->
<g id="Node000023" class="node">
<title>Node23</title>
<g id="a_Node000023"><a xlink:href="a00465.xhtml#a9c21f9c80f6880682d822c53232bbff9" target="_top" xlink:title=" ">
<polygon fill="white" stroke="#666666" points="490.5,-364.5 353,-364.5 353,-334 490.5,-334 490.5,-364.5"/>
<text text-anchor="start" x="361" y="-351" font-family="Helvetica,sans-Serif" font-size="10.00">CClassifierBase::compNorm</text>
<text text-anchor="middle" x="421.75" y="-339.75" font-family="Helvetica,sans-Serif" font-size="10.00">Constants</text>
</a>
</g>
</g>
<!-- Node14&#45;&gt;Node23 -->
<g id="edge22_Node000014_Node000023" class="edge">
<title>Node14&#45;&gt;Node23</title>
<g id="a_edge22_Node000014_Node000023"><a xlink:title=" ">
<path fill="none" stroke="#63b8ff" d="M741.8,-206.38C735.99,-208.71 730.42,-211.62 725.5,-215.25 700.48,-233.72 714.47,-256.72 689.5,-275.25 633.93,-316.49 605.12,-294.52 538.5,-313.25 531.79,-315.14 501.02,-324.71 472.89,-333.52"/>
<polygon fill="#63b8ff" stroke="#63b8ff" points="742.64,-209.79 751,-203.28 740.41,-203.16 742.64,-209.79"/>
</a>
</g>
</g>
<!-- Node25 -->
<g id="Node000025" class="node">
<title>Node25</title>
<g id="a_Node000025"><a xlink:href="a00517.xhtml#a9f110985f86064fa24aa3157bfd5cab0" target="_top" xlink:title=" ">
<polygon fill="white" stroke="#666666" points="675.62,-341.88 552.38,-341.88 552.38,-322.62 675.62,-322.62 675.62,-341.88"/>
<text text-anchor="middle" x="614" y="-328.38" font-family="Helvetica,sans-Serif" font-size="10.00">CNoveltyIf::compNovelty</text>
</a>
</g>
</g>
<!-- Node14&#45;&gt;Node25 -->
<g id="edge25_Node000014_Node000025" class="edge">
<title>Node14&#45;&gt;Node25</title>
<g id="a_edge25_Node000014_Node000025"><a xlink:title=" ">
<path fill="none" stroke="#63b8ff" d="M741.6,-205.37C735.74,-207.87 730.22,-211.1 725.5,-215.25 692.23,-244.53 721.73,-277.83 689.5,-308.25 683.08,-314.31 675.11,-318.84 666.8,-322.23"/>
<polygon fill="#63b8ff" stroke="#63b8ff" points="742.69,-208.7 750.98,-202.1 740.38,-202.09 742.69,-208.7"/>
</a>
</g>
</g>
<!-- Node27 -->
<g id="Node000027" class="node">
<title>Node27</title>
<g id="a_Node000027"><a xlink:href="a00505.xhtml#ae2ed42101e3d7075f5dec265a23f3424" target="_top" xlink:title=" ">
<polygon fill="white" stroke="#666666" points="656.12,-265.88 571.88,-265.88 571.88,-246.62 656.12,-246.62 656.12,-265.88"/>
<text text-anchor="middle" x="614" y="-252.38" font-family="Helvetica,sans-Serif" font-size="10.00">CVector::getStd</text>
</a>
</g>
</g>
<!-- Node14&#45;&gt;Node27 -->
<g id="edge27_Node000014_Node000027" class="edge">
<title>Node14&#45;&gt;Node27</title>
<g id="a_edge27_Node000014_Node000027"><a xlink:title=" ">
<path fill="none" stroke="#63b8ff" d="M741.8,-209.27C736.21,-211.04 730.69,-213.02 725.5,-215.25 708.05,-222.73 706.97,-230.81 689.5,-238.25 679.09,-242.68 667.39,-246.16 656.39,-248.82"/>
<polygon fill="#63b8ff" stroke="#63b8ff" points="742.49,-212.71 751.12,-206.56 740.54,-205.99 742.49,-212.71"/>
</a>
</g>
</g>
<!-- Node14&#45;&gt;Node31 -->
<g id="edge32_Node000014_Node000031" class="edge">
<title>Node14&#45;&gt;Node31</title>
<g id="a_edge32_Node000014_Node000031"><a xlink:title=" ">
<path fill="none" stroke="#63b8ff" d="M741.76,-183.15C735.95,-180.4 730.4,-177.13 725.5,-173.25 701.43,-154.17 714.32,-132.35 689.5,-114.25 683.37,-109.78 676.28,-106.41 668.95,-103.87"/>
<polygon fill="#63b8ff" stroke="#63b8ff" points="740.41,-186.38 750.99,-186.97 743.08,-179.91 740.41,-186.38"/>
</a>
</g>
</g>
<!-- Node16 -->
<g id="Node000016" class="node">
<title>Node16</title>
<g id="a_Node000016"><a xlink:href="a00601.xhtml#a3185f8f3c718973ce66de3595e38db09" target="_top" xlink:title=" ">
<polygon fill="white" stroke="#666666" points="464.62,-180.88 378.88,-180.88 378.88,-161.62 464.62,-161.62 464.62,-180.88"/>
<text text-anchor="middle" x="421.75" y="-167.38" font-family="Helvetica,sans-Serif" font-size="10.00">CPca::compPca</text>
</a>
</g>
</g>
<!-- Node15&#45;&gt;Node16 -->
<g id="edge15_Node000015_Node000016" class="edge">
<title>Node15&#45;&gt;Node16</title>
<g id="a_edge15_Node000015_Node000016"><a xlink:title=" ">
<path fill="none" stroke="#63b8ff" d="M560.99,-206.32C553.43,-204.34 545.75,-202.28 538.5,-200.25 522.39,-195.74 518.67,-193.54 502.5,-189.25 490.43,-186.05 477.23,-182.92 465.11,-180.19"/>
<polygon fill="#63b8ff" stroke="#63b8ff" points="559.9,-209.65 570.46,-208.76 561.65,-202.87 559.9,-209.65"/>
</a>
</g>
</g>
<!-- Node17 -->
<g id="Node000017" class="node">
<title>Node17</title>
<g id="a_Node000017"><a xlink:href="a00569.xhtml#a5ba31c15070952d0c4cb442c7e257f50" target="_top" xlink:title=" ">
<polygon fill="white" stroke="#666666" points="468,-217.88 375.5,-217.88 375.5,-198.62 468,-198.62 468,-217.88"/>
<text text-anchor="middle" x="421.75" y="-204.38" font-family="Helvetica,sans-Serif" font-size="10.00">CGmm::initState_</text>
</a>
</g>
</g>
<!-- Node15&#45;&gt;Node17 -->
<g id="edge16_Node000015_Node000017" class="edge">
<title>Node15&#45;&gt;Node17</title>
<g id="a_edge16_Node000015_Node000017"><a xlink:title=" ">
<path fill="none" stroke="#63b8ff" d="M559.29,-216.14C530.55,-214.48 495.55,-212.46 468.18,-210.88"/>
<polygon fill="#63b8ff" stroke="#63b8ff" points="559.08,-219.64 569.27,-216.72 559.49,-212.65 559.08,-219.64"/>
</a>
</g>
</g>
<!-- Node18 -->
<g id="Node000018" class="node">
<title>Node18</title>
<g id="a_Node000018"><a xlink:href="a00569.xhtml#a1c5c350c949120b07e5cbd1e317c7ad7" target="_top" xlink:title=" ">
<polygon fill="white" stroke="#666666" points="275,-217.88 175.75,-217.88 175.75,-198.62 275,-198.62 275,-217.88"/>
<text text-anchor="middle" x="225.38" y="-204.38" font-family="Helvetica,sans-Serif" font-size="10.00">CGmm::compGmm</text>
</a>
</g>
</g>
<!-- Node17&#45;&gt;Node18 -->
<g id="edge17_Node000017_Node000018" class="edge">
<title>Node17&#45;&gt;Node18</title>
<g id="a_edge17_Node000017_Node000018"><a xlink:title=" ">
<path fill="none" stroke="#63b8ff" d="M363.92,-208.25C335.85,-208.25 302.33,-208.25 275.4,-208.25"/>
<polygon fill="#63b8ff" stroke="#63b8ff" points="363.66,-211.75 373.66,-208.25 363.66,-204.75 363.66,-211.75"/>
</a>
</g>
</g>
<!-- Node19 -->
<g id="Node000019" class="node">
<title>Node19</title>
<g id="a_Node000019"><a xlink:href="a00573.xhtml#af086e0bae5cc3cb68c35745749b0fda5" target="_top" xlink:title=" ">
<polygon fill="white" stroke="#666666" points="109.75,-287.88 0,-287.88 0,-268.62 109.75,-268.62 109.75,-287.88"/>
<text text-anchor="middle" x="54.88" y="-274.38" font-family="Helvetica,sans-Serif" font-size="10.00">CGmmClassifier::train</text>
</a>
</g>
</g>
<!-- Node18&#45;&gt;Node19 -->
<g id="edge18_Node000018_Node000019" class="edge">
<title>Node18&#45;&gt;Node19</title>
<g id="a_edge18_Node000018_Node000019"><a xlink:title=" ">
<path fill="none" stroke="#63b8ff" d="M175.96,-221.55C165.86,-224.74 155.37,-228.36 145.75,-232.25 119.75,-242.77 91.15,-258.11 73.35,-268.14"/>
<polygon fill="#63b8ff" stroke="#63b8ff" points="176.72,-224.98 185.26,-218.72 174.67,-218.29 176.72,-224.98"/>
</a>
</g>
</g>
<!-- Node22 -->
<g id="Node000022" class="node">
<title>Node22</title>
<g id="a_Node000022"><a xlink:href="a00011.xhtml#a0ddf1224851353fc92bfbff6f499fa97" target="_top" xlink:title=" ">
<polygon fill="white" stroke="#666666" points="440.25,-143.88 403.25,-143.88 403.25,-124.62 440.25,-124.62 440.25,-143.88"/>
<text text-anchor="middle" x="421.75" y="-130.38" font-family="Helvetica,sans-Serif" font-size="10.00">main</text>
</a>
</g>
</g>
<!-- Node21&#45;&gt;Node22 -->
<g id="edge21_Node000021_Node000022" class="edge">
<title>Node21&#45;&gt;Node22</title>
<g id="a_edge21_Node000021_Node000022"><a xlink:title=" ">
<path fill="none" stroke="#63b8ff" d="M560.26,-133.53C520.2,-133.74 467.53,-134.01 440.47,-134.16"/>
<polygon fill="#63b8ff" stroke="#63b8ff" points="560.22,-137.03 570.21,-133.47 560.19,-130.03 560.22,-137.03"/>
</a>
</g>
</g>
<!-- Node23&#45;&gt;Node19 -->
<g id="edge23_Node000023_Node000019" class="edge">
<title>Node23&#45;&gt;Node19</title>
<g id="a_edge23_Node000023_Node000019"><a xlink:title=" ">
<path fill="none" stroke="#63b8ff" d="M341.27,-353.16C285.4,-353.65 209.54,-349.76 145.75,-330.25 115.93,-321.13 85.37,-300.59 68.69,-288.23"/>
<polygon fill="#63b8ff" stroke="#63b8ff" points="341.06,-356.66 351.01,-353.02 340.96,-349.66 341.06,-356.66"/>
</a>
</g>
</g>
<!-- Node24 -->
<g id="Node000024" class="node">
<title>Node24</title>
<g id="a_Node000024"><a xlink:href="a00629.xhtml#aedd5ce22bf1cf98b70cc3757ba244b94" target="_top" xlink:title=" ">
<polygon fill="white" stroke="#666666" points="257,-320.88 193.75,-320.88 193.75,-301.62 257,-301.62 257,-320.88"/>
<text text-anchor="middle" x="225.38" y="-307.38" font-family="Helvetica,sans-Serif" font-size="10.00">CKnn::train</text>
</a>
</g>
</g>
<!-- Node23&#45;&gt;Node24 -->
<g id="edge24_Node000023_Node000024" class="edge">
<title>Node23&#45;&gt;Node24</title>
<g id="a_edge24_Node000023_Node000024"><a xlink:title=" ">
<path fill="none" stroke="#63b8ff" d="M341.56,-333.77C311.95,-327.98 280.03,-321.74 257.32,-317.3"/>
<polygon fill="#63b8ff" stroke="#63b8ff" points="340.8,-337.19 351.28,-335.67 342.14,-330.32 340.8,-337.19"/>
</a>
</g>
</g>
<!-- Node26 -->
<g id="Node000026" class="node">
<title>Node26</title>
<g id="a_Node000026"><a xlink:href="a00008.xhtml#a0ddf1224851353fc92bfbff6f499fa97" target="_top" xlink:title=" ">
<polygon fill="white" stroke="#666666" points="440.25,-401.88 403.25,-401.88 403.25,-382.62 440.25,-382.62 440.25,-401.88"/>
<text text-anchor="middle" x="421.75" y="-388.38" font-family="Helvetica,sans-Serif" font-size="10.00">main</text>
</a>
</g>
</g>
<!-- Node25&#45;&gt;Node26 -->
<g id="edge26_Node000025_Node000026" class="edge">
<title>Node25&#45;&gt;Node26</title>
<g id="a_edge26_Node000025_Node000026"><a xlink:title=" ">
<path fill="none" stroke="#63b8ff" d="M553.81,-345.6C548.56,-347.31 543.39,-349.19 538.5,-351.25 521.22,-358.54 519.83,-366.1 502.5,-373.25 482.11,-381.66 457.17,-386.85 440.67,-389.64"/>
<polygon fill="#63b8ff" stroke="#63b8ff" points="554.6,-349.02 563.16,-342.78 552.58,-342.32 554.6,-349.02"/>
</a>
</g>
</g>
<!-- Node27&#45;&gt;Node23 -->
<g id="edge31_Node000027_Node000023" class="edge">
<title>Node27&#45;&gt;Node23</title>
<g id="a_edge31_Node000027_Node000023"><a xlink:title=" ">
<path fill="none" stroke="#63b8ff" d="M560.9,-268.76C553.04,-271.84 545.29,-275.62 538.5,-280.25 517.62,-294.48 523.43,-310.1 502.5,-324.25 497.21,-327.83 491.38,-330.91 485.36,-333.57"/>
<polygon fill="#63b8ff" stroke="#63b8ff" points="561.92,-272.11 570.2,-265.49 559.6,-265.51 561.92,-272.11"/>
</a>
</g>
</g>
<!-- Node28 -->
<g id="Node000028" class="node">
<title>Node28</title>
<g id="a_Node000028"><a xlink:href="a00473.xhtml#a46500f9eaa49f3860afa5f1fce555415" target="_top" xlink:title=" ">
<polygon fill="white" stroke="#666666" points="481.5,-266.5 362,-266.5 362,-236 481.5,-236 481.5,-266.5"/>
<text text-anchor="start" x="370" y="-253" font-family="Helvetica,sans-Serif" font-size="10.00">CFeatureFromBlockIf</text>
<text text-anchor="middle" x="421.75" y="-241.75" font-family="Helvetica,sans-Serif" font-size="10.00">::compFeatureTimeRms</text>
</a>
</g>
</g>
<!-- Node27&#45;&gt;Node28 -->
<g id="edge28_Node000027_Node000028" class="edge">
<title>Node27&#45;&gt;Node28</title>
<g id="a_edge28_Node000027_Node000028"><a xlink:title=" ">
<path fill="none" stroke="#63b8ff" d="M560.49,-254.87C536.03,-254.23 506.84,-253.46 481.64,-252.8"/>
<polygon fill="#63b8ff" stroke="#63b8ff" points="560.12,-258.36 570.21,-255.13 560.3,-251.36 560.12,-258.36"/>
</a>
</g>
</g>
<!-- Node30 -->
<g id="Node000030" class="node">
<title>Node30</title>
<g id="a_Node000030"><a xlink:href="a00473.xhtml#a4eca7f209c771fb5008fa08facffd598" target="_top" xlink:title=" ">
<polygon fill="white" stroke="#666666" points="478.88,-315.5 364.62,-315.5 364.62,-285 478.88,-285 478.88,-315.5"/>
<text text-anchor="start" x="372.62" y="-302" font-family="Helvetica,sans-Serif" font-size="10.00">CFeatureFromBlockIf</text>
<text text-anchor="middle" x="421.75" y="-290.75" font-family="Helvetica,sans-Serif" font-size="10.00">::compFeatureTimeStd</text>
</a>
</g>
</g>
<!-- Node27&#45;&gt;Node30 -->
<g id="edge30_Node000027_Node000030" class="edge">
<title>Node27&#45;&gt;Node30</title>
<g id="a_edge30_Node000027_Node000030"><a xlink:title=" ">
<path fill="none" stroke="#63b8ff" d="M560.84,-268.31C535.49,-274.18 504.99,-281.23 479.11,-287.22"/>
<polygon fill="#63b8ff" stroke="#63b8ff" points="561.29,-271.8 570.24,-266.14 559.71,-264.98 561.29,-271.8"/>
</a>
</g>
</g>
<!-- Node29 -->
<g id="Node000029" class="node">
<title>Node29</title>
<g id="a_Node000029"><a xlink:href="a00361.xhtml#ab68abfdfc2f9477c81b9d43015ab9ebe" target="_top" xlink:title=" ">
<polygon fill="white" stroke="#666666" points="305,-260.88 145.75,-260.88 145.75,-241.62 305,-241.62 305,-260.88"/>
<text text-anchor="middle" x="225.38" y="-247.38" font-family="Helvetica,sans-Serif" font-size="10.00">CFeatureTimeRms::compFeature</text>
</a>
</g>
</g>
<!-- Node28&#45;&gt;Node29 -->
<g id="edge29_Node000028_Node000029" class="edge">
<title>Node28&#45;&gt;Node29</title>
<g id="a_edge29_Node000028_Node000029"><a xlink:title=" ">
<path fill="none" stroke="#63b8ff" d="M350.16,-251.25C335.58,-251.25 320.14,-251.25 305.28,-251.25"/>
<polygon fill="#63b8ff" stroke="#63b8ff" points="350.13,-254.75 360.13,-251.25 350.13,-247.75 350.13,-254.75"/>
</a>
</g>
</g>
<!-- Node31&#45;&gt;Node18 -->
<g id="edge33_Node000031_Node000018" class="edge">
<title>Node31&#45;&gt;Node18</title>
<g id="a_edge33_Node000031_Node000018"><a xlink:title=" ">
<path fill="none" stroke="#63b8ff" d="M547.71,-90.03C491.05,-87.11 407.84,-88.89 341,-115.25 294.28,-133.68 251.91,-178.4 234.61,-198.36"/>
<polygon fill="#63b8ff" stroke="#63b8ff" points="547.33,-93.51 557.52,-90.6 547.74,-86.52 547.33,-93.51"/>
</a>
</g>
</g>
<!-- Node34 -->
<g id="Node000034" class="node">
<title>Node34</title>
<g id="a_Node000034"><a xlink:href="a00457.xhtml#ad48a5bd574f16b7491b70efb9998935f" target="_top" xlink:title="init configuration">
<polygon fill="white" stroke="#666666" points="652.38,-67.88 575.62,-67.88 575.62,-48.62 652.38,-48.62 652.38,-67.88"/>
<text text-anchor="middle" x="614" y="-54.38" font-family="Helvetica,sans-Serif" font-size="10.00">CChordIf::init_</text>
</a>
</g>
</g>
<!-- Node33&#45;&gt;Node34 -->
<g id="edge36_Node000033_Node000034" class="edge">
<title>Node33&#45;&gt;Node34</title>
<g id="a_edge36_Node000033_Node000034"><a xlink:title=" ">
<path fill="none" stroke="#63b8ff" d="M735.76,-74.04C708.19,-70.44 676.73,-66.32 652.84,-63.2"/>
<polygon fill="#63b8ff" stroke="#63b8ff" points="735.03,-77.48 745.4,-75.3 735.93,-70.54 735.03,-77.48"/>
</a>
</g>
</g>
<!-- Node35 -->
<g id="Node000035" class="node">
<title>Node35</title>
<g id="a_Node000035"><a xlink:href="a00313.xhtml#a6df404d2eb3d4c8f9dc2071930fc9e7e" target="_top" xlink:title=" ">
<polygon fill="white" stroke="#666666" points="502.5,-67.88 341,-67.88 341,-48.62 502.5,-48.62 502.5,-67.88"/>
<text text-anchor="middle" x="421.75" y="-54.38" font-family="Helvetica,sans-Serif" font-size="10.00">CChordFromFile::CChordFromFile</text>
</a>
</g>
</g>
<!-- Node34&#45;&gt;Node35 -->
<g id="edge37_Node000034_Node000035" class="edge">
<title>Node34&#45;&gt;Node35</title>
<g id="a_edge37_Node000034_Node000035"><a xlink:title=" ">
<path fill="none" stroke="#63b8ff" d="M563.94,-58.25C545.29,-58.25 523.52,-58.25 502.74,-58.25"/>
<polygon fill="#63b8ff" stroke="#63b8ff" points="563.9,-61.75 573.9,-58.25 563.9,-54.75 563.9,-61.75"/>
</a>
</g>
</g>
<!-- Node36 -->
<g id="Node000036" class="node">
<title>Node36</title>
<g id="a_Node000036"><a xlink:href="a00317.xhtml#ac9c41c2ddc441df7e0ae80c25971c260" target="_top" xlink:title=" ">
<polygon fill="white" stroke="#666666" points="489.75,-30.5 353.75,-30.5 353.75,0 489.75,0 489.75,-30.5"/>
<text text-anchor="start" x="361.75" y="-17" font-family="Helvetica,sans-Serif" font-size="10.00">CChordFromVector::CChord</text>
<text text-anchor="middle" x="421.75" y="-5.75" font-family="Helvetica,sans-Serif" font-size="10.00">FromVector</text>
</a>
</g>
</g>
<!-- Node34&#45;&gt;Node36 -->
<g id="edge38_Node000034_Node000036" class="edge">
<title>Node34&#45;&gt;Node36</title>
<g id="a_edge38_Node000034_Node000036"><a xlink:title=" ">
<path fill="none" stroke="#63b8ff" d="M564.38,-47.26C541.75,-42.15 514.47,-35.98 489.91,-30.43"/>
<polygon fill="#63b8ff" stroke="#63b8ff" points="563.41,-50.63 573.94,-49.42 564.95,-43.8 563.41,-50.63"/>
</a>
</g>
</g>
</g>
</svg>

<g id="navigator" transform="translate(0 0)" fill="#404254">
  <rect fill="#f2f5e9" fill-opacity="0.5" stroke="#606060" stroke-width=".5" x="0" y="0" width="60" height="60"/>
  <use id="zoomplus" xlink:href="#zoomPlus" x="17" y="9" onmousedown="handleZoom(evt,'in')"/>
  <use id="zoomminus" xlink:href="#zoomMin" x="42" y="9" onmousedown="handleZoom(evt,'out')"/>
  <use id="reset" xlink:href="#resetDef" x="30" y="36" onmousedown="handleReset()"/>
   <use id="arrowup" xlink:href="#arrowUp" x="0" y="0" onmousedown="handlePan(0,-1)"/>
  <use id="arrowright" xlink:href="#arrowRight" x="0" y="0" onmousedown="handlePan(1,0)"/>
  <use id="arrowdown" xlink:href="#arrowDown" x="0" y="0" onmousedown="handlePan(0,1)"/>
  <use id="arrowleft" xlink:href="#arrowLeft" x="0" y="0" onmousedown="handlePan(-1,0)"/>
</g>
<svg viewBox="0 0 15 15" width="100%" height="30px" preserveAspectRatio="xMaxYMin meet">
 <g id="arrow_out" transform="scale(0.3 0.3)">
  <a xlink:href="a00505_abdbcc3898121387f3694f74491b7331e_icgraph_org.svg" target="_base">
   <rect id="button" ry="5" rx="5" y="6" x="6" height="38" width="38"
        fill="#f2f5e9" fill-opacity="0.5" stroke="#606060" stroke-width="1.0"/>
   <path id="arrow"
     d="M 11.500037,31.436501 C 11.940474,20.09759 22.043105,11.32322 32.158766,21.979434 L 37.068811,17.246167 C 37.068811,17.246167 37.088388,32 37.088388,32 L 22.160133,31.978069 C 22.160133,31.978069 26.997745,27.140456 26.997745,27.140456 C 18.528582,18.264221 13.291696,25.230495 11.500037,31.436501 z"
     style="fill:#404040;"/>
  </a>
 </g>
</svg>

<style type='text/css'>
<![CDATA[
[data-mouse-over-selected='false'] { opacity: 0.7; }
[data-mouse-over-selected='true']  { opacity: 1.0; }
]]>
</style>
<script type="application/ecmascript"><![CDATA[
document.addEventListener('DOMContentLoaded', (event) => {
  highlightEdges();
  highlightAdjacentNodes();
});
]]></script>
</svg>
