<?xml version="1.0" encoding="UTF-8" standalone="no"?>
<!DOCTYPE svg PUBLIC "-//W3C//DTD SVG 1.1//EN"
 "http://www.w3.org/Graphics/SVG/1.1/DTD/svg11.dtd">
<!-- Generated by graphviz version 6.0.1 (20220911.1526)
 -->
<!-- Title: CPca::init Pages: 1 -->
<svg width="414pt" height="46pt"
 viewBox="0.00 0.00 414.00 46.00" xmlns="http://www.w3.org/2000/svg" xmlns:xlink="http://www.w3.org/1999/xlink">
<g id="graph0" class="graph" transform="scale(1 1) rotate(0) translate(4 42)">
<title>CPca::init</title>
<!-- Node1 -->
<g id="node1" class="node">
<title>Node1</title>
<g id="a_node1"><a xlink:title=" ">
<polygon fill="#999999" stroke="#666666" points="58,-38 0,-38 0,-19 58,-19 58,-38"/>
<text text-anchor="middle" x="29" y="-26" font-family="Helvetica,sans-Serif" font-size="10.00">CPca::init</text>
</a>
</g>
</g>
<!-- Node2 -->
<g id="node2" class="node">
<title>Node2</title>
<g id="a_node2"><a xlink:href="a00502.xhtml#abaadac98b1cad18b7b568852bc951696" target="_top" xlink:title=" ">
<polygon fill="white" stroke="#666666" points="281,-38 204,-38 204,-19 281,-19 281,-38"/>
<text text-anchor="middle" x="242.5" y="-26" font-family="Helvetica,sans-Serif" font-size="10.00">CVector::alloc</text>
</a>
</g>
</g>
<!-- Node1&#45;&gt;Node2 -->
<g id="edge1" class="edge">
<title>Node1&#45;&gt;Node2</title>
<path fill="none" stroke="#63b8ff" d="M58.09,-28.5C92.58,-28.5 151.65,-28.5 193.42,-28.5"/>
<polygon fill="#63b8ff" stroke="#63b8ff" points="193.64,-32 203.64,-28.5 193.64,-25 193.64,-32"/>
</g>
<!-- Node4 -->
<g id="node4" class="node">
<title>Node4</title>
<g id="a_node4"><a xlink:href="a00486.xhtml#a6501b78d76c912d49eee88c8f7242923" target="_top" xlink:title=" ">
<polygon fill="white" stroke="#666666" points="168,-19 94,-19 94,0 168,0 168,-19"/>
<text text-anchor="middle" x="131" y="-7" font-family="Helvetica,sans-Serif" font-size="10.00">CMatrix::alloc</text>
</a>
</g>
</g>
<!-- Node1&#45;&gt;Node4 -->
<g id="edge3" class="edge">
<title>Node1&#45;&gt;Node4</title>
<path fill="none" stroke="#63b8ff" d="M58.12,-23.16C66.18,-21.63 75.18,-19.92 84.02,-18.24"/>
<polygon fill="#63b8ff" stroke="#63b8ff" points="84.69,-21.67 93.86,-16.37 83.38,-14.79 84.69,-21.67"/>
</g>
<!-- Node3 -->
<g id="node3" class="node">
<title>Node3</title>
<g id="a_node3"><a xlink:href="a00502.xhtml#a6dbb3f9f480568b60f7fe50090d20003" target="_top" xlink:title=" ">
<polygon fill="white" stroke="#666666" points="406,-38 317,-38 317,-19 406,-19 406,-38"/>
<text text-anchor="middle" x="361.5" y="-26" font-family="Helvetica,sans-Serif" font-size="10.00">CVector::setZero</text>
</a>
</g>
</g>
<!-- Node2&#45;&gt;Node3 -->
<g id="edge2" class="edge">
<title>Node2&#45;&gt;Node3</title>
<path fill="none" stroke="#63b8ff" d="M281.16,-28.5C289.33,-28.5 298.11,-28.5 306.76,-28.5"/>
<polygon fill="#63b8ff" stroke="#63b8ff" points="306.8,-32 316.8,-28.5 306.8,-25 306.8,-32"/>
</g>
<!-- Node4&#45;&gt;Node2 -->
<g id="edge4" class="edge">
<title>Node4&#45;&gt;Node2</title>
<path fill="none" stroke="#63b8ff" d="M168.16,-15.77C176.4,-17.2 185.27,-18.74 193.91,-20.24"/>
<polygon fill="#63b8ff" stroke="#63b8ff" points="193.43,-23.71 203.88,-21.97 194.62,-16.81 193.43,-23.71"/>
</g>
</g>
</svg>
