<?xml version="1.0" encoding="UTF-8" standalone="no"?>
<!DOCTYPE svg PUBLIC "-//W3C//DTD SVG 1.1//EN"
 "http://www.w3.org/Graphics/SVG/1.1/DTD/svg11.dtd">
<!-- Generated by graphviz version 12.2.1 (20241206.2353)
 -->
<!-- Title: CPitchIf::isPitchExtractorSpectral_ Pages: 1 -->
<svg width="451pt" height="113pt"
 viewBox="0.00 0.00 450.50 112.88" xmlns="http://www.w3.org/2000/svg" xmlns:xlink="http://www.w3.org/1999/xlink">
<g id="graph0" class="graph" transform="scale(1 1) rotate(0) translate(4 108.88)">
<title>CPitchIf::isPitchExtractorSpectral_</title>
<!-- Node1 -->
<g id="Node000001" class="node">
<title>Node1</title>
<g id="a_Node000001"><a xlink:title=" ">
<polygon fill="#999999" stroke="#666666" points="442.5,-91.5 318.5,-91.5 318.5,-61 442.5,-61 442.5,-91.5"/>
<text text-anchor="start" x="326.5" y="-78" font-family="Helvetica,sans-Serif" font-size="10.00">CPitchIf::isPitchExtractor</text>
<text text-anchor="middle" x="380.5" y="-66.75" font-family="Helvetica,sans-Serif" font-size="10.00">Spectral_</text>
</a>
</g>
</g>
<!-- Node2 -->
<g id="Node000002" class="node">
<title>Node2</title>
<g id="a_Node000002"><a xlink:href="a00525.xhtml#a5c6fea7fdc8067f1d6a116b86d543aa1" target="_top" xlink:title=" ">
<polygon fill="white" stroke="#666666" points="282.5,-104.88 191.5,-104.88 191.5,-85.62 282.5,-85.62 282.5,-104.88"/>
<text text-anchor="middle" x="237" y="-91.38" font-family="Helvetica,sans-Serif" font-size="10.00">CPitchIf::compF0</text>
</a>
</g>
</g>
<!-- Node1&#45;&gt;Node2 -->
<g id="edge1_Node000001_Node000002" class="edge">
<title>Node1&#45;&gt;Node2</title>
<g id="a_edge1_Node000001_Node000002"><a xlink:title=" ">
<path fill="none" stroke="#63b8ff" d="M306.99,-85.99C298.71,-87.1 290.46,-88.21 282.7,-89.25"/>
<polygon fill="#63b8ff" stroke="#63b8ff" points="307.31,-89.47 316.76,-84.67 306.38,-82.54 307.31,-89.47"/>
</a>
</g>
</g>
<!-- Node4 -->
<g id="Node000004" class="node">
<title>Node4</title>
<g id="a_Node000004"><a xlink:href="a00525.xhtml#a3a966aff4a49e12324f205b20c5f2232" target="_top" xlink:title="init configuration">
<polygon fill="white" stroke="#666666" points="273.88,-67.88 200.12,-67.88 200.12,-48.62 273.88,-48.62 273.88,-67.88"/>
<text text-anchor="middle" x="237" y="-54.38" font-family="Helvetica,sans-Serif" font-size="10.00">CPitchIf::init_</text>
</a>
</g>
</g>
<!-- Node1&#45;&gt;Node4 -->
<g id="edge3_Node000001_Node000004" class="edge">
<title>Node1&#45;&gt;Node4</title>
<g id="a_edge3_Node000001_Node000004"><a xlink:title=" ">
<path fill="none" stroke="#63b8ff" d="M306.88,-67.01C295.47,-65.56 284.13,-64.12 274.05,-62.84"/>
<polygon fill="#63b8ff" stroke="#63b8ff" points="306.4,-70.48 316.76,-68.27 307.28,-63.53 306.4,-70.48"/>
</a>
</g>
</g>
<!-- Node3 -->
<g id="Node000003" class="node">
<title>Node3</title>
<g id="a_Node000003"><a xlink:href="a00119.xhtml#a0ddf1224851353fc92bfbff6f499fa97" target="_top" xlink:title=" ">
<polygon fill="white" stroke="#666666" points="96.25,-104.88 59.25,-104.88 59.25,-85.62 96.25,-85.62 96.25,-104.88"/>
<text text-anchor="middle" x="77.75" y="-91.38" font-family="Helvetica,sans-Serif" font-size="10.00">main</text>
</a>
</g>
</g>
<!-- Node2&#45;&gt;Node3 -->
<g id="edge2_Node000002_Node000003" class="edge">
<title>Node2&#45;&gt;Node3</title>
<g id="a_edge2_Node000002_Node000003"><a xlink:title=" ">
<path fill="none" stroke="#63b8ff" d="M179.99,-95.25C150.72,-95.25 116.88,-95.25 96.68,-95.25"/>
<polygon fill="#63b8ff" stroke="#63b8ff" points="179.85,-98.75 189.85,-95.25 179.85,-91.75 179.85,-98.75"/>
</a>
</g>
</g>
<!-- Node5 -->
<g id="Node000005" class="node">
<title>Node5</title>
<g id="a_Node000005"><a xlink:href="a00373.xhtml#ab74f454ce0bbdccd22a38066ce26b16a" target="_top" xlink:title=" ">
<polygon fill="white" stroke="#666666" points="155.5,-67.88 0,-67.88 0,-48.62 155.5,-48.62 155.5,-67.88"/>
<text text-anchor="middle" x="77.75" y="-54.38" font-family="Helvetica,sans-Serif" font-size="10.00">CPitchFromFile::CPitchFromFile</text>
</a>
</g>
</g>
<!-- Node4&#45;&gt;Node5 -->
<g id="edge4_Node000004_Node000005" class="edge">
<title>Node4&#45;&gt;Node5</title>
<g id="a_edge4_Node000004_Node000005"><a xlink:title=" ">
<path fill="none" stroke="#63b8ff" d="M188.6,-58.25C178.19,-58.25 166.92,-58.25 155.69,-58.25"/>
<polygon fill="#63b8ff" stroke="#63b8ff" points="188.41,-61.75 198.41,-58.25 188.41,-54.75 188.41,-61.75"/>
</a>
</g>
</g>
<!-- Node6 -->
<g id="Node000006" class="node">
<title>Node6</title>
<g id="a_Node000006"><a xlink:href="a00377.xhtml#a383eb44fd89db6be0119177effcf90bd" target="_top" xlink:title=" ">
<polygon fill="white" stroke="#666666" points="142.75,-30.5 12.75,-30.5 12.75,0 142.75,0 142.75,-30.5"/>
<text text-anchor="start" x="20.75" y="-17" font-family="Helvetica,sans-Serif" font-size="10.00">CPitchFromVector::CPitch</text>
<text text-anchor="middle" x="77.75" y="-5.75" font-family="Helvetica,sans-Serif" font-size="10.00">FromVector</text>
</a>
</g>
</g>
<!-- Node4&#45;&gt;Node6 -->
<g id="edge5_Node000004_Node000006" class="edge">
<title>Node4&#45;&gt;Node6</title>
<g id="a_edge5_Node000004_Node000006"><a xlink:title=" ">
<path fill="none" stroke="#63b8ff" d="M188.87,-45.36C172.32,-40.84 153.54,-35.7 136.23,-30.97"/>
<polygon fill="#63b8ff" stroke="#63b8ff" points="187.89,-48.72 198.46,-47.99 189.74,-41.97 187.89,-48.72"/>
</a>
</g>
</g>
</g>
</svg>
