<?xml version="1.0" encoding="UTF-8" standalone="no"?>
<!DOCTYPE svg PUBLIC "-//W3C//DTD SVG 1.1//EN"
 "http://www.w3.org/Graphics/SVG/1.1/DTD/svg11.dtd">
<!-- Generated by graphviz version 12.2.1 (20241206.2353)
 -->
<!-- Title: CSubFingerprint::CSubFingerprint Pages: 1 -->
<svg width="847pt" height="140pt"
 viewBox="0.00 0.00 847.00 140.25" xmlns="http://www.w3.org/2000/svg" xmlns:xlink="http://www.w3.org/1999/xlink">
<g id="graph0" class="graph" transform="scale(1 1) rotate(0) translate(4 136.25)">
<title>CSubFingerprint::CSubFingerprint</title>
<!-- Node1 -->
<g id="Node000001" class="node">
<title>Node1</title>
<g id="a_Node000001"><a xlink:title=" ">
<polygon fill="#999999" stroke="#666666" points="160,-94.25 0,-94.25 0,-75 160,-75 160,-94.25"/>
<text text-anchor="middle" x="80" y="-80.75" font-family="Helvetica,sans-Serif" font-size="10.00">CSubFingerprint::CSubFingerprint</text>
</a>
</g>
</g>
<!-- Node2 -->
<g id="Node000002" class="node">
<title>Node2</title>
<g id="a_Node000002"><a xlink:href="a00541.xhtml#a713f1061ff32359a059c47c60bee4700" target="_top" xlink:title=" ">
<polygon fill="white" stroke="#666666" points="356,-94.25 196,-94.25 196,-75 356,-75 356,-94.25"/>
<text text-anchor="middle" x="276" y="-80.75" font-family="Helvetica,sans-Serif" font-size="10.00">CSubFingerprint::CSubFingerprint</text>
</a>
</g>
</g>
<!-- Node1&#45;&gt;Node2 -->
<g id="edge1_Node000001_Node000002" class="edge">
<title>Node1&#45;&gt;Node2</title>
<g id="a_edge1_Node000001_Node000002"><a xlink:title=" ">
<path fill="none" stroke="#63b8ff" d="M160.47,-84.62C168.36,-84.62 176.42,-84.62 184.41,-84.62"/>
<polygon fill="#63b8ff" stroke="#63b8ff" points="184.14,-88.13 194.14,-84.63 184.14,-81.13 184.14,-88.13"/>
</a>
</g>
</g>
<!-- Node3 -->
<g id="Node000003" class="node">
<title>Node3</title>
<g id="a_Node000003"><a xlink:href="a00489.xhtml#a6501b78d76c912d49eee88c8f7242923" target="_top" xlink:title=" ">
<polygon fill="white" stroke="#666666" points="498.38,-132.25 424.62,-132.25 424.62,-113 498.38,-113 498.38,-132.25"/>
<text text-anchor="middle" x="461.5" y="-118.75" font-family="Helvetica,sans-Serif" font-size="10.00">CMatrix::alloc</text>
</a>
</g>
</g>
<!-- Node2&#45;&gt;Node3 -->
<g id="edge2_Node000002_Node000003" class="edge">
<title>Node2&#45;&gt;Node3</title>
<g id="a_edge2_Node000002_Node000003"><a xlink:title=" ">
<path fill="none" stroke="#63b8ff" d="M325.69,-94.71C352.82,-100.33 386.44,-107.29 413.32,-112.86"/>
<polygon fill="#63b8ff" stroke="#63b8ff" points="412.41,-116.24 422.91,-114.84 413.83,-109.39 412.41,-116.24"/>
</a>
</g>
</g>
<!-- Node4 -->
<g id="Node000004" class="node">
<title>Node4</title>
<g id="a_Node000004"><a xlink:href="a00505.xhtml#abaadac98b1cad18b7b568852bc951696" target="_top" xlink:title=" ">
<polygon fill="white" stroke="#666666" points="678.62,-130.25 602.62,-130.25 602.62,-111 678.62,-111 678.62,-130.25"/>
<text text-anchor="middle" x="640.62" y="-116.75" font-family="Helvetica,sans-Serif" font-size="10.00">CVector::alloc</text>
</a>
</g>
</g>
<!-- Node2&#45;&gt;Node4 -->
<g id="edge5_Node000002_Node000004" class="edge">
<title>Node2&#45;&gt;Node4</title>
<g id="a_edge5_Node000002_Node000004"><a xlink:title=" ">
<path fill="none" stroke="#63b8ff" d="M356.38,-88.91C406.55,-92.03 472.68,-96.89 531,-103.62 550.79,-105.91 572.49,-109.16 591.26,-112.2"/>
<polygon fill="#63b8ff" stroke="#63b8ff" points="590.59,-115.64 601.03,-113.81 591.73,-108.73 590.59,-115.64"/>
</a>
</g>
</g>
<!-- Node6 -->
<g id="Node000006" class="node">
<title>Node6</title>
<g id="a_Node000006"><a xlink:href="a00541.xhtml#acc7689ea3256ad6c8d9efe3006434d13" target="_top" xlink:title=" ">
<polygon fill="white" stroke="#666666" points="531,-56.25 392,-56.25 392,-37 531,-37 531,-56.25"/>
<text text-anchor="middle" x="461.5" y="-42.75" font-family="Helvetica,sans-Serif" font-size="10.00">CSubFingerprint::genBands_</text>
</a>
</g>
</g>
<!-- Node2&#45;&gt;Node6 -->
<g id="edge6_Node000002_Node000006" class="edge">
<title>Node2&#45;&gt;Node6</title>
<g id="a_edge6_Node000002_Node000006"><a xlink:title=" ">
<path fill="none" stroke="#63b8ff" d="M325.69,-74.54C348.7,-69.78 376.38,-64.05 400.65,-59.02"/>
<polygon fill="#63b8ff" stroke="#63b8ff" points="401.33,-62.45 410.42,-57 399.91,-55.6 401.33,-62.45"/>
</a>
</g>
</g>
<!-- Node3&#45;&gt;Node4 -->
<g id="edge3_Node000003_Node000004" class="edge">
<title>Node3&#45;&gt;Node4</title>
<g id="a_edge3_Node000003_Node000004"><a xlink:title=" ">
<path fill="none" stroke="#63b8ff" d="M498.77,-122.22C525.4,-121.91 561.85,-121.5 591,-121.17"/>
<polygon fill="#63b8ff" stroke="#63b8ff" points="590.71,-124.68 600.67,-121.06 590.63,-117.68 590.71,-124.68"/>
</a>
</g>
</g>
<!-- Node5 -->
<g id="Node000005" class="node">
<title>Node5</title>
<g id="a_Node000005"><a xlink:href="a00505.xhtml#a6dbb3f9f480568b60f7fe50090d20003" target="_top" xlink:title=" ">
<polygon fill="white" stroke="#666666" points="839,-74.25 750.25,-74.25 750.25,-55 839,-55 839,-74.25"/>
<text text-anchor="middle" x="794.62" y="-60.75" font-family="Helvetica,sans-Serif" font-size="10.00">CVector::setZero</text>
</a>
</g>
</g>
<!-- Node4&#45;&gt;Node5 -->
<g id="edge4_Node000004_Node000005" class="edge">
<title>Node4&#45;&gt;Node5</title>
<g id="a_edge4_Node000004_Node000005"><a xlink:title=" ">
<path fill="none" stroke="#63b8ff" d="M679,-112.9C690.46,-110.12 703,-106.66 714.25,-102.62 731.72,-96.35 750.49,-87.47 765.39,-79.87"/>
<polygon fill="#63b8ff" stroke="#63b8ff" points="766.88,-83.04 774.13,-75.32 763.65,-76.83 766.88,-83.04"/>
</a>
</g>
</g>
<!-- Node7 -->
<g id="Node000007" class="node">
<title>Node7</title>
<g id="a_Node000007"><a xlink:href="a00553.xhtml#ada82d84a69f4c77266835f1f06ca2ecb" target="_top" xlink:title=" ">
<polygon fill="white" stroke="#666666" points="714.25,-93.25 567,-93.25 567,-74 714.25,-74 714.25,-93.25"/>
<text text-anchor="middle" x="640.62" y="-79.75" font-family="Helvetica,sans-Serif" font-size="10.00">CConversion::convertFreq2Bin</text>
</a>
</g>
</g>
<!-- Node6&#45;&gt;Node7 -->
<g id="edge7_Node000006_Node000007" class="edge">
<title>Node6&#45;&gt;Node7</title>
<g id="a_edge7_Node000006_Node000007"><a xlink:title=" ">
<path fill="none" stroke="#63b8ff" d="M510.9,-56.74C532.28,-61.2 557.62,-66.5 580.14,-71.2"/>
<polygon fill="#63b8ff" stroke="#63b8ff" points="579.3,-74.6 589.8,-73.22 580.73,-67.75 579.3,-74.6"/>
</a>
</g>
</g>
<!-- Node8 -->
<g id="Node000008" class="node">
<title>Node8</title>
<g id="a_Node000008"><a xlink:href="a00505.xhtml#a4cf9544dd96801e3ee47fd1ef2049a1b" target="_top" xlink:title=" ">
<polygon fill="white" stroke="#666666" points="687.62,-56.25 593.62,-56.25 593.62,-37 687.62,-37 687.62,-56.25"/>
<text text-anchor="middle" x="640.62" y="-42.75" font-family="Helvetica,sans-Serif" font-size="10.00">CVector::setValue</text>
</a>
</g>
</g>
<!-- Node6&#45;&gt;Node8 -->
<g id="edge8_Node000006_Node000008" class="edge">
<title>Node6&#45;&gt;Node8</title>
<g id="a_edge8_Node000006_Node000008"><a xlink:title=" ">
<path fill="none" stroke="#63b8ff" d="M531.49,-46.62C548.14,-46.62 565.76,-46.62 581.83,-46.62"/>
<polygon fill="#63b8ff" stroke="#63b8ff" points="581.72,-50.13 591.72,-46.63 581.72,-43.13 581.72,-50.13"/>
</a>
</g>
</g>
<!-- Node9 -->
<g id="Node000009" class="node">
<title>Node9</title>
<g id="a_Node000009"><a xlink:href="a00489.xhtml#a7be1ae4f635c5aaec0c2693fc23b3646" target="_top" xlink:title=" ">
<polygon fill="white" stroke="#666666" points="683.88,-19.25 597.38,-19.25 597.38,0 683.88,0 683.88,-19.25"/>
<text text-anchor="middle" x="640.62" y="-5.75" font-family="Helvetica,sans-Serif" font-size="10.00">CMatrix::setZero</text>
</a>
</g>
</g>
<!-- Node6&#45;&gt;Node9 -->
<g id="edge9_Node000006_Node000009" class="edge">
<title>Node6&#45;&gt;Node9</title>
<g id="a_edge9_Node000006_Node000009"><a xlink:title=" ">
<path fill="none" stroke="#63b8ff" d="M510.9,-36.51C534.16,-31.66 562.1,-25.82 586,-20.83"/>
<polygon fill="#63b8ff" stroke="#63b8ff" points="586.46,-24.31 595.53,-18.84 585.03,-17.45 586.46,-24.31"/>
</a>
</g>
</g>
<!-- Node9&#45;&gt;Node5 -->
<g id="edge10_Node000009_Node000005" class="edge">
<title>Node9&#45;&gt;Node5</title>
<g id="a_edge10_Node000009_Node000005"><a xlink:title=" ">
<path fill="none" stroke="#63b8ff" d="M684.28,-18.74C694.22,-21.26 704.7,-24.25 714.25,-27.62 731.44,-33.7 749.94,-42.2 764.75,-49.52"/>
<polygon fill="#63b8ff" stroke="#63b8ff" points="762.95,-52.53 773.46,-53.91 766.11,-46.28 762.95,-52.53"/>
</a>
</g>
</g>
</g>
</svg>
