<?xml version="1.0" encoding="UTF-8" standalone="no"?>
<!DOCTYPE svg PUBLIC "-//W3C//DTD SVG 1.1//EN"
 "http://www.w3.org/Graphics/SVG/1.1/DTD/svg11.dtd">
<!-- Generated by graphviz version 4.0.0 (20220602.1335)
 -->
<!-- Title: CConversion::convertFreq2Bin Pages: 1 -->
<svg width="621pt" height="350pt"
 viewBox="0.00 0.00 621.00 350.00" xmlns="http://www.w3.org/2000/svg" xmlns:xlink="http://www.w3.org/1999/xlink">
<g id="graph0" class="graph" transform="scale(1 1) rotate(0) translate(4 346)">
<title>CConversion::convertFreq2Bin</title>
<polygon fill="white" stroke="transparent" points="-4,4 -4,-346 617,-346 617,4 -4,4"/>
<!-- Node1 -->
<g id="node1" class="node">
<title>Node1</title>
<g id="a_node1"><a xlink:title=" ">
<polygon fill="#bfbfbf" stroke="black" points="465,-186 465,-205 613,-205 613,-186 465,-186"/>
<text text-anchor="middle" x="539" y="-193" font-family="Helvetica,sans-Serif" font-size="10.00">CConversion::convertFreq2Bin</text>
</a>
</g>
</g>
<!-- Node2 -->
<g id="node2" class="node">
<title>Node2</title>
<g id="a_node2"><a xlink:href="a00369.xhtml#a250792b516c76c54251534a33c17bea8" target="_top" xlink:title=" ">
<polygon fill="white" stroke="black" points="299.5,-311.5 299.5,-341.5 400.5,-341.5 400.5,-311.5 299.5,-311.5"/>
<text text-anchor="start" x="307.5" y="-329.5" font-family="Helvetica,sans-Serif" font-size="10.00">CPitchSpectralAcf::</text>
<text text-anchor="middle" x="350" y="-318.5" font-family="Helvetica,sans-Serif" font-size="10.00">compF0</text>
</a>
</g>
</g>
<!-- Node1&#45;&gt;Node2 -->
<g id="edge1" class="edge">
<title>Node1&#45;&gt;Node2</title>
<path fill="none" stroke="midnightblue" d="M524.61,-213.13C505.77,-236.78 469.2,-278.55 429,-302.5 420.36,-307.65 410.51,-311.79 400.79,-315.08"/>
<polygon fill="midnightblue" stroke="midnightblue" points="527.54,-215.07 530.94,-205.03 522.02,-210.76 527.54,-215.07"/>
</g>
<!-- Node3 -->
<g id="node3" class="node">
<title>Node3</title>
<g id="a_node3"><a xlink:href="a00373.xhtml#ad6b1dafb86b44b1d31bfbe22e930d146" target="_top" xlink:title=" ">
<polygon fill="white" stroke="black" points="298,-262.5 298,-292.5 402,-292.5 402,-262.5 298,-262.5"/>
<text text-anchor="start" x="306" y="-280.5" font-family="Helvetica,sans-Serif" font-size="10.00">CPitchSpectralHps::</text>
<text text-anchor="middle" x="350" y="-269.5" font-family="Helvetica,sans-Serif" font-size="10.00">compF0</text>
</a>
</g>
</g>
<!-- Node1&#45;&gt;Node3 -->
<g id="edge2" class="edge">
<title>Node1&#45;&gt;Node3</title>
<path fill="none" stroke="midnightblue" d="M512.92,-210.2C491.2,-222.54 458.69,-240.09 429,-252.5 420.47,-256.07 411.25,-259.43 402.23,-262.47"/>
<polygon fill="midnightblue" stroke="midnightblue" points="514.87,-213.11 521.8,-205.1 511.39,-207.04 514.87,-213.11"/>
</g>
<!-- Node4 -->
<g id="node4" class="node">
<title>Node4</title>
<g id="a_node4"><a xlink:href="a00441.xhtml#a6932e0fb367cea8c959aa99f8f07f585" target="_top" xlink:title=" ">
<polygon fill="white" stroke="black" points="271,-224 271,-243 429,-243 429,-224 271,-224"/>
<text text-anchor="middle" x="350" y="-231" font-family="Helvetica,sans-Serif" font-size="10.00">CBeatHistoIf::compHistoRange_</text>
</a>
</g>
</g>
<!-- Node1&#45;&gt;Node4 -->
<g id="edge3" class="edge">
<title>Node1&#45;&gt;Node4</title>
<path fill="none" stroke="midnightblue" d="M480.87,-207.11C454.27,-212.51 423.03,-218.86 397.85,-223.98"/>
<polygon fill="midnightblue" stroke="midnightblue" points="481.71,-210.51 490.81,-205.09 480.32,-203.65 481.71,-210.51"/>
</g>
<!-- Node9 -->
<g id="node9" class="node">
<title>Node9</title>
<g id="a_node9"><a xlink:href="a00537.xhtml#a588044409f07aff268246ced2d71ee29" target="_top" xlink:title=" ">
<polygon fill="white" stroke="black" points="276,-186 276,-205 424,-205 424,-186 276,-186"/>
<text text-anchor="middle" x="350" y="-193" font-family="Helvetica,sans-Serif" font-size="10.00">CConversion::convertFreq2Bin</text>
</a>
</g>
</g>
<!-- Node1&#45;&gt;Node9 -->
<g id="edge8" class="edge">
<title>Node1&#45;&gt;Node9</title>
<path fill="none" stroke="midnightblue" d="M454.74,-195.5C444.51,-195.5 434.12,-195.5 424.05,-195.5"/>
<polygon fill="midnightblue" stroke="midnightblue" points="454.9,-199 464.9,-195.5 454.9,-192 454.9,-199"/>
</g>
<!-- Node10 -->
<g id="node10" class="node">
<title>Node10</title>
<g id="a_node10"><a xlink:href="a00525.xhtml#acc7689ea3256ad6c8d9efe3006434d13" target="_top" xlink:title=" ">
<polygon fill="white" stroke="black" points="280,-148 280,-167 420,-167 420,-148 280,-148"/>
<text text-anchor="middle" x="350" y="-155" font-family="Helvetica,sans-Serif" font-size="10.00">CSubFingerprint::genBands_</text>
</a>
</g>
</g>
<!-- Node1&#45;&gt;Node10 -->
<g id="edge9" class="edge">
<title>Node1&#45;&gt;Node10</title>
<path fill="none" stroke="midnightblue" d="M480.87,-183.89C454.27,-178.49 423.03,-172.14 397.85,-167.02"/>
<polygon fill="midnightblue" stroke="midnightblue" points="480.32,-187.35 490.81,-185.91 481.71,-180.49 480.32,-187.35"/>
</g>
<!-- Node12 -->
<g id="node12" class="node">
<title>Node12</title>
<g id="a_node12"><a xlink:href="a00321.xhtml#a2123af520406a1b09fcf2437043c3b92" target="_top" xlink:title=" ">
<polygon fill="white" stroke="black" points="290.5,-98.5 290.5,-128.5 409.5,-128.5 409.5,-98.5 290.5,-98.5"/>
<text text-anchor="start" x="298.5" y="-116.5" font-family="Helvetica,sans-Serif" font-size="10.00">CFeatureSpectralMfccs</text>
<text text-anchor="middle" x="350" y="-105.5" font-family="Helvetica,sans-Serif" font-size="10.00">::genMfccFilters_</text>
</a>
</g>
</g>
<!-- Node1&#45;&gt;Node12 -->
<g id="edge11" class="edge">
<title>Node1&#45;&gt;Node12</title>
<path fill="none" stroke="midnightblue" d="M512.92,-180.8C491.2,-168.46 458.69,-150.91 429,-138.5 420.47,-134.93 411.25,-131.57 402.23,-128.53"/>
<polygon fill="midnightblue" stroke="midnightblue" points="511.39,-183.96 521.8,-185.9 514.87,-177.89 511.39,-183.96"/>
</g>
<!-- Node14 -->
<g id="node14" class="node">
<title>Node14</title>
<g id="a_node14"><a xlink:href="a00325.xhtml#a88b4352ab8251a177a5351c638ad5b3c" target="_top" xlink:title=" ">
<polygon fill="white" stroke="black" points="275.5,-49.5 275.5,-79.5 424.5,-79.5 424.5,-49.5 275.5,-49.5"/>
<text text-anchor="start" x="283.5" y="-67.5" font-family="Helvetica,sans-Serif" font-size="10.00">CFeatureSpectralPitchChroma</text>
<text text-anchor="middle" x="350" y="-56.5" font-family="Helvetica,sans-Serif" font-size="10.00">::genPcFilters_</text>
</a>
</g>
</g>
<!-- Node1&#45;&gt;Node14 -->
<g id="edge13" class="edge">
<title>Node1&#45;&gt;Node14</title>
<path fill="none" stroke="midnightblue" d="M524.61,-177.87C505.77,-154.22 469.2,-112.45 429,-88.5 423.28,-85.09 417.03,-82.13 410.64,-79.55"/>
<polygon fill="midnightblue" stroke="midnightblue" points="522.02,-180.24 530.94,-185.97 527.54,-175.93 522.02,-180.24"/>
</g>
<!-- Node5 -->
<g id="node5" class="node">
<title>Node5</title>
<g id="a_node5"><a xlink:href="a00441.xhtml#a58a9a3d685f448ced2e843a60028e472" target="_top" xlink:title=" ">
<polygon fill="white" stroke="black" points="82,-274 82,-293 227,-293 227,-274 82,-274"/>
<text text-anchor="middle" x="154.5" y="-281" font-family="Helvetica,sans-Serif" font-size="10.00">CBeatHistoIf::compBeatHisto</text>
</a>
</g>
</g>
<!-- Node4&#45;&gt;Node5 -->
<g id="edge4" class="edge">
<title>Node4&#45;&gt;Node5</title>
<path fill="none" stroke="midnightblue" d="M300.44,-245.59C290.67,-248.12 280.49,-250.84 271,-253.5 254.89,-258.02 251.14,-260.11 235,-264.5 222.95,-267.78 209.79,-271.05 197.71,-273.93"/>
<polygon fill="midnightblue" stroke="midnightblue" points="301.61,-248.9 310.42,-243.02 299.87,-242.12 301.61,-248.9"/>
</g>
<!-- Node7 -->
<g id="node7" class="node">
<title>Node7</title>
<g id="a_node7"><a xlink:href="a00441.xhtml#ab14aabd3d1e26ba1f0c9ce1777eaddf9" target="_top" xlink:title=" ">
<polygon fill="white" stroke="black" points="87.5,-224.5 87.5,-254.5 221.5,-254.5 221.5,-224.5 87.5,-224.5"/>
<text text-anchor="start" x="95.5" y="-242.5" font-family="Helvetica,sans-Serif" font-size="10.00">CBeatHistoIf::getBeatHisto</text>
<text text-anchor="middle" x="154.5" y="-231.5" font-family="Helvetica,sans-Serif" font-size="10.00">AxisTicks</text>
</a>
</g>
</g>
<!-- Node4&#45;&gt;Node7 -->
<g id="edge6" class="edge">
<title>Node4&#45;&gt;Node7</title>
<path fill="none" stroke="midnightblue" d="M260.81,-236.23C247.59,-236.64 234.17,-237.06 221.52,-237.45"/>
<polygon fill="midnightblue" stroke="midnightblue" points="260.97,-239.73 270.85,-235.92 260.75,-232.73 260.97,-239.73"/>
</g>
<!-- Node8 -->
<g id="node8" class="node">
<title>Node8</title>
<g id="a_node8"><a xlink:href="a00441.xhtml#ac757ed7ecb081dbf61745108165ee30b" target="_top" xlink:title=" ">
<polygon fill="white" stroke="black" points="89,-186 89,-205 220,-205 220,-186 89,-186"/>
<text text-anchor="middle" x="154.5" y="-193" font-family="Helvetica,sans-Serif" font-size="10.00">CBeatHistoIf::getNumBins</text>
</a>
</g>
</g>
<!-- Node4&#45;&gt;Node8 -->
<g id="edge7" class="edge">
<title>Node4&#45;&gt;Node8</title>
<path fill="none" stroke="midnightblue" d="M290.25,-221.96C262.65,-216.54 230.15,-210.16 203.98,-205.02"/>
<polygon fill="midnightblue" stroke="midnightblue" points="289.68,-225.42 300.17,-223.91 291.03,-218.55 289.68,-225.42"/>
</g>
<!-- Node6 -->
<g id="node6" class="node">
<title>Node6</title>
<g id="a_node6"><a xlink:href="a00017.xhtml#a0ddf1224851353fc92bfbff6f499fa97" target="_top" xlink:title=" ">
<polygon fill="white" stroke="black" points="0,-274 0,-293 38,-293 38,-274 0,-274"/>
<text text-anchor="middle" x="19" y="-281" font-family="Helvetica,sans-Serif" font-size="10.00">main</text>
</a>
</g>
</g>
<!-- Node5&#45;&gt;Node6 -->
<g id="edge5" class="edge">
<title>Node5&#45;&gt;Node6</title>
<path fill="none" stroke="midnightblue" d="M71.53,-283.5C59.04,-283.5 47.3,-283.5 38.19,-283.5"/>
<polygon fill="midnightblue" stroke="midnightblue" points="71.67,-287 81.67,-283.5 71.67,-280 71.67,-287"/>
</g>
<!-- Node11 -->
<g id="node11" class="node">
<title>Node11</title>
<g id="a_node11"><a xlink:href="a00525.xhtml#a713f1061ff32359a059c47c60bee4700" target="_top" xlink:title=" ">
<polygon fill="white" stroke="black" points="74,-148 74,-167 235,-167 235,-148 74,-148"/>
<text text-anchor="middle" x="154.5" y="-155" font-family="Helvetica,sans-Serif" font-size="10.00">CSubFingerprint::CSubFingerprint</text>
</a>
</g>
</g>
<!-- Node10&#45;&gt;Node11 -->
<g id="edge10" class="edge">
<title>Node10&#45;&gt;Node11</title>
<path fill="none" stroke="midnightblue" d="M269.95,-157.5C258.44,-157.5 246.59,-157.5 235.07,-157.5"/>
<polygon fill="midnightblue" stroke="midnightblue" points="269.96,-161 279.96,-157.5 269.96,-154 269.96,-161"/>
</g>
<!-- Node13 -->
<g id="node13" class="node">
<title>Node13</title>
<g id="a_node13"><a xlink:href="a00321.xhtml#a4ffe272900bf3ba5bbab219262506455" target="_top" xlink:title=" ">
<polygon fill="white" stroke="black" points="92.5,-98.5 92.5,-128.5 216.5,-128.5 216.5,-98.5 92.5,-98.5"/>
<text text-anchor="start" x="100.5" y="-116.5" font-family="Helvetica,sans-Serif" font-size="10.00">CFeatureSpectralMfccs</text>
<text text-anchor="middle" x="154.5" y="-105.5" font-family="Helvetica,sans-Serif" font-size="10.00">::CFeatureSpectralMfccs</text>
</a>
</g>
</g>
<!-- Node12&#45;&gt;Node13 -->
<g id="edge12" class="edge">
<title>Node12&#45;&gt;Node13</title>
<path fill="none" stroke="midnightblue" d="M280.37,-113.5C259.56,-113.5 236.85,-113.5 216.56,-113.5"/>
<polygon fill="midnightblue" stroke="midnightblue" points="280.42,-117 290.42,-113.5 280.42,-110 280.42,-117"/>
</g>
<!-- Node15 -->
<g id="node15" class="node">
<title>Node15</title>
<g id="a_node15"><a xlink:href="a00325.xhtml#a388f9c7dd2074706d723e31b421f16fa" target="_top" xlink:title=" ">
<polygon fill="white" stroke="black" points="78,-49.5 78,-79.5 231,-79.5 231,-49.5 78,-49.5"/>
<text text-anchor="start" x="86" y="-67.5" font-family="Helvetica,sans-Serif" font-size="10.00">CFeatureSpectralPitchChroma</text>
<text text-anchor="middle" x="154.5" y="-56.5" font-family="Helvetica,sans-Serif" font-size="10.00">::CFeatureSpectralPitchChroma</text>
</a>
</g>
</g>
<!-- Node14&#45;&gt;Node15 -->
<g id="edge14" class="edge">
<title>Node14&#45;&gt;Node15</title>
<path fill="none" stroke="midnightblue" d="M265.05,-64.5C253.81,-64.5 242.34,-64.5 231.25,-64.5"/>
<polygon fill="midnightblue" stroke="midnightblue" points="265.29,-68 275.29,-64.5 265.29,-61 265.29,-68"/>
</g>
<!-- Node16 -->
<g id="node16" class="node">
<title>Node16</title>
<g id="a_node16"><a xlink:href="a00325.xhtml#a6b4b3032eb9b09d9f64811613448c994" target="_top" xlink:title=" ">
<polygon fill="white" stroke="black" points="80,-0.5 80,-30.5 229,-30.5 229,-0.5 80,-0.5"/>
<text text-anchor="start" x="88" y="-18.5" font-family="Helvetica,sans-Serif" font-size="10.00">CFeatureSpectralPitchChroma</text>
<text text-anchor="middle" x="154.5" y="-7.5" font-family="Helvetica,sans-Serif" font-size="10.00">::setAdditionalParam</text>
</a>
</g>
</g>
<!-- Node14&#45;&gt;Node16 -->
<g id="edge15" class="edge">
<title>Node14&#45;&gt;Node16</title>
<path fill="none" stroke="midnightblue" d="M279.7,-46.95C258.45,-41.57 235.27,-35.7 214.76,-30.51"/>
<polygon fill="midnightblue" stroke="midnightblue" points="279.08,-50.4 289.63,-49.47 280.79,-43.62 279.08,-50.4"/>
</g>
</g>
</svg>
