<?xml version="1.0" encoding="UTF-8" standalone="no"?>
<!DOCTYPE svg PUBLIC "-//W3C//DTD SVG 1.1//EN"
 "http://www.w3.org/Graphics/SVG/1.1/DTD/svg11.dtd">
<!-- Generated by graphviz version 6.0.1 (20220911.1526)
 -->
<!-- Title: CPca::compPca Pages: 1 -->
<svg width="505pt" height="361pt"
 viewBox="0.00 0.00 505.00 361.00" xmlns="http://www.w3.org/2000/svg" xmlns:xlink="http://www.w3.org/1999/xlink">
<g id="graph0" class="graph" transform="scale(1 1) rotate(0) translate(4 357)">
<title>CPca::compPca</title>
<!-- Node1 -->
<g id="node1" class="node">
<title>Node1</title>
<g id="a_node1"><a xlink:title=" ">
<polygon fill="#999999" stroke="#666666" points="86,-130 0,-130 0,-111 86,-111 86,-130"/>
<text text-anchor="middle" x="43" y="-118" font-family="Helvetica,sans-Serif" font-size="10.00">CPca::compPca</text>
</a>
</g>
</g>
<!-- Node2 -->
<g id="node2" class="node">
<title>Node2</title>
<g id="a_node2"><a xlink:href="a00598.xhtml#aebbcfdbe8cebc41121cf5114a37bed7e" target="_top" xlink:title=" ">
<polygon fill="white" stroke="#666666" points="223,-205 140,-205 140,-186 223,-186 223,-205"/>
<text text-anchor="middle" x="181.5" y="-193" font-family="Helvetica,sans-Serif" font-size="10.00">CPca::calcSVD</text>
</a>
</g>
</g>
<!-- Node1&#45;&gt;Node2 -->
<g id="edge1" class="edge">
<title>Node1&#45;&gt;Node2</title>
<path fill="none" stroke="#63b8ff" d="M54.91,-130.03C69.38,-142.24 96.12,-163.41 122,-176.5 126.3,-178.68 130.9,-180.67 135.56,-182.49"/>
<polygon fill="#63b8ff" stroke="#63b8ff" points="134.55,-185.85 145.15,-185.96 136.94,-179.27 134.55,-185.85"/>
</g>
<!-- Node10 -->
<g id="node10" class="node">
<title>Node10</title>
<g id="a_node10"><a xlink:href="a00598.xhtml#ab97f1018b23310674511f05dac173db8" target="_top" xlink:title=" ">
<polygon fill="white" stroke="#666666" points="224.5,-297 138.5,-297 138.5,-278 224.5,-278 224.5,-297"/>
<text text-anchor="middle" x="181.5" y="-285" font-family="Helvetica,sans-Serif" font-size="10.00">CPca::compCov</text>
</a>
</g>
</g>
<!-- Node1&#45;&gt;Node10 -->
<g id="edge10" class="edge">
<title>Node1&#45;&gt;Node10</title>
<path fill="none" stroke="#63b8ff" d="M52.13,-130.45C74.56,-157.89 137.56,-234.97 166.11,-269.9"/>
<polygon fill="#63b8ff" stroke="#63b8ff" points="163.55,-272.29 172.58,-277.81 168.96,-267.86 163.55,-272.29"/>
</g>
<!-- Node15 -->
<g id="node15" class="node">
<title>Node15</title>
<g id="a_node15"><a xlink:href="a00486.xhtml#a62486a220c071d7e4ae970d9f1dc1093" target="_top" xlink:title=" ">
<polygon fill="white" stroke="#666666" points="225,-130 138,-130 138,-111 225,-111 225,-130"/>
<text text-anchor="middle" x="181.5" y="-118" font-family="Helvetica,sans-Serif" font-size="10.00">CMatrix::getDiag</text>
</a>
</g>
</g>
<!-- Node1&#45;&gt;Node15 -->
<g id="edge16" class="edge">
<title>Node1&#45;&gt;Node15</title>
<path fill="none" stroke="#63b8ff" d="M86.07,-120.5C99.18,-120.5 113.8,-120.5 127.56,-120.5"/>
<polygon fill="#63b8ff" stroke="#63b8ff" points="127.86,-124 137.86,-120.5 127.86,-117 127.86,-124"/>
</g>
<!-- Node16 -->
<g id="node16" class="node">
<title>Node16</title>
<g id="a_node16"><a xlink:href="a00486.xhtml#acba558090ffee6e3a28aee7e38726754" target="_top" xlink:title=" ">
<polygon fill="white" stroke="#666666" points="233,-93 130,-93 130,-74 233,-74 233,-93"/>
<text text-anchor="middle" x="181.5" y="-81" font-family="Helvetica,sans-Serif" font-size="10.00">CMatrix::mulMatMat</text>
</a>
</g>
</g>
<!-- Node1&#45;&gt;Node16 -->
<g id="edge17" class="edge">
<title>Node1&#45;&gt;Node16</title>
<path fill="none" stroke="#63b8ff" d="M79.15,-110.97C96.21,-106.35 116.92,-100.73 135.15,-95.79"/>
<polygon fill="#63b8ff" stroke="#63b8ff" points="136.26,-99.12 144.99,-93.12 134.43,-92.36 136.26,-99.12"/>
</g>
<!-- Node17 -->
<g id="node17" class="node">
<title>Node17</title>
<g id="a_node17"><a xlink:href="a00486.xhtml#a38a45a276935ba2a5566c67c8b6edd0e" target="_top" xlink:title=" ">
<polygon fill="white" stroke="#666666" points="241,-167 122,-167 122,-148 241,-148 241,-167"/>
<text text-anchor="middle" x="181.5" y="-155" font-family="Helvetica,sans-Serif" font-size="10.00">CMatrix::rearrangeRows</text>
</a>
</g>
</g>
<!-- Node1&#45;&gt;Node17 -->
<g id="edge18" class="edge">
<title>Node1&#45;&gt;Node17</title>
<path fill="none" stroke="#63b8ff" d="M79.15,-130.03C96.21,-134.65 116.92,-140.27 135.15,-145.21"/>
<polygon fill="#63b8ff" stroke="#63b8ff" points="134.43,-148.64 144.99,-147.88 136.26,-141.88 134.43,-148.64"/>
</g>
<!-- Node18 -->
<g id="node18" class="node">
<title>Node18</title>
<g id="a_node18"><a xlink:href="a00502.xhtml#a63b8f3254518a67c10b7a5b2b3e0381f" target="_top" xlink:title=" ">
<polygon fill="white" stroke="#666666" points="222,-56 141,-56 141,-37 222,-37 222,-56"/>
<text text-anchor="middle" x="181.5" y="-44" font-family="Helvetica,sans-Serif" font-size="10.00">CVector::sort_I</text>
</a>
</g>
</g>
<!-- Node1&#45;&gt;Node18 -->
<g id="edge22" class="edge">
<title>Node1&#45;&gt;Node18</title>
<path fill="none" stroke="#63b8ff" d="M54.88,-110.91C69.32,-98.63 96.02,-77.39 122,-64.5 125.59,-62.72 129.4,-61.07 133.27,-59.56"/>
<polygon fill="#63b8ff" stroke="#63b8ff" points="134.75,-62.74 142.97,-56.07 132.38,-56.16 134.75,-62.74"/>
</g>
<!-- Node20 -->
<g id="node20" class="node">
<title>Node20</title>
<g id="a_node20"><a xlink:href="a00486.xhtml#a8b496f71fd36ee5afe60619df6cd657a" target="_top" xlink:title=" ">
<polygon fill="white" stroke="#666666" points="230,-19 133,-19 133,0 230,0 230,-19"/>
<text text-anchor="middle" x="181.5" y="-7" font-family="Helvetica,sans-Serif" font-size="10.00">CMatrix::transpose</text>
</a>
</g>
</g>
<!-- Node1&#45;&gt;Node20 -->
<g id="edge24" class="edge">
<title>Node1&#45;&gt;Node20</title>
<path fill="none" stroke="#63b8ff" d="M49.51,-110.75C60.7,-91.85 87.93,-50.1 122,-27.5 124.41,-25.9 126.96,-24.44 129.61,-23.11"/>
<polygon fill="#63b8ff" stroke="#63b8ff" points="131.12,-26.26 138.86,-19.03 128.3,-19.86 131.12,-26.26"/>
</g>
<!-- Node3 -->
<g id="node3" class="node">
<title>Node3</title>
<g id="a_node3"><a xlink:href="a00502.xhtml#abaadac98b1cad18b7b568852bc951696" target="_top" xlink:title=" ">
<polygon fill="white" stroke="#666666" points="362.5,-131 285.5,-131 285.5,-112 362.5,-112 362.5,-131"/>
<text text-anchor="middle" x="324" y="-119" font-family="Helvetica,sans-Serif" font-size="10.00">CVector::alloc</text>
</a>
</g>
</g>
<!-- Node2&#45;&gt;Node3 -->
<g id="edge2" class="edge">
<title>Node2&#45;&gt;Node3</title>
<path fill="none" stroke="#63b8ff" d="M220.79,-185.95C227.78,-183.41 234.81,-180.29 241,-176.5 260.29,-164.68 258.18,-153.06 277,-140.5 279.73,-138.68 282.66,-136.98 285.68,-135.4"/>
<polygon fill="#63b8ff" stroke="#63b8ff" points="287.31,-138.5 294.86,-131.06 284.32,-132.17 287.31,-138.5"/>
</g>
<!-- Node5 -->
<g id="node5" class="node">
<title>Node5</title>
<g id="a_node5"><a xlink:href="a00486.xhtml#aa633cf46c2b3938a1a7a8199c31051dd" target="_top" xlink:title=" ">
<polygon fill="white" stroke="#666666" points="361,-205 287,-205 287,-186 361,-186 361,-205"/>
<text text-anchor="middle" x="324" y="-193" font-family="Helvetica,sans-Serif" font-size="10.00">CMatrix::copy</text>
</a>
</g>
</g>
<!-- Node2&#45;&gt;Node5 -->
<g id="edge4" class="edge">
<title>Node2&#45;&gt;Node5</title>
<path fill="none" stroke="#63b8ff" d="M223.14,-195.5C239.78,-195.5 259.14,-195.5 276.36,-195.5"/>
<polygon fill="#63b8ff" stroke="#63b8ff" points="276.76,-199 286.76,-195.5 276.76,-192 276.76,-199"/>
</g>
<!-- Node7 -->
<g id="node7" class="node">
<title>Node7</title>
<g id="a_node7"><a xlink:href="a00502.xhtml#aa86bdb0c663d4d52f2765793756f8737" target="_top" xlink:title=" ">
<polygon fill="white" stroke="#666666" points="360.5,-168 287.5,-168 287.5,-149 360.5,-149 360.5,-168"/>
<text text-anchor="middle" x="324" y="-156" font-family="Helvetica,sans-Serif" font-size="10.00">CVector::free</text>
</a>
</g>
</g>
<!-- Node2&#45;&gt;Node7 -->
<g id="edge6" class="edge">
<title>Node2&#45;&gt;Node7</title>
<path fill="none" stroke="#63b8ff" d="M218.68,-185.97C236.68,-181.23 258.62,-175.45 277.73,-170.42"/>
<polygon fill="#63b8ff" stroke="#63b8ff" points="278.65,-173.8 287.43,-167.87 276.87,-167.03 278.65,-173.8"/>
</g>
<!-- Node8 -->
<g id="node8" class="node">
<title>Node8</title>
<g id="a_node8"><a xlink:href="a00598.xhtml#a4fdc8487d3685debf82a6acd12f6d37e" target="_top" xlink:title=" ">
<polygon fill="white" stroke="#666666" points="370,-242 278,-242 278,-223 370,-223 370,-242"/>
<text text-anchor="middle" x="324" y="-230" font-family="Helvetica,sans-Serif" font-size="10.00">CPca::matPythag</text>
</a>
</g>
</g>
<!-- Node2&#45;&gt;Node8 -->
<g id="edge7" class="edge">
<title>Node2&#45;&gt;Node8</title>
<path fill="none" stroke="#63b8ff" d="M218.68,-205.03C236.33,-209.67 257.75,-215.32 276.59,-220.28"/>
<polygon fill="#63b8ff" stroke="#63b8ff" points="275.89,-223.71 286.45,-222.88 277.67,-216.94 275.89,-223.71"/>
</g>
<!-- Node9 -->
<g id="node9" class="node">
<title>Node9</title>
<g id="a_node9"><a xlink:href="a00486.xhtml#a7be1ae4f635c5aaec0c2693fc23b3646" target="_top" xlink:title=" ">
<polygon fill="white" stroke="#666666" points="367.5,-279 280.5,-279 280.5,-260 367.5,-260 367.5,-279"/>
<text text-anchor="middle" x="324" y="-267" font-family="Helvetica,sans-Serif" font-size="10.00">CMatrix::setZero</text>
</a>
</g>
</g>
<!-- Node2&#45;&gt;Node9 -->
<g id="edge8" class="edge">
<title>Node2&#45;&gt;Node9</title>
<path fill="none" stroke="#63b8ff" d="M197.14,-205.19C215.37,-217.02 247.69,-237.2 277,-251.5 280.18,-253.05 283.53,-254.57 286.91,-256.03"/>
<polygon fill="#63b8ff" stroke="#63b8ff" points="285.83,-259.37 296.41,-259.94 288.5,-252.9 285.83,-259.37"/>
</g>
<!-- Node4 -->
<g id="node4" class="node">
<title>Node4</title>
<g id="a_node4"><a xlink:href="a00502.xhtml#a6dbb3f9f480568b60f7fe50090d20003" target="_top" xlink:title=" ">
<polygon fill="white" stroke="#666666" points="496.5,-186 407.5,-186 407.5,-167 496.5,-167 496.5,-186"/>
<text text-anchor="middle" x="452" y="-174" font-family="Helvetica,sans-Serif" font-size="10.00">CVector::setZero</text>
</a>
</g>
</g>
<!-- Node3&#45;&gt;Node4 -->
<g id="edge3" class="edge">
<title>Node3&#45;&gt;Node4</title>
<path fill="none" stroke="#63b8ff" d="M349.02,-131.04C356.14,-133.97 363.92,-137.27 371,-140.5 387.28,-147.92 390.71,-151.11 407,-158.5 410.35,-160.02 413.88,-161.56 417.4,-163.06"/>
<polygon fill="#63b8ff" stroke="#63b8ff" points="416.08,-166.3 426.65,-166.92 418.77,-159.84 416.08,-166.3"/>
</g>
<!-- Node6 -->
<g id="node6" class="node">
<title>Node6</title>
<g id="a_node6"><a xlink:href="a00502.xhtml#ad7c5cba73e439adac77778f61c9418f0" target="_top" xlink:title=" ">
<polygon fill="white" stroke="#666666" points="490.5,-149 413.5,-149 413.5,-130 490.5,-130 490.5,-149"/>
<text text-anchor="middle" x="452" y="-137" font-family="Helvetica,sans-Serif" font-size="10.00">CVector::copy</text>
</a>
</g>
</g>
<!-- Node5&#45;&gt;Node6 -->
<g id="edge5" class="edge">
<title>Node5&#45;&gt;Node6</title>
<path fill="none" stroke="#63b8ff" d="M351,-185.91C357.59,-183.33 364.61,-180.43 371,-177.5 387.45,-169.97 390.68,-166.31 407,-158.5 410.8,-156.68 414.82,-154.84 418.82,-153.05"/>
<polygon fill="#63b8ff" stroke="#63b8ff" points="420.25,-156.24 428.01,-149.03 417.45,-149.83 420.25,-156.24"/>
</g>
<!-- Node9&#45;&gt;Node4 -->
<g id="edge9" class="edge">
<title>Node9&#45;&gt;Node4</title>
<path fill="none" stroke="#63b8ff" d="M354.52,-259.88C360.18,-257.5 365.92,-254.7 371,-251.5 396.5,-235.4 421.07,-210.52 436.1,-193.88"/>
<polygon fill="#63b8ff" stroke="#63b8ff" points="439.04,-195.83 443.04,-186.02 433.8,-191.19 439.04,-195.83"/>
</g>
<!-- Node10&#45;&gt;Node9 -->
<g id="edge15" class="edge">
<title>Node10&#45;&gt;Node9</title>
<path fill="none" stroke="#63b8ff" d="M224.65,-282.1C238.97,-280.27 255.15,-278.19 270.19,-276.27"/>
<polygon fill="#63b8ff" stroke="#63b8ff" points="270.92,-279.7 280.39,-274.96 270.03,-272.76 270.92,-279.7"/>
</g>
<!-- Node11 -->
<g id="node11" class="node">
<title>Node11</title>
<g id="a_node11"><a xlink:href="a00502.xhtml#ae6e3545cf196c5e2409365bc62b7c1de" target="_top" xlink:title=" ">
<polygon fill="white" stroke="#666666" points="371,-316 277,-316 277,-297 371,-297 371,-316"/>
<text text-anchor="middle" x="324" y="-304" font-family="Helvetica,sans-Serif" font-size="10.00">CVector::getMean</text>
</a>
</g>
</g>
<!-- Node10&#45;&gt;Node11 -->
<g id="edge11" class="edge">
<title>Node10&#45;&gt;Node11</title>
<path fill="none" stroke="#63b8ff" d="M224.65,-293.2C237.92,-294.99 252.79,-297.01 266.87,-298.91"/>
<polygon fill="#63b8ff" stroke="#63b8ff" points="266.57,-302.4 276.95,-300.27 267.51,-295.46 266.57,-302.4"/>
</g>
<!-- Node13 -->
<g id="node13" class="node">
<title>Node13</title>
<g id="a_node13"><a xlink:href="a00486.xhtml#a49b68b5ae672826ed8c8e3b014e09769" target="_top" xlink:title=" ">
<polygon fill="white" stroke="#666666" points="366.5,-353 281.5,-353 281.5,-334 366.5,-334 366.5,-353"/>
<text text-anchor="middle" x="324" y="-341" font-family="Helvetica,sans-Serif" font-size="10.00">CMatrix::mulC_I</text>
</a>
</g>
</g>
<!-- Node10&#45;&gt;Node13 -->
<g id="edge13" class="edge">
<title>Node10&#45;&gt;Node13</title>
<path fill="none" stroke="#63b8ff" d="M206.17,-297.09C225.27,-304.81 252.84,-315.91 277,-325.5 280.75,-326.99 284.67,-328.54 288.58,-330.07"/>
<polygon fill="#63b8ff" stroke="#63b8ff" points="287.57,-333.43 298.16,-333.83 290.12,-326.92 287.57,-333.43"/>
</g>
<!-- Node12 -->
<g id="node12" class="node">
<title>Node12</title>
<g id="a_node12"><a xlink:href="a00502.xhtml#abdbcc3898121387f3694f74491b7331e" target="_top" xlink:title=" ">
<polygon fill="white" stroke="#666666" points="497,-316 407,-316 407,-297 497,-297 497,-316"/>
<text text-anchor="middle" x="452" y="-304" font-family="Helvetica,sans-Serif" font-size="10.00">CVector::getSum</text>
</a>
</g>
</g>
<!-- Node11&#45;&gt;Node12 -->
<g id="edge12" class="edge">
<title>Node11&#45;&gt;Node12</title>
<path fill="none" stroke="#63b8ff" d="M371.2,-306.5C379.49,-306.5 388.2,-306.5 396.69,-306.5"/>
<polygon fill="#63b8ff" stroke="#63b8ff" points="396.9,-310 406.9,-306.5 396.9,-303 396.9,-310"/>
</g>
<!-- Node14 -->
<g id="node14" class="node">
<title>Node14</title>
<g id="a_node14"><a xlink:href="a00502.xhtml#a9811f50434dd058d201290b2dc98bfcd" target="_top" xlink:title=" ">
<polygon fill="white" stroke="#666666" points="495.5,-353 408.5,-353 408.5,-334 495.5,-334 495.5,-353"/>
<text text-anchor="middle" x="452" y="-341" font-family="Helvetica,sans-Serif" font-size="10.00">CVector::mulC_I</text>
</a>
</g>
</g>
<!-- Node13&#45;&gt;Node14 -->
<g id="edge14" class="edge">
<title>Node13&#45;&gt;Node14</title>
<path fill="none" stroke="#63b8ff" d="M366.61,-343.5C376.61,-343.5 387.42,-343.5 397.87,-343.5"/>
<polygon fill="#63b8ff" stroke="#63b8ff" points="398.14,-347 408.14,-343.5 398.14,-340 398.14,-347"/>
</g>
<!-- Node17&#45;&gt;Node3 -->
<g id="edge19" class="edge">
<title>Node17&#45;&gt;Node3</title>
<path fill="none" stroke="#63b8ff" d="M219.78,-147.95C236.93,-143.55 257.47,-138.29 275.69,-133.62"/>
<polygon fill="#63b8ff" stroke="#63b8ff" points="276.72,-136.97 285.54,-131.1 274.99,-130.19 276.72,-136.97"/>
</g>
<!-- Node17&#45;&gt;Node6 -->
<g id="edge20" class="edge">
<title>Node17&#45;&gt;Node6</title>
<path fill="none" stroke="#63b8ff" d="M222.95,-147.9C229.22,-145.62 235.45,-142.84 241,-139.5 260.39,-127.83 256.09,-112.16 277,-103.5 327.28,-82.67 390.89,-107.65 425.58,-125.19"/>
<polygon fill="#63b8ff" stroke="#63b8ff" points="424.08,-128.35 434.57,-129.89 427.33,-122.15 424.08,-128.35"/>
</g>
<!-- Node17&#45;&gt;Node7 -->
<g id="edge21" class="edge">
<title>Node17&#45;&gt;Node7</title>
<path fill="none" stroke="#63b8ff" d="M241.27,-157.92C253.25,-158 265.68,-158.09 277.12,-158.17"/>
<polygon fill="#63b8ff" stroke="#63b8ff" points="277.29,-161.67 287.32,-158.25 277.34,-154.67 277.29,-161.67"/>
</g>
<!-- Node19 -->
<g id="node19" class="node">
<title>Node19</title>
<g id="a_node19"><a xlink:href="a00498.xhtml#a4518cf65aacb5732281b35ee427d0fc2" target="_top" xlink:title=" ">
<polygon fill="white" stroke="#666666" points="357,-55 291,-55 291,-36 357,-36 357,-55"/>
<text text-anchor="middle" x="324" y="-43" font-family="Helvetica,sans-Serif" font-size="10.00">CUtil::swap</text>
</a>
</g>
</g>
<!-- Node18&#45;&gt;Node19 -->
<g id="edge23" class="edge">
<title>Node18&#45;&gt;Node19</title>
<path fill="none" stroke="#63b8ff" d="M222.01,-46.22C240.36,-46.09 262.2,-45.93 280.87,-45.8"/>
<polygon fill="#63b8ff" stroke="#63b8ff" points="280.9,-49.3 290.87,-45.73 280.85,-42.3 280.9,-49.3"/>
</g>
</g>
</svg>
