<?xml version="1.0" encoding="UTF-8" standalone="no"?>
<!DOCTYPE svg PUBLIC "-//W3C//DTD SVG 1.1//EN"
 "http://www.w3.org/Graphics/SVG/1.1/DTD/svg11.dtd">
<!-- Generated by graphviz version 4.0.0 (20220602.1335)
 -->
<!-- Title: CVector::setValue Pages: 1 -->
<!--zoomable 400 -->
<svg id="main" version="1.1" xmlns="http://www.w3.org/2000/svg" xmlns:xlink="http://www.w3.org/1999/xlink" xml:space="preserve" onload="init(evt)">
<style type="text/css"><![CDATA[
.edge:hover path { stroke: red; }
.edge:hover polygon { stroke: red; fill: red; }
]]></style>
<script type="text/javascript"><![CDATA[
var edges = document.getElementsByTagName('g');
if (edges && edges.length) {
  for (var i=0;i<edges.length;i++) {
    if (edges[i].id.substr(0,4)=='edge') {
      edges[i].setAttribute('class','edge');
    }
  }
}
]]></script>
        <defs>
                <circle id="rim" cx="0" cy="0" r="7"/>
                <circle id="rim2" cx="0" cy="0" r="3.5"/>
                <g id="zoomPlus">
                        <use xlink:href="#rim" fill="#404040">
                                <set attributeName="fill" to="#808080" begin="zoomplus.mouseover" end="zoomplus.mouseout"/>
                        </use>
                        <path d="M-4,0h8M0,-4v8" fill="none" stroke="white" stroke-width="1.5" pointer-events="none"/>
                </g>
                <g id="zoomMin">
                        <use xlink:href="#rim" fill="#404040">
                                <set attributeName="fill" to="#808080" begin="zoomminus.mouseover" end="zoomminus.mouseout"/>
                        </use>
                        <path d="M-4,0h8" fill="none" stroke="white" stroke-width="1.5" pointer-events="none"/>
                </g>
                <g id="dirArrow">
                        <path fill="none" stroke="white" stroke-width="1.5" d="M0,-3.0v7 M-2.5,-0.5L0,-3.0L2.5,-0.5"/>
                </g>
               <g id="resetDef">
                       <use xlink:href="#rim2" fill="#404040">
                               <set attributeName="fill" to="#808080" begin="reset.mouseover" end="reset.mouseout"/>
                       </use>
               </g>
        </defs>

<script type="text/javascript">
var viewWidth = 757;
var viewHeight = 400;
var sectionId = 'dynsection-31';
</script>
<script xlink:href="svgpan.js"/>
<svg id="graph" class="graph">
<g id="viewport">
<title>CVector::setValue</title>
<polygon fill="white" stroke="transparent" points="-4,4 -4,-396 753,-396 753,4 -4,4"/>
<!-- Node1 -->
<g id="node1" class="node">
<title>Node1</title>
<g id="a_node1"><a xlink:title=" ">
<polygon fill="#bfbfbf" stroke="black" points="654,-189.5 654,-208.5 749,-208.5 749,-189.5 654,-189.5"/>
<text text-anchor="middle" x="701.5" y="-196.5" font-family="Helvetica,sans-Serif" font-size="10.00">CVector::setValue</text>
</a>
</g>
</g>
<!-- Node2 -->
<g id="node2" class="node">
<title>Node2</title>
<g id="a_node2"><a xlink:href="a00626.xhtml#a875c603ba28294ac2575eb6e06407018" target="_top" xlink:title=" ">
<polygon fill="white" stroke="black" points="485.5,-372.5 485.5,-391.5 601.5,-391.5 601.5,-372.5 485.5,-372.5"/>
<text text-anchor="middle" x="543.5" y="-379.5" font-family="Helvetica,sans-Serif" font-size="10.00">CKnn::buildHistogram_</text>
</a>
</g>
</g>
<!-- Node1&#45;&gt;Node2 -->
<g id="edge1" class="edge">
<title>Node1&#45;&gt;Node2</title>
<path fill="none" stroke="midnightblue" d="M696.33,-218.28C687.84,-252.76 665.23,-324.9 618,-363 613.18,-366.89 607.65,-369.99 601.84,-372.46"/>
<polygon fill="midnightblue" stroke="midnightblue" points="699.75,-219.04 698.6,-208.51 692.93,-217.45 699.75,-219.04"/>
</g>
<!-- Node4 -->
<g id="node4" class="node">
<title>Node4</title>
<g id="a_node4"><a xlink:href="a00462.xhtml#a9c21f9c80f6880682d822c53232bbff9" target="_top" xlink:title=" ">
<polygon fill="white" stroke="black" points="474.5,-323 474.5,-353 612.5,-353 612.5,-323 474.5,-323"/>
<text text-anchor="start" x="482.5" y="-341" font-family="Helvetica,sans-Serif" font-size="10.00">CClassifierBase::compNorm</text>
<text text-anchor="middle" x="543.5" y="-330" font-family="Helvetica,sans-Serif" font-size="10.00">Constants</text>
</a>
</g>
</g>
<!-- Node1&#45;&gt;Node4 -->
<g id="edge3" class="edge">
<title>Node1&#45;&gt;Node4</title>
<path fill="none" stroke="midnightblue" d="M690.64,-217.59C677.13,-241.47 650.77,-282.82 618,-308 610.24,-313.96 601.13,-318.93 592.02,-322.98"/>
<polygon fill="midnightblue" stroke="midnightblue" points="693.87,-218.97 695.62,-208.52 687.74,-215.6 693.87,-218.97"/>
</g>
<!-- Node7 -->
<g id="node7" class="node">
<title>Node7</title>
<g id="a_node7"><a xlink:href="a00514.xhtml#a9f110985f86064fa24aa3157bfd5cab0" target="_top" xlink:title=" ">
<polygon fill="white" stroke="black" points="290.5,-253.5 290.5,-272.5 414.5,-272.5 414.5,-253.5 290.5,-253.5"/>
<text text-anchor="middle" x="352.5" y="-260.5" font-family="Helvetica,sans-Serif" font-size="10.00">CNoveltyIf::compNovelty</text>
</a>
</g>
</g>
<!-- Node1&#45;&gt;Node7 -->
<g id="edge6" class="edge">
<title>Node1&#45;&gt;Node7</title>
<path fill="none" stroke="midnightblue" d="M687.76,-216.84C673.29,-235.41 647.78,-263.38 618,-275 539,-305.84 436.48,-286 385.38,-272.5"/>
<polygon fill="midnightblue" stroke="midnightblue" points="690.74,-218.69 693.95,-208.59 685.15,-214.49 690.74,-218.69"/>
</g>
<!-- Node11 -->
<g id="node11" class="node">
<title>Node11</title>
<g id="a_node11"><a xlink:href="a00630.xhtml#a8a7fbd879019db496d0ac6623387003c" target="_top" xlink:title=" ">
<polygon fill="white" stroke="black" points="478.5,-208.5 478.5,-227.5 608.5,-227.5 608.5,-208.5 478.5,-208.5"/>
<text text-anchor="middle" x="543.5" y="-215.5" font-family="Helvetica,sans-Serif" font-size="10.00">CViterbi::compProbability_</text>
</a>
</g>
</g>
<!-- Node1&#45;&gt;Node11 -->
<g id="edge10" class="edge">
<title>Node1&#45;&gt;Node11</title>
<path fill="none" stroke="midnightblue" d="M643.48,-205.94C632.14,-207.33 620.15,-208.79 608.58,-210.2"/>
<polygon fill="midnightblue" stroke="midnightblue" points="644.19,-209.38 653.69,-204.7 643.35,-202.44 644.19,-209.38"/>
</g>
<!-- Node15 -->
<g id="node15" class="node">
<title>Node15</title>
<g id="a_node15"><a xlink:href="a00502.xhtml#a64c5c5686629f104663dd3774e7a6e1b" target="_top" xlink:title=" ">
<polygon fill="white" stroke="black" points="494,-246.5 494,-265.5 593,-265.5 593,-246.5 494,-246.5"/>
<text text-anchor="middle" x="543.5" y="-253.5" font-family="Helvetica,sans-Serif" font-size="10.00">CVector::findPeaks</text>
</a>
</g>
</g>
<!-- Node1&#45;&gt;Node15 -->
<g id="edge14" class="edge">
<title>Node1&#45;&gt;Node15</title>
<path fill="none" stroke="midnightblue" d="M673.03,-213.16C657.22,-220.92 636.82,-230.29 618,-237 608.07,-240.54 597.17,-243.72 586.87,-246.43"/>
<polygon fill="midnightblue" stroke="midnightblue" points="674.83,-216.17 682.22,-208.57 671.71,-209.9 674.83,-216.17"/>
</g>
<!-- Node16 -->
<g id="node16" class="node">
<title>Node16</title>
<g id="a_node16"><a xlink:href="a00538.xhtml#acc7689ea3256ad6c8d9efe3006434d13" target="_top" xlink:title=" ">
<polygon fill="white" stroke="black" points="473.5,-170.5 473.5,-189.5 613.5,-189.5 613.5,-170.5 473.5,-170.5"/>
<text text-anchor="middle" x="543.5" y="-177.5" font-family="Helvetica,sans-Serif" font-size="10.00">CSubFingerprint::genBands_</text>
</a>
</g>
</g>
<!-- Node1&#45;&gt;Node16 -->
<g id="edge16" class="edge">
<title>Node1&#45;&gt;Node16</title>
<path fill="none" stroke="midnightblue" d="M643.75,-192.09C634.01,-190.9 623.79,-189.66 613.77,-188.44"/>
<polygon fill="midnightblue" stroke="midnightblue" points="643.35,-195.56 653.69,-193.3 644.19,-188.62 643.35,-195.56"/>
</g>
<!-- Node18 -->
<g id="node18" class="node">
<title>Node18</title>
<g id="a_node18"><a xlink:href="a00334.xhtml#a88b4352ab8251a177a5351c638ad5b3c" target="_top" xlink:title=" ">
<polygon fill="white" stroke="black" points="469,-121 469,-151 618,-151 618,-121 469,-121"/>
<text text-anchor="start" x="477" y="-139" font-family="Helvetica,sans-Serif" font-size="10.00">CFeatureSpectralPitchChroma</text>
<text text-anchor="middle" x="543.5" y="-128" font-family="Helvetica,sans-Serif" font-size="10.00">::genPcFilters_</text>
</a>
</g>
</g>
<!-- Node1&#45;&gt;Node18 -->
<g id="edge18" class="edge">
<title>Node1&#45;&gt;Node18</title>
<path fill="none" stroke="midnightblue" d="M671.89,-184.93C656.15,-177.42 636.19,-168.26 618,-161 609.36,-157.55 600.04,-154.15 591.03,-151.01"/>
<polygon fill="midnightblue" stroke="midnightblue" points="670.55,-188.17 681.08,-189.36 673.59,-181.87 670.55,-188.17"/>
</g>
<!-- Node21 -->
<g id="node21" class="node">
<title>Node21</title>
<g id="a_node21"><a xlink:href="a00454.xhtml#a2dc9b2b2e4912e45835c5727d550aee7" target="_top" xlink:title=" ">
<polygon fill="white" stroke="black" points="491,-82.5 491,-101.5 596,-101.5 596,-82.5 491,-82.5"/>
<text text-anchor="middle" x="543.5" y="-89.5" font-family="Helvetica,sans-Serif" font-size="10.00">CChordIf::initViterbi_</text>
</a>
</g>
</g>
<!-- Node1&#45;&gt;Node21 -->
<g id="edge21" class="edge">
<title>Node1&#45;&gt;Node21</title>
<path fill="none" stroke="midnightblue" d="M688.21,-181.05C673.7,-161.24 647.75,-129.78 618,-112 610.74,-107.66 602.51,-104.24 594.26,-101.55"/>
<polygon fill="midnightblue" stroke="midnightblue" points="685.39,-183.13 694.04,-189.25 691.09,-179.07 685.39,-183.13"/>
</g>
<!-- Node25 -->
<g id="node25" class="node">
<title>Node25</title>
<g id="a_node25"><a xlink:href="a00614.xhtml#ac252ab9d169480534812be70f3b6cc65" target="_top" xlink:title=" ">
<polygon fill="white" stroke="black" points="480,-44.5 480,-63.5 607,-63.5 607,-44.5 480,-44.5"/>
<text text-anchor="middle" x="543.5" y="-51.5" font-family="Helvetica,sans-Serif" font-size="10.00">CSeqFeatureSel::process</text>
</a>
</g>
</g>
<!-- Node1&#45;&gt;Node25 -->
<g id="edge25" class="edge">
<title>Node1&#45;&gt;Node25</title>
<path fill="none" stroke="midnightblue" d="M693.29,-179.94C681.75,-152.08 656.44,-100.56 618,-73 612.54,-69.08 606.33,-65.97 599.9,-63.5"/>
<polygon fill="midnightblue" stroke="midnightblue" points="690.09,-181.37 697.04,-189.36 696.59,-178.78 690.09,-181.37"/>
</g>
<!-- Node26 -->
<g id="node26" class="node">
<title>Node26</title>
<g id="a_node26"><a xlink:href="a00486.xhtml#a1c25e33302ff6282ca58bc27875cc10a" target="_top" xlink:title=" ">
<polygon fill="white" stroke="black" points="497.5,-3.5 497.5,-22.5 589.5,-22.5 589.5,-3.5 497.5,-3.5"/>
<text text-anchor="middle" x="543.5" y="-10.5" font-family="Helvetica,sans-Serif" font-size="10.00">CMatrix::setValue</text>
</a>
</g>
</g>
<!-- Node1&#45;&gt;Node26 -->
<g id="edge26" class="edge">
<title>Node1&#45;&gt;Node26</title>
<path fill="none" stroke="midnightblue" d="M696.06,-179.4C687.25,-145.02 664.28,-73.8 618,-35 609.94,-28.24 599.85,-23.56 589.76,-20.31"/>
<polygon fill="midnightblue" stroke="midnightblue" points="692.67,-180.29 698.43,-189.18 699.48,-178.64 692.67,-180.29"/>
</g>
<!-- Node3 -->
<g id="node3" class="node">
<title>Node3</title>
<g id="a_node3"><a xlink:href="a00626.xhtml#a16bb56f19951aee5c4986a9dc7aeb853" target="_top" xlink:title=" ">
<polygon fill="white" stroke="black" points="313.5,-372.5 313.5,-391.5 391.5,-391.5 391.5,-372.5 313.5,-372.5"/>
<text text-anchor="middle" x="352.5" y="-379.5" font-family="Helvetica,sans-Serif" font-size="10.00">CKnn::classify</text>
</a>
</g>
</g>
<!-- Node2&#45;&gt;Node3 -->
<g id="edge2" class="edge">
<title>Node2&#45;&gt;Node3</title>
<path fill="none" stroke="midnightblue" d="M475.14,-382C447.12,-382 415.62,-382 391.7,-382"/>
<polygon fill="midnightblue" stroke="midnightblue" points="475.28,-385.5 485.28,-382 475.28,-378.5 475.28,-385.5"/>
</g>
<!-- Node5 -->
<g id="node5" class="node">
<title>Node5</title>
<g id="a_node5"><a xlink:href="a00570.xhtml#af086e0bae5cc3cb68c35745749b0fda5" target="_top" xlink:title=" ">
<polygon fill="white" stroke="black" points="297.5,-332.5 297.5,-351.5 407.5,-351.5 407.5,-332.5 297.5,-332.5"/>
<text text-anchor="middle" x="352.5" y="-339.5" font-family="Helvetica,sans-Serif" font-size="10.00">CGmmClassifier::train</text>
</a>
</g>
</g>
<!-- Node4&#45;&gt;Node5 -->
<g id="edge4" class="edge">
<title>Node4&#45;&gt;Node5</title>
<path fill="none" stroke="midnightblue" d="M464.14,-339.66C445.16,-340.06 425.29,-340.48 407.71,-340.85"/>
<polygon fill="midnightblue" stroke="midnightblue" points="464.34,-343.15 474.27,-339.44 464.19,-336.16 464.34,-343.15"/>
</g>
<!-- Node6 -->
<g id="node6" class="node">
<title>Node6</title>
<g id="a_node6"><a xlink:href="a00626.xhtml#aedd5ce22bf1cf98b70cc3757ba244b94" target="_top" xlink:title=" ">
<polygon fill="white" stroke="black" points="320.5,-294.5 320.5,-313.5 384.5,-313.5 384.5,-294.5 320.5,-294.5"/>
<text text-anchor="middle" x="352.5" y="-301.5" font-family="Helvetica,sans-Serif" font-size="10.00">CKnn::train</text>
</a>
</g>
</g>
<!-- Node4&#45;&gt;Node6 -->
<g id="edge5" class="edge">
<title>Node4&#45;&gt;Node6</title>
<path fill="none" stroke="midnightblue" d="M464.08,-323.89C436.14,-318.87 406.27,-313.49 384.63,-309.6"/>
<polygon fill="midnightblue" stroke="midnightblue" points="463.8,-327.4 474.27,-325.73 465.04,-320.51 463.8,-327.4"/>
</g>
<!-- Node8 -->
<g id="node8" class="node">
<title>Node8</title>
<g id="a_node8"><a xlink:href="a00450.xhtml#a58a9a3d685f448ced2e843a60028e472" target="_top" xlink:title=" ">
<polygon fill="white" stroke="black" points="82.5,-290.5 82.5,-309.5 227.5,-309.5 227.5,-290.5 82.5,-290.5"/>
<text text-anchor="middle" x="155" y="-297.5" font-family="Helvetica,sans-Serif" font-size="10.00">CBeatHistoIf::compBeatHisto</text>
</a>
</g>
</g>
<!-- Node7&#45;&gt;Node8 -->
<g id="edge7" class="edge">
<title>Node7&#45;&gt;Node8</title>
<path fill="none" stroke="midnightblue" d="M291.01,-274.45C263.91,-279.58 232.32,-285.56 206.51,-290.44"/>
<polygon fill="midnightblue" stroke="midnightblue" points="291.98,-277.83 301.15,-272.53 290.68,-270.95 291.98,-277.83"/>
</g>
<!-- Node10 -->
<g id="node10" class="node">
<title>Node10</title>
<g id="a_node10"><a xlink:href="a00017.xhtml#a0ddf1224851353fc92bfbff6f499fa97" target="_top" xlink:title=" ">
<polygon fill="white" stroke="black" points="136,-252.5 136,-271.5 174,-271.5 174,-252.5 136,-252.5"/>
<text text-anchor="middle" x="155" y="-259.5" font-family="Helvetica,sans-Serif" font-size="10.00">main</text>
</a>
</g>
</g>
<!-- Node7&#45;&gt;Node10 -->
<g id="edge9" class="edge">
<title>Node7&#45;&gt;Node10</title>
<path fill="none" stroke="midnightblue" d="M280.4,-262.64C242.33,-262.44 198.43,-262.22 174.29,-262.09"/>
<polygon fill="midnightblue" stroke="midnightblue" points="280.43,-266.14 290.45,-262.69 280.46,-259.14 280.43,-266.14"/>
</g>
<!-- Node9 -->
<g id="node9" class="node">
<title>Node9</title>
<g id="a_node9"><a xlink:href="a00020.xhtml#a0ddf1224851353fc92bfbff6f499fa97" target="_top" xlink:title=" ">
<polygon fill="white" stroke="black" points="0,-290.5 0,-309.5 38,-309.5 38,-290.5 0,-290.5"/>
<text text-anchor="middle" x="19" y="-297.5" font-family="Helvetica,sans-Serif" font-size="10.00">main</text>
</a>
</g>
</g>
<!-- Node8&#45;&gt;Node9 -->
<g id="edge8" class="edge">
<title>Node8&#45;&gt;Node9</title>
<path fill="none" stroke="midnightblue" d="M71.98,-300C59.29,-300 47.35,-300 38.12,-300"/>
<polygon fill="midnightblue" stroke="midnightblue" points="72.29,-303.5 82.29,-300 72.29,-296.5 72.29,-303.5"/>
</g>
<!-- Node12 -->
<g id="node12" class="node">
<title>Node12</title>
<g id="a_node12"><a xlink:href="a00630.xhtml#a9c6126cdc8793ca4b0187a4d31877e71" target="_top" xlink:title=" ">
<polygon fill="white" stroke="black" points="299,-213.5 299,-232.5 406,-232.5 406,-213.5 299,-213.5"/>
<text text-anchor="middle" x="352.5" y="-220.5" font-family="Helvetica,sans-Serif" font-size="10.00">CViterbi::compViterbi</text>
</a>
</g>
</g>
<!-- Node11&#45;&gt;Node12 -->
<g id="edge11" class="edge">
<title>Node11&#45;&gt;Node12</title>
<path fill="none" stroke="midnightblue" d="M468.22,-219.97C447.52,-220.51 425.46,-221.1 406.28,-221.6"/>
<polygon fill="midnightblue" stroke="midnightblue" points="468.35,-223.46 478.25,-219.7 468.16,-216.47 468.35,-223.46"/>
</g>
<!-- Node13 -->
<g id="node13" class="node">
<title>Node13</title>
<g id="a_node13"><a xlink:href="a00454.xhtml#a463c7570302112f307363ec1c7260221" target="_top" xlink:title=" ">
<polygon fill="white" stroke="black" points="98,-213.5 98,-232.5 212,-232.5 212,-213.5 98,-213.5"/>
<text text-anchor="middle" x="155" y="-220.5" font-family="Helvetica,sans-Serif" font-size="10.00">CChordIf::compChords</text>
</a>
</g>
</g>
<!-- Node12&#45;&gt;Node13 -->
<g id="edge12" class="edge">
<title>Node12&#45;&gt;Node13</title>
<path fill="none" stroke="midnightblue" d="M288.55,-223C263.98,-223 236.04,-223 212.17,-223"/>
<polygon fill="midnightblue" stroke="midnightblue" points="288.85,-226.5 298.85,-223 288.85,-219.5 288.85,-226.5"/>
</g>
<!-- Node14 -->
<g id="node14" class="node">
<title>Node14</title>
<g id="a_node14"><a xlink:href="a00032.xhtml#a0ddf1224851353fc92bfbff6f499fa97" target="_top" xlink:title=" ">
<polygon fill="white" stroke="black" points="0,-213.5 0,-232.5 38,-232.5 38,-213.5 0,-213.5"/>
<text text-anchor="middle" x="19" y="-220.5" font-family="Helvetica,sans-Serif" font-size="10.00">main</text>
</a>
</g>
</g>
<!-- Node13&#45;&gt;Node14 -->
<g id="edge13" class="edge">
<title>Node13&#45;&gt;Node14</title>
<path fill="none" stroke="midnightblue" d="M87.85,-223C69.6,-223 51.27,-223 38.27,-223"/>
<polygon fill="midnightblue" stroke="midnightblue" points="87.95,-226.5 97.95,-223 87.95,-219.5 87.95,-226.5"/>
</g>
<!-- Node15&#45;&gt;Node7 -->
<g id="edge15" class="edge">
<title>Node15&#45;&gt;Node7</title>
<path fill="none" stroke="midnightblue" d="M483.64,-258.18C461.67,-258.99 436.7,-259.92 414.54,-260.74"/>
<polygon fill="midnightblue" stroke="midnightblue" points="483.96,-261.67 493.83,-257.8 483.71,-254.68 483.96,-261.67"/>
</g>
<!-- Node17 -->
<g id="node17" class="node">
<title>Node17</title>
<g id="a_node17"><a xlink:href="a00538.xhtml#a713f1061ff32359a059c47c60bee4700" target="_top" xlink:title=" ">
<polygon fill="white" stroke="black" points="272,-175.5 272,-194.5 433,-194.5 433,-175.5 272,-175.5"/>
<text text-anchor="middle" x="352.5" y="-182.5" font-family="Helvetica,sans-Serif" font-size="10.00">CSubFingerprint::CSubFingerprint</text>
</a>
</g>
</g>
<!-- Node16&#45;&gt;Node17 -->
<g id="edge17" class="edge">
<title>Node16&#45;&gt;Node17</title>
<path fill="none" stroke="midnightblue" d="M463.23,-182.1C453.31,-182.36 443.16,-182.63 433.24,-182.89"/>
<polygon fill="midnightblue" stroke="midnightblue" points="463.56,-185.59 473.46,-181.83 463.38,-178.59 463.56,-185.59"/>
</g>
<!-- Node19 -->
<g id="node19" class="node">
<title>Node19</title>
<g id="a_node19"><a xlink:href="a00334.xhtml#a388f9c7dd2074706d723e31b421f16fa" target="_top" xlink:title=" ">
<polygon fill="white" stroke="black" points="276,-126 276,-156 429,-156 429,-126 276,-126"/>
<text text-anchor="start" x="284" y="-144" font-family="Helvetica,sans-Serif" font-size="10.00">CFeatureSpectralPitchChroma</text>
<text text-anchor="middle" x="352.5" y="-133" font-family="Helvetica,sans-Serif" font-size="10.00">::CFeatureSpectralPitchChroma</text>
</a>
</g>
</g>
<!-- Node18&#45;&gt;Node19 -->
<g id="edge19" class="edge">
<title>Node18&#45;&gt;Node19</title>
<path fill="none" stroke="midnightblue" d="M458.69,-138.22C448.84,-138.48 438.83,-138.74 429.09,-139"/>
<polygon fill="midnightblue" stroke="midnightblue" points="458.98,-141.71 468.89,-137.95 458.8,-134.71 458.98,-141.71"/>
</g>
<!-- Node20 -->
<g id="node20" class="node">
<title>Node20</title>
<g id="a_node20"><a xlink:href="a00334.xhtml#a6b4b3032eb9b09d9f64811613448c994" target="_top" xlink:title=" ">
<polygon fill="white" stroke="black" points="278,-77 278,-107 427,-107 427,-77 278,-77"/>
<text text-anchor="start" x="286" y="-95" font-family="Helvetica,sans-Serif" font-size="10.00">CFeatureSpectralPitchChroma</text>
<text text-anchor="middle" x="352.5" y="-84" font-family="Helvetica,sans-Serif" font-size="10.00">::setAdditionalParam</text>
</a>
</g>
</g>
<!-- Node18&#45;&gt;Node20 -->
<g id="edge20" class="edge">
<title>Node18&#45;&gt;Node20</title>
<path fill="none" stroke="midnightblue" d="M467.86,-118.62C451.39,-114.79 434.07,-110.76 418.04,-107.03"/>
<polygon fill="midnightblue" stroke="midnightblue" points="467.45,-122.12 477.99,-120.98 469.04,-115.3 467.45,-122.12"/>
</g>
<!-- Node22 -->
<g id="node22" class="node">
<title>Node22</title>
<g id="a_node22"><a xlink:href="a00454.xhtml#ad48a5bd574f16b7491b70efb9998935f" target="_top" xlink:title="init configuration">
<polygon fill="white" stroke="black" points="314,-38.5 314,-57.5 391,-57.5 391,-38.5 314,-38.5"/>
<text text-anchor="middle" x="352.5" y="-45.5" font-family="Helvetica,sans-Serif" font-size="10.00">CChordIf::init_</text>
</a>
</g>
</g>
<!-- Node21&#45;&gt;Node22 -->
<g id="edge22" class="edge">
<title>Node21&#45;&gt;Node22</title>
<path fill="none" stroke="midnightblue" d="M491.54,-80.14C459.93,-72.78 419.99,-63.48 391.22,-56.78"/>
<polygon fill="midnightblue" stroke="midnightblue" points="490.96,-83.59 501.49,-82.45 492.54,-76.78 490.96,-83.59"/>
</g>
<!-- Node23 -->
<g id="node23" class="node">
<title>Node23</title>
<g id="a_node23"><a xlink:href="a00310.xhtml#a6df404d2eb3d4c8f9dc2071930fc9e7e" target="_top" xlink:title=" ">
<polygon fill="white" stroke="black" points="74,-60.5 74,-79.5 236,-79.5 236,-60.5 74,-60.5"/>
<text text-anchor="middle" x="155" y="-67.5" font-family="Helvetica,sans-Serif" font-size="10.00">CChordFromFile::CChordFromFile</text>
</a>
</g>
</g>
<!-- Node22&#45;&gt;Node23 -->
<g id="edge23" class="edge">
<title>Node22&#45;&gt;Node23</title>
<path fill="none" stroke="midnightblue" d="M303.84,-53.36C283.45,-55.66 259.08,-58.4 236.06,-60.99"/>
<polygon fill="midnightblue" stroke="midnightblue" points="304.26,-56.84 313.81,-52.24 303.48,-49.88 304.26,-56.84"/>
</g>
<!-- Node24 -->
<g id="node24" class="node">
<title>Node24</title>
<g id="a_node24"><a xlink:href="a00314.xhtml#ac9c41c2ddc441df7e0ae80c25971c260" target="_top" xlink:title=" ">
<polygon fill="white" stroke="black" points="86.5,-11 86.5,-41 223.5,-41 223.5,-11 86.5,-11"/>
<text text-anchor="start" x="94.5" y="-29" font-family="Helvetica,sans-Serif" font-size="10.00">CChordFromVector::CChord</text>
<text text-anchor="middle" x="155" y="-18" font-family="Helvetica,sans-Serif" font-size="10.00">FromVector</text>
</a>
</g>
</g>
<!-- Node22&#45;&gt;Node24 -->
<g id="edge24" class="edge">
<title>Node22&#45;&gt;Node24</title>
<path fill="none" stroke="midnightblue" d="M303.84,-42.64C279.74,-39.93 250.07,-36.59 223.66,-33.61"/>
<polygon fill="midnightblue" stroke="midnightblue" points="303.48,-46.12 313.81,-43.76 304.26,-39.16 303.48,-46.12"/>
</g>
<!-- Node27 -->
<g id="node27" class="node">
<title>Node27</title>
<g id="a_node27"><a xlink:href="a00594.xhtml#aec1d45b63855c114d480d1a0532dc3e5" target="_top" xlink:title=" ">
<polygon fill="white" stroke="black" points="323,-0.5 323,-19.5 382,-19.5 382,-0.5 323,-0.5"/>
<text text-anchor="middle" x="352.5" y="-7.5" font-family="Helvetica,sans-Serif" font-size="10.00">CNmf::init</text>
</a>
</g>
</g>
<!-- Node26&#45;&gt;Node27 -->
<g id="edge27" class="edge">
<title>Node26&#45;&gt;Node27</title>
<path fill="none" stroke="midnightblue" d="M486.87,-12.12C452.54,-11.57 409.93,-10.9 382.25,-10.46"/>
<polygon fill="midnightblue" stroke="midnightblue" points="487.18,-15.62 497.23,-12.28 487.29,-8.62 487.18,-15.62"/>
</g>
</g>
</svg>
        <g id="navigator" transform="translate(0 0)" fill="#404254">
                <rect fill="#f2f5e9" fill-opacity="0.5" stroke="#606060" stroke-width=".5" x="0" y="0" width="60" height="60"/>
                <use id="zoomplus" xlink:href="#zoomPlus" x="17" y="9" onmousedown="handleZoom(evt,'in')"/>
                <use id="zoomminus" xlink:href="#zoomMin" x="42" y="9" onmousedown="handleZoom(evt,'out')"/>
                <use id="reset" xlink:href="#resetDef" x="30" y="36" onmousedown="handleReset()"/>
                <g id="arrowUp" xlink:href="#dirArrow" transform="translate(30 24)" onmousedown="handlePan(0,-1)">
                  <use xlink:href="#rim" fill="#404040">
                        <set attributeName="fill" to="#808080" begin="arrowUp.mouseover" end="arrowUp.mouseout"/>
                  </use>
                  <path fill="none" stroke="white" stroke-width="1.5" d="M0,-3.0v7 M-2.5,-0.5L0,-3.0L2.5,-0.5"/>
                </g>
                <g id="arrowRight" xlink:href="#dirArrow" transform="rotate(90) translate(36 -43)" onmousedown="handlePan(1,0)">
                  <use xlink:href="#rim" fill="#404040">
                        <set attributeName="fill" to="#808080" begin="arrowRight.mouseover" end="arrowRight.mouseout"/>
                  </use>
                  <path fill="none" stroke="white" stroke-width="1.5" d="M0,-3.0v7 M-2.5,-0.5L0,-3.0L2.5,-0.5"/>
                </g>
                <g id="arrowDown" xlink:href="#dirArrow" transform="rotate(180) translate(-30 -48)" onmousedown="handlePan(0,1)">
                  <use xlink:href="#rim" fill="#404040">
                        <set attributeName="fill" to="#808080" begin="arrowDown.mouseover" end="arrowDown.mouseout"/>
                  </use>
                  <path fill="none" stroke="white" stroke-width="1.5" d="M0,-3.0v7 M-2.5,-0.5L0,-3.0L2.5,-0.5"/>
                </g>
                <g id="arrowLeft" xlink:href="#dirArrow" transform="rotate(270) translate(-36 17)" onmousedown="handlePan(-1,0)">
                  <use xlink:href="#rim" fill="#404040">
                        <set attributeName="fill" to="#808080" begin="arrowLeft.mouseover" end="arrowLeft.mouseout"/>
                  </use>
                  <path fill="none" stroke="white" stroke-width="1.5" d="M0,-3.0v7 M-2.5,-0.5L0,-3.0L2.5,-0.5"/>
                </g>
        </g>
        <svg viewBox="0 0 15 15" width="100%" height="30px" preserveAspectRatio="xMaxYMin meet">
         <g id="arrow_out" transform="scale(0.3 0.3)">
          <a xlink:href="a00502_a4cf9544dd96801e3ee47fd1ef2049a1b_icgraph_org.svg" target="_base">
           <rect id="button" ry="5" rx="5" y="6" x="6" height="38" width="38"
                fill="#f2f5e9" fill-opacity="0.5" stroke="#606060" stroke-width="1.0"/>
           <path id="arrow"
             d="M 11.500037,31.436501 C 11.940474,20.09759 22.043105,11.32322 32.158766,21.979434 L 37.068811,17.246167 C 37.068811,17.246167 37.088388,32 37.088388,32 L 22.160133,31.978069 C 22.160133,31.978069 26.997745,27.140456 26.997745,27.140456 C 18.528582,18.264221 13.291696,25.230495 11.500037,31.436501 z"
             style="fill:#404040;"/>
          </a>
         </g>
        </svg>
</svg>
