<?xml version="1.0" encoding="UTF-8" standalone="no"?>
<!DOCTYPE svg PUBLIC "-//W3C//DTD SVG 1.1//EN"
 "http://www.w3.org/Graphics/SVG/1.1/DTD/svg11.dtd">
<!-- Generated by graphviz version 6.0.1 (20220911.1526)
 -->
<!-- Title: CNmf::runNmfIter Pages: 1 -->
<!--zoomable 471 -->
<svg id="main" version="1.1" xmlns="http://www.w3.org/2000/svg" xmlns:xlink="http://www.w3.org/1999/xlink" xml:space="preserve" onload="init(evt)">
<style type="text/css"><![CDATA[
.edge:hover path { stroke: red; }
.edge:hover polygon { stroke: red; fill: red; }
]]></style>
<script type="text/javascript"><![CDATA[
var edges = document.getElementsByTagName('g');
if (edges && edges.length) {
  for (var i=0;i<edges.length;i++) {
    if (edges[i].id.substr(0,4)=='edge') {
      edges[i].setAttribute('class','edge');
    }
  }
}
]]></script>
        <defs>
                <circle id="rim" cx="0" cy="0" r="7"/>
                <circle id="rim2" cx="0" cy="0" r="3.5"/>
                <g id="zoomPlus">
                        <use xlink:href="#rim" fill="#404040">
                                <set attributeName="fill" to="#808080" begin="zoomplus.mouseover" end="zoomplus.mouseout"/>
                        </use>
                        <path d="M-4,0h8M0,-4v8" fill="none" stroke="white" stroke-width="1.5" pointer-events="none"/>
                </g>
                <g id="zoomMin">
                        <use xlink:href="#rim" fill="#404040">
                                <set attributeName="fill" to="#808080" begin="zoomminus.mouseover" end="zoomminus.mouseout"/>
                        </use>
                        <path d="M-4,0h8" fill="none" stroke="white" stroke-width="1.5" pointer-events="none"/>
                </g>
                <g id="dirArrow">
                        <path fill="none" stroke="white" stroke-width="1.5" d="M0,-3.0v7 M-2.5,-0.5L0,-3.0L2.5,-0.5"/>
                </g>
               <g id="resetDef">
                       <use xlink:href="#rim2" fill="#404040">
                               <set attributeName="fill" to="#808080" begin="reset.mouseover" end="reset.mouseout"/>
                       </use>
               </g>
        </defs>

<script type="text/javascript">
var viewWidth = 463;
var viewHeight = 471;
var sectionId = 'dynsection-7';
</script>
<script xlink:href="svgpan.js"/>
<svg id="graph" class="graph">
<g id="viewport">
<title>CNmf::runNmfIter</title>
<!-- Node1 -->
<g id="node1" class="node">
<title>Node1</title>
<g id="a_node1"><a xlink:title=" ">
<polygon fill="#999999" stroke="#666666" points="93,-241 0,-241 0,-222 93,-222 93,-241"/>
<text text-anchor="middle" x="46.5" y="-229" font-family="Helvetica,sans-Serif" font-size="10.00">CNmf::runNmfIter</text>
</a>
</g>
</g>
<!-- Node2 -->
<g id="node2" class="node">
<title>Node2</title>
<g id="a_node2"><a xlink:href="a00486.xhtml#a0db7af262c6f0cf07d5f478d9e3297e6" target="_top" xlink:title=" ">
<polygon fill="white" stroke="#666666" points="243.5,-463 158.5,-463 158.5,-444 243.5,-444 243.5,-463"/>
<text text-anchor="middle" x="201" y="-451" font-family="Helvetica,sans-Serif" font-size="10.00">CMatrix::addC_I</text>
</a>
</g>
</g>
<!-- Node1&#45;&gt;Node2 -->
<g id="edge1" class="edge">
<title>Node1&#45;&gt;Node2</title>
<path fill="none" stroke="#63b8ff" d="M48.36,-241.36C51.76,-274.3 67.33,-381.46 129,-435.5 134.59,-440.4 141.33,-444 148.4,-446.64"/>
<polygon fill="#63b8ff" stroke="#63b8ff" points="147.58,-450.05 158.17,-449.67 149.65,-443.36 147.58,-450.05"/>
</g>
<!-- Node4 -->
<g id="node4" class="node">
<title>Node4</title>
<g id="a_node4"><a xlink:href="a00486.xhtml#a52d194711681172569d1b796495a224c" target="_top" xlink:title=" ">
<polygon fill="white" stroke="#666666" points="266,-426 136,-426 136,-407 266,-407 266,-426"/>
<text text-anchor="middle" x="201" y="-414" font-family="Helvetica,sans-Serif" font-size="10.00">CMatrix::calcKlDivergence</text>
</a>
</g>
</g>
<!-- Node1&#45;&gt;Node4 -->
<g id="edge3" class="edge">
<title>Node1&#45;&gt;Node4</title>
<path fill="none" stroke="#63b8ff" d="M49.27,-241.19C55.06,-269.96 76.18,-355.56 129,-398.5 130.55,-399.76 132.19,-400.94 133.88,-402.03"/>
<polygon fill="#63b8ff" stroke="#63b8ff" points="132.33,-405.18 142.79,-406.86 135.66,-399.02 132.33,-405.18"/>
</g>
<!-- Node5 -->
<g id="node5" class="node">
<title>Node5</title>
<g id="a_node5"><a xlink:href="a00486.xhtml#aa633cf46c2b3938a1a7a8199c31051dd" target="_top" xlink:title=" ">
<polygon fill="white" stroke="#666666" points="238,-389 164,-389 164,-370 238,-370 238,-389"/>
<text text-anchor="middle" x="201" y="-377" font-family="Helvetica,sans-Serif" font-size="10.00">CMatrix::copy</text>
</a>
</g>
</g>
<!-- Node1&#45;&gt;Node5 -->
<g id="edge4" class="edge">
<title>Node1&#45;&gt;Node5</title>
<path fill="none" stroke="#63b8ff" d="M50.66,-241.09C59.15,-265.33 84.86,-329.35 129,-361.5 136.32,-366.83 145.06,-370.59 153.86,-373.24"/>
<polygon fill="#63b8ff" stroke="#63b8ff" points="153.2,-376.68 163.76,-375.78 154.94,-369.9 153.2,-376.68"/>
</g>
<!-- Node7 -->
<g id="node7" class="node">
<title>Node7</title>
<g id="a_node7"><a xlink:href="a00486.xhtml#a88a70757c98b45987bb023fae3d8b27e" target="_top" xlink:title=" ">
<polygon fill="white" stroke="#666666" points="238.5,-352 163.5,-352 163.5,-333 238.5,-333 238.5,-352"/>
<text text-anchor="middle" x="201" y="-340" font-family="Helvetica,sans-Serif" font-size="10.00">CMatrix::div_I</text>
</a>
</g>
</g>
<!-- Node1&#45;&gt;Node7 -->
<g id="edge6" class="edge">
<title>Node1&#45;&gt;Node7</title>
<path fill="none" stroke="#63b8ff" d="M53.1,-241.1C64.7,-260.12 93.3,-302.63 129,-324.5 136.4,-329.04 144.91,-332.43 153.4,-334.98"/>
<polygon fill="#63b8ff" stroke="#63b8ff" points="152.74,-338.42 163.3,-337.59 154.52,-331.65 152.74,-338.42"/>
</g>
<!-- Node8 -->
<g id="node8" class="node">
<title>Node8</title>
<g id="a_node8"><a xlink:href="a00590.xhtml#a9809e7b2289abd238e992df3b7ad65a0" target="_top" xlink:title=" ">
<polygon fill="white" stroke="#666666" points="263,-315 139,-315 139,-296 263,-296 263,-315"/>
<text text-anchor="middle" x="201" y="-303" font-family="Helvetica,sans-Serif" font-size="10.00">CNmfResult::getMatCols</text>
</a>
</g>
</g>
<!-- Node1&#45;&gt;Node8 -->
<g id="edge7" class="edge">
<title>Node1&#45;&gt;Node8</title>
<path fill="none" stroke="#63b8ff" d="M58.59,-241.05C73.6,-253.49 101.63,-275.11 129,-287.5 133.4,-289.49 138.06,-291.29 142.81,-292.91"/>
<polygon fill="#63b8ff" stroke="#63b8ff" points="142.02,-296.33 152.6,-295.98 144.11,-289.65 142.02,-296.33"/>
</g>
<!-- Node9 -->
<g id="node9" class="node">
<title>Node9</title>
<g id="a_node9"><a xlink:href="a00590.xhtml#a85d97245bb91969264671387706cd372" target="_top" xlink:title=" ">
<polygon fill="white" stroke="#666666" points="268.5,-278 133.5,-278 133.5,-259 268.5,-259 268.5,-278"/>
<text text-anchor="middle" x="201" y="-266" font-family="Helvetica,sans-Serif" font-size="10.00">CNmfResult::getMatPointer</text>
</a>
</g>
</g>
<!-- Node1&#45;&gt;Node9 -->
<g id="edge8" class="edge">
<title>Node1&#45;&gt;Node9</title>
<path fill="none" stroke="#63b8ff" d="M86.77,-241.03C106.26,-245.76 130.01,-251.52 150.71,-256.54"/>
<polygon fill="#63b8ff" stroke="#63b8ff" points="150.05,-259.98 160.6,-258.94 151.7,-253.18 150.05,-259.98"/>
</g>
<!-- Node10 -->
<g id="node10" class="node">
<title>Node10</title>
<g id="a_node10"><a xlink:href="a00590.xhtml#a6c61324a24caf454344400a728e09387" target="_top" xlink:title=" ">
<polygon fill="white" stroke="#666666" points="265.5,-241 136.5,-241 136.5,-222 265.5,-222 265.5,-241"/>
<text text-anchor="middle" x="201" y="-229" font-family="Helvetica,sans-Serif" font-size="10.00">CNmfResult::getMatRows</text>
</a>
</g>
</g>
<!-- Node1&#45;&gt;Node10 -->
<g id="edge9" class="edge">
<title>Node1&#45;&gt;Node10</title>
<path fill="none" stroke="#63b8ff" d="M93.26,-231.5C103.6,-231.5 114.84,-231.5 126.02,-231.5"/>
<polygon fill="#63b8ff" stroke="#63b8ff" points="126.23,-235 136.23,-231.5 126.23,-228 126.23,-235"/>
</g>
<!-- Node11 -->
<g id="node11" class="node">
<title>Node11</title>
<g id="a_node11"><a xlink:href="a00486.xhtml#af3b2088c77c6c79fabf823e50327c152" target="_top" xlink:title=" ">
<polygon fill="white" stroke="#666666" points="247,-204 155,-204 155,-185 247,-185 247,-204"/>
<text text-anchor="middle" x="201" y="-192" font-family="Helvetica,sans-Serif" font-size="10.00">CMatrix::getNorm</text>
</a>
</g>
</g>
<!-- Node1&#45;&gt;Node11 -->
<g id="edge10" class="edge">
<title>Node1&#45;&gt;Node11</title>
<path fill="none" stroke="#63b8ff" d="M86.77,-221.97C106.26,-217.24 130.01,-211.48 150.71,-206.46"/>
<polygon fill="#63b8ff" stroke="#63b8ff" points="151.7,-209.82 160.6,-204.06 150.05,-203.02 151.7,-209.82"/>
</g>
<!-- Node12 -->
<g id="node12" class="node">
<title>Node12</title>
<g id="a_node12"><a xlink:href="a00486.xhtml#aabc5b346338600b0c0dec797abe2b89f" target="_top" xlink:title=" ">
<polygon fill="white" stroke="#666666" points="240,-167 162,-167 162,-148 240,-148 240,-167"/>
<text text-anchor="middle" x="201" y="-155" font-family="Helvetica,sans-Serif" font-size="10.00">CMatrix::mul_I</text>
</a>
</g>
</g>
<!-- Node1&#45;&gt;Node12 -->
<g id="edge11" class="edge">
<title>Node1&#45;&gt;Node12</title>
<path fill="none" stroke="#63b8ff" d="M58.91,-221.98C74.03,-209.8 101.97,-188.82 129,-176.5 136.27,-173.19 144.22,-170.36 152.1,-167.98"/>
<polygon fill="#63b8ff" stroke="#63b8ff" points="153.3,-171.28 161.97,-165.2 151.4,-164.54 153.3,-171.28"/>
</g>
<!-- Node13 -->
<g id="node13" class="node">
<title>Node13</title>
<g id="a_node13"><a xlink:href="a00486.xhtml#acba558090ffee6e3a28aee7e38726754" target="_top" xlink:title=" ">
<polygon fill="white" stroke="#666666" points="252.5,-130 149.5,-130 149.5,-111 252.5,-111 252.5,-130"/>
<text text-anchor="middle" x="201" y="-118" font-family="Helvetica,sans-Serif" font-size="10.00">CMatrix::mulMatMat</text>
</a>
</g>
</g>
<!-- Node1&#45;&gt;Node13 -->
<g id="edge12" class="edge">
<title>Node1&#45;&gt;Node13</title>
<path fill="none" stroke="#63b8ff" d="M53.33,-221.76C65.14,-202.88 93.79,-161.27 129,-139.5 132.54,-137.31 136.33,-135.37 140.25,-133.65"/>
<polygon fill="#63b8ff" stroke="#63b8ff" points="141.52,-136.91 149.58,-130.03 138.99,-130.39 141.52,-136.91"/>
</g>
<!-- Node14 -->
<g id="node14" class="node">
<title>Node14</title>
<g id="a_node14"><a xlink:href="a00486.xhtml#a8c7b91818cdb1dd765ff8add1eb87a2b" target="_top" xlink:title=" ">
<polygon fill="white" stroke="#666666" points="273,-93 129,-93 129,-74 273,-74 273,-93"/>
<text text-anchor="middle" x="201" y="-81" font-family="Helvetica,sans-Serif" font-size="10.00">CMatrix::setZeroBelowThresh</text>
</a>
</g>
</g>
<!-- Node1&#45;&gt;Node14 -->
<g id="edge13" class="edge">
<title>Node1&#45;&gt;Node14</title>
<path fill="none" stroke="#63b8ff" d="M50.83,-221.66C59.56,-197.43 85.47,-134.53 129,-102.5 131.54,-100.63 134.25,-98.95 137.07,-97.43"/>
<polygon fill="#63b8ff" stroke="#63b8ff" points="138.8,-100.49 146.41,-93.12 135.87,-94.13 138.8,-100.49"/>
</g>
<!-- Node16 -->
<g id="node16" class="node">
<title>Node16</title>
<g id="a_node16"><a xlink:href="a00486.xhtml#a8b496f71fd36ee5afe60619df6cd657a" target="_top" xlink:title=" ">
<polygon fill="white" stroke="#666666" points="249.5,-56 152.5,-56 152.5,-37 249.5,-37 249.5,-56"/>
<text text-anchor="middle" x="201" y="-44" font-family="Helvetica,sans-Serif" font-size="10.00">CMatrix::transpose</text>
</a>
</g>
</g>
<!-- Node1&#45;&gt;Node16 -->
<g id="edge15" class="edge">
<title>Node1&#45;&gt;Node16</title>
<path fill="none" stroke="#63b8ff" d="M49.32,-221.9C55.24,-193.39 76.67,-108.51 129,-65.5 133.08,-62.14 137.71,-59.37 142.59,-57.09"/>
<polygon fill="#63b8ff" stroke="#63b8ff" points="144.21,-60.22 152.21,-53.28 141.63,-53.71 144.21,-60.22"/>
</g>
<!-- Node17 -->
<g id="node17" class="node">
<title>Node17</title>
<g id="a_node17"><a xlink:href="a00486.xhtml#a1553f74613e06cf72a741728231e88cb" target="_top" xlink:title=" ">
<polygon fill="white" stroke="#666666" points="251,-19 151,-19 151,0 251,0 251,-19"/>
<text text-anchor="middle" x="201" y="-7" font-family="Helvetica,sans-Serif" font-size="10.00">CMatrix::vecnorm_I</text>
</a>
</g>
</g>
<!-- Node1&#45;&gt;Node17 -->
<g id="edge16" class="edge">
<title>Node1&#45;&gt;Node17</title>
<path fill="none" stroke="#63b8ff" d="M48.4,-221.71C51.94,-189.03 67.9,-82.66 129,-28.5 132.69,-25.23 136.87,-22.52 141.33,-20.27"/>
<polygon fill="#63b8ff" stroke="#63b8ff" points="142.93,-23.39 150.77,-16.26 140.2,-16.94 142.93,-23.39"/>
</g>
<!-- Node3 -->
<g id="node3" class="node">
<title>Node3</title>
<g id="a_node3"><a xlink:href="a00502.xhtml#a22ff86e4fc2f8d5042159d9c84a7ff14" target="_top" xlink:title=" ">
<polygon fill="white" stroke="#666666" points="425.5,-463 338.5,-463 338.5,-444 425.5,-444 425.5,-463"/>
<text text-anchor="middle" x="382" y="-451" font-family="Helvetica,sans-Serif" font-size="10.00">CVector::addC_I</text>
</a>
</g>
</g>
<!-- Node2&#45;&gt;Node3 -->
<g id="edge2" class="edge">
<title>Node2&#45;&gt;Node3</title>
<path fill="none" stroke="#63b8ff" d="M243.52,-453.5C268.79,-453.5 301.32,-453.5 328.39,-453.5"/>
<polygon fill="#63b8ff" stroke="#63b8ff" points="328.47,-457 338.47,-453.5 328.47,-450 328.47,-457"/>
</g>
<!-- Node6 -->
<g id="node6" class="node">
<title>Node6</title>
<g id="a_node6"><a xlink:href="a00502.xhtml#ad7c5cba73e439adac77778f61c9418f0" target="_top" xlink:title=" ">
<polygon fill="white" stroke="#666666" points="420.5,-389 343.5,-389 343.5,-370 420.5,-370 420.5,-389"/>
<text text-anchor="middle" x="382" y="-377" font-family="Helvetica,sans-Serif" font-size="10.00">CVector::copy</text>
</a>
</g>
</g>
<!-- Node5&#45;&gt;Node6 -->
<g id="edge5" class="edge">
<title>Node5&#45;&gt;Node6</title>
<path fill="none" stroke="#63b8ff" d="M238.22,-379.5C265.55,-379.5 303.29,-379.5 333.1,-379.5"/>
<polygon fill="#63b8ff" stroke="#63b8ff" points="333.29,-383 343.29,-379.5 333.29,-376 333.29,-383"/>
</g>
<!-- Node15 -->
<g id="node15" class="node">
<title>Node15</title>
<g id="a_node15"><a xlink:href="a00502.xhtml#aba07261926b4c10ed7fdbe38edf6d16d" target="_top" xlink:title=" ">
<polygon fill="white" stroke="#666666" points="455,-93 309,-93 309,-74 455,-74 455,-93"/>
<text text-anchor="middle" x="382" y="-81" font-family="Helvetica,sans-Serif" font-size="10.00">CVector::setZeroBelowThresh</text>
</a>
</g>
</g>
<!-- Node14&#45;&gt;Node15 -->
<g id="edge14" class="edge">
<title>Node14&#45;&gt;Node15</title>
<path fill="none" stroke="#63b8ff" d="M273,-83.5C281.49,-83.5 290.21,-83.5 298.84,-83.5"/>
<polygon fill="#63b8ff" stroke="#63b8ff" points="298.91,-87 308.91,-83.5 298.91,-80 298.91,-87"/>
</g>
</g>
</svg>
        <g id="navigator" transform="translate(0 0)" fill="#404254">
                <rect fill="#f2f5e9" fill-opacity="0.5" stroke="#606060" stroke-width=".5" x="0" y="0" width="60" height="60"/>
                <use id="zoomplus" xlink:href="#zoomPlus" x="17" y="9" onmousedown="handleZoom(evt,'in')"/>
                <use id="zoomminus" xlink:href="#zoomMin" x="42" y="9" onmousedown="handleZoom(evt,'out')"/>
                <use id="reset" xlink:href="#resetDef" x="30" y="36" onmousedown="handleReset()"/>
                <g id="arrowUp" xlink:href="#dirArrow" transform="translate(30 24)" onmousedown="handlePan(0,-1)">
                  <use xlink:href="#rim" fill="#404040">
                        <set attributeName="fill" to="#808080" begin="arrowUp.mouseover" end="arrowUp.mouseout"/>
                  </use>
                  <path fill="none" stroke="white" stroke-width="1.5" d="M0,-3.0v7 M-2.5,-0.5L0,-3.0L2.5,-0.5"/>
                </g>
                <g id="arrowRight" xlink:href="#dirArrow" transform="rotate(90) translate(36 -43)" onmousedown="handlePan(1,0)">
                  <use xlink:href="#rim" fill="#404040">
                        <set attributeName="fill" to="#808080" begin="arrowRight.mouseover" end="arrowRight.mouseout"/>
                  </use>
                  <path fill="none" stroke="white" stroke-width="1.5" d="M0,-3.0v7 M-2.5,-0.5L0,-3.0L2.5,-0.5"/>
                </g>
                <g id="arrowDown" xlink:href="#dirArrow" transform="rotate(180) translate(-30 -48)" onmousedown="handlePan(0,1)">
                  <use xlink:href="#rim" fill="#404040">
                        <set attributeName="fill" to="#808080" begin="arrowDown.mouseover" end="arrowDown.mouseout"/>
                  </use>
                  <path fill="none" stroke="white" stroke-width="1.5" d="M0,-3.0v7 M-2.5,-0.5L0,-3.0L2.5,-0.5"/>
                </g>
                <g id="arrowLeft" xlink:href="#dirArrow" transform="rotate(270) translate(-36 17)" onmousedown="handlePan(-1,0)">
                  <use xlink:href="#rim" fill="#404040">
                        <set attributeName="fill" to="#808080" begin="arrowLeft.mouseover" end="arrowLeft.mouseout"/>
                  </use>
                  <path fill="none" stroke="white" stroke-width="1.5" d="M0,-3.0v7 M-2.5,-0.5L0,-3.0L2.5,-0.5"/>
                </g>
        </g>
        <svg viewBox="0 0 15 15" width="100%" height="30px" preserveAspectRatio="xMaxYMin meet">
         <g id="arrow_out" transform="scale(0.3 0.3)">
          <a xlink:href="a00594_a3286e5142e39f0c59f3615271d08febc_cgraph_org.svg" target="_base">
           <rect id="button" ry="5" rx="5" y="6" x="6" height="38" width="38"
                fill="#f2f5e9" fill-opacity="0.5" stroke="#606060" stroke-width="1.0"/>
           <path id="arrow"
             d="M 11.500037,31.436501 C 11.940474,20.09759 22.043105,11.32322 32.158766,21.979434 L 37.068811,17.246167 C 37.068811,17.246167 37.088388,32 37.088388,32 L 22.160133,31.978069 C 22.160133,31.978069 26.997745,27.140456 26.997745,27.140456 C 18.528582,18.264221 13.291696,25.230495 11.500037,31.436501 z"
             style="fill:#404040;"/>
          </a>
         </g>
        </svg>
</svg>
