<?xml version="1.0" encoding="UTF-8" standalone="no"?>
<!DOCTYPE svg PUBLIC "-//W3C//DTD SVG 1.1//EN"
 "http://www.w3.org/Graphics/SVG/1.1/DTD/svg11.dtd">
<!-- Generated by graphviz version 12.2.1 (20241206.2353)
 -->
<!-- Title: CFingerprint::init Pages: 1 -->
<svg width="913pt" height="853pt"
 viewBox="0.00 0.00 913.25 853.47" xmlns="http://www.w3.org/2000/svg" xmlns:xlink="http://www.w3.org/1999/xlink">
<g id="graph0" class="graph" transform="scale(1 1) rotate(0) translate(4 849.47)">
<title>CFingerprint::init</title>
<!-- Node1 -->
<g id="Node000001" class="node">
<title>Node1</title>
<g id="a_Node000001"><a xlink:title=" ">
<polygon fill="#999999" stroke="#666666" points="85.75,-428.84 0,-428.84 0,-409.59 85.75,-409.59 85.75,-428.84"/>
<text text-anchor="middle" x="42.88" y="-415.34" font-family="Helvetica,sans-Serif" font-size="10.00">CFingerprint::init</text>
</a>
</g>
</g>
<!-- Node2 -->
<g id="Node000002" class="node">
<title>Node2</title>
<g id="a_Node000002"><a xlink:href="a00489.xhtml#a6501b78d76c912d49eee88c8f7242923" target="_top" xlink:title=" ">
<polygon fill="white" stroke="#666666" points="575.88,-683.84 502.12,-683.84 502.12,-664.59 575.88,-664.59 575.88,-683.84"/>
<text text-anchor="middle" x="539" y="-670.34" font-family="Helvetica,sans-Serif" font-size="10.00">CMatrix::alloc</text>
</a>
</g>
</g>
<!-- Node1&#45;&gt;Node2 -->
<g id="edge1_Node000001_Node000002" class="edge">
<title>Node1&#45;&gt;Node2</title>
<g id="a_edge1_Node000001_Node000002"><a xlink:title=" ">
<path fill="none" stroke="#63b8ff" d="M44.17,-429.34C45.78,-465.32 56.05,-588.52 121.75,-655.22 219.62,-754.57 292.95,-734.23 430.5,-711.22 456.41,-706.88 484.43,-697.06 505.37,-688.62"/>
<polygon fill="#63b8ff" stroke="#63b8ff" points="506.62,-691.89 514.52,-684.82 503.94,-685.42 506.62,-691.89"/>
</a>
</g>
</g>
<!-- Node3 -->
<g id="Node000003" class="node">
<title>Node3</title>
<g id="a_Node000003"><a xlink:href="a00505.xhtml#abaadac98b1cad18b7b568852bc951696" target="_top" xlink:title=" ">
<polygon fill="white" stroke="#666666" points="752,-345.84 676,-345.84 676,-326.59 752,-326.59 752,-345.84"/>
<text text-anchor="middle" x="714" y="-332.34" font-family="Helvetica,sans-Serif" font-size="10.00">CVector::alloc</text>
</a>
</g>
</g>
<!-- Node1&#45;&gt;Node3 -->
<g id="edge4_Node000001_Node000003" class="edge">
<title>Node1&#45;&gt;Node3</title>
<g id="a_edge4_Node000001_Node000003"><a xlink:title=" ">
<path fill="none" stroke="#63b8ff" d="M48.48,-429.27C58.58,-450.11 84.74,-498.12 121.75,-522.22 304.69,-641.36 428.01,-678.52 611.5,-560.22 683,-514.12 704.69,-404.07 710.79,-357.55"/>
<polygon fill="#63b8ff" stroke="#63b8ff" points="714.25,-358.07 711.95,-347.73 707.3,-357.25 714.25,-358.07"/>
</a>
</g>
</g>
<!-- Node5 -->
<g id="Node000005" class="node">
<title>Node5</title>
<g id="a_Node000005"><a xlink:href="a00445.xhtml#aab987b1a4ec96a8fc835b1733a1ee0c3" target="_top" xlink:title=" ">
<polygon fill="white" stroke="#666666" points="234.88,-777.84 134.12,-777.84 134.12,-758.59 234.88,-758.59 234.88,-777.84"/>
<text text-anchor="middle" x="184.5" y="-764.34" font-family="Helvetica,sans-Serif" font-size="10.00">CAudioFileIf::create</text>
</a>
</g>
</g>
<!-- Node1&#45;&gt;Node5 -->
<g id="edge5_Node000001_Node000005" class="edge">
<title>Node1&#45;&gt;Node5</title>
<g id="a_edge5_Node000001_Node000005"><a xlink:title=" ">
<path fill="none" stroke="#63b8ff" d="M45.02,-429.2C50.83,-478.39 78.54,-694.71 121.75,-744.22 124.56,-747.44 127.86,-750.23 131.45,-752.65"/>
<polygon fill="#63b8ff" stroke="#63b8ff" points="129.7,-755.68 140.14,-757.49 133.1,-749.57 129.7,-755.68"/>
</a>
</g>
</g>
<!-- Node11 -->
<g id="Node000011" class="node">
<title>Node11</title>
<g id="a_Node000011"><a xlink:href="a00445.xhtml#ab490b9d06c7efa0e4da3596cf4e7bec4" target="_top" xlink:title=" ">
<polygon fill="white" stroke="#666666" points="237.12,-814.84 131.88,-814.84 131.88,-795.59 237.12,-795.59 237.12,-814.84"/>
<text text-anchor="middle" x="184.5" y="-801.34" font-family="Helvetica,sans-Serif" font-size="10.00">CAudioFileIf::destroy</text>
</a>
</g>
</g>
<!-- Node1&#45;&gt;Node11 -->
<g id="edge11_Node000001_Node000011" class="edge">
<title>Node1&#45;&gt;Node11</title>
<g id="a_edge11_Node000001_Node000011"><a xlink:title=" ">
<path fill="none" stroke="#63b8ff" d="M44.62,-429.15C48.81,-482.28 71.01,-732.52 121.75,-787.22 122.12,-787.62 122.5,-788.01 122.89,-788.39"/>
<polygon fill="#63b8ff" stroke="#63b8ff" points="120.69,-791.11 130.79,-794.32 124.89,-785.52 120.69,-791.11"/>
</a>
</g>
</g>
<!-- Node12 -->
<g id="Node000012" class="node">
<title>Node12</title>
<g id="a_Node000012"><a xlink:href="a00605.xhtml#aad7f6eaf40285ca192d27a7420aff724" target="_top" xlink:title=" ">
<polygon fill="white" stroke="#666666" points="234.88,-645.84 134.12,-645.84 134.12,-626.59 234.88,-626.59 234.88,-645.84"/>
<text text-anchor="middle" x="184.5" y="-632.34" font-family="Helvetica,sans-Serif" font-size="10.00">CPreProc::downmix</text>
</a>
</g>
</g>
<!-- Node1&#45;&gt;Node12 -->
<g id="edge13_Node000001_Node000012" class="edge">
<title>Node1&#45;&gt;Node12</title>
<g id="a_edge13_Node000001_Node000012"><a xlink:title=" ">
<path fill="none" stroke="#63b8ff" d="M46.32,-429.27C53.65,-457.68 77.63,-539.94 121.75,-593.22 130.71,-604.03 143.03,-613.35 154.32,-620.52"/>
<polygon fill="#63b8ff" stroke="#63b8ff" points="152.18,-623.32 162.56,-625.47 155.79,-617.32 152.18,-623.32"/>
</a>
</g>
</g>
<!-- Node16 -->
<g id="Node000016" class="node">
<title>Node16</title>
<g id="a_Node000016"><a xlink:href="a00489.xhtml#a591097c6b1935c4d6273b3445f8f552b" target="_top" xlink:title=" ">
<polygon fill="white" stroke="#666666" points="574,-80.84 504,-80.84 504,-61.59 574,-61.59 574,-80.84"/>
<text text-anchor="middle" x="539" y="-67.34" font-family="Helvetica,sans-Serif" font-size="10.00">CMatrix::free</text>
</a>
</g>
</g>
<!-- Node1&#45;&gt;Node16 -->
<g id="edge17_Node000001_Node000016" class="edge">
<title>Node1&#45;&gt;Node16</title>
<g id="a_edge17_Node000001_Node000016"><a xlink:title=" ">
<path fill="none" stroke="#63b8ff" d="M44.58,-409.17C47.53,-374.47 61.65,-258.15 121.75,-190.22 217.93,-81.51 405.89,-69.09 492.41,-69.55"/>
<polygon fill="#63b8ff" stroke="#63b8ff" points="492.12,-73.05 502.17,-69.67 492.21,-66.05 492.12,-73.05"/>
</a>
</g>
</g>
<!-- Node17 -->
<g id="Node000017" class="node">
<title>Node17</title>
<g id="a_Node000017"><a xlink:href="a00505.xhtml#aa86bdb0c663d4d52f2765793756f8737" target="_top" xlink:title=" ">
<polygon fill="white" stroke="#666666" points="750.12,-118.84 677.88,-118.84 677.88,-99.59 750.12,-99.59 750.12,-118.84"/>
<text text-anchor="middle" x="714" y="-105.34" font-family="Helvetica,sans-Serif" font-size="10.00">CVector::free</text>
</a>
</g>
</g>
<!-- Node1&#45;&gt;Node17 -->
<g id="edge19_Node000001_Node000017" class="edge">
<title>Node1&#45;&gt;Node17</title>
<g id="a_edge19_Node000001_Node000017"><a xlink:title=" ">
<path fill="none" stroke="#63b8ff" d="M44.97,-409.13C50.48,-360.39 76.6,-149.82 121.75,-105.22 277.49,48.66 399.69,3.19 611.5,-52.22 641.14,-59.97 671.26,-78.52 690.91,-92.37"/>
<polygon fill="#63b8ff" stroke="#63b8ff" points="688.8,-95.16 698.94,-98.21 692.91,-89.5 688.8,-95.16"/>
</a>
</g>
</g>
<!-- Node18 -->
<g id="Node000018" class="node">
<title>Node18</title>
<g id="a_Node000018"><a xlink:href="a00445.xhtml#a7ddbbf5f828e61db7fd75dbf47a33832" target="_top" xlink:title=" ">
<polygon fill="white" stroke="#666666" points="247.25,-428.84 121.75,-428.84 121.75,-409.59 247.25,-409.59 247.25,-428.84"/>
<text text-anchor="middle" x="184.5" y="-415.34" font-family="Helvetica,sans-Serif" font-size="10.00">CAudioFileIf::getFileSpec</text>
</a>
</g>
</g>
<!-- Node1&#45;&gt;Node18 -->
<g id="edge20_Node000001_Node000018" class="edge">
<title>Node1&#45;&gt;Node18</title>
<g id="a_edge20_Node000001_Node000018"><a xlink:title=" ">
<path fill="none" stroke="#63b8ff" d="M86.15,-419.22C93.67,-419.22 101.71,-419.22 109.82,-419.22"/>
<polygon fill="#63b8ff" stroke="#63b8ff" points="109.77,-422.72 119.77,-419.22 109.77,-415.72 109.77,-422.72"/>
</a>
</g>
</g>
<!-- Node19 -->
<g id="Node000019" class="node">
<title>Node19</title>
<g id="a_Node000019"><a xlink:href="a00445.xhtml#a91a9d6008340a10ce10ac254b815fd00" target="_top" xlink:title=" ">
<polygon fill="white" stroke="#666666" points="243.12,-465.84 125.88,-465.84 125.88,-446.59 243.12,-446.59 243.12,-465.84"/>
<text text-anchor="middle" x="184.5" y="-452.34" font-family="Helvetica,sans-Serif" font-size="10.00">CAudioFileIf::getLength</text>
</a>
</g>
</g>
<!-- Node1&#45;&gt;Node19 -->
<g id="edge21_Node000001_Node000019" class="edge">
<title>Node1&#45;&gt;Node19</title>
<g id="a_edge21_Node000001_Node000019"><a xlink:title=" ">
<path fill="none" stroke="#63b8ff" d="M82.03,-429.33C98.19,-433.61 117.22,-438.65 134.41,-443.21"/>
<polygon fill="#63b8ff" stroke="#63b8ff" points="133.37,-446.55 143.93,-445.73 135.16,-439.79 133.37,-446.55"/>
</a>
</g>
</g>
<!-- Node23 -->
<g id="Node000023" class="node">
<title>Node23</title>
<g id="a_Node000023"><a xlink:href="a00613.xhtml#a1fa6003e640ba66531236277eddc5158" target="_top" xlink:title=" ">
<polygon fill="white" stroke="#666666" points="428.62,-326.84 285.12,-326.84 285.12,-307.59 428.62,-307.59 428.62,-326.84"/>
<text text-anchor="middle" x="356.88" y="-313.34" font-family="Helvetica,sans-Serif" font-size="10.00">CResample::getOutputLength</text>
</a>
</g>
</g>
<!-- Node1&#45;&gt;Node23 -->
<g id="edge25_Node000001_Node000023" class="edge">
<title>Node1&#45;&gt;Node23</title>
<g id="a_edge25_Node000001_Node000023"><a xlink:title=" ">
<path fill="none" stroke="#63b8ff" d="M54.54,-409.21C68.74,-396.46 95.16,-374.73 121.75,-363.22 169.77,-342.42 227.41,-330.94 273.49,-324.66"/>
<polygon fill="#63b8ff" stroke="#63b8ff" points="273.67,-328.16 283.13,-323.4 272.77,-321.22 273.67,-328.16"/>
</a>
</g>
</g>
<!-- Node25 -->
<g id="Node000025" class="node">
<title>Node25</title>
<g id="a_Node000025"><a xlink:href="a00557.xhtml#a8a32af7f8df719a995e85273800d028f" target="_top" xlink:title=" ">
<polygon fill="white" stroke="#666666" points="230,-512.84 139,-512.84 139,-493.59 230,-493.59 230,-512.84"/>
<text text-anchor="middle" x="184.5" y="-499.34" font-family="Helvetica,sans-Serif" font-size="10.00">CFingerprint::init_</text>
</a>
</g>
</g>
<!-- Node1&#45;&gt;Node25 -->
<g id="edge27_Node000001_Node000025" class="edge">
<title>Node1&#45;&gt;Node25</title>
<g id="a_edge27_Node000001_Node000025"><a xlink:title=" ">
<path fill="none" stroke="#63b8ff" d="M56.3,-429.34C71.26,-441.23 97.39,-461.12 121.75,-475.22 130.01,-479.99 139.23,-484.55 147.97,-488.55"/>
<polygon fill="#63b8ff" stroke="#63b8ff" points="146.36,-491.67 156.92,-492.52 149.19,-485.27 146.36,-491.67"/>
</a>
</g>
</g>
<!-- Node28 -->
<g id="Node000028" class="node">
<title>Node28</title>
<g id="a_Node000028"><a xlink:href="a00445.xhtml#a02a1c69fa0fc5b9aa8cb275315697be4" target="_top" xlink:title=" ">
<polygon fill="white" stroke="#666666" points="232.25,-255.84 136.75,-255.84 136.75,-236.59 232.25,-236.59 232.25,-255.84"/>
<text text-anchor="middle" x="184.5" y="-242.34" font-family="Helvetica,sans-Serif" font-size="10.00">CAudioFileIf::isEof</text>
</a>
</g>
</g>
<!-- Node1&#45;&gt;Node28 -->
<g id="edge31_Node000001_Node000028" class="edge">
<title>Node1&#45;&gt;Node28</title>
<g id="a_edge31_Node000001_Node000028"><a xlink:title=" ">
<path fill="none" stroke="#63b8ff" d="M45.99,-409.14C52.29,-381.57 73.62,-304.3 121.75,-264.22 123.25,-262.96 124.84,-261.8 126.5,-260.71"/>
<polygon fill="#63b8ff" stroke="#63b8ff" points="128.04,-263.86 135.21,-256.06 124.74,-257.68 128.04,-263.86"/>
</a>
</g>
</g>
<!-- Node29 -->
<g id="Node000029" class="node">
<title>Node29</title>
<g id="a_Node000029"><a xlink:href="a00445.xhtml#ac845c2e45bc7bab904b73d432b00a05b" target="_top" xlink:title=" ">
<polygon fill="white" stroke="#666666" points="239.75,-218.84 129.25,-218.84 129.25,-199.59 239.75,-199.59 239.75,-218.84"/>
<text text-anchor="middle" x="184.5" y="-205.34" font-family="Helvetica,sans-Serif" font-size="10.00">CAudioFileIf::openFile</text>
</a>
</g>
</g>
<!-- Node1&#45;&gt;Node29 -->
<g id="edge32_Node000001_Node000029" class="edge">
<title>Node1&#45;&gt;Node29</title>
<g id="a_edge32_Node000001_Node000029"><a xlink:title=" ">
<path fill="none" stroke="#63b8ff" d="M44.92,-409.13C48.74,-377.39 64.89,-278.57 121.75,-227.22 122.51,-226.53 123.3,-225.87 124.11,-225.23"/>
<polygon fill="#63b8ff" stroke="#63b8ff" points="125.6,-228.42 132.21,-220.14 121.88,-222.5 125.6,-228.42"/>
</a>
</g>
</g>
<!-- Node30 -->
<g id="Node000030" class="node">
<title>Node30</title>
<g id="a_Node000030"><a xlink:href="a00613.xhtml#a040a6674ec0ff9171d6b4cb4b8436cb2" target="_top" xlink:title=" ">
<polygon fill="white" stroke="#666666" points="237.12,-292.84 131.88,-292.84 131.88,-273.59 237.12,-273.59 237.12,-292.84"/>
<text text-anchor="middle" x="184.5" y="-279.34" font-family="Helvetica,sans-Serif" font-size="10.00">CResample::process</text>
</a>
</g>
</g>
<!-- Node1&#45;&gt;Node30 -->
<g id="edge33_Node000001_Node000030" class="edge">
<title>Node1&#45;&gt;Node30</title>
<g id="a_edge33_Node000001_Node000030"><a xlink:title=" ">
<path fill="none" stroke="#63b8ff" d="M48.82,-409.38C59.55,-388.87 86.85,-341.04 121.75,-312.22 128.42,-306.71 136.3,-301.99 144.17,-298.05"/>
<polygon fill="#63b8ff" stroke="#63b8ff" points="145.42,-301.33 153.03,-293.95 142.48,-294.97 145.42,-301.33"/>
</a>
</g>
</g>
<!-- Node37 -->
<g id="Node000037" class="node">
<title>Node37</title>
<g id="a_Node000037"><a xlink:href="a00445.xhtml#ad86676f86c5a0c1fb23617b5e00014c4" target="_top" xlink:title=" ">
<polygon fill="white" stroke="#666666" points="240.88,-391.84 128.12,-391.84 128.12,-372.59 240.88,-372.59 240.88,-391.84"/>
<text text-anchor="middle" x="184.5" y="-378.34" font-family="Helvetica,sans-Serif" font-size="10.00">CAudioFileIf::readData</text>
</a>
</g>
</g>
<!-- Node1&#45;&gt;Node37 -->
<g id="edge49_Node000001_Node000037" class="edge">
<title>Node1&#45;&gt;Node37</title>
<g id="a_edge49_Node000001_Node000037"><a xlink:title=" ">
<path fill="none" stroke="#63b8ff" d="M82.03,-409.11C98.19,-404.82 117.22,-399.78 134.41,-395.22"/>
<polygon fill="#63b8ff" stroke="#63b8ff" points="135.16,-398.65 143.93,-392.7 133.37,-391.88 135.16,-398.65"/>
</a>
</g>
</g>
<!-- Node2&#45;&gt;Node3 -->
<g id="edge2_Node000002_Node000003" class="edge">
<title>Node2&#45;&gt;Node3</title>
<g id="a_edge2_Node000002_Node000003"><a xlink:title=" ">
<path fill="none" stroke="#63b8ff" d="M551.01,-664.17C566.3,-649.73 594.06,-621.69 611.5,-593.22 661.21,-512.08 694.82,-402.39 707.44,-357.1"/>
<polygon fill="#63b8ff" stroke="#63b8ff" points="710.78,-358.14 710.04,-347.57 704.03,-356.3 710.78,-358.14"/>
</a>
</g>
</g>
<!-- Node4 -->
<g id="Node000004" class="node">
<title>Node4</title>
<g id="a_Node000004"><a xlink:href="a00505.xhtml#a6dbb3f9f480568b60f7fe50090d20003" target="_top" xlink:title=" ">
<polygon fill="white" stroke="#666666" points="905.25,-269.84 816.5,-269.84 816.5,-250.59 905.25,-250.59 905.25,-269.84"/>
<text text-anchor="middle" x="860.88" y="-256.34" font-family="Helvetica,sans-Serif" font-size="10.00">CVector::setZero</text>
</a>
</g>
</g>
<!-- Node3&#45;&gt;Node4 -->
<g id="edge3_Node000003_Node000004" class="edge">
<title>Node3&#45;&gt;Node4</title>
<g id="a_edge3_Node000003_Node000004"><a xlink:title=" ">
<path fill="none" stroke="#63b8ff" d="M734.24,-326.12C759.05,-313.11 802.43,-290.35 831.16,-275.28"/>
<polygon fill="#63b8ff" stroke="#63b8ff" points="832.45,-278.56 839.68,-270.81 829.2,-272.36 832.45,-278.56"/>
</a>
</g>
</g>
<!-- Node6 -->
<g id="Node000006" class="node">
<title>Node6</title>
<g id="a_Node000006"><a xlink:href="a00445.xhtml#a303a350a95e8af4cfbaaf61c1274b790" target="_top" xlink:title=" ">
<polygon fill="white" stroke="#666666" points="420.38,-796.84 293.38,-796.84 293.38,-777.59 420.38,-777.59 420.38,-796.84"/>
<text text-anchor="middle" x="356.88" y="-783.34" font-family="Helvetica,sans-Serif" font-size="10.00">CAudioFileIf::CAudioFileIf</text>
</a>
</g>
</g>
<!-- Node5&#45;&gt;Node6 -->
<g id="edge6_Node000005_Node000006" class="edge">
<title>Node5&#45;&gt;Node6</title>
<g id="a_edge6_Node000005_Node000006"><a xlink:title=" ">
<path fill="none" stroke="#63b8ff" d="M235.24,-773.76C249.78,-775.39 266,-777.19 281.71,-778.95"/>
<polygon fill="#63b8ff" stroke="#63b8ff" points="281.2,-782.41 291.53,-780.04 281.98,-775.45 281.2,-782.41"/>
</a>
</g>
</g>
<!-- Node7 -->
<g id="Node000007" class="node">
<title>Node7</title>
<g id="a_Node000007"><a xlink:href="a00445.xhtml#a9fcdd386ee5292b5a971c7077858274c" target="_top" xlink:title=" ">
<polygon fill="white" stroke="#666666" points="602.88,-796.84 475.12,-796.84 475.12,-777.59 602.88,-777.59 602.88,-796.84"/>
<text text-anchor="middle" x="539" y="-783.34" font-family="Helvetica,sans-Serif" font-size="10.00">CAudioFileIf::initDefaults_</text>
</a>
</g>
</g>
<!-- Node6&#45;&gt;Node7 -->
<g id="edge7_Node000006_Node000007" class="edge">
<title>Node6&#45;&gt;Node7</title>
<g id="a_edge7_Node000006_Node000007"><a xlink:title=" ">
<path fill="none" stroke="#63b8ff" d="M420.87,-787.22C434.64,-787.22 449.34,-787.22 463.51,-787.22"/>
<polygon fill="#63b8ff" stroke="#63b8ff" points="463.22,-790.72 473.22,-787.22 463.22,-783.72 463.22,-790.72"/>
</a>
</g>
</g>
<!-- Node8 -->
<g id="Node000008" class="node">
<title>Node8</title>
<g id="a_Node000008"><a xlink:href="a00445.xhtml#a5a74fd1730a2f0f7339b6507ca7abc23" target="_top" xlink:title=" ">
<polygon fill="white" stroke="#666666" points="774.88,-845.47 653.12,-845.47 653.12,-814.97 774.88,-814.97 774.88,-845.47"/>
<text text-anchor="start" x="661.12" y="-831.97" font-family="Helvetica,sans-Serif" font-size="10.00">CAudioFileIf::setClipping</text>
<text text-anchor="middle" x="714" y="-820.72" font-family="Helvetica,sans-Serif" font-size="10.00">Enabled</text>
</a>
</g>
</g>
<!-- Node7&#45;&gt;Node8 -->
<g id="edge8_Node000007_Node000008" class="edge">
<title>Node7&#45;&gt;Node8</title>
<g id="a_edge8_Node000007_Node000008"><a xlink:title=" ">
<path fill="none" stroke="#63b8ff" d="M580.56,-797.3C598.76,-801.82 620.79,-807.3 641.6,-812.47"/>
<polygon fill="#63b8ff" stroke="#63b8ff" points="640.67,-815.84 651.21,-814.86 642.35,-809.05 640.67,-815.84"/>
</a>
</g>
</g>
<!-- Node9 -->
<g id="Node000009" class="node">
<title>Node9</title>
<g id="a_Node000009"><a xlink:href="a00445.xhtml#ada0ab1ffd0666fdc0db872ca7f8a309f" target="_top" xlink:title=" ">
<polygon fill="white" stroke="#666666" points="780.5,-796.84 647.5,-796.84 647.5,-777.59 780.5,-777.59 780.5,-796.84"/>
<text text-anchor="middle" x="714" y="-783.34" font-family="Helvetica,sans-Serif" font-size="10.00">CAudioFileIf::setInitialized_</text>
</a>
</g>
</g>
<!-- Node7&#45;&gt;Node9 -->
<g id="edge9_Node000007_Node000009" class="edge">
<title>Node7&#45;&gt;Node9</title>
<g id="a_edge9_Node000007_Node000009"><a xlink:title=" ">
<path fill="none" stroke="#63b8ff" d="M602.95,-787.22C613.63,-787.22 624.83,-787.22 635.83,-787.22"/>
<polygon fill="#63b8ff" stroke="#63b8ff" points="635.68,-790.72 645.68,-787.22 635.68,-783.72 635.68,-790.72"/>
</a>
</g>
</g>
<!-- Node10 -->
<g id="Node000010" class="node">
<title>Node10</title>
<g id="a_Node000010"><a xlink:href="a00445.xhtml#a6ccc53d8d2c5113b5b2cba604e8a4510" target="_top" xlink:title=" ">
<polygon fill="white" stroke="#666666" points="774.88,-759.84 653.12,-759.84 653.12,-740.59 774.88,-740.59 774.88,-759.84"/>
<text text-anchor="middle" x="714" y="-746.34" font-family="Helvetica,sans-Serif" font-size="10.00">CAudioFileIf::setIoType_</text>
</a>
</g>
</g>
<!-- Node7&#45;&gt;Node10 -->
<g id="edge10_Node000007_Node000010" class="edge">
<title>Node7&#45;&gt;Node10</title>
<g id="a_edge10_Node000007_Node000010"><a xlink:title=" ">
<path fill="none" stroke="#63b8ff" d="M587.27,-777.11C608.06,-772.66 632.68,-767.39 654.6,-762.71"/>
<polygon fill="#63b8ff" stroke="#63b8ff" points="655.26,-766.15 664.3,-760.63 653.79,-759.3 655.26,-766.15"/>
</a>
</g>
</g>
<!-- Node11&#45;&gt;Node6 -->
<g id="edge12_Node000011_Node000006" class="edge">
<title>Node11&#45;&gt;Node6</title>
<g id="a_edge12_Node000011_Node000006"><a xlink:title=" ">
<path fill="none" stroke="#63b8ff" d="M237.54,-799.72C251.5,-798.24 266.87,-796.62 281.77,-795.05"/>
<polygon fill="#63b8ff" stroke="#63b8ff" points="281.97,-798.54 291.54,-794.01 281.23,-791.58 281.97,-798.54"/>
</a>
</g>
</g>
<!-- Node13 -->
<g id="Node000013" class="node">
<title>Node13</title>
<g id="a_Node000013"><a xlink:href="a00505.xhtml#a3a052b83e62e5c5cc44829c64ffe42eb" target="_top" xlink:title=" ">
<polygon fill="white" stroke="#666666" points="396.75,-664.84 317,-664.84 317,-645.59 396.75,-645.59 396.75,-664.84"/>
<text text-anchor="middle" x="356.88" y="-651.34" font-family="Helvetica,sans-Serif" font-size="10.00">CVector::add_I</text>
</a>
</g>
</g>
<!-- Node12&#45;&gt;Node13 -->
<g id="edge14_Node000012_Node000013" class="edge">
<title>Node12&#45;&gt;Node13</title>
<g id="a_edge14_Node000012_Node000013"><a xlink:title=" ">
<path fill="none" stroke="#63b8ff" d="M235.24,-641.76C257.32,-644.23 283.27,-647.12 305.43,-649.59"/>
<polygon fill="#63b8ff" stroke="#63b8ff" points="304.8,-653.04 315.13,-650.67 305.58,-646.09 304.8,-653.04"/>
</a>
</g>
</g>
<!-- Node14 -->
<g id="Node000014" class="node">
<title>Node14</title>
<g id="a_Node000014"><a xlink:href="a00505.xhtml#ad7c5cba73e439adac77778f61c9418f0" target="_top" xlink:title=" ">
<polygon fill="white" stroke="#666666" points="577,-383.84 501,-383.84 501,-364.59 577,-364.59 577,-383.84"/>
<text text-anchor="middle" x="539" y="-370.34" font-family="Helvetica,sans-Serif" font-size="10.00">CVector::copy</text>
</a>
</g>
</g>
<!-- Node12&#45;&gt;Node14 -->
<g id="edge15_Node000012_Node000014" class="edge">
<title>Node12&#45;&gt;Node14</title>
<g id="a_edge15_Node000012_Node000014"><a xlink:title=" ">
<path fill="none" stroke="#63b8ff" d="M235.3,-634.97C291.08,-630.77 380.25,-615.19 430.5,-560.22 482.02,-503.85 413.47,-447.16 466.5,-392.22 472.75,-385.74 480.96,-381.46 489.58,-378.67"/>
<polygon fill="#63b8ff" stroke="#63b8ff" points="490.31,-382.09 499.14,-376.24 488.59,-375.31 490.31,-382.09"/>
</a>
</g>
</g>
<!-- Node15 -->
<g id="Node000015" class="node">
<title>Node15</title>
<g id="a_Node000015"><a xlink:href="a00505.xhtml#a9811f50434dd058d201290b2dc98bfcd" target="_top" xlink:title=" ">
<polygon fill="white" stroke="#666666" points="400.12,-701.84 313.62,-701.84 313.62,-682.59 400.12,-682.59 400.12,-701.84"/>
<text text-anchor="middle" x="356.88" y="-688.34" font-family="Helvetica,sans-Serif" font-size="10.00">CVector::mulC_I</text>
</a>
</g>
</g>
<!-- Node12&#45;&gt;Node15 -->
<g id="edge16_Node000012_Node000015" class="edge">
<title>Node12&#45;&gt;Node15</title>
<g id="a_edge16_Node000012_Node000015"><a xlink:title=" ">
<path fill="none" stroke="#63b8ff" d="M208.9,-646.29C228.52,-654.49 257.39,-666.02 283.25,-674.22 289.44,-676.18 295.98,-678.06 302.49,-679.82"/>
<polygon fill="#63b8ff" stroke="#63b8ff" points="301.35,-683.14 311.91,-682.27 303.12,-676.36 301.35,-683.14"/>
</a>
</g>
</g>
<!-- Node16&#45;&gt;Node17 -->
<g id="edge18_Node000016_Node000017" class="edge">
<title>Node16&#45;&gt;Node17</title>
<g id="a_edge18_Node000016_Node000017"><a xlink:title=" ">
<path fill="none" stroke="#63b8ff" d="M574.18,-78.72C600.52,-84.51 637.23,-92.57 666.28,-98.95"/>
<polygon fill="#63b8ff" stroke="#63b8ff" points="665.41,-102.35 675.93,-101.07 666.91,-95.51 665.41,-102.35"/>
</a>
</g>
</g>
<!-- Node20 -->
<g id="Node000020" class="node">
<title>Node20</title>
<g id="a_Node000020"><a xlink:href="a00445.xhtml#ae2bd8bd21bd04b0b9e9b8716bddfb7e1" target="_top" xlink:title=" ">
<polygon fill="white" stroke="#666666" points="430.5,-474.84 283.25,-474.84 283.25,-455.59 430.5,-455.59 430.5,-474.84"/>
<text text-anchor="middle" x="356.88" y="-461.34" font-family="Helvetica,sans-Serif" font-size="10.00">CAudioFileIf::getLengthIntern_</text>
</a>
</g>
</g>
<!-- Node19&#45;&gt;Node20 -->
<g id="edge22_Node000019_Node000020" class="edge">
<title>Node19&#45;&gt;Node20</title>
<g id="a_edge22_Node000019_Node000020"><a xlink:title=" ">
<path fill="none" stroke="#63b8ff" d="M243.18,-459.26C252.34,-459.75 261.97,-460.26 271.59,-460.76"/>
<polygon fill="#63b8ff" stroke="#63b8ff" points="271.17,-464.25 281.34,-461.28 271.54,-457.26 271.17,-464.25"/>
</a>
</g>
</g>
<!-- Node21 -->
<g id="Node000021" class="node">
<title>Node21</title>
<g id="a_Node000021"><a xlink:href="a00445.xhtml#a01d2aae56dd6295aee8ad10088f2cb27" target="_top" xlink:title=" ">
<polygon fill="white" stroke="#666666" points="417.75,-437.84 296,-437.84 296,-418.59 417.75,-418.59 417.75,-437.84"/>
<text text-anchor="middle" x="356.88" y="-424.34" font-family="Helvetica,sans-Serif" font-size="10.00">CAudioFileIf::isInitialized</text>
</a>
</g>
</g>
<!-- Node19&#45;&gt;Node21 -->
<g id="edge23_Node000019_Node000021" class="edge">
<title>Node19&#45;&gt;Node21</title>
<g id="a_edge23_Node000019_Node000021"><a xlink:title=" ">
<path fill="none" stroke="#63b8ff" d="M243.18,-446.74C256.51,-444.55 270.85,-442.19 284.68,-439.92"/>
<polygon fill="#63b8ff" stroke="#63b8ff" points="284.84,-443.44 294.14,-438.36 283.71,-436.53 284.84,-443.44"/>
</a>
</g>
</g>
<!-- Node22 -->
<g id="Node000022" class="node">
<title>Node22</title>
<g id="a_Node000022"><a xlink:href="a00445.xhtml#a7d946177a6591600dc03a423feb38cb3" target="_top" xlink:title=" ">
<polygon fill="white" stroke="#666666" points="409.12,-400.84 304.62,-400.84 304.62,-381.59 409.12,-381.59 409.12,-400.84"/>
<text text-anchor="middle" x="356.88" y="-387.34" font-family="Helvetica,sans-Serif" font-size="10.00">CAudioFileIf::isOpen</text>
</a>
</g>
</g>
<!-- Node19&#45;&gt;Node22 -->
<g id="edge24_Node000019_Node000022" class="edge">
<title>Node19&#45;&gt;Node22</title>
<g id="a_edge24_Node000019_Node000022"><a xlink:title=" ">
<path fill="none" stroke="#63b8ff" d="M228.22,-446.17C234.76,-443.95 241.31,-441.32 247.25,-438.22 265.47,-428.71 264.84,-418.35 283.25,-409.22 286.57,-407.57 290.04,-406.07 293.61,-404.7"/>
<polygon fill="#63b8ff" stroke="#63b8ff" points="294.72,-408.02 303.04,-401.46 292.45,-401.4 294.72,-408.02"/>
</a>
</g>
</g>
<!-- Node24 -->
<g id="Node000024" class="node">
<title>Node24</title>
<g id="a_Node000024"><a xlink:href="a00501.xhtml#a9edb25bb88d789958e1740578b65cbbb" target="_top" xlink:title=" ">
<polygon fill="white" stroke="#666666" points="577,-420.84 501,-420.84 501,-401.59 577,-401.59 577,-420.84"/>
<text text-anchor="middle" x="539" y="-407.34" font-family="Helvetica,sans-Serif" font-size="10.00">CUtil::float2int</text>
</a>
</g>
</g>
<!-- Node23&#45;&gt;Node24 -->
<g id="edge26_Node000023_Node000024" class="edge">
<title>Node23&#45;&gt;Node24</title>
<g id="a_edge26_Node000023_Node000024"><a xlink:title=" ">
<path fill="none" stroke="#63b8ff" d="M416.03,-327.19C421.17,-329.36 426.09,-332.01 430.5,-335.22 455.03,-353.07 442,-375.32 466.5,-393.22 473.4,-398.26 481.56,-401.89 489.86,-404.51"/>
<polygon fill="#63b8ff" stroke="#63b8ff" points="488.72,-407.83 499.29,-407.02 490.52,-401.07 488.72,-407.83"/>
</a>
</g>
</g>
<!-- Node25&#45;&gt;Node3 -->
<g id="edge28_Node000025_Node000003" class="edge">
<title>Node25&#45;&gt;Node3</title>
<g id="a_edge28_Node000025_Node000003"><a xlink:title=" ">
<path fill="none" stroke="#63b8ff" d="M230.19,-505.23C311.61,-506.91 487.18,-501.15 611.5,-430.22 646.41,-410.3 679.06,-376.24 697.48,-355.05"/>
<polygon fill="#63b8ff" stroke="#63b8ff" points="700.11,-357.36 703.92,-347.47 694.78,-352.83 700.11,-357.36"/>
</a>
</g>
</g>
<!-- Node26 -->
<g id="Node000026" class="node">
<title>Node26</title>
<g id="a_Node000026"><a xlink:href="a00545.xhtml#a84f0c2bf28007ef7749ab0e90c8011d2" target="_top" xlink:title=" ">
<polygon fill="white" stroke="#666666" points="411.75,-550.84 302,-550.84 302,-531.59 411.75,-531.59 411.75,-550.84"/>
<text text-anchor="middle" x="356.88" y="-537.34" font-family="Helvetica,sans-Serif" font-size="10.00">CBlockAudioIf::create</text>
</a>
</g>
</g>
<!-- Node25&#45;&gt;Node26 -->
<g id="edge29_Node000025_Node000026" class="edge">
<title>Node25&#45;&gt;Node26</title>
<g id="a_edge29_Node000025_Node000026"><a xlink:title=" ">
<path fill="none" stroke="#63b8ff" d="M230.26,-513.2C251.43,-517.92 276.94,-523.61 299.42,-528.63"/>
<polygon fill="#63b8ff" stroke="#63b8ff" points="298.52,-532.01 309.04,-530.77 300.05,-525.18 298.52,-532.01"/>
</a>
</g>
</g>
<!-- Node27 -->
<g id="Node000027" class="node">
<title>Node27</title>
<g id="a_Node000027"><a xlink:href="a00545.xhtml#a25b4acfbc219a671933702aaf97229fd" target="_top" xlink:title=" ">
<polygon fill="white" stroke="#666666" points="611.5,-550.84 466.5,-550.84 466.5,-531.59 611.5,-531.59 611.5,-550.84"/>
<text text-anchor="middle" x="539" y="-537.34" font-family="Helvetica,sans-Serif" font-size="10.00">CBlockAudioIf::CBlockAudioIf</text>
</a>
</g>
</g>
<!-- Node26&#45;&gt;Node27 -->
<g id="edge30_Node000026_Node000027" class="edge">
<title>Node26&#45;&gt;Node27</title>
<g id="a_edge30_Node000026_Node000027"><a xlink:title=" ">
<path fill="none" stroke="#63b8ff" d="M411.92,-541.22C425.54,-541.22 440.49,-541.22 455.17,-541.22"/>
<polygon fill="#63b8ff" stroke="#63b8ff" points="454.81,-544.72 464.81,-541.22 454.81,-537.72 454.81,-544.72"/>
</a>
</g>
</g>
<!-- Node30&#45;&gt;Node3 -->
<g id="edge34_Node000030_Node000003" class="edge">
<title>Node30&#45;&gt;Node3</title>
<g id="a_edge34_Node000030_Node000003"><a xlink:title=" ">
<path fill="none" stroke="#63b8ff" d="M237.36,-281.43C287.45,-280.87 365.12,-283.05 430.5,-298.22 447.38,-302.13 449.68,-309.03 466.5,-313.22 533.69,-329.94 613.92,-334.72 664.18,-335.97"/>
<polygon fill="#63b8ff" stroke="#63b8ff" points="664.08,-339.47 674.15,-336.18 664.23,-332.47 664.08,-339.47"/>
</a>
</g>
</g>
<!-- Node30&#45;&gt;Node17 -->
<g id="edge46_Node000030_Node000017" class="edge">
<title>Node30&#45;&gt;Node17</title>
<g id="a_edge46_Node000030_Node000017"><a xlink:title=" ">
<path fill="none" stroke="#63b8ff" d="M235.08,-273.11C239.48,-270.97 243.63,-268.37 247.25,-265.22 276.67,-239.63 253.87,-210.85 283.25,-185.22 392.84,-89.63 579.66,-94.65 666.31,-103.15"/>
<polygon fill="#63b8ff" stroke="#63b8ff" points="665.79,-106.62 676.1,-104.18 666.52,-99.66 665.79,-106.62"/>
</a>
</g>
</g>
<!-- Node30&#45;&gt;Node23 -->
<g id="edge47_Node000030_Node000023" class="edge">
<title>Node30&#45;&gt;Node23</title>
<g id="a_edge47_Node000030_Node000023"><a xlink:title=" ">
<path fill="none" stroke="#63b8ff" d="M236.16,-293.33C254.36,-296.96 275.09,-301.09 294.13,-304.89"/>
<polygon fill="#63b8ff" stroke="#63b8ff" points="293.44,-308.33 303.93,-306.85 294.81,-301.46 293.44,-308.33"/>
</a>
</g>
</g>
<!-- Node31 -->
<g id="Node000031" class="node">
<title>Node31</title>
<g id="a_Node000031"><a xlink:href="a00485.xhtml#a3878460603a6e6e1a64de6021b2bb73e" target="_top" xlink:title=" ">
<polygon fill="white" stroke="#666666" points="412.12,-213.84 301.62,-213.84 301.62,-194.59 412.12,-194.59 412.12,-213.84"/>
<text text-anchor="middle" x="356.88" y="-200.34" font-family="Helvetica,sans-Serif" font-size="10.00">CButterLp::calcCoeffs</text>
</a>
</g>
</g>
<!-- Node30&#45;&gt;Node31 -->
<g id="edge35_Node000030_Node000031" class="edge">
<title>Node30&#45;&gt;Node31</title>
<g id="a_edge35_Node000030_Node000031"><a xlink:title=" ">
<path fill="none" stroke="#63b8ff" d="M231.38,-273.19C236.95,-271.02 242.39,-268.39 247.25,-265.22 268.12,-251.58 262.11,-235.42 283.25,-222.22 285.66,-220.71 288.19,-219.33 290.8,-218.07"/>
<polygon fill="#63b8ff" stroke="#63b8ff" points="291.9,-221.4 299.78,-214.32 289.21,-214.94 291.9,-221.4"/>
</a>
</g>
</g>
<!-- Node36 -->
<g id="Node000036" class="node">
<title>Node36</title>
<g id="a_Node000036"><a xlink:href="a00613.xhtml#a02a81c6177894649b0524b684118839e" target="_top" xlink:title=" ">
<polygon fill="white" stroke="#666666" points="409.5,-250.84 304.25,-250.84 304.25,-231.59 409.5,-231.59 409.5,-250.84"/>
<text text-anchor="middle" x="356.88" y="-237.34" font-family="Helvetica,sans-Serif" font-size="10.00">CResample::interp1d</text>
</a>
</g>
</g>
<!-- Node30&#45;&gt;Node36 -->
<g id="edge48_Node000030_Node000036" class="edge">
<title>Node30&#45;&gt;Node36</title>
<g id="a_edge48_Node000030_Node000036"><a xlink:title=" ">
<path fill="none" stroke="#63b8ff" d="M226.31,-273.16C249.53,-267.43 278.85,-260.2 303.73,-254.07"/>
<polygon fill="#63b8ff" stroke="#63b8ff" points="304.47,-257.49 313.34,-251.7 302.79,-250.7 304.47,-257.49"/>
</a>
</g>
</g>
<!-- Node31&#45;&gt;Node3 -->
<g id="edge36_Node000031_Node000003" class="edge">
<title>Node31&#45;&gt;Node3</title>
<g id="a_edge36_Node000031_Node000003"><a xlink:title=" ">
<path fill="none" stroke="#63b8ff" d="M412.29,-212.76C418.77,-215.17 425.02,-218.26 430.5,-222.22 454.8,-239.75 442.07,-261.87 466.5,-279.22 497.94,-301.54 602.2,-320.05 664.61,-329.48"/>
<polygon fill="#63b8ff" stroke="#63b8ff" points="663.84,-332.91 674.25,-330.91 664.87,-325.98 663.84,-332.91"/>
</a>
</g>
</g>
<!-- Node31&#45;&gt;Node4 -->
<g id="edge45_Node000031_Node000004" class="edge">
<title>Node31&#45;&gt;Node4</title>
<g id="a_edge45_Node000031_Node000004"><a xlink:title=" ">
<path fill="none" stroke="#63b8ff" d="M411.49,-194.09C493.3,-180.87 653.21,-163.84 780.5,-204.22 804.2,-211.73 826.92,-229.16 841.94,-242.59"/>
<polygon fill="#63b8ff" stroke="#63b8ff" points="839.42,-245.03 849.12,-249.29 844.19,-239.91 839.42,-245.03"/>
</a>
</g>
</g>
<!-- Node31&#45;&gt;Node14 -->
<g id="edge43_Node000031_Node000014" class="edge">
<title>Node31&#45;&gt;Node14</title>
<g id="a_edge43_Node000031_Node000014"><a xlink:title=" ">
<path fill="none" stroke="#63b8ff" d="M412.29,-211.55C418.92,-214.14 425.21,-217.61 430.5,-222.22 462.98,-250.51 441.52,-277.12 466.5,-312.22 479.24,-330.12 498.17,-346.23 513.36,-357.54"/>
<polygon fill="#63b8ff" stroke="#63b8ff" points="511.3,-360.38 521.47,-363.37 515.39,-354.69 511.3,-360.38"/>
</a>
</g>
</g>
<!-- Node31&#45;&gt;Node17 -->
<g id="edge44_Node000031_Node000017" class="edge">
<title>Node31&#45;&gt;Node17</title>
<g id="a_edge44_Node000031_Node000017"><a xlink:title=" ">
<path fill="none" stroke="#63b8ff" d="M389.6,-194.13C411.2,-187.38 440.48,-178.44 466.5,-171.22 535.93,-151.95 617.07,-132.04 666.74,-120.14"/>
<polygon fill="#63b8ff" stroke="#63b8ff" points="667.37,-123.59 676.28,-117.86 665.74,-116.78 667.37,-123.59"/>
</a>
</g>
</g>
<!-- Node32 -->
<g id="Node000032" class="node">
<title>Node32</title>
<g id="a_Node000032"><a xlink:href="a00485.xhtml#a4a70bdde7f075d2591fd03c52c16145c" target="_top" xlink:title=" ">
<polygon fill="white" stroke="#666666" points="583.75,-269.84 494.25,-269.84 494.25,-250.59 583.75,-250.59 583.75,-269.84"/>
<text text-anchor="middle" x="539" y="-256.34" font-family="Helvetica,sans-Serif" font-size="10.00">CButterLp::calcA</text>
</a>
</g>
</g>
<!-- Node31&#45;&gt;Node32 -->
<g id="edge37_Node000031_Node000032" class="edge">
<title>Node31&#45;&gt;Node32</title>
<g id="a_edge37_Node000031_Node000032"><a xlink:title=" ">
<path fill="none" stroke="#63b8ff" d="M406.1,-214.27C414.36,-216.52 422.76,-219.17 430.5,-222.22 447.53,-228.92 449.48,-235.48 466.5,-242.22 471.79,-244.31 477.41,-246.22 483.07,-247.95"/>
<polygon fill="#63b8ff" stroke="#63b8ff" points="481.91,-251.26 492.49,-250.63 483.83,-244.53 481.91,-251.26"/>
</a>
</g>
</g>
<!-- Node34 -->
<g id="Node000034" class="node">
<title>Node34</title>
<g id="a_Node000034"><a xlink:href="a00485.xhtml#a9c08c0b6f891bb37fb4230088f94b0a0" target="_top" xlink:title=" ">
<polygon fill="white" stroke="#666666" points="583.75,-232.84 494.25,-232.84 494.25,-213.59 583.75,-213.59 583.75,-232.84"/>
<text text-anchor="middle" x="539" y="-219.34" font-family="Helvetica,sans-Serif" font-size="10.00">CButterLp::calcB</text>
</a>
</g>
</g>
<!-- Node31&#45;&gt;Node34 -->
<g id="edge41_Node000031_Node000034" class="edge">
<title>Node31&#45;&gt;Node34</title>
<g id="a_edge41_Node000031_Node000034"><a xlink:title=" ">
<path fill="none" stroke="#63b8ff" d="M412.41,-209.97C434.63,-212.31 460.28,-215.02 482.59,-217.37"/>
<polygon fill="#63b8ff" stroke="#63b8ff" points="482.1,-220.84 492.41,-218.41 482.84,-213.88 482.1,-220.84"/>
</a>
</g>
</g>
<!-- Node32&#45;&gt;Node3 -->
<g id="edge38_Node000032_Node000003" class="edge">
<title>Node32&#45;&gt;Node3</title>
<g id="a_edge38_Node000032_Node000003"><a xlink:title=" ">
<path fill="none" stroke="#63b8ff" d="M573.49,-270.31C585.61,-274.26 599.31,-279.08 611.5,-284.22 637.18,-295.03 665.29,-309.67 685.41,-320.66"/>
<polygon fill="#63b8ff" stroke="#63b8ff" points="683.65,-323.68 694.09,-325.45 687.03,-317.56 683.65,-323.68"/>
</a>
</g>
</g>
<!-- Node32&#45;&gt;Node17 -->
<g id="edge39_Node000032_Node000017" class="edge">
<title>Node32&#45;&gt;Node17</title>
<g id="a_edge39_Node000032_Node000017"><a xlink:title=" ">
<path fill="none" stroke="#63b8ff" d="M583.92,-254.08C593.52,-251.43 603.27,-247.64 611.5,-242.22 634.37,-227.14 678.63,-162.1 700.35,-128.89"/>
<polygon fill="#63b8ff" stroke="#63b8ff" points="703.22,-130.89 705.73,-120.6 697.35,-127.08 703.22,-130.89"/>
</a>
</g>
</g>
<!-- Node33 -->
<g id="Node000033" class="node">
<title>Node33</title>
<g id="a_Node000033"><a xlink:href="a00485.xhtml#ab4432f6b6d2f1bad850a13a0573615c4" target="_top" xlink:title=" ">
<polygon fill="white" stroke="#666666" points="774.5,-269.84 653.5,-269.84 653.5,-250.59 774.5,-250.59 774.5,-269.84"/>
<text text-anchor="middle" x="714" y="-256.34" font-family="Helvetica,sans-Serif" font-size="10.00">CButterLp::multBinomial</text>
</a>
</g>
</g>
<!-- Node32&#45;&gt;Node33 -->
<g id="edge40_Node000032_Node000033" class="edge">
<title>Node32&#45;&gt;Node33</title>
<g id="a_edge40_Node000032_Node000033"><a xlink:title=" ">
<path fill="none" stroke="#63b8ff" d="M584.1,-260.22C601.68,-260.22 622.35,-260.22 641.94,-260.22"/>
<polygon fill="#63b8ff" stroke="#63b8ff" points="641.8,-263.72 651.8,-260.22 641.8,-256.72 641.8,-263.72"/>
</a>
</g>
</g>
<!-- Node35 -->
<g id="Node000035" class="node">
<title>Node35</title>
<g id="a_Node000035"><a xlink:href="a00485.xhtml#a93b25bb8ef71fc7221ae53efe9212d67" target="_top" xlink:title=" ">
<polygon fill="white" stroke="#666666" points="767.75,-232.84 660.25,-232.84 660.25,-213.59 767.75,-213.59 767.75,-232.84"/>
<text text-anchor="middle" x="714" y="-219.34" font-family="Helvetica,sans-Serif" font-size="10.00">CButterLp::calcScale</text>
</a>
</g>
</g>
<!-- Node34&#45;&gt;Node35 -->
<g id="edge42_Node000034_Node000035" class="edge">
<title>Node34&#45;&gt;Node35</title>
<g id="a_edge42_Node000034_Node000035"><a xlink:title=" ">
<path fill="none" stroke="#63b8ff" d="M584.1,-223.22C603.7,-223.22 627.17,-223.22 648.67,-223.22"/>
<polygon fill="#63b8ff" stroke="#63b8ff" points="648.52,-226.72 658.52,-223.22 648.52,-219.72 648.52,-226.72"/>
</a>
</g>
</g>
<!-- Node37&#45;&gt;Node21 -->
<g id="edge50_Node000037_Node000021" class="edge">
<title>Node37&#45;&gt;Node21</title>
<g id="a_edge50_Node000037_Node000021"><a xlink:title=" ">
<path fill="none" stroke="#63b8ff" d="M220.17,-392.29C243.2,-398.95 271.31,-407.03 283.25,-410.22 289.6,-411.91 296.28,-413.64 302.91,-415.32"/>
<polygon fill="#63b8ff" stroke="#63b8ff" points="301.93,-418.69 312.48,-417.73 303.63,-411.9 301.93,-418.69"/>
</a>
</g>
</g>
<!-- Node37&#45;&gt;Node22 -->
<g id="edge51_Node000037_Node000022" class="edge">
<title>Node37&#45;&gt;Node22</title>
<g id="a_edge51_Node000037_Node000022"><a xlink:title=" ">
<path fill="none" stroke="#63b8ff" d="M241.29,-385.16C257.77,-386.03 275.92,-386.99 292.82,-387.89"/>
<polygon fill="#63b8ff" stroke="#63b8ff" points="292.61,-391.38 302.78,-388.41 292.98,-384.39 292.61,-391.38"/>
</a>
</g>
</g>
<!-- Node38 -->
<g id="Node000038" class="node">
<title>Node38</title>
<g id="a_Node000038"><a xlink:href="a00445.xhtml#aa8d6db73dae5cc9bf7c0beb15b36bea4" target="_top" xlink:title=" ">
<polygon fill="white" stroke="#666666" points="428.25,-363.84 285.5,-363.84 285.5,-344.59 428.25,-344.59 428.25,-363.84"/>
<text text-anchor="middle" x="356.88" y="-350.34" font-family="Helvetica,sans-Serif" font-size="10.00">CAudioFileIf::readDataIntern_</text>
</a>
</g>
</g>
<!-- Node37&#45;&gt;Node38 -->
<g id="edge52_Node000037_Node000038" class="edge">
<title>Node37&#45;&gt;Node38</title>
<g id="a_edge52_Node000037_Node000038"><a xlink:title=" ">
<path fill="none" stroke="#63b8ff" d="M241.29,-373.05C254.69,-370.85 269.2,-368.46 283.24,-366.15"/>
<polygon fill="#63b8ff" stroke="#63b8ff" points="283.58,-369.65 292.88,-364.57 282.44,-362.74 283.58,-369.65"/>
</a>
</g>
</g>
</g>
</svg>
