<?xml version="1.0" encoding="UTF-8" standalone="no"?>
<!DOCTYPE svg PUBLIC "-//W3C//DTD SVG 1.1//EN"
 "http://www.w3.org/Graphics/SVG/1.1/DTD/svg11.dtd">
<!-- Generated by graphviz version 12.2.1 (20241206.2353)
 -->
<!-- Title: CNoveltyIf::CNoveltyIf Pages: 1 -->
<!--zoomable 150 -->

<svg id="main" version="1.1" xmlns="http://www.w3.org/2000/svg" xmlns:xlink="http://www.w3.org/1999/xlink" xml:space="preserve" onload="init(evt)">

<style type="text/css"><![CDATA[
.node, .edge {opacity: 0.7;}
.node.selected, .edge.selected {opacity: 1;}
.edge:hover path { stroke: red; }
.edge:hover polygon { stroke: red; fill: red; }
]]></style>

<defs>
  <circle id="rim" cx="0" cy="0" r="7"/>
  <circle id="rim2" cx="0" cy="0" r="3.5"/>
  <g id="zoomPlus">
    <use xlink:href="#rim" fill="#404040"><set attributeName="fill" to="#808080" begin="zoomplus.mouseover" end="zoomplus.mouseout"/></use>
    <path d="M-4,0h8M0,-4v8" fill="none" stroke="white" stroke-width="1.5" pointer-events="none"/>
  </g>
  <g id="zoomMin">
    <use xlink:href="#rim" fill="#404040"><set attributeName="fill" to="#808080" begin="zoomminus.mouseover" end="zoomminus.mouseout"/></use>
    <path d="M-4,0h8" fill="none" stroke="white" stroke-width="1.5" pointer-events="none"/>
  </g>
  <g id="arrowUp" transform="translate(30 24)">
    <use xlink:href="#rim"/>
    <path pointer-events="none" fill="none" stroke="white" stroke-width="1.5" d="M0,-3.0v7 M-2.5,-0.5L0,-3.0L2.5,-0.5"/>
  </g>
  <g id="arrowRight" transform="rotate(90) translate(36 -43)">
    <use xlink:href="#rim"/>
    <path pointer-events="none" fill="none" stroke="white" stroke-width="1.5" d="M0,-3.0v7 M-2.5,-0.5L0,-3.0L2.5,-0.5"/>
  </g>
  <g id="arrowDown" transform="rotate(180) translate(-30 -48)">
    <use xlink:href="#rim"/>
    <path pointer-events="none" fill="none" stroke="white" stroke-width="1.5" d="M0,-3.0v7 M-2.5,-0.5L0,-3.0L2.5,-0.5"/>
  </g>
  <g id="arrowLeft" transform="rotate(270) translate(-36 17)">
    <use xlink:href="#rim"/>
    <path pointer-events="none" fill="none" stroke="white" stroke-width="1.5" d="M0,-3.0v7 M-2.5,-0.5L0,-3.0L2.5,-0.5"/>
  </g>
  <g id="resetDef">
    <use xlink:href="#rim2" fill="#404040"><set attributeName="fill" to="#808080" begin="reset.mouseover" end="reset.mouseout"/></use>
  </g>
</defs>
<script type="application/ecmascript">
var viewWidth = 917;
var viewHeight = 150;
var sectionId = 'dynsection-5';
</script>
<script type="application/ecmascript" xlink:href="svg.min.js"/>
<svg id="graph" class="graph">
<g id="viewport">
<title>CNoveltyIf::CNoveltyIf</title>
<!-- Node1 -->
<g id="Node000001" class="node">
<title>Node1</title>
<g id="a_Node000001"><a xlink:title=" ">
<polygon fill="#999999" stroke="#666666" points="112,-83.25 0,-83.25 0,-64 112,-64 112,-83.25"/>
<text text-anchor="middle" x="56" y="-69.75" font-family="Helvetica,sans-Serif" font-size="10.00">CNoveltyIf::CNoveltyIf</text>
</a>
</g>
</g>
<!-- Node2 -->
<g id="Node000002" class="node">
<title>Node2</title>
<g id="a_Node000002"><a xlink:href="a00517.xhtml#a120b69bf1f92d3f00ef515518a9dc604" target="_top" xlink:title=" ">
<polygon fill="white" stroke="#666666" points="260,-83.25 148,-83.25 148,-64 260,-64 260,-83.25"/>
<text text-anchor="middle" x="204" y="-69.75" font-family="Helvetica,sans-Serif" font-size="10.00">CNoveltyIf::CNoveltyIf</text>
</a>
</g>
</g>
<!-- Node1&#45;&gt;Node2 -->
<g id="edge1_Node000001_Node000002" class="edge">
<title>Node1&#45;&gt;Node2</title>
<g id="a_edge1_Node000001_Node000002"><a xlink:title=" ">
<path fill="none" stroke="#63b8ff" d="M112.2,-73.62C120.1,-73.62 128.3,-73.62 136.39,-73.62"/>
<polygon fill="#63b8ff" stroke="#63b8ff" points="136.21,-77.13 146.21,-73.63 136.21,-70.13 136.21,-77.13"/>
</a>
</g>
</g>
<!-- Node3 -->
<g id="Node000003" class="node">
<title>Node3</title>
<g id="a_Node000003"><a xlink:href="a00517.xhtml#a119fc32e085bb978525ea9596ee2e9c1" target="_top" xlink:title="reset configuration">
<polygon fill="white" stroke="#666666" points="389.25,-83.25 296,-83.25 296,-64 389.25,-64 389.25,-83.25"/>
<text text-anchor="middle" x="342.62" y="-69.75" font-family="Helvetica,sans-Serif" font-size="10.00">CNoveltyIf::reset_</text>
</a>
</g>
</g>
<!-- Node2&#45;&gt;Node3 -->
<g id="edge2_Node000002_Node000003" class="edge">
<title>Node2&#45;&gt;Node3</title>
<g id="a_edge2_Node000002_Node000003"><a xlink:title=" ">
<path fill="none" stroke="#63b8ff" d="M260.18,-73.62C268.23,-73.62 276.54,-73.62 284.63,-73.62"/>
<polygon fill="#63b8ff" stroke="#63b8ff" points="284.36,-77.13 294.36,-73.63 284.36,-70.13 284.36,-77.13"/>
</a>
</g>
</g>
<!-- Node4 -->
<g id="Node000004" class="node">
<title>Node4</title>
<g id="a_Node000004"><a xlink:href="a00545.xhtml#a13d2bd6e36210dde0c64d188c1266b88" target="_top" xlink:title=" ">
<polygon fill="white" stroke="#666666" points="545.5,-142.25 431.25,-142.25 431.25,-123 545.5,-123 545.5,-142.25"/>
<text text-anchor="middle" x="488.38" y="-128.75" font-family="Helvetica,sans-Serif" font-size="10.00">CBlockAudioIf::destroy</text>
</a>
</g>
</g>
<!-- Node3&#45;&gt;Node4 -->
<g id="edge3_Node000003_Node000004" class="edge">
<title>Node3&#45;&gt;Node4</title>
<g id="a_edge3_Node000003_Node000004"><a xlink:title=" ">
<path fill="none" stroke="#63b8ff" d="M361.35,-83.72C377.59,-92.68 402.51,-105.71 425.25,-114.62 429.31,-116.22 433.57,-117.74 437.87,-119.18"/>
<polygon fill="#63b8ff" stroke="#63b8ff" points="436.53,-122.43 447.12,-122.11 438.65,-115.75 436.53,-122.43"/>
</a>
</g>
</g>
<!-- Node6 -->
<g id="Node000006" class="node">
<title>Node6</title>
<g id="a_Node000006"><a xlink:href="a00589.xhtml#a5a6b1921f58c43d9daa618a97e62754f" target="_top" xlink:title=" ">
<polygon fill="white" stroke="#666666" points="551.5,-105.25 425.25,-105.25 425.25,-86 551.5,-86 551.5,-105.25"/>
<text text-anchor="middle" x="488.38" y="-91.75" font-family="Helvetica,sans-Serif" font-size="10.00">CMovingAverage::destroy</text>
</a>
</g>
</g>
<!-- Node3&#45;&gt;Node6 -->
<g id="edge5_Node000003_Node000006" class="edge">
<title>Node3&#45;&gt;Node6</title>
<g id="a_edge5_Node000003_Node000006"><a xlink:title=" ">
<path fill="none" stroke="#63b8ff" d="M389.5,-80.65C397.24,-81.83 405.45,-83.09 413.68,-84.35"/>
<polygon fill="#63b8ff" stroke="#63b8ff" points="412.98,-87.78 423.4,-85.83 414.04,-80.86 412.98,-87.78"/>
</a>
</g>
</g>
<!-- Node9 -->
<g id="Node000009" class="node">
<title>Node9</title>
<g id="a_Node000009"><a xlink:href="a00521.xhtml#a2066599bb659fd90d13bc8a57dec005e" target="_top" xlink:title=" ">
<polygon fill="white" stroke="#666666" points="542.88,-67.88 433.88,-67.88 433.88,-37.38 542.88,-37.38 542.88,-67.88"/>
<text text-anchor="start" x="441.88" y="-54.38" font-family="Helvetica,sans-Serif" font-size="10.00">CNoveltyFromBlockIf</text>
<text text-anchor="middle" x="488.38" y="-43.12" font-family="Helvetica,sans-Serif" font-size="10.00">::destroy</text>
</a>
</g>
</g>
<!-- Node3&#45;&gt;Node9 -->
<g id="edge8_Node000003_Node000009" class="edge">
<title>Node3&#45;&gt;Node9</title>
<g id="a_edge8_Node000003_Node000009"><a xlink:title=" ">
<path fill="none" stroke="#63b8ff" d="M389.5,-66.92C399.87,-65.41 411.07,-63.77 422.07,-62.17"/>
<polygon fill="#63b8ff" stroke="#63b8ff" points="422.52,-65.64 431.91,-60.73 421.51,-58.71 422.52,-65.64"/>
</a>
</g>
</g>
<!-- Node11 -->
<g id="Node000011" class="node">
<title>Node11</title>
<g id="a_Node000011"><a xlink:href="a00505.xhtml#aa86bdb0c663d4d52f2765793756f8737" target="_top" xlink:title=" ">
<polygon fill="white" stroke="#666666" points="524.5,-19.25 452.25,-19.25 452.25,0 524.5,0 524.5,-19.25"/>
<text text-anchor="middle" x="488.38" y="-5.75" font-family="Helvetica,sans-Serif" font-size="10.00">CVector::free</text>
</a>
</g>
</g>
<!-- Node3&#45;&gt;Node11 -->
<g id="edge10_Node000003_Node000011" class="edge">
<title>Node3&#45;&gt;Node11</title>
<g id="a_edge10_Node000003_Node000011"><a xlink:title=" ">
<path fill="none" stroke="#63b8ff" d="M359.39,-63.64C375.48,-53.77 401.41,-38.72 425.25,-28.62 430.25,-26.51 435.56,-24.52 440.89,-22.68"/>
<polygon fill="#63b8ff" stroke="#63b8ff" points="441.91,-26.03 450.33,-19.6 439.74,-19.38 441.91,-26.03"/>
</a>
</g>
</g>
<!-- Node5 -->
<g id="Node000005" class="node">
<title>Node5</title>
<g id="a_Node000005"><a xlink:href="a00545.xhtml#a25b4acfbc219a671933702aaf97229fd" target="_top" xlink:title=" ">
<polygon fill="white" stroke="#666666" points="744.5,-142.25 599.5,-142.25 599.5,-123 744.5,-123 744.5,-142.25"/>
<text text-anchor="middle" x="672" y="-128.75" font-family="Helvetica,sans-Serif" font-size="10.00">CBlockAudioIf::CBlockAudioIf</text>
</a>
</g>
</g>
<!-- Node4&#45;&gt;Node5 -->
<g id="edge4_Node000004_Node000005" class="edge">
<title>Node4&#45;&gt;Node5</title>
<g id="a_edge4_Node000004_Node000005"><a xlink:title=" ">
<path fill="none" stroke="#63b8ff" d="M545.85,-132.62C559.16,-132.62 573.62,-132.62 587.84,-132.62"/>
<polygon fill="#63b8ff" stroke="#63b8ff" points="587.64,-136.13 597.64,-132.63 587.64,-129.13 587.64,-136.13"/>
</a>
</g>
</g>
<!-- Node7 -->
<g id="Node000007" class="node">
<title>Node7</title>
<g id="a_Node000007"><a xlink:href="a00589.xhtml#aa02ee977828ff103f3e2c25889131122" target="_top" xlink:title=" ">
<polygon fill="white" stroke="#666666" points="756.5,-105.25 587.5,-105.25 587.5,-86 756.5,-86 756.5,-105.25"/>
<text text-anchor="middle" x="672" y="-91.75" font-family="Helvetica,sans-Serif" font-size="10.00">CMovingAverage::CMovingAverage</text>
</a>
</g>
</g>
<!-- Node6&#45;&gt;Node7 -->
<g id="edge6_Node000006_Node000007" class="edge">
<title>Node6&#45;&gt;Node7</title>
<g id="a_edge6_Node000006_Node000007"><a xlink:title=" ">
<path fill="none" stroke="#63b8ff" d="M551.88,-95.62C559.62,-95.62 567.67,-95.62 575.76,-95.62"/>
<polygon fill="#63b8ff" stroke="#63b8ff" points="575.7,-99.13 585.7,-95.63 575.7,-92.13 575.7,-99.13"/>
</a>
</g>
</g>
<!-- Node8 -->
<g id="Node000008" class="node">
<title>Node8</title>
<g id="a_Node000008"><a xlink:href="a00589.xhtml#a9681799055b5a4622d25a70901a65af3" target="_top" xlink:title=" ">
<polygon fill="white" stroke="#666666" points="909,-105.25 792.5,-105.25 792.5,-86 909,-86 909,-105.25"/>
<text text-anchor="middle" x="850.75" y="-91.75" font-family="Helvetica,sans-Serif" font-size="10.00">CMovingAverage::reset</text>
</a>
</g>
</g>
<!-- Node7&#45;&gt;Node8 -->
<g id="edge7_Node000007_Node000008" class="edge">
<title>Node7&#45;&gt;Node8</title>
<g id="a_edge7_Node000007_Node000008"><a xlink:title=" ">
<path fill="none" stroke="#63b8ff" d="M756.98,-95.62C764.99,-95.62 773.06,-95.62 780.91,-95.62"/>
<polygon fill="#63b8ff" stroke="#63b8ff" points="780.72,-99.13 790.72,-95.63 780.72,-92.13 780.72,-99.13"/>
</a>
</g>
</g>
<!-- Node10 -->
<g id="Node000010" class="node">
<title>Node10</title>
<g id="a_Node000010"><a xlink:href="a00521.xhtml#a55adbc3ecfeffbeb621875bb56f3bf7f" target="_top" xlink:title=" ">
<polygon fill="white" stroke="#666666" points="728.75,-67.88 615.25,-67.88 615.25,-37.38 728.75,-37.38 728.75,-67.88"/>
<text text-anchor="start" x="623.25" y="-54.38" font-family="Helvetica,sans-Serif" font-size="10.00">CNoveltyFromBlockIf</text>
<text text-anchor="middle" x="672" y="-43.12" font-family="Helvetica,sans-Serif" font-size="10.00">::CNoveltyFromBlockIf</text>
</a>
</g>
</g>
<!-- Node9&#45;&gt;Node10 -->
<g id="edge9_Node000009_Node000010" class="edge">
<title>Node9&#45;&gt;Node10</title>
<g id="a_edge9_Node000009_Node000010"><a xlink:title=" ">
<path fill="none" stroke="#63b8ff" d="M542.89,-52.62C561.96,-52.62 583.68,-52.62 603.76,-52.62"/>
<polygon fill="#63b8ff" stroke="#63b8ff" points="603.52,-56.13 613.52,-52.63 603.52,-49.13 603.52,-56.13"/>
</a>
</g>
</g>
</g>
</svg>

<g id="navigator" transform="translate(0 0)" fill="#404254">
  <rect fill="#f2f5e9" fill-opacity="0.5" stroke="#606060" stroke-width=".5" x="0" y="0" width="60" height="60"/>
  <use id="zoomplus" xlink:href="#zoomPlus" x="17" y="9" onmousedown="handleZoom(evt,'in')"/>
  <use id="zoomminus" xlink:href="#zoomMin" x="42" y="9" onmousedown="handleZoom(evt,'out')"/>
  <use id="reset" xlink:href="#resetDef" x="30" y="36" onmousedown="handleReset()"/>
   <use id="arrowup" xlink:href="#arrowUp" x="0" y="0" onmousedown="handlePan(0,-1)"/>
  <use id="arrowright" xlink:href="#arrowRight" x="0" y="0" onmousedown="handlePan(1,0)"/>
  <use id="arrowdown" xlink:href="#arrowDown" x="0" y="0" onmousedown="handlePan(0,1)"/>
  <use id="arrowleft" xlink:href="#arrowLeft" x="0" y="0" onmousedown="handlePan(-1,0)"/>
</g>
<svg viewBox="0 0 15 15" width="100%" height="30px" preserveAspectRatio="xMaxYMin meet">
 <g id="arrow_out" transform="scale(0.3 0.3)">
  <a xlink:href="a00517_ad3cac32c63a59914907f3480ee93981c_cgraph_org.svg" target="_base">
   <rect id="button" ry="5" rx="5" y="6" x="6" height="38" width="38"
        fill="#f2f5e9" fill-opacity="0.5" stroke="#606060" stroke-width="1.0"/>
   <path id="arrow"
     d="M 11.500037,31.436501 C 11.940474,20.09759 22.043105,11.32322 32.158766,21.979434 L 37.068811,17.246167 C 37.068811,17.246167 37.088388,32 37.088388,32 L 22.160133,31.978069 C 22.160133,31.978069 26.997745,27.140456 26.997745,27.140456 C 18.528582,18.264221 13.291696,25.230495 11.500037,31.436501 z"
     style="fill:#404040;"/>
  </a>
 </g>
</svg>

<style type='text/css'>
<![CDATA[
[data-mouse-over-selected='false'] { opacity: 0.7; }
[data-mouse-over-selected='true']  { opacity: 1.0; }
]]>
</style>
<script type="application/ecmascript"><![CDATA[
document.addEventListener('DOMContentLoaded', (event) => {
  highlightEdges();
  highlightAdjacentNodes();
});
]]></script>
</svg>
