<?xml version="1.0" encoding="UTF-8" standalone="no"?>
<!DOCTYPE svg PUBLIC "-//W3C//DTD SVG 1.1//EN"
 "http://www.w3.org/Graphics/SVG/1.1/DTD/svg11.dtd">
<!-- Generated by graphviz version 4.0.0 (20220602.1335)
 -->
<!-- Title: CVector::getMax Pages: 1 -->
<!--zoomable 525 -->
<svg id="main" version="1.1" xmlns="http://www.w3.org/2000/svg" xmlns:xlink="http://www.w3.org/1999/xlink" xml:space="preserve" onload="init(evt)">
<style type="text/css"><![CDATA[
.edge:hover path { stroke: red; }
.edge:hover polygon { stroke: red; fill: red; }
]]></style>
<script type="text/javascript"><![CDATA[
var edges = document.getElementsByTagName('g');
if (edges && edges.length) {
  for (var i=0;i<edges.length;i++) {
    if (edges[i].id.substr(0,4)=='edge') {
      edges[i].setAttribute('class','edge');
    }
  }
}
]]></script>
        <defs>
                <circle id="rim" cx="0" cy="0" r="7"/>
                <circle id="rim2" cx="0" cy="0" r="3.5"/>
                <g id="zoomPlus">
                        <use xlink:href="#rim" fill="#404040">
                                <set attributeName="fill" to="#808080" begin="zoomplus.mouseover" end="zoomplus.mouseout"/>
                        </use>
                        <path d="M-4,0h8M0,-4v8" fill="none" stroke="white" stroke-width="1.5" pointer-events="none"/>
                </g>
                <g id="zoomMin">
                        <use xlink:href="#rim" fill="#404040">
                                <set attributeName="fill" to="#808080" begin="zoomminus.mouseover" end="zoomminus.mouseout"/>
                        </use>
                        <path d="M-4,0h8" fill="none" stroke="white" stroke-width="1.5" pointer-events="none"/>
                </g>
                <g id="dirArrow">
                        <path fill="none" stroke="white" stroke-width="1.5" d="M0,-3.0v7 M-2.5,-0.5L0,-3.0L2.5,-0.5"/>
                </g>
               <g id="resetDef">
                       <use xlink:href="#rim2" fill="#404040">
                               <set attributeName="fill" to="#808080" begin="reset.mouseover" end="reset.mouseout"/>
                       </use>
               </g>
        </defs>

<script type="text/javascript">
var viewWidth = 786;
var viewHeight = 525;
var sectionId = 'dynsection-18';
</script>
<script xlink:href="svgpan.js"/>
<svg id="graph" class="graph">
<g id="viewport">
<title>CVector::getMax</title>
<polygon fill="white" stroke="transparent" points="-4,4 -4,-520.5 782,-520.5 782,4 -4,4"/>
<!-- Node1 -->
<g id="node1" class="node">
<title>Node1</title>
<g id="a_node1"><a xlink:title=" ">
<polygon fill="#bfbfbf" stroke="black" points="690,-247 690,-266 778,-266 778,-247 690,-247"/>
<text text-anchor="middle" x="734" y="-254" font-family="Helvetica,sans-Serif" font-size="10.00">CVector::getMax</text>
</a>
</g>
</g>
<!-- Node2 -->
<g id="node2" class="node">
<title>Node2</title>
<g id="a_node2"><a xlink:href="a00626.xhtml#a875c603ba28294ac2575eb6e06407018" target="_top" xlink:title=" ">
<polygon fill="white" stroke="black" points="515,-497 515,-516 631,-516 631,-497 515,-497"/>
<text text-anchor="middle" x="573" y="-504" font-family="Helvetica,sans-Serif" font-size="10.00">CKnn::buildHistogram_</text>
</a>
</g>
</g>
<!-- Node1&#45;&gt;Node2 -->
<g id="edge1" class="edge">
<title>Node1&#45;&gt;Node2</title>
<path fill="none" stroke="midnightblue" d="M732.34,-276.28C729.74,-320.99 716.93,-430.36 654,-487.5 647.55,-493.35 639.64,-497.5 631.32,-500.41"/>
<polygon fill="midnightblue" stroke="midnightblue" points="735.85,-276.3 732.82,-266.15 728.85,-275.98 735.85,-276.3"/>
</g>
<!-- Node4 -->
<g id="node4" class="node">
<title>Node4</title>
<g id="a_node4"><a xlink:href="a00606.xhtml#a0f2e96a9c1a1ab0b85e1410b00f0aa8e" target="_top" xlink:title=" ">
<polygon fill="white" stroke="black" points="500,-447.5 500,-477.5 646,-477.5 646,-447.5 500,-447.5"/>
<text text-anchor="start" x="508" y="-465.5" font-family="Helvetica,sans-Serif" font-size="10.00">CNormalizeAudio::CNormalize</text>
<text text-anchor="middle" x="573" y="-454.5" font-family="Helvetica,sans-Serif" font-size="10.00">Audio</text>
</a>
</g>
</g>
<!-- Node1&#45;&gt;Node4 -->
<g id="edge3" class="edge">
<title>Node1&#45;&gt;Node4</title>
<path fill="none" stroke="midnightblue" d="M730.03,-276.1C723.37,-313.3 703.71,-394.34 654,-438.5 650.1,-441.97 645.71,-444.93 641.05,-447.47"/>
<polygon fill="midnightblue" stroke="midnightblue" points="733.52,-276.49 731.7,-266.06 726.61,-275.35 733.52,-276.49"/>
</g>
<!-- Node5 -->
<g id="node5" class="node">
<title>Node5</title>
<g id="a_node5"><a xlink:href="a00378.xhtml#a250792b516c76c54251534a33c17bea8" target="_top" xlink:title=" ">
<polygon fill="white" stroke="black" points="522.5,-398.5 522.5,-428.5 623.5,-428.5 623.5,-398.5 522.5,-398.5"/>
<text text-anchor="start" x="530.5" y="-416.5" font-family="Helvetica,sans-Serif" font-size="10.00">CPitchSpectralAcf::</text>
<text text-anchor="middle" x="573" y="-405.5" font-family="Helvetica,sans-Serif" font-size="10.00">compF0</text>
</a>
</g>
</g>
<!-- Node1&#45;&gt;Node5 -->
<g id="edge4" class="edge">
<title>Node1&#45;&gt;Node5</title>
<path fill="none" stroke="midnightblue" d="M726.63,-275.98C716.14,-305.02 692.47,-359.45 654,-389.5 645.2,-396.37 634.46,-401.28 623.74,-404.79"/>
<polygon fill="midnightblue" stroke="midnightblue" points="730.05,-276.79 730.01,-266.2 723.44,-274.51 730.05,-276.79"/>
</g>
<!-- Node6 -->
<g id="node6" class="node">
<title>Node6</title>
<g id="a_node6"><a xlink:href="a00350.xhtml#af20724e23d18c1126e2edf4186cc8005" target="_top" xlink:title=" ">
<polygon fill="white" stroke="black" points="517.5,-349.5 517.5,-379.5 628.5,-379.5 628.5,-349.5 517.5,-349.5"/>
<text text-anchor="start" x="525.5" y="-367.5" font-family="Helvetica,sans-Serif" font-size="10.00">CFeatureTimeMaxAcf</text>
<text text-anchor="middle" x="573" y="-356.5" font-family="Helvetica,sans-Serif" font-size="10.00">::compFeature</text>
</a>
</g>
</g>
<!-- Node1&#45;&gt;Node6 -->
<g id="edge5" class="edge">
<title>Node1&#45;&gt;Node6</title>
<path fill="none" stroke="midnightblue" d="M720.77,-274.25C706.76,-293.3 682.08,-323.14 654,-340.5 646.23,-345.3 637.44,-349.2 628.6,-352.34"/>
<polygon fill="midnightblue" stroke="midnightblue" points="723.63,-276.28 726.6,-266.11 717.93,-272.2 723.63,-276.28"/>
</g>
<!-- Node7 -->
<g id="node7" class="node">
<title>Node7</title>
<g id="a_node7"><a xlink:href="a00470.xhtml#a15df133306497e4f85929692354f378a" target="_top" xlink:title=" ">
<polygon fill="white" stroke="black" points="504.5,-290 504.5,-331 641.5,-331 641.5,-290 504.5,-290"/>
<text text-anchor="start" x="512.5" y="-319" font-family="Helvetica,sans-Serif" font-size="10.00">CFeatureFromBlockIf</text>
<text text-anchor="start" x="512.5" y="-308" font-family="Helvetica,sans-Serif" font-size="10.00">::compFeatureSpectralCrest</text>
<text text-anchor="middle" x="573" y="-297" font-family="Helvetica,sans-Serif" font-size="10.00">Factor</text>
</a>
</g>
</g>
<!-- Node1&#45;&gt;Node7 -->
<g id="edge6" class="edge">
<title>Node1&#45;&gt;Node7</title>
<path fill="none" stroke="midnightblue" d="M695.29,-269.31C677.11,-275.48 654.85,-283.04 634.38,-289.99"/>
<polygon fill="midnightblue" stroke="midnightblue" points="696.6,-272.56 704.94,-266.03 694.35,-265.93 696.6,-272.56"/>
</g>
<!-- Node8 -->
<g id="node8" class="node">
<title>Node8</title>
<g id="a_node8"><a xlink:href="a00470.xhtml#a8343fab849f52e77639b46e759e7e49d" target="_top" xlink:title=" ">
<polygon fill="white" stroke="black" points="492,-241.5 492,-271.5 654,-271.5 654,-241.5 492,-241.5"/>
<text text-anchor="start" x="500" y="-259.5" font-family="Helvetica,sans-Serif" font-size="10.00">CFeatureFromBlockIf</text>
<text text-anchor="middle" x="573" y="-248.5" font-family="Helvetica,sans-Serif" font-size="10.00">::compFeatureTimePeakEnvelope</text>
</a>
</g>
</g>
<!-- Node1&#45;&gt;Node8 -->
<g id="edge7" class="edge">
<title>Node1&#45;&gt;Node8</title>
<path fill="none" stroke="midnightblue" d="M679.77,-256.5C671.51,-256.5 662.83,-256.5 654.13,-256.5"/>
<polygon fill="midnightblue" stroke="midnightblue" points="679.97,-260 689.97,-256.5 679.97,-253 679.97,-260"/>
</g>
<!-- Node10 -->
<g id="node10" class="node">
<title>Node10</title>
<g id="a_node10"><a xlink:href="a00462.xhtml#a9c21f9c80f6880682d822c53232bbff9" target="_top" xlink:title=" ">
<polygon fill="white" stroke="black" points="504,-192.5 504,-222.5 642,-222.5 642,-192.5 504,-192.5"/>
<text text-anchor="start" x="512" y="-210.5" font-family="Helvetica,sans-Serif" font-size="10.00">CClassifierBase::compNorm</text>
<text text-anchor="middle" x="573" y="-199.5" font-family="Helvetica,sans-Serif" font-size="10.00">Constants</text>
</a>
</g>
</g>
<!-- Node1&#45;&gt;Node10 -->
<g id="edge9" class="edge">
<title>Node1&#45;&gt;Node10</title>
<path fill="none" stroke="midnightblue" d="M692.3,-243.96C671.11,-237.43 645.06,-229.4 622.79,-222.54"/>
<polygon fill="midnightblue" stroke="midnightblue" points="691.38,-247.34 701.97,-246.94 693.44,-240.65 691.38,-247.34"/>
</g>
<!-- Node13 -->
<g id="node13" class="node">
<title>Node13</title>
<g id="a_node13"><a xlink:href="a00514.xhtml#a9f110985f86064fa24aa3157bfd5cab0" target="_top" xlink:title=" ">
<polygon fill="white" stroke="black" points="511,-154 511,-173 635,-173 635,-154 511,-154"/>
<text text-anchor="middle" x="573" y="-161" font-family="Helvetica,sans-Serif" font-size="10.00">CNoveltyIf::compNovelty</text>
</a>
</g>
</g>
<!-- Node1&#45;&gt;Node13 -->
<g id="edge12" class="edge">
<title>Node1&#45;&gt;Node13</title>
<path fill="none" stroke="midnightblue" d="M718.65,-238.89C704.09,-222.17 680.02,-197.56 654,-183.5 645.94,-179.14 636.91,-175.72 627.9,-173.02"/>
<polygon fill="midnightblue" stroke="midnightblue" points="716.23,-241.45 725.36,-246.81 721.57,-236.92 716.23,-241.45"/>
</g>
<!-- Node17 -->
<g id="node17" class="node">
<title>Node17</title>
<g id="a_node17"><a xlink:href="a00546.xhtml#afa3cb0579386bd1108d010962e801d31" target="_top" xlink:title=" ">
<polygon fill="white" stroke="black" points="528.5,-116 528.5,-135 617.5,-135 617.5,-116 528.5,-116"/>
<text text-anchor="middle" x="573" y="-123" font-family="Helvetica,sans-Serif" font-size="10.00">CCcf::getCcfMax</text>
</a>
</g>
</g>
<!-- Node1&#45;&gt;Node17 -->
<g id="edge16" class="edge">
<title>Node1&#45;&gt;Node17</title>
<path fill="none" stroke="midnightblue" d="M724.97,-237.68C713.2,-212.44 688.82,-168.06 654,-144.5 643.36,-137.3 630.31,-132.81 617.87,-130.02"/>
<polygon fill="midnightblue" stroke="midnightblue" points="721.83,-239.23 729.11,-246.92 728.22,-236.37 721.83,-239.23"/>
</g>
<!-- Node18 -->
<g id="node18" class="node">
<title>Node18</title>
<g id="a_node18"><a xlink:href="a00486.xhtml#abdabbeb9b4bcc5f736367f3c8039e675" target="_top" xlink:title=" ">
<polygon fill="white" stroke="black" points="530,-28 530,-47 616,-47 616,-28 530,-28"/>
<text text-anchor="middle" x="573" y="-35" font-family="Helvetica,sans-Serif" font-size="10.00">CMatrix::getMax</text>
</a>
</g>
</g>
<!-- Node1&#45;&gt;Node18 -->
<g id="edge17" class="edge">
<title>Node1&#45;&gt;Node18</title>
<path fill="none" stroke="midnightblue" d="M731.06,-236.8C726.03,-196.74 708.85,-105.51 654,-57.5 643.55,-48.35 629.53,-43.27 616.15,-40.48"/>
<polygon fill="midnightblue" stroke="midnightblue" points="727.6,-237.33 732.2,-246.87 734.55,-236.54 727.6,-237.33"/>
</g>
<!-- Node23 -->
<g id="node23" class="node">
<title>Node23</title>
<g id="a_node23"><a xlink:href="a00606.xhtml#a9a0dbb8f97c757a13062370113d661c4" target="_top" xlink:title=" ">
<polygon fill="white" stroke="black" points="504.5,-66.5 504.5,-96.5 641.5,-96.5 641.5,-66.5 504.5,-66.5"/>
<text text-anchor="start" x="512.5" y="-84.5" font-family="Helvetica,sans-Serif" font-size="10.00">CNormalizeAudio::normalize</text>
<text text-anchor="middle" x="573" y="-73.5" font-family="Helvetica,sans-Serif" font-size="10.00">Signal</text>
</a>
</g>
</g>
<!-- Node1&#45;&gt;Node23 -->
<g id="edge22" class="edge">
<title>Node1&#45;&gt;Node23</title>
<path fill="none" stroke="midnightblue" d="M727.95,-236.88C718.72,-204.89 696.08,-141.55 654,-106.5 649.3,-102.59 644,-99.29 638.4,-96.5"/>
<polygon fill="midnightblue" stroke="midnightblue" points="724.65,-238.07 730.67,-246.79 731.4,-236.22 724.65,-238.07"/>
</g>
<!-- Node3 -->
<g id="node3" class="node">
<title>Node3</title>
<g id="a_node3"><a xlink:href="a00626.xhtml#a16bb56f19951aee5c4986a9dc7aeb853" target="_top" xlink:title=" ">
<polygon fill="white" stroke="black" points="344.5,-497 344.5,-516 422.5,-516 422.5,-497 344.5,-497"/>
<text text-anchor="middle" x="383.5" y="-504" font-family="Helvetica,sans-Serif" font-size="10.00">CKnn::classify</text>
</a>
</g>
</g>
<!-- Node2&#45;&gt;Node3 -->
<g id="edge2" class="edge">
<title>Node2&#45;&gt;Node3</title>
<path fill="none" stroke="midnightblue" d="M504.96,-506.5C477.29,-506.5 446.23,-506.5 422.58,-506.5"/>
<polygon fill="midnightblue" stroke="midnightblue" points="504.98,-510 514.98,-506.5 504.98,-503 504.98,-510"/>
</g>
<!-- Node9 -->
<g id="node9" class="node">
<title>Node9</title>
<g id="a_node9"><a xlink:href="a00354.xhtml#a238861a45b720d2b5a4974ea2dde9bad" target="_top" xlink:title=" ">
<polygon fill="white" stroke="black" points="313.5,-254.5 313.5,-284.5 453.5,-284.5 453.5,-254.5 313.5,-254.5"/>
<text text-anchor="start" x="321.5" y="-272.5" font-family="Helvetica,sans-Serif" font-size="10.00">CFeatureTimePeakEnvelope</text>
<text text-anchor="middle" x="383.5" y="-261.5" font-family="Helvetica,sans-Serif" font-size="10.00">::compFeature</text>
</a>
</g>
</g>
<!-- Node8&#45;&gt;Node9 -->
<g id="edge8" class="edge">
<title>Node8&#45;&gt;Node9</title>
<path fill="none" stroke="midnightblue" d="M481.73,-262.76C472.29,-263.41 462.8,-264.07 453.65,-264.71"/>
<polygon fill="midnightblue" stroke="midnightblue" points="482.21,-266.23 491.94,-262.05 481.72,-259.25 482.21,-266.23"/>
</g>
<!-- Node11 -->
<g id="node11" class="node">
<title>Node11</title>
<g id="a_node11"><a xlink:href="a00570.xhtml#af086e0bae5cc3cb68c35745749b0fda5" target="_top" xlink:title=" ">
<polygon fill="white" stroke="black" points="328.5,-216 328.5,-235 438.5,-235 438.5,-216 328.5,-216"/>
<text text-anchor="middle" x="383.5" y="-223" font-family="Helvetica,sans-Serif" font-size="10.00">CGmmClassifier::train</text>
</a>
</g>
</g>
<!-- Node10&#45;&gt;Node11 -->
<g id="edge10" class="edge">
<title>Node10&#45;&gt;Node11</title>
<path fill="none" stroke="midnightblue" d="M493.59,-215.03C475.08,-216.8 455.74,-218.66 438.57,-220.31"/>
<polygon fill="midnightblue" stroke="midnightblue" points="494.16,-218.49 503.78,-214.05 493.49,-211.52 494.16,-218.49"/>
</g>
<!-- Node12 -->
<g id="node12" class="node">
<title>Node12</title>
<g id="a_node12"><a xlink:href="a00626.xhtml#aedd5ce22bf1cf98b70cc3757ba244b94" target="_top" xlink:title=" ">
<polygon fill="white" stroke="black" points="351.5,-178 351.5,-197 415.5,-197 415.5,-178 351.5,-178"/>
<text text-anchor="middle" x="383.5" y="-185" font-family="Helvetica,sans-Serif" font-size="10.00">CKnn::train</text>
</a>
</g>
</g>
<!-- Node10&#45;&gt;Node12 -->
<g id="edge11" class="edge">
<title>Node10&#45;&gt;Node12</title>
<path fill="none" stroke="midnightblue" d="M493.76,-199.15C466.31,-196.23 437.03,-193.1 415.7,-190.83"/>
<polygon fill="midnightblue" stroke="midnightblue" points="493.46,-202.64 503.78,-200.22 494.21,-195.68 493.46,-202.64"/>
</g>
<!-- Node14 -->
<g id="node14" class="node">
<title>Node14</title>
<g id="a_node14"><a xlink:href="a00450.xhtml#a58a9a3d685f448ced2e843a60028e472" target="_top" xlink:title=" ">
<polygon fill="white" stroke="black" points="311,-87 311,-106 456,-106 456,-87 311,-87"/>
<text text-anchor="middle" x="383.5" y="-94" font-family="Helvetica,sans-Serif" font-size="10.00">CBeatHistoIf::compBeatHisto</text>
</a>
</g>
</g>
<!-- Node13&#45;&gt;Node14 -->
<g id="edge13" class="edge">
<title>Node13&#45;&gt;Node14</title>
<path fill="none" stroke="midnightblue" d="M515.74,-151.54C507.71,-149.43 499.59,-147.07 492,-144.5 475.06,-138.76 431.05,-118.44 404.89,-106.15"/>
<polygon fill="midnightblue" stroke="midnightblue" points="514.92,-154.95 525.47,-154 516.63,-148.16 514.92,-154.95"/>
</g>
<!-- Node16 -->
<g id="node16" class="node">
<title>Node16</title>
<g id="a_node16"><a xlink:href="a00017.xhtml#a0ddf1224851353fc92bfbff6f499fa97" target="_top" xlink:title=" ">
<polygon fill="white" stroke="black" points="364.5,-140 364.5,-159 402.5,-159 402.5,-140 364.5,-140"/>
<text text-anchor="middle" x="383.5" y="-147" font-family="Helvetica,sans-Serif" font-size="10.00">main</text>
</a>
</g>
</g>
<!-- Node13&#45;&gt;Node16 -->
<g id="edge15" class="edge">
<title>Node13&#45;&gt;Node16</title>
<path fill="none" stroke="midnightblue" d="M500.55,-158.17C465.22,-155.53 425.4,-152.55 402.79,-150.87"/>
<polygon fill="midnightblue" stroke="midnightblue" points="500.63,-161.68 510.86,-158.94 501.15,-154.7 500.63,-161.68"/>
</g>
<!-- Node15 -->
<g id="node15" class="node">
<title>Node15</title>
<g id="a_node15"><a xlink:href="a00020.xhtml#a0ddf1224851353fc92bfbff6f499fa97" target="_top" xlink:title=" ">
<polygon fill="white" stroke="black" points="217.5,-87 217.5,-106 255.5,-106 255.5,-87 217.5,-87"/>
<text text-anchor="middle" x="236.5" y="-94" font-family="Helvetica,sans-Serif" font-size="10.00">main</text>
</a>
</g>
</g>
<!-- Node14&#45;&gt;Node15 -->
<g id="edge14" class="edge">
<title>Node14&#45;&gt;Node15</title>
<path fill="none" stroke="midnightblue" d="M300.76,-96.5C283.7,-96.5 267.34,-96.5 255.53,-96.5"/>
<polygon fill="midnightblue" stroke="midnightblue" points="300.85,-100 310.85,-96.5 300.85,-93 300.85,-100"/>
</g>
<!-- Node19 -->
<g id="node19" class="node">
<title>Node19</title>
<g id="a_node19"><a xlink:href="a00454.xhtml#a2dc9b2b2e4912e45835c5727d550aee7" target="_top" xlink:title=" ">
<polygon fill="white" stroke="black" points="331,-28 331,-47 436,-47 436,-28 331,-28"/>
<text text-anchor="middle" x="383.5" y="-35" font-family="Helvetica,sans-Serif" font-size="10.00">CChordIf::initViterbi_</text>
</a>
</g>
</g>
<!-- Node18&#45;&gt;Node19 -->
<g id="edge18" class="edge">
<title>Node18&#45;&gt;Node19</title>
<path fill="none" stroke="midnightblue" d="M519.83,-37.5C493.71,-37.5 462.18,-37.5 436.14,-37.5"/>
<polygon fill="midnightblue" stroke="midnightblue" points="519.92,-41 529.92,-37.5 519.92,-34 519.92,-41"/>
</g>
<!-- Node20 -->
<g id="node20" class="node">
<title>Node20</title>
<g id="a_node20"><a xlink:href="a00454.xhtml#ad48a5bd574f16b7491b70efb9998935f" target="_top" xlink:title="init configuration">
<polygon fill="white" stroke="black" points="198,-28 198,-47 275,-47 275,-28 198,-28"/>
<text text-anchor="middle" x="236.5" y="-35" font-family="Helvetica,sans-Serif" font-size="10.00">CChordIf::init_</text>
</a>
</g>
</g>
<!-- Node19&#45;&gt;Node20 -->
<g id="edge19" class="edge">
<title>Node19&#45;&gt;Node20</title>
<path fill="none" stroke="midnightblue" d="M320.89,-37.5C305.36,-37.5 289.15,-37.5 275.19,-37.5"/>
<polygon fill="midnightblue" stroke="midnightblue" points="320.97,-41 330.97,-37.5 320.97,-34 320.97,-41"/>
</g>
<!-- Node21 -->
<g id="node21" class="node">
<title>Node21</title>
<g id="a_node21"><a xlink:href="a00310.xhtml#a6df404d2eb3d4c8f9dc2071930fc9e7e" target="_top" xlink:title=" ">
<polygon fill="white" stroke="black" points="0,-50 0,-69 162,-69 162,-50 0,-50"/>
<text text-anchor="middle" x="81" y="-57" font-family="Helvetica,sans-Serif" font-size="10.00">CChordFromFile::CChordFromFile</text>
</a>
</g>
</g>
<!-- Node20&#45;&gt;Node21 -->
<g id="edge20" class="edge">
<title>Node20&#45;&gt;Node21</title>
<path fill="none" stroke="midnightblue" d="M187.81,-44.33C175.37,-46.12 161.73,-48.07 148.5,-49.97"/>
<polygon fill="midnightblue" stroke="midnightblue" points="188.55,-47.77 197.95,-42.88 187.55,-40.84 188.55,-47.77"/>
</g>
<!-- Node22 -->
<g id="node22" class="node">
<title>Node22</title>
<g id="a_node22"><a xlink:href="a00314.xhtml#ac9c41c2ddc441df7e0ae80c25971c260" target="_top" xlink:title=" ">
<polygon fill="white" stroke="black" points="12.5,-0.5 12.5,-30.5 149.5,-30.5 149.5,-0.5 12.5,-0.5"/>
<text text-anchor="start" x="20.5" y="-18.5" font-family="Helvetica,sans-Serif" font-size="10.00">CChordFromVector::CChord</text>
<text text-anchor="middle" x="81" y="-7.5" font-family="Helvetica,sans-Serif" font-size="10.00">FromVector</text>
</a>
</g>
</g>
<!-- Node20&#45;&gt;Node22 -->
<g id="edge21" class="edge">
<title>Node20&#45;&gt;Node22</title>
<path fill="none" stroke="midnightblue" d="M187.7,-30.65C175.66,-28.92 162.51,-27.04 149.71,-25.2"/>
<polygon fill="midnightblue" stroke="midnightblue" points="187.55,-34.16 197.95,-32.12 188.55,-27.23 187.55,-34.16"/>
</g>
<!-- Node23&#45;&gt;Node14 -->
<g id="edge23" class="edge">
<title>Node23&#45;&gt;Node14</title>
<path fill="none" stroke="midnightblue" d="M494.3,-87.72C481.68,-88.73 468.67,-89.77 456.21,-90.76"/>
<polygon fill="midnightblue" stroke="midnightblue" points="494.62,-91.2 504.31,-86.92 494.06,-84.22 494.62,-91.2"/>
</g>
</g>
</svg>
        <g id="navigator" transform="translate(0 0)" fill="#404254">
                <rect fill="#f2f5e9" fill-opacity="0.5" stroke="#606060" stroke-width=".5" x="0" y="0" width="60" height="60"/>
                <use id="zoomplus" xlink:href="#zoomPlus" x="17" y="9" onmousedown="handleZoom(evt,'in')"/>
                <use id="zoomminus" xlink:href="#zoomMin" x="42" y="9" onmousedown="handleZoom(evt,'out')"/>
                <use id="reset" xlink:href="#resetDef" x="30" y="36" onmousedown="handleReset()"/>
                <g id="arrowUp" xlink:href="#dirArrow" transform="translate(30 24)" onmousedown="handlePan(0,-1)">
                  <use xlink:href="#rim" fill="#404040">
                        <set attributeName="fill" to="#808080" begin="arrowUp.mouseover" end="arrowUp.mouseout"/>
                  </use>
                  <path fill="none" stroke="white" stroke-width="1.5" d="M0,-3.0v7 M-2.5,-0.5L0,-3.0L2.5,-0.5"/>
                </g>
                <g id="arrowRight" xlink:href="#dirArrow" transform="rotate(90) translate(36 -43)" onmousedown="handlePan(1,0)">
                  <use xlink:href="#rim" fill="#404040">
                        <set attributeName="fill" to="#808080" begin="arrowRight.mouseover" end="arrowRight.mouseout"/>
                  </use>
                  <path fill="none" stroke="white" stroke-width="1.5" d="M0,-3.0v7 M-2.5,-0.5L0,-3.0L2.5,-0.5"/>
                </g>
                <g id="arrowDown" xlink:href="#dirArrow" transform="rotate(180) translate(-30 -48)" onmousedown="handlePan(0,1)">
                  <use xlink:href="#rim" fill="#404040">
                        <set attributeName="fill" to="#808080" begin="arrowDown.mouseover" end="arrowDown.mouseout"/>
                  </use>
                  <path fill="none" stroke="white" stroke-width="1.5" d="M0,-3.0v7 M-2.5,-0.5L0,-3.0L2.5,-0.5"/>
                </g>
                <g id="arrowLeft" xlink:href="#dirArrow" transform="rotate(270) translate(-36 17)" onmousedown="handlePan(-1,0)">
                  <use xlink:href="#rim" fill="#404040">
                        <set attributeName="fill" to="#808080" begin="arrowLeft.mouseover" end="arrowLeft.mouseout"/>
                  </use>
                  <path fill="none" stroke="white" stroke-width="1.5" d="M0,-3.0v7 M-2.5,-0.5L0,-3.0L2.5,-0.5"/>
                </g>
        </g>
        <svg viewBox="0 0 15 15" width="100%" height="30px" preserveAspectRatio="xMaxYMin meet">
         <g id="arrow_out" transform="scale(0.3 0.3)">
          <a xlink:href="a00502_a9f5be871090bc5a64a7732cebfb4f8ec_icgraph_org.svg" target="_base">
           <rect id="button" ry="5" rx="5" y="6" x="6" height="38" width="38"
                fill="#f2f5e9" fill-opacity="0.5" stroke="#606060" stroke-width="1.0"/>
           <path id="arrow"
             d="M 11.500037,31.436501 C 11.940474,20.09759 22.043105,11.32322 32.158766,21.979434 L 37.068811,17.246167 C 37.068811,17.246167 37.088388,32 37.088388,32 L 22.160133,31.978069 C 22.160133,31.978069 26.997745,27.140456 26.997745,27.140456 C 18.528582,18.264221 13.291696,25.230495 11.500037,31.436501 z"
             style="fill:#404040;"/>
          </a>
         </g>
        </svg>
</svg>
