<?xml version="1.0" encoding="UTF-8" standalone="no"?>
<!DOCTYPE svg PUBLIC "-//W3C//DTD SVG 1.1//EN"
 "http://www.w3.org/Graphics/SVG/1.1/DTD/svg11.dtd">
<!-- Generated by graphviz version 6.0.1 (20220911.1526)
 -->
<!-- Title: CGmm::initState_ Pages: 1 -->
<!--zoomable 325 -->
<svg id="main" version="1.1" xmlns="http://www.w3.org/2000/svg" xmlns:xlink="http://www.w3.org/1999/xlink" xml:space="preserve" onload="init(evt)">
<style type="text/css"><![CDATA[
.edge:hover path { stroke: red; }
.edge:hover polygon { stroke: red; fill: red; }
]]></style>
<script type="text/javascript"><![CDATA[
var edges = document.getElementsByTagName('g');
if (edges && edges.length) {
  for (var i=0;i<edges.length;i++) {
    if (edges[i].id.substr(0,4)=='edge') {
      edges[i].setAttribute('class','edge');
    }
  }
}
]]></script>
        <defs>
                <circle id="rim" cx="0" cy="0" r="7"/>
                <circle id="rim2" cx="0" cy="0" r="3.5"/>
                <g id="zoomPlus">
                        <use xlink:href="#rim" fill="#404040">
                                <set attributeName="fill" to="#808080" begin="zoomplus.mouseover" end="zoomplus.mouseout"/>
                        </use>
                        <path d="M-4,0h8M0,-4v8" fill="none" stroke="white" stroke-width="1.5" pointer-events="none"/>
                </g>
                <g id="zoomMin">
                        <use xlink:href="#rim" fill="#404040">
                                <set attributeName="fill" to="#808080" begin="zoomminus.mouseover" end="zoomminus.mouseout"/>
                        </use>
                        <path d="M-4,0h8" fill="none" stroke="white" stroke-width="1.5" pointer-events="none"/>
                </g>
                <g id="dirArrow">
                        <path fill="none" stroke="white" stroke-width="1.5" d="M0,-3.0v7 M-2.5,-0.5L0,-3.0L2.5,-0.5"/>
                </g>
               <g id="resetDef">
                       <use xlink:href="#rim2" fill="#404040">
                               <set attributeName="fill" to="#808080" begin="reset.mouseover" end="reset.mouseout"/>
                       </use>
               </g>
        </defs>

<script type="text/javascript">
var viewWidth = 785;
var viewHeight = 325;
var sectionId = 'dynsection-10';
</script>
<script xlink:href="svgpan.js"/>
<svg id="graph" class="graph">
<g id="viewport">
<title>CGmm::initState_</title>
<!-- Node1 -->
<g id="node1" class="node">
<title>Node1</title>
<g id="a_node1"><a xlink:title=" ">
<polygon fill="#999999" stroke="#666666" points="93,-130 0,-130 0,-111 93,-111 93,-130"/>
<text text-anchor="middle" x="46.5" y="-118" font-family="Helvetica,sans-Serif" font-size="10.00">CGmm::initState_</text>
</a>
</g>
</g>
<!-- Node2 -->
<g id="node2" class="node">
<title>Node2</title>
<g id="a_node2"><a xlink:href="a00598.xhtml#ab97f1018b23310674511f05dac173db8" target="_top" xlink:title=" ">
<polygon fill="white" stroke="#666666" points="232.5,-247 146.5,-247 146.5,-228 232.5,-228 232.5,-247"/>
<text text-anchor="middle" x="189.5" y="-235" font-family="Helvetica,sans-Serif" font-size="10.00">CPca::compCov</text>
</a>
</g>
</g>
<!-- Node1&#45;&gt;Node2 -->
<g id="edge1" class="edge">
<title>Node1&#45;&gt;Node2</title>
<path fill="none" stroke="#63b8ff" d="M55.28,-130.22C68.93,-146.86 98.67,-181.28 129,-204.5 138.1,-211.47 148.84,-217.89 158.68,-223.18"/>
<polygon fill="#63b8ff" stroke="#63b8ff" points="157.27,-226.39 167.75,-227.89 160.49,-220.18 157.27,-226.39"/>
</g>
<!-- Node6 -->
<g id="node6" class="node">
<title>Node6</title>
<g id="a_node6"><a xlink:href="a00502.xhtml#a9811f50434dd058d201290b2dc98bfcd" target="_top" xlink:title=" ">
<polygon fill="white" stroke="#666666" points="515,-243 428,-243 428,-224 515,-224 515,-243"/>
<text text-anchor="middle" x="471.5" y="-231" font-family="Helvetica,sans-Serif" font-size="10.00">CVector::mulC_I</text>
</a>
</g>
</g>
<!-- Node1&#45;&gt;Node6 -->
<g id="edge9" class="edge">
<title>Node1&#45;&gt;Node6</title>
<path fill="none" stroke="#63b8ff" d="M65.16,-130.12C81.36,-138.61 106.23,-150.79 129,-158.5 156.16,-167.69 329.3,-204.18 418.11,-222.66"/>
<polygon fill="#63b8ff" stroke="#63b8ff" points="417.48,-226.1 427.98,-224.71 418.91,-219.25 417.48,-226.1"/>
</g>
<!-- Node9 -->
<g id="node9" class="node">
<title>Node9</title>
<g id="a_node9"><a xlink:href="a00494.xhtml#a15807589621c539725afa2e8e6ea8ffc" target="_top" xlink:title=" ">
<polygon fill="white" stroke="#666666" points="245.5,-112 133.5,-112 133.5,-93 245.5,-93 245.5,-112"/>
<text text-anchor="middle" x="189.5" y="-100" font-family="Helvetica,sans-Serif" font-size="10.00">CSynthesis::genNoise</text>
</a>
</g>
</g>
<!-- Node1&#45;&gt;Node9 -->
<g id="edge8" class="edge">
<title>Node1&#45;&gt;Node9</title>
<path fill="none" stroke="#63b8ff" d="M93.28,-114.66C102.87,-113.43 113.16,-112.12 123.3,-110.82"/>
<polygon fill="#63b8ff" stroke="#63b8ff" points="123.88,-114.28 133.36,-109.54 122.99,-107.33 123.88,-114.28"/>
</g>
<!-- Node10 -->
<g id="node10" class="node">
<title>Node10</title>
<g id="a_node10"><a xlink:href="a00562.xhtml#ab1f629b8a2796b9a64366dfc01b47f99" target="_top" xlink:title=" ">
<polygon fill="white" stroke="#666666" points="243,-75 136,-75 136,-56 243,-56 243,-75"/>
<text text-anchor="middle" x="189.5" y="-63" font-family="Helvetica,sans-Serif" font-size="10.00">CGmmResult::setMu</text>
</a>
</g>
</g>
<!-- Node1&#45;&gt;Node10 -->
<g id="edge10" class="edge">
<title>Node1&#45;&gt;Node10</title>
<path fill="none" stroke="#63b8ff" d="M66.63,-110.95C82.95,-103 107.19,-91.71 129,-83.5 133.92,-81.65 139.13,-79.85 144.33,-78.15"/>
<polygon fill="#63b8ff" stroke="#63b8ff" points="145.78,-81.36 154.26,-75.01 143.67,-74.69 145.78,-81.36"/>
</g>
<!-- Node11 -->
<g id="node11" class="node">
<title>Node11</title>
<g id="a_node11"><a xlink:href="a00562.xhtml#a664515ad2f4fab6188ad24a91fdf7d7f" target="_top" xlink:title=" ">
<polygon fill="white" stroke="#666666" points="246,-38 133,-38 133,-19 246,-19 246,-38"/>
<text text-anchor="middle" x="189.5" y="-26" font-family="Helvetica,sans-Serif" font-size="10.00">CGmmResult::setPrior</text>
</a>
</g>
</g>
<!-- Node1&#45;&gt;Node11 -->
<g id="edge11" class="edge">
<title>Node1&#45;&gt;Node11</title>
<path fill="none" stroke="#63b8ff" d="M55.51,-110.86C69.06,-95.15 98.07,-64.02 129,-46.5 132.05,-44.77 135.28,-43.19 138.61,-41.75"/>
<polygon fill="#63b8ff" stroke="#63b8ff" points="140.07,-44.94 148.12,-38.05 137.53,-38.41 140.07,-44.94"/>
</g>
<!-- Node12 -->
<g id="node12" class="node">
<title>Node12</title>
<g id="a_node12"><a xlink:href="a00562.xhtml#a73b45f72b704d8053dac9e408ed01799" target="_top" xlink:title=" ">
<polygon fill="white" stroke="#666666" points="250,-149 129,-149 129,-130 250,-130 250,-149"/>
<text text-anchor="middle" x="189.5" y="-137" font-family="Helvetica,sans-Serif" font-size="10.00">CGmmResult::setSigma</text>
</a>
</g>
</g>
<!-- Node1&#45;&gt;Node12 -->
<g id="edge12" class="edge">
<title>Node1&#45;&gt;Node12</title>
<path fill="none" stroke="#63b8ff" d="M93.28,-126.67C101.43,-127.77 110.08,-128.93 118.72,-130.1"/>
<polygon fill="#63b8ff" stroke="#63b8ff" points="118.45,-133.59 128.83,-131.46 119.38,-126.65 118.45,-133.59"/>
</g>
<!-- Node3 -->
<g id="node3" class="node">
<title>Node3</title>
<g id="a_node3"><a xlink:href="a00502.xhtml#ae6e3545cf196c5e2409365bc62b7c1de" target="_top" xlink:title=" ">
<polygon fill="white" stroke="#666666" points="380,-280 286,-280 286,-261 380,-261 380,-280"/>
<text text-anchor="middle" x="333" y="-268" font-family="Helvetica,sans-Serif" font-size="10.00">CVector::getMean</text>
</a>
</g>
</g>
<!-- Node2&#45;&gt;Node3 -->
<g id="edge2" class="edge">
<title>Node2&#45;&gt;Node3</title>
<path fill="none" stroke="#63b8ff" d="M231.43,-247.04C246.97,-250.67 264.87,-254.84 281.22,-258.66"/>
<polygon fill="#63b8ff" stroke="#63b8ff" points="280.63,-262.11 291.16,-260.98 282.22,-255.3 280.63,-262.11"/>
</g>
<!-- Node5 -->
<g id="node5" class="node">
<title>Node5</title>
<g id="a_node5"><a xlink:href="a00486.xhtml#a49b68b5ae672826ed8c8e3b014e09769" target="_top" xlink:title=" ">
<polygon fill="white" stroke="#666666" points="375.5,-243 290.5,-243 290.5,-224 375.5,-224 375.5,-243"/>
<text text-anchor="middle" x="333" y="-231" font-family="Helvetica,sans-Serif" font-size="10.00">CMatrix::mulC_I</text>
</a>
</g>
</g>
<!-- Node2&#45;&gt;Node5 -->
<g id="edge4" class="edge">
<title>Node2&#45;&gt;Node5</title>
<path fill="none" stroke="#63b8ff" d="M232.57,-236.31C247.54,-235.89 264.57,-235.41 280.26,-234.96"/>
<polygon fill="#63b8ff" stroke="#63b8ff" points="280.44,-238.46 290.33,-234.68 280.24,-231.46 280.44,-238.46"/>
</g>
<!-- Node7 -->
<g id="node7" class="node">
<title>Node7</title>
<g id="a_node7"><a xlink:href="a00486.xhtml#a7be1ae4f635c5aaec0c2693fc23b3646" target="_top" xlink:title=" ">
<polygon fill="white" stroke="#666666" points="376.5,-317 289.5,-317 289.5,-298 376.5,-298 376.5,-317"/>
<text text-anchor="middle" x="333" y="-305" font-family="Helvetica,sans-Serif" font-size="10.00">CMatrix::setZero</text>
</a>
</g>
</g>
<!-- Node2&#45;&gt;Node7 -->
<g id="edge6" class="edge">
<title>Node2&#45;&gt;Node7</title>
<path fill="none" stroke="#63b8ff" d="M206.74,-247.16C225.49,-258.12 257.42,-276.19 286,-289.5 289.39,-291.08 292.95,-292.64 296.54,-294.14"/>
<polygon fill="#63b8ff" stroke="#63b8ff" points="295.39,-297.45 305.97,-297.97 298.02,-290.97 295.39,-297.45"/>
</g>
<!-- Node4 -->
<g id="node4" class="node">
<title>Node4</title>
<g id="a_node4"><a xlink:href="a00502.xhtml#abdbcc3898121387f3694f74491b7331e" target="_top" xlink:title=" ">
<polygon fill="white" stroke="#666666" points="516.5,-280 426.5,-280 426.5,-261 516.5,-261 516.5,-280"/>
<text text-anchor="middle" x="471.5" y="-268" font-family="Helvetica,sans-Serif" font-size="10.00">CVector::getSum</text>
</a>
</g>
</g>
<!-- Node3&#45;&gt;Node4 -->
<g id="edge3" class="edge">
<title>Node3&#45;&gt;Node4</title>
<path fill="none" stroke="#63b8ff" d="M380.21,-270.5C391.7,-270.5 404.12,-270.5 415.96,-270.5"/>
<polygon fill="#63b8ff" stroke="#63b8ff" points="416.18,-274 426.18,-270.5 416.18,-267 416.18,-274"/>
</g>
<!-- Node5&#45;&gt;Node6 -->
<g id="edge5" class="edge">
<title>Node5&#45;&gt;Node6</title>
<path fill="none" stroke="#63b8ff" d="M375.7,-233.5C388.82,-233.5 403.49,-233.5 417.29,-233.5"/>
<polygon fill="#63b8ff" stroke="#63b8ff" points="417.64,-237 427.64,-233.5 417.64,-230 417.64,-237"/>
</g>
<!-- Node8 -->
<g id="node8" class="node">
<title>Node8</title>
<g id="a_node8"><a xlink:href="a00502.xhtml#a6dbb3f9f480568b60f7fe50090d20003" target="_top" xlink:title=" ">
<polygon fill="white" stroke="#666666" points="777,-205 688,-205 688,-186 777,-186 777,-205"/>
<text text-anchor="middle" x="732.5" y="-193" font-family="Helvetica,sans-Serif" font-size="10.00">CVector::setZero</text>
</a>
</g>
</g>
<!-- Node7&#45;&gt;Node8 -->
<g id="edge7" class="edge">
<title>Node7&#45;&gt;Node8</title>
<path fill="none" stroke="#63b8ff" d="M376.51,-307.62C416.11,-306.78 476.46,-303.05 527,-289.5 595.54,-271.12 669.75,-231.51 707.09,-210.04"/>
<polygon fill="#63b8ff" stroke="#63b8ff" points="708.88,-213.05 715.77,-205 705.36,-207 708.88,-213.05"/>
</g>
<!-- Node13 -->
<g id="node13" class="node">
<title>Node13</title>
<g id="a_node13"><a xlink:href="a00486.xhtml#aa633cf46c2b3938a1a7a8199c31051dd" target="_top" xlink:title=" ">
<polygon fill="white" stroke="#666666" points="508.5,-19 434.5,-19 434.5,0 508.5,0 508.5,-19"/>
<text text-anchor="middle" x="471.5" y="-7" font-family="Helvetica,sans-Serif" font-size="10.00">CMatrix::copy</text>
</a>
</g>
</g>
<!-- Node12&#45;&gt;Node13 -->
<g id="edge13" class="edge">
<title>Node12&#45;&gt;Node13</title>
<path fill="none" stroke="#63b8ff" d="M224.61,-129.91C233.03,-127.19 241.94,-124 250,-120.5 327.56,-86.8 338.61,-61.58 416,-27.5 420.06,-25.71 424.36,-24 428.68,-22.4"/>
<polygon fill="#63b8ff" stroke="#63b8ff" points="429.86,-25.69 438.12,-19.06 427.53,-19.09 429.86,-25.69"/>
</g>
<!-- Node15 -->
<g id="node15" class="node">
<title>Node15</title>
<g id="a_node15"><a xlink:href="a00486.xhtml#a37585f57926ea2921734907bacc6cce8" target="_top" xlink:title=" ">
<polygon fill="white" stroke="#666666" points="370.5,-137 295.5,-137 295.5,-118 370.5,-118 370.5,-137"/>
<text text-anchor="middle" x="333" y="-125" font-family="Helvetica,sans-Serif" font-size="10.00">CMatrix::inv_I</text>
</a>
</g>
</g>
<!-- Node12&#45;&gt;Node15 -->
<g id="edge15" class="edge">
<title>Node12&#45;&gt;Node15</title>
<path fill="none" stroke="#63b8ff" d="M250.1,-134.45C261.9,-133.45 274.12,-132.41 285.41,-131.45"/>
<polygon fill="#63b8ff" stroke="#63b8ff" points="285.8,-134.93 295.47,-130.6 285.21,-127.96 285.8,-134.93"/>
</g>
<!-- Node14 -->
<g id="node14" class="node">
<title>Node14</title>
<g id="a_node14"><a xlink:href="a00502.xhtml#ad7c5cba73e439adac77778f61c9418f0" target="_top" xlink:title=" ">
<polygon fill="white" stroke="#666666" points="646,-19 569,-19 569,0 646,0 646,-19"/>
<text text-anchor="middle" x="607.5" y="-7" font-family="Helvetica,sans-Serif" font-size="10.00">CVector::copy</text>
</a>
</g>
</g>
<!-- Node13&#45;&gt;Node14 -->
<g id="edge14" class="edge">
<title>Node13&#45;&gt;Node14</title>
<path fill="none" stroke="#63b8ff" d="M508.76,-9.5C524.02,-9.5 542,-9.5 558.34,-9.5"/>
<polygon fill="#63b8ff" stroke="#63b8ff" points="558.81,-13 568.81,-9.5 558.81,-6 558.81,-13"/>
</g>
<!-- Node15&#45;&gt;Node6 -->
<g id="edge23" class="edge">
<title>Node15&#45;&gt;Node6</title>
<path fill="none" stroke="#63b8ff" d="M342.72,-137.07C360.3,-156.21 399.72,-198.36 416,-209.5 421.62,-213.34 427.95,-216.8 434.26,-219.81"/>
<polygon fill="#63b8ff" stroke="#63b8ff" points="432.84,-223.01 443.4,-223.9 435.7,-216.62 432.84,-223.01"/>
</g>
<!-- Node15&#45;&gt;Node13 -->
<g id="edge19" class="edge">
<title>Node15&#45;&gt;Node13</title>
<path fill="none" stroke="#63b8ff" d="M341.34,-117.95C359.64,-94.22 406.51,-34.01 416,-27.5 418.75,-25.61 421.72,-23.91 424.79,-22.38"/>
<polygon fill="#63b8ff" stroke="#63b8ff" points="426.47,-25.46 434.25,-18.27 423.68,-19.04 426.47,-25.46"/>
</g>
<!-- Node15&#45;&gt;Node15 -->
<g id="edge22" class="edge">
<title>Node15&#45;&gt;Node15</title>
<path fill="none" stroke="#63b8ff" d="M311.65,-137.08C301.27,-145.73 308.38,-155 333,-155 348.77,-155 357.36,-151.2 358.76,-146.19"/>
<polygon fill="#63b8ff" stroke="#63b8ff" points="361.86,-144.55 354.35,-137.08 355.56,-147.61 361.86,-144.55"/>
</g>
<!-- Node16 -->
<g id="node16" class="node">
<title>Node16</title>
<g id="a_node16"><a xlink:href="a00486.xhtml#a6501b78d76c912d49eee88c8f7242923" target="_top" xlink:title=" ">
<polygon fill="white" stroke="#666666" points="508.5,-56 434.5,-56 434.5,-37 508.5,-37 508.5,-56"/>
<text text-anchor="middle" x="471.5" y="-44" font-family="Helvetica,sans-Serif" font-size="10.00">CMatrix::alloc</text>
</a>
</g>
</g>
<!-- Node15&#45;&gt;Node16 -->
<g id="edge16" class="edge">
<title>Node15&#45;&gt;Node16</title>
<path fill="none" stroke="#63b8ff" d="M344.33,-117.68C359.15,-104.07 387.76,-79.46 416,-64.5 419.27,-62.77 422.75,-61.16 426.29,-59.67"/>
<polygon fill="#63b8ff" stroke="#63b8ff" points="427.68,-62.89 435.76,-56.03 425.17,-56.35 427.68,-62.89"/>
</g>
<!-- Node18 -->
<g id="node18" class="node">
<title>Node18</title>
<g id="a_node18"><a xlink:href="a00486.xhtml#a591097c6b1935c4d6273b3445f8f552b" target="_top" xlink:title=" ">
<polygon fill="white" stroke="#666666" points="507,-167 436,-167 436,-148 507,-148 507,-167"/>
<text text-anchor="middle" x="471.5" y="-155" font-family="Helvetica,sans-Serif" font-size="10.00">CMatrix::free</text>
</a>
</g>
</g>
<!-- Node15&#45;&gt;Node18 -->
<g id="edge20" class="edge">
<title>Node15&#45;&gt;Node18</title>
<path fill="none" stroke="#63b8ff" d="M370.58,-135.54C387.56,-139.27 407.9,-143.74 425.78,-147.67"/>
<polygon fill="#63b8ff" stroke="#63b8ff" points="425.18,-151.12 435.7,-149.85 426.69,-144.29 425.18,-151.12"/>
</g>
<!-- Node20 -->
<g id="node20" class="node">
<title>Node20</title>
<g id="a_node20"><a xlink:href="a00486.xhtml#a8f27c49fcbbdb52e2e9a50f2b22f59c3" target="_top" xlink:title=" ">
<polygon fill="white" stroke="#666666" points="649,-205 566,-205 566,-186 649,-186 649,-205"/>
<text text-anchor="middle" x="607.5" y="-193" font-family="Helvetica,sans-Serif" font-size="10.00">CMatrix::setEye</text>
</a>
</g>
</g>
<!-- Node15&#45;&gt;Node20 -->
<g id="edge24" class="edge">
<title>Node15&#45;&gt;Node20</title>
<path fill="none" stroke="#63b8ff" d="M346.21,-137.18C361.53,-148.73 389.07,-167.61 416,-176.5 461.63,-191.57 516.48,-195.68 555.58,-196.4"/>
<polygon fill="#63b8ff" stroke="#63b8ff" points="555.63,-199.9 565.67,-196.52 555.71,-192.9 555.63,-199.9"/>
</g>
<!-- Node21 -->
<g id="node21" class="node">
<title>Node21</title>
<g id="a_node21"><a xlink:href="a00502.xhtml#a4e5b5163bb46b8de5ac4013bde1ded00" target="_top" xlink:title=" ">
<polygon fill="white" stroke="#666666" points="516,-130 427,-130 427,-111 516,-111 516,-130"/>
<text text-anchor="middle" x="471.5" y="-118" font-family="Helvetica,sans-Serif" font-size="10.00">CVector::subW_I</text>
</a>
</g>
</g>
<!-- Node15&#45;&gt;Node21 -->
<g id="edge26" class="edge">
<title>Node15&#45;&gt;Node21</title>
<path fill="none" stroke="#63b8ff" d="M370.58,-125.62C384.57,-124.91 400.84,-124.07 416.13,-123.29"/>
<polygon fill="#63b8ff" stroke="#63b8ff" points="416.72,-126.76 426.53,-122.76 416.36,-119.77 416.72,-126.76"/>
</g>
<!-- Node23 -->
<g id="node23" class="node">
<title>Node23</title>
<g id="a_node23"><a xlink:href="a00486.xhtml#a559a4308e4b77c24a8544d4e26efe1e9" target="_top" xlink:title=" ">
<polygon fill="white" stroke="#666666" points="527,-93 416,-93 416,-74 527,-74 527,-93"/>
<text text-anchor="middle" x="471.5" y="-81" font-family="Helvetica,sans-Serif" font-size="10.00">CMatrix::swapRowCol</text>
</a>
</g>
</g>
<!-- Node15&#45;&gt;Node23 -->
<g id="edge28" class="edge">
<title>Node15&#45;&gt;Node23</title>
<path fill="none" stroke="#63b8ff" d="M363.62,-117.95C383.47,-111.55 409.83,-103.06 431.4,-96.1"/>
<polygon fill="#63b8ff" stroke="#63b8ff" points="432.5,-99.43 440.94,-93.03 430.35,-92.77 432.5,-99.43"/>
</g>
<!-- Node17 -->
<g id="node17" class="node">
<title>Node17</title>
<g id="a_node17"><a xlink:href="a00502.xhtml#abaadac98b1cad18b7b568852bc951696" target="_top" xlink:title=" ">
<polygon fill="white" stroke="#666666" points="646,-75 569,-75 569,-56 646,-56 646,-75"/>
<text text-anchor="middle" x="607.5" y="-63" font-family="Helvetica,sans-Serif" font-size="10.00">CVector::alloc</text>
</a>
</g>
</g>
<!-- Node16&#45;&gt;Node17 -->
<g id="edge17" class="edge">
<title>Node16&#45;&gt;Node17</title>
<path fill="none" stroke="#63b8ff" d="M508.76,-51.64C524.17,-53.83 542.34,-56.4 558.81,-58.74"/>
<polygon fill="#63b8ff" stroke="#63b8ff" points="558.41,-62.22 568.81,-60.16 559.4,-55.29 558.41,-62.22"/>
</g>
<!-- Node17&#45;&gt;Node8 -->
<g id="edge18" class="edge">
<title>Node17&#45;&gt;Node8</title>
<path fill="none" stroke="#63b8ff" d="M621.19,-75.03C630.15,-81.99 642.24,-91.85 652,-101.5 677.17,-126.4 703.05,-158.43 718.18,-177.94"/>
<polygon fill="#63b8ff" stroke="#63b8ff" points="715.47,-180.15 724.34,-185.95 721.02,-175.89 715.47,-180.15"/>
</g>
<!-- Node19 -->
<g id="node19" class="node">
<title>Node19</title>
<g id="a_node19"><a xlink:href="a00502.xhtml#aa86bdb0c663d4d52f2765793756f8737" target="_top" xlink:title=" ">
<polygon fill="white" stroke="#666666" points="644,-167 571,-167 571,-148 644,-148 644,-167"/>
<text text-anchor="middle" x="607.5" y="-155" font-family="Helvetica,sans-Serif" font-size="10.00">CVector::free</text>
</a>
</g>
</g>
<!-- Node18&#45;&gt;Node19 -->
<g id="edge21" class="edge">
<title>Node18&#45;&gt;Node19</title>
<path fill="none" stroke="#63b8ff" d="M507.01,-157.5C523.34,-157.5 543.08,-157.5 560.65,-157.5"/>
<polygon fill="#63b8ff" stroke="#63b8ff" points="560.71,-161 570.71,-157.5 560.71,-154 560.71,-161"/>
</g>
<!-- Node20&#45;&gt;Node8 -->
<g id="edge25" class="edge">
<title>Node20&#45;&gt;Node8</title>
<path fill="none" stroke="#63b8ff" d="M649.12,-195.5C658.26,-195.5 668.11,-195.5 677.7,-195.5"/>
<polygon fill="#63b8ff" stroke="#63b8ff" points="677.97,-199 687.97,-195.5 677.97,-192 677.97,-199"/>
</g>
<!-- Node22 -->
<g id="node22" class="node">
<title>Node22</title>
<g id="a_node22"><a xlink:href="a00502.xhtml#a2239b170d46ed3d0846d766a0634a0be" target="_top" xlink:title=" ">
<polygon fill="white" stroke="#666666" points="652,-130 563,-130 563,-111 652,-111 652,-130"/>
<text text-anchor="middle" x="607.5" y="-118" font-family="Helvetica,sans-Serif" font-size="10.00">CVector::addW_I</text>
</a>
</g>
</g>
<!-- Node21&#45;&gt;Node22 -->
<g id="edge27" class="edge">
<title>Node21&#45;&gt;Node22</title>
<path fill="none" stroke="#63b8ff" d="M516.01,-120.5C527.71,-120.5 540.5,-120.5 552.69,-120.5"/>
<polygon fill="#63b8ff" stroke="#63b8ff" points="552.75,-124 562.75,-120.5 552.75,-117 552.75,-124"/>
</g>
</g>
</svg>
        <g id="navigator" transform="translate(0 0)" fill="#404254">
                <rect fill="#f2f5e9" fill-opacity="0.5" stroke="#606060" stroke-width=".5" x="0" y="0" width="60" height="60"/>
                <use id="zoomplus" xlink:href="#zoomPlus" x="17" y="9" onmousedown="handleZoom(evt,'in')"/>
                <use id="zoomminus" xlink:href="#zoomMin" x="42" y="9" onmousedown="handleZoom(evt,'out')"/>
                <use id="reset" xlink:href="#resetDef" x="30" y="36" onmousedown="handleReset()"/>
                <g id="arrowUp" xlink:href="#dirArrow" transform="translate(30 24)" onmousedown="handlePan(0,-1)">
                  <use xlink:href="#rim" fill="#404040">
                        <set attributeName="fill" to="#808080" begin="arrowUp.mouseover" end="arrowUp.mouseout"/>
                  </use>
                  <path fill="none" stroke="white" stroke-width="1.5" d="M0,-3.0v7 M-2.5,-0.5L0,-3.0L2.5,-0.5"/>
                </g>
                <g id="arrowRight" xlink:href="#dirArrow" transform="rotate(90) translate(36 -43)" onmousedown="handlePan(1,0)">
                  <use xlink:href="#rim" fill="#404040">
                        <set attributeName="fill" to="#808080" begin="arrowRight.mouseover" end="arrowRight.mouseout"/>
                  </use>
                  <path fill="none" stroke="white" stroke-width="1.5" d="M0,-3.0v7 M-2.5,-0.5L0,-3.0L2.5,-0.5"/>
                </g>
                <g id="arrowDown" xlink:href="#dirArrow" transform="rotate(180) translate(-30 -48)" onmousedown="handlePan(0,1)">
                  <use xlink:href="#rim" fill="#404040">
                        <set attributeName="fill" to="#808080" begin="arrowDown.mouseover" end="arrowDown.mouseout"/>
                  </use>
                  <path fill="none" stroke="white" stroke-width="1.5" d="M0,-3.0v7 M-2.5,-0.5L0,-3.0L2.5,-0.5"/>
                </g>
                <g id="arrowLeft" xlink:href="#dirArrow" transform="rotate(270) translate(-36 17)" onmousedown="handlePan(-1,0)">
                  <use xlink:href="#rim" fill="#404040">
                        <set attributeName="fill" to="#808080" begin="arrowLeft.mouseover" end="arrowLeft.mouseout"/>
                  </use>
                  <path fill="none" stroke="white" stroke-width="1.5" d="M0,-3.0v7 M-2.5,-0.5L0,-3.0L2.5,-0.5"/>
                </g>
        </g>
        <svg viewBox="0 0 15 15" width="100%" height="30px" preserveAspectRatio="xMaxYMin meet">
         <g id="arrow_out" transform="scale(0.3 0.3)">
          <a xlink:href="a00566_a5ba31c15070952d0c4cb442c7e257f50_cgraph_org.svg" target="_base">
           <rect id="button" ry="5" rx="5" y="6" x="6" height="38" width="38"
                fill="#f2f5e9" fill-opacity="0.5" stroke="#606060" stroke-width="1.0"/>
           <path id="arrow"
             d="M 11.500037,31.436501 C 11.940474,20.09759 22.043105,11.32322 32.158766,21.979434 L 37.068811,17.246167 C 37.068811,17.246167 37.088388,32 37.088388,32 L 22.160133,31.978069 C 22.160133,31.978069 26.997745,27.140456 26.997745,27.140456 C 18.528582,18.264221 13.291696,25.230495 11.500037,31.436501 z"
             style="fill:#404040;"/>
          </a>
         </g>
        </svg>
</svg>
