<?xml version="1.0" encoding="UTF-8" standalone="no"?>
<!DOCTYPE svg PUBLIC "-//W3C//DTD SVG 1.1//EN"
 "http://www.w3.org/Graphics/SVG/1.1/DTD/svg11.dtd">
<!-- Generated by graphviz version 4.0.0 (20220602.1335)
 -->
<!-- Title: CGmm::updateState_ Pages: 1 -->
<!--zoomable 414 -->
<svg id="main" version="1.1" xmlns="http://www.w3.org/2000/svg" xmlns:xlink="http://www.w3.org/1999/xlink" xml:space="preserve" onload="init(evt)">
<style type="text/css"><![CDATA[
.edge:hover path { stroke: red; }
.edge:hover polygon { stroke: red; fill: red; }
]]></style>
<script type="text/javascript"><![CDATA[
var edges = document.getElementsByTagName('g');
if (edges && edges.length) {
  for (var i=0;i<edges.length;i++) {
    if (edges[i].id.substr(0,4)=='edge') {
      edges[i].setAttribute('class','edge');
    }
  }
}
]]></script>
        <defs>
                <circle id="rim" cx="0" cy="0" r="7"/>
                <circle id="rim2" cx="0" cy="0" r="3.5"/>
                <g id="zoomPlus">
                        <use xlink:href="#rim" fill="#404040">
                                <set attributeName="fill" to="#808080" begin="zoomplus.mouseover" end="zoomplus.mouseout"/>
                        </use>
                        <path d="M-4,0h8M0,-4v8" fill="none" stroke="white" stroke-width="1.5" pointer-events="none"/>
                </g>
                <g id="zoomMin">
                        <use xlink:href="#rim" fill="#404040">
                                <set attributeName="fill" to="#808080" begin="zoomminus.mouseover" end="zoomminus.mouseout"/>
                        </use>
                        <path d="M-4,0h8" fill="none" stroke="white" stroke-width="1.5" pointer-events="none"/>
                </g>
                <g id="dirArrow">
                        <path fill="none" stroke="white" stroke-width="1.5" d="M0,-3.0v7 M-2.5,-0.5L0,-3.0L2.5,-0.5"/>
                </g>
               <g id="resetDef">
                       <use xlink:href="#rim2" fill="#404040">
                               <set attributeName="fill" to="#808080" begin="reset.mouseover" end="reset.mouseout"/>
                       </use>
               </g>
        </defs>

<script type="text/javascript">
var viewWidth = 812;
var viewHeight = 414;
var sectionId = 'dynsection-14';
</script>
<script xlink:href="svgpan.js"/>
<svg id="graph" class="graph">
<g id="viewport">
<title>CGmm::updateState_</title>
<polygon fill="white" stroke="transparent" points="-4,4 -4,-409.62 808,-409.62 808,4 -4,4"/>
<!-- Node1 -->
<g id="node1" class="node">
<title>Node1</title>
<g id="a_node1"><a xlink:title=" ">
<polygon fill="#bfbfbf" stroke="black" points="0,-196.12 0,-215.12 110,-215.12 110,-196.12 0,-196.12"/>
<text text-anchor="middle" x="55" y="-203.12" font-family="Helvetica,sans-Serif" font-size="10.00">CGmm::updateState_</text>
</a>
</g>
</g>
<!-- Node2 -->
<g id="node2" class="node">
<title>Node2</title>
<g id="a_node2"><a xlink:href="a00498.xhtml#a62bd833ed1bdbff7387e8b2d51b09700" target="_top" xlink:title=" ">
<polygon fill="white" stroke="black" points="174.5,-386.12 174.5,-405.12 252.5,-405.12 252.5,-386.12 174.5,-386.12"/>
<text text-anchor="middle" x="213.5" y="-393.12" font-family="Helvetica,sans-Serif" font-size="10.00">CMatrix::add_I</text>
</a>
</g>
</g>
<!-- Node1&#45;&gt;Node2 -->
<g id="edge1" class="edge">
<title>Node1&#45;&gt;Node2</title>
<path fill="none" stroke="midnightblue" d="M58.27,-215.48C65.55,-244.76 91.06,-331.98 146,-376.62 151.45,-381.05 157.87,-384.44 164.55,-387.05"/>
<polygon fill="midnightblue" stroke="midnightblue" points="163.83,-390.49 174.42,-390.32 166.03,-383.85 163.83,-390.49"/>
</g>
<!-- Node3 -->
<g id="node3" class="node">
<title>Node3</title>
<g id="a_node3"><a xlink:href="a00514.xhtml#ae6e3545cf196c5e2409365bc62b7c1de" target="_top" xlink:title=" ">
<polygon fill="white" stroke="black" points="166.5,-348.12 166.5,-367.12 260.5,-367.12 260.5,-348.12 166.5,-348.12"/>
<text text-anchor="middle" x="213.5" y="-355.12" font-family="Helvetica,sans-Serif" font-size="10.00">CVector::getMean</text>
</a>
</g>
</g>
<!-- Node1&#45;&gt;Node3 -->
<g id="edge2" class="edge">
<title>Node1&#45;&gt;Node3</title>
<path fill="none" stroke="midnightblue" d="M60.18,-215.15C70.96,-238.67 101.96,-299.99 146,-333.62 151.44,-337.77 157.67,-341.26 164.08,-344.16"/>
<polygon fill="midnightblue" stroke="midnightblue" points="162.95,-347.48 173.53,-348.02 165.59,-341 162.95,-347.48"/>
</g>
<!-- Node4 -->
<g id="node4" class="node">
<title>Node4</title>
<g id="a_node4"><a xlink:href="a00514.xhtml#abdbcc3898121387f3694f74491b7331e" target="_top" xlink:title=" ">
<polygon fill="white" stroke="black" points="317,-319.12 317,-338.12 407,-338.12 407,-319.12 317,-319.12"/>
<text text-anchor="middle" x="362" y="-326.12" font-family="Helvetica,sans-Serif" font-size="10.00">CVector::getSum</text>
</a>
</g>
</g>
<!-- Node1&#45;&gt;Node4 -->
<g id="edge5" class="edge">
<title>Node1&#45;&gt;Node4</title>
<path fill="none" stroke="midnightblue" d="M61.78,-215.2C74.32,-235 106.12,-280.31 146,-300.62 196.26,-326.21 261.33,-331.44 306.67,-331.37"/>
<polygon fill="midnightblue" stroke="midnightblue" points="306.92,-334.87 316.88,-331.27 306.85,-327.87 306.92,-334.87"/>
</g>
<!-- Node5 -->
<g id="node5" class="node">
<title>Node5</title>
<g id="a_node5"><a xlink:href="a00574.xhtml#ac8162fe5ba550aafb9fcd45e22739d5f" target="_top" xlink:title=" ">
<polygon fill="white" stroke="black" points="160,-272.12 160,-291.12 267,-291.12 267,-272.12 160,-272.12"/>
<text text-anchor="middle" x="213.5" y="-279.12" font-family="Helvetica,sans-Serif" font-size="10.00">CGmmResult::getMu</text>
</a>
</g>
</g>
<!-- Node1&#45;&gt;Node5 -->
<g id="edge4" class="edge">
<title>Node1&#45;&gt;Node5</title>
<path fill="none" stroke="midnightblue" d="M70.85,-215.3C88.34,-226.44 118.51,-244.84 146,-257.62 154.58,-261.61 164.03,-265.37 173.04,-268.68"/>
<polygon fill="midnightblue" stroke="midnightblue" points="171.99,-272.03 182.58,-272.09 174.34,-265.43 171.99,-272.03"/>
</g>
<!-- Node6 -->
<g id="node6" class="node">
<title>Node6</title>
<g id="a_node6"><a xlink:href="a00498.xhtml#a49b68b5ae672826ed8c8e3b014e09769" target="_top" xlink:title=" ">
<polygon fill="white" stroke="black" points="319.5,-262.12 319.5,-281.12 404.5,-281.12 404.5,-262.12 319.5,-262.12"/>
<text text-anchor="middle" x="362" y="-269.12" font-family="Helvetica,sans-Serif" font-size="10.00">CMatrix::mulC_I</text>
</a>
</g>
</g>
<!-- Node1&#45;&gt;Node6 -->
<g id="edge6" class="edge">
<title>Node1&#45;&gt;Node6</title>
<path fill="none" stroke="midnightblue" d="M100.02,-215.15C155.54,-227.16 250.83,-247.78 309.62,-260.5"/>
<polygon fill="midnightblue" stroke="midnightblue" points="308.92,-263.93 319.44,-262.63 310.4,-257.09 308.92,-263.93"/>
</g>
<!-- Node8 -->
<g id="node8" class="node">
<title>Node8</title>
<g id="a_node8"><a xlink:href="a00498.xhtml#acfa52b112830fff980c9a7aa860c7d4e" target="_top" xlink:title=" ">
<polygon fill="white" stroke="black" points="146,-196.12 146,-215.12 281,-215.12 281,-196.12 146,-196.12"/>
<text text-anchor="middle" x="213.5" y="-203.12" font-family="Helvetica,sans-Serif" font-size="10.00">CMatrix::mulColvecRowvec</text>
</a>
</g>
</g>
<!-- Node1&#45;&gt;Node8 -->
<g id="edge8" class="edge">
<title>Node1&#45;&gt;Node8</title>
<path fill="none" stroke="midnightblue" d="M110.3,-205.62C118.55,-205.62 127.19,-205.62 135.8,-205.62"/>
<polygon fill="midnightblue" stroke="midnightblue" points="135.88,-209.12 145.88,-205.62 135.88,-202.12 135.88,-209.12"/>
</g>
<!-- Node9 -->
<g id="node9" class="node">
<title>Node9</title>
<g id="a_node9"><a xlink:href="a00514.xhtml#a269d316eeb6000aac4f57ade32c83127" target="_top" xlink:title=" ">
<polygon fill="white" stroke="black" points="163.5,-158.12 163.5,-177.12 263.5,-177.12 263.5,-158.12 163.5,-158.12"/>
<text text-anchor="middle" x="213.5" y="-165.12" font-family="Helvetica,sans-Serif" font-size="10.00">CVector::mulScalar</text>
</a>
</g>
</g>
<!-- Node1&#45;&gt;Node9 -->
<g id="edge9" class="edge">
<title>Node1&#45;&gt;Node9</title>
<path fill="none" stroke="midnightblue" d="M95.49,-196.03C116.14,-191.02 141.61,-184.83 163.51,-179.51"/>
<polygon fill="midnightblue" stroke="midnightblue" points="164.4,-182.9 173.29,-177.14 162.75,-176.1 164.4,-182.9"/>
</g>
<!-- Node10 -->
<g id="node10" class="node">
<title>Node10</title>
<g id="a_node10"><a xlink:href="a00574.xhtml#ab1f629b8a2796b9a64366dfc01b47f99" target="_top" xlink:title=" ">
<polygon fill="white" stroke="black" points="160,-120.12 160,-139.12 267,-139.12 267,-120.12 160,-120.12"/>
<text text-anchor="middle" x="213.5" y="-127.12" font-family="Helvetica,sans-Serif" font-size="10.00">CGmmResult::setMu</text>
</a>
</g>
</g>
<!-- Node1&#45;&gt;Node10 -->
<g id="edge10" class="edge">
<title>Node1&#45;&gt;Node10</title>
<path fill="none" stroke="midnightblue" d="M68.46,-196.09C85.25,-183.63 116.47,-161.86 146,-148.62 151.26,-146.26 156.89,-144.12 162.57,-142.19"/>
<polygon fill="midnightblue" stroke="midnightblue" points="163.63,-145.53 172.1,-139.16 161.51,-138.85 163.63,-145.53"/>
</g>
<!-- Node11 -->
<g id="node11" class="node">
<title>Node11</title>
<g id="a_node11"><a xlink:href="a00574.xhtml#a664515ad2f4fab6188ad24a91fdf7d7f" target="_top" xlink:title=" ">
<polygon fill="white" stroke="black" points="157,-82.12 157,-101.12 270,-101.12 270,-82.12 157,-82.12"/>
<text text-anchor="middle" x="213.5" y="-89.12" font-family="Helvetica,sans-Serif" font-size="10.00">CGmmResult::setPrior</text>
</a>
</g>
</g>
<!-- Node1&#45;&gt;Node11 -->
<g id="edge11" class="edge">
<title>Node1&#45;&gt;Node11</title>
<path fill="none" stroke="midnightblue" d="M62.44,-195.92C75.73,-176.69 108.12,-133.6 146,-110.62 149.58,-108.45 153.42,-106.51 157.38,-104.8"/>
<polygon fill="midnightblue" stroke="midnightblue" points="158.71,-108.03 166.78,-101.16 156.19,-101.5 158.71,-108.03"/>
</g>
<!-- Node12 -->
<g id="node12" class="node">
<title>Node12</title>
<g id="a_node12"><a xlink:href="a00574.xhtml#a73b45f72b704d8053dac9e408ed01799" target="_top" xlink:title=" ">
<polygon fill="white" stroke="black" points="153,-44.12 153,-63.12 274,-63.12 274,-44.12 153,-44.12"/>
<text text-anchor="middle" x="213.5" y="-51.12" font-family="Helvetica,sans-Serif" font-size="10.00">CGmmResult::setSigma</text>
</a>
</g>
</g>
<!-- Node1&#45;&gt;Node12 -->
<g id="edge12" class="edge">
<title>Node1&#45;&gt;Node12</title>
<path fill="none" stroke="midnightblue" d="M59.78,-195.88C69.85,-171.27 99.72,-106.16 146,-72.62 148.67,-70.68 151.54,-68.94 154.53,-67.38"/>
<polygon fill="midnightblue" stroke="midnightblue" points="156.11,-70.51 163.78,-63.2 153.22,-64.13 156.11,-70.51"/>
</g>
<!-- Node25 -->
<g id="node25" class="node">
<title>Node25</title>
<g id="a_node25"><a xlink:href="a00498.xhtml#a7be1ae4f635c5aaec0c2693fc23b3646" target="_top" xlink:title=" ">
<polygon fill="white" stroke="black" points="318.5,-6.12 318.5,-25.12 405.5,-25.12 405.5,-6.12 318.5,-6.12"/>
<text text-anchor="middle" x="362" y="-13.12" font-family="Helvetica,sans-Serif" font-size="10.00">CMatrix::setZero</text>
</a>
</g>
</g>
<!-- Node1&#45;&gt;Node25 -->
<g id="edge29" class="edge">
<title>Node1&#45;&gt;Node25</title>
<path fill="none" stroke="midnightblue" d="M57.73,-196.12C63.71,-166.3 86.51,-74.21 146,-34.62 193.85,-2.77 261.55,-2.27 308.14,-6.98"/>
<polygon fill="midnightblue" stroke="midnightblue" points="308,-10.49 318.32,-8.13 308.78,-3.53 308,-10.49"/>
</g>
<!-- Node3&#45;&gt;Node4 -->
<g id="edge3" class="edge">
<title>Node3&#45;&gt;Node4</title>
<path fill="none" stroke="midnightblue" d="M260.85,-348.44C275.43,-345.56 291.65,-342.35 306.73,-339.36"/>
<polygon fill="midnightblue" stroke="midnightblue" points="307.82,-342.72 316.95,-337.34 306.46,-335.85 307.82,-342.72"/>
</g>
<!-- Node7 -->
<g id="node7" class="node">
<title>Node7</title>
<g id="a_node7"><a xlink:href="a00514.xhtml#a9811f50434dd058d201290b2dc98bfcd" target="_top" xlink:title=" ">
<polygon fill="white" stroke="black" points="455,-272.12 455,-291.12 542,-291.12 542,-272.12 455,-272.12"/>
<text text-anchor="middle" x="498.5" y="-279.12" font-family="Helvetica,sans-Serif" font-size="10.00">CVector::mulC_I</text>
</a>
</g>
</g>
<!-- Node6&#45;&gt;Node7 -->
<g id="edge7" class="edge">
<title>Node6&#45;&gt;Node7</title>
<path fill="none" stroke="midnightblue" d="M404.82,-274.73C417.35,-275.66 431.27,-276.7 444.43,-277.67"/>
<polygon fill="midnightblue" stroke="midnightblue" points="444.55,-281.19 454.78,-278.44 445.07,-274.21 444.55,-281.19"/>
</g>
<!-- Node13 -->
<g id="node13" class="node">
<title>Node13</title>
<g id="a_node13"><a xlink:href="a00498.xhtml#a9f723a71e61f425d0ee9a51aa2162bf3" target="_top" xlink:title=" ">
<polygon fill="white" stroke="black" points="461.5,-44.12 461.5,-63.12 535.5,-63.12 535.5,-44.12 461.5,-44.12"/>
<text text-anchor="middle" x="498.5" y="-51.12" font-family="Helvetica,sans-Serif" font-size="10.00">CMatrix::copy</text>
</a>
</g>
</g>
<!-- Node12&#45;&gt;Node13 -->
<g id="edge13" class="edge">
<title>Node12&#45;&gt;Node13</title>
<path fill="none" stroke="midnightblue" d="M274.17,-53.62C326.9,-53.62 402.72,-53.62 451.04,-53.62"/>
<polygon fill="midnightblue" stroke="midnightblue" points="451.22,-57.12 461.22,-53.62 451.22,-50.12 451.22,-57.12"/>
</g>
<!-- Node15 -->
<g id="node15" class="node">
<title>Node15</title>
<g id="a_node15"><a xlink:href="a00498.xhtml#a37585f57926ea2921734907bacc6cce8" target="_top" xlink:title=" ">
<polygon fill="white" stroke="black" points="324.5,-139.12 324.5,-158.12 399.5,-158.12 399.5,-139.12 324.5,-139.12"/>
<text text-anchor="middle" x="362" y="-146.12" font-family="Helvetica,sans-Serif" font-size="10.00">CMatrix::inv_I</text>
</a>
</g>
</g>
<!-- Node12&#45;&gt;Node15 -->
<g id="edge15" class="edge">
<title>Node12&#45;&gt;Node15</title>
<path fill="none" stroke="midnightblue" d="M259.35,-63.22C266.83,-65.71 274.33,-68.81 281,-72.62 307.49,-87.75 331.98,-113.47 346.71,-130.74"/>
<polygon fill="midnightblue" stroke="midnightblue" points="344.4,-133.44 353.48,-138.91 349.79,-128.97 344.4,-133.44"/>
</g>
<!-- Node14 -->
<g id="node14" class="node">
<title>Node14</title>
<g id="a_node14"><a xlink:href="a00514.xhtml#ad7c5cba73e439adac77778f61c9418f0" target="_top" xlink:title=" ">
<polygon fill="white" stroke="black" points="596,-44.12 596,-63.12 673,-63.12 673,-44.12 596,-44.12"/>
<text text-anchor="middle" x="634.5" y="-51.12" font-family="Helvetica,sans-Serif" font-size="10.00">CVector::copy</text>
</a>
</g>
</g>
<!-- Node13&#45;&gt;Node14 -->
<g id="edge14" class="edge">
<title>Node13&#45;&gt;Node14</title>
<path fill="none" stroke="midnightblue" d="M535.76,-53.62C551.02,-53.62 569,-53.62 585.34,-53.62"/>
<polygon fill="midnightblue" stroke="midnightblue" points="585.81,-57.12 595.81,-53.62 585.81,-50.12 585.81,-57.12"/>
</g>
<!-- Node15&#45;&gt;Node7 -->
<g id="edge23" class="edge">
<title>Node15&#45;&gt;Node7</title>
<path fill="none" stroke="midnightblue" d="M367.88,-158.39C378.72,-179.23 406.75,-228.53 443,-257.62 447.75,-261.43 453.21,-264.76 458.78,-267.63"/>
<polygon fill="midnightblue" stroke="midnightblue" points="457.65,-270.96 468.19,-272.02 460.61,-264.62 457.65,-270.96"/>
</g>
<!-- Node15&#45;&gt;Node13 -->
<g id="edge19" class="edge">
<title>Node15&#45;&gt;Node13</title>
<path fill="none" stroke="midnightblue" d="M370.64,-139.1C383.83,-123.23 412.41,-91.27 443,-72.62 446.37,-70.57 449.99,-68.69 453.71,-67"/>
<polygon fill="midnightblue" stroke="midnightblue" points="455.15,-70.19 463.05,-63.13 452.48,-63.72 455.15,-70.19"/>
</g>
<!-- Node15&#45;&gt;Node15 -->
<g id="edge22" class="edge">
<title>Node15&#45;&gt;Node15</title>
<path fill="none" stroke="midnightblue" d="M341.04,-158.38C330.84,-167.18 337.83,-176.62 362,-176.62 377.49,-176.62 385.92,-172.75 387.3,-167.65"/>
<polygon fill="midnightblue" stroke="midnightblue" points="390.37,-165.95 382.96,-158.38 384.03,-168.92 390.37,-165.95"/>
</g>
<!-- Node16 -->
<g id="node16" class="node">
<title>Node16</title>
<g id="a_node16"><a xlink:href="a00498.xhtml#a6501b78d76c912d49eee88c8f7242923" target="_top" xlink:title=" ">
<polygon fill="white" stroke="black" points="461.5,-120.12 461.5,-139.12 535.5,-139.12 535.5,-120.12 461.5,-120.12"/>
<text text-anchor="middle" x="498.5" y="-127.12" font-family="Helvetica,sans-Serif" font-size="10.00">CMatrix::alloc</text>
</a>
</g>
</g>
<!-- Node15&#45;&gt;Node16 -->
<g id="edge16" class="edge">
<title>Node15&#45;&gt;Node16</title>
<path fill="none" stroke="midnightblue" d="M399.75,-143.43C415.6,-141.19 434.31,-138.55 451.1,-136.17"/>
<polygon fill="midnightblue" stroke="midnightblue" points="451.85,-139.6 461.26,-134.74 450.87,-132.67 451.85,-139.6"/>
</g>
<!-- Node19 -->
<g id="node19" class="node">
<title>Node19</title>
<g id="a_node19"><a xlink:href="a00498.xhtml#a591097c6b1935c4d6273b3445f8f552b" target="_top" xlink:title=" ">
<polygon fill="white" stroke="black" points="463,-82.12 463,-101.12 534,-101.12 534,-82.12 463,-82.12"/>
<text text-anchor="middle" x="498.5" y="-89.12" font-family="Helvetica,sans-Serif" font-size="10.00">CMatrix::free</text>
</a>
</g>
</g>
<!-- Node15&#45;&gt;Node19 -->
<g id="edge20" class="edge">
<title>Node15&#45;&gt;Node19</title>
<path fill="none" stroke="midnightblue" d="M381.81,-138.97C397.86,-130.92 421.66,-119.38 443,-110.62 448.04,-108.55 453.4,-106.5 458.71,-104.56"/>
<polygon fill="midnightblue" stroke="midnightblue" points="459.9,-107.85 468.15,-101.2 457.55,-101.26 459.9,-107.85"/>
</g>
<!-- Node21 -->
<g id="node21" class="node">
<title>Node21</title>
<g id="a_node21"><a xlink:href="a00498.xhtml#a8f27c49fcbbdb52e2e9a50f2b22f59c3" target="_top" xlink:title=" ">
<polygon fill="white" stroke="black" points="593,-234.12 593,-253.12 676,-253.12 676,-234.12 593,-234.12"/>
<text text-anchor="middle" x="634.5" y="-241.12" font-family="Helvetica,sans-Serif" font-size="10.00">CMatrix::setEye</text>
</a>
</g>
</g>
<!-- Node15&#45;&gt;Node21 -->
<g id="edge24" class="edge">
<title>Node15&#45;&gt;Node21</title>
<path fill="none" stroke="midnightblue" d="M369.61,-158.15C381.87,-174.94 409.91,-209.46 443,-224.62 487.2,-244.87 543.08,-248.18 582.86,-247.3"/>
<polygon fill="midnightblue" stroke="midnightblue" points="582.99,-250.8 592.87,-246.98 582.76,-243.8 582.99,-250.8"/>
</g>
<!-- Node22 -->
<g id="node22" class="node">
<title>Node22</title>
<g id="a_node22"><a xlink:href="a00514.xhtml#a4e5b5163bb46b8de5ac4013bde1ded00" target="_top" xlink:title=" ">
<polygon fill="white" stroke="black" points="454,-196.12 454,-215.12 543,-215.12 543,-196.12 454,-196.12"/>
<text text-anchor="middle" x="498.5" y="-203.12" font-family="Helvetica,sans-Serif" font-size="10.00">CVector::subW_I</text>
</a>
</g>
</g>
<!-- Node15&#45;&gt;Node22 -->
<g id="edge26" class="edge">
<title>Node15&#45;&gt;Node22</title>
<path fill="none" stroke="midnightblue" d="M381.81,-158.27C397.86,-166.32 421.66,-177.86 443,-186.62 448.04,-188.69 453.4,-190.74 458.71,-192.68"/>
<polygon fill="midnightblue" stroke="midnightblue" points="457.55,-195.98 468.15,-196.04 459.9,-189.39 457.55,-195.98"/>
</g>
<!-- Node24 -->
<g id="node24" class="node">
<title>Node24</title>
<g id="a_node24"><a xlink:href="a00498.xhtml#a559a4308e4b77c24a8544d4e26efe1e9" target="_top" xlink:title=" ">
<polygon fill="white" stroke="black" points="443,-158.12 443,-177.12 554,-177.12 554,-158.12 443,-158.12"/>
<text text-anchor="middle" x="498.5" y="-165.12" font-family="Helvetica,sans-Serif" font-size="10.00">CMatrix::swapRowCol</text>
</a>
</g>
</g>
<!-- Node15&#45;&gt;Node24 -->
<g id="edge28" class="edge">
<title>Node15&#45;&gt;Node24</title>
<path fill="none" stroke="midnightblue" d="M399.75,-153.81C410.04,-155.26 421.53,-156.89 432.93,-158.5"/>
<polygon fill="midnightblue" stroke="midnightblue" points="432.49,-161.97 442.88,-159.9 433.47,-155.04 432.49,-161.97"/>
</g>
<!-- Node17 -->
<g id="node17" class="node">
<title>Node17</title>
<g id="a_node17"><a xlink:href="a00514.xhtml#abaadac98b1cad18b7b568852bc951696" target="_top" xlink:title=" ">
<polygon fill="white" stroke="black" points="596,-120.12 596,-139.12 673,-139.12 673,-120.12 596,-120.12"/>
<text text-anchor="middle" x="634.5" y="-127.12" font-family="Helvetica,sans-Serif" font-size="10.00">CVector::alloc</text>
</a>
</g>
</g>
<!-- Node16&#45;&gt;Node17 -->
<g id="edge17" class="edge">
<title>Node16&#45;&gt;Node17</title>
<path fill="none" stroke="midnightblue" d="M535.76,-129.62C551.02,-129.62 569,-129.62 585.34,-129.62"/>
<polygon fill="midnightblue" stroke="midnightblue" points="585.81,-133.12 595.81,-129.62 585.81,-126.12 585.81,-133.12"/>
</g>
<!-- Node18 -->
<g id="node18" class="node">
<title>Node18</title>
<g id="a_node18"><a xlink:href="a00514.xhtml#a6dbb3f9f480568b60f7fe50090d20003" target="_top" xlink:title=" ">
<polygon fill="white" stroke="black" points="715,-120.12 715,-139.12 804,-139.12 804,-120.12 715,-120.12"/>
<text text-anchor="middle" x="759.5" y="-127.12" font-family="Helvetica,sans-Serif" font-size="10.00">CVector::setZero</text>
</a>
</g>
</g>
<!-- Node17&#45;&gt;Node18 -->
<g id="edge18" class="edge">
<title>Node17&#45;&gt;Node18</title>
<path fill="none" stroke="midnightblue" d="M673.07,-129.62C683.03,-129.62 693.98,-129.62 704.62,-129.62"/>
<polygon fill="midnightblue" stroke="midnightblue" points="704.69,-133.12 714.69,-129.62 704.69,-126.12 704.69,-133.12"/>
</g>
<!-- Node20 -->
<g id="node20" class="node">
<title>Node20</title>
<g id="a_node20"><a xlink:href="a00514.xhtml#aa86bdb0c663d4d52f2765793756f8737" target="_top" xlink:title=" ">
<polygon fill="white" stroke="black" points="598,-82.12 598,-101.12 671,-101.12 671,-82.12 598,-82.12"/>
<text text-anchor="middle" x="634.5" y="-89.12" font-family="Helvetica,sans-Serif" font-size="10.00">CVector::free</text>
</a>
</g>
</g>
<!-- Node19&#45;&gt;Node20 -->
<g id="edge21" class="edge">
<title>Node19&#45;&gt;Node20</title>
<path fill="none" stroke="midnightblue" d="M534.01,-91.62C550.34,-91.62 570.08,-91.62 587.65,-91.62"/>
<polygon fill="midnightblue" stroke="midnightblue" points="587.71,-95.12 597.71,-91.62 587.71,-88.12 587.71,-95.12"/>
</g>
<!-- Node21&#45;&gt;Node18 -->
<g id="edge25" class="edge">
<title>Node21&#45;&gt;Node18</title>
<path fill="none" stroke="midnightblue" d="M662.8,-234.01C668.43,-231.41 674.12,-228.28 679,-224.62 707.96,-202.93 733.19,-168.72 747.09,-147.81"/>
<polygon fill="midnightblue" stroke="midnightblue" points="750.14,-149.53 752.65,-139.24 744.27,-145.72 750.14,-149.53"/>
</g>
<!-- Node23 -->
<g id="node23" class="node">
<title>Node23</title>
<g id="a_node23"><a xlink:href="a00514.xhtml#a2239b170d46ed3d0846d766a0634a0be" target="_top" xlink:title=" ">
<polygon fill="white" stroke="black" points="590,-196.12 590,-215.12 679,-215.12 679,-196.12 590,-196.12"/>
<text text-anchor="middle" x="634.5" y="-203.12" font-family="Helvetica,sans-Serif" font-size="10.00">CVector::addW_I</text>
</a>
</g>
</g>
<!-- Node22&#45;&gt;Node23 -->
<g id="edge27" class="edge">
<title>Node22&#45;&gt;Node23</title>
<path fill="none" stroke="midnightblue" d="M543.01,-205.62C554.71,-205.62 567.5,-205.62 579.69,-205.62"/>
<polygon fill="midnightblue" stroke="midnightblue" points="579.75,-209.12 589.75,-205.62 579.75,-202.12 579.75,-209.12"/>
</g>
<!-- Node25&#45;&gt;Node18 -->
<g id="edge30" class="edge">
<title>Node25&#45;&gt;Node18</title>
<path fill="none" stroke="midnightblue" d="M405.6,-8.02C468.99,1.12 590.17,10.17 679,-34.62 711.95,-51.24 736.45,-88.26 749.02,-110.87"/>
<polygon fill="midnightblue" stroke="midnightblue" points="746.01,-112.67 753.81,-119.85 752.19,-109.38 746.01,-112.67"/>
</g>
</g>
</svg>
        <g id="navigator" transform="translate(0 0)" fill="#404254">
                <rect fill="#f2f5e9" fill-opacity="0.5" stroke="#606060" stroke-width=".5" x="0" y="0" width="60" height="60"/>
                <use id="zoomplus" xlink:href="#zoomPlus" x="17" y="9" onmousedown="handleZoom(evt,'in')"/>
                <use id="zoomminus" xlink:href="#zoomMin" x="42" y="9" onmousedown="handleZoom(evt,'out')"/>
                <use id="reset" xlink:href="#resetDef" x="30" y="36" onmousedown="handleReset()"/>
                <g id="arrowUp" xlink:href="#dirArrow" transform="translate(30 24)" onmousedown="handlePan(0,-1)">
                  <use xlink:href="#rim" fill="#404040">
                        <set attributeName="fill" to="#808080" begin="arrowUp.mouseover" end="arrowUp.mouseout"/>
                  </use>
                  <path fill="none" stroke="white" stroke-width="1.5" d="M0,-3.0v7 M-2.5,-0.5L0,-3.0L2.5,-0.5"/>
                </g>
                <g id="arrowRight" xlink:href="#dirArrow" transform="rotate(90) translate(36 -43)" onmousedown="handlePan(1,0)">
                  <use xlink:href="#rim" fill="#404040">
                        <set attributeName="fill" to="#808080" begin="arrowRight.mouseover" end="arrowRight.mouseout"/>
                  </use>
                  <path fill="none" stroke="white" stroke-width="1.5" d="M0,-3.0v7 M-2.5,-0.5L0,-3.0L2.5,-0.5"/>
                </g>
                <g id="arrowDown" xlink:href="#dirArrow" transform="rotate(180) translate(-30 -48)" onmousedown="handlePan(0,1)">
                  <use xlink:href="#rim" fill="#404040">
                        <set attributeName="fill" to="#808080" begin="arrowDown.mouseover" end="arrowDown.mouseout"/>
                  </use>
                  <path fill="none" stroke="white" stroke-width="1.5" d="M0,-3.0v7 M-2.5,-0.5L0,-3.0L2.5,-0.5"/>
                </g>
                <g id="arrowLeft" xlink:href="#dirArrow" transform="rotate(270) translate(-36 17)" onmousedown="handlePan(-1,0)">
                  <use xlink:href="#rim" fill="#404040">
                        <set attributeName="fill" to="#808080" begin="arrowLeft.mouseover" end="arrowLeft.mouseout"/>
                  </use>
                  <path fill="none" stroke="white" stroke-width="1.5" d="M0,-3.0v7 M-2.5,-0.5L0,-3.0L2.5,-0.5"/>
                </g>
        </g>
        <svg viewBox="0 0 15 15" width="100%" height="30px" preserveAspectRatio="xMaxYMin meet">
         <g id="arrow_out" transform="scale(0.3 0.3)">
          <a xlink:href="a00578_a0d3f000bb918b7d01ab12d5712d230cb_cgraph_org.svg" target="_base">
           <rect id="button" ry="5" rx="5" y="6" x="6" height="38" width="38"
                fill="#f2f5e9" fill-opacity="0.5" stroke="#606060" stroke-width="1.0"/>
           <path id="arrow"
             d="M 11.500037,31.436501 C 11.940474,20.09759 22.043105,11.32322 32.158766,21.979434 L 37.068811,17.246167 C 37.068811,17.246167 37.088388,32 37.088388,32 L 22.160133,31.978069 C 22.160133,31.978069 26.997745,27.140456 26.997745,27.140456 C 18.528582,18.264221 13.291696,25.230495 11.500037,31.436501 z"
             style="fill:#404040;"/>
          </a>
         </g>
        </svg>
</svg>
