<?xml version="1.0" encoding="UTF-8" standalone="no"?>
<!DOCTYPE svg PUBLIC "-//W3C//DTD SVG 1.1//EN"
 "http://www.w3.org/Graphics/SVG/1.1/DTD/svg11.dtd">
<!-- Generated by graphviz version 4.0.0 (20220602.1335)
 -->
<!-- Title: CVector::findMin Pages: 1 -->
<svg width="637pt" height="184pt"
 viewBox="0.00 0.00 637.00 184.00" xmlns="http://www.w3.org/2000/svg" xmlns:xlink="http://www.w3.org/1999/xlink">
<g id="graph0" class="graph" transform="scale(1 1) rotate(0) translate(4 180)">
<title>CVector::findMin</title>
<polygon fill="white" stroke="transparent" points="-4,4 -4,-180 633,-180 633,4 -4,4"/>
<!-- Node1 -->
<g id="node1" class="node">
<title>Node1</title>
<g id="a_node1"><a xlink:title=" ">
<polygon fill="#bfbfbf" stroke="black" points="542,-93.5 542,-112.5 629,-112.5 629,-93.5 542,-93.5"/>
<text text-anchor="middle" x="585.5" y="-100.5" font-family="Helvetica,sans-Serif" font-size="10.00">CVector::findMin</text>
</a>
</g>
</g>
<!-- Node2 -->
<g id="node2" class="node">
<title>Node2</title>
<g id="a_node2"><a xlink:href="a00620.xhtml#a2f3d4cb01621ea0e62f13871595a522b" target="_top" xlink:title=" ">
<polygon fill="white" stroke="black" points="348,-153.5 348,-172.5 506,-172.5 506,-153.5 348,-153.5"/>
<text text-anchor="middle" x="427" y="-160.5" font-family="Helvetica,sans-Serif" font-size="10.00">CKmeans::assignClusterLabels_</text>
</a>
</g>
</g>
<!-- Node1&#45;&gt;Node2 -->
<g id="edge1" class="edge">
<title>Node1&#45;&gt;Node2</title>
<path fill="none" stroke="midnightblue" d="M550.25,-116.13C520.88,-127.39 479.25,-143.35 452.94,-153.44"/>
<polygon fill="midnightblue" stroke="midnightblue" points="551.62,-119.36 559.7,-112.51 549.11,-112.82 551.62,-119.36"/>
</g>
<!-- Node4 -->
<g id="node4" class="node">
<title>Node4</title>
<g id="a_node4"><a xlink:href="a00516.xhtml#adf22d441c8866b9fe13aef59549e1cff" target="_top" xlink:title=" ">
<polygon fill="white" stroke="black" points="361.5,-28.5 361.5,-47.5 492.5,-47.5 492.5,-28.5 361.5,-28.5"/>
<text text-anchor="middle" x="427" y="-35.5" font-family="Helvetica,sans-Serif" font-size="10.00">CKeyFromChroma::getKey</text>
</a>
</g>
</g>
<!-- Node1&#45;&gt;Node4 -->
<g id="edge3" class="edge">
<title>Node1&#45;&gt;Node4</title>
<path fill="none" stroke="midnightblue" d="M552.14,-89.56C521.94,-77.02 477.64,-58.62 450.93,-47.52"/>
<polygon fill="midnightblue" stroke="midnightblue" points="550.83,-92.81 561.41,-93.41 553.52,-86.34 550.83,-92.81"/>
</g>
<!-- Node7 -->
<g id="node7" class="node">
<title>Node7</title>
<g id="a_node7"><a xlink:href="a00508.xhtml#a1f7f307c20239cfd2007393e2b3b26df" target="_top" xlink:title=" ">
<polygon fill="white" stroke="black" points="384,-93.5 384,-112.5 470,-112.5 470,-93.5 384,-93.5"/>
<text text-anchor="middle" x="427" y="-100.5" font-family="Helvetica,sans-Serif" font-size="10.00">CVector::getMin</text>
</a>
</g>
</g>
<!-- Node1&#45;&gt;Node7 -->
<g id="edge6" class="edge">
<title>Node1&#45;&gt;Node7</title>
<path fill="none" stroke="midnightblue" d="M531.53,-103C511.53,-103 489.06,-103 470.17,-103"/>
<polygon fill="midnightblue" stroke="midnightblue" points="531.74,-106.5 541.74,-103 531.74,-99.5 531.74,-106.5"/>
</g>
<!-- Node3 -->
<g id="node3" class="node">
<title>Node3</title>
<g id="a_node3"><a xlink:href="a00620.xhtml#ac9199a37d06a0d589118941f80f3f774" target="_top" xlink:title=" ">
<polygon fill="white" stroke="black" points="0,-156.5 0,-175.5 124,-175.5 124,-156.5 0,-156.5"/>
<text text-anchor="middle" x="62" y="-163.5" font-family="Helvetica,sans-Serif" font-size="10.00">CKmeans::compKmeans</text>
</a>
</g>
</g>
<!-- Node2&#45;&gt;Node3 -->
<g id="edge2" class="edge">
<title>Node2&#45;&gt;Node3</title>
<path fill="none" stroke="midnightblue" d="M337.66,-165.55C328.99,-165.74 320.32,-165.89 312,-166 247.92,-166.84 174.55,-166.71 124.14,-166.45"/>
<polygon fill="midnightblue" stroke="midnightblue" points="337.9,-169.05 347.82,-165.33 337.74,-162.05 337.9,-169.05"/>
</g>
<!-- Node5 -->
<g id="node5" class="node">
<title>Node5</title>
<g id="a_node5"><a xlink:href="a00512.xhtml#a343e6b52e9696244dd57d4db0f91d056" target="_top" xlink:title=" ">
<polygon fill="white" stroke="black" points="193.5,-0.5 193.5,-19.5 278.5,-19.5 278.5,-0.5 193.5,-0.5"/>
<text text-anchor="middle" x="236" y="-7.5" font-family="Helvetica,sans-Serif" font-size="10.00">CKey::compKey</text>
</a>
</g>
</g>
<!-- Node4&#45;&gt;Node5 -->
<g id="edge4" class="edge">
<title>Node4&#45;&gt;Node5</title>
<path fill="none" stroke="midnightblue" d="M351.61,-26.98C326.76,-23.3 299.97,-19.33 278.54,-16.15"/>
<polygon fill="midnightblue" stroke="midnightblue" points="351.34,-30.48 361.75,-28.48 352.37,-23.55 351.34,-30.48"/>
</g>
<!-- Node6 -->
<g id="node6" class="node">
<title>Node6</title>
<g id="a_node6"><a xlink:href="a00026.xhtml#a0ddf1224851353fc92bfbff6f499fa97" target="_top" xlink:title=" ">
<polygon fill="white" stroke="black" points="43,-0.5 43,-19.5 81,-19.5 81,-0.5 43,-0.5"/>
<text text-anchor="middle" x="62" y="-7.5" font-family="Helvetica,sans-Serif" font-size="10.00">main</text>
</a>
</g>
</g>
<!-- Node5&#45;&gt;Node6 -->
<g id="edge5" class="edge">
<title>Node5&#45;&gt;Node6</title>
<path fill="none" stroke="midnightblue" d="M182.96,-10C148.42,-10 105.18,-10 81.18,-10"/>
<polygon fill="midnightblue" stroke="midnightblue" points="183.36,-13.5 193.36,-10 183.36,-6.5 183.36,-13.5"/>
</g>
<!-- Node8 -->
<g id="node8" class="node">
<title>Node8</title>
<g id="a_node8"><a xlink:href="a00476.xhtml#a361ef81afe12623645546fbbeab30b14" target="_top" xlink:title=" ">
<polygon fill="white" stroke="black" points="160,-88 160,-118 312,-118 312,-88 160,-88"/>
<text text-anchor="start" x="168" y="-106" font-family="Helvetica,sans-Serif" font-size="10.00">CFeatureFromBlockIf</text>
<text text-anchor="middle" x="236" y="-95" font-family="Helvetica,sans-Serif" font-size="10.00">::compFeatureSpectralFlatness</text>
</a>
</g>
</g>
<!-- Node7&#45;&gt;Node8 -->
<g id="edge7" class="edge">
<title>Node7&#45;&gt;Node8</title>
<path fill="none" stroke="midnightblue" d="M373.4,-103C354.5,-103 332.79,-103 312.34,-103"/>
<polygon fill="midnightblue" stroke="midnightblue" points="373.58,-106.5 383.58,-103 373.58,-99.5 373.58,-106.5"/>
</g>
<!-- Node9 -->
<g id="node9" class="node">
<title>Node9</title>
<g id="a_node9"><a xlink:href="a00468.xhtml#a74d636d251089707e8a2cebafdac4317" target="_top" xlink:title=" ">
<polygon fill="white" stroke="black" points="167,-39 167,-69 305,-69 305,-39 167,-39"/>
<text text-anchor="start" x="175" y="-57" font-family="Helvetica,sans-Serif" font-size="10.00">CClassifierBase::compNorm</text>
<text text-anchor="middle" x="236" y="-46" font-family="Helvetica,sans-Serif" font-size="10.00">Constants</text>
</a>
</g>
</g>
<!-- Node7&#45;&gt;Node9 -->
<g id="edge8" class="edge">
<title>Node7&#45;&gt;Node9</title>
<path fill="none" stroke="midnightblue" d="M379.32,-90.9C353.84,-84.29 322.06,-76.05 295,-69.04"/>
<polygon fill="midnightblue" stroke="midnightblue" points="378.55,-94.31 389.11,-93.44 380.31,-87.54 378.55,-94.31"/>
</g>
<!-- Node12 -->
<g id="node12" class="node">
<title>Node12</title>
<g id="a_node12"><a xlink:href="a00620.xhtml#abb4a98131b43f0709329eec3f2d3559a" target="_top" xlink:title=" ">
<polygon fill="white" stroke="black" points="161,-137.5 161,-156.5 311,-156.5 311,-137.5 161,-137.5"/>
<text text-anchor="middle" x="236" y="-144.5" font-family="Helvetica,sans-Serif" font-size="10.00">CKmeans::reinitClusterMeans_</text>
</a>
</g>
</g>
<!-- Node7&#45;&gt;Node12 -->
<g id="edge11" class="edge">
<title>Node7&#45;&gt;Node12</title>
<path fill="none" stroke="midnightblue" d="M374.99,-114.88C344.54,-121.96 306.39,-130.84 277.93,-137.47"/>
<polygon fill="midnightblue" stroke="midnightblue" points="376.04,-118.22 384.99,-112.55 374.46,-111.41 376.04,-118.22"/>
</g>
<!-- Node10 -->
<g id="node10" class="node">
<title>Node10</title>
<g id="a_node10"><a xlink:href="a00576.xhtml#a81ef85945dec254c2a43ea83ffb513b9" target="_top" xlink:title=" ">
<polygon fill="white" stroke="black" points="7,-79.5 7,-98.5 117,-98.5 117,-79.5 7,-79.5"/>
<text text-anchor="middle" x="62" y="-86.5" font-family="Helvetica,sans-Serif" font-size="10.00">CGmmClassifier::train</text>
</a>
</g>
</g>
<!-- Node9&#45;&gt;Node10 -->
<g id="edge9" class="edge">
<title>Node9&#45;&gt;Node10</title>
<path fill="none" stroke="midnightblue" d="M156.64,-69.95C140.64,-73.2 124.3,-76.53 109.83,-79.47"/>
<polygon fill="midnightblue" stroke="midnightblue" points="157.43,-73.36 166.53,-67.93 156.03,-66.5 157.43,-73.36"/>
</g>
<!-- Node11 -->
<g id="node11" class="node">
<title>Node11</title>
<g id="a_node11"><a xlink:href="a00624.xhtml#a3baa7a5c0e44346d6782f8d52b547cc0" target="_top" xlink:title=" ">
<polygon fill="white" stroke="black" points="30,-41.5 30,-60.5 94,-60.5 94,-41.5 30,-41.5"/>
<text text-anchor="middle" x="62" y="-48.5" font-family="Helvetica,sans-Serif" font-size="10.00">CKnn::train</text>
</a>
</g>
</g>
<!-- Node9&#45;&gt;Node11 -->
<g id="edge10" class="edge">
<title>Node9&#45;&gt;Node11</title>
<path fill="none" stroke="midnightblue" d="M156.43,-52.63C134.32,-52.24 111.55,-51.85 94.02,-51.54"/>
<polygon fill="midnightblue" stroke="midnightblue" points="156.47,-56.13 166.53,-52.81 156.59,-49.13 156.47,-56.13"/>
</g>
<!-- Node12&#45;&gt;Node3 -->
<g id="edge12" class="edge">
<title>Node12&#45;&gt;Node3</title>
<path fill="none" stroke="midnightblue" d="M150.69,-156.31C141.69,-157.31 132.68,-158.3 124.03,-159.26"/>
<polygon fill="midnightblue" stroke="midnightblue" points="151.25,-159.77 160.81,-155.2 150.48,-152.81 151.25,-159.77"/>
</g>
</g>
</svg>
