<?xml version="1.0" encoding="UTF-8" standalone="no"?>
<!DOCTYPE svg PUBLIC "-//W3C//DTD SVG 1.1//EN"
 "http://www.w3.org/Graphics/SVG/1.1/DTD/svg11.dtd">
<!-- Generated by graphviz version 12.2.1 (20241206.2353)
 -->
<!-- Title: CGammaToneFbIf::reset_ Pages: 1 -->
<svg width="866pt" height="212pt"
 viewBox="0.00 0.00 865.75 212.25" xmlns="http://www.w3.org/2000/svg" xmlns:xlink="http://www.w3.org/1999/xlink">
<g id="graph0" class="graph" transform="scale(1 1) rotate(0) translate(4 208.25)">
<title>CGammaToneFbIf::reset_</title>
<!-- Node1 -->
<g id="Node000001" class="node">
<title>Node1</title>
<g id="a_Node000001"><a xlink:title="reset configuration">
<polygon fill="#999999" stroke="#666666" points="857.75,-111.25 730,-111.25 730,-92 857.75,-92 857.75,-111.25"/>
<text text-anchor="middle" x="793.88" y="-97.75" font-family="Helvetica,sans-Serif" font-size="10.00">CGammaToneFbIf::reset_</text>
</a>
</g>
</g>
<!-- Node2 -->
<g id="Node000002" class="node">
<title>Node2</title>
<g id="a_Node000002"><a xlink:href="a00425.xhtml#aec7867658e2991c8526c78666c960920" target="_top" xlink:title=" ">
<polygon fill="white" stroke="#666666" points="667.38,-159.88 534.38,-159.88 534.38,-129.38 667.38,-129.38 667.38,-159.88"/>
<text text-anchor="start" x="542.38" y="-146.38" font-family="Helvetica,sans-Serif" font-size="10.00">CGammaToneFbFromFile</text>
<text text-anchor="middle" x="600.88" y="-135.12" font-family="Helvetica,sans-Serif" font-size="10.00">::CGammaToneFbFromFile</text>
</a>
</g>
</g>
<!-- Node1&#45;&gt;Node2 -->
<g id="edge1_Node000001_Node000002" class="edge">
<title>Node1&#45;&gt;Node2</title>
<g id="a_edge1_Node000001_Node000002"><a xlink:title=" ">
<path fill="none" stroke="#63b8ff" d="M737.07,-114.19C715.36,-119.08 690.32,-124.71 667.73,-129.8"/>
<polygon fill="#63b8ff" stroke="#63b8ff" points="737.63,-117.65 746.62,-112.04 736.09,-110.82 737.63,-117.65"/>
</a>
</g>
</g>
<!-- Node3 -->
<g id="Node000003" class="node">
<title>Node3</title>
<g id="a_Node000003"><a xlink:href="a00561.xhtml#ac2de88f207d4482f3aa0c7be334da9c4" target="_top" xlink:title=" ">
<polygon fill="white" stroke="#666666" points="691.38,-111.25 510.38,-111.25 510.38,-92 691.38,-92 691.38,-111.25"/>
<text text-anchor="middle" x="600.88" y="-97.75" font-family="Helvetica,sans-Serif" font-size="10.00">CGammaToneFbIf::CGammaToneFbIf</text>
</a>
</g>
</g>
<!-- Node1&#45;&gt;Node3 -->
<g id="edge2_Node000001_Node000003" class="edge">
<title>Node1&#45;&gt;Node3</title>
<g id="a_edge2_Node000001_Node000003"><a xlink:title=" ">
<path fill="none" stroke="#63b8ff" d="M718.23,-101.62C709.5,-101.62 700.52,-101.62 691.62,-101.62"/>
<polygon fill="#63b8ff" stroke="#63b8ff" points="718.03,-105.13 728.03,-101.63 718.03,-98.13 718.03,-105.13"/>
</a>
</g>
</g>
<!-- Node14 -->
<g id="Node000014" class="node">
<title>Node14</title>
<g id="a_Node000014"><a xlink:href="a00561.xhtml#a901b757125a9622199ffc7ee63fd91ae" target="_top" xlink:title=" ">
<polygon fill="white" stroke="#666666" points="694,-74.25 507.75,-74.25 507.75,-55 694,-55 694,-74.25"/>
<text text-anchor="middle" x="600.88" y="-60.75" font-family="Helvetica,sans-Serif" font-size="10.00">CGammaToneFbIf::~CGammaToneFbIf</text>
</a>
</g>
</g>
<!-- Node1&#45;&gt;Node14 -->
<g id="edge13_Node000001_Node000014" class="edge">
<title>Node1&#45;&gt;Node14</title>
<g id="a_edge13_Node000001_Node000014"><a xlink:title=" ">
<path fill="none" stroke="#63b8ff" d="M729.66,-89.38C705.13,-84.63 677.37,-79.25 654,-74.72"/>
<polygon fill="#63b8ff" stroke="#63b8ff" points="728.71,-92.76 739.2,-91.23 730.05,-85.89 728.71,-92.76"/>
</a>
</g>
</g>
<!-- Node4 -->
<g id="Node000004" class="node">
<title>Node4</title>
<g id="a_Node000004"><a xlink:href="a00561.xhtml#acaf81407affa5b8a931a61178868ea45" target="_top" xlink:title=" ">
<polygon fill="white" stroke="#666666" points="471.75,-204.25 290.75,-204.25 290.75,-185 471.75,-185 471.75,-204.25"/>
<text text-anchor="middle" x="381.25" y="-190.75" font-family="Helvetica,sans-Serif" font-size="10.00">CGammaToneFbIf::CGammaToneFbIf</text>
</a>
</g>
</g>
<!-- Node3&#45;&gt;Node4 -->
<g id="edge3_Node000003_Node000004" class="edge">
<title>Node3&#45;&gt;Node4</title>
<g id="a_edge3_Node000003_Node000004"><a xlink:title=" ">
<path fill="none" stroke="#63b8ff" d="M514.66,-116.41C512.28,-117.7 509.97,-119.1 507.75,-120.62 483.35,-137.37 496.19,-159.94 471.75,-176.62 467.17,-179.75 462.17,-182.36 456.95,-184.53"/>
<polygon fill="#63b8ff" stroke="#63b8ff" points="515.87,-119.7 523.46,-112.31 512.92,-113.36 515.87,-119.7"/>
</a>
</g>
</g>
<!-- Node5 -->
<g id="Node000005" class="node">
<title>Node5</title>
<g id="a_Node000005"><a xlink:href="a00561.xhtml#aacec8e884009d9b7f3b4f64bf49ab77e" target="_top" xlink:title=" ">
<polygon fill="white" stroke="#666666" points="445.12,-167.25 317.38,-167.25 317.38,-148 445.12,-148 445.12,-167.25"/>
<text text-anchor="middle" x="381.25" y="-153.75" font-family="Helvetica,sans-Serif" font-size="10.00">CGammaToneFbIf::create</text>
</a>
</g>
</g>
<!-- Node3&#45;&gt;Node5 -->
<g id="edge4_Node000003_Node000005" class="edge">
<title>Node3&#45;&gt;Node5</title>
<g id="a_edge4_Node000003_Node000005"><a xlink:title=" ">
<path fill="none" stroke="#63b8ff" d="M527.91,-114.4C521.02,-116.24 514.21,-118.31 507.75,-120.62 490.72,-126.74 488.79,-133.56 471.75,-139.62 463.09,-142.71 453.76,-145.32 444.51,-147.51"/>
<polygon fill="#63b8ff" stroke="#63b8ff" points="528.42,-117.88 537.28,-112.07 526.73,-111.09 528.42,-117.88"/>
</a>
</g>
</g>
<!-- Node6 -->
<g id="Node000006" class="node">
<title>Node6</title>
<g id="a_Node000006"><a xlink:href="a00561.xhtml#a19cabc50a7c022f869871ae9602061cd" target="_top" xlink:title=" ">
<polygon fill="white" stroke="#666666" points="445.12,-130.25 317.38,-130.25 317.38,-111 445.12,-111 445.12,-130.25"/>
<text text-anchor="middle" x="381.25" y="-116.75" font-family="Helvetica,sans-Serif" font-size="10.00">CGammaToneFbIf::create</text>
</a>
</g>
</g>
<!-- Node3&#45;&gt;Node6 -->
<g id="edge5_Node000003_Node000006" class="edge">
<title>Node3&#45;&gt;Node6</title>
<g id="a_edge5_Node000003_Node000006"><a xlink:title=" ">
<path fill="none" stroke="#63b8ff" d="M498.86,-110.44C480.71,-112.03 462.28,-113.64 445.58,-115.1"/>
<polygon fill="#63b8ff" stroke="#63b8ff" points="498.94,-113.95 508.59,-109.59 498.33,-106.98 498.94,-113.95"/>
</a>
</g>
</g>
<!-- Node10 -->
<g id="Node000010" class="node">
<title>Node10</title>
<g id="a_Node000010"><a xlink:href="a00561.xhtml#a4f9a54535402efadb25424661a8d6638" target="_top" xlink:title=" ">
<polygon fill="white" stroke="#666666" points="445.12,-93.25 317.38,-93.25 317.38,-74 445.12,-74 445.12,-93.25"/>
<text text-anchor="middle" x="381.25" y="-79.75" font-family="Helvetica,sans-Serif" font-size="10.00">CGammaToneFbIf::create</text>
</a>
</g>
</g>
<!-- Node3&#45;&gt;Node10 -->
<g id="edge9_Node000003_Node000010" class="edge">
<title>Node3&#45;&gt;Node10</title>
<g id="a_edge9_Node000003_Node000010"><a xlink:title=" ">
<path fill="none" stroke="#63b8ff" d="M498.86,-93.27C480.71,-91.77 462.28,-90.24 445.58,-88.86"/>
<polygon fill="#63b8ff" stroke="#63b8ff" points="498.34,-96.74 508.59,-94.08 498.92,-89.76 498.34,-96.74"/>
</a>
</g>
</g>
<!-- Node11 -->
<g id="Node000011" class="node">
<title>Node11</title>
<g id="a_Node000011"><a xlink:href="a00561.xhtml#ab7ebd623237cc28b195f0fd291707bf8" target="_top" xlink:title=" ">
<polygon fill="white" stroke="#666666" points="447.38,-56.25 315.12,-56.25 315.12,-37 447.38,-37 447.38,-56.25"/>
<text text-anchor="middle" x="381.25" y="-42.75" font-family="Helvetica,sans-Serif" font-size="10.00">CGammaToneFbIf::destroy</text>
</a>
</g>
</g>
<!-- Node3&#45;&gt;Node11 -->
<g id="edge10_Node000003_Node000011" class="edge">
<title>Node3&#45;&gt;Node11</title>
<g id="a_edge10_Node000003_Node000011"><a xlink:title=" ">
<path fill="none" stroke="#63b8ff" d="M524.34,-88.75C518.67,-87.21 513.09,-85.51 507.75,-83.62 490.69,-77.6 488.79,-70.69 471.75,-64.62 463.09,-61.54 453.76,-58.93 444.51,-56.74"/>
<polygon fill="#63b8ff" stroke="#63b8ff" points="523.28,-92.09 533.83,-91.14 524.99,-85.3 523.28,-92.09"/>
</a>
</g>
</g>
<!-- Node13 -->
<g id="Node000013" class="node">
<title>Node13</title>
<g id="a_Node000013"><a xlink:href="a00561.xhtml#aea375ca66d511a19e3a0f2dce77ba482" target="_top" xlink:title=" ">
<polygon fill="white" stroke="#666666" points="452.25,-19.25 310.25,-19.25 310.25,0 452.25,0 452.25,-19.25"/>
<text text-anchor="middle" x="381.25" y="-5.75" font-family="Helvetica,sans-Serif" font-size="10.00">CGammaToneFbIf::operator=</text>
</a>
</g>
</g>
<!-- Node3&#45;&gt;Node13 -->
<g id="edge12_Node000003_Node000013" class="edge">
<title>Node3&#45;&gt;Node13</title>
<g id="a_edge12_Node000003_Node000013"><a xlink:title=" ">
<path fill="none" stroke="#63b8ff" d="M512.61,-86.66C510.95,-85.7 509.33,-84.69 507.75,-83.62 483.27,-67.01 496.19,-44.31 471.75,-27.62 465.86,-23.6 459.27,-20.44 452.42,-17.96"/>
<polygon fill="#63b8ff" stroke="#63b8ff" points="510.66,-89.59 521.18,-90.85 513.73,-83.31 510.66,-89.59"/>
</a>
</g>
</g>
<!-- Node7 -->
<g id="Node000007" class="node">
<title>Node7</title>
<g id="a_Node000007"><a xlink:href="a00393.xhtml#af5f08be46100a7ecbc5450f52a96c77e" target="_top" xlink:title=" ">
<polygon fill="white" stroke="#666666" points="252.12,-135.88 145.38,-135.88 145.38,-105.38 252.12,-105.38 252.12,-135.88"/>
<text text-anchor="start" x="153.38" y="-122.38" font-family="Helvetica,sans-Serif" font-size="10.00">CPitchTimeAuditory</text>
<text text-anchor="middle" x="198.75" y="-111.12" font-family="Helvetica,sans-Serif" font-size="10.00">::CPitchTimeAuditory</text>
</a>
</g>
</g>
<!-- Node6&#45;&gt;Node7 -->
<g id="edge6_Node000006_Node000007" class="edge">
<title>Node6&#45;&gt;Node7</title>
<g id="a_edge6_Node000006_Node000007"><a xlink:title=" ">
<path fill="none" stroke="#63b8ff" d="M305.79,-120.62C287.87,-120.62 269.08,-120.62 252.38,-120.62"/>
<polygon fill="#63b8ff" stroke="#63b8ff" points="305.61,-124.13 315.61,-120.63 305.61,-117.13 305.61,-124.13"/>
</a>
</g>
</g>
<!-- Node8 -->
<g id="Node000008" class="node">
<title>Node8</title>
<g id="a_Node000008"><a xlink:href="a00393.xhtml#a11f411e863bb51d4b6709f2da2265859" target="_top" xlink:title="disallow copy construction">
<polygon fill="white" stroke="#666666" points="106.75,-159.88 0,-159.88 0,-129.38 106.75,-129.38 106.75,-159.88"/>
<text text-anchor="start" x="8" y="-146.38" font-family="Helvetica,sans-Serif" font-size="10.00">CPitchTimeAuditory</text>
<text text-anchor="middle" x="53.38" y="-135.12" font-family="Helvetica,sans-Serif" font-size="10.00">::CPitchTimeAuditory</text>
</a>
</g>
</g>
<!-- Node7&#45;&gt;Node8 -->
<g id="edge7_Node000007_Node000008" class="edge">
<title>Node7&#45;&gt;Node8</title>
<g id="a_edge7_Node000007_Node000008"><a xlink:title=" ">
<path fill="none" stroke="#63b8ff" d="M133.9,-131.31C124.89,-132.82 115.71,-134.36 106.94,-135.83"/>
<polygon fill="#63b8ff" stroke="#63b8ff" points="134.4,-134.78 143.68,-129.68 133.24,-127.87 134.4,-134.78"/>
</a>
</g>
</g>
<!-- Node9 -->
<g id="Node000009" class="node">
<title>Node9</title>
<g id="a_Node000009"><a xlink:href="a00393.xhtml#ac78dd42c996a8e981d75811810eb264e" target="_top" xlink:title=" ">
<polygon fill="white" stroke="#666666" points="104.5,-110.88 2.25,-110.88 2.25,-80.38 104.5,-80.38 104.5,-110.88"/>
<text text-anchor="start" x="10.25" y="-97.38" font-family="Helvetica,sans-Serif" font-size="10.00">CPitchTimeAuditory</text>
<text text-anchor="middle" x="53.38" y="-86.12" font-family="Helvetica,sans-Serif" font-size="10.00">::operator=</text>
</a>
</g>
</g>
<!-- Node7&#45;&gt;Node9 -->
<g id="edge8_Node000007_Node000009" class="edge">
<title>Node7&#45;&gt;Node9</title>
<g id="a_edge8_Node000007_Node000009"><a xlink:title=" ">
<path fill="none" stroke="#63b8ff" d="M134.12,-109.53C124.22,-107.8 114.11,-106.04 104.56,-104.37"/>
<polygon fill="#63b8ff" stroke="#63b8ff" points="133.23,-112.93 143.69,-111.2 134.44,-106.03 133.23,-112.93"/>
</a>
</g>
</g>
<!-- Node12 -->
<g id="Node000012" class="node">
<title>Node12</title>
<g id="a_Node000012"><a xlink:href="a00393.xhtml#aafe950d4f08df5a8d47f44cb827ce4a0" target="_top" xlink:title=" ">
<polygon fill="white" stroke="#666666" points="254.75,-61.88 142.75,-61.88 142.75,-31.38 254.75,-31.38 254.75,-61.88"/>
<text text-anchor="start" x="150.75" y="-48.38" font-family="Helvetica,sans-Serif" font-size="10.00">CPitchTimeAuditory</text>
<text text-anchor="middle" x="198.75" y="-37.12" font-family="Helvetica,sans-Serif" font-size="10.00">::~CPitchTimeAuditory</text>
</a>
</g>
</g>
<!-- Node11&#45;&gt;Node12 -->
<g id="edge11_Node000011_Node000012" class="edge">
<title>Node11&#45;&gt;Node12</title>
<g id="a_edge11_Node000011_Node000012"><a xlink:title=" ">
<path fill="none" stroke="#63b8ff" d="M303.67,-46.62C287.37,-46.62 270.46,-46.62 255.13,-46.62"/>
<polygon fill="#63b8ff" stroke="#63b8ff" points="303.32,-50.13 313.32,-46.63 303.32,-43.13 303.32,-50.13"/>
</a>
</g>
</g>
</g>
</svg>
