<?xml version="1.0" encoding="UTF-8" standalone="no"?>
<!DOCTYPE svg PUBLIC "-//W3C//DTD SVG 1.1//EN"
 "http://www.w3.org/Graphics/SVG/1.1/DTD/svg11.dtd">
<!-- Generated by graphviz version 4.0.0 (20220602.1335)
 -->
<!-- Title: CGmmClassifier::classify Pages: 1 -->
<svg width="837pt" height="371pt"
 viewBox="0.00 0.00 837.00 371.35" xmlns="http://www.w3.org/2000/svg" xmlns:xlink="http://www.w3.org/1999/xlink">
<g id="graph0" class="graph" transform="scale(1 1) rotate(0) translate(4 367.35)">
<title>CGmmClassifier::classify</title>
<polygon fill="white" stroke="transparent" points="-4,4 -4,-367.35 833,-367.35 833,4 -4,4"/>
<!-- Node1 -->
<g id="node1" class="node">
<title>Node1</title>
<g id="a_node1"><a xlink:title=" ">
<polygon fill="#bfbfbf" stroke="black" points="0,-133.5 0,-152.5 125,-152.5 125,-133.5 0,-133.5"/>
<text text-anchor="middle" x="62.5" y="-140.5" font-family="Helvetica,sans-Serif" font-size="10.00">CGmmClassifier::classify</text>
</a>
</g>
</g>
<!-- Node2 -->
<g id="node2" class="node">
<title>Node2</title>
<g id="a_node2"><a xlink:href="a00502.xhtml#ad7c5cba73e439adac77778f61c9418f0" target="_top" xlink:title=" ">
<polygon fill="white" stroke="black" points="627,-342.5 627,-361.5 704,-361.5 704,-342.5 627,-342.5"/>
<text text-anchor="middle" x="665.5" y="-349.5" font-family="Helvetica,sans-Serif" font-size="10.00">CVector::copy</text>
</a>
</g>
</g>
<!-- Node1&#45;&gt;Node2 -->
<g id="edge1" class="edge">
<title>Node1&#45;&gt;Node2</title>
<path fill="none" stroke="midnightblue" d="M75.83,-152.6C123.98,-189.32 305.29,-320.71 480,-357 525.74,-366.5 579.22,-363.56 616.79,-359.26"/>
<polygon fill="midnightblue" stroke="midnightblue" points="617.44,-362.71 626.95,-358.03 616.6,-355.76 617.44,-362.71"/>
</g>
<!-- Node3 -->
<g id="node3" class="node">
<title>Node3</title>
<g id="a_node3"><a xlink:href="a00562.xhtml#a1633da1eb011a7c745a689de687c4d95" target="_top" xlink:title=" ">
<polygon fill="white" stroke="black" points="170,-133.5 170,-152.5 283,-152.5 283,-133.5 170,-133.5"/>
<text text-anchor="middle" x="226.5" y="-140.5" font-family="Helvetica,sans-Serif" font-size="10.00">CGmmResult::getProb</text>
</a>
</g>
</g>
<!-- Node1&#45;&gt;Node3 -->
<g id="edge2" class="edge">
<title>Node1&#45;&gt;Node3</title>
<path fill="none" stroke="midnightblue" d="M125.21,-143C136.43,-143 148.19,-143 159.53,-143"/>
<polygon fill="midnightblue" stroke="midnightblue" points="159.81,-146.5 169.81,-143 159.81,-139.5 159.81,-146.5"/>
</g>
<!-- Node19 -->
<g id="node19" class="node">
<title>Node19</title>
<g id="a_node19"><a xlink:href="a00462.xhtml#ac6a2a71d24b2beaa2b183d8659fd93f8" target="_top" xlink:title=" ">
<polygon fill="white" stroke="black" points="161,-33 161,-63 292,-63 292,-33 161,-33"/>
<text text-anchor="start" x="169" y="-51" font-family="Helvetica,sans-Serif" font-size="10.00">CClassifierBase::normalize</text>
<text text-anchor="middle" x="226.5" y="-40" font-family="Helvetica,sans-Serif" font-size="10.00">Vector</text>
</a>
</g>
</g>
<!-- Node1&#45;&gt;Node19 -->
<g id="edge21" class="edge">
<title>Node1&#45;&gt;Node19</title>
<path fill="none" stroke="midnightblue" d="M79.92,-133.37C105.84,-118.17 156.79,-88.29 191,-68.23"/>
<polygon fill="midnightblue" stroke="midnightblue" points="192.89,-71.18 199.74,-63.1 189.35,-65.14 192.89,-71.18"/>
</g>
<!-- Node3&#45;&gt;Node2 -->
<g id="edge3" class="edge">
<title>Node3&#45;&gt;Node2</title>
<path fill="none" stroke="midnightblue" d="M236.4,-152.75C266.72,-185.22 370.16,-290.01 480,-333 523.99,-350.22 578.15,-353.94 616.38,-353.98"/>
<polygon fill="midnightblue" stroke="midnightblue" points="616.75,-357.48 626.72,-353.9 616.7,-350.48 616.75,-357.48"/>
</g>
<!-- Node4 -->
<g id="node4" class="node">
<title>Node4</title>
<g id="a_node4"><a xlink:href="a00486.xhtml#a94f8dc8ac650eac777b33257a8ee1207" target="_top" xlink:title=" ">
<polygon fill="white" stroke="black" points="352,-190.5 352,-209.5 420,-209.5 420,-190.5 352,-190.5"/>
<text text-anchor="middle" x="386" y="-197.5" font-family="Helvetica,sans-Serif" font-size="10.00">CMatrix::det</text>
</a>
</g>
</g>
<!-- Node3&#45;&gt;Node4 -->
<g id="edge4" class="edge">
<title>Node3&#45;&gt;Node4</title>
<path fill="none" stroke="midnightblue" d="M252.18,-152.64C272.46,-160.5 301.99,-171.75 328,-181 333.73,-183.04 339.81,-185.13 345.77,-187.15"/>
<polygon fill="midnightblue" stroke="midnightblue" points="345.04,-190.6 355.63,-190.46 347.26,-183.96 345.04,-190.6"/>
</g>
<!-- Node15 -->
<g id="node15" class="node">
<title>Node15</title>
<g id="a_node15"><a xlink:href="a00562.xhtml#a6ea26c159c443a542714a537ef685ab6" target="_top" xlink:title=" ">
<polygon fill="white" stroke="black" points="329.5,-152.5 329.5,-171.5 442.5,-171.5 442.5,-152.5 329.5,-152.5"/>
<text text-anchor="middle" x="386" y="-159.5" font-family="Helvetica,sans-Serif" font-size="10.00">CGmmResult::getPrior</text>
</a>
</g>
</g>
<!-- Node3&#45;&gt;Node15 -->
<g id="edge16" class="edge">
<title>Node3&#45;&gt;Node15</title>
<path fill="none" stroke="midnightblue" d="M283.03,-149.7C294.79,-151.12 307.31,-152.63 319.41,-154.09"/>
<polygon fill="midnightblue" stroke="midnightblue" points="319.09,-157.57 329.44,-155.3 319.93,-150.63 319.09,-157.57"/>
</g>
<!-- Node16 -->
<g id="node16" class="node">
<title>Node16</title>
<g id="a_node16"><a xlink:href="a00486.xhtml#a05a5555eb9e7b63c5534cee3f525a03c" target="_top" xlink:title=" ">
<polygon fill="white" stroke="black" points="328,-114.5 328,-133.5 444,-133.5 444,-114.5 328,-114.5"/>
<text text-anchor="middle" x="386" y="-121.5" font-family="Helvetica,sans-Serif" font-size="10.00">CMatrix::mulMatColvec</text>
</a>
</g>
</g>
<!-- Node3&#45;&gt;Node16 -->
<g id="edge17" class="edge">
<title>Node3&#45;&gt;Node16</title>
<path fill="none" stroke="midnightblue" d="M283.03,-136.3C294.26,-134.95 306.19,-133.51 317.77,-132.11"/>
<polygon fill="midnightblue" stroke="midnightblue" points="318.33,-135.57 327.84,-130.9 317.5,-128.62 318.33,-135.57"/>
</g>
<!-- Node17 -->
<g id="node17" class="node">
<title>Node17</title>
<g id="a_node17"><a xlink:href="a00502.xhtml#a269d316eeb6000aac4f57ade32c83127" target="_top" xlink:title=" ">
<polygon fill="white" stroke="black" points="485.5,-38.5 485.5,-57.5 585.5,-57.5 585.5,-38.5 485.5,-38.5"/>
<text text-anchor="middle" x="535.5" y="-45.5" font-family="Helvetica,sans-Serif" font-size="10.00">CVector::mulScalar</text>
</a>
</g>
</g>
<!-- Node3&#45;&gt;Node17 -->
<g id="edge19" class="edge">
<title>Node3&#45;&gt;Node17</title>
<path fill="none" stroke="midnightblue" d="M250.84,-133.48C271.07,-125.39 301.22,-113.74 328,-105 381.52,-87.54 443.94,-70.8 486.03,-60.03"/>
<polygon fill="midnightblue" stroke="midnightblue" points="486.92,-63.42 495.74,-57.56 485.19,-56.63 486.92,-63.42"/>
</g>
<!-- Node18 -->
<g id="node18" class="node">
<title>Node18</title>
<g id="a_node18"><a xlink:href="a00502.xhtml#a39329371d828db80c2f0ad037074c998" target="_top" xlink:title=" ">
<polygon fill="white" stroke="black" points="346,-38.5 346,-57.5 426,-57.5 426,-38.5 346,-38.5"/>
<text text-anchor="middle" x="386" y="-45.5" font-family="Helvetica,sans-Serif" font-size="10.00">CVector::sub_I</text>
</a>
</g>
</g>
<!-- Node3&#45;&gt;Node18 -->
<g id="edge20" class="edge">
<title>Node3&#45;&gt;Node18</title>
<path fill="none" stroke="midnightblue" d="M239.32,-133.36C257.55,-118.8 294.01,-90.87 328,-72 334.71,-68.27 342.12,-64.76 349.31,-61.62"/>
<polygon fill="midnightblue" stroke="midnightblue" points="351.03,-64.7 358.9,-57.6 348.33,-58.24 351.03,-64.7"/>
</g>
<!-- Node5 -->
<g id="node5" class="node">
<title>Node5</title>
<g id="a_node5"><a xlink:href="a00502.xhtml#a3a052b83e62e5c5cc44829c64ffe42eb" target="_top" xlink:title=" ">
<polygon fill="white" stroke="black" points="495.5,-304.5 495.5,-323.5 575.5,-323.5 575.5,-304.5 495.5,-304.5"/>
<text text-anchor="middle" x="535.5" y="-311.5" font-family="Helvetica,sans-Serif" font-size="10.00">CVector::add_I</text>
</a>
</g>
</g>
<!-- Node4&#45;&gt;Node5 -->
<g id="edge5" class="edge">
<title>Node4&#45;&gt;Node5</title>
<path fill="none" stroke="midnightblue" d="M393.85,-209.5C407.93,-228.38 442.01,-270.87 480,-295 483.15,-297 486.53,-298.82 490.01,-300.46"/>
<polygon fill="midnightblue" stroke="midnightblue" points="488.8,-303.75 499.37,-304.44 491.54,-297.31 488.8,-303.75"/>
</g>
<!-- Node6 -->
<g id="node6" class="node">
<title>Node6</title>
<g id="a_node6"><a xlink:href="a00502.xhtml#a2239b170d46ed3d0846d766a0634a0be" target="_top" xlink:title=" ">
<polygon fill="white" stroke="black" points="491,-266.5 491,-285.5 580,-285.5 580,-266.5 491,-266.5"/>
<text text-anchor="middle" x="535.5" y="-273.5" font-family="Helvetica,sans-Serif" font-size="10.00">CVector::addW_I</text>
</a>
</g>
</g>
<!-- Node4&#45;&gt;Node6 -->
<g id="edge6" class="edge">
<title>Node4&#45;&gt;Node6</title>
<path fill="none" stroke="midnightblue" d="M400.65,-209.66C418.33,-221.87 450.4,-242.97 480,-257 484.41,-259.09 489.11,-261.07 493.84,-262.91"/>
<polygon fill="midnightblue" stroke="midnightblue" points="492.89,-266.29 503.48,-266.48 495.32,-259.73 492.89,-266.29"/>
</g>
<!-- Node7 -->
<g id="node7" class="node">
<title>Node7</title>
<g id="a_node7"><a xlink:href="a00486.xhtml#a6501b78d76c912d49eee88c8f7242923" target="_top" xlink:title=" ">
<polygon fill="white" stroke="black" points="498.5,-190.5 498.5,-209.5 572.5,-209.5 572.5,-190.5 498.5,-190.5"/>
<text text-anchor="middle" x="535.5" y="-197.5" font-family="Helvetica,sans-Serif" font-size="10.00">CMatrix::alloc</text>
</a>
</g>
</g>
<!-- Node4&#45;&gt;Node7 -->
<g id="edge7" class="edge">
<title>Node4&#45;&gt;Node7</title>
<path fill="none" stroke="midnightblue" d="M420.1,-200C440.19,-200 466.14,-200 488.24,-200"/>
<polygon fill="midnightblue" stroke="midnightblue" points="488.41,-203.5 498.41,-200 488.41,-196.5 488.41,-203.5"/>
</g>
<!-- Node10 -->
<g id="node10" class="node">
<title>Node10</title>
<g id="a_node10"><a xlink:href="a00486.xhtml#aa633cf46c2b3938a1a7a8199c31051dd" target="_top" xlink:title=" ">
<polygon fill="white" stroke="black" points="498.5,-228.5 498.5,-247.5 572.5,-247.5 572.5,-228.5 498.5,-228.5"/>
<text text-anchor="middle" x="535.5" y="-235.5" font-family="Helvetica,sans-Serif" font-size="10.00">CMatrix::copy</text>
</a>
</g>
</g>
<!-- Node4&#45;&gt;Node10 -->
<g id="edge10" class="edge">
<title>Node4&#45;&gt;Node10</title>
<path fill="none" stroke="midnightblue" d="M420.1,-208.53C440.28,-213.73 466.37,-220.45 488.54,-226.16"/>
<polygon fill="midnightblue" stroke="midnightblue" points="487.85,-229.6 498.41,-228.7 489.6,-222.82 487.85,-229.6"/>
</g>
<!-- Node11 -->
<g id="node11" class="node">
<title>Node11</title>
<g id="a_node11"><a xlink:href="a00486.xhtml#a591097c6b1935c4d6273b3445f8f552b" target="_top" xlink:title=" ">
<polygon fill="white" stroke="black" points="500,-152.5 500,-171.5 571,-171.5 571,-152.5 500,-152.5"/>
<text text-anchor="middle" x="535.5" y="-159.5" font-family="Helvetica,sans-Serif" font-size="10.00">CMatrix::free</text>
</a>
</g>
</g>
<!-- Node4&#45;&gt;Node11 -->
<g id="edge12" class="edge">
<title>Node4&#45;&gt;Node11</title>
<path fill="none" stroke="midnightblue" d="M420.1,-191.47C440.73,-186.16 467.52,-179.26 489.99,-173.47"/>
<polygon fill="midnightblue" stroke="midnightblue" points="491.16,-176.78 499.97,-170.9 489.41,-170 491.16,-176.78"/>
</g>
<!-- Node13 -->
<g id="node13" class="node">
<title>Node13</title>
<g id="a_node13"><a xlink:href="a00502.xhtml#a9811f50434dd058d201290b2dc98bfcd" target="_top" xlink:title=" ">
<polygon fill="white" stroke="black" points="492,-114.5 492,-133.5 579,-133.5 579,-114.5 492,-114.5"/>
<text text-anchor="middle" x="535.5" y="-121.5" font-family="Helvetica,sans-Serif" font-size="10.00">CVector::mulC_I</text>
</a>
</g>
</g>
<!-- Node4&#45;&gt;Node13 -->
<g id="edge14" class="edge">
<title>Node4&#45;&gt;Node13</title>
<path fill="none" stroke="midnightblue" d="M420.2,-191.97C428.34,-189.2 436.79,-185.59 444,-181 463.62,-168.5 460.46,-155.63 480,-143 483.08,-141.01 486.4,-139.19 489.83,-137.55"/>
<polygon fill="midnightblue" stroke="midnightblue" points="491.23,-140.76 499.04,-133.59 488.47,-134.32 491.23,-140.76"/>
</g>
<!-- Node14 -->
<g id="node14" class="node">
<title>Node14</title>
<g id="a_node14"><a xlink:href="a00486.xhtml#a559a4308e4b77c24a8544d4e26efe1e9" target="_top" xlink:title=" ">
<polygon fill="white" stroke="black" points="480,-76.5 480,-95.5 591,-95.5 591,-76.5 480,-76.5"/>
<text text-anchor="middle" x="535.5" y="-83.5" font-family="Helvetica,sans-Serif" font-size="10.00">CMatrix::swapRowCol</text>
</a>
</g>
</g>
<!-- Node4&#45;&gt;Node14 -->
<g id="edge15" class="edge">
<title>Node4&#45;&gt;Node14</title>
<path fill="none" stroke="midnightblue" d="M420.14,-193.86C428.65,-191.05 437.29,-186.95 444,-181 471.97,-156.21 452.2,-129.98 480,-105 481.89,-103.3 483.94,-101.75 486.11,-100.34"/>
<polygon fill="midnightblue" stroke="midnightblue" points="487.78,-103.41 494.88,-95.55 484.43,-97.27 487.78,-103.41"/>
</g>
<!-- Node8 -->
<g id="node8" class="node">
<title>Node8</title>
<g id="a_node8"><a xlink:href="a00502.xhtml#abaadac98b1cad18b7b568852bc951696" target="_top" xlink:title=" ">
<polygon fill="white" stroke="black" points="627,-190.5 627,-209.5 704,-209.5 704,-190.5 627,-190.5"/>
<text text-anchor="middle" x="665.5" y="-197.5" font-family="Helvetica,sans-Serif" font-size="10.00">CVector::alloc</text>
</a>
</g>
</g>
<!-- Node7&#45;&gt;Node8 -->
<g id="edge8" class="edge">
<title>Node7&#45;&gt;Node8</title>
<path fill="none" stroke="midnightblue" d="M572.84,-200C586.4,-200 602.01,-200 616.46,-200"/>
<polygon fill="midnightblue" stroke="midnightblue" points="616.73,-203.5 626.73,-200 616.73,-196.5 616.73,-203.5"/>
</g>
<!-- Node9 -->
<g id="node9" class="node">
<title>Node9</title>
<g id="a_node9"><a xlink:href="a00502.xhtml#a6dbb3f9f480568b60f7fe50090d20003" target="_top" xlink:title=" ">
<polygon fill="white" stroke="black" points="740,-190.5 740,-209.5 829,-209.5 829,-190.5 740,-190.5"/>
<text text-anchor="middle" x="784.5" y="-197.5" font-family="Helvetica,sans-Serif" font-size="10.00">CVector::setZero</text>
</a>
</g>
</g>
<!-- Node8&#45;&gt;Node9 -->
<g id="edge9" class="edge">
<title>Node8&#45;&gt;Node9</title>
<path fill="none" stroke="midnightblue" d="M704.16,-200C712.33,-200 721.11,-200 729.76,-200"/>
<polygon fill="midnightblue" stroke="midnightblue" points="729.8,-203.5 739.8,-200 729.8,-196.5 729.8,-203.5"/>
</g>
<!-- Node10&#45;&gt;Node2 -->
<g id="edge11" class="edge">
<title>Node10&#45;&gt;Node2</title>
<path fill="none" stroke="midnightblue" d="M572.56,-247.25C579.03,-249.81 585.47,-253.02 591,-257 619.49,-277.51 642.29,-312.12 654.57,-333.43"/>
<polygon fill="midnightblue" stroke="midnightblue" points="651.67,-335.4 659.59,-342.44 657.78,-332 651.67,-335.4"/>
</g>
<!-- Node12 -->
<g id="node12" class="node">
<title>Node12</title>
<g id="a_node12"><a xlink:href="a00502.xhtml#aa86bdb0c663d4d52f2765793756f8737" target="_top" xlink:title=" ">
<polygon fill="white" stroke="black" points="629,-152.5 629,-171.5 702,-171.5 702,-152.5 629,-152.5"/>
<text text-anchor="middle" x="665.5" y="-159.5" font-family="Helvetica,sans-Serif" font-size="10.00">CVector::free</text>
</a>
</g>
</g>
<!-- Node11&#45;&gt;Node12 -->
<g id="edge13" class="edge">
<title>Node11&#45;&gt;Node12</title>
<path fill="none" stroke="midnightblue" d="M571.14,-162C585.84,-162 603.17,-162 618.89,-162"/>
<polygon fill="midnightblue" stroke="midnightblue" points="618.94,-165.5 628.94,-162 618.94,-158.5 618.94,-165.5"/>
</g>
<!-- Node16&#45;&gt;Node17 -->
<g id="edge18" class="edge">
<title>Node16&#45;&gt;Node17</title>
<path fill="none" stroke="midnightblue" d="M414.92,-114.47C424.5,-110.63 435.05,-105.74 444,-100 462.27,-88.28 461.37,-78.14 480,-67 483.39,-64.98 487.02,-63.12 490.75,-61.44"/>
<polygon fill="midnightblue" stroke="midnightblue" points="492.18,-64.64 500.11,-57.6 489.53,-58.16 492.18,-64.64"/>
</g>
<!-- Node19&#45;&gt;Node18 -->
<g id="edge23" class="edge">
<title>Node19&#45;&gt;Node18</title>
<path fill="none" stroke="midnightblue" d="M292.02,-48C306.5,-48 321.65,-48 335.42,-48"/>
<polygon fill="midnightblue" stroke="midnightblue" points="335.64,-51.5 345.64,-48 335.64,-44.5 335.64,-51.5"/>
</g>
<!-- Node20 -->
<g id="node20" class="node">
<title>Node20</title>
<g id="a_node20"><a xlink:href="a00502.xhtml#a5fb59528a3f5d3968f988d550b270898" target="_top" xlink:title=" ">
<polygon fill="white" stroke="black" points="346,-0.5 346,-19.5 426,-19.5 426,-0.5 346,-0.5"/>
<text text-anchor="middle" x="386" y="-7.5" font-family="Helvetica,sans-Serif" font-size="10.00">CVector::mul_I</text>
</a>
</g>
</g>
<!-- Node19&#45;&gt;Node20 -->
<g id="edge22" class="edge">
<title>Node19&#45;&gt;Node20</title>
<path fill="none" stroke="midnightblue" d="M289.75,-32.98C305.12,-29.27 321.37,-25.35 336,-21.82"/>
<polygon fill="midnightblue" stroke="midnightblue" points="336.95,-25.19 345.85,-19.45 335.31,-18.39 336.95,-25.19"/>
</g>
</g>
</svg>
