<?xml version="1.0" encoding="UTF-8" standalone="no"?>
<!DOCTYPE svg PUBLIC "-//W3C//DTD SVG 1.1//EN"
 "http://www.w3.org/Graphics/SVG/1.1/DTD/svg11.dtd">
<!-- Generated by graphviz version 4.0.0 (20220602.1335)
 -->
<!-- Title: CGmm::compProbabilities_ Pages: 1 -->
<svg width="696pt" height="522pt"
 viewBox="0.00 0.00 696.00 522.00" xmlns="http://www.w3.org/2000/svg" xmlns:xlink="http://www.w3.org/1999/xlink">
<g id="graph0" class="graph" transform="scale(1 1) rotate(0) translate(4 518)">
<title>CGmm::compProbabilities_</title>
<polygon fill="white" stroke="transparent" points="-4,4 -4,-518 692,-518 692,4 -4,4"/>
<!-- Node1 -->
<g id="node1" class="node">
<title>Node1</title>
<g id="a_node1"><a xlink:title=" ">
<polygon fill="#bfbfbf" stroke="black" points="0,-171.5 0,-190.5 134,-190.5 134,-171.5 0,-171.5"/>
<text text-anchor="middle" x="67" y="-178.5" font-family="Helvetica,sans-Serif" font-size="10.00">CGmm::compProbabilities_</text>
</a>
</g>
</g>
<!-- Node2 -->
<g id="node2" class="node">
<title>Node2</title>
<g id="a_node2"><a xlink:href="a00479.xhtml#a7de6a75fccded32c57d3fe168263204f" target="_top" xlink:title=" ">
<polygon fill="white" stroke="black" points="196.5,-370.5 196.5,-389.5 264.5,-389.5 264.5,-370.5 196.5,-370.5"/>
<text text-anchor="middle" x="230.5" y="-377.5" font-family="Helvetica,sans-Serif" font-size="10.00">CMatrix::det</text>
</a>
</g>
</g>
<!-- Node1&#45;&gt;Node2 -->
<g id="edge1" class="edge">
<title>Node1&#45;&gt;Node2</title>
<path fill="none" stroke="midnightblue" d="M71.54,-190.76C82.21,-219.05 116.72,-302.16 170,-351 176.51,-356.97 184.49,-361.97 192.45,-366.05"/>
<polygon fill="midnightblue" stroke="midnightblue" points="191.17,-369.31 201.71,-370.41 194.15,-362.98 191.17,-369.31"/>
</g>
<!-- Node12 -->
<g id="node12" class="node">
<title>Node12</title>
<g id="a_node12"><a xlink:href="a00495.xhtml#a9811f50434dd058d201290b2dc98bfcd" target="_top" xlink:title=" ">
<polygon fill="white" stroke="black" points="339,-190.5 339,-209.5 426,-209.5 426,-190.5 339,-190.5"/>
<text text-anchor="middle" x="382.5" y="-197.5" font-family="Helvetica,sans-Serif" font-size="10.00">CVector::mulC_I</text>
</a>
</g>
</g>
<!-- Node1&#45;&gt;Node12 -->
<g id="edge28" class="edge">
<title>Node1&#45;&gt;Node12</title>
<path fill="none" stroke="midnightblue" d="M76.64,-190.64C92.89,-207.95 129.96,-243.72 170,-257 221.04,-273.93 240.88,-276.5 291,-257 311.23,-249.13 308.83,-235.87 327,-224 332.82,-220.2 339.33,-216.75 345.78,-213.71"/>
<polygon fill="midnightblue" stroke="midnightblue" points="347.37,-216.83 355.1,-209.58 344.54,-210.44 347.37,-216.83"/>
</g>
<!-- Node14 -->
<g id="node14" class="node">
<title>Node14</title>
<g id="a_node14"><a xlink:href="a00555.xhtml#ac8162fe5ba550aafb9fcd45e22739d5f" target="_top" xlink:title=" ">
<polygon fill="white" stroke="black" points="177,-228.5 177,-247.5 284,-247.5 284,-228.5 177,-228.5"/>
<text text-anchor="middle" x="230.5" y="-235.5" font-family="Helvetica,sans-Serif" font-size="10.00">CGmmResult::getMu</text>
</a>
</g>
</g>
<!-- Node1&#45;&gt;Node14 -->
<g id="edge13" class="edge">
<title>Node1&#45;&gt;Node14</title>
<path fill="none" stroke="midnightblue" d="M92.61,-190.54C113.2,-198.44 143.39,-209.8 170,-219 176.05,-221.09 182.48,-223.23 188.79,-225.28"/>
<polygon fill="midnightblue" stroke="midnightblue" points="187.93,-228.69 198.53,-228.42 190.08,-222.02 187.93,-228.69"/>
</g>
<!-- Node15 -->
<g id="node15" class="node">
<title>Node15</title>
<g id="a_node15"><a xlink:href="a00555.xhtml#a6ea26c159c443a542714a537ef685ab6" target="_top" xlink:title=" ">
<polygon fill="white" stroke="black" points="174,-190.5 174,-209.5 287,-209.5 287,-190.5 174,-190.5"/>
<text text-anchor="middle" x="230.5" y="-197.5" font-family="Helvetica,sans-Serif" font-size="10.00">CGmmResult::getPrior</text>
</a>
</g>
</g>
<!-- Node1&#45;&gt;Node15 -->
<g id="edge14" class="edge">
<title>Node1&#45;&gt;Node15</title>
<path fill="none" stroke="midnightblue" d="M134.15,-188.78C143.92,-189.93 153.97,-191.11 163.73,-192.26"/>
<polygon fill="midnightblue" stroke="midnightblue" points="163.42,-195.75 173.76,-193.44 164.24,-188.8 163.42,-195.75"/>
</g>
<!-- Node16 -->
<g id="node16" class="node">
<title>Node16</title>
<g id="a_node16"><a xlink:href="a00555.xhtml#af55e479c24cc7bc39baf5f17a26d0865" target="_top" xlink:title=" ">
<polygon fill="white" stroke="black" points="170,-152.5 170,-171.5 291,-171.5 291,-152.5 170,-152.5"/>
<text text-anchor="middle" x="230.5" y="-159.5" font-family="Helvetica,sans-Serif" font-size="10.00">CGmmResult::getSigma</text>
</a>
</g>
</g>
<!-- Node1&#45;&gt;Node16 -->
<g id="edge15" class="edge">
<title>Node1&#45;&gt;Node16</title>
<path fill="none" stroke="midnightblue" d="M134.15,-173.22C142.67,-172.22 151.41,-171.19 159.98,-170.18"/>
<polygon fill="midnightblue" stroke="midnightblue" points="160.41,-173.65 169.93,-169.01 159.59,-166.7 160.41,-173.65"/>
</g>
<!-- Node17 -->
<g id="node17" class="node">
<title>Node17</title>
<g id="a_node17"><a xlink:href="a00479.xhtml#a3ba15aa7afd8b1b8310a67c79b81411f" target="_top" xlink:title=" ">
<polygon fill="white" stroke="black" points="179.5,-114.5 179.5,-133.5 281.5,-133.5 281.5,-114.5 179.5,-114.5"/>
<text text-anchor="middle" x="230.5" y="-121.5" font-family="Helvetica,sans-Serif" font-size="10.00">CMatrix::getSumCol</text>
</a>
</g>
</g>
<!-- Node1&#45;&gt;Node17 -->
<g id="edge16" class="edge">
<title>Node1&#45;&gt;Node17</title>
<path fill="none" stroke="midnightblue" d="M92.61,-171.46C113.2,-163.56 143.39,-152.2 170,-143 176.05,-140.91 182.48,-138.77 188.79,-136.72"/>
<polygon fill="midnightblue" stroke="midnightblue" points="190.08,-139.98 198.53,-133.58 187.93,-133.31 190.08,-139.98"/>
</g>
<!-- Node18 -->
<g id="node18" class="node">
<title>Node18</title>
<g id="a_node18"><a xlink:href="a00479.xhtml#a37585f57926ea2921734907bacc6cce8" target="_top" xlink:title=" ">
<polygon fill="white" stroke="black" points="193,-304.5 193,-323.5 268,-323.5 268,-304.5 193,-304.5"/>
<text text-anchor="middle" x="230.5" y="-311.5" font-family="Helvetica,sans-Serif" font-size="10.00">CMatrix::inv_I</text>
</a>
</g>
</g>
<!-- Node1&#45;&gt;Node18 -->
<g id="edge17" class="edge">
<title>Node1&#45;&gt;Node18</title>
<path fill="none" stroke="midnightblue" d="M74.82,-190.78C89.8,-211.65 127.68,-260.98 170,-290 175.8,-293.98 182.36,-297.45 188.95,-300.43"/>
<polygon fill="midnightblue" stroke="midnightblue" points="187.97,-303.82 198.55,-304.44 190.67,-297.36 187.97,-303.82"/>
</g>
<!-- Node21 -->
<g id="node21" class="node">
<title>Node21</title>
<g id="a_node21"><a xlink:href="a00479.xhtml#ab2c870f61fb9cd998993b7899f658100" target="_top" xlink:title=" ">
<polygon fill="white" stroke="black" points="181,-76.5 181,-95.5 280,-95.5 280,-76.5 181,-76.5"/>
<text text-anchor="middle" x="230.5" y="-83.5" font-family="Helvetica,sans-Serif" font-size="10.00">CMatrix::mulColC_I</text>
</a>
</g>
</g>
<!-- Node1&#45;&gt;Node21 -->
<g id="edge29" class="edge">
<title>Node1&#45;&gt;Node21</title>
<path fill="none" stroke="midnightblue" d="M78.51,-171.27C96.18,-155.39 133.47,-123.78 170,-105 174.24,-102.82 178.77,-100.83 183.38,-99.03"/>
<polygon fill="midnightblue" stroke="midnightblue" points="184.65,-102.29 192.86,-95.59 182.27,-95.71 184.65,-102.29"/>
</g>
<!-- Node22 -->
<g id="node22" class="node">
<title>Node22</title>
<g id="a_node22"><a xlink:href="a00479.xhtml#ab0ca8e552db389f6323e1c3d26e59902" target="_top" xlink:title=" ">
<polygon fill="white" stroke="black" points="171.5,-0.5 171.5,-19.5 289.5,-19.5 289.5,-0.5 171.5,-0.5"/>
<text text-anchor="middle" x="230.5" y="-7.5" font-family="Helvetica,sans-Serif" font-size="10.00">CMatrix::mulMatColVec</text>
</a>
</g>
</g>
<!-- Node1&#45;&gt;Node22 -->
<g id="edge30" class="edge">
<title>Node1&#45;&gt;Node22</title>
<path fill="none" stroke="midnightblue" d="M72.26,-171.31C84.07,-145.47 119.75,-74.12 170,-34 175.03,-29.99 180.81,-26.56 186.76,-23.67"/>
<polygon fill="midnightblue" stroke="midnightblue" points="188.41,-26.77 196.16,-19.54 185.59,-20.36 188.41,-26.77"/>
</g>
<!-- Node23 -->
<g id="node23" class="node">
<title>Node23</title>
<g id="a_node23"><a xlink:href="a00495.xhtml#a269d316eeb6000aac4f57ade32c83127" target="_top" xlink:title=" ">
<polygon fill="white" stroke="black" points="332.5,-19.5 332.5,-38.5 432.5,-38.5 432.5,-19.5 332.5,-19.5"/>
<text text-anchor="middle" x="382.5" y="-26.5" font-family="Helvetica,sans-Serif" font-size="10.00">CVector::mulScalar</text>
</a>
</g>
</g>
<!-- Node1&#45;&gt;Node23 -->
<g id="edge32" class="edge">
<title>Node1&#45;&gt;Node23</title>
<path fill="none" stroke="midnightblue" d="M73.45,-171.41C86.73,-149.01 123.16,-93.16 170,-67 216.84,-40.84 277.79,-32.08 322.22,-29.43"/>
<polygon fill="midnightblue" stroke="midnightblue" points="322.48,-32.92 332.29,-28.91 322.12,-25.93 322.48,-32.92"/>
</g>
<!-- Node3 -->
<g id="node3" class="node">
<title>Node3</title>
<g id="a_node3"><a xlink:href="a00495.xhtml#a3a052b83e62e5c5cc44829c64ffe42eb" target="_top" xlink:title=" ">
<polygon fill="white" stroke="black" points="342.5,-494.5 342.5,-513.5 422.5,-513.5 422.5,-494.5 342.5,-494.5"/>
<text text-anchor="middle" x="382.5" y="-501.5" font-family="Helvetica,sans-Serif" font-size="10.00">CVector::add_I</text>
</a>
</g>
</g>
<!-- Node2&#45;&gt;Node3 -->
<g id="edge2" class="edge">
<title>Node2&#45;&gt;Node3</title>
<path fill="none" stroke="midnightblue" d="M238.65,-389.75C253.32,-409.17 288.67,-453.12 327,-480 332.39,-483.78 338.47,-487.16 344.56,-490.11"/>
<polygon fill="midnightblue" stroke="midnightblue" points="343.49,-493.47 354.05,-494.39 346.37,-487.09 343.49,-493.47"/>
</g>
<!-- Node4 -->
<g id="node4" class="node">
<title>Node4</title>
<g id="a_node4"><a xlink:href="a00495.xhtml#a2239b170d46ed3d0846d766a0634a0be" target="_top" xlink:title=" ">
<polygon fill="white" stroke="black" points="474,-437.5 474,-456.5 563,-456.5 563,-437.5 474,-437.5"/>
<text text-anchor="middle" x="518.5" y="-444.5" font-family="Helvetica,sans-Serif" font-size="10.00">CVector::addW_I</text>
</a>
</g>
</g>
<!-- Node2&#45;&gt;Node4 -->
<g id="edge3" class="edge">
<title>Node2&#45;&gt;Node4</title>
<path fill="none" stroke="midnightblue" d="M240.96,-389.74C256.94,-405.43 291.08,-435.66 327,-447 371.44,-461.03 424.67,-459.62 463.56,-455.51"/>
<polygon fill="midnightblue" stroke="midnightblue" points="464.08,-458.97 473.62,-454.35 463.28,-452.02 464.08,-458.97"/>
</g>
<!-- Node5 -->
<g id="node5" class="node">
<title>Node5</title>
<g id="a_node5"><a xlink:href="a00479.xhtml#a6501b78d76c912d49eee88c8f7242923" target="_top" xlink:title=" ">
<polygon fill="white" stroke="black" points="345.5,-304.5 345.5,-323.5 419.5,-323.5 419.5,-304.5 345.5,-304.5"/>
<text text-anchor="middle" x="382.5" y="-311.5" font-family="Helvetica,sans-Serif" font-size="10.00">CMatrix::alloc</text>
</a>
</g>
</g>
<!-- Node2&#45;&gt;Node5 -->
<g id="edge4" class="edge">
<title>Node2&#45;&gt;Node5</title>
<path fill="none" stroke="midnightblue" d="M251.36,-370.38C262.94,-364.76 277.81,-357.51 291,-351 307.04,-343.08 310.52,-339.96 327,-333 331.84,-330.96 336.98,-328.95 342.1,-327.06"/>
<polygon fill="midnightblue" stroke="midnightblue" points="343.59,-330.24 351.82,-323.57 341.23,-323.65 343.59,-330.24"/>
</g>
<!-- Node8 -->
<g id="node8" class="node">
<title>Node8</title>
<g id="a_node8"><a xlink:href="a00479.xhtml#a9f723a71e61f425d0ee9a51aa2162bf3" target="_top" xlink:title=" ">
<polygon fill="white" stroke="black" points="345.5,-342.5 345.5,-361.5 419.5,-361.5 419.5,-342.5 345.5,-342.5"/>
<text text-anchor="middle" x="382.5" y="-349.5" font-family="Helvetica,sans-Serif" font-size="10.00">CMatrix::copy</text>
</a>
</g>
</g>
<!-- Node2&#45;&gt;Node8 -->
<g id="edge7" class="edge">
<title>Node2&#45;&gt;Node8</title>
<path fill="none" stroke="midnightblue" d="M264.79,-373.79C285.62,-369.9 312.73,-364.84 335.59,-360.57"/>
<polygon fill="midnightblue" stroke="midnightblue" points="336.23,-364.01 345.42,-358.74 334.95,-357.13 336.23,-364.01"/>
</g>
<!-- Node10 -->
<g id="node10" class="node">
<title>Node10</title>
<g id="a_node10"><a xlink:href="a00479.xhtml#a591097c6b1935c4d6273b3445f8f552b" target="_top" xlink:title=" ">
<polygon fill="white" stroke="black" points="347,-380.5 347,-399.5 418,-399.5 418,-380.5 347,-380.5"/>
<text text-anchor="middle" x="382.5" y="-387.5" font-family="Helvetica,sans-Serif" font-size="10.00">CMatrix::free</text>
</a>
</g>
</g>
<!-- Node2&#45;&gt;Node10 -->
<g id="edge9" class="edge">
<title>Node2&#45;&gt;Node10</title>
<path fill="none" stroke="midnightblue" d="M264.79,-382.22C285.9,-383.63 313.47,-385.46 336.51,-387"/>
<polygon fill="midnightblue" stroke="midnightblue" points="336.53,-390.51 346.74,-387.68 336.99,-383.53 336.53,-390.51"/>
</g>
<!-- Node2&#45;&gt;Node12 -->
<g id="edge11" class="edge">
<title>Node2&#45;&gt;Node12</title>
<path fill="none" stroke="midnightblue" d="M261.9,-370.39C272.25,-365.88 283.16,-359.56 291,-351 321.22,-318.01 303.07,-294.8 327,-257 336.55,-241.92 350.5,-227.42 361.9,-216.82"/>
<polygon fill="midnightblue" stroke="midnightblue" points="364.57,-219.13 369.65,-209.83 359.88,-213.93 364.57,-219.13"/>
</g>
<!-- Node13 -->
<g id="node13" class="node">
<title>Node13</title>
<g id="a_node13"><a xlink:href="a00479.xhtml#a036ce0072f4da74a8809550d21eac9dd" target="_top" xlink:title=" ">
<polygon fill="white" stroke="black" points="327,-418.5 327,-437.5 438,-437.5 438,-418.5 327,-418.5"/>
<text text-anchor="middle" x="382.5" y="-425.5" font-family="Helvetica,sans-Serif" font-size="10.00">CMatrix::swapRowCol</text>
</a>
</g>
</g>
<!-- Node2&#45;&gt;Node13 -->
<g id="edge12" class="edge">
<title>Node2&#45;&gt;Node13</title>
<path fill="none" stroke="midnightblue" d="M261.49,-389.6C284.59,-396.99 316.72,-407.27 341.92,-415.34"/>
<polygon fill="midnightblue" stroke="midnightblue" points="340.97,-418.7 351.56,-418.42 343.1,-412.04 340.97,-418.7"/>
</g>
<!-- Node6 -->
<g id="node6" class="node">
<title>Node6</title>
<g id="a_node6"><a xlink:href="a00495.xhtml#abaadac98b1cad18b7b568852bc951696" target="_top" xlink:title=" ">
<polygon fill="white" stroke="black" points="480,-294.5 480,-313.5 557,-313.5 557,-294.5 480,-294.5"/>
<text text-anchor="middle" x="518.5" y="-301.5" font-family="Helvetica,sans-Serif" font-size="10.00">CVector::alloc</text>
</a>
</g>
</g>
<!-- Node5&#45;&gt;Node6 -->
<g id="edge5" class="edge">
<title>Node5&#45;&gt;Node6</title>
<path fill="none" stroke="midnightblue" d="M419.76,-311.29C435.17,-310.14 453.34,-308.79 469.81,-307.56"/>
<polygon fill="midnightblue" stroke="midnightblue" points="470.09,-311.05 479.81,-306.81 469.57,-304.07 470.09,-311.05"/>
</g>
<!-- Node7 -->
<g id="node7" class="node">
<title>Node7</title>
<g id="a_node7"><a xlink:href="a00495.xhtml#a6dbb3f9f480568b60f7fe50090d20003" target="_top" xlink:title=" ">
<polygon fill="white" stroke="black" points="599,-265.5 599,-284.5 688,-284.5 688,-265.5 599,-265.5"/>
<text text-anchor="middle" x="643.5" y="-272.5" font-family="Helvetica,sans-Serif" font-size="10.00">CVector::setZero</text>
</a>
</g>
</g>
<!-- Node6&#45;&gt;Node7 -->
<g id="edge6" class="edge">
<title>Node6&#45;&gt;Node7</title>
<path fill="none" stroke="midnightblue" d="M557.07,-295.14C568.22,-292.51 580.61,-289.59 592.42,-286.81"/>
<polygon fill="midnightblue" stroke="midnightblue" points="593.24,-290.21 602.17,-284.51 591.63,-283.4 593.24,-290.21"/>
</g>
<!-- Node9 -->
<g id="node9" class="node">
<title>Node9</title>
<g id="a_node9"><a xlink:href="a00495.xhtml#ad7c5cba73e439adac77778f61c9418f0" target="_top" xlink:title=" ">
<polygon fill="white" stroke="black" points="480,-342.5 480,-361.5 557,-361.5 557,-342.5 480,-342.5"/>
<text text-anchor="middle" x="518.5" y="-349.5" font-family="Helvetica,sans-Serif" font-size="10.00">CVector::copy</text>
</a>
</g>
</g>
<!-- Node8&#45;&gt;Node9 -->
<g id="edge8" class="edge">
<title>Node8&#45;&gt;Node9</title>
<path fill="none" stroke="midnightblue" d="M419.76,-352C435.02,-352 453,-352 469.34,-352"/>
<polygon fill="midnightblue" stroke="midnightblue" points="469.81,-355.5 479.81,-352 469.81,-348.5 469.81,-355.5"/>
</g>
<!-- Node11 -->
<g id="node11" class="node">
<title>Node11</title>
<g id="a_node11"><a xlink:href="a00495.xhtml#aa86bdb0c663d4d52f2765793756f8737" target="_top" xlink:title=" ">
<polygon fill="white" stroke="black" points="482,-380.5 482,-399.5 555,-399.5 555,-380.5 482,-380.5"/>
<text text-anchor="middle" x="518.5" y="-387.5" font-family="Helvetica,sans-Serif" font-size="10.00">CVector::free</text>
</a>
</g>
</g>
<!-- Node10&#45;&gt;Node11 -->
<g id="edge10" class="edge">
<title>Node10&#45;&gt;Node11</title>
<path fill="none" stroke="midnightblue" d="M418.01,-390C434.34,-390 454.08,-390 471.65,-390"/>
<polygon fill="midnightblue" stroke="midnightblue" points="471.71,-393.5 481.71,-390 471.71,-386.5 471.71,-393.5"/>
</g>
<!-- Node18&#45;&gt;Node5 -->
<g id="edge18" class="edge">
<title>Node18&#45;&gt;Node5</title>
<path fill="none" stroke="midnightblue" d="M268.19,-314C288.39,-314 313.66,-314 335.2,-314"/>
<polygon fill="midnightblue" stroke="midnightblue" points="335.44,-317.5 345.44,-314 335.44,-310.5 335.44,-317.5"/>
</g>
<!-- Node18&#45;&gt;Node8 -->
<g id="edge19" class="edge">
<title>Node18&#45;&gt;Node8</title>
<path fill="none" stroke="midnightblue" d="M268.19,-323.3C288.49,-328.44 313.89,-334.87 335.5,-340.35"/>
<polygon fill="midnightblue" stroke="midnightblue" points="334.89,-343.8 345.44,-342.87 336.61,-337.02 334.89,-343.8"/>
</g>
<!-- Node18&#45;&gt;Node10 -->
<g id="edge20" class="edge">
<title>Node18&#45;&gt;Node10</title>
<path fill="none" stroke="midnightblue" d="M245.56,-323.63C263.76,-335.81 296.73,-356.87 327,-371 331.42,-373.06 336.13,-375.03 340.86,-376.86"/>
<polygon fill="midnightblue" stroke="midnightblue" points="339.92,-380.24 350.51,-380.42 342.34,-373.67 339.92,-380.24"/>
</g>
<!-- Node18&#45;&gt;Node12 -->
<g id="edge22" class="edge">
<title>Node18&#45;&gt;Node12</title>
<path fill="none" stroke="midnightblue" d="M266.52,-304.48C275.2,-300.94 284.01,-296.22 291,-290 315.96,-267.78 302.4,-246.61 327,-224 331.14,-220.2 335.98,-216.93 341.04,-214.13"/>
<polygon fill="midnightblue" stroke="midnightblue" points="342.82,-217.15 350.26,-209.61 339.74,-210.87 342.82,-217.15"/>
</g>
<!-- Node18&#45;&gt;Node13 -->
<g id="edge27" class="edge">
<title>Node18&#45;&gt;Node13</title>
<path fill="none" stroke="midnightblue" d="M245.57,-323.53C258.19,-332.43 276.85,-346.49 291,-361 309.62,-380.09 305.47,-393.26 327,-409 329.63,-410.92 332.47,-412.66 335.42,-414.24"/>
<polygon fill="midnightblue" stroke="midnightblue" points="333.99,-417.43 344.54,-418.47 336.94,-411.08 333.99,-417.43"/>
</g>
<!-- Node18&#45;&gt;Node18 -->
<g id="edge21" class="edge">
<title>Node18&#45;&gt;Node18</title>
<path fill="none" stroke="midnightblue" d="M207.07,-323.76C195.68,-332.57 203.48,-342 230.5,-342 248.23,-342 257.69,-337.94 258.87,-332.65"/>
<polygon fill="midnightblue" stroke="midnightblue" points="261.84,-330.8 253.93,-323.76 255.73,-334.2 261.84,-330.8"/>
</g>
<!-- Node19 -->
<g id="node19" class="node">
<title>Node19</title>
<g id="a_node19"><a xlink:href="a00479.xhtml#a95b2436caee0cd232126f78c642238dd" target="_top" xlink:title=" ">
<polygon fill="white" stroke="black" points="477,-237.5 477,-256.5 560,-256.5 560,-237.5 477,-237.5"/>
<text text-anchor="middle" x="518.5" y="-244.5" font-family="Helvetica,sans-Serif" font-size="10.00">CMatrix::setEye</text>
</a>
</g>
</g>
<!-- Node18&#45;&gt;Node19 -->
<g id="edge23" class="edge">
<title>Node18&#45;&gt;Node19</title>
<path fill="none" stroke="midnightblue" d="M247.22,-304.35C273.19,-288.44 322.66,-258.32 327,-257 372.81,-243.07 427.64,-241.68 466.69,-243.12"/>
<polygon fill="midnightblue" stroke="midnightblue" points="466.61,-246.62 476.76,-243.56 466.92,-239.62 466.61,-246.62"/>
</g>
<!-- Node20 -->
<g id="node20" class="node">
<title>Node20</title>
<g id="a_node20"><a xlink:href="a00495.xhtml#a4e5b5163bb46b8de5ac4013bde1ded00" target="_top" xlink:title=" ">
<polygon fill="white" stroke="black" points="338,-266.5 338,-285.5 427,-285.5 427,-266.5 338,-266.5"/>
<text text-anchor="middle" x="382.5" y="-273.5" font-family="Helvetica,sans-Serif" font-size="10.00">CVector::subW_I</text>
</a>
</g>
</g>
<!-- Node18&#45;&gt;Node20 -->
<g id="edge25" class="edge">
<title>Node18&#45;&gt;Node20</title>
<path fill="none" stroke="midnightblue" d="M268.19,-304.7C288.04,-299.68 312.77,-293.41 334.06,-288.02"/>
<polygon fill="midnightblue" stroke="midnightblue" points="335.05,-291.38 343.88,-285.53 333.33,-284.59 335.05,-291.38"/>
</g>
<!-- Node19&#45;&gt;Node7 -->
<g id="edge24" class="edge">
<title>Node19&#45;&gt;Node7</title>
<path fill="none" stroke="midnightblue" d="M560.12,-256.25C569.88,-258.47 580.44,-260.87 590.63,-263.19"/>
<polygon fill="midnightblue" stroke="midnightblue" points="590.14,-266.67 600.66,-265.48 591.69,-259.84 590.14,-266.67"/>
</g>
<!-- Node20&#45;&gt;Node4 -->
<g id="edge26" class="edge">
<title>Node20&#45;&gt;Node4</title>
<path fill="none" stroke="midnightblue" d="M424.71,-285.57C429.63,-288.03 434.23,-291.12 438,-295 475.01,-333.12 444.91,-364.54 474,-409 479.37,-417.2 486.98,-424.68 494.34,-430.79"/>
<polygon fill="midnightblue" stroke="midnightblue" points="492.66,-433.93 502.71,-437.3 496.96,-428.4 492.66,-433.93"/>
</g>
<!-- Node22&#45;&gt;Node23 -->
<g id="edge31" class="edge">
<title>Node22&#45;&gt;Node23</title>
<path fill="none" stroke="midnightblue" d="M289.92,-17.4C300.52,-18.74 311.58,-20.14 322.21,-21.49"/>
<polygon fill="midnightblue" stroke="midnightblue" points="321.86,-24.97 332.23,-22.76 322.74,-18.03 321.86,-24.97"/>
</g>
</g>
</svg>
