<?xml version="1.0" encoding="UTF-8" standalone="no"?>
<!DOCTYPE svg PUBLIC "-//W3C//DTD SVG 1.1//EN"
 "http://www.w3.org/Graphics/SVG/1.1/DTD/svg11.dtd">
<!-- Generated by graphviz version 6.0.1 (20220911.1526)
 -->
<!-- Title: CSpectrogramIf::getMelSpectrogramAxisVectors Pages: 1 -->
<!--zoomable 288 -->
<svg id="main" version="1.1" xmlns="http://www.w3.org/2000/svg" xmlns:xlink="http://www.w3.org/1999/xlink" xml:space="preserve" onload="init(evt)">
<style type="text/css"><![CDATA[
.edge:hover path { stroke: red; }
.edge:hover polygon { stroke: red; fill: red; }
]]></style>
<script type="text/javascript"><![CDATA[
var edges = document.getElementsByTagName('g');
if (edges && edges.length) {
  for (var i=0;i<edges.length;i++) {
    if (edges[i].id.substr(0,4)=='edge') {
      edges[i].setAttribute('class','edge');
    }
  }
}
]]></script>
        <defs>
                <circle id="rim" cx="0" cy="0" r="7"/>
                <circle id="rim2" cx="0" cy="0" r="3.5"/>
                <g id="zoomPlus">
                        <use xlink:href="#rim" fill="#404040">
                                <set attributeName="fill" to="#808080" begin="zoomplus.mouseover" end="zoomplus.mouseout"/>
                        </use>
                        <path d="M-4,0h8M0,-4v8" fill="none" stroke="white" stroke-width="1.5" pointer-events="none"/>
                </g>
                <g id="zoomMin">
                        <use xlink:href="#rim" fill="#404040">
                                <set attributeName="fill" to="#808080" begin="zoomminus.mouseover" end="zoomminus.mouseout"/>
                        </use>
                        <path d="M-4,0h8" fill="none" stroke="white" stroke-width="1.5" pointer-events="none"/>
                </g>
                <g id="dirArrow">
                        <path fill="none" stroke="white" stroke-width="1.5" d="M0,-3.0v7 M-2.5,-0.5L0,-3.0L2.5,-0.5"/>
                </g>
               <g id="resetDef">
                       <use xlink:href="#rim2" fill="#404040">
                               <set attributeName="fill" to="#808080" begin="reset.mouseover" end="reset.mouseout"/>
                       </use>
               </g>
        </defs>

<script type="text/javascript">
var viewWidth = 794;
var viewHeight = 288;
var sectionId = 'dynsection-18';
</script>
<script xlink:href="svgpan.js"/>
<svg id="graph" class="graph">
<g id="viewport">
<title>CSpectrogramIf::getMelSpectrogramAxisVectors</title>
<!-- Node1 -->
<g id="node1" class="node">
<title>Node1</title>
<g id="a_node1"><a xlink:title=" ">
<polygon fill="#999999" stroke="#666666" points="174,-153.5 0,-153.5 0,-123.5 174,-123.5 174,-153.5"/>
<text text-anchor="start" x="8" y="-141.5" font-family="Helvetica,sans-Serif" font-size="10.00">CSpectrogramIf::getMelSpectrogram</text>
<text text-anchor="middle" x="87" y="-130.5" font-family="Helvetica,sans-Serif" font-size="10.00">AxisVectors</text>
</a>
</g>
</g>
<!-- Node2 -->
<g id="node2" class="node">
<title>Node2</title>
<g id="a_node2"><a xlink:href="a00502.xhtml#ad7c5cba73e439adac77778f61c9418f0" target="_top" xlink:title=" ">
<polygon fill="white" stroke="#666666" points="325,-228 248,-228 248,-209 325,-209 325,-228"/>
<text text-anchor="middle" x="286.5" y="-216" font-family="Helvetica,sans-Serif" font-size="10.00">CVector::copy</text>
</a>
</g>
</g>
<!-- Node1&#45;&gt;Node2 -->
<g id="edge1" class="edge">
<title>Node1&#45;&gt;Node2</title>
<path fill="none" stroke="#63b8ff" d="M113.38,-153.64C137.52,-167.49 175.21,-187.72 210,-200.5 218.82,-203.74 228.45,-206.55 237.78,-208.93"/>
<polygon fill="#63b8ff" stroke="#63b8ff" points="237.19,-212.39 247.73,-211.34 238.83,-205.58 237.19,-212.39"/>
</g>
<!-- Node3 -->
<g id="node3" class="node">
<title>Node3</title>
<g id="a_node3"><a xlink:href="a00530.xhtml#a00140b0dd45e87aef4561aed8ebc779a" target="_top" xlink:title=" ">
<polygon fill="white" stroke="#666666" points="363,-191 210,-191 210,-172 363,-172 363,-191"/>
<text text-anchor="middle" x="286.5" y="-179" font-family="Helvetica,sans-Serif" font-size="10.00">CSpectrogramIf::destroyMelFb_</text>
</a>
</g>
</g>
<!-- Node1&#45;&gt;Node3 -->
<g id="edge2" class="edge">
<title>Node1&#45;&gt;Node3</title>
<path fill="none" stroke="#63b8ff" d="M157.08,-153.54C181.59,-158.88 208.8,-164.8 231.83,-169.82"/>
<polygon fill="#63b8ff" stroke="#63b8ff" points="231.25,-173.27 241.76,-171.98 232.74,-166.43 231.25,-173.27"/>
</g>
<!-- Node6 -->
<g id="node6" class="node">
<title>Node6</title>
<g id="a_node6"><a xlink:href="a00530.xhtml#a04d8f71d4562f2a4efc8a8537826d8c3" target="_top" xlink:title=" ">
<polygon fill="white" stroke="#666666" points="350,-153.5 223,-153.5 223,-123.5 350,-123.5 350,-153.5"/>
<text text-anchor="start" x="231" y="-141.5" font-family="Helvetica,sans-Serif" font-size="10.00">CSpectrogramIf::generate</text>
<text text-anchor="middle" x="286.5" y="-130.5" font-family="Helvetica,sans-Serif" font-size="10.00">MelFb_</text>
</a>
</g>
</g>
<!-- Node1&#45;&gt;Node6 -->
<g id="edge5" class="edge">
<title>Node1&#45;&gt;Node6</title>
<path fill="none" stroke="#63b8ff" d="M174.05,-138.5C186.88,-138.5 200.01,-138.5 212.53,-138.5"/>
<polygon fill="#63b8ff" stroke="#63b8ff" points="212.9,-142 222.9,-138.5 212.9,-135 212.9,-142"/>
</g>
<!-- Node15 -->
<g id="node15" class="node">
<title>Node15</title>
<g id="a_node15"><a xlink:href="a00542.xhtml#a595b3a391e2540a1dc9e53edf8634494" target="_top" xlink:title=" ">
<polygon fill="white" stroke="#666666" points="360.5,-105 212.5,-105 212.5,-86 360.5,-86 360.5,-105"/>
<text text-anchor="middle" x="286.5" y="-93" font-family="Helvetica,sans-Serif" font-size="10.00">CBlockAudioIf::getNumBlocks</text>
</a>
</g>
</g>
<!-- Node1&#45;&gt;Node15 -->
<g id="edge15" class="edge">
<title>Node1&#45;&gt;Node15</title>
<path fill="none" stroke="#63b8ff" d="M157.08,-123.46C181.59,-118.12 208.8,-112.2 231.83,-107.18"/>
<polygon fill="#63b8ff" stroke="#63b8ff" points="232.74,-110.57 241.76,-105.02 231.25,-103.73 232.74,-110.57"/>
</g>
<!-- Node16 -->
<g id="node16" class="node">
<title>Node16</title>
<g id="a_node16"><a xlink:href="a00542.xhtml#a95d0310c888433e7e45806538dc0d347" target="_top" xlink:title=" ">
<polygon fill="white" stroke="#666666" points="360,-68 213,-68 213,-49 360,-49 360,-68"/>
<text text-anchor="middle" x="286.5" y="-56" font-family="Helvetica,sans-Serif" font-size="10.00">CBlockAudioIf::getTimeStamp</text>
</a>
</g>
</g>
<!-- Node1&#45;&gt;Node16 -->
<g id="edge16" class="edge">
<title>Node1&#45;&gt;Node16</title>
<path fill="none" stroke="#63b8ff" d="M113.91,-123.47C138.12,-109.93 175.58,-90.26 210,-77.5 216.71,-75.01 223.87,-72.74 231.01,-70.7"/>
<polygon fill="#63b8ff" stroke="#63b8ff" points="231.96,-74.07 240.7,-68.07 230.13,-67.32 231.96,-74.07"/>
</g>
<!-- Node4 -->
<g id="node4" class="node">
<title>Node4</title>
<g id="a_node4"><a xlink:href="a00486.xhtml#a591097c6b1935c4d6273b3445f8f552b" target="_top" xlink:title=" ">
<polygon fill="white" stroke="#666666" points="509,-280 438,-280 438,-261 509,-261 509,-280"/>
<text text-anchor="middle" x="473.5" y="-268" font-family="Helvetica,sans-Serif" font-size="10.00">CMatrix::free</text>
</a>
</g>
</g>
<!-- Node3&#45;&gt;Node4 -->
<g id="edge3" class="edge">
<title>Node3&#45;&gt;Node4</title>
<path fill="none" stroke="#63b8ff" d="M343.3,-191.03C350.24,-193.49 356.99,-196.59 363,-200.5 384.76,-214.65 377.74,-231.6 399,-246.5 407.75,-252.63 418.16,-257.27 428.35,-260.75"/>
<polygon fill="#63b8ff" stroke="#63b8ff" points="427.41,-264.12 438,-263.74 429.49,-257.44 427.41,-264.12"/>
</g>
<!-- Node5 -->
<g id="node5" class="node">
<title>Node5</title>
<g id="a_node5"><a xlink:href="a00502.xhtml#aa86bdb0c663d4d52f2765793756f8737" target="_top" xlink:title=" ">
<polygon fill="white" stroke="#666666" points="659,-280 586,-280 586,-261 659,-261 659,-280"/>
<text text-anchor="middle" x="622.5" y="-268" font-family="Helvetica,sans-Serif" font-size="10.00">CVector::free</text>
</a>
</g>
</g>
<!-- Node4&#45;&gt;Node5 -->
<g id="edge4" class="edge">
<title>Node4&#45;&gt;Node5</title>
<path fill="none" stroke="#63b8ff" d="M509.34,-270.5C529.18,-270.5 554.29,-270.5 575.71,-270.5"/>
<polygon fill="#63b8ff" stroke="#63b8ff" points="575.89,-274 585.89,-270.5 575.89,-267 575.89,-274"/>
</g>
<!-- Node7 -->
<g id="node7" class="node">
<title>Node7</title>
<g id="a_node7"><a xlink:href="a00502.xhtml#abaadac98b1cad18b7b568852bc951696" target="_top" xlink:title=" ">
<polygon fill="white" stroke="#666666" points="661,-223 584,-223 584,-204 661,-204 661,-223"/>
<text text-anchor="middle" x="622.5" y="-211" font-family="Helvetica,sans-Serif" font-size="10.00">CVector::alloc</text>
</a>
</g>
</g>
<!-- Node6&#45;&gt;Node7 -->
<g id="edge6" class="edge">
<title>Node6&#45;&gt;Node7</title>
<path fill="none" stroke="#63b8ff" d="M345.84,-153.6C351.91,-156.39 357.77,-159.66 363,-163.5 385.07,-179.7 374.63,-201.02 399,-213.5 454.57,-241.97 528.67,-234.48 575.75,-225.1"/>
<polygon fill="#63b8ff" stroke="#63b8ff" points="576.59,-228.5 585.66,-223.02 575.15,-221.65 576.59,-228.5"/>
</g>
<!-- Node9 -->
<g id="node9" class="node">
<title>Node9</title>
<g id="a_node9"><a xlink:href="a00486.xhtml#a6501b78d76c912d49eee88c8f7242923" target="_top" xlink:title=" ">
<polygon fill="white" stroke="#666666" points="510.5,-204 436.5,-204 436.5,-185 510.5,-185 510.5,-204"/>
<text text-anchor="middle" x="473.5" y="-192" font-family="Helvetica,sans-Serif" font-size="10.00">CMatrix::alloc</text>
</a>
</g>
</g>
<!-- Node6&#45;&gt;Node9 -->
<g id="edge8" class="edge">
<title>Node6&#45;&gt;Node9</title>
<path fill="none" stroke="#63b8ff" d="M333.48,-153.51C343.24,-156.75 353.47,-160.2 363,-163.5 379.08,-169.06 382.72,-171.58 399,-176.5 407.87,-179.18 417.42,-181.75 426.62,-184.06"/>
<polygon fill="#63b8ff" stroke="#63b8ff" points="425.86,-187.48 436.4,-186.47 427.53,-180.68 425.86,-187.48"/>
</g>
<!-- Node10 -->
<g id="node10" class="node">
<title>Node10</title>
<g id="a_node10"><a xlink:href="a00550.xhtml#aebe59f905b1dd02058cccbb062de6507" target="_top" xlink:title=" ">
<polygon fill="white" stroke="#666666" points="547.5,-167 399.5,-167 399.5,-148 547.5,-148 547.5,-167"/>
<text text-anchor="middle" x="473.5" y="-155" font-family="Helvetica,sans-Serif" font-size="10.00">CConversion::convertBin2Freq</text>
</a>
</g>
</g>
<!-- Node6&#45;&gt;Node10 -->
<g id="edge10" class="edge">
<title>Node6&#45;&gt;Node10</title>
<path fill="none" stroke="#63b8ff" d="M350.13,-144.93C362.75,-146.23 376.19,-147.61 389.38,-148.96"/>
<polygon fill="#63b8ff" stroke="#63b8ff" points="389.09,-152.45 399.39,-149.99 389.8,-145.49 389.09,-152.45"/>
</g>
<!-- Node11 -->
<g id="node11" class="node">
<title>Node11</title>
<g id="a_node11"><a xlink:href="a00550.xhtml#ad0d26c7c6a5edaa81527e68fe0c0c46f" target="_top" xlink:title=" ">
<polygon fill="white" stroke="#666666" points="548,-130 399,-130 399,-111 548,-111 548,-130"/>
<text text-anchor="middle" x="473.5" y="-118" font-family="Helvetica,sans-Serif" font-size="10.00">CConversion::convertFreq2Mel</text>
</a>
</g>
</g>
<!-- Node6&#45;&gt;Node11 -->
<g id="edge11" class="edge">
<title>Node6&#45;&gt;Node11</title>
<path fill="none" stroke="#63b8ff" d="M350.13,-132.41C362.46,-131.21 375.57,-129.93 388.47,-128.68"/>
<polygon fill="#63b8ff" stroke="#63b8ff" points="389.13,-132.13 398.74,-127.68 388.45,-125.16 389.13,-132.13"/>
</g>
<!-- Node12 -->
<g id="node12" class="node">
<title>Node12</title>
<g id="a_node12"><a xlink:href="a00550.xhtml#adbcadd75a3a33ca9e9453a17a9336318" target="_top" xlink:title=" ">
<polygon fill="white" stroke="#666666" points="548,-93 399,-93 399,-74 548,-74 548,-93"/>
<text text-anchor="middle" x="473.5" y="-81" font-family="Helvetica,sans-Serif" font-size="10.00">CConversion::convertMel2Freq</text>
</a>
</g>
</g>
<!-- Node6&#45;&gt;Node12 -->
<g id="edge12" class="edge">
<title>Node6&#45;&gt;Node12</title>
<path fill="none" stroke="#63b8ff" d="M335.06,-123.49C344.33,-120.54 353.98,-117.44 363,-114.5 379.04,-109.28 382.83,-107.28 399,-102.5 406.91,-100.16 415.34,-97.83 423.57,-95.65"/>
<polygon fill="#63b8ff" stroke="#63b8ff" points="424.67,-98.98 433.45,-93.06 422.89,-92.21 424.67,-98.98"/>
</g>
<!-- Node13 -->
<g id="node13" class="node">
<title>Node13</title>
<g id="a_node13"><a xlink:href="a00474.xhtml#a22af988b424911d7750a0f9f381aa443" target="_top" xlink:title=" ">
<polygon fill="white" stroke="#666666" points="510.5,-56 436.5,-56 436.5,-37 510.5,-37 510.5,-56"/>
<text text-anchor="middle" x="473.5" y="-44" font-family="Helvetica,sans-Serif" font-size="10.00">CFft::freq2bin</text>
</a>
</g>
</g>
<!-- Node6&#45;&gt;Node13 -->
<g id="edge13" class="edge">
<title>Node6&#45;&gt;Node13</title>
<path fill="none" stroke="#63b8ff" d="M347.35,-123.47C352.87,-120.92 358.2,-117.95 363,-114.5 384.96,-98.74 376.62,-80.65 399,-65.5 407.18,-59.96 416.87,-56.04 426.49,-53.26"/>
<polygon fill="#63b8ff" stroke="#63b8ff" points="427.58,-56.59 436.42,-50.75 425.87,-49.81 427.58,-56.59"/>
</g>
<!-- Node14 -->
<g id="node14" class="node">
<title>Node14</title>
<g id="a_node14"><a xlink:href="a00474.xhtml#a9cb162394031e8b496f7a39b51c31d20" target="_top" xlink:title=" ">
<polygon fill="white" stroke="#666666" points="515,-19 432,-19 432,0 515,0 515,-19"/>
<text text-anchor="middle" x="473.5" y="-7" font-family="Helvetica,sans-Serif" font-size="10.00">CFft::getLength</text>
</a>
</g>
</g>
<!-- Node6&#45;&gt;Node14 -->
<g id="edge14" class="edge">
<title>Node6&#45;&gt;Node14</title>
<path fill="none" stroke="#63b8ff" d="M350.11,-123.61C354.77,-121.04 359.14,-118.03 363,-114.5 393.57,-86.53 367.68,-55.62 399,-28.5 405.59,-22.79 413.68,-18.77 422.05,-15.94"/>
<polygon fill="#63b8ff" stroke="#63b8ff" points="423.28,-19.23 431.94,-13.13 421.37,-12.49 423.28,-19.23"/>
</g>
<!-- Node8 -->
<g id="node8" class="node">
<title>Node8</title>
<g id="a_node8"><a xlink:href="a00502.xhtml#a6dbb3f9f480568b60f7fe50090d20003" target="_top" xlink:title=" ">
<polygon fill="white" stroke="#666666" points="786,-223 697,-223 697,-204 786,-204 786,-223"/>
<text text-anchor="middle" x="741.5" y="-211" font-family="Helvetica,sans-Serif" font-size="10.00">CVector::setZero</text>
</a>
</g>
</g>
<!-- Node7&#45;&gt;Node8 -->
<g id="edge7" class="edge">
<title>Node7&#45;&gt;Node8</title>
<path fill="none" stroke="#63b8ff" d="M661.16,-213.5C669.33,-213.5 678.11,-213.5 686.76,-213.5"/>
<polygon fill="#63b8ff" stroke="#63b8ff" points="686.8,-217 696.8,-213.5 686.8,-210 686.8,-217"/>
</g>
<!-- Node9&#45;&gt;Node7 -->
<g id="edge9" class="edge">
<title>Node9&#45;&gt;Node7</title>
<path fill="none" stroke="#63b8ff" d="M510.84,-199.2C529.82,-201.65 553.29,-204.68 573.73,-207.33"/>
<polygon fill="#63b8ff" stroke="#63b8ff" points="573.42,-210.81 583.79,-208.63 574.32,-203.87 573.42,-210.81"/>
</g>
</g>
</svg>
        <g id="navigator" transform="translate(0 0)" fill="#404254">
                <rect fill="#f2f5e9" fill-opacity="0.5" stroke="#606060" stroke-width=".5" x="0" y="0" width="60" height="60"/>
                <use id="zoomplus" xlink:href="#zoomPlus" x="17" y="9" onmousedown="handleZoom(evt,'in')"/>
                <use id="zoomminus" xlink:href="#zoomMin" x="42" y="9" onmousedown="handleZoom(evt,'out')"/>
                <use id="reset" xlink:href="#resetDef" x="30" y="36" onmousedown="handleReset()"/>
                <g id="arrowUp" xlink:href="#dirArrow" transform="translate(30 24)" onmousedown="handlePan(0,-1)">
                  <use xlink:href="#rim" fill="#404040">
                        <set attributeName="fill" to="#808080" begin="arrowUp.mouseover" end="arrowUp.mouseout"/>
                  </use>
                  <path fill="none" stroke="white" stroke-width="1.5" d="M0,-3.0v7 M-2.5,-0.5L0,-3.0L2.5,-0.5"/>
                </g>
                <g id="arrowRight" xlink:href="#dirArrow" transform="rotate(90) translate(36 -43)" onmousedown="handlePan(1,0)">
                  <use xlink:href="#rim" fill="#404040">
                        <set attributeName="fill" to="#808080" begin="arrowRight.mouseover" end="arrowRight.mouseout"/>
                  </use>
                  <path fill="none" stroke="white" stroke-width="1.5" d="M0,-3.0v7 M-2.5,-0.5L0,-3.0L2.5,-0.5"/>
                </g>
                <g id="arrowDown" xlink:href="#dirArrow" transform="rotate(180) translate(-30 -48)" onmousedown="handlePan(0,1)">
                  <use xlink:href="#rim" fill="#404040">
                        <set attributeName="fill" to="#808080" begin="arrowDown.mouseover" end="arrowDown.mouseout"/>
                  </use>
                  <path fill="none" stroke="white" stroke-width="1.5" d="M0,-3.0v7 M-2.5,-0.5L0,-3.0L2.5,-0.5"/>
                </g>
                <g id="arrowLeft" xlink:href="#dirArrow" transform="rotate(270) translate(-36 17)" onmousedown="handlePan(-1,0)">
                  <use xlink:href="#rim" fill="#404040">
                        <set attributeName="fill" to="#808080" begin="arrowLeft.mouseover" end="arrowLeft.mouseout"/>
                  </use>
                  <path fill="none" stroke="white" stroke-width="1.5" d="M0,-3.0v7 M-2.5,-0.5L0,-3.0L2.5,-0.5"/>
                </g>
        </g>
        <svg viewBox="0 0 15 15" width="100%" height="30px" preserveAspectRatio="xMaxYMin meet">
         <g id="arrow_out" transform="scale(0.3 0.3)">
          <a xlink:href="a00530_afbc5337ad3646cbba2b189323de6ce3a_cgraph_org.svg" target="_base">
           <rect id="button" ry="5" rx="5" y="6" x="6" height="38" width="38"
                fill="#f2f5e9" fill-opacity="0.5" stroke="#606060" stroke-width="1.0"/>
           <path id="arrow"
             d="M 11.500037,31.436501 C 11.940474,20.09759 22.043105,11.32322 32.158766,21.979434 L 37.068811,17.246167 C 37.068811,17.246167 37.088388,32 37.088388,32 L 22.160133,31.978069 C 22.160133,31.978069 26.997745,27.140456 26.997745,27.140456 C 18.528582,18.264221 13.291696,25.230495 11.500037,31.436501 z"
             style="fill:#404040;"/>
          </a>
         </g>
        </svg>
</svg>
