<?xml version="1.0" encoding="UTF-8" standalone="no"?>
<!DOCTYPE svg PUBLIC "-//W3C//DTD SVG 1.1//EN"
 "http://www.w3.org/Graphics/SVG/1.1/DTD/svg11.dtd">
<!-- Generated by graphviz version 12.2.1 (20241206.2353)
 -->
<!-- Title: CCcf::init Pages: 1 -->
<svg width="319pt" height="138pt"
 viewBox="0.00 0.00 319.25 138.25" xmlns="http://www.w3.org/2000/svg" xmlns:xlink="http://www.w3.org/1999/xlink">
<g id="graph0" class="graph" transform="scale(1 1) rotate(0) translate(4 134.25)">
<title>CCcf::init</title>
<!-- Node1 -->
<g id="Node000001" class="node">
<title>Node1</title>
<g id="a_Node000001"><a xlink:title=" ">
<polygon fill="#999999" stroke="#666666" points="55,-74.25 0,-74.25 0,-55 55,-55 55,-74.25"/>
<text text-anchor="middle" x="27.5" y="-60.75" font-family="Helvetica,sans-Serif" font-size="10.00">CCcf::init</text>
</a>
</g>
</g>
<!-- Node2 -->
<g id="Node000002" class="node">
<title>Node2</title>
<g id="a_Node000002"><a xlink:href="a00505.xhtml#abaadac98b1cad18b7b568852bc951696" target="_top" xlink:title=" ">
<polygon fill="white" stroke="#666666" points="176.75,-130.25 100.75,-130.25 100.75,-111 176.75,-111 176.75,-130.25"/>
<text text-anchor="middle" x="138.75" y="-116.75" font-family="Helvetica,sans-Serif" font-size="10.00">CVector::alloc</text>
</a>
</g>
</g>
<!-- Node1&#45;&gt;Node2 -->
<g id="edge1_Node000001_Node000002" class="edge">
<title>Node1&#45;&gt;Node2</title>
<g id="a_edge1_Node000001_Node000002"><a xlink:title=" ">
<path fill="none" stroke="#63b8ff" d="M42.98,-74.45C55.39,-82.62 73.91,-94.22 91,-102.62 93.53,-103.87 96.16,-105.08 98.84,-106.26"/>
<polygon fill="#63b8ff" stroke="#63b8ff" points="97.24,-109.39 107.82,-109.99 99.93,-102.92 97.24,-109.39"/>
</a>
</g>
</g>
<!-- Node4 -->
<g id="Node000004" class="node">
<title>Node4</title>
<g id="a_Node000004"><a xlink:href="a00501.xhtml#a6d0e75b0bcbbb243b7141cfc0126e443" target="_top" xlink:title=" ">
<polygon fill="white" stroke="#666666" points="181.25,-93.25 96.25,-93.25 96.25,-74 181.25,-74 181.25,-93.25"/>
<text text-anchor="middle" x="138.75" y="-79.75" font-family="Helvetica,sans-Serif" font-size="10.00">CUtil::isPowOf2</text>
</a>
</g>
</g>
<!-- Node1&#45;&gt;Node4 -->
<g id="edge3_Node000001_Node000004" class="edge">
<title>Node1&#45;&gt;Node4</title>
<g id="a_edge3_Node000001_Node000004"><a xlink:title=" ">
<path fill="none" stroke="#63b8ff" d="M55.23,-69.27C64.23,-70.84 74.61,-72.64 84.9,-74.43"/>
<polygon fill="#63b8ff" stroke="#63b8ff" points="84.03,-77.83 94.48,-76.1 85.23,-70.94 84.03,-77.83"/>
</a>
</g>
</g>
<!-- Node5 -->
<g id="Node000005" class="node">
<title>Node5</title>
<g id="a_Node000005"><a xlink:href="a00501.xhtml#a0fd55429d52515a9efb2fe602ce8f9ed" target="_top" xlink:title=" ">
<polygon fill="white" stroke="#666666" points="186.5,-56.25 91,-56.25 91,-37 186.5,-37 186.5,-56.25"/>
<text text-anchor="middle" x="138.75" y="-42.75" font-family="Helvetica,sans-Serif" font-size="10.00">CUtil::nextPowOf2</text>
</a>
</g>
</g>
<!-- Node1&#45;&gt;Node5 -->
<g id="edge4_Node000001_Node000005" class="edge">
<title>Node1&#45;&gt;Node5</title>
<g id="a_edge4_Node000001_Node000005"><a xlink:title=" ">
<path fill="none" stroke="#63b8ff" d="M55.23,-60.22C62.69,-58.99 71.11,-57.6 79.64,-56.2"/>
<polygon fill="#63b8ff" stroke="#63b8ff" points="80.06,-59.68 89.36,-54.6 78.92,-52.77 80.06,-59.68"/>
</a>
</g>
</g>
<!-- Node6 -->
<g id="Node000006" class="node">
<title>Node6</title>
<g id="a_Node000006"><a xlink:href="a00549.xhtml#a6edce7be75bf0b89dcc4a20e491ad8d8" target="_top" xlink:title=" ">
<polygon fill="white" stroke="#666666" points="170.75,-19.25 106.75,-19.25 106.75,0 170.75,0 170.75,-19.25"/>
<text text-anchor="middle" x="138.75" y="-5.75" font-family="Helvetica,sans-Serif" font-size="10.00">CCcf::reset</text>
</a>
</g>
</g>
<!-- Node1&#45;&gt;Node6 -->
<g id="edge5_Node000001_Node000006" class="edge">
<title>Node1&#45;&gt;Node6</title>
<g id="a_edge5_Node000001_Node000006"><a xlink:title=" ">
<path fill="none" stroke="#63b8ff" d="M43.77,-54.61C56.19,-46.71 74.32,-35.7 91,-27.62 93.53,-26.4 96.17,-25.19 98.86,-24.02"/>
<polygon fill="#63b8ff" stroke="#63b8ff" points="99.94,-27.36 107.84,-20.31 97.27,-20.89 99.94,-27.36"/>
</a>
</g>
</g>
<!-- Node3 -->
<g id="Node000003" class="node">
<title>Node3</title>
<g id="a_Node000003"><a xlink:href="a00505.xhtml#a6dbb3f9f480568b60f7fe50090d20003" target="_top" xlink:title=" ">
<polygon fill="white" stroke="#666666" points="311.25,-130.25 222.5,-130.25 222.5,-111 311.25,-111 311.25,-130.25"/>
<text text-anchor="middle" x="266.88" y="-116.75" font-family="Helvetica,sans-Serif" font-size="10.00">CVector::setZero</text>
</a>
</g>
</g>
<!-- Node2&#45;&gt;Node3 -->
<g id="edge2_Node000002_Node000003" class="edge">
<title>Node2&#45;&gt;Node3</title>
<g id="a_edge2_Node000002_Node000003"><a xlink:title=" ">
<path fill="none" stroke="#63b8ff" d="M176.91,-120.62C187.59,-120.62 199.47,-120.62 210.98,-120.62"/>
<polygon fill="#63b8ff" stroke="#63b8ff" points="210.8,-124.13 220.8,-120.63 210.8,-117.13 210.8,-124.13"/>
</a>
</g>
</g>
<!-- Node7 -->
<g id="Node000007" class="node">
<title>Node7</title>
<g id="a_Node000007"><a xlink:href="a00505.xhtml#aa86bdb0c663d4d52f2765793756f8737" target="_top" xlink:title=" ">
<polygon fill="white" stroke="#666666" points="303,-19.25 230.75,-19.25 230.75,0 303,0 303,-19.25"/>
<text text-anchor="middle" x="266.88" y="-5.75" font-family="Helvetica,sans-Serif" font-size="10.00">CVector::free</text>
</a>
</g>
</g>
<!-- Node6&#45;&gt;Node7 -->
<g id="edge6_Node000006_Node000007" class="edge">
<title>Node6&#45;&gt;Node7</title>
<g id="a_edge6_Node000006_Node000007"><a xlink:title=" ">
<path fill="none" stroke="#63b8ff" d="M170.93,-9.62C185.48,-9.62 203.12,-9.62 219.22,-9.62"/>
<polygon fill="#63b8ff" stroke="#63b8ff" points="219.09,-13.13 229.09,-9.63 219.09,-6.13 219.09,-13.13"/>
</a>
</g>
</g>
</g>
</svg>
