<?xml version="1.0" encoding="UTF-8" standalone="no"?>
<!DOCTYPE svg PUBLIC "-//W3C//DTD SVG 1.1//EN"
 "http://www.w3.org/Graphics/SVG/1.1/DTD/svg11.dtd">
<!-- Generated by graphviz version 6.0.1 (20220911.1526)
 -->
<!-- Title: CSpectrogramIf::destroyMelFb_ Pages: 1 -->
<svg width="456pt" height="76pt"
 viewBox="0.00 0.00 456.00 75.50" xmlns="http://www.w3.org/2000/svg" xmlns:xlink="http://www.w3.org/1999/xlink">
<g id="graph0" class="graph" transform="scale(1 1) rotate(0) translate(4 71.5)">
<title>CSpectrogramIf::destroyMelFb_</title>
<!-- Node1 -->
<g id="node1" class="node">
<title>Node1</title>
<g id="a_node1"><a xlink:title=" ">
<polygon fill="#999999" stroke="#666666" points="448,-45.5 295,-45.5 295,-26.5 448,-26.5 448,-45.5"/>
<text text-anchor="middle" x="371.5" y="-33.5" font-family="Helvetica,sans-Serif" font-size="10.00">CSpectrogramIf::destroyMelFb_</text>
</a>
</g>
</g>
<!-- Node2 -->
<g id="node2" class="node">
<title>Node2</title>
<g id="a_node2"><a xlink:href="a00530.xhtml#ae89af275cdd54029bbf7f0f25ddf7945" target="_top" xlink:title=" ">
<polygon fill="white" stroke="#666666" points="259,-67.5 74,-67.5 74,-48.5 259,-48.5 259,-67.5"/>
<text text-anchor="middle" x="166.5" y="-55.5" font-family="Helvetica,sans-Serif" font-size="10.00">CSpectrogramIf::compMelSpectrogram</text>
</a>
</g>
</g>
<!-- Node1&#45;&gt;Node2 -->
<g id="edge1" class="edge">
<title>Node1&#45;&gt;Node2</title>
<path fill="none" stroke="#63b8ff" d="M284.87,-45.28C275.15,-46.33 265.23,-47.41 255.48,-48.47"/>
<polygon fill="#63b8ff" stroke="#63b8ff" points="285.35,-48.75 294.91,-44.19 284.59,-41.79 285.35,-48.75"/>
</g>
<!-- Node4 -->
<g id="node4" class="node">
<title>Node4</title>
<g id="a_node4"><a xlink:href="a00530.xhtml#afbc5337ad3646cbba2b189323de6ce3a" target="_top" xlink:title=" ">
<polygon fill="white" stroke="#666666" points="253.5,-30 79.5,-30 79.5,0 253.5,0 253.5,-30"/>
<text text-anchor="start" x="87.5" y="-18" font-family="Helvetica,sans-Serif" font-size="10.00">CSpectrogramIf::getMelSpectrogram</text>
<text text-anchor="middle" x="166.5" y="-7" font-family="Helvetica,sans-Serif" font-size="10.00">AxisVectors</text>
</a>
</g>
</g>
<!-- Node1&#45;&gt;Node4 -->
<g id="edge3" class="edge">
<title>Node1&#45;&gt;Node4</title>
<path fill="none" stroke="#63b8ff" d="M284.74,-27.13C274.49,-26.07 264.01,-24.98 253.75,-23.92"/>
<polygon fill="#63b8ff" stroke="#63b8ff" points="284.6,-30.63 294.91,-28.18 285.32,-23.67 284.6,-30.63"/>
</g>
<!-- Node3 -->
<g id="node3" class="node">
<title>Node3</title>
<g id="a_node3"><a xlink:href="a00119.xhtml#a0ddf1224851353fc92bfbff6f499fa97" target="_top" xlink:title=" ">
<polygon fill="white" stroke="#666666" points="38,-67.5 0,-67.5 0,-48.5 38,-48.5 38,-67.5"/>
<text text-anchor="middle" x="19" y="-55.5" font-family="Helvetica,sans-Serif" font-size="10.00">main</text>
</a>
</g>
</g>
<!-- Node2&#45;&gt;Node3 -->
<g id="edge2" class="edge">
<title>Node2&#45;&gt;Node3</title>
<path fill="none" stroke="#63b8ff" d="M63.63,-58C54.14,-58 45.44,-58 38.35,-58"/>
<polygon fill="#63b8ff" stroke="#63b8ff" points="63.77,-61.5 73.77,-58 63.77,-54.5 63.77,-61.5"/>
</g>
</g>
</svg>
