<?xml version="1.0" encoding="UTF-8" standalone="no"?>
<!DOCTYPE svg PUBLIC "-//W3C//DTD SVG 1.1//EN"
 "http://www.w3.org/Graphics/SVG/1.1/DTD/svg11.dtd">
<!-- Generated by graphviz version 6.0.1 (20220911.1526)
 -->
<!-- Title: CVector::findMax Pages: 1 -->
<!--zoomable 720 -->
<svg id="main" version="1.1" xmlns="http://www.w3.org/2000/svg" xmlns:xlink="http://www.w3.org/1999/xlink" xml:space="preserve" onload="init(evt)">
<style type="text/css"><![CDATA[
.edge:hover path { stroke: red; }
.edge:hover polygon { stroke: red; fill: red; }
]]></style>
<script type="text/javascript"><![CDATA[
var edges = document.getElementsByTagName('g');
if (edges && edges.length) {
  for (var i=0;i<edges.length;i++) {
    if (edges[i].id.substr(0,4)=='edge') {
      edges[i].setAttribute('class','edge');
    }
  }
}
]]></script>
        <defs>
                <circle id="rim" cx="0" cy="0" r="7"/>
                <circle id="rim2" cx="0" cy="0" r="3.5"/>
                <g id="zoomPlus">
                        <use xlink:href="#rim" fill="#404040">
                                <set attributeName="fill" to="#808080" begin="zoomplus.mouseover" end="zoomplus.mouseout"/>
                        </use>
                        <path d="M-4,0h8M0,-4v8" fill="none" stroke="white" stroke-width="1.5" pointer-events="none"/>
                </g>
                <g id="zoomMin">
                        <use xlink:href="#rim" fill="#404040">
                                <set attributeName="fill" to="#808080" begin="zoomminus.mouseover" end="zoomminus.mouseout"/>
                        </use>
                        <path d="M-4,0h8" fill="none" stroke="white" stroke-width="1.5" pointer-events="none"/>
                </g>
                <g id="dirArrow">
                        <path fill="none" stroke="white" stroke-width="1.5" d="M0,-3.0v7 M-2.5,-0.5L0,-3.0L2.5,-0.5"/>
                </g>
               <g id="resetDef">
                       <use xlink:href="#rim2" fill="#404040">
                               <set attributeName="fill" to="#808080" begin="reset.mouseover" end="reset.mouseout"/>
                       </use>
               </g>
        </defs>

<script type="text/javascript">
var viewWidth = 945;
var viewHeight = 720;
var sectionId = 'dynsection-11';
</script>
<script xlink:href="svgpan.js"/>
<svg id="graph" class="graph">
<g id="viewport">
<title>CVector::findMax</title>
<!-- Node1 -->
<g id="node1" class="node">
<title>Node1</title>
<g id="a_node1"><a xlink:title=" ">
<polygon fill="#999999" stroke="#666666" points="937,-559 848,-559 848,-540 937,-540 937,-559"/>
<text text-anchor="middle" x="892.5" y="-547" font-family="Helvetica,sans-Serif" font-size="10.00">CVector::findMax</text>
</a>
</g>
</g>
<!-- Node2 -->
<g id="node2" class="node">
<title>Node2</title>
<g id="a_node2"><a xlink:href="a00454.xhtml#a463c7570302112f307363ec1c7260221" target="_top" xlink:title=" ">
<polygon fill="white" stroke="#666666" points="808,-712 694,-712 694,-693 808,-693 808,-712"/>
<text text-anchor="middle" x="751" y="-700" font-family="Helvetica,sans-Serif" font-size="10.00">CChordIf::compChords</text>
</a>
</g>
</g>
<!-- Node1&#45;&gt;Node2 -->
<g id="edge1" class="edge">
<title>Node1&#45;&gt;Node2</title>
<path fill="none" stroke="#63b8ff" d="M885.04,-569.05C874.41,-598.21 850.51,-652.93 812,-683.5 807.12,-687.37 801.44,-690.46 795.56,-692.93"/>
<polygon fill="#63b8ff" stroke="#63b8ff" points="888.47,-569.83 888.46,-559.23 881.87,-567.52 888.47,-569.83"/>
</g>
<!-- Node4 -->
<g id="node4" class="node">
<title>Node4</title>
<g id="a_node4"><a xlink:href="a00378.xhtml#a91b4a12a8ddae9767459b508ee060a47" target="_top" xlink:title=" ">
<polygon fill="white" stroke="#666666" points="623.5,-508.5 522.5,-508.5 522.5,-478.5 623.5,-478.5 623.5,-508.5"/>
<text text-anchor="start" x="530.5" y="-496.5" font-family="Helvetica,sans-Serif" font-size="10.00">CPitchSpectralAcf::</text>
<text text-anchor="middle" x="573" y="-485.5" font-family="Helvetica,sans-Serif" font-size="10.00">compF0</text>
</a>
</g>
</g>
<!-- Node1&#45;&gt;Node4 -->
<g id="edge3" class="edge">
<title>Node1&#45;&gt;Node4</title>
<path fill="none" stroke="#63b8ff" d="M866.6,-535.1C851.34,-527.01 831.14,-517.54 812,-512.5 748.47,-495.76 672.37,-492.47 623.63,-492.38"/>
<polygon fill="#63b8ff" stroke="#63b8ff" points="864.94,-538.19 875.4,-539.91 868.3,-532.04 864.94,-538.19"/>
</g>
<!-- Node5 -->
<g id="node5" class="node">
<title>Node5</title>
<g id="a_node5"><a xlink:href="a00382.xhtml#a1c0d33f3378c902e09219213f3655cd9" target="_top" xlink:title=" ">
<polygon fill="white" stroke="#666666" points="803,-626.5 699,-626.5 699,-596.5 803,-596.5 803,-626.5"/>
<text text-anchor="start" x="707" y="-614.5" font-family="Helvetica,sans-Serif" font-size="10.00">CPitchSpectralHps::</text>
<text text-anchor="middle" x="751" y="-603.5" font-family="Helvetica,sans-Serif" font-size="10.00">compF0</text>
</a>
</g>
</g>
<!-- Node1&#45;&gt;Node5 -->
<g id="edge4" class="edge">
<title>Node1&#45;&gt;Node5</title>
<path fill="none" stroke="#63b8ff" d="M863.09,-563.63C848.02,-570.99 829.12,-579.99 812,-587.5 805.22,-590.47 797.95,-593.51 790.89,-596.38"/>
<polygon fill="#63b8ff" stroke="#63b8ff" points="864.95,-566.62 872.39,-559.07 861.87,-560.34 864.95,-566.62"/>
</g>
<!-- Node6 -->
<g id="node6" class="node">
<title>Node6</title>
<g id="a_node6"><a xlink:href="a00386.xhtml#af5dc0e4af11f3487eb9ff7df02ca99ad" target="_top" xlink:title=" ">
<polygon fill="white" stroke="#666666" points="812,-578 690,-578 690,-559 812,-559 812,-578"/>
<text text-anchor="middle" x="751" y="-566" font-family="Helvetica,sans-Serif" font-size="10.00">CPitchTimeAcf::compF0</text>
</a>
</g>
</g>
<!-- Node1&#45;&gt;Node6 -->
<g id="edge5" class="edge">
<title>Node1&#45;&gt;Node6</title>
<path fill="none" stroke="#63b8ff" d="M837.74,-556.82C829.39,-557.96 820.7,-559.14 812.21,-560.3"/>
<polygon fill="#63b8ff" stroke="#63b8ff" points="838.31,-560.28 847.74,-555.46 837.36,-553.34 838.31,-560.28"/>
</g>
<!-- Node7 -->
<g id="node7" class="node">
<title>Node7</title>
<g id="a_node7"><a xlink:href="a00626.xhtml#aa92470fc0e97510d9b2f4d4da8e86bfb" target="_top" xlink:title=" ">
<polygon fill="white" stroke="#666666" points="805,-541 697,-541 697,-522 805,-522 805,-541"/>
<text text-anchor="middle" x="751" y="-529" font-family="Helvetica,sans-Serif" font-size="10.00">CKnn::countMaxima_</text>
</a>
</g>
</g>
<!-- Node1&#45;&gt;Node7 -->
<g id="edge6" class="edge">
<title>Node1&#45;&gt;Node7</title>
<path fill="none" stroke="#63b8ff" d="M837.76,-542.57C827.15,-541.2 816.01,-539.76 805.4,-538.39"/>
<polygon fill="#63b8ff" stroke="#63b8ff" points="837.38,-546.05 847.74,-543.85 838.27,-539.1 837.38,-546.05"/>
</g>
<!-- Node9 -->
<g id="node9" class="node">
<title>Node9</title>
<g id="a_node9"><a xlink:href="a00390.xhtml#ad3ef7f984b93956e27cea585759fbc2e" target="_top" xlink:title=" ">
<polygon fill="white" stroke="#666666" points="802.5,-674.5 699.5,-674.5 699.5,-644.5 802.5,-644.5 802.5,-674.5"/>
<text text-anchor="start" x="707.5" y="-662.5" font-family="Helvetica,sans-Serif" font-size="10.00">CPitchTimeAuditory</text>
<text text-anchor="middle" x="751" y="-651.5" font-family="Helvetica,sans-Serif" font-size="10.00">::getAcfMax_</text>
</a>
</g>
</g>
<!-- Node1&#45;&gt;Node9 -->
<g id="edge8" class="edge">
<title>Node1&#45;&gt;Node9</title>
<path fill="none" stroke="#63b8ff" d="M878.95,-567.21C864.64,-586.3 839.62,-616.5 812,-635.5 807.19,-638.81 801.86,-641.76 796.42,-644.37"/>
<polygon fill="#63b8ff" stroke="#63b8ff" points="881.83,-569.2 884.92,-559.06 876.18,-565.06 881.83,-569.2"/>
</g>
<!-- Node11 -->
<g id="node11" class="node">
<title>Node11</title>
<g id="a_node11"><a xlink:href="a00546.xhtml#a166090237df809ea2fa9e0cb73bca3c0" target="_top" xlink:title=" ">
<polygon fill="white" stroke="#666666" points="802,-465 700,-465 700,-446 802,-446 802,-465"/>
<text text-anchor="middle" x="751" y="-453" font-family="Helvetica,sans-Serif" font-size="10.00">CCcf::getCcfMaxIdx</text>
</a>
</g>
</g>
<!-- Node1&#45;&gt;Node11 -->
<g id="edge10" class="edge">
<title>Node1&#45;&gt;Node11</title>
<path fill="none" stroke="#63b8ff" d="M875.48,-532.38C860.3,-516.94 836.28,-494.43 812,-479.5 802.63,-473.74 791.65,-468.88 781.65,-465.06"/>
<polygon fill="#63b8ff" stroke="#63b8ff" points="873.1,-534.96 882.56,-539.73 878.14,-530.1 873.1,-534.96"/>
</g>
<!-- Node12 -->
<g id="node12" class="node">
<title>Node12</title>
<g id="a_node12"><a xlink:href="a00502.xhtml#a9f5be871090bc5a64a7732cebfb4f8ec" target="_top" xlink:title=" ">
<polygon fill="white" stroke="#666666" points="795,-322 707,-322 707,-303 795,-303 795,-322"/>
<text text-anchor="middle" x="751" y="-310" font-family="Helvetica,sans-Serif" font-size="10.00">CVector::getMax</text>
</a>
</g>
</g>
<!-- Node1&#45;&gt;Node12 -->
<g id="edge11" class="edge">
<title>Node1&#45;&gt;Node12</title>
<path fill="none" stroke="#63b8ff" d="M880.61,-531.01C852.61,-483.44 778.82,-358.06 757.71,-322.2"/>
<polygon fill="#63b8ff" stroke="#63b8ff" points="877.77,-533.07 885.86,-539.92 883.8,-529.52 877.77,-533.07"/>
</g>
<!-- Node3 -->
<g id="node3" class="node">
<title>Node3</title>
<g id="a_node3"><a xlink:href="a00005.xhtml#a0ddf1224851353fc92bfbff6f499fa97" target="_top" xlink:title=" ">
<polygon fill="white" stroke="#666666" points="592,-712 554,-712 554,-693 592,-693 592,-712"/>
<text text-anchor="middle" x="573" y="-700" font-family="Helvetica,sans-Serif" font-size="10.00">main</text>
</a>
</g>
</g>
<!-- Node2&#45;&gt;Node3 -->
<g id="edge2" class="edge">
<title>Node2&#45;&gt;Node3</title>
<path fill="none" stroke="#63b8ff" d="M683.8,-702.5C650.97,-702.5 613.81,-702.5 592.23,-702.5"/>
<polygon fill="#63b8ff" stroke="#63b8ff" points="683.83,-706 693.83,-702.5 683.83,-699 683.83,-706"/>
</g>
<!-- Node8 -->
<g id="node8" class="node">
<title>Node8</title>
<g id="a_node8"><a xlink:href="a00626.xhtml#a16bb56f19951aee5c4986a9dc7aeb853" target="_top" xlink:title=" ">
<polygon fill="white" stroke="#666666" points="422.5,-503 344.5,-503 344.5,-484 422.5,-484 422.5,-503"/>
<text text-anchor="middle" x="383.5" y="-491" font-family="Helvetica,sans-Serif" font-size="10.00">CKnn::classify</text>
</a>
</g>
</g>
<!-- Node7&#45;&gt;Node8 -->
<g id="edge7" class="edge">
<title>Node7&#45;&gt;Node8</title>
<path fill="none" stroke="#63b8ff" d="M686.73,-530.98C634.33,-529.85 558.03,-526.6 492,-517.5 467.94,-514.18 441.3,-508.25 420.55,-503.12"/>
<polygon fill="#63b8ff" stroke="#63b8ff" points="686.82,-534.48 696.88,-531.18 686.96,-527.48 686.82,-534.48"/>
</g>
<!-- Node10 -->
<g id="node10" class="node">
<title>Node10</title>
<g id="a_node10"><a xlink:href="a00390.xhtml#a371af164926ee54ebfd298fa4dca8842" target="_top" xlink:title=" ">
<polygon fill="white" stroke="#666666" points="624.5,-674.5 521.5,-674.5 521.5,-644.5 624.5,-644.5 624.5,-674.5"/>
<text text-anchor="start" x="529.5" y="-662.5" font-family="Helvetica,sans-Serif" font-size="10.00">CPitchTimeAuditory</text>
<text text-anchor="middle" x="573" y="-651.5" font-family="Helvetica,sans-Serif" font-size="10.00">::compF0</text>
</a>
</g>
</g>
<!-- Node9&#45;&gt;Node10 -->
<g id="edge9" class="edge">
<title>Node9&#45;&gt;Node10</title>
<path fill="none" stroke="#63b8ff" d="M689.01,-659.5C668.06,-659.5 644.85,-659.5 624.79,-659.5"/>
<polygon fill="#63b8ff" stroke="#63b8ff" points="689.09,-663 699.09,-659.5 689.09,-656 689.09,-663"/>
</g>
<!-- Node12&#45;&gt;Node4 -->
<g id="edge15" class="edge">
<title>Node12&#45;&gt;Node4</title>
<path fill="none" stroke="#63b8ff" d="M743.22,-332.02C730.77,-365.03 701.14,-431.84 654,-468.5 645.16,-475.38 634.39,-480.38 623.67,-484.01"/>
<polygon fill="#63b8ff" stroke="#63b8ff" points="746.66,-332.81 746.79,-322.22 740.08,-330.42 746.66,-332.81"/>
</g>
<!-- Node13 -->
<g id="node13" class="node">
<title>Node13</title>
<g id="a_node13"><a xlink:href="a00626.xhtml#a875c603ba28294ac2575eb6e06407018" target="_top" xlink:title=" ">
<polygon fill="white" stroke="#666666" points="631,-460 515,-460 515,-441 631,-441 631,-460"/>
<text text-anchor="middle" x="573" y="-448" font-family="Helvetica,sans-Serif" font-size="10.00">CKnn::buildHistogram_</text>
</a>
</g>
</g>
<!-- Node12&#45;&gt;Node13 -->
<g id="edge12" class="edge">
<title>Node12&#45;&gt;Node13</title>
<path fill="none" stroke="#63b8ff" d="M740.11,-331.39C725.15,-358.01 694.22,-406.14 654,-431.5 647.12,-435.84 639.33,-439.19 631.39,-441.77"/>
<polygon fill="#63b8ff" stroke="#63b8ff" points="743.33,-332.79 745.04,-322.33 737.18,-329.44 743.33,-332.79"/>
</g>
<!-- Node14 -->
<g id="node14" class="node">
<title>Node14</title>
<g id="a_node14"><a xlink:href="a00606.xhtml#a0f2e96a9c1a1ab0b85e1410b00f0aa8e" target="_top" xlink:title=" ">
<polygon fill="white" stroke="#666666" points="646,-262.5 500,-262.5 500,-232.5 646,-232.5 646,-262.5"/>
<text text-anchor="start" x="508" y="-250.5" font-family="Helvetica,sans-Serif" font-size="10.00">CNormalizeAudio::CNormalize</text>
<text text-anchor="middle" x="573" y="-239.5" font-family="Helvetica,sans-Serif" font-size="10.00">Audio</text>
</a>
</g>
</g>
<!-- Node12&#45;&gt;Node14 -->
<g id="edge14" class="edge">
<title>Node12&#45;&gt;Node14</title>
<path fill="none" stroke="#63b8ff" d="M720.08,-298.69C701.31,-290.29 676.49,-279.65 654,-271.5 645.41,-268.39 636.2,-265.36 627.2,-262.55"/>
<polygon fill="#63b8ff" stroke="#63b8ff" points="718.74,-301.93 729.3,-302.86 721.62,-295.55 718.74,-301.93"/>
</g>
<!-- Node15 -->
<g id="node15" class="node">
<title>Node15</title>
<g id="a_node15"><a xlink:href="a00350.xhtml#a9edc446602d49a15cf4c978289e2094a" target="_top" xlink:title=" ">
<polygon fill="white" stroke="#666666" points="628.5,-214.5 517.5,-214.5 517.5,-184.5 628.5,-184.5 628.5,-214.5"/>
<text text-anchor="start" x="525.5" y="-202.5" font-family="Helvetica,sans-Serif" font-size="10.00">CFeatureTimeMaxAcf</text>
<text text-anchor="middle" x="573" y="-191.5" font-family="Helvetica,sans-Serif" font-size="10.00">::compFeature</text>
</a>
</g>
</g>
<!-- Node12&#45;&gt;Node15 -->
<g id="edge16" class="edge">
<title>Node12&#45;&gt;Node15</title>
<path fill="none" stroke="#63b8ff" d="M735.79,-295.21C718.45,-275.2 687.32,-242.55 654,-223.5 646.2,-219.04 637.48,-215.33 628.75,-212.27"/>
<polygon fill="#63b8ff" stroke="#63b8ff" points="733.2,-297.57 742.34,-302.94 738.54,-293.05 733.2,-297.57"/>
</g>
<!-- Node16 -->
<g id="node16" class="node">
<title>Node16</title>
<g id="a_node16"><a xlink:href="a00470.xhtml#a15df133306497e4f85929692354f378a" target="_top" xlink:title=" ">
<polygon fill="white" stroke="#666666" points="641.5,-166 504.5,-166 504.5,-125 641.5,-125 641.5,-166"/>
<text text-anchor="start" x="512.5" y="-154" font-family="Helvetica,sans-Serif" font-size="10.00">CFeatureFromBlockIf</text>
<text text-anchor="start" x="512.5" y="-143" font-family="Helvetica,sans-Serif" font-size="10.00">::compFeatureSpectralCrest</text>
<text text-anchor="middle" x="573" y="-132" font-family="Helvetica,sans-Serif" font-size="10.00">Factor</text>
</a>
</g>
</g>
<!-- Node12&#45;&gt;Node16 -->
<g id="edge17" class="edge">
<title>Node12&#45;&gt;Node16</title>
<path fill="none" stroke="#63b8ff" d="M741.37,-293.56C727.15,-264.3 696.1,-208.12 654,-175.5 649.54,-172.05 644.65,-168.96 639.54,-166.2"/>
<polygon fill="#63b8ff" stroke="#63b8ff" points="738.25,-295.15 745.69,-302.7 744.58,-292.16 738.25,-295.15"/>
</g>
<!-- Node17 -->
<g id="node17" class="node">
<title>Node17</title>
<g id="a_node17"><a xlink:href="a00470.xhtml#a8343fab849f52e77639b46e759e7e49d" target="_top" xlink:title=" ">
<polygon fill="white" stroke="#666666" points="654,-106.5 492,-106.5 492,-76.5 654,-76.5 654,-106.5"/>
<text text-anchor="start" x="500" y="-94.5" font-family="Helvetica,sans-Serif" font-size="10.00">CFeatureFromBlockIf</text>
<text text-anchor="middle" x="573" y="-83.5" font-family="Helvetica,sans-Serif" font-size="10.00">::compFeatureTimePeakEnvelope</text>
</a>
</g>
</g>
<!-- Node12&#45;&gt;Node17 -->
<g id="edge18" class="edge">
<title>Node12&#45;&gt;Node17</title>
<path fill="none" stroke="#63b8ff" d="M745.9,-292.58C736.69,-252.87 710.59,-163.59 654,-115.5 649.91,-112.03 645.33,-109.05 640.49,-106.51"/>
<polygon fill="#63b8ff" stroke="#63b8ff" points="742.54,-293.58 748.11,-302.59 749.37,-292.07 742.54,-293.58"/>
</g>
<!-- Node19 -->
<g id="node19" class="node">
<title>Node19</title>
<g id="a_node19"><a xlink:href="a00462.xhtml#a9c21f9c80f6880682d822c53232bbff9" target="_top" xlink:title=" ">
<polygon fill="white" stroke="#666666" points="642,-58.5 504,-58.5 504,-28.5 642,-28.5 642,-58.5"/>
<text text-anchor="start" x="512" y="-46.5" font-family="Helvetica,sans-Serif" font-size="10.00">CClassifierBase::compNorm</text>
<text text-anchor="middle" x="573" y="-35.5" font-family="Helvetica,sans-Serif" font-size="10.00">Constants</text>
</a>
</g>
</g>
<!-- Node12&#45;&gt;Node19 -->
<g id="edge20" class="edge">
<title>Node12&#45;&gt;Node19</title>
<path fill="none" stroke="#63b8ff" d="M748.04,-292.67C742.38,-246.29 721.84,-129.99 654,-67.5 650.27,-64.06 646.06,-61.11 641.58,-58.59"/>
<polygon fill="#63b8ff" stroke="#63b8ff" points="744.59,-293.32 749.17,-302.87 751.55,-292.55 744.59,-293.32"/>
</g>
<!-- Node22 -->
<g id="node22" class="node">
<title>Node22</title>
<g id="a_node22"><a xlink:href="a00514.xhtml#a9f110985f86064fa24aa3157bfd5cab0" target="_top" xlink:title=" ">
<polygon fill="white" stroke="#666666" points="635,-423 511,-423 511,-404 635,-404 635,-423"/>
<text text-anchor="middle" x="573" y="-411" font-family="Helvetica,sans-Serif" font-size="10.00">CNoveltyIf::compNovelty</text>
</a>
</g>
</g>
<!-- Node12&#45;&gt;Node22 -->
<g id="edge23" class="edge">
<title>Node12&#45;&gt;Node22</title>
<path fill="none" stroke="#63b8ff" d="M734.9,-329.54C717.31,-348.3 686.51,-377.98 654,-394.5 646.36,-398.38 637.91,-401.48 629.45,-403.96"/>
<polygon fill="#63b8ff" stroke="#63b8ff" points="737.62,-331.75 741.79,-322.01 732.46,-327.02 737.62,-331.75"/>
</g>
<!-- Node26 -->
<g id="node26" class="node">
<title>Node26</title>
<g id="a_node26"><a xlink:href="a00546.xhtml#afa3cb0579386bd1108d010962e801d31" target="_top" xlink:title=" ">
<polygon fill="white" stroke="#666666" points="617.5,-386 528.5,-386 528.5,-367 617.5,-367 617.5,-386"/>
<text text-anchor="middle" x="573" y="-374" font-family="Helvetica,sans-Serif" font-size="10.00">CCcf::getCcfMax</text>
</a>
</g>
</g>
<!-- Node12&#45;&gt;Node26 -->
<g id="edge27" class="edge">
<title>Node12&#45;&gt;Node26</title>
<path fill="none" stroke="#63b8ff" d="M723.49,-326.73C704.55,-336.45 678.23,-349.04 654,-357.5 642.41,-361.54 629.58,-365.02 617.65,-367.84"/>
<polygon fill="#63b8ff" stroke="#63b8ff" points="725.16,-329.81 732.41,-322.09 721.93,-323.6 725.16,-329.81"/>
</g>
<!-- Node27 -->
<g id="node27" class="node">
<title>Node27</title>
<g id="a_node27"><a xlink:href="a00486.xhtml#aac9eff035a753b3ecb357d4c24637b8b" target="_top" xlink:title=" ">
<polygon fill="white" stroke="#666666" points="616,-300 530,-300 530,-281 616,-281 616,-300"/>
<text text-anchor="middle" x="573" y="-288" font-family="Helvetica,sans-Serif" font-size="10.00">CMatrix::getMax</text>
</a>
</g>
</g>
<!-- Node12&#45;&gt;Node27 -->
<g id="edge28" class="edge">
<title>Node12&#45;&gt;Node27</title>
<path fill="none" stroke="#63b8ff" d="M696.91,-305.86C670.99,-302.62 640.25,-298.78 616,-295.75"/>
<polygon fill="#63b8ff" stroke="#63b8ff" points="696.59,-309.35 706.95,-307.12 697.46,-302.4 696.59,-309.35"/>
</g>
<!-- Node32 -->
<g id="node32" class="node">
<title>Node32</title>
<g id="a_node32"><a xlink:href="a00606.xhtml#a9a0dbb8f97c757a13062370113d661c4" target="_top" xlink:title=" ">
<polygon fill="white" stroke="#666666" points="641.5,-348.5 504.5,-348.5 504.5,-318.5 641.5,-318.5 641.5,-348.5"/>
<text text-anchor="start" x="512.5" y="-336.5" font-family="Helvetica,sans-Serif" font-size="10.00">CNormalizeAudio::normalize</text>
<text text-anchor="middle" x="573" y="-325.5" font-family="Helvetica,sans-Serif" font-size="10.00">Signal</text>
</a>
</g>
</g>
<!-- Node12&#45;&gt;Node32 -->
<g id="edge33" class="edge">
<title>Node12&#45;&gt;Node32</title>
<path fill="none" stroke="#63b8ff" d="M696.97,-318.83C679.57,-320.9 659.98,-323.24 641.64,-325.43"/>
<polygon fill="#63b8ff" stroke="#63b8ff" points="697.43,-322.3 706.95,-317.64 696.6,-315.35 697.43,-322.3"/>
</g>
<!-- Node13&#45;&gt;Node8 -->
<g id="edge13" class="edge">
<title>Node13&#45;&gt;Node8</title>
<path fill="none" stroke="#63b8ff" d="M520.25,-462.37C489.4,-469.44 450.91,-478.27 422.8,-484.72"/>
<polygon fill="#63b8ff" stroke="#63b8ff" points="521.42,-465.69 530.39,-460.04 519.86,-458.87 521.42,-465.69"/>
</g>
<!-- Node18 -->
<g id="node18" class="node">
<title>Node18</title>
<g id="a_node18"><a xlink:href="a00354.xhtml#a804fcf1a03e0bb857bdbec4454803b96" target="_top" xlink:title=" ">
<polygon fill="white" stroke="#666666" points="453.5,-106.5 313.5,-106.5 313.5,-76.5 453.5,-76.5 453.5,-106.5"/>
<text text-anchor="start" x="321.5" y="-94.5" font-family="Helvetica,sans-Serif" font-size="10.00">CFeatureTimePeakEnvelope</text>
<text text-anchor="middle" x="383.5" y="-83.5" font-family="Helvetica,sans-Serif" font-size="10.00">::compFeature</text>
</a>
</g>
</g>
<!-- Node17&#45;&gt;Node18 -->
<g id="edge19" class="edge">
<title>Node17&#45;&gt;Node18</title>
<path fill="none" stroke="#63b8ff" d="M481.73,-91.5C472.29,-91.5 462.8,-91.5 453.65,-91.5"/>
<polygon fill="#63b8ff" stroke="#63b8ff" points="481.94,-95 491.94,-91.5 481.94,-88 481.94,-95"/>
</g>
<!-- Node20 -->
<g id="node20" class="node">
<title>Node20</title>
<g id="a_node20"><a xlink:href="a00570.xhtml#af086e0bae5cc3cb68c35745749b0fda5" target="_top" xlink:title=" ">
<polygon fill="white" stroke="#666666" points="438.5,-56 328.5,-56 328.5,-37 438.5,-37 438.5,-56"/>
<text text-anchor="middle" x="383.5" y="-44" font-family="Helvetica,sans-Serif" font-size="10.00">CGmmClassifier::train</text>
</a>
</g>
</g>
<!-- Node19&#45;&gt;Node20 -->
<g id="edge21" class="edge">
<title>Node19&#45;&gt;Node20</title>
<path fill="none" stroke="#63b8ff" d="M493.59,-44.75C475.08,-45.05 455.74,-45.36 438.57,-45.63"/>
<polygon fill="#63b8ff" stroke="#63b8ff" points="493.84,-48.25 503.78,-44.59 493.72,-41.25 493.84,-48.25"/>
</g>
<!-- Node21 -->
<g id="node21" class="node">
<title>Node21</title>
<g id="a_node21"><a xlink:href="a00626.xhtml#aedd5ce22bf1cf98b70cc3757ba244b94" target="_top" xlink:title=" ">
<polygon fill="white" stroke="#666666" points="415.5,-19 351.5,-19 351.5,0 415.5,0 415.5,-19"/>
<text text-anchor="middle" x="383.5" y="-7" font-family="Helvetica,sans-Serif" font-size="10.00">CKnn::train</text>
</a>
</g>
</g>
<!-- Node19&#45;&gt;Node21 -->
<g id="edge22" class="edge">
<title>Node19&#45;&gt;Node21</title>
<path fill="none" stroke="#63b8ff" d="M493.76,-29.31C466.31,-24.33 437.03,-19.03 415.7,-15.16"/>
<polygon fill="#63b8ff" stroke="#63b8ff" points="493.31,-32.79 503.78,-31.13 494.56,-25.9 493.31,-32.79"/>
</g>
<!-- Node23 -->
<g id="node23" class="node">
<title>Node23</title>
<g id="a_node23"><a xlink:href="a00450.xhtml#a58a9a3d685f448ced2e843a60028e472" target="_top" xlink:title=" ">
<polygon fill="white" stroke="#666666" points="456,-364 311,-364 311,-345 456,-345 456,-364"/>
<text text-anchor="middle" x="383.5" y="-352" font-family="Helvetica,sans-Serif" font-size="10.00">CBeatHistoIf::compBeatHisto</text>
</a>
</g>
</g>
<!-- Node22&#45;&gt;Node23 -->
<g id="edge24" class="edge">
<title>Node22&#45;&gt;Node23</title>
<path fill="none" stroke="#63b8ff" d="M517.39,-401.48C508.84,-399.33 500.15,-396.97 492,-394.5 462.46,-385.53 429.29,-372.76 407.7,-364.08"/>
<polygon fill="#63b8ff" stroke="#63b8ff" points="516.76,-404.93 527.31,-403.91 518.43,-398.13 516.76,-404.93"/>
</g>
<!-- Node25 -->
<g id="node25" class="node">
<title>Node25</title>
<g id="a_node25"><a xlink:href="a00023.xhtml#a0ddf1224851353fc92bfbff6f499fa97" target="_top" xlink:title=" ">
<polygon fill="white" stroke="#666666" points="402.5,-423 364.5,-423 364.5,-404 402.5,-404 402.5,-423"/>
<text text-anchor="middle" x="383.5" y="-411" font-family="Helvetica,sans-Serif" font-size="10.00">main</text>
</a>
</g>
</g>
<!-- Node22&#45;&gt;Node25 -->
<g id="edge26" class="edge">
<title>Node22&#45;&gt;Node25</title>
<path fill="none" stroke="#63b8ff" d="M500.55,-413.5C465.22,-413.5 425.4,-413.5 402.79,-413.5"/>
<polygon fill="#63b8ff" stroke="#63b8ff" points="500.86,-417 510.86,-413.5 500.86,-410 500.86,-417"/>
</g>
<!-- Node24 -->
<g id="node24" class="node">
<title>Node24</title>
<g id="a_node24"><a xlink:href="a00011.xhtml#a0ddf1224851353fc92bfbff6f499fa97" target="_top" xlink:title=" ">
<polygon fill="white" stroke="#666666" points="255.5,-364 217.5,-364 217.5,-345 255.5,-345 255.5,-364"/>
<text text-anchor="middle" x="236.5" y="-352" font-family="Helvetica,sans-Serif" font-size="10.00">main</text>
</a>
</g>
</g>
<!-- Node23&#45;&gt;Node24 -->
<g id="edge25" class="edge">
<title>Node23&#45;&gt;Node24</title>
<path fill="none" stroke="#63b8ff" d="M300.76,-354.5C283.7,-354.5 267.34,-354.5 255.53,-354.5"/>
<polygon fill="#63b8ff" stroke="#63b8ff" points="300.85,-358 310.85,-354.5 300.85,-351 300.85,-358"/>
</g>
<!-- Node28 -->
<g id="node28" class="node">
<title>Node28</title>
<g id="a_node28"><a xlink:href="a00454.xhtml#a2dc9b2b2e4912e45835c5727d550aee7" target="_top" xlink:title=" ">
<polygon fill="white" stroke="#666666" points="436,-300 331,-300 331,-281 436,-281 436,-300"/>
<text text-anchor="middle" x="383.5" y="-288" font-family="Helvetica,sans-Serif" font-size="10.00">CChordIf::initViterbi_</text>
</a>
</g>
</g>
<!-- Node27&#45;&gt;Node28 -->
<g id="edge29" class="edge">
<title>Node27&#45;&gt;Node28</title>
<path fill="none" stroke="#63b8ff" d="M519.83,-290.5C493.71,-290.5 462.18,-290.5 436.14,-290.5"/>
<polygon fill="#63b8ff" stroke="#63b8ff" points="519.92,-294 529.92,-290.5 519.92,-287 519.92,-294"/>
</g>
<!-- Node29 -->
<g id="node29" class="node">
<title>Node29</title>
<g id="a_node29"><a xlink:href="a00454.xhtml#ad48a5bd574f16b7491b70efb9998935f" target="_top" xlink:title="init configuration">
<polygon fill="white" stroke="#666666" points="275,-300 198,-300 198,-281 275,-281 275,-300"/>
<text text-anchor="middle" x="236.5" y="-288" font-family="Helvetica,sans-Serif" font-size="10.00">CChordIf::init_</text>
</a>
</g>
</g>
<!-- Node28&#45;&gt;Node29 -->
<g id="edge30" class="edge">
<title>Node28&#45;&gt;Node29</title>
<path fill="none" stroke="#63b8ff" d="M320.89,-290.5C305.36,-290.5 289.15,-290.5 275.19,-290.5"/>
<polygon fill="#63b8ff" stroke="#63b8ff" points="320.97,-294 330.97,-290.5 320.97,-287 320.97,-294"/>
</g>
<!-- Node30 -->
<g id="node30" class="node">
<title>Node30</title>
<g id="a_node30"><a xlink:href="a00310.xhtml#a6df404d2eb3d4c8f9dc2071930fc9e7e" target="_top" xlink:title=" ">
<polygon fill="white" stroke="#666666" points="162,-322 0,-322 0,-303 162,-303 162,-322"/>
<text text-anchor="middle" x="81" y="-310" font-family="Helvetica,sans-Serif" font-size="10.00">CChordFromFile::CChordFromFile</text>
</a>
</g>
</g>
<!-- Node29&#45;&gt;Node30 -->
<g id="edge31" class="edge">
<title>Node29&#45;&gt;Node30</title>
<path fill="none" stroke="#63b8ff" d="M187.81,-297.33C175.37,-299.12 161.73,-301.07 148.5,-302.97"/>
<polygon fill="#63b8ff" stroke="#63b8ff" points="188.55,-300.77 197.95,-295.88 187.55,-293.84 188.55,-300.77"/>
</g>
<!-- Node31 -->
<g id="node31" class="node">
<title>Node31</title>
<g id="a_node31"><a xlink:href="a00314.xhtml#ac9c41c2ddc441df7e0ae80c25971c260" target="_top" xlink:title=" ">
<polygon fill="white" stroke="#666666" points="149.5,-284.5 12.5,-284.5 12.5,-254.5 149.5,-254.5 149.5,-284.5"/>
<text text-anchor="start" x="20.5" y="-272.5" font-family="Helvetica,sans-Serif" font-size="10.00">CChordFromVector::CChord</text>
<text text-anchor="middle" x="81" y="-261.5" font-family="Helvetica,sans-Serif" font-size="10.00">FromVector</text>
</a>
</g>
</g>
<!-- Node29&#45;&gt;Node31 -->
<g id="edge32" class="edge">
<title>Node29&#45;&gt;Node31</title>
<path fill="none" stroke="#63b8ff" d="M187.7,-283.96C175.66,-282.31 162.51,-280.52 149.71,-278.76"/>
<polygon fill="#63b8ff" stroke="#63b8ff" points="187.57,-287.47 197.95,-285.36 188.52,-280.54 187.57,-287.47"/>
</g>
<!-- Node32&#45;&gt;Node23 -->
<g id="edge34" class="edge">
<title>Node32&#45;&gt;Node23</title>
<path fill="none" stroke="#63b8ff" d="M494.3,-342.2C481.68,-343.62 468.67,-345.07 456.21,-346.47"/>
<polygon fill="#63b8ff" stroke="#63b8ff" points="494.76,-345.67 504.31,-341.08 493.98,-338.72 494.76,-345.67"/>
</g>
</g>
</svg>
        <g id="navigator" transform="translate(0 0)" fill="#404254">
                <rect fill="#f2f5e9" fill-opacity="0.5" stroke="#606060" stroke-width=".5" x="0" y="0" width="60" height="60"/>
                <use id="zoomplus" xlink:href="#zoomPlus" x="17" y="9" onmousedown="handleZoom(evt,'in')"/>
                <use id="zoomminus" xlink:href="#zoomMin" x="42" y="9" onmousedown="handleZoom(evt,'out')"/>
                <use id="reset" xlink:href="#resetDef" x="30" y="36" onmousedown="handleReset()"/>
                <g id="arrowUp" xlink:href="#dirArrow" transform="translate(30 24)" onmousedown="handlePan(0,-1)">
                  <use xlink:href="#rim" fill="#404040">
                        <set attributeName="fill" to="#808080" begin="arrowUp.mouseover" end="arrowUp.mouseout"/>
                  </use>
                  <path fill="none" stroke="white" stroke-width="1.5" d="M0,-3.0v7 M-2.5,-0.5L0,-3.0L2.5,-0.5"/>
                </g>
                <g id="arrowRight" xlink:href="#dirArrow" transform="rotate(90) translate(36 -43)" onmousedown="handlePan(1,0)">
                  <use xlink:href="#rim" fill="#404040">
                        <set attributeName="fill" to="#808080" begin="arrowRight.mouseover" end="arrowRight.mouseout"/>
                  </use>
                  <path fill="none" stroke="white" stroke-width="1.5" d="M0,-3.0v7 M-2.5,-0.5L0,-3.0L2.5,-0.5"/>
                </g>
                <g id="arrowDown" xlink:href="#dirArrow" transform="rotate(180) translate(-30 -48)" onmousedown="handlePan(0,1)">
                  <use xlink:href="#rim" fill="#404040">
                        <set attributeName="fill" to="#808080" begin="arrowDown.mouseover" end="arrowDown.mouseout"/>
                  </use>
                  <path fill="none" stroke="white" stroke-width="1.5" d="M0,-3.0v7 M-2.5,-0.5L0,-3.0L2.5,-0.5"/>
                </g>
                <g id="arrowLeft" xlink:href="#dirArrow" transform="rotate(270) translate(-36 17)" onmousedown="handlePan(-1,0)">
                  <use xlink:href="#rim" fill="#404040">
                        <set attributeName="fill" to="#808080" begin="arrowLeft.mouseover" end="arrowLeft.mouseout"/>
                  </use>
                  <path fill="none" stroke="white" stroke-width="1.5" d="M0,-3.0v7 M-2.5,-0.5L0,-3.0L2.5,-0.5"/>
                </g>
        </g>
        <svg viewBox="0 0 15 15" width="100%" height="30px" preserveAspectRatio="xMaxYMin meet">
         <g id="arrow_out" transform="scale(0.3 0.3)">
          <a xlink:href="a00502_a34a5c0abd80cd982df8a8bae7cbcea19_icgraph_org.svg" target="_base">
           <rect id="button" ry="5" rx="5" y="6" x="6" height="38" width="38"
                fill="#f2f5e9" fill-opacity="0.5" stroke="#606060" stroke-width="1.0"/>
           <path id="arrow"
             d="M 11.500037,31.436501 C 11.940474,20.09759 22.043105,11.32322 32.158766,21.979434 L 37.068811,17.246167 C 37.068811,17.246167 37.088388,32 37.088388,32 L 22.160133,31.978069 C 22.160133,31.978069 26.997745,27.140456 26.997745,27.140456 C 18.528582,18.264221 13.291696,25.230495 11.500037,31.436501 z"
             style="fill:#404040;"/>
          </a>
         </g>
        </svg>
</svg>
