<?xml version="1.0" encoding="UTF-8" standalone="no"?>
<!DOCTYPE svg PUBLIC "-//W3C//DTD SVG 1.1//EN"
 "http://www.w3.org/Graphics/SVG/1.1/DTD/svg11.dtd">
<!-- Generated by graphviz version 6.0.1 (20220911.1526)
 -->
<!-- Title: CPca::compCov Pages: 1 -->
<svg width="505pt" height="64pt"
 viewBox="0.00 0.00 505.00 64.00" xmlns="http://www.w3.org/2000/svg" xmlns:xlink="http://www.w3.org/1999/xlink">
<g id="graph0" class="graph" transform="scale(1 1) rotate(0) translate(4 60)">
<title>CPca::compCov</title>
<!-- Node1 -->
<g id="node1" class="node">
<title>Node1</title>
<g id="a_node1"><a xlink:title=" ">
<polygon fill="#999999" stroke="#666666" points="497,-37 411,-37 411,-18 497,-18 497,-37"/>
<text text-anchor="middle" x="454" y="-25" font-family="Helvetica,sans-Serif" font-size="10.00">CPca::compCov</text>
</a>
</g>
</g>
<!-- Node2 -->
<g id="node2" class="node">
<title>Node2</title>
<g id="a_node2"><a xlink:href="a00598.xhtml#a3185f8f3c718973ce66de3595e38db09" target="_top" xlink:title=" ">
<polygon fill="white" stroke="#666666" points="371.5,-56 285.5,-56 285.5,-37 371.5,-37 371.5,-56"/>
<text text-anchor="middle" x="328.5" y="-44" font-family="Helvetica,sans-Serif" font-size="10.00">CPca::compPca</text>
</a>
</g>
</g>
<!-- Node1&#45;&gt;Node2 -->
<g id="edge1" class="edge">
<title>Node1&#45;&gt;Node2</title>
<path fill="none" stroke="#63b8ff" d="M400.92,-35.51C391.24,-37 381.23,-38.54 371.89,-39.98"/>
<polygon fill="#63b8ff" stroke="#63b8ff" points="401.49,-38.97 410.84,-33.99 400.43,-32.05 401.49,-38.97"/>
</g>
<!-- Node3 -->
<g id="node3" class="node">
<title>Node3</title>
<g id="a_node3"><a xlink:href="a00566.xhtml#a5ba31c15070952d0c4cb442c7e257f50" target="_top" xlink:title=" ">
<polygon fill="white" stroke="#666666" points="375,-19 282,-19 282,0 375,0 375,-19"/>
<text text-anchor="middle" x="328.5" y="-7" font-family="Helvetica,sans-Serif" font-size="10.00">CGmm::initState_</text>
</a>
</g>
</g>
<!-- Node1&#45;&gt;Node3 -->
<g id="edge2" class="edge">
<title>Node1&#45;&gt;Node3</title>
<path fill="none" stroke="#63b8ff" d="M400.7,-19.88C392.25,-18.65 383.55,-17.38 375.27,-16.17"/>
<polygon fill="#63b8ff" stroke="#63b8ff" points="400.44,-23.38 410.84,-21.36 401.45,-16.45 400.44,-23.38"/>
</g>
<!-- Node4 -->
<g id="node4" class="node">
<title>Node4</title>
<g id="a_node4"><a xlink:href="a00566.xhtml#a1c5c350c949120b07e5cbd1e317c7ad7" target="_top" xlink:title=" ">
<polygon fill="white" stroke="#666666" points="246,-19 146,-19 146,0 246,0 246,-19"/>
<text text-anchor="middle" x="196" y="-7" font-family="Helvetica,sans-Serif" font-size="10.00">CGmm::compGmm</text>
</a>
</g>
</g>
<!-- Node3&#45;&gt;Node4 -->
<g id="edge3" class="edge">
<title>Node3&#45;&gt;Node4</title>
<path fill="none" stroke="#63b8ff" d="M271.73,-9.5C263.31,-9.5 254.67,-9.5 246.39,-9.5"/>
<polygon fill="#63b8ff" stroke="#63b8ff" points="271.86,-13 281.86,-9.5 271.86,-6 271.86,-13"/>
</g>
<!-- Node5 -->
<g id="node5" class="node">
<title>Node5</title>
<g id="a_node5"><a xlink:href="a00570.xhtml#af086e0bae5cc3cb68c35745749b0fda5" target="_top" xlink:title=" ">
<polygon fill="white" stroke="#666666" points="110,-19 0,-19 0,0 110,0 110,-19"/>
<text text-anchor="middle" x="55" y="-7" font-family="Helvetica,sans-Serif" font-size="10.00">CGmmClassifier::train</text>
</a>
</g>
</g>
<!-- Node4&#45;&gt;Node5 -->
<g id="edge4" class="edge">
<title>Node4&#45;&gt;Node5</title>
<path fill="none" stroke="#63b8ff" d="M135.79,-9.5C127.31,-9.5 118.62,-9.5 110.24,-9.5"/>
<polygon fill="#63b8ff" stroke="#63b8ff" points="135.99,-13 145.99,-9.5 135.99,-6 135.99,-13"/>
</g>
</g>
</svg>
