<?xml version="1.0" encoding="UTF-8" standalone="no"?>
<!DOCTYPE svg PUBLIC "-//W3C//DTD SVG 1.1//EN"
 "http://www.w3.org/Graphics/SVG/1.1/DTD/svg11.dtd">
<!-- Generated by graphviz version 12.2.1 (20241206.2353)
 -->
<!-- Title: CNoveltyFromBlockIf::CNoveltyFromBlockIf Pages: 1 -->
<!--zoomable 205 -->

<svg id="main" version="1.1" xmlns="http://www.w3.org/2000/svg" xmlns:xlink="http://www.w3.org/1999/xlink" xml:space="preserve" onload="init(evt)">

<style type="text/css"><![CDATA[
.node, .edge {opacity: 0.7;}
.node.selected, .edge.selected {opacity: 1;}
.edge:hover path { stroke: red; }
.edge:hover polygon { stroke: red; fill: red; }
]]></style>

<defs>
  <circle id="rim" cx="0" cy="0" r="7"/>
  <circle id="rim2" cx="0" cy="0" r="3.5"/>
  <g id="zoomPlus">
    <use xlink:href="#rim" fill="#404040"><set attributeName="fill" to="#808080" begin="zoomplus.mouseover" end="zoomplus.mouseout"/></use>
    <path d="M-4,0h8M0,-4v8" fill="none" stroke="white" stroke-width="1.5" pointer-events="none"/>
  </g>
  <g id="zoomMin">
    <use xlink:href="#rim" fill="#404040"><set attributeName="fill" to="#808080" begin="zoomminus.mouseover" end="zoomminus.mouseout"/></use>
    <path d="M-4,0h8" fill="none" stroke="white" stroke-width="1.5" pointer-events="none"/>
  </g>
  <g id="arrowUp" transform="translate(30 24)">
    <use xlink:href="#rim"/>
    <path pointer-events="none" fill="none" stroke="white" stroke-width="1.5" d="M0,-3.0v7 M-2.5,-0.5L0,-3.0L2.5,-0.5"/>
  </g>
  <g id="arrowRight" transform="rotate(90) translate(36 -43)">
    <use xlink:href="#rim"/>
    <path pointer-events="none" fill="none" stroke="white" stroke-width="1.5" d="M0,-3.0v7 M-2.5,-0.5L0,-3.0L2.5,-0.5"/>
  </g>
  <g id="arrowDown" transform="rotate(180) translate(-30 -48)">
    <use xlink:href="#rim"/>
    <path pointer-events="none" fill="none" stroke="white" stroke-width="1.5" d="M0,-3.0v7 M-2.5,-0.5L0,-3.0L2.5,-0.5"/>
  </g>
  <g id="arrowLeft" transform="rotate(270) translate(-36 17)">
    <use xlink:href="#rim"/>
    <path pointer-events="none" fill="none" stroke="white" stroke-width="1.5" d="M0,-3.0v7 M-2.5,-0.5L0,-3.0L2.5,-0.5"/>
  </g>
  <g id="resetDef">
    <use xlink:href="#rim2" fill="#404040"><set attributeName="fill" to="#808080" begin="reset.mouseover" end="reset.mouseout"/></use>
  </g>
</defs>
<script type="application/ecmascript">
var viewWidth = 1110;
var viewHeight = 205;
var sectionId = 'dynsection-1';
</script>
<script type="application/ecmascript" xlink:href="svg.min.js"/>
<svg id="graph" class="graph">
<g id="viewport">
<title>CNoveltyFromBlockIf::CNoveltyFromBlockIf</title>
<!-- Node1 -->
<g id="Node000001" class="node">
<title>Node1</title>
<g id="a_Node000001"><a xlink:title=" ">
<polygon fill="#999999" stroke="#666666" points="1101.5,-122.88 988,-122.88 988,-92.38 1101.5,-92.38 1101.5,-122.88"/>
<text text-anchor="start" x="996" y="-109.38" font-family="Helvetica,sans-Serif" font-size="10.00">CNoveltyFromBlockIf</text>
<text text-anchor="middle" x="1044.75" y="-98.12" font-family="Helvetica,sans-Serif" font-size="10.00">::CNoveltyFromBlockIf</text>
</a>
</g>
</g>
<!-- Node2 -->
<g id="Node000002" class="node">
<title>Node2</title>
<g id="a_Node000002"><a xlink:href="a00521.xhtml#a309c0dba3870cb5bea82f7b08f4432f2" target="_top" xlink:title=" ">
<polygon fill="white" stroke="#666666" points="952,-196.88 838.5,-196.88 838.5,-166.38 952,-166.38 952,-196.88"/>
<text text-anchor="start" x="846.5" y="-183.38" font-family="Helvetica,sans-Serif" font-size="10.00">CNoveltyFromBlockIf</text>
<text text-anchor="middle" x="895.25" y="-172.12" font-family="Helvetica,sans-Serif" font-size="10.00">::CNoveltyFromBlockIf</text>
</a>
</g>
</g>
<!-- Node1&#45;&gt;Node2 -->
<g id="edge1_Node000001_Node000002" class="edge">
<title>Node1&#45;&gt;Node2</title>
<g id="a_edge1_Node000001_Node000002"><a xlink:title=" ">
<path fill="none" stroke="#63b8ff" d="M1005.73,-128.69C989.33,-137.57 969.86,-147.87 952,-156.62 945.62,-159.75 938.76,-162.96 932.11,-165.98"/>
<polygon fill="#63b8ff" stroke="#63b8ff" points="1007.06,-131.95 1014.17,-124.09 1003.71,-125.8 1007.06,-131.95"/>
</a>
</g>
</g>
<!-- Node3 -->
<g id="Node000003" class="node">
<title>Node3</title>
<g id="a_Node000003"><a xlink:href="a00521.xhtml#ad4c0e04f9ae0eaa7ccf48509125cab1a" target="_top" xlink:title=" ">
<polygon fill="white" stroke="#666666" points="949.75,-147.88 840.75,-147.88 840.75,-117.38 949.75,-117.38 949.75,-147.88"/>
<text text-anchor="start" x="848.75" y="-134.38" font-family="Helvetica,sans-Serif" font-size="10.00">CNoveltyFromBlockIf</text>
<text text-anchor="middle" x="895.25" y="-123.12" font-family="Helvetica,sans-Serif" font-size="10.00">::create</text>
</a>
</g>
</g>
<!-- Node1&#45;&gt;Node3 -->
<g id="edge2_Node000001_Node000003" class="edge">
<title>Node1&#45;&gt;Node3</title>
<g id="a_edge2_Node000001_Node000003"><a xlink:title=" ">
<path fill="none" stroke="#63b8ff" d="M976.4,-119.04C967.5,-120.55 958.47,-122.08 949.85,-123.54"/>
<polygon fill="#63b8ff" stroke="#63b8ff" points="976.8,-122.52 986.07,-117.4 975.63,-115.62 976.8,-122.52"/>
</a>
</g>
</g>
<!-- Node7 -->
<g id="Node000007" class="node">
<title>Node7</title>
<g id="a_Node000007"><a xlink:href="a00521.xhtml#a2066599bb659fd90d13bc8a57dec005e" target="_top" xlink:title=" ">
<polygon fill="white" stroke="#666666" points="949.75,-98.88 840.75,-98.88 840.75,-68.38 949.75,-68.38 949.75,-98.88"/>
<text text-anchor="start" x="848.75" y="-85.38" font-family="Helvetica,sans-Serif" font-size="10.00">CNoveltyFromBlockIf</text>
<text text-anchor="middle" x="895.25" y="-74.12" font-family="Helvetica,sans-Serif" font-size="10.00">::destroy</text>
</a>
</g>
</g>
<!-- Node1&#45;&gt;Node7 -->
<g id="edge6_Node000001_Node000007" class="edge">
<title>Node1&#45;&gt;Node7</title>
<g id="a_edge6_Node000001_Node000007"><a xlink:title=" ">
<path fill="none" stroke="#63b8ff" d="M976.4,-96.67C967.5,-95.22 958.47,-93.75 949.85,-92.35"/>
<polygon fill="#63b8ff" stroke="#63b8ff" points="975.64,-100.09 986.07,-98.24 976.76,-93.18 975.64,-100.09"/>
</a>
</g>
</g>
<!-- Node24 -->
<g id="Node000024" class="node">
<title>Node24</title>
<g id="a_Node000024"><a xlink:href="a00521.xhtml#af7d6dac2fcb2305c5736c1e5dd4cbf0e" target="_top" xlink:title=" ">
<polygon fill="white" stroke="#666666" points="949.75,-49.88 840.75,-49.88 840.75,-19.38 949.75,-19.38 949.75,-49.88"/>
<text text-anchor="start" x="848.75" y="-36.38" font-family="Helvetica,sans-Serif" font-size="10.00">CNoveltyFromBlockIf</text>
<text text-anchor="middle" x="895.25" y="-25.12" font-family="Helvetica,sans-Serif" font-size="10.00">::operator=</text>
</a>
</g>
</g>
<!-- Node1&#45;&gt;Node24 -->
<g id="edge25_Node000001_Node000024" class="edge">
<title>Node1&#45;&gt;Node24</title>
<g id="a_edge25_Node000001_Node000024"><a xlink:title=" ">
<path fill="none" stroke="#63b8ff" d="M1005.31,-86.86C988.99,-78.21 969.68,-68.2 952,-59.62 945.61,-56.52 938.74,-53.33 932.09,-50.31"/>
<polygon fill="#63b8ff" stroke="#63b8ff" points="1003.24,-89.72 1013.72,-91.33 1006.53,-83.54 1003.24,-89.72"/>
</a>
</g>
</g>
<!-- Node4 -->
<g id="Node000004" class="node">
<title>Node4</title>
<g id="a_Node000004"><a xlink:href="a00517.xhtml#a4beb226d8e7dd927c253667647e837ec" target="_top" xlink:title="init configuration">
<polygon fill="white" stroke="#666666" points="798,-142.25 713.75,-142.25 713.75,-123 798,-123 798,-142.25"/>
<text text-anchor="middle" x="755.88" y="-128.75" font-family="Helvetica,sans-Serif" font-size="10.00">CNoveltyIf::init_</text>
</a>
</g>
</g>
<!-- Node3&#45;&gt;Node4 -->
<g id="edge3_Node000003_Node000004" class="edge">
<title>Node3&#45;&gt;Node4</title>
<g id="a_edge3_Node000003_Node000004"><a xlink:title=" ">
<path fill="none" stroke="#63b8ff" d="M829.07,-132.62C818.6,-132.62 808.02,-132.62 798.3,-132.62"/>
<polygon fill="#63b8ff" stroke="#63b8ff" points="828.84,-136.13 838.84,-132.63 828.84,-129.13 828.84,-136.13"/>
</a>
</g>
</g>
<!-- Node5 -->
<g id="Node000005" class="node">
<title>Node5</title>
<g id="a_Node000005"><a xlink:href="a00365.xhtml#a0247bb6d1818b840d1182d5ee50214d5" target="_top" xlink:title=" ">
<polygon fill="white" stroke="#666666" points="673.25,-141.88 535,-141.88 535,-111.38 673.25,-111.38 673.25,-141.88"/>
<text text-anchor="start" x="543" y="-128.38" font-family="Helvetica,sans-Serif" font-size="10.00">CNoveltyFromFile::CNovelty</text>
<text text-anchor="middle" x="604.12" y="-117.12" font-family="Helvetica,sans-Serif" font-size="10.00">FromFile</text>
</a>
</g>
</g>
<!-- Node4&#45;&gt;Node5 -->
<g id="edge4_Node000004_Node000005" class="edge">
<title>Node4&#45;&gt;Node5</title>
<g id="a_edge4_Node000004_Node000005"><a xlink:title=" ">
<path fill="none" stroke="#63b8ff" d="M702.17,-130.51C692.94,-130.14 683.21,-129.75 673.62,-129.37"/>
<polygon fill="#63b8ff" stroke="#63b8ff" points="701.91,-134.01 712.05,-130.91 702.19,-127.01 701.91,-134.01"/>
</a>
</g>
</g>
<!-- Node6 -->
<g id="Node000006" class="node">
<title>Node6</title>
<g id="a_Node000006"><a xlink:href="a00369.xhtml#a8730189fe1aa6b0e557afc04faad9966" target="_top" xlink:title=" ">
<polygon fill="white" stroke="#666666" points="659.75,-190.88 548.5,-190.88 548.5,-160.38 659.75,-160.38 659.75,-190.88"/>
<text text-anchor="start" x="556.5" y="-177.38" font-family="Helvetica,sans-Serif" font-size="10.00">CNoveltyFromVector</text>
<text text-anchor="middle" x="604.12" y="-166.12" font-family="Helvetica,sans-Serif" font-size="10.00">::CNoveltyFromVector</text>
</a>
</g>
</g>
<!-- Node4&#45;&gt;Node6 -->
<g id="edge5_Node000004_Node000006" class="edge">
<title>Node4&#45;&gt;Node6</title>
<g id="a_edge5_Node000004_Node000006"><a xlink:title=" ">
<path fill="none" stroke="#63b8ff" d="M708.89,-145.83C693.43,-150.27 676.02,-155.27 659.94,-159.88"/>
<polygon fill="#63b8ff" stroke="#63b8ff" points="709.66,-149.25 718.31,-143.12 707.73,-142.52 709.66,-149.25"/>
</a>
</g>
</g>
<!-- Node8 -->
<g id="Node000008" class="node">
<title>Node8</title>
<g id="a_Node000008"><a xlink:href="a00517.xhtml#a119fc32e085bb978525ea9596ee2e9c1" target="_top" xlink:title="reset configuration">
<polygon fill="white" stroke="#666666" points="802.5,-93.25 709.25,-93.25 709.25,-74 802.5,-74 802.5,-93.25"/>
<text text-anchor="middle" x="755.88" y="-79.75" font-family="Helvetica,sans-Serif" font-size="10.00">CNoveltyIf::reset_</text>
</a>
</g>
</g>
<!-- Node7&#45;&gt;Node8 -->
<g id="edge7_Node000007_Node000008" class="edge">
<title>Node7&#45;&gt;Node8</title>
<g id="a_edge7_Node000007_Node000008"><a xlink:title=" ">
<path fill="none" stroke="#63b8ff" d="M829.1,-83.62C820.15,-83.62 811.12,-83.62 802.62,-83.62"/>
<polygon fill="#63b8ff" stroke="#63b8ff" points="828.84,-87.13 838.84,-83.63 828.84,-80.13 828.84,-87.13"/>
</a>
</g>
</g>
<!-- Node8&#45;&gt;Node5 -->
<g id="edge8_Node000008_Node000005" class="edge">
<title>Node8&#45;&gt;Node5</title>
<g id="a_edge8_Node000008_Node000005"><a xlink:title=" ">
<path fill="none" stroke="#63b8ff" d="M708.89,-96.83C693.43,-101.27 676.02,-106.27 659.94,-110.88"/>
<polygon fill="#63b8ff" stroke="#63b8ff" points="709.66,-100.25 718.31,-94.12 707.73,-93.52 709.66,-100.25"/>
</a>
</g>
</g>
<!-- Node9 -->
<g id="Node000009" class="node">
<title>Node9</title>
<g id="a_Node000009"><a xlink:href="a00517.xhtml#a120b69bf1f92d3f00ef515518a9dc604" target="_top" xlink:title=" ">
<polygon fill="white" stroke="#666666" points="660.12,-93.25 548.12,-93.25 548.12,-74 660.12,-74 660.12,-93.25"/>
<text text-anchor="middle" x="604.12" y="-79.75" font-family="Helvetica,sans-Serif" font-size="10.00">CNoveltyIf::CNoveltyIf</text>
</a>
</g>
</g>
<!-- Node8&#45;&gt;Node9 -->
<g id="edge9_Node000008_Node000009" class="edge">
<title>Node8&#45;&gt;Node9</title>
<g id="a_edge9_Node000008_Node000009"><a xlink:title=" ">
<path fill="none" stroke="#63b8ff" d="M697.71,-83.62C685.55,-83.62 672.72,-83.62 660.61,-83.62"/>
<polygon fill="#63b8ff" stroke="#63b8ff" points="697.62,-87.13 707.62,-83.63 697.62,-80.13 697.62,-87.13"/>
</a>
</g>
</g>
<!-- Node23 -->
<g id="Node000023" class="node">
<title>Node23</title>
<g id="a_Node000023"><a xlink:href="a00517.xhtml#ad5ef9568b2492898ee428c60ae4d5ca5" target="_top" xlink:title=" ">
<polygon fill="white" stroke="#666666" points="662.75,-56.25 545.5,-56.25 545.5,-37 662.75,-37 662.75,-56.25"/>
<text text-anchor="middle" x="604.12" y="-42.75" font-family="Helvetica,sans-Serif" font-size="10.00">CNoveltyIf::~CNoveltyIf</text>
</a>
</g>
</g>
<!-- Node8&#45;&gt;Node23 -->
<g id="edge24_Node000008_Node000023" class="edge">
<title>Node8&#45;&gt;Node23</title>
<g id="a_edge24_Node000008_Node000023"><a xlink:title=" ">
<path fill="none" stroke="#63b8ff" d="M702.96,-70.8C684.32,-66.19 663.57,-61.07 646,-56.72"/>
<polygon fill="#63b8ff" stroke="#63b8ff" points="701.94,-74.15 712.49,-73.15 703.62,-67.35 701.94,-74.15"/>
</a>
</g>
</g>
<!-- Node10 -->
<g id="Node000010" class="node">
<title>Node10</title>
<g id="a_Node000010"><a xlink:href="a00517.xhtml#ad3cac32c63a59914907f3480ee93981c" target="_top" xlink:title=" ">
<polygon fill="white" stroke="#666666" points="499,-167.25 387,-167.25 387,-148 499,-148 499,-167.25"/>
<text text-anchor="middle" x="443" y="-153.75" font-family="Helvetica,sans-Serif" font-size="10.00">CNoveltyIf::CNoveltyIf</text>
</a>
</g>
</g>
<!-- Node9&#45;&gt;Node10 -->
<g id="edge10_Node000009_Node000010" class="edge">
<title>Node9&#45;&gt;Node10</title>
<g id="a_edge10_Node000009_Node000010"><a xlink:title=" ">
<path fill="none" stroke="#63b8ff" d="M543.86,-98.02C540.8,-99.42 537.82,-100.95 535,-102.62 515.27,-114.33 518.47,-127.48 499,-139.62 494.06,-142.71 488.53,-145.32 482.94,-147.51"/>
<polygon fill="#63b8ff" stroke="#63b8ff" points="545.15,-101.27 553.13,-94.31 542.55,-94.77 545.15,-101.27"/>
</a>
</g>
</g>
<!-- Node11 -->
<g id="Node000011" class="node">
<title>Node11</title>
<g id="a_Node000011"><a xlink:href="a00517.xhtml#aa7460e2359d7ab321ef8517ac93466fb" target="_top" xlink:title=" ">
<polygon fill="white" stroke="#666666" points="489.62,-130.25 396.38,-130.25 396.38,-111 489.62,-111 489.62,-130.25"/>
<text text-anchor="middle" x="443" y="-116.75" font-family="Helvetica,sans-Serif" font-size="10.00">CNoveltyIf::create</text>
</a>
</g>
</g>
<!-- Node9&#45;&gt;Node11 -->
<g id="edge11_Node000009_Node000011" class="edge">
<title>Node9&#45;&gt;Node11</title>
<g id="a_edge11_Node000009_Node000011"><a xlink:title=" ">
<path fill="none" stroke="#63b8ff" d="M548.52,-96.32C528.57,-100.96 506.28,-106.14 487.43,-110.53"/>
<polygon fill="#63b8ff" stroke="#63b8ff" points="549.22,-99.75 558.17,-94.08 547.64,-92.93 549.22,-99.75"/>
</a>
</g>
</g>
<!-- Node12 -->
<g id="Node000012" class="node">
<title>Node12</title>
<g id="a_Node000012"><a xlink:href="a00517.xhtml#abae299cfe8e8806685cab18f59db8f72" target="_top" xlink:title=" ">
<polygon fill="white" stroke="#666666" points="489.62,-93.25 396.38,-93.25 396.38,-74 489.62,-74 489.62,-93.25"/>
<text text-anchor="middle" x="443" y="-79.75" font-family="Helvetica,sans-Serif" font-size="10.00">CNoveltyIf::create</text>
</a>
</g>
</g>
<!-- Node9&#45;&gt;Node12 -->
<g id="edge12_Node000009_Node000012" class="edge">
<title>Node9&#45;&gt;Node12</title>
<g id="a_edge12_Node000009_Node000012"><a xlink:title=" ">
<path fill="none" stroke="#63b8ff" d="M536.62,-83.62C520.89,-83.62 504.46,-83.62 489.88,-83.62"/>
<polygon fill="#63b8ff" stroke="#63b8ff" points="536.4,-87.13 546.4,-83.63 536.4,-80.13 536.4,-87.13"/>
</a>
</g>
</g>
<!-- Node19 -->
<g id="Node000019" class="node">
<title>Node19</title>
<g id="a_Node000019"><a xlink:href="a00517.xhtml#aa078a8242089a58179280c824f8ca4f9" target="_top" xlink:title=" ">
<polygon fill="white" stroke="#666666" points="491.88,-56.25 394.12,-56.25 394.12,-37 491.88,-37 491.88,-56.25"/>
<text text-anchor="middle" x="443" y="-42.75" font-family="Helvetica,sans-Serif" font-size="10.00">CNoveltyIf::destroy</text>
</a>
</g>
</g>
<!-- Node9&#45;&gt;Node19 -->
<g id="edge19_Node000009_Node000019" class="edge">
<title>Node9&#45;&gt;Node19</title>
<g id="a_edge19_Node000009_Node000019"><a xlink:title=" ">
<path fill="none" stroke="#63b8ff" d="M548.52,-70.93C528.57,-66.29 506.28,-61.11 487.43,-56.72"/>
<polygon fill="#63b8ff" stroke="#63b8ff" points="547.64,-74.32 558.17,-73.17 549.22,-67.5 547.64,-74.32"/>
</a>
</g>
</g>
<!-- Node22 -->
<g id="Node000022" class="node">
<title>Node22</title>
<g id="a_Node000022"><a xlink:href="a00517.xhtml#a4a4ce4da9378a136cb2d98dceb79f398" target="_top" xlink:title=" ">
<polygon fill="white" stroke="#666666" points="496.75,-19.25 389.25,-19.25 389.25,0 496.75,0 496.75,-19.25"/>
<text text-anchor="middle" x="443" y="-5.75" font-family="Helvetica,sans-Serif" font-size="10.00">CNoveltyIf::operator=</text>
</a>
</g>
</g>
<!-- Node9&#45;&gt;Node22 -->
<g id="edge23_Node000009_Node000022" class="edge">
<title>Node9&#45;&gt;Node22</title>
<g id="a_edge23_Node000009_Node000022"><a xlink:title=" ">
<path fill="none" stroke="#63b8ff" d="M541.79,-69.24C539.45,-68.12 537.18,-66.92 535,-65.62 514.99,-53.76 518.66,-40.07 499,-27.62 494.08,-24.51 488.56,-21.88 482.97,-19.68"/>
<polygon fill="#63b8ff" stroke="#63b8ff" points="540.38,-72.44 550.96,-73.03 543.06,-65.97 540.38,-72.44"/>
</a>
</g>
</g>
<!-- Node13 -->
<g id="Node000013" class="node">
<title>Node13</title>
<g id="a_Node000013"><a xlink:href="a00453.xhtml#aa2e4b139a5d053ae46381c754ca8b9b5" target="_top" xlink:title="init configuration">
<polygon fill="white" stroke="#666666" points="346.5,-130.25 251.75,-130.25 251.75,-111 346.5,-111 346.5,-130.25"/>
<text text-anchor="middle" x="299.12" y="-116.75" font-family="Helvetica,sans-Serif" font-size="10.00">CBeatHistoIf::init_</text>
</a>
</g>
</g>
<!-- Node12&#45;&gt;Node13 -->
<g id="edge13_Node000012_Node000013" class="edge">
<title>Node12&#45;&gt;Node13</title>
<g id="a_edge13_Node000012_Node000013"><a xlink:title=" ">
<path fill="none" stroke="#63b8ff" d="M392.57,-96.52C374.97,-101.11 355.42,-106.2 338.85,-110.53"/>
<polygon fill="#63b8ff" stroke="#63b8ff" points="392.97,-100.03 401.77,-94.12 391.21,-93.25 392.97,-100.03"/>
</a>
</g>
</g>
<!-- Node14 -->
<g id="Node000014" class="node">
<title>Node14</title>
<g id="a_Node000014"><a xlink:href="a00453.xhtml#abc96a9de9093f6617510f4dbe02b82ce" target="_top" xlink:title="init configuration">
<polygon fill="white" stroke="#666666" points="346.5,-93.25 251.75,-93.25 251.75,-74 346.5,-74 346.5,-93.25"/>
<text text-anchor="middle" x="299.12" y="-79.75" font-family="Helvetica,sans-Serif" font-size="10.00">CBeatHistoIf::init_</text>
</a>
</g>
</g>
<!-- Node12&#45;&gt;Node14 -->
<g id="edge14_Node000012_Node000014" class="edge">
<title>Node12&#45;&gt;Node14</title>
<g id="a_edge14_Node000012_Node000014"><a xlink:title=" ">
<path fill="none" stroke="#63b8ff" d="M384.64,-83.62C372.11,-83.62 358.99,-83.62 346.93,-83.62"/>
<polygon fill="#63b8ff" stroke="#63b8ff" points="384.42,-87.13 394.42,-83.63 384.42,-80.13 384.42,-87.13"/>
</a>
</g>
</g>
<!-- Node18 -->
<g id="Node000018" class="node">
<title>Node18</title>
<g id="a_Node000018"><a xlink:href="a00008.xhtml#a0ddf1224851353fc92bfbff6f499fa97" target="_top" xlink:title=" ">
<polygon fill="white" stroke="#666666" points="317.62,-56.25 280.62,-56.25 280.62,-37 317.62,-37 317.62,-56.25"/>
<text text-anchor="middle" x="299.12" y="-42.75" font-family="Helvetica,sans-Serif" font-size="10.00">main</text>
</a>
</g>
</g>
<!-- Node12&#45;&gt;Node18 -->
<g id="edge18_Node000012_Node000018" class="edge">
<title>Node12&#45;&gt;Node18</title>
<g id="a_edge18_Node000012_Node000018"><a xlink:title=" ">
<path fill="none" stroke="#63b8ff" d="M392.42,-70.7C366.49,-63.93 336.37,-56.08 317.77,-51.23"/>
<polygon fill="#63b8ff" stroke="#63b8ff" points="391.21,-74 401.77,-73.13 392.97,-67.22 391.21,-74"/>
</a>
</g>
</g>
<!-- Node15 -->
<g id="Node000015" class="node">
<title>Node15</title>
<g id="a_Node000015"><a xlink:href="a00453.xhtml#a912da5706cd67981b5c705d3a55667e1" target="_top" xlink:title=" ">
<polygon fill="white" stroke="#666666" points="194,-111.25 90.25,-111.25 90.25,-92 194,-92 194,-111.25"/>
<text text-anchor="middle" x="142.12" y="-97.75" font-family="Helvetica,sans-Serif" font-size="10.00">CBeatHistoIf::create</text>
</a>
</g>
</g>
<!-- Node14&#45;&gt;Node15 -->
<g id="edge15_Node000014_Node000015" class="edge">
<title>Node14&#45;&gt;Node15</title>
<g id="a_edge15_Node000014_Node000015"><a xlink:title=" ">
<path fill="none" stroke="#63b8ff" d="M240.35,-90.33C225.3,-92.08 209.17,-93.95 194.47,-95.66"/>
<polygon fill="#63b8ff" stroke="#63b8ff" points="240.59,-93.83 250.12,-89.2 239.78,-86.88 240.59,-93.83"/>
</a>
</g>
</g>
<!-- Node16 -->
<g id="Node000016" class="node">
<title>Node16</title>
<g id="a_Node000016"><a xlink:href="a00453.xhtml#a9b3f72cb0d46466cf0aa38540b9980a5" target="_top" xlink:title=" ">
<polygon fill="white" stroke="#666666" points="194,-74.25 90.25,-74.25 90.25,-55 194,-55 194,-74.25"/>
<text text-anchor="middle" x="142.12" y="-60.75" font-family="Helvetica,sans-Serif" font-size="10.00">CBeatHistoIf::create</text>
</a>
</g>
</g>
<!-- Node14&#45;&gt;Node16 -->
<g id="edge16_Node000014_Node000016" class="edge">
<title>Node14&#45;&gt;Node16</title>
<g id="a_edge16_Node000014_Node000016"><a xlink:title=" ">
<path fill="none" stroke="#63b8ff" d="M240.35,-76.54C225.3,-74.7 209.17,-72.72 194.47,-70.92"/>
<polygon fill="#63b8ff" stroke="#63b8ff" points="239.77,-80 250.12,-77.74 240.62,-73.05 239.77,-80"/>
</a>
</g>
</g>
<!-- Node17 -->
<g id="Node000017" class="node">
<title>Node17</title>
<g id="a_Node000017"><a xlink:href="a00023.xhtml#a0ddf1224851353fc92bfbff6f499fa97" target="_top" xlink:title=" ">
<polygon fill="white" stroke="#666666" points="37,-74.25 0,-74.25 0,-55 37,-55 37,-74.25"/>
<text text-anchor="middle" x="18.5" y="-60.75" font-family="Helvetica,sans-Serif" font-size="10.00">main</text>
</a>
</g>
</g>
<!-- Node16&#45;&gt;Node17 -->
<g id="edge17_Node000016_Node000017" class="edge">
<title>Node16&#45;&gt;Node17</title>
<g id="a_edge17_Node000016_Node000017"><a xlink:title=" ">
<path fill="none" stroke="#63b8ff" d="M78.41,-64.62C63.35,-64.62 48.45,-64.62 37.4,-64.62"/>
<polygon fill="#63b8ff" stroke="#63b8ff" points="78.38,-68.13 88.38,-64.63 78.38,-61.13 78.38,-68.13"/>
</a>
</g>
</g>
<!-- Node19&#45;&gt;Node18 -->
<g id="edge20_Node000019_Node000018" class="edge">
<title>Node19&#45;&gt;Node18</title>
<g id="a_edge20_Node000019_Node000018"><a xlink:title=" ">
<path fill="none" stroke="#63b8ff" d="M382.68,-46.62C359.31,-46.62 334.21,-46.62 317.91,-46.62"/>
<polygon fill="#63b8ff" stroke="#63b8ff" points="382.45,-50.13 392.45,-46.63 382.45,-43.13 382.45,-50.13"/>
</a>
</g>
</g>
<!-- Node20 -->
<g id="Node000020" class="node">
<title>Node20</title>
<g id="a_Node000020"><a xlink:href="a00453.xhtml#a3c3a39ab20e4ca9f1771bbd6f70327c9" target="_top" xlink:title="reset configuration">
<polygon fill="white" stroke="#666666" points="351,-19.25 247.25,-19.25 247.25,0 351,0 351,-19.25"/>
<text text-anchor="middle" x="299.12" y="-5.75" font-family="Helvetica,sans-Serif" font-size="10.00">CBeatHistoIf::reset_</text>
</a>
</g>
</g>
<!-- Node19&#45;&gt;Node20 -->
<g id="edge21_Node000019_Node000020" class="edge">
<title>Node19&#45;&gt;Node20</title>
<g id="a_edge21_Node000019_Node000020"><a xlink:title=" ">
<path fill="none" stroke="#63b8ff" d="M392.57,-33.73C374.97,-29.14 355.42,-24.05 338.85,-19.72"/>
<polygon fill="#63b8ff" stroke="#63b8ff" points="391.21,-37 401.77,-36.13 392.97,-30.22 391.21,-37"/>
</a>
</g>
</g>
<!-- Node21 -->
<g id="Node000021" class="node">
<title>Node21</title>
<g id="a_Node000021"><a xlink:href="a00453.xhtml#a8f01f751ec6421639596d269783fbf52" target="_top" xlink:title=" ">
<polygon fill="white" stroke="#666666" points="211.25,-19.25 73,-19.25 73,0 211.25,0 211.25,-19.25"/>
<text text-anchor="middle" x="142.12" y="-5.75" font-family="Helvetica,sans-Serif" font-size="10.00">CBeatHistoIf::~CBeatHistoIf</text>
</a>
</g>
</g>
<!-- Node20&#45;&gt;Node21 -->
<g id="edge22_Node000020_Node000021" class="edge">
<title>Node20&#45;&gt;Node21</title>
<g id="a_edge22_Node000020_Node000021"><a xlink:title=" ">
<path fill="none" stroke="#63b8ff" d="M235.6,-9.62C227.72,-9.62 219.64,-9.62 211.67,-9.62"/>
<polygon fill="#63b8ff" stroke="#63b8ff" points="235.43,-13.13 245.43,-9.63 235.43,-6.13 235.43,-13.13"/>
</a>
</g>
</g>
</g>
</svg>

<g id="navigator" transform="translate(0 0)" fill="#404254">
  <rect fill="#f2f5e9" fill-opacity="0.5" stroke="#606060" stroke-width=".5" x="0" y="0" width="60" height="60"/>
  <use id="zoomplus" xlink:href="#zoomPlus" x="17" y="9" onmousedown="handleZoom(evt,'in')"/>
  <use id="zoomminus" xlink:href="#zoomMin" x="42" y="9" onmousedown="handleZoom(evt,'out')"/>
  <use id="reset" xlink:href="#resetDef" x="30" y="36" onmousedown="handleReset()"/>
   <use id="arrowup" xlink:href="#arrowUp" x="0" y="0" onmousedown="handlePan(0,-1)"/>
  <use id="arrowright" xlink:href="#arrowRight" x="0" y="0" onmousedown="handlePan(1,0)"/>
  <use id="arrowdown" xlink:href="#arrowDown" x="0" y="0" onmousedown="handlePan(0,1)"/>
  <use id="arrowleft" xlink:href="#arrowLeft" x="0" y="0" onmousedown="handlePan(-1,0)"/>
</g>
<svg viewBox="0 0 15 15" width="100%" height="30px" preserveAspectRatio="xMaxYMin meet">
 <g id="arrow_out" transform="scale(0.3 0.3)">
  <a xlink:href="a00521_a55adbc3ecfeffbeb621875bb56f3bf7f_icgraph_org.svg" target="_base">
   <rect id="button" ry="5" rx="5" y="6" x="6" height="38" width="38"
        fill="#f2f5e9" fill-opacity="0.5" stroke="#606060" stroke-width="1.0"/>
   <path id="arrow"
     d="M 11.500037,31.436501 C 11.940474,20.09759 22.043105,11.32322 32.158766,21.979434 L 37.068811,17.246167 C 37.068811,17.246167 37.088388,32 37.088388,32 L 22.160133,31.978069 C 22.160133,31.978069 26.997745,27.140456 26.997745,27.140456 C 18.528582,18.264221 13.291696,25.230495 11.500037,31.436501 z"
     style="fill:#404040;"/>
  </a>
 </g>
</svg>

<style type='text/css'>
<![CDATA[
[data-mouse-over-selected='false'] { opacity: 0.7; }
[data-mouse-over-selected='true']  { opacity: 1.0; }
]]>
</style>
<script type="application/ecmascript"><![CDATA[
document.addEventListener('DOMContentLoaded', (event) => {
  highlightEdges();
  highlightAdjacentNodes();
});
]]></script>
</svg>
