<?xml version="1.0" encoding="UTF-8" standalone="no"?>
<!DOCTYPE svg PUBLIC "-//W3C//DTD SVG 1.1//EN"
 "http://www.w3.org/Graphics/SVG/1.1/DTD/svg11.dtd">
<!-- Generated by graphviz version 4.0.0 (20220602.1335)
 -->
<!-- Title: CPitchIf::getNumBlocks Pages: 1 -->
<svg width="470pt" height="28pt"
 viewBox="0.00 0.00 470.00 28.00" xmlns="http://www.w3.org/2000/svg" xmlns:xlink="http://www.w3.org/1999/xlink">
<g id="graph0" class="graph" transform="scale(1 1) rotate(0) translate(4 24)">
<title>CPitchIf::getNumBlocks</title>
<polygon fill="white" stroke="transparent" points="-4,4 -4,-24 466,-24 466,4 -4,4"/>
<!-- Node1 -->
<g id="node1" class="node">
<title>Node1</title>
<g id="a_node1"><a xlink:title=" ">
<polygon fill="#bfbfbf" stroke="black" points="0,-0.5 0,-19.5 121,-19.5 121,-0.5 0,-0.5"/>
<text text-anchor="middle" x="60.5" y="-7.5" font-family="Helvetica,sans-Serif" font-size="10.00">CPitchIf::getNumBlocks</text>
</a>
</g>
</g>
<!-- Node2 -->
<g id="node2" class="node">
<title>Node2</title>
<g id="a_node2"><a xlink:href="a00515.xhtml#af2ce0d31ee7e368ebc1889507972f9c2" target="_top" xlink:title=" ">
<polygon fill="white" stroke="black" points="157,-0.5 157,-19.5 278,-19.5 278,-0.5 157,-0.5"/>
<text text-anchor="middle" x="217.5" y="-7.5" font-family="Helvetica,sans-Serif" font-size="10.00">CPitchIf::getNumBlocks</text>
</a>
</g>
</g>
<!-- Node1&#45;&gt;Node2 -->
<g id="edge1" class="edge">
<title>Node1&#45;&gt;Node2</title>
<path fill="none" stroke="midnightblue" d="M121.43,-10C129.72,-10 138.31,-10 146.76,-10"/>
<polygon fill="midnightblue" stroke="midnightblue" points="146.99,-13.5 156.99,-10 146.99,-6.5 146.99,-13.5"/>
</g>
<!-- Node3 -->
<g id="node3" class="node">
<title>Node3</title>
<g id="a_node3"><a xlink:href="a00535.xhtml#a595b3a391e2540a1dc9e53edf8634494" target="_top" xlink:title=" ">
<polygon fill="white" stroke="black" points="314,-0.5 314,-19.5 462,-19.5 462,-0.5 314,-0.5"/>
<text text-anchor="middle" x="388" y="-7.5" font-family="Helvetica,sans-Serif" font-size="10.00">CBlockAudioIf::getNumBlocks</text>
</a>
</g>
</g>
<!-- Node2&#45;&gt;Node3 -->
<g id="edge2" class="edge">
<title>Node2&#45;&gt;Node3</title>
<path fill="none" stroke="midnightblue" d="M278.38,-10C286.61,-10 295.17,-10 303.73,-10"/>
<polygon fill="midnightblue" stroke="midnightblue" points="303.74,-13.5 313.74,-10 303.74,-6.5 303.74,-13.5"/>
</g>
</g>
</svg>
