<?xml version="1.0" encoding="UTF-8" standalone="no"?>
<!DOCTYPE svg PUBLIC "-//W3C//DTD SVG 1.1//EN"
 "http://www.w3.org/Graphics/SVG/1.1/DTD/svg11.dtd">
<!-- Generated by graphviz version 12.2.1 (20241206.2353)
 -->
<!-- Title: CSpectrogramIf::CSpectrogramIf Pages: 1 -->
<svg width="431pt" height="175pt"
 viewBox="0.00 0.00 431.00 175.25" xmlns="http://www.w3.org/2000/svg" xmlns:xlink="http://www.w3.org/1999/xlink">
<g id="graph0" class="graph" transform="scale(1 1) rotate(0) translate(4 171.25)">
<title>CSpectrogramIf::CSpectrogramIf</title>
<!-- Node1 -->
<g id="Node000001" class="node">
<title>Node1</title>
<g id="a_Node000001"><a xlink:title=" ">
<polygon fill="#999999" stroke="#666666" points="423,-93.25 266,-93.25 266,-74 423,-74 423,-93.25"/>
<text text-anchor="middle" x="344.5" y="-79.75" font-family="Helvetica,sans-Serif" font-size="10.00">CSpectrogramIf::CSpectrogramIf</text>
</a>
</g>
</g>
<!-- Node2 -->
<g id="Node000002" class="node">
<title>Node2</title>
<g id="a_Node000002"><a xlink:href="a00533.xhtml#ab6855532487f599a72b825e4706430fb" target="_top" xlink:title=" ">
<polygon fill="white" stroke="#666666" points="209.38,-167.25 93.62,-167.25 93.62,-148 209.38,-148 209.38,-167.25"/>
<text text-anchor="middle" x="151.5" y="-153.75" font-family="Helvetica,sans-Serif" font-size="10.00">CSpectrogramIf::create</text>
</a>
</g>
</g>
<!-- Node1&#45;&gt;Node2 -->
<g id="edge1_Node000001_Node000002" class="edge">
<title>Node1&#45;&gt;Node2</title>
<g id="a_edge1_Node000001_Node000002"><a xlink:title=" ">
<path fill="none" stroke="#63b8ff" d="M316.51,-99.15C293.99,-111.56 260.72,-128.64 230,-139.62 221.55,-142.65 212.39,-145.29 203.43,-147.56"/>
<polygon fill="#63b8ff" stroke="#63b8ff" points="318.01,-102.32 325.03,-94.39 314.6,-96.21 318.01,-102.32"/>
</a>
</g>
</g>
<!-- Node3 -->
<g id="Node000003" class="node">
<title>Node3</title>
<g id="a_Node000003"><a xlink:href="a00533.xhtml#acd73d8c1aaaed8b188de6b8bf2103139" target="_top" xlink:title=" ">
<polygon fill="white" stroke="#666666" points="209.38,-130.25 93.62,-130.25 93.62,-111 209.38,-111 209.38,-130.25"/>
<text text-anchor="middle" x="151.5" y="-116.75" font-family="Helvetica,sans-Serif" font-size="10.00">CSpectrogramIf::create</text>
</a>
</g>
</g>
<!-- Node1&#45;&gt;Node3 -->
<g id="edge2_Node000001_Node000003" class="edge">
<title>Node1&#45;&gt;Node3</title>
<g id="a_edge2_Node000001_Node000003"><a xlink:title=" ">
<path fill="none" stroke="#63b8ff" d="M280.29,-95.87C255.75,-100.62 227.99,-106 204.63,-110.53"/>
<polygon fill="#63b8ff" stroke="#63b8ff" points="280.67,-99.36 289.82,-94.02 279.34,-92.49 280.67,-99.36"/>
</a>
</g>
</g>
<!-- Node5 -->
<g id="Node000005" class="node">
<title>Node5</title>
<g id="a_Node000005"><a xlink:href="a00533.xhtml#a887642514f36ecb7048a7c53ec226a16" target="_top" xlink:title=" ">
<polygon fill="white" stroke="#666666" points="230,-93.25 73,-93.25 73,-74 230,-74 230,-93.25"/>
<text text-anchor="middle" x="151.5" y="-79.75" font-family="Helvetica,sans-Serif" font-size="10.00">CSpectrogramIf::CSpectrogramIf</text>
</a>
</g>
</g>
<!-- Node1&#45;&gt;Node5 -->
<g id="edge4_Node000001_Node000005" class="edge">
<title>Node1&#45;&gt;Node5</title>
<g id="a_edge4_Node000001_Node000005"><a xlink:title=" ">
<path fill="none" stroke="#63b8ff" d="M254.25,-83.62C246.22,-83.62 238.13,-83.62 230.21,-83.62"/>
<polygon fill="#63b8ff" stroke="#63b8ff" points="254.02,-87.13 264.02,-83.63 254.02,-80.13 254.02,-87.13"/>
</a>
</g>
</g>
<!-- Node6 -->
<g id="Node000006" class="node">
<title>Node6</title>
<g id="a_Node000006"><a xlink:href="a00533.xhtml#a6511fc72ef04be91a712ee5ef479bd7e" target="_top" xlink:title=" ">
<polygon fill="white" stroke="#666666" points="211.62,-56.25 91.38,-56.25 91.38,-37 211.62,-37 211.62,-56.25"/>
<text text-anchor="middle" x="151.5" y="-42.75" font-family="Helvetica,sans-Serif" font-size="10.00">CSpectrogramIf::destroy</text>
</a>
</g>
</g>
<!-- Node1&#45;&gt;Node6 -->
<g id="edge5_Node000001_Node000006" class="edge">
<title>Node1&#45;&gt;Node6</title>
<g id="a_edge5_Node000001_Node000006"><a xlink:title=" ">
<path fill="none" stroke="#63b8ff" d="M280.29,-71.38C255.75,-66.63 227.99,-61.25 204.63,-56.72"/>
<polygon fill="#63b8ff" stroke="#63b8ff" points="279.34,-74.76 289.82,-73.23 280.67,-67.89 279.34,-74.76"/>
</a>
</g>
</g>
<!-- Node7 -->
<g id="Node000007" class="node">
<title>Node7</title>
<g id="a_Node000007"><a xlink:href="a00533.xhtml#a532de34b312a3f850fa8ad4fb3cde62a" target="_top" xlink:title=" ">
<polygon fill="white" stroke="#666666" points="216.5,-19.25 86.5,-19.25 86.5,0 216.5,0 216.5,-19.25"/>
<text text-anchor="middle" x="151.5" y="-5.75" font-family="Helvetica,sans-Serif" font-size="10.00">CSpectrogramIf::operator=</text>
</a>
</g>
</g>
<!-- Node1&#45;&gt;Node7 -->
<g id="edge7_Node000001_Node000007" class="edge">
<title>Node1&#45;&gt;Node7</title>
<g id="a_edge7_Node000001_Node000007"><a xlink:title=" ">
<path fill="none" stroke="#63b8ff" d="M316.51,-68.1C293.99,-55.69 260.72,-38.61 230,-27.62 221.55,-24.6 212.39,-21.96 203.43,-19.69"/>
<polygon fill="#63b8ff" stroke="#63b8ff" points="314.6,-71.04 325.03,-72.86 318.01,-64.93 314.6,-71.04"/>
</a>
</g>
</g>
<!-- Node4 -->
<g id="Node000004" class="node">
<title>Node4</title>
<g id="a_Node000004"><a xlink:href="a00125.xhtml#a0ddf1224851353fc92bfbff6f499fa97" target="_top" xlink:title=" ">
<polygon fill="white" stroke="#666666" points="37,-93.25 0,-93.25 0,-74 37,-74 37,-93.25"/>
<text text-anchor="middle" x="18.5" y="-79.75" font-family="Helvetica,sans-Serif" font-size="10.00">main</text>
</a>
</g>
</g>
<!-- Node3&#45;&gt;Node4 -->
<g id="edge3_Node000003_Node000004" class="edge">
<title>Node3&#45;&gt;Node4</title>
<g id="a_edge3_Node000003_Node000004"><a xlink:title=" ">
<path fill="none" stroke="#63b8ff" d="M92.24,-107.84C85.72,-106.19 79.2,-104.44 73,-102.62 60.89,-99.08 47.52,-94.33 37.17,-90.47"/>
<polygon fill="#63b8ff" stroke="#63b8ff" points="91.13,-111.18 101.68,-110.16 92.8,-104.38 91.13,-111.18"/>
</a>
</g>
</g>
<!-- Node6&#45;&gt;Node4 -->
<g id="edge6_Node000006_Node000004" class="edge">
<title>Node6&#45;&gt;Node4</title>
<g id="a_edge6_Node000006_Node000004"><a xlink:title=" ">
<path fill="none" stroke="#63b8ff" d="M92.24,-59.41C85.72,-61.06 79.2,-62.81 73,-64.62 60.89,-68.17 47.52,-72.92 37.17,-76.78"/>
<polygon fill="#63b8ff" stroke="#63b8ff" points="92.8,-62.87 101.68,-57.09 91.13,-56.07 92.8,-62.87"/>
</a>
</g>
</g>
</g>
</svg>
