<?xml version="1.0" encoding="UTF-8" standalone="no"?>
<!DOCTYPE svg PUBLIC "-//W3C//DTD SVG 1.1//EN"
 "http://www.w3.org/Graphics/SVG/1.1/DTD/svg11.dtd">
<!-- Generated by graphviz version 6.0.1 (20220911.1526)
 -->
<!-- Title: CVector::getSum Pages: 1 -->
<!--zoomable 650 -->
<svg id="main" version="1.1" xmlns="http://www.w3.org/2000/svg" xmlns:xlink="http://www.w3.org/1999/xlink" xml:space="preserve" onload="init(evt)">
<style type="text/css"><![CDATA[
.edge:hover path { stroke: red; }
.edge:hover polygon { stroke: red; fill: red; }
]]></style>
<script type="text/javascript"><![CDATA[
var edges = document.getElementsByTagName('g');
if (edges && edges.length) {
  for (var i=0;i<edges.length;i++) {
    if (edges[i].id.substr(0,4)=='edge') {
      edges[i].setAttribute('class','edge');
    }
  }
}
]]></script>
        <defs>
                <circle id="rim" cx="0" cy="0" r="7"/>
                <circle id="rim2" cx="0" cy="0" r="3.5"/>
                <g id="zoomPlus">
                        <use xlink:href="#rim" fill="#404040">
                                <set attributeName="fill" to="#808080" begin="zoomplus.mouseover" end="zoomplus.mouseout"/>
                        </use>
                        <path d="M-4,0h8M0,-4v8" fill="none" stroke="white" stroke-width="1.5" pointer-events="none"/>
                </g>
                <g id="zoomMin">
                        <use xlink:href="#rim" fill="#404040">
                                <set attributeName="fill" to="#808080" begin="zoomminus.mouseover" end="zoomminus.mouseout"/>
                        </use>
                        <path d="M-4,0h8" fill="none" stroke="white" stroke-width="1.5" pointer-events="none"/>
                </g>
                <g id="dirArrow">
                        <path fill="none" stroke="white" stroke-width="1.5" d="M0,-3.0v7 M-2.5,-0.5L0,-3.0L2.5,-0.5"/>
                </g>
               <g id="resetDef">
                       <use xlink:href="#rim2" fill="#404040">
                               <set attributeName="fill" to="#808080" begin="reset.mouseover" end="reset.mouseout"/>
                       </use>
               </g>
        </defs>

<script type="text/javascript">
var viewWidth = 1011;
var viewHeight = 650;
var sectionId = 'dynsection-25';
</script>
<script xlink:href="svgpan.js"/>
<svg id="graph" class="graph">
<g id="viewport">
<title>CVector::getSum</title>
<!-- Node1 -->
<g id="node1" class="node">
<title>Node1</title>
<g id="a_node1"><a xlink:title=" ">
<polygon fill="#999999" stroke="#666666" points="1003,-383.5 913,-383.5 913,-364.5 1003,-364.5 1003,-383.5"/>
<text text-anchor="middle" x="958" y="-371.5" font-family="Helvetica,sans-Serif" font-size="10.00">CVector::getSum</text>
</a>
</g>
</g>
<!-- Node2 -->
<g id="node2" class="node">
<title>Node2</title>
<g id="a_node2"><a xlink:href="a00622.xhtml#ac5158e0fb3ef94c2bfe79f66f86db59f" target="_top" xlink:title=" ">
<polygon fill="white" stroke="#666666" points="873.5,-641.5 731.5,-641.5 731.5,-622.5 873.5,-622.5 873.5,-641.5"/>
<text text-anchor="middle" x="802.5" y="-629.5" font-family="Helvetica,sans-Serif" font-size="10.00">CKmeans::checkConverged_</text>
</a>
</g>
</g>
<!-- Node1&#45;&gt;Node2 -->
<g id="edge1" class="edge">
<title>Node1&#45;&gt;Node2</title>
<path fill="none" stroke="#63b8ff" d="M956.42,-394.07C953.95,-439.93 941.32,-553.04 877,-613 872.85,-616.86 868.03,-619.97 862.87,-622.45"/>
<polygon fill="#63b8ff" stroke="#63b8ff" points="959.92,-394.08 956.85,-383.94 952.92,-393.78 959.92,-394.08"/>
</g>
<!-- Node4 -->
<g id="node4" class="node">
<title>Node4</title>
<g id="a_node4"><a xlink:href="a00510.xhtml#a49acd3fa8e5ab9c8c07f15a352b3dcaa" target="_top" xlink:title=" ">
<polygon fill="white" stroke="#666666" points="875.5,-604 729.5,-604 729.5,-574 875.5,-574 875.5,-604"/>
<text text-anchor="start" x="737.5" y="-592" font-family="Helvetica,sans-Serif" font-size="10.00">CKeyFromChroma::CKeyFrom</text>
<text text-anchor="middle" x="802.5" y="-581" font-family="Helvetica,sans-Serif" font-size="10.00">Chroma</text>
</a>
</g>
</g>
<!-- Node1&#45;&gt;Node4 -->
<g id="edge3" class="edge">
<title>Node1&#45;&gt;Node4</title>
<path fill="none" stroke="#63b8ff" d="M954.21,-393.9C947.77,-432.47 928.26,-517.74 877,-565 873.25,-568.46 868.99,-571.42 864.46,-573.95"/>
<polygon fill="#63b8ff" stroke="#63b8ff" points="957.75,-393.94 955.81,-383.52 950.83,-392.87 957.75,-393.94"/>
</g>
<!-- Node5 -->
<g id="node5" class="node">
<title>Node5</title>
<g id="a_node5"><a xlink:href="a00458.xhtml#a3671f264a475e2d6eb36d87d0c8e07fb" target="_top" xlink:title=" ">
<polygon fill="white" stroke="#666666" points="856,-556 749,-556 749,-526 856,-526 856,-556"/>
<text text-anchor="start" x="757" y="-544" font-family="Helvetica,sans-Serif" font-size="10.00">CChordFromBlockIf::</text>
<text text-anchor="middle" x="802.5" y="-533" font-family="Helvetica,sans-Serif" font-size="10.00">compChordProb</text>
</a>
</g>
</g>
<!-- Node1&#45;&gt;Node5 -->
<g id="edge4" class="edge">
<title>Node1&#45;&gt;Node5</title>
<path fill="none" stroke="#63b8ff" d="M951.23,-393.5C941.16,-424.19 917.51,-483.69 877,-517 870.88,-522.03 863.68,-526.02 856.22,-529.17"/>
<polygon fill="#63b8ff" stroke="#63b8ff" points="954.68,-394.19 954.33,-383.6 948,-392.1 954.68,-394.19"/>
</g>
<!-- Node8 -->
<g id="node8" class="node">
<title>Node8</title>
<g id="a_node8"><a xlink:href="a00394.xhtml#a915348ef4a46cdb32af1a880ee46039b" target="_top" xlink:title=" ">
<polygon fill="white" stroke="#666666" points="868,-507.5 737,-507.5 737,-488.5 868,-488.5 868,-507.5"/>
<text text-anchor="middle" x="802.5" y="-495.5" font-family="Helvetica,sans-Serif" font-size="10.00">CPitchTimeAmdf::compF0</text>
</a>
</g>
</g>
<!-- Node1&#45;&gt;Node8 -->
<g id="edge7" class="edge">
<title>Node1&#45;&gt;Node8</title>
<path fill="none" stroke="#63b8ff" d="M947.89,-392.58C935.27,-416.3 910.24,-456.92 877,-479 871.18,-482.87 864.62,-485.94 857.88,-488.4"/>
<polygon fill="#63b8ff" stroke="#63b8ff" points="951.07,-394.04 952.52,-383.55 944.84,-390.85 951.07,-394.04"/>
</g>
<!-- Node9 -->
<g id="node9" class="node">
<title>Node9</title>
<g id="a_node9"><a xlink:href="a00334.xhtml#ac659cc10bad8a91121cd14533270497f" target="_top" xlink:title=" ">
<polygon fill="white" stroke="#666666" points="877,-470 728,-470 728,-440 877,-440 877,-470"/>
<text text-anchor="start" x="736" y="-458" font-family="Helvetica,sans-Serif" font-size="10.00">CFeatureSpectralPitchChroma</text>
<text text-anchor="middle" x="802.5" y="-447" font-family="Helvetica,sans-Serif" font-size="10.00">::compFeature</text>
</a>
</g>
</g>
<!-- Node1&#45;&gt;Node9 -->
<g id="edge8" class="edge">
<title>Node1&#45;&gt;Node9</title>
<path fill="none" stroke="#63b8ff" d="M937.95,-390.11C922.38,-402.63 899.35,-419.72 877,-431 870.41,-434.33 863.26,-437.33 856.09,-440"/>
<polygon fill="#63b8ff" stroke="#63b8ff" points="940.27,-392.73 945.79,-383.68 935.84,-387.32 940.27,-392.73"/>
</g>
<!-- Node10 -->
<g id="node10" class="node">
<title>Node10</title>
<g id="a_node10"><a xlink:href="a00470.xhtml#a15df133306497e4f85929692354f378a" target="_top" xlink:title=" ">
<polygon fill="white" stroke="#666666" points="871,-421.5 734,-421.5 734,-380.5 871,-380.5 871,-421.5"/>
<text text-anchor="start" x="742" y="-409.5" font-family="Helvetica,sans-Serif" font-size="10.00">CFeatureFromBlockIf</text>
<text text-anchor="start" x="742" y="-398.5" font-family="Helvetica,sans-Serif" font-size="10.00">::compFeatureSpectralCrest</text>
<text text-anchor="middle" x="802.5" y="-387.5" font-family="Helvetica,sans-Serif" font-size="10.00">Factor</text>
</a>
</g>
</g>
<!-- Node1&#45;&gt;Node10 -->
<g id="edge9" class="edge">
<title>Node1&#45;&gt;Node10</title>
<path fill="none" stroke="#63b8ff" d="M902.65,-383.56C892.49,-385.35 881.74,-387.24 871.23,-389.09"/>
<polygon fill="#63b8ff" stroke="#63b8ff" points="903.36,-386.99 912.6,-381.81 902.15,-380.09 903.36,-386.99"/>
</g>
<!-- Node11 -->
<g id="node11" class="node">
<title>Node11</title>
<g id="a_node11"><a xlink:href="a00470.xhtml#a28b9430a480ce697a7dbd73527057ac6" target="_top" xlink:title=" ">
<polygon fill="white" stroke="#666666" points="873,-362 732,-362 732,-332 873,-332 873,-362"/>
<text text-anchor="start" x="740" y="-350" font-family="Helvetica,sans-Serif" font-size="10.00">CFeatureFromBlockIf</text>
<text text-anchor="middle" x="802.5" y="-339" font-family="Helvetica,sans-Serif" font-size="10.00">::compFeatureSpectralRolloff</text>
</a>
</g>
</g>
<!-- Node1&#45;&gt;Node11 -->
<g id="edge10" class="edge">
<title>Node1&#45;&gt;Node11</title>
<path fill="none" stroke="#63b8ff" d="M902.54,-364.42C893.05,-362.75 883.07,-361 873.25,-359.27"/>
<polygon fill="#63b8ff" stroke="#63b8ff" points="902.15,-367.91 912.6,-366.19 903.36,-361.01 902.15,-367.91"/>
</g>
<!-- Node13 -->
<g id="node13" class="node">
<title>Node13</title>
<g id="a_node13"><a xlink:href="a00510.xhtml#adf22d441c8866b9fe13aef59549e1cff" target="_top" xlink:title=" ">
<polygon fill="white" stroke="#666666" points="868,-313.5 737,-313.5 737,-294.5 868,-294.5 868,-313.5"/>
<text text-anchor="middle" x="802.5" y="-301.5" font-family="Helvetica,sans-Serif" font-size="10.00">CKeyFromChroma::getKey</text>
</a>
</g>
</g>
<!-- Node1&#45;&gt;Node13 -->
<g id="edge12" class="edge">
<title>Node1&#45;&gt;Node13</title>
<path fill="none" stroke="#63b8ff" d="M936.33,-358.24C920.75,-347.02 898.46,-332.34 877,-323 868.42,-319.27 858.94,-316.14 849.73,-313.58"/>
<polygon fill="#63b8ff" stroke="#63b8ff" points="934.55,-361.27 944.67,-364.38 938.69,-355.64 934.55,-361.27"/>
</g>
<!-- Node16 -->
<g id="node16" class="node">
<title>Node16</title>
<g id="a_node16"><a xlink:href="a00502.xhtml#ae6e3545cf196c5e2409365bc62b7c1de" target="_top" xlink:title=" ">
<polygon fill="white" stroke="#666666" points="849.5,-276.5 755.5,-276.5 755.5,-257.5 849.5,-257.5 849.5,-276.5"/>
<text text-anchor="middle" x="802.5" y="-264.5" font-family="Helvetica,sans-Serif" font-size="10.00">CVector::getMean</text>
</a>
</g>
</g>
<!-- Node1&#45;&gt;Node16 -->
<g id="edge15" class="edge">
<title>Node1&#45;&gt;Node16</title>
<path fill="none" stroke="#63b8ff" d="M945.32,-355.81C931.46,-335.69 906.45,-303.77 877,-286 868.76,-281.03 859.25,-277.35 849.85,-274.63"/>
<polygon fill="#63b8ff" stroke="#63b8ff" points="942.58,-358.01 951.05,-364.38 948.4,-354.12 942.58,-358.01"/>
</g>
<!-- Node33 -->
<g id="node33" class="node">
<title>Node33</title>
<g id="a_node33"><a xlink:href="a00566.xhtml#acfd1d971e4268d80fe445a9798c8f075" target="_top" xlink:title=" ">
<polygon fill="white" stroke="#666666" points="671,-153.5 561,-153.5 561,-134.5 671,-134.5 671,-153.5"/>
<text text-anchor="middle" x="616" y="-141.5" font-family="Helvetica,sans-Serif" font-size="10.00">CGmm::updateState_</text>
</a>
</g>
</g>
<!-- Node1&#45;&gt;Node33 -->
<g id="edge42" class="edge">
<title>Node1&#45;&gt;Node33</title>
<path fill="none" stroke="#63b8ff" d="M949.95,-354.78C938.8,-327.12 914.44,-276.41 877,-249 821.67,-208.5 784.99,-247.13 728,-209 706.13,-194.37 714.06,-176.34 692,-162 685.71,-157.91 678.59,-154.75 671.29,-152.31"/>
<polygon fill="#63b8ff" stroke="#63b8ff" points="946.82,-356.4 953.69,-364.47 953.35,-353.88 946.82,-356.4"/>
</g>
<!-- Node34 -->
<g id="node34" class="node">
<title>Node34</title>
<g id="a_node34"><a xlink:href="a00486.xhtml#ae48093975ee83a53abb7ab2c25b8610c" target="_top" xlink:title=" ">
<polygon fill="white" stroke="#666666" points="846.5,-200.5 758.5,-200.5 758.5,-181.5 846.5,-181.5 846.5,-200.5"/>
<text text-anchor="middle" x="802.5" y="-188.5" font-family="Helvetica,sans-Serif" font-size="10.00">CMatrix::getSum</text>
</a>
</g>
</g>
<!-- Node1&#45;&gt;Node34 -->
<g id="edge37" class="edge">
<title>Node1&#45;&gt;Node34</title>
<path fill="none" stroke="#63b8ff" d="M952.36,-354.2C943.49,-320.71 921,-252.83 877,-215 868.45,-207.65 857.6,-202.54 846.87,-198.99"/>
<polygon fill="#63b8ff" stroke="#63b8ff" points="949.02,-355.3 954.85,-364.15 955.81,-353.6 949.02,-355.3"/>
</g>
<!-- Node35 -->
<g id="node35" class="node">
<title>Node35</title>
<g id="a_node35"><a xlink:href="a00454.xhtml#a2dc9b2b2e4912e45835c5727d550aee7" target="_top" xlink:title=" ">
<polygon fill="white" stroke="#666666" points="855,-115.5 750,-115.5 750,-96.5 855,-96.5 855,-115.5"/>
<text text-anchor="middle" x="802.5" y="-103.5" font-family="Helvetica,sans-Serif" font-size="10.00">CChordIf::initViterbi_</text>
</a>
</g>
</g>
<!-- Node1&#45;&gt;Node35 -->
<g id="edge38" class="edge">
<title>Node1&#45;&gt;Node35</title>
<path fill="none" stroke="#63b8ff" d="M952.41,-354.19C942.95,-316.25 918.6,-231.76 877,-172 860.54,-148.35 834.03,-127.32 817.75,-115.65"/>
<polygon fill="#63b8ff" stroke="#63b8ff" points="949.12,-355.5 954.87,-364.4 955.93,-353.86 949.12,-355.5"/>
</g>
<!-- Node3 -->
<g id="node3" class="node">
<title>Node3</title>
<g id="a_node3"><a xlink:href="a00622.xhtml#a849370ac2cbfd732f771f97cbd6e6c77" target="_top" xlink:title=" ">
<polygon fill="white" stroke="#666666" points="678,-641.5 554,-641.5 554,-622.5 678,-622.5 678,-641.5"/>
<text text-anchor="middle" x="616" y="-629.5" font-family="Helvetica,sans-Serif" font-size="10.00">CKmeans::compKmeans</text>
</a>
</g>
</g>
<!-- Node2&#45;&gt;Node3 -->
<g id="edge2" class="edge">
<title>Node2&#45;&gt;Node3</title>
<path fill="none" stroke="#63b8ff" d="M721.1,-632C706.72,-632 691.94,-632 678.21,-632"/>
<polygon fill="#63b8ff" stroke="#63b8ff" points="721.49,-635.5 731.49,-632 721.49,-628.5 721.49,-635.5"/>
</g>
<!-- Node6 -->
<g id="node6" class="node">
<title>Node6</title>
<g id="a_node6"><a xlink:href="a00454.xhtml#a463c7570302112f307363ec1c7260221" target="_top" xlink:title=" ">
<polygon fill="white" stroke="#666666" points="673,-550.5 559,-550.5 559,-531.5 673,-531.5 673,-550.5"/>
<text text-anchor="middle" x="616" y="-538.5" font-family="Helvetica,sans-Serif" font-size="10.00">CChordIf::compChords</text>
</a>
</g>
</g>
<!-- Node5&#45;&gt;Node6 -->
<g id="edge5" class="edge">
<title>Node5&#45;&gt;Node6</title>
<path fill="none" stroke="#63b8ff" d="M738.43,-541C717.22,-541 693.73,-541 673.1,-541"/>
<polygon fill="#63b8ff" stroke="#63b8ff" points="738.63,-544.5 748.63,-541 738.63,-537.5 738.63,-544.5"/>
</g>
<!-- Node7 -->
<g id="node7" class="node">
<title>Node7</title>
<g id="a_node7"><a xlink:href="a00005.xhtml#a0ddf1224851353fc92bfbff6f499fa97" target="_top" xlink:title=" ">
<polygon fill="white" stroke="#666666" points="442,-550.5 404,-550.5 404,-531.5 442,-531.5 442,-550.5"/>
<text text-anchor="middle" x="423" y="-538.5" font-family="Helvetica,sans-Serif" font-size="10.00">main</text>
</a>
</g>
</g>
<!-- Node6&#45;&gt;Node7 -->
<g id="edge6" class="edge">
<title>Node6&#45;&gt;Node7</title>
<path fill="none" stroke="#63b8ff" d="M548.55,-541C510.83,-541 466.44,-541 442.15,-541"/>
<polygon fill="#63b8ff" stroke="#63b8ff" points="548.98,-544.5 558.98,-541 548.98,-537.5 548.98,-544.5"/>
</g>
<!-- Node12 -->
<g id="node12" class="node">
<title>Node12</title>
<g id="a_node12"><a xlink:href="a00338.xhtml#ac52fdefa069114d576a8105182084648" target="_top" xlink:title=" ">
<polygon fill="white" stroke="#666666" points="675.5,-448 556.5,-448 556.5,-418 675.5,-418 675.5,-448"/>
<text text-anchor="start" x="564.5" y="-436" font-family="Helvetica,sans-Serif" font-size="10.00">CFeatureSpectralRolloff</text>
<text text-anchor="middle" x="616" y="-425" font-family="Helvetica,sans-Serif" font-size="10.00">::compFeature</text>
</a>
</g>
</g>
<!-- Node11&#45;&gt;Node12 -->
<g id="edge11" class="edge">
<title>Node11&#45;&gt;Node12</title>
<path fill="none" stroke="#63b8ff" d="M738.4,-366.19C734.8,-367.98 731.3,-369.91 728,-372 708.6,-384.25 711.51,-396.92 692,-409 686.54,-412.38 680.55,-415.33 674.42,-417.89"/>
<polygon fill="#63b8ff" stroke="#63b8ff" points="739.89,-369.36 747.54,-362.03 736.99,-362.99 739.89,-369.36"/>
</g>
<!-- Node14 -->
<g id="node14" class="node">
<title>Node14</title>
<g id="a_node14"><a xlink:href="a00506.xhtml#a343e6b52e9696244dd57d4db0f91d056" target="_top" xlink:title=" ">
<polygon fill="white" stroke="#666666" points="658.5,-399.5 573.5,-399.5 573.5,-380.5 658.5,-380.5 658.5,-399.5"/>
<text text-anchor="middle" x="616" y="-387.5" font-family="Helvetica,sans-Serif" font-size="10.00">CKey::compKey</text>
</a>
</g>
</g>
<!-- Node13&#45;&gt;Node14 -->
<g id="edge13" class="edge">
<title>Node13&#45;&gt;Node14</title>
<path fill="none" stroke="#63b8ff" d="M737.77,-317.42C734.36,-319.07 731.07,-320.92 728,-323 705.62,-338.15 714.51,-357.05 692,-372 682.18,-378.52 670.25,-382.68 658.82,-385.34"/>
<polygon fill="#63b8ff" stroke="#63b8ff" points="739.2,-320.61 747.06,-313.51 736.48,-314.16 739.2,-320.61"/>
</g>
<!-- Node15 -->
<g id="node15" class="node">
<title>Node15</title>
<g id="a_node15"><a xlink:href="a00122.xhtml#a0ddf1224851353fc92bfbff6f499fa97" target="_top" xlink:title=" ">
<polygon fill="white" stroke="#666666" points="442,-436.5 404,-436.5 404,-417.5 442,-417.5 442,-436.5"/>
<text text-anchor="middle" x="423" y="-424.5" font-family="Helvetica,sans-Serif" font-size="10.00">main</text>
</a>
</g>
</g>
<!-- Node14&#45;&gt;Node15 -->
<g id="edge14" class="edge">
<title>Node14&#45;&gt;Node15</title>
<path fill="none" stroke="#63b8ff" d="M563.18,-400.04C523.01,-407.82 469.71,-418.15 442.18,-423.48"/>
<polygon fill="#63b8ff" stroke="#63b8ff" points="563.93,-403.46 573.08,-398.12 562.6,-396.59 563.93,-403.46"/>
</g>
<!-- Node16&#45;&gt;Node14 -->
<g id="edge22" class="edge">
<title>Node16&#45;&gt;Node14</title>
<path fill="none" stroke="#63b8ff" d="M745.64,-275.46C739.23,-278.1 733.15,-281.54 728,-286 696.68,-313.12 723.56,-345.15 692,-372 682.72,-379.9 670.56,-384.45 658.74,-387.05"/>
<polygon fill="#63b8ff" stroke="#63b8ff" points="746.91,-278.72 755.2,-272.13 744.61,-272.11 746.91,-278.72"/>
</g>
<!-- Node17 -->
<g id="node17" class="node">
<title>Node17</title>
<g id="a_node17"><a xlink:href="a00598.xhtml#ab97f1018b23310674511f05dac173db8" target="_top" xlink:title=" ">
<polygon fill="white" stroke="#666666" points="659,-190.5 573,-190.5 573,-171.5 659,-171.5 659,-190.5"/>
<text text-anchor="middle" x="616" y="-178.5" font-family="Helvetica,sans-Serif" font-size="10.00">CPca::compCov</text>
</a>
</g>
</g>
<!-- Node16&#45;&gt;Node17 -->
<g id="edge16" class="edge">
<title>Node16&#45;&gt;Node17</title>
<path fill="none" stroke="#63b8ff" d="M751.99,-254.06C743.71,-251 735.41,-247.33 728,-243 709.26,-232.05 710.44,-221.45 692,-210 678.83,-201.83 662.98,-195.29 649.25,-190.51"/>
<polygon fill="#63b8ff" stroke="#63b8ff" points="751.05,-257.44 761.64,-257.38 753.33,-250.82 751.05,-257.44"/>
</g>
<!-- Node22 -->
<g id="node22" class="node">
<title>Node22</title>
<g id="a_node22"><a xlink:href="a00470.xhtml#a361ef81afe12623645546fbbeab30b14" target="_top" xlink:title=" ">
<polygon fill="white" stroke="#666666" points="692,-325 540,-325 540,-295 692,-295 692,-325"/>
<text text-anchor="start" x="548" y="-313" font-family="Helvetica,sans-Serif" font-size="10.00">CFeatureFromBlockIf</text>
<text text-anchor="middle" x="616" y="-302" font-family="Helvetica,sans-Serif" font-size="10.00">::compFeatureSpectralFlatness</text>
</a>
</g>
</g>
<!-- Node16&#45;&gt;Node22 -->
<g id="edge21" class="edge">
<title>Node16&#45;&gt;Node22</title>
<path fill="none" stroke="#63b8ff" d="M750.68,-278.84C729.27,-283.84 704.08,-289.7 681.39,-294.99"/>
<polygon fill="#63b8ff" stroke="#63b8ff" points="751.61,-282.22 760.55,-276.54 750.02,-275.4 751.61,-282.22"/>
</g>
<!-- Node23 -->
<g id="node23" class="node">
<title>Node23</title>
<g id="a_node23"><a xlink:href="a00462.xhtml#a9c21f9c80f6880682d822c53232bbff9" target="_top" xlink:title=" ">
<polygon fill="white" stroke="#666666" points="492,-325 354,-325 354,-295 492,-295 492,-325"/>
<text text-anchor="start" x="362" y="-313" font-family="Helvetica,sans-Serif" font-size="10.00">CClassifierBase::compNorm</text>
<text text-anchor="middle" x="423" y="-302" font-family="Helvetica,sans-Serif" font-size="10.00">Constants</text>
</a>
</g>
</g>
<!-- Node16&#45;&gt;Node23 -->
<g id="edge23" class="edge">
<title>Node16&#45;&gt;Node23</title>
<path fill="none" stroke="#63b8ff" d="M745.26,-268.95C692.15,-271.29 610.37,-276.21 540,-286 523.4,-288.31 505.61,-291.58 489.08,-294.97"/>
<polygon fill="#63b8ff" stroke="#63b8ff" points="745.64,-272.43 755.49,-268.51 745.35,-265.44 745.64,-272.43"/>
</g>
<!-- Node25 -->
<g id="node25" class="node">
<title>Node25</title>
<g id="a_node25"><a xlink:href="a00514.xhtml#a9f110985f86064fa24aa3157bfd5cab0" target="_top" xlink:title=" ">
<polygon fill="white" stroke="#666666" points="678,-362.5 554,-362.5 554,-343.5 678,-343.5 678,-362.5"/>
<text text-anchor="middle" x="616" y="-350.5" font-family="Helvetica,sans-Serif" font-size="10.00">CNoveltyIf::compNovelty</text>
</a>
</g>
</g>
<!-- Node16&#45;&gt;Node25 -->
<g id="edge26" class="edge">
<title>Node16&#45;&gt;Node25</title>
<path fill="none" stroke="#63b8ff" d="M745.41,-277.19C739.26,-279.54 733.32,-282.44 728,-286 705.84,-300.84 714.19,-319.21 692,-334 686.19,-337.87 679.64,-340.96 672.9,-343.41"/>
<polygon fill="#63b8ff" stroke="#63b8ff" points="746.79,-280.42 755.16,-273.93 744.57,-273.78 746.79,-280.42"/>
</g>
<!-- Node29 -->
<g id="node29" class="node">
<title>Node29</title>
<g id="a_node29"><a xlink:href="a00502.xhtml#ae2ed42101e3d7075f5dec265a23f3424" target="_top" xlink:title=" ">
<polygon fill="white" stroke="#666666" points="658.5,-238.5 573.5,-238.5 573.5,-219.5 658.5,-219.5 658.5,-238.5"/>
<text text-anchor="middle" x="616" y="-226.5" font-family="Helvetica,sans-Serif" font-size="10.00">CVector::getStd</text>
</a>
</g>
</g>
<!-- Node16&#45;&gt;Node29 -->
<g id="edge30" class="edge">
<title>Node16&#45;&gt;Node29</title>
<path fill="none" stroke="#63b8ff" d="M745.4,-255.45C717.49,-249.7 684.34,-242.87 658.72,-237.59"/>
<polygon fill="#63b8ff" stroke="#63b8ff" points="744.92,-258.92 755.42,-257.51 746.33,-252.06 744.92,-258.92"/>
</g>
<!-- Node16&#45;&gt;Node33 -->
<g id="edge35" class="edge">
<title>Node16&#45;&gt;Node33</title>
<path fill="none" stroke="#63b8ff" d="M745.64,-254.43C739.23,-251.4 733.16,-247.65 728,-243 698.75,-216.61 722.28,-187.2 692,-162 685.93,-156.95 678.67,-153.27 671.1,-150.59"/>
<polygon fill="#63b8ff" stroke="#63b8ff" points="744.62,-257.8 755.2,-258.36 747.29,-251.32 744.62,-257.8"/>
</g>
<!-- Node18 -->
<g id="node18" class="node">
<title>Node18</title>
<g id="a_node18"><a xlink:href="a00598.xhtml#a3185f8f3c718973ce66de3595e38db09" target="_top" xlink:title=" ">
<polygon fill="white" stroke="#666666" points="466,-180.5 380,-180.5 380,-161.5 466,-161.5 466,-180.5"/>
<text text-anchor="middle" x="423" y="-168.5" font-family="Helvetica,sans-Serif" font-size="10.00">CPca::compPca</text>
</a>
</g>
</g>
<!-- Node17&#45;&gt;Node18 -->
<g id="edge17" class="edge">
<title>Node17&#45;&gt;Node18</title>
<path fill="none" stroke="#63b8ff" d="M562.24,-178.24C532,-176.65 494.56,-174.69 466.27,-173.21"/>
<polygon fill="#63b8ff" stroke="#63b8ff" points="562.44,-181.75 572.61,-178.78 562.81,-174.76 562.44,-181.75"/>
</g>
<!-- Node19 -->
<g id="node19" class="node">
<title>Node19</title>
<g id="a_node19"><a xlink:href="a00566.xhtml#a5ba31c15070952d0c4cb442c7e257f50" target="_top" xlink:title=" ">
<polygon fill="white" stroke="#666666" points="469.5,-143.5 376.5,-143.5 376.5,-124.5 469.5,-124.5 469.5,-143.5"/>
<text text-anchor="middle" x="423" y="-131.5" font-family="Helvetica,sans-Serif" font-size="10.00">CGmm::initState_</text>
</a>
</g>
</g>
<!-- Node17&#45;&gt;Node19 -->
<g id="edge18" class="edge">
<title>Node17&#45;&gt;Node19</title>
<path fill="none" stroke="#63b8ff" d="M566.59,-168.91C557.74,-166.65 548.58,-164.28 540,-162 523.95,-157.74 520.11,-156.05 504,-152 492.4,-149.09 479.8,-146.15 468.11,-143.51"/>
<polygon fill="#63b8ff" stroke="#63b8ff" points="565.86,-172.34 576.42,-171.4 567.59,-165.55 565.86,-172.34"/>
</g>
<!-- Node20 -->
<g id="node20" class="node">
<title>Node20</title>
<g id="a_node20"><a xlink:href="a00566.xhtml#a1c5c350c949120b07e5cbd1e317c7ad7" target="_top" xlink:title=" ">
<polygon fill="white" stroke="#666666" points="276,-143.5 176,-143.5 176,-124.5 276,-124.5 276,-143.5"/>
<text text-anchor="middle" x="226" y="-131.5" font-family="Helvetica,sans-Serif" font-size="10.00">CGmm::compGmm</text>
</a>
</g>
</g>
<!-- Node19&#45;&gt;Node20 -->
<g id="edge19" class="edge">
<title>Node19&#45;&gt;Node20</title>
<path fill="none" stroke="#63b8ff" d="M366.11,-134C337.73,-134 303.56,-134 276.19,-134"/>
<polygon fill="#63b8ff" stroke="#63b8ff" points="366.28,-137.5 376.28,-134 366.28,-130.5 366.28,-137.5"/>
</g>
<!-- Node21 -->
<g id="node21" class="node">
<title>Node21</title>
<g id="a_node21"><a xlink:href="a00570.xhtml#af086e0bae5cc3cb68c35745749b0fda5" target="_top" xlink:title=" ">
<polygon fill="white" stroke="#666666" points="110,-231.5 0,-231.5 0,-212.5 110,-212.5 110,-231.5"/>
<text text-anchor="middle" x="55" y="-219.5" font-family="Helvetica,sans-Serif" font-size="10.00">CGmmClassifier::train</text>
</a>
</g>
</g>
<!-- Node20&#45;&gt;Node21 -->
<g id="edge20" class="edge">
<title>Node20&#45;&gt;Node21</title>
<path fill="none" stroke="#63b8ff" d="M197.49,-148.33C162.79,-166.39 104.09,-196.96 74.38,-212.43"/>
<polygon fill="#63b8ff" stroke="#63b8ff" points="199.34,-151.31 206.59,-143.59 196.11,-145.1 199.34,-151.31"/>
</g>
<!-- Node23&#45;&gt;Node21 -->
<g id="edge24" class="edge">
<title>Node23&#45;&gt;Node21</title>
<path fill="none" stroke="#63b8ff" d="M343.83,-322.55C286.92,-328.35 209.08,-329.22 146,-304 108.12,-288.86 76.2,-249.94 62.79,-231.7"/>
<polygon fill="#63b8ff" stroke="#63b8ff" points="344.29,-326.02 353.85,-321.46 343.53,-319.06 344.29,-326.02"/>
</g>
<!-- Node24 -->
<g id="node24" class="node">
<title>Node24</title>
<g id="a_node24"><a xlink:href="a00626.xhtml#aedd5ce22bf1cf98b70cc3757ba244b94" target="_top" xlink:title=" ">
<polygon fill="white" stroke="#666666" points="258,-294.5 194,-294.5 194,-275.5 258,-275.5 258,-294.5"/>
<text text-anchor="middle" x="226" y="-282.5" font-family="Helvetica,sans-Serif" font-size="10.00">CKnn::train</text>
</a>
</g>
</g>
<!-- Node23&#45;&gt;Node24 -->
<g id="edge25" class="edge">
<title>Node23&#45;&gt;Node24</title>
<path fill="none" stroke="#63b8ff" d="M343.73,-299.97C313.7,-296.11 281.13,-291.94 258.04,-288.98"/>
<polygon fill="#63b8ff" stroke="#63b8ff" points="343.43,-303.46 353.8,-301.26 344.32,-296.51 343.43,-303.46"/>
</g>
<!-- Node26 -->
<g id="node26" class="node">
<title>Node26</title>
<g id="a_node26"><a xlink:href="a00450.xhtml#a58a9a3d685f448ced2e843a60028e472" target="_top" xlink:title=" ">
<polygon fill="white" stroke="#666666" points="495.5,-399.5 350.5,-399.5 350.5,-380.5 495.5,-380.5 495.5,-399.5"/>
<text text-anchor="middle" x="423" y="-387.5" font-family="Helvetica,sans-Serif" font-size="10.00">CBeatHistoIf::compBeatHisto</text>
</a>
</g>
</g>
<!-- Node25&#45;&gt;Node26 -->
<g id="edge27" class="edge">
<title>Node25&#45;&gt;Node26</title>
<path fill="none" stroke="#63b8ff" d="M555.9,-364.45C529.43,-369.58 498.57,-375.56 473.35,-380.44"/>
<polygon fill="#63b8ff" stroke="#63b8ff" points="556.66,-367.87 565.81,-362.53 555.33,-360.99 556.66,-367.87"/>
</g>
<!-- Node28 -->
<g id="node28" class="node">
<title>Node28</title>
<g id="a_node28"><a xlink:href="a00023.xhtml#a0ddf1224851353fc92bfbff6f499fa97" target="_top" xlink:title=" ">
<polygon fill="white" stroke="#666666" points="442,-362.5 404,-362.5 404,-343.5 442,-343.5 442,-362.5"/>
<text text-anchor="middle" x="423" y="-350.5" font-family="Helvetica,sans-Serif" font-size="10.00">main</text>
</a>
</g>
</g>
<!-- Node25&#45;&gt;Node28 -->
<g id="edge29" class="edge">
<title>Node25&#45;&gt;Node28</title>
<path fill="none" stroke="#63b8ff" d="M543.65,-353C507.19,-353 465.71,-353 442.41,-353"/>
<polygon fill="#63b8ff" stroke="#63b8ff" points="543.78,-356.5 553.78,-353 543.78,-349.5 543.78,-356.5"/>
</g>
<!-- Node27 -->
<g id="node27" class="node">
<title>Node27</title>
<g id="a_node27"><a xlink:href="a00011.xhtml#a0ddf1224851353fc92bfbff6f499fa97" target="_top" xlink:title=" ">
<polygon fill="white" stroke="#666666" points="245,-399.5 207,-399.5 207,-380.5 245,-380.5 245,-399.5"/>
<text text-anchor="middle" x="226" y="-387.5" font-family="Helvetica,sans-Serif" font-size="10.00">main</text>
</a>
</g>
</g>
<!-- Node26&#45;&gt;Node27 -->
<g id="edge28" class="edge">
<title>Node26&#45;&gt;Node27</title>
<path fill="none" stroke="#63b8ff" d="M340.18,-390C305.02,-390 267.06,-390 245.25,-390"/>
<polygon fill="#63b8ff" stroke="#63b8ff" points="340.5,-393.5 350.5,-390 340.5,-386.5 340.5,-393.5"/>
</g>
<!-- Node29&#45;&gt;Node23 -->
<g id="edge34" class="edge">
<title>Node29&#45;&gt;Node23</title>
<path fill="none" stroke="#63b8ff" d="M564.75,-241.74C556.21,-244.84 547.65,-248.56 540,-253 521.23,-263.89 522.87,-275.28 504,-286 498.07,-289.37 491.63,-292.31 485.05,-294.86"/>
<polygon fill="#63b8ff" stroke="#63b8ff" points="565.97,-245.03 574.33,-238.52 563.73,-238.39 565.97,-245.03"/>
</g>
<!-- Node30 -->
<g id="node30" class="node">
<title>Node30</title>
<g id="a_node30"><a xlink:href="a00470.xhtml#a46500f9eaa49f3860afa5f1fce555415" target="_top" xlink:title=" ">
<polygon fill="white" stroke="#666666" points="483,-277 363,-277 363,-247 483,-247 483,-277"/>
<text text-anchor="start" x="371" y="-265" font-family="Helvetica,sans-Serif" font-size="10.00">CFeatureFromBlockIf</text>
<text text-anchor="middle" x="423" y="-254" font-family="Helvetica,sans-Serif" font-size="10.00">::compFeatureTimeRms</text>
</a>
</g>
</g>
<!-- Node29&#45;&gt;Node30 -->
<g id="edge31" class="edge">
<title>Node29&#45;&gt;Node30</title>
<path fill="none" stroke="#63b8ff" d="M563.18,-237.95C538.47,-242.22 508.8,-247.35 483.21,-251.77"/>
<polygon fill="#63b8ff" stroke="#63b8ff" points="563.83,-241.39 573.08,-236.24 562.63,-234.5 563.83,-241.39"/>
</g>
<!-- Node32 -->
<g id="node32" class="node">
<title>Node32</title>
<g id="a_node32"><a xlink:href="a00470.xhtml#a4eca7f209c771fb5008fa08facffd598" target="_top" xlink:title=" ">
<polygon fill="white" stroke="#666666" points="480.5,-229 365.5,-229 365.5,-199 480.5,-199 480.5,-229"/>
<text text-anchor="start" x="373.5" y="-217" font-family="Helvetica,sans-Serif" font-size="10.00">CFeatureFromBlockIf</text>
<text text-anchor="middle" x="423" y="-206" font-family="Helvetica,sans-Serif" font-size="10.00">::compFeatureTimeStd</text>
</a>
</g>
</g>
<!-- Node29&#45;&gt;Node32 -->
<g id="edge33" class="edge">
<title>Node29&#45;&gt;Node32</title>
<path fill="none" stroke="#63b8ff" d="M562.88,-224.91C537.41,-222.91 506.72,-220.5 480.67,-218.45"/>
<polygon fill="#63b8ff" stroke="#63b8ff" points="562.84,-228.41 573.08,-225.71 563.39,-221.44 562.84,-228.41"/>
</g>
<!-- Node31 -->
<g id="node31" class="node">
<title>Node31</title>
<g id="a_node31"><a xlink:href="a00358.xhtml#ab68abfdfc2f9477c81b9d43015ab9ebe" target="_top" xlink:title=" ">
<polygon fill="white" stroke="#666666" points="306,-257.5 146,-257.5 146,-238.5 306,-238.5 306,-257.5"/>
<text text-anchor="middle" x="226" y="-245.5" font-family="Helvetica,sans-Serif" font-size="10.00">CFeatureTimeRms::compFeature</text>
</a>
</g>
</g>
<!-- Node30&#45;&gt;Node31 -->
<g id="edge32" class="edge">
<title>Node30&#45;&gt;Node31</title>
<path fill="none" stroke="#63b8ff" d="M352.74,-257.03C337.72,-255.95 321.73,-254.8 306.35,-253.7"/>
<polygon fill="#63b8ff" stroke="#63b8ff" points="352.74,-260.54 362.96,-257.76 353.24,-253.55 352.74,-260.54"/>
</g>
<!-- Node33&#45;&gt;Node20 -->
<g id="edge36" class="edge">
<title>Node33&#45;&gt;Node20</title>
<path fill="none" stroke="#63b8ff" d="M577.04,-131.51C555.81,-125.18 528.73,-118.18 504,-115 432.59,-105.83 413.76,-109.11 342,-115 319.41,-116.85 294.58,-120.72 273.78,-124.49"/>
<polygon fill="#63b8ff" stroke="#63b8ff" points="576.06,-134.87 586.65,-134.45 578.11,-128.18 576.06,-134.87"/>
</g>
<!-- Node36 -->
<g id="node36" class="node">
<title>Node36</title>
<g id="a_node36"><a xlink:href="a00454.xhtml#ad48a5bd574f16b7491b70efb9998935f" target="_top" xlink:title="init configuration">
<polygon fill="white" stroke="#666666" points="654.5,-67.5 577.5,-67.5 577.5,-48.5 654.5,-48.5 654.5,-67.5"/>
<text text-anchor="middle" x="616" y="-55.5" font-family="Helvetica,sans-Serif" font-size="10.00">CChordIf::init_</text>
</a>
</g>
</g>
<!-- Node35&#45;&gt;Node36 -->
<g id="edge39" class="edge">
<title>Node35&#45;&gt;Node36</title>
<path fill="none" stroke="#63b8ff" d="M754.8,-93.85C723.49,-85.71 682.85,-75.13 653.83,-67.58"/>
<polygon fill="#63b8ff" stroke="#63b8ff" points="754.05,-97.27 764.61,-96.4 755.81,-90.5 754.05,-97.27"/>
</g>
<!-- Node37 -->
<g id="node37" class="node">
<title>Node37</title>
<g id="a_node37"><a xlink:href="a00310.xhtml#a6df404d2eb3d4c8f9dc2071930fc9e7e" target="_top" xlink:title=" ">
<polygon fill="white" stroke="#666666" points="504,-67.5 342,-67.5 342,-48.5 504,-48.5 504,-67.5"/>
<text text-anchor="middle" x="423" y="-55.5" font-family="Helvetica,sans-Serif" font-size="10.00">CChordFromFile::CChordFromFile</text>
</a>
</g>
</g>
<!-- Node36&#45;&gt;Node37 -->
<g id="edge40" class="edge">
<title>Node36&#45;&gt;Node37</title>
<path fill="none" stroke="#63b8ff" d="M567.08,-58C548.06,-58 525.66,-58 504.31,-58"/>
<polygon fill="#63b8ff" stroke="#63b8ff" points="567.26,-61.5 577.26,-58 567.26,-54.5 567.26,-61.5"/>
</g>
<!-- Node38 -->
<g id="node38" class="node">
<title>Node38</title>
<g id="a_node38"><a xlink:href="a00314.xhtml#ac9c41c2ddc441df7e0ae80c25971c260" target="_top" xlink:title=" ">
<polygon fill="white" stroke="#666666" points="491.5,-30 354.5,-30 354.5,0 491.5,0 491.5,-30"/>
<text text-anchor="start" x="362.5" y="-18" font-family="Helvetica,sans-Serif" font-size="10.00">CChordFromVector::CChord</text>
<text text-anchor="middle" x="423" y="-7" font-family="Helvetica,sans-Serif" font-size="10.00">FromVector</text>
</a>
</g>
</g>
<!-- Node36&#45;&gt;Node38 -->
<g id="edge41" class="edge">
<title>Node36&#45;&gt;Node38</title>
<path fill="none" stroke="#63b8ff" d="M567.34,-47.27C544.16,-42.05 515.92,-35.69 490.66,-30.01"/>
<polygon fill="#63b8ff" stroke="#63b8ff" points="566.74,-50.72 577.26,-49.5 568.28,-43.89 566.74,-50.72"/>
</g>
</g>
</svg>
        <g id="navigator" transform="translate(0 0)" fill="#404254">
                <rect fill="#f2f5e9" fill-opacity="0.5" stroke="#606060" stroke-width=".5" x="0" y="0" width="60" height="60"/>
                <use id="zoomplus" xlink:href="#zoomPlus" x="17" y="9" onmousedown="handleZoom(evt,'in')"/>
                <use id="zoomminus" xlink:href="#zoomMin" x="42" y="9" onmousedown="handleZoom(evt,'out')"/>
                <use id="reset" xlink:href="#resetDef" x="30" y="36" onmousedown="handleReset()"/>
                <g id="arrowUp" xlink:href="#dirArrow" transform="translate(30 24)" onmousedown="handlePan(0,-1)">
                  <use xlink:href="#rim" fill="#404040">
                        <set attributeName="fill" to="#808080" begin="arrowUp.mouseover" end="arrowUp.mouseout"/>
                  </use>
                  <path fill="none" stroke="white" stroke-width="1.5" d="M0,-3.0v7 M-2.5,-0.5L0,-3.0L2.5,-0.5"/>
                </g>
                <g id="arrowRight" xlink:href="#dirArrow" transform="rotate(90) translate(36 -43)" onmousedown="handlePan(1,0)">
                  <use xlink:href="#rim" fill="#404040">
                        <set attributeName="fill" to="#808080" begin="arrowRight.mouseover" end="arrowRight.mouseout"/>
                  </use>
                  <path fill="none" stroke="white" stroke-width="1.5" d="M0,-3.0v7 M-2.5,-0.5L0,-3.0L2.5,-0.5"/>
                </g>
                <g id="arrowDown" xlink:href="#dirArrow" transform="rotate(180) translate(-30 -48)" onmousedown="handlePan(0,1)">
                  <use xlink:href="#rim" fill="#404040">
                        <set attributeName="fill" to="#808080" begin="arrowDown.mouseover" end="arrowDown.mouseout"/>
                  </use>
                  <path fill="none" stroke="white" stroke-width="1.5" d="M0,-3.0v7 M-2.5,-0.5L0,-3.0L2.5,-0.5"/>
                </g>
                <g id="arrowLeft" xlink:href="#dirArrow" transform="rotate(270) translate(-36 17)" onmousedown="handlePan(-1,0)">
                  <use xlink:href="#rim" fill="#404040">
                        <set attributeName="fill" to="#808080" begin="arrowLeft.mouseover" end="arrowLeft.mouseout"/>
                  </use>
                  <path fill="none" stroke="white" stroke-width="1.5" d="M0,-3.0v7 M-2.5,-0.5L0,-3.0L2.5,-0.5"/>
                </g>
        </g>
        <svg viewBox="0 0 15 15" width="100%" height="30px" preserveAspectRatio="xMaxYMin meet">
         <g id="arrow_out" transform="scale(0.3 0.3)">
          <a xlink:href="a00502_abdbcc3898121387f3694f74491b7331e_icgraph_org.svg" target="_base">
           <rect id="button" ry="5" rx="5" y="6" x="6" height="38" width="38"
                fill="#f2f5e9" fill-opacity="0.5" stroke="#606060" stroke-width="1.0"/>
           <path id="arrow"
             d="M 11.500037,31.436501 C 11.940474,20.09759 22.043105,11.32322 32.158766,21.979434 L 37.068811,17.246167 C 37.068811,17.246167 37.088388,32 37.088388,32 L 22.160133,31.978069 C 22.160133,31.978069 26.997745,27.140456 26.997745,27.140456 C 18.528582,18.264221 13.291696,25.230495 11.500037,31.436501 z"
             style="fill:#404040;"/>
          </a>
         </g>
        </svg>
</svg>
