<?xml version="1.0" encoding="UTF-8" standalone="no"?>
<!DOCTYPE svg PUBLIC "-//W3C//DTD SVG 1.1//EN"
 "http://www.w3.org/Graphics/SVG/1.1/DTD/svg11.dtd">
<!-- Generated by graphviz version 12.2.1 (20241206.2353)
 -->
<!-- Title: CPitchIf::destroy Pages: 1 -->
<svg width="672pt" height="113pt"
 viewBox="0.00 0.00 672.25 113.25" xmlns="http://www.w3.org/2000/svg" xmlns:xlink="http://www.w3.org/1999/xlink">
<g id="graph0" class="graph" transform="scale(1 1) rotate(0) translate(4 109.25)">
<title>CPitchIf::destroy</title>
<!-- Node1 -->
<g id="Node000001" class="node">
<title>Node1</title>
<g id="a_Node000001"><a xlink:title=" ">
<polygon fill="#999999" stroke="#666666" points="87.25,-62.25 0,-62.25 0,-43 87.25,-43 87.25,-62.25"/>
<text text-anchor="middle" x="43.62" y="-48.75" font-family="Helvetica,sans-Serif" font-size="10.00">CPitchIf::destroy</text>
</a>
</g>
</g>
<!-- Node2 -->
<g id="Node000002" class="node">
<title>Node2</title>
<g id="a_Node000002"><a xlink:href="a00525.xhtml#a6e2c59c5b6bb651075bd0e9d65edd383" target="_top" xlink:title=" ">
<polygon fill="white" stroke="#666666" points="214.25,-62.25 123.25,-62.25 123.25,-43 214.25,-43 214.25,-62.25"/>
<text text-anchor="middle" x="168.75" y="-48.75" font-family="Helvetica,sans-Serif" font-size="10.00">CPitchIf::CPitchIf</text>
</a>
</g>
</g>
<!-- Node1&#45;&gt;Node2 -->
<g id="edge1_Node000001_Node000002" class="edge">
<title>Node1&#45;&gt;Node2</title>
<g id="a_edge1_Node000001_Node000002"><a xlink:title=" ">
<path fill="none" stroke="#63b8ff" d="M87.69,-52.62C95.33,-52.62 103.39,-52.62 111.33,-52.62"/>
<polygon fill="#63b8ff" stroke="#63b8ff" points="111.32,-56.13 121.32,-52.63 111.32,-49.13 111.32,-56.13"/>
</a>
</g>
</g>
<!-- Node3 -->
<g id="Node000003" class="node">
<title>Node3</title>
<g id="a_Node000003"><a xlink:href="a00525.xhtml#a0841d88981bfe343f6439b7d4174a30b" target="_top" xlink:title="reset configuration">
<polygon fill="white" stroke="#666666" points="333,-62.25 250.25,-62.25 250.25,-43 333,-43 333,-62.25"/>
<text text-anchor="middle" x="291.62" y="-48.75" font-family="Helvetica,sans-Serif" font-size="10.00">CPitchIf::reset_</text>
</a>
</g>
</g>
<!-- Node2&#45;&gt;Node3 -->
<g id="edge2_Node000002_Node000003" class="edge">
<title>Node2&#45;&gt;Node3</title>
<g id="a_edge2_Node000002_Node000003"><a xlink:title=" ">
<path fill="none" stroke="#63b8ff" d="M214.42,-52.62C222.37,-52.62 230.71,-52.62 238.85,-52.62"/>
<polygon fill="#63b8ff" stroke="#63b8ff" points="238.62,-56.13 248.62,-52.63 238.62,-49.13 238.62,-56.13"/>
</a>
</g>
</g>
<!-- Node4 -->
<g id="Node000004" class="node">
<title>Node4</title>
<g id="a_Node000004"><a xlink:href="a00545.xhtml#a13d2bd6e36210dde0c64d188c1266b88" target="_top" xlink:title=" ">
<polygon fill="white" stroke="#666666" points="483.25,-105.25 369,-105.25 369,-86 483.25,-86 483.25,-105.25"/>
<text text-anchor="middle" x="426.12" y="-91.75" font-family="Helvetica,sans-Serif" font-size="10.00">CBlockAudioIf::destroy</text>
</a>
</g>
</g>
<!-- Node3&#45;&gt;Node4 -->
<g id="edge3_Node000003_Node000004" class="edge">
<title>Node3&#45;&gt;Node4</title>
<g id="a_edge3_Node000003_Node000004"><a xlink:title=" ">
<path fill="none" stroke="#63b8ff" d="M323.69,-62.71C341.47,-68.48 364,-75.79 383.32,-82.06"/>
<polygon fill="#63b8ff" stroke="#63b8ff" points="382.22,-85.38 392.81,-85.14 384.38,-78.72 382.22,-85.38"/>
</a>
</g>
</g>
<!-- Node6 -->
<g id="Node000006" class="node">
<title>Node6</title>
<g id="a_Node000006"><a xlink:href="a00529.xhtml#adadb010b152c65dc26b08f56fa700e77" target="_top" xlink:title=" ">
<polygon fill="white" stroke="#666666" points="477.62,-67.88 374.62,-67.88 374.62,-37.38 477.62,-37.38 477.62,-67.88"/>
<text text-anchor="start" x="382.62" y="-54.38" font-family="Helvetica,sans-Serif" font-size="10.00">CPitchFromBlockIf::</text>
<text text-anchor="middle" x="426.12" y="-43.12" font-family="Helvetica,sans-Serif" font-size="10.00">destroy</text>
</a>
</g>
</g>
<!-- Node3&#45;&gt;Node6 -->
<g id="edge5_Node000003_Node000006" class="edge">
<title>Node3&#45;&gt;Node6</title>
<g id="a_edge5_Node000003_Node000006"><a xlink:title=" ">
<path fill="none" stroke="#63b8ff" d="M333.46,-52.62C342.85,-52.62 353.05,-52.62 363.11,-52.62"/>
<polygon fill="#63b8ff" stroke="#63b8ff" points="362.86,-56.13 372.86,-52.63 362.86,-49.13 362.86,-56.13"/>
</a>
</g>
</g>
<!-- Node8 -->
<g id="Node000008" class="node">
<title>Node8</title>
<g id="a_Node000008"><a xlink:href="a00505.xhtml#aa86bdb0c663d4d52f2765793756f8737" target="_top" xlink:title=" ">
<polygon fill="white" stroke="#666666" points="462.25,-19.25 390,-19.25 390,0 462.25,0 462.25,-19.25"/>
<text text-anchor="middle" x="426.12" y="-5.75" font-family="Helvetica,sans-Serif" font-size="10.00">CVector::free</text>
</a>
</g>
</g>
<!-- Node3&#45;&gt;Node8 -->
<g id="edge7_Node000003_Node000008" class="edge">
<title>Node3&#45;&gt;Node8</title>
<g id="a_edge7_Node000003_Node000008"><a xlink:title=" ">
<path fill="none" stroke="#63b8ff" d="M323.69,-42.54C341.47,-36.77 364,-29.46 383.32,-23.19"/>
<polygon fill="#63b8ff" stroke="#63b8ff" points="384.38,-26.53 392.81,-20.11 382.22,-19.87 384.38,-26.53"/>
</a>
</g>
</g>
<!-- Node5 -->
<g id="Node000005" class="node">
<title>Node5</title>
<g id="a_Node000005"><a xlink:href="a00545.xhtml#a25b4acfbc219a671933702aaf97229fd" target="_top" xlink:title=" ">
<polygon fill="white" stroke="#666666" points="664.25,-105.25 519.25,-105.25 519.25,-86 664.25,-86 664.25,-105.25"/>
<text text-anchor="middle" x="591.75" y="-91.75" font-family="Helvetica,sans-Serif" font-size="10.00">CBlockAudioIf::CBlockAudioIf</text>
</a>
</g>
</g>
<!-- Node4&#45;&gt;Node5 -->
<g id="edge4_Node000004_Node000005" class="edge">
<title>Node4&#45;&gt;Node5</title>
<g id="a_edge4_Node000004_Node000005"><a xlink:title=" ">
<path fill="none" stroke="#63b8ff" d="M483.44,-95.62C491.23,-95.62 499.36,-95.62 507.51,-95.62"/>
<polygon fill="#63b8ff" stroke="#63b8ff" points="507.51,-99.13 517.51,-95.63 507.51,-92.13 507.51,-99.13"/>
</a>
</g>
</g>
<!-- Node7 -->
<g id="Node000007" class="node">
<title>Node7</title>
<g id="a_Node000007"><a xlink:href="a00529.xhtml#a8d454d951956c464b883888196a0fe23" target="_top" xlink:title=" ">
<polygon fill="white" stroke="#666666" points="643.25,-67.88 540.25,-67.88 540.25,-37.38 643.25,-37.38 643.25,-67.88"/>
<text text-anchor="start" x="548.25" y="-54.38" font-family="Helvetica,sans-Serif" font-size="10.00">CPitchFromBlockIf::</text>
<text text-anchor="middle" x="591.75" y="-43.12" font-family="Helvetica,sans-Serif" font-size="10.00">CPitchFromBlockIf</text>
</a>
</g>
</g>
<!-- Node6&#45;&gt;Node7 -->
<g id="edge6_Node000006_Node000007" class="edge">
<title>Node6&#45;&gt;Node7</title>
<g id="a_edge6_Node000006_Node000007"><a xlink:title=" ">
<path fill="none" stroke="#63b8ff" d="M478,-52.62C494.01,-52.62 511.87,-52.62 528.57,-52.62"/>
<polygon fill="#63b8ff" stroke="#63b8ff" points="528.39,-56.13 538.39,-52.63 528.39,-49.13 528.39,-56.13"/>
</a>
</g>
</g>
</g>
</svg>
