<?xml version="1.0" encoding="UTF-8" standalone="no"?>
<!DOCTYPE svg PUBLIC "-//W3C//DTD SVG 1.1//EN"
 "http://www.w3.org/Graphics/SVG/1.1/DTD/svg11.dtd">
<!-- Generated by graphviz version 6.0.1 (20220911.1526)
 -->
<!-- Title: CMovingAverage::CMovingAverage Pages: 1 -->
<svg width="623pt" height="64pt"
 viewBox="0.00 0.00 623.00 64.00" xmlns="http://www.w3.org/2000/svg" xmlns:xlink="http://www.w3.org/1999/xlink">
<g id="graph0" class="graph" transform="scale(1 1) rotate(0) translate(4 60)">
<title>CMovingAverage::CMovingAverage</title>
<!-- Node1 -->
<g id="node1" class="node">
<title>Node1</title>
<g id="a_node1"><a xlink:title=" ">
<polygon fill="#999999" stroke="#666666" points="170,-37 0,-37 0,-18 170,-18 170,-37"/>
<text text-anchor="middle" x="85" y="-25" font-family="Helvetica,sans-Serif" font-size="10.00">CMovingAverage::CMovingAverage</text>
</a>
</g>
</g>
<!-- Node2 -->
<g id="node2" class="node">
<title>Node2</title>
<g id="a_node2"><a xlink:href="a00586.xhtml#a9681799055b5a4622d25a70901a65af3" target="_top" xlink:title=" ">
<polygon fill="white" stroke="#666666" points="323,-37 206,-37 206,-18 323,-18 323,-37"/>
<text text-anchor="middle" x="264.5" y="-25" font-family="Helvetica,sans-Serif" font-size="10.00">CMovingAverage::reset</text>
</a>
</g>
</g>
<!-- Node1&#45;&gt;Node2 -->
<g id="edge1" class="edge">
<title>Node1&#45;&gt;Node2</title>
<path fill="none" stroke="#63b8ff" d="M170.07,-27.5C178.67,-27.5 187.33,-27.5 195.72,-27.5"/>
<polygon fill="#63b8ff" stroke="#63b8ff" points="195.81,-31 205.81,-27.5 195.81,-24 195.81,-31"/>
</g>
<!-- Node3 -->
<g id="node3" class="node">
<title>Node3</title>
<g id="a_node3"><a xlink:href="a00490.xhtml#a716fb4acc03355a73cc7d96f3ceb2995" target="_top" xlink:title=" ">
<polygon fill="white" stroke="#666666" points="467.5,-56 372.5,-56 372.5,-37 467.5,-37 467.5,-56"/>
<text text-anchor="middle" x="420" y="-44" font-family="Helvetica,sans-Serif" font-size="10.00">CRingBuffer::reset</text>
</a>
</g>
</g>
<!-- Node2&#45;&gt;Node3 -->
<g id="edge2" class="edge">
<title>Node2&#45;&gt;Node3</title>
<path fill="none" stroke="#63b8ff" d="M323.09,-34.63C335.85,-36.21 349.36,-37.88 362.08,-39.45"/>
<polygon fill="#63b8ff" stroke="#63b8ff" points="361.74,-42.94 372.09,-40.69 362.6,-35.99 361.74,-42.94"/>
</g>
<!-- Node4 -->
<g id="node4" class="node">
<title>Node4</title>
<g id="a_node4"><a xlink:href="a00490.xhtml#af265a6322c4b1584c880def00d31e663" target="_top" xlink:title=" ">
<polygon fill="white" stroke="#666666" points="481,-19 359,-19 359,0 481,0 481,-19"/>
<text text-anchor="middle" x="420" y="-7" font-family="Helvetica,sans-Serif" font-size="10.00">CRingBuffer::setReadIdx</text>
</a>
</g>
</g>
<!-- Node2&#45;&gt;Node4 -->
<g id="edge3" class="edge">
<title>Node2&#45;&gt;Node4</title>
<path fill="none" stroke="#63b8ff" d="M323.09,-20.75C331.47,-19.76 340.17,-18.74 348.77,-17.74"/>
<polygon fill="#63b8ff" stroke="#63b8ff" points="349.25,-21.2 358.78,-16.56 348.44,-14.25 349.25,-21.2"/>
</g>
<!-- Node5 -->
<g id="node5" class="node">
<title>Node5</title>
<g id="a_node5"><a xlink:href="a00490.xhtml#a67eddecd2a880c52c80093774bc37c24" target="_top" xlink:title=" ">
<polygon fill="white" stroke="#666666" points="615,-19 517,-19 517,0 615,0 615,-19"/>
<text text-anchor="middle" x="566" y="-7" font-family="Helvetica,sans-Serif" font-size="10.00">CRingBuffer::incIdx</text>
</a>
</g>
</g>
<!-- Node4&#45;&gt;Node5 -->
<g id="edge4" class="edge">
<title>Node4&#45;&gt;Node5</title>
<path fill="none" stroke="#63b8ff" d="M481.23,-9.5C489.67,-9.5 498.33,-9.5 506.73,-9.5"/>
<polygon fill="#63b8ff" stroke="#63b8ff" points="506.82,-13 516.82,-9.5 506.82,-6 506.82,-13"/>
</g>
</g>
</svg>
