<?xml version="1.0" encoding="UTF-8" standalone="no"?>
<!DOCTYPE svg PUBLIC "-//W3C//DTD SVG 1.1//EN"
 "http://www.w3.org/Graphics/SVG/1.1/DTD/svg11.dtd">
<!-- Generated by graphviz version 4.0.0 (20220602.1335)
 -->
<!-- Title: CCcf::reset Pages: 1 -->
<svg width="442pt" height="215pt"
 viewBox="0.00 0.00 442.00 215.00" xmlns="http://www.w3.org/2000/svg" xmlns:xlink="http://www.w3.org/1999/xlink">
<g id="graph0" class="graph" transform="scale(1 1) rotate(0) translate(4 211)">
<title>CCcf::reset</title>
<polygon fill="white" stroke="transparent" points="-4,4 -4,-211 438,-211 438,4 -4,4"/>
<!-- Node1 -->
<g id="node1" class="node">
<title>Node1</title>
<g id="a_node1"><a xlink:title=" ">
<polygon fill="#bfbfbf" stroke="black" points="369,-75 369,-94 434,-94 434,-75 369,-75"/>
<text text-anchor="middle" x="401.5" y="-82" font-family="Helvetica,sans-Serif" font-size="10.00">CCcf::reset</text>
</a>
</g>
</g>
<!-- Node2 -->
<g id="node2" class="node">
<title>Node2</title>
<g id="a_node2"><a xlink:href="a00533.xhtml#af683b1b5e37ca2039424af02f4bfb3c5" target="_top" xlink:title=" ">
<polygon fill="white" stroke="black" points="270,-94 270,-113 326,-113 326,-94 270,-94"/>
<text text-anchor="middle" x="298" y="-101" font-family="Helvetica,sans-Serif" font-size="10.00">CCcf::init</text>
</a>
</g>
</g>
<!-- Node1&#45;&gt;Node2 -->
<g id="edge1" class="edge">
<title>Node1&#45;&gt;Node2</title>
<path fill="none" stroke="midnightblue" d="M358.99,-92.27C347.89,-94.35 336.18,-96.54 326.09,-98.43"/>
<polygon fill="midnightblue" stroke="midnightblue" points="359.76,-95.69 368.94,-90.41 358.47,-88.81 359.76,-95.69"/>
</g>
<!-- Node9 -->
<g id="node9" class="node">
<title>Node9</title>
<g id="a_node9"><a xlink:href="a00533.xhtml#add051d7bf13a84ed1fa5e18627e5e2b9" target="_top" xlink:title=" ">
<polygon fill="white" stroke="black" points="263,-56 263,-75 333,-75 333,-56 263,-56"/>
<text text-anchor="middle" x="298" y="-63" font-family="Helvetica,sans-Serif" font-size="10.00">CCcf::~CCcf</text>
</a>
</g>
</g>
<!-- Node1&#45;&gt;Node9 -->
<g id="edge8" class="edge">
<title>Node1&#45;&gt;Node9</title>
<path fill="none" stroke="midnightblue" d="M359.02,-76.74C350.37,-75.12 341.35,-73.43 333.01,-71.87"/>
<polygon fill="midnightblue" stroke="midnightblue" points="358.47,-80.19 368.94,-78.59 359.76,-73.31 358.47,-80.19"/>
</g>
<!-- Node3 -->
<g id="node3" class="node">
<title>Node3</title>
<g id="a_node3"><a xlink:href="a00341.xhtml#a541f40820696e37cc302fc780b8313ee" target="_top" xlink:title=" ">
<polygon fill="white" stroke="black" points="92.5,-176.5 92.5,-206.5 208.5,-206.5 208.5,-176.5 92.5,-176.5"/>
<text text-anchor="start" x="100.5" y="-194.5" font-family="Helvetica,sans-Serif" font-size="10.00">CFeatureTimeMaxAcf</text>
<text text-anchor="middle" x="150.5" y="-183.5" font-family="Helvetica,sans-Serif" font-size="10.00">::CFeatureTimeMaxAcf</text>
</a>
</g>
</g>
<!-- Node2&#45;&gt;Node3 -->
<g id="edge2" class="edge">
<title>Node2&#45;&gt;Node3</title>
<path fill="none" stroke="midnightblue" d="M281.52,-120.96C268.27,-134.98 248.04,-154.28 227,-166.5 220.55,-170.25 213.47,-173.52 206.3,-176.36"/>
<polygon fill="midnightblue" stroke="midnightblue" points="284.28,-123.14 288.47,-113.41 279.13,-118.4 284.28,-123.14"/>
</g>
<!-- Node4 -->
<g id="node4" class="node">
<title>Node4</title>
<g id="a_node4"><a xlink:href="a00441.xhtml#a58a9a3d685f448ced2e843a60028e472" target="_top" xlink:title=" ">
<polygon fill="white" stroke="black" points="78,-138 78,-157 223,-157 223,-138 78,-138"/>
<text text-anchor="middle" x="150.5" y="-145" font-family="Helvetica,sans-Serif" font-size="10.00">CBeatHistoIf::compBeatHisto</text>
</a>
</g>
</g>
<!-- Node2&#45;&gt;Node4 -->
<g id="edge3" class="edge">
<title>Node2&#45;&gt;Node4</title>
<path fill="none" stroke="midnightblue" d="M262.46,-116.58C251.22,-120.64 238.65,-124.96 227,-128.5 215.88,-131.88 203.71,-135.13 192.45,-137.96"/>
<polygon fill="midnightblue" stroke="midnightblue" points="263.74,-119.84 271.92,-113.12 261.33,-113.27 263.74,-119.84"/>
</g>
<!-- Node6 -->
<g id="node6" class="node">
<title>Node6</title>
<g id="a_node6"><a xlink:href="a00369.xhtml#ad7f64995a5d0ca75139e400172a9ab42" target="_top" xlink:title=" ">
<polygon fill="white" stroke="black" points="100,-88.5 100,-118.5 201,-118.5 201,-88.5 100,-88.5"/>
<text text-anchor="start" x="108" y="-106.5" font-family="Helvetica,sans-Serif" font-size="10.00">CPitchSpectralAcf::</text>
<text text-anchor="middle" x="150.5" y="-95.5" font-family="Helvetica,sans-Serif" font-size="10.00">CPitchSpectralAcf</text>
</a>
</g>
</g>
<!-- Node2&#45;&gt;Node6 -->
<g id="edge5" class="edge">
<title>Node2&#45;&gt;Node6</title>
<path fill="none" stroke="midnightblue" d="M259.93,-103.5C242.04,-103.5 220.33,-103.5 201.05,-103.5"/>
<polygon fill="midnightblue" stroke="midnightblue" points="259.97,-107 269.97,-103.5 259.97,-100 259.97,-107"/>
</g>
<!-- Node7 -->
<g id="node7" class="node">
<title>Node7</title>
<g id="a_node7"><a xlink:href="a00377.xhtml#acd4920798f76cfa56accd9ba28dad6ae" target="_top" xlink:title=" ">
<polygon fill="white" stroke="black" points="74,-50 74,-69 227,-69 227,-50 74,-50"/>
<text text-anchor="middle" x="150.5" y="-57" font-family="Helvetica,sans-Serif" font-size="10.00">CPitchTimeAcf::CPitchTimeAcf</text>
</a>
</g>
</g>
<!-- Node2&#45;&gt;Node7 -->
<g id="edge6" class="edge">
<title>Node2&#45;&gt;Node7</title>
<path fill="none" stroke="midnightblue" d="M260.95,-90.59C250.09,-86.85 238.11,-82.87 227,-79.5 214.93,-75.84 201.67,-72.2 189.67,-69.05"/>
<polygon fill="midnightblue" stroke="midnightblue" points="259.96,-93.95 270.55,-93.93 262.26,-87.34 259.96,-93.95"/>
</g>
<!-- Node8 -->
<g id="node8" class="node">
<title>Node8</title>
<g id="a_node8"><a xlink:href="a00381.xhtml#af5f08be46100a7ecbc5450f52a96c77e" target="_top" xlink:title=" ">
<polygon fill="white" stroke="black" points="97,-0.5 97,-30.5 204,-30.5 204,-0.5 97,-0.5"/>
<text text-anchor="start" x="105" y="-18.5" font-family="Helvetica,sans-Serif" font-size="10.00">CPitchTimeAuditory</text>
<text text-anchor="middle" x="150.5" y="-7.5" font-family="Helvetica,sans-Serif" font-size="10.00">::CPitchTimeAuditory</text>
</a>
</g>
</g>
<!-- Node2&#45;&gt;Node8 -->
<g id="edge7" class="edge">
<title>Node2&#45;&gt;Node8</title>
<path fill="none" stroke="midnightblue" d="M267.93,-88.27C266.21,-87.06 264.56,-85.8 263,-84.5 243.63,-68.27 247.82,-54.82 227,-40.5 220.06,-35.73 212.14,-31.81 204.1,-28.61"/>
<polygon fill="midnightblue" stroke="midnightblue" points="266.44,-91.47 276.77,-93.83 270.17,-85.54 266.44,-91.47"/>
</g>
<!-- Node5 -->
<g id="node5" class="node">
<title>Node5</title>
<g id="a_node5"><a xlink:href="a00017.xhtml#a0ddf1224851353fc92bfbff6f499fa97" target="_top" xlink:title=" ">
<polygon fill="white" stroke="black" points="0,-138 0,-157 38,-157 38,-138 0,-138"/>
<text text-anchor="middle" x="19" y="-145" font-family="Helvetica,sans-Serif" font-size="10.00">main</text>
</a>
</g>
</g>
<!-- Node4&#45;&gt;Node5 -->
<g id="edge4" class="edge">
<title>Node4&#45;&gt;Node5</title>
<path fill="none" stroke="midnightblue" d="M67.69,-147.5C56.7,-147.5 46.42,-147.5 38.24,-147.5"/>
<polygon fill="midnightblue" stroke="midnightblue" points="67.93,-151 77.93,-147.5 67.93,-144 67.93,-151"/>
</g>
</g>
</svg>
