<?xml version="1.0" encoding="UTF-8" standalone="no"?>
<!DOCTYPE svg PUBLIC "-//W3C//DTD SVG 1.1//EN"
 "http://www.w3.org/Graphics/SVG/1.1/DTD/svg11.dtd">
<!-- Generated by graphviz version 4.0.0 (20220602.1335)
 -->
<!-- Title: CSpectrogramIf::computeMagSpectrum_ Pages: 1 -->
<svg width="449pt" height="66pt"
 viewBox="0.00 0.00 449.00 66.00" xmlns="http://www.w3.org/2000/svg" xmlns:xlink="http://www.w3.org/1999/xlink">
<g id="graph0" class="graph" transform="scale(1 1) rotate(0) translate(4 62)">
<title>CSpectrogramIf::computeMagSpectrum_</title>
<polygon fill="white" stroke="transparent" points="-4,4 -4,-62 445,-62 445,4 -4,4"/>
<!-- Node1 -->
<g id="node1" class="node">
<title>Node1</title>
<g id="a_node1"><a xlink:title=" ">
<polygon fill="#bfbfbf" stroke="black" points="295,-14 295,-44 441,-44 441,-14 295,-14"/>
<text text-anchor="start" x="303" y="-32" font-family="Helvetica,sans-Serif" font-size="10.00">CSpectrogramIf::computeMag</text>
<text text-anchor="middle" x="368" y="-21" font-family="Helvetica,sans-Serif" font-size="10.00">Spectrum_</text>
</a>
</g>
</g>
<!-- Node2 -->
<g id="node2" class="node">
<title>Node2</title>
<g id="a_node2"><a xlink:href="a00517.xhtml#ae89af275cdd54029bbf7f0f25ddf7945" target="_top" xlink:title=" ">
<polygon fill="white" stroke="black" points="74,-38.5 74,-57.5 259,-57.5 259,-38.5 74,-38.5"/>
<text text-anchor="middle" x="166.5" y="-45.5" font-family="Helvetica,sans-Serif" font-size="10.00">CSpectrogramIf::compMelSpectrogram</text>
</a>
</g>
</g>
<!-- Node1&#45;&gt;Node2 -->
<g id="edge1" class="edge">
<title>Node1&#45;&gt;Node2</title>
<path fill="none" stroke="midnightblue" d="M284.79,-36.83C276.36,-37.63 267.75,-38.45 259.22,-39.26"/>
<polygon fill="midnightblue" stroke="midnightblue" points="285.35,-40.29 294.98,-35.86 284.69,-33.32 285.35,-40.29"/>
</g>
<!-- Node4 -->
<g id="node4" class="node">
<title>Node4</title>
<g id="a_node4"><a xlink:href="a00517.xhtml#ae041a770ec2b092761d9a88cc87946bb" target="_top" xlink:title=" ">
<polygon fill="white" stroke="black" points="82,-0.5 82,-19.5 251,-19.5 251,-0.5 82,-0.5"/>
<text text-anchor="middle" x="166.5" y="-7.5" font-family="Helvetica,sans-Serif" font-size="10.00">CSpectrogramIf::compSpectrogram</text>
</a>
</g>
</g>
<!-- Node1&#45;&gt;Node4 -->
<g id="edge3" class="edge">
<title>Node1&#45;&gt;Node4</title>
<path fill="none" stroke="midnightblue" d="M284.89,-21.18C273.8,-20.12 262.41,-19.04 251.29,-17.98"/>
<polygon fill="midnightblue" stroke="midnightblue" points="284.69,-24.68 294.98,-22.14 285.35,-17.71 284.69,-24.68"/>
</g>
<!-- Node3 -->
<g id="node3" class="node">
<title>Node3</title>
<g id="a_node3"><a xlink:href="a00110.xhtml#a0ddf1224851353fc92bfbff6f499fa97" target="_top" xlink:title=" ">
<polygon fill="white" stroke="black" points="0,-38.5 0,-57.5 38,-57.5 38,-38.5 0,-38.5"/>
<text text-anchor="middle" x="19" y="-45.5" font-family="Helvetica,sans-Serif" font-size="10.00">main</text>
</a>
</g>
</g>
<!-- Node2&#45;&gt;Node3 -->
<g id="edge2" class="edge">
<title>Node2&#45;&gt;Node3</title>
<path fill="none" stroke="midnightblue" d="M63.63,-48C54.14,-48 45.44,-48 38.35,-48"/>
<polygon fill="midnightblue" stroke="midnightblue" points="63.77,-51.5 73.77,-48 63.77,-44.5 63.77,-51.5"/>
</g>
<!-- Node5 -->
<g id="node5" class="node">
<title>Node5</title>
<g id="a_node5"><a xlink:href="a00014.xhtml#a0ddf1224851353fc92bfbff6f499fa97" target="_top" xlink:title=" ">
<polygon fill="white" stroke="black" points="0,-0.5 0,-19.5 38,-19.5 38,-0.5 0,-0.5"/>
<text text-anchor="middle" x="19" y="-7.5" font-family="Helvetica,sans-Serif" font-size="10.00">main</text>
</a>
</g>
</g>
<!-- Node4&#45;&gt;Node5 -->
<g id="edge4" class="edge">
<title>Node4&#45;&gt;Node5</title>
<path fill="none" stroke="midnightblue" d="M71.45,-10C58.86,-10 47.21,-10 38.19,-10"/>
<polygon fill="midnightblue" stroke="midnightblue" points="71.71,-13.5 81.71,-10 71.71,-6.5 71.71,-13.5"/>
</g>
</g>
</svg>
