<?xml version="1.0" encoding="UTF-8" standalone="no"?>
<!DOCTYPE svg PUBLIC "-//W3C//DTD SVG 1.1//EN"
 "http://www.w3.org/Graphics/SVG/1.1/DTD/svg11.dtd">
<!-- Generated by graphviz version 4.0.0 (20220602.1335)
 -->
<!-- Title: CViterbi::reset Pages: 1 -->
<svg width="668pt" height="104pt"
 viewBox="0.00 0.00 668.00 104.00" xmlns="http://www.w3.org/2000/svg" xmlns:xlink="http://www.w3.org/1999/xlink">
<g id="graph0" class="graph" transform="scale(1 1) rotate(0) translate(4 100)">
<title>CViterbi::reset</title>
<polygon fill="white" stroke="transparent" points="-4,4 -4,-100 664,-100 664,4 -4,4"/>
<!-- Node1 -->
<g id="node1" class="node">
<title>Node1</title>
<g id="a_node1"><a xlink:title=" ">
<polygon fill="#bfbfbf" stroke="black" points="583,-38.5 583,-57.5 660,-57.5 660,-38.5 583,-38.5"/>
<text text-anchor="middle" x="621.5" y="-45.5" font-family="Helvetica,sans-Serif" font-size="10.00">CViterbi::reset</text>
</a>
</g>
</g>
<!-- Node2 -->
<g id="node2" class="node">
<title>Node2</title>
<g id="a_node2"><a xlink:href="a00581.xhtml#ab172f2f3df6d0605afd5b5e833736c5a" target="_top" xlink:title=" ">
<polygon fill="white" stroke="black" points="454.5,-76.5 454.5,-95.5 544.5,-95.5 544.5,-76.5 454.5,-76.5"/>
<text text-anchor="middle" x="499.5" y="-83.5" font-family="Helvetica,sans-Serif" font-size="10.00">CViterbi::CViterbi</text>
</a>
</g>
</g>
<!-- Node1&#45;&gt;Node2 -->
<g id="edge1" class="edge">
<title>Node1&#45;&gt;Node2</title>
<path fill="none" stroke="midnightblue" d="M580.46,-60.68C564.24,-65.81 545.83,-71.64 530.77,-76.41"/>
<polygon fill="midnightblue" stroke="midnightblue" points="581.74,-63.94 590.22,-57.59 579.63,-57.27 581.74,-63.94"/>
</g>
<!-- Node3 -->
<g id="node3" class="node">
<title>Node3</title>
<g id="a_node3"><a xlink:href="a00581.xhtml#a650535a050fd47b41632c2fc43e19a8d" target="_top" xlink:title=" ">
<polygon fill="white" stroke="black" points="465.5,-38.5 465.5,-57.5 533.5,-57.5 533.5,-38.5 465.5,-38.5"/>
<text text-anchor="middle" x="499.5" y="-45.5" font-family="Helvetica,sans-Serif" font-size="10.00">CViterbi::init</text>
</a>
</g>
</g>
<!-- Node1&#45;&gt;Node3 -->
<g id="edge2" class="edge">
<title>Node1&#45;&gt;Node3</title>
<path fill="none" stroke="midnightblue" d="M572.58,-48C559.49,-48 545.6,-48 533.54,-48"/>
<polygon fill="midnightblue" stroke="midnightblue" points="572.86,-51.5 582.86,-48 572.86,-44.5 572.86,-51.5"/>
</g>
<!-- Node8 -->
<g id="node8" class="node">
<title>Node8</title>
<g id="a_node8"><a xlink:href="a00581.xhtml#a2c69d34fe3a52ead4cb040e1eb8a724c" target="_top" xlink:title=" ">
<polygon fill="white" stroke="black" points="452,-0.5 452,-19.5 547,-19.5 547,-0.5 452,-0.5"/>
<text text-anchor="middle" x="499.5" y="-7.5" font-family="Helvetica,sans-Serif" font-size="10.00">CViterbi::~CViterbi</text>
</a>
</g>
</g>
<!-- Node1&#45;&gt;Node8 -->
<g id="edge7" class="edge">
<title>Node1&#45;&gt;Node8</title>
<path fill="none" stroke="midnightblue" d="M580.46,-35.32C564.24,-30.19 545.83,-24.36 530.77,-19.59"/>
<polygon fill="midnightblue" stroke="midnightblue" points="579.63,-38.73 590.22,-38.41 581.74,-32.06 579.63,-38.73"/>
</g>
<!-- Node4 -->
<g id="node4" class="node">
<title>Node4</title>
<g id="a_node4"><a xlink:href="a00433.xhtml#a2dc9b2b2e4912e45835c5727d550aee7" target="_top" xlink:title=" ">
<polygon fill="white" stroke="black" points="311,-38.5 311,-57.5 416,-57.5 416,-38.5 311,-38.5"/>
<text text-anchor="middle" x="363.5" y="-45.5" font-family="Helvetica,sans-Serif" font-size="10.00">CChordIf::initViterbi_</text>
</a>
</g>
</g>
<!-- Node3&#45;&gt;Node4 -->
<g id="edge3" class="edge">
<title>Node3&#45;&gt;Node4</title>
<path fill="none" stroke="midnightblue" d="M455.22,-48C442.73,-48 428.97,-48 416.02,-48"/>
<polygon fill="midnightblue" stroke="midnightblue" points="455.38,-51.5 465.38,-48 455.38,-44.5 455.38,-51.5"/>
</g>
<!-- Node5 -->
<g id="node5" class="node">
<title>Node5</title>
<g id="a_node5"><a xlink:href="a00433.xhtml#ad48a5bd574f16b7491b70efb9998935f" target="_top" xlink:title="init configuration">
<polygon fill="white" stroke="black" points="198,-38.5 198,-57.5 275,-57.5 275,-38.5 198,-38.5"/>
<text text-anchor="middle" x="236.5" y="-45.5" font-family="Helvetica,sans-Serif" font-size="10.00">CChordIf::init_</text>
</a>
</g>
</g>
<!-- Node4&#45;&gt;Node5 -->
<g id="edge4" class="edge">
<title>Node4&#45;&gt;Node5</title>
<path fill="none" stroke="midnightblue" d="M300.75,-48C292.02,-48 283.28,-48 275.2,-48"/>
<polygon fill="midnightblue" stroke="midnightblue" points="300.94,-51.5 310.94,-48 300.94,-44.5 300.94,-51.5"/>
</g>
<!-- Node6 -->
<g id="node6" class="node">
<title>Node6</title>
<g id="a_node6"><a xlink:href="a00289.xhtml#a6df404d2eb3d4c8f9dc2071930fc9e7e" target="_top" xlink:title=" ">
<polygon fill="white" stroke="black" points="0,-60.5 0,-79.5 162,-79.5 162,-60.5 0,-60.5"/>
<text text-anchor="middle" x="81" y="-67.5" font-family="Helvetica,sans-Serif" font-size="10.00">CChordFromFile::CChordFromFile</text>
</a>
</g>
</g>
<!-- Node5&#45;&gt;Node6 -->
<g id="edge5" class="edge">
<title>Node5&#45;&gt;Node6</title>
<path fill="none" stroke="midnightblue" d="M187.81,-54.83C175.37,-56.62 161.73,-58.57 148.5,-60.47"/>
<polygon fill="midnightblue" stroke="midnightblue" points="188.55,-58.27 197.95,-53.38 187.55,-51.34 188.55,-58.27"/>
</g>
<!-- Node7 -->
<g id="node7" class="node">
<title>Node7</title>
<g id="a_node7"><a xlink:href="a00293.xhtml#ac9c41c2ddc441df7e0ae80c25971c260" target="_top" xlink:title=" ">
<polygon fill="white" stroke="black" points="12.5,-11 12.5,-41 149.5,-41 149.5,-11 12.5,-11"/>
<text text-anchor="start" x="20.5" y="-29" font-family="Helvetica,sans-Serif" font-size="10.00">CChordFromVector::CChord</text>
<text text-anchor="middle" x="81" y="-18" font-family="Helvetica,sans-Serif" font-size="10.00">FromVector</text>
</a>
</g>
</g>
<!-- Node5&#45;&gt;Node7 -->
<g id="edge6" class="edge">
<title>Node5&#45;&gt;Node7</title>
<path fill="none" stroke="midnightblue" d="M187.7,-41.15C175.66,-39.42 162.51,-37.54 149.71,-35.7"/>
<polygon fill="midnightblue" stroke="midnightblue" points="187.55,-44.66 197.95,-42.62 188.55,-37.73 187.55,-44.66"/>
</g>
</g>
</svg>
