<?xml version="1.0" encoding="UTF-8" standalone="no"?>
<!DOCTYPE svg PUBLIC "-//W3C//DTD SVG 1.1//EN"
 "http://www.w3.org/Graphics/SVG/1.1/DTD/svg11.dtd">
<!-- Generated by graphviz version 6.0.1 (20220911.1526)
 -->
<!-- Title: CCcf::reset Pages: 1 -->
<svg width="442pt" height="210pt"
 viewBox="0.00 0.00 442.00 210.00" xmlns="http://www.w3.org/2000/svg" xmlns:xlink="http://www.w3.org/1999/xlink">
<g id="graph0" class="graph" transform="scale(1 1) rotate(0) translate(4 206)">
<title>CCcf::reset</title>
<!-- Node1 -->
<g id="node1" class="node">
<title>Node1</title>
<g id="a_node1"><a xlink:title=" ">
<polygon fill="#999999" stroke="#666666" points="434,-91.5 369,-91.5 369,-72.5 434,-72.5 434,-91.5"/>
<text text-anchor="middle" x="401.5" y="-79.5" font-family="Helvetica,sans-Serif" font-size="10.00">CCcf::reset</text>
</a>
</g>
</g>
<!-- Node2 -->
<g id="node2" class="node">
<title>Node2</title>
<g id="a_node2"><a xlink:href="a00546.xhtml#af683b1b5e37ca2039424af02f4bfb3c5" target="_top" xlink:title=" ">
<polygon fill="white" stroke="#666666" points="326,-110.5 270,-110.5 270,-91.5 326,-91.5 326,-110.5"/>
<text text-anchor="middle" x="298" y="-98.5" font-family="Helvetica,sans-Serif" font-size="10.00">CCcf::init</text>
</a>
</g>
</g>
<!-- Node1&#45;&gt;Node2 -->
<g id="edge1" class="edge">
<title>Node1&#45;&gt;Node2</title>
<path fill="none" stroke="#63b8ff" d="M358.99,-89.77C347.89,-91.85 336.18,-94.04 326.09,-95.93"/>
<polygon fill="#63b8ff" stroke="#63b8ff" points="359.76,-93.19 368.94,-87.91 358.47,-86.31 359.76,-93.19"/>
</g>
<!-- Node9 -->
<g id="node9" class="node">
<title>Node9</title>
<g id="a_node9"><a xlink:href="a00546.xhtml#add051d7bf13a84ed1fa5e18627e5e2b9" target="_top" xlink:title=" ">
<polygon fill="white" stroke="#666666" points="333,-73.5 263,-73.5 263,-54.5 333,-54.5 333,-73.5"/>
<text text-anchor="middle" x="298" y="-61.5" font-family="Helvetica,sans-Serif" font-size="10.00">CCcf::~CCcf</text>
</a>
</g>
</g>
<!-- Node1&#45;&gt;Node9 -->
<g id="edge8" class="edge">
<title>Node1&#45;&gt;Node9</title>
<path fill="none" stroke="#63b8ff" d="M359.02,-74.64C350.37,-73.11 341.35,-71.51 333.01,-70.03"/>
<polygon fill="#63b8ff" stroke="#63b8ff" points="358.48,-78.1 368.94,-76.4 359.71,-71.21 358.48,-78.1"/>
</g>
<!-- Node3 -->
<g id="node3" class="node">
<title>Node3</title>
<g id="a_node3"><a xlink:href="a00350.xhtml#a541f40820696e37cc302fc780b8313ee" target="_top" xlink:title=" ">
<polygon fill="white" stroke="#666666" points="208.5,-202 92.5,-202 92.5,-172 208.5,-172 208.5,-202"/>
<text text-anchor="start" x="100.5" y="-190" font-family="Helvetica,sans-Serif" font-size="10.00">CFeatureTimeMaxAcf</text>
<text text-anchor="middle" x="150.5" y="-179" font-family="Helvetica,sans-Serif" font-size="10.00">::CFeatureTimeMaxAcf</text>
</a>
</g>
</g>
<!-- Node2&#45;&gt;Node3 -->
<g id="edge2" class="edge">
<title>Node2&#45;&gt;Node3</title>
<path fill="none" stroke="#63b8ff" d="M281.51,-118.24C268.24,-132.07 248.01,-151.07 227,-163 221.02,-166.4 214.5,-169.38 207.87,-171.98"/>
<polygon fill="#63b8ff" stroke="#63b8ff" points="284.2,-120.48 288.46,-110.79 279.08,-115.71 284.2,-120.48"/>
</g>
<!-- Node4 -->
<g id="node4" class="node">
<title>Node4</title>
<g id="a_node4"><a xlink:href="a00450.xhtml#a58a9a3d685f448ced2e843a60028e472" target="_top" xlink:title=" ">
<polygon fill="white" stroke="#666666" points="223,-153.5 78,-153.5 78,-134.5 223,-134.5 223,-153.5"/>
<text text-anchor="middle" x="150.5" y="-141.5" font-family="Helvetica,sans-Serif" font-size="10.00">CBeatHistoIf::compBeatHisto</text>
</a>
</g>
</g>
<!-- Node2&#45;&gt;Node4 -->
<g id="edge3" class="edge">
<title>Node2&#45;&gt;Node4</title>
<path fill="none" stroke="#63b8ff" d="M261.25,-113.9C250.32,-117.67 238.22,-121.67 227,-125 215.73,-128.34 203.4,-131.61 192.03,-134.46"/>
<polygon fill="#63b8ff" stroke="#63b8ff" points="262.62,-117.13 270.91,-110.53 260.31,-110.52 262.62,-117.13"/>
</g>
<!-- Node6 -->
<g id="node6" class="node">
<title>Node6</title>
<g id="a_node6"><a xlink:href="a00378.xhtml#ad7f64995a5d0ca75139e400172a9ab42" target="_top" xlink:title=" ">
<polygon fill="white" stroke="#666666" points="201,-116 100,-116 100,-86 201,-86 201,-116"/>
<text text-anchor="start" x="108" y="-104" font-family="Helvetica,sans-Serif" font-size="10.00">CPitchSpectralAcf::</text>
<text text-anchor="middle" x="150.5" y="-93" font-family="Helvetica,sans-Serif" font-size="10.00">CPitchSpectralAcf</text>
</a>
</g>
</g>
<!-- Node2&#45;&gt;Node6 -->
<g id="edge5" class="edge">
<title>Node2&#45;&gt;Node6</title>
<path fill="none" stroke="#63b8ff" d="M259.93,-101C242.04,-101 220.33,-101 201.05,-101"/>
<polygon fill="#63b8ff" stroke="#63b8ff" points="259.97,-104.5 269.97,-101 259.97,-97.5 259.97,-104.5"/>
</g>
<!-- Node7 -->
<g id="node7" class="node">
<title>Node7</title>
<g id="a_node7"><a xlink:href="a00386.xhtml#acd4920798f76cfa56accd9ba28dad6ae" target="_top" xlink:title=" ">
<polygon fill="white" stroke="#666666" points="227,-67.5 74,-67.5 74,-48.5 227,-48.5 227,-67.5"/>
<text text-anchor="middle" x="150.5" y="-55.5" font-family="Helvetica,sans-Serif" font-size="10.00">CPitchTimeAcf::CPitchTimeAcf</text>
</a>
</g>
</g>
<!-- Node2&#45;&gt;Node7 -->
<g id="edge6" class="edge">
<title>Node2&#45;&gt;Node7</title>
<path fill="none" stroke="#63b8ff" d="M261.25,-88.1C250.32,-84.33 238.22,-80.33 227,-77 215.73,-73.66 203.4,-70.39 192.03,-67.54"/>
<polygon fill="#63b8ff" stroke="#63b8ff" points="260.31,-91.48 270.91,-91.47 262.62,-84.87 260.31,-91.48"/>
</g>
<!-- Node8 -->
<g id="node8" class="node">
<title>Node8</title>
<g id="a_node8"><a xlink:href="a00390.xhtml#af5f08be46100a7ecbc5450f52a96c77e" target="_top" xlink:title=" ">
<polygon fill="white" stroke="#666666" points="204,-30 97,-30 97,0 204,0 204,-30"/>
<text text-anchor="start" x="105" y="-18" font-family="Helvetica,sans-Serif" font-size="10.00">CPitchTimeAuditory</text>
<text text-anchor="middle" x="150.5" y="-7" font-family="Helvetica,sans-Serif" font-size="10.00">::CPitchTimeAuditory</text>
</a>
</g>
</g>
<!-- Node2&#45;&gt;Node8 -->
<g id="edge7" class="edge">
<title>Node2&#45;&gt;Node8</title>
<path fill="none" stroke="#63b8ff" d="M267.15,-86.1C265.71,-85.1 264.32,-84.07 263,-83 243.62,-67.32 247.62,-54.01 227,-40 220.03,-35.27 212.1,-31.37 204.06,-28.18"/>
<polygon fill="#63b8ff" stroke="#63b8ff" points="265.35,-89.1 275.71,-91.36 269.02,-83.14 265.35,-89.1"/>
</g>
<!-- Node5 -->
<g id="node5" class="node">
<title>Node5</title>
<g id="a_node5"><a xlink:href="a00011.xhtml#a0ddf1224851353fc92bfbff6f499fa97" target="_top" xlink:title=" ">
<polygon fill="white" stroke="#666666" points="38,-153.5 0,-153.5 0,-134.5 38,-134.5 38,-153.5"/>
<text text-anchor="middle" x="19" y="-141.5" font-family="Helvetica,sans-Serif" font-size="10.00">main</text>
</a>
</g>
</g>
<!-- Node4&#45;&gt;Node5 -->
<g id="edge4" class="edge">
<title>Node4&#45;&gt;Node5</title>
<path fill="none" stroke="#63b8ff" d="M67.69,-144C56.7,-144 46.42,-144 38.24,-144"/>
<polygon fill="#63b8ff" stroke="#63b8ff" points="67.93,-147.5 77.93,-144 67.93,-140.5 67.93,-147.5"/>
</g>
</g>
</svg>
