<?xml version="1.0" encoding="UTF-8" standalone="no"?>
<!DOCTYPE svg PUBLIC "-//W3C//DTD SVG 1.1//EN"
 "http://www.w3.org/Graphics/SVG/1.1/DTD/svg11.dtd">
<!-- Generated by graphviz version 4.0.0 (20220602.1335)
 -->
<!-- Title: CFingerprint::init Pages: 1 -->
<!--zoomable 1054 -->
<svg id="main" version="1.1" xmlns="http://www.w3.org/2000/svg" xmlns:xlink="http://www.w3.org/1999/xlink" xml:space="preserve" onload="init(evt)">
<style type="text/css"><![CDATA[
.edge:hover path { stroke: red; }
.edge:hover polygon { stroke: red; fill: red; }
]]></style>
<script type="text/javascript"><![CDATA[
var edges = document.getElementsByTagName('g');
if (edges && edges.length) {
  for (var i=0;i<edges.length;i++) {
    if (edges[i].id.substr(0,4)=='edge') {
      edges[i].setAttribute('class','edge');
    }
  }
}
]]></script>
        <defs>
                <circle id="rim" cx="0" cy="0" r="7"/>
                <circle id="rim2" cx="0" cy="0" r="3.5"/>
                <g id="zoomPlus">
                        <use xlink:href="#rim" fill="#404040">
                                <set attributeName="fill" to="#808080" begin="zoomplus.mouseover" end="zoomplus.mouseout"/>
                        </use>
                        <path d="M-4,0h8M0,-4v8" fill="none" stroke="white" stroke-width="1.5" pointer-events="none"/>
                </g>
                <g id="zoomMin">
                        <use xlink:href="#rim" fill="#404040">
                                <set attributeName="fill" to="#808080" begin="zoomminus.mouseover" end="zoomminus.mouseout"/>
                        </use>
                        <path d="M-4,0h8" fill="none" stroke="white" stroke-width="1.5" pointer-events="none"/>
                </g>
                <g id="dirArrow">
                        <path fill="none" stroke="white" stroke-width="1.5" d="M0,-3.0v7 M-2.5,-0.5L0,-3.0L2.5,-0.5"/>
                </g>
               <g id="resetDef">
                       <use xlink:href="#rim2" fill="#404040">
                               <set attributeName="fill" to="#808080" begin="reset.mouseover" end="reset.mouseout"/>
                       </use>
               </g>
        </defs>

<script type="text/javascript">
var viewWidth = 1147;
var viewHeight = 1054;
var sectionId = 'dynsection-10';
</script>
<script xlink:href="svgpan.js"/>
<svg id="graph" class="graph">
<g id="viewport">
<title>CFingerprint::init</title>
<polygon fill="white" stroke="transparent" points="-4,4 -4,-1050 1143,-1050 1143,4 -4,4"/>
<!-- Node1 -->
<g id="node1" class="node">
<title>Node1</title>
<g id="a_node1"><a xlink:title=" ">
<polygon fill="#bfbfbf" stroke="black" points="0,-817.5 0,-836.5 86,-836.5 86,-817.5 0,-817.5"/>
<text text-anchor="middle" x="43" y="-824.5" font-family="Helvetica,sans-Serif" font-size="10.00">CFingerprint::init</text>
</a>
</g>
</g>
<!-- Node2 -->
<g id="node2" class="node">
<title>Node2</title>
<g id="a_node2"><a xlink:href="a00508.xhtml#abaadac98b1cad18b7b568852bc951696" target="_top" xlink:title=" ">
<polygon fill="white" stroke="black" points="897.5,-703.5 897.5,-722.5 974.5,-722.5 974.5,-703.5 897.5,-703.5"/>
<text text-anchor="middle" x="936" y="-710.5" font-family="Helvetica,sans-Serif" font-size="10.00">CVector::alloc</text>
</a>
</g>
</g>
<!-- Node1&#45;&gt;Node2 -->
<g id="edge1" class="edge">
<title>Node1&#45;&gt;Node2</title>
<path fill="none" stroke="midnightblue" d="M86.35,-831.5C142.95,-837.12 246.4,-846 335,-846 335,-846 335,-846 650,-846 742.58,-846 774.99,-855.59 855,-809 887.17,-790.27 912.16,-753.51 925.14,-731.31"/>
<polygon fill="midnightblue" stroke="midnightblue" points="928.23,-732.95 930.1,-722.52 922.14,-729.51 928.23,-732.95"/>
</g>
<!-- Node4 -->
<g id="node4" class="node">
<title>Node4</title>
<g id="a_node4"><a xlink:href="a00612.xhtml#a1fa6003e640ba66531236277eddc5158" target="_top" xlink:title=" ">
<polygon fill="white" stroke="black" points="264,-798.5 264,-817.5 408,-817.5 408,-798.5 264,-798.5"/>
<text text-anchor="middle" x="336" y="-805.5" font-family="Helvetica,sans-Serif" font-size="10.00">CResample::getOutputLength</text>
</a>
</g>
</g>
<!-- Node1&#45;&gt;Node4 -->
<g id="edge3" class="edge">
<title>Node1&#45;&gt;Node4</title>
<path fill="none" stroke="midnightblue" d="M86,-824.26C129.71,-821.4 199.26,-816.86 253.76,-813.3"/>
<polygon fill="midnightblue" stroke="midnightblue" points="254,-816.8 263.75,-812.65 253.55,-809.81 254,-816.8"/>
</g>
<!-- Node5 -->
<g id="node5" class="node">
<title>Node5</title>
<g id="a_node5"><a xlink:href="a00560.xhtml#a8a32af7f8df719a995e85273800d028f" target="_top" xlink:title=" ">
<polygon fill="white" stroke="black" points="290,-912.5 290,-931.5 382,-931.5 382,-912.5 290,-912.5"/>
<text text-anchor="middle" x="336" y="-919.5" font-family="Helvetica,sans-Serif" font-size="10.00">CFingerprint::init_</text>
</a>
</g>
</g>
<!-- Node1&#45;&gt;Node5 -->
<g id="edge4" class="edge">
<title>Node1&#45;&gt;Node5</title>
<path fill="none" stroke="midnightblue" d="M64.92,-836.64C80.48,-843.61 102.33,-853 122,-860 178.05,-879.94 244.01,-898.39 287.51,-909.89"/>
<polygon fill="midnightblue" stroke="midnightblue" points="286.69,-913.29 297.25,-912.44 288.47,-906.52 286.69,-913.29"/>
</g>
<!-- Node16 -->
<g id="node16" class="node">
<title>Node16</title>
<g id="a_node16"><a xlink:href="a00612.xhtml#a040a6674ec0ff9171d6b4cb4b8436cb2" target="_top" xlink:title=" ">
<polygon fill="white" stroke="black" points="122,-361.5 122,-380.5 228,-380.5 228,-361.5 122,-361.5"/>
<text text-anchor="middle" x="175" y="-368.5" font-family="Helvetica,sans-Serif" font-size="10.00">CResample::process</text>
</a>
</g>
</g>
<!-- Node1&#45;&gt;Node16 -->
<g id="edge17" class="edge">
<title>Node1&#45;&gt;Node16</title>
<path fill="none" stroke="midnightblue" d="M46.72,-817.48C62.84,-760.92 146.06,-469.01 168.45,-390.48"/>
<polygon fill="midnightblue" stroke="midnightblue" points="171.81,-391.43 171.19,-380.86 165.08,-389.52 171.81,-391.43"/>
</g>
<!-- Node3 -->
<g id="node3" class="node">
<title>Node3</title>
<g id="a_node3"><a xlink:href="a00508.xhtml#a6dbb3f9f480568b60f7fe50090d20003" target="_top" xlink:title=" ">
<polygon fill="white" stroke="black" points="1033.5,-190.5 1033.5,-209.5 1122.5,-209.5 1122.5,-190.5 1033.5,-190.5"/>
<text text-anchor="middle" x="1078" y="-197.5" font-family="Helvetica,sans-Serif" font-size="10.00">CVector::setZero</text>
</a>
</g>
</g>
<!-- Node2&#45;&gt;Node3 -->
<g id="edge2" class="edge">
<title>Node2&#45;&gt;Node3</title>
<path fill="none" stroke="midnightblue" d="M944.03,-703.18C953.74,-689.16 971.17,-662.3 981,-637 1040.97,-482.61 1067.64,-282.24 1074.88,-219.59"/>
<polygon fill="midnightblue" stroke="midnightblue" points="1078.37,-219.87 1076.01,-209.54 1071.41,-219.09 1078.37,-219.87"/>
</g>
<!-- Node5&#45;&gt;Node2 -->
<g id="edge5" class="edge">
<title>Node5&#45;&gt;Node2</title>
<path fill="none" stroke="midnightblue" d="M382.18,-913.24C401.22,-909.74 423.64,-905.87 444,-903 534.93,-890.19 778.61,-910.96 855,-860 900.19,-829.85 922.04,-765.34 930.54,-732.73"/>
<polygon fill="midnightblue" stroke="midnightblue" points="934.04,-733.18 933.01,-722.64 927.24,-731.52 934.04,-733.18"/>
</g>
<!-- Node6 -->
<g id="node6" class="node">
<title>Node6</title>
<g id="a_node6"><a xlink:href="a00548.xhtml#a84f0c2bf28007ef7749ab0e90c8011d2" target="_top" xlink:title=" ">
<polygon fill="white" stroke="black" points="444,-912.5 444,-931.5 554,-931.5 554,-912.5 444,-912.5"/>
<text text-anchor="middle" x="499" y="-919.5" font-family="Helvetica,sans-Serif" font-size="10.00">CBlockAudioIf::create</text>
</a>
</g>
</g>
<!-- Node5&#45;&gt;Node6 -->
<g id="edge6" class="edge">
<title>Node5&#45;&gt;Node6</title>
<path fill="none" stroke="midnightblue" d="M382.28,-922C398.29,-922 416.63,-922 433.91,-922"/>
<polygon fill="midnightblue" stroke="midnightblue" points="433.93,-925.5 443.93,-922 433.93,-918.5 433.93,-925.5"/>
</g>
<!-- Node7 -->
<g id="node7" class="node">
<title>Node7</title>
<g id="a_node7"><a xlink:href="a00480.xhtml#a9cb162394031e8b496f7a39b51c31d20" target="_top" xlink:title=" ">
<polygon fill="white" stroke="black" points="457.5,-988.5 457.5,-1007.5 540.5,-1007.5 540.5,-988.5 457.5,-988.5"/>
<text text-anchor="middle" x="499" y="-995.5" font-family="Helvetica,sans-Serif" font-size="10.00">CFft::getLength</text>
</a>
</g>
</g>
<!-- Node5&#45;&gt;Node7 -->
<g id="edge7" class="edge">
<title>Node5&#45;&gt;Node7</title>
<path fill="none" stroke="midnightblue" d="M353.29,-931.68C373.95,-943.71 410.85,-964.44 444,-979 448.71,-981.07 453.73,-983.08 458.73,-984.97"/>
<polygon fill="midnightblue" stroke="midnightblue" points="457.67,-988.31 468.26,-988.44 460.06,-981.73 457.67,-988.31"/>
</g>
<!-- Node8 -->
<g id="node8" class="node">
<title>Node8</title>
<g id="a_node8"><a xlink:href="a00480.xhtml#adea9b0cecccfdb5a3da3218da6f683dd" target="_top" xlink:title=" ">
<polygon fill="white" stroke="black" points="472.5,-950.5 472.5,-969.5 525.5,-969.5 525.5,-950.5 472.5,-950.5"/>
<text text-anchor="middle" x="499" y="-957.5" font-family="Helvetica,sans-Serif" font-size="10.00">CFft::init</text>
</a>
</g>
</g>
<!-- Node5&#45;&gt;Node8 -->
<g id="edge8" class="edge">
<title>Node5&#45;&gt;Node8</title>
<path fill="none" stroke="midnightblue" d="M377.63,-931.59C403.83,-937.77 437.56,-945.74 462.65,-951.66"/>
<polygon fill="midnightblue" stroke="midnightblue" points="461.95,-955.09 472.49,-953.98 463.56,-948.28 461.95,-955.09"/>
</g>
<!-- Node9 -->
<g id="node9" class="node">
<title>Node9</title>
<g id="a_node9"><a xlink:href="a00480.xhtml#adf2bc81be5029515f69907765ecc2476" target="_top" xlink:title=" ">
<polygon fill="white" stroke="black" points="599,-912.5 599,-931.5 699,-931.5 699,-912.5 599,-912.5"/>
<text text-anchor="middle" x="649" y="-919.5" font-family="Helvetica,sans-Serif" font-size="10.00">CFft::allocMemory_</text>
</a>
</g>
</g>
<!-- Node8&#45;&gt;Node9 -->
<g id="edge9" class="edge">
<title>Node8&#45;&gt;Node9</title>
<path fill="none" stroke="midnightblue" d="M525.78,-953.38C546.45,-948.07 576.02,-940.48 600.89,-934.1"/>
<polygon fill="midnightblue" stroke="midnightblue" points="602.05,-937.41 610.87,-931.53 600.31,-930.63 602.05,-937.41"/>
</g>
<!-- Node10 -->
<g id="node10" class="node">
<title>Node10</title>
<g id="a_node10"><a xlink:href="a00480.xhtml#aa5fffd68919cea17741c9fe69209bce6" target="_top" xlink:title=" ">
<polygon fill="white" stroke="black" points="590.5,-1026.5 590.5,-1045.5 707.5,-1045.5 707.5,-1026.5 590.5,-1026.5"/>
<text text-anchor="middle" x="649" y="-1033.5" font-family="Helvetica,sans-Serif" font-size="10.00">CFft::computeWindow_</text>
</a>
</g>
</g>
<!-- Node8&#45;&gt;Node10 -->
<g id="edge11" class="edge">
<title>Node8&#45;&gt;Node10</title>
<path fill="none" stroke="midnightblue" d="M525.61,-966.28C534.99,-969.27 545.41,-973.43 554,-979 573.52,-991.66 570.34,-1004.55 590,-1017 593.19,-1019.02 596.61,-1020.84 600.14,-1022.49"/>
<polygon fill="midnightblue" stroke="midnightblue" points="599.07,-1025.83 609.65,-1026.43 601.75,-1019.37 599.07,-1025.83"/>
</g>
<!-- Node11 -->
<g id="node11" class="node">
<title>Node11</title>
<g id="a_node11"><a xlink:href="a00504.xhtml#a6d0e75b0bcbbb243b7141cfc0126e443" target="_top" xlink:title=" ">
<polygon fill="white" stroke="black" points="606,-988.5 606,-1007.5 692,-1007.5 692,-988.5 606,-988.5"/>
<text text-anchor="middle" x="649" y="-995.5" font-family="Helvetica,sans-Serif" font-size="10.00">CUtil::isPowOf2</text>
</a>
</g>
</g>
<!-- Node8&#45;&gt;Node11 -->
<g id="edge12" class="edge">
<title>Node8&#45;&gt;Node11</title>
<path fill="none" stroke="midnightblue" d="M525.78,-966.62C546.45,-971.93 576.02,-979.52 600.89,-985.9"/>
<polygon fill="midnightblue" stroke="midnightblue" points="600.31,-989.37 610.87,-988.47 602.05,-982.59 600.31,-989.37"/>
</g>
<!-- Node12 -->
<g id="node12" class="node">
<title>Node12</title>
<g id="a_node12"><a xlink:href="a00504.xhtml#a0fd55429d52515a9efb2fe602ce8f9ed" target="_top" xlink:title=" ">
<polygon fill="white" stroke="black" points="601,-950.5 601,-969.5 697,-969.5 697,-950.5 601,-950.5"/>
<text text-anchor="middle" x="649" y="-957.5" font-family="Helvetica,sans-Serif" font-size="10.00">CUtil::nextPowOf2</text>
</a>
</g>
</g>
<!-- Node8&#45;&gt;Node12 -->
<g id="edge13" class="edge">
<title>Node8&#45;&gt;Node12</title>
<path fill="none" stroke="midnightblue" d="M525.78,-960C543.66,-960 568.2,-960 590.6,-960"/>
<polygon fill="midnightblue" stroke="midnightblue" points="590.71,-963.5 600.71,-960 590.71,-956.5 590.71,-963.5"/>
</g>
<!-- Node13 -->
<g id="node13" class="node">
<title>Node13</title>
<g id="a_node13"><a xlink:href="a00480.xhtml#a0a0053b6ce93161553b573a16c77387a" target="_top" xlink:title=" ">
<polygon fill="white" stroke="black" points="618,-798.5 618,-817.5 680,-817.5 680,-798.5 618,-798.5"/>
<text text-anchor="middle" x="649" y="-805.5" font-family="Helvetica,sans-Serif" font-size="10.00">CFft::reset</text>
</a>
</g>
</g>
<!-- Node8&#45;&gt;Node13 -->
<g id="edge14" class="edge">
<title>Node8&#45;&gt;Node13</title>
<path fill="none" stroke="midnightblue" d="M525.51,-954.53C535.09,-951.62 545.67,-947.29 554,-941 575.47,-924.78 616.97,-859.17 636.85,-826.57"/>
<polygon fill="midnightblue" stroke="midnightblue" points="640.09,-827.97 642.28,-817.61 634.11,-824.35 640.09,-827.97"/>
</g>
<!-- Node9&#45;&gt;Node2 -->
<g id="edge10" class="edge">
<title>Node9&#45;&gt;Node2</title>
<path fill="none" stroke="midnightblue" d="M699.31,-929.18C744.26,-932.97 810.29,-931.26 855,-898 909.68,-857.32 927.47,-771.45 932.84,-732.7"/>
<polygon fill="midnightblue" stroke="midnightblue" points="936.33,-733.05 934.1,-722.7 929.38,-732.18 936.33,-733.05"/>
</g>
<!-- Node14 -->
<g id="node14" class="node">
<title>Node14</title>
<g id="a_node14"><a xlink:href="a00480.xhtml#af48c6112f4a0d28b5badd8f317f4d191" target="_top" xlink:title=" ">
<polygon fill="white" stroke="black" points="751.5,-760.5 751.5,-779.5 847.5,-779.5 847.5,-760.5 751.5,-760.5"/>
<text text-anchor="middle" x="799.5" y="-767.5" font-family="Helvetica,sans-Serif" font-size="10.00">CFft::freeMemory_</text>
</a>
</g>
</g>
<!-- Node13&#45;&gt;Node14 -->
<g id="edge15" class="edge">
<title>Node13&#45;&gt;Node14</title>
<path fill="none" stroke="midnightblue" d="M680.05,-800.31C700.52,-795.07 728.03,-788.03 751.39,-782.06"/>
<polygon fill="midnightblue" stroke="midnightblue" points="752.29,-785.44 761.11,-779.57 750.56,-778.66 752.29,-785.44"/>
</g>
<!-- Node15 -->
<g id="node15" class="node">
<title>Node15</title>
<g id="a_node15"><a xlink:href="a00508.xhtml#aa86bdb0c663d4d52f2765793756f8737" target="_top" xlink:title=" ">
<polygon fill="white" stroke="black" points="899.5,-304.5 899.5,-323.5 972.5,-323.5 972.5,-304.5 899.5,-304.5"/>
<text text-anchor="middle" x="936" y="-311.5" font-family="Helvetica,sans-Serif" font-size="10.00">CVector::free</text>
</a>
</g>
</g>
<!-- Node14&#45;&gt;Node15 -->
<g id="edge16" class="edge">
<title>Node14&#45;&gt;Node15</title>
<path fill="none" stroke="midnightblue" d="M807.45,-760.24C819,-743.56 842.16,-708.16 855,-675 903.37,-550.09 926.04,-388.97 932.77,-333.66"/>
<polygon fill="midnightblue" stroke="midnightblue" points="936.27,-333.85 933.96,-323.51 929.32,-333.03 936.27,-333.85"/>
</g>
<!-- Node16&#45;&gt;Node2 -->
<g id="edge18" class="edge">
<title>Node16&#45;&gt;Node2</title>
<path fill="none" stroke="midnightblue" d="M184.03,-380.58C230.67,-435.35 473.99,-709.03 744,-789 791.3,-803.01 809.18,-807.29 855,-789 884.2,-777.34 908.85,-749.39 922.77,-730.83"/>
<polygon fill="midnightblue" stroke="midnightblue" points="925.71,-732.74 928.72,-722.59 920.03,-728.65 925.71,-732.74"/>
</g>
<!-- Node16&#45;&gt;Node4 -->
<g id="edge57" class="edge">
<title>Node16&#45;&gt;Node4</title>
<path fill="none" stroke="midnightblue" d="M176.77,-380.6C181.47,-436.61 207.82,-720.89 264,-784 267.43,-787.85 271.49,-791.08 275.92,-793.8"/>
<polygon fill="midnightblue" stroke="midnightblue" points="274.31,-796.91 284.8,-798.41 277.53,-790.69 274.31,-796.91"/>
</g>
<!-- Node16&#45;&gt;Node15 -->
<g id="edge56" class="edge">
<title>Node16&#45;&gt;Node15</title>
<path fill="none" stroke="midnightblue" d="M188.71,-361.43C230.52,-330.94 368.56,-238 498,-238 498,-238 498,-238 650,-238 745.73,-238 853.64,-278.53 904.88,-300.4"/>
<polygon fill="midnightblue" stroke="midnightblue" points="903.49,-303.61 914.06,-304.37 906.28,-297.19 903.49,-303.61"/>
</g>
<!-- Node17 -->
<g id="node17" class="node">
<title>Node17</title>
<g id="a_node17"><a xlink:href="a00488.xhtml#a3878460603a6e6e1a64de6021b2bb73e" target="_top" xlink:title=" ">
<polygon fill="white" stroke="black" points="744,-76.5 744,-95.5 855,-95.5 855,-76.5 744,-76.5"/>
<text text-anchor="middle" x="799.5" y="-83.5" font-family="Helvetica,sans-Serif" font-size="10.00">CButterLp::calcCoeffs</text>
</a>
</g>
</g>
<!-- Node16&#45;&gt;Node17 -->
<g id="edge19" class="edge">
<title>Node16&#45;&gt;Node17</title>
<path fill="none" stroke="midnightblue" d="M177.18,-361.35C181.67,-329.16 200.76,-224.76 264,-176 403.51,-68.43 624.82,-70.06 733.68,-78.7"/>
<polygon fill="midnightblue" stroke="midnightblue" points="733.6,-82.21 743.86,-79.56 734.19,-75.23 733.6,-82.21"/>
</g>
<!-- Node23 -->
<g id="node23" class="node">
<title>Node23</title>
<g id="a_node23"><a xlink:href="a00484.xhtml#a04bf94ff97e5e270210954864025ea06" target="_top" xlink:title=" ">
<polygon fill="white" stroke="black" points="301.5,-380.5 301.5,-399.5 370.5,-399.5 370.5,-380.5 301.5,-380.5"/>
<text text-anchor="middle" x="336" y="-387.5" font-family="Helvetica,sans-Serif" font-size="10.00">CFilter::filtfilt</text>
</a>
</g>
</g>
<!-- Node16&#45;&gt;Node23 -->
<g id="edge28" class="edge">
<title>Node16&#45;&gt;Node23</title>
<path fill="none" stroke="midnightblue" d="M228.06,-377.22C248.48,-379.66 271.66,-382.43 291.2,-384.77"/>
<polygon fill="midnightblue" stroke="midnightblue" points="291,-388.27 301.35,-385.98 291.83,-381.32 291,-388.27"/>
</g>
<!-- Node38 -->
<g id="node38" class="node">
<title>Node38</title>
<g id="a_node38"><a xlink:href="a00484.xhtml#add0db9a0cf605eb3f57c80b52d2bda0e" target="_top" xlink:title=" ">
<polygon fill="white" stroke="black" points="618,-190.5 618,-209.5 680,-209.5 680,-190.5 618,-190.5"/>
<text text-anchor="middle" x="649" y="-197.5" font-family="Helvetica,sans-Serif" font-size="10.00">CFilter::init</text>
</a>
</g>
</g>
<!-- Node16&#45;&gt;Node38 -->
<g id="edge58" class="edge">
<title>Node16&#45;&gt;Node38</title>
<path fill="none" stroke="midnightblue" d="M178.44,-361.22C185.85,-333.85 210.9,-256.33 264,-224 373.25,-157.48 533.92,-177.05 607.95,-191.13"/>
<polygon fill="midnightblue" stroke="midnightblue" points="607.32,-194.58 617.81,-193.07 608.68,-187.71 607.32,-194.58"/>
</g>
<!-- Node39 -->
<g id="node39" class="node">
<title>Node39</title>
<g id="a_node39"><a xlink:href="a00612.xhtml#a02a81c6177894649b0524b684118839e" target="_top" xlink:title=" ">
<polygon fill="white" stroke="black" points="283,-342.5 283,-361.5 389,-361.5 389,-342.5 283,-342.5"/>
<text text-anchor="middle" x="336" y="-349.5" font-family="Helvetica,sans-Serif" font-size="10.00">CResample::interp1d</text>
</a>
</g>
</g>
<!-- Node16&#45;&gt;Node39 -->
<g id="edge63" class="edge">
<title>Node16&#45;&gt;Node39</title>
<path fill="none" stroke="midnightblue" d="M228.06,-364.78C242.34,-363.07 257.96,-361.21 272.74,-359.44"/>
<polygon fill="midnightblue" stroke="midnightblue" points="273.31,-362.9 282.82,-358.24 272.48,-355.95 273.31,-362.9"/>
</g>
<!-- Node17&#45;&gt;Node2 -->
<g id="edge20" class="edge">
<title>Node17&#45;&gt;Node2</title>
<path fill="none" stroke="midnightblue" d="M807.95,-95.58C820.26,-112 844.5,-147.03 855,-181 915.04,-375.23 830.57,-442.89 891,-637 897.68,-658.46 911.26,-680.4 921.57,-695.16"/>
<polygon fill="midnightblue" stroke="midnightblue" points="918.79,-697.29 927.48,-703.35 924.47,-693.19 918.79,-697.29"/>
</g>
<!-- Node17&#45;&gt;Node3 -->
<g id="edge27" class="edge">
<title>Node17&#45;&gt;Node3</title>
<path fill="none" stroke="midnightblue" d="M855.07,-84.69C892.21,-85.8 941.58,-91.31 981,-110 1016.22,-126.7 1047.14,-161.12 1063.84,-182.22"/>
<polygon fill="midnightblue" stroke="midnightblue" points="1061.23,-184.56 1070.1,-190.36 1066.78,-180.3 1061.23,-184.56"/>
</g>
<!-- Node17&#45;&gt;Node15 -->
<g id="edge26" class="edge">
<title>Node17&#45;&gt;Node15</title>
<path fill="none" stroke="midnightblue" d="M806.11,-95.51C826.53,-130.13 897.15,-249.84 924.27,-295.82"/>
<polygon fill="midnightblue" stroke="midnightblue" points="921.27,-297.62 929.37,-304.45 927.3,-294.06 921.27,-297.62"/>
</g>
<!-- Node18 -->
<g id="node18" class="node">
<title>Node18</title>
<g id="a_node18"><a xlink:href="a00488.xhtml#a4a70bdde7f075d2591fd03c52c16145c" target="_top" xlink:title=" ">
<polygon fill="white" stroke="black" points="891,-38.5 891,-57.5 981,-57.5 981,-38.5 891,-38.5"/>
<text text-anchor="middle" x="936" y="-45.5" font-family="Helvetica,sans-Serif" font-size="10.00">CButterLp::calcA</text>
</a>
</g>
</g>
<!-- Node17&#45;&gt;Node18 -->
<g id="edge21" class="edge">
<title>Node17&#45;&gt;Node18</title>
<path fill="none" stroke="midnightblue" d="M834.44,-76.41C851.72,-71.53 872.93,-65.54 891.41,-60.32"/>
<polygon fill="midnightblue" stroke="midnightblue" points="892.4,-63.67 901.07,-57.59 890.5,-56.94 892.4,-63.67"/>
</g>
<!-- Node20 -->
<g id="node20" class="node">
<title>Node20</title>
<g id="a_node20"><a xlink:href="a00488.xhtml#a9c08c0b6f891bb37fb4230088f94b0a0" target="_top" xlink:title=" ">
<polygon fill="white" stroke="black" points="891,-0.5 891,-19.5 981,-19.5 981,-0.5 891,-0.5"/>
<text text-anchor="middle" x="936" y="-7.5" font-family="Helvetica,sans-Serif" font-size="10.00">CButterLp::calcB</text>
</a>
</g>
</g>
<!-- Node17&#45;&gt;Node20 -->
<g id="edge23" class="edge">
<title>Node17&#45;&gt;Node20</title>
<path fill="none" stroke="midnightblue" d="M814.21,-76.42C831.6,-64.5 862.74,-43.89 891,-29 894.36,-27.23 897.93,-25.48 901.51,-23.81"/>
<polygon fill="midnightblue" stroke="midnightblue" points="903.24,-26.88 910.94,-19.6 900.38,-20.49 903.24,-26.88"/>
</g>
<!-- Node22 -->
<g id="node22" class="node">
<title>Node22</title>
<g id="a_node22"><a xlink:href="a00508.xhtml#ad7c5cba73e439adac77778f61c9418f0" target="_top" xlink:title=" ">
<polygon fill="white" stroke="black" points="897.5,-152.5 897.5,-171.5 974.5,-171.5 974.5,-152.5 897.5,-152.5"/>
<text text-anchor="middle" x="936" y="-159.5" font-family="Helvetica,sans-Serif" font-size="10.00">CVector::copy</text>
</a>
</g>
</g>
<!-- Node17&#45;&gt;Node22 -->
<g id="edge25" class="edge">
<title>Node17&#45;&gt;Node22</title>
<path fill="none" stroke="midnightblue" d="M817.53,-95.63C840.68,-108.7 882.25,-132.2 909.23,-147.44"/>
<polygon fill="midnightblue" stroke="midnightblue" points="907.68,-150.58 918.1,-152.45 911.12,-144.49 907.68,-150.58"/>
</g>
<!-- Node19 -->
<g id="node19" class="node">
<title>Node19</title>
<g id="a_node19"><a xlink:href="a00488.xhtml#ab4432f6b6d2f1bad850a13a0573615c4" target="_top" xlink:title=" ">
<polygon fill="white" stroke="black" points="1017,-38.5 1017,-57.5 1139,-57.5 1139,-38.5 1017,-38.5"/>
<text text-anchor="middle" x="1078" y="-45.5" font-family="Helvetica,sans-Serif" font-size="10.00">CButterLp::multBinomial</text>
</a>
</g>
</g>
<!-- Node18&#45;&gt;Node19 -->
<g id="edge22" class="edge">
<title>Node18&#45;&gt;Node19</title>
<path fill="none" stroke="midnightblue" d="M981.3,-48C989.42,-48 998.07,-48 1006.73,-48"/>
<polygon fill="midnightblue" stroke="midnightblue" points="1006.87,-51.5 1016.87,-48 1006.87,-44.5 1006.87,-51.5"/>
</g>
<!-- Node21 -->
<g id="node21" class="node">
<title>Node21</title>
<g id="a_node21"><a xlink:href="a00488.xhtml#a93b25bb8ef71fc7221ae53efe9212d67" target="_top" xlink:title=" ">
<polygon fill="white" stroke="black" points="1024,-0.5 1024,-19.5 1132,-19.5 1132,-0.5 1024,-0.5"/>
<text text-anchor="middle" x="1078" y="-7.5" font-family="Helvetica,sans-Serif" font-size="10.00">CButterLp::calcScale</text>
</a>
</g>
</g>
<!-- Node20&#45;&gt;Node21 -->
<g id="edge24" class="edge">
<title>Node20&#45;&gt;Node21</title>
<path fill="none" stroke="midnightblue" d="M981.3,-10C991.5,-10 1002.54,-10 1013.38,-10"/>
<polygon fill="midnightblue" stroke="midnightblue" points="1013.67,-13.5 1023.67,-10 1013.67,-6.5 1013.67,-13.5"/>
</g>
<!-- Node23&#45;&gt;Node2 -->
<g id="edge29" class="edge">
<title>Node23&#45;&gt;Node2</title>
<path fill="none" stroke="midnightblue" d="M343.91,-399.73C371.02,-437.26 474.33,-574.28 590,-650 651.19,-690.06 672.22,-693.96 744,-708 792.11,-717.41 848.33,-717.62 887.26,-716.12"/>
<polygon fill="midnightblue" stroke="midnightblue" points="887.43,-719.62 897.27,-715.68 887.12,-712.62 887.43,-719.62"/>
</g>
<!-- Node23&#45;&gt;Node15 -->
<g id="edge30" class="edge">
<title>Node23&#45;&gt;Node15</title>
<path fill="none" stroke="midnightblue" d="M370.69,-383.72C391.73,-379.87 419.41,-374.94 444,-371 577,-349.67 610.09,-342.49 744,-328 793.4,-322.66 850.22,-318.78 888.95,-316.48"/>
<polygon fill="midnightblue" stroke="midnightblue" points="889.6,-319.95 899.38,-315.87 889.19,-312.96 889.6,-319.95"/>
</g>
<!-- Node24 -->
<g id="node24" class="node">
<title>Node24</title>
<g id="a_node24"><a xlink:href="a00484.xhtml#a1c35f3511dcdc32517db3cea9c327ae8" target="_top" xlink:title=" ">
<polygon fill="white" stroke="black" points="457,-380.5 457,-399.5 541,-399.5 541,-380.5 457,-380.5"/>
<text text-anchor="middle" x="499" y="-387.5" font-family="Helvetica,sans-Serif" font-size="10.00">CFilter::process</text>
</a>
</g>
</g>
<!-- Node23&#45;&gt;Node24 -->
<g id="edge31" class="edge">
<title>Node23&#45;&gt;Node24</title>
<path fill="none" stroke="midnightblue" d="M370.75,-390C392.79,-390 421.99,-390 446.86,-390"/>
<polygon fill="midnightblue" stroke="midnightblue" points="446.87,-393.5 456.87,-390 446.86,-386.5 446.87,-393.5"/>
</g>
<!-- Node25 -->
<g id="node25" class="node">
<title>Node25</title>
<g id="a_node25"><a xlink:href="a00484.xhtml#a8d6a8f20ea178eda7352a89bf7a4d200" target="_top" xlink:title=" ">
<polygon fill="white" stroke="black" points="764,-190.5 764,-209.5 835,-209.5 835,-190.5 764,-190.5"/>
<text text-anchor="middle" x="799.5" y="-197.5" font-family="Helvetica,sans-Serif" font-size="10.00">CFilter::reset</text>
</a>
</g>
</g>
<!-- Node23&#45;&gt;Node25 -->
<g id="edge32" class="edge">
<title>Node23&#45;&gt;Node25</title>
<path fill="none" stroke="midnightblue" d="M370.74,-386.85C383.52,-384.24 397.5,-379.52 408,-371 435.48,-348.71 416.67,-322.47 444,-300 468.28,-280.03 664.48,-231.72 754.12,-210.41"/>
<polygon fill="midnightblue" stroke="midnightblue" points="755.07,-213.78 763.99,-208.06 753.45,-206.97 755.07,-213.78"/>
</g>
<!-- Node26 -->
<g id="node26" class="node">
<title>Node26</title>
<g id="a_node26"><a xlink:href="a00484.xhtml#a68eafbce2417e9c8e7934953e85199e7" target="_top" xlink:title=" ">
<polygon fill="white" stroke="black" points="446.5,-456.5 446.5,-475.5 551.5,-475.5 551.5,-456.5 446.5,-456.5"/>
<text text-anchor="middle" x="499" y="-463.5" font-family="Helvetica,sans-Serif" font-size="10.00">CFilter::setInitState_</text>
</a>
</g>
</g>
<!-- Node23&#45;&gt;Node26 -->
<g id="edge35" class="edge">
<title>Node23&#45;&gt;Node26</title>
<path fill="none" stroke="midnightblue" d="M357.39,-399.63C385.46,-412.87 436.17,-436.81 468.41,-452.03"/>
<polygon fill="midnightblue" stroke="midnightblue" points="467.24,-455.35 477.77,-456.45 470.23,-449.02 467.24,-455.35"/>
</g>
<!-- Node25&#45;&gt;Node3 -->
<g id="edge34" class="edge">
<title>Node25&#45;&gt;Node3</title>
<path fill="none" stroke="midnightblue" d="M835.24,-200C882.48,-200 967.46,-200 1023.04,-200"/>
<polygon fill="midnightblue" stroke="midnightblue" points="1023.06,-203.5 1033.06,-200 1023.06,-196.5 1023.06,-203.5"/>
</g>
<!-- Node25&#45;&gt;Node15 -->
<g id="edge33" class="edge">
<title>Node25&#45;&gt;Node15</title>
<path fill="none" stroke="midnightblue" d="M828.35,-209.56C837.31,-213.32 846.98,-218.16 855,-224 883.01,-244.4 908.29,-276.11 922.63,-295.94"/>
<polygon fill="midnightblue" stroke="midnightblue" points="919.95,-298.22 928.58,-304.37 925.67,-294.18 919.95,-298.22"/>
</g>
<!-- Node26&#45;&gt;Node2 -->
<g id="edge36" class="edge">
<title>Node26&#45;&gt;Node2</title>
<path fill="none" stroke="midnightblue" d="M504.01,-475.68C514.61,-500.24 545.63,-565.67 590,-604 676.65,-678.85 814.82,-702.37 887.21,-709.71"/>
<polygon fill="midnightblue" stroke="midnightblue" points="887.11,-713.22 897.4,-710.68 887.78,-706.25 887.11,-713.22"/>
</g>
<!-- Node26&#45;&gt;Node15 -->
<g id="edge39" class="edge">
<title>Node26&#45;&gt;Node15</title>
<path fill="none" stroke="midnightblue" d="M508.38,-456.37C523.15,-440.04 555.53,-407.04 590,-390 616.74,-376.78 802.08,-339.76 889.53,-322.75"/>
<polygon fill="midnightblue" stroke="midnightblue" points="890.29,-326.17 899.44,-320.83 888.95,-319.3 890.29,-326.17"/>
</g>
<!-- Node27 -->
<g id="node27" class="node">
<title>Node27</title>
<g id="a_node27"><a xlink:href="a00492.xhtml#a6501b78d76c912d49eee88c8f7242923" target="_top" xlink:title=" ">
<polygon fill="white" stroke="black" points="762.5,-646.5 762.5,-665.5 836.5,-665.5 836.5,-646.5 762.5,-646.5"/>
<text text-anchor="middle" x="799.5" y="-653.5" font-family="Helvetica,sans-Serif" font-size="10.00">CMatrix::alloc</text>
</a>
</g>
</g>
<!-- Node26&#45;&gt;Node27 -->
<g id="edge37" class="edge">
<title>Node26&#45;&gt;Node27</title>
<path fill="none" stroke="midnightblue" d="M507.22,-475.68C521.37,-494.11 554.49,-534.69 590,-560 643.89,-598.41 715.6,-627.39 759.33,-643"/>
<polygon fill="midnightblue" stroke="midnightblue" points="758.43,-646.39 769.02,-646.41 760.75,-639.79 758.43,-646.39"/>
</g>
<!-- Node28 -->
<g id="node28" class="node">
<title>Node28</title>
<g id="a_node28"><a xlink:href="a00492.xhtml#a591097c6b1935c4d6273b3445f8f552b" target="_top" xlink:title=" ">
<polygon fill="white" stroke="black" points="764,-456.5 764,-475.5 835,-475.5 835,-456.5 764,-456.5"/>
<text text-anchor="middle" x="799.5" y="-463.5" font-family="Helvetica,sans-Serif" font-size="10.00">CMatrix::free</text>
</a>
</g>
</g>
<!-- Node26&#45;&gt;Node28 -->
<g id="edge40" class="edge">
<title>Node26&#45;&gt;Node28</title>
<path fill="none" stroke="midnightblue" d="M551.65,-466C608.6,-466 699.29,-466 753.45,-466"/>
<polygon fill="midnightblue" stroke="midnightblue" points="753.77,-469.5 763.77,-466 753.77,-462.5 753.77,-469.5"/>
</g>
<!-- Node29 -->
<g id="node29" class="node">
<title>Node29</title>
<g id="a_node29"><a xlink:href="a00492.xhtml#a37585f57926ea2921734907bacc6cce8" target="_top" xlink:title=" ">
<polygon fill="white" stroke="black" points="611.5,-513.5 611.5,-532.5 686.5,-532.5 686.5,-513.5 611.5,-513.5"/>
<text text-anchor="middle" x="649" y="-520.5" font-family="Helvetica,sans-Serif" font-size="10.00">CMatrix::inv_I</text>
</a>
</g>
</g>
<!-- Node26&#45;&gt;Node29 -->
<g id="edge42" class="edge">
<title>Node26&#45;&gt;Node29</title>
<path fill="none" stroke="midnightblue" d="M524.77,-475.54C549.1,-484.91 586.43,-499.29 613.63,-509.76"/>
<polygon fill="midnightblue" stroke="midnightblue" points="612.56,-513.1 623.15,-513.43 615.07,-506.57 612.56,-513.1"/>
</g>
<!-- Node36 -->
<g id="node36" class="node">
<title>Node36</title>
<g id="a_node36"><a xlink:href="a00492.xhtml#ab0ca8e552db389f6323e1c3d26e59902" target="_top" xlink:title=" ">
<polygon fill="white" stroke="black" points="590,-399.5 590,-418.5 708,-418.5 708,-399.5 590,-399.5"/>
<text text-anchor="middle" x="649" y="-406.5" font-family="Helvetica,sans-Serif" font-size="10.00">CMatrix::mulMatColVec</text>
</a>
</g>
</g>
<!-- Node26&#45;&gt;Node36 -->
<g id="edge54" class="edge">
<title>Node26&#45;&gt;Node36</title>
<path fill="none" stroke="midnightblue" d="M524.77,-456.46C549.1,-447.09 586.43,-432.71 613.63,-422.24"/>
<polygon fill="midnightblue" stroke="midnightblue" points="615.07,-425.43 623.15,-418.57 612.56,-418.9 615.07,-425.43"/>
</g>
<!-- Node27&#45;&gt;Node2 -->
<g id="edge38" class="edge">
<title>Node27&#45;&gt;Node2</title>
<path fill="none" stroke="midnightblue" d="M823.01,-665.54C844.93,-674.83 878.45,-689.04 903.11,-699.49"/>
<polygon fill="midnightblue" stroke="midnightblue" points="901.84,-702.75 912.41,-703.43 904.57,-696.3 901.84,-702.75"/>
</g>
<!-- Node28&#45;&gt;Node15 -->
<g id="edge41" class="edge">
<title>Node28&#45;&gt;Node15</title>
<path fill="none" stroke="midnightblue" d="M835.25,-457.94C842.26,-455.24 849.25,-451.68 855,-447 893.01,-416.11 917.38,-362.03 928.31,-333.27"/>
<polygon fill="midnightblue" stroke="midnightblue" points="931.7,-334.18 931.84,-323.58 925.13,-331.78 931.7,-334.18"/>
</g>
<!-- Node29&#45;&gt;Node27 -->
<g id="edge43" class="edge">
<title>Node29&#45;&gt;Node27</title>
<path fill="none" stroke="midnightblue" d="M656.16,-532.72C669.75,-553.46 704.23,-602.57 744,-632 749.18,-635.83 755.07,-639.22 761.02,-642.16"/>
<polygon fill="midnightblue" stroke="midnightblue" points="759.76,-645.43 770.31,-646.39 762.67,-639.06 759.76,-645.43"/>
</g>
<!-- Node29&#45;&gt;Node28 -->
<g id="edge46" class="edge">
<title>Node29&#45;&gt;Node28</title>
<path fill="none" stroke="midnightblue" d="M672.67,-513.47C691.64,-505.59 719.45,-494.23 744,-485 749.33,-482.99 754.99,-480.94 760.56,-478.96"/>
<polygon fill="midnightblue" stroke="midnightblue" points="762.13,-482.12 770.4,-475.5 759.81,-475.52 762.13,-482.12"/>
</g>
<!-- Node29&#45;&gt;Node29 -->
<g id="edge47" class="edge">
<title>Node29&#45;&gt;Node29</title>
<path fill="none" stroke="midnightblue" d="M625.88,-532.76C614.63,-541.57 622.34,-551 649,-551 666.5,-551 675.83,-546.94 677,-541.65"/>
<polygon fill="midnightblue" stroke="midnightblue" points="680,-539.84 672.12,-532.76 673.86,-543.21 680,-539.84"/>
</g>
<!-- Node30 -->
<g id="node30" class="node">
<title>Node30</title>
<g id="a_node30"><a xlink:href="a00492.xhtml#a9f723a71e61f425d0ee9a51aa2162bf3" target="_top" xlink:title=" ">
<polygon fill="white" stroke="black" points="762.5,-418.5 762.5,-437.5 836.5,-437.5 836.5,-418.5 762.5,-418.5"/>
<text text-anchor="middle" x="799.5" y="-425.5" font-family="Helvetica,sans-Serif" font-size="10.00">CMatrix::copy</text>
</a>
</g>
</g>
<!-- Node29&#45;&gt;Node30 -->
<g id="edge44" class="edge">
<title>Node29&#45;&gt;Node30</title>
<path fill="none" stroke="midnightblue" d="M659.59,-513.32C675.72,-497.5 709.89,-465.98 744,-447 747.69,-444.94 751.65,-443.05 755.68,-441.32"/>
<polygon fill="midnightblue" stroke="midnightblue" points="757.13,-444.51 765.14,-437.58 754.55,-438 757.13,-444.51"/>
</g>
<!-- Node31 -->
<g id="node31" class="node">
<title>Node31</title>
<g id="a_node31"><a xlink:href="a00508.xhtml#a9811f50434dd058d201290b2dc98bfcd" target="_top" xlink:title=" ">
<polygon fill="white" stroke="black" points="756,-494.5 756,-513.5 843,-513.5 843,-494.5 756,-494.5"/>
<text text-anchor="middle" x="799.5" y="-501.5" font-family="Helvetica,sans-Serif" font-size="10.00">CVector::mulC_I</text>
</a>
</g>
</g>
<!-- Node29&#45;&gt;Node31 -->
<g id="edge48" class="edge">
<title>Node29&#45;&gt;Node31</title>
<path fill="none" stroke="midnightblue" d="M686.71,-518.3C704.55,-516.02 726.33,-513.23 745.9,-510.73"/>
<polygon fill="midnightblue" stroke="midnightblue" points="746.43,-514.19 755.9,-509.45 745.54,-507.25 746.43,-514.19"/>
</g>
<!-- Node32 -->
<g id="node32" class="node">
<title>Node32</title>
<g id="a_node32"><a xlink:href="a00492.xhtml#a95b2436caee0cd232126f78c642238dd" target="_top" xlink:title=" ">
<polygon fill="white" stroke="black" points="894.5,-608.5 894.5,-627.5 977.5,-627.5 977.5,-608.5 894.5,-608.5"/>
<text text-anchor="middle" x="936" y="-615.5" font-family="Helvetica,sans-Serif" font-size="10.00">CMatrix::setEye</text>
</a>
</g>
</g>
<!-- Node29&#45;&gt;Node32 -->
<g id="edge49" class="edge">
<title>Node29&#45;&gt;Node32</title>
<path fill="none" stroke="midnightblue" d="M658.17,-532.53C673.2,-549.33 707.11,-583.86 744,-599 788.85,-617.41 844.42,-621.03 884.03,-620.73"/>
<polygon fill="midnightblue" stroke="midnightblue" points="884.31,-624.22 894.25,-620.56 884.19,-617.22 884.31,-624.22"/>
</g>
<!-- Node33 -->
<g id="node33" class="node">
<title>Node33</title>
<g id="a_node33"><a xlink:href="a00508.xhtml#a4e5b5163bb46b8de5ac4013bde1ded00" target="_top" xlink:title=" ">
<polygon fill="white" stroke="black" points="755,-570.5 755,-589.5 844,-589.5 844,-570.5 755,-570.5"/>
<text text-anchor="middle" x="799.5" y="-577.5" font-family="Helvetica,sans-Serif" font-size="10.00">CVector::subW_I</text>
</a>
</g>
</g>
<!-- Node29&#45;&gt;Node33 -->
<g id="edge51" class="edge">
<title>Node29&#45;&gt;Node33</title>
<path fill="none" stroke="midnightblue" d="M672.67,-532.53C691.64,-540.41 719.45,-551.77 744,-561 749.33,-563.01 754.99,-565.06 760.56,-567.04"/>
<polygon fill="midnightblue" stroke="midnightblue" points="759.81,-570.48 770.4,-570.5 762.13,-563.88 759.81,-570.48"/>
</g>
<!-- Node35 -->
<g id="node35" class="node">
<title>Node35</title>
<g id="a_node35"><a xlink:href="a00492.xhtml#a036ce0072f4da74a8809550d21eac9dd" target="_top" xlink:title=" ">
<polygon fill="white" stroke="black" points="744,-532.5 744,-551.5 855,-551.5 855,-532.5 744,-532.5"/>
<text text-anchor="middle" x="799.5" y="-539.5" font-family="Helvetica,sans-Serif" font-size="10.00">CMatrix::swapRowCol</text>
</a>
</g>
</g>
<!-- Node29&#45;&gt;Node35 -->
<g id="edge53" class="edge">
<title>Node29&#45;&gt;Node35</title>
<path fill="none" stroke="midnightblue" d="M686.71,-527.7C701,-529.53 717.82,-531.68 734.01,-533.75"/>
<polygon fill="midnightblue" stroke="midnightblue" points="733.61,-537.23 743.98,-535.02 734.5,-530.28 733.61,-537.23"/>
</g>
<!-- Node30&#45;&gt;Node22 -->
<g id="edge45" class="edge">
<title>Node30&#45;&gt;Node22</title>
<path fill="none" stroke="midnightblue" d="M836.7,-420.69C843.46,-417.94 849.97,-414.18 855,-409 892.01,-370.88 874.66,-345.56 891,-295 904.09,-254.5 919.85,-207.22 928.5,-181.36"/>
<polygon fill="midnightblue" stroke="midnightblue" points="931.89,-182.26 931.75,-171.66 925.26,-180.03 931.89,-182.26"/>
</g>
<!-- Node32&#45;&gt;Node3 -->
<g id="edge50" class="edge">
<title>Node32&#45;&gt;Node3</title>
<path fill="none" stroke="midnightblue" d="M969.23,-608.36C973.66,-605.89 977.79,-602.82 981,-599 1031.08,-539.5 1065.56,-291.29 1074.63,-219.52"/>
<polygon fill="midnightblue" stroke="midnightblue" points="1078.1,-219.93 1075.86,-209.57 1071.16,-219.06 1078.1,-219.93"/>
</g>
<!-- Node34 -->
<g id="node34" class="node">
<title>Node34</title>
<g id="a_node34"><a xlink:href="a00508.xhtml#a2239b170d46ed3d0846d766a0634a0be" target="_top" xlink:title=" ">
<polygon fill="white" stroke="black" points="891.5,-570.5 891.5,-589.5 980.5,-589.5 980.5,-570.5 891.5,-570.5"/>
<text text-anchor="middle" x="936" y="-577.5" font-family="Helvetica,sans-Serif" font-size="10.00">CVector::addW_I</text>
</a>
</g>
</g>
<!-- Node33&#45;&gt;Node34 -->
<g id="edge52" class="edge">
<title>Node33&#45;&gt;Node34</title>
<path fill="none" stroke="midnightblue" d="M844.17,-580C855.91,-580 868.76,-580 880.99,-580"/>
<polygon fill="midnightblue" stroke="midnightblue" points="881.09,-583.5 891.09,-580 881.09,-576.5 881.09,-583.5"/>
</g>
<!-- Node37 -->
<g id="node37" class="node">
<title>Node37</title>
<g id="a_node37"><a xlink:href="a00508.xhtml#a269d316eeb6000aac4f57ade32c83127" target="_top" xlink:title=" ">
<polygon fill="white" stroke="black" points="749.5,-380.5 749.5,-399.5 849.5,-399.5 849.5,-380.5 749.5,-380.5"/>
<text text-anchor="middle" x="799.5" y="-387.5" font-family="Helvetica,sans-Serif" font-size="10.00">CVector::mulScalar</text>
</a>
</g>
</g>
<!-- Node36&#45;&gt;Node37 -->
<g id="edge55" class="edge">
<title>Node36&#45;&gt;Node37</title>
<path fill="none" stroke="midnightblue" d="M708.26,-401.55C718.38,-400.25 728.91,-398.9 739.06,-397.61"/>
<polygon fill="midnightblue" stroke="midnightblue" points="739.58,-401.07 749.05,-396.33 738.69,-394.12 739.58,-401.07"/>
</g>
<!-- Node38&#45;&gt;Node2 -->
<g id="edge59" class="edge">
<title>Node38&#45;&gt;Node2</title>
<path fill="none" stroke="midnightblue" d="M669.33,-209.65C711.25,-231.73 810.37,-290.28 855,-371 912.72,-475.41 852.38,-524.12 891,-637 898.28,-658.26 911.76,-680.24 921.89,-695.05"/>
<polygon fill="midnightblue" stroke="midnightblue" points="919.07,-697.12 927.68,-703.28 924.79,-693.09 919.07,-697.12"/>
</g>
<!-- Node38&#45;&gt;Node3 -->
<g id="edge62" class="edge">
<title>Node38&#45;&gt;Node3</title>
<path fill="none" stroke="midnightblue" d="M670.45,-190.35C722.82,-166.94 865.73,-111.36 981,-143 1010.05,-150.97 1039.2,-170.27 1057.63,-184.2"/>
<polygon fill="midnightblue" stroke="midnightblue" points="1055.49,-186.98 1065.54,-190.35 1059.79,-181.45 1055.49,-186.98"/>
</g>
<!-- Node38&#45;&gt;Node22 -->
<g id="edge60" class="edge">
<title>Node38&#45;&gt;Node22</title>
<path fill="none" stroke="midnightblue" d="M680.34,-193.06C698.69,-189.07 722.6,-184.22 744,-181 792.34,-173.73 848.01,-168.55 886.72,-165.46"/>
<polygon fill="midnightblue" stroke="midnightblue" points="887.47,-168.91 897.17,-164.64 886.93,-161.93 887.47,-168.91"/>
</g>
<!-- Node38&#45;&gt;Node25 -->
<g id="edge61" class="edge">
<title>Node38&#45;&gt;Node25</title>
<path fill="none" stroke="midnightblue" d="M680.05,-200C701.17,-200 729.78,-200 753.59,-200"/>
<polygon fill="midnightblue" stroke="midnightblue" points="753.81,-203.5 763.81,-200 753.81,-196.5 753.81,-203.5"/>
</g>
</g>
</svg>
        <g id="navigator" transform="translate(0 0)" fill="#404254">
                <rect fill="#f2f5e9" fill-opacity="0.5" stroke="#606060" stroke-width=".5" x="0" y="0" width="60" height="60"/>
                <use id="zoomplus" xlink:href="#zoomPlus" x="17" y="9" onmousedown="handleZoom(evt,'in')"/>
                <use id="zoomminus" xlink:href="#zoomMin" x="42" y="9" onmousedown="handleZoom(evt,'out')"/>
                <use id="reset" xlink:href="#resetDef" x="30" y="36" onmousedown="handleReset()"/>
                <g id="arrowUp" xlink:href="#dirArrow" transform="translate(30 24)" onmousedown="handlePan(0,-1)">
                  <use xlink:href="#rim" fill="#404040">
                        <set attributeName="fill" to="#808080" begin="arrowUp.mouseover" end="arrowUp.mouseout"/>
                  </use>
                  <path fill="none" stroke="white" stroke-width="1.5" d="M0,-3.0v7 M-2.5,-0.5L0,-3.0L2.5,-0.5"/>
                </g>
                <g id="arrowRight" xlink:href="#dirArrow" transform="rotate(90) translate(36 -43)" onmousedown="handlePan(1,0)">
                  <use xlink:href="#rim" fill="#404040">
                        <set attributeName="fill" to="#808080" begin="arrowRight.mouseover" end="arrowRight.mouseout"/>
                  </use>
                  <path fill="none" stroke="white" stroke-width="1.5" d="M0,-3.0v7 M-2.5,-0.5L0,-3.0L2.5,-0.5"/>
                </g>
                <g id="arrowDown" xlink:href="#dirArrow" transform="rotate(180) translate(-30 -48)" onmousedown="handlePan(0,1)">
                  <use xlink:href="#rim" fill="#404040">
                        <set attributeName="fill" to="#808080" begin="arrowDown.mouseover" end="arrowDown.mouseout"/>
                  </use>
                  <path fill="none" stroke="white" stroke-width="1.5" d="M0,-3.0v7 M-2.5,-0.5L0,-3.0L2.5,-0.5"/>
                </g>
                <g id="arrowLeft" xlink:href="#dirArrow" transform="rotate(270) translate(-36 17)" onmousedown="handlePan(-1,0)">
                  <use xlink:href="#rim" fill="#404040">
                        <set attributeName="fill" to="#808080" begin="arrowLeft.mouseover" end="arrowLeft.mouseout"/>
                  </use>
                  <path fill="none" stroke="white" stroke-width="1.5" d="M0,-3.0v7 M-2.5,-0.5L0,-3.0L2.5,-0.5"/>
                </g>
        </g>
        <svg viewBox="0 0 15 15" width="100%" height="30px" preserveAspectRatio="xMaxYMin meet">
         <g id="arrow_out" transform="scale(0.3 0.3)">
          <a xlink:href="a00560_a53b945061045c64cf5b92d84ceb3938f_cgraph_org.svg" target="_base">
           <rect id="button" ry="5" rx="5" y="6" x="6" height="38" width="38"
                fill="#f2f5e9" fill-opacity="0.5" stroke="#606060" stroke-width="1.0"/>
           <path id="arrow"
             d="M 11.500037,31.436501 C 11.940474,20.09759 22.043105,11.32322 32.158766,21.979434 L 37.068811,17.246167 C 37.068811,17.246167 37.088388,32 37.088388,32 L 22.160133,31.978069 C 22.160133,31.978069 26.997745,27.140456 26.997745,27.140456 C 18.528582,18.264221 13.291696,25.230495 11.500037,31.436501 z"
             style="fill:#404040;"/>
          </a>
         </g>
        </svg>
</svg>
