<?xml version="1.0" encoding="UTF-8" standalone="no"?>
<!DOCTYPE svg PUBLIC "-//W3C//DTD SVG 1.1//EN"
 "http://www.w3.org/Graphics/SVG/1.1/DTD/svg11.dtd">
<!-- Generated by graphviz version 4.0.0 (20220602.1335)
 -->
<!-- Title: CVector::mul_I Pages: 1 -->
<svg width="937pt" height="666pt"
 viewBox="0.00 0.00 937.00 666.00" xmlns="http://www.w3.org/2000/svg" xmlns:xlink="http://www.w3.org/1999/xlink">
<g id="graph0" class="graph" transform="scale(1 1) rotate(0) translate(4 662)">
<title>CVector::mul_I</title>
<polygon fill="white" stroke="transparent" points="-4,4 -4,-662 933,-662 933,4 -4,4"/>
<!-- Node1 -->
<g id="node1" class="node">
<title>Node1</title>
<g id="a_node1"><a xlink:title=" ">
<polygon fill="#bfbfbf" stroke="black" points="849,-316.5 849,-335.5 929,-335.5 929,-316.5 849,-316.5"/>
<text text-anchor="middle" x="889" y="-323.5" font-family="Helvetica,sans-Serif" font-size="10.00">CVector::mul_I</text>
</a>
</g>
</g>
<!-- Node2 -->
<g id="node2" class="node">
<title>Node2</title>
<g id="a_node2"><a xlink:href="a00474.xhtml#ab5c17fe5c368048a3393818735dc9b8a" target="_top" xlink:title=" ">
<polygon fill="white" stroke="black" points="709.5,-316.5 709.5,-335.5 785.5,-335.5 785.5,-316.5 709.5,-316.5"/>
<text text-anchor="middle" x="747.5" y="-323.5" font-family="Helvetica,sans-Serif" font-size="10.00">CFft::compFft</text>
</a>
</g>
</g>
<!-- Node1&#45;&gt;Node2 -->
<g id="edge1" class="edge">
<title>Node1&#45;&gt;Node2</title>
<path fill="none" stroke="midnightblue" d="M838.72,-326C821.22,-326 801.82,-326 785.52,-326"/>
<polygon fill="midnightblue" stroke="midnightblue" points="838.77,-329.5 848.77,-326 838.77,-322.5 838.77,-329.5"/>
</g>
<!-- Node33 -->
<g id="node33" class="node">
<title>Node33</title>
<g id="a_node33"><a xlink:href="a00474.xhtml#a5571d9bab4efdebd3bcf0875dffb847c" target="_top" xlink:title=" ">
<polygon fill="white" stroke="black" points="703,-436.5 703,-455.5 792,-455.5 792,-436.5 703,-436.5"/>
<text text-anchor="middle" x="747.5" y="-443.5" font-family="Helvetica,sans-Serif" font-size="10.00">CFft::compInvFft</text>
</a>
</g>
</g>
<!-- Node1&#45;&gt;Node33 -->
<g id="edge35" class="edge">
<title>Node1&#45;&gt;Node33</title>
<path fill="none" stroke="midnightblue" d="M868.63,-342.66C839.01,-368.14 783.4,-415.97 759.68,-436.38"/>
<polygon fill="midnightblue" stroke="midnightblue" points="871.29,-344.99 876.58,-335.82 866.72,-339.69 871.29,-344.99"/>
</g>
<!-- Node34 -->
<g id="node34" class="node">
<title>Node34</title>
<g id="a_node34"><a xlink:href="a00462.xhtml#ac6a2a71d24b2beaa2b183d8659fd93f8" target="_top" xlink:title=" ">
<polygon fill="white" stroke="black" points="682,-71 682,-101 813,-101 813,-71 682,-71"/>
<text text-anchor="start" x="690" y="-89" font-family="Helvetica,sans-Serif" font-size="10.00">CClassifierBase::normalize</text>
<text text-anchor="middle" x="747.5" y="-78" font-family="Helvetica,sans-Serif" font-size="10.00">Vector</text>
</a>
</g>
</g>
<!-- Node1&#45;&gt;Node34 -->
<g id="edge37" class="edge">
<title>Node1&#45;&gt;Node34</title>
<path fill="none" stroke="midnightblue" d="M877.19,-307.4C850.47,-261.43 781.7,-143.12 757.27,-101.09"/>
<polygon fill="midnightblue" stroke="midnightblue" points="874.31,-309.41 882.36,-316.29 880.36,-305.89 874.31,-309.41"/>
</g>
<!-- Node3 -->
<g id="node3" class="node">
<title>Node3</title>
<g id="a_node3"><a xlink:href="a00450.xhtml#a58a9a3d685f448ced2e843a60028e472" target="_top" xlink:title=" ">
<polygon fill="white" stroke="black" points="74,-433.5 74,-452.5 219,-452.5 219,-433.5 74,-433.5"/>
<text text-anchor="middle" x="146.5" y="-440.5" font-family="Helvetica,sans-Serif" font-size="10.00">CBeatHistoIf::compBeatHisto</text>
</a>
</g>
</g>
<!-- Node2&#45;&gt;Node3 -->
<g id="edge2" class="edge">
<title>Node2&#45;&gt;Node3</title>
<path fill="none" stroke="midnightblue" d="M718.74,-339.89C698.96,-349.14 671.47,-360.71 646,-367 476.5,-408.86 422.24,-354.86 255,-405 237.67,-410.2 235.85,-417.41 219,-424 209.79,-427.6 199.65,-430.75 189.98,-433.4"/>
<polygon fill="midnightblue" stroke="midnightblue" points="720.27,-343.03 727.79,-335.56 717.26,-336.71 720.27,-343.03"/>
</g>
<!-- Node5 -->
<g id="node5" class="node">
<title>Node5</title>
<g id="a_node5"><a xlink:href="a00546.xhtml#a63f5ef7a9ef502fb8dd393824265d967" target="_top" xlink:title=" ">
<polygon fill="white" stroke="black" points="520,-496.5 520,-515.5 602,-515.5 602,-496.5 520,-496.5"/>
<text text-anchor="middle" x="561" y="-503.5" font-family="Helvetica,sans-Serif" font-size="10.00">CCcf::compCcf</text>
</a>
</g>
</g>
<!-- Node2&#45;&gt;Node5 -->
<g id="edge4" class="edge">
<title>Node2&#45;&gt;Node5</title>
<path fill="none" stroke="midnightblue" d="M733.14,-343.88C714.84,-367.78 680.32,-410.87 646,-443 623.51,-464.05 594.1,-484.76 576.72,-496.41"/>
<polygon fill="midnightblue" stroke="midnightblue" points="736.07,-345.8 739.32,-335.72 730.49,-341.57 736.07,-345.8"/>
</g>
<!-- Node10 -->
<g id="node10" class="node">
<title>Node10</title>
<g id="a_node10"><a xlink:href="a00454.xhtml#ab7ff18d1911b7a8792536daad8cf0dd9" target="_top" xlink:title=" ">
<polygon fill="white" stroke="black" points="479.5,-197.5 479.5,-216.5 642.5,-216.5 642.5,-197.5 479.5,-197.5"/>
<text text-anchor="middle" x="561" y="-204.5" font-family="Helvetica,sans-Serif" font-size="10.00">CChordIf::computeMagSpectrum_</text>
</a>
</g>
</g>
<!-- Node2&#45;&gt;Node10 -->
<g id="edge10" class="edge">
<title>Node2&#45;&gt;Node10</title>
<path fill="none" stroke="midnightblue" d="M732.54,-308.4C714.68,-287.04 681.75,-251.37 646,-231 635.06,-224.77 622.39,-220.06 610.25,-216.53"/>
<polygon fill="midnightblue" stroke="midnightblue" points="729.99,-310.81 739.03,-316.34 735.41,-306.38 729.99,-310.81"/>
</g>
<!-- Node13 -->
<g id="node13" class="node">
<title>Node13</title>
<g id="a_node13"><a xlink:href="a00466.xhtml#a7aef37fcf40e80cbace42fe663f47bbd" target="_top" xlink:title="compute magnitude spectrum for spectral features">
<polygon fill="white" stroke="black" points="476,-152.5 476,-171.5 646,-171.5 646,-152.5 476,-152.5"/>
<text text-anchor="middle" x="561" y="-159.5" font-family="Helvetica,sans-Serif" font-size="10.00">CFeatureIf::computeMagSpectrum_</text>
</a>
</g>
</g>
<!-- Node2&#45;&gt;Node13 -->
<g id="edge13" class="edge">
<title>Node2&#45;&gt;Node13</title>
<path fill="none" stroke="midnightblue" d="M737.72,-307.05C722.97,-277.3 690.43,-219.77 646,-188 635.82,-180.72 623.54,-175.43 611.55,-171.61"/>
<polygon fill="midnightblue" stroke="midnightblue" points="734.69,-308.84 742.18,-316.33 741,-305.8 734.69,-308.84"/>
</g>
<!-- Node19 -->
<g id="node19" class="node">
<title>Node19</title>
<g id="a_node19"><a xlink:href="a00514.xhtml#a9018f2beabd03a9b41d90bde402aa227" target="_top" xlink:title=" ">
<polygon fill="white" stroke="black" points="476,-414.5 476,-433.5 646,-433.5 646,-414.5 476,-414.5"/>
<text text-anchor="middle" x="561" y="-421.5" font-family="Helvetica,sans-Serif" font-size="10.00">CNoveltyIf::computeMagSpectrum_</text>
</a>
</g>
</g>
<!-- Node2&#45;&gt;Node19 -->
<g id="edge20" class="edge">
<title>Node2&#45;&gt;Node19</title>
<path fill="none" stroke="midnightblue" d="M728.55,-342.34C709.39,-359 677.51,-384.52 646,-400 633.75,-406.02 619.73,-410.77 606.7,-414.4"/>
<polygon fill="midnightblue" stroke="midnightblue" points="731.01,-344.84 736.18,-335.59 726.37,-339.59 731.01,-344.84"/>
</g>
<!-- Node22 -->
<g id="node22" class="node">
<title>Node22</title>
<g id="a_node22"><a xlink:href="a00522.xhtml#aa988c75557f8281271467b000a1a1d54" target="_top" xlink:title=" ">
<polygon fill="white" stroke="black" points="481,-338.5 481,-357.5 641,-357.5 641,-338.5 481,-338.5"/>
<text text-anchor="middle" x="561" y="-345.5" font-family="Helvetica,sans-Serif" font-size="10.00">CPitchIf::computeMagSpectrum_</text>
</a>
</g>
</g>
<!-- Node2&#45;&gt;Node22 -->
<g id="edge24" class="edge">
<title>Node2&#45;&gt;Node22</title>
<path fill="none" stroke="midnightblue" d="M699.13,-331.65C681.48,-333.75 660.93,-336.2 641.19,-338.56"/>
<polygon fill="midnightblue" stroke="midnightblue" points="699.65,-335.11 709.16,-330.45 698.82,-328.16 699.65,-335.11"/>
</g>
<!-- Node25 -->
<g id="node25" class="node">
<title>Node25</title>
<g id="a_node25"><a xlink:href="a00554.xhtml#a4811d2eb7c2a5fd5f49b043205865222" target="_top" xlink:title=" ">
<polygon fill="white" stroke="black" points="496,-289 496,-319 626,-319 626,-289 496,-289"/>
<text text-anchor="start" x="504" y="-307" font-family="Helvetica,sans-Serif" font-size="10.00">CFingerprint::computeMag</text>
<text text-anchor="middle" x="561" y="-296" font-family="Helvetica,sans-Serif" font-size="10.00">Spectrum_</text>
</a>
</g>
</g>
<!-- Node2&#45;&gt;Node25 -->
<g id="edge27" class="edge">
<title>Node2&#45;&gt;Node25</title>
<path fill="none" stroke="midnightblue" d="M699,-320.34C676.83,-317.69 650.11,-314.51 626.18,-311.65"/>
<polygon fill="midnightblue" stroke="midnightblue" points="698.82,-323.84 709.16,-321.55 699.65,-316.89 698.82,-323.84"/>
</g>
<!-- Node28 -->
<g id="node28" class="node">
<title>Node28</title>
<g id="a_node28"><a xlink:href="a00530.xhtml#abe25089ec6ef77b0b9952c33a7a8d739" target="_top" xlink:title=" ">
<polygon fill="white" stroke="black" points="488,-240 488,-270 634,-270 634,-240 488,-240"/>
<text text-anchor="start" x="496" y="-258" font-family="Helvetica,sans-Serif" font-size="10.00">CSpectrogramIf::computeMag</text>
<text text-anchor="middle" x="561" y="-247" font-family="Helvetica,sans-Serif" font-size="10.00">Spectrum_</text>
</a>
</g>
</g>
<!-- Node2&#45;&gt;Node28 -->
<g id="edge30" class="edge">
<title>Node2&#45;&gt;Node28</title>
<path fill="none" stroke="midnightblue" d="M718.45,-311.88C698.54,-302.17 671.01,-289.39 646,-280 636.6,-276.47 626.46,-273.1 616.59,-270.04"/>
<polygon fill="midnightblue" stroke="midnightblue" points="717.05,-315.09 727.57,-316.37 720.15,-308.81 717.05,-315.09"/>
</g>
<!-- Node4 -->
<g id="node4" class="node">
<title>Node4</title>
<g id="a_node4"><a xlink:href="a00020.xhtml#a0ddf1224851353fc92bfbff6f499fa97" target="_top" xlink:title=" ">
<polygon fill="white" stroke="black" points="0,-433.5 0,-452.5 38,-452.5 38,-433.5 0,-433.5"/>
<text text-anchor="middle" x="19" y="-440.5" font-family="Helvetica,sans-Serif" font-size="10.00">main</text>
</a>
</g>
</g>
<!-- Node3&#45;&gt;Node4 -->
<g id="edge3" class="edge">
<title>Node3&#45;&gt;Node4</title>
<path fill="none" stroke="midnightblue" d="M63.88,-443C54.4,-443 45.55,-443 38.32,-443"/>
<polygon fill="midnightblue" stroke="midnightblue" points="63.95,-446.5 73.95,-443 63.95,-439.5 63.95,-446.5"/>
</g>
<!-- Node5&#45;&gt;Node3 -->
<g id="edge5" class="edge">
<title>Node5&#45;&gt;Node3</title>
<path fill="none" stroke="midnightblue" d="M509.96,-495.24C488.48,-490.82 463.07,-485.84 440,-482 364.96,-469.51 278.55,-458.38 219.22,-451.25"/>
<polygon fill="midnightblue" stroke="midnightblue" points="509.34,-498.68 519.85,-497.29 510.77,-491.83 509.34,-498.68"/>
</g>
<!-- Node6 -->
<g id="node6" class="node">
<title>Node6</title>
<g id="a_node6"><a xlink:href="a00378.xhtml#a91b4a12a8ddae9767459b508ee060a47" target="_top" xlink:title=" ">
<polygon fill="white" stroke="black" points="297,-491 297,-521 398,-521 398,-491 297,-491"/>
<text text-anchor="start" x="305" y="-509" font-family="Helvetica,sans-Serif" font-size="10.00">CPitchSpectralAcf::</text>
<text text-anchor="middle" x="347.5" y="-498" font-family="Helvetica,sans-Serif" font-size="10.00">compF0</text>
</a>
</g>
</g>
<!-- Node5&#45;&gt;Node6 -->
<g id="edge6" class="edge">
<title>Node5&#45;&gt;Node6</title>
<path fill="none" stroke="midnightblue" d="M509.63,-506C475.97,-506 431.87,-506 398.32,-506"/>
<polygon fill="midnightblue" stroke="midnightblue" points="509.72,-509.5 519.72,-506 509.72,-502.5 509.72,-509.5"/>
</g>
<!-- Node7 -->
<g id="node7" class="node">
<title>Node7</title>
<g id="a_node7"><a xlink:href="a00386.xhtml#af5dc0e4af11f3487eb9ff7df02ca99ad" target="_top" xlink:title=" ">
<polygon fill="white" stroke="black" points="286.5,-638.5 286.5,-657.5 408.5,-657.5 408.5,-638.5 286.5,-638.5"/>
<text text-anchor="middle" x="347.5" y="-645.5" font-family="Helvetica,sans-Serif" font-size="10.00">CPitchTimeAcf::compF0</text>
</a>
</g>
</g>
<!-- Node5&#45;&gt;Node7 -->
<g id="edge7" class="edge">
<title>Node5&#45;&gt;Node7</title>
<path fill="none" stroke="midnightblue" d="M548.06,-523.78C528.75,-551.03 487.95,-602.73 440,-629 430.47,-634.22 419.66,-638.01 408.89,-640.76"/>
<polygon fill="midnightblue" stroke="midnightblue" points="550.95,-525.76 553.76,-515.54 545.19,-521.77 550.95,-525.76"/>
</g>
<!-- Node8 -->
<g id="node8" class="node">
<title>Node8</title>
<g id="a_node8"><a xlink:href="a00390.xhtml#a371af164926ee54ebfd298fa4dca8842" target="_top" xlink:title=" ">
<polygon fill="white" stroke="black" points="296,-589 296,-619 399,-619 399,-589 296,-589"/>
<text text-anchor="start" x="304" y="-607" font-family="Helvetica,sans-Serif" font-size="10.00">CPitchTimeAuditory</text>
<text text-anchor="middle" x="347.5" y="-596" font-family="Helvetica,sans-Serif" font-size="10.00">::compF0</text>
</a>
</g>
</g>
<!-- Node5&#45;&gt;Node8 -->
<g id="edge8" class="edge">
<title>Node5&#45;&gt;Node8</title>
<path fill="none" stroke="midnightblue" d="M539.03,-521.62C515.87,-538.21 476.95,-564.18 440,-580 427.17,-585.49 412.77,-589.99 399.26,-593.54"/>
<polygon fill="midnightblue" stroke="midnightblue" points="541.34,-524.26 547.38,-515.55 537.23,-518.6 541.34,-524.26"/>
</g>
<!-- Node9 -->
<g id="node9" class="node">
<title>Node9</title>
<g id="a_node9"><a xlink:href="a00350.xhtml#a9edc446602d49a15cf4c978289e2094a" target="_top" xlink:title=" ">
<polygon fill="white" stroke="black" points="292,-540 292,-570 403,-570 403,-540 292,-540"/>
<text text-anchor="start" x="300" y="-558" font-family="Helvetica,sans-Serif" font-size="10.00">CFeatureTimeMaxAcf</text>
<text text-anchor="middle" x="347.5" y="-547" font-family="Helvetica,sans-Serif" font-size="10.00">::compFeature</text>
</a>
</g>
</g>
<!-- Node5&#45;&gt;Node9 -->
<g id="edge9" class="edge">
<title>Node5&#45;&gt;Node9</title>
<path fill="none" stroke="midnightblue" d="M509.65,-517.67C477.53,-525.11 435.91,-534.75 403.01,-542.37"/>
<polygon fill="midnightblue" stroke="midnightblue" points="510.77,-521 519.72,-515.33 509.19,-514.18 510.77,-521"/>
</g>
<!-- Node11 -->
<g id="node11" class="node">
<title>Node11</title>
<g id="a_node11"><a xlink:href="a00454.xhtml#a463c7570302112f307363ec1c7260221" target="_top" xlink:title=" ">
<polygon fill="white" stroke="black" points="290.5,-186.5 290.5,-205.5 404.5,-205.5 404.5,-186.5 290.5,-186.5"/>
<text text-anchor="middle" x="347.5" y="-193.5" font-family="Helvetica,sans-Serif" font-size="10.00">CChordIf::compChords</text>
</a>
</g>
</g>
<!-- Node10&#45;&gt;Node11 -->
<g id="edge11" class="edge">
<title>Node10&#45;&gt;Node11</title>
<path fill="none" stroke="midnightblue" d="M469.39,-202.29C447.36,-201.14 424.44,-199.95 404.55,-198.91"/>
<polygon fill="midnightblue" stroke="midnightblue" points="469.27,-205.79 479.44,-202.81 469.63,-198.8 469.27,-205.79"/>
</g>
<!-- Node12 -->
<g id="node12" class="node">
<title>Node12</title>
<g id="a_node12"><a xlink:href="a00032.xhtml#a0ddf1224851353fc92bfbff6f499fa97" target="_top" xlink:title=" ">
<polygon fill="white" stroke="black" points="127.5,-186.5 127.5,-205.5 165.5,-205.5 165.5,-186.5 127.5,-186.5"/>
<text text-anchor="middle" x="146.5" y="-193.5" font-family="Helvetica,sans-Serif" font-size="10.00">main</text>
</a>
</g>
</g>
<!-- Node11&#45;&gt;Node12 -->
<g id="edge12" class="edge">
<title>Node11&#45;&gt;Node12</title>
<path fill="none" stroke="midnightblue" d="M280.25,-196C240.08,-196 191.74,-196 165.91,-196"/>
<polygon fill="midnightblue" stroke="midnightblue" points="280.27,-199.5 290.27,-196 280.27,-192.5 280.27,-199.5"/>
</g>
<!-- Node14 -->
<g id="node14" class="node">
<title>Node14</title>
<g id="a_node14"><a xlink:href="a00466.xhtml#a30248aa1fb336095d4d86d0bd3d2bdb8" target="_top" xlink:title=" ">
<polygon fill="white" stroke="black" points="274.5,-110.5 274.5,-129.5 420.5,-129.5 420.5,-110.5 274.5,-110.5"/>
<text text-anchor="middle" x="347.5" y="-117.5" font-family="Helvetica,sans-Serif" font-size="10.00">CFeatureIf::compFeature1Dim</text>
</a>
</g>
</g>
<!-- Node13&#45;&gt;Node14 -->
<g id="edge14" class="edge">
<title>Node13&#45;&gt;Node14</title>
<path fill="none" stroke="midnightblue" d="M502.01,-150.49C468.94,-143.92 427.96,-135.78 396.67,-129.57"/>
<polygon fill="midnightblue" stroke="midnightblue" points="501.52,-153.95 512.01,-152.47 502.88,-147.09 501.52,-153.95"/>
</g>
<!-- Node16 -->
<g id="node16" class="node">
<title>Node16</title>
<g id="a_node16"><a xlink:href="a00466.xhtml#ad734d1e300583449f51e6ca80aa3e7b8" target="_top" xlink:title=" ">
<polygon fill="white" stroke="black" points="273,-148.5 273,-167.5 422,-167.5 422,-148.5 273,-148.5"/>
<text text-anchor="middle" x="347.5" y="-155.5" font-family="Helvetica,sans-Serif" font-size="10.00">CFeatureIf::compFeatureNDim</text>
</a>
</g>
</g>
<!-- Node13&#45;&gt;Node16 -->
<g id="edge16" class="edge">
<title>Node13&#45;&gt;Node16</title>
<path fill="none" stroke="midnightblue" d="M465.75,-160.22C451.14,-159.94 436.23,-159.66 422.16,-159.39"/>
<polygon fill="midnightblue" stroke="midnightblue" points="465.74,-163.72 475.8,-160.41 465.87,-156.72 465.74,-163.72"/>
</g>
<!-- Node15 -->
<g id="node15" class="node">
<title>Node15</title>
<g id="a_node15"><a xlink:href="a00002.xhtml#a0ddf1224851353fc92bfbff6f499fa97" target="_top" xlink:title=" ">
<polygon fill="white" stroke="black" points="127.5,-110.5 127.5,-129.5 165.5,-129.5 165.5,-110.5 127.5,-110.5"/>
<text text-anchor="middle" x="146.5" y="-117.5" font-family="Helvetica,sans-Serif" font-size="10.00">main</text>
</a>
</g>
</g>
<!-- Node14&#45;&gt;Node15 -->
<g id="edge15" class="edge">
<title>Node14&#45;&gt;Node15</title>
<path fill="none" stroke="midnightblue" d="M264.22,-120C227.86,-120 188.34,-120 165.88,-120"/>
<polygon fill="midnightblue" stroke="midnightblue" points="264.38,-123.5 274.38,-120 264.38,-116.5 264.38,-123.5"/>
</g>
<!-- Node16&#45;&gt;Node15 -->
<g id="edge19" class="edge">
<title>Node16&#45;&gt;Node15</title>
<path fill="none" stroke="midnightblue" d="M286.54,-146.55C245.15,-138.65 192.84,-128.66 165.7,-123.48"/>
<polygon fill="midnightblue" stroke="midnightblue" points="286.06,-150.02 296.54,-148.46 287.37,-143.15 286.06,-150.02"/>
</g>
<!-- Node17 -->
<g id="node17" class="node">
<title>Node17</title>
<g id="a_node17"><a xlink:href="a00506.xhtml#a343e6b52e9696244dd57d4db0f91d056" target="_top" xlink:title=" ">
<polygon fill="white" stroke="black" points="104,-148.5 104,-167.5 189,-167.5 189,-148.5 104,-148.5"/>
<text text-anchor="middle" x="146.5" y="-155.5" font-family="Helvetica,sans-Serif" font-size="10.00">CKey::compKey</text>
</a>
</g>
</g>
<!-- Node16&#45;&gt;Node17 -->
<g id="edge17" class="edge">
<title>Node16&#45;&gt;Node17</title>
<path fill="none" stroke="midnightblue" d="M262.93,-158C237.51,-158 210.66,-158 189.26,-158"/>
<polygon fill="midnightblue" stroke="midnightblue" points="262.97,-161.5 272.97,-158 262.97,-154.5 262.97,-161.5"/>
</g>
<!-- Node18 -->
<g id="node18" class="node">
<title>Node18</title>
<g id="a_node18"><a xlink:href="a00029.xhtml#a0ddf1224851353fc92bfbff6f499fa97" target="_top" xlink:title=" ">
<polygon fill="white" stroke="black" points="0,-148.5 0,-167.5 38,-167.5 38,-148.5 0,-148.5"/>
<text text-anchor="middle" x="19" y="-155.5" font-family="Helvetica,sans-Serif" font-size="10.00">main</text>
</a>
</g>
</g>
<!-- Node17&#45;&gt;Node18 -->
<g id="edge18" class="edge">
<title>Node17&#45;&gt;Node18</title>
<path fill="none" stroke="midnightblue" d="M93.58,-158C73.88,-158 52.71,-158 38.16,-158"/>
<polygon fill="midnightblue" stroke="midnightblue" points="93.71,-161.5 103.71,-158 93.71,-154.5 93.71,-161.5"/>
</g>
<!-- Node20 -->
<g id="node20" class="node">
<title>Node20</title>
<g id="a_node20"><a xlink:href="a00514.xhtml#a9f110985f86064fa24aa3157bfd5cab0" target="_top" xlink:title=" ">
<polygon fill="white" stroke="black" points="285.5,-414.5 285.5,-433.5 409.5,-433.5 409.5,-414.5 285.5,-414.5"/>
<text text-anchor="middle" x="347.5" y="-421.5" font-family="Helvetica,sans-Serif" font-size="10.00">CNoveltyIf::compNovelty</text>
</a>
</g>
</g>
<!-- Node19&#45;&gt;Node20 -->
<g id="edge21" class="edge">
<title>Node19&#45;&gt;Node20</title>
<path fill="none" stroke="midnightblue" d="M465.62,-424C446.61,-424 427.11,-424 409.6,-424"/>
<polygon fill="midnightblue" stroke="midnightblue" points="465.8,-427.5 475.8,-424 465.8,-420.5 465.8,-427.5"/>
</g>
<!-- Node20&#45;&gt;Node3 -->
<g id="edge22" class="edge">
<title>Node20&#45;&gt;Node3</title>
<path fill="none" stroke="midnightblue" d="M275.46,-430.78C257.21,-432.53 237.56,-434.4 219.27,-436.15"/>
<polygon fill="midnightblue" stroke="midnightblue" points="275.82,-434.26 285.44,-429.83 275.15,-427.3 275.82,-434.26"/>
</g>
<!-- Node21 -->
<g id="node21" class="node">
<title>Node21</title>
<g id="a_node21"><a xlink:href="a00017.xhtml#a0ddf1224851353fc92bfbff6f499fa97" target="_top" xlink:title=" ">
<polygon fill="white" stroke="black" points="127.5,-395.5 127.5,-414.5 165.5,-414.5 165.5,-395.5 127.5,-395.5"/>
<text text-anchor="middle" x="146.5" y="-402.5" font-family="Helvetica,sans-Serif" font-size="10.00">main</text>
</a>
</g>
</g>
<!-- Node20&#45;&gt;Node21 -->
<g id="edge23" class="edge">
<title>Node20&#45;&gt;Node21</title>
<path fill="none" stroke="midnightblue" d="M275.13,-417.19C236.03,-413.45 190.61,-409.12 165.88,-406.75"/>
<polygon fill="midnightblue" stroke="midnightblue" points="275.15,-420.7 285.44,-418.17 275.82,-413.74 275.15,-420.7"/>
</g>
<!-- Node23 -->
<g id="node23" class="node">
<title>Node23</title>
<g id="a_node23"><a xlink:href="a00522.xhtml#a5c6fea7fdc8067f1d6a116b86d543aa1" target="_top" xlink:title=" ">
<polygon fill="white" stroke="black" points="301.5,-338.5 301.5,-357.5 393.5,-357.5 393.5,-338.5 301.5,-338.5"/>
<text text-anchor="middle" x="347.5" y="-345.5" font-family="Helvetica,sans-Serif" font-size="10.00">CPitchIf::compF0</text>
</a>
</g>
</g>
<!-- Node22&#45;&gt;Node23 -->
<g id="edge25" class="edge">
<title>Node22&#45;&gt;Node23</title>
<path fill="none" stroke="midnightblue" d="M470.84,-348C444.24,-348 416.21,-348 393.7,-348"/>
<polygon fill="midnightblue" stroke="midnightblue" points="470.94,-351.5 480.94,-348 470.94,-344.5 470.94,-351.5"/>
</g>
<!-- Node24 -->
<g id="node24" class="node">
<title>Node24</title>
<g id="a_node24"><a xlink:href="a00005.xhtml#a0ddf1224851353fc92bfbff6f499fa97" target="_top" xlink:title=" ">
<polygon fill="white" stroke="black" points="127.5,-338.5 127.5,-357.5 165.5,-357.5 165.5,-338.5 127.5,-338.5"/>
<text text-anchor="middle" x="146.5" y="-345.5" font-family="Helvetica,sans-Serif" font-size="10.00">main</text>
</a>
</g>
</g>
<!-- Node23&#45;&gt;Node24 -->
<g id="edge26" class="edge">
<title>Node23&#45;&gt;Node24</title>
<path fill="none" stroke="midnightblue" d="M291.23,-348C249.15,-348 193.81,-348 165.66,-348"/>
<polygon fill="midnightblue" stroke="midnightblue" points="291.34,-351.5 301.34,-348 291.34,-344.5 291.34,-351.5"/>
</g>
<!-- Node26 -->
<g id="node26" class="node">
<title>Node26</title>
<g id="a_node26"><a xlink:href="a00554.xhtml#afc0be480801465a0751b8c74806bf590" target="_top" xlink:title=" ">
<polygon fill="white" stroke="black" points="276,-300.5 276,-319.5 419,-319.5 419,-300.5 276,-300.5"/>
<text text-anchor="middle" x="347.5" y="-307.5" font-family="Helvetica,sans-Serif" font-size="10.00">CFingerprint::compFingerprint</text>
</a>
</g>
</g>
<!-- Node25&#45;&gt;Node26 -->
<g id="edge28" class="edge">
<title>Node25&#45;&gt;Node26</title>
<path fill="none" stroke="midnightblue" d="M485.87,-306.1C464.26,-306.72 440.72,-307.38 419.33,-307.99"/>
<polygon fill="midnightblue" stroke="midnightblue" points="486.07,-309.6 495.97,-305.82 485.87,-302.6 486.07,-309.6"/>
</g>
<!-- Node27 -->
<g id="node27" class="node">
<title>Node27</title>
<g id="a_node27"><a xlink:href="a00026.xhtml#a0ddf1224851353fc92bfbff6f499fa97" target="_top" xlink:title=" ">
<polygon fill="white" stroke="black" points="127.5,-300.5 127.5,-319.5 165.5,-319.5 165.5,-300.5 127.5,-300.5"/>
<text text-anchor="middle" x="146.5" y="-307.5" font-family="Helvetica,sans-Serif" font-size="10.00">main</text>
</a>
</g>
</g>
<!-- Node26&#45;&gt;Node27 -->
<g id="edge29" class="edge">
<title>Node26&#45;&gt;Node27</title>
<path fill="none" stroke="midnightblue" d="M265.51,-310C228.72,-310 188.44,-310 165.73,-310"/>
<polygon fill="midnightblue" stroke="midnightblue" points="265.78,-313.5 275.78,-310 265.78,-306.5 265.78,-313.5"/>
</g>
<!-- Node29 -->
<g id="node29" class="node">
<title>Node29</title>
<g id="a_node29"><a xlink:href="a00530.xhtml#ae89af275cdd54029bbf7f0f25ddf7945" target="_top" xlink:title=" ">
<polygon fill="white" stroke="black" points="255,-262.5 255,-281.5 440,-281.5 440,-262.5 255,-262.5"/>
<text text-anchor="middle" x="347.5" y="-269.5" font-family="Helvetica,sans-Serif" font-size="10.00">CSpectrogramIf::compMelSpectrogram</text>
</a>
</g>
</g>
<!-- Node28&#45;&gt;Node29 -->
<g id="edge31" class="edge">
<title>Node28&#45;&gt;Node29</title>
<path fill="none" stroke="midnightblue" d="M477.62,-261.62C465.35,-262.61 452.64,-263.63 440.19,-264.63"/>
<polygon fill="midnightblue" stroke="midnightblue" points="478.12,-265.09 487.81,-260.8 477.56,-258.12 478.12,-265.09"/>
</g>
<!-- Node31 -->
<g id="node31" class="node">
<title>Node31</title>
<g id="a_node31"><a xlink:href="a00530.xhtml#ae041a770ec2b092761d9a88cc87946bb" target="_top" xlink:title=" ">
<polygon fill="white" stroke="black" points="263,-224.5 263,-243.5 432,-243.5 432,-224.5 263,-224.5"/>
<text text-anchor="middle" x="347.5" y="-231.5" font-family="Helvetica,sans-Serif" font-size="10.00">CSpectrogramIf::compSpectrogram</text>
</a>
</g>
</g>
<!-- Node28&#45;&gt;Node31 -->
<g id="edge33" class="edge">
<title>Node28&#45;&gt;Node31</title>
<path fill="none" stroke="midnightblue" d="M477.57,-246.82C462.62,-245.33 447.01,-243.78 432.02,-242.29"/>
<polygon fill="midnightblue" stroke="midnightblue" points="477.51,-250.33 487.81,-247.83 478.2,-243.36 477.51,-250.33"/>
</g>
<!-- Node30 -->
<g id="node30" class="node">
<title>Node30</title>
<g id="a_node30"><a xlink:href="a00035.xhtml#a0ddf1224851353fc92bfbff6f499fa97" target="_top" xlink:title=" ">
<polygon fill="white" stroke="black" points="127.5,-262.5 127.5,-281.5 165.5,-281.5 165.5,-262.5 127.5,-262.5"/>
<text text-anchor="middle" x="146.5" y="-269.5" font-family="Helvetica,sans-Serif" font-size="10.00">main</text>
</a>
</g>
</g>
<!-- Node29&#45;&gt;Node30 -->
<g id="edge32" class="edge">
<title>Node29&#45;&gt;Node30</title>
<path fill="none" stroke="midnightblue" d="M244.59,-272C214.27,-272 184.24,-272 165.79,-272"/>
<polygon fill="midnightblue" stroke="midnightblue" points="244.86,-275.5 254.86,-272 244.86,-268.5 244.86,-275.5"/>
</g>
<!-- Node32 -->
<g id="node32" class="node">
<title>Node32</title>
<g id="a_node32"><a xlink:href="a00023.xhtml#a0ddf1224851353fc92bfbff6f499fa97" target="_top" xlink:title=" ">
<polygon fill="white" stroke="black" points="127.5,-224.5 127.5,-243.5 165.5,-243.5 165.5,-224.5 127.5,-224.5"/>
<text text-anchor="middle" x="146.5" y="-231.5" font-family="Helvetica,sans-Serif" font-size="10.00">main</text>
</a>
</g>
</g>
<!-- Node31&#45;&gt;Node32 -->
<g id="edge34" class="edge">
<title>Node31&#45;&gt;Node32</title>
<path fill="none" stroke="midnightblue" d="M252.74,-234C219.63,-234 185.68,-234 165.59,-234"/>
<polygon fill="midnightblue" stroke="midnightblue" points="252.97,-237.5 262.97,-234 252.97,-230.5 252.97,-237.5"/>
</g>
<!-- Node33&#45;&gt;Node5 -->
<g id="edge36" class="edge">
<title>Node33&#45;&gt;Node5</title>
<path fill="none" stroke="midnightblue" d="M707.47,-458.69C672.78,-469.98 622.82,-486.22 591.4,-496.44"/>
<polygon fill="midnightblue" stroke="midnightblue" points="708.84,-461.93 717.27,-455.51 706.67,-455.27 708.84,-461.93"/>
</g>
<!-- Node35 -->
<g id="node35" class="node">
<title>Node35</title>
<g id="a_node35"><a xlink:href="a00570.xhtml#a6ddfb025951b2206db8f98f53275d509" target="_top" xlink:title=" ">
<polygon fill="white" stroke="black" points="498.5,-114.5 498.5,-133.5 623.5,-133.5 623.5,-114.5 498.5,-114.5"/>
<text text-anchor="middle" x="561" y="-121.5" font-family="Helvetica,sans-Serif" font-size="10.00">CGmmClassifier::classify</text>
</a>
</g>
</g>
<!-- Node34&#45;&gt;Node35 -->
<g id="edge38" class="edge">
<title>Node34&#45;&gt;Node35</title>
<path fill="none" stroke="midnightblue" d="M672.15,-101.31C650.53,-105.77 627.54,-110.5 608.19,-114.49"/>
<polygon fill="midnightblue" stroke="midnightblue" points="672.88,-104.74 681.97,-99.29 671.47,-97.88 672.88,-104.74"/>
</g>
<!-- Node36 -->
<g id="node36" class="node">
<title>Node36</title>
<g id="a_node36"><a xlink:href="a00626.xhtml#a16bb56f19951aee5c4986a9dc7aeb853" target="_top" xlink:title=" ">
<polygon fill="white" stroke="black" points="522,-76.5 522,-95.5 600,-95.5 600,-76.5 522,-76.5"/>
<text text-anchor="middle" x="561" y="-83.5" font-family="Helvetica,sans-Serif" font-size="10.00">CKnn::classify</text>
</a>
</g>
</g>
<!-- Node34&#45;&gt;Node36 -->
<g id="edge39" class="edge">
<title>Node34&#45;&gt;Node36</title>
<path fill="none" stroke="midnightblue" d="M671.9,-86C647.26,-86 620.88,-86 600.13,-86"/>
<polygon fill="midnightblue" stroke="midnightblue" points="671.97,-89.5 681.97,-86 671.97,-82.5 671.97,-89.5"/>
</g>
<!-- Node37 -->
<g id="node37" class="node">
<title>Node37</title>
<g id="a_node37"><a xlink:href="a00570.xhtml#af086e0bae5cc3cb68c35745749b0fda5" target="_top" xlink:title=" ">
<polygon fill="white" stroke="black" points="506,-38.5 506,-57.5 616,-57.5 616,-38.5 506,-38.5"/>
<text text-anchor="middle" x="561" y="-45.5" font-family="Helvetica,sans-Serif" font-size="10.00">CGmmClassifier::train</text>
</a>
</g>
</g>
<!-- Node34&#45;&gt;Node37 -->
<g id="edge40" class="edge">
<title>Node34&#45;&gt;Node37</title>
<path fill="none" stroke="midnightblue" d="M672.15,-70.69C650.53,-66.23 627.54,-61.5 608.19,-57.51"/>
<polygon fill="midnightblue" stroke="midnightblue" points="671.47,-74.12 681.97,-72.71 672.88,-67.26 671.47,-74.12"/>
</g>
<!-- Node38 -->
<g id="node38" class="node">
<title>Node38</title>
<g id="a_node38"><a xlink:href="a00626.xhtml#aedd5ce22bf1cf98b70cc3757ba244b94" target="_top" xlink:title=" ">
<polygon fill="white" stroke="black" points="529,-0.5 529,-19.5 593,-19.5 593,-0.5 529,-0.5"/>
<text text-anchor="middle" x="561" y="-7.5" font-family="Helvetica,sans-Serif" font-size="10.00">CKnn::train</text>
</a>
</g>
</g>
<!-- Node34&#45;&gt;Node38 -->
<g id="edge41" class="edge">
<title>Node34&#45;&gt;Node38</title>
<path fill="none" stroke="midnightblue" d="M715.64,-65.34C696.33,-53.23 670.55,-38.5 646,-29 629.13,-22.47 609.44,-17.87 593.37,-14.83"/>
<polygon fill="midnightblue" stroke="midnightblue" points="713.98,-68.44 724.3,-70.87 717.75,-62.54 713.98,-68.44"/>
</g>
</g>
</svg>
