<?xml version="1.0" encoding="UTF-8" standalone="no"?>
<!DOCTYPE svg PUBLIC "-//W3C//DTD SVG 1.1//EN"
 "http://www.w3.org/Graphics/SVG/1.1/DTD/svg11.dtd">
<!-- Generated by graphviz version 12.2.1 (20241206.2353)
 -->
<!-- Title: CVector::mul_I Pages: 1 -->
<svg width="508pt" height="178pt"
 viewBox="0.00 0.00 507.75 178.25" xmlns="http://www.w3.org/2000/svg" xmlns:xlink="http://www.w3.org/1999/xlink">
<g id="graph0" class="graph" transform="scale(1 1) rotate(0) translate(4 174.25)">
<title>CVector::mul_I</title>
<!-- Node1 -->
<g id="Node000001" class="node">
<title>Node1</title>
<g id="a_Node000001"><a xlink:title=" ">
<polygon fill="#999999" stroke="#666666" points="499.75,-133.25 420,-133.25 420,-114 499.75,-114 499.75,-133.25"/>
<text text-anchor="middle" x="459.88" y="-119.75" font-family="Helvetica,sans-Serif" font-size="10.00">CVector::mul_I</text>
</a>
</g>
</g>
<!-- Node2 -->
<g id="Node000002" class="node">
<title>Node2</title>
<g id="a_Node000002"><a xlink:href="a00477.xhtml#ab5c17fe5c368048a3393818735dc9b8a" target="_top" xlink:title=" ">
<polygon fill="white" stroke="#666666" points="356.25,-170.25 281,-170.25 281,-151 356.25,-151 356.25,-170.25"/>
<text text-anchor="middle" x="318.62" y="-156.75" font-family="Helvetica,sans-Serif" font-size="10.00">CFft::compFft</text>
</a>
</g>
</g>
<!-- Node1&#45;&gt;Node2 -->
<g id="edge1_Node000001_Node000002" class="edge">
<title>Node1&#45;&gt;Node2</title>
<g id="a_edge1_Node000001_Node000002"><a xlink:title=" ">
<path fill="none" stroke="#63b8ff" d="M410.18,-136.56C392.61,-141.23 373.08,-146.42 356.67,-150.78"/>
<polygon fill="#63b8ff" stroke="#63b8ff" points="410.6,-140.07 419.36,-134.12 408.8,-133.31 410.6,-140.07"/>
</a>
</g>
</g>
<!-- Node5 -->
<g id="Node000005" class="node">
<title>Node5</title>
<g id="a_Node000005"><a xlink:href="a00477.xhtml#a5571d9bab4efdebd3bcf0875dffb847c" target="_top" xlink:title=" ">
<polygon fill="white" stroke="#666666" points="363,-133.25 274.25,-133.25 274.25,-114 363,-114 363,-133.25"/>
<text text-anchor="middle" x="318.62" y="-119.75" font-family="Helvetica,sans-Serif" font-size="10.00">CFft::compInvFft</text>
</a>
</g>
</g>
<!-- Node1&#45;&gt;Node5 -->
<g id="edge4_Node000001_Node000005" class="edge">
<title>Node1&#45;&gt;Node5</title>
<g id="a_edge4_Node000001_Node000005"><a xlink:title=" ">
<path fill="none" stroke="#63b8ff" d="M408.24,-123.62C393.55,-123.62 377.62,-123.62 363.38,-123.62"/>
<polygon fill="#63b8ff" stroke="#63b8ff" points="408.2,-127.13 418.2,-123.63 408.2,-120.13 408.2,-127.13"/>
</a>
</g>
</g>
<!-- Node6 -->
<g id="Node000006" class="node">
<title>Node6</title>
<g id="a_Node000006"><a xlink:href="a00465.xhtml#ac6a2a71d24b2beaa2b183d8659fd93f8" target="_top" xlink:title=" ">
<polygon fill="white" stroke="#666666" points="384,-95.88 253.25,-95.88 253.25,-65.38 384,-65.38 384,-95.88"/>
<text text-anchor="start" x="261.25" y="-82.38" font-family="Helvetica,sans-Serif" font-size="10.00">CClassifierBase::normalize</text>
<text text-anchor="middle" x="318.62" y="-71.12" font-family="Helvetica,sans-Serif" font-size="10.00">Vector</text>
</a>
</g>
</g>
<!-- Node1&#45;&gt;Node6 -->
<g id="edge5_Node000001_Node000006" class="edge">
<title>Node1&#45;&gt;Node6</title>
<g id="a_edge5_Node000001_Node000006"><a xlink:title=" ">
<path fill="none" stroke="#63b8ff" d="M415.28,-110.16C401.11,-105.79 385.26,-100.89 370.6,-96.37"/>
<polygon fill="#63b8ff" stroke="#63b8ff" points="414.19,-113.49 424.78,-113.1 416.26,-106.8 414.19,-113.49"/>
</a>
</g>
</g>
<!-- Node3 -->
<g id="Node000003" class="node">
<title>Node3</title>
<g id="a_Node000003"><a xlink:href="a00453.xhtml#a58a9a3d685f448ced2e843a60028e472" target="_top" xlink:title=" ">
<polygon fill="white" stroke="#666666" points="217.25,-170.25 73,-170.25 73,-151 217.25,-151 217.25,-170.25"/>
<text text-anchor="middle" x="145.12" y="-156.75" font-family="Helvetica,sans-Serif" font-size="10.00">CBeatHistoIf::compBeatHisto</text>
</a>
</g>
</g>
<!-- Node2&#45;&gt;Node3 -->
<g id="edge2_Node000002_Node000003" class="edge">
<title>Node2&#45;&gt;Node3</title>
<g id="a_edge2_Node000002_Node000003"><a xlink:title=" ">
<path fill="none" stroke="#63b8ff" d="M269.51,-160.62C253.36,-160.62 235,-160.62 217.46,-160.62"/>
<polygon fill="#63b8ff" stroke="#63b8ff" points="269.32,-164.13 279.32,-160.63 269.32,-157.13 269.32,-164.13"/>
</a>
</g>
</g>
<!-- Node4 -->
<g id="Node000004" class="node">
<title>Node4</title>
<g id="a_Node000004"><a xlink:href="a00023.xhtml#a0ddf1224851353fc92bfbff6f499fa97" target="_top" xlink:title=" ">
<polygon fill="white" stroke="#666666" points="37,-170.25 0,-170.25 0,-151 37,-151 37,-170.25"/>
<text text-anchor="middle" x="18.5" y="-156.75" font-family="Helvetica,sans-Serif" font-size="10.00">main</text>
</a>
</g>
</g>
<!-- Node3&#45;&gt;Node4 -->
<g id="edge3_Node000003_Node000004" class="edge">
<title>Node3&#45;&gt;Node4</title>
<g id="a_edge3_Node000003_Node000004"><a xlink:title=" ">
<path fill="none" stroke="#63b8ff" d="M61.41,-160.62C52.35,-160.62 43.94,-160.62 37.07,-160.62"/>
<polygon fill="#63b8ff" stroke="#63b8ff" points="61.2,-164.13 71.2,-160.63 61.2,-157.13 61.2,-164.13"/>
</a>
</g>
</g>
<!-- Node7 -->
<g id="Node000007" class="node">
<title>Node7</title>
<g id="a_Node000007"><a xlink:href="a00573.xhtml#a6ddfb025951b2206db8f98f53275d509" target="_top" xlink:title=" ">
<polygon fill="white" stroke="#666666" points="207.12,-130.25 83.12,-130.25 83.12,-111 207.12,-111 207.12,-130.25"/>
<text text-anchor="middle" x="145.12" y="-116.75" font-family="Helvetica,sans-Serif" font-size="10.00">CGmmClassifier::classify</text>
</a>
</g>
</g>
<!-- Node6&#45;&gt;Node7 -->
<g id="edge6_Node000006_Node000007" class="edge">
<title>Node6&#45;&gt;Node7</title>
<g id="a_edge6_Node000006_Node000007"><a xlink:title=" ">
<path fill="none" stroke="#63b8ff" d="M241.75,-98.32C223.85,-102.5 205.38,-106.81 189.49,-110.51"/>
<polygon fill="#63b8ff" stroke="#63b8ff" points="242.37,-101.77 251.31,-96.09 240.78,-94.95 242.37,-101.77"/>
</a>
</g>
</g>
<!-- Node8 -->
<g id="Node000008" class="node">
<title>Node8</title>
<g id="a_Node000008"><a xlink:href="a00629.xhtml#a16bb56f19951aee5c4986a9dc7aeb853" target="_top" xlink:title=" ">
<polygon fill="white" stroke="#666666" points="183.88,-93.25 106.38,-93.25 106.38,-74 183.88,-74 183.88,-93.25"/>
<text text-anchor="middle" x="145.12" y="-79.75" font-family="Helvetica,sans-Serif" font-size="10.00">CKnn::classify</text>
</a>
</g>
</g>
<!-- Node6&#45;&gt;Node8 -->
<g id="edge7_Node000006_Node000008" class="edge">
<title>Node6&#45;&gt;Node8</title>
<g id="a_edge7_Node000006_Node000008"><a xlink:title=" ">
<path fill="none" stroke="#63b8ff" d="M241.53,-81.96C221.67,-82.3 201.11,-82.66 184.18,-82.96"/>
<polygon fill="#63b8ff" stroke="#63b8ff" points="241.34,-85.46 251.27,-81.79 241.22,-78.46 241.34,-85.46"/>
</a>
</g>
</g>
<!-- Node9 -->
<g id="Node000009" class="node">
<title>Node9</title>
<g id="a_Node000009"><a xlink:href="a00573.xhtml#af086e0bae5cc3cb68c35745749b0fda5" target="_top" xlink:title=" ">
<polygon fill="white" stroke="#666666" points="200,-56.25 90.25,-56.25 90.25,-37 200,-37 200,-56.25"/>
<text text-anchor="middle" x="145.12" y="-42.75" font-family="Helvetica,sans-Serif" font-size="10.00">CGmmClassifier::train</text>
</a>
</g>
</g>
<!-- Node6&#45;&gt;Node9 -->
<g id="edge8_Node000006_Node000009" class="edge">
<title>Node6&#45;&gt;Node9</title>
<g id="a_edge8_Node000006_Node000009"><a xlink:title=" ">
<path fill="none" stroke="#63b8ff" d="M241.88,-65.61C226.75,-62.61 211.21,-59.53 197.16,-56.74"/>
<polygon fill="#63b8ff" stroke="#63b8ff" points="240.81,-68.97 251.3,-67.48 242.18,-62.1 240.81,-68.97"/>
</a>
</g>
</g>
<!-- Node10 -->
<g id="Node000010" class="node">
<title>Node10</title>
<g id="a_Node000010"><a xlink:href="a00629.xhtml#aedd5ce22bf1cf98b70cc3757ba244b94" target="_top" xlink:title=" ">
<polygon fill="white" stroke="#666666" points="176.75,-19.25 113.5,-19.25 113.5,0 176.75,0 176.75,-19.25"/>
<text text-anchor="middle" x="145.12" y="-5.75" font-family="Helvetica,sans-Serif" font-size="10.00">CKnn::train</text>
</a>
</g>
</g>
<!-- Node6&#45;&gt;Node10 -->
<g id="edge9_Node000006_Node000010" class="edge">
<title>Node6&#45;&gt;Node10</title>
<g id="a_edge9_Node000006_Node000010"><a xlink:title=" ">
<path fill="none" stroke="#63b8ff" d="M282.13,-59.22C263.34,-48.59 239.6,-36.21 217.25,-27.62 204.41,-22.69 189.74,-18.72 177.08,-15.77"/>
<polygon fill="#63b8ff" stroke="#63b8ff" points="280.29,-62.2 290.7,-64.16 283.78,-56.13 280.29,-62.2"/>
</a>
</g>
</g>
</g>
</svg>
