<?xml version="1.0" encoding="UTF-8" standalone="no"?>
<!DOCTYPE svg PUBLIC "-//W3C//DTD SVG 1.1//EN"
 "http://www.w3.org/Graphics/SVG/1.1/DTD/svg11.dtd">
<!-- Generated by graphviz version 12.2.1 (20241206.2353)
 -->
<!-- Title: CPitchFromBlockIf::CPitchFromBlockIf Pages: 1 -->
<svg width="919pt" height="678pt"
 viewBox="0.00 0.00 918.50 677.88" xmlns="http://www.w3.org/2000/svg" xmlns:xlink="http://www.w3.org/1999/xlink">
<g id="graph0" class="graph" transform="scale(1 1) rotate(0) translate(4 673.88)">
<title>CPitchFromBlockIf::CPitchFromBlockIf</title>
<!-- Node1 -->
<g id="Node000001" class="node">
<title>Node1</title>
<g id="a_Node000001"><a xlink:title=" ">
<polygon fill="#999999" stroke="#666666" points="910.5,-346.88 807.5,-346.88 807.5,-316.38 910.5,-316.38 910.5,-346.88"/>
<text text-anchor="start" x="815.5" y="-333.38" font-family="Helvetica,sans-Serif" font-size="10.00">CPitchFromBlockIf::</text>
<text text-anchor="middle" x="859" y="-322.12" font-family="Helvetica,sans-Serif" font-size="10.00">CPitchFromBlockIf</text>
</a>
</g>
</g>
<!-- Node2 -->
<g id="Node000002" class="node">
<title>Node2</title>
<g id="a_Node000002"><a xlink:href="a00529.xhtml#a02981a6e1aa3094a190b4bb6550b8053" target="_top" xlink:title=" ">
<polygon fill="white" stroke="#666666" points="738.5,-644.88 635.5,-644.88 635.5,-614.38 738.5,-614.38 738.5,-644.88"/>
<text text-anchor="start" x="643.5" y="-631.38" font-family="Helvetica,sans-Serif" font-size="10.00">CPitchFromBlockIf::</text>
<text text-anchor="middle" x="687" y="-620.12" font-family="Helvetica,sans-Serif" font-size="10.00">CPitchFromBlockIf</text>
</a>
</g>
</g>
<!-- Node1&#45;&gt;Node2 -->
<g id="edge1_Node000001_Node000002" class="edge">
<title>Node1&#45;&gt;Node2</title>
<g id="a_edge1_Node000001_Node000002"><a xlink:title=" ">
<path fill="none" stroke="#63b8ff" d="M857.41,-358.53C854.73,-412.87 840.86,-536.36 771.5,-604.62 762.55,-613.44 750.62,-619.16 738.6,-622.87"/>
<polygon fill="#63b8ff" stroke="#63b8ff" points="860.9,-358.79 857.79,-348.66 853.91,-358.51 860.9,-358.79"/>
</a>
</g>
</g>
<!-- Node3 -->
<g id="Node000003" class="node">
<title>Node3</title>
<g id="a_Node000003"><a xlink:href="a00381.xhtml#ad7f64995a5d0ca75139e400172a9ab42" target="_top" xlink:title=" ">
<polygon fill="white" stroke="#666666" points="737.38,-595.88 636.62,-595.88 636.62,-565.38 737.38,-565.38 737.38,-595.88"/>
<text text-anchor="start" x="644.62" y="-582.38" font-family="Helvetica,sans-Serif" font-size="10.00">CPitchSpectralAcf::</text>
<text text-anchor="middle" x="687" y="-571.12" font-family="Helvetica,sans-Serif" font-size="10.00">CPitchSpectralAcf</text>
</a>
</g>
</g>
<!-- Node1&#45;&gt;Node3 -->
<g id="edge2_Node000001_Node000003" class="edge">
<title>Node1&#45;&gt;Node3</title>
<g id="a_edge2_Node000001_Node000003"><a xlink:title=" ">
<path fill="none" stroke="#63b8ff" d="M852.17,-358.22C841.97,-399.5 817.46,-479.66 771.5,-531.62 759.03,-545.73 741.49,-556.87 725.7,-564.94"/>
<polygon fill="#63b8ff" stroke="#63b8ff" points="855.53,-359.21 854.43,-348.67 848.72,-357.59 855.53,-359.21"/>
</a>
</g>
</g>
<!-- Node6 -->
<g id="Node000006" class="node">
<title>Node6</title>
<g id="a_Node000006"><a xlink:href="a00385.xhtml#a5c1be3a6a8f0517c57384938dcad343d" target="_top" xlink:title=" ">
<polygon fill="white" stroke="#666666" points="738.88,-522.88 635.12,-522.88 635.12,-492.38 738.88,-492.38 738.88,-522.88"/>
<text text-anchor="start" x="643.12" y="-509.38" font-family="Helvetica,sans-Serif" font-size="10.00">CPitchSpectralHps::</text>
<text text-anchor="middle" x="687" y="-498.12" font-family="Helvetica,sans-Serif" font-size="10.00">CPitchSpectralHps</text>
</a>
</g>
</g>
<!-- Node1&#45;&gt;Node6 -->
<g id="edge5_Node000001_Node000006" class="edge">
<title>Node1&#45;&gt;Node6</title>
<g id="a_edge5_Node000001_Node000006"><a xlink:title=" ">
<path fill="none" stroke="#63b8ff" d="M842.15,-356.92C826.09,-381.42 799.67,-418.84 771.5,-446.62 753.73,-464.15 730.64,-480.62 713.25,-492.03"/>
<polygon fill="#63b8ff" stroke="#63b8ff" points="845.07,-358.85 847.55,-348.55 839.19,-355.06 845.07,-358.85"/>
</a>
</g>
</g>
<!-- Node9 -->
<g id="Node000009" class="node">
<title>Node9</title>
<g id="a_Node000009"><a xlink:href="a00389.xhtml#acd4920798f76cfa56accd9ba28dad6ae" target="_top" xlink:title=" ">
<polygon fill="white" stroke="#666666" points="763.25,-437.25 610.75,-437.25 610.75,-418 763.25,-418 763.25,-437.25"/>
<text text-anchor="middle" x="687" y="-423.75" font-family="Helvetica,sans-Serif" font-size="10.00">CPitchTimeAcf::CPitchTimeAcf</text>
</a>
</g>
</g>
<!-- Node1&#45;&gt;Node9 -->
<g id="edge8_Node000001_Node000009" class="edge">
<title>Node1&#45;&gt;Node9</title>
<g id="a_edge8_Node000001_Node000009"><a xlink:title=" ">
<path fill="none" stroke="#63b8ff" d="M820.73,-352.67C785.08,-372.8 732.86,-402.29 705.77,-417.59"/>
<polygon fill="#63b8ff" stroke="#63b8ff" points="822,-355.97 828.99,-348.01 818.56,-349.88 822,-355.97"/>
</a>
</g>
</g>
<!-- Node12 -->
<g id="Node000012" class="node">
<title>Node12</title>
<g id="a_Node000012"><a xlink:href="a00397.xhtml#ae4cd4f9cbbcd737053198c693b5f2225" target="_top" xlink:title=" ">
<polygon fill="white" stroke="#666666" points="771.5,-363.25 602.5,-363.25 602.5,-344 771.5,-344 771.5,-363.25"/>
<text text-anchor="middle" x="687" y="-349.75" font-family="Helvetica,sans-Serif" font-size="10.00">CPitchTimeAmdf::CPitchTimeAmdf</text>
</a>
</g>
</g>
<!-- Node1&#45;&gt;Node12 -->
<g id="edge11_Node000001_Node000012" class="edge">
<title>Node1&#45;&gt;Node12</title>
<g id="a_edge11_Node000001_Node000012"><a xlink:title=" ">
<path fill="none" stroke="#63b8ff" d="M796.2,-339.62C786.41,-340.89 776.17,-342.22 766.06,-343.52"/>
<polygon fill="#63b8ff" stroke="#63b8ff" points="796.49,-343.11 805.95,-338.36 795.59,-336.17 796.49,-343.11"/>
</a>
</g>
</g>
<!-- Node15 -->
<g id="Node000015" class="node">
<title>Node15</title>
<g id="a_Node000015"><a xlink:href="a00393.xhtml#af5f08be46100a7ecbc5450f52a96c77e" target="_top" xlink:title=" ">
<polygon fill="white" stroke="#666666" points="740.38,-325.88 633.62,-325.88 633.62,-295.38 740.38,-295.38 740.38,-325.88"/>
<text text-anchor="start" x="641.62" y="-312.38" font-family="Helvetica,sans-Serif" font-size="10.00">CPitchTimeAuditory</text>
<text text-anchor="middle" x="687" y="-301.12" font-family="Helvetica,sans-Serif" font-size="10.00">::CPitchTimeAuditory</text>
</a>
</g>
</g>
<!-- Node1&#45;&gt;Node15 -->
<g id="edge14_Node000001_Node000015" class="edge">
<title>Node1&#45;&gt;Node15</title>
<g id="a_edge14_Node000001_Node000015"><a xlink:title=" ">
<path fill="none" stroke="#63b8ff" d="M796.08,-323.98C777.92,-321.73 758.24,-319.3 740.71,-317.14"/>
<polygon fill="#63b8ff" stroke="#63b8ff" points="795.6,-327.44 805.95,-325.2 796.46,-320.5 795.6,-327.44"/>
</a>
</g>
</g>
<!-- Node18 -->
<g id="Node000018" class="node">
<title>Node18</title>
<g id="a_Node000018"><a xlink:href="a00401.xhtml#a502581cb3e2b43320a587928578c4a98" target="_top" xlink:title=" ">
<polygon fill="white" stroke="#666666" points="754.25,-252.88 619.75,-252.88 619.75,-222.38 754.25,-222.38 754.25,-252.88"/>
<text text-anchor="start" x="627.75" y="-239.38" font-family="Helvetica,sans-Serif" font-size="10.00">CPitchTimeZeroCrossings</text>
<text text-anchor="middle" x="687" y="-228.12" font-family="Helvetica,sans-Serif" font-size="10.00">::CPitchTimeZeroCrossings</text>
</a>
</g>
</g>
<!-- Node1&#45;&gt;Node18 -->
<g id="edge17_Node000001_Node000018" class="edge">
<title>Node1&#45;&gt;Node18</title>
<g id="a_edge17_Node000001_Node000018"><a xlink:title=" ">
<path fill="none" stroke="#63b8ff" d="M819.82,-310.51C788.41,-293.14 744.6,-268.92 716.26,-253.25"/>
<polygon fill="#63b8ff" stroke="#63b8ff" points="817.78,-313.38 828.22,-315.16 821.16,-307.26 817.78,-313.38"/>
</a>
</g>
</g>
<!-- Node21 -->
<g id="Node000021" class="node">
<title>Node21</title>
<g id="a_Node000021"><a xlink:href="a00529.xhtml#a1718a14a292a2a34ae92e8ce838456a3" target="_top" xlink:title=" ">
<polygon fill="white" stroke="#666666" points="738.5,-203.88 635.5,-203.88 635.5,-173.38 738.5,-173.38 738.5,-203.88"/>
<text text-anchor="start" x="643.5" y="-190.38" font-family="Helvetica,sans-Serif" font-size="10.00">CPitchFromBlockIf::</text>
<text text-anchor="middle" x="687" y="-179.12" font-family="Helvetica,sans-Serif" font-size="10.00">create</text>
</a>
</g>
</g>
<!-- Node1&#45;&gt;Node21 -->
<g id="edge20_Node000001_Node000021" class="edge">
<title>Node1&#45;&gt;Node21</title>
<g id="a_edge20_Node000001_Node000021"><a xlink:title=" ">
<path fill="none" stroke="#63b8ff" d="M845.57,-305.91C831.3,-279.05 805.43,-237.57 771.5,-213.62 761.86,-206.82 750.34,-201.84 738.98,-198.21"/>
<polygon fill="#63b8ff" stroke="#63b8ff" points="842.42,-307.45 850.1,-314.75 848.65,-304.25 842.42,-307.45"/>
</a>
</g>
</g>
<!-- Node25 -->
<g id="Node000025" class="node">
<title>Node25</title>
<g id="a_Node000025"><a xlink:href="a00529.xhtml#adadb010b152c65dc26b08f56fa700e77" target="_top" xlink:title=" ">
<polygon fill="white" stroke="#666666" points="738.5,-154.88 635.5,-154.88 635.5,-124.38 738.5,-124.38 738.5,-154.88"/>
<text text-anchor="start" x="643.5" y="-141.38" font-family="Helvetica,sans-Serif" font-size="10.00">CPitchFromBlockIf::</text>
<text text-anchor="middle" x="687" y="-130.12" font-family="Helvetica,sans-Serif" font-size="10.00">destroy</text>
</a>
</g>
</g>
<!-- Node1&#45;&gt;Node25 -->
<g id="edge24_Node000001_Node000025" class="edge">
<title>Node1&#45;&gt;Node25</title>
<g id="a_edge24_Node000001_Node000025"><a xlink:title=" ">
<path fill="none" stroke="#63b8ff" d="M851.31,-305.02C840.65,-268.12 816.31,-201.75 771.5,-164.62 762.18,-156.9 750.53,-151.56 738.92,-147.87"/>
<polygon fill="#63b8ff" stroke="#63b8ff" points="847.87,-305.72 853.89,-314.43 854.62,-303.86 847.87,-305.72"/>
</a>
</g>
</g>
<!-- Node35 -->
<g id="Node000035" class="node">
<title>Node35</title>
<g id="a_Node000035"><a xlink:href="a00529.xhtml#a8707778012c90162771312f62be77271" target="_top" xlink:title=" ">
<polygon fill="white" stroke="#666666" points="738.5,-105.88 635.5,-105.88 635.5,-75.38 738.5,-75.38 738.5,-105.88"/>
<text text-anchor="start" x="643.5" y="-92.38" font-family="Helvetica,sans-Serif" font-size="10.00">CPitchFromBlockIf::</text>
<text text-anchor="middle" x="687" y="-81.12" font-family="Helvetica,sans-Serif" font-size="10.00">operator=</text>
</a>
</g>
</g>
<!-- Node1&#45;&gt;Node35 -->
<g id="edge36_Node000001_Node000035" class="edge">
<title>Node1&#45;&gt;Node35</title>
<g id="a_edge36_Node000001_Node000035"><a xlink:title=" ">
<path fill="none" stroke="#63b8ff" d="M854.78,-304.69C847.89,-259.12 827.5,-166.8 771.5,-115.62 762.34,-107.25 750.48,-101.68 738.59,-97.97"/>
<polygon fill="#63b8ff" stroke="#63b8ff" points="851.29,-305.05 856.14,-314.47 858.23,-304.09 851.29,-305.05"/>
</a>
</g>
</g>
<!-- Node4 -->
<g id="Node000004" class="node">
<title>Node4</title>
<g id="a_Node000004"><a xlink:href="a00381.xhtml#aa287258ccabe0c81675836fa5e5ac94e" target="_top" xlink:title="disallow copy construction">
<polygon fill="white" stroke="#666666" points="532.38,-669.88 431.62,-669.88 431.62,-639.38 532.38,-639.38 532.38,-669.88"/>
<text text-anchor="start" x="439.62" y="-656.38" font-family="Helvetica,sans-Serif" font-size="10.00">CPitchSpectralAcf::</text>
<text text-anchor="middle" x="482" y="-645.12" font-family="Helvetica,sans-Serif" font-size="10.00">CPitchSpectralAcf</text>
</a>
</g>
</g>
<!-- Node3&#45;&gt;Node4 -->
<g id="edge3_Node000003_Node000004" class="edge">
<title>Node3&#45;&gt;Node4</title>
<g id="a_edge3_Node000003_Node000004"><a xlink:title=" ">
<path fill="none" stroke="#63b8ff" d="M625.72,-596.32C617.77,-599.07 609.84,-602.17 602.5,-605.62 585.1,-613.81 583.9,-621.44 566.5,-629.62 555.82,-634.65 543.89,-638.93 532.48,-642.46"/>
<polygon fill="#63b8ff" stroke="#63b8ff" points="626.67,-599.7 635.09,-593.26 624.49,-593.04 626.67,-599.7"/>
</a>
</g>
</g>
<!-- Node5 -->
<g id="Node000005" class="node">
<title>Node5</title>
<g id="a_Node000005"><a xlink:href="a00381.xhtml#a7788ddebf971ad4e2da70e14eaf851dd" target="_top" xlink:title=" ">
<polygon fill="white" stroke="#666666" points="532.38,-620.88 431.62,-620.88 431.62,-590.38 532.38,-590.38 532.38,-620.88"/>
<text text-anchor="start" x="439.62" y="-607.38" font-family="Helvetica,sans-Serif" font-size="10.00">CPitchSpectralAcf::</text>
<text text-anchor="middle" x="482" y="-596.12" font-family="Helvetica,sans-Serif" font-size="10.00">operator=</text>
</a>
</g>
</g>
<!-- Node3&#45;&gt;Node5 -->
<g id="edge4_Node000003_Node000005" class="edge">
<title>Node3&#45;&gt;Node5</title>
<g id="a_edge4_Node000003_Node000005"><a xlink:title=" ">
<path fill="none" stroke="#63b8ff" d="M624.94,-588.15C595.51,-591.77 560.65,-596.06 532.85,-599.49"/>
<polygon fill="#63b8ff" stroke="#63b8ff" points="625.34,-591.62 634.84,-586.93 624.49,-584.67 625.34,-591.62"/>
</a>
</g>
</g>
<!-- Node7 -->
<g id="Node000007" class="node">
<title>Node7</title>
<g id="a_Node000007"><a xlink:href="a00385.xhtml#a42e2207ad61b32a09bee9048f1f94c3f" target="_top" xlink:title="disallow copy construction">
<polygon fill="white" stroke="#666666" points="533.88,-571.88 430.12,-571.88 430.12,-541.38 533.88,-541.38 533.88,-571.88"/>
<text text-anchor="start" x="438.12" y="-558.38" font-family="Helvetica,sans-Serif" font-size="10.00">CPitchSpectralHps::</text>
<text text-anchor="middle" x="482" y="-547.12" font-family="Helvetica,sans-Serif" font-size="10.00">CPitchSpectralHps</text>
</a>
</g>
</g>
<!-- Node6&#45;&gt;Node7 -->
<g id="edge6_Node000006_Node000007" class="edge">
<title>Node6&#45;&gt;Node7</title>
<g id="a_edge6_Node000006_Node000007"><a xlink:title=" ">
<path fill="none" stroke="#63b8ff" d="M623.64,-522.68C594.97,-529.6 561.37,-537.71 534.21,-544.26"/>
<polygon fill="#63b8ff" stroke="#63b8ff" points="624.4,-526.09 633.3,-520.34 622.76,-519.29 624.4,-526.09"/>
</a>
</g>
</g>
<!-- Node8 -->
<g id="Node000008" class="node">
<title>Node8</title>
<g id="a_Node000008"><a xlink:href="a00385.xhtml#a54c4f1bf58f0ccf11c8a18cb954dd9bd" target="_top" xlink:title=" ">
<polygon fill="white" stroke="#666666" points="533.88,-522.88 430.12,-522.88 430.12,-492.38 533.88,-492.38 533.88,-522.88"/>
<text text-anchor="start" x="438.12" y="-509.38" font-family="Helvetica,sans-Serif" font-size="10.00">CPitchSpectralHps::</text>
<text text-anchor="middle" x="482" y="-498.12" font-family="Helvetica,sans-Serif" font-size="10.00">operator=</text>
</a>
</g>
</g>
<!-- Node6&#45;&gt;Node8 -->
<g id="edge7_Node000006_Node000008" class="edge">
<title>Node6&#45;&gt;Node8</title>
<g id="a_edge7_Node000006_Node000008"><a xlink:title=" ">
<path fill="none" stroke="#63b8ff" d="M623.26,-507.62C594.67,-507.62 561.25,-507.62 534.21,-507.62"/>
<polygon fill="#63b8ff" stroke="#63b8ff" points="623.26,-511.13 633.26,-507.63 623.26,-504.13 623.26,-511.13"/>
</a>
</g>
</g>
<!-- Node10 -->
<g id="Node000010" class="node">
<title>Node10</title>
<g id="a_Node000010"><a xlink:href="a00389.xhtml#a58e2df14aeed930a1e41749d40e65c35" target="_top" xlink:title="disallow copy construction">
<polygon fill="white" stroke="#666666" points="558.25,-474.25 405.75,-474.25 405.75,-455 558.25,-455 558.25,-474.25"/>
<text text-anchor="middle" x="482" y="-460.75" font-family="Helvetica,sans-Serif" font-size="10.00">CPitchTimeAcf::CPitchTimeAcf</text>
</a>
</g>
</g>
<!-- Node9&#45;&gt;Node10 -->
<g id="edge9_Node000009_Node000010" class="edge">
<title>Node9&#45;&gt;Node10</title>
<g id="a_edge9_Node000009_Node000010"><a xlink:title=" ">
<path fill="none" stroke="#63b8ff" d="M619.52,-439.74C593.27,-444.53 563.46,-449.96 538.4,-454.53"/>
<polygon fill="#63b8ff" stroke="#63b8ff" points="619.83,-443.24 629.04,-438.01 618.57,-436.36 619.83,-443.24"/>
</a>
</g>
</g>
<!-- Node11 -->
<g id="Node000011" class="node">
<title>Node11</title>
<g id="a_Node000011"><a xlink:href="a00389.xhtml#a9bc50b93b2afdc1782d8534fa7ed6c80" target="_top" xlink:title=" ">
<polygon fill="white" stroke="#666666" points="545.88,-437.25 418.12,-437.25 418.12,-418 545.88,-418 545.88,-437.25"/>
<text text-anchor="middle" x="482" y="-423.75" font-family="Helvetica,sans-Serif" font-size="10.00">CPitchTimeAcf::operator=</text>
</a>
</g>
</g>
<!-- Node9&#45;&gt;Node11 -->
<g id="edge10_Node000009_Node000011" class="edge">
<title>Node9&#45;&gt;Node11</title>
<g id="a_edge10_Node000009_Node000011"><a xlink:title=" ">
<path fill="none" stroke="#63b8ff" d="M598.92,-427.62C581.26,-427.62 563.01,-427.62 546.36,-427.62"/>
<polygon fill="#63b8ff" stroke="#63b8ff" points="598.9,-431.13 608.9,-427.63 598.9,-424.13 598.9,-431.13"/>
</a>
</g>
</g>
<!-- Node13 -->
<g id="Node000013" class="node">
<title>Node13</title>
<g id="a_Node000013"><a xlink:href="a00397.xhtml#a4ccf378aa36d2d0be1b67aefde03819e" target="_top" xlink:title="disallow copy construction">
<polygon fill="white" stroke="#666666" points="566.5,-400.25 397.5,-400.25 397.5,-381 566.5,-381 566.5,-400.25"/>
<text text-anchor="middle" x="482" y="-386.75" font-family="Helvetica,sans-Serif" font-size="10.00">CPitchTimeAmdf::CPitchTimeAmdf</text>
</a>
</g>
</g>
<!-- Node12&#45;&gt;Node13 -->
<g id="edge12_Node000012_Node000013" class="edge">
<title>Node12&#45;&gt;Node13</title>
<g id="a_edge12_Node000012_Node000013"><a xlink:title=" ">
<path fill="none" stroke="#63b8ff" d="M619.52,-365.74C593.27,-370.53 563.46,-375.96 538.4,-380.53"/>
<polygon fill="#63b8ff" stroke="#63b8ff" points="619.83,-369.24 629.04,-364.01 618.57,-362.36 619.83,-369.24"/>
</a>
</g>
</g>
<!-- Node14 -->
<g id="Node000014" class="node">
<title>Node14</title>
<g id="a_Node000014"><a xlink:href="a00397.xhtml#a3188421ba44e4e11ee68ad0c080efdbc" target="_top" xlink:title=" ">
<polygon fill="white" stroke="#666666" points="550,-363.25 414,-363.25 414,-344 550,-344 550,-363.25"/>
<text text-anchor="middle" x="482" y="-349.75" font-family="Helvetica,sans-Serif" font-size="10.00">CPitchTimeAmdf::operator=</text>
</a>
</g>
</g>
<!-- Node12&#45;&gt;Node14 -->
<g id="edge13_Node000012_Node000014" class="edge">
<title>Node12&#45;&gt;Node14</title>
<g id="a_edge13_Node000012_Node000014"><a xlink:title=" ">
<path fill="none" stroke="#63b8ff" d="M590.86,-353.62C577.21,-353.62 563.41,-353.62 550.45,-353.62"/>
<polygon fill="#63b8ff" stroke="#63b8ff" points="590.75,-357.13 600.75,-353.63 590.75,-350.13 590.75,-357.13"/>
</a>
</g>
</g>
<!-- Node16 -->
<g id="Node000016" class="node">
<title>Node16</title>
<g id="a_Node000016"><a xlink:href="a00393.xhtml#a11f411e863bb51d4b6709f2da2265859" target="_top" xlink:title="disallow copy construction">
<polygon fill="white" stroke="#666666" points="535.38,-325.88 428.62,-325.88 428.62,-295.38 535.38,-295.38 535.38,-325.88"/>
<text text-anchor="start" x="436.62" y="-312.38" font-family="Helvetica,sans-Serif" font-size="10.00">CPitchTimeAuditory</text>
<text text-anchor="middle" x="482" y="-301.12" font-family="Helvetica,sans-Serif" font-size="10.00">::CPitchTimeAuditory</text>
</a>
</g>
</g>
<!-- Node15&#45;&gt;Node16 -->
<g id="edge15_Node000015_Node000016" class="edge">
<title>Node15&#45;&gt;Node16</title>
<g id="a_edge15_Node000015_Node000016"><a xlink:title=" ">
<path fill="none" stroke="#63b8ff" d="M621.97,-310.62C594.14,-310.62 561.94,-310.62 535.54,-310.62"/>
<polygon fill="#63b8ff" stroke="#63b8ff" points="621.68,-314.13 631.68,-310.63 621.68,-307.13 621.68,-314.13"/>
</a>
</g>
</g>
<!-- Node17 -->
<g id="Node000017" class="node">
<title>Node17</title>
<g id="a_Node000017"><a xlink:href="a00393.xhtml#ac78dd42c996a8e981d75811810eb264e" target="_top" xlink:title=" ">
<polygon fill="white" stroke="#666666" points="533.12,-276.88 430.88,-276.88 430.88,-246.38 533.12,-246.38 533.12,-276.88"/>
<text text-anchor="start" x="438.88" y="-263.38" font-family="Helvetica,sans-Serif" font-size="10.00">CPitchTimeAuditory</text>
<text text-anchor="middle" x="482" y="-252.12" font-family="Helvetica,sans-Serif" font-size="10.00">::operator=</text>
</a>
</g>
</g>
<!-- Node15&#45;&gt;Node17 -->
<g id="edge16_Node000015_Node000017" class="edge">
<title>Node15&#45;&gt;Node17</title>
<g id="a_edge16_Node000015_Node000017"><a xlink:title=" ">
<path fill="none" stroke="#63b8ff" d="M622.08,-295.2C593.48,-288.29 560.25,-280.27 533.44,-273.8"/>
<polygon fill="#63b8ff" stroke="#63b8ff" points="621.18,-298.58 631.72,-297.52 622.82,-291.77 621.18,-298.58"/>
</a>
</g>
</g>
<!-- Node19 -->
<g id="Node000019" class="node">
<title>Node19</title>
<g id="a_Node000019"><a xlink:href="a00401.xhtml#aaf672c4bff304544f1c5fc4d98208c8c" target="_top" xlink:title="disallow copy construction">
<polygon fill="white" stroke="#666666" points="549.25,-227.88 414.75,-227.88 414.75,-197.38 549.25,-197.38 549.25,-227.88"/>
<text text-anchor="start" x="422.75" y="-214.38" font-family="Helvetica,sans-Serif" font-size="10.00">CPitchTimeZeroCrossings</text>
<text text-anchor="middle" x="482" y="-203.12" font-family="Helvetica,sans-Serif" font-size="10.00">::CPitchTimeZeroCrossings</text>
</a>
</g>
</g>
<!-- Node18&#45;&gt;Node19 -->
<g id="edge18_Node000018_Node000019" class="edge">
<title>Node18&#45;&gt;Node19</title>
<g id="a_edge18_Node000018_Node000019"><a xlink:title=" ">
<path fill="none" stroke="#63b8ff" d="M608.3,-228.06C588.95,-225.67 568.38,-223.14 549.62,-220.83"/>
<polygon fill="#63b8ff" stroke="#63b8ff" points="607.68,-231.51 618.03,-229.25 608.53,-224.56 607.68,-231.51"/>
</a>
</g>
</g>
<!-- Node20 -->
<g id="Node000020" class="node">
<title>Node20</title>
<g id="a_Node000020"><a xlink:href="a00401.xhtml#ab5ca729bf2d6d8fcd0babe9f2910465d" target="_top" xlink:title=" ">
<polygon fill="white" stroke="#666666" points="547,-178.88 417,-178.88 417,-148.38 547,-148.38 547,-178.88"/>
<text text-anchor="start" x="425" y="-165.38" font-family="Helvetica,sans-Serif" font-size="10.00">CPitchTimeZeroCrossings</text>
<text text-anchor="middle" x="482" y="-154.12" font-family="Helvetica,sans-Serif" font-size="10.00">::operator=</text>
</a>
</g>
</g>
<!-- Node18&#45;&gt;Node20 -->
<g id="edge19_Node000018_Node000020" class="edge">
<title>Node18&#45;&gt;Node20</title>
<g id="a_edge19_Node000018_Node000020"><a xlink:title=" ">
<path fill="none" stroke="#63b8ff" d="M615.44,-218.15C611.01,-216.42 606.66,-214.58 602.5,-212.62 585.1,-204.44 583.9,-196.81 566.5,-188.62 559.1,-185.15 551.11,-182.03 543.11,-179.26"/>
<polygon fill="#63b8ff" stroke="#63b8ff" points="613.88,-221.31 624.47,-221.47 616.29,-214.74 613.88,-221.31"/>
</a>
</g>
</g>
<!-- Node22 -->
<g id="Node000022" class="node">
<title>Node22</title>
<g id="a_Node000022"><a xlink:href="a00525.xhtml#a3a966aff4a49e12324f205b20c5f2232" target="_top" xlink:title="init configuration">
<polygon fill="white" stroke="#666666" points="518.88,-130.25 445.12,-130.25 445.12,-111 518.88,-111 518.88,-130.25"/>
<text text-anchor="middle" x="482" y="-116.75" font-family="Helvetica,sans-Serif" font-size="10.00">CPitchIf::init_</text>
</a>
</g>
</g>
<!-- Node21&#45;&gt;Node22 -->
<g id="edge21_Node000021_Node000022" class="edge">
<title>Node21&#45;&gt;Node22</title>
<g id="a_edge21_Node000021_Node000022"><a xlink:title=" ">
<path fill="none" stroke="#63b8ff" d="M624.29,-172.43C616.82,-169.8 609.4,-166.87 602.5,-163.62 585.1,-155.44 584.17,-147.22 566.5,-139.62 551.61,-133.23 534.26,-128.83 519.25,-125.9"/>
<polygon fill="#63b8ff" stroke="#63b8ff" points="623.17,-175.75 633.77,-175.57 625.38,-169.1 623.17,-175.75"/>
</a>
</g>
</g>
<!-- Node23 -->
<g id="Node000023" class="node">
<title>Node23</title>
<g id="a_Node000023"><a xlink:href="a00373.xhtml#ab74f454ce0bbdccd22a38066ce26b16a" target="_top" xlink:title=" ">
<polygon fill="white" stroke="#666666" points="361.5,-130.25 206,-130.25 206,-111 361.5,-111 361.5,-130.25"/>
<text text-anchor="middle" x="283.75" y="-116.75" font-family="Helvetica,sans-Serif" font-size="10.00">CPitchFromFile::CPitchFromFile</text>
</a>
</g>
</g>
<!-- Node22&#45;&gt;Node23 -->
<g id="edge22_Node000022_Node000023" class="edge">
<title>Node22&#45;&gt;Node23</title>
<g id="a_edge22_Node000022_Node000023"><a xlink:title=" ">
<path fill="none" stroke="#63b8ff" d="M433.57,-120.62C412.1,-120.62 386.16,-120.62 361.99,-120.62"/>
<polygon fill="#63b8ff" stroke="#63b8ff" points="433.49,-124.13 443.49,-120.63 433.49,-117.13 433.49,-124.13"/>
</a>
</g>
</g>
<!-- Node24 -->
<g id="Node000024" class="node">
<title>Node24</title>
<g id="a_Node000024"><a xlink:href="a00377.xhtml#a383eb44fd89db6be0119177effcf90bd" target="_top" xlink:title=" ">
<polygon fill="white" stroke="#666666" points="348.75,-178.88 218.75,-178.88 218.75,-148.38 348.75,-148.38 348.75,-178.88"/>
<text text-anchor="start" x="226.75" y="-165.38" font-family="Helvetica,sans-Serif" font-size="10.00">CPitchFromVector::CPitch</text>
<text text-anchor="middle" x="283.75" y="-154.12" font-family="Helvetica,sans-Serif" font-size="10.00">FromVector</text>
</a>
</g>
</g>
<!-- Node22&#45;&gt;Node24 -->
<g id="edge23_Node000022_Node000024" class="edge">
<title>Node22&#45;&gt;Node24</title>
<g id="a_edge23_Node000022_Node000024"><a xlink:title=" ">
<path fill="none" stroke="#63b8ff" d="M433.82,-130.96C408.42,-136.53 376.73,-143.47 349.1,-149.52"/>
<polygon fill="#63b8ff" stroke="#63b8ff" points="434.51,-134.4 443.53,-128.84 433.01,-127.56 434.51,-134.4"/>
</a>
</g>
</g>
<!-- Node26 -->
<g id="Node000026" class="node">
<title>Node26</title>
<g id="a_Node000026"><a xlink:href="a00525.xhtml#a0841d88981bfe343f6439b7d4174a30b" target="_top" xlink:title="reset configuration">
<polygon fill="white" stroke="#666666" points="523.38,-93.25 440.62,-93.25 440.62,-74 523.38,-74 523.38,-93.25"/>
<text text-anchor="middle" x="482" y="-79.75" font-family="Helvetica,sans-Serif" font-size="10.00">CPitchIf::reset_</text>
</a>
</g>
</g>
<!-- Node25&#45;&gt;Node26 -->
<g id="edge25_Node000025_Node000026" class="edge">
<title>Node25&#45;&gt;Node26</title>
<g id="a_edge25_Node000025_Node000026"><a xlink:title=" ">
<path fill="none" stroke="#63b8ff" d="M624.08,-121.51C616.79,-119.25 609.47,-116.92 602.5,-114.62 586.35,-109.29 582.85,-106.32 566.5,-101.62 552.67,-97.66 537.34,-94.11 523.62,-91.24"/>
<polygon fill="#63b8ff" stroke="#63b8ff" points="623.04,-124.85 633.63,-124.43 625.09,-118.16 623.04,-124.85"/>
</a>
</g>
</g>
<!-- Node26&#45;&gt;Node23 -->
<g id="edge26_Node000026_Node000023" class="edge">
<title>Node26&#45;&gt;Node23</title>
<g id="a_edge26_Node000026_Node000023"><a xlink:title=" ">
<path fill="none" stroke="#63b8ff" d="M429.17,-93.4C401.18,-98.67 366.67,-105.18 338.4,-110.51"/>
<polygon fill="#63b8ff" stroke="#63b8ff" points="429.67,-96.86 438.85,-91.57 428.37,-89.99 429.67,-96.86"/>
</a>
</g>
</g>
<!-- Node27 -->
<g id="Node000027" class="node">
<title>Node27</title>
<g id="a_Node000027"><a xlink:href="a00525.xhtml#a6e2c59c5b6bb651075bd0e9d65edd383" target="_top" xlink:title=" ">
<polygon fill="white" stroke="#666666" points="329.25,-93.25 238.25,-93.25 238.25,-74 329.25,-74 329.25,-93.25"/>
<text text-anchor="middle" x="283.75" y="-79.75" font-family="Helvetica,sans-Serif" font-size="10.00">CPitchIf::CPitchIf</text>
</a>
</g>
</g>
<!-- Node26&#45;&gt;Node27 -->
<g id="edge27_Node000026_Node000027" class="edge">
<title>Node26&#45;&gt;Node27</title>
<g id="a_edge27_Node000026_Node000027"><a xlink:title=" ">
<path fill="none" stroke="#63b8ff" d="M428.89,-83.62C397.92,-83.62 359.04,-83.62 329.47,-83.62"/>
<polygon fill="#63b8ff" stroke="#63b8ff" points="428.82,-87.13 438.82,-83.63 428.82,-80.13 428.82,-87.13"/>
</a>
</g>
</g>
<!-- Node34 -->
<g id="Node000034" class="node">
<title>Node34</title>
<g id="a_Node000034"><a xlink:href="a00525.xhtml#a4df4a76c5c6a23618ad9889dd8855f2b" target="_top" xlink:title=" ">
<polygon fill="white" stroke="#666666" points="331.88,-56.25 235.62,-56.25 235.62,-37 331.88,-37 331.88,-56.25"/>
<text text-anchor="middle" x="283.75" y="-42.75" font-family="Helvetica,sans-Serif" font-size="10.00">CPitchIf::~CPitchIf</text>
</a>
</g>
</g>
<!-- Node26&#45;&gt;Node34 -->
<g id="edge35_Node000026_Node000034" class="edge">
<title>Node26&#45;&gt;Node34</title>
<g id="a_edge35_Node000026_Node000034"><a xlink:title=" ">
<path fill="none" stroke="#63b8ff" d="M429.22,-73.86C399.16,-68.2 361.57,-61.11 332.27,-55.58"/>
<polygon fill="#63b8ff" stroke="#63b8ff" points="428.37,-77.26 438.85,-75.68 429.67,-70.39 428.37,-77.26"/>
</a>
</g>
</g>
<!-- Node28 -->
<g id="Node000028" class="node">
<title>Node28</title>
<g id="a_Node000028"><a xlink:href="a00525.xhtml#a471f3abdc762d211aa8d44384b6a19f8" target="_top" xlink:title=" ">
<polygon fill="white" stroke="#666666" points="167,-167.25 76,-167.25 76,-148 167,-148 167,-167.25"/>
<text text-anchor="middle" x="121.5" y="-153.75" font-family="Helvetica,sans-Serif" font-size="10.00">CPitchIf::CPitchIf</text>
</a>
</g>
</g>
<!-- Node27&#45;&gt;Node28 -->
<g id="edge28_Node000027_Node000028" class="edge">
<title>Node27&#45;&gt;Node28</title>
<g id="a_edge28_Node000027_Node000028"><a xlink:title=" ">
<path fill="none" stroke="#63b8ff" d="M227.21,-92.54C219.82,-94.9 212.54,-97.87 206,-101.62 185.83,-113.21 189.37,-126.73 170,-139.62 165.45,-142.65 160.32,-145.27 155.15,-147.5"/>
<polygon fill="#63b8ff" stroke="#63b8ff" points="227.91,-95.98 236.61,-89.93 226.04,-89.24 227.91,-95.98"/>
</a>
</g>
</g>
<!-- Node29 -->
<g id="Node000029" class="node">
<title>Node29</title>
<g id="a_Node000029"><a xlink:href="a00525.xhtml#a484154165e534258c31a02d78b531b11" target="_top" xlink:title=" ">
<polygon fill="white" stroke="#666666" points="162.88,-130.25 80.12,-130.25 80.12,-111 162.88,-111 162.88,-130.25"/>
<text text-anchor="middle" x="121.5" y="-116.75" font-family="Helvetica,sans-Serif" font-size="10.00">CPitchIf::create</text>
</a>
</g>
</g>
<!-- Node27&#45;&gt;Node29 -->
<g id="edge29_Node000027_Node000029" class="edge">
<title>Node27&#45;&gt;Node29</title>
<g id="a_edge29_Node000027_Node000029"><a xlink:title=" ">
<path fill="none" stroke="#63b8ff" d="M227.83,-96.31C206.64,-101.2 182.82,-106.7 163.21,-111.23"/>
<polygon fill="#63b8ff" stroke="#63b8ff" points="228.53,-99.74 237.49,-94.08 226.96,-92.92 228.53,-99.74"/>
</a>
</g>
</g>
<!-- Node30 -->
<g id="Node000030" class="node">
<title>Node30</title>
<g id="a_Node000030"><a xlink:href="a00525.xhtml#aad21e51c82ea3cfb6b495b39acd40412" target="_top" xlink:title=" ">
<polygon fill="white" stroke="#666666" points="162.88,-93.25 80.12,-93.25 80.12,-74 162.88,-74 162.88,-93.25"/>
<text text-anchor="middle" x="121.5" y="-79.75" font-family="Helvetica,sans-Serif" font-size="10.00">CPitchIf::create</text>
</a>
</g>
</g>
<!-- Node27&#45;&gt;Node30 -->
<g id="edge30_Node000027_Node000030" class="edge">
<title>Node27&#45;&gt;Node30</title>
<g id="a_edge30_Node000027_Node000030"><a xlink:title=" ">
<path fill="none" stroke="#63b8ff" d="M226.8,-83.62C205.91,-83.62 182.61,-83.62 163.33,-83.62"/>
<polygon fill="#63b8ff" stroke="#63b8ff" points="226.6,-87.13 236.6,-83.63 226.6,-80.13 226.6,-87.13"/>
</a>
</g>
</g>
<!-- Node32 -->
<g id="Node000032" class="node">
<title>Node32</title>
<g id="a_Node000032"><a xlink:href="a00525.xhtml#a4eee721e50a85ed9d48f7a84d9144a3b" target="_top" xlink:title=" ">
<polygon fill="white" stroke="#666666" points="165.12,-56.25 77.88,-56.25 77.88,-37 165.12,-37 165.12,-56.25"/>
<text text-anchor="middle" x="121.5" y="-42.75" font-family="Helvetica,sans-Serif" font-size="10.00">CPitchIf::destroy</text>
</a>
</g>
</g>
<!-- Node27&#45;&gt;Node32 -->
<g id="edge32_Node000027_Node000032" class="edge">
<title>Node27&#45;&gt;Node32</title>
<g id="a_edge32_Node000027_Node000032"><a xlink:title=" ">
<path fill="none" stroke="#63b8ff" d="M227.9,-70.96C207.48,-66.24 184.61,-60.96 165.4,-56.53"/>
<polygon fill="#63b8ff" stroke="#63b8ff" points="226.96,-74.33 237.49,-73.17 228.53,-67.51 226.96,-74.33"/>
</a>
</g>
</g>
<!-- Node33 -->
<g id="Node000033" class="node">
<title>Node33</title>
<g id="a_Node000033"><a xlink:href="a00525.xhtml#a83c9ba6d865c2b239adeeceaa8691fdf" target="_top" xlink:title=" ">
<polygon fill="white" stroke="#666666" points="170,-19.25 73,-19.25 73,0 170,0 170,-19.25"/>
<text text-anchor="middle" x="121.5" y="-5.75" font-family="Helvetica,sans-Serif" font-size="10.00">CPitchIf::operator=</text>
</a>
</g>
</g>
<!-- Node27&#45;&gt;Node33 -->
<g id="edge34_Node000027_Node000033" class="edge">
<title>Node27&#45;&gt;Node33</title>
<g id="a_edge34_Node000027_Node000033"><a xlink:title=" ">
<path fill="none" stroke="#63b8ff" d="M227.21,-74.71C219.82,-72.35 212.54,-69.38 206,-65.62 185.83,-54.04 189.37,-40.52 170,-27.62 165.45,-24.6 160.32,-21.98 155.15,-19.75"/>
<polygon fill="#63b8ff" stroke="#63b8ff" points="226.04,-78.01 236.61,-77.32 227.91,-71.27 226.04,-78.01"/>
</a>
</g>
</g>
<!-- Node31 -->
<g id="Node000031" class="node">
<title>Node31</title>
<g id="a_Node000031"><a xlink:href="a00119.xhtml#a0ddf1224851353fc92bfbff6f499fa97" target="_top" xlink:title=" ">
<polygon fill="white" stroke="#666666" points="37,-74.25 0,-74.25 0,-55 37,-55 37,-74.25"/>
<text text-anchor="middle" x="18.5" y="-60.75" font-family="Helvetica,sans-Serif" font-size="10.00">main</text>
</a>
</g>
</g>
<!-- Node30&#45;&gt;Node31 -->
<g id="edge31_Node000030_Node000031" class="edge">
<title>Node30&#45;&gt;Node31</title>
<g id="a_edge31_Node000030_Node000031"><a xlink:title=" ">
<path fill="none" stroke="#63b8ff" d="M68.57,-73.86C57.39,-71.75 46.29,-69.67 37.49,-68.01"/>
<polygon fill="#63b8ff" stroke="#63b8ff" points="67.75,-77.26 78.22,-75.67 69.04,-70.38 67.75,-77.26"/>
</a>
</g>
</g>
<!-- Node32&#45;&gt;Node31 -->
<g id="edge33_Node000032_Node000031" class="edge">
<title>Node32&#45;&gt;Node31</title>
<g id="a_edge33_Node000032_Node000031"><a xlink:title=" ">
<path fill="none" stroke="#63b8ff" d="M66.35,-56.27C55.93,-58.13 45.71,-59.95 37.49,-61.42"/>
<polygon fill="#63b8ff" stroke="#63b8ff" points="66.95,-59.72 76.18,-54.52 65.72,-52.83 66.95,-59.72"/>
</a>
</g>
</g>
</g>
</svg>
