<?xml version="1.0" encoding="UTF-8" standalone="no"?>
<!DOCTYPE svg PUBLIC "-//W3C//DTD SVG 1.1//EN"
 "http://www.w3.org/Graphics/SVG/1.1/DTD/svg11.dtd">
<!-- Generated by graphviz version 4.0.0 (20220602.1335)
 -->
<!-- Title: CKnn::init Pages: 1 -->
<svg width="455pt" height="434pt"
 viewBox="0.00 0.00 455.00 433.79" xmlns="http://www.w3.org/2000/svg" xmlns:xlink="http://www.w3.org/1999/xlink">
<g id="graph0" class="graph" transform="scale(1 1) rotate(0) translate(4 429.79)">
<title>CKnn::init</title>
<polygon fill="white" stroke="transparent" points="-4,4 -4,-429.79 451,-429.79 451,4 -4,4"/>
<!-- Node1 -->
<g id="node1" class="node">
<title>Node1</title>
<g id="a_node1"><a xlink:title=" ">
<polygon fill="#bfbfbf" stroke="black" points="0,-209.5 0,-228.5 58,-228.5 58,-209.5 0,-209.5"/>
<text text-anchor="middle" x="29" y="-216.5" font-family="Helvetica,sans-Serif" font-size="10.00">CKnn::init</text>
</a>
</g>
</g>
<!-- Node2 -->
<g id="node2" class="node">
<title>Node2</title>
<g id="a_node2"><a xlink:href="a00495.xhtml#abaadac98b1cad18b7b568852bc951696" target="_top" xlink:title=" ">
<polygon fill="white" stroke="black" points="235.5,-380.5 235.5,-399.5 312.5,-399.5 312.5,-380.5 235.5,-380.5"/>
<text text-anchor="middle" x="274" y="-387.5" font-family="Helvetica,sans-Serif" font-size="10.00">CVector::alloc</text>
</a>
</g>
</g>
<!-- Node1&#45;&gt;Node2 -->
<g id="edge1" class="edge">
<title>Node1&#45;&gt;Node2</title>
<path fill="none" stroke="midnightblue" d="M29.72,-228.7C29.39,-261 33.22,-365.34 94,-409 138.73,-441.14 206.72,-420.02 244.73,-403.74"/>
<polygon fill="midnightblue" stroke="midnightblue" points="246.46,-406.8 254.17,-399.53 243.61,-400.41 246.46,-406.8"/>
</g>
<!-- Node3 -->
<g id="node3" class="node">
<title>Node3</title>
<g id="a_node3"><a xlink:href="a00495.xhtml#a6dbb3f9f480568b60f7fe50090d20003" target="_top" xlink:title=" ">
<polygon fill="white" stroke="black" points="357.5,-361.5 357.5,-380.5 446.5,-380.5 446.5,-361.5 357.5,-361.5"/>
<text text-anchor="middle" x="402" y="-368.5" font-family="Helvetica,sans-Serif" font-size="10.00">CVector::setZero</text>
</a>
</g>
</g>
<!-- Node1&#45;&gt;Node3 -->
<g id="edge16" class="edge">
<title>Node1&#45;&gt;Node3</title>
<path fill="none" stroke="midnightblue" d="M32.26,-228.67C38.09,-251.24 55.93,-307.45 94,-333 134.19,-359.98 270.01,-367.81 346.85,-370.07"/>
<polygon fill="midnightblue" stroke="midnightblue" points="347.19,-373.58 357.29,-370.36 347.38,-366.59 347.19,-373.58"/>
</g>
<!-- Node4 -->
<g id="node4" class="node">
<title>Node4</title>
<g id="a_node4"><a xlink:href="a00479.xhtml#a6501b78d76c912d49eee88c8f7242923" target="_top" xlink:title=" ">
<polygon fill="white" stroke="black" points="105.5,-380.5 105.5,-399.5 179.5,-399.5 179.5,-380.5 105.5,-380.5"/>
<text text-anchor="middle" x="142.5" y="-387.5" font-family="Helvetica,sans-Serif" font-size="10.00">CMatrix::alloc</text>
</a>
</g>
</g>
<!-- Node1&#45;&gt;Node4 -->
<g id="edge3" class="edge">
<title>Node1&#45;&gt;Node4</title>
<path fill="none" stroke="midnightblue" d="M31.87,-228.86C37.18,-254.53 54.63,-324.31 94,-366 97.39,-369.59 101.43,-372.73 105.71,-375.44"/>
<polygon fill="midnightblue" stroke="midnightblue" points="104.25,-378.63 114.69,-380.44 107.65,-372.52 104.25,-378.63"/>
</g>
<!-- Node5 -->
<g id="node5" class="node">
<title>Node5</title>
<g id="a_node5"><a xlink:href="a00495.xhtml#ad7c5cba73e439adac77778f61c9418f0" target="_top" xlink:title=" ">
<polygon fill="white" stroke="black" points="104,-304.5 104,-323.5 181,-323.5 181,-304.5 104,-304.5"/>
<text text-anchor="middle" x="142.5" y="-311.5" font-family="Helvetica,sans-Serif" font-size="10.00">CVector::copy</text>
</a>
</g>
</g>
<!-- Node1&#45;&gt;Node5 -->
<g id="edge5" class="edge">
<title>Node1&#45;&gt;Node5</title>
<path fill="none" stroke="midnightblue" d="M35.91,-228.72C45.99,-244.6 67.99,-276.21 94,-295 96.51,-296.81 99.22,-298.49 102.02,-300.02"/>
<polygon fill="midnightblue" stroke="midnightblue" points="100.67,-303.25 111.19,-304.47 103.72,-296.96 100.67,-303.25"/>
</g>
<!-- Node6 -->
<g id="node6" class="node">
<title>Node6</title>
<g id="a_node6"><a xlink:href="a00495.xhtml#a9f5be871090bc5a64a7732cebfb4f8ec" target="_top" xlink:title=" ">
<polygon fill="white" stroke="black" points="98.5,-266.5 98.5,-285.5 186.5,-285.5 186.5,-266.5 98.5,-266.5"/>
<text text-anchor="middle" x="142.5" y="-273.5" font-family="Helvetica,sans-Serif" font-size="10.00">CVector::getMax</text>
</a>
</g>
</g>
<!-- Node1&#45;&gt;Node6 -->
<g id="edge6" class="edge">
<title>Node1&#45;&gt;Node6</title>
<path fill="none" stroke="midnightblue" d="M48.46,-228.57C61.24,-235.18 78.63,-244.16 94,-252 100.3,-255.22 107.09,-258.66 113.5,-261.9"/>
<polygon fill="midnightblue" stroke="midnightblue" points="112.02,-265.08 122.53,-266.46 115.18,-258.83 112.02,-265.08"/>
</g>
<!-- Node8 -->
<g id="node8" class="node">
<title>Node8</title>
<g id="a_node8"><a xlink:href="a00495.xhtml#ae6e3545cf196c5e2409365bc62b7c1de" target="_top" xlink:title=" ">
<polygon fill="white" stroke="black" points="227,-209.5 227,-228.5 321,-228.5 321,-209.5 227,-209.5"/>
<text text-anchor="middle" x="274" y="-216.5" font-family="Helvetica,sans-Serif" font-size="10.00">CVector::getMean</text>
</a>
</g>
</g>
<!-- Node1&#45;&gt;Node8 -->
<g id="edge8" class="edge">
<title>Node1&#45;&gt;Node8</title>
<path fill="none" stroke="midnightblue" d="M58.35,-219C96.92,-219 166.79,-219 216.33,-219"/>
<polygon fill="midnightblue" stroke="midnightblue" points="216.58,-222.5 226.58,-219 216.58,-215.5 216.58,-222.5"/>
</g>
<!-- Node10 -->
<g id="node10" class="node">
<title>Node10</title>
<g id="a_node10"><a xlink:href="a00495.xhtml#a1f7f307c20239cfd2007393e2b3b26df" target="_top" xlink:title=" ">
<polygon fill="white" stroke="black" points="99.5,-152.5 99.5,-171.5 185.5,-171.5 185.5,-152.5 99.5,-152.5"/>
<text text-anchor="middle" x="142.5" y="-159.5" font-family="Helvetica,sans-Serif" font-size="10.00">CVector::getMin</text>
</a>
</g>
</g>
<!-- Node1&#45;&gt;Node10 -->
<g id="edge10" class="edge">
<title>Node1&#45;&gt;Node10</title>
<path fill="none" stroke="midnightblue" d="M44.64,-209.42C57.38,-201.3 76.5,-189.63 94,-181 97.85,-179.1 101.95,-177.24 106.05,-175.47"/>
<polygon fill="midnightblue" stroke="midnightblue" points="107.64,-178.6 115.54,-171.54 104.96,-172.13 107.64,-178.6"/>
</g>
<!-- Node12 -->
<g id="node12" class="node">
<title>Node12</title>
<g id="a_node12"><a xlink:href="a00495.xhtml#ae2ed42101e3d7075f5dec265a23f3424" target="_top" xlink:title=" ">
<polygon fill="white" stroke="black" points="100,-190.5 100,-209.5 185,-209.5 185,-190.5 100,-190.5"/>
<text text-anchor="middle" x="142.5" y="-197.5" font-family="Helvetica,sans-Serif" font-size="10.00">CVector::getStd</text>
</a>
</g>
</g>
<!-- Node1&#45;&gt;Node12 -->
<g id="edge12" class="edge">
<title>Node1&#45;&gt;Node12</title>
<path fill="none" stroke="midnightblue" d="M58.14,-214.21C67.82,-212.56 78.98,-210.65 89.94,-208.79"/>
<polygon fill="midnightblue" stroke="midnightblue" points="90.61,-212.22 99.88,-207.09 89.44,-205.32 90.61,-212.22"/>
</g>
<!-- Node13 -->
<g id="node13" class="node">
<title>Node13</title>
<g id="a_node13"><a xlink:href="a00495.xhtml#a5fb59528a3f5d3968f988d550b270898" target="_top" xlink:title=" ">
<polygon fill="white" stroke="black" points="102.5,-114.5 102.5,-133.5 182.5,-133.5 182.5,-114.5 102.5,-114.5"/>
<text text-anchor="middle" x="142.5" y="-121.5" font-family="Helvetica,sans-Serif" font-size="10.00">CVector::mul_I</text>
</a>
</g>
</g>
<!-- Node1&#45;&gt;Node13 -->
<g id="edge14" class="edge">
<title>Node1&#45;&gt;Node13</title>
<path fill="none" stroke="midnightblue" d="M35.91,-209.28C45.99,-193.4 67.99,-161.79 94,-143 96.51,-141.19 99.22,-139.51 102.02,-137.98"/>
<polygon fill="midnightblue" stroke="midnightblue" points="103.72,-141.04 111.19,-133.53 100.67,-134.75 103.72,-141.04"/>
</g>
<!-- Node14 -->
<g id="node14" class="node">
<title>Node14</title>
<g id="a_node14"><a xlink:href="a00495.xhtml#a4cf9544dd96801e3ee47fd1ef2049a1b" target="_top" xlink:title=" ">
<polygon fill="white" stroke="black" points="95,-76.5 95,-95.5 190,-95.5 190,-76.5 95,-76.5"/>
<text text-anchor="middle" x="142.5" y="-83.5" font-family="Helvetica,sans-Serif" font-size="10.00">CVector::setValue</text>
</a>
</g>
</g>
<!-- Node1&#45;&gt;Node14 -->
<g id="edge15" class="edge">
<title>Node1&#45;&gt;Node14</title>
<path fill="none" stroke="midnightblue" d="M32.95,-209.32C40,-187.67 59.87,-134.93 94,-105 95.74,-103.48 97.61,-102.07 99.57,-100.77"/>
<polygon fill="midnightblue" stroke="midnightblue" points="101.61,-103.64 108.63,-95.71 98.2,-97.53 101.61,-103.64"/>
</g>
<!-- Node15 -->
<g id="node15" class="node">
<title>Node15</title>
<g id="a_node15"><a xlink:href="a00495.xhtml#a39329371d828db80c2f0ad037074c998" target="_top" xlink:title=" ">
<polygon fill="white" stroke="black" points="102.5,-38.5 102.5,-57.5 182.5,-57.5 182.5,-38.5 102.5,-38.5"/>
<text text-anchor="middle" x="142.5" y="-45.5" font-family="Helvetica,sans-Serif" font-size="10.00">CVector::sub_I</text>
</a>
</g>
</g>
<!-- Node1&#45;&gt;Node15 -->
<g id="edge17" class="edge">
<title>Node1&#45;&gt;Node15</title>
<path fill="none" stroke="midnightblue" d="M31.42,-209.37C35.82,-182.99 51.51,-108.73 94,-67 95.6,-65.43 97.34,-63.99 99.18,-62.66"/>
<polygon fill="midnightblue" stroke="midnightblue" points="100.97,-65.67 107.78,-57.55 97.39,-59.65 100.97,-65.67"/>
</g>
<!-- Node16 -->
<g id="node16" class="node">
<title>Node16</title>
<g id="a_node16"><a xlink:href="a00479.xhtml#ab2af0440df04eb1c165231c695e43bf6" target="_top" xlink:title=" ">
<polygon fill="white" stroke="black" points="94,-0.5 94,-19.5 191,-19.5 191,-0.5 94,-0.5"/>
<text text-anchor="middle" x="142.5" y="-7.5" font-family="Helvetica,sans-Serif" font-size="10.00">CMatrix::transpose</text>
</a>
</g>
</g>
<!-- Node1&#45;&gt;Node16 -->
<g id="edge18" class="edge">
<title>Node1&#45;&gt;Node16</title>
<path fill="none" stroke="midnightblue" d="M30.5,-209.28C32.58,-178.63 43.05,-82.86 94,-29 95.37,-27.55 96.87,-26.2 98.46,-24.96"/>
<polygon fill="midnightblue" stroke="midnightblue" points="100.45,-27.85 107.04,-19.55 96.72,-21.92 100.45,-27.85"/>
</g>
<!-- Node2&#45;&gt;Node3 -->
<g id="edge2" class="edge">
<title>Node2&#45;&gt;Node3</title>
<path fill="none" stroke="midnightblue" d="M312.8,-384.3C323.68,-382.66 335.76,-380.84 347.4,-379.08"/>
<polygon fill="midnightblue" stroke="midnightblue" points="348.1,-382.52 357.47,-377.56 347.06,-375.59 348.1,-382.52"/>
</g>
<!-- Node4&#45;&gt;Node2 -->
<g id="edge4" class="edge">
<title>Node4&#45;&gt;Node2</title>
<path fill="none" stroke="midnightblue" d="M179.57,-390C193.68,-390 210.06,-390 225.13,-390"/>
<polygon fill="midnightblue" stroke="midnightblue" points="225.31,-393.5 235.31,-390 225.31,-386.5 225.31,-393.5"/>
</g>
<!-- Node7 -->
<g id="node7" class="node">
<title>Node7</title>
<g id="a_node7"><a xlink:href="a00495.xhtml#a34a5c0abd80cd982df8a8bae7cbcea19" target="_top" xlink:title=" ">
<polygon fill="white" stroke="black" points="229.5,-266.5 229.5,-285.5 318.5,-285.5 318.5,-266.5 229.5,-266.5"/>
<text text-anchor="middle" x="274" y="-273.5" font-family="Helvetica,sans-Serif" font-size="10.00">CVector::findMax</text>
</a>
</g>
</g>
<!-- Node6&#45;&gt;Node7 -->
<g id="edge7" class="edge">
<title>Node6&#45;&gt;Node7</title>
<path fill="none" stroke="midnightblue" d="M186.62,-276C196.99,-276 208.2,-276 219,-276"/>
<polygon fill="midnightblue" stroke="midnightblue" points="219.18,-279.5 229.18,-276 219.18,-272.5 219.18,-279.5"/>
</g>
<!-- Node9 -->
<g id="node9" class="node">
<title>Node9</title>
<g id="a_node9"><a xlink:href="a00495.xhtml#abdbcc3898121387f3694f74491b7331e" target="_top" xlink:title=" ">
<polygon fill="white" stroke="black" points="357,-209.5 357,-228.5 447,-228.5 447,-209.5 357,-209.5"/>
<text text-anchor="middle" x="402" y="-216.5" font-family="Helvetica,sans-Serif" font-size="10.00">CVector::getSum</text>
</a>
</g>
</g>
<!-- Node8&#45;&gt;Node9 -->
<g id="edge9" class="edge">
<title>Node8&#45;&gt;Node9</title>
<path fill="none" stroke="midnightblue" d="M321.2,-219C329.49,-219 338.2,-219 346.69,-219"/>
<polygon fill="midnightblue" stroke="midnightblue" points="346.9,-222.5 356.9,-219 346.9,-215.5 346.9,-222.5"/>
</g>
<!-- Node11 -->
<g id="node11" class="node">
<title>Node11</title>
<g id="a_node11"><a xlink:href="a00495.xhtml#ad475dff5686f7f82472071000a542806" target="_top" xlink:title=" ">
<polygon fill="white" stroke="black" points="230.5,-152.5 230.5,-171.5 317.5,-171.5 317.5,-152.5 230.5,-152.5"/>
<text text-anchor="middle" x="274" y="-159.5" font-family="Helvetica,sans-Serif" font-size="10.00">CVector::findMin</text>
</a>
</g>
</g>
<!-- Node10&#45;&gt;Node11 -->
<g id="edge11" class="edge">
<title>Node10&#45;&gt;Node11</title>
<path fill="none" stroke="midnightblue" d="M185.54,-162C196.51,-162 208.48,-162 219.94,-162"/>
<polygon fill="midnightblue" stroke="midnightblue" points="220.28,-165.5 230.28,-162 220.28,-158.5 220.28,-165.5"/>
</g>
<!-- Node12&#45;&gt;Node8 -->
<g id="edge13" class="edge">
<title>Node12&#45;&gt;Node8</title>
<path fill="none" stroke="midnightblue" d="M185.19,-206.12C195.27,-207.6 206.22,-209.2 216.85,-210.76"/>
<polygon fill="midnightblue" stroke="midnightblue" points="216.5,-214.25 226.9,-212.24 217.52,-207.32 216.5,-214.25"/>
</g>
</g>
</svg>
