<?xml version="1.0" encoding="UTF-8" standalone="no"?>
<!DOCTYPE svg PUBLIC "-//W3C//DTD SVG 1.1//EN"
 "http://www.w3.org/Graphics/SVG/1.1/DTD/svg11.dtd">
<!-- Generated by graphviz version 12.2.1 (20241206.2353)
 -->
<!-- Title: CKnn::setParamK Pages: 1 -->
<svg width="338pt" height="64pt"
 viewBox="0.00 0.00 338.00 64.25" xmlns="http://www.w3.org/2000/svg" xmlns:xlink="http://www.w3.org/1999/xlink">
<g id="graph0" class="graph" transform="scale(1 1) rotate(0) translate(4 60.25)">
<title>CKnn::setParamK</title>
<!-- Node1 -->
<g id="Node000001" class="node">
<title>Node1</title>
<g id="a_Node000001"><a xlink:title=" ">
<polygon fill="#999999" stroke="#666666" points="93.25,-37.25 0,-37.25 0,-18 93.25,-18 93.25,-37.25"/>
<text text-anchor="middle" x="46.62" y="-23.75" font-family="Helvetica,sans-Serif" font-size="10.00">CKnn::setParamK</text>
</a>
</g>
</g>
<!-- Node2 -->
<g id="Node000002" class="node">
<title>Node2</title>
<g id="a_Node000002"><a xlink:href="a00505.xhtml#abaadac98b1cad18b7b568852bc951696" target="_top" xlink:title=" ">
<polygon fill="white" stroke="#666666" points="205.25,-56.25 129.25,-56.25 129.25,-37 205.25,-37 205.25,-56.25"/>
<text text-anchor="middle" x="167.25" y="-42.75" font-family="Helvetica,sans-Serif" font-size="10.00">CVector::alloc</text>
</a>
</g>
</g>
<!-- Node1&#45;&gt;Node2 -->
<g id="edge1_Node000001_Node000002" class="edge">
<title>Node1&#45;&gt;Node2</title>
<g id="a_edge1_Node000001_Node000002"><a xlink:title=" ">
<path fill="none" stroke="#63b8ff" d="M93.49,-34.97C101.47,-36.25 109.78,-37.58 117.83,-38.87"/>
<polygon fill="#63b8ff" stroke="#63b8ff" points="117.03,-42.29 127.45,-40.41 118.13,-35.37 117.03,-42.29"/>
</a>
</g>
</g>
<!-- Node4 -->
<g id="Node000004" class="node">
<title>Node4</title>
<g id="a_Node000004"><a xlink:href="a00505.xhtml#aa86bdb0c663d4d52f2765793756f8737" target="_top" xlink:title=" ">
<polygon fill="white" stroke="#666666" points="203.38,-19.25 131.12,-19.25 131.12,0 203.38,0 203.38,-19.25"/>
<text text-anchor="middle" x="167.25" y="-5.75" font-family="Helvetica,sans-Serif" font-size="10.00">CVector::free</text>
</a>
</g>
</g>
<!-- Node1&#45;&gt;Node4 -->
<g id="edge3_Node000001_Node000004" class="edge">
<title>Node1&#45;&gt;Node4</title>
<g id="a_edge3_Node000001_Node000004"><a xlink:title=" ">
<path fill="none" stroke="#63b8ff" d="M93.49,-20.67C102,-19.37 110.91,-18.02 119.46,-16.73"/>
<polygon fill="#63b8ff" stroke="#63b8ff" points="119.95,-20.19 129.31,-15.23 118.9,-13.27 119.95,-20.19"/>
</a>
</g>
</g>
<!-- Node3 -->
<g id="Node000003" class="node">
<title>Node3</title>
<g id="a_Node000003"><a xlink:href="a00505.xhtml#a6dbb3f9f480568b60f7fe50090d20003" target="_top" xlink:title=" ">
<polygon fill="white" stroke="#666666" points="330,-56.25 241.25,-56.25 241.25,-37 330,-37 330,-56.25"/>
<text text-anchor="middle" x="285.62" y="-42.75" font-family="Helvetica,sans-Serif" font-size="10.00">CVector::setZero</text>
</a>
</g>
</g>
<!-- Node2&#45;&gt;Node3 -->
<g id="edge2_Node000002_Node000003" class="edge">
<title>Node2&#45;&gt;Node3</title>
<g id="a_edge2_Node000002_Node000003"><a xlink:title=" ">
<path fill="none" stroke="#63b8ff" d="M205.71,-46.62C213.39,-46.62 221.62,-46.62 229.77,-46.62"/>
<polygon fill="#63b8ff" stroke="#63b8ff" points="229.64,-50.13 239.64,-46.63 229.64,-43.13 229.64,-50.13"/>
</a>
</g>
</g>
</g>
</svg>
