<?xml version="1.0" encoding="UTF-8" standalone="no"?>
<!DOCTYPE svg PUBLIC "-//W3C//DTD SVG 1.1//EN"
 "http://www.w3.org/Graphics/SVG/1.1/DTD/svg11.dtd">
<!-- Generated by graphviz version 12.2.1 (20241206.2353)
 -->
<!-- Title: CNormalizeAudio::operator= Pages: 1 -->
<svg width="796pt" height="458pt"
 viewBox="0.00 0.00 796.00 457.88" xmlns="http://www.w3.org/2000/svg" xmlns:xlink="http://www.w3.org/1999/xlink">
<g id="graph0" class="graph" transform="scale(1 1) rotate(0) translate(4 453.88)">
<title>CNormalizeAudio::operator=</title>
<!-- Node1 -->
<g id="Node000001" class="node">
<title>Node1</title>
<g id="a_Node000001"><a xlink:title=" ">
<polygon fill="#999999" stroke="#666666" points="136.75,-236.88 0,-236.88 0,-217.62 136.75,-217.62 136.75,-236.88"/>
<text text-anchor="middle" x="68.38" y="-223.38" font-family="Helvetica,sans-Serif" font-size="10.00">CNormalizeAudio::operator=</text>
</a>
</g>
</g>
<!-- Node2 -->
<g id="Node000002" class="node">
<title>Node2</title>
<g id="a_Node000002"><a xlink:href="a00609.xhtml#a0f2e96a9c1a1ab0b85e1410b00f0aa8e" target="_top" xlink:title=" ">
<polygon fill="white" stroke="#666666" points="318.5,-242.5 172.75,-242.5 172.75,-212 318.5,-212 318.5,-242.5"/>
<text text-anchor="start" x="180.75" y="-229" font-family="Helvetica,sans-Serif" font-size="10.00">CNormalizeAudio::CNormalize</text>
<text text-anchor="middle" x="245.62" y="-217.75" font-family="Helvetica,sans-Serif" font-size="10.00">Audio</text>
</a>
</g>
</g>
<!-- Node1&#45;&gt;Node2 -->
<g id="edge1_Node000001_Node000002" class="edge">
<title>Node1&#45;&gt;Node2</title>
<g id="a_edge1_Node000001_Node000002"><a xlink:title=" ">
<path fill="none" stroke="#63b8ff" d="M137.13,-227.25C144.99,-227.25 153.07,-227.25 161.1,-227.25"/>
<polygon fill="#63b8ff" stroke="#63b8ff" points="160.89,-230.75 170.89,-227.25 160.89,-223.75 160.89,-230.75"/>
</a>
</g>
</g>
<!-- Node3 -->
<g id="Node000003" class="node">
<title>Node3</title>
<g id="a_Node000003"><a xlink:href="a00489.xhtml#a6501b78d76c912d49eee88c8f7242923" target="_top" xlink:title=" ">
<polygon fill="white" stroke="#666666" points="454.12,-430.88 380.38,-430.88 380.38,-411.62 454.12,-411.62 454.12,-430.88"/>
<text text-anchor="middle" x="417.25" y="-417.38" font-family="Helvetica,sans-Serif" font-size="10.00">CMatrix::alloc</text>
</a>
</g>
</g>
<!-- Node2&#45;&gt;Node3 -->
<g id="edge2_Node000002_Node000003" class="edge">
<title>Node2&#45;&gt;Node3</title>
<g id="a_edge2_Node000002_Node000003"><a xlink:title=" ">
<path fill="none" stroke="#63b8ff" d="M255.7,-242.68C272.76,-270.95 311.78,-332.09 354.5,-375.25 365.45,-386.31 379.21,-396.82 390.96,-405"/>
<polygon fill="#63b8ff" stroke="#63b8ff" points="388.75,-407.73 398.99,-410.43 392.67,-401.93 388.75,-407.73"/>
</a>
</g>
</g>
<!-- Node6 -->
<g id="Node000006" class="node">
<title>Node6</title>
<g id="a_Node000006"><a xlink:href="a00605.xhtml#aad7f6eaf40285ca192d27a7420aff724" target="_top" xlink:title=" ">
<polygon fill="white" stroke="#666666" points="467.62,-365.88 366.88,-365.88 366.88,-346.62 467.62,-346.62 467.62,-365.88"/>
<text text-anchor="middle" x="417.25" y="-352.38" font-family="Helvetica,sans-Serif" font-size="10.00">CPreProc::downmix</text>
</a>
</g>
</g>
<!-- Node2&#45;&gt;Node6 -->
<g id="edge5_Node000002_Node000006" class="edge">
<title>Node2&#45;&gt;Node6</title>
<g id="a_edge5_Node000002_Node000006"><a xlink:title=" ">
<path fill="none" stroke="#63b8ff" d="M262.66,-242.74C283.08,-262.06 319.88,-295.55 354.5,-320.25 364.73,-327.55 376.53,-334.7 387.05,-340.69"/>
<polygon fill="#63b8ff" stroke="#63b8ff" points="385.28,-343.71 395.72,-345.51 388.68,-337.59 385.28,-343.71"/>
</a>
</g>
</g>
<!-- Node10 -->
<g id="Node000010" class="node">
<title>Node10</title>
<g id="a_Node000010"><a xlink:href="a00489.xhtml#a591097c6b1935c4d6273b3445f8f552b" target="_top" xlink:title=" ">
<polygon fill="white" stroke="#666666" points="452.25,-310.88 382.25,-310.88 382.25,-291.62 452.25,-291.62 452.25,-310.88"/>
<text text-anchor="middle" x="417.25" y="-297.38" font-family="Helvetica,sans-Serif" font-size="10.00">CMatrix::free</text>
</a>
</g>
</g>
<!-- Node2&#45;&gt;Node10 -->
<g id="edge9_Node000002_Node000010" class="edge">
<title>Node2&#45;&gt;Node10</title>
<g id="a_edge9_Node000002_Node000010"><a xlink:title=" ">
<path fill="none" stroke="#63b8ff" d="M272.98,-242.78C294.41,-254.96 325.71,-271.71 354.5,-283.25 359.81,-285.38 365.46,-287.37 371.11,-289.2"/>
<polygon fill="#63b8ff" stroke="#63b8ff" points="369.84,-292.48 380.43,-292.07 371.9,-285.79 369.84,-292.48"/>
</a>
</g>
</g>
<!-- Node12 -->
<g id="Node000012" class="node">
<title>Node12</title>
<g id="a_Node000012"><a xlink:href="a00445.xhtml#a7ddbbf5f828e61db7fd75dbf47a33832" target="_top" xlink:title=" ">
<polygon fill="white" stroke="#666666" points="480,-273.88 354.5,-273.88 354.5,-254.62 480,-254.62 480,-273.88"/>
<text text-anchor="middle" x="417.25" y="-260.38" font-family="Helvetica,sans-Serif" font-size="10.00">CAudioFileIf::getFileSpec</text>
</a>
</g>
</g>
<!-- Node2&#45;&gt;Node12 -->
<g id="edge11_Node000002_Node000012" class="edge">
<title>Node2&#45;&gt;Node12</title>
<g id="a_edge11_Node000002_Node000012"><a xlink:title=" ">
<path fill="none" stroke="#63b8ff" d="M318.56,-242.94C332.11,-245.9 346.11,-248.95 359.13,-251.79"/>
<polygon fill="#63b8ff" stroke="#63b8ff" points="358.29,-255.19 368.8,-253.9 359.78,-248.35 358.29,-255.19"/>
</a>
</g>
</g>
<!-- Node13 -->
<g id="Node000013" class="node">
<title>Node13</title>
<g id="a_Node000013"><a xlink:href="a00505.xhtml#a9f5be871090bc5a64a7732cebfb4f8ec" target="_top" xlink:title=" ">
<polygon fill="white" stroke="#666666" points="460.88,-236.88 373.62,-236.88 373.62,-217.62 460.88,-217.62 460.88,-236.88"/>
<text text-anchor="middle" x="417.25" y="-223.38" font-family="Helvetica,sans-Serif" font-size="10.00">CVector::getMax</text>
</a>
</g>
</g>
<!-- Node2&#45;&gt;Node13 -->
<g id="edge12_Node000002_Node000013" class="edge">
<title>Node2&#45;&gt;Node13</title>
<g id="a_edge12_Node000002_Node000013"><a xlink:title=" ">
<path fill="none" stroke="#63b8ff" d="M318.56,-227.25C333.09,-227.25 348.14,-227.25 361.95,-227.25"/>
<polygon fill="#63b8ff" stroke="#63b8ff" points="361.7,-230.75 371.7,-227.25 361.7,-223.75 361.7,-230.75"/>
</a>
</g>
</g>
<!-- Node15 -->
<g id="Node000015" class="node">
<title>Node15</title>
<g id="a_Node000015"><a xlink:href="a00445.xhtml#a498e98b28fe76b712ef266faabce1b51" target="_top" xlink:title=" ">
<polygon fill="white" stroke="#666666" points="478.5,-199.88 356,-199.88 356,-180.62 478.5,-180.62 478.5,-199.88"/>
<text text-anchor="middle" x="417.25" y="-186.38" font-family="Helvetica,sans-Serif" font-size="10.00">CAudioFileIf::getPosition</text>
</a>
</g>
</g>
<!-- Node2&#45;&gt;Node15 -->
<g id="edge14_Node000002_Node000015" class="edge">
<title>Node2&#45;&gt;Node15</title>
<g id="a_edge14_Node000002_Node000015"><a xlink:title=" ">
<path fill="none" stroke="#63b8ff" d="M318.56,-211.56C332.11,-208.6 346.11,-205.55 359.13,-202.71"/>
<polygon fill="#63b8ff" stroke="#63b8ff" points="359.78,-206.15 368.8,-200.6 358.29,-199.31 359.78,-206.15"/>
</a>
</g>
</g>
<!-- Node19 -->
<g id="Node000019" class="node">
<title>Node19</title>
<g id="a_Node000019"><a xlink:href="a00445.xhtml#a02a1c69fa0fc5b9aa8cb275315697be4" target="_top" xlink:title=" ">
<polygon fill="white" stroke="#666666" points="465,-88.88 369.5,-88.88 369.5,-69.62 465,-69.62 465,-88.88"/>
<text text-anchor="middle" x="417.25" y="-75.38" font-family="Helvetica,sans-Serif" font-size="10.00">CAudioFileIf::isEof</text>
</a>
</g>
</g>
<!-- Node2&#45;&gt;Node19 -->
<g id="edge18_Node000002_Node000019" class="edge">
<title>Node2&#45;&gt;Node19</title>
<g id="a_edge18_Node000002_Node000019"><a xlink:title=" ">
<path fill="none" stroke="#63b8ff" d="M255.15,-211.88C271.06,-184.63 307.92,-127.83 354.5,-97.25 356.32,-96.06 358.22,-94.94 360.18,-93.89"/>
<polygon fill="#63b8ff" stroke="#63b8ff" points="361.33,-97.21 368.98,-89.88 358.43,-90.85 361.33,-97.21"/>
</a>
</g>
</g>
<!-- Node20 -->
<g id="Node000020" class="node">
<title>Node20</title>
<g id="a_Node000020"><a xlink:href="a00445.xhtml#ad86676f86c5a0c1fb23617b5e00014c4" target="_top" xlink:title=" ">
<polygon fill="white" stroke="#666666" points="473.62,-162.88 360.88,-162.88 360.88,-143.62 473.62,-143.62 473.62,-162.88"/>
<text text-anchor="middle" x="417.25" y="-149.38" font-family="Helvetica,sans-Serif" font-size="10.00">CAudioFileIf::readData</text>
</a>
</g>
</g>
<!-- Node2&#45;&gt;Node20 -->
<g id="edge19_Node000002_Node000020" class="edge">
<title>Node2&#45;&gt;Node20</title>
<g id="a_edge19_Node000002_Node000020"><a xlink:title=" ">
<path fill="none" stroke="#63b8ff" d="M272.98,-211.72C294.41,-199.54 325.71,-182.79 354.5,-171.25 358.35,-169.7 362.39,-168.23 366.48,-166.83"/>
<polygon fill="#63b8ff" stroke="#63b8ff" points="367.43,-170.2 375.88,-163.81 365.28,-163.54 367.43,-170.2"/>
</a>
</g>
</g>
<!-- Node22 -->
<g id="Node000022" class="node">
<title>Node22</title>
<g id="a_Node000022"><a xlink:href="a00445.xhtml#a6f8c0aace3c8825c11a4ef106bc53ce1" target="_top" xlink:title=" ">
<polygon fill="white" stroke="#666666" points="478.5,-125.88 356,-125.88 356,-106.62 478.5,-106.62 478.5,-125.88"/>
<text text-anchor="middle" x="417.25" y="-112.38" font-family="Helvetica,sans-Serif" font-size="10.00">CAudioFileIf::setPosition</text>
</a>
</g>
</g>
<!-- Node2&#45;&gt;Node22 -->
<g id="edge23_Node000002_Node000022" class="edge">
<title>Node2&#45;&gt;Node22</title>
<g id="a_edge23_Node000002_Node000022"><a xlink:title=" ">
<path fill="none" stroke="#63b8ff" d="M260.44,-211.77C279.61,-191.19 316.26,-155.02 354.5,-134.25 356.99,-132.9 359.59,-131.64 362.26,-130.46"/>
<polygon fill="#63b8ff" stroke="#63b8ff" points="363.34,-133.8 371.38,-126.9 360.79,-127.28 363.34,-133.8"/>
</a>
</g>
</g>
<!-- Node4 -->
<g id="Node000004" class="node">
<title>Node4</title>
<g id="a_Node000004"><a xlink:href="a00505.xhtml#abaadac98b1cad18b7b568852bc951696" target="_top" xlink:title=" ">
<polygon fill="white" stroke="#666666" points="627.62,-449.88 551.62,-449.88 551.62,-430.62 627.62,-430.62 627.62,-449.88"/>
<text text-anchor="middle" x="589.62" y="-436.38" font-family="Helvetica,sans-Serif" font-size="10.00">CVector::alloc</text>
</a>
</g>
</g>
<!-- Node3&#45;&gt;Node4 -->
<g id="edge3_Node000003_Node000004" class="edge">
<title>Node3&#45;&gt;Node4</title>
<g id="a_edge3_Node000003_Node000004"><a xlink:title=" ">
<path fill="none" stroke="#63b8ff" d="M454.38,-425.28C479.34,-428.06 512.82,-431.8 540.1,-434.84"/>
<polygon fill="#63b8ff" stroke="#63b8ff" points="539.54,-438.3 549.86,-435.93 540.31,-431.34 539.54,-438.3"/>
</a>
</g>
</g>
<!-- Node5 -->
<g id="Node000005" class="node">
<title>Node5</title>
<g id="a_Node000005"><a xlink:href="a00505.xhtml#a6dbb3f9f480568b60f7fe50090d20003" target="_top" xlink:title=" ">
<polygon fill="white" stroke="#666666" points="788,-449.88 699.25,-449.88 699.25,-430.62 788,-430.62 788,-449.88"/>
<text text-anchor="middle" x="743.62" y="-436.38" font-family="Helvetica,sans-Serif" font-size="10.00">CVector::setZero</text>
</a>
</g>
</g>
<!-- Node4&#45;&gt;Node5 -->
<g id="edge4_Node000004_Node000005" class="edge">
<title>Node4&#45;&gt;Node5</title>
<g id="a_edge4_Node000004_Node000005"><a xlink:title=" ">
<path fill="none" stroke="#63b8ff" d="M627.81,-440.25C645.74,-440.25 667.6,-440.25 687.42,-440.25"/>
<polygon fill="#63b8ff" stroke="#63b8ff" points="687.3,-443.75 697.3,-440.25 687.3,-436.75 687.3,-443.75"/>
</a>
</g>
</g>
<!-- Node7 -->
<g id="Node000007" class="node">
<title>Node7</title>
<g id="a_Node000007"><a xlink:href="a00505.xhtml#a3a052b83e62e5c5cc44829c64ffe42eb" target="_top" xlink:title=" ">
<polygon fill="white" stroke="#666666" points="629.5,-412.88 549.75,-412.88 549.75,-393.62 629.5,-393.62 629.5,-412.88"/>
<text text-anchor="middle" x="589.62" y="-399.38" font-family="Helvetica,sans-Serif" font-size="10.00">CVector::add_I</text>
</a>
</g>
</g>
<!-- Node6&#45;&gt;Node7 -->
<g id="edge6_Node000006_Node000007" class="edge">
<title>Node6&#45;&gt;Node7</title>
<g id="a_edge6_Node000006_Node000007"><a xlink:title=" ">
<path fill="none" stroke="#63b8ff" d="M450.73,-366.29C469.7,-372.05 494.14,-379.3 516,-385.25 523.16,-387.2 530.74,-389.17 538.19,-391.06"/>
<polygon fill="#63b8ff" stroke="#63b8ff" points="537.32,-394.46 547.87,-393.49 539.02,-387.67 537.32,-394.46"/>
</a>
</g>
</g>
<!-- Node8 -->
<g id="Node000008" class="node">
<title>Node8</title>
<g id="a_Node000008"><a xlink:href="a00505.xhtml#ad7c5cba73e439adac77778f61c9418f0" target="_top" xlink:title=" ">
<polygon fill="white" stroke="#666666" points="627.62,-375.88 551.62,-375.88 551.62,-356.62 627.62,-356.62 627.62,-375.88"/>
<text text-anchor="middle" x="589.62" y="-362.38" font-family="Helvetica,sans-Serif" font-size="10.00">CVector::copy</text>
</a>
</g>
</g>
<!-- Node6&#45;&gt;Node8 -->
<g id="edge7_Node000006_Node000008" class="edge">
<title>Node6&#45;&gt;Node8</title>
<g id="a_edge7_Node000006_Node000008"><a xlink:title=" ">
<path fill="none" stroke="#63b8ff" d="M467.99,-359.17C490.65,-360.5 517.4,-362.07 539.93,-363.39"/>
<polygon fill="#63b8ff" stroke="#63b8ff" points="539.6,-366.88 549.78,-363.97 540.01,-359.89 539.6,-366.88"/>
</a>
</g>
</g>
<!-- Node9 -->
<g id="Node000009" class="node">
<title>Node9</title>
<g id="a_Node000009"><a xlink:href="a00505.xhtml#a9811f50434dd058d201290b2dc98bfcd" target="_top" xlink:title=" ">
<polygon fill="white" stroke="#666666" points="632.88,-338.88 546.38,-338.88 546.38,-319.62 632.88,-319.62 632.88,-338.88"/>
<text text-anchor="middle" x="589.62" y="-325.38" font-family="Helvetica,sans-Serif" font-size="10.00">CVector::mulC_I</text>
</a>
</g>
</g>
<!-- Node6&#45;&gt;Node9 -->
<g id="edge8_Node000006_Node000009" class="edge">
<title>Node6&#45;&gt;Node9</title>
<g id="a_edge8_Node000006_Node000009"><a xlink:title=" ">
<path fill="none" stroke="#63b8ff" d="M467.99,-348.37C488.97,-345.04 513.44,-341.16 534.84,-337.77"/>
<polygon fill="#63b8ff" stroke="#63b8ff" points="535.22,-341.26 544.55,-336.24 534.12,-334.34 535.22,-341.26"/>
</a>
</g>
</g>
<!-- Node11 -->
<g id="Node000011" class="node">
<title>Node11</title>
<g id="a_Node000011"><a xlink:href="a00505.xhtml#aa86bdb0c663d4d52f2765793756f8737" target="_top" xlink:title=" ">
<polygon fill="white" stroke="#666666" points="625.75,-301.88 553.5,-301.88 553.5,-282.62 625.75,-282.62 625.75,-301.88"/>
<text text-anchor="middle" x="589.62" y="-288.38" font-family="Helvetica,sans-Serif" font-size="10.00">CVector::free</text>
</a>
</g>
</g>
<!-- Node10&#45;&gt;Node11 -->
<g id="edge10_Node000010_Node000011" class="edge">
<title>Node10&#45;&gt;Node11</title>
<g id="a_edge10_Node000010_Node000011"><a xlink:title=" ">
<path fill="none" stroke="#63b8ff" d="M452.73,-299.43C478.37,-298.07 513.64,-296.21 541.82,-294.72"/>
<polygon fill="#63b8ff" stroke="#63b8ff" points="541.71,-298.23 551.51,-294.21 541.34,-291.24 541.71,-298.23"/>
</a>
</g>
</g>
<!-- Node14 -->
<g id="Node000014" class="node">
<title>Node14</title>
<g id="a_Node000014"><a xlink:href="a00505.xhtml#a34a5c0abd80cd982df8a8bae7cbcea19" target="_top" xlink:title=" ">
<polygon fill="white" stroke="#666666" points="634,-264.88 545.25,-264.88 545.25,-245.62 634,-245.62 634,-264.88"/>
<text text-anchor="middle" x="589.62" y="-251.38" font-family="Helvetica,sans-Serif" font-size="10.00">CVector::findMax</text>
</a>
</g>
</g>
<!-- Node13&#45;&gt;Node14 -->
<g id="edge13_Node000013_Node000014" class="edge">
<title>Node13&#45;&gt;Node14</title>
<g id="a_edge13_Node000013_Node000014"><a xlink:title=" ">
<path fill="none" stroke="#63b8ff" d="M461.24,-234.32C483.18,-237.92 510.12,-242.35 533.57,-246.2"/>
<polygon fill="#63b8ff" stroke="#63b8ff" points="532.83,-249.63 543.26,-247.79 533.96,-242.72 532.83,-249.63"/>
</a>
</g>
</g>
<!-- Node16 -->
<g id="Node000016" class="node">
<title>Node16</title>
<g id="a_Node000016"><a xlink:href="a00445.xhtml#afa4e52309d9c05cabe46dbb6f13b819a" target="_top" xlink:title=" ">
<polygon fill="white" stroke="#666666" points="650.88,-227.5 528.38,-227.5 528.38,-197 650.88,-197 650.88,-227.5"/>
<text text-anchor="start" x="536.38" y="-214" font-family="Helvetica,sans-Serif" font-size="10.00">CAudioFileIf::getPosition</text>
<text text-anchor="middle" x="589.62" y="-202.75" font-family="Helvetica,sans-Serif" font-size="10.00">Intern_</text>
</a>
</g>
</g>
<!-- Node15&#45;&gt;Node16 -->
<g id="edge15_Node000015_Node000016" class="edge">
<title>Node15&#45;&gt;Node16</title>
<g id="a_edge15_Node000015_Node000016"><a xlink:title=" ">
<path fill="none" stroke="#63b8ff" d="M478.8,-198.07C491.03,-199.65 504,-201.32 516.58,-202.95"/>
<polygon fill="#63b8ff" stroke="#63b8ff" points="516.12,-206.42 526.48,-204.23 517.02,-199.47 516.12,-206.42"/>
</a>
</g>
</g>
<!-- Node17 -->
<g id="Node000017" class="node">
<title>Node17</title>
<g id="a_Node000017"><a xlink:href="a00445.xhtml#a01d2aae56dd6295aee8ad10088f2cb27" target="_top" xlink:title=" ">
<polygon fill="white" stroke="#666666" points="650.5,-178.88 528.75,-178.88 528.75,-159.62 650.5,-159.62 650.5,-178.88"/>
<text text-anchor="middle" x="589.62" y="-165.38" font-family="Helvetica,sans-Serif" font-size="10.00">CAudioFileIf::isInitialized</text>
</a>
</g>
</g>
<!-- Node15&#45;&gt;Node17 -->
<g id="edge16_Node000015_Node000017" class="edge">
<title>Node15&#45;&gt;Node17</title>
<g id="a_edge16_Node000015_Node000017"><a xlink:title=" ">
<path fill="none" stroke="#63b8ff" d="M478.8,-182.79C491.23,-181.26 504.42,-179.63 517.19,-178.06"/>
<polygon fill="#63b8ff" stroke="#63b8ff" points="517.27,-181.57 526.77,-176.87 516.42,-174.62 517.27,-181.57"/>
</a>
</g>
</g>
<!-- Node18 -->
<g id="Node000018" class="node">
<title>Node18</title>
<g id="a_Node000018"><a xlink:href="a00445.xhtml#a7d946177a6591600dc03a423feb38cb3" target="_top" xlink:title=" ">
<polygon fill="white" stroke="#666666" points="641.88,-141.88 537.38,-141.88 537.38,-122.62 641.88,-122.62 641.88,-141.88"/>
<text text-anchor="middle" x="589.62" y="-128.38" font-family="Helvetica,sans-Serif" font-size="10.00">CAudioFileIf::isOpen</text>
</a>
</g>
</g>
<!-- Node15&#45;&gt;Node18 -->
<g id="edge17_Node000015_Node000018" class="edge">
<title>Node15&#45;&gt;Node18</title>
<g id="a_edge17_Node000015_Node000018"><a xlink:title=" ">
<path fill="none" stroke="#63b8ff" d="M458.66,-180.15C465.89,-177.87 473.26,-175.23 480,-172.25 497.15,-164.67 498.7,-157.48 516,-150.25 520,-148.58 524.19,-147.04 528.45,-145.62"/>
<polygon fill="#63b8ff" stroke="#63b8ff" points="529.15,-149.07 537.68,-142.8 527.1,-142.38 529.15,-149.07"/>
</a>
</g>
</g>
<!-- Node20&#45;&gt;Node17 -->
<g id="edge20_Node000020_Node000017" class="edge">
<title>Node20&#45;&gt;Node17</title>
<g id="a_edge20_Node000020_Node000017"><a xlink:title=" ">
<path fill="none" stroke="#63b8ff" d="M474.04,-158.49C487.74,-159.78 502.61,-161.17 516.95,-162.52"/>
<polygon fill="#63b8ff" stroke="#63b8ff" points="516.52,-165.99 526.8,-163.44 517.17,-159.02 516.52,-165.99"/>
</a>
</g>
</g>
<!-- Node20&#45;&gt;Node18 -->
<g id="edge21_Node000020_Node000018" class="edge">
<title>Node20&#45;&gt;Node18</title>
<g id="a_edge21_Node000020_Node000018"><a xlink:title=" ">
<path fill="none" stroke="#63b8ff" d="M474.04,-146.37C490.68,-144.32 509.02,-142.06 526.06,-139.96"/>
<polygon fill="#63b8ff" stroke="#63b8ff" points="526.04,-143.49 535.54,-138.79 525.19,-136.54 526.04,-143.49"/>
</a>
</g>
</g>
<!-- Node21 -->
<g id="Node000021" class="node">
<title>Node21</title>
<g id="a_Node000021"><a xlink:href="a00445.xhtml#aa8d6db73dae5cc9bf7c0beb15b36bea4" target="_top" xlink:title=" ">
<polygon fill="white" stroke="#666666" points="661,-104.88 518.25,-104.88 518.25,-85.62 661,-85.62 661,-104.88"/>
<text text-anchor="middle" x="589.62" y="-91.38" font-family="Helvetica,sans-Serif" font-size="10.00">CAudioFileIf::readDataIntern_</text>
</a>
</g>
</g>
<!-- Node20&#45;&gt;Node21 -->
<g id="edge22_Node000020_Node000021" class="edge">
<title>Node20&#45;&gt;Node21</title>
<g id="a_edge22_Node000020_Node000021"><a xlink:title=" ">
<path fill="none" stroke="#63b8ff" d="M458.66,-143.15C465.89,-140.87 473.26,-138.23 480,-135.25 497.15,-127.67 498.7,-120.48 516,-113.25 520,-111.58 524.19,-110.04 528.45,-108.62"/>
<polygon fill="#63b8ff" stroke="#63b8ff" points="529.15,-112.07 537.68,-105.8 527.1,-105.38 529.15,-112.07"/>
</a>
</g>
</g>
<!-- Node22&#45;&gt;Node17 -->
<g id="edge25_Node000022_Node000017" class="edge">
<title>Node22&#45;&gt;Node17</title>
<g id="a_edge25_Node000022_Node000017"><a xlink:title=" ">
<path fill="none" stroke="#63b8ff" d="M456.44,-126.36C464.31,-128.73 472.48,-131.4 480,-134.25 496.54,-140.52 499.33,-145.31 516,-151.25 520.94,-153.01 526.13,-154.66 531.37,-156.2"/>
<polygon fill="#63b8ff" stroke="#63b8ff" points="530.08,-159.47 540.66,-158.77 531.96,-152.73 530.08,-159.47"/>
</a>
</g>
</g>
<!-- Node22&#45;&gt;Node18 -->
<g id="edge26_Node000022_Node000018" class="edge">
<title>Node22&#45;&gt;Node18</title>
<g id="a_edge26_Node000022_Node000018"><a xlink:title=" ">
<path fill="none" stroke="#63b8ff" d="M478.8,-121.94C493.96,-123.36 510.27,-124.89 525.56,-126.33"/>
<polygon fill="#63b8ff" stroke="#63b8ff" points="525.22,-129.81 535.51,-127.26 525.88,-122.84 525.22,-129.81"/>
</a>
</g>
</g>
<!-- Node23 -->
<g id="Node000023" class="node">
<title>Node23</title>
<g id="a_Node000023"><a xlink:href="a00445.xhtml#ae2bd8bd21bd04b0b9e9b8716bddfb7e1" target="_top" xlink:title=" ">
<polygon fill="white" stroke="#666666" points="663.25,-67.88 516,-67.88 516,-48.62 663.25,-48.62 663.25,-67.88"/>
<text text-anchor="middle" x="589.62" y="-54.38" font-family="Helvetica,sans-Serif" font-size="10.00">CAudioFileIf::getLengthIntern_</text>
</a>
</g>
</g>
<!-- Node22&#45;&gt;Node23 -->
<g id="edge24_Node000022_Node000023" class="edge">
<title>Node22&#45;&gt;Node23</title>
<g id="a_edge24_Node000022_Node000023"><a xlink:title=" ">
<path fill="none" stroke="#63b8ff" d="M458.66,-106.15C465.89,-103.87 473.26,-101.23 480,-98.25 497.15,-90.67 498.7,-83.48 516,-76.25 520,-74.58 524.19,-73.04 528.45,-71.62"/>
<polygon fill="#63b8ff" stroke="#63b8ff" points="529.15,-75.07 537.68,-68.8 527.1,-68.38 529.15,-75.07"/>
</a>
</g>
</g>
<!-- Node24 -->
<g id="Node000024" class="node">
<title>Node24</title>
<g id="a_Node000024"><a xlink:href="a00445.xhtml#a2c22b805d8b0aefafc5436b1e275f832" target="_top" xlink:title=" ">
<polygon fill="white" stroke="#666666" points="650.88,-30.5 528.38,-30.5 528.38,0 650.88,0 650.88,-30.5"/>
<text text-anchor="start" x="536.38" y="-17" font-family="Helvetica,sans-Serif" font-size="10.00">CAudioFileIf::setPosition</text>
<text text-anchor="middle" x="589.62" y="-5.75" font-family="Helvetica,sans-Serif" font-size="10.00">Intern_</text>
</a>
</g>
</g>
<!-- Node22&#45;&gt;Node24 -->
<g id="edge27_Node000022_Node000024" class="edge">
<title>Node22&#45;&gt;Node24</title>
<g id="a_edge27_Node000022_Node000024"><a xlink:title=" ">
<path fill="none" stroke="#63b8ff" d="M466.19,-106.23C471.11,-104.07 475.83,-101.44 480,-98.25 504.39,-79.58 491.94,-58.35 516,-39.25 517.11,-38.37 518.26,-37.52 519.43,-36.7"/>
<polygon fill="#63b8ff" stroke="#63b8ff" points="520.86,-39.92 527.63,-31.77 517.25,-33.92 520.86,-39.92"/>
</a>
</g>
</g>
</g>
</svg>
