<?xml version="1.0" encoding="UTF-8" standalone="no"?>
<!DOCTYPE svg PUBLIC "-//W3C//DTD SVG 1.1//EN"
 "http://www.w3.org/Graphics/SVG/1.1/DTD/svg11.dtd">
<!-- Generated by graphviz version 12.2.1 (20241206.2353)
 -->
<!-- Title: CKnn::buildHistogram_ Pages: 1 -->
<svg width="378pt" height="175pt"
 viewBox="0.00 0.00 377.75 175.25" xmlns="http://www.w3.org/2000/svg" xmlns:xlink="http://www.w3.org/1999/xlink">

<svg id="main" version="1.1" xmlns="http://www.w3.org/2000/svg" xmlns:xlink="http://www.w3.org/1999/xlink" xml:space="preserve">

<style type="text/css"><![CDATA[
.node, .edge {opacity: 0.7;}
.node.selected, .edge.selected {opacity: 1;}
.edge:hover path { stroke: red; }
.edge:hover polygon { stroke: red; fill: red; }
]]></style>
<script type="application/ecmascript" xlink:href="svg.min.js"/>
<svg id="graph" class="graph">
<g id="graph0" class="graph" transform="scale(1 1) rotate(0) translate(4 171.25)">
<title>CKnn::buildHistogram_</title>
<!-- Node1 -->
<g id="Node000001" class="node">
<title>Node1</title>
<g id="a_Node000001"><a xlink:title=" ">
<polygon fill="#999999" stroke="#666666" points="115,-93.25 0,-93.25 0,-74 115,-74 115,-93.25"/>
<text text-anchor="middle" x="57.5" y="-79.75" font-family="Helvetica,sans-Serif" font-size="10.00">CKnn::buildHistogram_</text>
</a>
</g>
</g>
<!-- Node2 -->
<g id="Node000002" class="node">
<title>Node2</title>
<g id="a_Node000002"><a xlink:href="a00505.xhtml#a22ff86e4fc2f8d5042159d9c84a7ff14" target="_top" xlink:title=" ">
<polygon fill="white" stroke="#666666" points="241.25,-167.25 154.75,-167.25 154.75,-148 241.25,-148 241.25,-167.25"/>
<text text-anchor="middle" x="198" y="-153.75" font-family="Helvetica,sans-Serif" font-size="10.00">CVector::addC_I</text>
</a>
</g>
</g>
<!-- Node1&#45;&gt;Node2 -->
<g id="edge1_Node000001_Node000002" class="edge">
<title>Node1&#45;&gt;Node2</title>
<g id="a_edge1_Node000001_Node000002"><a xlink:title=" ">
<path fill="none" stroke="#63b8ff" d="M73.12,-93.55C90.98,-105.44 122.39,-125.49 151,-139.62 153.4,-140.81 155.9,-141.97 158.44,-143.1"/>
<polygon fill="#63b8ff" stroke="#63b8ff" points="156.97,-146.28 167.54,-146.94 159.69,-139.83 156.97,-146.28"/>
</a>
</g>
</g>
<!-- Node3 -->
<g id="Node000003" class="node">
<title>Node3</title>
<g id="a_Node000003"><a xlink:href="a00505.xhtml#a9f5be871090bc5a64a7732cebfb4f8ec" target="_top" xlink:title=" ">
<polygon fill="white" stroke="#666666" points="241.62,-130.25 154.38,-130.25 154.38,-111 241.62,-111 241.62,-130.25"/>
<text text-anchor="middle" x="198" y="-116.75" font-family="Helvetica,sans-Serif" font-size="10.00">CVector::getMax</text>
</a>
</g>
</g>
<!-- Node1&#45;&gt;Node3 -->
<g id="edge2_Node000001_Node000003" class="edge">
<title>Node1&#45;&gt;Node3</title>
<g id="a_edge2_Node000001_Node000003"><a xlink:title=" ">
<path fill="none" stroke="#63b8ff" d="M96.35,-93.74C112.38,-98.02 131.26,-103.06 148.31,-107.62"/>
<polygon fill="#63b8ff" stroke="#63b8ff" points="147.17,-110.94 157.74,-110.14 148.98,-104.17 147.17,-110.94"/>
</a>
</g>
</g>
<!-- Node5 -->
<g id="Node000005" class="node">
<title>Node5</title>
<g id="a_Node000005"><a xlink:href="a00505.xhtml#a9811f50434dd058d201290b2dc98bfcd" target="_top" xlink:title=" ">
<polygon fill="white" stroke="#666666" points="241.25,-93.25 154.75,-93.25 154.75,-74 241.25,-74 241.25,-93.25"/>
<text text-anchor="middle" x="198" y="-79.75" font-family="Helvetica,sans-Serif" font-size="10.00">CVector::mulC_I</text>
</a>
</g>
</g>
<!-- Node1&#45;&gt;Node5 -->
<g id="edge4_Node000001_Node000005" class="edge">
<title>Node1&#45;&gt;Node5</title>
<g id="a_edge4_Node000001_Node000005"><a xlink:title=" ">
<path fill="none" stroke="#63b8ff" d="M115.23,-83.62C124.48,-83.62 134.03,-83.62 143.2,-83.62"/>
<polygon fill="#63b8ff" stroke="#63b8ff" points="143.05,-87.13 153.05,-83.63 143.05,-80.13 143.05,-87.13"/>
</a>
</g>
</g>
<!-- Node6 -->
<g id="Node000006" class="node">
<title>Node6</title>
<g id="a_Node000006"><a xlink:href="a00505.xhtml#a4cf9544dd96801e3ee47fd1ef2049a1b" target="_top" xlink:title=" ">
<polygon fill="white" stroke="#666666" points="245,-56.25 151,-56.25 151,-37 245,-37 245,-56.25"/>
<text text-anchor="middle" x="198" y="-42.75" font-family="Helvetica,sans-Serif" font-size="10.00">CVector::setValue</text>
</a>
</g>
</g>
<!-- Node1&#45;&gt;Node6 -->
<g id="edge5_Node000001_Node000006" class="edge">
<title>Node1&#45;&gt;Node6</title>
<g id="a_edge5_Node000001_Node000006"><a xlink:title=" ">
<path fill="none" stroke="#63b8ff" d="M96.35,-73.51C112.38,-69.23 131.26,-64.19 148.31,-59.63"/>
<polygon fill="#63b8ff" stroke="#63b8ff" points="148.98,-63.08 157.74,-57.11 147.17,-56.31 148.98,-63.08"/>
</a>
</g>
</g>
<!-- Node7 -->
<g id="Node000007" class="node">
<title>Node7</title>
<g id="a_Node000007"><a xlink:href="a00505.xhtml#a6dbb3f9f480568b60f7fe50090d20003" target="_top" xlink:title=" ">
<polygon fill="white" stroke="#666666" points="242.38,-19.25 153.62,-19.25 153.62,0 242.38,0 242.38,-19.25"/>
<text text-anchor="middle" x="198" y="-5.75" font-family="Helvetica,sans-Serif" font-size="10.00">CVector::setZero</text>
</a>
</g>
</g>
<!-- Node1&#45;&gt;Node7 -->
<g id="edge6_Node000001_Node000007" class="edge">
<title>Node1&#45;&gt;Node7</title>
<g id="a_edge6_Node000001_Node000007"><a xlink:title=" ">
<path fill="none" stroke="#63b8ff" d="M73.12,-73.7C90.98,-61.81 122.39,-41.76 151,-27.62 153.4,-26.44 155.9,-25.28 158.44,-24.15"/>
<polygon fill="#63b8ff" stroke="#63b8ff" points="159.69,-27.42 167.54,-20.31 156.97,-20.97 159.69,-27.42"/>
</a>
</g>
</g>
<!-- Node4 -->
<g id="Node000004" class="node">
<title>Node4</title>
<g id="a_Node000004"><a xlink:href="a00505.xhtml#a34a5c0abd80cd982df8a8bae7cbcea19" target="_top" xlink:title=" ">
<polygon fill="white" stroke="#666666" points="369.75,-130.25 281,-130.25 281,-111 369.75,-111 369.75,-130.25"/>
<text text-anchor="middle" x="325.38" y="-116.75" font-family="Helvetica,sans-Serif" font-size="10.00">CVector::findMax</text>
</a>
</g>
</g>
<!-- Node3&#45;&gt;Node4 -->
<g id="edge3_Node000003_Node000004" class="edge">
<title>Node3&#45;&gt;Node4</title>
<g id="a_edge3_Node000003_Node000004"><a xlink:title=" ">
<path fill="none" stroke="#63b8ff" d="M241.8,-120.62C250.77,-120.62 260.36,-120.62 269.7,-120.62"/>
<polygon fill="#63b8ff" stroke="#63b8ff" points="269.41,-124.13 279.41,-120.63 269.41,-117.13 269.41,-124.13"/>
</a>
</g>
</g>
</g>
</svg>
</svg>

<style type='text/css'>
<![CDATA[
[data-mouse-over-selected='false'] { opacity: 0.7; }
[data-mouse-over-selected='true']  { opacity: 1.0; }
]]>
</style>
<script type="application/ecmascript"><![CDATA[
document.addEventListener('DOMContentLoaded', (event) => {
  highlightEdges();
  highlightAdjacentNodes();
});
]]></script>
</svg>
