<?xml version="1.0" encoding="UTF-8" standalone="no"?>
<!DOCTYPE svg PUBLIC "-//W3C//DTD SVG 1.1//EN"
 "http://www.w3.org/Graphics/SVG/1.1/DTD/svg11.dtd">
<!-- Generated by graphviz version 12.2.1 (20241206.2353)
 -->
<!-- Title: CDtw::compDtw Pages: 1 -->
<svg width="219pt" height="101pt"
 viewBox="0.00 0.00 218.50 101.25" xmlns="http://www.w3.org/2000/svg" xmlns:xlink="http://www.w3.org/1999/xlink">

<svg id="main" version="1.1" xmlns="http://www.w3.org/2000/svg" xmlns:xlink="http://www.w3.org/1999/xlink" xml:space="preserve">

<style type="text/css"><![CDATA[
.node, .edge {opacity: 0.7;}
.node.selected, .edge.selected {opacity: 1;}
.edge:hover path { stroke: red; }
.edge:hover polygon { stroke: red; fill: red; }
]]></style>
<script type="application/ecmascript" xlink:href="svg.min.js"/>
<svg id="graph" class="graph">
<g id="graph0" class="graph" transform="scale(1 1) rotate(0) translate(4 97.25)">
<title>CDtw::compDtw</title>
<!-- Node1 -->
<g id="Node000001" class="node">
<title>Node1</title>
<g id="a_Node000001"><a xlink:title=" ">
<polygon fill="#999999" stroke="#666666" points="85.75,-56.25 0,-56.25 0,-37 85.75,-37 85.75,-56.25"/>
<text text-anchor="middle" x="42.88" y="-42.75" font-family="Helvetica,sans-Serif" font-size="10.00">CDtw::compDtw</text>
</a>
</g>
</g>
<!-- Node2 -->
<g id="Node000002" class="node">
<title>Node2</title>
<g id="a_Node000002"><a xlink:href="a00621.xhtml#a91a31c5e78ab3531487f88efdb1f692b" target="_top" xlink:title=" ">
<polygon fill="white" stroke="#666666" points="206.38,-93.25 125.88,-93.25 125.88,-74 206.38,-74 206.38,-93.25"/>
<text text-anchor="middle" x="166.12" y="-79.75" font-family="Helvetica,sans-Serif" font-size="10.00">CDtw::findMin_</text>
</a>
</g>
</g>
<!-- Node1&#45;&gt;Node2 -->
<g id="edge1_Node000001_Node000002" class="edge">
<title>Node1&#45;&gt;Node2</title>
<g id="a_edge1_Node000001_Node000002"><a xlink:title=" ">
<path fill="none" stroke="#63b8ff" d="M77.01,-56.74C90.64,-60.9 106.63,-65.77 121.21,-70.23"/>
<polygon fill="#63b8ff" stroke="#63b8ff" points="120,-73.51 130.59,-73.09 122.04,-66.82 120,-73.51"/>
</a>
</g>
</g>
<!-- Node3 -->
<g id="Node000003" class="node">
<title>Node3</title>
<g id="a_Node000003"><a xlink:href="a00505.xhtml#a6dbb3f9f480568b60f7fe50090d20003" target="_top" xlink:title=" ">
<polygon fill="white" stroke="#666666" points="210.5,-56.25 121.75,-56.25 121.75,-37 210.5,-37 210.5,-56.25"/>
<text text-anchor="middle" x="166.12" y="-42.75" font-family="Helvetica,sans-Serif" font-size="10.00">CVector::setZero</text>
</a>
</g>
</g>
<!-- Node1&#45;&gt;Node3 -->
<g id="edge2_Node000001_Node000003" class="edge">
<title>Node1&#45;&gt;Node3</title>
<g id="a_edge2_Node000001_Node000003"><a xlink:title=" ">
<path fill="none" stroke="#63b8ff" d="M85.94,-46.62C93.75,-46.62 102.02,-46.62 110.15,-46.62"/>
<polygon fill="#63b8ff" stroke="#63b8ff" points="109.97,-50.13 119.97,-46.63 109.97,-43.13 109.97,-50.13"/>
</a>
</g>
</g>
<!-- Node4 -->
<g id="Node000004" class="node">
<title>Node4</title>
<g id="a_Node000004"><a xlink:href="a00501.xhtml#a4518cf65aacb5732281b35ee427d0fc2" target="_top" xlink:title=" ">
<polygon fill="white" stroke="#666666" points="198.88,-19.25 133.38,-19.25 133.38,0 198.88,0 198.88,-19.25"/>
<text text-anchor="middle" x="166.12" y="-5.75" font-family="Helvetica,sans-Serif" font-size="10.00">CUtil::swap</text>
</a>
</g>
</g>
<!-- Node1&#45;&gt;Node4 -->
<g id="edge3_Node000001_Node000004" class="edge">
<title>Node1&#45;&gt;Node4</title>
<g id="a_edge3_Node000001_Node000004"><a xlink:title=" ">
<path fill="none" stroke="#63b8ff" d="M77.01,-36.51C90.98,-32.25 107.41,-27.24 122.29,-22.7"/>
<polygon fill="#63b8ff" stroke="#63b8ff" points="123.3,-26.05 131.84,-19.78 121.25,-19.35 123.3,-26.05"/>
</a>
</g>
</g>
</g>
</svg>
</svg>

<style type='text/css'>
<![CDATA[
[data-mouse-over-selected='false'] { opacity: 0.7; }
[data-mouse-over-selected='true']  { opacity: 1.0; }
]]>
</style>
<script type="application/ecmascript"><![CDATA[
document.addEventListener('DOMContentLoaded', (event) => {
  highlightEdges();
  highlightAdjacentNodes();
});
]]></script>
</svg>
