<?xml version="1.0" encoding="UTF-8" standalone="no"?>
<!DOCTYPE svg PUBLIC "-//W3C//DTD SVG 1.1//EN"
 "http://www.w3.org/Graphics/SVG/1.1/DTD/svg11.dtd">
<!-- Generated by graphviz version 6.0.1 (20220911.1526)
 -->
<!-- Title: CSeqFeatureSel::init Pages: 1 -->
<!--zoomable 156 -->
<svg id="main" version="1.1" xmlns="http://www.w3.org/2000/svg" xmlns:xlink="http://www.w3.org/1999/xlink" xml:space="preserve" onload="init(evt)">
<style type="text/css"><![CDATA[
.edge:hover path { stroke: red; }
.edge:hover polygon { stroke: red; fill: red; }
]]></style>
<script type="text/javascript"><![CDATA[
var edges = document.getElementsByTagName('g');
if (edges && edges.length) {
  for (var i=0;i<edges.length;i++) {
    if (edges[i].id.substr(0,4)=='edge') {
      edges[i].setAttribute('class','edge');
    }
  }
}
]]></script>
        <defs>
                <circle id="rim" cx="0" cy="0" r="7"/>
                <circle id="rim2" cx="0" cy="0" r="3.5"/>
                <g id="zoomPlus">
                        <use xlink:href="#rim" fill="#404040">
                                <set attributeName="fill" to="#808080" begin="zoomplus.mouseover" end="zoomplus.mouseout"/>
                        </use>
                        <path d="M-4,0h8M0,-4v8" fill="none" stroke="white" stroke-width="1.5" pointer-events="none"/>
                </g>
                <g id="zoomMin">
                        <use xlink:href="#rim" fill="#404040">
                                <set attributeName="fill" to="#808080" begin="zoomminus.mouseover" end="zoomminus.mouseout"/>
                        </use>
                        <path d="M-4,0h8" fill="none" stroke="white" stroke-width="1.5" pointer-events="none"/>
                </g>
                <g id="dirArrow">
                        <path fill="none" stroke="white" stroke-width="1.5" d="M0,-3.0v7 M-2.5,-0.5L0,-3.0L2.5,-0.5"/>
                </g>
               <g id="resetDef">
                       <use xlink:href="#rim2" fill="#404040">
                               <set attributeName="fill" to="#808080" begin="reset.mouseover" end="reset.mouseout"/>
                       </use>
               </g>
        </defs>

<script type="text/javascript">
var viewWidth = 501;
var viewHeight = 156;
var sectionId = 'dynsection-3';
</script>
<script xlink:href="svgpan.js"/>
<svg id="graph" class="graph">
<g id="viewport">
<title>CSeqFeatureSel::init</title>
<!-- Node1 -->
<g id="node1" class="node">
<title>Node1</title>
<g id="a_node1"><a xlink:title=" ">
<polygon fill="#999999" stroke="#666666" points="105,-113 0,-113 0,-94 105,-94 105,-113"/>
<text text-anchor="middle" x="52.5" y="-101" font-family="Helvetica,sans-Serif" font-size="10.00">CSeqFeatureSel::init</text>
</a>
</g>
</g>
<!-- Node2 -->
<g id="node2" class="node">
<title>Node2</title>
<g id="a_node2"><a xlink:href="a00502.xhtml#abaadac98b1cad18b7b568852bc951696" target="_top" xlink:title=" ">
<polygon fill="white" stroke="#666666" points="368,-133 291,-133 291,-114 368,-114 368,-133"/>
<text text-anchor="middle" x="329.5" y="-121" font-family="Helvetica,sans-Serif" font-size="10.00">CVector::alloc</text>
</a>
</g>
</g>
<!-- Node1&#45;&gt;Node2 -->
<g id="edge1" class="edge">
<title>Node1&#45;&gt;Node2</title>
<path fill="none" stroke="#63b8ff" d="M69.92,-113.07C87.02,-122.44 114.89,-136.08 141,-141.5 190.61,-151.81 204.7,-147.57 255,-141.5 265.37,-140.25 276.39,-138.04 286.65,-135.59"/>
<polygon fill="#63b8ff" stroke="#63b8ff" points="287.77,-138.91 296.61,-133.08 286.06,-132.13 287.77,-138.91"/>
</g>
<!-- Node4 -->
<g id="node4" class="node">
<title>Node4</title>
<g id="a_node4"><a xlink:href="a00486.xhtml#a6501b78d76c912d49eee88c8f7242923" target="_top" xlink:title=" ">
<polygon fill="white" stroke="#666666" points="235,-132 161,-132 161,-113 235,-113 235,-132"/>
<text text-anchor="middle" x="198" y="-120" font-family="Helvetica,sans-Serif" font-size="10.00">CMatrix::alloc</text>
</a>
</g>
</g>
<!-- Node1&#45;&gt;Node4 -->
<g id="edge3" class="edge">
<title>Node1&#45;&gt;Node4</title>
<path fill="none" stroke="#63b8ff" d="M105.31,-110.36C120.17,-112.33 136.26,-114.46 150.76,-116.38"/>
<polygon fill="#63b8ff" stroke="#63b8ff" points="150.62,-119.89 161,-117.73 151.54,-112.95 150.62,-119.89"/>
</g>
<!-- Node5 -->
<g id="node5" class="node">
<title>Node5</title>
<g id="a_node5"><a xlink:href="a00614.xhtml#a37d8f47dd6453ece94d1d2dda95be5d2" target="_top" xlink:title=" ">
<polygon fill="white" stroke="#666666" points="255,-57 141,-57 141,-38 255,-38 255,-57"/>
<text text-anchor="middle" x="198" y="-45" font-family="Helvetica,sans-Serif" font-size="10.00">CSeqFeatureSel::reset</text>
</a>
</g>
</g>
<!-- Node1&#45;&gt;Node5 -->
<g id="edge5" class="edge">
<title>Node1&#45;&gt;Node5</title>
<path fill="none" stroke="#63b8ff" d="M76.04,-93.88C93.65,-86.45 118.76,-76.04 141,-67.5 147.07,-65.17 153.55,-62.77 159.86,-60.49"/>
<polygon fill="#63b8ff" stroke="#63b8ff" points="161.33,-63.68 169.56,-57.01 158.97,-57.09 161.33,-63.68"/>
</g>
<!-- Node8 -->
<g id="node8" class="node">
<title>Node8</title>
<g id="a_node8"><a xlink:href="a00626.xhtml#a1316452b2327c722f61ba7e2d78fb333" target="_top" xlink:title=" ">
<polygon fill="white" stroke="#666666" points="245,-95 151,-95 151,-76 245,-76 245,-95"/>
<text text-anchor="middle" x="198" y="-83" font-family="Helvetica,sans-Serif" font-size="10.00">CKnn::setParamK</text>
</a>
</g>
</g>
<!-- Node1&#45;&gt;Node8 -->
<g id="edge9" class="edge">
<title>Node1&#45;&gt;Node8</title>
<path fill="none" stroke="#63b8ff" d="M105.31,-97C116.86,-95.55 129.15,-94.01 140.87,-92.54"/>
<polygon fill="#63b8ff" stroke="#63b8ff" points="141.49,-95.99 150.98,-91.27 140.62,-89.04 141.49,-95.99"/>
</g>
<!-- Node3 -->
<g id="node3" class="node">
<title>Node3</title>
<g id="a_node3"><a xlink:href="a00502.xhtml#a6dbb3f9f480568b60f7fe50090d20003" target="_top" xlink:title=" ">
<polygon fill="white" stroke="#666666" points="493,-133 404,-133 404,-114 493,-114 493,-133"/>
<text text-anchor="middle" x="448.5" y="-121" font-family="Helvetica,sans-Serif" font-size="10.00">CVector::setZero</text>
</a>
</g>
</g>
<!-- Node2&#45;&gt;Node3 -->
<g id="edge2" class="edge">
<title>Node2&#45;&gt;Node3</title>
<path fill="none" stroke="#63b8ff" d="M368.16,-123.5C376.33,-123.5 385.11,-123.5 393.76,-123.5"/>
<polygon fill="#63b8ff" stroke="#63b8ff" points="393.8,-127 403.8,-123.5 393.8,-120 393.8,-127"/>
</g>
<!-- Node4&#45;&gt;Node2 -->
<g id="edge4" class="edge">
<title>Node4&#45;&gt;Node2</title>
<path fill="none" stroke="#63b8ff" d="M235.07,-122.78C249.18,-122.89 265.56,-123.01 280.63,-123.13"/>
<polygon fill="#63b8ff" stroke="#63b8ff" points="280.79,-126.63 290.81,-123.21 280.84,-119.63 280.79,-126.63"/>
</g>
<!-- Node6 -->
<g id="node6" class="node">
<title>Node6</title>
<g id="a_node6"><a xlink:href="a00502.xhtml#aa86bdb0c663d4d52f2765793756f8737" target="_top" xlink:title=" ">
<polygon fill="white" stroke="#666666" points="485,-57 412,-57 412,-38 485,-38 485,-57"/>
<text text-anchor="middle" x="448.5" y="-45" font-family="Helvetica,sans-Serif" font-size="10.00">CVector::free</text>
</a>
</g>
</g>
<!-- Node5&#45;&gt;Node6 -->
<g id="edge6" class="edge">
<title>Node5&#45;&gt;Node6</title>
<path fill="none" stroke="#63b8ff" d="M255.08,-47.5C299.42,-47.5 360.54,-47.5 401.9,-47.5"/>
<polygon fill="#63b8ff" stroke="#63b8ff" points="401.97,-51 411.97,-47.5 401.97,-44 401.97,-51"/>
</g>
<!-- Node7 -->
<g id="node7" class="node">
<title>Node7</title>
<g id="a_node7"><a xlink:href="a00486.xhtml#a591097c6b1935c4d6273b3445f8f552b" target="_top" xlink:title=" ">
<polygon fill="white" stroke="#666666" points="365,-19 294,-19 294,0 365,0 365,-19"/>
<text text-anchor="middle" x="329.5" y="-7" font-family="Helvetica,sans-Serif" font-size="10.00">CMatrix::free</text>
</a>
</g>
</g>
<!-- Node5&#45;&gt;Node7 -->
<g id="edge7" class="edge">
<title>Node5&#45;&gt;Node7</title>
<path fill="none" stroke="#63b8ff" d="M231.68,-37.91C248.09,-33.1 268.18,-27.2 285.79,-22.03"/>
<polygon fill="#63b8ff" stroke="#63b8ff" points="287.22,-25.26 295.83,-19.09 285.25,-18.54 287.22,-25.26"/>
</g>
<!-- Node7&#45;&gt;Node6 -->
<g id="edge8" class="edge">
<title>Node7&#45;&gt;Node6</title>
<path fill="none" stroke="#63b8ff" d="M360.02,-19.09C374.71,-23.86 392.66,-29.69 408.47,-34.82"/>
<polygon fill="#63b8ff" stroke="#63b8ff" points="407.39,-38.15 417.99,-37.91 409.56,-31.5 407.39,-38.15"/>
</g>
<!-- Node8&#45;&gt;Node2 -->
<g id="edge10" class="edge">
<title>Node8&#45;&gt;Node2</title>
<path fill="none" stroke="#63b8ff" d="M231.68,-95.09C248.09,-99.9 268.18,-105.8 285.79,-110.97"/>
<polygon fill="#63b8ff" stroke="#63b8ff" points="285.25,-114.46 295.83,-113.91 287.22,-107.74 285.25,-114.46"/>
</g>
<!-- Node8&#45;&gt;Node6 -->
<g id="edge11" class="edge">
<title>Node8&#45;&gt;Node6</title>
<path fill="none" stroke="#63b8ff" d="M245.33,-79.34C279.32,-74.72 326.59,-68.09 368,-61.5 379.02,-59.75 390.88,-57.73 401.98,-55.78"/>
<polygon fill="#63b8ff" stroke="#63b8ff" points="402.69,-59.21 411.92,-54.02 401.47,-52.32 402.69,-59.21"/>
</g>
</g>
</svg>
        <g id="navigator" transform="translate(0 0)" fill="#404254">
                <rect fill="#f2f5e9" fill-opacity="0.5" stroke="#606060" stroke-width=".5" x="0" y="0" width="60" height="60"/>
                <use id="zoomplus" xlink:href="#zoomPlus" x="17" y="9" onmousedown="handleZoom(evt,'in')"/>
                <use id="zoomminus" xlink:href="#zoomMin" x="42" y="9" onmousedown="handleZoom(evt,'out')"/>
                <use id="reset" xlink:href="#resetDef" x="30" y="36" onmousedown="handleReset()"/>
                <g id="arrowUp" xlink:href="#dirArrow" transform="translate(30 24)" onmousedown="handlePan(0,-1)">
                  <use xlink:href="#rim" fill="#404040">
                        <set attributeName="fill" to="#808080" begin="arrowUp.mouseover" end="arrowUp.mouseout"/>
                  </use>
                  <path fill="none" stroke="white" stroke-width="1.5" d="M0,-3.0v7 M-2.5,-0.5L0,-3.0L2.5,-0.5"/>
                </g>
                <g id="arrowRight" xlink:href="#dirArrow" transform="rotate(90) translate(36 -43)" onmousedown="handlePan(1,0)">
                  <use xlink:href="#rim" fill="#404040">
                        <set attributeName="fill" to="#808080" begin="arrowRight.mouseover" end="arrowRight.mouseout"/>
                  </use>
                  <path fill="none" stroke="white" stroke-width="1.5" d="M0,-3.0v7 M-2.5,-0.5L0,-3.0L2.5,-0.5"/>
                </g>
                <g id="arrowDown" xlink:href="#dirArrow" transform="rotate(180) translate(-30 -48)" onmousedown="handlePan(0,1)">
                  <use xlink:href="#rim" fill="#404040">
                        <set attributeName="fill" to="#808080" begin="arrowDown.mouseover" end="arrowDown.mouseout"/>
                  </use>
                  <path fill="none" stroke="white" stroke-width="1.5" d="M0,-3.0v7 M-2.5,-0.5L0,-3.0L2.5,-0.5"/>
                </g>
                <g id="arrowLeft" xlink:href="#dirArrow" transform="rotate(270) translate(-36 17)" onmousedown="handlePan(-1,0)">
                  <use xlink:href="#rim" fill="#404040">
                        <set attributeName="fill" to="#808080" begin="arrowLeft.mouseover" end="arrowLeft.mouseout"/>
                  </use>
                  <path fill="none" stroke="white" stroke-width="1.5" d="M0,-3.0v7 M-2.5,-0.5L0,-3.0L2.5,-0.5"/>
                </g>
        </g>
        <svg viewBox="0 0 15 15" width="100%" height="30px" preserveAspectRatio="xMaxYMin meet">
         <g id="arrow_out" transform="scale(0.3 0.3)">
          <a xlink:href="a00614_a4c73a4aebefda5d47e72187c160274b8_cgraph_org.svg" target="_base">
           <rect id="button" ry="5" rx="5" y="6" x="6" height="38" width="38"
                fill="#f2f5e9" fill-opacity="0.5" stroke="#606060" stroke-width="1.0"/>
           <path id="arrow"
             d="M 11.500037,31.436501 C 11.940474,20.09759 22.043105,11.32322 32.158766,21.979434 L 37.068811,17.246167 C 37.068811,17.246167 37.088388,32 37.088388,32 L 22.160133,31.978069 C 22.160133,31.978069 26.997745,27.140456 26.997745,27.140456 C 18.528582,18.264221 13.291696,25.230495 11.500037,31.436501 z"
             style="fill:#404040;"/>
          </a>
         </g>
        </svg>
</svg>
