<?xml version="1.0" encoding="UTF-8" standalone="no"?>
<!DOCTYPE svg PUBLIC "-//W3C//DTD SVG 1.1//EN"
 "http://www.w3.org/Graphics/SVG/1.1/DTD/svg11.dtd">
<!-- Generated by graphviz version 4.0.0 (20220602.1335)
 -->
<!-- Title: Catch::NonCopyable Pages: 1 -->
<!--zoomable 479 -->
<svg id="main" version="1.1" xmlns="http://www.w3.org/2000/svg" xmlns:xlink="http://www.w3.org/1999/xlink" xml:space="preserve" onload="init(evt)">
<style type="text/css"><![CDATA[
.edge:hover path { stroke: red; }
.edge:hover polygon { stroke: red; fill: red; }
]]></style>
<script type="text/javascript"><![CDATA[
var edges = document.getElementsByTagName('g');
if (edges && edges.length) {
  for (var i=0;i<edges.length;i++) {
    if (edges[i].id.substr(0,4)=='edge') {
      edges[i].setAttribute('class','edge');
    }
  }
}
]]></script>
        <defs>
                <circle id="rim" cx="0" cy="0" r="7"/>
                <circle id="rim2" cx="0" cy="0" r="3.5"/>
                <g id="zoomPlus">
                        <use xlink:href="#rim" fill="#404040">
                                <set attributeName="fill" to="#808080" begin="zoomplus.mouseover" end="zoomplus.mouseout"/>
                        </use>
                        <path d="M-4,0h8M0,-4v8" fill="none" stroke="white" stroke-width="1.5" pointer-events="none"/>
                </g>
                <g id="zoomMin">
                        <use xlink:href="#rim" fill="#404040">
                                <set attributeName="fill" to="#808080" begin="zoomminus.mouseover" end="zoomminus.mouseout"/>
                        </use>
                        <path d="M-4,0h8" fill="none" stroke="white" stroke-width="1.5" pointer-events="none"/>
                </g>
                <g id="dirArrow">
                        <path fill="none" stroke="white" stroke-width="1.5" d="M0,-3.0v7 M-2.5,-0.5L0,-3.0L2.5,-0.5"/>
                </g>
               <g id="resetDef">
                       <use xlink:href="#rim2" fill="#404040">
                               <set attributeName="fill" to="#808080" begin="reset.mouseover" end="reset.mouseout"/>
                       </use>
               </g>
        </defs>

<script type="text/javascript">
var viewWidth = 700;
var viewHeight = 479;
var sectionId = 'dynsection-0';
</script>
<script xlink:href="svgpan.js"/>
<svg id="graph" class="graph">
<g id="viewport">
<title>Catch::NonCopyable</title>
<polygon fill="white" stroke="transparent" points="-4,4 -4,-475 696,-475 696,4 -4,4"/>
<!-- Node1 -->
<g id="node1" class="node">
<title>Node1</title>
<g id="a_node1"><a xlink:title=" ">
<polygon fill="#bfbfbf" stroke="black" points="303,-303.5 303,-470.5 443,-470.5 443,-303.5 303,-303.5"/>
<text text-anchor="middle" x="373" y="-458.5" font-family="Helvetica,sans-Serif" font-size="10.00">Catch::NonCopyable</text>
<polyline fill="none" stroke="black" points="303,-451.5 443,-451.5 "/>
<text text-anchor="middle" x="373" y="-439.5" font-family="Helvetica,sans-Serif" font-size="10.00"> </text>
<polyline fill="none" stroke="black" points="303,-432.5 443,-432.5 "/>
<text text-anchor="start" x="311" y="-420.5" font-family="Helvetica,sans-Serif" font-size="10.00"># NonCopyable()</text>
<text text-anchor="start" x="311" y="-409.5" font-family="Helvetica,sans-Serif" font-size="10.00"># virtual ~NonCopyable()</text>
<text text-anchor="start" x="311" y="-398.5" font-family="Helvetica,sans-Serif" font-size="10.00">&#45; NonCopyable(NonCopyable</text>
<text text-anchor="start" x="311" y="-387.5" font-family="Helvetica,sans-Serif" font-size="10.00"> const &amp;)=delete</text>
<text text-anchor="start" x="311" y="-376.5" font-family="Helvetica,sans-Serif" font-size="10.00">&#45; NonCopyable(NonCopyable</text>
<text text-anchor="start" x="311" y="-365.5" font-family="Helvetica,sans-Serif" font-size="10.00"> &amp;&amp;)=delete</text>
<text text-anchor="start" x="311" y="-354.5" font-family="Helvetica,sans-Serif" font-size="10.00">&#45; NonCopyable &amp; operator</text>
<text text-anchor="start" x="311" y="-343.5" font-family="Helvetica,sans-Serif" font-size="10.00">=(NonCopyable const &amp;)</text>
<text text-anchor="start" x="311" y="-332.5" font-family="Helvetica,sans-Serif" font-size="10.00">=delete</text>
<text text-anchor="start" x="311" y="-321.5" font-family="Helvetica,sans-Serif" font-size="10.00">&#45; NonCopyable &amp; operator</text>
<text text-anchor="start" x="311" y="-310.5" font-family="Helvetica,sans-Serif" font-size="10.00">=(NonCopyable &amp;&amp;)=delete</text>
</a>
</g>
</g>
<!-- Node2 -->
<g id="node2" class="node">
<title>Node2</title>
<g id="a_node2"><a xlink:href="a00706.xhtml" target="_top" xlink:title=" ">
<polygon fill="white" stroke="black" points="0,-77.5 0,-189.5 188,-189.5 188,-77.5 0,-77.5"/>
<text text-anchor="middle" x="94" y="-177.5" font-family="Helvetica,sans-Serif" font-size="10.00">Catch::AutoReg</text>
<polyline fill="none" stroke="black" points="0,-170.5 188,-170.5 "/>
<text text-anchor="middle" x="94" y="-158.5" font-family="Helvetica,sans-Serif" font-size="10.00"> </text>
<polyline fill="none" stroke="black" points="0,-151.5 188,-151.5 "/>
<text text-anchor="start" x="8" y="-139.5" font-family="Helvetica,sans-Serif" font-size="10.00">+ AutoReg(ITestInvoker</text>
<text text-anchor="start" x="8" y="-128.5" font-family="Helvetica,sans-Serif" font-size="10.00"> *invoker, SourceLineInfo</text>
<text text-anchor="start" x="8" y="-117.5" font-family="Helvetica,sans-Serif" font-size="10.00"> const &amp;lineInfo, StringRef</text>
<text text-anchor="start" x="8" y="-106.5" font-family="Helvetica,sans-Serif" font-size="10.00"> const &amp;classOrMethod, NameAndTags</text>
<text text-anchor="start" x="8" y="-95.5" font-family="Helvetica,sans-Serif" font-size="10.00"> const &amp;nameAndTags) noexcept</text>
<text text-anchor="start" x="8" y="-84.5" font-family="Helvetica,sans-Serif" font-size="10.00">+ ~AutoReg()</text>
</a>
</g>
</g>
<!-- Node1&#45;&gt;Node2 -->
<g id="edge1" class="edge">
<title>Node1&#45;&gt;Node2</title>
<path fill="none" stroke="midnightblue" d="M293.99,-340.14C262.16,-319.8 226.17,-294.3 197,-267 172.43,-244.01 149.06,-214.79 130.82,-189.64"/>
<polygon fill="none" stroke="midnightblue" points="292.52,-343.35 302.84,-345.74 296.26,-337.43 292.52,-343.35"/>
</g>
<!-- Node3 -->
<g id="node3" class="node">
<title>Node3</title>
<g id="a_node3"><a xlink:href="a01170.xhtml" target="_top" xlink:title=" ">
<polygon fill="white" stroke="black" points="206,-0.5 206,-266.5 360,-266.5 360,-0.5 206,-0.5"/>
<text text-anchor="middle" x="283" y="-254.5" font-family="Helvetica,sans-Serif" font-size="10.00">Catch::IConfig</text>
<polyline fill="none" stroke="black" points="206,-247.5 360,-247.5 "/>
<text text-anchor="middle" x="283" y="-235.5" font-family="Helvetica,sans-Serif" font-size="10.00"> </text>
<polyline fill="none" stroke="black" points="206,-228.5 360,-228.5 "/>
<text text-anchor="start" x="214" y="-216.5" font-family="Helvetica,sans-Serif" font-size="10.00">+ virtual ~IConfig()</text>
<text text-anchor="start" x="214" y="-205.5" font-family="Helvetica,sans-Serif" font-size="10.00">+ virtual bool allowThrows</text>
<text text-anchor="start" x="214" y="-194.5" font-family="Helvetica,sans-Serif" font-size="10.00">() const =0</text>
<text text-anchor="start" x="214" y="-183.5" font-family="Helvetica,sans-Serif" font-size="10.00">+ virtual std::ostream</text>
<text text-anchor="start" x="214" y="-172.5" font-family="Helvetica,sans-Serif" font-size="10.00"> &amp; stream() const =0</text>
<text text-anchor="start" x="214" y="-161.5" font-family="Helvetica,sans-Serif" font-size="10.00">+ virtual std::string</text>
<text text-anchor="start" x="214" y="-150.5" font-family="Helvetica,sans-Serif" font-size="10.00"> name() const =0</text>
<text text-anchor="start" x="214" y="-139.5" font-family="Helvetica,sans-Serif" font-size="10.00">+ virtual bool includeSuccessful</text>
<text text-anchor="start" x="214" y="-128.5" font-family="Helvetica,sans-Serif" font-size="10.00">Results() const =0</text>
<text text-anchor="start" x="214" y="-117.5" font-family="Helvetica,sans-Serif" font-size="10.00">+ virtual bool shouldDebug</text>
<text text-anchor="start" x="214" y="-106.5" font-family="Helvetica,sans-Serif" font-size="10.00">Break() const =0</text>
<text text-anchor="start" x="214" y="-95.5" font-family="Helvetica,sans-Serif" font-size="10.00">+ virtual bool warnAboutMissing</text>
<text text-anchor="start" x="214" y="-84.5" font-family="Helvetica,sans-Serif" font-size="10.00">Assertions() const =0</text>
<text text-anchor="start" x="214" y="-73.5" font-family="Helvetica,sans-Serif" font-size="10.00">+ virtual bool warnAboutNo</text>
<text text-anchor="start" x="214" y="-62.5" font-family="Helvetica,sans-Serif" font-size="10.00">Tests() const =0</text>
<text text-anchor="start" x="214" y="-51.5" font-family="Helvetica,sans-Serif" font-size="10.00">+ virtual int abortAfter</text>
<text text-anchor="start" x="214" y="-40.5" font-family="Helvetica,sans-Serif" font-size="10.00">() const =0</text>
<text text-anchor="start" x="214" y="-29.5" font-family="Helvetica,sans-Serif" font-size="10.00">+ virtual bool showInvisibles</text>
<text text-anchor="start" x="214" y="-18.5" font-family="Helvetica,sans-Serif" font-size="10.00">() const =0</text>
<text text-anchor="start" x="214" y="-7.5" font-family="Helvetica,sans-Serif" font-size="10.00">and 15 more...</text>
</a>
</g>
</g>
<!-- Node1&#45;&gt;Node3 -->
<g id="edge2" class="edge">
<title>Node1&#45;&gt;Node3</title>
<path fill="none" stroke="midnightblue" d="M340.02,-293.83C336.86,-285.02 333.62,-275.96 330.36,-266.86"/>
<polygon fill="none" stroke="midnightblue" points="336.74,-295.07 343.41,-303.3 343.33,-292.71 336.74,-295.07"/>
</g>
<!-- Node4 -->
<g id="node4" class="node">
<title>Node4</title>
<g id="a_node4"><a xlink:href="a00726.xhtml" target="_top" xlink:title=" ">
<polygon fill="white" stroke="black" points="378,-61 378,-206 550,-206 550,-61 378,-61"/>
<text text-anchor="middle" x="464" y="-194" font-family="Helvetica,sans-Serif" font-size="10.00">Catch::ReusableStringStream</text>
<polyline fill="none" stroke="black" points="378,-187 550,-187 "/>
<text text-anchor="start" x="386" y="-175" font-family="Helvetica,sans-Serif" font-size="10.00">&#45; std::size_t m_index</text>
<text text-anchor="start" x="386" y="-164" font-family="Helvetica,sans-Serif" font-size="10.00">&#45; std::ostream * m_oss</text>
<polyline fill="none" stroke="black" points="378,-157 550,-157 "/>
<text text-anchor="start" x="386" y="-145" font-family="Helvetica,sans-Serif" font-size="10.00">+ ReusableStringStream()</text>
<text text-anchor="start" x="386" y="-134" font-family="Helvetica,sans-Serif" font-size="10.00">+ ~ReusableStringStream()</text>
<text text-anchor="start" x="386" y="-123" font-family="Helvetica,sans-Serif" font-size="10.00">+ auto str() const &#45;&gt;</text>
<text text-anchor="start" x="386" y="-112" font-family="Helvetica,sans-Serif" font-size="10.00"> std::string</text>
<text text-anchor="start" x="386" y="-101" font-family="Helvetica,sans-Serif" font-size="10.00">+ auto operator&lt;&lt;(T const</text>
<text text-anchor="start" x="386" y="-90" font-family="Helvetica,sans-Serif" font-size="10.00"> &amp;value) &#45;&gt; ReusableStringStream &amp;</text>
<text text-anchor="start" x="386" y="-79" font-family="Helvetica,sans-Serif" font-size="10.00">+ auto get() &#45;&gt; std::</text>
<text text-anchor="start" x="386" y="-68" font-family="Helvetica,sans-Serif" font-size="10.00">ostream &amp;</text>
</a>
</g>
</g>
<!-- Node1&#45;&gt;Node4 -->
<g id="edge3" class="edge">
<title>Node1&#45;&gt;Node4</title>
<path fill="none" stroke="#8b1a1a" d="M406.42,-293.63C416.85,-264.81 428.19,-233.46 438.03,-206.27"/>
<polygon fill="none" stroke="#8b1a1a" points="403.03,-292.71 402.92,-303.3 409.62,-295.09 403.03,-292.71"/>
</g>
<!-- Node5 -->
<g id="node5" class="node">
<title>Node5</title>
<g id="a_node5"><a xlink:href="a00946.xhtml" target="_top" xlink:title=" ">
<polygon fill="white" stroke="black" points="568,-66.5 568,-200.5 692,-200.5 692,-66.5 568,-66.5"/>
<text text-anchor="middle" x="630" y="-188.5" font-family="Helvetica,sans-Serif" font-size="10.00">Catch::Section</text>
<polyline fill="none" stroke="black" points="568,-181.5 692,-181.5 "/>
<text text-anchor="start" x="576" y="-169.5" font-family="Helvetica,sans-Serif" font-size="10.00">&#45; SectionInfo m_info</text>
<text text-anchor="start" x="576" y="-158.5" font-family="Helvetica,sans-Serif" font-size="10.00">&#45; std::string m_name</text>
<text text-anchor="start" x="576" y="-147.5" font-family="Helvetica,sans-Serif" font-size="10.00">&#45; Counts m_assertions</text>
<text text-anchor="start" x="576" y="-136.5" font-family="Helvetica,sans-Serif" font-size="10.00">&#45; bool m_sectionIncluded</text>
<text text-anchor="start" x="576" y="-125.5" font-family="Helvetica,sans-Serif" font-size="10.00">&#45; Timer m_timer</text>
<polyline fill="none" stroke="black" points="568,-118.5 692,-118.5 "/>
<text text-anchor="start" x="576" y="-106.5" font-family="Helvetica,sans-Serif" font-size="10.00">+ Section(SectionInfo</text>
<text text-anchor="start" x="576" y="-95.5" font-family="Helvetica,sans-Serif" font-size="10.00"> const &amp;info)</text>
<text text-anchor="start" x="576" y="-84.5" font-family="Helvetica,sans-Serif" font-size="10.00">+ ~Section()</text>
<text text-anchor="start" x="576" y="-73.5" font-family="Helvetica,sans-Serif" font-size="10.00">+ operator bool() const</text>
</a>
</g>
</g>
<!-- Node1&#45;&gt;Node5 -->
<g id="edge4" class="edge">
<title>Node1&#45;&gt;Node5</title>
<path fill="none" stroke="#8b1a1a" d="M452.22,-347.28C487.99,-326.98 528.87,-299.55 559,-267 576.73,-247.85 591.44,-223.44 602.79,-200.81"/>
<polygon fill="none" stroke="#8b1a1a" points="450.28,-344.35 443.25,-352.28 453.69,-350.47 450.28,-344.35"/>
</g>
</g>
</svg>
        <g id="navigator" transform="translate(0 0)" fill="#404254">
                <rect fill="#f2f5e9" fill-opacity="0.5" stroke="#606060" stroke-width=".5" x="0" y="0" width="60" height="60"/>
                <use id="zoomplus" xlink:href="#zoomPlus" x="17" y="9" onmousedown="handleZoom(evt,'in')"/>
                <use id="zoomminus" xlink:href="#zoomMin" x="42" y="9" onmousedown="handleZoom(evt,'out')"/>
                <use id="reset" xlink:href="#resetDef" x="30" y="36" onmousedown="handleReset()"/>
                <g id="arrowUp" xlink:href="#dirArrow" transform="translate(30 24)" onmousedown="handlePan(0,-1)">
                  <use xlink:href="#rim" fill="#404040">
                        <set attributeName="fill" to="#808080" begin="arrowUp.mouseover" end="arrowUp.mouseout"/>
                  </use>
                  <path fill="none" stroke="white" stroke-width="1.5" d="M0,-3.0v7 M-2.5,-0.5L0,-3.0L2.5,-0.5"/>
                </g>
                <g id="arrowRight" xlink:href="#dirArrow" transform="rotate(90) translate(36 -43)" onmousedown="handlePan(1,0)">
                  <use xlink:href="#rim" fill="#404040">
                        <set attributeName="fill" to="#808080" begin="arrowRight.mouseover" end="arrowRight.mouseout"/>
                  </use>
                  <path fill="none" stroke="white" stroke-width="1.5" d="M0,-3.0v7 M-2.5,-0.5L0,-3.0L2.5,-0.5"/>
                </g>
                <g id="arrowDown" xlink:href="#dirArrow" transform="rotate(180) translate(-30 -48)" onmousedown="handlePan(0,1)">
                  <use xlink:href="#rim" fill="#404040">
                        <set attributeName="fill" to="#808080" begin="arrowDown.mouseover" end="arrowDown.mouseout"/>
                  </use>
                  <path fill="none" stroke="white" stroke-width="1.5" d="M0,-3.0v7 M-2.5,-0.5L0,-3.0L2.5,-0.5"/>
                </g>
                <g id="arrowLeft" xlink:href="#dirArrow" transform="rotate(270) translate(-36 17)" onmousedown="handlePan(-1,0)">
                  <use xlink:href="#rim" fill="#404040">
                        <set attributeName="fill" to="#808080" begin="arrowLeft.mouseover" end="arrowLeft.mouseout"/>
                  </use>
                  <path fill="none" stroke="white" stroke-width="1.5" d="M0,-3.0v7 M-2.5,-0.5L0,-3.0L2.5,-0.5"/>
                </g>
        </g>
        <svg viewBox="0 0 15 15" width="100%" height="30px" preserveAspectRatio="xMaxYMin meet">
         <g id="arrow_out" transform="scale(0.3 0.3)">
          <a xlink:href="a00649_org.svg" target="_base">
           <rect id="button" ry="5" rx="5" y="6" x="6" height="38" width="38"
                fill="#f2f5e9" fill-opacity="0.5" stroke="#606060" stroke-width="1.0"/>
           <path id="arrow"
             d="M 11.500037,31.436501 C 11.940474,20.09759 22.043105,11.32322 32.158766,21.979434 L 37.068811,17.246167 C 37.068811,17.246167 37.088388,32 37.088388,32 L 22.160133,31.978069 C 22.160133,31.978069 26.997745,27.140456 26.997745,27.140456 C 18.528582,18.264221 13.291696,25.230495 11.500037,31.436501 z"
             style="fill:#404040;"/>
          </a>
         </g>
        </svg>
</svg>
