<?xml version="1.0" encoding="UTF-8" standalone="no"?>
<!DOCTYPE svg PUBLIC "-//W3C//DTD SVG 1.1//EN"
 "http://www.w3.org/Graphics/SVG/1.1/DTD/svg11.dtd">
<!-- Generated by graphviz version 12.2.1 (20241206.2353)
 -->
<!-- Title: CNormalizeAudio::CNormalizeAudio Pages: 1 -->
<svg width="336pt" height="76pt"
 viewBox="0.00 0.00 335.50 75.88" xmlns="http://www.w3.org/2000/svg" xmlns:xlink="http://www.w3.org/1999/xlink">
<g id="graph0" class="graph" transform="scale(1 1) rotate(0) translate(4 71.88)">
<title>CNormalizeAudio::CNormalizeAudio</title>
<!-- Node1 -->
<g id="Node000001" class="node">
<title>Node1</title>
<g id="a_Node000001"><a xlink:title=" ">
<polygon fill="#999999" stroke="#666666" points="327.5,-45.88 181.75,-45.88 181.75,-15.37 327.5,-15.37 327.5,-45.88"/>
<text text-anchor="start" x="189.75" y="-32.38" font-family="Helvetica,sans-Serif" font-size="10.00">CNormalizeAudio::CNormalize</text>
<text text-anchor="middle" x="254.62" y="-21.12" font-family="Helvetica,sans-Serif" font-size="10.00">Audio</text>
</a>
</g>
</g>
<!-- Node2 -->
<g id="Node000002" class="node">
<title>Node2</title>
<g id="a_Node000002"><a xlink:href="a00609.xhtml#aaf6489c5dbf137788c7b2cdd8712699a" target="_top" xlink:title=" ">
<polygon fill="white" stroke="#666666" points="145.75,-67.88 0,-67.88 0,-37.38 145.75,-37.38 145.75,-67.88"/>
<text text-anchor="start" x="8" y="-54.38" font-family="Helvetica,sans-Serif" font-size="10.00">CNormalizeAudio::CNormalize</text>
<text text-anchor="middle" x="72.88" y="-43.12" font-family="Helvetica,sans-Serif" font-size="10.00">Audio</text>
</a>
</g>
</g>
<!-- Node1&#45;&gt;Node2 -->
<g id="edge1_Node000001_Node000002" class="edge">
<title>Node1&#45;&gt;Node2</title>
<g id="a_edge1_Node000001_Node000002"><a xlink:title=" ">
<path fill="none" stroke="#63b8ff" d="M170.04,-40.86C162.03,-41.84 153.95,-42.82 146.06,-43.79"/>
<polygon fill="#63b8ff" stroke="#63b8ff" points="170.29,-44.35 179.79,-39.66 169.44,-37.4 170.29,-44.35"/>
</a>
</g>
</g>
<!-- Node3 -->
<g id="Node000003" class="node">
<title>Node3</title>
<g id="a_Node000003"><a xlink:href="a00609.xhtml#ac6e402e21d79f8b31104bcf89027e380" target="_top" xlink:title=" ">
<polygon fill="white" stroke="#666666" points="141.25,-19.25 4.5,-19.25 4.5,0 141.25,0 141.25,-19.25"/>
<text text-anchor="middle" x="72.88" y="-5.75" font-family="Helvetica,sans-Serif" font-size="10.00">CNormalizeAudio::operator=</text>
</a>
</g>
</g>
<!-- Node1&#45;&gt;Node3 -->
<g id="edge2_Node000001_Node000003" class="edge">
<title>Node1&#45;&gt;Node3</title>
<g id="a_edge2_Node000001_Node000003"><a xlink:title=" ">
<path fill="none" stroke="#63b8ff" d="M170.16,-20.87C160.63,-19.76 150.99,-18.63 141.69,-17.55"/>
<polygon fill="#63b8ff" stroke="#63b8ff" points="169.45,-24.31 179.79,-22 170.26,-17.36 169.45,-24.31"/>
</a>
</g>
</g>
</g>
</svg>
