<?xml version="1.0" encoding="UTF-8" standalone="no"?>
<!DOCTYPE svg PUBLIC "-//W3C//DTD SVG 1.1//EN"
 "http://www.w3.org/Graphics/SVG/1.1/DTD/svg11.dtd">
<!-- Generated by graphviz version 6.0.1 (20220911.1526)
 -->
<!-- Title: CResample::getOutputLength Pages: 1 -->
<svg width="490pt" height="46pt"
 viewBox="0.00 0.00 490.00 46.00" xmlns="http://www.w3.org/2000/svg" xmlns:xlink="http://www.w3.org/1999/xlink">
<g id="graph0" class="graph" transform="scale(1 1) rotate(0) translate(4 42)">
<title>CResample::getOutputLength</title>
<!-- Node1 -->
<g id="node1" class="node">
<title>Node1</title>
<g id="a_node1"><a xlink:title=" ">
<polygon fill="#999999" stroke="#666666" points="482,-38 338,-38 338,-19 482,-19 482,-38"/>
<text text-anchor="middle" x="410" y="-26" font-family="Helvetica,sans-Serif" font-size="10.00">CResample::getOutputLength</text>
</a>
</g>
</g>
<!-- Node2 -->
<g id="node2" class="node">
<title>Node2</title>
<g id="a_node2"><a xlink:href="a00554.xhtml#ab79f4706d42b250f36c91cfd075bc8df" target="_top" xlink:title=" ">
<polygon fill="white" stroke="#666666" points="160,-38 74,-38 74,-19 160,-19 160,-38"/>
<text text-anchor="middle" x="117" y="-26" font-family="Helvetica,sans-Serif" font-size="10.00">CFingerprint::init</text>
</a>
</g>
</g>
<!-- Node1&#45;&gt;Node2 -->
<g id="edge1" class="edge">
<title>Node1&#45;&gt;Node2</title>
<path fill="none" stroke="#63b8ff" d="M327.49,-28.5C273.08,-28.5 203.75,-28.5 160.11,-28.5"/>
<polygon fill="#63b8ff" stroke="#63b8ff" points="327.81,-32 337.81,-28.5 327.81,-25 327.81,-32"/>
</g>
<!-- Node4 -->
<g id="node4" class="node">
<title>Node4</title>
<g id="a_node4"><a xlink:href="a00610.xhtml#a040a6674ec0ff9171d6b4cb4b8436cb2" target="_top" xlink:title=" ">
<polygon fill="white" stroke="#666666" points="302,-19 196,-19 196,0 302,0 302,-19"/>
<text text-anchor="middle" x="249" y="-7" font-family="Helvetica,sans-Serif" font-size="10.00">CResample::process</text>
</a>
</g>
</g>
<!-- Node1&#45;&gt;Node4 -->
<g id="edge3" class="edge">
<title>Node1&#45;&gt;Node4</title>
<path fill="none" stroke="#63b8ff" d="M327.93,-18.81C319.12,-17.76 310.33,-16.71 302,-15.71"/>
<polygon fill="#63b8ff" stroke="#63b8ff" points="327.53,-22.29 337.87,-20 328.36,-15.34 327.53,-22.29"/>
</g>
<!-- Node3 -->
<g id="node3" class="node">
<title>Node3</title>
<g id="a_node3"><a xlink:href="a00116.xhtml#a0ddf1224851353fc92bfbff6f499fa97" target="_top" xlink:title=" ">
<polygon fill="white" stroke="#666666" points="38,-38 0,-38 0,-19 38,-19 38,-38"/>
<text text-anchor="middle" x="19" y="-26" font-family="Helvetica,sans-Serif" font-size="10.00">main</text>
</a>
</g>
</g>
<!-- Node2&#45;&gt;Node3 -->
<g id="edge2" class="edge">
<title>Node2&#45;&gt;Node3</title>
<path fill="none" stroke="#63b8ff" d="M63.89,-28.5C54.68,-28.5 45.68,-28.5 38.24,-28.5"/>
<polygon fill="#63b8ff" stroke="#63b8ff" points="63.89,-32 73.89,-28.5 63.89,-25 63.89,-32"/>
</g>
<!-- Node4&#45;&gt;Node2 -->
<g id="edge4" class="edge">
<title>Node4&#45;&gt;Node2</title>
<path fill="none" stroke="#63b8ff" d="M185.76,-18.6C177.08,-19.87 168.34,-21.14 160.15,-22.34"/>
<polygon fill="#63b8ff" stroke="#63b8ff" points="186.48,-22.03 195.87,-17.12 185.47,-15.1 186.48,-22.03"/>
</g>
</g>
</svg>
