<?xml version="1.0" encoding="UTF-8" standalone="no"?>
<!DOCTYPE svg PUBLIC "-//W3C//DTD SVG 1.1//EN"
 "http://www.w3.org/Graphics/SVG/1.1/DTD/svg11.dtd">
<!-- Generated by graphviz version 4.0.0 (20220602.1335)
 -->
<!-- Title: CKnn::buildHistogram_ Pages: 1 -->
<svg width="380pt" height="180pt"
 viewBox="0.00 0.00 380.00 180.00" xmlns="http://www.w3.org/2000/svg" xmlns:xlink="http://www.w3.org/1999/xlink">
<g id="graph0" class="graph" transform="scale(1 1) rotate(0) translate(4 176)">
<title>CKnn::buildHistogram_</title>
<polygon fill="white" stroke="transparent" points="-4,4 -4,-176 376,-176 376,4 -4,4"/>
<!-- Node1 -->
<g id="node1" class="node">
<title>Node1</title>
<g id="a_node1"><a xlink:title=" ">
<polygon fill="#bfbfbf" stroke="black" points="0,-76.5 0,-95.5 116,-95.5 116,-76.5 0,-76.5"/>
<text text-anchor="middle" x="58" y="-83.5" font-family="Helvetica,sans-Serif" font-size="10.00">CKnn::buildHistogram_</text>
</a>
</g>
</g>
<!-- Node2 -->
<g id="node2" class="node">
<title>Node2</title>
<g id="a_node2"><a xlink:href="a00514.xhtml#a22ff86e4fc2f8d5042159d9c84a7ff14" target="_top" xlink:title=" ">
<polygon fill="white" stroke="black" points="156,-152.5 156,-171.5 243,-171.5 243,-152.5 156,-152.5"/>
<text text-anchor="middle" x="199.5" y="-159.5" font-family="Helvetica,sans-Serif" font-size="10.00">CVector::addC_I</text>
</a>
</g>
</g>
<!-- Node1&#45;&gt;Node2 -->
<g id="edge1" class="edge">
<title>Node1&#45;&gt;Node2</title>
<path fill="none" stroke="midnightblue" d="M73.08,-95.63C90.95,-107.61 122.94,-128.28 152,-143 155.76,-144.91 159.76,-146.77 163.78,-148.54"/>
<polygon fill="midnightblue" stroke="midnightblue" points="162.5,-151.8 173.07,-152.48 165.23,-145.35 162.5,-151.8"/>
</g>
<!-- Node3 -->
<g id="node3" class="node">
<title>Node3</title>
<g id="a_node3"><a xlink:href="a00514.xhtml#a9f5be871090bc5a64a7732cebfb4f8ec" target="_top" xlink:title=" ">
<polygon fill="white" stroke="black" points="155.5,-114.5 155.5,-133.5 243.5,-133.5 243.5,-114.5 155.5,-114.5"/>
<text text-anchor="middle" x="199.5" y="-121.5" font-family="Helvetica,sans-Serif" font-size="10.00">CVector::getMax</text>
</a>
</g>
</g>
<!-- Node1&#45;&gt;Node3 -->
<g id="edge2" class="edge">
<title>Node1&#45;&gt;Node3</title>
<path fill="none" stroke="midnightblue" d="M94.2,-95.59C112.21,-100.49 134.33,-106.52 153.56,-111.76"/>
<polygon fill="midnightblue" stroke="midnightblue" points="152.74,-115.16 163.31,-114.41 154.58,-108.41 152.74,-115.16"/>
</g>
<!-- Node5 -->
<g id="node5" class="node">
<title>Node5</title>
<g id="a_node5"><a xlink:href="a00514.xhtml#a9811f50434dd058d201290b2dc98bfcd" target="_top" xlink:title=" ">
<polygon fill="white" stroke="black" points="156,-76.5 156,-95.5 243,-95.5 243,-76.5 156,-76.5"/>
<text text-anchor="middle" x="199.5" y="-83.5" font-family="Helvetica,sans-Serif" font-size="10.00">CVector::mulC_I</text>
</a>
</g>
</g>
<!-- Node1&#45;&gt;Node5 -->
<g id="edge4" class="edge">
<title>Node1&#45;&gt;Node5</title>
<path fill="none" stroke="midnightblue" d="M116.14,-86C125.87,-86 135.93,-86 145.54,-86"/>
<polygon fill="midnightblue" stroke="midnightblue" points="145.76,-89.5 155.76,-86 145.76,-82.5 145.76,-89.5"/>
</g>
<!-- Node6 -->
<g id="node6" class="node">
<title>Node6</title>
<g id="a_node6"><a xlink:href="a00514.xhtml#a4cf9544dd96801e3ee47fd1ef2049a1b" target="_top" xlink:title=" ">
<polygon fill="white" stroke="black" points="152,-38.5 152,-57.5 247,-57.5 247,-38.5 152,-38.5"/>
<text text-anchor="middle" x="199.5" y="-45.5" font-family="Helvetica,sans-Serif" font-size="10.00">CVector::setValue</text>
</a>
</g>
</g>
<!-- Node1&#45;&gt;Node6 -->
<g id="edge5" class="edge">
<title>Node1&#45;&gt;Node6</title>
<path fill="none" stroke="midnightblue" d="M94.2,-76.41C112.21,-71.51 134.33,-65.48 153.56,-60.24"/>
<polygon fill="midnightblue" stroke="midnightblue" points="154.58,-63.59 163.31,-57.59 152.74,-56.84 154.58,-63.59"/>
</g>
<!-- Node7 -->
<g id="node7" class="node">
<title>Node7</title>
<g id="a_node7"><a xlink:href="a00514.xhtml#a6dbb3f9f480568b60f7fe50090d20003" target="_top" xlink:title=" ">
<polygon fill="white" stroke="black" points="155,-0.5 155,-19.5 244,-19.5 244,-0.5 155,-0.5"/>
<text text-anchor="middle" x="199.5" y="-7.5" font-family="Helvetica,sans-Serif" font-size="10.00">CVector::setZero</text>
</a>
</g>
</g>
<!-- Node1&#45;&gt;Node7 -->
<g id="edge6" class="edge">
<title>Node1&#45;&gt;Node7</title>
<path fill="none" stroke="midnightblue" d="M73.08,-76.37C90.95,-64.39 122.94,-43.72 152,-29 155.76,-27.09 159.76,-25.23 163.78,-23.46"/>
<polygon fill="midnightblue" stroke="midnightblue" points="165.23,-26.65 173.07,-19.52 162.5,-20.2 165.23,-26.65"/>
</g>
<!-- Node4 -->
<g id="node4" class="node">
<title>Node4</title>
<g id="a_node4"><a xlink:href="a00514.xhtml#a34a5c0abd80cd982df8a8bae7cbcea19" target="_top" xlink:title=" ">
<polygon fill="white" stroke="black" points="283,-114.5 283,-133.5 372,-133.5 372,-114.5 283,-114.5"/>
<text text-anchor="middle" x="327.5" y="-121.5" font-family="Helvetica,sans-Serif" font-size="10.00">CVector::findMax</text>
</a>
</g>
</g>
<!-- Node3&#45;&gt;Node4 -->
<g id="edge3" class="edge">
<title>Node3&#45;&gt;Node4</title>
<path fill="none" stroke="midnightblue" d="M243.51,-124C252.93,-124 263.01,-124 272.79,-124"/>
<polygon fill="midnightblue" stroke="midnightblue" points="272.83,-127.5 282.83,-124 272.83,-120.5 272.83,-127.5"/>
</g>
</g>
</svg>
