<?xml version="1.0" encoding="UTF-8" standalone="no"?>
<!DOCTYPE svg PUBLIC "-//W3C//DTD SVG 1.1//EN"
 "http://www.w3.org/Graphics/SVG/1.1/DTD/svg11.dtd">
<!-- Generated by graphviz version 6.0.1 (20220911.1526)
 -->
<!-- Title: CKnn::reset Pages: 1 -->
<svg width="185pt" height="64pt"
 viewBox="0.00 0.00 185.00 64.00" xmlns="http://www.w3.org/2000/svg" xmlns:xlink="http://www.w3.org/1999/xlink">
<g id="graph0" class="graph" transform="scale(1 1) rotate(0) translate(4 60)">
<title>CKnn::reset</title>
<!-- Node1 -->
<g id="node1" class="node">
<title>Node1</title>
<g id="a_node1"><a xlink:title=" ">
<polygon fill="#999999" stroke="#666666" points="177,-37 110,-37 110,-18 177,-18 177,-37"/>
<text text-anchor="middle" x="143.5" y="-25" font-family="Helvetica,sans-Serif" font-size="10.00">CKnn::reset</text>
</a>
</g>
</g>
<!-- Node2 -->
<g id="node2" class="node">
<title>Node2</title>
<g id="a_node2"><a xlink:href="a00626.xhtml#a0897bf0a4e49a3779ecb2104ffe4ac56" target="_top" xlink:title=" ">
<polygon fill="white" stroke="#666666" points="66,-56 8,-56 8,-37 66,-37 66,-56"/>
<text text-anchor="middle" x="37" y="-44" font-family="Helvetica,sans-Serif" font-size="10.00">CKnn::init</text>
</a>
</g>
</g>
<!-- Node1&#45;&gt;Node2 -->
<g id="edge1" class="edge">
<title>Node1&#45;&gt;Node2</title>
<path fill="none" stroke="#63b8ff" d="M99.58,-35.3C88.28,-37.36 76.38,-39.52 66.08,-41.39"/>
<polygon fill="#63b8ff" stroke="#63b8ff" points="100.51,-38.69 109.72,-33.46 99.26,-31.8 100.51,-38.69"/>
</g>
<!-- Node3 -->
<g id="node3" class="node">
<title>Node3</title>
<g id="a_node3"><a xlink:href="a00626.xhtml#afdcd6685b49c99b5f0b2cd7e492c516c" target="_top" xlink:title=" ">
<polygon fill="white" stroke="#666666" points="74,-19 0,-19 0,0 74,0 74,-19"/>
<text text-anchor="middle" x="37" y="-7" font-family="Helvetica,sans-Serif" font-size="10.00">CKnn::~CKnn</text>
</a>
</g>
</g>
<!-- Node1&#45;&gt;Node3 -->
<g id="edge2" class="edge">
<title>Node1&#45;&gt;Node3</title>
<path fill="none" stroke="#63b8ff" d="M99.67,-20.12C91.25,-18.67 82.48,-17.16 74.29,-15.75"/>
<polygon fill="#63b8ff" stroke="#63b8ff" points="99.27,-23.61 109.72,-21.85 100.46,-16.71 99.27,-23.61"/>
</g>
</g>
</svg>
