<?xml version="1.0" encoding="UTF-8" standalone="no"?>
<!DOCTYPE svg PUBLIC "-//W3C//DTD SVG 1.1//EN"
 "http://www.w3.org/Graphics/SVG/1.1/DTD/svg11.dtd">
<!-- Generated by graphviz version 12.2.1 (20241206.2353)
 -->
<!-- Title: CResample::getOutputLength Pages: 1 -->
<svg width="488pt" height="64pt"
 viewBox="0.00 0.00 487.50 64.25" xmlns="http://www.w3.org/2000/svg" xmlns:xlink="http://www.w3.org/1999/xlink">

<svg id="main" version="1.1" xmlns="http://www.w3.org/2000/svg" xmlns:xlink="http://www.w3.org/1999/xlink" xml:space="preserve">

<style type="text/css"><![CDATA[
.node, .edge {opacity: 0.7;}
.node.selected, .edge.selected {opacity: 1;}
.edge:hover path { stroke: red; }
.edge:hover polygon { stroke: red; fill: red; }
]]></style>
<script type="application/ecmascript" xlink:href="svg.min.js"/>
<svg id="graph" class="graph">
<g id="graph0" class="graph" transform="scale(1 1) rotate(0) translate(4 60.25)">
<title>CResample::getOutputLength</title>
<!-- Node1 -->
<g id="Node000001" class="node">
<title>Node1</title>
<g id="a_Node000001"><a xlink:title=" ">
<polygon fill="#999999" stroke="#666666" points="479.5,-38.25 336,-38.25 336,-19 479.5,-19 479.5,-38.25"/>
<text text-anchor="middle" x="407.75" y="-24.75" font-family="Helvetica,sans-Serif" font-size="10.00">CResample::getOutputLength</text>
</a>
</g>
</g>
<!-- Node2 -->
<g id="Node000002" class="node">
<title>Node2</title>
<g id="a_Node000002"><a xlink:href="a00557.xhtml#ab98dc232291297367f90ae6cdcdc9694" target="_top" xlink:title=" ">
<polygon fill="white" stroke="#666666" points="158.75,-56.25 73,-56.25 73,-37 158.75,-37 158.75,-56.25"/>
<text text-anchor="middle" x="115.88" y="-42.75" font-family="Helvetica,sans-Serif" font-size="10.00">CFingerprint::init</text>
</a>
</g>
</g>
<!-- Node1&#45;&gt;Node2 -->
<g id="edge1_Node000001_Node000002" class="edge">
<title>Node1&#45;&gt;Node2</title>
<g id="a_edge1_Node000001_Node000002"><a xlink:title=" ">
<path fill="none" stroke="#63b8ff" d="M348.99,-40.82C333.18,-43.63 315.99,-46.21 300,-47.62 253.4,-51.74 241.53,-47.93 194.75,-47.62 183.12,-47.55 170.52,-47.41 158.91,-47.26"/>
<polygon fill="#63b8ff" stroke="#63b8ff" points="349.54,-44.28 358.73,-39.02 348.26,-37.39 349.54,-44.28"/>
</a>
</g>
</g>
<!-- Node3 -->
<g id="Node000003" class="node">
<title>Node3</title>
<g id="a_Node000003"><a xlink:href="a00557.xhtml#ab79f4706d42b250f36c91cfd075bc8df" target="_top" xlink:title=" ">
<polygon fill="white" stroke="#666666" points="158.75,-19.25 73,-19.25 73,0 158.75,0 158.75,-19.25"/>
<text text-anchor="middle" x="115.88" y="-5.75" font-family="Helvetica,sans-Serif" font-size="10.00">CFingerprint::init</text>
</a>
</g>
</g>
<!-- Node1&#45;&gt;Node3 -->
<g id="edge2_Node000001_Node000003" class="edge">
<title>Node1&#45;&gt;Node3</title>
<g id="a_edge2_Node000001_Node000003"><a xlink:title=" ">
<path fill="none" stroke="#63b8ff" d="M348.99,-16.43C333.18,-13.62 315.99,-11.04 300,-9.62 251.86,-5.37 196.33,-6.17 159.15,-7.52"/>
<polygon fill="#63b8ff" stroke="#63b8ff" points="348.26,-19.86 358.73,-18.23 349.54,-12.97 348.26,-19.86"/>
</a>
</g>
</g>
<!-- Node5 -->
<g id="Node000005" class="node">
<title>Node5</title>
<g id="a_Node000005"><a xlink:href="a00613.xhtml#a040a6674ec0ff9171d6b4cb4b8436cb2" target="_top" xlink:title=" ">
<polygon fill="white" stroke="#666666" points="300,-38.25 194.75,-38.25 194.75,-19 300,-19 300,-38.25"/>
<text text-anchor="middle" x="247.38" y="-24.75" font-family="Helvetica,sans-Serif" font-size="10.00">CResample::process</text>
</a>
</g>
</g>
<!-- Node1&#45;&gt;Node5 -->
<g id="edge4_Node000001_Node000005" class="edge">
<title>Node1&#45;&gt;Node5</title>
<g id="a_edge4_Node000001_Node000005"><a xlink:title=" ">
<path fill="none" stroke="#63b8ff" d="M324.59,-28.62C316.28,-28.62 308.02,-28.62 300.17,-28.62"/>
<polygon fill="#63b8ff" stroke="#63b8ff" points="324.39,-32.13 334.39,-28.63 324.39,-25.13 324.39,-32.13"/>
</a>
</g>
</g>
<!-- Node4 -->
<g id="Node000004" class="node">
<title>Node4</title>
<g id="a_Node000004"><a xlink:href="a00122.xhtml#a0ddf1224851353fc92bfbff6f499fa97" target="_top" xlink:title=" ">
<polygon fill="white" stroke="#666666" points="37,-19.25 0,-19.25 0,0 37,0 37,-19.25"/>
<text text-anchor="middle" x="18.5" y="-5.75" font-family="Helvetica,sans-Serif" font-size="10.00">main</text>
</a>
</g>
</g>
<!-- Node3&#45;&gt;Node4 -->
<g id="edge3_Node000003_Node000004" class="edge">
<title>Node3&#45;&gt;Node4</title>
<g id="a_edge3_Node000003_Node000004"><a xlink:title=" ">
<path fill="none" stroke="#63b8ff" d="M61.52,-9.62C52.68,-9.62 44.1,-9.62 37.03,-9.62"/>
<polygon fill="#63b8ff" stroke="#63b8ff" points="61.25,-13.13 71.25,-9.63 61.25,-6.13 61.25,-13.13"/>
</a>
</g>
</g>
<!-- Node5&#45;&gt;Node2 -->
<g id="edge5_Node000005_Node000002" class="edge">
<title>Node5&#45;&gt;Node2</title>
<g id="a_edge5_Node000005_Node000002"><a xlink:title=" ">
<path fill="none" stroke="#63b8ff" d="M183.24,-37.4C174.97,-38.55 166.67,-39.7 158.86,-40.79"/>
<polygon fill="#63b8ff" stroke="#63b8ff" points="183.53,-40.89 192.95,-36.05 182.56,-33.96 183.53,-40.89"/>
</a>
</g>
</g>
<!-- Node5&#45;&gt;Node3 -->
<g id="edge6_Node000005_Node000003" class="edge">
<title>Node5&#45;&gt;Node3</title>
<g id="a_edge6_Node000005_Node000003"><a xlink:title=" ">
<path fill="none" stroke="#63b8ff" d="M183.24,-19.36C174.97,-18.15 166.67,-16.93 158.86,-15.79"/>
<polygon fill="#63b8ff" stroke="#63b8ff" points="182.55,-22.8 192.95,-20.79 183.57,-15.87 182.55,-22.8"/>
</a>
</g>
</g>
</g>
</svg>
</svg>

<style type='text/css'>
<![CDATA[
[data-mouse-over-selected='false'] { opacity: 0.7; }
[data-mouse-over-selected='true']  { opacity: 1.0; }
]]>
</style>
<script type="application/ecmascript"><![CDATA[
document.addEventListener('DOMContentLoaded', (event) => {
  highlightEdges();
  highlightAdjacentNodes();
});
]]></script>
</svg>
