<?xml version="1.0" encoding="UTF-8" standalone="no"?>
<!DOCTYPE svg PUBLIC "-//W3C//DTD SVG 1.1//EN"
 "http://www.w3.org/Graphics/SVG/1.1/DTD/svg11.dtd">
<!-- Generated by graphviz version 12.2.1 (20241206.2353)
 -->
<!-- Title: CResample::process Pages: 1 -->
<!--zoomable 367 -->

<svg id="main" version="1.1" xmlns="http://www.w3.org/2000/svg" xmlns:xlink="http://www.w3.org/1999/xlink" xml:space="preserve" onload="init(evt)">

<style type="text/css"><![CDATA[
.node, .edge {opacity: 0.7;}
.node.selected, .edge.selected {opacity: 1;}
.edge:hover path { stroke: red; }
.edge:hover polygon { stroke: red; fill: red; }
]]></style>

<defs>
  <circle id="rim" cx="0" cy="0" r="7"/>
  <circle id="rim2" cx="0" cy="0" r="3.5"/>
  <g id="zoomPlus">
    <use xlink:href="#rim" fill="#404040"><set attributeName="fill" to="#808080" begin="zoomplus.mouseover" end="zoomplus.mouseout"/></use>
    <path d="M-4,0h8M0,-4v8" fill="none" stroke="white" stroke-width="1.5" pointer-events="none"/>
  </g>
  <g id="zoomMin">
    <use xlink:href="#rim" fill="#404040"><set attributeName="fill" to="#808080" begin="zoomminus.mouseover" end="zoomminus.mouseout"/></use>
    <path d="M-4,0h8" fill="none" stroke="white" stroke-width="1.5" pointer-events="none"/>
  </g>
  <g id="arrowUp" transform="translate(30 24)">
    <use xlink:href="#rim"/>
    <path pointer-events="none" fill="none" stroke="white" stroke-width="1.5" d="M0,-3.0v7 M-2.5,-0.5L0,-3.0L2.5,-0.5"/>
  </g>
  <g id="arrowRight" transform="rotate(90) translate(36 -43)">
    <use xlink:href="#rim"/>
    <path pointer-events="none" fill="none" stroke="white" stroke-width="1.5" d="M0,-3.0v7 M-2.5,-0.5L0,-3.0L2.5,-0.5"/>
  </g>
  <g id="arrowDown" transform="rotate(180) translate(-30 -48)">
    <use xlink:href="#rim"/>
    <path pointer-events="none" fill="none" stroke="white" stroke-width="1.5" d="M0,-3.0v7 M-2.5,-0.5L0,-3.0L2.5,-0.5"/>
  </g>
  <g id="arrowLeft" transform="rotate(270) translate(-36 17)">
    <use xlink:href="#rim"/>
    <path pointer-events="none" fill="none" stroke="white" stroke-width="1.5" d="M0,-3.0v7 M-2.5,-0.5L0,-3.0L2.5,-0.5"/>
  </g>
  <g id="resetDef">
    <use xlink:href="#rim2" fill="#404040"><set attributeName="fill" to="#808080" begin="reset.mouseover" end="reset.mouseout"/></use>
  </g>
</defs>
<script type="application/ecmascript">
var viewWidth = 700;
var viewHeight = 367;
var sectionId = 'dynsection-7';
</script>
<script type="application/ecmascript" xlink:href="svg.min.js"/>
<svg id="graph" class="graph">
<g id="viewport">
<title>CResample::process</title>
<!-- Node1 -->
<g id="Node000001" class="node">
<title>Node1</title>
<g id="a_Node000001"><a xlink:title=" ">
<polygon fill="#999999" stroke="#666666" points="105.25,-94.25 0,-94.25 0,-75 105.25,-75 105.25,-94.25"/>
<text text-anchor="middle" x="52.62" y="-80.75" font-family="Helvetica,sans-Serif" font-size="10.00">CResample::process</text>
</a>
</g>
</g>
<!-- Node2 -->
<g id="Node000002" class="node">
<title>Node2</title>
<g id="a_Node000002"><a xlink:href="a00505.xhtml#abaadac98b1cad18b7b568852bc951696" target="_top" xlink:title=" ">
<polygon fill="white" stroke="#666666" points="544.75,-283.25 468.75,-283.25 468.75,-264 544.75,-264 544.75,-283.25"/>
<text text-anchor="middle" x="506.75" y="-269.75" font-family="Helvetica,sans-Serif" font-size="10.00">CVector::alloc</text>
</a>
</g>
</g>
<!-- Node1&#45;&gt;Node2 -->
<g id="edge1_Node000001_Node000002" class="edge">
<title>Node1&#45;&gt;Node2</title>
<g id="a_edge1_Node000001_Node000002"><a xlink:title=" ">
<path fill="none" stroke="#63b8ff" d="M57.46,-94.62C67.4,-119.25 96.44,-183.36 141.25,-217.62 234.73,-289.12 381.89,-286.81 457.45,-279.83"/>
<polygon fill="#63b8ff" stroke="#63b8ff" points="457.39,-283.35 466.99,-278.88 456.7,-276.39 457.39,-283.35"/>
</a>
</g>
</g>
<!-- Node4 -->
<g id="Node000004" class="node">
<title>Node4</title>
<g id="a_Node000004"><a xlink:href="a00485.xhtml#a3878460603a6e6e1a64de6021b2bb73e" target="_top" xlink:title=" ">
<polygon fill="white" stroke="#666666" points="268.25,-208.25 157.75,-208.25 157.75,-189 268.25,-189 268.25,-208.25"/>
<text text-anchor="middle" x="213" y="-194.75" font-family="Helvetica,sans-Serif" font-size="10.00">CButterLp::calcCoeffs</text>
</a>
</g>
</g>
<!-- Node1&#45;&gt;Node4 -->
<g id="edge3_Node000001_Node000004" class="edge">
<title>Node1&#45;&gt;Node4</title>
<g id="a_edge3_Node000001_Node000004"><a xlink:title=" ">
<path fill="none" stroke="#63b8ff" d="M67.68,-94.74C95.1,-114.48 155.96,-158.29 189.22,-182.23"/>
<polygon fill="#63b8ff" stroke="#63b8ff" points="186.81,-184.81 196.97,-187.81 190.9,-179.13 186.81,-184.81"/>
</a>
</g>
</g>
<!-- Node6 -->
<g id="Node000006" class="node">
<title>Node6</title>
<g id="a_Node000006"><a xlink:href="a00505.xhtml#aa86bdb0c663d4d52f2765793756f8737" target="_top" xlink:title=" ">
<polygon fill="white" stroke="#666666" points="542.88,-170.25 470.62,-170.25 470.62,-151 542.88,-151 542.88,-170.25"/>
<text text-anchor="middle" x="506.75" y="-156.75" font-family="Helvetica,sans-Serif" font-size="10.00">CVector::free</text>
</a>
</g>
</g>
<!-- Node1&#45;&gt;Node6 -->
<g id="edge14_Node000001_Node000006" class="edge">
<title>Node1&#45;&gt;Node6</title>
<g id="a_edge14_Node000001_Node000006"><a xlink:title=" ">
<path fill="none" stroke="#63b8ff" d="M105.49,-93.34C194.3,-108.27 374.14,-138.5 459.18,-152.8"/>
<polygon fill="#63b8ff" stroke="#63b8ff" points="458.35,-156.21 468.79,-154.41 459.51,-149.3 458.35,-156.21"/>
</a>
</g>
</g>
<!-- Node11 -->
<g id="Node000011" class="node">
<title>Node11</title>
<g id="a_Node000011"><a xlink:href="a00613.xhtml#a1fa6003e640ba66531236277eddc5158" target="_top" xlink:title=" ">
<polygon fill="white" stroke="#666666" points="284.75,-56.25 141.25,-56.25 141.25,-37 284.75,-37 284.75,-56.25"/>
<text text-anchor="middle" x="213" y="-42.75" font-family="Helvetica,sans-Serif" font-size="10.00">CResample::getOutputLength</text>
</a>
</g>
</g>
<!-- Node1&#45;&gt;Node11 -->
<g id="edge15_Node000001_Node000011" class="edge">
<title>Node1&#45;&gt;Node11</title>
<g id="a_edge15_Node000001_Node000011"><a xlink:title=" ">
<path fill="none" stroke="#63b8ff" d="M95.65,-74.54C115.06,-69.88 138.32,-64.3 158.92,-59.36"/>
<polygon fill="#63b8ff" stroke="#63b8ff" points="159.67,-62.78 168.58,-57.04 158.04,-55.97 159.67,-62.78"/>
</a>
</g>
</g>
<!-- Node13 -->
<g id="Node000013" class="node">
<title>Node13</title>
<g id="a_Node000013"><a xlink:href="a00613.xhtml#a02a81c6177894649b0524b684118839e" target="_top" xlink:title=" ">
<polygon fill="white" stroke="#666666" points="265.62,-19.25 160.38,-19.25 160.38,0 265.62,0 265.62,-19.25"/>
<text text-anchor="middle" x="213" y="-5.75" font-family="Helvetica,sans-Serif" font-size="10.00">CResample::interp1d</text>
</a>
</g>
</g>
<!-- Node1&#45;&gt;Node13 -->
<g id="edge17_Node000001_Node000013" class="edge">
<title>Node1&#45;&gt;Node13</title>
<g id="a_edge17_Node000001_Node000013"><a xlink:title=" ">
<path fill="none" stroke="#63b8ff" d="M66.22,-74.51C82.59,-61.83 112.49,-40.22 141.25,-27.62 145.01,-25.98 148.96,-24.46 152.97,-23.06"/>
<polygon fill="#63b8ff" stroke="#63b8ff" points="153.8,-26.47 162.27,-20.1 151.68,-19.8 153.8,-26.47"/>
</a>
</g>
</g>
<!-- Node3 -->
<g id="Node000003" class="node">
<title>Node3</title>
<g id="a_Node000003"><a xlink:href="a00505.xhtml#a6dbb3f9f480568b60f7fe50090d20003" target="_top" xlink:title=" ">
<polygon fill="white" stroke="#666666" points="692,-207.25 603.25,-207.25 603.25,-188 692,-188 692,-207.25"/>
<text text-anchor="middle" x="647.62" y="-193.75" font-family="Helvetica,sans-Serif" font-size="10.00">CVector::setZero</text>
</a>
</g>
</g>
<!-- Node2&#45;&gt;Node3 -->
<g id="edge2_Node000002_Node000003" class="edge">
<title>Node2&#45;&gt;Node3</title>
<g id="a_edge2_Node000002_Node000003"><a xlink:title=" ">
<path fill="none" stroke="#63b8ff" d="M544.97,-263.72C552.52,-261.17 560.27,-258.13 567.25,-254.62 588.96,-243.71 611.23,-227.16 626.64,-214.7"/>
<polygon fill="#63b8ff" stroke="#63b8ff" points="628.63,-217.59 634.11,-208.52 624.17,-212.2 628.63,-217.59"/>
</a>
</g>
</g>
<!-- Node4&#45;&gt;Node2 -->
<g id="edge4_Node000004_Node000002" class="edge">
<title>Node4&#45;&gt;Node2</title>
<g id="a_edge4_Node000004_Node000002"><a xlink:title=" ">
<path fill="none" stroke="#63b8ff" d="M228.77,-208.72C248.68,-221.77 285.68,-244.06 320.75,-254.62 365.71,-268.18 419.31,-272.46 457.21,-273.64"/>
<polygon fill="#63b8ff" stroke="#63b8ff" points="456.84,-277.13 466.92,-273.87 457.01,-270.13 456.84,-277.13"/>
</a>
</g>
</g>
<!-- Node4&#45;&gt;Node3 -->
<g id="edge13_Node000004_Node000003" class="edge">
<title>Node4&#45;&gt;Node3</title>
<g id="a_edge13_Node000004_Node000003"><a xlink:title=" ">
<path fill="none" stroke="#63b8ff" d="M235.2,-188.52C290.86,-163.42 445.27,-102.93 567.25,-141.62 590.95,-149.14 613.67,-166.57 628.69,-180"/>
<polygon fill="#63b8ff" stroke="#63b8ff" points="626.17,-182.44 635.87,-186.69 630.94,-177.32 626.17,-182.44"/>
</a>
</g>
</g>
<!-- Node5 -->
<g id="Node000005" class="node">
<title>Node5</title>
<g id="a_Node000005"><a xlink:href="a00485.xhtml#a4a70bdde7f075d2591fd03c52c16145c" target="_top" xlink:title=" ">
<polygon fill="white" stroke="#666666" points="410.25,-245.25 320.75,-245.25 320.75,-226 410.25,-226 410.25,-245.25"/>
<text text-anchor="middle" x="365.5" y="-231.75" font-family="Helvetica,sans-Serif" font-size="10.00">CButterLp::calcA</text>
</a>
</g>
</g>
<!-- Node4&#45;&gt;Node5 -->
<g id="edge5_Node000004_Node000005" class="edge">
<title>Node4&#45;&gt;Node5</title>
<g id="a_edge5_Node000004_Node000005"><a xlink:title=" ">
<path fill="none" stroke="#63b8ff" d="M255.12,-208.74C272.79,-213.08 293.65,-218.21 312.38,-222.81"/>
<polygon fill="#63b8ff" stroke="#63b8ff" points="311.41,-226.18 321.96,-225.17 313.08,-219.38 311.41,-226.18"/>
</a>
</g>
</g>
<!-- Node4&#45;&gt;Node6 -->
<g id="edge12_Node000004_Node000006" class="edge">
<title>Node4&#45;&gt;Node6</title>
<g id="a_edge12_Node000004_Node000006"><a xlink:title=" ">
<path fill="none" stroke="#63b8ff" d="M266.27,-188.53C283.57,-185.4 302.95,-182.12 320.75,-179.62 367.69,-173.05 421.64,-167.76 459.11,-164.46"/>
<polygon fill="#63b8ff" stroke="#63b8ff" points="459.02,-167.98 468.68,-163.62 458.42,-161 459.02,-167.98"/>
</a>
</g>
</g>
<!-- Node8 -->
<g id="Node000008" class="node">
<title>Node8</title>
<g id="a_Node000008"><a xlink:href="a00485.xhtml#a9c08c0b6f891bb37fb4230088f94b0a0" target="_top" xlink:title=" ">
<polygon fill="white" stroke="#666666" points="410.25,-359.25 320.75,-359.25 320.75,-340 410.25,-340 410.25,-359.25"/>
<text text-anchor="middle" x="365.5" y="-345.75" font-family="Helvetica,sans-Serif" font-size="10.00">CButterLp::calcB</text>
</a>
</g>
</g>
<!-- Node4&#45;&gt;Node8 -->
<g id="edge9_Node000004_Node000008" class="edge">
<title>Node4&#45;&gt;Node8</title>
<g id="a_edge9_Node000004_Node000008"><a xlink:title=" ">
<path fill="none" stroke="#63b8ff" d="M223.87,-208.53C248.86,-233.6 314.87,-299.83 346.76,-331.82"/>
<polygon fill="#63b8ff" stroke="#63b8ff" points="344.18,-334.19 353.72,-338.81 349.14,-329.25 344.18,-334.19"/>
</a>
</g>
</g>
<!-- Node10 -->
<g id="Node000010" class="node">
<title>Node10</title>
<g id="a_Node000010"><a xlink:href="a00505.xhtml#ad7c5cba73e439adac77778f61c9418f0" target="_top" xlink:title=" ">
<polygon fill="white" stroke="#666666" points="403.5,-208.25 327.5,-208.25 327.5,-189 403.5,-189 403.5,-208.25"/>
<text text-anchor="middle" x="365.5" y="-194.75" font-family="Helvetica,sans-Serif" font-size="10.00">CVector::copy</text>
</a>
</g>
</g>
<!-- Node4&#45;&gt;Node10 -->
<g id="edge11_Node000004_Node000010" class="edge">
<title>Node4&#45;&gt;Node10</title>
<g id="a_edge11_Node000004_Node000010"><a xlink:title=" ">
<path fill="none" stroke="#63b8ff" d="M268.33,-198.62C283.9,-198.62 300.76,-198.62 315.96,-198.62"/>
<polygon fill="#63b8ff" stroke="#63b8ff" points="315.69,-202.13 325.69,-198.63 315.69,-195.13 315.69,-202.13"/>
</a>
</g>
</g>
<!-- Node5&#45;&gt;Node2 -->
<g id="edge6_Node000005_Node000002" class="edge">
<title>Node5&#45;&gt;Node2</title>
<g id="a_edge6_Node000005_Node000002"><a xlink:title=" ">
<path fill="none" stroke="#63b8ff" d="M403.45,-245.71C420.19,-250.28 440.18,-255.73 458.03,-260.6"/>
<polygon fill="#63b8ff" stroke="#63b8ff" points="457.08,-263.97 467.65,-263.23 458.92,-257.22 457.08,-263.97"/>
</a>
</g>
</g>
<!-- Node5&#45;&gt;Node6 -->
<g id="edge7_Node000005_Node000006" class="edge">
<title>Node5&#45;&gt;Node6</title>
<g id="a_edge7_Node000005_Node000006"><a xlink:title=" ">
<path fill="none" stroke="#63b8ff" d="M392.69,-225.59C398.55,-223.14 404.67,-220.42 410.25,-217.62 435.01,-205.23 462.01,-188.83 480.96,-176.8"/>
<polygon fill="#63b8ff" stroke="#63b8ff" points="482.79,-179.79 489.32,-171.44 479.01,-173.89 482.79,-179.79"/>
</a>
</g>
</g>
<!-- Node7 -->
<g id="Node000007" class="node">
<title>Node7</title>
<g id="a_Node000007"><a xlink:href="a00485.xhtml#ab4432f6b6d2f1bad850a13a0573615c4" target="_top" xlink:title=" ">
<polygon fill="white" stroke="#666666" points="567.25,-245.25 446.25,-245.25 446.25,-226 567.25,-226 567.25,-245.25"/>
<text text-anchor="middle" x="506.75" y="-231.75" font-family="Helvetica,sans-Serif" font-size="10.00">CButterLp::multBinomial</text>
</a>
</g>
</g>
<!-- Node5&#45;&gt;Node7 -->
<g id="edge8_Node000005_Node000007" class="edge">
<title>Node5&#45;&gt;Node7</title>
<g id="a_edge8_Node000005_Node000007"><a xlink:title=" ">
<path fill="none" stroke="#63b8ff" d="M410.56,-235.62C418.2,-235.62 426.31,-235.62 434.45,-235.62"/>
<polygon fill="#63b8ff" stroke="#63b8ff" points="434.42,-239.13 444.42,-235.63 434.42,-232.13 434.42,-239.13"/>
</a>
</g>
</g>
<!-- Node9 -->
<g id="Node000009" class="node">
<title>Node9</title>
<g id="a_Node000009"><a xlink:href="a00485.xhtml#a93b25bb8ef71fc7221ae53efe9212d67" target="_top" xlink:title=" ">
<polygon fill="white" stroke="#666666" points="560.5,-359.25 453,-359.25 453,-340 560.5,-340 560.5,-359.25"/>
<text text-anchor="middle" x="506.75" y="-345.75" font-family="Helvetica,sans-Serif" font-size="10.00">CButterLp::calcScale</text>
</a>
</g>
</g>
<!-- Node8&#45;&gt;Node9 -->
<g id="edge10_Node000008_Node000009" class="edge">
<title>Node8&#45;&gt;Node9</title>
<g id="a_edge10_Node000008_Node000009"><a xlink:title=" ">
<path fill="none" stroke="#63b8ff" d="M410.56,-349.62C420.39,-349.62 431.01,-349.62 441.47,-349.62"/>
<polygon fill="#63b8ff" stroke="#63b8ff" points="441.19,-353.13 451.19,-349.63 441.19,-346.13 441.19,-353.13"/>
</a>
</g>
</g>
<!-- Node12 -->
<g id="Node000012" class="node">
<title>Node12</title>
<g id="a_Node000012"><a xlink:href="a00501.xhtml#a9edb25bb88d789958e1740578b65cbbb" target="_top" xlink:title=" ">
<polygon fill="white" stroke="#666666" points="403.5,-56.25 327.5,-56.25 327.5,-37 403.5,-37 403.5,-56.25"/>
<text text-anchor="middle" x="365.5" y="-42.75" font-family="Helvetica,sans-Serif" font-size="10.00">CUtil::float2int</text>
</a>
</g>
</g>
<!-- Node11&#45;&gt;Node12 -->
<g id="edge16_Node000011_Node000012" class="edge">
<title>Node11&#45;&gt;Node12</title>
<g id="a_edge16_Node000011_Node000012"><a xlink:title=" ">
<path fill="none" stroke="#63b8ff" d="M284.84,-46.62C295.36,-46.62 306,-46.62 315.93,-46.62"/>
<polygon fill="#63b8ff" stroke="#63b8ff" points="315.69,-50.13 325.69,-46.63 315.69,-43.13 315.69,-50.13"/>
</a>
</g>
</g>
</g>
</svg>

<g id="navigator" transform="translate(0 0)" fill="#404254">
  <rect fill="#f2f5e9" fill-opacity="0.5" stroke="#606060" stroke-width=".5" x="0" y="0" width="60" height="60"/>
  <use id="zoomplus" xlink:href="#zoomPlus" x="17" y="9" onmousedown="handleZoom(evt,'in')"/>
  <use id="zoomminus" xlink:href="#zoomMin" x="42" y="9" onmousedown="handleZoom(evt,'out')"/>
  <use id="reset" xlink:href="#resetDef" x="30" y="36" onmousedown="handleReset()"/>
   <use id="arrowup" xlink:href="#arrowUp" x="0" y="0" onmousedown="handlePan(0,-1)"/>
  <use id="arrowright" xlink:href="#arrowRight" x="0" y="0" onmousedown="handlePan(1,0)"/>
  <use id="arrowdown" xlink:href="#arrowDown" x="0" y="0" onmousedown="handlePan(0,1)"/>
  <use id="arrowleft" xlink:href="#arrowLeft" x="0" y="0" onmousedown="handlePan(-1,0)"/>
</g>
<svg viewBox="0 0 15 15" width="100%" height="30px" preserveAspectRatio="xMaxYMin meet">
 <g id="arrow_out" transform="scale(0.3 0.3)">
  <a xlink:href="a00613_a040a6674ec0ff9171d6b4cb4b8436cb2_cgraph_org.svg" target="_base">
   <rect id="button" ry="5" rx="5" y="6" x="6" height="38" width="38"
        fill="#f2f5e9" fill-opacity="0.5" stroke="#606060" stroke-width="1.0"/>
   <path id="arrow"
     d="M 11.500037,31.436501 C 11.940474,20.09759 22.043105,11.32322 32.158766,21.979434 L 37.068811,17.246167 C 37.068811,17.246167 37.088388,32 37.088388,32 L 22.160133,31.978069 C 22.160133,31.978069 26.997745,27.140456 26.997745,27.140456 C 18.528582,18.264221 13.291696,25.230495 11.500037,31.436501 z"
     style="fill:#404040;"/>
  </a>
 </g>
</svg>

<style type='text/css'>
<![CDATA[
[data-mouse-over-selected='false'] { opacity: 0.7; }
[data-mouse-over-selected='true']  { opacity: 1.0; }
]]>
</style>
<script type="application/ecmascript"><![CDATA[
document.addEventListener('DOMContentLoaded', (event) => {
  highlightEdges();
  highlightAdjacentNodes();
});
]]></script>
</svg>
