<?xml version="1.0" encoding="UTF-8" standalone="no"?>
<!DOCTYPE svg PUBLIC "-//W3C//DTD SVG 1.1//EN"
 "http://www.w3.org/Graphics/SVG/1.1/DTD/svg11.dtd">
<!-- Generated by graphviz version 6.0.1 (20220911.1526)
 -->
<!-- Title: CKmeans::reinitClusterMeans_ Pages: 1 -->
<svg width="429pt" height="101pt"
 viewBox="0.00 0.00 429.00 101.00" xmlns="http://www.w3.org/2000/svg" xmlns:xlink="http://www.w3.org/1999/xlink">
<g id="graph0" class="graph" transform="scale(1 1) rotate(0) translate(4 97)">
<title>CKmeans::reinitClusterMeans_</title>
<!-- Node1 -->
<g id="node1" class="node">
<title>Node1</title>
<g id="a_node1"><a xlink:title=" ">
<polygon fill="#999999" stroke="#666666" points="150,-56 0,-56 0,-37 150,-37 150,-56"/>
<text text-anchor="middle" x="75" y="-44" font-family="Helvetica,sans-Serif" font-size="10.00">CKmeans::reinitClusterMeans_</text>
</a>
</g>
</g>
<!-- Node2 -->
<g id="node2" class="node">
<title>Node2</title>
<g id="a_node2"><a xlink:href="a00494.xhtml#a15807589621c539725afa2e8e6ea8ffc" target="_top" xlink:title=" ">
<polygon fill="white" stroke="#666666" points="298,-93 186,-93 186,-74 298,-74 298,-93"/>
<text text-anchor="middle" x="242" y="-81" font-family="Helvetica,sans-Serif" font-size="10.00">CSynthesis::genNoise</text>
</a>
</g>
</g>
<!-- Node1&#45;&gt;Node2 -->
<g id="edge1" class="edge">
<title>Node1&#45;&gt;Node2</title>
<path fill="none" stroke="#63b8ff" d="M118.49,-56.03C139.87,-60.82 165.97,-66.68 188.58,-71.75"/>
<polygon fill="#63b8ff" stroke="#63b8ff" points="187.84,-75.17 198.37,-73.94 189.37,-68.34 187.84,-75.17"/>
</g>
<!-- Node3 -->
<g id="node3" class="node">
<title>Node3</title>
<g id="a_node3"><a xlink:href="a00502.xhtml#a1f7f307c20239cfd2007393e2b3b26df" target="_top" xlink:title=" ">
<polygon fill="white" stroke="#666666" points="285,-56 199,-56 199,-37 285,-37 285,-56"/>
<text text-anchor="middle" x="242" y="-44" font-family="Helvetica,sans-Serif" font-size="10.00">CVector::getMin</text>
</a>
</g>
</g>
<!-- Node1&#45;&gt;Node3 -->
<g id="edge2" class="edge">
<title>Node1&#45;&gt;Node3</title>
<path fill="none" stroke="#63b8ff" d="M150.29,-46.5C163.13,-46.5 176.23,-46.5 188.34,-46.5"/>
<polygon fill="#63b8ff" stroke="#63b8ff" points="188.7,-50 198.7,-46.5 188.7,-43 188.7,-50"/>
</g>
<!-- Node5 -->
<g id="node5" class="node">
<title>Node5</title>
<g id="a_node5"><a xlink:href="a00502.xhtml#a9811f50434dd058d201290b2dc98bfcd" target="_top" xlink:title=" ">
<polygon fill="white" stroke="#666666" points="285.5,-19 198.5,-19 198.5,0 285.5,0 285.5,-19"/>
<text text-anchor="middle" x="242" y="-7" font-family="Helvetica,sans-Serif" font-size="10.00">CVector::mulC_I</text>
</a>
</g>
</g>
<!-- Node1&#45;&gt;Node5 -->
<g id="edge4" class="edge">
<title>Node1&#45;&gt;Node5</title>
<path fill="none" stroke="#63b8ff" d="M118.49,-36.97C139.87,-32.18 165.97,-26.32 188.58,-21.25"/>
<polygon fill="#63b8ff" stroke="#63b8ff" points="189.37,-24.66 198.37,-19.06 187.84,-17.83 189.37,-24.66"/>
</g>
<!-- Node4 -->
<g id="node4" class="node">
<title>Node4</title>
<g id="a_node4"><a xlink:href="a00502.xhtml#ad475dff5686f7f82472071000a542806" target="_top" xlink:title=" ">
<polygon fill="white" stroke="#666666" points="421,-56 334,-56 334,-37 421,-37 421,-56"/>
<text text-anchor="middle" x="377.5" y="-44" font-family="Helvetica,sans-Serif" font-size="10.00">CVector::findMin</text>
</a>
</g>
</g>
<!-- Node3&#45;&gt;Node4 -->
<g id="edge3" class="edge">
<title>Node3&#45;&gt;Node4</title>
<path fill="none" stroke="#63b8ff" d="M285.24,-46.5C297.42,-46.5 310.86,-46.5 323.59,-46.5"/>
<polygon fill="#63b8ff" stroke="#63b8ff" points="323.62,-50 333.62,-46.5 323.62,-43 323.62,-50"/>
</g>
</g>
</svg>
