<?xml version="1.0" encoding="UTF-8" standalone="no"?>
<!DOCTYPE svg PUBLIC "-//W3C//DTD SVG 1.1//EN"
 "http://www.w3.org/Graphics/SVG/1.1/DTD/svg11.dtd">
<!-- Generated by graphviz version 4.0.0 (20220602.1335)
 -->
<!-- Title: CSeqFeatureSel::reset Pages: 1 -->
<svg width="338pt" height="47pt"
 viewBox="0.00 0.00 338.00 47.00" xmlns="http://www.w3.org/2000/svg" xmlns:xlink="http://www.w3.org/1999/xlink">
<g id="graph0" class="graph" transform="scale(1 1) rotate(0) translate(4 43)">
<title>CSeqFeatureSel::reset</title>
<polygon fill="white" stroke="transparent" points="-4,4 -4,-43 334,-43 334,4 -4,4"/>
<!-- Node1 -->
<g id="node1" class="node">
<title>Node1</title>
<g id="a_node1"><a xlink:title=" ">
<polygon fill="#bfbfbf" stroke="black" points="0,-19.5 0,-38.5 114,-38.5 114,-19.5 0,-19.5"/>
<text text-anchor="middle" x="57" y="-26.5" font-family="Helvetica,sans-Serif" font-size="10.00">CSeqFeatureSel::reset</text>
</a>
</g>
</g>
<!-- Node2 -->
<g id="node2" class="node">
<title>Node2</title>
<g id="a_node2"><a xlink:href="a00502.xhtml#aa86bdb0c663d4d52f2765793756f8737" target="_top" xlink:title=" ">
<polygon fill="white" stroke="black" points="257,-19.5 257,-38.5 330,-38.5 330,-19.5 257,-19.5"/>
<text text-anchor="middle" x="293.5" y="-26.5" font-family="Helvetica,sans-Serif" font-size="10.00">CVector::free</text>
</a>
</g>
</g>
<!-- Node1&#45;&gt;Node2 -->
<g id="edge1" class="edge">
<title>Node1&#45;&gt;Node2</title>
<path fill="none" stroke="midnightblue" d="M114.17,-29C154.67,-29 208.66,-29 246.58,-29"/>
<polygon fill="midnightblue" stroke="midnightblue" points="246.83,-32.5 256.83,-29 246.83,-25.5 246.83,-32.5"/>
</g>
<!-- Node3 -->
<g id="node3" class="node">
<title>Node3</title>
<g id="a_node3"><a xlink:href="a00486.xhtml#a591097c6b1935c4d6273b3445f8f552b" target="_top" xlink:title=" ">
<polygon fill="white" stroke="black" points="150,-0.5 150,-19.5 221,-19.5 221,-0.5 150,-0.5"/>
<text text-anchor="middle" x="185.5" y="-7.5" font-family="Helvetica,sans-Serif" font-size="10.00">CMatrix::free</text>
</a>
</g>
</g>
<!-- Node1&#45;&gt;Node3 -->
<g id="edge2" class="edge">
<title>Node1&#45;&gt;Node3</title>
<path fill="none" stroke="midnightblue" d="M114.22,-20.56C122.76,-19.27 131.47,-17.97 139.72,-16.73"/>
<polygon fill="midnightblue" stroke="midnightblue" points="140.51,-20.15 149.88,-15.2 139.47,-13.22 140.51,-20.15"/>
</g>
<!-- Node3&#45;&gt;Node2 -->
<g id="edge3" class="edge">
<title>Node3&#45;&gt;Node2</title>
<path fill="none" stroke="midnightblue" d="M221.21,-16.22C229.45,-17.7 238.37,-19.3 247.02,-20.85"/>
<polygon fill="midnightblue" stroke="midnightblue" points="246.53,-24.32 256.99,-22.63 247.76,-17.42 246.53,-24.32"/>
</g>
</g>
</svg>
