<?xml version="1.0" encoding="UTF-8" standalone="no"?>
<!DOCTYPE svg PUBLIC "-//W3C//DTD SVG 1.1//EN"
 "http://www.w3.org/Graphics/SVG/1.1/DTD/svg11.dtd">
<!-- Generated by graphviz version 4.0.0 (20220602.1335)
 -->
<!-- Title: Catch::SectionEndInfo Pages: 1 -->
<svg width="304pt" height="617pt"
 viewBox="0.00 0.00 304.00 617.00" xmlns="http://www.w3.org/2000/svg" xmlns:xlink="http://www.w3.org/1999/xlink">
<g id="graph0" class="graph" transform="scale(1 1) rotate(0) translate(4 613)">
<title>Catch::SectionEndInfo</title>
<polygon fill="white" stroke="transparent" points="-4,4 -4,-613 300,-613 300,4 -4,4"/>
<!-- Node1 -->
<g id="node1" class="node">
<title>Node1</title>
<g id="a_node1"><a xlink:title=" ">
<polygon fill="#bfbfbf" stroke="black" points="85.5,-0.5 85.5,-57.5 222.5,-57.5 222.5,-0.5 85.5,-0.5"/>
<text text-anchor="middle" x="154" y="-45.5" font-family="Helvetica,sans-Serif" font-size="10.00">Catch::SectionEndInfo</text>
<polyline fill="none" stroke="black" points="85.5,-38.5 222.5,-38.5 "/>
<text text-anchor="start" x="93.5" y="-26.5" font-family="Helvetica,sans-Serif" font-size="10.00">+ double durationInSeconds</text>
<polyline fill="none" stroke="black" points="85.5,-19.5 222.5,-19.5 "/>
<text text-anchor="middle" x="154" y="-7.5" font-family="Helvetica,sans-Serif" font-size="10.00"> </text>
</a>
</g>
</g>
<!-- Node2 -->
<g id="node2" class="node">
<title>Node2</title>
<g id="a_node2"><a xlink:href="a00877.xhtml" target="_top" xlink:title=" ">
<polygon fill="white" stroke="black" points="4.5,-116.5 4.5,-250.5 147.5,-250.5 147.5,-116.5 4.5,-116.5"/>
<text text-anchor="middle" x="76" y="-238.5" font-family="Helvetica,sans-Serif" font-size="10.00">Catch::SectionInfo</text>
<polyline fill="none" stroke="black" points="4.5,-231.5 147.5,-231.5 "/>
<text text-anchor="start" x="12.5" y="-219.5" font-family="Helvetica,sans-Serif" font-size="10.00">+ std::string name</text>
<text text-anchor="start" x="12.5" y="-208.5" font-family="Helvetica,sans-Serif" font-size="10.00">+ std::string description</text>
<polyline fill="none" stroke="black" points="4.5,-201.5 147.5,-201.5 "/>
<text text-anchor="start" x="12.5" y="-189.5" font-family="Helvetica,sans-Serif" font-size="10.00">+ SectionInfo(SourceLineInfo</text>
<text text-anchor="start" x="12.5" y="-178.5" font-family="Helvetica,sans-Serif" font-size="10.00"> const &amp;_lineInfo, std::</text>
<text text-anchor="start" x="12.5" y="-167.5" font-family="Helvetica,sans-Serif" font-size="10.00">string const &amp;_name)</text>
<text text-anchor="start" x="12.5" y="-156.5" font-family="Helvetica,sans-Serif" font-size="10.00">+ SectionInfo(SourceLineInfo</text>
<text text-anchor="start" x="12.5" y="-145.5" font-family="Helvetica,sans-Serif" font-size="10.00"> const &amp;_lineInfo, std::</text>
<text text-anchor="start" x="12.5" y="-134.5" font-family="Helvetica,sans-Serif" font-size="10.00">string const &amp;_name, std</text>
<text text-anchor="start" x="12.5" y="-123.5" font-family="Helvetica,sans-Serif" font-size="10.00">::string const &amp;)</text>
</a>
</g>
</g>
<!-- Node2&#45;&gt;Node1 -->
<g id="edge1" class="edge">
<title>Node2&#45;&gt;Node1</title>
<path fill="none" stroke="#404040" d="M97.84,-116.26C103.35,-102.58 109.78,-88.53 117,-76 118.62,-73.18 120.41,-70.36 122.3,-67.57"/>
<polygon fill="none" stroke="#404040" points="122.4,-67.43 122.69,-60.22 129.46,-57.72 129.17,-64.92 122.4,-67.43"/>
<text text-anchor="middle" x="145.5" y="-79" font-family="Helvetica,sans-Serif" font-size="10.00"> +sectionInfo</text>
</g>
<!-- Node3 -->
<g id="node3" class="node">
<title>Node3</title>
<g id="a_node3"><a xlink:href="a00597.xhtml" target="_top" xlink:title=" ">
<polygon fill="white" stroke="black" points="0,-309.5 0,-608.5 152,-608.5 152,-309.5 0,-309.5"/>
<text text-anchor="middle" x="76" y="-596.5" font-family="Helvetica,sans-Serif" font-size="10.00">Catch::SourceLineInfo</text>
<polyline fill="none" stroke="black" points="0,-589.5 152,-589.5 "/>
<text text-anchor="start" x="8" y="-577.5" font-family="Helvetica,sans-Serif" font-size="10.00">+ char const * file</text>
<text text-anchor="start" x="8" y="-566.5" font-family="Helvetica,sans-Serif" font-size="10.00">+ std::size_t line</text>
<polyline fill="none" stroke="black" points="0,-559.5 152,-559.5 "/>
<text text-anchor="start" x="8" y="-547.5" font-family="Helvetica,sans-Serif" font-size="10.00">+ SourceLineInfo()=delete</text>
<text text-anchor="start" x="8" y="-536.5" font-family="Helvetica,sans-Serif" font-size="10.00">+ SourceLineInfo(char</text>
<text text-anchor="start" x="8" y="-525.5" font-family="Helvetica,sans-Serif" font-size="10.00"> const *_file, std::size</text>
<text text-anchor="start" x="8" y="-514.5" font-family="Helvetica,sans-Serif" font-size="10.00">_t _line) noexcept</text>
<text text-anchor="start" x="8" y="-503.5" font-family="Helvetica,sans-Serif" font-size="10.00">+ SourceLineInfo(SourceLine</text>
<text text-anchor="start" x="8" y="-492.5" font-family="Helvetica,sans-Serif" font-size="10.00">Info const &amp;other)=default</text>
<text text-anchor="start" x="8" y="-481.5" font-family="Helvetica,sans-Serif" font-size="10.00">+ SourceLineInfo &amp; operator</text>
<text text-anchor="start" x="8" y="-470.5" font-family="Helvetica,sans-Serif" font-size="10.00">=(SourceLineInfo const</text>
<text text-anchor="start" x="8" y="-459.5" font-family="Helvetica,sans-Serif" font-size="10.00"> &amp;)=default</text>
<text text-anchor="start" x="8" y="-448.5" font-family="Helvetica,sans-Serif" font-size="10.00">+ SourceLineInfo(SourceLine</text>
<text text-anchor="start" x="8" y="-437.5" font-family="Helvetica,sans-Serif" font-size="10.00">Info &amp;&amp;) noexcept=default</text>
<text text-anchor="start" x="8" y="-426.5" font-family="Helvetica,sans-Serif" font-size="10.00">+ SourceLineInfo &amp; operator</text>
<text text-anchor="start" x="8" y="-415.5" font-family="Helvetica,sans-Serif" font-size="10.00">=(SourceLineInfo &amp;&amp;) noexcept</text>
<text text-anchor="start" x="8" y="-404.5" font-family="Helvetica,sans-Serif" font-size="10.00">=default</text>
<text text-anchor="start" x="8" y="-393.5" font-family="Helvetica,sans-Serif" font-size="10.00">+ bool empty() const</text>
<text text-anchor="start" x="8" y="-382.5" font-family="Helvetica,sans-Serif" font-size="10.00"> noexcept</text>
<text text-anchor="start" x="8" y="-371.5" font-family="Helvetica,sans-Serif" font-size="10.00">+ bool operator==(SourceLine</text>
<text text-anchor="start" x="8" y="-360.5" font-family="Helvetica,sans-Serif" font-size="10.00">Info const &amp;other) const</text>
<text text-anchor="start" x="8" y="-349.5" font-family="Helvetica,sans-Serif" font-size="10.00"> noexcept</text>
<text text-anchor="start" x="8" y="-338.5" font-family="Helvetica,sans-Serif" font-size="10.00">+ bool operator&lt;(SourceLine</text>
<text text-anchor="start" x="8" y="-327.5" font-family="Helvetica,sans-Serif" font-size="10.00">Info const &amp;other) const</text>
<text text-anchor="start" x="8" y="-316.5" font-family="Helvetica,sans-Serif" font-size="10.00"> noexcept</text>
</a>
</g>
</g>
<!-- Node3&#45;&gt;Node2 -->
<g id="edge2" class="edge">
<title>Node3&#45;&gt;Node2</title>
<path fill="none" stroke="#404040" d="M76,-309.24C76,-293.19 76,-277.36 76,-262.65"/>
<polygon fill="none" stroke="#404040" points="76,-262.57 72,-256.57 76,-250.57 80,-256.57 76,-262.57"/>
<text text-anchor="middle" x="96" y="-283" font-family="Helvetica,sans-Serif" font-size="10.00"> +lineInfo</text>
</g>
<!-- Node4 -->
<g id="node4" class="node">
<title>Node4</title>
<g id="a_node4"><a xlink:href="a00869.xhtml" target="_top" xlink:title=" ">
<polygon fill="white" stroke="black" points="166,-105.5 166,-261.5 296,-261.5 296,-105.5 166,-105.5"/>
<text text-anchor="middle" x="231" y="-249.5" font-family="Helvetica,sans-Serif" font-size="10.00">Catch::Counts</text>
<polyline fill="none" stroke="black" points="166,-242.5 296,-242.5 "/>
<text text-anchor="start" x="174" y="-230.5" font-family="Helvetica,sans-Serif" font-size="10.00">+ std::size_t passed</text>
<text text-anchor="start" x="174" y="-219.5" font-family="Helvetica,sans-Serif" font-size="10.00">+ std::size_t failed</text>
<text text-anchor="start" x="174" y="-208.5" font-family="Helvetica,sans-Serif" font-size="10.00">+ std::size_t failedButOk</text>
<polyline fill="none" stroke="black" points="166,-201.5 296,-201.5 "/>
<text text-anchor="start" x="174" y="-189.5" font-family="Helvetica,sans-Serif" font-size="10.00">+ Counts operator&#45;(Counts</text>
<text text-anchor="start" x="174" y="-178.5" font-family="Helvetica,sans-Serif" font-size="10.00"> const &amp;other) const</text>
<text text-anchor="start" x="174" y="-167.5" font-family="Helvetica,sans-Serif" font-size="10.00">+ Counts &amp; operator+</text>
<text text-anchor="start" x="174" y="-156.5" font-family="Helvetica,sans-Serif" font-size="10.00">=(Counts const &amp;other)</text>
<text text-anchor="start" x="174" y="-145.5" font-family="Helvetica,sans-Serif" font-size="10.00">+ std::size_t total()</text>
<text text-anchor="start" x="174" y="-134.5" font-family="Helvetica,sans-Serif" font-size="10.00"> const</text>
<text text-anchor="start" x="174" y="-123.5" font-family="Helvetica,sans-Serif" font-size="10.00">+ bool allPassed() const</text>
<text text-anchor="start" x="174" y="-112.5" font-family="Helvetica,sans-Serif" font-size="10.00">+ bool allOk() const</text>
</a>
</g>
</g>
<!-- Node4&#45;&gt;Node1 -->
<g id="edge3" class="edge">
<title>Node4&#45;&gt;Node1</title>
<path fill="none" stroke="#404040" d="M192.05,-105.36C185.56,-92.5 179.08,-79.68 173.37,-68.36"/>
<polygon fill="none" stroke="#404040" points="173.34,-68.3 167.06,-64.74 167.93,-57.58 174.2,-61.14 173.34,-68.3"/>
<text text-anchor="middle" x="218" y="-79" font-family="Helvetica,sans-Serif" font-size="10.00"> +prevAssertions</text>
</g>
</g>
</svg>
