<?xml version="1.0" encoding="UTF-8" standalone="no"?>
<!DOCTYPE svg PUBLIC "-//W3C//DTD SVG 1.1//EN"
 "http://www.w3.org/Graphics/SVG/1.1/DTD/svg11.dtd">
<!-- Generated by graphviz version 4.0.0 (20220602.1335)
 -->
<!-- Title: Catch::Capturer::captureValues Pages: 1 -->
<svg width="409pt" height="163pt"
 viewBox="0.00 0.00 409.00 162.50" xmlns="http://www.w3.org/2000/svg" xmlns:xlink="http://www.w3.org/1999/xlink">
<g id="graph0" class="graph" transform="scale(1 1) rotate(0) translate(4 158.5)">
<title>Catch::Capturer::captureValues</title>
<polygon fill="white" stroke="transparent" points="-4,4 -4,-158.5 405,-158.5 405,4 -4,4"/>
<!-- Node1 -->
<g id="node1" class="node">
<title>Node1</title>
<g id="a_node1"><a xlink:title=" ">
<polygon fill="#bfbfbf" stroke="black" points="0,-67.5 0,-97.5 120,-97.5 120,-67.5 0,-67.5"/>
<text text-anchor="start" x="8" y="-85.5" font-family="Helvetica,sans-Serif" font-size="10.00">Catch::Capturer::capture</text>
<text text-anchor="middle" x="60" y="-74.5" font-family="Helvetica,sans-Serif" font-size="10.00">Values</text>
</a>
</g>
</g>
<!-- Node2 -->
<g id="node2" class="node">
<title>Node2</title>
<g id="a_node2"><a xlink:href="a00271.xhtml#af0ad48344ffd3f92f3568465248a9880" target="_top" xlink:title=" ">
<polygon fill="white" stroke="black" points="156,-135 156,-154 266,-154 266,-135 156,-135"/>
<text text-anchor="middle" x="211" y="-142" font-family="Helvetica,sans-Serif" font-size="10.00">Catch::Detail::stringify</text>
</a>
</g>
</g>
<!-- Node1&#45;&gt;Node2 -->
<g id="edge1" class="edge">
<title>Node1&#45;&gt;Node2</title>
<path fill="none" stroke="midnightblue" d="M92.37,-97.53C110.74,-106.12 134.49,-116.87 156,-125.5 161.13,-127.56 166.58,-129.62 171.97,-131.59"/>
<polygon fill="midnightblue" stroke="midnightblue" points="170.93,-134.93 181.52,-135 173.28,-128.34 170.93,-134.93"/>
</g>
<!-- Node3 -->
<g id="node3" class="node">
<title>Node3</title>
<g id="a_node3"><a xlink:href="a00282.xhtml#a3b2efc97978cf37951b75394aae1a3fb" target="_top" xlink:title=" ">
<polygon fill="white" stroke="black" points="161.5,-67.5 161.5,-97.5 260.5,-97.5 260.5,-67.5 161.5,-67.5"/>
<text text-anchor="start" x="169.5" y="-85.5" font-family="Helvetica,sans-Serif" font-size="10.00">Catch::Generators::</text>
<text text-anchor="middle" x="211" y="-74.5" font-family="Helvetica,sans-Serif" font-size="10.00">value</text>
</a>
</g>
</g>
<!-- Node1&#45;&gt;Node3 -->
<g id="edge2" class="edge">
<title>Node1&#45;&gt;Node3</title>
<path fill="none" stroke="midnightblue" d="M120.32,-82.5C130.54,-82.5 141.17,-82.5 151.37,-82.5"/>
<polygon fill="midnightblue" stroke="midnightblue" points="151.41,-86 161.41,-82.5 151.41,-79 151.41,-86"/>
</g>
<!-- Node5 -->
<g id="node5" class="node">
<title>Node5</title>
<g id="a_node5"><a xlink:href="a00282.xhtml#aff55717239311a0e8352a4de5d29967f" target="_top" xlink:title=" ">
<polygon fill="white" stroke="black" points="161.5,-0.5 161.5,-30.5 260.5,-30.5 260.5,-0.5 161.5,-0.5"/>
<text text-anchor="start" x="169.5" y="-18.5" font-family="Helvetica,sans-Serif" font-size="10.00">Catch::Generators::</text>
<text text-anchor="middle" x="211" y="-7.5" font-family="Helvetica,sans-Serif" font-size="10.00">values</text>
</a>
</g>
</g>
<!-- Node1&#45;&gt;Node5 -->
<g id="edge5" class="edge">
<title>Node1&#45;&gt;Node5</title>
<path fill="none" stroke="midnightblue" d="M94.44,-67.46C115.93,-57.8 144.05,-45.15 167.17,-34.76"/>
<polygon fill="midnightblue" stroke="midnightblue" points="168.73,-37.89 176.42,-30.6 165.86,-31.51 168.73,-37.89"/>
</g>
<!-- Node3&#45;&gt;Node3 -->
<g id="edge4" class="edge">
<title>Node3&#45;&gt;Node3</title>
<path fill="none" stroke="midnightblue" d="M186.6,-97.66C180.72,-107.06 188.85,-116 211,-116 224.5,-116 232.79,-112.68 235.88,-107.96"/>
<polygon fill="midnightblue" stroke="midnightblue" points="239.36,-107.49 235.4,-97.66 232.37,-107.81 239.36,-107.49"/>
</g>
<!-- Node4 -->
<g id="node4" class="node">
<title>Node4</title>
<g id="a_node4"><a xlink:href="a00283.xhtml#a015e8fcef2972da878a07023e40d46d8" target="_top" xlink:title=" ">
<polygon fill="white" stroke="black" points="302,-33.5 302,-63.5 401,-63.5 401,-33.5 302,-33.5"/>
<text text-anchor="start" x="310" y="-51.5" font-family="Helvetica,sans-Serif" font-size="10.00">Catch::Generators::</text>
<text text-anchor="middle" x="351.5" y="-40.5" font-family="Helvetica,sans-Serif" font-size="10.00">pf::make_unique</text>
</a>
</g>
</g>
<!-- Node3&#45;&gt;Node4 -->
<g id="edge3" class="edge">
<title>Node3&#45;&gt;Node4</title>
<path fill="none" stroke="midnightblue" d="M260.83,-70.51C270.86,-68.05 281.52,-65.43 291.86,-62.89"/>
<polygon fill="midnightblue" stroke="midnightblue" points="292.77,-66.28 301.64,-60.49 291.1,-59.48 292.77,-66.28"/>
</g>
<!-- Node5&#45;&gt;Node4 -->
<g id="edge6" class="edge">
<title>Node5&#45;&gt;Node4</title>
<path fill="none" stroke="midnightblue" d="M260.83,-27.13C270.86,-29.53 281.52,-32.07 291.86,-34.53"/>
<polygon fill="midnightblue" stroke="midnightblue" points="291.11,-37.95 301.64,-36.86 292.73,-31.14 291.11,-37.95"/>
</g>
<!-- Node5&#45;&gt;Node5 -->
<g id="edge7" class="edge">
<title>Node5&#45;&gt;Node5</title>
<path fill="none" stroke="midnightblue" d="M186.6,-30.66C180.72,-40.06 188.85,-49 211,-49 224.5,-49 232.79,-45.68 235.88,-40.96"/>
<polygon fill="midnightblue" stroke="midnightblue" points="239.36,-40.49 235.4,-30.66 232.37,-40.81 239.36,-40.49"/>
</g>
</g>
</svg>
