<?xml version="1.0" encoding="UTF-8" standalone="no"?>
<!DOCTYPE svg PUBLIC "-//W3C//DTD SVG 1.1//EN"
 "http://www.w3.org/Graphics/SVG/1.1/DTD/svg11.dtd">
<!-- Generated by graphviz version 4.0.0 (20220602.1335)
 -->
<!-- Title: Catch::ExceptionTranslatorRegistrar::ExceptionTranslator&lt; T &gt; Pages: 1 -->
<svg width="192pt" height="303pt"
 viewBox="0.00 0.00 192.00 303.00" xmlns="http://www.w3.org/2000/svg" xmlns:xlink="http://www.w3.org/1999/xlink">
<g id="graph0" class="graph" transform="scale(1 1) rotate(0) translate(4 299)">
<title>Catch::ExceptionTranslatorRegistrar::ExceptionTranslator&lt; T &gt;</title>
<polygon fill="white" stroke="transparent" points="-4,4 -4,-299 188,-299 188,4 -4,4"/>
<!-- Node1 -->
<g id="node1" class="node">
<title>Node1</title>
<g id="a_node1"><a xlink:title=" ">
<polygon fill="#bfbfbf" stroke="black" points="8,-0.5 8,-156.5 176,-156.5 176,-0.5 8,-0.5"/>
<text text-anchor="start" x="16" y="-144.5" font-family="Helvetica,sans-Serif" font-size="10.00">Catch::ExceptionTranslator</text>
<text text-anchor="middle" x="92" y="-133.5" font-family="Helvetica,sans-Serif" font-size="10.00">Registrar::ExceptionTranslator&lt; T &gt;</text>
<polyline fill="none" stroke="black" points="8,-126.5 176,-126.5 "/>
<text text-anchor="start" x="16" y="-114.5" font-family="Helvetica,sans-Serif" font-size="10.00"># std::string(* m_translate</text>
<text text-anchor="start" x="16" y="-103.5" font-family="Helvetica,sans-Serif" font-size="10.00">Function</text>
<polyline fill="none" stroke="black" points="8,-96.5 176,-96.5 "/>
<text text-anchor="start" x="16" y="-84.5" font-family="Helvetica,sans-Serif" font-size="10.00">+ ExceptionTranslator</text>
<text text-anchor="start" x="16" y="-73.5" font-family="Helvetica,sans-Serif" font-size="10.00">(std::string(*translateFunction)</text>
<text text-anchor="start" x="16" y="-62.5" font-family="Helvetica,sans-Serif" font-size="10.00">(T &amp;))</text>
<text text-anchor="start" x="16" y="-51.5" font-family="Helvetica,sans-Serif" font-size="10.00">+ std::string translate</text>
<text text-anchor="start" x="16" y="-40.5" font-family="Helvetica,sans-Serif" font-size="10.00">(ExceptionTranslators</text>
<text text-anchor="start" x="16" y="-29.5" font-family="Helvetica,sans-Serif" font-size="10.00">::const_iterator it, Exception</text>
<text text-anchor="start" x="16" y="-18.5" font-family="Helvetica,sans-Serif" font-size="10.00">Translators::const_iterator</text>
<text text-anchor="start" x="16" y="-7.5" font-family="Helvetica,sans-Serif" font-size="10.00"> itEnd) const override</text>
</a>
</g>
</g>
<!-- Node2 -->
<g id="node2" class="node">
<title>Node2</title>
<g id="a_node2"><a xlink:href="a00948.xhtml" target="_top" xlink:title=" ">
<polygon fill="white" stroke="black" points="0,-193.5 0,-294.5 184,-294.5 184,-193.5 0,-193.5"/>
<text text-anchor="middle" x="92" y="-282.5" font-family="Helvetica,sans-Serif" font-size="10.00">Catch::IExceptionTranslator</text>
<polyline fill="none" stroke="black" points="0,-275.5 184,-275.5 "/>
<text text-anchor="middle" x="92" y="-263.5" font-family="Helvetica,sans-Serif" font-size="10.00"> </text>
<polyline fill="none" stroke="black" points="0,-256.5 184,-256.5 "/>
<text text-anchor="start" x="8" y="-244.5" font-family="Helvetica,sans-Serif" font-size="10.00">+ virtual ~IExceptionTranslator()</text>
<text text-anchor="start" x="8" y="-233.5" font-family="Helvetica,sans-Serif" font-size="10.00">+ virtual std::string</text>
<text text-anchor="start" x="8" y="-222.5" font-family="Helvetica,sans-Serif" font-size="10.00"> translate(ExceptionTranslators</text>
<text text-anchor="start" x="8" y="-211.5" font-family="Helvetica,sans-Serif" font-size="10.00">::const_iterator it, ExceptionTranslators</text>
<text text-anchor="start" x="8" y="-200.5" font-family="Helvetica,sans-Serif" font-size="10.00">::const_iterator itEnd) const =0</text>
</a>
</g>
</g>
<!-- Node2&#45;&gt;Node1 -->
<g id="edge1" class="edge">
<title>Node2&#45;&gt;Node1</title>
<path fill="none" stroke="midnightblue" d="M92,-182.82C92,-174.26 92,-165.36 92,-156.54"/>
<polygon fill="none" stroke="midnightblue" points="88.5,-183.06 92,-193.06 95.5,-183.06 88.5,-183.06"/>
</g>
</g>
</svg>
