<?xml version="1.0" encoding="UTF-8" standalone="no"?>
<!DOCTYPE svg PUBLIC "-//W3C//DTD SVG 1.1//EN"
 "http://www.w3.org/Graphics/SVG/1.1/DTD/svg11.dtd">
<!-- Generated by graphviz version 4.0.0 (20220602.1335)
 -->
<!-- Title: Catch::Section Pages: 1 -->
<svg width="632pt" height="672pt"
 viewBox="0.00 0.00 631.50 672.00" xmlns="http://www.w3.org/2000/svg" xmlns:xlink="http://www.w3.org/1999/xlink">
<g id="graph0" class="graph" transform="scale(1 1) rotate(0) translate(4 668)">
<title>Catch::Section</title>
<polygon fill="white" stroke="transparent" points="-4,4 -4,-668 627.5,-668 627.5,4 -4,4"/>
<!-- Node1 -->
<g id="node1" class="node">
<title>Node1</title>
<g id="a_node1"><a xlink:title=" ">
<polygon fill="#bfbfbf" stroke="black" points="284,-0.5 284,-101.5 408,-101.5 408,-0.5 284,-0.5"/>
<text text-anchor="middle" x="346" y="-89.5" font-family="Helvetica,sans-Serif" font-size="10.00">Catch::Section</text>
<polyline fill="none" stroke="black" points="284,-82.5 408,-82.5 "/>
<text text-anchor="start" x="292" y="-70.5" font-family="Helvetica,sans-Serif" font-size="10.00">&#45; std::string m_name</text>
<text text-anchor="start" x="292" y="-59.5" font-family="Helvetica,sans-Serif" font-size="10.00">&#45; bool m_sectionIncluded</text>
<polyline fill="none" stroke="black" points="284,-52.5 408,-52.5 "/>
<text text-anchor="start" x="292" y="-40.5" font-family="Helvetica,sans-Serif" font-size="10.00">+ Section(SectionInfo</text>
<text text-anchor="start" x="292" y="-29.5" font-family="Helvetica,sans-Serif" font-size="10.00"> const &amp;info)</text>
<text text-anchor="start" x="292" y="-18.5" font-family="Helvetica,sans-Serif" font-size="10.00">+ ~Section()</text>
<text text-anchor="start" x="292" y="-7.5" font-family="Helvetica,sans-Serif" font-size="10.00">+ operator bool() const</text>
</a>
</g>
</g>
<!-- Node2 -->
<g id="node2" class="node">
<title>Node2</title>
<g id="a_node2"><a xlink:href="a00640.xhtml" target="_top" xlink:title=" ">
<polygon fill="white" stroke="black" points="0,-149.5 0,-316.5 140,-316.5 140,-149.5 0,-149.5"/>
<text text-anchor="middle" x="70" y="-304.5" font-family="Helvetica,sans-Serif" font-size="10.00">Catch::NonCopyable</text>
<polyline fill="none" stroke="black" points="0,-297.5 140,-297.5 "/>
<text text-anchor="middle" x="70" y="-285.5" font-family="Helvetica,sans-Serif" font-size="10.00"> </text>
<polyline fill="none" stroke="black" points="0,-278.5 140,-278.5 "/>
<text text-anchor="start" x="8" y="-266.5" font-family="Helvetica,sans-Serif" font-size="10.00"># NonCopyable()</text>
<text text-anchor="start" x="8" y="-255.5" font-family="Helvetica,sans-Serif" font-size="10.00"># virtual ~NonCopyable()</text>
<text text-anchor="start" x="8" y="-244.5" font-family="Helvetica,sans-Serif" font-size="10.00">&#45; NonCopyable(NonCopyable</text>
<text text-anchor="start" x="8" y="-233.5" font-family="Helvetica,sans-Serif" font-size="10.00"> const &amp;)=delete</text>
<text text-anchor="start" x="8" y="-222.5" font-family="Helvetica,sans-Serif" font-size="10.00">&#45; NonCopyable(NonCopyable</text>
<text text-anchor="start" x="8" y="-211.5" font-family="Helvetica,sans-Serif" font-size="10.00"> &amp;&amp;)=delete</text>
<text text-anchor="start" x="8" y="-200.5" font-family="Helvetica,sans-Serif" font-size="10.00">&#45; NonCopyable &amp; operator</text>
<text text-anchor="start" x="8" y="-189.5" font-family="Helvetica,sans-Serif" font-size="10.00">=(NonCopyable const &amp;)</text>
<text text-anchor="start" x="8" y="-178.5" font-family="Helvetica,sans-Serif" font-size="10.00">=delete</text>
<text text-anchor="start" x="8" y="-167.5" font-family="Helvetica,sans-Serif" font-size="10.00">&#45; NonCopyable &amp; operator</text>
<text text-anchor="start" x="8" y="-156.5" font-family="Helvetica,sans-Serif" font-size="10.00">=(NonCopyable &amp;&amp;)=delete</text>
</a>
</g>
</g>
<!-- Node2&#45;&gt;Node1 -->
<g id="edge1" class="edge">
<title>Node2&#45;&gt;Node1</title>
<path fill="none" stroke="#8b1a1a" d="M148.46,-149.4C148.64,-149.27 148.82,-149.13 149,-149 190.62,-118.41 243.37,-93.03 283.81,-75.91"/>
<polygon fill="none" stroke="#8b1a1a" points="146.14,-146.77 140.4,-155.67 150.44,-152.29 146.14,-146.77"/>
</g>
<!-- Node3 -->
<g id="node3" class="node">
<title>Node3</title>
<g id="a_node3"><a xlink:href="a00924.xhtml" target="_top" xlink:title=" ">
<polygon fill="white" stroke="black" points="158.5,-166 158.5,-300 301.5,-300 301.5,-166 158.5,-166"/>
<text text-anchor="middle" x="230" y="-288" font-family="Helvetica,sans-Serif" font-size="10.00">Catch::SectionInfo</text>
<polyline fill="none" stroke="black" points="158.5,-281 301.5,-281 "/>
<text text-anchor="start" x="166.5" y="-269" font-family="Helvetica,sans-Serif" font-size="10.00">+ std::string name</text>
<text text-anchor="start" x="166.5" y="-258" font-family="Helvetica,sans-Serif" font-size="10.00">+ std::string description</text>
<polyline fill="none" stroke="black" points="158.5,-251 301.5,-251 "/>
<text text-anchor="start" x="166.5" y="-239" font-family="Helvetica,sans-Serif" font-size="10.00">+ SectionInfo(SourceLineInfo</text>
<text text-anchor="start" x="166.5" y="-228" font-family="Helvetica,sans-Serif" font-size="10.00"> const &amp;_lineInfo, std::</text>
<text text-anchor="start" x="166.5" y="-217" font-family="Helvetica,sans-Serif" font-size="10.00">string const &amp;_name)</text>
<text text-anchor="start" x="166.5" y="-206" font-family="Helvetica,sans-Serif" font-size="10.00">+ SectionInfo(SourceLineInfo</text>
<text text-anchor="start" x="166.5" y="-195" font-family="Helvetica,sans-Serif" font-size="10.00"> const &amp;_lineInfo, std::</text>
<text text-anchor="start" x="166.5" y="-184" font-family="Helvetica,sans-Serif" font-size="10.00">string const &amp;_name, std</text>
<text text-anchor="start" x="166.5" y="-173" font-family="Helvetica,sans-Serif" font-size="10.00">::string const &amp;)</text>
</a>
</g>
</g>
<!-- Node3&#45;&gt;Node1 -->
<g id="edge2" class="edge">
<title>Node3&#45;&gt;Node1</title>
<path fill="none" stroke="#404040" d="M272.54,-166C283.89,-148.38 296.09,-129.44 307.23,-112.16"/>
<polygon fill="none" stroke="#404040" points="307.51,-111.73 307.4,-104.52 314.01,-101.64 314.12,-108.85 307.51,-111.73"/>
<text text-anchor="middle" x="319.5" y="-123" font-family="Helvetica,sans-Serif" font-size="10.00"> &#45;m_info</text>
</g>
<!-- Node4 -->
<g id="node4" class="node">
<title>Node4</title>
<g id="a_node4"><a xlink:href="a00644.xhtml" target="_top" xlink:title=" ">
<polygon fill="white" stroke="black" points="154,-364.5 154,-663.5 306,-663.5 306,-364.5 154,-364.5"/>
<text text-anchor="middle" x="230" y="-651.5" font-family="Helvetica,sans-Serif" font-size="10.00">Catch::SourceLineInfo</text>
<polyline fill="none" stroke="black" points="154,-644.5 306,-644.5 "/>
<text text-anchor="start" x="162" y="-632.5" font-family="Helvetica,sans-Serif" font-size="10.00">+ char const * file</text>
<text text-anchor="start" x="162" y="-621.5" font-family="Helvetica,sans-Serif" font-size="10.00">+ std::size_t line</text>
<polyline fill="none" stroke="black" points="154,-614.5 306,-614.5 "/>
<text text-anchor="start" x="162" y="-602.5" font-family="Helvetica,sans-Serif" font-size="10.00">+ SourceLineInfo()=delete</text>
<text text-anchor="start" x="162" y="-591.5" font-family="Helvetica,sans-Serif" font-size="10.00">+ SourceLineInfo(char</text>
<text text-anchor="start" x="162" y="-580.5" font-family="Helvetica,sans-Serif" font-size="10.00"> const *_file, std::size</text>
<text text-anchor="start" x="162" y="-569.5" font-family="Helvetica,sans-Serif" font-size="10.00">_t _line) noexcept</text>
<text text-anchor="start" x="162" y="-558.5" font-family="Helvetica,sans-Serif" font-size="10.00">+ SourceLineInfo(SourceLine</text>
<text text-anchor="start" x="162" y="-547.5" font-family="Helvetica,sans-Serif" font-size="10.00">Info const &amp;other)=default</text>
<text text-anchor="start" x="162" y="-536.5" font-family="Helvetica,sans-Serif" font-size="10.00">+ SourceLineInfo &amp; operator</text>
<text text-anchor="start" x="162" y="-525.5" font-family="Helvetica,sans-Serif" font-size="10.00">=(SourceLineInfo const</text>
<text text-anchor="start" x="162" y="-514.5" font-family="Helvetica,sans-Serif" font-size="10.00"> &amp;)=default</text>
<text text-anchor="start" x="162" y="-503.5" font-family="Helvetica,sans-Serif" font-size="10.00">+ SourceLineInfo(SourceLine</text>
<text text-anchor="start" x="162" y="-492.5" font-family="Helvetica,sans-Serif" font-size="10.00">Info &amp;&amp;) noexcept=default</text>
<text text-anchor="start" x="162" y="-481.5" font-family="Helvetica,sans-Serif" font-size="10.00">+ SourceLineInfo &amp; operator</text>
<text text-anchor="start" x="162" y="-470.5" font-family="Helvetica,sans-Serif" font-size="10.00">=(SourceLineInfo &amp;&amp;) noexcept</text>
<text text-anchor="start" x="162" y="-459.5" font-family="Helvetica,sans-Serif" font-size="10.00">=default</text>
<text text-anchor="start" x="162" y="-448.5" font-family="Helvetica,sans-Serif" font-size="10.00">+ bool empty() const</text>
<text text-anchor="start" x="162" y="-437.5" font-family="Helvetica,sans-Serif" font-size="10.00"> noexcept</text>
<text text-anchor="start" x="162" y="-426.5" font-family="Helvetica,sans-Serif" font-size="10.00">+ bool operator==(SourceLine</text>
<text text-anchor="start" x="162" y="-415.5" font-family="Helvetica,sans-Serif" font-size="10.00">Info const &amp;other) const</text>
<text text-anchor="start" x="162" y="-404.5" font-family="Helvetica,sans-Serif" font-size="10.00"> noexcept</text>
<text text-anchor="start" x="162" y="-393.5" font-family="Helvetica,sans-Serif" font-size="10.00">+ bool operator&lt;(SourceLine</text>
<text text-anchor="start" x="162" y="-382.5" font-family="Helvetica,sans-Serif" font-size="10.00">Info const &amp;other) const</text>
<text text-anchor="start" x="162" y="-371.5" font-family="Helvetica,sans-Serif" font-size="10.00"> noexcept</text>
</a>
</g>
</g>
<!-- Node4&#45;&gt;Node3 -->
<g id="edge3" class="edge">
<title>Node4&#45;&gt;Node3</title>
<path fill="none" stroke="#404040" d="M230,-364.11C230,-346.21 230,-328.51 230,-312.21"/>
<polygon fill="none" stroke="#404040" points="230,-312.04 226,-306.04 230,-300.04 234,-306.04 230,-312.04"/>
<text text-anchor="middle" x="250" y="-338" font-family="Helvetica,sans-Serif" font-size="10.00"> +lineInfo</text>
</g>
<!-- Node5 -->
<g id="node5" class="node">
<title>Node5</title>
<g id="a_node5"><a xlink:href="a00916.xhtml" target="_top" xlink:title=" ">
<polygon fill="white" stroke="black" points="320,-155 320,-311 450,-311 450,-155 320,-155"/>
<text text-anchor="middle" x="385" y="-299" font-family="Helvetica,sans-Serif" font-size="10.00">Catch::Counts</text>
<polyline fill="none" stroke="black" points="320,-292 450,-292 "/>
<text text-anchor="start" x="328" y="-280" font-family="Helvetica,sans-Serif" font-size="10.00">+ std::size_t passed</text>
<text text-anchor="start" x="328" y="-269" font-family="Helvetica,sans-Serif" font-size="10.00">+ std::size_t failed</text>
<text text-anchor="start" x="328" y="-258" font-family="Helvetica,sans-Serif" font-size="10.00">+ std::size_t failedButOk</text>
<polyline fill="none" stroke="black" points="320,-251 450,-251 "/>
<text text-anchor="start" x="328" y="-239" font-family="Helvetica,sans-Serif" font-size="10.00">+ Counts operator&#45;(Counts</text>
<text text-anchor="start" x="328" y="-228" font-family="Helvetica,sans-Serif" font-size="10.00"> const &amp;other) const</text>
<text text-anchor="start" x="328" y="-217" font-family="Helvetica,sans-Serif" font-size="10.00">+ Counts &amp; operator+</text>
<text text-anchor="start" x="328" y="-206" font-family="Helvetica,sans-Serif" font-size="10.00">=(Counts const &amp;other)</text>
<text text-anchor="start" x="328" y="-195" font-family="Helvetica,sans-Serif" font-size="10.00">+ std::size_t total()</text>
<text text-anchor="start" x="328" y="-184" font-family="Helvetica,sans-Serif" font-size="10.00"> const</text>
<text text-anchor="start" x="328" y="-173" font-family="Helvetica,sans-Serif" font-size="10.00">+ bool allPassed() const</text>
<text text-anchor="start" x="328" y="-162" font-family="Helvetica,sans-Serif" font-size="10.00">+ bool allOk() const</text>
</a>
</g>
</g>
<!-- Node5&#45;&gt;Node1 -->
<g id="edge4" class="edge">
<title>Node5&#45;&gt;Node1</title>
<path fill="none" stroke="#404040" d="M368.29,-154.88C365.3,-141.07 362.22,-126.85 359.34,-113.56"/>
<polygon fill="none" stroke="#404040" points="359.3,-113.37 354.12,-108.35 356.76,-101.64 361.94,-106.66 359.3,-113.37"/>
<text text-anchor="middle" x="395" y="-123" font-family="Helvetica,sans-Serif" font-size="10.00"> &#45;m_assertions</text>
</g>
<!-- Node6 -->
<g id="node6" class="node">
<title>Node6</title>
<g id="a_node6"><a xlink:href="a00932.xhtml" target="_top" xlink:title=" ">
<polygon fill="white" stroke="black" points="468.5,-160.5 468.5,-305.5 623.5,-305.5 623.5,-160.5 468.5,-160.5"/>
<text text-anchor="middle" x="546" y="-293.5" font-family="Helvetica,sans-Serif" font-size="10.00">Catch::Timer</text>
<polyline fill="none" stroke="black" points="468.5,-286.5 623.5,-286.5 "/>
<text text-anchor="start" x="476.5" y="-274.5" font-family="Helvetica,sans-Serif" font-size="10.00">&#45; uint64_t m_nanoseconds</text>
<polyline fill="none" stroke="black" points="468.5,-267.5 623.5,-267.5 "/>
<text text-anchor="start" x="476.5" y="-255.5" font-family="Helvetica,sans-Serif" font-size="10.00">+ void start()</text>
<text text-anchor="start" x="476.5" y="-244.5" font-family="Helvetica,sans-Serif" font-size="10.00">+ auto getElapsedNanoseconds</text>
<text text-anchor="start" x="476.5" y="-233.5" font-family="Helvetica,sans-Serif" font-size="10.00">() const &#45;&gt; uint64_t</text>
<text text-anchor="start" x="476.5" y="-222.5" font-family="Helvetica,sans-Serif" font-size="10.00">+ auto getElapsedMicroseconds</text>
<text text-anchor="start" x="476.5" y="-211.5" font-family="Helvetica,sans-Serif" font-size="10.00">() const &#45;&gt; uint64_t</text>
<text text-anchor="start" x="476.5" y="-200.5" font-family="Helvetica,sans-Serif" font-size="10.00">+ auto getElapsedMilliseconds</text>
<text text-anchor="start" x="476.5" y="-189.5" font-family="Helvetica,sans-Serif" font-size="10.00">() const &#45;&gt; unsigned int</text>
<text text-anchor="start" x="476.5" y="-178.5" font-family="Helvetica,sans-Serif" font-size="10.00">+ auto getElapsedSeconds</text>
<text text-anchor="start" x="476.5" y="-167.5" font-family="Helvetica,sans-Serif" font-size="10.00">() const &#45;&gt; double</text>
</a>
</g>
</g>
<!-- Node6&#45;&gt;Node1 -->
<g id="edge5" class="edge">
<title>Node6&#45;&gt;Node1</title>
<path fill="none" stroke="#404040" d="M474.63,-160.4C460.41,-146.73 445.41,-132.73 431,-120 426.71,-116.21 422.25,-112.37 417.71,-108.54"/>
<polygon fill="none" stroke="#404040" points="417.54,-108.39 410.37,-107.62 408.33,-100.7 415.5,-101.48 417.54,-108.39"/>
<text text-anchor="middle" x="460.5" y="-123" font-family="Helvetica,sans-Serif" font-size="10.00"> &#45;m_timer</text>
</g>
</g>
</svg>
