<?xml version="1.0" encoding="UTF-8" standalone="no"?>
<!DOCTYPE svg PUBLIC "-//W3C//DTD SVG 1.1//EN"
 "http://www.w3.org/Graphics/SVG/1.1/DTD/svg11.dtd">
<!-- Generated by graphviz version 4.0.0 (20220602.1335)
 -->
<!-- Title: Catch::Matchers::StdString::StringMatcherBase Pages: 1 -->
<svg width="682pt" height="819pt"
 viewBox="0.00 0.00 681.50 819.00" xmlns="http://www.w3.org/2000/svg" xmlns:xlink="http://www.w3.org/1999/xlink">
<g id="graph0" class="graph" transform="scale(1 1) rotate(0) translate(4 815)">
<title>Catch::Matchers::StdString::StringMatcherBase</title>
<polygon fill="white" stroke="transparent" points="-4,4 -4,-815 677.5,-815 677.5,4 -4,4"/>
<!-- Node1 -->
<g id="node1" class="node">
<title>Node1</title>
<g id="a_node1"><a xlink:title=" ">
<polygon fill="#bfbfbf" stroke="black" points="258,-150.5 258,-273.5 417,-273.5 417,-150.5 258,-150.5"/>
<text text-anchor="start" x="266" y="-261.5" font-family="Helvetica,sans-Serif" font-size="10.00">Catch::Matchers::StdString</text>
<text text-anchor="middle" x="337.5" y="-250.5" font-family="Helvetica,sans-Serif" font-size="10.00">::StringMatcherBase</text>
<polyline fill="none" stroke="black" points="258,-243.5 417,-243.5 "/>
<text text-anchor="start" x="266" y="-231.5" font-family="Helvetica,sans-Serif" font-size="10.00">+ CasedString m_comparator</text>
<text text-anchor="start" x="266" y="-220.5" font-family="Helvetica,sans-Serif" font-size="10.00">+ std::string m_operation</text>
<polyline fill="none" stroke="black" points="258,-213.5 417,-213.5 "/>
<text text-anchor="start" x="266" y="-201.5" font-family="Helvetica,sans-Serif" font-size="10.00">+ StringMatcherBase</text>
<text text-anchor="start" x="266" y="-190.5" font-family="Helvetica,sans-Serif" font-size="10.00">(std::string const &amp;operation,</text>
<text text-anchor="start" x="266" y="-179.5" font-family="Helvetica,sans-Serif" font-size="10.00"> CasedString const &amp;comparator)</text>
<text text-anchor="start" x="266" y="-168.5" font-family="Helvetica,sans-Serif" font-size="10.00">+ std::string describe</text>
<text text-anchor="start" x="266" y="-157.5" font-family="Helvetica,sans-Serif" font-size="10.00">() const override</text>
</a>
</g>
</g>
<!-- Node6 -->
<g id="node6" class="node">
<title>Node6</title>
<g id="a_node6"><a xlink:href="a00985.xhtml" target="_top" xlink:title=" ">
<polygon fill="white" stroke="black" points="0,-0.5 0,-112.5 155,-112.5 155,-0.5 0,-0.5"/>
<text text-anchor="start" x="8" y="-100.5" font-family="Helvetica,sans-Serif" font-size="10.00">Catch::Matchers::StdString</text>
<text text-anchor="middle" x="77.5" y="-89.5" font-family="Helvetica,sans-Serif" font-size="10.00">::ContainsMatcher</text>
<polyline fill="none" stroke="black" points="0,-82.5 155,-82.5 "/>
<text text-anchor="middle" x="77.5" y="-70.5" font-family="Helvetica,sans-Serif" font-size="10.00"> </text>
<polyline fill="none" stroke="black" points="0,-63.5 155,-63.5 "/>
<text text-anchor="start" x="8" y="-51.5" font-family="Helvetica,sans-Serif" font-size="10.00">+ ContainsMatcher(CasedString</text>
<text text-anchor="start" x="8" y="-40.5" font-family="Helvetica,sans-Serif" font-size="10.00"> const &amp;comparator)</text>
<text text-anchor="start" x="8" y="-29.5" font-family="Helvetica,sans-Serif" font-size="10.00">+ bool match(std::string</text>
<text text-anchor="start" x="8" y="-18.5" font-family="Helvetica,sans-Serif" font-size="10.00"> const &amp;source) const</text>
<text text-anchor="start" x="8" y="-7.5" font-family="Helvetica,sans-Serif" font-size="10.00"> override</text>
</a>
</g>
</g>
<!-- Node1&#45;&gt;Node6 -->
<g id="edge5" class="edge">
<title>Node1&#45;&gt;Node6</title>
<path fill="none" stroke="midnightblue" d="M249.01,-162.05C221.73,-146.65 191.72,-129.38 164.5,-113 161.43,-111.15 158.31,-109.26 155.16,-107.33"/>
<polygon fill="none" stroke="midnightblue" points="247.33,-165.12 257.76,-166.98 250.77,-159.02 247.33,-165.12"/>
</g>
<!-- Node7 -->
<g id="node7" class="node">
<title>Node7</title>
<g id="a_node7"><a xlink:href="a00993.xhtml" target="_top" xlink:title=" ">
<polygon fill="white" stroke="black" points="173.5,-0.5 173.5,-112.5 331.5,-112.5 331.5,-0.5 173.5,-0.5"/>
<text text-anchor="start" x="181.5" y="-100.5" font-family="Helvetica,sans-Serif" font-size="10.00">Catch::Matchers::StdString</text>
<text text-anchor="middle" x="252.5" y="-89.5" font-family="Helvetica,sans-Serif" font-size="10.00">::EndsWithMatcher</text>
<polyline fill="none" stroke="black" points="173.5,-82.5 331.5,-82.5 "/>
<text text-anchor="middle" x="252.5" y="-70.5" font-family="Helvetica,sans-Serif" font-size="10.00"> </text>
<polyline fill="none" stroke="black" points="173.5,-63.5 331.5,-63.5 "/>
<text text-anchor="start" x="181.5" y="-51.5" font-family="Helvetica,sans-Serif" font-size="10.00">+ EndsWithMatcher(CasedString</text>
<text text-anchor="start" x="181.5" y="-40.5" font-family="Helvetica,sans-Serif" font-size="10.00"> const &amp;comparator)</text>
<text text-anchor="start" x="181.5" y="-29.5" font-family="Helvetica,sans-Serif" font-size="10.00">+ bool match(std::string</text>
<text text-anchor="start" x="181.5" y="-18.5" font-family="Helvetica,sans-Serif" font-size="10.00"> const &amp;source) const</text>
<text text-anchor="start" x="181.5" y="-7.5" font-family="Helvetica,sans-Serif" font-size="10.00"> override</text>
</a>
</g>
</g>
<!-- Node1&#45;&gt;Node7 -->
<g id="edge6" class="edge">
<title>Node1&#45;&gt;Node7</title>
<path fill="none" stroke="midnightblue" d="M299.03,-141.53C293.69,-131.88 288.26,-122.08 283.09,-112.74"/>
<polygon fill="none" stroke="midnightblue" points="296,-143.28 303.91,-150.33 302.12,-139.89 296,-143.28"/>
</g>
<!-- Node8 -->
<g id="node8" class="node">
<title>Node8</title>
<g id="a_node8"><a xlink:href="a00981.xhtml" target="_top" xlink:title=" ">
<polygon fill="white" stroke="black" points="349.5,-0.5 349.5,-112.5 495.5,-112.5 495.5,-0.5 349.5,-0.5"/>
<text text-anchor="start" x="357.5" y="-100.5" font-family="Helvetica,sans-Serif" font-size="10.00">Catch::Matchers::StdString</text>
<text text-anchor="middle" x="422.5" y="-89.5" font-family="Helvetica,sans-Serif" font-size="10.00">::EqualsMatcher</text>
<polyline fill="none" stroke="black" points="349.5,-82.5 495.5,-82.5 "/>
<text text-anchor="middle" x="422.5" y="-70.5" font-family="Helvetica,sans-Serif" font-size="10.00"> </text>
<polyline fill="none" stroke="black" points="349.5,-63.5 495.5,-63.5 "/>
<text text-anchor="start" x="357.5" y="-51.5" font-family="Helvetica,sans-Serif" font-size="10.00">+ EqualsMatcher(CasedString</text>
<text text-anchor="start" x="357.5" y="-40.5" font-family="Helvetica,sans-Serif" font-size="10.00"> const &amp;comparator)</text>
<text text-anchor="start" x="357.5" y="-29.5" font-family="Helvetica,sans-Serif" font-size="10.00">+ bool match(std::string</text>
<text text-anchor="start" x="357.5" y="-18.5" font-family="Helvetica,sans-Serif" font-size="10.00"> const &amp;source) const</text>
<text text-anchor="start" x="357.5" y="-7.5" font-family="Helvetica,sans-Serif" font-size="10.00"> override</text>
</a>
</g>
</g>
<!-- Node1&#45;&gt;Node8 -->
<g id="edge7" class="edge">
<title>Node1&#45;&gt;Node8</title>
<path fill="none" stroke="midnightblue" d="M375.97,-141.53C381.31,-131.88 386.74,-122.08 391.91,-112.74"/>
<polygon fill="none" stroke="midnightblue" points="372.88,-139.89 371.09,-150.33 379,-143.28 372.88,-139.89"/>
</g>
<!-- Node9 -->
<g id="node9" class="node">
<title>Node9</title>
<g id="a_node9"><a xlink:href="a00989.xhtml" target="_top" xlink:title=" ">
<polygon fill="white" stroke="black" points="513.5,-0.5 513.5,-112.5 673.5,-112.5 673.5,-0.5 513.5,-0.5"/>
<text text-anchor="start" x="521.5" y="-100.5" font-family="Helvetica,sans-Serif" font-size="10.00">Catch::Matchers::StdString</text>
<text text-anchor="middle" x="593.5" y="-89.5" font-family="Helvetica,sans-Serif" font-size="10.00">::StartsWithMatcher</text>
<polyline fill="none" stroke="black" points="513.5,-82.5 673.5,-82.5 "/>
<text text-anchor="middle" x="593.5" y="-70.5" font-family="Helvetica,sans-Serif" font-size="10.00"> </text>
<polyline fill="none" stroke="black" points="513.5,-63.5 673.5,-63.5 "/>
<text text-anchor="start" x="521.5" y="-51.5" font-family="Helvetica,sans-Serif" font-size="10.00">+ StartsWithMatcher</text>
<text text-anchor="start" x="521.5" y="-40.5" font-family="Helvetica,sans-Serif" font-size="10.00">(CasedString const &amp;comparator)</text>
<text text-anchor="start" x="521.5" y="-29.5" font-family="Helvetica,sans-Serif" font-size="10.00">+ bool match(std::string</text>
<text text-anchor="start" x="521.5" y="-18.5" font-family="Helvetica,sans-Serif" font-size="10.00"> const &amp;source) const</text>
<text text-anchor="start" x="521.5" y="-7.5" font-family="Helvetica,sans-Serif" font-size="10.00"> override</text>
</a>
</g>
</g>
<!-- Node1&#45;&gt;Node9 -->
<g id="edge8" class="edge">
<title>Node1&#45;&gt;Node9</title>
<path fill="none" stroke="midnightblue" d="M426.07,-159.62C451.48,-144.72 479.16,-128.33 504.5,-113 507.3,-111.3 510.15,-109.57 513.03,-107.82"/>
<polygon fill="none" stroke="midnightblue" points="424.04,-156.75 417.19,-164.83 427.58,-162.79 424.04,-156.75"/>
</g>
<!-- Node2 -->
<g id="node2" class="node">
<title>Node2</title>
<g id="a_node2"><a xlink:href="a00949.xhtml" target="_top" xlink:title=" ">
<polygon fill="white" stroke="black" points="254.5,-311.5 254.5,-434.5 420.5,-434.5 420.5,-311.5 254.5,-311.5"/>
<text text-anchor="start" x="262.5" y="-422.5" font-family="Helvetica,sans-Serif" font-size="10.00">Catch::Matchers::Impl</text>
<text text-anchor="middle" x="337.5" y="-411.5" font-family="Helvetica,sans-Serif" font-size="10.00">::MatcherBase&lt; T &gt;</text>
<polyline fill="none" stroke="black" points="254.5,-404.5 420.5,-404.5 "/>
<text text-anchor="middle" x="337.5" y="-392.5" font-family="Helvetica,sans-Serif" font-size="10.00"> </text>
<polyline fill="none" stroke="black" points="254.5,-385.5 420.5,-385.5 "/>
<text text-anchor="start" x="262.5" y="-373.5" font-family="Helvetica,sans-Serif" font-size="10.00">+ MatchAllOf&lt; T &gt; operator&amp;&amp;</text>
<text text-anchor="start" x="262.5" y="-362.5" font-family="Helvetica,sans-Serif" font-size="10.00">(MatcherBase const &amp;other) const</text>
<text text-anchor="start" x="262.5" y="-351.5" font-family="Helvetica,sans-Serif" font-size="10.00">+ MatchAnyOf&lt; T &gt; operator|</text>
<text text-anchor="start" x="262.5" y="-340.5" font-family="Helvetica,sans-Serif" font-size="10.00">|(MatcherBase const &amp;other) const</text>
<text text-anchor="start" x="262.5" y="-329.5" font-family="Helvetica,sans-Serif" font-size="10.00">+ MatchNotOf&lt; T &gt; operator!</text>
<text text-anchor="start" x="262.5" y="-318.5" font-family="Helvetica,sans-Serif" font-size="10.00">() const</text>
</a>
</g>
</g>
<!-- Node2&#45;&gt;Node1 -->
<g id="edge1" class="edge">
<title>Node2&#45;&gt;Node1</title>
<path fill="none" stroke="midnightblue" d="M337.5,-301.17C337.5,-291.99 337.5,-282.65 337.5,-273.66"/>
<polygon fill="none" stroke="midnightblue" points="334,-301.44 337.5,-311.44 341,-301.44 334,-301.44"/>
</g>
<!-- Node3 -->
<g id="node3" class="node">
<title>Node3</title>
<g id="a_node3"><a xlink:href="a00941.xhtml" target="_top" xlink:title=" ">
<polygon fill="white" stroke="black" points="246.5,-472.5 246.5,-672.5 404.5,-672.5 404.5,-472.5 246.5,-472.5"/>
<text text-anchor="start" x="254.5" y="-660.5" font-family="Helvetica,sans-Serif" font-size="10.00">Catch::Matchers::Impl</text>
<text text-anchor="middle" x="325.5" y="-649.5" font-family="Helvetica,sans-Serif" font-size="10.00">::MatcherUntypedBase</text>
<polyline fill="none" stroke="black" points="246.5,-642.5 404.5,-642.5 "/>
<text text-anchor="start" x="254.5" y="-630.5" font-family="Helvetica,sans-Serif" font-size="10.00"># std::string m_cachedToString</text>
<polyline fill="none" stroke="black" points="246.5,-623.5 404.5,-623.5 "/>
<text text-anchor="start" x="254.5" y="-611.5" font-family="Helvetica,sans-Serif" font-size="10.00">+ MatcherUntypedBase</text>
<text text-anchor="start" x="254.5" y="-600.5" font-family="Helvetica,sans-Serif" font-size="10.00">()=default</text>
<text text-anchor="start" x="254.5" y="-589.5" font-family="Helvetica,sans-Serif" font-size="10.00">+ MatcherUntypedBase</text>
<text text-anchor="start" x="254.5" y="-578.5" font-family="Helvetica,sans-Serif" font-size="10.00">(MatcherUntypedBase</text>
<text text-anchor="start" x="254.5" y="-567.5" font-family="Helvetica,sans-Serif" font-size="10.00"> const &amp;)=default</text>
<text text-anchor="start" x="254.5" y="-556.5" font-family="Helvetica,sans-Serif" font-size="10.00">+ MatcherUntypedBase</text>
<text text-anchor="start" x="254.5" y="-545.5" font-family="Helvetica,sans-Serif" font-size="10.00"> &amp; operator=(MatcherUntyped</text>
<text text-anchor="start" x="254.5" y="-534.5" font-family="Helvetica,sans-Serif" font-size="10.00">Base const &amp;)=delete</text>
<text text-anchor="start" x="254.5" y="-523.5" font-family="Helvetica,sans-Serif" font-size="10.00">+ std::string toString</text>
<text text-anchor="start" x="254.5" y="-512.5" font-family="Helvetica,sans-Serif" font-size="10.00">() const</text>
<text text-anchor="start" x="254.5" y="-501.5" font-family="Helvetica,sans-Serif" font-size="10.00"># virtual ~MatcherUntypedBase()</text>
<text text-anchor="start" x="254.5" y="-490.5" font-family="Helvetica,sans-Serif" font-size="10.00"># virtual std::string</text>
<text text-anchor="start" x="254.5" y="-479.5" font-family="Helvetica,sans-Serif" font-size="10.00"> describe() const =0</text>
</a>
</g>
</g>
<!-- Node3&#45;&gt;Node2 -->
<g id="edge2" class="edge">
<title>Node3&#45;&gt;Node2</title>
<path fill="none" stroke="midnightblue" d="M332.14,-462.2C332.71,-452.78 333.28,-443.48 333.81,-434.67"/>
<polygon fill="none" stroke="midnightblue" points="328.63,-462.27 331.52,-472.46 335.62,-462.69 328.63,-462.27"/>
</g>
<!-- Node4 -->
<g id="node4" class="node">
<title>Node4</title>
<g id="a_node4"><a xlink:href="a00945.xhtml" target="_top" xlink:title=" ">
<polygon fill="white" stroke="black" points="422,-533 422,-612 537,-612 537,-533 422,-533"/>
<text text-anchor="start" x="430" y="-600" font-family="Helvetica,sans-Serif" font-size="10.00">Catch::Matchers::Impl</text>
<text text-anchor="middle" x="479.5" y="-589" font-family="Helvetica,sans-Serif" font-size="10.00">::MatcherMethod&lt; T &gt;</text>
<polyline fill="none" stroke="black" points="422,-582 537,-582 "/>
<text text-anchor="middle" x="479.5" y="-570" font-family="Helvetica,sans-Serif" font-size="10.00"> </text>
<polyline fill="none" stroke="black" points="422,-563 537,-563 "/>
<text text-anchor="start" x="430" y="-551" font-family="Helvetica,sans-Serif" font-size="10.00">+ virtual bool match</text>
<text text-anchor="start" x="430" y="-540" font-family="Helvetica,sans-Serif" font-size="10.00">(T const &amp;arg) const=0</text>
</a>
</g>
</g>
<!-- Node4&#45;&gt;Node2 -->
<g id="edge3" class="edge">
<title>Node4&#45;&gt;Node2</title>
<path fill="none" stroke="midnightblue" d="M449.19,-524.26C438.21,-507.57 425.54,-488.78 413.5,-472 404.71,-459.76 395.05,-446.88 385.64,-434.64"/>
<polygon fill="none" stroke="midnightblue" points="446.36,-526.33 454.77,-532.78 452.22,-522.49 446.36,-526.33"/>
</g>
<!-- Node5 -->
<g id="node5" class="node">
<title>Node5</title>
<g id="a_node5"><a xlink:href="a00945.xhtml" target="_top" xlink:title=" ">
<polygon fill="white" stroke="black" points="409.5,-720.5 409.5,-810.5 549.5,-810.5 549.5,-720.5 409.5,-720.5"/>
<text text-anchor="start" x="417.5" y="-798.5" font-family="Helvetica,sans-Serif" font-size="10.00">Catch::Matchers::Impl</text>
<text text-anchor="middle" x="479.5" y="-787.5" font-family="Helvetica,sans-Serif" font-size="10.00">::MatcherMethod&lt; ObjectT &gt;</text>
<polyline fill="none" stroke="black" points="409.5,-780.5 549.5,-780.5 "/>
<text text-anchor="middle" x="479.5" y="-768.5" font-family="Helvetica,sans-Serif" font-size="10.00"> </text>
<polyline fill="none" stroke="black" points="409.5,-761.5 549.5,-761.5 "/>
<text text-anchor="start" x="417.5" y="-749.5" font-family="Helvetica,sans-Serif" font-size="10.00">+ virtual bool match</text>
<text text-anchor="start" x="417.5" y="-738.5" font-family="Helvetica,sans-Serif" font-size="10.00">(ObjectT const &amp;arg)</text>
<text text-anchor="start" x="417.5" y="-727.5" font-family="Helvetica,sans-Serif" font-size="10.00"> const =0</text>
</a>
</g>
</g>
<!-- Node5&#45;&gt;Node4 -->
<g id="edge4" class="edge">
<title>Node5&#45;&gt;Node4</title>
<path fill="none" stroke="orange" d="M479.5,-709.9C479.5,-678.64 479.5,-640.17 479.5,-612.07"/>
<polygon fill="orange" stroke="orange" points="476,-710.2 479.5,-720.2 483,-710.2 476,-710.2"/>
<text text-anchor="middle" x="492" y="-694" font-family="Helvetica,sans-Serif" font-size="10.00"> &lt; T &gt;</text>
</g>
</g>
</svg>
