<?xml version="1.0" encoding="UTF-8" standalone="no"?>
<!DOCTYPE svg PUBLIC "-//W3C//DTD SVG 1.1//EN"
 "http://www.w3.org/Graphics/SVG/1.1/DTD/svg11.dtd">
<!-- Generated by graphviz version 4.0.0 (20220602.1335)
 -->
<!-- Title: Catch::Matchers::Impl::MatchAnyOf&lt; ArgT &gt; Pages: 1 -->
<!--zoomable 963 -->
<svg id="main" version="1.1" xmlns="http://www.w3.org/2000/svg" xmlns:xlink="http://www.w3.org/1999/xlink" xml:space="preserve" onload="init(evt)">
<style type="text/css"><![CDATA[
.edge:hover path { stroke: red; }
.edge:hover polygon { stroke: red; fill: red; }
]]></style>
<script type="text/javascript"><![CDATA[
var edges = document.getElementsByTagName('g');
if (edges && edges.length) {
  for (var i=0;i<edges.length;i++) {
    if (edges[i].id.substr(0,4)=='edge') {
      edges[i].setAttribute('class','edge');
    }
  }
}
]]></script>
        <defs>
                <circle id="rim" cx="0" cy="0" r="7"/>
                <circle id="rim2" cx="0" cy="0" r="3.5"/>
                <g id="zoomPlus">
                        <use xlink:href="#rim" fill="#404040">
                                <set attributeName="fill" to="#808080" begin="zoomplus.mouseover" end="zoomplus.mouseout"/>
                        </use>
                        <path d="M-4,0h8M0,-4v8" fill="none" stroke="white" stroke-width="1.5" pointer-events="none"/>
                </g>
                <g id="zoomMin">
                        <use xlink:href="#rim" fill="#404040">
                                <set attributeName="fill" to="#808080" begin="zoomminus.mouseover" end="zoomminus.mouseout"/>
                        </use>
                        <path d="M-4,0h8" fill="none" stroke="white" stroke-width="1.5" pointer-events="none"/>
                </g>
                <g id="dirArrow">
                        <path fill="none" stroke="white" stroke-width="1.5" d="M0,-3.0v7 M-2.5,-0.5L0,-3.0L2.5,-0.5"/>
                </g>
               <g id="resetDef">
                       <use xlink:href="#rim2" fill="#404040">
                               <set attributeName="fill" to="#808080" begin="reset.mouseover" end="reset.mouseout"/>
                       </use>
               </g>
        </defs>

<script type="text/javascript">
var viewWidth = 391;
var viewHeight = 963;
var sectionId = 'dynsection-1';
</script>
<script xlink:href="svgpan.js"/>
<svg id="graph" class="graph">
<g id="viewport">
<title>Catch::Matchers::Impl::MatchAnyOf&lt; ArgT &gt;</title>
<polygon fill="white" stroke="transparent" points="-4,4 -4,-959 386.5,-959 386.5,4 -4,4"/>
<!-- Node1 -->
<g id="node1" class="node">
<title>Node1</title>
<g id="a_node1"><a xlink:title=" ">
<polygon fill="#bfbfbf" stroke="black" points="69.5,-0.5 69.5,-145.5 220.5,-145.5 220.5,-0.5 69.5,-0.5"/>
<text text-anchor="start" x="77.5" y="-133.5" font-family="Helvetica,sans-Serif" font-size="10.00">Catch::Matchers::Impl</text>
<text text-anchor="middle" x="145" y="-122.5" font-family="Helvetica,sans-Serif" font-size="10.00">::MatchAnyOf&lt; ArgT &gt;</text>
<polyline fill="none" stroke="black" points="69.5,-115.5 220.5,-115.5 "/>
<text text-anchor="start" x="77.5" y="-103.5" font-family="Helvetica,sans-Serif" font-size="10.00">+ std::vector&lt; MatcherBase</text>
<text text-anchor="start" x="77.5" y="-92.5" font-family="Helvetica,sans-Serif" font-size="10.00">&lt; ArgT &gt; const * &gt; m_matchers</text>
<polyline fill="none" stroke="black" points="69.5,-85.5 220.5,-85.5 "/>
<text text-anchor="start" x="77.5" y="-73.5" font-family="Helvetica,sans-Serif" font-size="10.00">+ bool match(ArgT const</text>
<text text-anchor="start" x="77.5" y="-62.5" font-family="Helvetica,sans-Serif" font-size="10.00"> &amp;arg) const override</text>
<text text-anchor="start" x="77.5" y="-51.5" font-family="Helvetica,sans-Serif" font-size="10.00">+ std::string describe</text>
<text text-anchor="start" x="77.5" y="-40.5" font-family="Helvetica,sans-Serif" font-size="10.00">() const override</text>
<text text-anchor="start" x="77.5" y="-29.5" font-family="Helvetica,sans-Serif" font-size="10.00">+ MatchAnyOf&lt; ArgT &gt;</text>
<text text-anchor="start" x="77.5" y="-18.5" font-family="Helvetica,sans-Serif" font-size="10.00"> operator||(MatcherBase</text>
<text text-anchor="start" x="77.5" y="-7.5" font-family="Helvetica,sans-Serif" font-size="10.00">&lt; ArgT &gt; const &amp;other)</text>
</a>
</g>
</g>
<!-- Node2 -->
<g id="node2" class="node">
<title>Node2</title>
<g id="a_node2"><a xlink:href="a00983.xhtml" target="_top" xlink:title=" ">
<polygon fill="white" stroke="black" points="81,-183.5 81,-328.5 209,-328.5 209,-183.5 81,-183.5"/>
<text text-anchor="start" x="89" y="-316.5" font-family="Helvetica,sans-Serif" font-size="10.00">Catch::Matchers::Impl</text>
<text text-anchor="middle" x="145" y="-305.5" font-family="Helvetica,sans-Serif" font-size="10.00">::MatcherBase&lt; ArgT &gt;</text>
<polyline fill="none" stroke="black" points="81,-298.5 209,-298.5 "/>
<text text-anchor="middle" x="145" y="-286.5" font-family="Helvetica,sans-Serif" font-size="10.00"> </text>
<polyline fill="none" stroke="black" points="81,-279.5 209,-279.5 "/>
<text text-anchor="start" x="89" y="-267.5" font-family="Helvetica,sans-Serif" font-size="10.00">+ MatchAllOf&lt; ArgT &gt;</text>
<text text-anchor="start" x="89" y="-256.5" font-family="Helvetica,sans-Serif" font-size="10.00"> operator&amp;&amp;(MatcherBase</text>
<text text-anchor="start" x="89" y="-245.5" font-family="Helvetica,sans-Serif" font-size="10.00"> const &amp;other) const</text>
<text text-anchor="start" x="89" y="-234.5" font-family="Helvetica,sans-Serif" font-size="10.00">+ MatchAnyOf&lt; ArgT &gt;</text>
<text text-anchor="start" x="89" y="-223.5" font-family="Helvetica,sans-Serif" font-size="10.00"> operator||(MatcherBase</text>
<text text-anchor="start" x="89" y="-212.5" font-family="Helvetica,sans-Serif" font-size="10.00"> const &amp;other) const</text>
<text text-anchor="start" x="89" y="-201.5" font-family="Helvetica,sans-Serif" font-size="10.00">+ MatchNotOf&lt; ArgT &gt;</text>
<text text-anchor="start" x="89" y="-190.5" font-family="Helvetica,sans-Serif" font-size="10.00"> operator!() const</text>
</a>
</g>
</g>
<!-- Node2&#45;&gt;Node1 -->
<g id="edge1" class="edge">
<title>Node2&#45;&gt;Node1</title>
<path fill="none" stroke="midnightblue" d="M145,-173.46C145,-164.17 145,-154.75 145,-145.61"/>
<polygon fill="none" stroke="midnightblue" points="141.5,-173.46 145,-183.46 148.5,-173.46 141.5,-173.46"/>
</g>
<!-- Node3 -->
<g id="node3" class="node">
<title>Node3</title>
<g id="a_node3"><a xlink:href="a00975.xhtml" target="_top" xlink:title=" ">
<polygon fill="white" stroke="black" points="92,-616.5 92,-816.5 250,-816.5 250,-616.5 92,-616.5"/>
<text text-anchor="start" x="100" y="-804.5" font-family="Helvetica,sans-Serif" font-size="10.00">Catch::Matchers::Impl</text>
<text text-anchor="middle" x="171" y="-793.5" font-family="Helvetica,sans-Serif" font-size="10.00">::MatcherUntypedBase</text>
<polyline fill="none" stroke="black" points="92,-786.5 250,-786.5 "/>
<text text-anchor="start" x="100" y="-774.5" font-family="Helvetica,sans-Serif" font-size="10.00"># std::string m_cachedToString</text>
<polyline fill="none" stroke="black" points="92,-767.5 250,-767.5 "/>
<text text-anchor="start" x="100" y="-755.5" font-family="Helvetica,sans-Serif" font-size="10.00">+ MatcherUntypedBase</text>
<text text-anchor="start" x="100" y="-744.5" font-family="Helvetica,sans-Serif" font-size="10.00">()=default</text>
<text text-anchor="start" x="100" y="-733.5" font-family="Helvetica,sans-Serif" font-size="10.00">+ MatcherUntypedBase</text>
<text text-anchor="start" x="100" y="-722.5" font-family="Helvetica,sans-Serif" font-size="10.00">(MatcherUntypedBase</text>
<text text-anchor="start" x="100" y="-711.5" font-family="Helvetica,sans-Serif" font-size="10.00"> const &amp;)=default</text>
<text text-anchor="start" x="100" y="-700.5" font-family="Helvetica,sans-Serif" font-size="10.00">+ MatcherUntypedBase</text>
<text text-anchor="start" x="100" y="-689.5" font-family="Helvetica,sans-Serif" font-size="10.00"> &amp; operator=(MatcherUntyped</text>
<text text-anchor="start" x="100" y="-678.5" font-family="Helvetica,sans-Serif" font-size="10.00">Base const &amp;)=delete</text>
<text text-anchor="start" x="100" y="-667.5" font-family="Helvetica,sans-Serif" font-size="10.00">+ std::string toString</text>
<text text-anchor="start" x="100" y="-656.5" font-family="Helvetica,sans-Serif" font-size="10.00">() const</text>
<text text-anchor="start" x="100" y="-645.5" font-family="Helvetica,sans-Serif" font-size="10.00"># virtual ~MatcherUntypedBase()</text>
<text text-anchor="start" x="100" y="-634.5" font-family="Helvetica,sans-Serif" font-size="10.00"># virtual std::string</text>
<text text-anchor="start" x="100" y="-623.5" font-family="Helvetica,sans-Serif" font-size="10.00"> describe() const =0</text>
</a>
</g>
</g>
<!-- Node3&#45;&gt;Node2 -->
<g id="edge2" class="edge">
<title>Node3&#45;&gt;Node2</title>
<path fill="none" stroke="midnightblue" d="M164.8,-606.24C159.93,-520.31 153.28,-403.07 149.07,-328.69"/>
<polygon fill="none" stroke="midnightblue" points="161.31,-606.51 165.37,-616.29 168.3,-606.11 161.31,-606.51"/>
</g>
<!-- Node6 -->
<g id="node6" class="node">
<title>Node6</title>
<g id="a_node6"><a xlink:href="a00983.xhtml" target="_top" xlink:title=" ">
<polygon fill="white" stroke="black" points="173,-376.5 173,-499.5 339,-499.5 339,-376.5 173,-376.5"/>
<text text-anchor="start" x="181" y="-487.5" font-family="Helvetica,sans-Serif" font-size="10.00">Catch::Matchers::Impl</text>
<text text-anchor="middle" x="256" y="-476.5" font-family="Helvetica,sans-Serif" font-size="10.00">::MatcherBase&lt; T &gt;</text>
<polyline fill="none" stroke="black" points="173,-469.5 339,-469.5 "/>
<text text-anchor="middle" x="256" y="-457.5" font-family="Helvetica,sans-Serif" font-size="10.00"> </text>
<polyline fill="none" stroke="black" points="173,-450.5 339,-450.5 "/>
<text text-anchor="start" x="181" y="-438.5" font-family="Helvetica,sans-Serif" font-size="10.00">+ MatchAllOf&lt; T &gt; operator&amp;&amp;</text>
<text text-anchor="start" x="181" y="-427.5" font-family="Helvetica,sans-Serif" font-size="10.00">(MatcherBase const &amp;other) const</text>
<text text-anchor="start" x="181" y="-416.5" font-family="Helvetica,sans-Serif" font-size="10.00">+ MatchAnyOf&lt; T &gt; operator|</text>
<text text-anchor="start" x="181" y="-405.5" font-family="Helvetica,sans-Serif" font-size="10.00">|(MatcherBase const &amp;other) const</text>
<text text-anchor="start" x="181" y="-394.5" font-family="Helvetica,sans-Serif" font-size="10.00">+ MatchNotOf&lt; T &gt; operator!</text>
<text text-anchor="start" x="181" y="-383.5" font-family="Helvetica,sans-Serif" font-size="10.00">() const</text>
</a>
</g>
</g>
<!-- Node3&#45;&gt;Node6 -->
<g id="edge6" class="edge">
<title>Node3&#45;&gt;Node6</title>
<path fill="none" stroke="midnightblue" d="M204.43,-606.76C215.63,-570.32 227.72,-531 237.37,-499.6"/>
<polygon fill="none" stroke="midnightblue" points="201.04,-605.87 201.45,-616.46 207.73,-607.93 201.04,-605.87"/>
</g>
<!-- Node4 -->
<g id="node4" class="node">
<title>Node4</title>
<g id="a_node4"><a xlink:href="a00979.xhtml" target="_top" xlink:title=" ">
<polygon fill="white" stroke="black" points="0,-518.5 0,-597.5 130,-597.5 130,-518.5 0,-518.5"/>
<text text-anchor="start" x="8" y="-585.5" font-family="Helvetica,sans-Serif" font-size="10.00">Catch::Matchers::Impl</text>
<text text-anchor="middle" x="65" y="-574.5" font-family="Helvetica,sans-Serif" font-size="10.00">::MatcherMethod&lt; ArgT &gt;</text>
<polyline fill="none" stroke="black" points="0,-567.5 130,-567.5 "/>
<text text-anchor="middle" x="65" y="-555.5" font-family="Helvetica,sans-Serif" font-size="10.00"> </text>
<polyline fill="none" stroke="black" points="0,-548.5 130,-548.5 "/>
<text text-anchor="start" x="8" y="-536.5" font-family="Helvetica,sans-Serif" font-size="10.00">+ virtual bool match</text>
<text text-anchor="start" x="8" y="-525.5" font-family="Helvetica,sans-Serif" font-size="10.00">(ArgT const &amp;arg) const=0</text>
</a>
</g>
</g>
<!-- Node4&#45;&gt;Node2 -->
<g id="edge3" class="edge">
<title>Node4&#45;&gt;Node2</title>
<path fill="none" stroke="midnightblue" d="M77.95,-508.43C90.93,-459.77 111.05,-384.29 125.87,-328.73"/>
<polygon fill="none" stroke="midnightblue" points="74.49,-507.83 75.29,-518.39 81.25,-509.63 74.49,-507.83"/>
</g>
<!-- Node5 -->
<g id="node5" class="node">
<title>Node5</title>
<g id="a_node5"><a xlink:href="a00979.xhtml" target="_top" xlink:title=" ">
<polygon fill="white" stroke="black" points="25,-864.5 25,-954.5 165,-954.5 165,-864.5 25,-864.5"/>
<text text-anchor="start" x="33" y="-942.5" font-family="Helvetica,sans-Serif" font-size="10.00">Catch::Matchers::Impl</text>
<text text-anchor="middle" x="95" y="-931.5" font-family="Helvetica,sans-Serif" font-size="10.00">::MatcherMethod&lt; ObjectT &gt;</text>
<polyline fill="none" stroke="black" points="25,-924.5 165,-924.5 "/>
<text text-anchor="middle" x="95" y="-912.5" font-family="Helvetica,sans-Serif" font-size="10.00"> </text>
<polyline fill="none" stroke="black" points="25,-905.5 165,-905.5 "/>
<text text-anchor="start" x="33" y="-893.5" font-family="Helvetica,sans-Serif" font-size="10.00">+ virtual bool match</text>
<text text-anchor="start" x="33" y="-882.5" font-family="Helvetica,sans-Serif" font-size="10.00">(ObjectT const &amp;arg)</text>
<text text-anchor="start" x="33" y="-871.5" font-family="Helvetica,sans-Serif" font-size="10.00"> const =0</text>
</a>
</g>
</g>
<!-- Node5&#45;&gt;Node4 -->
<g id="edge4" class="edge">
<title>Node5&#45;&gt;Node4</title>
<path fill="none" stroke="orange" d="M87.33,-854.27C85.76,-842.03 84.21,-829.08 83,-817 75.2,-739.26 69.69,-648.01 66.96,-597.53"/>
<polygon fill="orange" stroke="orange" points="83.89,-854.89 88.66,-864.35 90.83,-853.98 83.89,-854.89"/>
<text text-anchor="middle" x="107" y="-838" font-family="Helvetica,sans-Serif" font-size="10.00"> &lt; ArgT &gt;</text>
</g>
<!-- Node7 -->
<g id="node7" class="node">
<title>Node7</title>
<g id="a_node7"><a xlink:href="a00979.xhtml" target="_top" xlink:title=" ">
<polygon fill="white" stroke="black" points="267.5,-677 267.5,-756 382.5,-756 382.5,-677 267.5,-677"/>
<text text-anchor="start" x="275.5" y="-744" font-family="Helvetica,sans-Serif" font-size="10.00">Catch::Matchers::Impl</text>
<text text-anchor="middle" x="325" y="-733" font-family="Helvetica,sans-Serif" font-size="10.00">::MatcherMethod&lt; T &gt;</text>
<polyline fill="none" stroke="black" points="267.5,-726 382.5,-726 "/>
<text text-anchor="middle" x="325" y="-714" font-family="Helvetica,sans-Serif" font-size="10.00"> </text>
<polyline fill="none" stroke="black" points="267.5,-707 382.5,-707 "/>
<text text-anchor="start" x="275.5" y="-695" font-family="Helvetica,sans-Serif" font-size="10.00">+ virtual bool match</text>
<text text-anchor="start" x="275.5" y="-684" font-family="Helvetica,sans-Serif" font-size="10.00">(T const &amp;arg) const=0</text>
</a>
</g>
</g>
<!-- Node5&#45;&gt;Node7 -->
<g id="edge8" class="edge">
<title>Node5&#45;&gt;Node7</title>
<path fill="none" stroke="orange" d="M174.43,-873.91C203.08,-859.04 234.39,-839.79 259,-817 277.71,-799.68 293.67,-776.03 305.22,-756.14"/>
<polygon fill="orange" stroke="orange" points="172.56,-870.93 165.23,-878.58 175.73,-877.17 172.56,-870.93"/>
<text text-anchor="middle" x="247.5" y="-838" font-family="Helvetica,sans-Serif" font-size="10.00"> &lt; T &gt;</text>
</g>
<!-- Node6&#45;&gt;Node2 -->
<g id="edge5" class="edge">
<title>Node6&#45;&gt;Node2</title>
<path fill="none" stroke="orange" d="M213.19,-367.58C205.32,-354.81 197.08,-341.46 189.17,-328.63"/>
<polygon fill="orange" stroke="orange" points="210.35,-369.64 218.58,-376.31 216.31,-365.96 210.35,-369.64"/>
<text text-anchor="middle" x="227" y="-350" font-family="Helvetica,sans-Serif" font-size="10.00"> &lt; ArgT &gt;</text>
</g>
<!-- Node7&#45;&gt;Node6 -->
<g id="edge7" class="edge">
<title>Node7&#45;&gt;Node6</title>
<path fill="none" stroke="midnightblue" d="M312.87,-666.91C301.25,-620.31 283.65,-549.81 271.12,-499.57"/>
<polygon fill="none" stroke="midnightblue" points="309.52,-667.91 315.33,-676.76 316.31,-666.21 309.52,-667.91"/>
</g>
</g>
</svg>
        <g id="navigator" transform="translate(0 0)" fill="#404254">
                <rect fill="#f2f5e9" fill-opacity="0.5" stroke="#606060" stroke-width=".5" x="0" y="0" width="60" height="60"/>
                <use id="zoomplus" xlink:href="#zoomPlus" x="17" y="9" onmousedown="handleZoom(evt,'in')"/>
                <use id="zoomminus" xlink:href="#zoomMin" x="42" y="9" onmousedown="handleZoom(evt,'out')"/>
                <use id="reset" xlink:href="#resetDef" x="30" y="36" onmousedown="handleReset()"/>
                <g id="arrowUp" xlink:href="#dirArrow" transform="translate(30 24)" onmousedown="handlePan(0,-1)">
                  <use xlink:href="#rim" fill="#404040">
                        <set attributeName="fill" to="#808080" begin="arrowUp.mouseover" end="arrowUp.mouseout"/>
                  </use>
                  <path fill="none" stroke="white" stroke-width="1.5" d="M0,-3.0v7 M-2.5,-0.5L0,-3.0L2.5,-0.5"/>
                </g>
                <g id="arrowRight" xlink:href="#dirArrow" transform="rotate(90) translate(36 -43)" onmousedown="handlePan(1,0)">
                  <use xlink:href="#rim" fill="#404040">
                        <set attributeName="fill" to="#808080" begin="arrowRight.mouseover" end="arrowRight.mouseout"/>
                  </use>
                  <path fill="none" stroke="white" stroke-width="1.5" d="M0,-3.0v7 M-2.5,-0.5L0,-3.0L2.5,-0.5"/>
                </g>
                <g id="arrowDown" xlink:href="#dirArrow" transform="rotate(180) translate(-30 -48)" onmousedown="handlePan(0,1)">
                  <use xlink:href="#rim" fill="#404040">
                        <set attributeName="fill" to="#808080" begin="arrowDown.mouseover" end="arrowDown.mouseout"/>
                  </use>
                  <path fill="none" stroke="white" stroke-width="1.5" d="M0,-3.0v7 M-2.5,-0.5L0,-3.0L2.5,-0.5"/>
                </g>
                <g id="arrowLeft" xlink:href="#dirArrow" transform="rotate(270) translate(-36 17)" onmousedown="handlePan(-1,0)">
                  <use xlink:href="#rim" fill="#404040">
                        <set attributeName="fill" to="#808080" begin="arrowLeft.mouseover" end="arrowLeft.mouseout"/>
                  </use>
                  <path fill="none" stroke="white" stroke-width="1.5" d="M0,-3.0v7 M-2.5,-0.5L0,-3.0L2.5,-0.5"/>
                </g>
        </g>
        <svg viewBox="0 0 15 15" width="100%" height="30px" preserveAspectRatio="xMaxYMin meet">
         <g id="arrow_out" transform="scale(0.3 0.3)">
          <a xlink:href="a00965_org.svg" target="_base">
           <rect id="button" ry="5" rx="5" y="6" x="6" height="38" width="38"
                fill="#f2f5e9" fill-opacity="0.5" stroke="#606060" stroke-width="1.0"/>
           <path id="arrow"
             d="M 11.500037,31.436501 C 11.940474,20.09759 22.043105,11.32322 32.158766,21.979434 L 37.068811,17.246167 C 37.068811,17.246167 37.088388,32 37.088388,32 L 22.160133,31.978069 C 22.160133,31.978069 26.997745,27.140456 26.997745,27.140456 C 18.528582,18.264221 13.291696,25.230495 11.500037,31.436501 z"
             style="fill:#404040;"/>
          </a>
         </g>
        </svg>
</svg>
