<?xml version="1.0" encoding="UTF-8" standalone="no"?>
<!DOCTYPE svg PUBLIC "-//W3C//DTD SVG 1.1//EN"
 "http://www.w3.org/Graphics/SVG/1.1/DTD/svg11.dtd">
<!-- Generated by graphviz version 4.0.0 (20220602.1335)
 -->
<!-- Title: Catch::Matchers::Impl::MatchNotOf&lt; ArgT &gt; Pages: 1 -->
<svg width="391pt" height="951pt"
 viewBox="0.00 0.00 390.50 951.00" xmlns="http://www.w3.org/2000/svg" xmlns:xlink="http://www.w3.org/1999/xlink">
<g id="graph0" class="graph" transform="scale(1 1) rotate(0) translate(4 947)">
<title>Catch::Matchers::Impl::MatchNotOf&lt; ArgT &gt;</title>
<polygon fill="white" stroke="transparent" points="-4,4 -4,-947 386.5,-947 386.5,4 -4,4"/>
<!-- Node1 -->
<g id="node1" class="node">
<title>Node1</title>
<g id="a_node1"><a xlink:title=" ">
<polygon fill="#bfbfbf" stroke="black" points="59.5,-0.5 59.5,-123.5 230.5,-123.5 230.5,-0.5 59.5,-0.5"/>
<text text-anchor="start" x="67.5" y="-111.5" font-family="Helvetica,sans-Serif" font-size="10.00">Catch::Matchers::Impl</text>
<text text-anchor="middle" x="145" y="-100.5" font-family="Helvetica,sans-Serif" font-size="10.00">::MatchNotOf&lt; ArgT &gt;</text>
<polyline fill="none" stroke="black" points="59.5,-93.5 230.5,-93.5 "/>
<text text-anchor="middle" x="145" y="-81.5" font-family="Helvetica,sans-Serif" font-size="10.00"> </text>
<polyline fill="none" stroke="black" points="59.5,-74.5 230.5,-74.5 "/>
<text text-anchor="start" x="67.5" y="-62.5" font-family="Helvetica,sans-Serif" font-size="10.00">+ MatchNotOf(MatcherBase</text>
<text text-anchor="start" x="67.5" y="-51.5" font-family="Helvetica,sans-Serif" font-size="10.00">&lt; ArgT &gt; const &amp;underlyingMatcher)</text>
<text text-anchor="start" x="67.5" y="-40.5" font-family="Helvetica,sans-Serif" font-size="10.00">+ bool match(ArgT const</text>
<text text-anchor="start" x="67.5" y="-29.5" font-family="Helvetica,sans-Serif" font-size="10.00"> &amp;arg) const override</text>
<text text-anchor="start" x="67.5" y="-18.5" font-family="Helvetica,sans-Serif" font-size="10.00">+ std::string describe</text>
<text text-anchor="start" x="67.5" y="-7.5" font-family="Helvetica,sans-Serif" font-size="10.00">() const override</text>
</a>
</g>
</g>
<!-- Node2 -->
<g id="node2" class="node">
<title>Node2</title>
<g id="a_node2"><a xlink:href="a01006.xhtml" target="_top" xlink:title=" ">
<polygon fill="white" stroke="black" points="81,-171.5 81,-316.5 209,-316.5 209,-171.5 81,-171.5"/>
<text text-anchor="start" x="89" y="-304.5" font-family="Helvetica,sans-Serif" font-size="10.00">Catch::Matchers::Impl</text>
<text text-anchor="middle" x="145" y="-293.5" font-family="Helvetica,sans-Serif" font-size="10.00">::MatcherBase&lt; ArgT &gt;</text>
<polyline fill="none" stroke="black" points="81,-286.5 209,-286.5 "/>
<text text-anchor="middle" x="145" y="-274.5" font-family="Helvetica,sans-Serif" font-size="10.00"> </text>
<polyline fill="none" stroke="black" points="81,-267.5 209,-267.5 "/>
<text text-anchor="start" x="89" y="-255.5" font-family="Helvetica,sans-Serif" font-size="10.00">+ MatchAllOf&lt; ArgT &gt;</text>
<text text-anchor="start" x="89" y="-244.5" font-family="Helvetica,sans-Serif" font-size="10.00"> operator&amp;&amp;(MatcherBase</text>
<text text-anchor="start" x="89" y="-233.5" font-family="Helvetica,sans-Serif" font-size="10.00"> const &amp;other) const</text>
<text text-anchor="start" x="89" y="-222.5" font-family="Helvetica,sans-Serif" font-size="10.00">+ MatchAnyOf&lt; ArgT &gt;</text>
<text text-anchor="start" x="89" y="-211.5" font-family="Helvetica,sans-Serif" font-size="10.00"> operator||(MatcherBase</text>
<text text-anchor="start" x="89" y="-200.5" font-family="Helvetica,sans-Serif" font-size="10.00"> const &amp;other) const</text>
<text text-anchor="start" x="89" y="-189.5" font-family="Helvetica,sans-Serif" font-size="10.00">+ MatchNotOf&lt; ArgT &gt;</text>
<text text-anchor="start" x="89" y="-178.5" font-family="Helvetica,sans-Serif" font-size="10.00"> operator!() const</text>
</a>
</g>
</g>
<!-- Node2&#45;&gt;Node1 -->
<g id="edge1" class="edge">
<title>Node2&#45;&gt;Node1</title>
<path fill="none" stroke="midnightblue" d="M142.93,-161.11C142.9,-154.64 142.92,-148.21 143,-142 143.07,-136.1 143.18,-129.95 143.31,-123.81"/>
<polygon fill="none" stroke="midnightblue" points="139.43,-161.3 143.01,-171.27 146.43,-161.25 139.43,-161.3"/>
</g>
<!-- Node2&#45;&gt;Node1 -->
<g id="edge9" class="edge">
<title>Node2&#45;&gt;Node1</title>
<path fill="none" stroke="#404040" d="M145,-171.34C145,-159.63 145,-147.48 145,-135.74"/>
<polygon fill="none" stroke="#404040" points="145,-135.69 141,-129.69 145,-123.69 149,-129.69 145,-135.69"/>
<text text-anchor="middle" x="195.5" y="-145" font-family="Helvetica,sans-Serif" font-size="10.00"> +m_underlyingMatcher</text>
</g>
<!-- Node3 -->
<g id="node3" class="node">
<title>Node3</title>
<g id="a_node3"><a xlink:href="a00998.xhtml" target="_top" xlink:title=" ">
<polygon fill="white" stroke="black" points="92,-604.5 92,-804.5 250,-804.5 250,-604.5 92,-604.5"/>
<text text-anchor="start" x="100" y="-792.5" font-family="Helvetica,sans-Serif" font-size="10.00">Catch::Matchers::Impl</text>
<text text-anchor="middle" x="171" y="-781.5" font-family="Helvetica,sans-Serif" font-size="10.00">::MatcherUntypedBase</text>
<polyline fill="none" stroke="black" points="92,-774.5 250,-774.5 "/>
<text text-anchor="start" x="100" y="-762.5" font-family="Helvetica,sans-Serif" font-size="10.00"># std::string m_cachedToString</text>
<polyline fill="none" stroke="black" points="92,-755.5 250,-755.5 "/>
<text text-anchor="start" x="100" y="-743.5" font-family="Helvetica,sans-Serif" font-size="10.00">+ MatcherUntypedBase</text>
<text text-anchor="start" x="100" y="-732.5" font-family="Helvetica,sans-Serif" font-size="10.00">()=default</text>
<text text-anchor="start" x="100" y="-721.5" font-family="Helvetica,sans-Serif" font-size="10.00">+ MatcherUntypedBase</text>
<text text-anchor="start" x="100" y="-710.5" font-family="Helvetica,sans-Serif" font-size="10.00">(MatcherUntypedBase</text>
<text text-anchor="start" x="100" y="-699.5" font-family="Helvetica,sans-Serif" font-size="10.00"> const &amp;)=default</text>
<text text-anchor="start" x="100" y="-688.5" font-family="Helvetica,sans-Serif" font-size="10.00">+ MatcherUntypedBase</text>
<text text-anchor="start" x="100" y="-677.5" font-family="Helvetica,sans-Serif" font-size="10.00"> &amp; operator=(MatcherUntyped</text>
<text text-anchor="start" x="100" y="-666.5" font-family="Helvetica,sans-Serif" font-size="10.00">Base const &amp;)=delete</text>
<text text-anchor="start" x="100" y="-655.5" font-family="Helvetica,sans-Serif" font-size="10.00">+ std::string toString</text>
<text text-anchor="start" x="100" y="-644.5" font-family="Helvetica,sans-Serif" font-size="10.00">() const</text>
<text text-anchor="start" x="100" y="-633.5" font-family="Helvetica,sans-Serif" font-size="10.00"># virtual ~MatcherUntypedBase()</text>
<text text-anchor="start" x="100" y="-622.5" font-family="Helvetica,sans-Serif" font-size="10.00"># virtual std::string</text>
<text text-anchor="start" x="100" y="-611.5" font-family="Helvetica,sans-Serif" font-size="10.00"> describe() const =0</text>
</a>
</g>
</g>
<!-- Node3&#45;&gt;Node2 -->
<g id="edge2" class="edge">
<title>Node3&#45;&gt;Node2</title>
<path fill="none" stroke="midnightblue" d="M164.8,-594.24C159.93,-508.31 153.28,-391.07 149.07,-316.69"/>
<polygon fill="none" stroke="midnightblue" points="161.31,-594.51 165.37,-604.29 168.3,-594.11 161.31,-594.51"/>
</g>
<!-- Node6 -->
<g id="node6" class="node">
<title>Node6</title>
<g id="a_node6"><a xlink:href="a01006.xhtml" target="_top" xlink:title=" ">
<polygon fill="white" stroke="black" points="173,-364.5 173,-487.5 339,-487.5 339,-364.5 173,-364.5"/>
<text text-anchor="start" x="181" y="-475.5" font-family="Helvetica,sans-Serif" font-size="10.00">Catch::Matchers::Impl</text>
<text text-anchor="middle" x="256" y="-464.5" font-family="Helvetica,sans-Serif" font-size="10.00">::MatcherBase&lt; T &gt;</text>
<polyline fill="none" stroke="black" points="173,-457.5 339,-457.5 "/>
<text text-anchor="middle" x="256" y="-445.5" font-family="Helvetica,sans-Serif" font-size="10.00"> </text>
<polyline fill="none" stroke="black" points="173,-438.5 339,-438.5 "/>
<text text-anchor="start" x="181" y="-426.5" font-family="Helvetica,sans-Serif" font-size="10.00">+ MatchAllOf&lt; T &gt; operator&amp;&amp;</text>
<text text-anchor="start" x="181" y="-415.5" font-family="Helvetica,sans-Serif" font-size="10.00">(MatcherBase const &amp;other) const</text>
<text text-anchor="start" x="181" y="-404.5" font-family="Helvetica,sans-Serif" font-size="10.00">+ MatchAnyOf&lt; T &gt; operator|</text>
<text text-anchor="start" x="181" y="-393.5" font-family="Helvetica,sans-Serif" font-size="10.00">|(MatcherBase const &amp;other) const</text>
<text text-anchor="start" x="181" y="-382.5" font-family="Helvetica,sans-Serif" font-size="10.00">+ MatchNotOf&lt; T &gt; operator!</text>
<text text-anchor="start" x="181" y="-371.5" font-family="Helvetica,sans-Serif" font-size="10.00">() const</text>
</a>
</g>
</g>
<!-- Node3&#45;&gt;Node6 -->
<g id="edge6" class="edge">
<title>Node3&#45;&gt;Node6</title>
<path fill="none" stroke="midnightblue" d="M204.43,-594.76C215.63,-558.32 227.72,-519 237.37,-487.6"/>
<polygon fill="none" stroke="midnightblue" points="201.04,-593.87 201.45,-604.46 207.73,-595.93 201.04,-593.87"/>
</g>
<!-- Node4 -->
<g id="node4" class="node">
<title>Node4</title>
<g id="a_node4"><a xlink:href="a01002.xhtml" target="_top" xlink:title=" ">
<polygon fill="white" stroke="black" points="0,-506.5 0,-585.5 130,-585.5 130,-506.5 0,-506.5"/>
<text text-anchor="start" x="8" y="-573.5" font-family="Helvetica,sans-Serif" font-size="10.00">Catch::Matchers::Impl</text>
<text text-anchor="middle" x="65" y="-562.5" font-family="Helvetica,sans-Serif" font-size="10.00">::MatcherMethod&lt; ArgT &gt;</text>
<polyline fill="none" stroke="black" points="0,-555.5 130,-555.5 "/>
<text text-anchor="middle" x="65" y="-543.5" font-family="Helvetica,sans-Serif" font-size="10.00"> </text>
<polyline fill="none" stroke="black" points="0,-536.5 130,-536.5 "/>
<text text-anchor="start" x="8" y="-524.5" font-family="Helvetica,sans-Serif" font-size="10.00">+ virtual bool match</text>
<text text-anchor="start" x="8" y="-513.5" font-family="Helvetica,sans-Serif" font-size="10.00">(ArgT const &amp;arg) const=0</text>
</a>
</g>
</g>
<!-- Node4&#45;&gt;Node2 -->
<g id="edge3" class="edge">
<title>Node4&#45;&gt;Node2</title>
<path fill="none" stroke="midnightblue" d="M77.95,-496.43C90.93,-447.77 111.05,-372.29 125.87,-316.73"/>
<polygon fill="none" stroke="midnightblue" points="74.49,-495.83 75.29,-506.39 81.25,-497.63 74.49,-495.83"/>
</g>
<!-- Node5 -->
<g id="node5" class="node">
<title>Node5</title>
<g id="a_node5"><a xlink:href="a01002.xhtml" target="_top" xlink:title=" ">
<polygon fill="white" stroke="black" points="25,-852.5 25,-942.5 165,-942.5 165,-852.5 25,-852.5"/>
<text text-anchor="start" x="33" y="-930.5" font-family="Helvetica,sans-Serif" font-size="10.00">Catch::Matchers::Impl</text>
<text text-anchor="middle" x="95" y="-919.5" font-family="Helvetica,sans-Serif" font-size="10.00">::MatcherMethod&lt; ObjectT &gt;</text>
<polyline fill="none" stroke="black" points="25,-912.5 165,-912.5 "/>
<text text-anchor="middle" x="95" y="-900.5" font-family="Helvetica,sans-Serif" font-size="10.00"> </text>
<polyline fill="none" stroke="black" points="25,-893.5 165,-893.5 "/>
<text text-anchor="start" x="33" y="-881.5" font-family="Helvetica,sans-Serif" font-size="10.00">+ virtual bool match</text>
<text text-anchor="start" x="33" y="-870.5" font-family="Helvetica,sans-Serif" font-size="10.00">(ObjectT const &amp;arg)</text>
<text text-anchor="start" x="33" y="-859.5" font-family="Helvetica,sans-Serif" font-size="10.00"> const =0</text>
</a>
</g>
</g>
<!-- Node5&#45;&gt;Node4 -->
<g id="edge4" class="edge">
<title>Node5&#45;&gt;Node4</title>
<path fill="none" stroke="orange" d="M87.33,-842.27C85.76,-830.03 84.21,-817.08 83,-805 75.2,-727.26 69.69,-636.01 66.96,-585.53"/>
<polygon fill="orange" stroke="orange" points="83.89,-842.89 88.66,-852.35 90.83,-841.98 83.89,-842.89"/>
<text text-anchor="middle" x="107" y="-826" font-family="Helvetica,sans-Serif" font-size="10.00"> &lt; ArgT &gt;</text>
</g>
<!-- Node7 -->
<g id="node7" class="node">
<title>Node7</title>
<g id="a_node7"><a xlink:href="a01002.xhtml" target="_top" xlink:title=" ">
<polygon fill="white" stroke="black" points="267.5,-665 267.5,-744 382.5,-744 382.5,-665 267.5,-665"/>
<text text-anchor="start" x="275.5" y="-732" font-family="Helvetica,sans-Serif" font-size="10.00">Catch::Matchers::Impl</text>
<text text-anchor="middle" x="325" y="-721" font-family="Helvetica,sans-Serif" font-size="10.00">::MatcherMethod&lt; T &gt;</text>
<polyline fill="none" stroke="black" points="267.5,-714 382.5,-714 "/>
<text text-anchor="middle" x="325" y="-702" font-family="Helvetica,sans-Serif" font-size="10.00"> </text>
<polyline fill="none" stroke="black" points="267.5,-695 382.5,-695 "/>
<text text-anchor="start" x="275.5" y="-683" font-family="Helvetica,sans-Serif" font-size="10.00">+ virtual bool match</text>
<text text-anchor="start" x="275.5" y="-672" font-family="Helvetica,sans-Serif" font-size="10.00">(T const &amp;arg) const=0</text>
</a>
</g>
</g>
<!-- Node5&#45;&gt;Node7 -->
<g id="edge8" class="edge">
<title>Node5&#45;&gt;Node7</title>
<path fill="none" stroke="orange" d="M174.43,-861.91C203.08,-847.04 234.39,-827.79 259,-805 277.71,-787.68 293.67,-764.03 305.22,-744.14"/>
<polygon fill="orange" stroke="orange" points="172.56,-858.93 165.23,-866.58 175.73,-865.17 172.56,-858.93"/>
<text text-anchor="middle" x="247.5" y="-826" font-family="Helvetica,sans-Serif" font-size="10.00"> &lt; T &gt;</text>
</g>
<!-- Node6&#45;&gt;Node2 -->
<g id="edge5" class="edge">
<title>Node6&#45;&gt;Node2</title>
<path fill="none" stroke="orange" d="M213.19,-355.58C205.32,-342.81 197.08,-329.46 189.17,-316.63"/>
<polygon fill="orange" stroke="orange" points="210.35,-357.64 218.58,-364.31 216.31,-353.96 210.35,-357.64"/>
<text text-anchor="middle" x="227" y="-338" font-family="Helvetica,sans-Serif" font-size="10.00"> &lt; ArgT &gt;</text>
</g>
<!-- Node7&#45;&gt;Node6 -->
<g id="edge7" class="edge">
<title>Node7&#45;&gt;Node6</title>
<path fill="none" stroke="midnightblue" d="M312.87,-654.91C301.25,-608.31 283.65,-537.81 271.12,-487.57"/>
<polygon fill="none" stroke="midnightblue" points="309.52,-655.91 315.33,-664.76 316.31,-654.21 309.52,-655.91"/>
</g>
</g>
</svg>
