<?xml version="1.0" encoding="UTF-8" standalone="no"?>
<!DOCTYPE svg PUBLIC "-//W3C//DTD SVG 1.1//EN"
 "http://www.w3.org/Graphics/SVG/1.1/DTD/svg11.dtd">
<!-- Generated by graphviz version 4.0.0 (20220602.1335)
 -->
<!-- Title: Catch::Matchers::StdString::EndsWithMatcher Pages: 1 -->
<svg width="338pt" height="851pt"
 viewBox="0.00 0.00 337.50 851.00" xmlns="http://www.w3.org/2000/svg" xmlns:xlink="http://www.w3.org/1999/xlink">
<g id="graph0" class="graph" transform="scale(1 1) rotate(0) translate(4 847)">
<title>Catch::Matchers::StdString::EndsWithMatcher</title>
<polygon fill="white" stroke="transparent" points="-4,4 -4,-847 333.5,-847 333.5,4 -4,4"/>
<!-- Node1 -->
<g id="node1" class="node">
<title>Node1</title>
<g id="a_node1"><a xlink:title=" ">
<polygon fill="#bfbfbf" stroke="black" points="97,-0.5 97,-112.5 255,-112.5 255,-0.5 97,-0.5"/>
<text text-anchor="start" x="105" y="-100.5" font-family="Helvetica,sans-Serif" font-size="10.00">Catch::Matchers::StdString</text>
<text text-anchor="middle" x="176" y="-89.5" font-family="Helvetica,sans-Serif" font-size="10.00">::EndsWithMatcher</text>
<polyline fill="none" stroke="black" points="97,-82.5 255,-82.5 "/>
<text text-anchor="middle" x="176" y="-70.5" font-family="Helvetica,sans-Serif" font-size="10.00"> </text>
<polyline fill="none" stroke="black" points="97,-63.5 255,-63.5 "/>
<text text-anchor="start" x="105" y="-51.5" font-family="Helvetica,sans-Serif" font-size="10.00">+ EndsWithMatcher(CasedString</text>
<text text-anchor="start" x="105" y="-40.5" font-family="Helvetica,sans-Serif" font-size="10.00"> const &amp;comparator)</text>
<text text-anchor="start" x="105" y="-29.5" font-family="Helvetica,sans-Serif" font-size="10.00">+ bool match(std::string</text>
<text text-anchor="start" x="105" y="-18.5" font-family="Helvetica,sans-Serif" font-size="10.00"> const &amp;source) const</text>
<text text-anchor="start" x="105" y="-7.5" font-family="Helvetica,sans-Serif" font-size="10.00"> override</text>
</a>
</g>
</g>
<!-- Node2 -->
<g id="node2" class="node">
<title>Node2</title>
<g id="a_node2"><a xlink:href="a01034.xhtml" target="_top" xlink:title=" ">
<polygon fill="white" stroke="black" points="96.5,-150.5 96.5,-262.5 255.5,-262.5 255.5,-150.5 96.5,-150.5"/>
<text text-anchor="start" x="104.5" y="-250.5" font-family="Helvetica,sans-Serif" font-size="10.00">Catch::Matchers::StdString</text>
<text text-anchor="middle" x="176" y="-239.5" font-family="Helvetica,sans-Serif" font-size="10.00">::StringMatcherBase</text>
<polyline fill="none" stroke="black" points="96.5,-232.5 255.5,-232.5 "/>
<text text-anchor="start" x="104.5" y="-220.5" font-family="Helvetica,sans-Serif" font-size="10.00">+ std::string m_operation</text>
<polyline fill="none" stroke="black" points="96.5,-213.5 255.5,-213.5 "/>
<text text-anchor="start" x="104.5" y="-201.5" font-family="Helvetica,sans-Serif" font-size="10.00">+ StringMatcherBase</text>
<text text-anchor="start" x="104.5" y="-190.5" font-family="Helvetica,sans-Serif" font-size="10.00">(std::string const &amp;operation,</text>
<text text-anchor="start" x="104.5" y="-179.5" font-family="Helvetica,sans-Serif" font-size="10.00"> CasedString const &amp;comparator)</text>
<text text-anchor="start" x="104.5" y="-168.5" font-family="Helvetica,sans-Serif" font-size="10.00">+ std::string describe</text>
<text text-anchor="start" x="104.5" y="-157.5" font-family="Helvetica,sans-Serif" font-size="10.00">() const override</text>
</a>
</g>
</g>
<!-- Node2&#45;&gt;Node1 -->
<g id="edge1" class="edge">
<title>Node2&#45;&gt;Node1</title>
<path fill="none" stroke="midnightblue" d="M176,-140.14C176,-130.97 176,-121.61 176,-112.66"/>
<polygon fill="none" stroke="midnightblue" points="172.5,-140.39 176,-150.39 179.5,-140.39 172.5,-140.39"/>
</g>
<!-- Node3 -->
<g id="node3" class="node">
<title>Node3</title>
<g id="a_node3"><a xlink:href="a01006.xhtml" target="_top" xlink:title=" ">
<polygon fill="white" stroke="black" points="8,-327 8,-450 174,-450 174,-327 8,-327"/>
<text text-anchor="start" x="16" y="-438" font-family="Helvetica,sans-Serif" font-size="10.00">Catch::Matchers::Impl</text>
<text text-anchor="middle" x="91" y="-427" font-family="Helvetica,sans-Serif" font-size="10.00">::MatcherBase&lt; T &gt;</text>
<polyline fill="none" stroke="black" points="8,-420 174,-420 "/>
<text text-anchor="middle" x="91" y="-408" font-family="Helvetica,sans-Serif" font-size="10.00"> </text>
<polyline fill="none" stroke="black" points="8,-401 174,-401 "/>
<text text-anchor="start" x="16" y="-389" font-family="Helvetica,sans-Serif" font-size="10.00">+ MatchAllOf&lt; T &gt; operator&amp;&amp;</text>
<text text-anchor="start" x="16" y="-378" font-family="Helvetica,sans-Serif" font-size="10.00">(MatcherBase const &amp;other) const</text>
<text text-anchor="start" x="16" y="-367" font-family="Helvetica,sans-Serif" font-size="10.00">+ MatchAnyOf&lt; T &gt; operator|</text>
<text text-anchor="start" x="16" y="-356" font-family="Helvetica,sans-Serif" font-size="10.00">|(MatcherBase const &amp;other) const</text>
<text text-anchor="start" x="16" y="-345" font-family="Helvetica,sans-Serif" font-size="10.00">+ MatchNotOf&lt; T &gt; operator!</text>
<text text-anchor="start" x="16" y="-334" font-family="Helvetica,sans-Serif" font-size="10.00">() const</text>
</a>
</g>
</g>
<!-- Node3&#45;&gt;Node2 -->
<g id="edge2" class="edge">
<title>Node3&#45;&gt;Node2</title>
<path fill="none" stroke="midnightblue" d="M124.08,-317.45C132.64,-299.31 141.75,-280.04 149.9,-262.78"/>
<polygon fill="none" stroke="midnightblue" points="120.76,-316.27 119.66,-326.81 127.09,-319.26 120.76,-316.27"/>
</g>
<!-- Node4 -->
<g id="node4" class="node">
<title>Node4</title>
<g id="a_node4"><a xlink:href="a00998.xhtml" target="_top" xlink:title=" ">
<polygon fill="white" stroke="black" points="0,-504.5 0,-704.5 158,-704.5 158,-504.5 0,-504.5"/>
<text text-anchor="start" x="8" y="-692.5" font-family="Helvetica,sans-Serif" font-size="10.00">Catch::Matchers::Impl</text>
<text text-anchor="middle" x="79" y="-681.5" font-family="Helvetica,sans-Serif" font-size="10.00">::MatcherUntypedBase</text>
<polyline fill="none" stroke="black" points="0,-674.5 158,-674.5 "/>
<text text-anchor="start" x="8" y="-662.5" font-family="Helvetica,sans-Serif" font-size="10.00"># std::string m_cachedToString</text>
<polyline fill="none" stroke="black" points="0,-655.5 158,-655.5 "/>
<text text-anchor="start" x="8" y="-643.5" font-family="Helvetica,sans-Serif" font-size="10.00">+ MatcherUntypedBase</text>
<text text-anchor="start" x="8" y="-632.5" font-family="Helvetica,sans-Serif" font-size="10.00">()=default</text>
<text text-anchor="start" x="8" y="-621.5" font-family="Helvetica,sans-Serif" font-size="10.00">+ MatcherUntypedBase</text>
<text text-anchor="start" x="8" y="-610.5" font-family="Helvetica,sans-Serif" font-size="10.00">(MatcherUntypedBase</text>
<text text-anchor="start" x="8" y="-599.5" font-family="Helvetica,sans-Serif" font-size="10.00"> const &amp;)=default</text>
<text text-anchor="start" x="8" y="-588.5" font-family="Helvetica,sans-Serif" font-size="10.00">+ MatcherUntypedBase</text>
<text text-anchor="start" x="8" y="-577.5" font-family="Helvetica,sans-Serif" font-size="10.00"> &amp; operator=(MatcherUntyped</text>
<text text-anchor="start" x="8" y="-566.5" font-family="Helvetica,sans-Serif" font-size="10.00">Base const &amp;)=delete</text>
<text text-anchor="start" x="8" y="-555.5" font-family="Helvetica,sans-Serif" font-size="10.00">+ std::string toString</text>
<text text-anchor="start" x="8" y="-544.5" font-family="Helvetica,sans-Serif" font-size="10.00">() const</text>
<text text-anchor="start" x="8" y="-533.5" font-family="Helvetica,sans-Serif" font-size="10.00"># virtual ~MatcherUntypedBase()</text>
<text text-anchor="start" x="8" y="-522.5" font-family="Helvetica,sans-Serif" font-size="10.00"># virtual std::string</text>
<text text-anchor="start" x="8" y="-511.5" font-family="Helvetica,sans-Serif" font-size="10.00"> describe() const =0</text>
</a>
</g>
</g>
<!-- Node4&#45;&gt;Node3 -->
<g id="edge3" class="edge">
<title>Node4&#45;&gt;Node3</title>
<path fill="none" stroke="midnightblue" d="M85.14,-493.92C85.99,-478.87 86.83,-463.9 87.6,-450.18"/>
<polygon fill="none" stroke="midnightblue" points="81.63,-494.15 84.56,-504.33 88.62,-494.54 81.63,-494.15"/>
</g>
<!-- Node5 -->
<g id="node5" class="node">
<title>Node5</title>
<g id="a_node5"><a xlink:href="a01002.xhtml" target="_top" xlink:title=" ">
<polygon fill="white" stroke="black" points="175.5,-565 175.5,-644 290.5,-644 290.5,-565 175.5,-565"/>
<text text-anchor="start" x="183.5" y="-632" font-family="Helvetica,sans-Serif" font-size="10.00">Catch::Matchers::Impl</text>
<text text-anchor="middle" x="233" y="-621" font-family="Helvetica,sans-Serif" font-size="10.00">::MatcherMethod&lt; T &gt;</text>
<polyline fill="none" stroke="black" points="175.5,-614 290.5,-614 "/>
<text text-anchor="middle" x="233" y="-602" font-family="Helvetica,sans-Serif" font-size="10.00"> </text>
<polyline fill="none" stroke="black" points="175.5,-595 290.5,-595 "/>
<text text-anchor="start" x="183.5" y="-583" font-family="Helvetica,sans-Serif" font-size="10.00">+ virtual bool match</text>
<text text-anchor="start" x="183.5" y="-572" font-family="Helvetica,sans-Serif" font-size="10.00">(T const &amp;arg) const=0</text>
</a>
</g>
</g>
<!-- Node5&#45;&gt;Node3 -->
<g id="edge4" class="edge">
<title>Node5&#45;&gt;Node3</title>
<path fill="none" stroke="midnightblue" d="M201.71,-556.32C190.73,-539.77 178.32,-521.06 167,-504 155.39,-486.51 142.78,-467.51 131.23,-450.11"/>
<polygon fill="none" stroke="midnightblue" points="198.86,-558.35 207.3,-564.75 204.69,-554.48 198.86,-558.35"/>
</g>
<!-- Node6 -->
<g id="node6" class="node">
<title>Node6</title>
<g id="a_node6"><a xlink:href="a01002.xhtml" target="_top" xlink:title=" ">
<polygon fill="white" stroke="black" points="163,-752.5 163,-842.5 303,-842.5 303,-752.5 163,-752.5"/>
<text text-anchor="start" x="171" y="-830.5" font-family="Helvetica,sans-Serif" font-size="10.00">Catch::Matchers::Impl</text>
<text text-anchor="middle" x="233" y="-819.5" font-family="Helvetica,sans-Serif" font-size="10.00">::MatcherMethod&lt; ObjectT &gt;</text>
<polyline fill="none" stroke="black" points="163,-812.5 303,-812.5 "/>
<text text-anchor="middle" x="233" y="-800.5" font-family="Helvetica,sans-Serif" font-size="10.00"> </text>
<polyline fill="none" stroke="black" points="163,-793.5 303,-793.5 "/>
<text text-anchor="start" x="171" y="-781.5" font-family="Helvetica,sans-Serif" font-size="10.00">+ virtual bool match</text>
<text text-anchor="start" x="171" y="-770.5" font-family="Helvetica,sans-Serif" font-size="10.00">(ObjectT const &amp;arg)</text>
<text text-anchor="start" x="171" y="-759.5" font-family="Helvetica,sans-Serif" font-size="10.00"> const =0</text>
</a>
</g>
</g>
<!-- Node6&#45;&gt;Node5 -->
<g id="edge5" class="edge">
<title>Node6&#45;&gt;Node5</title>
<path fill="none" stroke="orange" d="M233,-741.9C233,-710.64 233,-672.17 233,-644.07"/>
<polygon fill="orange" stroke="orange" points="229.5,-742.2 233,-752.2 236.5,-742.2 229.5,-742.2"/>
<text text-anchor="middle" x="245.5" y="-726" font-family="Helvetica,sans-Serif" font-size="10.00"> &lt; T &gt;</text>
</g>
<!-- Node7 -->
<g id="node7" class="node">
<title>Node7</title>
<g id="a_node7"><a xlink:href="a01030.xhtml" target="_top" xlink:title=" ">
<polygon fill="white" stroke="black" points="192.5,-310.5 192.5,-466.5 329.5,-466.5 329.5,-310.5 192.5,-310.5"/>
<text text-anchor="start" x="200.5" y="-454.5" font-family="Helvetica,sans-Serif" font-size="10.00">Catch::Matchers::StdString</text>
<text text-anchor="middle" x="261" y="-443.5" font-family="Helvetica,sans-Serif" font-size="10.00">::CasedString</text>
<polyline fill="none" stroke="black" points="192.5,-436.5 329.5,-436.5 "/>
<text text-anchor="start" x="200.5" y="-424.5" font-family="Helvetica,sans-Serif" font-size="10.00">+ CaseSensitive::Choice</text>
<text text-anchor="start" x="200.5" y="-413.5" font-family="Helvetica,sans-Serif" font-size="10.00"> m_caseSensitivity</text>
<text text-anchor="start" x="200.5" y="-402.5" font-family="Helvetica,sans-Serif" font-size="10.00">+ std::string m_str</text>
<polyline fill="none" stroke="black" points="192.5,-395.5 329.5,-395.5 "/>
<text text-anchor="start" x="200.5" y="-383.5" font-family="Helvetica,sans-Serif" font-size="10.00">+ CasedString(std::string</text>
<text text-anchor="start" x="200.5" y="-372.5" font-family="Helvetica,sans-Serif" font-size="10.00"> const &amp;str, CaseSensitive</text>
<text text-anchor="start" x="200.5" y="-361.5" font-family="Helvetica,sans-Serif" font-size="10.00">::Choice caseSensitivity)</text>
<text text-anchor="start" x="200.5" y="-350.5" font-family="Helvetica,sans-Serif" font-size="10.00">+ std::string adjustString</text>
<text text-anchor="start" x="200.5" y="-339.5" font-family="Helvetica,sans-Serif" font-size="10.00">(std::string const &amp;str) const</text>
<text text-anchor="start" x="200.5" y="-328.5" font-family="Helvetica,sans-Serif" font-size="10.00">+ std::string caseSensitivity</text>
<text text-anchor="start" x="200.5" y="-317.5" font-family="Helvetica,sans-Serif" font-size="10.00">Suffix() const</text>
</a>
</g>
</g>
<!-- Node7&#45;&gt;Node2 -->
<g id="edge6" class="edge">
<title>Node7&#45;&gt;Node2</title>
<path fill="none" stroke="#404040" d="M224.58,-310.38C218.85,-298.23 212.96,-285.76 207.35,-273.89"/>
<polygon fill="none" stroke="#404040" points="207.2,-273.56 201.02,-269.84 202.07,-262.71 208.25,-266.43 207.2,-273.56"/>
<text text-anchor="middle" x="249.5" y="-284" font-family="Helvetica,sans-Serif" font-size="10.00"> +m_comparator</text>
</g>
</g>
</svg>
