<?xml version="1.0" encoding="UTF-8" standalone="no"?>
<!DOCTYPE svg PUBLIC "-//W3C//DTD SVG 1.1//EN"
 "http://www.w3.org/Graphics/SVG/1.1/DTD/svg11.dtd">
<!-- Generated by graphviz version 4.0.0 (20220602.1335)
 -->
<!-- Title: Catch::Generators::GeneratorWrapper&lt; T &gt; Pages: 1 -->
<svg width="147pt" height="303pt"
 viewBox="0.00 0.00 147.00 303.00" xmlns="http://www.w3.org/2000/svg" xmlns:xlink="http://www.w3.org/1999/xlink">
<g id="graph0" class="graph" transform="scale(1 1) rotate(0) translate(4 299)">
<title>Catch::Generators::GeneratorWrapper&lt; T &gt;</title>
<polygon fill="white" stroke="transparent" points="-4,4 -4,-299 143,-299 143,4 -4,4"/>
<!-- Node1 -->
<g id="node1" class="node">
<title>Node1</title>
<g id="a_node1"><a xlink:title=" ">
<polygon fill="#bfbfbf" stroke="black" points="0,-171.5 0,-294.5 139,-294.5 139,-171.5 0,-171.5"/>
<text text-anchor="start" x="8" y="-282.5" font-family="Helvetica,sans-Serif" font-size="10.00">Catch::Generators::</text>
<text text-anchor="middle" x="69.5" y="-271.5" font-family="Helvetica,sans-Serif" font-size="10.00">GeneratorWrapper&lt; T &gt;</text>
<polyline fill="none" stroke="black" points="0,-264.5 139,-264.5 "/>
<text text-anchor="start" x="8" y="-252.5" font-family="Helvetica,sans-Serif" font-size="10.00">&#45; std::unique_ptr&lt; IGenerator</text>
<text text-anchor="start" x="8" y="-241.5" font-family="Helvetica,sans-Serif" font-size="10.00">&lt; T &gt; &gt; m_generator</text>
<polyline fill="none" stroke="black" points="0,-234.5 139,-234.5 "/>
<text text-anchor="start" x="8" y="-222.5" font-family="Helvetica,sans-Serif" font-size="10.00">+ GeneratorWrapper(std</text>
<text text-anchor="start" x="8" y="-211.5" font-family="Helvetica,sans-Serif" font-size="10.00">::unique_ptr&lt; IGenerator</text>
<text text-anchor="start" x="8" y="-200.5" font-family="Helvetica,sans-Serif" font-size="10.00">&lt; T &gt; &gt; generator)</text>
<text text-anchor="start" x="8" y="-189.5" font-family="Helvetica,sans-Serif" font-size="10.00">+ T const &amp; get() const</text>
<text text-anchor="start" x="8" y="-178.5" font-family="Helvetica,sans-Serif" font-size="10.00">+ bool next()</text>
</a>
</g>
</g>
<!-- Node2 -->
<g id="node2" class="node">
<title>Node2</title>
<g id="a_node2"><a xlink:href="a01096.xhtml" target="_top" xlink:title=" ">
<polygon fill="white" stroke="black" points="0,-0.5 0,-123.5 139,-123.5 139,-0.5 0,-0.5"/>
<text text-anchor="start" x="8" y="-111.5" font-family="Helvetica,sans-Serif" font-size="10.00">Catch::Generators::</text>
<text text-anchor="middle" x="69.5" y="-100.5" font-family="Helvetica,sans-Serif" font-size="10.00">GeneratorWrapper&lt; U &gt;</text>
<polyline fill="none" stroke="black" points="0,-93.5 139,-93.5 "/>
<text text-anchor="start" x="8" y="-81.5" font-family="Helvetica,sans-Serif" font-size="10.00">&#45; std::unique_ptr&lt; IGenerator</text>
<text text-anchor="start" x="8" y="-70.5" font-family="Helvetica,sans-Serif" font-size="10.00">&lt; U &gt; &gt; m_generator</text>
<polyline fill="none" stroke="black" points="0,-63.5 139,-63.5 "/>
<text text-anchor="start" x="8" y="-51.5" font-family="Helvetica,sans-Serif" font-size="10.00">+ GeneratorWrapper(std</text>
<text text-anchor="start" x="8" y="-40.5" font-family="Helvetica,sans-Serif" font-size="10.00">::unique_ptr&lt; IGenerator</text>
<text text-anchor="start" x="8" y="-29.5" font-family="Helvetica,sans-Serif" font-size="10.00">&lt; U &gt; &gt; generator)</text>
<text text-anchor="start" x="8" y="-18.5" font-family="Helvetica,sans-Serif" font-size="10.00">+ U const &amp; get() const</text>
<text text-anchor="start" x="8" y="-7.5" font-family="Helvetica,sans-Serif" font-size="10.00">+ bool next()</text>
</a>
</g>
</g>
<!-- Node1&#45;&gt;Node2 -->
<g id="edge1" class="edge">
<title>Node1&#45;&gt;Node2</title>
<path fill="none" stroke="orange" d="M69.5,-161.13C69.5,-148.68 69.5,-135.82 69.5,-123.68"/>
<polygon fill="orange" stroke="orange" points="66,-161.46 69.5,-171.46 73,-161.46 66,-161.46"/>
<text text-anchor="middle" x="83" y="-145" font-family="Helvetica,sans-Serif" font-size="10.00"> &lt; U &gt;</text>
</g>
</g>
</svg>
