<?xml version="1.0" encoding="UTF-8" standalone="no"?>
<!DOCTYPE svg PUBLIC "-//W3C//DTD SVG 1.1//EN"
 "http://www.w3.org/Graphics/SVG/1.1/DTD/svg11.dtd">
<!-- Generated by graphviz version 4.0.0 (20220602.1335)
 -->
<!-- Title: Catch::Generators::Generators&lt; T &gt; Pages: 1 -->
<svg width="183pt" height="496pt"
 viewBox="0.00 0.00 183.00 496.00" xmlns="http://www.w3.org/2000/svg" xmlns:xlink="http://www.w3.org/1999/xlink">
<g id="graph0" class="graph" transform="scale(1 1) rotate(0) translate(4 492)">
<title>Catch::Generators::Generators&lt; T &gt;</title>
<polygon fill="white" stroke="transparent" points="-4,4 -4,-492 179,-492 179,4 -4,4"/>
<!-- Node1 -->
<g id="node1" class="node">
<title>Node1</title>
<g id="a_node1"><a xlink:title=" ">
<polygon fill="#bfbfbf" stroke="black" points="0,-0.5 0,-200.5 175,-200.5 175,-0.5 0,-0.5"/>
<text text-anchor="start" x="8" y="-188.5" font-family="Helvetica,sans-Serif" font-size="10.00">Catch::Generators::</text>
<text text-anchor="middle" x="87.5" y="-177.5" font-family="Helvetica,sans-Serif" font-size="10.00">Generators&lt; T &gt;</text>
<polyline fill="none" stroke="black" points="0,-170.5 175,-170.5 "/>
<text text-anchor="start" x="8" y="-158.5" font-family="Helvetica,sans-Serif" font-size="10.00">&#45; std::vector&lt; GeneratorWrapper</text>
<text text-anchor="start" x="8" y="-147.5" font-family="Helvetica,sans-Serif" font-size="10.00">&lt; T &gt; &gt; m_generators</text>
<text text-anchor="start" x="8" y="-136.5" font-family="Helvetica,sans-Serif" font-size="10.00">&#45; size_t m_current</text>
<polyline fill="none" stroke="black" points="0,-129.5 175,-129.5 "/>
<text text-anchor="start" x="8" y="-117.5" font-family="Helvetica,sans-Serif" font-size="10.00">+ Generators(Gs &amp;&amp;...</text>
<text text-anchor="start" x="8" y="-106.5" font-family="Helvetica,sans-Serif" font-size="10.00"> moreGenerators)</text>
<text text-anchor="start" x="8" y="-95.5" font-family="Helvetica,sans-Serif" font-size="10.00">+ T const &amp; get() const</text>
<text text-anchor="start" x="8" y="-84.5" font-family="Helvetica,sans-Serif" font-size="10.00"> override</text>
<text text-anchor="start" x="8" y="-73.5" font-family="Helvetica,sans-Serif" font-size="10.00">+ bool next() override</text>
<text text-anchor="start" x="8" y="-62.5" font-family="Helvetica,sans-Serif" font-size="10.00">&#45; void populate(GeneratorWrapper</text>
<text text-anchor="start" x="8" y="-51.5" font-family="Helvetica,sans-Serif" font-size="10.00">&lt; T &gt; &amp;&amp;generator)</text>
<text text-anchor="start" x="8" y="-40.5" font-family="Helvetica,sans-Serif" font-size="10.00">&#45; void populate(T &amp;&amp;val)</text>
<text text-anchor="start" x="8" y="-29.5" font-family="Helvetica,sans-Serif" font-size="10.00">&#45; void populate(U &amp;&amp;val)</text>
<text text-anchor="start" x="8" y="-18.5" font-family="Helvetica,sans-Serif" font-size="10.00">&#45; void populate(U &amp;&amp;valueOr</text>
<text text-anchor="start" x="8" y="-7.5" font-family="Helvetica,sans-Serif" font-size="10.00">Generator, Gs &amp;&amp;... moreGenerators)</text>
</a>
</g>
</g>
<!-- Node2 -->
<g id="node2" class="node">
<title>Node2</title>
<g id="a_node2"><a xlink:href="a01094.xhtml" target="_top" xlink:title=" ">
<polygon fill="white" stroke="black" points="32.5,-237.5 32.5,-338.5 142.5,-338.5 142.5,-237.5 32.5,-237.5"/>
<text text-anchor="start" x="40.5" y="-326.5" font-family="Helvetica,sans-Serif" font-size="10.00">Catch::Generators::</text>
<text text-anchor="middle" x="87.5" y="-315.5" font-family="Helvetica,sans-Serif" font-size="10.00">IGenerator&lt; T &gt;</text>
<polyline fill="none" stroke="black" points="32.5,-308.5 142.5,-308.5 "/>
<text text-anchor="middle" x="87.5" y="-296.5" font-family="Helvetica,sans-Serif" font-size="10.00"> </text>
<polyline fill="none" stroke="black" points="32.5,-289.5 142.5,-289.5 "/>
<text text-anchor="start" x="40.5" y="-277.5" font-family="Helvetica,sans-Serif" font-size="10.00">+ virtual ~IGenerator</text>
<text text-anchor="start" x="40.5" y="-266.5" font-family="Helvetica,sans-Serif" font-size="10.00">()=default</text>
<text text-anchor="start" x="40.5" y="-255.5" font-family="Helvetica,sans-Serif" font-size="10.00">+ virtual T const &amp; get</text>
<text text-anchor="start" x="40.5" y="-244.5" font-family="Helvetica,sans-Serif" font-size="10.00">() const =0</text>
</a>
</g>
</g>
<!-- Node2&#45;&gt;Node1 -->
<g id="edge1" class="edge">
<title>Node2&#45;&gt;Node1</title>
<path fill="none" stroke="midnightblue" d="M87.5,-227.17C87.5,-218.68 87.5,-209.77 87.5,-200.78"/>
<polygon fill="none" stroke="midnightblue" points="84,-227.29 87.5,-237.29 91,-227.29 84,-227.29"/>
</g>
<!-- Node3 -->
<g id="node3" class="node">
<title>Node3</title>
<g id="a_node3"><a xlink:href="a01082.xhtml" target="_top" xlink:title=" ">
<polygon fill="white" stroke="black" points="19,-375.5 19,-487.5 156,-487.5 156,-375.5 19,-375.5"/>
<text text-anchor="start" x="27" y="-475.5" font-family="Helvetica,sans-Serif" font-size="10.00">Catch::Generators::</text>
<text text-anchor="middle" x="87.5" y="-464.5" font-family="Helvetica,sans-Serif" font-size="10.00">GeneratorUntypedBase</text>
<polyline fill="none" stroke="black" points="19,-457.5 156,-457.5 "/>
<text text-anchor="middle" x="87.5" y="-445.5" font-family="Helvetica,sans-Serif" font-size="10.00"> </text>
<polyline fill="none" stroke="black" points="19,-438.5 156,-438.5 "/>
<text text-anchor="start" x="27" y="-426.5" font-family="Helvetica,sans-Serif" font-size="10.00">+ GeneratorUntypedBase</text>
<text text-anchor="start" x="27" y="-415.5" font-family="Helvetica,sans-Serif" font-size="10.00">()=default</text>
<text text-anchor="start" x="27" y="-404.5" font-family="Helvetica,sans-Serif" font-size="10.00">+ virtual ~GeneratorUntyped</text>
<text text-anchor="start" x="27" y="-393.5" font-family="Helvetica,sans-Serif" font-size="10.00">Base()</text>
<text text-anchor="start" x="27" y="-382.5" font-family="Helvetica,sans-Serif" font-size="10.00">+ virtual bool next()=0</text>
</a>
</g>
</g>
<!-- Node3&#45;&gt;Node2 -->
<g id="edge2" class="edge">
<title>Node3&#45;&gt;Node2</title>
<path fill="none" stroke="midnightblue" d="M87.5,-365.34C87.5,-356.38 87.5,-347.29 87.5,-338.66"/>
<polygon fill="none" stroke="midnightblue" points="84,-365.39 87.5,-375.39 91,-365.39 84,-365.39"/>
</g>
</g>
</svg>
