<?xml version="1.0" encoding="UTF-8" standalone="no"?>
<!DOCTYPE svg PUBLIC "-//W3C//DTD SVG 1.1//EN"
 "http://www.w3.org/Graphics/SVG/1.1/DTD/svg11.dtd">
<!-- Generated by graphviz version 4.0.0 (20220602.1335)
 -->
<!-- Title: Catch::Generators::RangeGenerator&lt; T &gt; Pages: 1 -->
<svg width="145pt" height="474pt"
 viewBox="0.00 0.00 145.00 474.00" xmlns="http://www.w3.org/2000/svg" xmlns:xlink="http://www.w3.org/1999/xlink">
<g id="graph0" class="graph" transform="scale(1 1) rotate(0) translate(4 470)">
<title>Catch::Generators::RangeGenerator&lt; T &gt;</title>
<polygon fill="white" stroke="transparent" points="-4,4 -4,-470 141,-470 141,4 -4,4"/>
<!-- Node1 -->
<g id="node1" class="node">
<title>Node1</title>
<g id="a_node1"><a xlink:title=" ">
<polygon fill="#bfbfbf" stroke="black" points="3,-0.5 3,-178.5 134,-178.5 134,-0.5 3,-0.5"/>
<text text-anchor="start" x="11" y="-166.5" font-family="Helvetica,sans-Serif" font-size="10.00">Catch::Generators::</text>
<text text-anchor="middle" x="68.5" y="-155.5" font-family="Helvetica,sans-Serif" font-size="10.00">RangeGenerator&lt; T &gt;</text>
<polyline fill="none" stroke="black" points="3,-148.5 134,-148.5 "/>
<text text-anchor="start" x="11" y="-136.5" font-family="Helvetica,sans-Serif" font-size="10.00">&#45; T m_current</text>
<text text-anchor="start" x="11" y="-125.5" font-family="Helvetica,sans-Serif" font-size="10.00">&#45; T m_end</text>
<text text-anchor="start" x="11" y="-114.5" font-family="Helvetica,sans-Serif" font-size="10.00">&#45; T m_step</text>
<text text-anchor="start" x="11" y="-103.5" font-family="Helvetica,sans-Serif" font-size="10.00">&#45; bool m_positive</text>
<polyline fill="none" stroke="black" points="3,-96.5 134,-96.5 "/>
<text text-anchor="start" x="11" y="-84.5" font-family="Helvetica,sans-Serif" font-size="10.00">+ RangeGenerator(T const</text>
<text text-anchor="start" x="11" y="-73.5" font-family="Helvetica,sans-Serif" font-size="10.00"> &amp;start, T const &amp;end,</text>
<text text-anchor="start" x="11" y="-62.5" font-family="Helvetica,sans-Serif" font-size="10.00"> T const &amp;step)</text>
<text text-anchor="start" x="11" y="-51.5" font-family="Helvetica,sans-Serif" font-size="10.00">+ RangeGenerator(T const</text>
<text text-anchor="start" x="11" y="-40.5" font-family="Helvetica,sans-Serif" font-size="10.00"> &amp;start, T const &amp;end)</text>
<text text-anchor="start" x="11" y="-29.5" font-family="Helvetica,sans-Serif" font-size="10.00">+ T const &amp; get() const</text>
<text text-anchor="start" x="11" y="-18.5" font-family="Helvetica,sans-Serif" font-size="10.00"> override</text>
<text text-anchor="start" x="11" y="-7.5" font-family="Helvetica,sans-Serif" font-size="10.00">+ bool next() override</text>
</a>
</g>
</g>
<!-- Node2 -->
<g id="node2" class="node">
<title>Node2</title>
<g id="a_node2"><a xlink:href="a01094.xhtml" target="_top" xlink:title=" ">
<polygon fill="white" stroke="black" points="13.5,-215.5 13.5,-316.5 123.5,-316.5 123.5,-215.5 13.5,-215.5"/>
<text text-anchor="start" x="21.5" y="-304.5" font-family="Helvetica,sans-Serif" font-size="10.00">Catch::Generators::</text>
<text text-anchor="middle" x="68.5" y="-293.5" font-family="Helvetica,sans-Serif" font-size="10.00">IGenerator&lt; T &gt;</text>
<polyline fill="none" stroke="black" points="13.5,-286.5 123.5,-286.5 "/>
<text text-anchor="middle" x="68.5" y="-274.5" font-family="Helvetica,sans-Serif" font-size="10.00"> </text>
<polyline fill="none" stroke="black" points="13.5,-267.5 123.5,-267.5 "/>
<text text-anchor="start" x="21.5" y="-255.5" font-family="Helvetica,sans-Serif" font-size="10.00">+ virtual ~IGenerator</text>
<text text-anchor="start" x="21.5" y="-244.5" font-family="Helvetica,sans-Serif" font-size="10.00">()=default</text>
<text text-anchor="start" x="21.5" y="-233.5" font-family="Helvetica,sans-Serif" font-size="10.00">+ virtual T const &amp; get</text>
<text text-anchor="start" x="21.5" y="-222.5" font-family="Helvetica,sans-Serif" font-size="10.00">() const =0</text>
</a>
</g>
</g>
<!-- Node2&#45;&gt;Node1 -->
<g id="edge1" class="edge">
<title>Node2&#45;&gt;Node1</title>
<path fill="none" stroke="midnightblue" d="M68.5,-205.26C68.5,-196.71 68.5,-187.77 68.5,-178.81"/>
<polygon fill="none" stroke="midnightblue" points="65,-205.46 68.5,-215.46 72,-205.46 65,-205.46"/>
</g>
<!-- Node3 -->
<g id="node3" class="node">
<title>Node3</title>
<g id="a_node3"><a xlink:href="a01082.xhtml" target="_top" xlink:title=" ">
<polygon fill="white" stroke="black" points="0,-353.5 0,-465.5 137,-465.5 137,-353.5 0,-353.5"/>
<text text-anchor="start" x="8" y="-453.5" font-family="Helvetica,sans-Serif" font-size="10.00">Catch::Generators::</text>
<text text-anchor="middle" x="68.5" y="-442.5" font-family="Helvetica,sans-Serif" font-size="10.00">GeneratorUntypedBase</text>
<polyline fill="none" stroke="black" points="0,-435.5 137,-435.5 "/>
<text text-anchor="middle" x="68.5" y="-423.5" font-family="Helvetica,sans-Serif" font-size="10.00"> </text>
<polyline fill="none" stroke="black" points="0,-416.5 137,-416.5 "/>
<text text-anchor="start" x="8" y="-404.5" font-family="Helvetica,sans-Serif" font-size="10.00">+ GeneratorUntypedBase</text>
<text text-anchor="start" x="8" y="-393.5" font-family="Helvetica,sans-Serif" font-size="10.00">()=default</text>
<text text-anchor="start" x="8" y="-382.5" font-family="Helvetica,sans-Serif" font-size="10.00">+ virtual ~GeneratorUntyped</text>
<text text-anchor="start" x="8" y="-371.5" font-family="Helvetica,sans-Serif" font-size="10.00">Base()</text>
<text text-anchor="start" x="8" y="-360.5" font-family="Helvetica,sans-Serif" font-size="10.00">+ virtual bool next()=0</text>
</a>
</g>
</g>
<!-- Node3&#45;&gt;Node2 -->
<g id="edge2" class="edge">
<title>Node3&#45;&gt;Node2</title>
<path fill="none" stroke="midnightblue" d="M68.5,-343.34C68.5,-334.38 68.5,-325.29 68.5,-316.66"/>
<polygon fill="none" stroke="midnightblue" points="65,-343.39 68.5,-353.39 72,-343.39 65,-343.39"/>
</g>
</g>
</svg>
