<?xml version="1.0" encoding="UTF-8" standalone="no"?>
<!DOCTYPE svg PUBLIC "-//W3C//DTD SVG 1.1//EN"
 "http://www.w3.org/Graphics/SVG/1.1/DTD/svg11.dtd">
<!-- Generated by graphviz version 4.0.0 (20220602.1335)
 -->
<!-- Title: src Pages: 1 -->
<!--zoomable 132 -->
<svg id="main" version="1.1" xmlns="http://www.w3.org/2000/svg" xmlns:xlink="http://www.w3.org/1999/xlink" xml:space="preserve" onload="init(evt)">
<style type="text/css"><![CDATA[
.edge:hover path { stroke: red; }
.edge:hover polygon { stroke: red; fill: red; }
]]></style>
<script type="text/javascript"><![CDATA[
var edges = document.getElementsByTagName('g');
if (edges && edges.length) {
  for (var i=0;i<edges.length;i++) {
    if (edges[i].id.substr(0,4)=='edge') {
      edges[i].setAttribute('class','edge');
    }
  }
}
]]></script>
        <defs>
                <circle id="rim" cx="0" cy="0" r="7"/>
                <circle id="rim2" cx="0" cy="0" r="3.5"/>
                <g id="zoomPlus">
                        <use xlink:href="#rim" fill="#404040">
                                <set attributeName="fill" to="#808080" begin="zoomplus.mouseover" end="zoomplus.mouseout"/>
                        </use>
                        <path d="M-4,0h8M0,-4v8" fill="none" stroke="white" stroke-width="1.5" pointer-events="none"/>
                </g>
                <g id="zoomMin">
                        <use xlink:href="#rim" fill="#404040">
                                <set attributeName="fill" to="#808080" begin="zoomminus.mouseover" end="zoomminus.mouseout"/>
                        </use>
                        <path d="M-4,0h8" fill="none" stroke="white" stroke-width="1.5" pointer-events="none"/>
                </g>
                <g id="dirArrow">
                        <path fill="none" stroke="white" stroke-width="1.5" d="M0,-3.0v7 M-2.5,-0.5L0,-3.0L2.5,-0.5"/>
                </g>
               <g id="resetDef">
                       <use xlink:href="#rim2" fill="#404040">
                               <set attributeName="fill" to="#808080" begin="reset.mouseover" end="reset.mouseout"/>
                       </use>
               </g>
        </defs>

<script type="text/javascript">
var viewWidth = 1307;
var viewHeight = 132;
var sectionId = 'dynsection-0';
</script>
<script xlink:href="svgpan.js"/>
<svg id="graph" class="graph">
<g id="viewport">
<title>src</title>
<polygon fill="white" stroke="transparent" points="-4,4 -4,-128 1303,-128 1303,4 -4,4"/>
<g id="clust1" class="cluster">
<title>clusterdir_68267d1309a1af8e8297ef4c3efbcdba</title>
<g id="a_clust1"><a xlink:href="dir_68267d1309a1af8e8297ef4c3efbcdba.xhtml" target="_top">
<polygon fill="#ededf7" stroke="#404040" stroke-width="2" points="8,-64 8,-116 1291,-116 1291,-64 8,-64"/>
</a>
</g>
</g>
<!-- dir_68267d1309a1af8e8297ef4c3efbcdba -->
<g id="node1" class="node">
<title>dir_68267d1309a1af8e8297ef4c3efbcdba</title>
<text text-anchor="middle" x="1256" y="-87.5" font-family="Helvetica,sans-Serif" font-size="10.00">src</text>
</g>
<!-- dir_bc10c4dd205ae2a1e415269a4536b5cd -->
<g id="node2" class="node">
<title>dir_bc10c4dd205ae2a1e415269a4536b5cd</title>
<g id="a_node2"><a xlink:href="dir_bc10c4dd205ae2a1e415269a4536b5cd.xhtml" target="_top" xlink:title="ACA">
<polygon fill="#a2a2d6" stroke="#404040" points="70,-108 16,-108 16,-72 70,-72 70,-108"/>
<text text-anchor="middle" x="43" y="-87.5" font-family="Helvetica,sans-Serif" font-size="10.00">ACA</text>
</a>
</g>
</g>
<!-- dir_8cab8f464681f7cc51cee77e79a434cd -->
<g id="node13" class="node">
<title>dir_8cab8f464681f7cc51cee77e79a434cd</title>
<g id="a_node13"><a xlink:href="dir_8cab8f464681f7cc51cee77e79a434cd.xhtml" target="_top" xlink:title="3rdparty">
<polygon fill="none" stroke="red" points="110,-36 56,-36 56,0 110,0 110,-36"/>
<text text-anchor="middle" x="83" y="-15.5" font-family="Helvetica,sans-Serif" font-size="10.00">3rdparty</text>
</a>
</g>
</g>
<!-- dir_bc10c4dd205ae2a1e415269a4536b5cd&#45;&gt;dir_8cab8f464681f7cc51cee77e79a434cd -->
<g id="edge1" class="edge">
<title>dir_bc10c4dd205ae2a1e415269a4536b5cd&#45;&gt;dir_8cab8f464681f7cc51cee77e79a434cd</title>
<path fill="none" stroke="black" d="M52.89,-71.7C57.49,-63.64 63.06,-53.89 68.15,-44.98"/>
<polygon fill="black" stroke="black" points="71.3,-46.52 73.23,-36.1 65.23,-43.05 71.3,-46.52"/>
<g id="a_edge1&#45;headlabel"><a xlink:href="dir_000001_000000.xhtml" target="_top" xlink:title="1">
<text text-anchor="middle" x="71.99" y="-48.55" font-family="Helvetica,sans-Serif" font-size="10.00">1</text>
</a>
</g>
</g>
<!-- dir_bfccd401955b95cf8c75461437045ac0 -->
<g id="node14" class="node">
<title>dir_bfccd401955b95cf8c75461437045ac0</title>
<g id="a_node14"><a xlink:href="dir_bfccd401955b95cf8c75461437045ac0.xhtml" target="_top" xlink:title="inc">
<polygon fill="none" stroke="red" points="586,-36 532,-36 532,0 586,0 586,-36"/>
<text text-anchor="middle" x="559" y="-15.5" font-family="Helvetica,sans-Serif" font-size="10.00">inc</text>
</a>
</g>
</g>
<!-- dir_bc10c4dd205ae2a1e415269a4536b5cd&#45;&gt;dir_bfccd401955b95cf8c75461437045ac0 -->
<g id="edge2" class="edge">
<title>dir_bc10c4dd205ae2a1e415269a4536b5cd&#45;&gt;dir_bfccd401955b95cf8c75461437045ac0</title>
<path fill="none" stroke="black" d="M63.7,-71.99C68.47,-68.84 73.71,-65.93 79,-64 160.35,-34.28 423.88,-23.2 521.86,-20.05"/>
<polygon fill="black" stroke="black" points="522.01,-23.55 531.89,-19.74 521.79,-16.55 522.01,-23.55"/>
<g id="a_edge2&#45;headlabel"><a xlink:href="dir_000001_000015.xhtml" target="_top" xlink:title="142">
<text text-anchor="middle" x="518.5" y="-24" font-family="Helvetica,sans-Serif" font-size="10.00">142</text>
</a>
</g>
</g>
<!-- dir_d4f6e779a3ef91b95519a6aced733fc8 -->
<g id="node3" class="node">
<title>dir_d4f6e779a3ef91b95519a6aced733fc8</title>
<g id="a_node3"><a xlink:href="dir_d4f6e779a3ef91b95519a6aced733fc8.xhtml" target="_top" xlink:title="AudioFileIO">
<polygon fill="#a2a2d6" stroke="#404040" points="156,-108 88,-108 88,-72 156,-72 156,-108"/>
<text text-anchor="middle" x="122" y="-87.5" font-family="Helvetica,sans-Serif" font-size="10.00">AudioFileIO</text>
</a>
</g>
</g>
<!-- dir_d4f6e779a3ef91b95519a6aced733fc8&#45;&gt;dir_8cab8f464681f7cc51cee77e79a434cd -->
<g id="edge3" class="edge">
<title>dir_d4f6e779a3ef91b95519a6aced733fc8&#45;&gt;dir_8cab8f464681f7cc51cee77e79a434cd</title>
<path fill="none" stroke="black" d="M112.36,-71.7C107.87,-63.64 102.44,-53.89 97.48,-44.98"/>
<polygon fill="black" stroke="black" points="100.45,-43.14 92.53,-36.1 94.34,-46.54 100.45,-43.14"/>
<g id="a_edge3&#45;headlabel"><a xlink:href="dir_000002_000000.xhtml" target="_top" xlink:title="1">
<text text-anchor="middle" x="104.68" y="-42.39" font-family="Helvetica,sans-Serif" font-size="10.00">1</text>
</a>
</g>
</g>
<!-- dir_d4f6e779a3ef91b95519a6aced733fc8&#45;&gt;dir_bfccd401955b95cf8c75461437045ac0 -->
<g id="edge4" class="edge">
<title>dir_d4f6e779a3ef91b95519a6aced733fc8&#45;&gt;dir_bfccd401955b95cf8c75461437045ac0</title>
<path fill="none" stroke="black" d="M148.2,-71.86C153.87,-68.8 159.99,-65.96 166,-64 291.44,-23.08 449.96,-18.23 521.25,-18.36"/>
<polygon fill="black" stroke="black" points="521.5,-21.86 531.52,-18.42 521.54,-14.87 521.5,-21.86"/>
<g id="a_edge4&#45;headlabel"><a xlink:href="dir_000002_000015.xhtml" target="_top" xlink:title="5">
<text text-anchor="middle" x="517.89" y="-22.18" font-family="Helvetica,sans-Serif" font-size="10.00">5</text>
</a>
</g>
</g>
<!-- dir_7853cff6ae85101c84b607f53d7cd608 -->
<g id="node4" class="node">
<title>dir_7853cff6ae85101c84b607f53d7cd608</title>
<g id="a_node4"><a xlink:href="dir_7853cff6ae85101c84b607f53d7cd608.xhtml" target="_top" xlink:title="ComputeBeatHisto">
<polygon fill="#a2a2d6" stroke="#404040" points="485.5,-108 386.5,-108 386.5,-72 485.5,-72 485.5,-108"/>
<text text-anchor="middle" x="436" y="-87.5" font-family="Helvetica,sans-Serif" font-size="10.00">ComputeBeatHisto</text>
</a>
</g>
</g>
<!-- dir_7853cff6ae85101c84b607f53d7cd608&#45;&gt;dir_bfccd401955b95cf8c75461437045ac0 -->
<g id="edge5" class="edge">
<title>dir_7853cff6ae85101c84b607f53d7cd608&#45;&gt;dir_bfccd401955b95cf8c75461437045ac0</title>
<path fill="none" stroke="black" d="M466.09,-71.88C483.17,-62.16 504.67,-49.92 522.68,-39.67"/>
<polygon fill="black" stroke="black" points="524.78,-42.5 531.74,-34.51 521.32,-36.42 524.78,-42.5"/>
<g id="a_edge5&#45;headlabel"><a xlink:href="dir_000004_000015.xhtml" target="_top" xlink:title="2">
<text text-anchor="middle" x="523.06" y="-44.25" font-family="Helvetica,sans-Serif" font-size="10.00">2</text>
</a>
</g>
</g>
<!-- dir_a3888120c8b8cb40e8af20c5fadfb7dc -->
<g id="node5" class="node">
<title>dir_a3888120c8b8cb40e8af20c5fadfb7dc</title>
<g id="a_node5"><a xlink:href="dir_a3888120c8b8cb40e8af20c5fadfb7dc.xhtml" target="_top" xlink:title="ComputeChords">
<polygon fill="#a2a2d6" stroke="#404040" points="368,-108 282,-108 282,-72 368,-72 368,-108"/>
<text text-anchor="middle" x="325" y="-87.5" font-family="Helvetica,sans-Serif" font-size="10.00">ComputeChords</text>
</a>
</g>
</g>
<!-- dir_a3888120c8b8cb40e8af20c5fadfb7dc&#45;&gt;dir_bfccd401955b95cf8c75461437045ac0 -->
<g id="edge6" class="edge">
<title>dir_a3888120c8b8cb40e8af20c5fadfb7dc&#45;&gt;dir_bfccd401955b95cf8c75461437045ac0</title>
<path fill="none" stroke="black" d="M358.51,-71.98C364.89,-69.09 371.58,-66.29 378,-64 426.65,-46.67 484.94,-33.46 521.97,-25.97"/>
<polygon fill="black" stroke="black" points="522.7,-29.4 531.83,-24.01 521.34,-22.53 522.7,-29.4"/>
<g id="a_edge6&#45;headlabel"><a xlink:href="dir_000005_000015.xhtml" target="_top" xlink:title="2">
<text text-anchor="middle" x="519.73" y="-30.38" font-family="Helvetica,sans-Serif" font-size="10.00">2</text>
</a>
</g>
</g>
<!-- dir_9d2fa1ef46f11793bd130134da77c660 -->
<g id="node6" class="node">
<title>dir_9d2fa1ef46f11793bd130134da77c660</title>
<g id="a_node6"><a xlink:href="dir_9d2fa1ef46f11793bd130134da77c660.xhtml" target="_top" xlink:title="ComputeFeature">
<polygon fill="#a2a2d6" stroke="#404040" points="263.5,-108 174.5,-108 174.5,-72 263.5,-72 263.5,-108"/>
<text text-anchor="middle" x="219" y="-87.5" font-family="Helvetica,sans-Serif" font-size="10.00">ComputeFeature</text>
</a>
</g>
</g>
<!-- dir_9d2fa1ef46f11793bd130134da77c660&#45;&gt;dir_bfccd401955b95cf8c75461437045ac0 -->
<g id="edge7" class="edge">
<title>dir_9d2fa1ef46f11793bd130134da77c660&#45;&gt;dir_bfccd401955b95cf8c75461437045ac0</title>
<path fill="none" stroke="black" d="M252.14,-71.91C258.91,-68.92 266.08,-66.1 273,-64 359.75,-37.66 466.24,-26.1 521.58,-21.56"/>
<polygon fill="black" stroke="black" points="521.93,-25.05 531.63,-20.77 521.38,-18.07 521.93,-25.05"/>
<g id="a_edge7&#45;headlabel"><a xlink:href="dir_000006_000015.xhtml" target="_top" xlink:title="2">
<text text-anchor="middle" x="518.57" y="-25.66" font-family="Helvetica,sans-Serif" font-size="10.00">2</text>
</a>
</g>
</g>
<!-- dir_2166621c4f535969df3be74e9d47c9f0 -->
<g id="node7" class="node">
<title>dir_2166621c4f535969df3be74e9d47c9f0</title>
<g id="a_node7"><a xlink:href="dir_2166621c4f535969df3be74e9d47c9f0.xhtml" target="_top" xlink:title="ComputeFingerprint">
<polygon fill="#a2a2d6" stroke="#404040" points="1210.5,-108 1109.5,-108 1109.5,-72 1210.5,-72 1210.5,-108"/>
<text text-anchor="middle" x="1160" y="-87.5" font-family="Helvetica,sans-Serif" font-size="10.00">ComputeFingerprint</text>
</a>
</g>
</g>
<!-- dir_2166621c4f535969df3be74e9d47c9f0&#45;&gt;dir_bfccd401955b95cf8c75461437045ac0 -->
<g id="edge8" class="edge">
<title>dir_2166621c4f535969df3be74e9d47c9f0&#45;&gt;dir_bfccd401955b95cf8c75461437045ac0</title>
<path fill="none" stroke="black" d="M1124.12,-71.93C1116.32,-68.82 1108,-65.95 1100,-64 1004.05,-40.63 702.69,-25.37 596.49,-20.6"/>
<polygon fill="black" stroke="black" points="596.4,-17.09 586.25,-20.14 596.09,-24.08 596.4,-17.09"/>
<g id="a_edge8&#45;headlabel"><a xlink:href="dir_000007_000015.xhtml" target="_top" xlink:title="2">
<text text-anchor="middle" x="600.12" y="-11.91" font-family="Helvetica,sans-Serif" font-size="10.00">2</text>
</a>
</g>
</g>
<!-- dir_3e0b01101195b919ffb1b67ed960b88d -->
<g id="node8" class="node">
<title>dir_3e0b01101195b919ffb1b67ed960b88d</title>
<g id="a_node8"><a xlink:href="dir_3e0b01101195b919ffb1b67ed960b88d.xhtml" target="_top" xlink:title="ComputeKey">
<polygon fill="#a2a2d6" stroke="#404040" points="1091,-108 1019,-108 1019,-72 1091,-72 1091,-108"/>
<text text-anchor="middle" x="1055" y="-87.5" font-family="Helvetica,sans-Serif" font-size="10.00">ComputeKey</text>
</a>
</g>
</g>
<!-- dir_3e0b01101195b919ffb1b67ed960b88d&#45;&gt;dir_bfccd401955b95cf8c75461437045ac0 -->
<g id="edge9" class="edge">
<title>dir_3e0b01101195b919ffb1b67ed960b88d&#45;&gt;dir_bfccd401955b95cf8c75461437045ac0</title>
<path fill="none" stroke="black" d="M1028.19,-71.8C1022.39,-68.74 1016.14,-65.92 1010,-64 932.99,-39.9 689.9,-25.53 596.27,-20.77"/>
<polygon fill="black" stroke="black" points="596.29,-17.27 586.13,-20.26 595.94,-24.26 596.29,-17.27"/>
<g id="a_edge9&#45;headlabel"><a xlink:href="dir_000008_000015.xhtml" target="_top" xlink:title="2">
<text text-anchor="middle" x="600.02" y="-12.11" font-family="Helvetica,sans-Serif" font-size="10.00">2</text>
</a>
</g>
</g>
<!-- dir_8466febdf0a749a7e938bf7fc9cef1bc -->
<g id="node9" class="node">
<title>dir_8466febdf0a749a7e938bf7fc9cef1bc</title>
<g id="a_node9"><a xlink:href="dir_8466febdf0a749a7e938bf7fc9cef1bc.xhtml" target="_top" xlink:title="ComputeMelSpectrogram">
<polygon fill="#a2a2d6" stroke="#404040" points="1000.5,-108 873.5,-108 873.5,-72 1000.5,-72 1000.5,-108"/>
<text text-anchor="middle" x="937" y="-87.5" font-family="Helvetica,sans-Serif" font-size="10.00">ComputeMelSpectrogram</text>
</a>
</g>
</g>
<!-- dir_8466febdf0a749a7e938bf7fc9cef1bc&#45;&gt;dir_bfccd401955b95cf8c75461437045ac0 -->
<g id="edge10" class="edge">
<title>dir_8466febdf0a749a7e938bf7fc9cef1bc&#45;&gt;dir_bfccd401955b95cf8c75461437045ac0</title>
<path fill="none" stroke="black" d="M891.43,-71.96C882.43,-69 872.98,-66.18 864,-64 769.01,-40.93 654.32,-27.88 596.39,-22.29"/>
<polygon fill="black" stroke="black" points="596.53,-18.78 586.25,-21.33 595.87,-25.75 596.53,-18.78"/>
<g id="a_edge10&#45;headlabel"><a xlink:href="dir_000009_000015.xhtml" target="_top" xlink:title="2">
<text text-anchor="middle" x="600.38" y="-13.8" font-family="Helvetica,sans-Serif" font-size="10.00">2</text>
</a>
</g>
</g>
<!-- dir_48d746f1bf5bac7021e0a64c4f6bb862 -->
<g id="node10" class="node">
<title>dir_48d746f1bf5bac7021e0a64c4f6bb862</title>
<g id="a_node10"><a xlink:href="dir_48d746f1bf5bac7021e0a64c4f6bb862.xhtml" target="_top" xlink:title="ComputeNoveltyFunction">
<polygon fill="#a2a2d6" stroke="#404040" points="855,-108 729,-108 729,-72 855,-72 855,-108"/>
<text text-anchor="middle" x="792" y="-87.5" font-family="Helvetica,sans-Serif" font-size="10.00">ComputeNoveltyFunction</text>
</a>
</g>
</g>
<!-- dir_48d746f1bf5bac7021e0a64c4f6bb862&#45;&gt;dir_bfccd401955b95cf8c75461437045ac0 -->
<g id="edge11" class="edge">
<title>dir_48d746f1bf5bac7021e0a64c4f6bb862&#45;&gt;dir_bfccd401955b95cf8c75461437045ac0</title>
<path fill="none" stroke="black" d="M744.11,-71.91C736.09,-69.18 727.83,-66.45 720,-64 677.89,-50.82 629.01,-37.42 596.25,-28.71"/>
<polygon fill="black" stroke="black" points="596.77,-25.23 586.21,-26.06 594.98,-32 596.77,-25.23"/>
<g id="a_edge11&#45;headlabel"><a xlink:href="dir_000010_000015.xhtml" target="_top" xlink:title="2">
<text text-anchor="middle" x="600.98" y="-20.91" font-family="Helvetica,sans-Serif" font-size="10.00">2</text>
</a>
</g>
</g>
<!-- dir_46e78329c7bcc891e6f94a800d2aa205 -->
<g id="node11" class="node">
<title>dir_46e78329c7bcc891e6f94a800d2aa205</title>
<g id="a_node11"><a xlink:href="dir_46e78329c7bcc891e6f94a800d2aa205.xhtml" target="_top" xlink:title="ComputePitch">
<polygon fill="#a2a2d6" stroke="#404040" points="711,-108 633,-108 633,-72 711,-72 711,-108"/>
<text text-anchor="middle" x="672" y="-87.5" font-family="Helvetica,sans-Serif" font-size="10.00">ComputePitch</text>
</a>
</g>
</g>
<!-- dir_46e78329c7bcc891e6f94a800d2aa205&#45;&gt;dir_bfccd401955b95cf8c75461437045ac0 -->
<g id="edge12" class="edge">
<title>dir_46e78329c7bcc891e6f94a800d2aa205&#45;&gt;dir_bfccd401955b95cf8c75461437045ac0</title>
<path fill="none" stroke="black" d="M644.36,-71.88C629.47,-62.66 610.93,-51.17 594.94,-41.26"/>
<polygon fill="black" stroke="black" points="596.7,-38.24 586.36,-35.95 593.02,-44.19 596.7,-38.24"/>
<g id="a_edge12&#45;headlabel"><a xlink:href="dir_000011_000015.xhtml" target="_top" xlink:title="2">
<text text-anchor="middle" x="601.25" y="-35.22" font-family="Helvetica,sans-Serif" font-size="10.00">2</text>
</a>
</g>
</g>
<!-- dir_c6950d920f4ccd6785d7f6e7d1e35004 -->
<g id="node12" class="node">
<title>dir_c6950d920f4ccd6785d7f6e7d1e35004</title>
<g id="a_node12"><a xlink:href="dir_c6950d920f4ccd6785d7f6e7d1e35004.xhtml" target="_top" xlink:title="ComputeSpectrogram">
<polygon fill="#a2a2d6" stroke="#404040" points="614.5,-108 503.5,-108 503.5,-72 614.5,-72 614.5,-108"/>
<text text-anchor="middle" x="559" y="-87.5" font-family="Helvetica,sans-Serif" font-size="10.00">ComputeSpectrogram</text>
</a>
</g>
</g>
<!-- dir_c6950d920f4ccd6785d7f6e7d1e35004&#45;&gt;dir_bfccd401955b95cf8c75461437045ac0 -->
<g id="edge13" class="edge">
<title>dir_c6950d920f4ccd6785d7f6e7d1e35004&#45;&gt;dir_bfccd401955b95cf8c75461437045ac0</title>
<path fill="none" stroke="black" d="M559,-71.7C559,-63.98 559,-54.71 559,-46.11"/>
<polygon fill="black" stroke="black" points="562.5,-46.1 559,-36.1 555.5,-46.1 562.5,-46.1"/>
<g id="a_edge13&#45;headlabel"><a xlink:href="dir_000012_000015.xhtml" target="_top" xlink:title="2">
<text text-anchor="middle" x="565.34" y="-47.2" font-family="Helvetica,sans-Serif" font-size="10.00">2</text>
</a>
</g>
</g>
</g>
</svg>
        <g id="navigator" transform="translate(0 0)" fill="#404254">
                <rect fill="#f2f5e9" fill-opacity="0.5" stroke="#606060" stroke-width=".5" x="0" y="0" width="60" height="60"/>
                <use id="zoomplus" xlink:href="#zoomPlus" x="17" y="9" onmousedown="handleZoom(evt,'in')"/>
                <use id="zoomminus" xlink:href="#zoomMin" x="42" y="9" onmousedown="handleZoom(evt,'out')"/>
                <use id="reset" xlink:href="#resetDef" x="30" y="36" onmousedown="handleReset()"/>
                <g id="arrowUp" xlink:href="#dirArrow" transform="translate(30 24)" onmousedown="handlePan(0,-1)">
                  <use xlink:href="#rim" fill="#404040">
                        <set attributeName="fill" to="#808080" begin="arrowUp.mouseover" end="arrowUp.mouseout"/>
                  </use>
                  <path fill="none" stroke="white" stroke-width="1.5" d="M0,-3.0v7 M-2.5,-0.5L0,-3.0L2.5,-0.5"/>
                </g>
                <g id="arrowRight" xlink:href="#dirArrow" transform="rotate(90) translate(36 -43)" onmousedown="handlePan(1,0)">
                  <use xlink:href="#rim" fill="#404040">
                        <set attributeName="fill" to="#808080" begin="arrowRight.mouseover" end="arrowRight.mouseout"/>
                  </use>
                  <path fill="none" stroke="white" stroke-width="1.5" d="M0,-3.0v7 M-2.5,-0.5L0,-3.0L2.5,-0.5"/>
                </g>
                <g id="arrowDown" xlink:href="#dirArrow" transform="rotate(180) translate(-30 -48)" onmousedown="handlePan(0,1)">
                  <use xlink:href="#rim" fill="#404040">
                        <set attributeName="fill" to="#808080" begin="arrowDown.mouseover" end="arrowDown.mouseout"/>
                  </use>
                  <path fill="none" stroke="white" stroke-width="1.5" d="M0,-3.0v7 M-2.5,-0.5L0,-3.0L2.5,-0.5"/>
                </g>
                <g id="arrowLeft" xlink:href="#dirArrow" transform="rotate(270) translate(-36 17)" onmousedown="handlePan(-1,0)">
                  <use xlink:href="#rim" fill="#404040">
                        <set attributeName="fill" to="#808080" begin="arrowLeft.mouseover" end="arrowLeft.mouseout"/>
                  </use>
                  <path fill="none" stroke="white" stroke-width="1.5" d="M0,-3.0v7 M-2.5,-0.5L0,-3.0L2.5,-0.5"/>
                </g>
        </g>
        <svg viewBox="0 0 15 15" width="100%" height="30px" preserveAspectRatio="xMaxYMin meet">
         <g id="arrow_out" transform="scale(0.3 0.3)">
          <a xlink:href="dir_68267d1309a1af8e8297ef4c3efbcdba_dep_org.svg" target="_base">
           <rect id="button" ry="5" rx="5" y="6" x="6" height="38" width="38"
                fill="#f2f5e9" fill-opacity="0.5" stroke="#606060" stroke-width="1.0"/>
           <path id="arrow"
             d="M 11.500037,31.436501 C 11.940474,20.09759 22.043105,11.32322 32.158766,21.979434 L 37.068811,17.246167 C 37.068811,17.246167 37.088388,32 37.088388,32 L 22.160133,31.978069 C 22.160133,31.978069 26.997745,27.140456 26.997745,27.140456 C 18.528582,18.264221 13.291696,25.230495 11.500037,31.436501 z"
             style="fill:#404040;"/>
          </a>
         </g>
        </svg>
</svg>
