<?xml version="1.0" encoding="UTF-8" standalone="no"?>
<!DOCTYPE svg PUBLIC "-//W3C//DTD SVG 1.1//EN"
 "http://www.w3.org/Graphics/SVG/1.1/DTD/svg11.dtd">
<!-- Generated by graphviz version 4.0.0 (20220602.1335)
 -->
<!-- Title: ComputeBeatHisto Pages: 1 -->
<svg width="140pt" height="151pt"
 viewBox="0.00 0.00 140.00 151.00" xmlns="http://www.w3.org/2000/svg" xmlns:xlink="http://www.w3.org/1999/xlink">
<g id="graph0" class="graph" transform="scale(1 1) rotate(0) translate(4 147)">
<title>ComputeBeatHisto</title>
<polygon fill="white" stroke="transparent" points="-4,4 -4,-147 136,-147 136,4 -4,4"/>
<g id="clust1" class="cluster">
<title>clusterdir_68267d1309a1af8e8297ef4c3efbcdba</title>
<g id="a_clust1"><a xlink:href="dir_68267d1309a1af8e8297ef4c3efbcdba.xhtml" target="_top" xlink:title="src">
<polygon fill="#ededf7" stroke="#404040" stroke-dasharray="5,2" points="8,-64 8,-135 124,-135 124,-64 8,-64"/>
<text text-anchor="middle" x="66" y="-123" font-family="Helvetica,sans-Serif" font-size="10.00">src</text>
</a>
</g>
</g>
<!-- dir_7853cff6ae85101c84b607f53d7cd608 -->
<g id="node1" class="node">
<title>dir_7853cff6ae85101c84b607f53d7cd608</title>
<g id="a_node1"><a xlink:href="dir_7853cff6ae85101c84b607f53d7cd608.xhtml" target="_top" xlink:title="ComputeBeatHisto">
<polygon fill="#ededf7" stroke="#404040" stroke-width="2" points="115.5,-108 16.5,-108 16.5,-72 115.5,-72 115.5,-108"/>
<text text-anchor="middle" x="66" y="-87.5" font-family="Helvetica,sans-Serif" font-size="10.00">ComputeBeatHisto</text>
</a>
</g>
</g>
<!-- dir_bfccd401955b95cf8c75461437045ac0 -->
<g id="node2" class="node">
<title>dir_bfccd401955b95cf8c75461437045ac0</title>
<g id="a_node2"><a xlink:href="dir_bfccd401955b95cf8c75461437045ac0.xhtml" target="_top" xlink:title="inc">
<polygon fill="none" stroke="red" points="93,-36 39,-36 39,0 93,0 93,-36"/>
<text text-anchor="middle" x="66" y="-15.5" font-family="Helvetica,sans-Serif" font-size="10.00">inc</text>
</a>
</g>
</g>
<!-- dir_7853cff6ae85101c84b607f53d7cd608&#45;&gt;dir_bfccd401955b95cf8c75461437045ac0 -->
<g id="edge1" class="edge">
<title>dir_7853cff6ae85101c84b607f53d7cd608&#45;&gt;dir_bfccd401955b95cf8c75461437045ac0</title>
<path fill="none" stroke="black" d="M66,-71.7C66,-63.98 66,-54.71 66,-46.11"/>
<polygon fill="black" stroke="black" points="69.5,-46.1 66,-36.1 62.5,-46.1 69.5,-46.1"/>
<g id="a_edge1&#45;headlabel"><a xlink:href="dir_000003_000014.xhtml" target="_top" xlink:title="2">
<text text-anchor="middle" x="72.34" y="-47.2" font-family="Helvetica,sans-Serif" font-size="10.00">2</text>
</a>
</g>
</g>
</g>
</svg>
