<?xml version="1.0" encoding="UTF-8" standalone="no"?>
<!DOCTYPE svg PUBLIC "-//W3C//DTD SVG 1.1//EN"
 "http://www.w3.org/Graphics/SVG/1.1/DTD/svg11.dtd">
<!-- Generated by graphviz version 4.0.0 (20220602.1335)
 -->
<!-- Title: ComputeNoveltyFunction Pages: 1 -->
<svg width="166pt" height="151pt"
 viewBox="0.00 0.00 166.00 151.00" xmlns="http://www.w3.org/2000/svg" xmlns:xlink="http://www.w3.org/1999/xlink">
<g id="graph0" class="graph" transform="scale(1 1) rotate(0) translate(4 147)">
<title>ComputeNoveltyFunction</title>
<polygon fill="white" stroke="transparent" points="-4,4 -4,-147 162,-147 162,4 -4,4"/>
<g id="clust1" class="cluster">
<title>clusterdir_68267d1309a1af8e8297ef4c3efbcdba</title>
<g id="a_clust1"><a xlink:href="dir_68267d1309a1af8e8297ef4c3efbcdba.xhtml" target="_top" xlink:title="src">
<polygon fill="#ededf7" stroke="#404040" stroke-dasharray="5,2" points="8,-64 8,-135 150,-135 150,-64 8,-64"/>
<text text-anchor="middle" x="79" y="-123" font-family="Helvetica,sans-Serif" font-size="10.00">src</text>
</a>
</g>
</g>
<!-- dir_48d746f1bf5bac7021e0a64c4f6bb862 -->
<g id="node1" class="node">
<title>dir_48d746f1bf5bac7021e0a64c4f6bb862</title>
<g id="a_node1"><a xlink:href="dir_48d746f1bf5bac7021e0a64c4f6bb862.xhtml" target="_top" xlink:title="ComputeNoveltyFunction">
<polygon fill="#ededf7" stroke="#404040" stroke-width="2" points="142,-108 16,-108 16,-72 142,-72 142,-108"/>
<text text-anchor="middle" x="79" y="-87.5" font-family="Helvetica,sans-Serif" font-size="10.00">ComputeNoveltyFunction</text>
</a>
</g>
</g>
<!-- dir_bfccd401955b95cf8c75461437045ac0 -->
<g id="node2" class="node">
<title>dir_bfccd401955b95cf8c75461437045ac0</title>
<g id="a_node2"><a xlink:href="dir_bfccd401955b95cf8c75461437045ac0.xhtml" target="_top" xlink:title="inc">
<polygon fill="none" stroke="red" points="106,-36 52,-36 52,0 106,0 106,-36"/>
<text text-anchor="middle" x="79" y="-15.5" font-family="Helvetica,sans-Serif" font-size="10.00">inc</text>
</a>
</g>
</g>
<!-- dir_48d746f1bf5bac7021e0a64c4f6bb862&#45;&gt;dir_bfccd401955b95cf8c75461437045ac0 -->
<g id="edge1" class="edge">
<title>dir_48d746f1bf5bac7021e0a64c4f6bb862&#45;&gt;dir_bfccd401955b95cf8c75461437045ac0</title>
<path fill="none" stroke="black" d="M79,-71.7C79,-63.98 79,-54.71 79,-46.11"/>
<polygon fill="black" stroke="black" points="82.5,-46.1 79,-36.1 75.5,-46.1 82.5,-46.1"/>
<g id="a_edge1&#45;headlabel"><a xlink:href="dir_000009_000014.xhtml" target="_top" xlink:title="2">
<text text-anchor="middle" x="85.34" y="-47.2" font-family="Helvetica,sans-Serif" font-size="10.00">2</text>
</a>
</g>
</g>
</g>
</svg>
