<?xml version="1.0" encoding="UTF-8" standalone="no"?>
<!DOCTYPE svg PUBLIC "-//W3C//DTD SVG 1.1//EN"
 "http://www.w3.org/Graphics/SVG/1.1/DTD/svg11.dtd">
<!-- Generated by graphviz version 6.0.1 (20220911.1526)
 -->
<!-- Title: Graphical Class Hierarchy Pages: 1 -->
<svg width="213pt" height="64pt"
 viewBox="0.00 0.00 213.00 64.00" xmlns="http://www.w3.org/2000/svg" xmlns:xlink="http://www.w3.org/1999/xlink">
<g id="graph0" class="graph" transform="scale(1 1) rotate(0) translate(4 60)">
<title>Graphical Class Hierarchy</title>
<!-- Node0 -->
<g id="node1" class="node">
<title>Node0</title>
<g id="a_node1"><a xlink:href="a00466.xhtml" target="_top" xlink:title="class for computation of a instantaneous feature from either a file or a vector, supports both one&#45;di...">
<polygon fill="white" stroke="#666666" points="62,-37 0,-37 0,-18 62,-18 62,-37"/>
<text text-anchor="middle" x="31" y="-25" font-family="Helvetica,sans-Serif" font-size="10.00">CFeatureIf</text>
</a>
</g>
</g>
<!-- Node1 -->
<g id="node2" class="node">
<title>Node1</title>
<g id="a_node2"><a xlink:href="a00318.xhtml" target="_top" xlink:title="class for computation of a feature from a file">
<polygon fill="white" stroke="#666666" points="199,-56 104,-56 104,-37 199,-37 199,-56"/>
<text text-anchor="middle" x="151.5" y="-44" font-family="Helvetica,sans-Serif" font-size="10.00">CFeatureFromFile</text>
</a>
</g>
</g>
<!-- Node0&#45;&gt;Node1 -->
<g id="edge1" class="edge">
<title>Node0&#45;&gt;Node1</title>
<path fill="none" stroke="#63b8ff" d="M72.38,-33.97C82.47,-35.59 93.38,-37.34 103.76,-39.01"/>
<polygon fill="#63b8ff" stroke="#63b8ff" points="72.64,-30.47 62.21,-32.34 71.53,-37.38 72.64,-30.47"/>
</g>
<!-- Node2 -->
<g id="node3" class="node">
<title>Node2</title>
<g id="a_node3"><a xlink:href="a00322.xhtml" target="_top" xlink:title="class for computation of a feature from a vector of audio data">
<polygon fill="white" stroke="#666666" points="205,-19 98,-19 98,0 205,0 205,-19"/>
<text text-anchor="middle" x="151.5" y="-7" font-family="Helvetica,sans-Serif" font-size="10.00">CFeatureFromVector</text>
</a>
</g>
</g>
<!-- Node0&#45;&gt;Node2 -->
<g id="edge2" class="edge">
<title>Node0&#45;&gt;Node2</title>
<path fill="none" stroke="#63b8ff" d="M72.26,-21.38C80.47,-20.14 89.22,-18.81 97.78,-17.51"/>
<polygon fill="#63b8ff" stroke="#63b8ff" points="71.57,-17.95 62.21,-22.91 72.62,-24.87 71.57,-17.95"/>
</g>
</g>
</svg>
