<?xml version="1.0" encoding="UTF-8" standalone="no"?>
<!DOCTYPE svg PUBLIC "-//W3C//DTD SVG 1.1//EN"
 "http://www.w3.org/Graphics/SVG/1.1/DTD/svg11.dtd">
<!-- Generated by graphviz version 6.0.1 (20220911.1526)
 -->
<!-- Title: Graphical Class Hierarchy Pages: 1 -->
<svg width="274pt" height="212pt"
 viewBox="0.00 0.00 274.00 212.00" xmlns="http://www.w3.org/2000/svg" xmlns:xlink="http://www.w3.org/1999/xlink">
<g id="graph0" class="graph" transform="scale(1 1) rotate(0) translate(4 208)">
<title>Graphical Class Hierarchy</title>
<!-- Node0 -->
<g id="node1" class="node">
<title>Node0</title>
<g id="a_node1"><a xlink:href="a00526.xhtml" target="_top" xlink:title="class for computation of f0 from a block of data (e.g., time or magnitude spectrum)">
<polygon fill="white" stroke="#666666" points="99,-111 0,-111 0,-92 99,-92 99,-111"/>
<text text-anchor="middle" x="49.5" y="-99" font-family="Helvetica,sans-Serif" font-size="10.00">CPitchFromBlockIf</text>
</a>
</g>
</g>
<!-- Node1 -->
<g id="node2" class="node">
<title>Node1</title>
<g id="a_node2"><a xlink:href="a00378.xhtml" target="_top" xlink:title="class for computation of the pitch via the acf of the magnitude spectrum">
<polygon fill="white" stroke="#666666" points="249,-204 152,-204 152,-185 249,-185 249,-204"/>
<text text-anchor="middle" x="200.5" y="-192" font-family="Helvetica,sans-Serif" font-size="10.00">CPitchSpectralAcf</text>
</a>
</g>
</g>
<!-- Node0&#45;&gt;Node1 -->
<g id="edge1" class="edge">
<title>Node0&#45;&gt;Node1</title>
<path fill="none" stroke="#63b8ff" d="M65.4,-118.67C81.09,-135.71 107.32,-161.41 135,-176.5 141.23,-179.89 148.15,-182.69 155.08,-184.99"/>
<polygon fill="#63b8ff" stroke="#63b8ff" points="67.87,-116.18 58.59,-111.08 62.67,-120.86 67.87,-116.18"/>
</g>
<!-- Node2 -->
<g id="node3" class="node">
<title>Node2</title>
<g id="a_node3"><a xlink:href="a00382.xhtml" target="_top" xlink:title="class for computation of the pitch via the hps of the magnitude spectrum">
<polygon fill="white" stroke="#666666" points="250.5,-167 150.5,-167 150.5,-148 250.5,-148 250.5,-167"/>
<text text-anchor="middle" x="200.5" y="-155" font-family="Helvetica,sans-Serif" font-size="10.00">CPitchSpectralHps</text>
</a>
</g>
</g>
<!-- Node0&#45;&gt;Node2 -->
<g id="edge2" class="edge">
<title>Node0&#45;&gt;Node2</title>
<path fill="none" stroke="#63b8ff" d="M79.05,-115.63C95.22,-123.31 115.96,-132.61 135,-139.5 143.53,-142.59 152.84,-145.46 161.68,-147.97"/>
<polygon fill="#63b8ff" stroke="#63b8ff" points="80.15,-112.28 69.62,-111.1 77.12,-118.59 80.15,-112.28"/>
</g>
<!-- Node3 -->
<g id="node4" class="node">
<title>Node3</title>
<g id="a_node4"><a xlink:href="a00386.xhtml" target="_top" xlink:title="class for computation of the pitch via the acf of the time domain signal">
<polygon fill="white" stroke="#666666" points="242,-130 159,-130 159,-111 242,-111 242,-130"/>
<text text-anchor="middle" x="200.5" y="-118" font-family="Helvetica,sans-Serif" font-size="10.00">CPitchTimeAcf</text>
</a>
</g>
</g>
<!-- Node0&#45;&gt;Node3 -->
<g id="edge3" class="edge">
<title>Node0&#45;&gt;Node3</title>
<path fill="none" stroke="#63b8ff" d="M109.38,-109.01C125.85,-111.11 143.39,-113.35 158.58,-115.28"/>
<polygon fill="#63b8ff" stroke="#63b8ff" points="109.65,-105.51 99.29,-107.72 108.77,-112.46 109.65,-105.51"/>
</g>
<!-- Node4 -->
<g id="node5" class="node">
<title>Node4</title>
<g id="a_node5"><a xlink:href="a00394.xhtml" target="_top" xlink:title="class for computation of the pitch via the amdf method from the time domain signal">
<polygon fill="white" stroke="#666666" points="246,-93 155,-93 155,-74 246,-74 246,-93"/>
<text text-anchor="middle" x="200.5" y="-81" font-family="Helvetica,sans-Serif" font-size="10.00">CPitchTimeAmdf</text>
</a>
</g>
</g>
<!-- Node0&#45;&gt;Node4 -->
<g id="edge4" class="edge">
<title>Node0&#45;&gt;Node4</title>
<path fill="none" stroke="#63b8ff" d="M109.52,-94.37C124.54,-92.56 140.45,-90.63 154.64,-88.92"/>
<polygon fill="#63b8ff" stroke="#63b8ff" points="108.8,-90.93 99.29,-95.61 109.64,-97.88 108.8,-90.93"/>
</g>
<!-- Node5 -->
<g id="node6" class="node">
<title>Node5</title>
<g id="a_node6"><a xlink:href="a00390.xhtml" target="_top" xlink:title="class for computation of the pitch via the auditory method from the time domain signal">
<polygon fill="white" stroke="#666666" points="252,-56 149,-56 149,-37 252,-37 252,-56"/>
<text text-anchor="middle" x="200.5" y="-44" font-family="Helvetica,sans-Serif" font-size="10.00">CPitchTimeAuditory</text>
</a>
</g>
</g>
<!-- Node0&#45;&gt;Node5 -->
<g id="edge5" class="edge">
<title>Node0&#45;&gt;Node5</title>
<path fill="none" stroke="#63b8ff" d="M80.45,-87.74C96.46,-80.63 116.61,-72.1 135,-65.5 144.45,-62.11 154.83,-58.85 164.45,-56.02"/>
<polygon fill="#63b8ff" stroke="#63b8ff" points="78.76,-84.66 71.07,-91.94 81.62,-91.04 78.76,-84.66"/>
</g>
<!-- Node6 -->
<g id="node7" class="node">
<title>Node6</title>
<g id="a_node7"><a xlink:href="a00398.xhtml" target="_top" xlink:title="class for computation of the pitch via the zero crossings method from the time domain signal">
<polygon fill="white" stroke="#666666" points="266,-19 135,-19 135,0 266,0 266,-19"/>
<text text-anchor="middle" x="200.5" y="-7" font-family="Helvetica,sans-Serif" font-size="10.00">CPitchTimeZeroCrossings</text>
</a>
</g>
</g>
<!-- Node0&#45;&gt;Node6 -->
<g id="edge6" class="edge">
<title>Node0&#45;&gt;Node6</title>
<path fill="none" stroke="#63b8ff" d="M65.8,-84.62C81.62,-68.11 107.8,-43.34 135,-28.5 141.97,-24.7 149.79,-21.57 157.51,-19.04"/>
<polygon fill="#63b8ff" stroke="#63b8ff" points="63.18,-82.29 58.9,-91.98 68.29,-87.08 63.18,-82.29"/>
</g>
</g>
</svg>
