<?xml version="1.0" encoding="UTF-8" standalone="no"?>
<!DOCTYPE svg PUBLIC "-//W3C//DTD SVG 1.1//EN"
 "http://www.w3.org/Graphics/SVG/1.1/DTD/svg11.dtd">
<!-- Generated by graphviz version 4.0.0 (20220602.1335)
 -->
<!-- Title: Graphical Class Hierarchy Pages: 1 -->
<svg width="221pt" height="66pt"
 viewBox="0.00 0.00 221.00 66.00" xmlns="http://www.w3.org/2000/svg" xmlns:xlink="http://www.w3.org/1999/xlink">
<g id="graph0" class="graph" transform="scale(1 1) rotate(0) translate(4 62)">
<title>Graphical Class Hierarchy</title>
<polygon fill="white" stroke="transparent" points="-4,4 -4,-62 217,-62 217,4 -4,4"/>
<!-- Node0 -->
<g id="node1" class="node">
<title>Node0</title>
<g id="a_node1"><a xlink:href="a00548.xhtml" target="_top" xlink:title="forward declaration">
<polygon fill="white" stroke="black" points="0,-19.5 0,-38.5 79,-38.5 79,-19.5 0,-19.5"/>
<text text-anchor="middle" x="39.5" y="-26.5" font-family="Helvetica,sans-Serif" font-size="10.00">CBlockAudioIf</text>
</a>
</g>
</g>
<!-- Node1 -->
<g id="node2" class="node">
<title>Node1</title>
<g id="a_node2"><a xlink:href="a00420.xhtml" target="_top" xlink:title=" ">
<polygon fill="white" stroke="black" points="115,-38.5 115,-57.5 213,-57.5 213,-38.5 115,-38.5"/>
<text text-anchor="middle" x="164" y="-45.5" font-family="Helvetica,sans-Serif" font-size="10.00">CBlockAudioBuffer</text>
</a>
</g>
</g>
<!-- Node0&#45;&gt;Node1 -->
<g id="edge1" class="edge">
<title>Node0&#45;&gt;Node1</title>
<path fill="none" stroke="midnightblue" d="M89.23,-36.56C97.58,-37.85 106.25,-39.2 114.58,-40.49"/>
<polygon fill="midnightblue" stroke="midnightblue" points="89.68,-33.09 79.26,-35.01 88.61,-40 89.68,-33.09"/>
</g>
<!-- Node2 -->
<g id="node3" class="node">
<title>Node2</title>
<g id="a_node3"><a xlink:href="a00416.xhtml" target="_top" xlink:title=" ">
<polygon fill="white" stroke="black" points="119.5,-0.5 119.5,-19.5 208.5,-19.5 208.5,-0.5 119.5,-0.5"/>
<text text-anchor="middle" x="164" y="-7.5" font-family="Helvetica,sans-Serif" font-size="10.00">CBlockAudioFile</text>
</a>
</g>
</g>
<!-- Node0&#45;&gt;Node2 -->
<g id="edge2" class="edge">
<title>Node0&#45;&gt;Node2</title>
<path fill="none" stroke="midnightblue" d="M89.38,-21.42C99.3,-19.88 109.66,-18.27 119.38,-16.77"/>
<polygon fill="midnightblue" stroke="midnightblue" points="88.61,-18 79.26,-22.99 89.68,-24.91 88.61,-18"/>
</g>
</g>
</svg>
