<?xml version="1.0" encoding="UTF-8" standalone="no"?>
<!DOCTYPE svg PUBLIC "-//W3C//DTD SVG 1.1//EN"
 "http://www.w3.org/Graphics/SVG/1.1/DTD/svg11.dtd">
<!-- Generated by graphviz version 4.0.0 (20220602.1335)
 -->
<!-- Title: Graphical Class Hierarchy Pages: 1 -->
<svg width="693pt" height="783pt"
 viewBox="0.00 0.00 693.00 783.00" xmlns="http://www.w3.org/2000/svg" xmlns:xlink="http://www.w3.org/1999/xlink">
<g id="graph0" class="graph" transform="scale(1 1) rotate(0) translate(4 779)">
<title>Graphical Class Hierarchy</title>
<polygon fill="white" stroke="transparent" points="-4,4 -4,-779 689,-779 689,4 -4,4"/>
<!-- Node0 -->
<g id="node1" class="node">
<title>Node0</title>
<g id="a_node1"><a xlink:href="a00979.xhtml" target="_top" xlink:title=" ">
<polygon fill="white" stroke="black" points="4,-702.5 4,-732.5 130,-732.5 130,-702.5 4,-702.5"/>
<text text-anchor="start" x="12" y="-720.5" font-family="Helvetica,sans-Serif" font-size="10.00">Catch::Matchers::Impl</text>
<text text-anchor="middle" x="67" y="-709.5" font-family="Helvetica,sans-Serif" font-size="10.00">::MatcherMethod&lt; ArgT &gt;</text>
</a>
</g>
</g>
<!-- Node1 -->
<g id="node2" class="node">
<title>Node1</title>
<g id="a_node2"><a xlink:href="a00983.xhtml" target="_top" xlink:title=" ">
<polygon fill="white" stroke="black" points="189.5,-695.5 189.5,-725.5 305.5,-725.5 305.5,-695.5 189.5,-695.5"/>
<text text-anchor="start" x="197.5" y="-713.5" font-family="Helvetica,sans-Serif" font-size="10.00">Catch::Matchers::Impl</text>
<text text-anchor="middle" x="247.5" y="-702.5" font-family="Helvetica,sans-Serif" font-size="10.00">::MatcherBase&lt; ArgT &gt;</text>
</a>
</g>
</g>
<!-- Node0&#45;&gt;Node1 -->
<g id="edge1" class="edge">
<title>Node0&#45;&gt;Node1</title>
<path fill="none" stroke="midnightblue" d="M140.23,-714.67C156.57,-714.03 173.71,-713.35 189.33,-712.74"/>
<polygon fill="midnightblue" stroke="midnightblue" points="140.04,-711.17 130.18,-715.06 140.31,-718.17 140.04,-711.17"/>
</g>
<!-- Node2 -->
<g id="node3" class="node">
<title>Node2</title>
<g id="a_node3"><a xlink:href="a00963.xhtml" target="_top" xlink:title=" ">
<polygon fill="white" stroke="black" points="384,-744.5 384,-774.5 494,-774.5 494,-744.5 384,-744.5"/>
<text text-anchor="start" x="392" y="-762.5" font-family="Helvetica,sans-Serif" font-size="10.00">Catch::Matchers::Impl</text>
<text text-anchor="middle" x="439" y="-751.5" font-family="Helvetica,sans-Serif" font-size="10.00">::MatchAllOf&lt; ArgT &gt;</text>
</a>
</g>
</g>
<!-- Node1&#45;&gt;Node2 -->
<g id="edge2" class="edge">
<title>Node1&#45;&gt;Node2</title>
<path fill="none" stroke="midnightblue" d="M315.41,-727.8C337.85,-733.6 362.59,-740 383.92,-745.52"/>
<polygon fill="midnightblue" stroke="midnightblue" points="316.17,-724.38 305.61,-725.27 314.42,-731.16 316.17,-724.38"/>
</g>
<!-- Node3 -->
<g id="node4" class="node">
<title>Node3</title>
<g id="a_node4"><a xlink:href="a00967.xhtml" target="_top" xlink:title=" ">
<polygon fill="white" stroke="black" points="382.5,-695.5 382.5,-725.5 495.5,-725.5 495.5,-695.5 382.5,-695.5"/>
<text text-anchor="start" x="390.5" y="-713.5" font-family="Helvetica,sans-Serif" font-size="10.00">Catch::Matchers::Impl</text>
<text text-anchor="middle" x="439" y="-702.5" font-family="Helvetica,sans-Serif" font-size="10.00">::MatchAnyOf&lt; ArgT &gt;</text>
</a>
</g>
</g>
<!-- Node1&#45;&gt;Node3 -->
<g id="edge3" class="edge">
<title>Node1&#45;&gt;Node3</title>
<path fill="none" stroke="midnightblue" d="M315.78,-710.5C337.56,-710.5 361.46,-710.5 382.31,-710.5"/>
<polygon fill="midnightblue" stroke="midnightblue" points="315.61,-707 305.61,-710.5 315.61,-714 315.61,-707"/>
</g>
<!-- Node4 -->
<g id="node5" class="node">
<title>Node4</title>
<g id="a_node5"><a xlink:href="a00971.xhtml" target="_top" xlink:title=" ">
<polygon fill="white" stroke="black" points="383,-646.5 383,-676.5 495,-676.5 495,-646.5 383,-646.5"/>
<text text-anchor="start" x="391" y="-664.5" font-family="Helvetica,sans-Serif" font-size="10.00">Catch::Matchers::Impl</text>
<text text-anchor="middle" x="439" y="-653.5" font-family="Helvetica,sans-Serif" font-size="10.00">::MatchNotOf&lt; ArgT &gt;</text>
</a>
</g>
</g>
<!-- Node1&#45;&gt;Node4 -->
<g id="edge4" class="edge">
<title>Node1&#45;&gt;Node4</title>
<path fill="none" stroke="midnightblue" d="M315.58,-693.16C337.64,-687.45 361.89,-681.18 382.96,-675.73"/>
<polygon fill="midnightblue" stroke="midnightblue" points="314.42,-689.84 305.61,-695.73 316.17,-696.62 314.42,-689.84"/>
</g>
<!-- Node9 -->
<g id="node6" class="node">
<title>Node9</title>
<g id="a_node6"><a xlink:href="a00979.xhtml" target="_top" xlink:title=" ">
<polygon fill="white" stroke="black" points="0,-653.5 0,-683.5 134,-683.5 134,-653.5 0,-653.5"/>
<text text-anchor="start" x="8" y="-671.5" font-family="Helvetica,sans-Serif" font-size="10.00">Catch::Matchers::Impl</text>
<text text-anchor="middle" x="67" y="-660.5" font-family="Helvetica,sans-Serif" font-size="10.00">::MatcherMethod&lt; double &gt;</text>
</a>
</g>
</g>
<!-- Node8 -->
<g id="node7" class="node">
<title>Node8</title>
<g id="a_node7"><a xlink:href="a00983.xhtml" target="_top" xlink:title=" ">
<polygon fill="white" stroke="black" points="185.5,-644.5 185.5,-674.5 309.5,-674.5 309.5,-644.5 185.5,-644.5"/>
<text text-anchor="start" x="193.5" y="-662.5" font-family="Helvetica,sans-Serif" font-size="10.00">Catch::Matchers::Impl</text>
<text text-anchor="middle" x="247.5" y="-651.5" font-family="Helvetica,sans-Serif" font-size="10.00">::MatcherBase&lt; double &gt;</text>
</a>
</g>
</g>
<!-- Node9&#45;&gt;Node8 -->
<g id="edge5" class="edge">
<title>Node9&#45;&gt;Node8</title>
<path fill="none" stroke="midnightblue" d="M144.55,-664.64C158.21,-663.95 172.26,-663.24 185.41,-662.58"/>
<polygon fill="midnightblue" stroke="midnightblue" points="144.02,-661.16 134.21,-665.16 144.38,-668.15 144.02,-661.16"/>
</g>
<!-- Node7 -->
<g id="node8" class="node">
<title>Node7</title>
<g id="a_node8"><a xlink:href="a00979.xhtml" target="_top" xlink:title=" ">
<polygon fill="white" stroke="black" points="12,-594 12,-635 122,-635 122,-594 12,-594"/>
<text text-anchor="start" x="20" y="-623" font-family="Helvetica,sans-Serif" font-size="10.00">Catch::Matchers::Impl</text>
<text text-anchor="start" x="20" y="-612" font-family="Helvetica,sans-Serif" font-size="10.00">::MatcherMethod&lt; std</text>
<text text-anchor="middle" x="67" y="-601" font-family="Helvetica,sans-Serif" font-size="10.00">::exception &gt;</text>
</a>
</g>
</g>
<!-- Node6 -->
<g id="node9" class="node">
<title>Node6</title>
<g id="a_node9"><a xlink:href="a00983.xhtml" target="_top" xlink:title=" ">
<polygon fill="white" stroke="black" points="170,-591.5 170,-621.5 325,-621.5 325,-591.5 170,-591.5"/>
<text text-anchor="start" x="178" y="-609.5" font-family="Helvetica,sans-Serif" font-size="10.00">Catch::Matchers::Impl</text>
<text text-anchor="middle" x="247.5" y="-598.5" font-family="Helvetica,sans-Serif" font-size="10.00">::MatcherBase&lt; std::exception &gt;</text>
</a>
</g>
</g>
<!-- Node7&#45;&gt;Node6 -->
<g id="edge6" class="edge">
<title>Node7&#45;&gt;Node6</title>
<path fill="none" stroke="midnightblue" d="M132.15,-611.63C144.4,-611.08 157.33,-610.5 169.92,-609.93"/>
<polygon fill="midnightblue" stroke="midnightblue" points="131.87,-608.13 122.04,-612.08 132.19,-615.13 131.87,-608.13"/>
</g>
<!-- Node11 -->
<g id="node10" class="node">
<title>Node11</title>
<g id="a_node10"><a xlink:href="a00979.xhtml" target="_top" xlink:title=" ">
<polygon fill="white" stroke="black" points="12,-486 12,-527 122,-527 122,-486 12,-486"/>
<text text-anchor="start" x="20" y="-515" font-family="Helvetica,sans-Serif" font-size="10.00">Catch::Matchers::Impl</text>
<text text-anchor="start" x="20" y="-504" font-family="Helvetica,sans-Serif" font-size="10.00">::MatcherMethod&lt; std</text>
<text text-anchor="middle" x="67" y="-493" font-family="Helvetica,sans-Serif" font-size="10.00">::string &gt;</text>
</a>
</g>
</g>
<!-- Node10 -->
<g id="node11" class="node">
<title>Node10</title>
<g id="a_node11"><a xlink:href="a00983.xhtml" target="_top" xlink:title=" ">
<polygon fill="white" stroke="black" points="179,-534.5 179,-564.5 316,-564.5 316,-534.5 179,-534.5"/>
<text text-anchor="start" x="187" y="-552.5" font-family="Helvetica,sans-Serif" font-size="10.00">Catch::Matchers::Impl</text>
<text text-anchor="middle" x="247.5" y="-541.5" font-family="Helvetica,sans-Serif" font-size="10.00">::MatcherBase&lt; std::string &gt;</text>
</a>
</g>
</g>
<!-- Node11&#45;&gt;Node10 -->
<g id="edge7" class="edge">
<title>Node11&#45;&gt;Node10</title>
<path fill="none" stroke="midnightblue" d="M131.88,-521.89C148.9,-525.99 167.26,-530.41 184.19,-534.49"/>
<polygon fill="midnightblue" stroke="midnightblue" points="132.58,-518.46 122.04,-519.52 130.94,-525.26 132.58,-518.46"/>
</g>
<!-- Node15 -->
<g id="node12" class="node">
<title>Node15</title>
<g id="a_node12"><a xlink:href="a00979.xhtml" target="_top" xlink:title=" ">
<polygon fill="white" stroke="black" points="12,-426 12,-467 122,-467 122,-426 12,-426"/>
<text text-anchor="start" x="20" y="-455" font-family="Helvetica,sans-Serif" font-size="10.00">Catch::Matchers::Impl</text>
<text text-anchor="start" x="20" y="-444" font-family="Helvetica,sans-Serif" font-size="10.00">::MatcherMethod&lt; std</text>
<text text-anchor="middle" x="67" y="-433" font-family="Helvetica,sans-Serif" font-size="10.00">::vector&lt; T, Alloc &gt; &gt;</text>
</a>
</g>
</g>
<!-- Node14 -->
<g id="node13" class="node">
<title>Node14</title>
<g id="a_node13"><a xlink:href="a00983.xhtml" target="_top" xlink:title=" ">
<polygon fill="white" stroke="black" points="181.5,-465 181.5,-506 313.5,-506 313.5,-465 181.5,-465"/>
<text text-anchor="start" x="189.5" y="-494" font-family="Helvetica,sans-Serif" font-size="10.00">Catch::Matchers::Impl</text>
<text text-anchor="start" x="189.5" y="-483" font-family="Helvetica,sans-Serif" font-size="10.00">::MatcherBase&lt; std::vector</text>
<text text-anchor="middle" x="247.5" y="-472" font-family="Helvetica,sans-Serif" font-size="10.00">&lt; T, Alloc &gt; &gt;</text>
</a>
</g>
</g>
<!-- Node15&#45;&gt;Node14 -->
<g id="edge8" class="edge">
<title>Node15&#45;&gt;Node14</title>
<path fill="none" stroke="midnightblue" d="M131.87,-460.45C147.93,-463.96 165.19,-467.73 181.31,-471.26"/>
<polygon fill="midnightblue" stroke="midnightblue" points="132.56,-457.02 122.04,-458.31 131.06,-463.86 132.56,-457.02"/>
</g>
<!-- Node13 -->
<g id="node14" class="node">
<title>Node13</title>
<g id="a_node14"><a xlink:href="a00979.xhtml" target="_top" xlink:title=" ">
<polygon fill="white" stroke="black" points="0.5,-366 0.5,-407 133.5,-407 133.5,-366 0.5,-366"/>
<text text-anchor="start" x="8.5" y="-395" font-family="Helvetica,sans-Serif" font-size="10.00">Catch::Matchers::Impl</text>
<text text-anchor="start" x="8.5" y="-384" font-family="Helvetica,sans-Serif" font-size="10.00">::MatcherMethod&lt; std</text>
<text text-anchor="middle" x="67" y="-373" font-family="Helvetica,sans-Serif" font-size="10.00">::vector&lt; T, AllocMatch &gt; &gt;</text>
</a>
</g>
</g>
<!-- Node12 -->
<g id="node15" class="node">
<title>Node12</title>
<g id="a_node15"><a xlink:href="a00983.xhtml" target="_top" xlink:title=" ">
<polygon fill="white" stroke="black" points="181.5,-388 181.5,-429 313.5,-429 313.5,-388 181.5,-388"/>
<text text-anchor="start" x="189.5" y="-417" font-family="Helvetica,sans-Serif" font-size="10.00">Catch::Matchers::Impl</text>
<text text-anchor="start" x="189.5" y="-406" font-family="Helvetica,sans-Serif" font-size="10.00">::MatcherBase&lt; std::vector</text>
<text text-anchor="middle" x="247.5" y="-395" font-family="Helvetica,sans-Serif" font-size="10.00">&lt; T, AllocMatch &gt; &gt;</text>
</a>
</g>
</g>
<!-- Node13&#45;&gt;Node12 -->
<g id="edge9" class="edge">
<title>Node13&#45;&gt;Node12</title>
<path fill="none" stroke="midnightblue" d="M143.64,-395.82C156.14,-397.36 169.01,-398.95 181.23,-400.46"/>
<polygon fill="midnightblue" stroke="midnightblue" points="144.06,-392.35 133.71,-394.6 143.2,-399.3 144.06,-392.35"/>
</g>
<!-- Node33 -->
<g id="node16" class="node">
<title>Node33</title>
<g id="a_node16"><a xlink:href="a00979.xhtml" target="_top" xlink:title=" ">
<polygon fill="white" stroke="black" points="11.5,-317.5 11.5,-347.5 122.5,-347.5 122.5,-317.5 11.5,-317.5"/>
<text text-anchor="start" x="19.5" y="-335.5" font-family="Helvetica,sans-Serif" font-size="10.00">Catch::Matchers::Impl</text>
<text text-anchor="middle" x="67" y="-324.5" font-family="Helvetica,sans-Serif" font-size="10.00">::MatcherMethod&lt; T &gt;</text>
</a>
</g>
</g>
<!-- Node16 -->
<g id="node17" class="node">
<title>Node16</title>
<g id="a_node17"><a xlink:href="a00983.xhtml" target="_top" xlink:title=" ">
<polygon fill="white" stroke="black" points="192.5,-325.5 192.5,-355.5 302.5,-355.5 302.5,-325.5 192.5,-325.5"/>
<text text-anchor="start" x="200.5" y="-343.5" font-family="Helvetica,sans-Serif" font-size="10.00">Catch::Matchers::Impl</text>
<text text-anchor="middle" x="247.5" y="-332.5" font-family="Helvetica,sans-Serif" font-size="10.00">::MatcherBase&lt; T &gt;</text>
</a>
</g>
</g>
<!-- Node33&#45;&gt;Node16 -->
<g id="edge10" class="edge">
<title>Node33&#45;&gt;Node16</title>
<path fill="none" stroke="midnightblue" d="M132.59,-335.39C152.17,-336.27 173.48,-337.23 192.31,-338.07"/>
<polygon fill="midnightblue" stroke="midnightblue" points="132.67,-331.9 122.53,-334.94 132.36,-338.89 132.67,-331.9"/>
</g>
<!-- Node17 -->
<g id="node18" class="node">
<title>Node17</title>
<g id="a_node18"><a xlink:href="a00987.xhtml" target="_top" xlink:title=" ">
<polygon fill="white" stroke="black" points="370,-98.5 370,-128.5 508,-128.5 508,-98.5 370,-98.5"/>
<text text-anchor="start" x="378" y="-116.5" font-family="Helvetica,sans-Serif" font-size="10.00">Catch::Matchers::Exception</text>
<text text-anchor="middle" x="439" y="-105.5" font-family="Helvetica,sans-Serif" font-size="10.00">::ExceptionMessageMatcher</text>
</a>
</g>
</g>
<!-- Node16&#45;&gt;Node17 -->
<g id="edge11" class="edge">
<title>Node16&#45;&gt;Node17</title>
<path fill="none" stroke="midnightblue" d="M255.47,-315.89C268.8,-273.25 301.97,-185.57 361,-137.5 365.23,-134.05 369.97,-131.1 374.94,-128.57"/>
<polygon fill="midnightblue" stroke="midnightblue" points="252.11,-314.89 252.57,-325.48 258.81,-316.92 252.11,-314.89"/>
</g>
<!-- Node18 -->
<g id="node19" class="node">
<title>Node18</title>
<g id="a_node19"><a xlink:href="a00991.xhtml" target="_top" xlink:title=" ">
<polygon fill="white" stroke="black" points="376,-49.5 376,-79.5 502,-79.5 502,-49.5 376,-49.5"/>
<text text-anchor="start" x="384" y="-67.5" font-family="Helvetica,sans-Serif" font-size="10.00">Catch::Matchers::Floating</text>
<text text-anchor="middle" x="439" y="-56.5" font-family="Helvetica,sans-Serif" font-size="10.00">::WithinAbsMatcher</text>
</a>
</g>
</g>
<!-- Node16&#45;&gt;Node18 -->
<g id="edge12" class="edge">
<title>Node16&#45;&gt;Node18</title>
<path fill="none" stroke="midnightblue" d="M252.63,-315.47C262.26,-265.04 290.93,-150.77 361,-88.5 365.4,-84.59 370.42,-81.32 375.75,-78.58"/>
<polygon fill="midnightblue" stroke="midnightblue" points="249.15,-315.02 250.81,-325.49 256.04,-316.28 249.15,-315.02"/>
</g>
<!-- Node19 -->
<g id="node20" class="node">
<title>Node19</title>
<g id="a_node20"><a xlink:href="a00999.xhtml" target="_top" xlink:title=" ">
<polygon fill="white" stroke="black" points="376,-0.5 376,-30.5 502,-30.5 502,-0.5 376,-0.5"/>
<text text-anchor="start" x="384" y="-18.5" font-family="Helvetica,sans-Serif" font-size="10.00">Catch::Matchers::Floating</text>
<text text-anchor="middle" x="439" y="-7.5" font-family="Helvetica,sans-Serif" font-size="10.00">::WithinRelMatcher</text>
</a>
</g>
</g>
<!-- Node16&#45;&gt;Node19 -->
<g id="edge13" class="edge">
<title>Node16&#45;&gt;Node19</title>
<path fill="none" stroke="midnightblue" d="M250.56,-315.5C256.63,-258.23 279.52,-116.57 361,-39.5 365.37,-35.36 370.45,-31.94 375.87,-29.1"/>
<polygon fill="midnightblue" stroke="midnightblue" points="247.08,-315.18 249.59,-325.48 254.04,-315.87 247.08,-315.18"/>
</g>
<!-- Node20 -->
<g id="node21" class="node">
<title>Node20</title>
<g id="a_node21"><a xlink:href="a00995.xhtml" target="_top" xlink:title=" ">
<polygon fill="white" stroke="black" points="376,-593.5 376,-623.5 502,-623.5 502,-593.5 376,-593.5"/>
<text text-anchor="start" x="384" y="-611.5" font-family="Helvetica,sans-Serif" font-size="10.00">Catch::Matchers::Floating</text>
<text text-anchor="middle" x="439" y="-600.5" font-family="Helvetica,sans-Serif" font-size="10.00">::WithinUlpsMatcher</text>
</a>
</g>
</g>
<!-- Node16&#45;&gt;Node20 -->
<g id="edge14" class="edge">
<title>Node16&#45;&gt;Node20</title>
<path fill="none" stroke="midnightblue" d="M305.13,-360.77C312.72,-365.57 319.7,-371.41 325,-378.5 380.38,-452.6 300.33,-513.67 361,-583.5 365.15,-588.27 370.22,-592.14 375.76,-595.28"/>
<polygon fill="midnightblue" stroke="midnightblue" points="306.42,-357.48 295.99,-355.6 302.98,-363.57 306.42,-357.48"/>
</g>
<!-- Node21 -->
<g id="node22" class="node">
<title>Node21</title>
<g id="a_node22"><a xlink:href="a01003.xhtml" target="_top" xlink:title=" ">
<polygon fill="white" stroke="black" points="376.5,-544.5 376.5,-574.5 501.5,-574.5 501.5,-544.5 376.5,-544.5"/>
<text text-anchor="start" x="384.5" y="-562.5" font-family="Helvetica,sans-Serif" font-size="10.00">Catch::Matchers::Generic</text>
<text text-anchor="middle" x="439" y="-551.5" font-family="Helvetica,sans-Serif" font-size="10.00">::PredicateMatcher&lt; T &gt;</text>
</a>
</g>
</g>
<!-- Node16&#45;&gt;Node21 -->
<g id="edge15" class="edge">
<title>Node16&#45;&gt;Node21</title>
<path fill="none" stroke="midnightblue" d="M304.02,-360.53C311.95,-365.39 319.33,-371.32 325,-378.5 369.09,-434.35 312.92,-482.04 361,-534.5 365.37,-539.27 370.65,-543.13 376.38,-546.25"/>
<polygon fill="midnightblue" stroke="midnightblue" points="305.69,-357.46 295.24,-355.67 302.29,-363.58 305.69,-357.46"/>
</g>
<!-- Node22 -->
<g id="node23" class="node">
<title>Node22</title>
<g id="a_node23"><a xlink:href="a01031.xhtml" target="_top" xlink:title=" ">
<polygon fill="white" stroke="black" points="373,-495.5 373,-525.5 505,-525.5 505,-495.5 373,-495.5"/>
<text text-anchor="start" x="381" y="-513.5" font-family="Helvetica,sans-Serif" font-size="10.00">Catch::Matchers::StdString</text>
<text text-anchor="middle" x="439" y="-502.5" font-family="Helvetica,sans-Serif" font-size="10.00">::RegexMatcher</text>
</a>
</g>
</g>
<!-- Node16&#45;&gt;Node22 -->
<g id="edge16" class="edge">
<title>Node16&#45;&gt;Node22</title>
<path fill="none" stroke="midnightblue" d="M302.3,-360.36C310.72,-365.29 318.71,-371.28 325,-378.5 357.98,-416.32 325.33,-450.21 361,-485.5 364.9,-489.36 369.39,-492.62 374.22,-495.37"/>
<polygon fill="midnightblue" stroke="midnightblue" points="303.88,-357.24 293.41,-355.6 300.58,-363.41 303.88,-357.24"/>
</g>
<!-- Node23 -->
<g id="node24" class="node">
<title>Node23</title>
<g id="a_node24"><a xlink:href="a01011.xhtml" target="_top" xlink:title=" ">
<polygon fill="white" stroke="black" points="373,-446.5 373,-476.5 505,-476.5 505,-446.5 373,-446.5"/>
<text text-anchor="start" x="381" y="-464.5" font-family="Helvetica,sans-Serif" font-size="10.00">Catch::Matchers::StdString</text>
<text text-anchor="middle" x="439" y="-453.5" font-family="Helvetica,sans-Serif" font-size="10.00">::StringMatcherBase</text>
</a>
</g>
</g>
<!-- Node16&#45;&gt;Node23 -->
<g id="edge17" class="edge">
<title>Node16&#45;&gt;Node23</title>
<path fill="none" stroke="midnightblue" d="M298.36,-360.16C307.84,-365.25 317.21,-371.36 325,-378.5 347.64,-399.26 336.78,-418.6 361,-437.5 365.42,-440.95 370.33,-443.9 375.48,-446.43"/>
<polygon fill="midnightblue" stroke="midnightblue" points="299.79,-356.96 289.29,-355.58 296.64,-363.21 299.79,-356.96"/>
</g>
<!-- Node28 -->
<g id="node29" class="node">
<title>Node28</title>
<g id="a_node29"><a xlink:href="a01047.xhtml" target="_top" xlink:title=" ">
<polygon fill="white" stroke="black" points="361,-387 361,-428 517,-428 517,-387 361,-387"/>
<text text-anchor="start" x="369" y="-416" font-family="Helvetica,sans-Serif" font-size="10.00">Catch::Matchers::Vector</text>
<text text-anchor="start" x="369" y="-405" font-family="Helvetica,sans-Serif" font-size="10.00">::ApproxMatcher&lt; T, AllocComp,</text>
<text text-anchor="middle" x="439" y="-394" font-family="Helvetica,sans-Serif" font-size="10.00"> AllocMatch &gt;</text>
</a>
</g>
</g>
<!-- Node16&#45;&gt;Node28 -->
<g id="edge22" class="edge">
<title>Node16&#45;&gt;Node28</title>
<path fill="none" stroke="midnightblue" d="M300.53,-358.9C325.1,-367.58 354.51,-377.98 379.81,-386.93"/>
<polygon fill="midnightblue" stroke="midnightblue" points="301.62,-355.57 291.03,-355.54 299.29,-362.17 301.62,-355.57"/>
</g>
<!-- Node29 -->
<g id="node30" class="node">
<title>Node29</title>
<g id="a_node30"><a xlink:href="a01035.xhtml" target="_top" xlink:title=" ">
<polygon fill="white" stroke="black" points="374,-327 374,-368 504,-368 504,-327 374,-327"/>
<text text-anchor="start" x="382" y="-356" font-family="Helvetica,sans-Serif" font-size="10.00">Catch::Matchers::Vector</text>
<text text-anchor="start" x="382" y="-345" font-family="Helvetica,sans-Serif" font-size="10.00">::ContainsElementMatcher</text>
<text text-anchor="middle" x="439" y="-334" font-family="Helvetica,sans-Serif" font-size="10.00">&lt; T, Alloc &gt;</text>
</a>
</g>
</g>
<!-- Node16&#45;&gt;Node29 -->
<g id="edge23" class="edge">
<title>Node16&#45;&gt;Node29</title>
<path fill="none" stroke="midnightblue" d="M312.66,-342.87C332.38,-343.6 354.09,-344.4 373.81,-345.13"/>
<polygon fill="midnightblue" stroke="midnightblue" points="312.67,-339.37 302.55,-342.5 312.41,-346.36 312.67,-339.37"/>
</g>
<!-- Node30 -->
<g id="node31" class="node">
<title>Node30</title>
<g id="a_node31"><a xlink:href="a01039.xhtml" target="_top" xlink:title=" ">
<polygon fill="white" stroke="black" points="375,-267 375,-308 503,-308 503,-267 375,-267"/>
<text text-anchor="start" x="383" y="-296" font-family="Helvetica,sans-Serif" font-size="10.00">Catch::Matchers::Vector</text>
<text text-anchor="start" x="383" y="-285" font-family="Helvetica,sans-Serif" font-size="10.00">::ContainsMatcher&lt; T,</text>
<text text-anchor="middle" x="439" y="-274" font-family="Helvetica,sans-Serif" font-size="10.00"> AllocComp, AllocMatch &gt;</text>
</a>
</g>
</g>
<!-- Node16&#45;&gt;Node30 -->
<g id="edge24" class="edge">
<title>Node16&#45;&gt;Node30</title>
<path fill="none" stroke="midnightblue" d="M312.01,-322.74C332.2,-317.09 354.51,-310.85 374.68,-305.21"/>
<polygon fill="midnightblue" stroke="midnightblue" points="310.98,-319.39 302.3,-325.45 312.87,-326.13 310.98,-319.39"/>
</g>
<!-- Node31 -->
<g id="node32" class="node">
<title>Node31</title>
<g id="a_node32"><a xlink:href="a01043.xhtml" target="_top" xlink:title=" ">
<polygon fill="white" stroke="black" points="361.5,-207 361.5,-248 516.5,-248 516.5,-207 361.5,-207"/>
<text text-anchor="start" x="369.5" y="-236" font-family="Helvetica,sans-Serif" font-size="10.00">Catch::Matchers::Vector</text>
<text text-anchor="start" x="369.5" y="-225" font-family="Helvetica,sans-Serif" font-size="10.00">::EqualsMatcher&lt; T, AllocComp,</text>
<text text-anchor="middle" x="439" y="-214" font-family="Helvetica,sans-Serif" font-size="10.00"> AllocMatch &gt;</text>
</a>
</g>
</g>
<!-- Node16&#45;&gt;Node31 -->
<g id="edge25" class="edge">
<title>Node16&#45;&gt;Node31</title>
<path fill="none" stroke="midnightblue" d="M273.66,-318.9C295.64,-300.8 328.95,-275.16 361,-257.5 367.03,-254.18 373.51,-251.05 380.05,-248.15"/>
<polygon fill="midnightblue" stroke="midnightblue" points="271.26,-316.34 265.82,-325.43 275.75,-321.72 271.26,-316.34"/>
</g>
<!-- Node32 -->
<g id="node33" class="node">
<title>Node32</title>
<g id="a_node33"><a xlink:href="a01051.xhtml" target="_top" xlink:title=" ">
<polygon fill="white" stroke="black" points="366,-147 366,-188 512,-188 512,-147 366,-147"/>
<text text-anchor="start" x="374" y="-176" font-family="Helvetica,sans-Serif" font-size="10.00">Catch::Matchers::Vector</text>
<text text-anchor="start" x="374" y="-165" font-family="Helvetica,sans-Serif" font-size="10.00">::UnorderedEqualsMatcher</text>
<text text-anchor="middle" x="439" y="-154" font-family="Helvetica,sans-Serif" font-size="10.00">&lt; T, AllocComp, AllocMatch &gt;</text>
</a>
</g>
</g>
<!-- Node16&#45;&gt;Node32 -->
<g id="edge26" class="edge">
<title>Node16&#45;&gt;Node32</title>
<path fill="none" stroke="midnightblue" d="M261.85,-316.45C280.36,-285.1 316.61,-230.4 361,-197.5 365.73,-194 370.91,-190.85 376.29,-188.03"/>
<polygon fill="midnightblue" stroke="midnightblue" points="258.66,-314.97 256.69,-325.38 264.72,-318.47 258.66,-314.97"/>
</g>
<!-- Node24 -->
<g id="node25" class="node">
<title>Node24</title>
<g id="a_node25"><a xlink:href="a01019.xhtml" target="_top" xlink:title=" ">
<polygon fill="white" stroke="black" points="553,-519.5 553,-549.5 685,-549.5 685,-519.5 553,-519.5"/>
<text text-anchor="start" x="561" y="-537.5" font-family="Helvetica,sans-Serif" font-size="10.00">Catch::Matchers::StdString</text>
<text text-anchor="middle" x="619" y="-526.5" font-family="Helvetica,sans-Serif" font-size="10.00">::ContainsMatcher</text>
</a>
</g>
</g>
<!-- Node23&#45;&gt;Node24 -->
<g id="edge18" class="edge">
<title>Node23&#45;&gt;Node24</title>
<path fill="none" stroke="midnightblue" d="M504.48,-480.07C508.77,-481.77 512.98,-483.58 517,-485.5 534.36,-493.78 535.92,-500.66 553,-509.5 559.87,-513.06 567.37,-516.4 574.75,-519.41"/>
<polygon fill="midnightblue" stroke="midnightblue" points="505.6,-476.75 495.01,-476.52 503.15,-483.31 505.6,-476.75"/>
</g>
<!-- Node25 -->
<g id="node26" class="node">
<title>Node25</title>
<g id="a_node26"><a xlink:href="a01027.xhtml" target="_top" xlink:title=" ">
<polygon fill="white" stroke="black" points="553,-470.5 553,-500.5 685,-500.5 685,-470.5 553,-470.5"/>
<text text-anchor="start" x="561" y="-488.5" font-family="Helvetica,sans-Serif" font-size="10.00">Catch::Matchers::StdString</text>
<text text-anchor="middle" x="619" y="-477.5" font-family="Helvetica,sans-Serif" font-size="10.00">::EndsWithMatcher</text>
</a>
</g>
</g>
<!-- Node23&#45;&gt;Node25 -->
<g id="edge19" class="edge">
<title>Node23&#45;&gt;Node25</title>
<path fill="none" stroke="midnightblue" d="M515.01,-471.61C527.59,-473.31 540.55,-475.06 552.86,-476.72"/>
<polygon fill="midnightblue" stroke="midnightblue" points="515.4,-468.13 505.02,-470.27 514.46,-475.07 515.4,-468.13"/>
</g>
<!-- Node26 -->
<g id="node27" class="node">
<title>Node26</title>
<g id="a_node27"><a xlink:href="a01015.xhtml" target="_top" xlink:title=" ">
<polygon fill="white" stroke="black" points="553,-421.5 553,-451.5 685,-451.5 685,-421.5 553,-421.5"/>
<text text-anchor="start" x="561" y="-439.5" font-family="Helvetica,sans-Serif" font-size="10.00">Catch::Matchers::StdString</text>
<text text-anchor="middle" x="619" y="-428.5" font-family="Helvetica,sans-Serif" font-size="10.00">::EqualsMatcher</text>
</a>
</g>
</g>
<!-- Node23&#45;&gt;Node26 -->
<g id="edge20" class="edge">
<title>Node23&#45;&gt;Node26</title>
<path fill="none" stroke="midnightblue" d="M515.01,-450.97C527.59,-449.2 540.55,-447.38 552.86,-445.65"/>
<polygon fill="midnightblue" stroke="midnightblue" points="514.43,-447.51 505.02,-452.37 515.41,-454.44 514.43,-447.51"/>
</g>
<!-- Node27 -->
<g id="node28" class="node">
<title>Node27</title>
<g id="a_node28"><a xlink:href="a01023.xhtml" target="_top" xlink:title=" ">
<polygon fill="white" stroke="black" points="553,-372.5 553,-402.5 685,-402.5 685,-372.5 553,-372.5"/>
<text text-anchor="start" x="561" y="-390.5" font-family="Helvetica,sans-Serif" font-size="10.00">Catch::Matchers::StdString</text>
<text text-anchor="middle" x="619" y="-379.5" font-family="Helvetica,sans-Serif" font-size="10.00">::StartsWithMatcher</text>
</a>
</g>
</g>
<!-- Node23&#45;&gt;Node27 -->
<g id="edge21" class="edge">
<title>Node23&#45;&gt;Node27</title>
<path fill="none" stroke="midnightblue" d="M505.37,-442.77C509.36,-441.13 513.27,-439.37 517,-437.5 534.65,-428.67 535.58,-420.78 553,-411.5 559.05,-408.28 565.63,-405.3 572.2,-402.62"/>
<polygon fill="midnightblue" stroke="midnightblue" points="504.01,-439.55 495.95,-446.42 506.53,-446.08 504.01,-439.55"/>
</g>
<!-- Node5 -->
<g id="node34" class="node">
<title>Node5</title>
<g id="a_node34"><a xlink:href="a00975.xhtml" target="_top" xlink:title=" ">
<polygon fill="white" stroke="black" points="9.5,-545.5 9.5,-575.5 124.5,-575.5 124.5,-545.5 9.5,-545.5"/>
<text text-anchor="start" x="17.5" y="-563.5" font-family="Helvetica,sans-Serif" font-size="10.00">Catch::Matchers::Impl</text>
<text text-anchor="middle" x="67" y="-552.5" font-family="Helvetica,sans-Serif" font-size="10.00">::MatcherUntypedBase</text>
</a>
</g>
</g>
<!-- Node5&#45;&gt;Node1 -->
<g id="edge29" class="edge">
<title>Node5&#45;&gt;Node1</title>
<path fill="none" stroke="midnightblue" d="M130.62,-581.4C131.8,-582.39 132.92,-583.42 134,-584.5 167.35,-617.96 136.3,-651.4 170,-684.5 175.5,-689.91 182.17,-694.19 189.26,-697.58"/>
<polygon fill="midnightblue" stroke="midnightblue" points="132.51,-578.45 122.32,-575.55 128.47,-584.17 132.51,-578.45"/>
</g>
<!-- Node5&#45;&gt;Node8 -->
<g id="edge28" class="edge">
<title>Node5&#45;&gt;Node8</title>
<path fill="none" stroke="midnightblue" d="M128.11,-580.61C130.15,-581.84 132.12,-583.13 134,-584.5 155.01,-599.75 149.09,-615.11 170,-630.5 177.55,-636.06 186.29,-640.68 195.11,-644.47"/>
<polygon fill="midnightblue" stroke="midnightblue" points="129.33,-577.29 118.87,-575.64 126.02,-583.46 129.33,-577.29"/>
</g>
<!-- Node5&#45;&gt;Node6 -->
<g id="edge27" class="edge">
<title>Node5&#45;&gt;Node6</title>
<path fill="none" stroke="midnightblue" d="M135.1,-577.79C152.57,-582.29 171.26,-587.11 188.23,-591.48"/>
<polygon fill="midnightblue" stroke="midnightblue" points="135.53,-574.29 124.97,-575.18 133.78,-581.07 135.53,-574.29"/>
</g>
<!-- Node5&#45;&gt;Node10 -->
<g id="edge30" class="edge">
<title>Node5&#45;&gt;Node10</title>
<path fill="none" stroke="midnightblue" d="M135.2,-556.36C149.48,-555.48 164.56,-554.55 178.85,-553.67"/>
<polygon fill="midnightblue" stroke="midnightblue" points="134.74,-552.88 124.97,-556.99 135.17,-559.87 134.74,-552.88"/>
</g>
<!-- Node5&#45;&gt;Node14 -->
<g id="edge32" class="edge">
<title>Node5&#45;&gt;Node14</title>
<path fill="none" stroke="midnightblue" d="M120.31,-541.9C124.96,-540.12 129.58,-538.3 134,-536.5 157.13,-527.07 182.51,-515.66 203.3,-506.02"/>
<polygon fill="midnightblue" stroke="midnightblue" points="118.91,-538.68 110.79,-545.48 121.38,-545.24 118.91,-538.68"/>
</g>
<!-- Node5&#45;&gt;Node12 -->
<g id="edge31" class="edge">
<title>Node5&#45;&gt;Node12</title>
<path fill="none" stroke="midnightblue" d="M130.43,-539.56C131.66,-538.58 132.86,-537.57 134,-536.5 162.81,-509.63 144.05,-485.14 170,-455.5 179.14,-445.06 191.17,-436.2 202.98,-429.08"/>
<polygon fill="midnightblue" stroke="midnightblue" points="128.1,-536.9 121.73,-545.36 131.99,-542.72 128.1,-536.9"/>
</g>
<!-- Node5&#45;&gt;Node16 -->
<g id="edge33" class="edge">
<title>Node5&#45;&gt;Node16</title>
<path fill="none" stroke="midnightblue" d="M131.29,-539.31C132.23,-538.41 133.14,-537.48 134,-536.5 181.65,-482.5 125.45,-435.09 170,-378.5 177.71,-368.71 188.59,-361.26 199.74,-355.66"/>
<polygon fill="midnightblue" stroke="midnightblue" points="129.12,-536.57 123.4,-545.49 133.43,-542.08 129.12,-536.57"/>
</g>
</g>
</svg>
