<?xml version="1.0" encoding="UTF-8" standalone="no"?>
<!DOCTYPE svg PUBLIC "-//W3C//DTD SVG 1.1//EN"
 "http://www.w3.org/Graphics/SVG/1.1/DTD/svg11.dtd">
<!-- Generated by graphviz version 6.0.1 (20220911.1526)
 -->
<!-- Title: Graphical Class Hierarchy Pages: 1 -->
<svg width="217pt" height="64pt"
 viewBox="0.00 0.00 217.00 64.00" xmlns="http://www.w3.org/2000/svg" xmlns:xlink="http://www.w3.org/1999/xlink">
<g id="graph0" class="graph" transform="scale(1 1) rotate(0) translate(4 60)">
<title>Graphical Class Hierarchy</title>
<!-- Node0 -->
<g id="node1" class="node">
<title>Node0</title>
<g id="a_node1"><a xlink:href="a00462.xhtml" target="_top" xlink:title="abstract base class for traditional classifiers">
<polygon fill="white" stroke="#666666" points="86,-37 0,-37 0,-18 86,-18 86,-37"/>
<text text-anchor="middle" x="43" y="-25" font-family="Helvetica,sans-Serif" font-size="10.00">CClassifierBase</text>
</a>
</g>
</g>
<!-- Node1 -->
<g id="node2" class="node">
<title>Node1</title>
<g id="a_node2"><a xlink:href="a00570.xhtml" target="_top" xlink:title="computation of k nearest neighbor">
<polygon fill="white" stroke="#666666" points="209,-56 122,-56 122,-37 209,-37 209,-56"/>
<text text-anchor="middle" x="165.5" y="-44" font-family="Helvetica,sans-Serif" font-size="10.00">CGmmClassifier</text>
</a>
</g>
</g>
<!-- Node0&#45;&gt;Node1 -->
<g id="edge1" class="edge">
<title>Node0&#45;&gt;Node1</title>
<path fill="none" stroke="#63b8ff" d="M96.07,-35.71C104.65,-37.06 113.45,-38.45 121.77,-39.76"/>
<polygon fill="#63b8ff" stroke="#63b8ff" points="96.57,-32.25 86.15,-34.15 95.48,-39.16 96.57,-32.25"/>
</g>
<!-- Node2 -->
<g id="node3" class="node">
<title>Node2</title>
<g id="a_node3"><a xlink:href="a00626.xhtml" target="_top" xlink:title="computation of k nearest neighbor">
<polygon fill="white" stroke="#666666" points="186,-19 145,-19 145,0 186,0 186,-19"/>
<text text-anchor="middle" x="165.5" y="-7" font-family="Helvetica,sans-Serif" font-size="10.00">CKnn</text>
</a>
</g>
</g>
<!-- Node0&#45;&gt;Node2 -->
<g id="edge2" class="edge">
<title>Node0&#45;&gt;Node2</title>
<path fill="none" stroke="#63b8ff" d="M96.16,-19.71C113.42,-17.13 131.57,-14.42 144.83,-12.44"/>
<polygon fill="#63b8ff" stroke="#63b8ff" points="95.52,-16.27 86.15,-21.2 96.55,-23.19 95.52,-16.27"/>
</g>
</g>
</svg>
