<?xml version="1.0" encoding="UTF-8" standalone="no"?>
<!DOCTYPE svg PUBLIC "-//W3C//DTD SVG 1.1//EN"
 "http://www.w3.org/Graphics/SVG/1.1/DTD/svg11.dtd">
<!-- Generated by graphviz version 4.0.0 (20220602.1335)
 -->
<!-- Title: Graphical Class Hierarchy Pages: 1 -->
<svg width="292pt" height="142pt"
 viewBox="0.00 0.00 292.00 142.00" xmlns="http://www.w3.org/2000/svg" xmlns:xlink="http://www.w3.org/1999/xlink">
<g id="graph0" class="graph" transform="scale(1 1) rotate(0) translate(4 138)">
<title>Graphical Class Hierarchy</title>
<polygon fill="white" stroke="transparent" points="-4,4 -4,-138 288,-138 288,4 -4,4"/>
<!-- Node0 -->
<g id="node1" class="node">
<title>Node0</title>
<g id="a_node1"><a xlink:href="a00593.xhtml" target="_top" xlink:title=" ">
<polygon fill="white" stroke="black" points="0,-57.5 0,-76.5 104,-76.5 104,-57.5 0,-57.5"/>
<text text-anchor="middle" x="52" y="-64.5" font-family="Helvetica,sans-Serif" font-size="10.00">Catch::NonCopyable</text>
</a>
</g>
</g>
<!-- Node1 -->
<g id="node2" class="node">
<title>Node1</title>
<g id="a_node2"><a xlink:href="a00649.xhtml" target="_top" xlink:title=" ">
<polygon fill="white" stroke="black" points="170,-114.5 170,-133.5 254,-133.5 254,-114.5 170,-114.5"/>
<text text-anchor="middle" x="212" y="-121.5" font-family="Helvetica,sans-Serif" font-size="10.00">Catch::AutoReg</text>
</a>
</g>
</g>
<!-- Node0&#45;&gt;Node1 -->
<g id="edge1" class="edge">
<title>Node0&#45;&gt;Node1</title>
<path fill="none" stroke="midnightblue" d="M81.93,-80.94C98.66,-88.67 120.23,-98.08 140,-105 150,-108.5 160.97,-111.73 171.25,-114.49"/>
<polygon fill="midnightblue" stroke="midnightblue" points="83.24,-77.69 72.7,-76.62 80.27,-84.03 83.24,-77.69"/>
</g>
<!-- Node2 -->
<g id="node3" class="node">
<title>Node2</title>
<g id="a_node3"><a xlink:href="a01113.xhtml" target="_top" xlink:title=" ">
<polygon fill="white" stroke="black" points="173.5,-76.5 173.5,-95.5 250.5,-95.5 250.5,-76.5 173.5,-76.5"/>
<text text-anchor="middle" x="212" y="-83.5" font-family="Helvetica,sans-Serif" font-size="10.00">Catch::IConfig</text>
</a>
</g>
</g>
<!-- Node0&#45;&gt;Node2 -->
<g id="edge2" class="edge">
<title>Node0&#45;&gt;Node2</title>
<path fill="none" stroke="midnightblue" d="M114.25,-74.37C134.22,-76.77 155.78,-79.36 173.47,-81.49"/>
<polygon fill="midnightblue" stroke="midnightblue" points="114.64,-70.89 104.3,-73.17 113.81,-77.84 114.64,-70.89"/>
</g>
<!-- Node3 -->
<g id="node4" class="node">
<title>Node3</title>
<g id="a_node4"><a xlink:href="a00669.xhtml" target="_top" xlink:title=" ">
<polygon fill="white" stroke="black" points="140,-38.5 140,-57.5 284,-57.5 284,-38.5 140,-38.5"/>
<text text-anchor="middle" x="212" y="-45.5" font-family="Helvetica,sans-Serif" font-size="10.00">Catch::ReusableStringStream</text>
</a>
</g>
</g>
<!-- Node0&#45;&gt;Node3 -->
<g id="edge3" class="edge">
<title>Node0&#45;&gt;Node3</title>
<path fill="none" stroke="#8b1a1a" d="M114.34,-59.62C122.7,-58.62 131.34,-57.58 139.86,-56.55"/>
<polygon fill="#8b1a1a" stroke="#8b1a1a" points="113.81,-56.16 104.3,-60.83 114.64,-63.11 113.81,-56.16"/>
</g>
<!-- Node4 -->
<g id="node5" class="node">
<title>Node4</title>
<g id="a_node5"><a xlink:href="a00889.xhtml" target="_top" xlink:title=" ">
<polygon fill="white" stroke="black" points="172,-0.5 172,-19.5 252,-19.5 252,-0.5 172,-0.5"/>
<text text-anchor="middle" x="212" y="-7.5" font-family="Helvetica,sans-Serif" font-size="10.00">Catch::Section</text>
</a>
</g>
</g>
<!-- Node0&#45;&gt;Node4 -->
<g id="edge4" class="edge">
<title>Node0&#45;&gt;Node4</title>
<path fill="none" stroke="#8b1a1a" d="M81.93,-53.06C98.66,-45.33 120.23,-35.92 140,-29 150.24,-25.42 161.5,-22.12 171.99,-19.31"/>
<polygon fill="#8b1a1a" stroke="#8b1a1a" points="80.27,-49.97 72.7,-57.38 83.24,-56.31 80.27,-49.97"/>
</g>
</g>
</svg>
